<svg xmlns="http://www.w3.org/2000/svg" viewBox="86.00305435134278 17.649283796287406 254.3279593531218 256.0213955553194" width="254.3279593531218" height="256.0213955553194" shape-rendering="geometricPrecision"><rect x="86.00305435134278" y="17.649283796287406" width="254.3279593531218" height="256.0213955553194" fill="#0b0f14"/><path d="M 246.807 187.500 L 246.746 188.427 L 246.565 189.338 L 246.267 190.217 L 245.856 191.050 L 245.340 191.823 L 244.727 192.521 L 244.029 193.134 L 243.256 193.650 L 242.423 194.061 L 241.544 194.359 L 240.633 194.540 L 239.706 194.601 L 238.779 194.540 L 237.868 194.359 L 236.988 194.061 L 236.155 193.650 L 235.383 193.134 L 234.685 192.521 L 234.072 191.823 L 233.556 191.050 L 233.145 190.217 L 232.847 189.338 L 232.665 188.427 L 232.605 187.500 L 232.665 186.573 L 232.847 185.662 L 233.145 184.782 L 233.556 183.949 L 234.072 183.177 L 234.685 182.479 L 235.383 181.866 L 236.155 181.350 L 236.988 180.939 L 237.868 180.641 L 238.779 180.459 L 239.706 180.399 L 240.633 180.459 L 241.544 180.641 L 242.423 180.939 L 243.256 181.350 L 244.029 181.866 L 244.727 182.479 L 245.340 183.177 L 245.856 183.949 L 246.267 184.782 L 246.565 185.662 L 246.746 186.573 L 246.807 187.500 M 192.068 132.333 L 192.028 132.942 L 191.909 133.541 L 191.713 134.119 L 191.443 134.667 L 191.103 135.175 L 190.701 135.634 L 190.241 136.037 L 189.734 136.376 L 189.186 136.646 L 188.607 136.843 L 188.008 136.962 L 187.399 137.002 L 186.790 136.962 L 186.190 136.843 L 185.612 136.646 L 185.064 136.376 L 184.556 136.037 L 184.097 135.634 L 183.695 135.175 L 183.355 134.667 L 183.085 134.119 L 182.889 133.541 L 182.770 132.942 L 182.730 132.333 L 182.770 131.723 L 182.889 131.124 L 183.085 130.546 L 183.355 129.998 L 183.695 129.490 L 184.097 129.031 L 184.556 128.628 L 185.064 128.289 L 185.612 128.019 L 186.190 127.822 L 186.790 127.703 L 187.399 127.663 L 188.008 127.703 L 188.607 127.822 L 189.186 128.019 L 189.734 128.289 L 190.241 128.628 L 190.701 129.031 L 191.103 129.490 L 191.443 129.998 L 191.713 130.546 L 191.909 131.124 L 192.028 131.723 L 192.068 132.333 M 272.423 128.760 L 272.304 130.571 L 271.950 132.351 L 271.367 134.070 L 270.564 135.698 L 269.555 137.207 L 268.359 138.571 L 266.994 139.768 L 265.485 140.776 L 263.857 141.579 L 262.139 142.162 L 260.358 142.517 L 258.547 142.635 L 256.736 142.517 L 254.956 142.162 L 253.237 141.579 L 251.610 140.776 L 250.100 139.768 L 248.736 138.571 L 247.539 137.207 L 246.531 135.698 L 245.728 134.070 L 245.145 132.351 L 244.791 130.571 L 244.672 128.760 L 244.791 126.949 L 245.145 125.169 L 245.728 123.450 L 246.531 121.822 L 247.539 120.313 L 248.736 118.948 L 250.100 117.752 L 251.610 116.743 L 253.237 115.941 L 254.956 115.357 L 256.736 115.003 L 258.547 114.884 L 260.358 115.003 L 262.139 115.357 L 263.857 115.941 L 265.485 116.743 L 266.994 117.752 L 268.359 118.948 L 269.555 120.313 L 270.564 121.822 L 271.367 123.450 L 271.950 125.169 L 272.304 126.949 L 272.423 128.760 M 235.050 203.653 L 234.994 204.515 L 234.825 205.361 L 234.548 206.179 L 234.166 206.953 L 233.686 207.671 L 233.117 208.320 L 232.468 208.890 L 231.750 209.369 L 230.975 209.751 L 230.158 210.029 L 229.311 210.197 L 228.449 210.254 L 227.588 210.197 L 226.741 210.029 L 225.924 209.751 L 225.149 209.369 L 224.431 208.890 L 223.782 208.320 L 223.213 207.671 L 222.733 206.953 L 222.351 206.179 L 222.074 205.361 L 221.905 204.515 L 221.849 203.653 L 221.905 202.792 L 222.074 201.945 L 222.351 201.127 L 222.733 200.353 L 223.213 199.635 L 223.782 198.986 L 224.431 198.417 L 225.149 197.937 L 225.924 197.555 L 226.741 197.278 L 227.588 197.109 L 228.449 197.053 L 229.311 197.109 L 230.158 197.278 L 230.975 197.555 L 231.750 197.937 L 232.468 198.417 L 233.117 198.986 L 233.686 199.635 L 234.166 200.353 L 234.548 201.127 L 234.825 201.945 L 234.994 202.792 L 235.050 203.653 M 146.120 93.090 L 146.023 94.565 L 145.735 96.015 L 145.260 97.414 L 144.606 98.740 L 143.785 99.969 L 142.810 101.080 L 141.699 102.055 L 140.470 102.876 L 139.144 103.530 L 137.745 104.005 L 136.295 104.294 L 134.820 104.390 L 133.345 104.294 L 131.895 104.005 L 130.496 103.530 L 129.170 102.876 L 127.941 102.055 L 126.830 101.080 L 125.855 99.969 L 125.034 98.740 L 124.380 97.414 L 123.905 96.015 L 123.617 94.565 L 123.520 93.090 L 123.617 91.615 L 123.905 90.165 L 124.380 88.766 L 125.034 87.440 L 125.855 86.211 L 126.830 85.100 L 127.941 84.125 L 129.170 83.304 L 130.496 82.650 L 131.895 82.175 L 133.345 81.887 L 134.820 81.790 L 136.295 81.887 L 137.745 82.175 L 139.144 82.650 L 140.470 83.304 L 141.699 84.125 L 142.810 85.100 L 143.785 86.211 L 144.606 87.440 L 145.260 88.766 L 145.735 90.165 L 146.023 91.615 L 146.120 93.090 M 183.407 207.343 L 183.210 210.349 L 182.622 213.304 L 181.653 216.157 L 180.321 218.859 L 178.647 221.365 L 176.660 223.630 L 174.395 225.616 L 171.890 227.290 L 169.188 228.623 L 166.335 229.591 L 163.380 230.179 L 160.373 230.376 L 157.367 230.179 L 154.412 229.591 L 151.559 228.623 L 148.857 227.290 L 146.351 225.616 L 144.086 223.630 L 142.100 221.365 L 140.426 218.859 L 139.093 216.157 L 138.125 213.304 L 137.537 210.349 L 137.340 207.343 L 137.537 204.336 L 138.125 201.381 L 139.093 198.528 L 140.426 195.826 L 142.100 193.321 L 144.086 191.056 L 146.351 189.069 L 148.857 187.395 L 151.559 186.063 L 154.412 185.094 L 157.367 184.506 L 160.373 184.309 L 163.380 184.506 L 166.335 185.094 L 169.188 186.063 L 171.890 187.395 L 174.395 189.069 L 176.660 191.056 L 178.647 193.321 L 180.321 195.826 L 181.653 198.528 L 182.622 201.381 L 183.210 204.336 L 183.407 207.343 M 200.714 239.941 L 200.583 241.934 L 200.193 243.892 L 199.552 245.783 L 198.669 247.574 L 197.559 249.234 L 196.243 250.735 L 194.742 252.051 L 193.081 253.161 L 191.291 254.044 L 189.400 254.686 L 187.442 255.075 L 185.449 255.206 L 183.457 255.075 L 181.499 254.686 L 179.608 254.044 L 177.817 253.161 L 176.157 252.051 L 174.656 250.735 L 173.339 249.234 L 172.230 247.574 L 171.347 245.783 L 170.705 243.892 L 170.315 241.934 L 170.185 239.941 L 170.315 237.949 L 170.705 235.991 L 171.347 234.100 L 172.230 232.309 L 173.339 230.649 L 174.656 229.148 L 176.157 227.831 L 177.817 226.722 L 179.608 225.839 L 181.499 225.197 L 183.457 224.808 L 185.449 224.677 L 187.442 224.808 L 189.400 225.197 L 191.291 225.839 L 193.081 226.722 L 194.742 227.831 L 196.243 229.148 L 197.559 230.649 L 198.669 232.309 L 199.552 234.100 L 200.193 235.991 L 200.583 237.949 L 200.714 239.941 M 245.304 158.126 L 245.122 160.905 L 244.579 163.635 L 243.684 166.272 L 242.452 168.769 L 240.906 171.084 L 239.070 173.178 L 236.976 175.013 L 234.661 176.560 L 232.164 177.792 L 229.528 178.687 L 226.797 179.230 L 224.018 179.412 L 221.240 179.230 L 218.509 178.687 L 215.873 177.792 L 213.376 176.560 L 211.061 175.013 L 208.967 173.178 L 207.131 171.084 L 205.585 168.769 L 204.353 166.272 L 203.458 163.635 L 202.915 160.905 L 202.733 158.126 L 202.915 155.348 L 203.458 152.617 L 204.353 149.981 L 205.585 147.483 L 207.131 145.168 L 208.967 143.075 L 211.061 141.239 L 213.376 139.692 L 215.873 138.461 L 218.509 137.566 L 221.240 137.023 L 224.018 136.841 L 226.797 137.023 L 229.528 137.566 L 232.164 138.461 L 234.661 139.692 L 236.976 141.239 L 239.070 143.075 L 240.906 145.168 L 242.452 147.483 L 243.684 149.981 L 244.579 152.617 L 245.122 155.348 L 245.304 158.126 M 291.501 156.845 L 291.432 157.894 L 291.227 158.925 L 290.890 159.920 L 290.425 160.863 L 289.841 161.737 L 289.148 162.527 L 288.357 163.220 L 287.483 163.804 L 286.541 164.269 L 285.546 164.607 L 284.515 164.812 L 283.466 164.880 L 282.417 164.812 L 281.386 164.607 L 280.391 164.269 L 279.448 163.804 L 278.574 163.220 L 277.784 162.527 L 277.091 161.737 L 276.507 160.863 L 276.042 159.920 L 275.704 158.925 L 275.499 157.894 L 275.430 156.845 L 275.499 155.796 L 275.704 154.765 L 276.042 153.770 L 276.507 152.827 L 277.091 151.953 L 277.784 151.163 L 278.574 150.470 L 279.448 149.886 L 280.391 149.421 L 281.386 149.083 L 282.417 148.878 L 283.466 148.810 L 284.515 148.878 L 285.546 149.083 L 286.541 149.421 L 287.483 149.886 L 288.357 150.470 L 289.148 151.163 L 289.841 151.953 L 290.425 152.827 L 290.890 153.770 L 291.227 154.765 L 291.432 155.796 L 291.501 156.845 M 265.874 92.341 L 265.745 94.304 L 265.361 96.234 L 264.729 98.097 L 263.858 99.862 L 262.765 101.498 L 261.468 102.977 L 259.988 104.275 L 258.352 105.368 L 256.588 106.238 L 254.725 106.871 L 252.795 107.254 L 250.831 107.383 L 248.868 107.254 L 246.938 106.871 L 245.075 106.238 L 243.310 105.368 L 241.674 104.275 L 240.195 102.977 L 238.897 101.498 L 237.804 99.862 L 236.934 98.097 L 236.301 96.234 L 235.918 94.304 L 235.789 92.341 L 235.918 90.377 L 236.301 88.447 L 236.934 86.584 L 237.804 84.820 L 238.897 83.184 L 240.195 81.704 L 241.674 80.407 L 243.310 79.314 L 245.075 78.443 L 246.938 77.811 L 248.868 77.427 L 250.831 77.298 L 252.795 77.427 L 254.725 77.811 L 256.588 78.443 L 258.352 79.314 L 259.988 80.407 L 261.468 81.704 L 262.765 83.184 L 263.858 84.820 L 264.729 86.584 L 265.361 88.447 L 265.745 90.377 L 265.874 92.341 M 325.184 125.285 L 325.032 127.614 L 324.576 129.903 L 323.826 132.113 L 322.794 134.206 L 321.498 136.146 L 319.959 137.901 L 318.204 139.439 L 316.264 140.736 L 314.171 141.768 L 311.961 142.518 L 309.672 142.973 L 307.343 143.126 L 305.015 142.973 L 302.726 142.518 L 300.516 141.768 L 298.423 140.736 L 296.483 139.439 L 294.728 137.901 L 293.189 136.146 L 291.893 134.206 L 290.861 132.113 L 290.110 129.903 L 289.655 127.614 L 289.503 125.285 L 289.655 122.956 L 290.110 120.668 L 290.861 118.458 L 291.893 116.365 L 293.189 114.424 L 294.728 112.670 L 296.483 111.131 L 298.423 109.834 L 300.516 108.802 L 302.726 108.052 L 305.015 107.597 L 307.343 107.444 L 309.672 107.597 L 311.961 108.052 L 314.171 108.802 L 316.264 109.834 L 318.204 111.131 L 319.959 112.670 L 321.498 114.424 L 322.794 116.365 L 323.826 118.458 L 324.576 120.668 L 325.032 122.956 L 325.184 125.285 M 134.087 140.753 L 133.923 143.259 L 133.433 145.723 L 132.626 148.101 L 131.515 150.354 L 130.119 152.443 L 128.463 154.332 L 126.574 155.988 L 124.486 157.383 L 122.233 158.494 L 119.854 159.302 L 117.390 159.792 L 114.884 159.956 L 112.377 159.792 L 109.913 159.302 L 107.535 158.494 L 105.282 157.383 L 103.193 155.988 L 101.305 154.332 L 99.648 152.443 L 98.253 150.354 L 97.142 148.101 L 96.334 145.723 L 95.844 143.259 L 95.680 140.753 L 95.844 138.246 L 96.334 135.782 L 97.142 133.404 L 98.253 131.151 L 99.648 129.062 L 101.305 127.174 L 103.193 125.517 L 105.282 124.122 L 107.535 123.011 L 109.913 122.203 L 112.377 121.713 L 114.884 121.549 L 117.390 121.713 L 119.854 122.203 L 122.233 123.011 L 124.486 124.122 L 126.574 125.517 L 128.463 127.174 L 130.119 129.062 L 131.515 131.151 L 132.626 133.404 L 133.433 135.782 L 133.923 138.246 L 134.087 140.753 M 290.923 227.882 L 290.719 230.995 L 290.110 234.054 L 289.107 237.009 L 287.727 239.807 L 285.994 242.401 L 283.937 244.746 L 281.592 246.803 L 278.998 248.536 L 276.200 249.916 L 273.246 250.919 L 270.186 251.528 L 267.073 251.732 L 263.960 251.528 L 260.900 250.919 L 257.946 249.916 L 255.148 248.536 L 252.554 246.803 L 250.208 244.746 L 248.151 242.401 L 246.418 239.807 L 245.038 237.009 L 244.035 234.054 L 243.427 230.995 L 243.223 227.882 L 243.427 224.769 L 244.035 221.709 L 245.038 218.755 L 246.418 215.957 L 248.151 213.363 L 250.208 211.017 L 252.554 208.960 L 255.148 207.227 L 257.946 205.847 L 260.900 204.844 L 263.960 204.236 L 267.073 204.032 L 270.186 204.236 L 273.246 204.844 L 276.200 205.847 L 278.998 207.227 L 281.592 208.960 L 283.937 211.017 L 285.994 213.363 L 287.727 215.957 L 289.107 218.755 L 290.110 221.709 L 290.719 224.769 L 290.923 227.882 M 243.009 42.655 L 242.909 44.178 L 242.611 45.675 L 242.120 47.121 L 241.445 48.490 L 240.597 49.760 L 239.591 50.907 L 238.443 51.914 L 237.174 52.762 L 235.804 53.437 L 234.359 53.928 L 232.862 54.226 L 231.338 54.326 L 229.815 54.226 L 228.318 53.928 L 226.872 53.437 L 225.503 52.762 L 224.234 51.914 L 223.086 50.907 L 222.079 49.760 L 221.231 48.490 L 220.556 47.121 L 220.065 45.675 L 219.767 44.178 L 219.667 42.655 L 219.767 41.132 L 220.065 39.634 L 220.556 38.189 L 221.231 36.820 L 222.079 35.550 L 223.086 34.402 L 224.234 33.396 L 225.503 32.548 L 226.872 31.873 L 228.318 31.382 L 229.815 31.084 L 231.338 30.984 L 232.862 31.084 L 234.359 31.382 L 235.804 31.873 L 237.174 32.548 L 238.443 33.396 L 239.591 34.402 L 240.597 35.550 L 241.445 36.820 L 242.120 38.189 L 242.611 39.634 L 242.909 41.132 L 243.009 42.655 M 229.003 69.825 L 228.864 71.958 L 228.447 74.054 L 227.760 76.078 L 226.814 77.994 L 225.627 79.771 L 224.218 81.378 L 222.611 82.788 L 220.834 83.975 L 218.917 84.920 L 216.893 85.607 L 214.797 86.024 L 212.664 86.164 L 210.532 86.024 L 208.436 85.607 L 206.412 84.920 L 204.495 83.975 L 202.718 82.788 L 201.111 81.378 L 199.702 79.771 L 198.514 77.994 L 197.569 76.078 L 196.882 74.054 L 196.465 71.958 L 196.325 69.825 L 196.465 67.692 L 196.882 65.596 L 197.569 63.572 L 198.514 61.655 L 199.702 59.878 L 201.111 58.272 L 202.718 56.862 L 204.495 55.675 L 206.412 54.730 L 208.436 54.043 L 210.532 53.626 L 212.664 53.486 L 214.797 53.626 L 216.893 54.043 L 218.917 54.730 L 220.834 55.675 L 222.611 56.862 L 224.218 58.272 L 225.627 59.878 L 226.814 61.655 L 227.760 63.572 L 228.447 65.596 L 228.864 67.692 L 229.003 69.825 M 162.896 165.811 L 162.775 167.665 L 162.413 169.486 L 161.816 171.245 L 160.994 172.911 L 159.962 174.455 L 158.738 175.852 L 157.341 177.077 L 155.797 178.108 L 154.131 178.930 L 152.372 179.527 L 150.550 179.889 L 148.697 180.011 L 146.844 179.889 L 145.022 179.527 L 143.263 178.930 L 141.597 178.108 L 140.053 177.077 L 138.656 175.852 L 137.432 174.455 L 136.400 172.911 L 135.578 171.245 L 134.981 169.486 L 134.619 167.665 L 134.498 165.811 L 134.619 163.958 L 134.981 162.136 L 135.578 160.377 L 136.400 158.712 L 137.432 157.167 L 138.656 155.771 L 140.053 154.546 L 141.597 153.514 L 143.263 152.693 L 145.022 152.096 L 146.844 151.733 L 148.697 151.612 L 150.550 151.733 L 152.372 152.096 L 154.131 152.693 L 155.797 153.514 L 157.341 154.546 L 158.738 155.771 L 159.962 157.167 L 160.994 158.712 L 161.816 160.377 L 162.413 162.136 L 162.775 163.958 L 162.896 165.811 M 312.580 207.249 L 312.525 208.079 L 312.363 208.894 L 312.096 209.681 L 311.728 210.427 L 311.266 211.118 L 310.718 211.743 L 310.093 212.291 L 309.402 212.753 L 308.656 213.121 L 307.869 213.388 L 307.053 213.550 L 306.224 213.605 L 305.394 213.550 L 304.579 213.388 L 303.791 213.121 L 303.046 212.753 L 302.354 212.291 L 301.729 211.743 L 301.181 211.118 L 300.719 210.427 L 300.352 209.681 L 300.084 208.894 L 299.922 208.079 L 299.868 207.249 L 299.922 206.419 L 300.084 205.604 L 300.352 204.817 L 300.719 204.071 L 301.181 203.380 L 301.729 202.755 L 302.354 202.206 L 303.046 201.745 L 303.791 201.377 L 304.579 201.110 L 305.394 200.947 L 306.224 200.893 L 307.053 200.947 L 307.869 201.110 L 308.656 201.377 L 309.402 201.745 L 310.093 202.206 L 310.718 202.755 L 311.266 203.380 L 311.728 204.071 L 312.096 204.817 L 312.363 205.604 L 312.525 206.419 L 312.580 207.249 M 276.161 147.244 L 276.105 148.102 L 275.937 148.945 L 275.661 149.760 L 275.280 150.531 L 274.803 151.246 L 274.236 151.892 L 273.589 152.459 L 272.874 152.937 L 272.103 153.317 L 271.289 153.594 L 270.445 153.762 L 269.587 153.818 L 268.729 153.762 L 267.886 153.594 L 267.071 153.317 L 266.300 152.937 L 265.585 152.459 L 264.938 151.892 L 264.371 151.246 L 263.894 150.531 L 263.513 149.760 L 263.237 148.945 L 263.069 148.102 L 263.013 147.244 L 263.069 146.386 L 263.237 145.542 L 263.513 144.728 L 263.894 143.957 L 264.371 143.242 L 264.938 142.595 L 265.585 142.028 L 266.300 141.550 L 267.071 141.170 L 267.886 140.894 L 268.729 140.726 L 269.587 140.670 L 270.445 140.726 L 271.289 140.894 L 272.103 141.170 L 272.874 141.550 L 273.589 142.028 L 274.236 142.595 L 274.803 143.242 L 275.280 143.957 L 275.661 144.728 L 275.937 145.542 L 276.105 146.386 L 276.161 147.244 M 158.898 122.318 L 158.809 123.668 L 158.545 124.994 L 158.111 126.274 L 157.513 127.487 L 156.762 128.611 L 155.870 129.627 L 154.854 130.519 L 153.729 131.270 L 152.517 131.868 L 151.236 132.303 L 149.910 132.566 L 148.561 132.655 L 147.212 132.566 L 145.886 132.303 L 144.606 131.868 L 143.393 131.270 L 142.269 130.519 L 141.252 129.627 L 140.361 128.611 L 139.610 127.487 L 139.012 126.274 L 138.577 124.994 L 138.313 123.668 L 138.225 122.318 L 138.313 120.969 L 138.577 119.643 L 139.012 118.363 L 139.610 117.150 L 140.361 116.026 L 141.252 115.010 L 142.269 114.118 L 143.393 113.367 L 144.606 112.769 L 145.886 112.334 L 147.212 112.071 L 148.561 111.982 L 149.910 112.071 L 151.236 112.334 L 152.517 112.769 L 153.729 113.367 L 154.854 114.118 L 155.870 115.010 L 156.762 116.026 L 157.513 117.150 L 158.111 118.363 L 158.545 119.643 L 158.809 120.969 L 158.898 122.318 M 195.723 147.693 L 195.668 148.543 L 195.502 149.378 L 195.228 150.184 L 194.851 150.948 L 194.378 151.656 L 193.817 152.296 L 193.176 152.858 L 192.468 153.331 L 191.704 153.708 L 190.898 153.981 L 190.063 154.147 L 189.213 154.203 L 188.363 154.147 L 187.528 153.981 L 186.722 153.708 L 185.958 153.331 L 185.250 152.858 L 184.610 152.296 L 184.048 151.656 L 183.575 150.948 L 183.198 150.184 L 182.925 149.378 L 182.759 148.543 L 182.703 147.693 L 182.759 146.843 L 182.925 146.008 L 183.198 145.201 L 183.575 144.438 L 184.048 143.730 L 184.610 143.089 L 185.250 142.528 L 185.958 142.055 L 186.722 141.678 L 187.528 141.404 L 188.363 141.238 L 189.213 141.183 L 190.063 141.238 L 190.898 141.404 L 191.704 141.678 L 192.468 142.055 L 193.176 142.528 L 193.817 143.089 L 194.378 143.730 L 194.851 144.438 L 195.228 145.201 L 195.502 146.008 L 195.668 146.843 L 195.723 147.693 M 230.588 190.702 L 230.540 191.426 L 230.399 192.136 L 230.166 192.822 L 229.846 193.472 L 229.443 194.075 L 228.965 194.619 L 228.420 195.097 L 227.818 195.500 L 227.168 195.820 L 226.482 196.053 L 225.771 196.194 L 225.048 196.242 L 224.325 196.194 L 223.615 196.053 L 222.928 195.820 L 222.279 195.500 L 221.676 195.097 L 221.131 194.619 L 220.654 194.075 L 220.251 193.472 L 219.931 192.822 L 219.698 192.136 L 219.556 191.426 L 219.509 190.702 L 219.556 189.979 L 219.698 189.269 L 219.931 188.583 L 220.251 187.933 L 220.654 187.330 L 221.131 186.786 L 221.676 186.308 L 222.279 185.905 L 222.928 185.585 L 223.615 185.352 L 224.325 185.210 L 225.048 185.163 L 225.771 185.210 L 226.482 185.352 L 227.168 185.585 L 227.818 185.905 L 228.420 186.308 L 228.965 186.786 L 229.443 187.330 L 229.846 187.933 L 230.166 188.583 L 230.399 189.269 L 230.540 189.979 L 230.588 190.702 M 110.003 167.168 L 109.934 168.212 L 109.730 169.239 L 109.394 170.230 L 108.931 171.168 L 108.349 172.038 L 107.660 172.825 L 106.873 173.515 L 106.003 174.096 L 105.064 174.559 L 104.073 174.895 L 103.047 175.100 L 102.003 175.168 L 100.959 175.100 L 99.932 174.895 L 98.941 174.559 L 98.003 174.096 L 97.133 173.515 L 96.346 172.825 L 95.656 172.038 L 95.075 171.168 L 94.612 170.230 L 94.276 169.239 L 94.071 168.212 L 94.003 167.168 L 94.071 166.124 L 94.276 165.098 L 94.612 164.107 L 95.075 163.168 L 95.656 162.298 L 96.346 161.512 L 97.133 160.822 L 98.003 160.240 L 98.941 159.777 L 99.932 159.441 L 100.959 159.237 L 102.003 159.168 L 103.047 159.237 L 104.073 159.441 L 105.064 159.777 L 106.003 160.240 L 106.873 160.822 L 107.660 161.512 L 108.349 162.298 L 108.931 163.168 L 109.394 164.107 L 109.730 165.098 L 109.934 166.124 L 110.003 167.168 M 287.567 100.223 L 287.506 101.157 L 287.324 102.074 L 287.023 102.960 L 286.609 103.799 L 286.089 104.577 L 285.473 105.281 L 284.769 105.897 L 283.991 106.417 L 283.152 106.831 L 282.266 107.132 L 281.349 107.314 L 280.415 107.375 L 279.482 107.314 L 278.564 107.132 L 277.678 106.831 L 276.839 106.417 L 276.061 105.897 L 275.358 105.281 L 274.741 104.577 L 274.221 103.799 L 273.807 102.960 L 273.507 102.074 L 273.324 101.157 L 273.263 100.223 L 273.324 99.290 L 273.507 98.372 L 273.807 97.486 L 274.221 96.647 L 274.741 95.869 L 275.358 95.166 L 276.061 94.549 L 276.839 94.029 L 277.678 93.616 L 278.564 93.315 L 279.482 93.132 L 280.415 93.071 L 281.349 93.132 L 282.266 93.315 L 283.152 93.616 L 283.991 94.029 L 284.769 94.549 L 285.473 95.166 L 286.089 95.869 L 286.609 96.647 L 287.023 97.486 L 287.324 98.372 L 287.506 99.290 L 287.567 100.223 M 238.766 110.205 L 238.617 112.485 L 238.171 114.726 L 237.437 116.890 L 236.426 118.939 L 235.157 120.839 L 233.650 122.557 L 231.932 124.064 L 230.032 125.333 L 227.983 126.344 L 225.819 127.078 L 223.578 127.524 L 221.298 127.673 L 219.018 127.524 L 216.777 127.078 L 214.614 126.344 L 212.564 125.333 L 210.664 124.064 L 208.947 122.557 L 207.440 120.839 L 206.170 118.939 L 205.160 116.890 L 204.425 114.726 L 203.980 112.485 L 203.830 110.205 L 203.980 107.925 L 204.425 105.684 L 205.160 103.520 L 206.170 101.471 L 207.440 99.571 L 208.947 97.853 L 210.664 96.347 L 212.564 95.077 L 214.614 94.067 L 216.777 93.332 L 219.018 92.887 L 221.298 92.737 L 223.578 92.887 L 225.819 93.332 L 227.983 94.067 L 230.032 95.077 L 231.932 96.347 L 233.650 97.853 L 235.157 99.571 L 236.426 101.471 L 237.437 103.520 L 238.171 105.684 L 238.617 107.925 L 238.766 110.205 M 153.492 67.801 L 153.418 68.939 L 153.195 70.057 L 152.829 71.137 L 152.324 72.160 L 151.691 73.108 L 150.939 73.966 L 150.082 74.718 L 149.133 75.351 L 148.111 75.856 L 147.031 76.222 L 145.912 76.445 L 144.774 76.519 L 143.636 76.445 L 142.518 76.222 L 141.438 75.856 L 140.415 75.351 L 139.467 74.718 L 138.610 73.966 L 137.858 73.108 L 137.224 72.160 L 136.720 71.137 L 136.353 70.057 L 136.131 68.939 L 136.056 67.801 L 136.131 66.663 L 136.353 65.545 L 136.720 64.465 L 137.224 63.442 L 137.858 62.494 L 138.610 61.636 L 139.467 60.884 L 140.415 60.251 L 141.438 59.746 L 142.518 59.380 L 143.636 59.157 L 144.774 59.083 L 145.912 59.157 L 147.031 59.380 L 148.111 59.746 L 149.133 60.251 L 150.082 60.884 L 150.939 61.636 L 151.691 62.494 L 152.324 63.442 L 152.829 64.465 L 153.195 65.545 L 153.418 66.663 L 153.492 67.801 M 275.279 176.733 L 275.206 177.841 L 274.989 178.931 L 274.632 179.983 L 274.141 180.979 L 273.524 181.903 L 272.791 182.738 L 271.956 183.470 L 271.032 184.088 L 270.036 184.579 L 268.984 184.936 L 267.895 185.153 L 266.786 185.225 L 265.678 185.153 L 264.588 184.936 L 263.536 184.579 L 262.540 184.088 L 261.616 183.470 L 260.781 182.738 L 260.048 181.903 L 259.431 180.979 L 258.940 179.983 L 258.583 178.931 L 258.366 177.841 L 258.293 176.733 L 258.366 175.624 L 258.583 174.535 L 258.940 173.483 L 259.431 172.486 L 260.048 171.563 L 260.781 170.727 L 261.616 169.995 L 262.540 169.378 L 263.536 168.886 L 264.588 168.529 L 265.678 168.313 L 266.786 168.240 L 267.895 168.313 L 268.984 168.529 L 270.036 168.886 L 271.032 169.378 L 271.956 169.995 L 272.791 170.727 L 273.524 171.563 L 274.141 172.486 L 274.632 173.483 L 274.989 174.535 L 275.206 175.624 L 275.279 176.733 M 207.964 197.828 L 207.887 198.996 L 207.659 200.143 L 207.283 201.252 L 206.765 202.301 L 206.115 203.274 L 205.343 204.154 L 204.463 204.926 L 203.490 205.576 L 202.440 206.094 L 201.332 206.470 L 200.184 206.698 L 199.016 206.775 L 197.848 206.698 L 196.701 206.470 L 195.592 206.094 L 194.543 205.576 L 193.570 204.926 L 192.690 204.154 L 191.918 203.274 L 191.268 202.301 L 190.750 201.252 L 190.374 200.143 L 190.146 198.996 L 190.069 197.828 L 190.146 196.660 L 190.374 195.512 L 190.750 194.404 L 191.268 193.354 L 191.918 192.381 L 192.690 191.501 L 193.570 190.729 L 194.543 190.079 L 195.592 189.561 L 196.701 189.185 L 197.848 188.957 L 199.016 188.880 L 200.184 188.957 L 201.332 189.185 L 202.440 189.561 L 203.490 190.079 L 204.463 190.729 L 205.343 191.501 L 206.115 192.381 L 206.765 193.354 L 207.283 194.404 L 207.659 195.512 L 207.887 196.660 L 207.964 197.828 M 213.858 235.134 L 213.818 235.746 L 213.698 236.347 L 213.501 236.928 L 213.230 237.478 L 212.889 237.988 L 212.485 238.449 L 212.023 238.853 L 211.514 239.194 L 210.964 239.465 L 210.383 239.663 L 209.781 239.782 L 209.169 239.822 L 208.557 239.782 L 207.956 239.663 L 207.375 239.465 L 206.825 239.194 L 206.315 238.853 L 205.854 238.449 L 205.450 237.988 L 205.109 237.478 L 204.838 236.928 L 204.641 236.347 L 204.521 235.746 L 204.481 235.134 L 204.521 234.522 L 204.641 233.920 L 204.838 233.340 L 205.109 232.790 L 205.450 232.280 L 205.854 231.819 L 206.315 231.414 L 206.825 231.074 L 207.375 230.802 L 207.956 230.605 L 208.557 230.486 L 209.169 230.446 L 209.781 230.486 L 210.383 230.605 L 210.964 230.802 L 211.514 231.074 L 212.023 231.414 L 212.485 231.819 L 212.889 232.280 L 213.230 232.790 L 213.501 233.340 L 213.698 233.920 L 213.818 234.522 L 213.858 235.134 M 181.527 123.114 L 181.457 124.186 L 181.247 125.240 L 180.902 126.257 L 180.426 127.221 L 179.829 128.114 L 179.121 128.922 L 178.313 129.630 L 177.420 130.227 L 176.456 130.703 L 175.439 131.048 L 174.385 131.258 L 173.313 131.328 L 172.240 131.258 L 171.187 131.048 L 170.169 130.703 L 169.205 130.227 L 168.312 129.630 L 167.504 128.922 L 166.796 128.114 L 166.199 127.221 L 165.724 126.257 L 165.378 125.240 L 165.169 124.186 L 165.098 123.114 L 165.169 122.041 L 165.378 120.988 L 165.724 119.970 L 166.199 119.006 L 166.796 118.113 L 167.504 117.305 L 168.312 116.597 L 169.205 116.000 L 170.169 115.525 L 171.187 115.179 L 172.240 114.970 L 173.313 114.899 L 174.385 114.970 L 175.439 115.179 L 176.456 115.525 L 177.420 116.000 L 178.313 116.597 L 179.121 117.305 L 179.829 118.113 L 180.426 119.006 L 180.902 119.970 L 181.247 120.988 L 181.457 122.041 L 181.527 123.114 M 181.726 97.096 L 181.649 98.268 L 181.420 99.419 L 181.043 100.531 L 180.524 101.584 L 179.872 102.560 L 179.097 103.442 L 178.215 104.217 L 177.239 104.869 L 176.186 105.388 L 175.074 105.765 L 173.923 105.994 L 172.751 106.071 L 171.580 105.994 L 170.429 105.765 L 169.317 105.388 L 168.264 104.869 L 167.288 104.217 L 166.405 103.442 L 165.631 102.560 L 164.979 101.584 L 164.460 100.531 L 164.083 99.419 L 163.853 98.268 L 163.777 97.096 L 163.853 95.925 L 164.083 94.774 L 164.460 93.662 L 164.979 92.609 L 165.631 91.633 L 166.405 90.750 L 167.288 89.976 L 168.264 89.324 L 169.317 88.805 L 170.429 88.428 L 171.580 88.198 L 172.751 88.122 L 173.923 88.198 L 175.074 88.428 L 176.186 88.805 L 177.239 89.324 L 178.215 89.976 L 179.097 90.750 L 179.872 91.633 L 180.524 92.609 L 181.043 93.662 L 181.420 94.774 L 181.649 95.925 L 181.726 97.096 M 189.439 173.926 L 189.391 174.654 L 189.249 175.370 L 189.014 176.061 L 188.692 176.715 L 188.286 177.322 L 187.805 177.871 L 187.256 178.352 L 186.650 178.757 L 185.995 179.080 L 185.304 179.315 L 184.589 179.457 L 183.860 179.505 L 183.132 179.457 L 182.416 179.315 L 181.725 179.080 L 181.071 178.757 L 180.464 178.352 L 179.916 177.871 L 179.434 177.322 L 179.029 176.715 L 178.706 176.061 L 178.472 175.370 L 178.329 174.654 L 178.282 173.926 L 178.329 173.198 L 178.472 172.482 L 178.706 171.791 L 179.029 171.136 L 179.434 170.530 L 179.916 169.981 L 180.464 169.500 L 181.071 169.094 L 181.725 168.772 L 182.416 168.537 L 183.132 168.395 L 183.860 168.347 L 184.589 168.395 L 185.304 168.537 L 185.995 168.772 L 186.650 169.094 L 187.256 169.500 L 187.805 169.981 L 188.286 170.530 L 188.692 171.136 L 189.014 171.791 L 189.249 172.482 L 189.391 173.198 L 189.439 173.926 M 150.127 241.924 L 150.071 242.771 L 149.906 243.604 L 149.633 244.408 L 149.257 245.169 L 148.786 245.875 L 148.226 246.513 L 147.588 247.073 L 146.882 247.544 L 146.121 247.920 L 145.317 248.192 L 144.485 248.358 L 143.638 248.414 L 142.791 248.358 L 141.958 248.192 L 141.154 247.920 L 140.393 247.544 L 139.687 247.073 L 139.049 246.513 L 138.489 245.875 L 138.018 245.169 L 137.642 244.408 L 137.369 243.604 L 137.204 242.771 L 137.148 241.924 L 137.204 241.077 L 137.369 240.245 L 137.642 239.441 L 138.018 238.680 L 138.489 237.974 L 139.049 237.336 L 139.687 236.776 L 140.393 236.305 L 141.154 235.929 L 141.958 235.656 L 142.791 235.491 L 143.638 235.435 L 144.485 235.491 L 145.317 235.656 L 146.121 235.929 L 146.882 236.305 L 147.588 236.776 L 148.226 237.336 L 148.786 237.974 L 149.257 238.680 L 149.633 239.441 L 149.906 240.245 L 150.071 241.077 L 150.127 241.924 M 277.673 60.910 L 277.545 62.863 L 277.163 64.782 L 276.534 66.635 L 275.668 68.390 L 274.581 70.018 L 273.291 71.489 L 271.819 72.779 L 270.192 73.867 L 268.437 74.732 L 266.584 75.361 L 264.664 75.743 L 262.711 75.871 L 260.758 75.743 L 258.839 75.361 L 256.986 74.732 L 255.231 73.867 L 253.603 72.779 L 252.132 71.489 L 250.842 70.018 L 249.754 68.390 L 248.889 66.635 L 248.260 64.782 L 247.878 62.863 L 247.750 60.910 L 247.878 58.957 L 248.260 57.037 L 248.889 55.184 L 249.754 53.429 L 250.842 51.802 L 252.132 50.330 L 253.603 49.040 L 255.231 47.953 L 256.986 47.087 L 258.839 46.458 L 260.758 46.076 L 262.711 45.948 L 264.664 46.076 L 266.584 46.458 L 268.437 47.087 L 270.192 47.953 L 271.819 49.040 L 273.291 50.330 L 274.581 51.802 L 275.668 53.429 L 276.534 55.184 L 277.163 57.037 L 277.545 58.957 L 277.673 60.910 M 231.784 224.850 L 231.721 225.807 L 231.534 226.747 L 231.226 227.655 L 230.802 228.515 L 230.269 229.312 L 229.637 230.033 L 228.916 230.665 L 228.119 231.197 L 227.259 231.621 L 226.352 231.930 L 225.411 232.117 L 224.455 232.179 L 223.498 232.117 L 222.558 231.930 L 221.650 231.621 L 220.790 231.197 L 219.993 230.665 L 219.272 230.033 L 218.640 229.312 L 218.108 228.515 L 217.683 227.655 L 217.375 226.747 L 217.188 225.807 L 217.126 224.850 L 217.188 223.894 L 217.375 222.953 L 217.683 222.046 L 218.108 221.186 L 218.640 220.389 L 219.272 219.668 L 219.993 219.036 L 220.790 218.503 L 221.650 218.079 L 222.558 217.771 L 223.498 217.584 L 224.455 217.521 L 225.411 217.584 L 226.352 217.771 L 227.259 218.079 L 228.119 218.503 L 228.916 219.036 L 229.637 219.668 L 230.269 220.389 L 230.802 221.186 L 231.226 222.046 L 231.534 222.953 L 231.721 223.894 L 231.784 224.850 M 322.413 189.811 L 322.351 190.757 L 322.166 191.687 L 321.861 192.585 L 321.442 193.436 L 320.915 194.224 L 320.290 194.937 L 319.577 195.562 L 318.788 196.089 L 317.938 196.509 L 317.040 196.813 L 316.110 196.998 L 315.164 197.060 L 314.218 196.998 L 313.288 196.813 L 312.390 196.509 L 311.539 196.089 L 310.751 195.562 L 310.038 194.937 L 309.413 194.224 L 308.886 193.436 L 308.466 192.585 L 308.162 191.687 L 307.977 190.757 L 307.915 189.811 L 307.977 188.865 L 308.162 187.935 L 308.466 187.037 L 308.886 186.187 L 309.413 185.398 L 310.038 184.685 L 310.751 184.060 L 311.539 183.533 L 312.390 183.114 L 313.288 182.809 L 314.218 182.624 L 315.164 182.562 L 316.110 182.624 L 317.040 182.809 L 317.938 183.114 L 318.788 183.533 L 319.577 184.060 L 320.290 184.685 L 320.915 185.398 L 321.442 186.187 L 321.861 187.037 L 322.166 187.935 L 322.351 188.865 L 322.413 189.811 M 315.926 170.066 L 315.879 170.781 L 315.739 171.483 L 315.509 172.162 L 315.192 172.804 L 314.794 173.400 L 314.322 173.938 L 313.783 174.410 L 313.188 174.808 L 312.545 175.125 L 311.867 175.355 L 311.165 175.495 L 310.450 175.542 L 309.735 175.495 L 309.033 175.355 L 308.354 175.125 L 307.712 174.808 L 307.116 174.410 L 306.578 173.938 L 306.106 173.400 L 305.708 172.804 L 305.391 172.162 L 305.161 171.483 L 305.021 170.781 L 304.974 170.066 L 305.021 169.351 L 305.161 168.649 L 305.391 167.971 L 305.708 167.328 L 306.106 166.733 L 306.578 166.194 L 307.116 165.722 L 307.712 165.324 L 308.354 165.007 L 309.033 164.777 L 309.735 164.637 L 310.450 164.590 L 311.165 164.637 L 311.867 164.777 L 312.545 165.007 L 313.188 165.324 L 313.783 165.722 L 314.322 166.194 L 314.794 166.733 L 315.192 167.328 L 315.509 167.971 L 315.739 168.649 L 315.879 169.351 L 315.926 170.066 M 122.157 171.213 L 122.111 171.914 L 121.974 172.602 L 121.748 173.267 L 121.438 173.897 L 121.048 174.480 L 120.585 175.008 L 120.057 175.471 L 119.473 175.861 L 118.844 176.171 L 118.179 176.397 L 117.491 176.534 L 116.790 176.580 L 116.090 176.534 L 115.401 176.397 L 114.736 176.171 L 114.107 175.861 L 113.523 175.471 L 112.995 175.008 L 112.533 174.480 L 112.143 173.897 L 111.832 173.267 L 111.607 172.602 L 111.470 171.914 L 111.424 171.213 L 111.470 170.513 L 111.607 169.824 L 111.832 169.160 L 112.143 168.530 L 112.533 167.946 L 112.995 167.419 L 113.523 166.956 L 114.107 166.566 L 114.736 166.255 L 115.401 166.030 L 116.090 165.893 L 116.790 165.847 L 117.491 165.893 L 118.179 166.030 L 118.844 166.255 L 119.473 166.566 L 120.057 166.956 L 120.585 167.419 L 121.048 167.946 L 121.438 168.530 L 121.748 169.160 L 121.974 169.824 L 122.111 170.513 L 122.157 171.213 M 217.191 256.102 L 217.135 256.961 L 216.967 257.806 L 216.690 258.622 L 216.309 259.395 L 215.830 260.111 L 215.262 260.759 L 214.614 261.327 L 213.898 261.806 L 213.125 262.187 L 212.309 262.464 L 211.464 262.632 L 210.605 262.688 L 209.745 262.632 L 208.900 262.464 L 208.084 262.187 L 207.311 261.806 L 206.595 261.327 L 205.947 260.759 L 205.379 260.111 L 204.901 259.395 L 204.520 258.622 L 204.243 257.806 L 204.075 256.961 L 204.018 256.102 L 204.075 255.242 L 204.243 254.397 L 204.520 253.581 L 204.901 252.808 L 205.379 252.092 L 205.947 251.444 L 206.595 250.876 L 207.311 250.398 L 208.084 250.017 L 208.900 249.740 L 209.745 249.572 L 210.605 249.515 L 211.464 249.572 L 212.309 249.740 L 213.125 250.017 L 213.898 250.398 L 214.614 250.876 L 215.262 251.444 L 215.830 252.092 L 216.309 252.808 L 216.690 253.581 L 216.967 254.397 L 217.135 255.242 L 217.191 256.102 M 172.839 140.235 L 172.763 141.395 L 172.536 142.534 L 172.163 143.635 L 171.649 144.677 L 171.003 145.643 L 170.237 146.517 L 169.363 147.283 L 168.397 147.929 L 167.355 148.443 L 166.254 148.816 L 165.114 149.043 L 163.955 149.119 L 162.795 149.043 L 161.655 148.816 L 160.555 148.443 L 159.513 147.929 L 158.546 147.283 L 157.673 146.517 L 156.907 145.643 L 156.261 144.677 L 155.747 143.635 L 155.373 142.534 L 155.147 141.395 L 155.071 140.235 L 155.147 139.075 L 155.373 137.936 L 155.747 136.835 L 156.261 135.793 L 156.907 134.827 L 157.673 133.953 L 158.546 133.187 L 159.513 132.541 L 160.555 132.027 L 161.655 131.653 L 162.795 131.427 L 163.955 131.351 L 165.114 131.427 L 166.254 131.653 L 167.355 132.027 L 168.397 132.541 L 169.363 133.187 L 170.237 133.953 L 171.003 134.827 L 171.649 135.793 L 172.163 136.835 L 172.536 137.936 L 172.763 139.075 L 172.839 140.235 M 117.785 207.080 L 117.725 208.000 L 117.545 208.903 L 117.249 209.776 L 116.841 210.602 L 116.330 211.368 L 115.722 212.061 L 115.029 212.668 L 114.263 213.180 L 113.437 213.588 L 112.565 213.884 L 111.661 214.064 L 110.742 214.124 L 109.822 214.064 L 108.918 213.884 L 108.046 213.588 L 107.220 213.180 L 106.454 212.668 L 105.761 212.061 L 105.153 211.368 L 104.642 210.602 L 104.234 209.776 L 103.938 208.903 L 103.758 208.000 L 103.698 207.080 L 103.758 206.161 L 103.938 205.257 L 104.234 204.385 L 104.642 203.558 L 105.153 202.792 L 105.761 202.100 L 106.454 201.492 L 107.220 200.980 L 108.046 200.573 L 108.918 200.277 L 109.822 200.097 L 110.742 200.037 L 111.661 200.097 L 112.565 200.277 L 113.437 200.573 L 114.263 200.980 L 115.029 201.492 L 115.722 202.100 L 116.330 202.792 L 116.841 203.558 L 117.249 204.385 L 117.545 205.257 L 117.725 206.161 L 117.785 207.080 M 158.019 103.757 L 157.963 104.605 L 157.797 105.439 L 157.524 106.245 L 157.148 107.007 L 156.676 107.714 L 156.115 108.354 L 155.475 108.914 L 154.768 109.387 L 154.006 109.763 L 153.200 110.036 L 152.366 110.202 L 151.518 110.258 L 150.669 110.202 L 149.835 110.036 L 149.030 109.763 L 148.267 109.387 L 147.560 108.914 L 146.921 108.354 L 146.360 107.714 L 145.887 107.007 L 145.511 106.245 L 145.238 105.439 L 145.072 104.605 L 145.016 103.757 L 145.072 102.908 L 145.238 102.074 L 145.511 101.269 L 145.887 100.506 L 146.360 99.799 L 146.921 99.159 L 147.560 98.599 L 148.267 98.126 L 149.030 97.750 L 149.835 97.477 L 150.669 97.311 L 151.518 97.255 L 152.366 97.311 L 153.200 97.477 L 154.006 97.750 L 154.768 98.126 L 155.475 98.599 L 156.115 99.159 L 156.676 99.799 L 157.148 100.506 L 157.524 101.269 L 157.797 102.074 L 157.963 102.908 L 158.019 103.757 M 309.618 148.771 L 309.575 149.435 L 309.445 150.087 L 309.231 150.717 L 308.937 151.314 L 308.567 151.867 L 308.128 152.367 L 307.628 152.806 L 307.075 153.176 L 306.478 153.470 L 305.848 153.684 L 305.196 153.814 L 304.532 153.857 L 303.868 153.814 L 303.215 153.684 L 302.585 153.470 L 301.988 153.176 L 301.435 152.806 L 300.935 152.367 L 300.496 151.867 L 300.127 151.314 L 299.832 150.717 L 299.618 150.087 L 299.489 149.435 L 299.445 148.771 L 299.489 148.107 L 299.618 147.454 L 299.832 146.824 L 300.127 146.227 L 300.496 145.674 L 300.935 145.174 L 301.435 144.735 L 301.988 144.366 L 302.585 144.071 L 303.215 143.857 L 303.868 143.728 L 304.532 143.684 L 305.196 143.728 L 305.848 143.857 L 306.478 144.071 L 307.075 144.366 L 307.628 144.735 L 308.128 145.174 L 308.567 145.674 L 308.937 146.227 L 309.231 146.824 L 309.445 147.454 L 309.575 148.107 L 309.618 148.771 M 264.378 158.614 L 264.338 159.216 L 264.221 159.808 L 264.027 160.380 L 263.760 160.921 L 263.424 161.423 L 263.026 161.876 L 262.573 162.274 L 262.071 162.610 L 261.530 162.876 L 260.958 163.070 L 260.366 163.188 L 259.764 163.228 L 259.162 163.188 L 258.570 163.070 L 257.999 162.876 L 257.457 162.610 L 256.956 162.274 L 256.502 161.876 L 256.104 161.423 L 255.769 160.921 L 255.502 160.380 L 255.308 159.808 L 255.190 159.216 L 255.151 158.614 L 255.190 158.012 L 255.308 157.420 L 255.502 156.849 L 255.769 156.307 L 256.104 155.805 L 256.502 155.352 L 256.956 154.954 L 257.457 154.619 L 257.999 154.352 L 258.570 154.158 L 259.162 154.040 L 259.764 154.000 L 260.366 154.040 L 260.958 154.158 L 261.530 154.352 L 262.071 154.619 L 262.573 154.954 L 263.026 155.352 L 263.424 155.805 L 263.760 156.307 L 264.027 156.849 L 264.221 157.420 L 264.338 158.012 L 264.378 158.614 M 219.780 31.718 L 219.728 32.510 L 219.573 33.288 L 219.318 34.040 L 218.967 34.752 L 218.526 35.412 L 218.003 36.009 L 217.406 36.532 L 216.746 36.973 L 216.034 37.324 L 215.282 37.579 L 214.504 37.734 L 213.712 37.786 L 212.919 37.734 L 212.141 37.579 L 211.389 37.324 L 210.677 36.973 L 210.017 36.532 L 209.421 36.009 L 208.897 35.412 L 208.456 34.752 L 208.105 34.040 L 207.850 33.288 L 207.695 32.510 L 207.643 31.718 L 207.695 30.926 L 207.850 30.147 L 208.105 29.395 L 208.456 28.683 L 208.897 28.023 L 209.421 27.427 L 210.017 26.903 L 210.677 26.462 L 211.389 26.111 L 212.141 25.856 L 212.919 25.701 L 213.712 25.649 L 214.504 25.701 L 215.282 25.856 L 216.034 26.111 L 216.746 26.462 L 217.406 26.903 L 218.003 27.427 L 218.526 28.023 L 218.967 28.683 L 219.318 29.395 L 219.573 30.147 L 219.728 30.926 L 219.780 31.718 M 332.331 152.934 L 332.281 153.697 L 332.132 154.447 L 331.886 155.171 L 331.548 155.857 L 331.123 156.493 L 330.619 157.068 L 330.044 157.572 L 329.408 157.997 L 328.722 158.335 L 327.998 158.581 L 327.248 158.730 L 326.484 158.780 L 325.721 158.730 L 324.971 158.581 L 324.247 158.335 L 323.561 157.997 L 322.925 157.572 L 322.350 157.068 L 321.846 156.493 L 321.421 155.857 L 321.083 155.171 L 320.837 154.447 L 320.688 153.697 L 320.638 152.934 L 320.688 152.171 L 320.837 151.421 L 321.083 150.697 L 321.421 150.011 L 321.846 149.375 L 322.350 148.800 L 322.925 148.296 L 323.561 147.871 L 324.247 147.532 L 324.971 147.287 L 325.721 147.137 L 326.484 147.087 L 327.248 147.137 L 327.998 147.287 L 328.722 147.532 L 329.408 147.871 L 330.044 148.296 L 330.619 148.800 L 331.123 149.375 L 331.548 150.011 L 331.886 150.697 L 332.132 151.421 L 332.281 152.171 L 332.331 152.934 M 127.814 228.458 L 127.770 229.123 L 127.640 229.777 L 127.426 230.408 L 127.131 231.006 L 126.761 231.560 L 126.322 232.061 L 125.821 232.500 L 125.267 232.871 L 124.669 233.165 L 124.038 233.380 L 123.384 233.510 L 122.719 233.553 L 122.054 233.510 L 121.401 233.380 L 120.770 233.165 L 120.172 232.871 L 119.618 232.500 L 119.117 232.061 L 118.677 231.560 L 118.307 231.006 L 118.012 230.408 L 117.798 229.777 L 117.668 229.123 L 117.624 228.458 L 117.668 227.793 L 117.798 227.140 L 118.012 226.509 L 118.307 225.911 L 118.677 225.357 L 119.117 224.856 L 119.618 224.417 L 120.172 224.046 L 120.770 223.752 L 121.401 223.537 L 122.054 223.407 L 122.719 223.364 L 123.384 223.407 L 124.038 223.537 L 124.669 223.752 L 125.267 224.046 L 125.821 224.417 L 126.322 224.856 L 126.761 225.357 L 127.131 225.911 L 127.426 226.509 L 127.640 227.140 L 127.770 227.793 L 127.814 228.458 M 237.345 260.556 L 237.301 261.224 L 237.171 261.880 L 236.956 262.513 L 236.660 263.113 L 236.288 263.670 L 235.847 264.173 L 235.344 264.614 L 234.788 264.985 L 234.188 265.281 L 233.554 265.496 L 232.898 265.627 L 232.231 265.671 L 231.563 265.627 L 230.907 265.496 L 230.273 265.281 L 229.673 264.985 L 229.117 264.614 L 228.614 264.173 L 228.173 263.670 L 227.801 263.113 L 227.505 262.513 L 227.290 261.880 L 227.160 261.224 L 227.116 260.556 L 227.160 259.889 L 227.290 259.232 L 227.505 258.599 L 227.801 257.999 L 228.173 257.443 L 228.614 256.940 L 229.117 256.499 L 229.673 256.127 L 230.273 255.831 L 230.907 255.616 L 231.563 255.485 L 232.231 255.442 L 232.898 255.485 L 233.554 255.616 L 234.188 255.831 L 234.788 256.127 L 235.344 256.499 L 235.847 256.940 L 236.288 257.443 L 236.660 257.999 L 236.956 258.599 L 237.171 259.232 L 237.301 259.889 L 237.345 260.556 M 302.642 175.754 L 302.591 176.525 L 302.441 177.283 L 302.192 178.015 L 301.850 178.709 L 301.421 179.351 L 300.911 179.932 L 300.330 180.442 L 299.687 180.871 L 298.994 181.213 L 298.262 181.462 L 297.504 181.612 L 296.733 181.663 L 295.962 181.612 L 295.204 181.462 L 294.472 181.213 L 293.779 180.871 L 293.136 180.442 L 292.555 179.932 L 292.045 179.351 L 291.616 178.709 L 291.274 178.015 L 291.026 177.283 L 290.875 176.525 L 290.824 175.754 L 290.875 174.983 L 291.026 174.225 L 291.274 173.493 L 291.616 172.800 L 292.045 172.157 L 292.555 171.576 L 293.136 171.066 L 293.779 170.637 L 294.472 170.295 L 295.204 170.047 L 295.962 169.896 L 296.733 169.845 L 297.504 169.896 L 298.262 170.047 L 298.994 170.295 L 299.687 170.637 L 300.330 171.066 L 300.911 171.576 L 301.421 172.157 L 301.850 172.800 L 302.192 173.493 L 302.441 174.225 L 302.591 174.983 L 302.642 175.754 M 137.129 190.737 L 137.067 191.678 L 136.884 192.602 L 136.581 193.494 L 136.164 194.339 L 135.640 195.122 L 135.019 195.831 L 134.311 196.452 L 133.527 196.975 L 132.682 197.392 L 131.790 197.695 L 130.866 197.879 L 129.926 197.941 L 128.986 197.879 L 128.061 197.695 L 127.169 197.392 L 126.324 196.975 L 125.541 196.452 L 124.832 195.831 L 124.211 195.122 L 123.688 194.339 L 123.271 193.494 L 122.968 192.602 L 122.784 191.678 L 122.723 190.737 L 122.784 189.797 L 122.968 188.873 L 123.271 187.981 L 123.688 187.136 L 124.211 186.352 L 124.832 185.644 L 125.541 185.023 L 126.324 184.499 L 127.169 184.082 L 128.061 183.780 L 128.986 183.596 L 129.926 183.534 L 130.866 183.596 L 131.790 183.780 L 132.682 184.082 L 133.527 184.499 L 134.311 185.023 L 135.019 185.644 L 135.640 186.352 L 136.164 187.136 L 136.581 187.981 L 136.884 188.873 L 137.067 189.797 L 137.129 190.737 M 199.427 108.780 L 199.372 109.619 L 199.208 110.443 L 198.938 111.239 L 198.566 111.993 L 198.099 112.693 L 197.545 113.325 L 196.912 113.879 L 196.213 114.346 L 195.459 114.718 L 194.663 114.988 L 193.839 115.152 L 193.000 115.207 L 192.161 115.152 L 191.336 114.988 L 190.540 114.718 L 189.786 114.346 L 189.087 113.879 L 188.455 113.325 L 187.901 112.693 L 187.434 111.993 L 187.062 111.239 L 186.792 110.443 L 186.628 109.619 L 186.573 108.780 L 186.628 107.941 L 186.792 107.116 L 187.062 106.320 L 187.434 105.566 L 187.901 104.867 L 188.455 104.235 L 189.087 103.681 L 189.786 103.214 L 190.540 102.842 L 191.336 102.572 L 192.161 102.408 L 193.000 102.353 L 193.839 102.408 L 194.663 102.572 L 195.459 102.842 L 196.213 103.214 L 196.912 103.681 L 197.545 104.235 L 198.099 104.867 L 198.566 105.566 L 198.938 106.320 L 199.208 107.116 L 199.372 107.941 L 199.427 108.780 M 306.422 74.785 L 306.351 75.866 L 306.140 76.929 L 305.792 77.955 L 305.313 78.926 L 304.711 79.827 L 303.997 80.642 L 303.182 81.356 L 302.281 81.958 L 301.310 82.437 L 300.284 82.785 L 299.221 82.996 L 298.140 83.067 L 297.059 82.996 L 295.997 82.785 L 294.971 82.437 L 293.999 81.958 L 293.099 81.356 L 292.284 80.642 L 291.570 79.827 L 290.968 78.926 L 290.489 77.955 L 290.141 76.929 L 289.929 75.866 L 289.858 74.785 L 289.929 73.704 L 290.141 72.642 L 290.489 71.616 L 290.968 70.644 L 291.570 69.744 L 292.284 68.929 L 293.099 68.215 L 293.999 67.613 L 294.971 67.134 L 295.997 66.786 L 297.059 66.574 L 298.140 66.504 L 299.221 66.574 L 300.284 66.786 L 301.310 67.134 L 302.281 67.613 L 303.182 68.215 L 303.997 68.929 L 304.711 69.744 L 305.313 70.644 L 305.792 71.616 L 306.140 72.642 L 306.351 73.704 L 306.422 74.785 M 203.414 38.012 L 203.355 38.912 L 203.179 39.797 L 202.889 40.651 L 202.490 41.460 L 201.989 42.210 L 201.394 42.888 L 200.716 43.482 L 199.966 43.983 L 199.157 44.382 L 198.303 44.672 L 197.419 44.848 L 196.519 44.907 L 195.619 44.848 L 194.735 44.672 L 193.881 44.382 L 193.072 43.983 L 192.322 43.482 L 191.644 42.888 L 191.049 42.210 L 190.548 41.460 L 190.149 40.651 L 189.859 39.797 L 189.683 38.912 L 189.624 38.012 L 189.683 37.113 L 189.859 36.228 L 190.149 35.374 L 190.548 34.565 L 191.049 33.815 L 191.644 33.137 L 192.322 32.543 L 193.072 32.042 L 193.881 31.643 L 194.735 31.353 L 195.619 31.177 L 196.519 31.118 L 197.419 31.177 L 198.303 31.353 L 199.157 31.643 L 199.966 32.042 L 200.716 32.543 L 201.394 33.137 L 201.989 33.815 L 202.490 34.565 L 202.889 35.374 L 203.179 36.228 L 203.355 37.113 L 203.414 38.012 M 278.782 82.671 L 278.726 83.521 L 278.560 84.357 L 278.286 85.164 L 277.909 85.928 L 277.436 86.637 L 276.874 87.277 L 276.233 87.839 L 275.525 88.313 L 274.760 88.690 L 273.953 88.963 L 273.118 89.130 L 272.267 89.185 L 271.417 89.130 L 270.581 88.963 L 269.774 88.690 L 269.010 88.313 L 268.302 87.839 L 267.661 87.277 L 267.099 86.637 L 266.626 85.928 L 266.249 85.164 L 265.975 84.357 L 265.809 83.521 L 265.753 82.671 L 265.809 81.821 L 265.975 80.985 L 266.249 80.178 L 266.626 79.414 L 267.099 78.705 L 267.661 78.064 L 268.302 77.503 L 269.010 77.029 L 269.774 76.652 L 270.581 76.378 L 271.417 76.212 L 272.267 76.156 L 273.118 76.212 L 273.953 76.378 L 274.760 76.652 L 275.525 77.029 L 276.233 77.503 L 276.874 78.064 L 277.436 78.705 L 277.909 79.414 L 278.286 80.178 L 278.560 80.985 L 278.726 81.821 L 278.782 82.671 M 165.810 239.233 L 165.751 240.130 L 165.576 241.012 L 165.287 241.863 L 164.889 242.669 L 164.390 243.417 L 163.797 244.093 L 163.121 244.685 L 162.374 245.185 L 161.567 245.582 L 160.716 245.871 L 159.834 246.047 L 158.937 246.106 L 158.040 246.047 L 157.158 245.871 L 156.307 245.582 L 155.501 245.185 L 154.753 244.685 L 154.077 244.093 L 153.485 243.417 L 152.985 242.669 L 152.587 241.863 L 152.298 241.012 L 152.123 240.130 L 152.064 239.233 L 152.123 238.336 L 152.298 237.454 L 152.587 236.603 L 152.985 235.796 L 153.485 235.049 L 154.077 234.373 L 154.753 233.780 L 155.501 233.281 L 156.307 232.883 L 157.158 232.594 L 158.040 232.419 L 158.937 232.360 L 159.834 232.419 L 160.716 232.594 L 161.567 232.883 L 162.374 233.281 L 163.121 233.780 L 163.797 234.373 L 164.390 235.049 L 164.889 235.796 L 165.287 236.603 L 165.576 237.454 L 165.751 238.336 L 165.810 239.233 M 201.086 92.782 L 201.022 93.763 L 200.830 94.728 L 200.514 95.659 L 200.079 96.541 L 199.533 97.358 L 198.884 98.098 L 198.145 98.746 L 197.327 99.292 L 196.445 99.727 L 195.514 100.043 L 194.550 100.235 L 193.569 100.299 L 192.587 100.235 L 191.623 100.043 L 190.692 99.727 L 189.810 99.292 L 188.992 98.746 L 188.253 98.098 L 187.605 97.358 L 187.058 96.541 L 186.623 95.659 L 186.307 94.728 L 186.115 93.763 L 186.051 92.782 L 186.115 91.801 L 186.307 90.836 L 186.623 89.905 L 187.058 89.023 L 187.605 88.206 L 188.253 87.466 L 188.992 86.818 L 189.810 86.272 L 190.692 85.837 L 191.623 85.521 L 192.587 85.329 L 193.569 85.264 L 194.550 85.329 L 195.514 85.521 L 196.445 85.837 L 197.327 86.272 L 198.145 86.818 L 198.884 87.466 L 199.533 88.206 L 200.079 89.023 L 200.514 89.905 L 200.830 90.836 L 201.022 91.801 L 201.086 92.782 M 190.395 49.430 L 190.293 50.991 L 189.987 52.525 L 189.485 54.007 L 188.793 55.410 L 187.923 56.711 L 186.892 57.887 L 185.716 58.918 L 184.415 59.787 L 183.012 60.479 L 181.530 60.982 L 179.996 61.287 L 178.435 61.390 L 176.874 61.287 L 175.339 60.982 L 173.858 60.479 L 172.455 59.787 L 171.154 58.918 L 169.978 57.887 L 168.946 56.711 L 168.077 55.410 L 167.385 54.007 L 166.882 52.525 L 166.577 50.991 L 166.475 49.430 L 166.577 47.869 L 166.882 46.334 L 167.385 44.853 L 168.077 43.450 L 168.946 42.149 L 169.978 40.973 L 171.154 39.941 L 172.455 39.072 L 173.858 38.380 L 175.339 37.877 L 176.874 37.572 L 178.435 37.470 L 179.996 37.572 L 181.530 37.877 L 183.012 38.380 L 184.415 39.072 L 185.716 39.941 L 186.892 40.973 L 187.923 42.149 L 188.793 43.450 L 189.485 44.853 L 189.987 46.334 L 190.293 47.869 L 190.395 49.430 M 124.432 103.652 L 124.344 105.002 L 124.080 106.330 L 123.644 107.612 L 123.046 108.826 L 122.294 109.951 L 121.401 110.969 L 120.384 111.862 L 119.258 112.614 L 118.044 113.212 L 116.762 113.647 L 115.435 113.911 L 114.084 114.000 L 112.733 113.911 L 111.405 113.647 L 110.124 113.212 L 108.910 112.614 L 107.784 111.862 L 106.766 110.969 L 105.874 109.951 L 105.122 108.826 L 104.523 107.612 L 104.088 106.330 L 103.824 105.002 L 103.735 103.652 L 103.824 102.301 L 104.088 100.973 L 104.523 99.691 L 105.122 98.477 L 105.874 97.352 L 106.766 96.334 L 107.784 95.442 L 108.910 94.690 L 110.124 94.091 L 111.405 93.656 L 112.733 93.392 L 114.084 93.303 L 115.435 93.392 L 116.762 93.656 L 118.044 94.091 L 119.258 94.690 L 120.384 95.442 L 121.401 96.334 L 122.294 97.352 L 123.046 98.477 L 123.644 99.691 L 124.080 100.973 L 124.344 102.301 L 124.432 103.652 M 172.639 74.978 L 172.588 75.766 L 172.433 76.541 L 172.180 77.289 L 171.830 77.998 L 171.391 78.655 L 170.870 79.249 L 170.276 79.770 L 169.619 80.209 L 168.911 80.558 L 168.163 80.812 L 167.388 80.966 L 166.599 81.018 L 165.811 80.966 L 165.036 80.812 L 164.288 80.558 L 163.580 80.209 L 162.923 79.770 L 162.329 79.249 L 161.808 78.655 L 161.369 77.998 L 161.019 77.289 L 160.765 76.541 L 160.611 75.766 L 160.560 74.978 L 160.611 74.190 L 160.765 73.415 L 161.019 72.667 L 161.369 71.958 L 161.808 71.301 L 162.329 70.707 L 162.923 70.186 L 163.580 69.747 L 164.288 69.398 L 165.036 69.144 L 165.811 68.990 L 166.599 68.938 L 167.388 68.990 L 168.163 69.144 L 168.911 69.398 L 169.619 69.747 L 170.276 70.186 L 170.870 70.707 L 171.391 71.301 L 171.830 71.958 L 172.180 72.667 L 172.433 73.415 L 172.588 74.190 L 172.639 74.978 M 290.926 183.197 L 290.874 183.989 L 290.720 184.768 L 290.464 185.520 L 290.113 186.232 L 289.672 186.892 L 289.149 187.489 L 288.552 188.012 L 287.892 188.453 L 287.180 188.804 L 286.428 189.059 L 285.649 189.214 L 284.857 189.266 L 284.065 189.214 L 283.287 189.059 L 282.535 188.804 L 281.823 188.453 L 281.163 188.012 L 280.566 187.489 L 280.042 186.892 L 279.601 186.232 L 279.250 185.520 L 278.995 184.768 L 278.840 183.989 L 278.788 183.197 L 278.840 182.405 L 278.995 181.626 L 279.250 180.875 L 279.601 180.163 L 280.042 179.503 L 280.566 178.906 L 281.163 178.382 L 281.823 177.941 L 282.535 177.590 L 283.287 177.335 L 284.065 177.180 L 284.857 177.128 L 285.649 177.180 L 286.428 177.335 L 287.180 177.590 L 287.892 177.941 L 288.552 178.382 L 289.149 178.906 L 289.672 179.503 L 290.113 180.163 L 290.464 180.875 L 290.720 181.626 L 290.874 182.405 L 290.926 183.197 M 182.311 159.745 L 182.260 160.527 L 182.107 161.295 L 181.856 162.037 L 181.509 162.739 L 181.074 163.391 L 180.558 163.979 L 179.969 164.496 L 179.317 164.931 L 178.615 165.277 L 177.873 165.529 L 177.105 165.682 L 176.323 165.733 L 175.542 165.682 L 174.773 165.529 L 174.032 165.277 L 173.329 164.931 L 172.678 164.496 L 172.089 163.979 L 171.573 163.391 L 171.137 162.739 L 170.791 162.037 L 170.539 161.295 L 170.386 160.527 L 170.335 159.745 L 170.386 158.964 L 170.539 158.195 L 170.791 157.454 L 171.137 156.751 L 171.573 156.100 L 172.089 155.511 L 172.678 154.995 L 173.329 154.559 L 174.032 154.213 L 174.773 153.961 L 175.542 153.808 L 176.323 153.757 L 177.105 153.808 L 177.873 153.961 L 178.615 154.213 L 179.317 154.559 L 179.969 154.995 L 180.558 155.511 L 181.074 156.100 L 181.509 156.751 L 181.856 157.454 L 182.107 158.195 L 182.260 158.964 L 182.311 159.745 M 288.225 195.778 L 288.183 196.410 L 288.060 197.032 L 287.856 197.632 L 287.576 198.200 L 287.224 198.727 L 286.806 199.204 L 286.329 199.622 L 285.802 199.974 L 285.234 200.254 L 284.634 200.458 L 284.012 200.581 L 283.380 200.623 L 282.747 200.581 L 282.126 200.458 L 281.526 200.254 L 280.957 199.974 L 280.430 199.622 L 279.954 199.204 L 279.536 198.727 L 279.184 198.200 L 278.904 197.632 L 278.700 197.032 L 278.576 196.410 L 278.535 195.778 L 278.576 195.145 L 278.700 194.524 L 278.904 193.924 L 279.184 193.355 L 279.536 192.828 L 279.954 192.352 L 280.430 191.934 L 280.957 191.582 L 281.526 191.302 L 282.126 191.098 L 282.747 190.974 L 283.380 190.933 L 284.012 190.974 L 284.634 191.098 L 285.234 191.302 L 285.802 191.582 L 286.329 191.934 L 286.806 192.352 L 287.224 192.828 L 287.576 193.355 L 287.856 193.924 L 288.060 194.524 L 288.183 195.145 L 288.225 195.778 M 135.606 72.965 L 135.556 73.721 L 135.408 74.464 L 135.165 75.182 L 134.829 75.862 L 134.408 76.492 L 133.909 77.062 L 133.339 77.561 L 132.709 77.982 L 132.029 78.318 L 131.312 78.561 L 130.568 78.709 L 129.812 78.759 L 129.056 78.709 L 128.313 78.561 L 127.595 78.318 L 126.915 77.982 L 126.285 77.561 L 125.715 77.062 L 125.216 76.492 L 124.795 75.862 L 124.460 75.182 L 124.216 74.464 L 124.068 73.721 L 124.019 72.965 L 124.068 72.209 L 124.216 71.465 L 124.460 70.748 L 124.795 70.068 L 125.216 69.438 L 125.715 68.868 L 126.285 68.369 L 126.915 67.948 L 127.595 67.612 L 128.313 67.369 L 129.056 67.221 L 129.812 67.171 L 130.568 67.221 L 131.312 67.369 L 132.029 67.612 L 132.709 67.948 L 133.339 68.369 L 133.909 68.868 L 134.408 69.438 L 134.829 70.068 L 135.165 70.748 L 135.408 71.465 L 135.556 72.209 L 135.606 72.965 M 273.220 194.727 L 273.173 195.453 L 273.031 196.167 L 272.797 196.856 L 272.475 197.508 L 272.071 198.113 L 271.591 198.660 L 271.044 199.140 L 270.440 199.544 L 269.787 199.866 L 269.098 200.100 L 268.385 200.242 L 267.659 200.289 L 266.933 200.242 L 266.219 200.100 L 265.530 199.866 L 264.878 199.544 L 264.273 199.140 L 263.726 198.660 L 263.246 198.113 L 262.842 197.508 L 262.520 196.856 L 262.286 196.167 L 262.144 195.453 L 262.097 194.727 L 262.144 194.002 L 262.286 193.288 L 262.520 192.599 L 262.842 191.947 L 263.246 191.342 L 263.726 190.795 L 264.273 190.315 L 264.878 189.911 L 265.530 189.589 L 266.219 189.355 L 266.933 189.213 L 267.659 189.166 L 268.385 189.213 L 269.098 189.355 L 269.787 189.589 L 270.440 189.911 L 271.044 190.315 L 271.591 190.795 L 272.071 191.342 L 272.475 191.947 L 272.797 192.599 L 273.031 193.288 L 273.173 194.002 L 273.220 194.727 M 111.302 192.236 L 111.247 193.080 L 111.082 193.910 L 110.810 194.712 L 110.436 195.471 L 109.966 196.174 L 109.408 196.811 L 108.771 197.368 L 108.068 197.839 L 107.309 198.213 L 106.508 198.485 L 105.678 198.650 L 104.833 198.705 L 103.989 198.650 L 103.159 198.485 L 102.358 198.213 L 101.599 197.839 L 100.895 197.368 L 100.259 196.811 L 99.701 196.174 L 99.231 195.471 L 98.856 194.712 L 98.584 193.910 L 98.419 193.080 L 98.364 192.236 L 98.419 191.392 L 98.584 190.562 L 98.856 189.760 L 99.231 189.001 L 99.701 188.298 L 100.259 187.662 L 100.895 187.104 L 101.599 186.634 L 102.358 186.259 L 103.159 185.987 L 103.989 185.822 L 104.833 185.767 L 105.678 185.822 L 106.508 185.987 L 107.309 186.259 L 108.068 186.634 L 108.771 187.104 L 109.408 187.662 L 109.966 188.298 L 110.436 189.001 L 110.810 189.760 L 111.082 190.562 L 111.247 191.392 L 111.302 192.236 M 221.298 210.529 L 221.240 211.426 L 221.064 212.307 L 220.776 213.158 L 220.378 213.964 L 219.879 214.711 L 219.286 215.386 L 218.611 215.979 L 217.864 216.478 L 217.058 216.875 L 216.207 217.164 L 215.326 217.339 L 214.429 217.398 L 213.532 217.339 L 212.651 217.164 L 211.800 216.875 L 210.994 216.478 L 210.247 215.979 L 209.572 215.386 L 208.979 214.711 L 208.480 213.964 L 208.083 213.158 L 207.794 212.307 L 207.619 211.426 L 207.560 210.529 L 207.619 209.632 L 207.794 208.751 L 208.083 207.900 L 208.480 207.094 L 208.979 206.347 L 209.572 205.672 L 210.247 205.079 L 210.994 204.580 L 211.800 204.183 L 212.651 203.894 L 213.532 203.718 L 214.429 203.660 L 215.326 203.718 L 216.207 203.894 L 217.058 204.183 L 217.864 204.580 L 218.611 205.079 L 219.286 205.672 L 219.879 206.347 L 220.378 207.094 L 220.776 207.900 L 221.064 208.751 L 221.240 209.632 L 221.298 210.529 M 304.709 164.312 L 304.667 164.957 L 304.541 165.590 L 304.333 166.201 L 304.048 166.781 L 303.689 167.317 L 303.263 167.803 L 302.778 168.229 L 302.241 168.588 L 301.661 168.873 L 301.050 169.081 L 300.417 169.207 L 299.772 169.249 L 299.128 169.207 L 298.495 169.081 L 297.883 168.873 L 297.304 168.588 L 296.767 168.229 L 296.282 167.803 L 295.856 167.317 L 295.497 166.781 L 295.211 166.201 L 295.004 165.590 L 294.878 164.957 L 294.836 164.312 L 294.878 163.668 L 295.004 163.034 L 295.211 162.423 L 295.497 161.844 L 295.856 161.307 L 296.282 160.821 L 296.767 160.396 L 297.304 160.037 L 297.883 159.751 L 298.495 159.544 L 299.128 159.418 L 299.772 159.375 L 300.417 159.418 L 301.050 159.544 L 301.661 159.751 L 302.241 160.037 L 302.778 160.396 L 303.263 160.821 L 303.689 161.307 L 304.048 161.844 L 304.333 162.423 L 304.541 163.034 L 304.667 163.668 L 304.709 164.312 M 136.791 216.271 L 136.743 216.990 L 136.603 217.697 L 136.371 218.379 L 136.053 219.025 L 135.652 219.625 L 135.177 220.166 L 134.635 220.641 L 134.036 221.042 L 133.390 221.360 L 132.708 221.592 L 132.001 221.733 L 131.282 221.780 L 130.563 221.733 L 129.856 221.592 L 129.174 221.360 L 128.528 221.042 L 127.928 220.641 L 127.387 220.166 L 126.912 219.625 L 126.511 219.025 L 126.193 218.379 L 125.961 217.697 L 125.820 216.990 L 125.773 216.271 L 125.820 215.552 L 125.961 214.845 L 126.193 214.163 L 126.511 213.517 L 126.912 212.918 L 127.387 212.376 L 127.928 211.901 L 128.528 211.501 L 129.174 211.182 L 129.856 210.950 L 130.563 210.810 L 131.282 210.763 L 132.001 210.810 L 132.708 210.950 L 133.390 211.182 L 134.036 211.501 L 134.635 211.901 L 135.177 212.376 L 135.652 212.918 L 136.053 213.517 L 136.371 214.163 L 136.603 214.845 L 136.743 215.552 L 136.791 216.271 M 226.228 240.619 L 226.181 241.340 L 226.040 242.048 L 225.808 242.732 L 225.488 243.379 L 225.087 243.980 L 224.611 244.523 L 224.068 244.999 L 223.468 245.400 L 222.820 245.719 L 222.136 245.952 L 221.428 246.092 L 220.707 246.140 L 219.987 246.092 L 219.278 245.952 L 218.595 245.719 L 217.947 245.400 L 217.347 244.999 L 216.804 244.523 L 216.327 243.980 L 215.926 243.379 L 215.607 242.732 L 215.375 242.048 L 215.234 241.340 L 215.187 240.619 L 215.234 239.898 L 215.375 239.190 L 215.607 238.506 L 215.926 237.859 L 216.327 237.258 L 216.804 236.715 L 217.347 236.239 L 217.947 235.838 L 218.595 235.519 L 219.278 235.286 L 219.987 235.146 L 220.707 235.098 L 221.428 235.146 L 222.136 235.286 L 222.820 235.519 L 223.468 235.838 L 224.068 236.239 L 224.611 236.715 L 225.087 237.258 L 225.488 237.859 L 225.808 238.506 L 226.040 239.190 L 226.181 239.898 L 226.228 240.619 M 212.601 131.410 L 212.555 132.121 L 212.416 132.820 L 212.187 133.494 L 211.872 134.133 L 211.476 134.726 L 211.006 135.261 L 210.471 135.731 L 209.878 136.127 L 209.239 136.442 L 208.565 136.671 L 207.866 136.810 L 207.155 136.856 L 206.444 136.810 L 205.746 136.671 L 205.071 136.442 L 204.432 136.127 L 203.840 135.731 L 203.304 135.261 L 202.834 134.726 L 202.439 134.133 L 202.124 133.494 L 201.895 132.820 L 201.756 132.121 L 201.709 131.410 L 201.756 130.699 L 201.895 130.001 L 202.124 129.326 L 202.439 128.687 L 202.834 128.095 L 203.304 127.559 L 203.840 127.090 L 204.432 126.694 L 205.071 126.379 L 205.746 126.150 L 206.444 126.011 L 207.155 125.964 L 207.866 126.011 L 208.565 126.150 L 209.239 126.379 L 209.878 126.694 L 210.471 127.090 L 211.006 127.559 L 211.476 128.095 L 211.872 128.687 L 212.187 129.326 L 212.416 130.001 L 212.555 130.699 L 212.601 131.410 M 192.599 162.523 L 192.557 163.164 L 192.432 163.793 L 192.226 164.401 L 191.942 164.976 L 191.585 165.510 L 191.162 165.992 L 190.680 166.416 L 190.146 166.772 L 189.570 167.056 L 188.963 167.262 L 188.333 167.387 L 187.693 167.429 L 187.053 167.387 L 186.423 167.262 L 185.815 167.056 L 185.240 166.772 L 184.706 166.416 L 184.224 165.992 L 183.801 165.510 L 183.444 164.976 L 183.160 164.401 L 182.954 163.793 L 182.829 163.164 L 182.787 162.523 L 182.829 161.883 L 182.954 161.253 L 183.160 160.646 L 183.444 160.070 L 183.801 159.537 L 184.224 159.054 L 184.706 158.631 L 185.240 158.274 L 185.815 157.991 L 186.423 157.784 L 187.053 157.659 L 187.693 157.617 L 188.333 157.659 L 188.963 157.784 L 189.570 157.991 L 190.146 158.274 L 190.680 158.631 L 191.162 159.054 L 191.585 159.537 L 191.942 160.070 L 192.226 160.646 L 192.432 161.253 L 192.557 161.883 L 192.599 162.523 M 318.586 92.954 L 318.497 94.299 L 318.235 95.620 L 317.801 96.896 L 317.205 98.105 L 316.457 99.226 L 315.568 100.239 L 314.555 101.127 L 313.434 101.876 L 312.226 102.472 L 310.950 102.905 L 309.628 103.168 L 308.283 103.256 L 306.939 103.168 L 305.617 102.905 L 304.341 102.472 L 303.132 101.876 L 302.012 101.127 L 300.999 100.239 L 300.110 99.226 L 299.361 98.105 L 298.765 96.896 L 298.332 95.620 L 298.069 94.299 L 297.981 92.954 L 298.069 91.609 L 298.332 90.287 L 298.765 89.011 L 299.361 87.803 L 300.110 86.682 L 300.999 85.669 L 302.012 84.781 L 303.132 84.032 L 304.341 83.436 L 305.617 83.003 L 306.939 82.740 L 308.283 82.652 L 309.628 82.740 L 310.950 83.003 L 312.226 83.436 L 313.434 84.032 L 314.555 84.781 L 315.568 85.669 L 316.457 86.682 L 317.205 87.803 L 317.801 89.011 L 318.235 90.287 L 318.497 91.609 L 318.586 92.954 M 194.685 72.624 L 194.625 73.535 L 194.447 74.430 L 194.154 75.293 L 193.751 76.112 L 193.244 76.870 L 192.642 77.556 L 191.957 78.157 L 191.198 78.664 L 190.380 79.068 L 189.516 79.361 L 188.621 79.539 L 187.711 79.599 L 186.801 79.539 L 185.906 79.361 L 185.042 79.068 L 184.224 78.664 L 183.465 78.157 L 182.780 77.556 L 182.178 76.870 L 181.671 76.112 L 181.268 75.293 L 180.974 74.430 L 180.797 73.535 L 180.737 72.624 L 180.797 71.714 L 180.974 70.819 L 181.268 69.956 L 181.671 69.137 L 182.178 68.379 L 182.780 67.693 L 183.465 67.092 L 184.224 66.585 L 185.042 66.181 L 185.906 65.888 L 186.801 65.710 L 187.711 65.650 L 188.621 65.710 L 189.516 65.888 L 190.380 66.181 L 191.198 66.585 L 191.957 67.092 L 192.642 67.693 L 193.244 68.379 L 193.751 69.137 L 194.154 69.956 L 194.447 70.819 L 194.625 71.714 L 194.685 72.624 M 257.464 254.620 L 257.408 255.472 L 257.241 256.310 L 256.967 257.118 L 256.589 257.884 L 256.115 258.594 L 255.552 259.235 L 254.910 259.798 L 254.200 260.273 L 253.435 260.650 L 252.626 260.925 L 251.789 261.091 L 250.937 261.147 L 250.085 261.091 L 249.248 260.925 L 248.439 260.650 L 247.674 260.273 L 246.964 259.798 L 246.322 259.235 L 245.759 258.594 L 245.285 257.884 L 244.907 257.118 L 244.633 256.310 L 244.466 255.472 L 244.410 254.620 L 244.466 253.769 L 244.633 252.931 L 244.907 252.123 L 245.285 251.357 L 245.759 250.647 L 246.322 250.005 L 246.964 249.442 L 247.674 248.968 L 248.439 248.591 L 249.248 248.316 L 250.085 248.150 L 250.937 248.094 L 251.789 248.150 L 252.626 248.316 L 253.435 248.591 L 254.200 248.968 L 254.910 249.442 L 255.552 250.005 L 256.115 250.647 L 256.589 251.357 L 256.967 252.123 L 257.241 252.931 L 257.408 253.769 L 257.464 254.620 M 197.698 213.061 L 197.652 213.763 L 197.515 214.454 L 197.289 215.120 L 196.977 215.751 L 196.586 216.337 L 196.122 216.866 L 195.593 217.330 L 195.008 217.721 L 194.376 218.032 L 193.710 218.259 L 193.019 218.396 L 192.317 218.442 L 191.615 218.396 L 190.924 218.259 L 190.258 218.032 L 189.626 217.721 L 189.041 217.330 L 188.512 216.866 L 188.048 216.337 L 187.657 215.751 L 187.345 215.120 L 187.119 214.454 L 186.982 213.763 L 186.936 213.061 L 186.982 212.358 L 187.119 211.668 L 187.345 211.001 L 187.657 210.370 L 188.048 209.785 L 188.512 209.256 L 189.041 208.792 L 189.626 208.400 L 190.258 208.089 L 190.924 207.863 L 191.615 207.726 L 192.317 207.679 L 193.019 207.726 L 193.710 207.863 L 194.376 208.089 L 195.008 208.400 L 195.593 208.792 L 196.122 209.256 L 196.586 209.785 L 196.977 210.370 L 197.289 211.001 L 197.515 211.668 L 197.652 212.358 L 197.698 213.061 M 250.374 202.371 L 250.331 203.028 L 250.202 203.675 L 249.990 204.299 L 249.699 204.890 L 249.333 205.438 L 248.898 205.933 L 248.403 206.368 L 247.855 206.734 L 247.264 207.025 L 246.640 207.237 L 245.993 207.366 L 245.336 207.409 L 244.678 207.366 L 244.032 207.237 L 243.408 207.025 L 242.817 206.734 L 242.269 206.368 L 241.773 205.933 L 241.339 205.438 L 240.973 204.890 L 240.681 204.299 L 240.469 203.675 L 240.341 203.028 L 240.298 202.371 L 240.341 201.713 L 240.469 201.067 L 240.681 200.443 L 240.973 199.852 L 241.339 199.304 L 241.773 198.808 L 242.269 198.374 L 242.817 198.008 L 243.408 197.716 L 244.032 197.504 L 244.678 197.376 L 245.336 197.333 L 245.993 197.376 L 246.640 197.504 L 247.264 197.716 L 247.855 198.008 L 248.403 198.374 L 248.898 198.808 L 249.333 199.304 L 249.699 199.852 L 249.990 200.443 L 250.202 201.067 L 250.331 201.713 L 250.374 202.371 M 210.995 220.429 L 210.948 221.148 L 210.807 221.855 L 210.576 222.538 L 210.257 223.184 L 209.856 223.784 L 209.381 224.326 L 208.839 224.801 L 208.239 225.202 L 207.593 225.521 L 206.910 225.752 L 206.203 225.893 L 205.484 225.940 L 204.764 225.893 L 204.057 225.752 L 203.374 225.521 L 202.728 225.202 L 202.128 224.801 L 201.586 224.326 L 201.111 223.784 L 200.711 223.184 L 200.392 222.538 L 200.160 221.855 L 200.019 221.148 L 199.972 220.429 L 200.019 219.709 L 200.160 219.002 L 200.392 218.320 L 200.711 217.673 L 201.111 217.073 L 201.586 216.531 L 202.128 216.056 L 202.728 215.656 L 203.374 215.337 L 204.057 215.105 L 204.764 214.964 L 205.484 214.917 L 206.203 214.964 L 206.910 215.105 L 207.593 215.337 L 208.239 215.656 L 208.839 216.056 L 209.381 216.531 L 209.856 217.073 L 210.257 217.673 L 210.576 218.320 L 210.807 219.002 L 210.948 219.709 L 210.995 220.429 M 176.089 173.939 L 176.049 174.550 L 175.930 175.150 L 175.733 175.730 L 175.462 176.280 L 175.122 176.789 L 174.718 177.249 L 174.257 177.653 L 173.748 177.993 L 173.199 178.264 L 172.619 178.461 L 172.018 178.581 L 171.407 178.621 L 170.796 178.581 L 170.195 178.461 L 169.615 178.264 L 169.066 177.993 L 168.557 177.653 L 168.096 177.249 L 167.693 176.789 L 167.352 176.280 L 167.082 175.730 L 166.885 175.150 L 166.765 174.550 L 166.725 173.939 L 166.765 173.328 L 166.885 172.727 L 167.082 172.147 L 167.352 171.598 L 167.693 171.088 L 168.096 170.628 L 168.557 170.224 L 169.066 169.884 L 169.615 169.613 L 170.195 169.416 L 170.796 169.297 L 171.407 169.257 L 172.018 169.297 L 172.619 169.416 L 173.199 169.613 L 173.748 169.884 L 174.257 170.224 L 174.718 170.628 L 175.122 171.088 L 175.462 171.598 L 175.733 172.147 L 175.930 172.727 L 176.049 173.328 L 176.089 173.939 M 115.119 88.404 L 115.079 89.014 L 114.960 89.614 L 114.763 90.192 L 114.493 90.741 L 114.153 91.249 L 113.750 91.709 L 113.290 92.112 L 112.782 92.451 L 112.234 92.722 L 111.655 92.918 L 111.055 93.038 L 110.445 93.078 L 109.835 93.038 L 109.236 92.918 L 108.657 92.722 L 108.109 92.451 L 107.600 92.112 L 107.141 91.709 L 106.738 91.249 L 106.398 90.741 L 106.128 90.192 L 105.931 89.614 L 105.812 89.014 L 105.772 88.404 L 105.812 87.794 L 105.931 87.194 L 106.128 86.616 L 106.398 86.067 L 106.738 85.559 L 107.141 85.099 L 107.600 84.696 L 108.109 84.357 L 108.657 84.086 L 109.236 83.890 L 109.835 83.770 L 110.445 83.730 L 111.055 83.770 L 111.655 83.890 L 112.234 84.086 L 112.782 84.357 L 113.290 84.696 L 113.750 85.099 L 114.153 85.559 L 114.493 86.067 L 114.763 86.616 L 114.960 87.194 L 115.079 87.794 L 115.119 88.404 M 262.295 147.951 L 262.254 148.567 L 262.134 149.173 L 261.935 149.759 L 261.662 150.313 L 261.318 150.827 L 260.911 151.291 L 260.446 151.699 L 259.933 152.042 L 259.378 152.315 L 258.793 152.514 L 258.187 152.635 L 257.570 152.675 L 256.954 152.635 L 256.348 152.514 L 255.763 152.315 L 255.208 152.042 L 254.695 151.699 L 254.230 151.291 L 253.823 150.827 L 253.479 150.313 L 253.206 149.759 L 253.007 149.173 L 252.887 148.567 L 252.846 147.951 L 252.887 147.334 L 253.007 146.728 L 253.206 146.143 L 253.479 145.589 L 253.823 145.075 L 254.230 144.610 L 254.695 144.203 L 255.208 143.859 L 255.763 143.586 L 256.348 143.388 L 256.954 143.267 L 257.570 143.227 L 258.187 143.267 L 258.793 143.388 L 259.378 143.586 L 259.933 143.859 L 260.446 144.203 L 260.911 144.610 L 261.318 145.075 L 261.662 145.589 L 261.935 146.143 L 262.134 146.728 L 262.254 147.334 L 262.295 147.951 M 256.645 175.659 L 256.588 176.537 L 256.416 177.399 L 256.134 178.232 L 255.745 179.021 L 255.256 179.752 L 254.676 180.414 L 254.015 180.994 L 253.283 181.483 L 252.494 181.872 L 251.661 182.154 L 250.799 182.326 L 249.921 182.383 L 249.043 182.326 L 248.180 182.154 L 247.347 181.872 L 246.558 181.483 L 245.827 180.994 L 245.166 180.414 L 244.586 179.752 L 244.097 179.021 L 243.708 178.232 L 243.425 177.399 L 243.254 176.537 L 243.196 175.659 L 243.254 174.781 L 243.425 173.918 L 243.708 173.085 L 244.097 172.296 L 244.586 171.565 L 245.166 170.904 L 245.827 170.324 L 246.558 169.835 L 247.347 169.446 L 248.180 169.163 L 249.043 168.992 L 249.921 168.934 L 250.799 168.992 L 251.661 169.163 L 252.494 169.446 L 253.283 169.835 L 254.015 170.324 L 254.676 170.904 L 255.256 171.565 L 255.745 172.296 L 256.134 173.085 L 256.416 173.918 L 256.588 174.781 L 256.645 175.659 M 242.122 132.615 L 242.081 133.236 L 241.960 133.846 L 241.760 134.435 L 241.485 134.993 L 241.139 135.510 L 240.729 135.978 L 240.262 136.388 L 239.744 136.733 L 239.186 137.008 L 238.597 137.208 L 237.987 137.330 L 237.367 137.370 L 236.746 137.330 L 236.136 137.208 L 235.547 137.008 L 234.989 136.733 L 234.472 136.388 L 234.004 135.978 L 233.594 135.510 L 233.249 134.993 L 232.974 134.435 L 232.774 133.846 L 232.652 133.236 L 232.612 132.615 L 232.652 131.995 L 232.774 131.385 L 232.974 130.796 L 233.249 130.238 L 233.594 129.721 L 234.004 129.253 L 234.472 128.843 L 234.989 128.497 L 235.547 128.222 L 236.136 128.022 L 236.746 127.901 L 237.367 127.860 L 237.987 127.901 L 238.597 128.022 L 239.186 128.222 L 239.744 128.497 L 240.262 128.843 L 240.729 129.253 L 241.139 129.721 L 241.485 130.238 L 241.760 130.796 L 241.960 131.385 L 242.081 131.995 L 242.122 132.615 M 243.506 241.708 L 243.458 242.430 L 243.317 243.140 L 243.085 243.825 L 242.764 244.474 L 242.362 245.076 L 241.885 245.620 L 241.341 246.097 L 240.739 246.499 L 240.090 246.819 L 239.405 247.052 L 238.695 247.193 L 237.973 247.241 L 237.251 247.193 L 236.541 247.052 L 235.855 246.819 L 235.206 246.499 L 234.604 246.097 L 234.060 245.620 L 233.583 245.076 L 233.181 244.474 L 232.861 243.825 L 232.628 243.140 L 232.487 242.430 L 232.440 241.708 L 232.487 240.985 L 232.628 240.276 L 232.861 239.590 L 233.181 238.941 L 233.583 238.339 L 234.060 237.795 L 234.604 237.318 L 235.206 236.916 L 235.855 236.596 L 236.541 236.363 L 237.251 236.222 L 237.973 236.175 L 238.695 236.222 L 239.405 236.363 L 240.090 236.596 L 240.739 236.916 L 241.341 237.318 L 241.885 237.795 L 242.362 238.339 L 242.764 238.941 L 243.085 239.590 L 243.317 240.276 L 243.458 240.985 L 243.506 241.708 M 288.473 116.409 L 288.403 117.472 L 288.195 118.516 L 287.853 119.524 L 287.382 120.479 L 286.791 121.365 L 286.088 122.166 L 285.288 122.868 L 284.402 123.459 L 283.447 123.930 L 282.439 124.273 L 281.394 124.480 L 280.332 124.550 L 279.269 124.480 L 278.225 124.273 L 277.216 123.930 L 276.261 123.459 L 275.376 122.868 L 274.575 122.166 L 273.873 121.365 L 273.281 120.479 L 272.810 119.524 L 272.468 118.516 L 272.260 117.472 L 272.191 116.409 L 272.260 115.346 L 272.468 114.302 L 272.810 113.293 L 273.281 112.338 L 273.873 111.453 L 274.575 110.652 L 275.376 109.950 L 276.261 109.359 L 277.216 108.888 L 278.225 108.545 L 279.269 108.337 L 280.332 108.268 L 281.394 108.337 L 282.439 108.545 L 283.447 108.888 L 284.402 109.359 L 285.288 109.950 L 286.088 110.652 L 286.791 111.453 L 287.382 112.338 L 287.853 113.293 L 288.195 114.302 L 288.403 115.346 L 288.473 116.409 M 169.197 252.547 L 169.156 253.174 L 169.033 253.790 L 168.831 254.384 L 168.554 254.947 L 168.205 255.469 L 167.791 255.941 L 167.319 256.355 L 166.797 256.704 L 166.234 256.982 L 165.639 257.184 L 165.023 257.306 L 164.397 257.347 L 163.770 257.306 L 163.155 257.184 L 162.560 256.982 L 161.997 256.704 L 161.475 256.355 L 161.003 255.941 L 160.589 255.469 L 160.240 254.947 L 159.963 254.384 L 159.761 253.790 L 159.638 253.174 L 159.597 252.547 L 159.638 251.921 L 159.761 251.305 L 159.963 250.711 L 160.240 250.148 L 160.589 249.626 L 161.003 249.154 L 161.475 248.740 L 161.997 248.391 L 162.560 248.113 L 163.155 247.911 L 163.770 247.789 L 164.397 247.748 L 165.023 247.789 L 165.639 247.911 L 166.234 248.113 L 166.797 248.391 L 167.319 248.740 L 167.791 249.154 L 168.205 249.626 L 168.554 250.148 L 168.831 250.711 L 169.033 251.305 L 169.156 251.921 L 169.197 252.547 M 239.030 215.527 L 238.986 216.201 L 238.854 216.865 L 238.637 217.505 L 238.338 218.111 L 237.962 218.673 L 237.516 219.182 L 237.008 219.628 L 236.446 220.003 L 235.839 220.302 L 235.199 220.520 L 234.536 220.652 L 233.861 220.696 L 233.186 220.652 L 232.523 220.520 L 231.883 220.302 L 231.276 220.003 L 230.714 219.628 L 230.206 219.182 L 229.760 218.673 L 229.384 218.111 L 229.085 217.505 L 228.868 216.865 L 228.736 216.201 L 228.692 215.527 L 228.736 214.852 L 228.868 214.189 L 229.085 213.549 L 229.384 212.942 L 229.760 212.380 L 230.206 211.872 L 230.714 211.426 L 231.276 211.050 L 231.883 210.751 L 232.523 210.534 L 233.186 210.402 L 233.861 210.358 L 234.536 210.402 L 235.199 210.534 L 235.839 210.751 L 236.446 211.050 L 237.008 211.426 L 237.516 211.872 L 237.962 212.380 L 238.338 212.942 L 238.637 213.549 L 238.854 214.189 L 238.986 214.852 L 239.030 215.527 M 201.736 52.257 L 201.696 52.865 L 201.578 53.462 L 201.382 54.039 L 201.112 54.585 L 200.774 55.091 L 200.373 55.549 L 199.915 55.951 L 199.408 56.289 L 198.862 56.559 L 198.285 56.754 L 197.688 56.873 L 197.080 56.913 L 196.473 56.873 L 195.875 56.754 L 195.299 56.559 L 194.752 56.289 L 194.246 55.951 L 193.788 55.549 L 193.387 55.091 L 193.048 54.585 L 192.779 54.039 L 192.583 53.462 L 192.464 52.865 L 192.425 52.257 L 192.464 51.649 L 192.583 51.052 L 192.779 50.475 L 193.048 49.929 L 193.387 49.423 L 193.788 48.965 L 194.246 48.563 L 194.752 48.225 L 195.299 47.956 L 195.875 47.760 L 196.473 47.641 L 197.080 47.601 L 197.688 47.641 L 198.285 47.760 L 198.862 47.956 L 199.408 48.225 L 199.915 48.563 L 200.373 48.965 L 200.774 49.423 L 201.112 49.929 L 201.382 50.475 L 201.578 51.052 L 201.696 51.649 L 201.736 52.257 M 157.254 50.128 L 157.201 50.929 L 157.045 51.716 L 156.787 52.476 L 156.432 53.196 L 155.986 53.863 L 155.457 54.466 L 154.854 54.996 L 154.186 55.441 L 153.467 55.796 L 152.707 56.054 L 151.920 56.211 L 151.119 56.263 L 150.318 56.211 L 149.531 56.054 L 148.771 55.796 L 148.051 55.441 L 147.384 54.996 L 146.781 54.466 L 146.252 53.863 L 145.806 53.196 L 145.451 52.476 L 145.193 51.716 L 145.036 50.929 L 144.984 50.128 L 145.036 49.328 L 145.193 48.540 L 145.451 47.781 L 145.806 47.061 L 146.252 46.394 L 146.781 45.790 L 147.384 45.261 L 148.051 44.815 L 148.771 44.460 L 149.531 44.202 L 150.318 44.046 L 151.119 43.993 L 151.920 44.046 L 152.707 44.202 L 153.467 44.460 L 154.186 44.815 L 154.854 45.261 L 155.457 45.790 L 155.986 46.394 L 156.432 47.061 L 156.787 47.781 L 157.045 48.540 L 157.201 49.328 L 157.254 50.128 M 289.280 76.273 L 289.236 76.943 L 289.105 77.602 L 288.889 78.238 L 288.592 78.840 L 288.219 79.398 L 287.776 79.903 L 287.271 80.346 L 286.713 80.719 L 286.110 81.016 L 285.474 81.232 L 284.816 81.363 L 284.145 81.407 L 283.475 81.363 L 282.817 81.232 L 282.181 81.016 L 281.578 80.719 L 281.020 80.346 L 280.515 79.903 L 280.072 79.398 L 279.699 78.840 L 279.402 78.238 L 279.186 77.602 L 279.055 76.943 L 279.011 76.273 L 279.055 75.603 L 279.186 74.944 L 279.402 74.308 L 279.699 73.706 L 280.072 73.147 L 280.515 72.642 L 281.020 72.200 L 281.578 71.827 L 282.181 71.530 L 282.817 71.314 L 283.475 71.183 L 284.145 71.139 L 284.816 71.183 L 285.474 71.314 L 286.110 71.530 L 286.713 71.827 L 287.271 72.200 L 287.776 72.642 L 288.219 73.147 L 288.592 73.706 L 288.889 74.308 L 289.105 74.944 L 289.236 75.603 L 289.280 76.273 M 202.453 123.751 L 202.407 124.453 L 202.270 125.143 L 202.044 125.809 L 201.733 126.440 L 201.342 127.025 L 200.878 127.554 L 200.349 128.018 L 199.764 128.409 L 199.133 128.720 L 198.467 128.946 L 197.777 129.083 L 197.075 129.129 L 196.373 129.083 L 195.683 128.946 L 195.017 128.720 L 194.386 128.409 L 193.801 128.018 L 193.272 127.554 L 192.808 127.025 L 192.417 126.440 L 192.106 125.809 L 191.880 125.143 L 191.742 124.453 L 191.696 123.751 L 191.742 123.049 L 191.880 122.359 L 192.106 121.693 L 192.417 121.062 L 192.808 120.477 L 193.272 119.948 L 193.801 119.484 L 194.386 119.093 L 195.017 118.782 L 195.683 118.556 L 196.373 118.419 L 197.075 118.372 L 197.777 118.419 L 198.467 118.556 L 199.133 118.782 L 199.764 119.093 L 200.349 119.484 L 200.878 119.948 L 201.342 120.477 L 201.733 121.062 L 202.044 121.693 L 202.270 122.359 L 202.407 123.049 L 202.453 123.751 M 243.206 61.271 L 243.160 61.977 L 243.022 62.670 L 242.795 63.340 L 242.482 63.975 L 242.089 64.563 L 241.622 65.095 L 241.091 65.561 L 240.502 65.954 L 239.868 66.267 L 239.198 66.495 L 238.504 66.633 L 237.798 66.679 L 237.092 66.633 L 236.398 66.495 L 235.729 66.267 L 235.094 65.954 L 234.506 65.561 L 233.974 65.095 L 233.508 64.563 L 233.115 63.975 L 232.802 63.340 L 232.574 62.670 L 232.436 61.977 L 232.390 61.271 L 232.436 60.565 L 232.574 59.871 L 232.802 59.201 L 233.115 58.567 L 233.508 57.978 L 233.974 57.447 L 234.506 56.980 L 235.094 56.587 L 235.729 56.274 L 236.398 56.047 L 237.092 55.909 L 237.798 55.863 L 238.504 55.909 L 239.198 56.047 L 239.868 56.274 L 240.502 56.587 L 241.091 56.980 L 241.622 57.447 L 242.089 57.978 L 242.482 58.567 L 242.795 59.201 L 243.022 59.871 L 243.160 60.565 L 243.206 61.271 M 216.771 44.636 L 216.719 45.435 L 216.563 46.220 L 216.305 46.978 L 215.951 47.696 L 215.507 48.362 L 214.979 48.964 L 214.377 49.492 L 213.711 49.936 L 212.993 50.290 L 212.235 50.548 L 211.450 50.704 L 210.651 50.756 L 209.852 50.704 L 209.067 50.548 L 208.309 50.290 L 207.591 49.936 L 206.925 49.492 L 206.323 48.964 L 205.795 48.362 L 205.350 47.696 L 204.996 46.978 L 204.739 46.220 L 204.583 45.435 L 204.530 44.636 L 204.583 43.837 L 204.739 43.052 L 204.996 42.294 L 205.350 41.576 L 205.795 40.910 L 206.323 40.308 L 206.925 39.780 L 207.591 39.335 L 208.309 38.981 L 209.067 38.724 L 209.852 38.568 L 210.651 38.515 L 211.450 38.568 L 212.235 38.724 L 212.993 38.981 L 213.711 39.335 L 214.377 39.780 L 214.979 40.308 L 215.507 40.910 L 215.951 41.576 L 216.305 42.294 L 216.563 43.052 L 216.719 43.837 L 216.771 44.636" fill="none" stroke="#2dd4bf" stroke-width="1" vector-effect="non-scaling-stroke"/></svg>