<svg xmlns="http://www.w3.org/2000/svg" viewBox="82.70683898889838 17.91648482800347 258.1271743020992 258.18047495267615" width="258.1271743020992" height="258.18047495267615" shape-rendering="geometricPrecision"><rect x="82.70683898889838" y="17.91648482800347" width="258.1271743020992" height="258.18047495267615" fill="#0b0f14"/><path d="M 265.119 76.819 L 264.978 78.966 L 264.558 81.077 L 263.866 83.115 L 262.914 85.046 L 261.719 86.835 L 260.299 88.454 L 258.681 89.873 L 256.892 91.069 L 254.961 92.020 L 252.923 92.712 L 250.812 93.132 L 248.664 93.273 L 246.517 93.132 L 244.406 92.712 L 242.368 92.020 L 240.437 91.069 L 238.648 89.873 L 237.029 88.454 L 235.610 86.835 L 234.415 85.046 L 233.463 83.115 L 232.771 81.077 L 232.351 78.966 L 232.210 76.819 L 232.351 74.671 L 232.771 72.560 L 233.463 70.522 L 234.415 68.591 L 235.610 66.802 L 237.029 65.184 L 238.648 63.764 L 240.437 62.569 L 242.368 61.617 L 244.406 60.925 L 246.517 60.505 L 248.664 60.364 L 250.812 60.505 L 252.923 60.925 L 254.961 61.617 L 256.892 62.569 L 258.681 63.764 L 260.299 65.184 L 261.719 66.802 L 262.914 68.591 L 263.866 70.522 L 264.558 72.560 L 264.978 74.671 L 265.119 76.819 M 208.366 53.119 L 208.195 55.736 L 207.683 58.308 L 206.840 60.791 L 205.680 63.143 L 204.223 65.323 L 202.494 67.295 L 200.523 69.024 L 198.342 70.481 L 195.990 71.641 L 193.507 72.484 L 190.935 72.995 L 188.319 73.167 L 185.702 72.995 L 183.130 72.484 L 180.647 71.641 L 178.295 70.481 L 176.114 69.024 L 174.143 67.295 L 172.414 65.323 L 170.957 63.143 L 169.797 60.791 L 168.954 58.308 L 168.443 55.736 L 168.271 53.119 L 168.443 50.503 L 168.954 47.931 L 169.797 45.447 L 170.957 43.096 L 172.414 40.915 L 174.143 38.944 L 176.114 37.215 L 178.295 35.758 L 180.647 34.598 L 183.130 33.755 L 185.702 33.243 L 188.319 33.072 L 190.935 33.243 L 193.507 33.755 L 195.990 34.598 L 198.342 35.758 L 200.523 37.215 L 202.494 38.944 L 204.223 40.915 L 205.680 43.096 L 206.840 45.447 L 207.683 47.931 L 208.195 50.503 L 208.366 53.119 M 236.365 133.295 L 236.184 136.064 L 235.642 138.785 L 234.750 141.413 L 233.523 143.901 L 231.982 146.208 L 230.152 148.294 L 228.066 150.124 L 225.759 151.665 L 223.271 152.892 L 220.643 153.784 L 217.922 154.326 L 215.153 154.507 L 212.384 154.326 L 209.663 153.784 L 207.036 152.892 L 204.547 151.665 L 202.240 150.124 L 200.154 148.294 L 198.325 146.208 L 196.783 143.901 L 195.556 141.413 L 194.664 138.785 L 194.123 136.064 L 193.941 133.295 L 194.123 130.527 L 194.664 127.805 L 195.556 125.178 L 196.783 122.689 L 198.325 120.382 L 200.154 118.296 L 202.240 116.467 L 204.547 114.925 L 207.036 113.698 L 209.663 112.806 L 212.384 112.265 L 215.153 112.083 L 217.922 112.265 L 220.643 112.806 L 223.271 113.698 L 225.759 114.925 L 228.066 116.467 L 230.152 118.296 L 231.982 120.382 L 233.523 122.689 L 234.750 125.178 L 235.642 127.805 L 236.184 130.527 L 236.365 133.295 M 313.077 98.265 L 312.877 101.304 L 312.283 104.291 L 311.304 107.174 L 309.957 109.906 L 308.265 112.438 L 306.257 114.728 L 303.968 116.736 L 301.435 118.428 L 298.704 119.775 L 295.820 120.754 L 292.833 121.348 L 289.794 121.547 L 286.755 121.348 L 283.768 120.754 L 280.884 119.775 L 278.153 118.428 L 275.620 116.736 L 273.331 114.728 L 271.323 112.438 L 269.631 109.906 L 268.284 107.174 L 267.305 104.291 L 266.710 101.304 L 266.511 98.265 L 266.710 95.226 L 267.305 92.239 L 268.284 89.355 L 269.631 86.623 L 271.323 84.091 L 273.331 81.801 L 275.620 79.793 L 278.153 78.101 L 280.884 76.754 L 283.768 75.775 L 286.755 75.181 L 289.794 74.982 L 292.833 75.181 L 295.820 75.775 L 298.704 76.754 L 301.435 78.101 L 303.968 79.793 L 306.257 81.801 L 308.265 84.091 L 309.957 86.623 L 311.304 89.355 L 312.283 92.239 L 312.877 95.226 L 313.077 98.265 M 242.972 174.340 L 242.842 176.317 L 242.456 178.260 L 241.819 180.136 L 240.943 181.912 L 239.842 183.560 L 238.536 185.049 L 237.047 186.355 L 235.399 187.456 L 233.623 188.332 L 231.747 188.969 L 229.804 189.355 L 227.827 189.485 L 225.850 189.355 L 223.907 188.969 L 222.031 188.332 L 220.254 187.456 L 218.607 186.355 L 217.118 185.049 L 215.811 183.560 L 214.711 181.912 L 213.835 180.136 L 213.198 178.260 L 212.811 176.317 L 212.682 174.340 L 212.811 172.363 L 213.198 170.420 L 213.835 168.544 L 214.711 166.767 L 215.811 165.120 L 217.118 163.631 L 218.607 162.325 L 220.254 161.224 L 222.031 160.348 L 223.907 159.711 L 225.850 159.324 L 227.827 159.195 L 229.804 159.324 L 231.747 159.711 L 233.623 160.348 L 235.399 161.224 L 237.047 162.325 L 238.536 163.631 L 239.842 165.120 L 240.943 166.767 L 241.819 168.544 L 242.456 170.420 L 242.842 172.363 L 242.972 174.340 M 119.557 139.331 L 119.506 140.102 L 119.356 140.860 L 119.107 141.591 L 118.766 142.284 L 118.336 142.926 L 117.827 143.507 L 117.246 144.016 L 116.604 144.445 L 115.911 144.787 L 115.180 145.035 L 114.422 145.186 L 113.651 145.237 L 112.881 145.186 L 112.123 145.035 L 111.392 144.787 L 110.699 144.445 L 110.057 144.016 L 109.476 143.507 L 108.966 142.926 L 108.537 142.284 L 108.196 141.591 L 107.947 140.860 L 107.797 140.102 L 107.746 139.331 L 107.797 138.561 L 107.947 137.803 L 108.196 137.071 L 108.537 136.379 L 108.966 135.736 L 109.476 135.156 L 110.057 134.646 L 110.699 134.217 L 111.392 133.876 L 112.123 133.627 L 112.881 133.477 L 113.651 133.426 L 114.422 133.477 L 115.180 133.627 L 115.911 133.876 L 116.604 134.217 L 117.246 134.646 L 117.827 135.156 L 118.336 135.736 L 118.766 136.379 L 119.107 137.071 L 119.356 137.803 L 119.506 138.561 L 119.557 139.331 M 145.075 211.628 L 144.936 213.751 L 144.521 215.838 L 143.837 217.853 L 142.896 219.762 L 141.713 221.531 L 140.310 223.131 L 138.711 224.534 L 136.941 225.716 L 135.033 226.657 L 133.018 227.341 L 130.931 227.756 L 128.807 227.896 L 126.684 227.756 L 124.597 227.341 L 122.582 226.657 L 120.673 225.716 L 118.904 224.534 L 117.304 223.131 L 115.901 221.531 L 114.719 219.762 L 113.778 217.853 L 113.094 215.838 L 112.678 213.751 L 112.539 211.628 L 112.678 209.504 L 113.094 207.417 L 113.778 205.402 L 114.719 203.494 L 115.901 201.724 L 117.304 200.125 L 118.904 198.721 L 120.673 197.539 L 122.582 196.598 L 124.597 195.914 L 126.684 195.499 L 128.807 195.360 L 130.931 195.499 L 133.018 195.914 L 135.033 196.598 L 136.941 197.539 L 138.711 198.721 L 140.310 200.125 L 141.713 201.724 L 142.896 203.494 L 143.837 205.402 L 144.521 207.417 L 144.936 209.504 L 145.075 211.628 M 308.475 197.472 L 308.369 199.093 L 308.052 200.686 L 307.530 202.225 L 306.811 203.682 L 305.909 205.032 L 304.838 206.254 L 303.616 207.325 L 302.266 208.227 L 300.809 208.946 L 299.270 209.468 L 297.677 209.785 L 296.056 209.891 L 294.435 209.785 L 292.842 209.468 L 291.304 208.946 L 289.847 208.227 L 288.496 207.325 L 287.275 206.254 L 286.203 205.032 L 285.301 203.682 L 284.582 202.225 L 284.060 200.686 L 283.743 199.093 L 283.637 197.472 L 283.743 195.851 L 284.060 194.258 L 284.582 192.720 L 285.301 191.263 L 286.203 189.912 L 287.275 188.690 L 288.496 187.619 L 289.847 186.717 L 291.304 185.998 L 292.842 185.476 L 294.435 185.159 L 296.056 185.053 L 297.677 185.159 L 299.270 185.476 L 300.809 185.998 L 302.266 186.717 L 303.616 187.619 L 304.838 188.690 L 305.909 189.912 L 306.811 191.263 L 307.530 192.720 L 308.052 194.258 L 308.369 195.851 L 308.475 197.472 M 183.163 93.036 L 183.107 93.897 L 182.938 94.743 L 182.661 95.560 L 182.279 96.334 L 181.800 97.051 L 181.231 97.700 L 180.583 98.269 L 179.865 98.748 L 179.092 99.129 L 178.275 99.407 L 177.429 99.575 L 176.568 99.631 L 175.707 99.575 L 174.861 99.407 L 174.044 99.129 L 173.270 98.748 L 172.553 98.269 L 171.904 97.700 L 171.335 97.051 L 170.856 96.334 L 170.474 95.560 L 170.197 94.743 L 170.029 93.897 L 169.972 93.036 L 170.029 92.175 L 170.197 91.329 L 170.474 90.512 L 170.856 89.738 L 171.335 89.021 L 171.904 88.373 L 172.553 87.804 L 173.270 87.324 L 174.044 86.943 L 174.861 86.666 L 175.707 86.497 L 176.568 86.441 L 177.429 86.497 L 178.275 86.666 L 179.092 86.943 L 179.865 87.324 L 180.583 87.804 L 181.231 88.373 L 181.800 89.021 L 182.279 89.738 L 182.661 90.512 L 182.938 91.329 L 183.107 92.175 L 183.163 93.036 M 197.381 164.522 L 197.194 167.366 L 196.638 170.162 L 195.722 172.861 L 194.461 175.417 L 192.877 177.787 L 190.998 179.930 L 188.855 181.810 L 186.485 183.393 L 183.929 184.654 L 181.229 185.570 L 178.434 186.126 L 175.590 186.313 L 172.745 186.126 L 169.950 185.570 L 167.251 184.654 L 164.694 183.393 L 162.324 181.810 L 160.181 179.930 L 158.302 177.787 L 156.718 175.417 L 155.457 172.861 L 154.541 170.162 L 153.985 167.366 L 153.799 164.522 L 153.985 161.677 L 154.541 158.882 L 155.457 156.183 L 156.718 153.626 L 158.302 151.256 L 160.181 149.113 L 162.324 147.234 L 164.694 145.650 L 167.251 144.389 L 169.950 143.473 L 172.745 142.917 L 175.590 142.731 L 178.434 142.917 L 181.229 143.473 L 183.929 144.389 L 186.485 145.650 L 188.855 147.234 L 190.998 149.113 L 192.877 151.256 L 194.461 153.626 L 195.722 156.183 L 196.638 158.882 L 197.194 161.677 L 197.381 164.522 M 165.653 193.088 L 165.577 194.257 L 165.348 195.407 L 164.971 196.516 L 164.453 197.568 L 163.802 198.542 L 163.029 199.423 L 162.148 200.196 L 161.173 200.847 L 160.122 201.365 L 159.012 201.742 L 157.863 201.971 L 156.693 202.047 L 155.524 201.971 L 154.374 201.742 L 153.265 201.365 L 152.213 200.847 L 151.239 200.196 L 150.358 199.423 L 149.585 198.542 L 148.934 197.568 L 148.415 196.516 L 148.039 195.407 L 147.810 194.257 L 147.733 193.088 L 147.810 191.918 L 148.039 190.769 L 148.415 189.659 L 148.934 188.608 L 149.585 187.633 L 150.358 186.752 L 151.239 185.979 L 152.213 185.328 L 153.265 184.810 L 154.374 184.433 L 155.524 184.204 L 156.693 184.128 L 157.863 184.204 L 159.012 184.433 L 160.122 184.810 L 161.173 185.328 L 162.148 185.979 L 163.029 186.752 L 163.802 187.633 L 164.453 188.608 L 164.971 189.659 L 165.348 190.769 L 165.577 191.918 L 165.653 193.088 M 193.405 217.462 L 193.254 219.760 L 192.805 222.017 L 192.065 224.197 L 191.047 226.262 L 189.768 228.176 L 188.251 229.906 L 186.520 231.424 L 184.606 232.703 L 182.541 233.721 L 180.362 234.461 L 178.104 234.910 L 175.807 235.061 L 173.510 234.910 L 171.252 234.461 L 169.072 233.721 L 167.008 232.703 L 165.094 231.424 L 163.363 229.906 L 161.845 228.176 L 160.566 226.262 L 159.548 224.197 L 158.808 222.017 L 158.359 219.760 L 158.209 217.462 L 158.359 215.165 L 158.808 212.908 L 159.548 210.728 L 160.566 208.663 L 161.845 206.749 L 163.363 205.019 L 165.094 203.501 L 167.008 202.222 L 169.072 201.204 L 171.252 200.464 L 173.510 200.015 L 175.807 199.864 L 178.104 200.015 L 180.362 200.464 L 182.541 201.204 L 184.606 202.222 L 186.520 203.501 L 188.251 205.019 L 189.768 206.749 L 191.047 208.663 L 192.065 210.728 L 192.805 212.908 L 193.254 215.165 L 193.405 217.462 M 287.306 221.492 L 287.201 223.106 L 286.885 224.693 L 286.365 226.225 L 285.649 227.676 L 284.750 229.021 L 283.684 230.238 L 282.467 231.305 L 281.122 232.204 L 279.671 232.919 L 278.139 233.439 L 276.552 233.755 L 274.937 233.861 L 273.323 233.755 L 271.736 233.439 L 270.204 232.919 L 268.753 232.204 L 267.408 231.305 L 266.191 230.238 L 265.124 229.021 L 264.225 227.676 L 263.510 226.225 L 262.990 224.693 L 262.674 223.106 L 262.568 221.492 L 262.674 219.877 L 262.990 218.290 L 263.510 216.758 L 264.225 215.307 L 265.124 213.962 L 266.191 212.745 L 267.408 211.679 L 268.753 210.780 L 270.204 210.064 L 271.736 209.544 L 273.323 209.228 L 274.937 209.122 L 276.552 209.228 L 278.139 209.544 L 279.671 210.064 L 281.122 210.780 L 282.467 211.679 L 283.684 212.745 L 284.750 213.962 L 285.649 215.307 L 286.365 216.758 L 286.885 218.290 L 287.201 219.877 L 287.306 221.492 M 145.883 190.041 L 145.837 190.755 L 145.697 191.457 L 145.467 192.135 L 145.150 192.777 L 144.752 193.373 L 144.280 193.911 L 143.742 194.383 L 143.147 194.780 L 142.505 195.097 L 141.827 195.327 L 141.125 195.467 L 140.410 195.514 L 139.696 195.467 L 138.994 195.327 L 138.316 195.097 L 137.674 194.780 L 137.079 194.383 L 136.541 193.911 L 136.069 193.373 L 135.671 192.777 L 135.354 192.135 L 135.124 191.457 L 134.984 190.755 L 134.938 190.041 L 134.984 189.326 L 135.124 188.624 L 135.354 187.946 L 135.671 187.304 L 136.069 186.709 L 136.541 186.171 L 137.079 185.699 L 137.674 185.301 L 138.316 184.985 L 138.994 184.754 L 139.696 184.615 L 140.410 184.568 L 141.125 184.615 L 141.827 184.754 L 142.505 184.985 L 143.147 185.301 L 143.742 185.699 L 144.280 186.171 L 144.752 186.709 L 145.150 187.304 L 145.467 187.946 L 145.697 188.624 L 145.837 189.326 L 145.883 190.041 M 150.537 166.802 L 150.482 167.643 L 150.317 168.469 L 150.046 169.267 L 149.674 170.023 L 149.205 170.724 L 148.650 171.358 L 148.016 171.913 L 147.315 172.382 L 146.560 172.754 L 145.762 173.025 L 144.935 173.190 L 144.094 173.245 L 143.253 173.190 L 142.427 173.025 L 141.628 172.754 L 140.873 172.382 L 140.172 171.913 L 139.538 171.358 L 138.983 170.724 L 138.514 170.023 L 138.142 169.267 L 137.871 168.469 L 137.706 167.643 L 137.651 166.802 L 137.706 165.961 L 137.871 165.134 L 138.142 164.336 L 138.514 163.581 L 138.983 162.880 L 139.538 162.246 L 140.172 161.691 L 140.873 161.222 L 141.628 160.850 L 142.427 160.579 L 143.253 160.414 L 144.094 160.359 L 144.935 160.414 L 145.762 160.579 L 146.560 160.850 L 147.315 161.222 L 148.016 161.691 L 148.650 162.246 L 149.205 162.880 L 149.674 163.581 L 150.046 164.336 L 150.317 165.134 L 150.482 165.961 L 150.537 166.802 M 235.930 47.444 L 235.837 48.856 L 235.561 50.244 L 235.106 51.584 L 234.481 52.853 L 233.694 54.029 L 232.761 55.093 L 231.698 56.026 L 230.521 56.812 L 229.252 57.438 L 227.912 57.893 L 226.524 58.169 L 225.112 58.262 L 223.700 58.169 L 222.312 57.893 L 220.972 57.438 L 219.703 56.812 L 218.527 56.026 L 217.463 55.093 L 216.530 54.029 L 215.744 52.853 L 215.118 51.584 L 214.663 50.244 L 214.387 48.856 L 214.294 47.444 L 214.387 46.032 L 214.663 44.644 L 215.118 43.304 L 215.744 42.035 L 216.530 40.858 L 217.463 39.795 L 218.527 38.862 L 219.703 38.075 L 220.972 37.450 L 222.312 36.995 L 223.700 36.719 L 225.112 36.626 L 226.524 36.719 L 227.912 36.995 L 229.252 37.450 L 230.521 38.075 L 231.698 38.862 L 232.761 39.795 L 233.694 40.858 L 234.481 42.035 L 235.106 43.304 L 235.561 44.644 L 235.837 46.032 L 235.930 47.444 M 332.834 149.897 L 332.711 151.770 L 332.345 153.611 L 331.742 155.389 L 330.911 157.072 L 329.869 158.633 L 328.631 160.044 L 327.220 161.282 L 325.659 162.325 L 323.975 163.155 L 322.198 163.758 L 320.357 164.124 L 318.484 164.247 L 316.611 164.124 L 314.770 163.758 L 312.992 163.155 L 311.309 162.325 L 309.748 161.282 L 308.337 160.044 L 307.099 158.633 L 306.056 157.072 L 305.226 155.389 L 304.623 153.611 L 304.256 151.770 L 304.134 149.897 L 304.256 148.024 L 304.623 146.183 L 305.226 144.405 L 306.056 142.722 L 307.099 141.161 L 308.337 139.750 L 309.748 138.512 L 311.309 137.469 L 312.992 136.639 L 314.770 136.036 L 316.611 135.670 L 318.484 135.547 L 320.357 135.670 L 322.198 136.036 L 323.975 136.639 L 325.659 137.469 L 327.220 138.512 L 328.631 139.750 L 329.869 141.161 L 330.911 142.722 L 331.742 144.405 L 332.345 146.183 L 332.711 148.024 L 332.834 149.897 M 137.353 104.598 L 137.309 105.272 L 137.177 105.934 L 136.960 106.573 L 136.661 107.178 L 136.286 107.739 L 135.841 108.247 L 135.334 108.692 L 134.773 109.067 L 134.168 109.365 L 133.528 109.582 L 132.867 109.714 L 132.193 109.758 L 131.520 109.714 L 130.858 109.582 L 130.219 109.365 L 129.613 109.067 L 129.052 108.692 L 128.545 108.247 L 128.100 107.739 L 127.725 107.178 L 127.426 106.573 L 127.209 105.934 L 127.078 105.272 L 127.033 104.598 L 127.078 103.925 L 127.209 103.263 L 127.426 102.624 L 127.725 102.018 L 128.100 101.457 L 128.545 100.950 L 129.052 100.505 L 129.613 100.130 L 130.219 99.831 L 130.858 99.614 L 131.520 99.483 L 132.193 99.439 L 132.867 99.483 L 133.528 99.614 L 134.168 99.831 L 134.773 100.130 L 135.334 100.505 L 135.841 100.950 L 136.286 101.457 L 136.661 102.018 L 136.960 102.624 L 137.177 103.263 L 137.309 103.925 L 137.353 104.598 M 206.482 184.458 L 206.417 185.448 L 206.223 186.421 L 205.904 187.360 L 205.465 188.250 L 204.914 189.075 L 204.260 189.821 L 203.514 190.475 L 202.689 191.026 L 201.799 191.465 L 200.860 191.784 L 199.886 191.978 L 198.896 192.043 L 197.906 191.978 L 196.933 191.784 L 195.994 191.465 L 195.104 191.026 L 194.279 190.475 L 193.533 189.821 L 192.879 189.075 L 192.327 188.250 L 191.889 187.360 L 191.570 186.421 L 191.376 185.448 L 191.311 184.458 L 191.376 183.467 L 191.570 182.494 L 191.889 181.555 L 192.327 180.665 L 192.879 179.840 L 193.533 179.094 L 194.279 178.440 L 195.104 177.889 L 195.994 177.450 L 196.933 177.131 L 197.906 176.937 L 198.896 176.872 L 199.886 176.937 L 200.860 177.131 L 201.799 177.450 L 202.689 177.889 L 203.514 178.440 L 204.260 179.094 L 204.914 179.840 L 205.465 180.665 L 205.904 181.555 L 206.223 182.494 L 206.417 183.467 L 206.482 184.458 M 217.093 89.582 L 216.969 91.464 L 216.601 93.314 L 215.995 95.100 L 215.161 96.792 L 214.113 98.360 L 212.869 99.779 L 211.451 101.022 L 209.882 102.070 L 208.191 102.905 L 206.404 103.511 L 204.554 103.879 L 202.672 104.002 L 200.790 103.879 L 198.940 103.511 L 197.153 102.905 L 195.462 102.070 L 193.893 101.022 L 192.475 99.779 L 191.231 98.360 L 190.183 96.792 L 189.349 95.100 L 188.743 93.314 L 188.375 91.464 L 188.251 89.582 L 188.375 87.699 L 188.743 85.849 L 189.349 84.063 L 190.183 82.371 L 191.231 80.803 L 192.475 79.385 L 193.893 78.141 L 195.462 77.093 L 197.153 76.258 L 198.940 75.652 L 200.790 75.284 L 202.672 75.161 L 204.554 75.284 L 206.404 75.652 L 208.191 76.258 L 209.882 77.093 L 211.451 78.141 L 212.869 79.385 L 214.113 80.803 L 215.161 82.371 L 215.995 84.063 L 216.601 85.849 L 216.969 87.699 L 217.093 89.582 M 300.921 150.380 L 300.779 152.547 L 300.355 154.677 L 299.657 156.734 L 298.696 158.682 L 297.490 160.487 L 296.058 162.120 L 294.425 163.552 L 292.619 164.759 L 290.672 165.719 L 288.615 166.417 L 286.485 166.841 L 284.318 166.983 L 282.151 166.841 L 280.021 166.417 L 277.965 165.719 L 276.017 164.759 L 274.211 163.552 L 272.578 162.120 L 271.146 160.487 L 269.940 158.682 L 268.979 156.734 L 268.281 154.677 L 267.858 152.547 L 267.715 150.380 L 267.858 148.213 L 268.281 146.083 L 268.979 144.027 L 269.940 142.079 L 271.146 140.273 L 272.578 138.641 L 274.211 137.209 L 276.017 136.002 L 277.965 135.042 L 280.021 134.343 L 282.151 133.920 L 284.318 133.778 L 286.485 133.920 L 288.615 134.343 L 290.672 135.042 L 292.619 136.002 L 294.425 137.209 L 296.058 138.641 L 297.490 140.273 L 298.696 142.079 L 299.657 144.027 L 300.355 146.083 L 300.779 148.213 L 300.921 150.380 M 258.328 219.281 L 258.132 222.278 L 257.546 225.224 L 256.580 228.068 L 255.252 230.762 L 253.583 233.259 L 251.602 235.517 L 249.344 237.498 L 246.847 239.167 L 244.153 240.495 L 241.309 241.461 L 238.363 242.047 L 235.366 242.243 L 232.368 242.047 L 229.423 241.461 L 226.578 240.495 L 223.884 239.167 L 221.387 237.498 L 219.129 235.517 L 217.148 233.259 L 215.480 230.762 L 214.151 228.068 L 213.186 225.224 L 212.600 222.278 L 212.403 219.281 L 212.600 216.283 L 213.186 213.338 L 214.151 210.493 L 215.480 207.799 L 217.148 205.302 L 219.129 203.044 L 221.387 201.063 L 223.884 199.395 L 226.578 198.066 L 229.423 197.101 L 232.368 196.515 L 235.366 196.318 L 238.363 196.515 L 241.309 197.101 L 244.153 198.066 L 246.847 199.395 L 249.344 201.063 L 251.602 203.044 L 253.583 205.302 L 255.252 207.799 L 256.580 210.493 L 257.546 213.338 L 258.132 216.283 L 258.328 219.281 M 177.725 110.428 L 177.622 112.006 L 177.313 113.557 L 176.805 115.055 L 176.105 116.473 L 175.227 117.788 L 174.184 118.977 L 172.995 120.019 L 171.680 120.898 L 170.262 121.598 L 168.764 122.106 L 167.213 122.414 L 165.635 122.518 L 164.057 122.414 L 162.506 122.106 L 161.009 121.598 L 159.590 120.898 L 158.275 120.019 L 157.086 118.977 L 156.044 117.788 L 155.165 116.473 L 154.466 115.055 L 153.957 113.557 L 153.649 112.006 L 153.545 110.428 L 153.649 108.850 L 153.957 107.299 L 154.466 105.801 L 155.165 104.383 L 156.044 103.068 L 157.086 101.879 L 158.275 100.836 L 159.590 99.958 L 161.009 99.258 L 162.506 98.750 L 164.057 98.441 L 165.635 98.338 L 167.213 98.441 L 168.764 98.750 L 170.262 99.258 L 171.680 99.958 L 172.995 100.836 L 174.184 101.879 L 175.227 103.068 L 176.105 104.383 L 176.805 105.801 L 177.313 107.299 L 177.622 108.850 L 177.725 110.428 M 262.196 109.930 L 262.114 111.194 L 261.866 112.437 L 261.459 113.637 L 260.899 114.773 L 260.195 115.826 L 259.360 116.779 L 258.407 117.614 L 257.354 118.318 L 256.218 118.878 L 255.018 119.285 L 253.776 119.532 L 252.512 119.615 L 251.247 119.532 L 250.005 119.285 L 248.805 118.878 L 247.669 118.318 L 246.616 117.614 L 245.663 116.779 L 244.828 115.826 L 244.124 114.773 L 243.564 113.637 L 243.157 112.437 L 242.910 111.194 L 242.827 109.930 L 242.910 108.666 L 243.157 107.424 L 243.564 106.224 L 244.124 105.088 L 244.828 104.035 L 245.663 103.082 L 246.616 102.247 L 247.669 101.543 L 248.805 100.983 L 250.005 100.576 L 251.247 100.328 L 252.512 100.246 L 253.776 100.328 L 255.018 100.576 L 256.218 100.983 L 257.354 101.543 L 258.407 102.247 L 259.360 103.082 L 260.195 104.035 L 260.899 105.088 L 261.459 106.224 L 261.866 107.424 L 262.114 108.666 L 262.196 109.930 M 286.560 61.946 L 286.484 63.105 L 286.257 64.244 L 285.884 65.343 L 285.370 66.385 L 284.725 67.350 L 283.960 68.223 L 283.087 68.989 L 282.121 69.634 L 281.080 70.147 L 279.980 70.521 L 278.842 70.747 L 277.683 70.823 L 276.524 70.747 L 275.386 70.521 L 274.286 70.147 L 273.245 69.634 L 272.279 68.989 L 271.406 68.223 L 270.641 67.350 L 269.996 66.385 L 269.482 65.343 L 269.109 64.244 L 268.882 63.105 L 268.806 61.946 L 268.882 60.788 L 269.109 59.649 L 269.482 58.549 L 269.996 57.508 L 270.641 56.543 L 271.406 55.670 L 272.279 54.904 L 273.245 54.259 L 274.286 53.745 L 275.386 53.372 L 276.524 53.146 L 277.683 53.070 L 278.842 53.146 L 279.980 53.372 L 281.080 53.745 L 282.121 54.259 L 283.087 54.904 L 283.960 55.670 L 284.725 56.543 L 285.370 57.508 L 285.884 58.549 L 286.257 59.649 L 286.484 60.788 L 286.560 61.946 M 275.248 183.780 L 275.157 185.166 L 274.886 186.529 L 274.439 187.844 L 273.825 189.090 L 273.053 190.246 L 272.137 191.290 L 271.092 192.206 L 269.937 192.978 L 268.691 193.593 L 267.376 194.039 L 266.013 194.310 L 264.627 194.401 L 263.240 194.310 L 261.878 194.039 L 260.562 193.593 L 259.316 192.978 L 258.161 192.206 L 257.116 191.290 L 256.200 190.246 L 255.428 189.090 L 254.814 187.844 L 254.367 186.529 L 254.096 185.166 L 254.005 183.780 L 254.096 182.393 L 254.367 181.031 L 254.814 179.715 L 255.428 178.469 L 256.200 177.314 L 257.116 176.269 L 258.161 175.353 L 259.316 174.581 L 260.562 173.967 L 261.878 173.520 L 263.240 173.249 L 264.627 173.158 L 266.013 173.249 L 267.376 173.520 L 268.691 173.967 L 269.937 174.581 L 271.092 175.353 L 272.137 176.269 L 273.053 177.314 L 273.825 178.469 L 274.439 179.715 L 274.886 181.031 L 275.157 182.393 L 275.248 183.780 M 133.413 175.380 L 133.233 178.129 L 132.696 180.831 L 131.810 183.440 L 130.592 185.911 L 129.061 188.202 L 127.244 190.273 L 125.173 192.089 L 122.882 193.620 L 120.412 194.838 L 117.803 195.724 L 115.101 196.261 L 112.352 196.442 L 109.603 196.261 L 106.901 195.724 L 104.292 194.838 L 101.821 193.620 L 99.530 192.089 L 97.459 190.273 L 95.642 188.202 L 94.112 185.911 L 92.893 183.440 L 92.008 180.831 L 91.470 178.129 L 91.290 175.380 L 91.470 172.631 L 92.008 169.929 L 92.893 167.320 L 94.112 164.849 L 95.642 162.559 L 97.459 160.487 L 99.530 158.671 L 101.821 157.140 L 104.292 155.922 L 106.901 155.036 L 109.603 154.499 L 112.352 154.318 L 115.101 154.499 L 117.803 155.036 L 120.412 155.922 L 122.882 157.140 L 125.173 158.671 L 127.244 160.487 L 129.061 162.559 L 130.592 164.849 L 131.810 167.320 L 132.696 169.929 L 133.233 172.631 L 133.413 175.380 M 165.149 82.822 L 165.025 84.721 L 164.653 86.588 L 164.042 88.390 L 163.200 90.097 L 162.142 91.680 L 160.887 93.110 L 159.457 94.365 L 157.874 95.423 L 156.167 96.265 L 154.365 96.876 L 152.498 97.248 L 150.599 97.372 L 148.700 97.248 L 146.833 96.876 L 145.031 96.265 L 143.324 95.423 L 141.741 94.365 L 140.310 93.110 L 139.056 91.680 L 137.998 90.097 L 137.156 88.390 L 136.545 86.588 L 136.173 84.721 L 136.049 82.822 L 136.173 80.923 L 136.545 79.056 L 137.156 77.254 L 137.998 75.547 L 139.056 73.964 L 140.310 72.533 L 141.741 71.279 L 143.324 70.221 L 145.031 69.379 L 146.833 68.768 L 148.700 68.396 L 150.599 68.272 L 152.498 68.396 L 154.365 68.768 L 156.167 69.379 L 157.874 70.221 L 159.457 71.279 L 160.887 72.533 L 162.142 73.964 L 163.200 75.547 L 164.042 77.254 L 164.653 79.056 L 165.025 80.923 L 165.149 82.822 M 257.494 138.470 L 257.434 139.380 L 257.256 140.275 L 256.963 141.139 L 256.559 141.957 L 256.052 142.716 L 255.451 143.402 L 254.765 144.004 L 254.006 144.510 L 253.188 144.914 L 252.324 145.207 L 251.429 145.385 L 250.518 145.445 L 249.608 145.385 L 248.713 145.207 L 247.849 144.914 L 247.031 144.510 L 246.272 144.004 L 245.586 143.402 L 244.985 142.716 L 244.478 141.957 L 244.074 141.139 L 243.781 140.275 L 243.603 139.380 L 243.543 138.470 L 243.603 137.559 L 243.781 136.665 L 244.074 135.801 L 244.478 134.982 L 244.985 134.224 L 245.586 133.538 L 246.272 132.936 L 247.031 132.429 L 247.849 132.026 L 248.713 131.732 L 249.608 131.554 L 250.518 131.495 L 251.429 131.554 L 252.324 131.732 L 253.188 132.026 L 254.006 132.429 L 254.765 132.936 L 255.451 133.538 L 256.052 134.224 L 256.559 134.982 L 256.963 135.801 L 257.256 136.665 L 257.434 137.559 L 257.494 138.470 M 322.618 197.754 L 322.563 198.590 L 322.399 199.413 L 322.130 200.206 L 321.759 200.958 L 321.293 201.655 L 320.741 202.286 L 320.110 202.838 L 319.413 203.304 L 318.662 203.675 L 317.868 203.944 L 317.046 204.108 L 316.209 204.163 L 315.372 204.108 L 314.550 203.944 L 313.756 203.675 L 313.005 203.304 L 312.308 202.838 L 311.677 202.286 L 311.124 201.655 L 310.659 200.958 L 310.288 200.206 L 310.018 199.413 L 309.855 198.590 L 309.800 197.754 L 309.855 196.917 L 310.018 196.095 L 310.288 195.301 L 310.659 194.549 L 311.124 193.852 L 311.677 193.222 L 312.308 192.669 L 313.005 192.204 L 313.756 191.833 L 314.550 191.563 L 315.372 191.400 L 316.209 191.345 L 317.046 191.400 L 317.868 191.563 L 318.662 191.833 L 319.413 192.204 L 320.110 192.669 L 320.741 193.222 L 321.293 193.852 L 321.759 194.549 L 322.130 195.301 L 322.399 196.095 L 322.563 196.917 L 322.618 197.754 M 114.937 90.019 L 114.894 90.671 L 114.767 91.311 L 114.557 91.929 L 114.268 92.514 L 113.906 93.057 L 113.475 93.548 L 112.985 93.978 L 112.442 94.341 L 111.857 94.629 L 111.238 94.839 L 110.598 94.966 L 109.947 95.009 L 109.296 94.966 L 108.656 94.839 L 108.038 94.629 L 107.452 94.341 L 106.909 93.978 L 106.419 93.548 L 105.988 93.057 L 105.626 92.514 L 105.337 91.929 L 105.127 91.311 L 105.000 90.671 L 104.957 90.019 L 105.000 89.368 L 105.127 88.728 L 105.337 88.110 L 105.626 87.524 L 105.988 86.982 L 106.419 86.491 L 106.909 86.061 L 107.452 85.698 L 108.038 85.409 L 108.656 85.200 L 109.296 85.072 L 109.947 85.030 L 110.598 85.072 L 111.238 85.200 L 111.857 85.409 L 112.442 85.698 L 112.985 86.061 L 113.475 86.491 L 113.906 86.982 L 114.268 87.524 L 114.557 88.110 L 114.767 88.728 L 114.894 89.368 L 114.937 90.019 M 226.056 256.480 L 225.985 257.561 L 225.774 258.623 L 225.426 259.649 L 224.947 260.620 L 224.345 261.520 L 223.631 262.335 L 222.817 263.049 L 221.917 263.650 L 220.945 264.129 L 219.920 264.477 L 218.858 264.689 L 217.777 264.759 L 216.696 264.689 L 215.634 264.477 L 214.609 264.129 L 213.638 263.650 L 212.737 263.049 L 211.923 262.335 L 211.209 261.520 L 210.607 260.620 L 210.128 259.649 L 209.780 258.623 L 209.569 257.561 L 209.498 256.480 L 209.569 255.400 L 209.780 254.338 L 210.128 253.312 L 210.607 252.341 L 211.209 251.440 L 211.923 250.626 L 212.737 249.912 L 213.638 249.310 L 214.609 248.831 L 215.634 248.483 L 216.696 248.272 L 217.777 248.201 L 218.858 248.272 L 219.920 248.483 L 220.945 248.831 L 221.917 249.310 L 222.817 249.912 L 223.631 250.626 L 224.345 251.440 L 224.947 252.341 L 225.426 253.312 L 225.774 254.338 L 225.985 255.400 L 226.056 256.480 M 199.553 237.846 L 199.510 238.493 L 199.384 239.128 L 199.176 239.741 L 198.889 240.322 L 198.529 240.861 L 198.102 241.348 L 197.615 241.775 L 197.077 242.135 L 196.496 242.421 L 195.882 242.630 L 195.247 242.756 L 194.601 242.798 L 193.954 242.756 L 193.319 242.630 L 192.706 242.421 L 192.125 242.135 L 191.586 241.775 L 191.099 241.348 L 190.672 240.861 L 190.312 240.322 L 190.026 239.741 L 189.818 239.128 L 189.691 238.493 L 189.649 237.846 L 189.691 237.200 L 189.818 236.565 L 190.026 235.951 L 190.312 235.371 L 190.672 234.832 L 191.099 234.345 L 191.586 233.918 L 192.125 233.558 L 192.706 233.272 L 193.319 233.063 L 193.954 232.937 L 194.601 232.895 L 195.247 232.937 L 195.882 233.063 L 196.496 233.272 L 197.077 233.558 L 197.615 233.918 L 198.102 234.345 L 198.529 234.832 L 198.889 235.371 L 199.176 235.951 L 199.384 236.565 L 199.510 237.200 L 199.553 237.846 M 317.365 121.856 L 317.320 122.544 L 317.186 123.220 L 316.964 123.873 L 316.659 124.492 L 316.276 125.065 L 315.821 125.584 L 315.303 126.038 L 314.730 126.421 L 314.111 126.726 L 313.458 126.948 L 312.782 127.083 L 312.094 127.128 L 311.406 127.083 L 310.730 126.948 L 310.077 126.726 L 309.458 126.421 L 308.885 126.038 L 308.366 125.584 L 307.912 125.065 L 307.529 124.492 L 307.224 123.873 L 307.002 123.220 L 306.867 122.544 L 306.822 121.856 L 306.867 121.168 L 307.002 120.492 L 307.224 119.839 L 307.529 119.220 L 307.912 118.647 L 308.366 118.129 L 308.885 117.674 L 309.458 117.291 L 310.077 116.986 L 310.730 116.764 L 311.406 116.630 L 312.094 116.585 L 312.782 116.630 L 313.458 116.764 L 314.111 116.986 L 314.730 117.291 L 315.303 117.674 L 315.821 118.129 L 316.276 118.647 L 316.659 119.220 L 316.964 119.839 L 317.186 120.492 L 317.320 121.168 L 317.365 121.856 M 161.300 130.800 L 161.184 132.570 L 160.838 134.310 L 160.268 135.990 L 159.483 137.581 L 158.497 139.056 L 157.328 140.389 L 155.994 141.559 L 154.519 142.545 L 152.928 143.329 L 151.248 143.899 L 149.508 144.245 L 147.738 144.361 L 145.968 144.245 L 144.228 143.899 L 142.548 143.329 L 140.957 142.545 L 139.482 141.559 L 138.149 140.389 L 136.979 139.056 L 135.993 137.581 L 135.209 135.990 L 134.639 134.310 L 134.293 132.570 L 134.177 130.800 L 134.293 129.030 L 134.639 127.290 L 135.209 125.610 L 135.993 124.019 L 136.979 122.544 L 138.149 121.210 L 139.482 120.041 L 140.957 119.055 L 142.548 118.271 L 144.228 117.700 L 145.968 117.354 L 147.738 117.238 L 149.508 117.354 L 151.248 117.700 L 152.928 118.271 L 154.519 119.055 L 155.994 120.041 L 157.328 121.210 L 158.497 122.544 L 159.483 124.019 L 160.268 125.610 L 160.838 127.290 L 161.184 129.030 L 161.300 130.800 M 102.315 129.369 L 102.268 130.090 L 102.127 130.799 L 101.894 131.483 L 101.575 132.131 L 101.173 132.732 L 100.697 133.276 L 100.154 133.752 L 99.553 134.154 L 98.905 134.473 L 98.220 134.705 L 97.512 134.846 L 96.791 134.894 L 96.069 134.846 L 95.361 134.705 L 94.676 134.473 L 94.028 134.154 L 93.427 133.752 L 92.884 133.276 L 92.408 132.732 L 92.006 132.131 L 91.687 131.483 L 91.454 130.799 L 91.313 130.090 L 91.266 129.369 L 91.313 128.648 L 91.454 127.939 L 91.687 127.255 L 92.006 126.607 L 92.408 126.006 L 92.884 125.463 L 93.427 124.986 L 94.028 124.585 L 94.676 124.265 L 95.361 124.033 L 96.069 123.892 L 96.791 123.845 L 97.512 123.892 L 98.220 124.033 L 98.905 124.265 L 99.553 124.585 L 100.154 124.986 L 100.697 125.463 L 101.173 126.006 L 101.575 126.607 L 101.894 127.255 L 102.127 127.939 L 102.268 128.648 L 102.315 129.369 M 207.024 260.371 L 206.968 261.213 L 206.804 262.041 L 206.532 262.841 L 206.159 263.598 L 205.690 264.300 L 205.133 264.935 L 204.499 265.491 L 203.797 265.960 L 203.040 266.334 L 202.240 266.605 L 201.412 266.770 L 200.570 266.825 L 199.728 266.770 L 198.900 266.605 L 198.100 266.334 L 197.343 265.960 L 196.641 265.491 L 196.007 264.935 L 195.450 264.300 L 194.981 263.598 L 194.608 262.841 L 194.336 262.041 L 194.171 261.213 L 194.116 260.371 L 194.171 259.529 L 194.336 258.701 L 194.608 257.901 L 194.981 257.144 L 195.450 256.442 L 196.007 255.808 L 196.641 255.251 L 197.343 254.782 L 198.100 254.409 L 198.900 254.137 L 199.728 253.973 L 200.570 253.917 L 201.412 253.973 L 202.240 254.137 L 203.040 254.409 L 203.797 254.782 L 204.499 255.251 L 205.133 255.808 L 205.690 256.442 L 206.159 257.144 L 206.532 257.901 L 206.804 258.701 L 206.968 259.529 L 207.024 260.371 M 230.510 77.778 L 230.462 78.501 L 230.321 79.212 L 230.088 79.897 L 229.768 80.547 L 229.365 81.149 L 228.888 81.694 L 228.343 82.172 L 227.741 82.574 L 227.091 82.894 L 226.405 83.127 L 225.695 83.269 L 224.972 83.316 L 224.249 83.269 L 223.539 83.127 L 222.853 82.894 L 222.203 82.574 L 221.601 82.172 L 221.056 81.694 L 220.579 81.149 L 220.176 80.547 L 219.856 79.897 L 219.623 79.212 L 219.482 78.501 L 219.434 77.778 L 219.482 77.056 L 219.623 76.345 L 219.856 75.659 L 220.176 75.010 L 220.579 74.407 L 221.056 73.863 L 221.601 73.385 L 222.203 72.983 L 222.853 72.662 L 223.539 72.430 L 224.249 72.288 L 224.972 72.241 L 225.695 72.288 L 226.405 72.430 L 227.091 72.662 L 227.741 72.983 L 228.343 73.385 L 228.888 73.863 L 229.365 74.407 L 229.768 75.010 L 230.088 75.659 L 230.321 76.345 L 230.462 77.056 L 230.510 77.778 M 306.974 222.574 L 306.911 223.537 L 306.723 224.483 L 306.413 225.396 L 305.986 226.261 L 305.450 227.063 L 304.814 227.788 L 304.089 228.424 L 303.287 228.960 L 302.422 229.386 L 301.509 229.696 L 300.563 229.884 L 299.601 229.947 L 298.638 229.884 L 297.692 229.696 L 296.779 229.386 L 295.914 228.960 L 295.112 228.424 L 294.387 227.788 L 293.751 227.063 L 293.215 226.261 L 292.789 225.396 L 292.479 224.483 L 292.291 223.537 L 292.228 222.574 L 292.291 221.612 L 292.479 220.666 L 292.789 219.753 L 293.215 218.888 L 293.751 218.086 L 294.387 217.361 L 295.112 216.725 L 295.914 216.189 L 296.779 215.762 L 297.692 215.452 L 298.638 215.264 L 299.601 215.201 L 300.563 215.264 L 301.509 215.452 L 302.422 215.762 L 303.287 216.189 L 304.089 216.725 L 304.814 217.361 L 305.450 218.086 L 305.986 218.888 L 306.413 219.753 L 306.723 220.666 L 306.911 221.612 L 306.974 222.574 M 271.235 49.281 L 271.183 50.077 L 271.027 50.860 L 270.771 51.615 L 270.418 52.331 L 269.975 52.994 L 269.449 53.594 L 268.849 54.120 L 268.186 54.563 L 267.470 54.916 L 266.715 55.172 L 265.933 55.328 L 265.137 55.380 L 264.341 55.328 L 263.558 55.172 L 262.803 54.916 L 262.087 54.563 L 261.424 54.120 L 260.824 53.594 L 260.298 52.994 L 259.855 52.331 L 259.502 51.615 L 259.246 50.860 L 259.090 50.077 L 259.038 49.281 L 259.090 48.485 L 259.246 47.703 L 259.502 46.948 L 259.855 46.232 L 260.298 45.569 L 260.824 44.969 L 261.424 44.443 L 262.087 44.000 L 262.803 43.647 L 263.558 43.391 L 264.341 43.235 L 265.137 43.183 L 265.933 43.235 L 266.715 43.391 L 267.470 43.647 L 268.186 44.000 L 268.849 44.443 L 269.449 44.969 L 269.975 45.569 L 270.418 46.232 L 270.771 46.948 L 271.027 47.703 L 271.183 48.485 L 271.235 49.281 M 240.382 107.412 L 240.313 108.473 L 240.106 109.515 L 239.764 110.521 L 239.294 111.474 L 238.704 112.358 L 238.003 113.157 L 237.204 113.858 L 236.320 114.448 L 235.367 114.918 L 234.361 115.260 L 233.319 115.467 L 232.258 115.536 L 231.198 115.467 L 230.155 115.260 L 229.149 114.918 L 228.196 114.448 L 227.312 113.858 L 226.513 113.157 L 225.813 112.358 L 225.222 111.474 L 224.752 110.521 L 224.411 109.515 L 224.203 108.473 L 224.134 107.412 L 224.203 106.352 L 224.411 105.309 L 224.752 104.303 L 225.222 103.350 L 225.813 102.466 L 226.513 101.667 L 227.312 100.967 L 228.196 100.376 L 229.149 99.906 L 230.155 99.565 L 231.198 99.357 L 232.258 99.288 L 233.319 99.357 L 234.361 99.565 L 235.367 99.906 L 236.320 100.376 L 237.204 100.967 L 238.003 101.667 L 238.704 102.466 L 239.294 103.350 L 239.764 104.303 L 240.106 105.309 L 240.313 106.352 L 240.382 107.412 M 181.827 134.614 L 181.772 135.461 L 181.606 136.294 L 181.334 137.097 L 180.958 137.859 L 180.487 138.564 L 179.927 139.202 L 179.289 139.762 L 178.583 140.233 L 177.822 140.609 L 177.018 140.882 L 176.186 141.047 L 175.339 141.103 L 174.492 141.047 L 173.660 140.882 L 172.856 140.609 L 172.095 140.233 L 171.389 139.762 L 170.751 139.202 L 170.192 138.564 L 169.720 137.859 L 169.345 137.097 L 169.072 136.294 L 168.906 135.461 L 168.851 134.614 L 168.906 133.767 L 169.072 132.935 L 169.345 132.131 L 169.720 131.370 L 170.192 130.665 L 170.751 130.026 L 171.389 129.467 L 172.095 128.995 L 172.856 128.620 L 173.660 128.347 L 174.492 128.182 L 175.339 128.126 L 176.186 128.182 L 177.018 128.347 L 177.822 128.620 L 178.583 128.995 L 179.289 129.467 L 179.927 130.026 L 180.487 130.665 L 180.958 131.370 L 181.334 132.131 L 181.606 132.935 L 181.772 133.767 L 181.827 134.614 M 123.620 118.968 L 123.577 119.625 L 123.448 120.271 L 123.236 120.895 L 122.945 121.486 L 122.579 122.034 L 122.145 122.529 L 121.649 122.963 L 121.102 123.329 L 120.511 123.621 L 119.887 123.833 L 119.241 123.961 L 118.583 124.004 L 117.926 123.961 L 117.280 123.833 L 116.656 123.621 L 116.065 123.329 L 115.517 122.963 L 115.022 122.529 L 114.588 122.034 L 114.222 121.486 L 113.930 120.895 L 113.718 120.271 L 113.590 119.625 L 113.547 118.968 L 113.590 118.310 L 113.718 117.664 L 113.930 117.040 L 114.222 116.449 L 114.588 115.902 L 115.022 115.406 L 115.517 114.972 L 116.065 114.606 L 116.656 114.315 L 117.280 114.103 L 117.926 113.974 L 118.583 113.931 L 119.241 113.974 L 119.887 114.103 L 120.511 114.315 L 121.102 114.606 L 121.649 114.972 L 122.145 115.406 L 122.579 115.902 L 122.945 116.449 L 123.236 117.040 L 123.448 117.664 L 123.577 118.310 L 123.620 118.968 M 159.883 239.898 L 159.778 241.506 L 159.464 243.086 L 158.946 244.612 L 158.233 246.057 L 157.338 247.396 L 156.276 248.608 L 155.064 249.670 L 153.725 250.565 L 152.280 251.278 L 150.754 251.796 L 149.174 252.110 L 147.566 252.215 L 145.958 252.110 L 144.378 251.796 L 142.853 251.278 L 141.408 250.565 L 140.068 249.670 L 138.857 248.608 L 137.794 247.396 L 136.899 246.057 L 136.187 244.612 L 135.669 243.086 L 135.354 241.506 L 135.249 239.898 L 135.354 238.290 L 135.669 236.710 L 136.187 235.184 L 136.899 233.739 L 137.794 232.400 L 138.857 231.188 L 140.068 230.126 L 141.408 229.231 L 142.853 228.518 L 144.378 228.000 L 145.958 227.686 L 147.566 227.581 L 149.174 227.686 L 150.754 228.000 L 152.280 228.518 L 153.725 229.231 L 155.064 230.126 L 156.276 231.188 L 157.338 232.400 L 158.233 233.739 L 158.946 235.184 L 159.464 236.710 L 159.778 238.290 L 159.883 239.898 M 186.673 253.040 L 186.602 254.122 L 186.390 255.186 L 186.041 256.213 L 185.562 257.185 L 184.959 258.087 L 184.244 258.902 L 183.429 259.617 L 182.527 260.220 L 181.554 260.700 L 180.527 261.048 L 179.464 261.260 L 178.382 261.331 L 177.299 261.260 L 176.236 261.048 L 175.209 260.700 L 174.236 260.220 L 173.334 259.617 L 172.519 258.902 L 171.804 258.087 L 171.201 257.185 L 170.722 256.213 L 170.373 255.186 L 170.162 254.122 L 170.091 253.040 L 170.162 251.958 L 170.373 250.894 L 170.722 249.867 L 171.201 248.894 L 171.804 247.992 L 172.519 247.177 L 173.334 246.462 L 174.236 245.860 L 175.209 245.380 L 176.236 245.031 L 177.299 244.820 L 178.382 244.749 L 179.464 244.820 L 180.527 245.031 L 181.554 245.380 L 182.527 245.860 L 183.429 246.462 L 184.244 247.177 L 184.959 247.992 L 185.562 248.894 L 186.041 249.867 L 186.390 250.894 L 186.602 251.958 L 186.673 253.040 M 223.427 67.760 L 223.387 68.368 L 223.268 68.966 L 223.072 69.543 L 222.803 70.090 L 222.464 70.597 L 222.062 71.055 L 221.604 71.457 L 221.097 71.795 L 220.550 72.065 L 219.973 72.261 L 219.375 72.380 L 218.767 72.420 L 218.159 72.380 L 217.561 72.261 L 216.984 72.065 L 216.437 71.795 L 215.930 71.457 L 215.472 71.055 L 215.070 70.597 L 214.731 70.090 L 214.462 69.543 L 214.266 68.966 L 214.147 68.368 L 214.107 67.760 L 214.147 67.152 L 214.266 66.554 L 214.462 65.977 L 214.731 65.430 L 215.070 64.923 L 215.472 64.465 L 215.930 64.063 L 216.437 63.724 L 216.984 63.455 L 217.561 63.259 L 218.159 63.140 L 218.767 63.100 L 219.375 63.140 L 219.973 63.259 L 220.550 63.455 L 221.097 63.724 L 221.604 64.063 L 222.062 64.465 L 222.464 64.923 L 222.803 65.430 L 223.072 65.977 L 223.268 66.554 L 223.387 67.152 L 223.427 67.760 M 251.936 47.469 L 251.871 48.461 L 251.677 49.437 L 251.357 50.379 L 250.917 51.271 L 250.365 52.098 L 249.709 52.845 L 248.961 53.501 L 248.134 54.054 L 247.242 54.494 L 246.300 54.813 L 245.325 55.007 L 244.332 55.072 L 243.340 55.007 L 242.364 54.813 L 241.423 54.494 L 240.531 54.054 L 239.704 53.501 L 238.956 52.845 L 238.300 52.098 L 237.747 51.271 L 237.308 50.379 L 236.988 49.437 L 236.794 48.461 L 236.729 47.469 L 236.794 46.477 L 236.988 45.501 L 237.308 44.559 L 237.747 43.667 L 238.300 42.840 L 238.956 42.093 L 239.704 41.437 L 240.531 40.884 L 241.423 40.444 L 242.364 40.125 L 243.340 39.931 L 244.332 39.865 L 245.325 39.931 L 246.300 40.125 L 247.242 40.444 L 248.134 40.884 L 248.961 41.437 L 249.709 42.093 L 250.365 42.840 L 250.917 43.667 L 251.357 44.559 L 251.677 45.501 L 251.871 46.477 L 251.936 47.469 M 270.453 122.548 L 270.414 123.154 L 270.295 123.750 L 270.100 124.324 L 269.832 124.869 L 269.494 125.374 L 269.094 125.830 L 268.638 126.230 L 268.133 126.568 L 267.588 126.836 L 267.013 127.031 L 266.418 127.150 L 265.812 127.190 L 265.206 127.150 L 264.611 127.031 L 264.036 126.836 L 263.492 126.568 L 262.987 126.230 L 262.530 125.830 L 262.130 125.374 L 261.793 124.869 L 261.524 124.324 L 261.329 123.750 L 261.211 123.154 L 261.171 122.548 L 261.211 121.943 L 261.329 121.347 L 261.524 120.772 L 261.793 120.228 L 262.130 119.723 L 262.530 119.267 L 262.987 118.866 L 263.492 118.529 L 264.036 118.260 L 264.611 118.065 L 265.206 117.947 L 265.812 117.907 L 266.418 117.947 L 267.013 118.065 L 267.588 118.260 L 268.133 118.529 L 268.638 118.866 L 269.094 119.267 L 269.494 119.723 L 269.832 120.228 L 270.100 120.772 L 270.295 121.347 L 270.414 121.943 L 270.453 122.548 M 108.802 105.969 L 108.748 106.794 L 108.587 107.605 L 108.321 108.388 L 107.955 109.130 L 107.496 109.817 L 106.951 110.439 L 106.329 110.984 L 105.641 111.443 L 104.900 111.809 L 104.117 112.075 L 103.306 112.236 L 102.481 112.290 L 101.656 112.236 L 100.845 112.075 L 100.062 111.809 L 99.320 111.443 L 98.633 110.984 L 98.011 110.439 L 97.466 109.817 L 97.007 109.130 L 96.641 108.388 L 96.375 107.605 L 96.214 106.794 L 96.160 105.969 L 96.214 105.144 L 96.375 104.333 L 96.641 103.550 L 97.007 102.809 L 97.466 102.121 L 98.011 101.500 L 98.633 100.954 L 99.320 100.495 L 100.062 100.129 L 100.845 99.864 L 101.656 99.702 L 102.481 99.648 L 103.306 99.702 L 104.117 99.864 L 104.900 100.129 L 105.641 100.495 L 106.329 100.954 L 106.951 101.500 L 107.496 102.121 L 107.955 102.809 L 108.321 103.550 L 108.587 104.333 L 108.748 105.144 L 108.802 105.969 M 268.549 251.604 L 268.502 252.316 L 268.363 253.015 L 268.134 253.691 L 267.818 254.331 L 267.422 254.924 L 266.952 255.460 L 266.416 255.930 L 265.823 256.326 L 265.183 256.642 L 264.508 256.871 L 263.808 257.010 L 263.096 257.057 L 262.384 257.010 L 261.685 256.871 L 261.010 256.642 L 260.370 256.326 L 259.777 255.930 L 259.240 255.460 L 258.770 254.924 L 258.374 254.331 L 258.058 253.691 L 257.829 253.015 L 257.690 252.316 L 257.643 251.604 L 257.690 250.892 L 257.829 250.193 L 258.058 249.517 L 258.374 248.878 L 258.770 248.285 L 259.240 247.748 L 259.777 247.278 L 260.370 246.882 L 261.010 246.566 L 261.685 246.337 L 262.384 246.198 L 263.096 246.151 L 263.808 246.198 L 264.508 246.337 L 265.183 246.566 L 265.823 246.882 L 266.416 247.278 L 266.952 247.748 L 267.422 248.285 L 267.818 248.878 L 268.134 249.517 L 268.363 250.193 L 268.502 250.892 L 268.549 251.604 M 133.888 145.306 L 133.844 145.976 L 133.713 146.633 L 133.498 147.269 L 133.201 147.870 L 132.828 148.428 L 132.386 148.932 L 131.882 149.375 L 131.324 149.747 L 130.722 150.044 L 130.087 150.260 L 129.429 150.390 L 128.760 150.434 L 128.090 150.390 L 127.432 150.260 L 126.797 150.044 L 126.196 149.747 L 125.638 149.375 L 125.134 148.932 L 124.691 148.428 L 124.319 147.870 L 124.022 147.269 L 123.806 146.633 L 123.675 145.976 L 123.631 145.306 L 123.675 144.637 L 123.806 143.979 L 124.022 143.344 L 124.319 142.742 L 124.691 142.184 L 125.134 141.680 L 125.638 141.238 L 126.196 140.865 L 126.797 140.568 L 127.432 140.353 L 128.090 140.222 L 128.760 140.178 L 129.429 140.222 L 130.087 140.353 L 130.722 140.568 L 131.324 140.865 L 131.882 141.238 L 132.386 141.680 L 132.828 142.184 L 133.201 142.742 L 133.498 143.344 L 133.713 143.979 L 133.844 144.637 L 133.888 145.306 M 159.389 50.034 L 159.350 50.641 L 159.231 51.238 L 159.035 51.814 L 158.766 52.359 L 158.429 52.865 L 158.028 53.322 L 157.570 53.723 L 157.064 54.061 L 156.519 54.330 L 155.943 54.526 L 155.346 54.644 L 154.740 54.684 L 154.133 54.644 L 153.536 54.526 L 152.960 54.330 L 152.415 54.061 L 151.909 53.723 L 151.452 53.322 L 151.051 52.865 L 150.713 52.359 L 150.444 51.814 L 150.248 51.238 L 150.129 50.641 L 150.090 50.034 L 150.129 49.427 L 150.248 48.831 L 150.444 48.255 L 150.713 47.709 L 151.051 47.203 L 151.452 46.746 L 151.909 46.345 L 152.415 46.007 L 152.960 45.738 L 153.536 45.543 L 154.133 45.424 L 154.740 45.384 L 155.346 45.424 L 155.943 45.543 L 156.519 45.738 L 157.064 46.007 L 157.570 46.345 L 158.028 46.746 L 158.429 47.203 L 158.766 47.709 L 159.035 48.255 L 159.231 48.831 L 159.350 49.427 L 159.389 50.034 M 199.895 205.583 L 199.856 206.189 L 199.737 206.785 L 199.542 207.360 L 199.273 207.905 L 198.936 208.410 L 198.535 208.867 L 198.079 209.267 L 197.574 209.605 L 197.029 209.873 L 196.454 210.068 L 195.858 210.187 L 195.252 210.227 L 194.646 210.187 L 194.050 210.068 L 193.475 209.873 L 192.930 209.605 L 192.425 209.267 L 191.968 208.867 L 191.568 208.410 L 191.230 207.905 L 190.962 207.360 L 190.766 206.785 L 190.648 206.189 L 190.608 205.583 L 190.648 204.977 L 190.766 204.381 L 190.962 203.806 L 191.230 203.261 L 191.568 202.756 L 191.968 202.300 L 192.425 201.899 L 192.930 201.562 L 193.475 201.293 L 194.050 201.098 L 194.646 200.979 L 195.252 200.940 L 195.858 200.979 L 196.454 201.098 L 197.029 201.293 L 197.574 201.562 L 198.079 201.899 L 198.535 202.300 L 198.936 202.756 L 199.273 203.261 L 199.542 203.806 L 199.737 204.381 L 199.856 204.977 L 199.895 205.583 M 329.084 122.863 L 329.043 123.499 L 328.918 124.124 L 328.713 124.728 L 328.432 125.299 L 328.077 125.829 L 327.657 126.308 L 327.178 126.728 L 326.648 127.082 L 326.077 127.364 L 325.473 127.569 L 324.848 127.693 L 324.212 127.735 L 323.577 127.693 L 322.951 127.569 L 322.348 127.364 L 321.777 127.082 L 321.247 126.728 L 320.768 126.308 L 320.347 125.829 L 319.993 125.299 L 319.711 124.728 L 319.507 124.124 L 319.382 123.499 L 319.341 122.863 L 319.382 122.227 L 319.507 121.602 L 319.711 120.999 L 319.993 120.427 L 320.347 119.897 L 320.768 119.418 L 321.247 118.998 L 321.777 118.644 L 322.348 118.362 L 322.951 118.157 L 323.577 118.033 L 324.212 117.991 L 324.848 118.033 L 325.473 118.157 L 326.077 118.362 L 326.648 118.644 L 327.178 118.998 L 327.657 119.418 L 328.077 119.897 L 328.432 120.427 L 328.713 120.999 L 328.918 121.602 L 329.043 122.227 L 329.084 122.863 M 130.198 74.468 L 130.149 75.217 L 130.002 75.953 L 129.761 76.664 L 129.429 77.337 L 129.012 77.961 L 128.517 78.525 L 127.953 79.020 L 127.329 79.437 L 126.656 79.769 L 125.945 80.010 L 125.209 80.157 L 124.460 80.206 L 123.712 80.157 L 122.975 80.010 L 122.265 79.769 L 121.592 79.437 L 120.968 79.020 L 120.403 78.525 L 119.909 77.961 L 119.492 77.337 L 119.160 76.664 L 118.918 75.953 L 118.772 75.217 L 118.723 74.468 L 118.772 73.720 L 118.918 72.983 L 119.160 72.273 L 119.492 71.600 L 119.909 70.976 L 120.403 70.411 L 120.968 69.917 L 121.592 69.500 L 122.265 69.168 L 122.975 68.926 L 123.712 68.780 L 124.460 68.731 L 125.209 68.780 L 125.945 68.926 L 126.656 69.168 L 127.329 69.500 L 127.953 69.917 L 128.517 70.411 L 129.012 70.976 L 129.429 71.600 L 129.761 72.273 L 130.002 72.983 L 130.149 73.720 L 130.198 74.468 M 215.617 202.435 L 215.555 203.388 L 215.369 204.324 L 215.062 205.227 L 214.640 206.083 L 214.110 206.877 L 213.481 207.594 L 212.763 208.223 L 211.970 208.754 L 211.114 209.176 L 210.210 209.482 L 209.274 209.669 L 208.322 209.731 L 207.370 209.669 L 206.434 209.482 L 205.530 209.176 L 204.674 208.754 L 203.881 208.223 L 203.163 207.594 L 202.534 206.877 L 202.004 206.083 L 201.582 205.227 L 201.275 204.324 L 201.089 203.388 L 201.026 202.435 L 201.089 201.483 L 201.275 200.547 L 201.582 199.644 L 202.004 198.788 L 202.534 197.994 L 203.163 197.277 L 203.881 196.648 L 204.674 196.117 L 205.530 195.695 L 206.434 195.388 L 207.370 195.202 L 208.322 195.140 L 209.274 195.202 L 210.210 195.388 L 211.114 195.695 L 211.970 196.117 L 212.763 196.648 L 213.481 197.277 L 214.110 197.994 L 214.640 198.788 L 215.062 199.644 L 215.369 200.547 L 215.555 201.483 L 215.617 202.435 M 247.377 260.249 L 247.309 261.273 L 247.109 262.280 L 246.779 263.252 L 246.325 264.173 L 245.755 265.026 L 245.078 265.798 L 244.306 266.475 L 243.453 267.046 L 242.532 267.500 L 241.560 267.830 L 240.553 268.030 L 239.529 268.097 L 238.504 268.030 L 237.497 267.830 L 236.525 267.500 L 235.605 267.046 L 234.751 266.475 L 233.979 265.798 L 233.302 265.026 L 232.732 264.173 L 232.278 263.252 L 231.948 262.280 L 231.748 261.273 L 231.681 260.249 L 231.748 259.225 L 231.948 258.218 L 232.278 257.246 L 232.732 256.325 L 233.302 255.471 L 233.979 254.699 L 234.751 254.023 L 235.605 253.452 L 236.525 252.998 L 237.497 252.668 L 238.504 252.468 L 239.529 252.401 L 240.553 252.468 L 241.560 252.668 L 242.532 252.998 L 243.453 253.452 L 244.306 254.023 L 245.078 254.699 L 245.755 255.471 L 246.325 256.325 L 246.779 257.246 L 247.109 258.218 L 247.309 259.225 L 247.377 260.249 M 101.985 151.070 L 101.937 151.806 L 101.793 152.530 L 101.556 153.228 L 101.230 153.890 L 100.820 154.503 L 100.334 155.058 L 99.779 155.544 L 99.166 155.954 L 98.504 156.280 L 97.806 156.517 L 97.082 156.661 L 96.346 156.709 L 95.610 156.661 L 94.886 156.517 L 94.188 156.280 L 93.526 155.954 L 92.913 155.544 L 92.359 155.058 L 91.872 154.503 L 91.462 153.890 L 91.136 153.228 L 90.899 152.530 L 90.755 151.806 L 90.707 151.070 L 90.755 150.334 L 90.899 149.611 L 91.136 148.912 L 91.462 148.251 L 91.872 147.637 L 92.359 147.083 L 92.913 146.596 L 93.526 146.186 L 94.188 145.860 L 94.886 145.623 L 95.610 145.479 L 96.346 145.431 L 97.082 145.479 L 97.806 145.623 L 98.504 145.860 L 99.166 146.186 L 99.779 146.596 L 100.334 147.083 L 100.820 147.637 L 101.230 148.251 L 101.556 148.912 L 101.793 149.611 L 101.937 150.334 L 101.985 151.070 M 193.595 124.713 L 193.552 125.368 L 193.424 126.012 L 193.213 126.633 L 192.923 127.222 L 192.558 127.767 L 192.125 128.261 L 191.632 128.693 L 191.086 129.058 L 190.498 129.348 L 189.877 129.559 L 189.233 129.687 L 188.578 129.730 L 187.923 129.687 L 187.280 129.559 L 186.658 129.348 L 186.070 129.058 L 185.524 128.693 L 185.031 128.261 L 184.598 127.767 L 184.234 127.222 L 183.944 126.633 L 183.733 126.012 L 183.605 125.368 L 183.562 124.713 L 183.605 124.059 L 183.733 123.415 L 183.944 122.794 L 184.234 122.205 L 184.598 121.660 L 185.031 121.166 L 185.524 120.734 L 186.070 120.369 L 186.658 120.079 L 187.280 119.868 L 187.923 119.740 L 188.578 119.697 L 189.233 119.740 L 189.877 119.868 L 190.498 120.079 L 191.086 120.369 L 191.632 120.734 L 192.125 121.166 L 192.558 121.660 L 192.923 122.205 L 193.213 122.794 L 193.424 123.415 L 193.552 124.059 L 193.595 124.713 M 325.015 173.589 L 324.948 174.607 L 324.750 175.607 L 324.422 176.572 L 323.971 177.486 L 323.405 178.334 L 322.732 179.100 L 321.966 179.773 L 321.118 180.339 L 320.204 180.790 L 319.238 181.118 L 318.239 181.317 L 317.221 181.383 L 316.204 181.317 L 315.204 181.118 L 314.239 180.790 L 313.324 180.339 L 312.477 179.773 L 311.710 179.100 L 311.038 178.334 L 310.472 177.486 L 310.021 176.572 L 309.693 175.607 L 309.494 174.607 L 309.427 173.589 L 309.494 172.572 L 309.693 171.572 L 310.021 170.607 L 310.472 169.692 L 311.038 168.845 L 311.710 168.078 L 312.477 167.406 L 313.324 166.840 L 314.239 166.389 L 315.204 166.061 L 316.204 165.862 L 317.221 165.796 L 318.239 165.862 L 319.238 166.061 L 320.204 166.389 L 321.118 166.840 L 321.966 167.406 L 322.732 168.078 L 323.405 168.845 L 323.971 169.692 L 324.422 170.607 L 324.750 171.572 L 324.948 172.572 L 325.015 173.589 M 300.398 177.422 L 300.341 178.286 L 300.172 179.136 L 299.893 179.957 L 299.510 180.734 L 299.029 181.454 L 298.458 182.105 L 297.806 182.677 L 297.086 183.158 L 296.309 183.541 L 295.489 183.820 L 294.639 183.989 L 293.774 184.045 L 292.910 183.989 L 292.060 183.820 L 291.240 183.541 L 290.463 183.158 L 289.742 182.677 L 289.091 182.105 L 288.520 181.454 L 288.038 180.734 L 287.655 179.957 L 287.377 179.136 L 287.208 178.286 L 287.151 177.422 L 287.208 176.557 L 287.377 175.708 L 287.655 174.887 L 288.038 174.110 L 288.520 173.390 L 289.091 172.739 L 289.742 172.167 L 290.463 171.686 L 291.240 171.303 L 292.060 171.024 L 292.910 170.855 L 293.774 170.799 L 294.639 170.855 L 295.489 171.024 L 296.309 171.303 L 297.086 171.686 L 297.806 172.167 L 298.458 172.739 L 299.029 173.390 L 299.510 174.110 L 299.893 174.887 L 300.172 175.708 L 300.341 176.557 L 300.398 177.422 M 156.691 217.361 L 156.642 218.111 L 156.495 218.848 L 156.254 219.559 L 155.921 220.233 L 155.504 220.858 L 155.008 221.423 L 154.443 221.919 L 153.818 222.336 L 153.144 222.669 L 152.433 222.910 L 151.696 223.057 L 150.946 223.106 L 150.196 223.057 L 149.459 222.910 L 148.747 222.669 L 148.073 222.336 L 147.448 221.919 L 146.883 221.423 L 146.388 220.858 L 145.970 220.233 L 145.638 219.559 L 145.396 218.848 L 145.249 218.111 L 145.200 217.361 L 145.249 216.611 L 145.396 215.874 L 145.638 215.162 L 145.970 214.488 L 146.388 213.863 L 146.883 213.298 L 147.448 212.802 L 148.073 212.385 L 148.747 212.053 L 149.459 211.811 L 150.196 211.664 L 150.946 211.615 L 151.696 211.664 L 152.433 211.811 L 153.144 212.053 L 153.818 212.385 L 154.443 212.802 L 155.008 213.298 L 155.504 213.863 L 155.921 214.488 L 156.254 215.162 L 156.495 215.874 L 156.642 216.611 L 156.691 217.361 M 268.073 162.559 L 268.032 163.194 L 267.907 163.818 L 267.703 164.420 L 267.421 164.991 L 267.068 165.520 L 266.648 165.998 L 266.170 166.418 L 265.641 166.772 L 265.070 167.053 L 264.468 167.258 L 263.844 167.382 L 263.209 167.423 L 262.574 167.382 L 261.950 167.258 L 261.347 167.053 L 260.776 166.772 L 260.247 166.418 L 259.769 165.998 L 259.349 165.520 L 258.996 164.991 L 258.714 164.420 L 258.510 163.818 L 258.386 163.194 L 258.344 162.559 L 258.386 161.924 L 258.510 161.300 L 258.714 160.697 L 258.996 160.127 L 259.349 159.597 L 259.769 159.119 L 260.247 158.699 L 260.776 158.346 L 261.347 158.065 L 261.950 157.860 L 262.574 157.736 L 263.209 157.694 L 263.844 157.736 L 264.468 157.860 L 265.070 158.065 L 265.641 158.346 L 266.170 158.699 L 266.648 159.119 L 267.068 159.597 L 267.421 160.127 L 267.703 160.697 L 267.907 161.300 L 268.032 161.924 L 268.073 162.559 M 269.442 206.337 L 269.391 207.125 L 269.237 207.900 L 268.983 208.647 L 268.633 209.356 L 268.194 210.013 L 267.674 210.606 L 267.080 211.127 L 266.423 211.566 L 265.715 211.915 L 264.967 212.169 L 264.192 212.323 L 263.404 212.375 L 262.616 212.323 L 261.841 212.169 L 261.093 211.915 L 260.385 211.566 L 259.728 211.127 L 259.134 210.606 L 258.613 210.013 L 258.175 209.356 L 257.825 208.647 L 257.571 207.900 L 257.417 207.125 L 257.366 206.337 L 257.417 205.549 L 257.571 204.774 L 257.825 204.026 L 258.175 203.318 L 258.613 202.661 L 259.134 202.067 L 259.728 201.546 L 260.385 201.107 L 261.093 200.758 L 261.841 200.504 L 262.616 200.350 L 263.404 200.298 L 264.192 200.350 L 264.967 200.504 L 265.715 200.758 L 266.423 201.107 L 267.080 201.546 L 267.674 202.067 L 268.194 202.661 L 268.633 203.318 L 268.983 204.026 L 269.237 204.774 L 269.391 205.549 L 269.442 206.337 M 257.140 166.140 L 257.080 167.053 L 256.901 167.951 L 256.607 168.818 L 256.202 169.639 L 255.694 170.401 L 255.090 171.089 L 254.402 171.693 L 253.640 172.201 L 252.819 172.606 L 251.952 172.900 L 251.054 173.079 L 250.141 173.139 L 249.227 173.079 L 248.329 172.900 L 247.462 172.606 L 246.641 172.201 L 245.880 171.693 L 245.191 171.089 L 244.588 170.401 L 244.079 169.639 L 243.674 168.818 L 243.380 167.951 L 243.201 167.053 L 243.141 166.140 L 243.201 165.226 L 243.380 164.328 L 243.674 163.461 L 244.079 162.640 L 244.588 161.879 L 245.191 161.190 L 245.880 160.587 L 246.641 160.078 L 247.462 159.673 L 248.329 159.379 L 249.227 159.200 L 250.141 159.140 L 251.054 159.200 L 251.952 159.379 L 252.819 159.673 L 253.640 160.078 L 254.402 160.587 L 255.090 161.190 L 255.694 161.879 L 256.202 162.640 L 256.607 163.461 L 256.901 164.328 L 257.080 165.226 L 257.140 166.140 M 250.408 248.472 L 250.369 249.076 L 250.251 249.669 L 250.056 250.243 L 249.788 250.785 L 249.452 251.289 L 249.053 251.744 L 248.598 252.143 L 248.095 252.479 L 247.552 252.747 L 246.979 252.941 L 246.385 253.059 L 245.781 253.099 L 245.177 253.059 L 244.584 252.941 L 244.011 252.747 L 243.468 252.479 L 242.964 252.143 L 242.509 251.744 L 242.110 251.289 L 241.774 250.785 L 241.506 250.243 L 241.312 249.669 L 241.194 249.076 L 241.154 248.472 L 241.194 247.868 L 241.312 247.274 L 241.506 246.701 L 241.774 246.158 L 242.110 245.655 L 242.509 245.200 L 242.964 244.801 L 243.468 244.465 L 244.011 244.197 L 244.584 244.002 L 245.177 243.884 L 245.781 243.845 L 246.385 243.884 L 246.979 244.002 L 247.552 244.197 L 248.095 244.465 L 248.598 244.801 L 249.053 245.200 L 249.452 245.655 L 249.788 246.158 L 250.056 246.701 L 250.251 247.274 L 250.369 247.868 L 250.408 248.472 M 282.228 194.112 L 282.187 194.730 L 282.066 195.338 L 281.867 195.925 L 281.593 196.480 L 281.249 196.996 L 280.840 197.462 L 280.374 197.870 L 279.859 198.215 L 279.303 198.489 L 278.716 198.688 L 278.109 198.809 L 277.490 198.849 L 276.872 198.809 L 276.264 198.688 L 275.677 198.489 L 275.121 198.215 L 274.606 197.870 L 274.140 197.462 L 273.732 196.996 L 273.387 196.480 L 273.113 195.925 L 272.914 195.338 L 272.793 194.730 L 272.753 194.112 L 272.793 193.493 L 272.914 192.886 L 273.113 192.299 L 273.387 191.743 L 273.732 191.228 L 274.140 190.762 L 274.606 190.353 L 275.121 190.009 L 275.677 189.735 L 276.264 189.536 L 276.872 189.415 L 277.490 189.374 L 278.109 189.415 L 278.716 189.536 L 279.303 189.735 L 279.859 190.009 L 280.374 190.353 L 280.840 190.762 L 281.249 191.228 L 281.593 191.743 L 281.867 192.299 L 282.066 192.886 L 282.187 193.493 L 282.228 194.112 M 174.041 72.520 L 173.998 73.173 L 173.871 73.814 L 173.661 74.433 L 173.372 75.019 L 173.009 75.562 L 172.578 76.054 L 172.086 76.485 L 171.543 76.848 L 170.956 77.137 L 170.338 77.347 L 169.696 77.475 L 169.044 77.517 L 168.392 77.475 L 167.751 77.347 L 167.132 77.137 L 166.546 76.848 L 166.002 76.485 L 165.511 76.054 L 165.080 75.562 L 164.717 75.019 L 164.428 74.433 L 164.218 73.814 L 164.090 73.173 L 164.047 72.520 L 164.090 71.868 L 164.218 71.227 L 164.428 70.608 L 164.717 70.022 L 165.080 69.478 L 165.511 68.987 L 166.002 68.556 L 166.546 68.193 L 167.132 67.904 L 167.751 67.694 L 168.392 67.566 L 169.044 67.523 L 169.696 67.566 L 170.338 67.694 L 170.956 67.904 L 171.543 68.193 L 172.086 68.556 L 172.578 68.987 L 173.009 69.478 L 173.372 70.022 L 173.661 70.608 L 173.871 71.227 L 173.998 71.868 L 174.041 72.520 M 148.541 51.891 L 148.491 52.652 L 148.342 53.401 L 148.097 54.124 L 147.759 54.809 L 147.335 55.443 L 146.832 56.017 L 146.258 56.521 L 145.623 56.945 L 144.938 57.283 L 144.215 57.528 L 143.467 57.677 L 142.705 57.727 L 141.943 57.677 L 141.194 57.528 L 140.471 57.283 L 139.787 56.945 L 139.152 56.521 L 138.578 56.017 L 138.075 55.443 L 137.650 54.809 L 137.313 54.124 L 137.067 53.401 L 136.918 52.652 L 136.869 51.891 L 136.918 51.129 L 137.067 50.380 L 137.313 49.657 L 137.650 48.972 L 138.075 48.338 L 138.578 47.764 L 139.152 47.260 L 139.787 46.836 L 140.471 46.499 L 141.194 46.253 L 141.943 46.104 L 142.705 46.054 L 143.467 46.104 L 144.215 46.253 L 144.938 46.499 L 145.623 46.836 L 146.258 47.260 L 146.832 47.764 L 147.335 48.338 L 147.759 48.972 L 148.097 49.657 L 148.342 50.380 L 148.491 51.129 L 148.541 51.891 M 127.696 98.474 L 127.635 99.406 L 127.453 100.322 L 127.153 101.206 L 126.740 102.044 L 126.221 102.820 L 125.605 103.522 L 124.903 104.138 L 124.127 104.657 L 123.289 105.070 L 122.405 105.370 L 121.489 105.552 L 120.557 105.613 L 119.625 105.552 L 118.710 105.370 L 117.825 105.070 L 116.988 104.657 L 116.211 104.138 L 115.509 103.522 L 114.893 102.820 L 114.375 102.044 L 113.962 101.206 L 113.661 100.322 L 113.479 99.406 L 113.418 98.474 L 113.479 97.543 L 113.661 96.627 L 113.962 95.742 L 114.375 94.905 L 114.893 94.128 L 115.509 93.426 L 116.211 92.811 L 116.988 92.292 L 117.825 91.879 L 118.710 91.579 L 119.625 91.396 L 120.557 91.335 L 121.489 91.396 L 122.405 91.579 L 123.289 91.879 L 124.127 92.292 L 124.903 92.811 L 125.605 93.426 L 126.221 94.128 L 126.740 94.905 L 127.153 95.742 L 127.453 96.627 L 127.635 97.543 L 127.696 98.474 M 281.086 246.385 L 281.043 247.048 L 280.913 247.700 L 280.700 248.329 L 280.405 248.926 L 280.036 249.478 L 279.598 249.978 L 279.098 250.417 L 278.545 250.786 L 277.949 251.080 L 277.320 251.294 L 276.668 251.423 L 276.004 251.467 L 275.341 251.423 L 274.689 251.294 L 274.059 251.080 L 273.463 250.786 L 272.910 250.417 L 272.410 249.978 L 271.972 249.478 L 271.603 248.926 L 271.309 248.329 L 271.095 247.700 L 270.965 247.048 L 270.922 246.385 L 270.965 245.721 L 271.095 245.069 L 271.309 244.440 L 271.603 243.843 L 271.972 243.291 L 272.410 242.791 L 272.910 242.353 L 273.463 241.983 L 274.059 241.689 L 274.689 241.476 L 275.341 241.346 L 276.004 241.302 L 276.668 241.346 L 277.320 241.476 L 277.949 241.689 L 278.545 241.983 L 279.098 242.353 L 279.598 242.791 L 280.036 243.291 L 280.405 243.843 L 280.700 244.440 L 280.913 245.069 L 281.043 245.721 L 281.086 246.385 M 113.266 116.347 L 113.226 116.958 L 113.106 117.560 L 112.909 118.140 L 112.638 118.690 L 112.297 119.199 L 111.893 119.660 L 111.432 120.064 L 110.923 120.405 L 110.373 120.676 L 109.793 120.873 L 109.191 120.993 L 108.580 121.033 L 107.968 120.993 L 107.367 120.873 L 106.786 120.676 L 106.237 120.405 L 105.727 120.064 L 105.266 119.660 L 104.862 119.199 L 104.521 118.690 L 104.250 118.140 L 104.053 117.560 L 103.934 116.958 L 103.894 116.347 L 103.934 115.735 L 104.053 115.134 L 104.250 114.553 L 104.521 114.004 L 104.862 113.494 L 105.266 113.033 L 105.727 112.629 L 106.237 112.288 L 106.786 112.017 L 107.367 111.820 L 107.968 111.701 L 108.580 111.661 L 109.191 111.701 L 109.793 111.820 L 110.373 112.017 L 110.923 112.288 L 111.432 112.629 L 111.893 113.033 L 112.297 113.494 L 112.638 114.004 L 112.909 114.553 L 113.106 115.134 L 113.226 115.735 L 113.266 116.347 M 150.962 104.943 L 150.911 105.720 L 150.759 106.484 L 150.509 107.221 L 150.165 107.920 L 149.732 108.567 L 149.218 109.153 L 148.633 109.666 L 147.985 110.099 L 147.287 110.444 L 146.549 110.694 L 145.785 110.846 L 145.008 110.897 L 144.231 110.846 L 143.467 110.694 L 142.730 110.444 L 142.031 110.099 L 141.384 109.666 L 140.798 109.153 L 140.285 108.567 L 139.852 107.920 L 139.507 107.221 L 139.257 106.484 L 139.105 105.720 L 139.054 104.943 L 139.105 104.166 L 139.257 103.402 L 139.507 102.664 L 139.852 101.966 L 140.285 101.318 L 140.798 100.733 L 141.384 100.219 L 142.031 99.786 L 142.730 99.442 L 143.467 99.192 L 144.231 99.040 L 145.008 98.989 L 145.785 99.040 L 146.549 99.192 L 147.287 99.442 L 147.985 99.786 L 148.633 100.219 L 149.218 100.733 L 149.732 101.318 L 150.165 101.966 L 150.509 102.664 L 150.759 103.402 L 150.911 104.166 L 150.962 104.943 M 212.962 240.337 L 212.911 241.116 L 212.759 241.881 L 212.508 242.620 L 212.163 243.320 L 211.729 243.969 L 211.215 244.556 L 210.628 245.070 L 209.979 245.504 L 209.279 245.849 L 208.541 246.100 L 207.775 246.252 L 206.996 246.303 L 206.218 246.252 L 205.452 246.100 L 204.714 245.849 L 204.014 245.504 L 203.365 245.070 L 202.778 244.556 L 202.264 243.969 L 201.830 243.320 L 201.485 242.620 L 201.234 241.881 L 201.082 241.116 L 201.031 240.337 L 201.082 239.559 L 201.234 238.793 L 201.485 238.054 L 201.830 237.355 L 202.264 236.706 L 202.778 236.119 L 203.365 235.605 L 204.014 235.171 L 204.714 234.826 L 205.452 234.575 L 206.218 234.423 L 206.996 234.372 L 207.775 234.423 L 208.541 234.575 L 209.279 234.826 L 209.979 235.171 L 210.628 235.605 L 211.215 236.119 L 211.729 236.706 L 212.163 237.355 L 212.508 238.054 L 212.759 238.793 L 212.911 239.559 L 212.962 240.337 M 146.463 154.586 L 146.423 155.198 L 146.303 155.800 L 146.106 156.381 L 145.834 156.931 L 145.494 157.441 L 145.089 157.902 L 144.628 158.307 L 144.118 158.648 L 143.568 158.919 L 142.987 159.116 L 142.385 159.236 L 141.773 159.276 L 141.161 159.236 L 140.559 159.116 L 139.978 158.919 L 139.428 158.648 L 138.918 158.307 L 138.457 157.902 L 138.052 157.441 L 137.711 156.931 L 137.440 156.381 L 137.243 155.800 L 137.123 155.198 L 137.083 154.586 L 137.123 153.974 L 137.243 153.372 L 137.440 152.792 L 137.711 152.241 L 138.052 151.731 L 138.457 151.270 L 138.918 150.866 L 139.428 150.525 L 139.978 150.253 L 140.559 150.056 L 141.161 149.937 L 141.773 149.896 L 142.385 149.937 L 142.987 150.056 L 143.568 150.253 L 144.118 150.525 L 144.628 150.866 L 145.089 151.270 L 145.494 151.731 L 145.834 152.241 L 146.106 152.792 L 146.303 153.372 L 146.423 153.974 L 146.463 154.586 M 178.363 191.864 L 178.321 192.501 L 178.196 193.127 L 177.991 193.732 L 177.709 194.304 L 177.354 194.835 L 176.933 195.315 L 176.453 195.736 L 175.922 196.091 L 175.350 196.373 L 174.745 196.579 L 174.119 196.703 L 173.482 196.745 L 172.845 196.703 L 172.218 196.579 L 171.614 196.373 L 171.041 196.091 L 170.510 195.736 L 170.030 195.315 L 169.609 194.835 L 169.255 194.304 L 168.972 193.732 L 168.767 193.127 L 168.642 192.501 L 168.601 191.864 L 168.642 191.227 L 168.767 190.601 L 168.972 189.996 L 169.255 189.423 L 169.609 188.892 L 170.030 188.412 L 170.510 187.991 L 171.041 187.637 L 171.614 187.354 L 172.218 187.149 L 172.845 187.025 L 173.482 186.983 L 174.119 187.025 L 174.745 187.149 L 175.350 187.354 L 175.922 187.637 L 176.453 187.991 L 176.933 188.412 L 177.354 188.892 L 177.709 189.423 L 177.991 189.996 L 178.196 190.601 L 178.321 191.227 L 178.363 191.864 M 220.784 30.951 L 220.741 31.609 L 220.613 32.255 L 220.401 32.878 L 220.110 33.469 L 219.744 34.016 L 219.309 34.512 L 218.814 34.946 L 218.267 35.312 L 217.676 35.603 L 217.052 35.815 L 216.406 35.943 L 215.749 35.986 L 215.092 35.943 L 214.446 35.815 L 213.822 35.603 L 213.232 35.312 L 212.684 34.946 L 212.189 34.512 L 211.755 34.016 L 211.389 33.469 L 211.098 32.878 L 210.886 32.255 L 210.757 31.609 L 210.714 30.951 L 210.757 30.294 L 210.886 29.648 L 211.098 29.025 L 211.389 28.434 L 211.755 27.886 L 212.189 27.391 L 212.684 26.957 L 213.232 26.591 L 213.822 26.300 L 214.446 26.088 L 215.092 25.960 L 215.749 25.916 L 216.406 25.960 L 217.052 26.088 L 217.676 26.300 L 218.267 26.591 L 218.814 26.957 L 219.309 27.391 L 219.744 27.886 L 220.110 28.434 L 220.401 29.025 L 220.613 29.648 L 220.741 30.294 L 220.784 30.951 M 209.577 221.629 L 209.519 222.522 L 209.344 223.399 L 209.057 224.246 L 208.661 225.048 L 208.165 225.791 L 207.575 226.463 L 206.903 227.053 L 206.159 227.550 L 205.357 227.945 L 204.510 228.233 L 203.633 228.407 L 202.741 228.466 L 201.849 228.407 L 200.972 228.233 L 200.125 227.945 L 199.323 227.550 L 198.580 227.053 L 197.907 226.463 L 197.318 225.791 L 196.821 225.048 L 196.425 224.246 L 196.138 223.399 L 195.963 222.522 L 195.905 221.629 L 195.963 220.737 L 196.138 219.860 L 196.425 219.013 L 196.821 218.211 L 197.318 217.468 L 197.907 216.796 L 198.580 216.206 L 199.323 215.709 L 200.125 215.314 L 200.972 215.026 L 201.849 214.852 L 202.741 214.793 L 203.633 214.852 L 204.510 215.026 L 205.357 215.314 L 206.159 215.709 L 206.903 216.206 L 207.575 216.796 L 208.165 217.468 L 208.661 218.211 L 209.057 219.013 L 209.344 219.860 L 209.519 220.737 L 209.577 221.629" fill="none" stroke="#2dd4bf" stroke-width="1" vector-effect="non-scaling-stroke"/></svg>