<svg xmlns="http://www.w3.org/2000/svg" viewBox="81.78336010026727 20.620739394718278 255.84221210534338 257.3659230223851" width="255.84221210534338" height="257.3659230223851" shape-rendering="geometricPrecision"><rect x="81.78336010026727" y="20.620739394718278" width="255.84221210534338" height="257.3659230223851" fill="#0b0f14"/><path d="M 312.490 208.664 L 312.305 211.481 L 311.754 214.249 L 310.847 216.922 L 309.599 219.453 L 308.031 221.800 L 306.170 223.922 L 304.048 225.783 L 301.701 227.351 L 299.169 228.600 L 296.497 229.507 L 293.728 230.057 L 290.912 230.242 L 288.095 230.057 L 285.327 229.507 L 282.654 228.600 L 280.123 227.351 L 277.776 225.783 L 275.654 223.922 L 273.793 221.800 L 272.225 219.453 L 270.977 216.922 L 270.069 214.249 L 269.519 211.481 L 269.334 208.664 L 269.519 205.848 L 270.069 203.080 L 270.977 200.407 L 272.225 197.875 L 273.793 195.529 L 275.654 193.407 L 277.776 191.546 L 280.123 189.977 L 282.654 188.729 L 285.327 187.822 L 288.095 187.271 L 290.912 187.087 L 293.728 187.271 L 296.497 187.822 L 299.169 188.729 L 301.701 189.977 L 304.048 191.546 L 306.170 193.407 L 308.031 195.529 L 309.599 197.875 L 310.847 200.407 L 311.754 203.080 L 312.305 205.848 L 312.490 208.664 M 178.673 64.581 L 178.599 65.710 L 178.378 66.819 L 178.015 67.890 L 177.514 68.905 L 176.886 69.845 L 176.140 70.695 L 175.290 71.441 L 174.350 72.069 L 173.335 72.570 L 172.264 72.933 L 171.155 73.154 L 170.026 73.228 L 168.898 73.154 L 167.788 72.933 L 166.717 72.570 L 165.703 72.069 L 164.762 71.441 L 163.912 70.695 L 163.166 69.845 L 162.538 68.905 L 162.038 67.890 L 161.674 66.819 L 161.453 65.710 L 161.380 64.581 L 161.453 63.453 L 161.674 62.343 L 162.038 61.272 L 162.538 60.258 L 163.166 59.317 L 163.912 58.467 L 164.762 57.721 L 165.703 57.093 L 166.717 56.593 L 167.788 56.229 L 168.898 56.008 L 170.026 55.935 L 171.155 56.008 L 172.264 56.229 L 173.335 56.593 L 174.350 57.093 L 175.290 57.721 L 176.140 58.467 L 176.886 59.317 L 177.514 60.258 L 178.015 61.272 L 178.378 62.343 L 178.599 63.453 L 178.673 64.581 M 234.935 195.585 L 234.768 198.126 L 234.271 200.624 L 233.453 203.035 L 232.327 205.319 L 230.912 207.436 L 229.233 209.351 L 227.318 211.030 L 225.201 212.445 L 222.917 213.571 L 220.506 214.389 L 218.008 214.886 L 215.467 215.053 L 212.926 214.886 L 210.429 214.389 L 208.017 213.571 L 205.733 212.445 L 203.616 211.030 L 201.702 209.351 L 200.023 207.436 L 198.608 205.319 L 197.482 203.035 L 196.663 200.624 L 196.166 198.126 L 196.000 195.585 L 196.166 193.044 L 196.663 190.547 L 197.482 188.135 L 198.608 185.851 L 200.023 183.734 L 201.702 181.819 L 203.616 180.140 L 205.733 178.726 L 208.017 177.599 L 210.429 176.781 L 212.926 176.284 L 215.467 176.118 L 218.008 176.284 L 220.506 176.781 L 222.917 177.599 L 225.201 178.726 L 227.318 180.140 L 229.233 181.819 L 230.912 183.734 L 232.327 185.851 L 233.453 188.135 L 234.271 190.547 L 234.768 193.044 L 234.935 195.585 M 183.122 232.699 L 183.014 234.342 L 182.693 235.957 L 182.164 237.516 L 181.436 238.993 L 180.521 240.362 L 179.435 241.600 L 178.197 242.686 L 176.828 243.601 L 175.351 244.329 L 173.791 244.859 L 172.176 245.180 L 170.533 245.288 L 168.890 245.180 L 167.275 244.859 L 165.716 244.329 L 164.239 243.601 L 162.869 242.686 L 161.631 241.600 L 160.546 240.362 L 159.631 238.993 L 158.902 237.516 L 158.373 235.957 L 158.052 234.342 L 157.944 232.699 L 158.052 231.055 L 158.373 229.440 L 158.902 227.881 L 159.631 226.404 L 160.546 225.035 L 161.631 223.797 L 162.869 222.711 L 164.239 221.796 L 165.716 221.068 L 167.275 220.538 L 168.890 220.217 L 170.533 220.110 L 172.176 220.217 L 173.791 220.538 L 175.351 221.068 L 176.828 221.796 L 178.197 222.711 L 179.435 223.797 L 180.521 225.035 L 181.436 226.404 L 182.164 227.881 L 182.693 229.440 L 183.014 231.055 L 183.122 232.699 M 324.786 123.596 L 324.699 124.923 L 324.440 126.227 L 324.013 127.486 L 323.425 128.679 L 322.686 129.784 L 321.809 130.784 L 320.810 131.660 L 319.704 132.399 L 318.512 132.987 L 317.253 133.414 L 315.949 133.674 L 314.622 133.761 L 313.295 133.674 L 311.991 133.414 L 310.732 132.987 L 309.540 132.399 L 308.434 131.660 L 307.435 130.784 L 306.558 129.784 L 305.820 128.679 L 305.231 127.486 L 304.804 126.227 L 304.545 124.923 L 304.458 123.596 L 304.545 122.270 L 304.804 120.966 L 305.231 119.707 L 305.820 118.514 L 306.558 117.409 L 307.435 116.409 L 308.434 115.533 L 309.540 114.794 L 310.732 114.206 L 311.991 113.779 L 313.295 113.519 L 314.622 113.432 L 315.949 113.519 L 317.253 113.779 L 318.512 114.206 L 319.704 114.794 L 320.810 115.533 L 321.809 116.409 L 322.686 117.409 L 323.425 118.514 L 324.013 119.707 L 324.440 120.966 L 324.699 122.270 L 324.786 123.596 M 162.786 124.470 L 162.672 126.203 L 162.333 127.907 L 161.775 129.551 L 161.007 131.108 L 160.042 132.552 L 158.897 133.858 L 157.591 135.003 L 156.148 135.968 L 154.590 136.736 L 152.946 137.294 L 151.242 137.633 L 149.510 137.746 L 147.777 137.633 L 146.074 137.294 L 144.429 136.736 L 142.872 135.968 L 141.428 135.003 L 140.122 133.858 L 138.977 132.552 L 138.012 131.108 L 137.244 129.551 L 136.686 127.907 L 136.347 126.203 L 136.234 124.470 L 136.347 122.738 L 136.686 121.034 L 137.244 119.390 L 138.012 117.833 L 138.977 116.389 L 140.122 115.083 L 141.428 113.938 L 142.872 112.973 L 144.429 112.205 L 146.074 111.647 L 147.777 111.308 L 149.510 111.195 L 151.242 111.308 L 152.946 111.647 L 154.590 112.205 L 156.148 112.973 L 157.591 113.938 L 158.897 115.083 L 160.042 116.389 L 161.007 117.833 L 161.775 119.390 L 162.333 121.034 L 162.672 122.738 L 162.786 124.470 M 227.583 140.769 L 227.464 142.589 L 227.109 144.377 L 226.522 146.104 L 225.716 147.739 L 224.703 149.255 L 223.501 150.626 L 222.130 151.828 L 220.614 152.841 L 218.979 153.647 L 217.252 154.233 L 215.464 154.589 L 213.644 154.708 L 211.825 154.589 L 210.037 154.233 L 208.310 153.647 L 206.675 152.841 L 205.159 151.828 L 203.788 150.626 L 202.586 149.255 L 201.573 147.739 L 200.767 146.104 L 200.180 144.377 L 199.825 142.589 L 199.706 140.769 L 199.825 138.950 L 200.180 137.162 L 200.767 135.435 L 201.573 133.800 L 202.586 132.284 L 203.788 130.913 L 205.159 129.711 L 206.675 128.698 L 208.310 127.891 L 210.037 127.305 L 211.825 126.950 L 213.644 126.830 L 215.464 126.950 L 217.252 127.305 L 218.979 127.891 L 220.614 128.698 L 222.130 129.711 L 223.501 130.913 L 224.703 132.284 L 225.716 133.800 L 226.522 135.435 L 227.109 137.162 L 227.464 138.950 L 227.583 140.769 M 133.599 109.820 L 133.520 111.017 L 133.286 112.193 L 132.901 113.328 L 132.370 114.404 L 131.704 115.401 L 130.913 116.303 L 130.012 117.093 L 129.015 117.760 L 127.939 118.290 L 126.804 118.676 L 125.627 118.909 L 124.431 118.988 L 123.234 118.909 L 122.058 118.676 L 120.922 118.290 L 119.847 117.760 L 118.850 117.093 L 117.948 116.303 L 117.157 115.401 L 116.491 114.404 L 115.961 113.328 L 115.575 112.193 L 115.341 111.017 L 115.263 109.820 L 115.341 108.623 L 115.575 107.447 L 115.961 106.312 L 116.491 105.236 L 117.157 104.239 L 117.948 103.337 L 118.850 102.547 L 119.847 101.880 L 120.922 101.350 L 122.058 100.965 L 123.234 100.731 L 124.431 100.652 L 125.627 100.731 L 126.804 100.965 L 127.939 101.350 L 129.015 101.880 L 130.012 102.547 L 130.913 103.337 L 131.704 104.239 L 132.370 105.236 L 132.901 106.312 L 133.286 107.447 L 133.520 108.623 L 133.599 109.820 M 277.719 152.671 L 277.659 153.578 L 277.482 154.470 L 277.190 155.331 L 276.787 156.147 L 276.282 156.903 L 275.683 157.587 L 274.999 158.186 L 274.243 158.692 L 273.427 159.094 L 272.566 159.386 L 271.674 159.564 L 270.767 159.623 L 269.859 159.564 L 268.967 159.386 L 268.106 159.094 L 267.291 158.692 L 266.535 158.186 L 265.851 157.587 L 265.251 156.903 L 264.746 156.147 L 264.344 155.331 L 264.052 154.470 L 263.874 153.578 L 263.815 152.671 L 263.874 151.764 L 264.052 150.872 L 264.344 150.010 L 264.746 149.195 L 265.251 148.439 L 265.851 147.755 L 266.535 147.155 L 267.291 146.650 L 268.106 146.248 L 268.967 145.956 L 269.859 145.778 L 270.767 145.719 L 271.674 145.778 L 272.566 145.956 L 273.427 146.248 L 274.243 146.650 L 274.999 147.155 L 275.683 147.755 L 276.282 148.439 L 276.787 149.195 L 277.190 150.010 L 277.482 150.872 L 277.659 151.764 L 277.719 152.671 M 135.609 135.460 L 135.506 137.036 L 135.198 138.585 L 134.690 140.080 L 133.992 141.496 L 133.115 142.809 L 132.073 143.996 L 130.886 145.038 L 129.573 145.915 L 128.157 146.613 L 126.662 147.121 L 125.113 147.429 L 123.537 147.532 L 121.962 147.429 L 120.413 147.121 L 118.918 146.613 L 117.501 145.915 L 116.188 145.038 L 115.001 143.996 L 113.960 142.809 L 113.083 141.496 L 112.384 140.080 L 111.877 138.585 L 111.569 137.036 L 111.465 135.460 L 111.569 133.885 L 111.877 132.336 L 112.384 130.840 L 113.083 129.424 L 113.960 128.111 L 115.001 126.924 L 116.188 125.883 L 117.501 125.006 L 118.918 124.307 L 120.413 123.800 L 121.962 123.492 L 123.537 123.388 L 125.113 123.492 L 126.662 123.800 L 128.157 124.307 L 129.573 125.006 L 130.886 125.883 L 132.073 126.924 L 133.115 128.111 L 133.992 129.424 L 134.690 130.840 L 135.198 132.336 L 135.506 133.885 L 135.609 135.460 M 151.997 209.977 L 151.905 211.388 L 151.629 212.775 L 151.174 214.114 L 150.549 215.383 L 149.763 216.559 L 148.830 217.622 L 147.767 218.555 L 146.591 219.340 L 145.323 219.966 L 143.983 220.421 L 142.596 220.697 L 141.185 220.789 L 139.774 220.697 L 138.387 220.421 L 137.047 219.966 L 135.779 219.340 L 134.603 218.555 L 133.540 217.622 L 132.607 216.559 L 131.821 215.383 L 131.196 214.114 L 130.741 212.775 L 130.465 211.388 L 130.373 209.977 L 130.465 208.565 L 130.741 207.178 L 131.196 205.839 L 131.821 204.571 L 132.607 203.395 L 133.540 202.331 L 134.603 201.399 L 135.779 200.613 L 137.047 199.987 L 138.387 199.533 L 139.774 199.257 L 141.185 199.164 L 142.596 199.257 L 143.983 199.533 L 145.323 199.987 L 146.591 200.613 L 147.767 201.399 L 148.830 202.331 L 149.763 203.395 L 150.549 204.571 L 151.174 205.839 L 151.629 207.178 L 151.905 208.565 L 151.997 209.977 M 237.369 52.275 L 237.173 55.267 L 236.588 58.209 L 235.624 61.049 L 234.297 63.738 L 232.631 66.232 L 230.654 68.487 L 228.399 70.464 L 225.905 72.130 L 223.216 73.457 L 220.376 74.421 L 217.434 75.006 L 214.442 75.202 L 211.449 75.006 L 208.507 74.421 L 205.668 73.457 L 202.978 72.130 L 200.484 70.464 L 198.229 68.487 L 196.252 66.232 L 194.586 63.738 L 193.259 61.049 L 192.295 58.209 L 191.710 55.267 L 191.514 52.275 L 191.710 49.282 L 192.295 46.340 L 193.259 43.501 L 194.586 40.811 L 196.252 38.317 L 198.229 36.062 L 200.484 34.085 L 202.978 32.419 L 205.668 31.092 L 208.507 30.128 L 211.449 29.543 L 214.442 29.347 L 217.434 29.543 L 220.376 30.128 L 223.216 31.092 L 225.905 32.419 L 228.399 34.085 L 230.654 36.062 L 232.631 38.317 L 234.297 40.811 L 235.624 43.501 L 236.588 46.340 L 237.173 49.282 L 237.369 52.275 M 122.748 163.913 L 122.665 165.173 L 122.419 166.412 L 122.013 167.608 L 121.454 168.741 L 120.753 169.791 L 119.920 170.740 L 118.970 171.573 L 117.920 172.275 L 116.787 172.833 L 115.591 173.239 L 114.353 173.486 L 113.093 173.568 L 111.832 173.486 L 110.594 173.239 L 109.398 172.833 L 108.265 172.275 L 107.215 171.573 L 106.265 170.740 L 105.432 169.791 L 104.731 168.741 L 104.172 167.608 L 103.766 166.412 L 103.520 165.173 L 103.437 163.913 L 103.520 162.653 L 103.766 161.414 L 104.172 160.218 L 104.731 159.085 L 105.432 158.035 L 106.265 157.086 L 107.215 156.253 L 108.265 155.551 L 109.398 154.993 L 110.594 154.587 L 111.832 154.340 L 113.093 154.258 L 114.353 154.340 L 115.591 154.587 L 116.787 154.993 L 117.920 155.551 L 118.970 156.253 L 119.920 157.086 L 120.753 158.035 L 121.454 159.085 L 122.013 160.218 L 122.419 161.414 L 122.665 162.653 L 122.748 163.913 M 186.728 257.309 L 186.656 258.413 L 186.440 259.498 L 186.084 260.545 L 185.595 261.537 L 184.981 262.457 L 184.251 263.289 L 183.419 264.018 L 182.500 264.632 L 181.508 265.122 L 180.460 265.477 L 179.375 265.693 L 178.271 265.765 L 177.168 265.693 L 176.083 265.477 L 175.035 265.122 L 174.043 264.632 L 173.123 264.018 L 172.292 263.289 L 171.562 262.457 L 170.948 261.537 L 170.458 260.545 L 170.103 259.498 L 169.887 258.413 L 169.815 257.309 L 169.887 256.205 L 170.103 255.120 L 170.458 254.073 L 170.948 253.080 L 171.562 252.161 L 172.292 251.329 L 173.123 250.600 L 174.043 249.985 L 175.035 249.496 L 176.083 249.140 L 177.168 248.924 L 178.271 248.852 L 179.375 248.924 L 180.460 249.140 L 181.508 249.496 L 182.500 249.985 L 183.419 250.600 L 184.251 251.329 L 184.981 252.161 L 185.595 253.080 L 186.084 254.073 L 186.440 255.120 L 186.656 256.205 L 186.728 257.309 M 158.663 78.343 L 158.493 80.946 L 157.983 83.506 L 157.145 85.976 L 155.991 88.317 L 154.541 90.486 L 152.821 92.448 L 150.859 94.168 L 148.689 95.618 L 146.349 96.772 L 143.878 97.611 L 141.319 98.120 L 138.716 98.290 L 136.112 98.120 L 133.553 97.611 L 131.082 96.772 L 128.742 95.618 L 126.572 94.168 L 124.610 92.448 L 122.890 90.486 L 121.440 88.317 L 120.286 85.976 L 119.448 83.506 L 118.939 80.946 L 118.768 78.343 L 118.939 75.739 L 119.448 73.180 L 120.286 70.709 L 121.440 68.369 L 122.890 66.199 L 124.610 64.238 L 126.572 62.517 L 128.742 61.068 L 131.082 59.914 L 133.553 59.075 L 136.112 58.566 L 138.716 58.395 L 141.319 58.566 L 143.878 59.075 L 146.349 59.914 L 148.689 61.068 L 150.859 62.517 L 152.821 64.238 L 154.541 66.199 L 155.991 68.369 L 157.145 70.709 L 157.983 73.180 L 158.493 75.739 L 158.663 78.343 M 240.549 236.359 L 240.462 237.691 L 240.201 239.001 L 239.772 240.265 L 239.182 241.462 L 238.440 242.572 L 237.560 243.576 L 236.556 244.456 L 235.446 245.197 L 234.249 245.788 L 232.985 246.217 L 231.676 246.477 L 230.344 246.565 L 229.011 246.477 L 227.702 246.217 L 226.438 245.788 L 225.241 245.197 L 224.131 244.456 L 223.127 243.576 L 222.247 242.572 L 221.505 241.462 L 220.915 240.265 L 220.486 239.001 L 220.225 237.691 L 220.138 236.359 L 220.225 235.027 L 220.486 233.718 L 220.915 232.454 L 221.505 231.257 L 222.247 230.147 L 223.127 229.143 L 224.131 228.263 L 225.241 227.521 L 226.438 226.931 L 227.702 226.502 L 229.011 226.241 L 230.344 226.154 L 231.676 226.241 L 232.985 226.502 L 234.249 226.931 L 235.446 227.521 L 236.556 228.263 L 237.560 229.143 L 238.440 230.147 L 239.182 231.257 L 239.772 232.454 L 240.201 233.718 L 240.462 235.027 L 240.549 236.359 M 214.049 103.853 L 213.937 105.557 L 213.604 107.231 L 213.055 108.848 L 212.300 110.379 L 211.351 111.799 L 210.226 113.082 L 208.942 114.208 L 207.523 115.157 L 205.992 115.912 L 204.375 116.460 L 202.700 116.793 L 200.997 116.905 L 199.293 116.793 L 197.619 116.460 L 196.002 115.912 L 194.471 115.157 L 193.052 114.208 L 191.768 113.082 L 190.642 111.799 L 189.694 110.379 L 188.939 108.848 L 188.390 107.231 L 188.057 105.557 L 187.945 103.853 L 188.057 102.150 L 188.390 100.475 L 188.939 98.859 L 189.694 97.328 L 190.642 95.908 L 191.768 94.625 L 193.052 93.499 L 194.471 92.550 L 196.002 91.795 L 197.619 91.247 L 199.293 90.913 L 200.997 90.802 L 202.700 90.913 L 204.375 91.247 L 205.992 91.795 L 207.523 92.550 L 208.942 93.499 L 210.226 94.625 L 211.351 95.908 L 212.300 97.328 L 213.055 98.859 L 213.604 100.475 L 213.937 102.150 L 214.049 103.853 M 230.904 98.994 L 230.835 100.055 L 230.627 101.098 L 230.285 102.106 L 229.815 103.059 L 229.224 103.944 L 228.523 104.744 L 227.723 105.445 L 226.839 106.036 L 225.885 106.506 L 224.877 106.848 L 223.834 107.056 L 222.773 107.125 L 221.712 107.056 L 220.668 106.848 L 219.661 106.506 L 218.707 106.036 L 217.823 105.445 L 217.023 104.744 L 216.322 103.944 L 215.731 103.059 L 215.261 102.106 L 214.919 101.098 L 214.711 100.055 L 214.642 98.994 L 214.711 97.932 L 214.919 96.889 L 215.261 95.882 L 215.731 94.928 L 216.322 94.044 L 217.023 93.244 L 217.823 92.543 L 218.707 91.952 L 219.661 91.481 L 220.668 91.140 L 221.712 90.932 L 222.773 90.863 L 223.834 90.932 L 224.877 91.140 L 225.885 91.481 L 226.839 91.952 L 227.723 92.543 L 228.523 93.244 L 229.224 94.044 L 229.815 94.928 L 230.285 95.882 L 230.627 96.889 L 230.835 97.932 L 230.904 98.994 M 169.143 169.270 L 169.085 170.160 L 168.911 171.035 L 168.624 171.880 L 168.229 172.681 L 167.734 173.423 L 167.145 174.094 L 166.474 174.682 L 165.732 175.178 L 164.932 175.572 L 164.087 175.859 L 163.212 176.033 L 162.322 176.092 L 161.431 176.033 L 160.556 175.859 L 159.711 175.572 L 158.911 175.178 L 158.169 174.682 L 157.498 174.094 L 156.909 173.423 L 156.414 172.681 L 156.019 171.880 L 155.732 171.035 L 155.558 170.160 L 155.500 169.270 L 155.558 168.379 L 155.732 167.504 L 156.019 166.659 L 156.414 165.859 L 156.909 165.117 L 157.498 164.446 L 158.169 163.858 L 158.911 163.362 L 159.711 162.967 L 160.556 162.681 L 161.431 162.506 L 162.322 162.448 L 163.212 162.506 L 164.087 162.681 L 164.932 162.967 L 165.732 163.362 L 166.474 163.858 L 167.145 164.446 L 167.734 165.117 L 168.229 165.859 L 168.624 166.659 L 168.911 167.504 L 169.085 168.379 L 169.143 169.270 M 271.801 176.388 L 271.643 178.799 L 271.171 181.168 L 270.395 183.456 L 269.326 185.623 L 267.984 187.632 L 266.391 189.448 L 264.574 191.041 L 262.565 192.384 L 260.399 193.452 L 258.111 194.229 L 255.741 194.700 L 253.330 194.858 L 250.919 194.700 L 248.550 194.229 L 246.262 193.452 L 244.095 192.384 L 242.086 191.041 L 240.270 189.448 L 238.677 187.632 L 237.334 185.623 L 236.266 183.456 L 235.489 181.168 L 235.018 178.799 L 234.860 176.388 L 235.018 173.977 L 235.489 171.607 L 236.266 169.320 L 237.334 167.153 L 238.677 165.144 L 240.270 163.327 L 242.086 161.734 L 244.095 160.392 L 246.262 159.323 L 248.550 158.547 L 250.919 158.076 L 253.330 157.917 L 255.741 158.076 L 258.111 158.547 L 260.399 159.323 L 262.565 160.392 L 264.574 161.734 L 266.391 163.327 L 267.984 165.144 L 269.326 167.153 L 270.395 169.320 L 271.171 171.607 L 271.643 173.977 L 271.801 176.388 M 99.139 172.971 L 99.099 173.581 L 98.980 174.181 L 98.783 174.761 L 98.512 175.310 L 98.172 175.818 L 97.769 176.278 L 97.309 176.682 L 96.800 177.022 L 96.251 177.292 L 95.672 177.489 L 95.072 177.608 L 94.461 177.648 L 93.851 177.608 L 93.251 177.489 L 92.671 177.292 L 92.122 177.022 L 91.614 176.682 L 91.153 176.278 L 90.750 175.818 L 90.410 175.310 L 90.139 174.761 L 89.943 174.181 L 89.823 173.581 L 89.783 172.971 L 89.823 172.360 L 89.943 171.760 L 90.139 171.180 L 90.410 170.632 L 90.750 170.123 L 91.153 169.663 L 91.614 169.259 L 92.122 168.919 L 92.671 168.649 L 93.251 168.452 L 93.851 168.333 L 94.461 168.293 L 95.072 168.333 L 95.672 168.452 L 96.251 168.649 L 96.800 168.919 L 97.309 169.259 L 97.769 169.663 L 98.172 170.123 L 98.512 170.632 L 98.783 171.180 L 98.980 171.760 L 99.099 172.360 L 99.139 172.971 M 301.187 109.953 L 301.070 111.729 L 300.723 113.474 L 300.151 115.159 L 299.364 116.755 L 298.375 118.235 L 297.202 119.573 L 295.864 120.746 L 294.385 121.735 L 292.789 122.522 L 291.103 123.094 L 289.358 123.441 L 287.582 123.557 L 285.807 123.441 L 284.061 123.094 L 282.376 122.522 L 280.780 121.735 L 279.301 120.746 L 277.963 119.573 L 276.790 118.235 L 275.801 116.755 L 275.014 115.159 L 274.442 113.474 L 274.095 111.729 L 273.978 109.953 L 274.095 108.178 L 274.442 106.432 L 275.014 104.747 L 275.801 103.151 L 276.790 101.672 L 277.963 100.334 L 279.301 99.160 L 280.780 98.172 L 282.376 97.385 L 284.061 96.813 L 285.807 96.466 L 287.582 96.349 L 289.358 96.466 L 291.103 96.813 L 292.789 97.385 L 294.385 98.172 L 295.864 99.160 L 297.202 100.334 L 298.375 101.672 L 299.364 103.151 L 300.151 104.747 L 300.723 106.432 L 301.070 108.178 L 301.187 109.953 M 276.656 93.340 L 276.527 95.300 L 276.144 97.227 L 275.513 99.088 L 274.644 100.850 L 273.552 102.483 L 272.257 103.960 L 270.780 105.255 L 269.146 106.347 L 267.384 107.216 L 265.524 107.847 L 263.597 108.230 L 261.637 108.359 L 259.677 108.230 L 257.750 107.847 L 255.890 107.216 L 254.128 106.347 L 252.494 105.255 L 251.017 103.960 L 249.722 102.483 L 248.630 100.850 L 247.761 99.088 L 247.130 97.227 L 246.747 95.300 L 246.618 93.340 L 246.747 91.380 L 247.130 89.453 L 247.761 87.593 L 248.630 85.831 L 249.722 84.197 L 251.017 82.720 L 252.494 81.425 L 254.128 80.333 L 255.890 79.465 L 257.750 78.833 L 259.677 78.450 L 261.637 78.321 L 263.597 78.450 L 265.524 78.833 L 267.384 79.465 L 269.146 80.333 L 270.780 81.425 L 272.257 82.720 L 273.552 84.197 L 274.644 85.831 L 275.513 87.593 L 276.144 89.453 L 276.527 91.380 L 276.656 93.340 M 184.918 90.899 L 184.804 92.643 L 184.463 94.357 L 183.901 96.012 L 183.128 97.579 L 182.157 99.033 L 181.005 100.347 L 179.691 101.499 L 178.238 102.470 L 176.670 103.243 L 175.015 103.805 L 173.301 104.146 L 171.557 104.260 L 169.813 104.146 L 168.099 103.805 L 166.444 103.243 L 164.876 102.470 L 163.423 101.499 L 162.109 100.347 L 160.956 99.033 L 159.985 97.579 L 159.212 96.012 L 158.650 94.357 L 158.309 92.643 L 158.195 90.899 L 158.309 89.155 L 158.650 87.440 L 159.212 85.785 L 159.985 84.218 L 160.956 82.765 L 162.109 81.451 L 163.423 80.298 L 164.876 79.327 L 166.444 78.554 L 168.099 77.992 L 169.813 77.651 L 171.557 77.537 L 173.301 77.651 L 175.015 77.992 L 176.670 78.554 L 178.238 79.327 L 179.691 80.298 L 181.005 81.451 L 182.157 82.765 L 183.128 84.218 L 183.901 85.785 L 184.463 87.440 L 184.804 89.155 L 184.918 90.899 M 194.567 172.377 L 194.472 173.817 L 194.191 175.233 L 193.727 176.600 L 193.088 177.895 L 192.286 179.095 L 191.335 180.180 L 190.249 181.132 L 189.049 181.934 L 187.754 182.572 L 186.388 183.036 L 184.972 183.318 L 183.532 183.412 L 182.091 183.318 L 180.675 183.036 L 179.309 182.572 L 178.014 181.934 L 176.814 181.132 L 175.729 180.180 L 174.777 179.095 L 173.975 177.895 L 173.336 176.600 L 172.872 175.233 L 172.591 173.817 L 172.496 172.377 L 172.591 170.937 L 172.872 169.521 L 173.336 168.154 L 173.975 166.860 L 174.777 165.659 L 175.729 164.574 L 176.814 163.622 L 178.014 162.820 L 179.309 162.182 L 180.675 161.718 L 182.091 161.436 L 183.532 161.342 L 184.972 161.436 L 186.388 161.718 L 187.754 162.182 L 189.049 162.820 L 190.249 163.622 L 191.335 164.574 L 192.286 165.659 L 193.088 166.860 L 193.727 168.154 L 194.191 169.521 L 194.472 170.937 L 194.567 172.377 M 118.136 193.444 L 118.050 194.760 L 117.793 196.053 L 117.369 197.301 L 116.786 198.483 L 116.053 199.579 L 115.184 200.570 L 114.193 201.439 L 113.097 202.172 L 111.915 202.755 L 110.667 203.178 L 109.374 203.435 L 108.059 203.522 L 106.743 203.435 L 105.450 203.178 L 104.202 202.755 L 103.020 202.172 L 101.924 201.439 L 100.933 200.570 L 100.064 199.579 L 99.331 198.483 L 98.748 197.301 L 98.325 196.053 L 98.068 194.760 L 97.981 193.444 L 98.068 192.129 L 98.325 190.836 L 98.748 189.588 L 99.331 188.406 L 100.064 187.310 L 100.933 186.319 L 101.924 185.450 L 103.020 184.717 L 104.202 184.134 L 105.450 183.710 L 106.743 183.453 L 108.059 183.367 L 109.374 183.453 L 110.667 183.710 L 111.915 184.134 L 113.097 184.717 L 114.193 185.450 L 115.184 186.319 L 116.053 187.310 L 116.786 188.406 L 117.369 189.588 L 117.793 190.836 L 118.050 192.129 L 118.136 193.444 M 292.937 147.769 L 292.896 148.393 L 292.774 149.006 L 292.573 149.599 L 292.297 150.160 L 291.949 150.680 L 291.537 151.150 L 291.066 151.563 L 290.546 151.910 L 289.985 152.187 L 289.393 152.388 L 288.779 152.510 L 288.155 152.551 L 287.531 152.510 L 286.917 152.388 L 286.325 152.187 L 285.763 151.910 L 285.243 151.563 L 284.773 151.150 L 284.360 150.680 L 284.013 150.160 L 283.736 149.599 L 283.535 149.006 L 283.413 148.393 L 283.372 147.769 L 283.413 147.144 L 283.535 146.531 L 283.736 145.938 L 284.013 145.377 L 284.360 144.857 L 284.773 144.387 L 285.243 143.974 L 285.763 143.627 L 286.325 143.350 L 286.917 143.149 L 287.531 143.027 L 288.155 142.986 L 288.779 143.027 L 289.393 143.149 L 289.985 143.350 L 290.546 143.627 L 291.066 143.974 L 291.537 144.387 L 291.949 144.857 L 292.297 145.377 L 292.573 145.938 L 292.774 146.531 L 292.896 147.144 L 292.937 147.769 M 296.657 164.624 L 296.568 165.990 L 296.301 167.332 L 295.861 168.628 L 295.255 169.855 L 294.495 170.993 L 293.593 172.022 L 292.564 172.924 L 291.426 173.684 L 290.199 174.289 L 288.903 174.729 L 287.561 174.996 L 286.196 175.086 L 284.830 174.996 L 283.488 174.729 L 282.192 174.289 L 280.965 173.684 L 279.827 172.924 L 278.799 172.022 L 277.896 170.993 L 277.136 169.855 L 276.531 168.628 L 276.091 167.332 L 275.824 165.990 L 275.734 164.624 L 275.824 163.259 L 276.091 161.917 L 276.531 160.621 L 277.136 159.394 L 277.896 158.256 L 278.799 157.227 L 279.827 156.325 L 280.965 155.565 L 282.192 154.959 L 283.488 154.520 L 284.830 154.253 L 286.196 154.163 L 287.561 154.253 L 288.903 154.520 L 290.199 154.959 L 291.426 155.565 L 292.564 156.325 L 293.593 157.227 L 294.495 158.256 L 295.255 159.394 L 295.861 160.621 L 296.301 161.917 L 296.568 163.259 L 296.657 164.624 M 268.877 227.066 L 268.822 227.903 L 268.658 228.726 L 268.389 229.520 L 268.018 230.272 L 267.552 230.970 L 266.998 231.601 L 266.368 232.154 L 265.670 232.620 L 264.918 232.991 L 264.124 233.260 L 263.301 233.424 L 262.464 233.479 L 261.627 233.424 L 260.804 233.260 L 260.010 232.991 L 259.258 232.620 L 258.560 232.154 L 257.930 231.601 L 257.377 230.970 L 256.911 230.272 L 256.540 229.520 L 256.270 228.726 L 256.107 227.903 L 256.052 227.066 L 256.107 226.229 L 256.270 225.407 L 256.540 224.612 L 256.911 223.860 L 257.377 223.163 L 257.930 222.532 L 258.560 221.979 L 259.258 221.513 L 260.010 221.142 L 260.804 220.872 L 261.627 220.709 L 262.464 220.654 L 263.301 220.709 L 264.124 220.872 L 264.918 221.142 L 265.670 221.513 L 266.368 221.979 L 266.998 222.532 L 267.552 223.163 L 268.018 223.860 L 268.389 224.612 L 268.658 225.407 L 268.822 226.229 L 268.877 227.066 M 255.386 233.799 L 255.345 234.426 L 255.222 235.042 L 255.020 235.637 L 254.743 236.201 L 254.393 236.723 L 253.979 237.195 L 253.507 237.610 L 252.984 237.959 L 252.421 238.237 L 251.826 238.439 L 251.210 238.561 L 250.583 238.602 L 249.956 238.561 L 249.339 238.439 L 248.744 238.237 L 248.181 237.959 L 247.658 237.610 L 247.186 237.195 L 246.772 236.723 L 246.423 236.201 L 246.145 235.637 L 245.943 235.042 L 245.820 234.426 L 245.779 233.799 L 245.820 233.172 L 245.943 232.556 L 246.145 231.961 L 246.423 231.397 L 246.772 230.875 L 247.186 230.402 L 247.658 229.988 L 248.181 229.639 L 248.744 229.361 L 249.339 229.159 L 249.956 229.036 L 250.583 228.995 L 251.210 229.036 L 251.826 229.159 L 252.421 229.361 L 252.984 229.639 L 253.507 229.988 L 253.979 230.402 L 254.393 230.875 L 254.743 231.397 L 255.020 231.961 L 255.222 232.556 L 255.345 233.172 L 255.386 233.799 M 250.373 245.799 L 250.330 246.465 L 250.200 247.119 L 249.985 247.751 L 249.690 248.350 L 249.319 248.904 L 248.879 249.406 L 248.377 249.846 L 247.823 250.217 L 247.224 250.512 L 246.592 250.727 L 245.938 250.857 L 245.272 250.901 L 244.606 250.857 L 243.951 250.727 L 243.319 250.512 L 242.721 250.217 L 242.166 249.846 L 241.664 249.406 L 241.224 248.904 L 240.853 248.350 L 240.558 247.751 L 240.344 247.119 L 240.213 246.465 L 240.170 245.799 L 240.213 245.133 L 240.344 244.478 L 240.558 243.846 L 240.853 243.248 L 241.224 242.693 L 241.664 242.191 L 242.166 241.751 L 242.721 241.380 L 243.319 241.085 L 243.951 240.871 L 244.606 240.740 L 245.272 240.697 L 245.938 240.740 L 246.592 240.871 L 247.224 241.085 L 247.823 241.380 L 248.377 241.751 L 248.879 242.191 L 249.319 242.693 L 249.690 243.248 L 249.985 243.846 L 250.200 244.478 L 250.330 245.133 L 250.373 245.799 M 259.576 45.791 L 259.524 46.585 L 259.369 47.365 L 259.113 48.119 L 258.761 48.832 L 258.319 49.494 L 257.795 50.092 L 257.197 50.616 L 256.535 51.058 L 255.822 51.410 L 255.069 51.666 L 254.288 51.821 L 253.495 51.873 L 252.701 51.821 L 251.921 51.666 L 251.167 51.410 L 250.454 51.058 L 249.793 50.616 L 249.194 50.092 L 248.670 49.494 L 248.228 48.832 L 247.876 48.119 L 247.620 47.365 L 247.465 46.585 L 247.413 45.791 L 247.465 44.998 L 247.620 44.217 L 247.876 43.464 L 248.228 42.751 L 248.670 42.089 L 249.194 41.491 L 249.793 40.967 L 250.454 40.525 L 251.167 40.173 L 251.921 39.917 L 252.701 39.762 L 253.495 39.710 L 254.288 39.762 L 255.069 39.917 L 255.822 40.173 L 256.535 40.525 L 257.197 40.967 L 257.795 41.491 L 258.319 42.089 L 258.761 42.751 L 259.113 43.464 L 259.369 44.217 L 259.524 44.998 L 259.576 45.791 M 297.062 79.935 L 296.967 81.384 L 296.684 82.809 L 296.217 84.185 L 295.574 85.488 L 294.767 86.695 L 293.809 87.788 L 292.717 88.745 L 291.509 89.553 L 290.206 90.195 L 288.831 90.662 L 287.406 90.945 L 285.957 91.040 L 284.507 90.945 L 283.082 90.662 L 281.707 90.195 L 280.404 89.553 L 279.196 88.745 L 278.104 87.788 L 277.146 86.695 L 276.339 85.488 L 275.696 84.185 L 275.229 82.809 L 274.946 81.384 L 274.851 79.935 L 274.946 78.485 L 275.229 77.060 L 275.696 75.685 L 276.339 74.382 L 277.146 73.174 L 278.104 72.082 L 279.196 71.124 L 280.404 70.317 L 281.707 69.675 L 283.082 69.208 L 284.507 68.924 L 285.957 68.829 L 287.406 68.924 L 288.831 69.208 L 290.206 69.675 L 291.509 70.317 L 292.717 71.124 L 293.809 72.082 L 294.767 73.174 L 295.574 74.382 L 296.217 75.685 L 296.684 77.060 L 296.967 78.485 L 297.062 79.935 M 303.825 139.593 L 303.775 140.357 L 303.626 141.108 L 303.379 141.832 L 303.041 142.519 L 302.615 143.156 L 302.111 143.731 L 301.535 144.236 L 300.898 144.662 L 300.212 145.000 L 299.487 145.246 L 298.736 145.396 L 297.972 145.446 L 297.208 145.396 L 296.457 145.246 L 295.732 145.000 L 295.045 144.662 L 294.409 144.236 L 293.833 143.731 L 293.328 143.156 L 292.903 142.519 L 292.564 141.832 L 292.318 141.108 L 292.169 140.357 L 292.119 139.593 L 292.169 138.829 L 292.318 138.078 L 292.564 137.353 L 292.903 136.666 L 293.328 136.030 L 293.833 135.454 L 294.409 134.949 L 295.045 134.524 L 295.732 134.185 L 296.457 133.939 L 297.208 133.790 L 297.972 133.740 L 298.736 133.790 L 299.487 133.939 L 300.212 134.185 L 300.898 134.524 L 301.535 134.949 L 302.111 135.454 L 302.615 136.030 L 303.041 136.666 L 303.379 137.353 L 303.626 138.078 L 303.775 138.829 L 303.825 139.593 M 187.441 209.813 L 187.390 210.579 L 187.241 211.331 L 186.994 212.057 L 186.655 212.745 L 186.229 213.382 L 185.723 213.959 L 185.147 214.465 L 184.509 214.891 L 183.821 215.230 L 183.095 215.476 L 182.343 215.626 L 181.578 215.676 L 180.813 215.626 L 180.060 215.476 L 179.334 215.230 L 178.646 214.891 L 178.009 214.465 L 177.432 213.959 L 176.926 213.382 L 176.500 212.745 L 176.161 212.057 L 175.915 211.331 L 175.765 210.579 L 175.715 209.813 L 175.765 209.048 L 175.915 208.296 L 176.161 207.570 L 176.500 206.882 L 176.926 206.244 L 177.432 205.668 L 178.009 205.162 L 178.646 204.736 L 179.334 204.397 L 180.060 204.150 L 180.813 204.001 L 181.578 203.951 L 182.343 204.001 L 183.095 204.150 L 183.821 204.397 L 184.509 204.736 L 185.147 205.162 L 185.723 205.668 L 186.229 206.244 L 186.655 206.882 L 186.994 207.570 L 187.241 208.296 L 187.390 209.048 L 187.441 209.813 M 329.626 160.394 L 329.571 161.221 L 329.410 162.033 L 329.144 162.817 L 328.777 163.560 L 328.317 164.248 L 327.771 164.871 L 327.149 165.417 L 326.460 165.877 L 325.717 166.243 L 324.933 166.510 L 324.121 166.671 L 323.295 166.725 L 322.468 166.671 L 321.656 166.510 L 320.872 166.243 L 320.129 165.877 L 319.440 165.417 L 318.818 164.871 L 318.272 164.248 L 317.812 163.560 L 317.445 162.817 L 317.179 162.033 L 317.018 161.221 L 316.963 160.394 L 317.018 159.568 L 317.179 158.756 L 317.445 157.971 L 317.812 157.229 L 318.272 156.540 L 318.818 155.917 L 319.440 155.371 L 320.129 154.911 L 320.872 154.545 L 321.656 154.279 L 322.468 154.117 L 323.295 154.063 L 324.121 154.117 L 324.933 154.279 L 325.717 154.545 L 326.460 154.911 L 327.149 155.371 L 327.771 155.917 L 328.317 156.540 L 328.777 157.229 L 329.144 157.971 L 329.410 158.756 L 329.571 159.568 L 329.626 160.394 M 321.720 150.024 L 321.675 150.711 L 321.541 151.385 L 321.320 152.036 L 321.015 152.653 L 320.633 153.225 L 320.180 153.742 L 319.663 154.196 L 319.091 154.578 L 318.474 154.882 L 317.823 155.103 L 317.148 155.237 L 316.462 155.282 L 315.775 155.237 L 315.101 155.103 L 314.450 154.882 L 313.833 154.578 L 313.261 154.196 L 312.744 153.742 L 312.290 153.225 L 311.908 152.653 L 311.604 152.036 L 311.383 151.385 L 311.249 150.711 L 311.204 150.024 L 311.249 149.338 L 311.383 148.663 L 311.604 148.012 L 311.908 147.395 L 312.290 146.823 L 312.744 146.306 L 313.261 145.853 L 313.833 145.471 L 314.450 145.167 L 315.101 144.945 L 315.775 144.811 L 316.462 144.766 L 317.148 144.811 L 317.823 144.945 L 318.474 145.167 L 319.091 145.471 L 319.663 145.853 L 320.180 146.306 L 320.633 146.823 L 321.015 147.395 L 321.320 148.012 L 321.541 148.663 L 321.675 149.338 L 321.720 150.024 M 264.606 129.181 L 264.483 131.056 L 264.116 132.899 L 263.512 134.679 L 262.681 136.364 L 261.637 137.927 L 260.398 139.340 L 258.985 140.579 L 257.422 141.623 L 255.737 142.454 L 253.958 143.058 L 252.114 143.425 L 250.239 143.548 L 248.364 143.425 L 246.521 143.058 L 244.741 142.454 L 243.056 141.623 L 241.493 140.579 L 240.080 139.340 L 238.841 137.927 L 237.797 136.364 L 236.966 134.679 L 236.362 132.899 L 235.995 131.056 L 235.872 129.181 L 235.995 127.306 L 236.362 125.462 L 236.966 123.683 L 237.797 121.997 L 238.841 120.435 L 240.080 119.022 L 241.493 117.783 L 243.056 116.739 L 244.741 115.908 L 246.521 115.304 L 248.364 114.937 L 250.239 114.814 L 252.114 114.937 L 253.958 115.304 L 255.737 115.908 L 257.422 116.739 L 258.985 117.783 L 260.398 119.022 L 261.637 120.435 L 262.681 121.997 L 263.512 123.683 L 264.116 125.462 L 264.483 127.306 L 264.606 129.181 M 268.921 62.872 L 268.862 63.781 L 268.684 64.675 L 268.391 65.538 L 267.988 66.355 L 267.481 67.113 L 266.881 67.798 L 266.195 68.399 L 265.438 68.905 L 264.620 69.309 L 263.757 69.601 L 262.863 69.779 L 261.954 69.839 L 261.045 69.779 L 260.151 69.601 L 259.288 69.309 L 258.470 68.905 L 257.713 68.399 L 257.027 67.798 L 256.427 67.113 L 255.920 66.355 L 255.517 65.538 L 255.224 64.675 L 255.046 63.781 L 254.987 62.872 L 255.046 61.962 L 255.224 61.068 L 255.517 60.205 L 255.920 59.388 L 256.427 58.630 L 257.027 57.945 L 257.713 57.344 L 258.470 56.838 L 259.288 56.435 L 260.151 56.142 L 261.045 55.964 L 261.954 55.904 L 262.863 55.964 L 263.757 56.142 L 264.620 56.435 L 265.438 56.838 L 266.195 57.344 L 266.881 57.945 L 267.481 58.630 L 267.988 59.388 L 268.391 60.205 L 268.684 61.068 L 268.862 61.962 L 268.921 62.872 M 232.328 259.467 L 232.238 260.840 L 231.970 262.190 L 231.527 263.493 L 230.919 264.727 L 230.154 265.871 L 229.247 266.906 L 228.212 267.813 L 227.068 268.577 L 225.834 269.186 L 224.531 269.628 L 223.182 269.897 L 221.808 269.987 L 220.435 269.897 L 219.086 269.628 L 217.783 269.186 L 216.549 268.577 L 215.405 267.813 L 214.370 266.906 L 213.463 265.871 L 212.698 264.727 L 212.090 263.493 L 211.647 262.190 L 211.379 260.840 L 211.289 259.467 L 211.379 258.094 L 211.647 256.744 L 212.090 255.441 L 212.698 254.207 L 213.463 253.063 L 214.370 252.029 L 215.405 251.121 L 216.549 250.357 L 217.783 249.748 L 219.086 249.306 L 220.435 249.038 L 221.808 248.948 L 223.182 249.038 L 224.531 249.306 L 225.834 249.748 L 227.068 250.357 L 228.212 251.121 L 229.247 252.029 L 230.154 253.063 L 230.919 254.207 L 231.527 255.441 L 231.970 256.744 L 232.238 258.094 L 232.328 259.467 M 286.744 236.950 L 286.696 237.687 L 286.551 238.412 L 286.314 239.112 L 285.987 239.775 L 285.577 240.389 L 285.089 240.945 L 284.534 241.432 L 283.920 241.842 L 283.257 242.169 L 282.557 242.407 L 281.832 242.551 L 281.095 242.599 L 280.358 242.551 L 279.633 242.407 L 278.933 242.169 L 278.271 241.842 L 277.656 241.432 L 277.101 240.945 L 276.613 240.389 L 276.203 239.775 L 275.876 239.112 L 275.639 238.412 L 275.495 237.687 L 275.446 236.950 L 275.495 236.213 L 275.639 235.488 L 275.876 234.788 L 276.203 234.126 L 276.613 233.511 L 277.101 232.956 L 277.656 232.469 L 278.271 232.058 L 278.933 231.731 L 279.633 231.494 L 280.358 231.350 L 281.095 231.301 L 281.832 231.350 L 282.557 231.494 L 283.257 231.731 L 283.920 232.058 L 284.534 232.469 L 285.089 232.956 L 285.577 233.511 L 285.987 234.126 L 286.314 234.788 L 286.551 235.488 L 286.696 236.213 L 286.744 236.950 M 186.256 136.672 L 186.177 137.886 L 185.939 139.080 L 185.548 140.233 L 185.009 141.325 L 184.333 142.337 L 183.531 143.252 L 182.615 144.054 L 181.603 144.731 L 180.511 145.269 L 179.359 145.660 L 178.165 145.898 L 176.950 145.977 L 175.736 145.898 L 174.542 145.660 L 173.389 145.269 L 172.297 144.731 L 171.285 144.054 L 170.370 143.252 L 169.567 142.337 L 168.891 141.325 L 168.353 140.233 L 167.961 139.080 L 167.724 137.886 L 167.644 136.672 L 167.724 135.457 L 167.961 134.263 L 168.353 133.110 L 168.891 132.019 L 169.567 131.006 L 170.370 130.091 L 171.285 129.289 L 172.297 128.612 L 173.389 128.074 L 174.542 127.683 L 175.736 127.445 L 176.950 127.366 L 178.165 127.445 L 179.359 127.683 L 180.511 128.074 L 181.603 128.612 L 182.615 129.289 L 183.531 130.091 L 184.333 131.006 L 185.009 132.019 L 185.548 133.110 L 185.939 134.263 L 186.177 135.457 L 186.256 136.672 M 185.347 41.100 L 185.277 42.175 L 185.067 43.232 L 184.720 44.252 L 184.244 45.218 L 183.645 46.114 L 182.935 46.924 L 182.125 47.635 L 181.229 48.233 L 180.263 48.710 L 179.242 49.056 L 178.186 49.266 L 177.110 49.337 L 176.035 49.266 L 174.979 49.056 L 173.958 48.710 L 172.992 48.233 L 172.096 47.635 L 171.286 46.924 L 170.576 46.114 L 169.977 45.218 L 169.501 44.252 L 169.154 43.232 L 168.944 42.175 L 168.874 41.100 L 168.944 40.025 L 169.154 38.968 L 169.501 37.948 L 169.977 36.981 L 170.576 36.086 L 171.286 35.275 L 172.096 34.565 L 172.992 33.966 L 173.958 33.490 L 174.979 33.144 L 176.035 32.933 L 177.110 32.863 L 178.186 32.933 L 179.242 33.144 L 180.263 33.490 L 181.229 33.966 L 182.125 34.565 L 182.935 35.275 L 183.645 36.086 L 184.244 36.981 L 184.720 37.948 L 185.067 38.968 L 185.277 40.025 L 185.347 41.100 M 176.399 199.345 L 176.301 200.833 L 176.010 202.295 L 175.531 203.707 L 174.872 205.044 L 174.043 206.284 L 173.060 207.405 L 171.939 208.388 L 170.700 209.216 L 169.362 209.876 L 167.951 210.355 L 166.488 210.646 L 165.000 210.743 L 163.513 210.646 L 162.050 210.355 L 160.639 209.876 L 159.301 209.216 L 158.062 208.388 L 156.941 207.405 L 155.958 206.284 L 155.129 205.044 L 154.470 203.707 L 153.991 202.295 L 153.700 200.833 L 153.602 199.345 L 153.700 197.857 L 153.991 196.395 L 154.470 194.983 L 155.129 193.646 L 155.958 192.406 L 156.941 191.285 L 158.062 190.302 L 159.301 189.474 L 160.639 188.814 L 162.050 188.335 L 163.513 188.044 L 165.000 187.947 L 166.488 188.044 L 167.951 188.335 L 169.362 188.814 L 170.700 189.474 L 171.939 190.302 L 173.060 191.285 L 174.043 192.406 L 174.872 193.646 L 175.531 194.983 L 176.010 196.395 L 176.301 197.857 L 176.399 199.345 M 248.373 62.305 L 248.328 62.990 L 248.194 63.663 L 247.973 64.314 L 247.669 64.929 L 247.288 65.500 L 246.835 66.017 L 246.319 66.470 L 245.748 66.851 L 245.132 67.155 L 244.482 67.376 L 243.808 67.509 L 243.123 67.554 L 242.438 67.509 L 241.764 67.376 L 241.114 67.155 L 240.498 66.851 L 239.927 66.470 L 239.411 66.017 L 238.958 65.500 L 238.576 64.929 L 238.273 64.314 L 238.052 63.663 L 237.918 62.990 L 237.873 62.305 L 237.918 61.619 L 238.052 60.946 L 238.273 60.295 L 238.576 59.680 L 238.958 59.109 L 239.411 58.592 L 239.927 58.140 L 240.498 57.758 L 241.114 57.454 L 241.764 57.234 L 242.438 57.100 L 243.123 57.055 L 243.808 57.100 L 244.482 57.234 L 245.132 57.454 L 245.748 57.758 L 246.319 58.140 L 246.835 58.592 L 247.288 59.109 L 247.669 59.680 L 247.973 60.295 L 248.194 60.946 L 248.328 61.619 L 248.373 62.305 M 207.667 247.632 L 207.621 248.334 L 207.484 249.024 L 207.258 249.691 L 206.947 250.322 L 206.556 250.907 L 206.092 251.436 L 205.562 251.900 L 204.977 252.291 L 204.346 252.603 L 203.680 252.829 L 202.989 252.966 L 202.287 253.012 L 201.585 252.966 L 200.894 252.829 L 200.228 252.603 L 199.597 252.291 L 199.012 251.900 L 198.482 251.436 L 198.018 250.907 L 197.627 250.322 L 197.316 249.691 L 197.090 249.024 L 196.953 248.334 L 196.907 247.632 L 196.953 246.929 L 197.090 246.239 L 197.316 245.573 L 197.627 244.942 L 198.018 244.356 L 198.482 243.827 L 199.012 243.363 L 199.597 242.972 L 200.228 242.661 L 200.894 242.435 L 201.585 242.297 L 202.287 242.251 L 202.989 242.297 L 203.680 242.435 L 204.346 242.661 L 204.977 242.972 L 205.562 243.363 L 206.092 243.827 L 206.556 244.356 L 206.947 244.942 L 207.258 245.573 L 207.484 246.239 L 207.621 246.929 L 207.667 247.632 M 149.386 173.562 L 149.330 174.409 L 149.165 175.241 L 148.892 176.045 L 148.516 176.807 L 148.045 177.513 L 147.485 178.151 L 146.847 178.711 L 146.141 179.182 L 145.379 179.558 L 144.575 179.831 L 143.743 179.996 L 142.896 180.052 L 142.049 179.996 L 141.216 179.831 L 140.412 179.558 L 139.651 179.182 L 138.945 178.711 L 138.307 178.151 L 137.747 177.513 L 137.275 176.807 L 136.900 176.045 L 136.627 175.241 L 136.461 174.409 L 136.406 173.562 L 136.461 172.714 L 136.627 171.882 L 136.900 171.078 L 137.275 170.317 L 137.747 169.611 L 138.307 168.972 L 138.945 168.413 L 139.651 167.941 L 140.412 167.566 L 141.216 167.293 L 142.049 167.127 L 142.896 167.072 L 143.743 167.127 L 144.575 167.293 L 145.379 167.566 L 146.141 167.941 L 146.847 168.413 L 147.485 168.972 L 148.045 169.611 L 148.516 170.317 L 148.892 171.078 L 149.165 171.882 L 149.330 172.714 L 149.386 173.562 M 169.600 147.152 L 169.550 147.911 L 169.402 148.658 L 169.157 149.378 L 168.821 150.061 L 168.398 150.693 L 167.896 151.265 L 167.324 151.767 L 166.691 152.190 L 166.009 152.526 L 165.288 152.771 L 164.542 152.919 L 163.783 152.969 L 163.024 152.919 L 162.277 152.771 L 161.557 152.526 L 160.874 152.190 L 160.242 151.767 L 159.670 151.265 L 159.168 150.693 L 158.745 150.061 L 158.409 149.378 L 158.164 148.658 L 158.016 147.911 L 157.966 147.152 L 158.016 146.393 L 158.164 145.646 L 158.409 144.926 L 158.745 144.243 L 159.168 143.611 L 159.670 143.039 L 160.242 142.537 L 160.874 142.114 L 161.557 141.778 L 162.277 141.533 L 163.024 141.385 L 163.783 141.335 L 164.542 141.385 L 165.288 141.533 L 166.009 141.778 L 166.691 142.114 L 167.324 142.537 L 167.896 143.039 L 168.398 143.611 L 168.821 144.243 L 169.157 144.926 L 169.402 145.646 L 169.550 146.393 L 169.600 147.152 M 205.894 79.440 L 205.851 80.086 L 205.725 80.720 L 205.517 81.333 L 205.231 81.914 L 204.871 82.452 L 204.445 82.938 L 203.958 83.365 L 203.420 83.724 L 202.840 84.011 L 202.227 84.219 L 201.592 84.345 L 200.946 84.387 L 200.301 84.345 L 199.666 84.219 L 199.053 84.011 L 198.473 83.724 L 197.935 83.365 L 197.448 82.938 L 197.022 82.452 L 196.662 81.914 L 196.376 81.333 L 196.168 80.720 L 196.042 80.086 L 195.999 79.440 L 196.042 78.794 L 196.168 78.160 L 196.376 77.547 L 196.662 76.967 L 197.022 76.428 L 197.448 75.942 L 197.935 75.515 L 198.473 75.156 L 199.053 74.870 L 199.666 74.662 L 200.301 74.535 L 200.946 74.493 L 201.592 74.535 L 202.227 74.662 L 202.840 74.870 L 203.420 75.156 L 203.958 75.515 L 204.445 75.942 L 204.871 76.428 L 205.231 76.967 L 205.517 77.547 L 205.725 78.160 L 205.851 78.794 L 205.894 79.440 M 156.474 49.072 L 156.426 49.813 L 156.281 50.542 L 156.042 51.246 L 155.713 51.912 L 155.300 52.530 L 154.811 53.089 L 154.252 53.579 L 153.634 53.992 L 152.968 54.320 L 152.264 54.559 L 151.535 54.704 L 150.794 54.753 L 150.052 54.704 L 149.323 54.559 L 148.620 54.320 L 147.953 53.992 L 147.335 53.579 L 146.777 53.089 L 146.287 52.530 L 145.874 51.912 L 145.545 51.246 L 145.306 50.542 L 145.161 49.813 L 145.113 49.072 L 145.161 48.330 L 145.306 47.601 L 145.545 46.898 L 145.874 46.231 L 146.287 45.613 L 146.777 45.055 L 147.335 44.565 L 147.953 44.152 L 148.620 43.823 L 149.323 43.584 L 150.052 43.440 L 150.794 43.391 L 151.535 43.440 L 152.264 43.584 L 152.968 43.823 L 153.634 44.152 L 154.252 44.565 L 154.811 45.055 L 155.300 45.613 L 155.713 46.231 L 156.042 46.898 L 156.281 47.601 L 156.426 48.330 L 156.474 49.072 M 152.405 148.402 L 152.326 149.614 L 152.089 150.806 L 151.698 151.956 L 151.161 153.046 L 150.486 154.055 L 149.685 154.969 L 148.772 155.770 L 147.762 156.444 L 146.672 156.982 L 145.522 157.372 L 144.331 157.609 L 143.119 157.689 L 141.907 157.609 L 140.715 157.372 L 139.565 156.982 L 138.476 156.444 L 137.466 155.770 L 136.552 154.969 L 135.752 154.055 L 135.077 153.046 L 134.539 151.956 L 134.149 150.806 L 133.912 149.614 L 133.833 148.402 L 133.912 147.190 L 134.149 145.999 L 134.539 144.849 L 135.077 143.759 L 135.752 142.749 L 136.552 141.836 L 137.466 141.035 L 138.476 140.360 L 139.565 139.823 L 140.715 139.433 L 141.907 139.196 L 143.119 139.116 L 144.331 139.196 L 145.522 139.433 L 146.672 139.823 L 147.762 140.360 L 148.772 141.035 L 149.685 141.836 L 150.486 142.749 L 151.161 143.759 L 151.698 144.849 L 152.089 145.999 L 152.326 147.190 L 152.405 148.402 M 316.755 181.224 L 316.698 182.086 L 316.530 182.934 L 316.252 183.753 L 315.869 184.528 L 315.389 185.247 L 314.819 185.897 L 314.169 186.467 L 313.450 186.948 L 312.675 187.330 L 311.856 187.608 L 311.008 187.776 L 310.146 187.833 L 309.283 187.776 L 308.435 187.608 L 307.616 187.330 L 306.841 186.948 L 306.122 186.467 L 305.472 185.897 L 304.902 185.247 L 304.422 184.528 L 304.039 183.753 L 303.762 182.934 L 303.593 182.086 L 303.536 181.224 L 303.593 180.361 L 303.762 179.513 L 304.039 178.694 L 304.422 177.919 L 304.902 177.200 L 305.472 176.550 L 306.122 175.980 L 306.841 175.500 L 307.616 175.118 L 308.435 174.840 L 309.283 174.671 L 310.146 174.614 L 311.008 174.671 L 311.856 174.840 L 312.675 175.118 L 313.450 175.500 L 314.169 175.980 L 314.819 176.550 L 315.389 177.200 L 315.869 177.919 L 316.252 178.694 L 316.530 179.513 L 316.698 180.361 L 316.755 181.224 M 190.921 119.775 L 190.855 120.784 L 190.658 121.776 L 190.333 122.733 L 189.886 123.640 L 189.324 124.481 L 188.657 125.241 L 187.897 125.908 L 187.056 126.469 L 186.150 126.917 L 185.192 127.242 L 184.200 127.439 L 183.191 127.505 L 182.183 127.439 L 181.191 127.242 L 180.233 126.917 L 179.327 126.469 L 178.486 125.908 L 177.726 125.241 L 177.059 124.481 L 176.497 123.640 L 176.050 122.733 L 175.725 121.776 L 175.528 120.784 L 175.462 119.775 L 175.528 118.766 L 175.725 117.775 L 176.050 116.817 L 176.497 115.911 L 177.059 115.070 L 177.726 114.310 L 178.486 113.643 L 179.327 113.081 L 180.233 112.634 L 181.191 112.309 L 182.183 112.112 L 183.191 112.046 L 184.200 112.112 L 185.192 112.309 L 186.150 112.634 L 187.056 113.081 L 187.897 113.643 L 188.657 114.310 L 189.324 115.070 L 189.886 115.911 L 190.333 116.817 L 190.658 117.775 L 190.855 118.766 L 190.921 119.775 M 148.912 238.293 L 148.857 239.134 L 148.693 239.960 L 148.422 240.758 L 148.049 241.514 L 147.581 242.214 L 147.025 242.848 L 146.392 243.404 L 145.691 243.872 L 144.935 244.244 L 144.138 244.515 L 143.311 244.680 L 142.470 244.735 L 141.629 244.680 L 140.803 244.515 L 140.005 244.244 L 139.249 243.872 L 138.549 243.404 L 137.915 242.848 L 137.360 242.214 L 136.891 241.514 L 136.519 240.758 L 136.248 239.960 L 136.083 239.134 L 136.028 238.293 L 136.083 237.452 L 136.248 236.626 L 136.519 235.828 L 136.891 235.072 L 137.360 234.371 L 137.915 233.738 L 138.549 233.182 L 139.249 232.714 L 140.005 232.341 L 140.803 232.071 L 141.629 231.906 L 142.470 231.851 L 143.311 231.906 L 144.138 232.071 L 144.935 232.341 L 145.691 232.714 L 146.392 233.182 L 147.025 233.738 L 147.581 234.371 L 148.049 235.072 L 148.422 235.828 L 148.693 236.626 L 148.857 237.452 L 148.912 238.293 M 104.432 148.020 L 104.370 148.976 L 104.183 149.916 L 103.875 150.823 L 103.451 151.682 L 102.919 152.479 L 102.287 153.199 L 101.567 153.830 L 100.771 154.362 L 99.912 154.786 L 99.005 155.094 L 98.065 155.281 L 97.109 155.344 L 96.153 155.281 L 95.214 155.094 L 94.307 154.786 L 93.448 154.362 L 92.651 153.830 L 91.931 153.199 L 91.299 152.479 L 90.767 151.682 L 90.344 150.823 L 90.036 149.916 L 89.849 148.976 L 89.786 148.020 L 89.849 147.065 L 90.036 146.125 L 90.344 145.218 L 90.767 144.359 L 91.299 143.562 L 91.931 142.842 L 92.651 142.211 L 93.448 141.678 L 94.307 141.255 L 95.214 140.947 L 96.153 140.760 L 97.109 140.697 L 98.065 140.760 L 99.005 140.947 L 99.912 141.255 L 100.771 141.678 L 101.567 142.211 L 102.287 142.842 L 102.919 143.562 L 103.451 144.359 L 103.875 145.218 L 104.183 146.125 L 104.370 147.065 L 104.432 148.020 M 135.720 195.708 L 135.662 196.586 L 135.490 197.449 L 135.208 198.282 L 134.819 199.071 L 134.330 199.802 L 133.750 200.463 L 133.089 201.043 L 132.357 201.532 L 131.568 201.921 L 130.735 202.204 L 129.872 202.376 L 128.995 202.433 L 128.117 202.376 L 127.254 202.204 L 126.421 201.921 L 125.632 201.532 L 124.901 201.043 L 124.239 200.463 L 123.659 199.802 L 123.171 199.071 L 122.782 198.282 L 122.499 197.449 L 122.327 196.586 L 122.270 195.708 L 122.327 194.830 L 122.499 193.968 L 122.782 193.135 L 123.171 192.346 L 123.659 191.614 L 124.239 190.953 L 124.901 190.373 L 125.632 189.884 L 126.421 189.495 L 127.254 189.213 L 128.117 189.041 L 128.995 188.983 L 129.872 189.041 L 130.735 189.213 L 131.568 189.495 L 132.357 189.884 L 133.089 190.373 L 133.750 190.953 L 134.330 191.614 L 134.819 192.346 L 135.208 193.135 L 135.490 193.968 L 135.662 194.830 L 135.720 195.708 M 241.289 152.709 L 241.226 153.663 L 241.039 154.601 L 240.732 155.507 L 240.309 156.365 L 239.778 157.160 L 239.147 157.879 L 238.428 158.509 L 237.633 159.040 L 236.776 159.463 L 235.870 159.771 L 234.932 159.957 L 233.978 160.020 L 233.024 159.957 L 232.086 159.771 L 231.180 159.463 L 230.322 159.040 L 229.527 158.509 L 228.808 157.879 L 228.178 157.160 L 227.646 156.365 L 227.224 155.507 L 226.916 154.601 L 226.730 153.663 L 226.667 152.709 L 226.730 151.755 L 226.916 150.817 L 227.224 149.911 L 227.646 149.054 L 228.178 148.259 L 228.808 147.540 L 229.527 146.909 L 230.322 146.378 L 231.180 145.955 L 232.086 145.648 L 233.024 145.461 L 233.978 145.398 L 234.932 145.461 L 235.870 145.648 L 236.776 145.955 L 237.633 146.378 L 238.428 146.909 L 239.147 147.540 L 239.778 148.259 L 240.309 149.054 L 240.732 149.911 L 241.039 150.817 L 241.226 151.755 L 241.289 152.709 M 246.051 89.504 L 246.004 90.220 L 245.864 90.924 L 245.634 91.604 L 245.316 92.248 L 244.917 92.845 L 244.444 93.385 L 243.904 93.858 L 243.307 94.257 L 242.663 94.574 L 241.984 94.805 L 241.280 94.945 L 240.563 94.992 L 239.847 94.945 L 239.143 94.805 L 238.463 94.574 L 237.819 94.257 L 237.222 93.858 L 236.682 93.385 L 236.209 92.845 L 235.810 92.248 L 235.493 91.604 L 235.262 90.924 L 235.122 90.220 L 235.075 89.504 L 235.122 88.787 L 235.262 88.083 L 235.493 87.403 L 235.810 86.760 L 236.209 86.163 L 236.682 85.623 L 237.222 85.150 L 237.819 84.751 L 238.463 84.433 L 239.143 84.202 L 239.847 84.062 L 240.563 84.015 L 241.280 84.062 L 241.984 84.202 L 242.663 84.433 L 243.307 84.751 L 243.904 85.150 L 244.444 85.623 L 244.917 86.163 L 245.316 86.760 L 245.634 87.403 L 245.864 88.083 L 246.004 88.787 L 246.051 89.504 M 110.189 119.764 L 110.144 120.461 L 110.008 121.146 L 109.783 121.808 L 109.474 122.434 L 109.086 123.015 L 108.626 123.540 L 108.100 124.000 L 107.520 124.388 L 106.893 124.697 L 106.232 124.922 L 105.547 125.058 L 104.850 125.104 L 104.153 125.058 L 103.468 124.922 L 102.807 124.697 L 102.180 124.388 L 101.600 124.000 L 101.075 123.540 L 100.614 123.015 L 100.226 122.434 L 99.917 121.808 L 99.693 121.146 L 99.556 120.461 L 99.511 119.764 L 99.556 119.067 L 99.693 118.382 L 99.917 117.721 L 100.226 117.095 L 100.614 116.514 L 101.075 115.989 L 101.600 115.528 L 102.180 115.140 L 102.807 114.831 L 103.468 114.607 L 104.153 114.471 L 104.850 114.425 L 105.547 114.471 L 106.232 114.607 L 106.893 114.831 L 107.520 115.140 L 108.100 115.528 L 108.626 115.989 L 109.086 116.514 L 109.474 117.095 L 109.783 117.721 L 110.008 118.382 L 110.144 119.067 L 110.189 119.764 M 256.898 216.234 L 256.813 217.524 L 256.561 218.793 L 256.145 220.017 L 255.573 221.177 L 254.855 222.252 L 254.002 223.224 L 253.030 224.077 L 251.955 224.795 L 250.795 225.367 L 249.570 225.783 L 248.302 226.035 L 247.012 226.120 L 245.721 226.035 L 244.453 225.783 L 243.228 225.367 L 242.069 224.795 L 240.994 224.077 L 240.021 223.224 L 239.169 222.252 L 238.450 221.177 L 237.878 220.017 L 237.463 218.793 L 237.210 217.524 L 237.126 216.234 L 237.210 214.944 L 237.463 213.675 L 237.878 212.451 L 238.450 211.291 L 239.169 210.216 L 240.021 209.244 L 240.994 208.391 L 242.069 207.673 L 243.228 207.101 L 244.453 206.685 L 245.721 206.433 L 247.012 206.348 L 248.302 206.433 L 249.570 206.685 L 250.795 207.101 L 251.955 207.673 L 253.030 208.391 L 254.002 209.244 L 254.855 210.216 L 255.573 211.291 L 256.145 212.451 L 256.561 213.675 L 256.813 214.944 L 256.898 216.234 M 203.415 220.231 L 203.357 221.115 L 203.184 221.984 L 202.900 222.824 L 202.508 223.618 L 202.015 224.355 L 201.431 225.021 L 200.765 225.606 L 200.028 226.098 L 199.233 226.490 L 198.394 226.775 L 197.525 226.948 L 196.641 227.006 L 195.756 226.948 L 194.887 226.775 L 194.048 226.490 L 193.253 226.098 L 192.516 225.606 L 191.850 225.021 L 191.266 224.355 L 190.774 223.618 L 190.382 222.824 L 190.097 221.984 L 189.924 221.115 L 189.866 220.231 L 189.924 219.347 L 190.097 218.478 L 190.382 217.639 L 190.774 216.844 L 191.266 216.107 L 191.850 215.441 L 192.516 214.856 L 193.253 214.364 L 194.048 213.972 L 194.887 213.687 L 195.756 213.514 L 196.641 213.456 L 197.525 213.514 L 198.394 213.687 L 199.233 213.972 L 200.028 214.364 L 200.765 214.856 L 201.431 215.441 L 202.015 216.107 L 202.508 216.844 L 202.900 217.639 L 203.184 218.478 L 203.357 219.347 L 203.415 220.231 M 195.683 153.887 L 195.628 154.728 L 195.463 155.554 L 195.192 156.352 L 194.820 157.108 L 194.352 157.808 L 193.796 158.442 L 193.163 158.997 L 192.462 159.465 L 191.706 159.838 L 190.909 160.109 L 190.082 160.273 L 189.241 160.328 L 188.401 160.273 L 187.574 160.109 L 186.776 159.838 L 186.021 159.465 L 185.320 158.997 L 184.687 158.442 L 184.131 157.808 L 183.663 157.108 L 183.290 156.352 L 183.019 155.554 L 182.855 154.728 L 182.800 153.887 L 182.855 153.046 L 183.019 152.220 L 183.290 151.422 L 183.663 150.666 L 184.131 149.966 L 184.687 149.332 L 185.320 148.777 L 186.021 148.309 L 186.776 147.936 L 187.574 147.665 L 188.401 147.501 L 189.241 147.446 L 190.082 147.501 L 190.909 147.665 L 191.706 147.936 L 192.462 148.309 L 193.163 148.777 L 193.796 149.332 L 194.352 149.966 L 194.820 150.666 L 195.192 151.422 L 195.463 152.220 L 195.628 153.046 L 195.683 153.887 M 290.837 131.992 L 290.796 132.620 L 290.673 133.237 L 290.471 133.833 L 290.192 134.397 L 289.843 134.920 L 289.428 135.393 L 288.955 135.808 L 288.432 136.158 L 287.867 136.436 L 287.271 136.638 L 286.654 136.761 L 286.026 136.802 L 285.398 136.761 L 284.781 136.638 L 284.185 136.436 L 283.621 136.158 L 283.098 135.808 L 282.625 135.393 L 282.210 134.920 L 281.860 134.397 L 281.582 133.833 L 281.380 133.237 L 281.257 132.620 L 281.216 131.992 L 281.257 131.364 L 281.380 130.747 L 281.582 130.151 L 281.860 129.587 L 282.210 129.063 L 282.625 128.590 L 283.098 128.175 L 283.621 127.826 L 284.185 127.547 L 284.781 127.345 L 285.398 127.222 L 286.026 127.181 L 286.654 127.222 L 287.271 127.345 L 287.867 127.547 L 288.432 127.826 L 288.955 128.175 L 289.428 128.590 L 289.843 129.063 L 290.192 129.587 L 290.471 130.151 L 290.673 130.747 L 290.796 131.364 L 290.837 131.992 M 309.236 81.698 L 309.190 82.412 L 309.050 83.113 L 308.820 83.790 L 308.504 84.432 L 308.107 85.026 L 307.635 85.564 L 307.097 86.036 L 306.503 86.433 L 305.861 86.749 L 305.184 86.979 L 304.483 87.118 L 303.769 87.165 L 303.056 87.118 L 302.354 86.979 L 301.677 86.749 L 301.036 86.433 L 300.441 86.036 L 299.903 85.564 L 299.432 85.026 L 299.035 84.432 L 298.718 83.790 L 298.488 83.113 L 298.349 82.412 L 298.302 81.698 L 298.349 80.985 L 298.488 80.283 L 298.718 79.606 L 299.035 78.965 L 299.432 78.370 L 299.903 77.832 L 300.441 77.361 L 301.036 76.963 L 301.677 76.647 L 302.354 76.417 L 303.056 76.278 L 303.769 76.231 L 304.483 76.278 L 305.184 76.417 L 305.861 76.647 L 306.503 76.963 L 307.097 77.361 L 307.635 77.832 L 308.107 78.370 L 308.504 78.965 L 308.820 79.606 L 309.050 80.283 L 309.190 80.985 L 309.236 81.698 M 225.722 169.540 L 225.672 170.296 L 225.524 171.040 L 225.280 171.758 L 224.945 172.438 L 224.523 173.069 L 224.023 173.639 L 223.453 174.139 L 222.823 174.561 L 222.143 174.896 L 221.424 175.140 L 220.681 175.288 L 219.924 175.337 L 219.167 175.288 L 218.423 175.140 L 217.705 174.896 L 217.025 174.561 L 216.394 174.139 L 215.824 173.639 L 215.324 173.069 L 214.903 172.438 L 214.567 171.758 L 214.324 171.040 L 214.176 170.296 L 214.126 169.540 L 214.176 168.783 L 214.324 168.039 L 214.567 167.321 L 214.903 166.641 L 215.324 166.010 L 215.824 165.440 L 216.394 164.940 L 217.025 164.519 L 217.705 164.183 L 218.423 163.939 L 219.167 163.791 L 219.924 163.742 L 220.681 163.791 L 221.424 163.939 L 222.143 164.183 L 222.823 164.519 L 223.453 164.940 L 224.023 165.440 L 224.523 166.010 L 224.945 166.641 L 225.280 167.321 L 225.524 168.039 L 225.672 168.783 L 225.722 169.540 M 321.494 169.901 L 321.452 170.531 L 321.329 171.150 L 321.126 171.747 L 320.847 172.313 L 320.497 172.838 L 320.081 173.313 L 319.606 173.729 L 319.081 174.079 L 318.515 174.358 L 317.918 174.561 L 317.299 174.684 L 316.669 174.726 L 316.039 174.684 L 315.420 174.561 L 314.823 174.358 L 314.257 174.079 L 313.732 173.729 L 313.257 173.313 L 312.841 172.838 L 312.491 172.313 L 312.212 171.747 L 312.009 171.150 L 311.886 170.531 L 311.844 169.901 L 311.886 169.271 L 312.009 168.652 L 312.212 168.055 L 312.491 167.489 L 312.841 166.964 L 313.257 166.489 L 313.732 166.073 L 314.257 165.723 L 314.823 165.443 L 315.420 165.241 L 316.039 165.118 L 316.669 165.076 L 317.299 165.118 L 317.918 165.241 L 318.515 165.443 L 319.081 165.723 L 319.606 166.073 L 320.081 166.489 L 320.497 166.964 L 320.847 167.489 L 321.126 168.055 L 321.329 168.652 L 321.452 169.271 L 321.494 169.901 M 168.249 43.920 L 168.206 44.576 L 168.077 45.221 L 167.866 45.844 L 167.575 46.434 L 167.210 46.980 L 166.776 47.475 L 166.282 47.908 L 165.735 48.274 L 165.145 48.565 L 164.522 48.776 L 163.877 48.904 L 163.221 48.947 L 162.565 48.904 L 161.920 48.776 L 161.297 48.565 L 160.707 48.274 L 160.161 47.908 L 159.666 47.475 L 159.233 46.980 L 158.867 46.434 L 158.576 45.844 L 158.365 45.221 L 158.237 44.576 L 158.194 43.920 L 158.237 43.264 L 158.365 42.619 L 158.576 41.996 L 158.867 41.406 L 159.233 40.859 L 159.666 40.365 L 160.161 39.931 L 160.707 39.566 L 161.297 39.275 L 161.920 39.064 L 162.565 38.935 L 163.221 38.892 L 163.877 38.935 L 164.522 39.064 L 165.145 39.275 L 165.735 39.566 L 166.282 39.931 L 166.776 40.365 L 167.210 40.859 L 167.575 41.406 L 167.866 41.996 L 168.077 42.619 L 168.206 43.264 L 168.249 43.920 M 320.369 96.125 L 320.309 97.040 L 320.130 97.940 L 319.835 98.808 L 319.429 99.631 L 318.920 100.393 L 318.315 101.083 L 317.626 101.688 L 316.863 102.197 L 316.040 102.603 L 315.172 102.898 L 314.272 103.077 L 313.357 103.137 L 312.442 103.077 L 311.543 102.898 L 310.674 102.603 L 309.852 102.197 L 309.089 101.688 L 308.399 101.083 L 307.795 100.393 L 307.285 99.631 L 306.880 98.808 L 306.585 97.940 L 306.406 97.040 L 306.346 96.125 L 306.406 95.210 L 306.585 94.310 L 306.880 93.442 L 307.285 92.619 L 307.795 91.857 L 308.399 91.167 L 309.089 90.563 L 309.852 90.053 L 310.674 89.647 L 311.543 89.353 L 312.442 89.174 L 313.357 89.114 L 314.272 89.174 L 315.172 89.353 L 316.040 89.647 L 316.863 90.053 L 317.626 90.563 L 318.315 91.167 L 318.920 91.857 L 319.429 92.619 L 319.835 93.442 L 320.130 94.310 L 320.309 95.210 L 320.369 96.125 M 254.817 74.357 L 254.770 75.073 L 254.630 75.777 L 254.399 76.456 L 254.082 77.100 L 253.683 77.697 L 253.210 78.236 L 252.671 78.709 L 252.074 79.108 L 251.431 79.425 L 250.751 79.656 L 250.047 79.796 L 249.331 79.843 L 248.615 79.796 L 247.912 79.656 L 247.232 79.425 L 246.589 79.108 L 245.992 78.709 L 245.453 78.236 L 244.979 77.697 L 244.581 77.100 L 244.263 76.456 L 244.033 75.777 L 243.893 75.073 L 243.846 74.357 L 243.893 73.641 L 244.033 72.937 L 244.263 72.258 L 244.581 71.614 L 244.979 71.018 L 245.453 70.478 L 245.992 70.005 L 246.589 69.607 L 247.232 69.289 L 247.912 69.059 L 248.615 68.919 L 249.331 68.872 L 250.047 68.919 L 250.751 69.059 L 251.431 69.289 L 252.074 69.607 L 252.671 70.005 L 253.210 70.478 L 253.683 71.018 L 254.082 71.614 L 254.399 72.258 L 254.630 72.937 L 254.770 73.641 L 254.817 74.357 M 231.299 78.846 L 231.258 79.474 L 231.135 80.092 L 230.932 80.688 L 230.654 81.253 L 230.304 81.776 L 229.889 82.249 L 229.416 82.665 L 228.892 83.014 L 228.328 83.293 L 227.731 83.495 L 227.114 83.618 L 226.486 83.659 L 225.857 83.618 L 225.240 83.495 L 224.644 83.293 L 224.079 83.014 L 223.555 82.665 L 223.082 82.249 L 222.667 81.776 L 222.317 81.253 L 222.039 80.688 L 221.836 80.092 L 221.713 79.474 L 221.672 78.846 L 221.713 78.218 L 221.836 77.600 L 222.039 77.004 L 222.317 76.439 L 222.667 75.916 L 223.082 75.442 L 223.555 75.027 L 224.079 74.677 L 224.644 74.399 L 225.240 74.196 L 225.857 74.074 L 226.486 74.032 L 227.114 74.074 L 227.731 74.196 L 228.328 74.399 L 228.892 74.677 L 229.416 75.027 L 229.889 75.442 L 230.304 75.916 L 230.654 76.439 L 230.932 77.004 L 231.135 77.600 L 231.258 78.218 L 231.299 78.846 M 211.887 163.168 L 211.832 164.012 L 211.667 164.841 L 211.395 165.641 L 211.021 166.400 L 210.552 167.102 L 209.994 167.738 L 209.359 168.295 L 208.656 168.765 L 207.898 169.139 L 207.097 169.411 L 206.268 169.576 L 205.425 169.631 L 204.581 169.576 L 203.752 169.411 L 202.951 169.139 L 202.193 168.765 L 201.490 168.295 L 200.855 167.738 L 200.297 167.102 L 199.828 166.400 L 199.454 165.641 L 199.182 164.841 L 199.017 164.012 L 198.962 163.168 L 199.017 162.325 L 199.182 161.496 L 199.454 160.695 L 199.828 159.937 L 200.297 159.234 L 200.855 158.599 L 201.490 158.041 L 202.193 157.572 L 202.951 157.198 L 203.752 156.926 L 204.581 156.761 L 205.425 156.706 L 206.268 156.761 L 207.097 156.926 L 207.898 157.198 L 208.656 157.572 L 209.359 158.041 L 209.994 158.599 L 210.552 159.234 L 211.021 159.937 L 211.395 160.695 L 211.667 161.496 L 211.832 162.325 L 211.887 163.168 M 232.231 118.756 L 232.171 119.661 L 231.994 120.551 L 231.703 121.410 L 231.301 122.224 L 230.797 122.979 L 230.199 123.661 L 229.517 124.259 L 228.762 124.764 L 227.948 125.165 L 227.089 125.457 L 226.199 125.634 L 225.293 125.693 L 224.388 125.634 L 223.498 125.457 L 222.638 125.165 L 221.825 124.764 L 221.070 124.259 L 220.388 123.661 L 219.789 122.979 L 219.285 122.224 L 218.884 121.410 L 218.592 120.551 L 218.415 119.661 L 218.356 118.756 L 218.415 117.850 L 218.592 116.960 L 218.884 116.101 L 219.285 115.287 L 219.789 114.532 L 220.388 113.850 L 221.070 113.252 L 221.825 112.748 L 222.638 112.346 L 223.498 112.055 L 224.388 111.877 L 225.293 111.818 L 226.199 111.877 L 227.089 112.055 L 227.948 112.346 L 228.762 112.748 L 229.517 113.252 L 230.199 113.850 L 230.797 114.532 L 231.301 115.287 L 231.703 116.101 L 231.994 116.960 L 232.171 117.850 L 232.231 118.756 M 204.754 234.183 L 204.711 234.829 L 204.585 235.464 L 204.377 236.077 L 204.091 236.658 L 203.731 237.196 L 203.305 237.682 L 202.818 238.109 L 202.280 238.469 L 201.699 238.755 L 201.086 238.963 L 200.451 239.089 L 199.806 239.132 L 199.160 239.089 L 198.525 238.963 L 197.912 238.755 L 197.331 238.469 L 196.793 238.109 L 196.307 237.682 L 195.880 237.196 L 195.520 236.658 L 195.234 236.077 L 195.026 235.464 L 194.900 234.829 L 194.857 234.183 L 194.900 233.537 L 195.026 232.903 L 195.234 232.290 L 195.520 231.709 L 195.880 231.171 L 196.307 230.684 L 196.793 230.258 L 197.331 229.898 L 197.912 229.612 L 198.525 229.404 L 199.160 229.277 L 199.806 229.235 L 200.451 229.277 L 201.086 229.404 L 201.699 229.612 L 202.280 229.898 L 202.818 230.258 L 203.305 230.684 L 203.731 231.171 L 204.091 231.709 L 204.377 232.290 L 204.585 232.903 L 204.711 233.537 L 204.754 234.183 M 102.342 161.695 L 102.301 162.312 L 102.181 162.918 L 101.982 163.503 L 101.709 164.056 L 101.366 164.570 L 100.959 165.034 L 100.494 165.442 L 99.981 165.785 L 99.427 166.058 L 98.842 166.257 L 98.236 166.377 L 97.620 166.418 L 97.003 166.377 L 96.398 166.257 L 95.813 166.058 L 95.259 165.785 L 94.745 165.442 L 94.281 165.034 L 93.874 164.570 L 93.530 164.056 L 93.257 163.503 L 93.059 162.918 L 92.938 162.312 L 92.898 161.695 L 92.938 161.079 L 93.059 160.473 L 93.257 159.888 L 93.530 159.334 L 93.874 158.821 L 94.281 158.356 L 94.745 157.949 L 95.259 157.606 L 95.813 157.333 L 96.398 157.134 L 97.003 157.014 L 97.620 156.973 L 98.236 157.014 L 98.842 157.134 L 99.427 157.333 L 99.981 157.606 L 100.494 157.949 L 100.959 158.356 L 101.366 158.821 L 101.709 159.334 L 101.982 159.888 L 102.181 160.473 L 102.301 161.079 L 102.342 161.695 M 192.992 196.097 L 192.931 197.035 L 192.748 197.957 L 192.445 198.847 L 192.029 199.691 L 191.507 200.472 L 190.887 201.179 L 190.180 201.799 L 189.399 202.322 L 188.555 202.737 L 187.665 203.040 L 186.743 203.223 L 185.805 203.285 L 184.867 203.223 L 183.944 203.040 L 183.054 202.737 L 182.211 202.322 L 181.429 201.799 L 180.722 201.179 L 180.102 200.472 L 179.580 199.691 L 179.164 198.847 L 178.862 197.957 L 178.679 197.035 L 178.617 196.097 L 178.679 195.159 L 178.862 194.237 L 179.164 193.346 L 179.580 192.503 L 180.102 191.721 L 180.722 191.014 L 181.429 190.395 L 182.211 189.872 L 183.054 189.456 L 183.944 189.154 L 184.867 188.971 L 185.805 188.909 L 186.743 188.971 L 187.665 189.154 L 188.555 189.456 L 189.399 189.872 L 190.180 190.395 L 190.887 191.014 L 191.507 191.721 L 192.029 192.503 L 192.445 193.346 L 192.748 194.237 L 192.931 195.159 L 192.992 196.097 M 244.855 34.348 L 244.806 35.095 L 244.660 35.830 L 244.420 36.540 L 244.088 37.211 L 243.672 37.834 L 243.178 38.398 L 242.615 38.892 L 241.992 39.308 L 241.320 39.639 L 240.611 39.880 L 239.876 40.026 L 239.128 40.075 L 238.381 40.026 L 237.646 39.880 L 236.937 39.639 L 236.265 39.308 L 235.642 38.892 L 235.079 38.398 L 234.585 37.834 L 234.169 37.211 L 233.837 36.540 L 233.596 35.830 L 233.450 35.095 L 233.401 34.348 L 233.450 33.600 L 233.596 32.866 L 233.837 32.156 L 234.169 31.484 L 234.585 30.861 L 235.079 30.298 L 235.642 29.804 L 236.265 29.388 L 236.937 29.057 L 237.646 28.816 L 238.381 28.670 L 239.128 28.621 L 239.876 28.670 L 240.611 28.816 L 241.320 29.057 L 241.992 29.388 L 242.615 29.804 L 243.178 30.298 L 243.672 30.861 L 244.088 31.484 L 244.420 32.156 L 244.660 32.866 L 244.806 33.600 L 244.855 34.348 M 139.106 228.936 L 139.055 229.726 L 138.900 230.502 L 138.646 231.252 L 138.296 231.962 L 137.856 232.620 L 137.334 233.215 L 136.739 233.737 L 136.080 234.177 L 135.370 234.527 L 134.621 234.782 L 133.844 234.936 L 133.054 234.988 L 132.264 234.936 L 131.488 234.782 L 130.738 234.527 L 130.028 234.177 L 129.370 233.737 L 128.775 233.215 L 128.253 232.620 L 127.813 231.962 L 127.463 231.252 L 127.208 230.502 L 127.054 229.726 L 127.002 228.936 L 127.054 228.146 L 127.208 227.370 L 127.463 226.620 L 127.813 225.910 L 128.253 225.252 L 128.775 224.656 L 129.370 224.135 L 130.028 223.695 L 130.738 223.345 L 131.488 223.090 L 132.264 222.936 L 133.054 222.884 L 133.844 222.936 L 134.621 223.090 L 135.370 223.345 L 136.080 223.695 L 136.739 224.135 L 137.334 224.656 L 137.856 225.252 L 138.296 225.910 L 138.646 226.620 L 138.900 227.370 L 139.055 228.146 L 139.106 228.936 M 127.561 221.192 L 127.508 222.005 L 127.349 222.804 L 127.087 223.576 L 126.727 224.307 L 126.274 224.984 L 125.737 225.597 L 125.124 226.134 L 124.447 226.586 L 123.716 226.947 L 122.945 227.209 L 122.146 227.368 L 121.333 227.421 L 120.520 227.368 L 119.721 227.209 L 118.949 226.947 L 118.218 226.586 L 117.541 226.134 L 116.928 225.597 L 116.391 224.984 L 115.938 224.307 L 115.578 223.576 L 115.316 222.804 L 115.157 222.005 L 115.104 221.192 L 115.157 220.379 L 115.316 219.580 L 115.578 218.809 L 115.938 218.078 L 116.391 217.400 L 116.928 216.788 L 117.541 216.251 L 118.218 215.798 L 118.949 215.438 L 119.721 215.176 L 120.520 215.017 L 121.333 214.964 L 122.146 215.017 L 122.945 215.176 L 123.716 215.438 L 124.447 215.798 L 125.124 216.251 L 125.737 216.788 L 126.274 217.400 L 126.727 218.078 L 127.087 218.809 L 127.349 219.580 L 127.508 220.379 L 127.561 221.192 M 214.697 121.145 L 214.651 121.834 L 214.517 122.510 L 214.295 123.164 L 213.990 123.782 L 213.607 124.356 L 213.152 124.875 L 212.633 125.330 L 212.060 125.713 L 211.441 126.018 L 210.788 126.240 L 210.111 126.374 L 209.423 126.419 L 208.734 126.374 L 208.058 126.240 L 207.404 126.018 L 206.786 125.713 L 206.212 125.330 L 205.693 124.875 L 205.238 124.356 L 204.855 123.782 L 204.550 123.164 L 204.328 122.510 L 204.194 121.834 L 204.148 121.145 L 204.194 120.457 L 204.328 119.780 L 204.550 119.127 L 204.855 118.508 L 205.238 117.935 L 205.693 117.416 L 206.212 116.961 L 206.786 116.578 L 207.404 116.273 L 208.058 116.051 L 208.734 115.916 L 209.423 115.871 L 210.111 115.916 L 210.788 116.051 L 211.441 116.273 L 212.060 116.578 L 212.633 116.961 L 213.152 117.416 L 213.607 117.935 L 213.990 118.508 L 214.295 119.127 L 214.517 119.780 L 214.651 120.457 L 214.697 121.145 M 308.561 161.670 L 308.520 162.306 L 308.395 162.931 L 308.190 163.535 L 307.909 164.106 L 307.555 164.636 L 307.134 165.115 L 306.655 165.535 L 306.125 165.889 L 305.554 166.171 L 304.951 166.376 L 304.325 166.500 L 303.690 166.542 L 303.054 166.500 L 302.429 166.376 L 301.825 166.171 L 301.254 165.889 L 300.724 165.535 L 300.245 165.115 L 299.825 164.636 L 299.471 164.106 L 299.189 163.535 L 298.984 162.931 L 298.860 162.306 L 298.818 161.670 L 298.860 161.035 L 298.984 160.410 L 299.189 159.806 L 299.471 159.235 L 299.825 158.705 L 300.245 158.226 L 300.724 157.805 L 301.254 157.451 L 301.825 157.170 L 302.429 156.965 L 303.054 156.840 L 303.690 156.799 L 304.325 156.840 L 304.951 156.965 L 305.554 157.170 L 306.125 157.451 L 306.655 157.805 L 307.134 158.226 L 307.555 158.705 L 307.909 159.235 L 308.190 159.806 L 308.395 160.410 L 308.520 161.035 L 308.561 161.670 M 214.294 229.619 L 214.253 230.242 L 214.132 230.854 L 213.931 231.444 L 213.655 232.004 L 213.309 232.523 L 212.897 232.992 L 212.428 233.403 L 211.910 233.749 L 211.350 234.025 L 210.759 234.226 L 210.148 234.348 L 209.525 234.388 L 208.903 234.348 L 208.291 234.226 L 207.700 234.025 L 207.141 233.749 L 206.622 233.403 L 206.153 232.992 L 205.742 232.523 L 205.395 232.004 L 205.119 231.444 L 204.919 230.854 L 204.797 230.242 L 204.756 229.619 L 204.797 228.997 L 204.919 228.385 L 205.119 227.794 L 205.395 227.235 L 205.742 226.716 L 206.153 226.247 L 206.622 225.836 L 207.141 225.489 L 207.700 225.213 L 208.291 225.013 L 208.903 224.891 L 209.525 224.850 L 210.148 224.891 L 210.759 225.013 L 211.350 225.213 L 211.910 225.489 L 212.428 225.836 L 212.897 226.247 L 213.309 226.716 L 213.655 227.235 L 213.931 227.794 L 214.132 228.385 L 214.253 228.997 L 214.294 229.619 M 281.970 137.935 L 281.912 138.816 L 281.740 139.682 L 281.456 140.518 L 281.066 141.309 L 280.575 142.043 L 279.993 142.707 L 279.329 143.289 L 278.595 143.780 L 277.803 144.170 L 276.967 144.454 L 276.102 144.626 L 275.221 144.684 L 274.340 144.626 L 273.474 144.454 L 272.638 144.170 L 271.846 143.780 L 271.112 143.289 L 270.448 142.707 L 269.866 142.043 L 269.376 141.309 L 268.985 140.518 L 268.701 139.682 L 268.529 138.816 L 268.471 137.935 L 268.529 137.054 L 268.701 136.188 L 268.985 135.352 L 269.376 134.560 L 269.866 133.826 L 270.448 133.162 L 271.112 132.580 L 271.846 132.090 L 272.638 131.699 L 273.474 131.415 L 274.340 131.243 L 275.221 131.185 L 276.102 131.243 L 276.967 131.415 L 277.803 131.699 L 278.595 132.090 L 279.329 132.580 L 279.993 133.162 L 280.575 133.826 L 281.066 134.560 L 281.456 135.352 L 281.740 136.188 L 281.912 137.054 L 281.970 137.935 M 196.042 251.426 L 195.999 252.086 L 195.870 252.735 L 195.657 253.361 L 195.365 253.955 L 194.997 254.505 L 194.561 255.002 L 194.063 255.439 L 193.513 255.806 L 192.920 256.099 L 192.293 256.311 L 191.645 256.440 L 190.984 256.484 L 190.324 256.440 L 189.675 256.311 L 189.049 256.099 L 188.455 255.806 L 187.905 255.439 L 187.408 255.002 L 186.972 254.505 L 186.604 253.955 L 186.312 253.361 L 186.099 252.735 L 185.970 252.086 L 185.927 251.426 L 185.970 250.766 L 186.099 250.117 L 186.312 249.490 L 186.604 248.897 L 186.972 248.347 L 187.408 247.849 L 187.905 247.413 L 188.455 247.046 L 189.049 246.753 L 189.675 246.540 L 190.324 246.411 L 190.984 246.368 L 191.645 246.411 L 192.293 246.540 L 192.920 246.753 L 193.513 247.046 L 194.063 247.413 L 194.561 247.849 L 194.997 248.347 L 195.365 248.897 L 195.657 249.490 L 195.870 250.117 L 195.999 250.766 L 196.042 251.426 M 256.676 254.836 L 256.633 255.493 L 256.505 256.139 L 256.293 256.762 L 256.002 257.353 L 255.636 257.900 L 255.202 258.395 L 254.707 258.829 L 254.160 259.195 L 253.569 259.486 L 252.946 259.698 L 252.300 259.826 L 251.643 259.869 L 250.986 259.826 L 250.340 259.698 L 249.717 259.486 L 249.126 259.195 L 248.579 258.829 L 248.084 258.395 L 247.650 257.900 L 247.284 257.353 L 246.993 256.762 L 246.781 256.139 L 246.653 255.493 L 246.610 254.836 L 246.653 254.179 L 246.781 253.533 L 246.993 252.910 L 247.284 252.319 L 247.650 251.772 L 248.084 251.277 L 248.579 250.843 L 249.126 250.477 L 249.717 250.186 L 250.340 249.974 L 250.986 249.846 L 251.643 249.803 L 252.300 249.846 L 252.946 249.974 L 253.569 250.186 L 254.160 250.477 L 254.707 250.843 L 255.202 251.277 L 255.636 251.772 L 256.002 252.319 L 256.293 252.910 L 256.505 253.533 L 256.633 254.179 L 256.676 254.836 M 294.112 60.804 L 294.062 61.560 L 293.914 62.302 L 293.671 63.018 L 293.336 63.697 L 292.916 64.326 L 292.417 64.895 L 291.848 65.394 L 291.219 65.815 L 290.540 66.150 L 289.823 66.393 L 289.081 66.540 L 288.326 66.590 L 287.571 66.540 L 286.829 66.393 L 286.112 66.150 L 285.433 65.815 L 284.804 65.394 L 284.235 64.895 L 283.736 64.326 L 283.316 63.697 L 282.981 63.018 L 282.738 62.302 L 282.590 61.560 L 282.540 60.804 L 282.590 60.049 L 282.738 59.307 L 282.981 58.590 L 283.316 57.912 L 283.736 57.282 L 284.235 56.713 L 284.804 56.214 L 285.433 55.794 L 286.112 55.459 L 286.829 55.216 L 287.571 55.068 L 288.326 55.019 L 289.081 55.068 L 289.823 55.216 L 290.540 55.459 L 291.219 55.794 L 291.848 56.214 L 292.417 56.713 L 292.916 57.282 L 293.336 57.912 L 293.671 58.590 L 293.914 59.307 L 294.062 60.049 L 294.112 60.804 M 106.073 132.057 L 106.029 132.724 L 105.899 133.380 L 105.684 134.013 L 105.388 134.612 L 105.017 135.168 L 104.576 135.671 L 104.073 136.112 L 103.517 136.483 L 102.918 136.779 L 102.284 136.994 L 101.629 137.124 L 100.962 137.168 L 100.294 137.124 L 99.639 136.994 L 99.006 136.779 L 98.406 136.483 L 97.850 136.112 L 97.347 135.671 L 96.907 135.168 L 96.535 134.612 L 96.239 134.013 L 96.024 133.380 L 95.894 132.724 L 95.850 132.057 L 95.894 131.390 L 96.024 130.734 L 96.239 130.101 L 96.535 129.501 L 96.907 128.945 L 97.347 128.443 L 97.850 128.002 L 98.406 127.630 L 99.006 127.335 L 99.639 127.120 L 100.294 126.989 L 100.962 126.946 L 101.629 126.989 L 102.284 127.120 L 102.918 127.335 L 103.517 127.630 L 104.073 128.002 L 104.576 128.443 L 105.017 128.945 L 105.388 129.501 L 105.684 130.101 L 105.899 130.734 L 106.029 131.390 L 106.073 132.057 M 321.415 194.692 L 321.372 195.345 L 321.244 195.987 L 321.034 196.607 L 320.744 197.194 L 320.380 197.739 L 319.949 198.231 L 319.456 198.663 L 318.912 199.026 L 318.325 199.316 L 317.705 199.526 L 317.063 199.654 L 316.410 199.697 L 315.757 199.654 L 315.114 199.526 L 314.495 199.316 L 313.907 199.026 L 313.363 198.663 L 312.871 198.231 L 312.439 197.739 L 312.076 197.194 L 311.786 196.607 L 311.576 195.987 L 311.448 195.345 L 311.405 194.692 L 311.448 194.039 L 311.576 193.397 L 311.786 192.777 L 312.076 192.190 L 312.439 191.645 L 312.871 191.153 L 313.363 190.721 L 313.907 190.358 L 314.495 190.068 L 315.114 189.858 L 315.757 189.730 L 316.410 189.687 L 317.063 189.730 L 317.705 189.858 L 318.325 190.068 L 318.912 190.358 L 319.456 190.721 L 319.949 191.153 L 320.380 191.645 L 320.744 192.190 L 321.034 192.777 L 321.244 193.397 L 321.372 194.039 L 321.415 194.692 M 155.577 187.758 L 155.526 188.533 L 155.374 189.296 L 155.124 190.032 L 154.781 190.729 L 154.349 191.375 L 153.836 191.959 L 153.252 192.472 L 152.606 192.904 L 151.909 193.247 L 151.173 193.497 L 150.410 193.649 L 149.635 193.700 L 148.859 193.649 L 148.097 193.497 L 147.361 193.247 L 146.664 192.904 L 146.018 192.472 L 145.433 191.959 L 144.921 191.375 L 144.489 190.729 L 144.145 190.032 L 143.895 189.296 L 143.744 188.533 L 143.693 187.758 L 143.744 186.982 L 143.895 186.220 L 144.145 185.484 L 144.489 184.787 L 144.921 184.141 L 145.433 183.556 L 146.018 183.044 L 146.664 182.612 L 147.361 182.268 L 148.097 182.018 L 148.859 181.867 L 149.635 181.816 L 150.410 181.867 L 151.173 182.018 L 151.909 182.268 L 152.606 182.612 L 153.252 183.044 L 153.836 183.556 L 154.349 184.141 L 154.781 184.787 L 155.124 185.484 L 155.374 186.220 L 155.526 186.982 L 155.577 187.758 M 120.489 95.206 L 120.436 96.017 L 120.277 96.814 L 120.016 97.584 L 119.656 98.313 L 119.205 98.989 L 118.669 99.600 L 118.058 100.136 L 117.382 100.588 L 116.653 100.947 L 115.883 101.208 L 115.086 101.367 L 114.274 101.420 L 113.463 101.367 L 112.666 101.208 L 111.896 100.947 L 111.167 100.588 L 110.491 100.136 L 109.880 99.600 L 109.344 98.989 L 108.892 98.313 L 108.533 97.584 L 108.272 96.814 L 108.113 96.017 L 108.060 95.206 L 108.113 94.394 L 108.272 93.597 L 108.533 92.827 L 108.892 92.098 L 109.344 91.422 L 109.880 90.811 L 110.491 90.275 L 111.167 89.824 L 111.896 89.464 L 112.666 89.203 L 113.463 89.044 L 114.274 88.991 L 115.086 89.044 L 115.883 89.203 L 116.653 89.464 L 117.382 89.824 L 118.058 90.275 L 118.669 90.811 L 119.205 91.422 L 119.656 92.098 L 120.016 92.827 L 120.277 93.597 L 120.436 94.394 L 120.489 95.206 M 227.377 222.830 L 227.336 223.445 L 227.216 224.050 L 227.018 224.634 L 226.745 225.187 L 226.403 225.699 L 225.996 226.163 L 225.533 226.569 L 225.020 226.912 L 224.467 227.185 L 223.883 227.383 L 223.278 227.503 L 222.663 227.543 L 222.048 227.503 L 221.443 227.383 L 220.859 227.185 L 220.306 226.912 L 219.794 226.569 L 219.330 226.163 L 218.923 225.699 L 218.581 225.187 L 218.308 224.634 L 218.110 224.050 L 217.990 223.445 L 217.949 222.830 L 217.990 222.215 L 218.110 221.610 L 218.308 221.026 L 218.581 220.473 L 218.923 219.960 L 219.330 219.497 L 219.794 219.090 L 220.306 218.748 L 220.859 218.475 L 221.443 218.277 L 222.048 218.156 L 222.663 218.116 L 223.278 218.156 L 223.883 218.277 L 224.467 218.475 L 225.020 218.748 L 225.533 219.090 L 225.996 219.497 L 226.403 219.960 L 226.745 220.473 L 227.018 221.026 L 227.216 221.610 L 227.336 222.215 L 227.377 222.830 M 280.679 246.666 L 280.636 247.322 L 280.507 247.967 L 280.296 248.590 L 280.005 249.179 L 279.640 249.726 L 279.206 250.220 L 278.712 250.654 L 278.166 251.019 L 277.576 251.310 L 276.953 251.521 L 276.308 251.650 L 275.652 251.693 L 274.996 251.650 L 274.352 251.521 L 273.729 251.310 L 273.139 251.019 L 272.593 250.654 L 272.098 250.220 L 271.665 249.726 L 271.300 249.179 L 271.009 248.590 L 270.797 247.967 L 270.669 247.322 L 270.626 246.666 L 270.669 246.010 L 270.797 245.365 L 271.009 244.743 L 271.300 244.153 L 271.665 243.607 L 272.098 243.112 L 272.593 242.679 L 273.139 242.313 L 273.729 242.023 L 274.352 241.811 L 274.996 241.683 L 275.652 241.640 L 276.308 241.683 L 276.953 241.811 L 277.576 242.023 L 278.166 242.313 L 278.712 242.679 L 279.206 243.112 L 279.640 243.607 L 280.005 244.153 L 280.296 244.743 L 280.507 245.365 L 280.636 246.010 L 280.679 246.666 M 302.971 150.646 L 302.931 151.251 L 302.813 151.846 L 302.618 152.420 L 302.350 152.963 L 302.013 153.468 L 301.613 153.923 L 301.158 154.323 L 300.653 154.660 L 300.110 154.928 L 299.535 155.123 L 298.941 155.241 L 298.336 155.281 L 297.731 155.241 L 297.136 155.123 L 296.562 154.928 L 296.018 154.660 L 295.514 154.323 L 295.058 153.923 L 294.658 153.468 L 294.322 152.963 L 294.053 152.420 L 293.859 151.846 L 293.740 151.251 L 293.701 150.646 L 293.740 150.041 L 293.859 149.446 L 294.053 148.872 L 294.322 148.328 L 294.658 147.824 L 295.058 147.368 L 295.514 146.969 L 296.018 146.632 L 296.562 146.364 L 297.136 146.169 L 297.731 146.050 L 298.336 146.011 L 298.941 146.050 L 299.535 146.169 L 300.110 146.364 L 300.653 146.632 L 301.158 146.969 L 301.613 147.368 L 302.013 147.824 L 302.350 148.328 L 302.618 148.872 L 302.813 149.446 L 302.931 150.041 L 302.971 150.646" fill="none" stroke="#2dd4bf" stroke-width="1" vector-effect="non-scaling-stroke"/></svg>