<svg xmlns="http://www.w3.org/2000/svg" viewBox="81.62016086573271 21.065823631548653 259.65535601300127 257.9525314004673" width="259.65535601300127" height="257.9525314004673" shape-rendering="geometricPrecision"><rect x="81.62016086573271" y="21.065823631548653" width="259.65535601300127" height="257.9525314004673" fill="#0b0f14"/><path d="M 131.637 163.661 L 131.547 165.031 L 131.279 166.378 L 130.838 167.679 L 130.231 168.910 L 129.468 170.052 L 128.562 171.085 L 127.530 171.990 L 126.388 172.753 L 125.156 173.361 L 123.856 173.802 L 122.509 174.070 L 121.138 174.160 L 119.768 174.070 L 118.421 173.802 L 117.120 173.361 L 115.889 172.753 L 114.747 171.990 L 113.714 171.085 L 112.809 170.052 L 112.046 168.910 L 111.438 167.679 L 110.997 166.378 L 110.729 165.031 L 110.639 163.661 L 110.729 162.291 L 110.997 160.944 L 111.438 159.643 L 112.046 158.411 L 112.809 157.270 L 113.714 156.237 L 114.747 155.331 L 115.889 154.569 L 117.120 153.961 L 118.421 153.520 L 119.768 153.252 L 121.138 153.162 L 122.509 153.252 L 123.856 153.520 L 125.156 153.961 L 126.388 154.569 L 127.530 155.331 L 128.562 156.237 L 129.468 157.270 L 130.231 158.411 L 130.838 159.643 L 131.279 160.944 L 131.547 162.291 L 131.637 163.661 M 308.486 196.460 L 308.395 197.857 L 308.122 199.230 L 307.672 200.556 L 307.052 201.812 L 306.275 202.976 L 305.351 204.029 L 304.299 204.952 L 303.135 205.729 L 301.879 206.349 L 300.553 206.799 L 299.180 207.072 L 297.783 207.163 L 296.386 207.072 L 295.013 206.799 L 293.687 206.349 L 292.431 205.729 L 291.267 204.952 L 290.215 204.029 L 289.292 202.976 L 288.514 201.812 L 287.895 200.556 L 287.445 199.230 L 287.171 197.857 L 287.080 196.460 L 287.171 195.063 L 287.445 193.690 L 287.895 192.364 L 288.514 191.109 L 289.292 189.944 L 290.215 188.892 L 291.267 187.969 L 292.431 187.191 L 293.687 186.572 L 295.013 186.122 L 296.386 185.848 L 297.783 185.757 L 299.180 185.848 L 300.553 186.122 L 301.879 186.572 L 303.135 187.191 L 304.299 187.969 L 305.351 188.892 L 306.275 189.944 L 307.052 191.109 L 307.672 192.364 L 308.122 193.690 L 308.395 195.063 L 308.486 196.460 M 267.830 122.789 L 267.680 125.079 L 267.232 127.331 L 266.494 129.504 L 265.479 131.563 L 264.204 133.471 L 262.691 135.197 L 260.965 136.711 L 259.056 137.986 L 256.998 139.001 L 254.824 139.739 L 252.573 140.187 L 250.282 140.337 L 247.992 140.187 L 245.741 139.739 L 243.567 139.001 L 241.509 137.986 L 239.600 136.711 L 237.874 135.197 L 236.361 133.471 L 235.086 131.563 L 234.070 129.504 L 233.333 127.331 L 232.885 125.079 L 232.735 122.789 L 232.885 120.499 L 233.333 118.247 L 234.070 116.074 L 235.086 114.015 L 236.361 112.107 L 237.874 110.381 L 239.600 108.867 L 241.509 107.592 L 243.567 106.577 L 245.741 105.839 L 247.992 105.391 L 250.282 105.241 L 252.573 105.391 L 254.824 105.839 L 256.998 106.577 L 259.056 107.592 L 260.965 108.867 L 262.691 110.381 L 264.204 112.107 L 265.479 114.015 L 266.494 116.074 L 267.232 118.247 L 267.680 120.499 L 267.830 122.789 M 252.299 171.300 L 252.157 173.467 L 251.733 175.598 L 251.035 177.655 L 250.074 179.604 L 248.867 181.410 L 247.435 183.044 L 245.801 184.476 L 243.995 185.683 L 242.046 186.644 L 239.989 187.342 L 237.858 187.766 L 235.691 187.908 L 233.523 187.766 L 231.392 187.342 L 229.335 186.644 L 227.386 185.683 L 225.580 184.476 L 223.947 183.044 L 222.514 181.410 L 221.307 179.604 L 220.346 177.655 L 219.648 175.598 L 219.224 173.467 L 219.082 171.300 L 219.224 169.132 L 219.648 167.001 L 220.346 164.944 L 221.307 162.995 L 222.514 161.189 L 223.947 159.556 L 225.580 158.123 L 227.386 156.916 L 229.335 155.955 L 231.392 155.257 L 233.523 154.833 L 235.691 154.691 L 237.858 154.833 L 239.989 155.257 L 242.046 155.955 L 243.995 156.916 L 245.801 158.123 L 247.435 159.556 L 248.867 161.189 L 250.074 162.995 L 251.035 164.944 L 251.733 167.001 L 252.157 169.132 L 252.299 171.300 M 146.165 183.867 L 146.125 184.481 L 146.005 185.085 L 145.807 185.668 L 145.535 186.220 L 145.193 186.732 L 144.787 187.195 L 144.324 187.601 L 143.812 187.943 L 143.260 188.216 L 142.677 188.414 L 142.073 188.534 L 141.458 188.574 L 140.844 188.534 L 140.240 188.414 L 139.657 188.216 L 139.105 187.943 L 138.593 187.601 L 138.130 187.195 L 137.724 186.732 L 137.382 186.220 L 137.109 185.668 L 136.911 185.085 L 136.791 184.481 L 136.751 183.867 L 136.791 183.252 L 136.911 182.648 L 137.109 182.065 L 137.382 181.513 L 137.724 181.001 L 138.130 180.538 L 138.593 180.132 L 139.105 179.790 L 139.657 179.518 L 140.240 179.320 L 140.844 179.200 L 141.458 179.160 L 142.073 179.200 L 142.677 179.320 L 143.260 179.518 L 143.812 179.790 L 144.324 180.132 L 144.787 180.538 L 145.193 181.001 L 145.535 181.513 L 145.807 182.065 L 146.005 182.648 L 146.125 183.252 L 146.165 183.867 M 219.784 125.334 L 219.615 127.911 L 219.111 130.445 L 218.281 132.891 L 217.139 135.207 L 215.704 137.355 L 214.001 139.297 L 212.059 141.000 L 209.911 142.435 L 207.595 143.577 L 205.149 144.407 L 202.615 144.911 L 200.038 145.080 L 197.461 144.911 L 194.927 144.407 L 192.482 143.577 L 190.165 142.435 L 188.017 141.000 L 186.075 139.297 L 184.372 137.355 L 182.937 135.207 L 181.795 132.891 L 180.965 130.445 L 180.461 127.911 L 180.292 125.334 L 180.461 122.757 L 180.965 120.223 L 181.795 117.777 L 182.937 115.461 L 184.372 113.313 L 186.075 111.371 L 188.017 109.668 L 190.165 108.233 L 192.482 107.091 L 194.927 106.261 L 197.461 105.757 L 200.038 105.588 L 202.615 105.757 L 205.149 106.261 L 207.595 107.091 L 209.911 108.233 L 212.059 109.668 L 214.001 111.371 L 215.704 113.313 L 217.139 115.461 L 218.281 117.777 L 219.111 120.223 L 219.615 122.757 L 219.784 125.334 M 223.660 252.857 L 223.508 255.164 L 223.057 257.432 L 222.314 259.622 L 221.291 261.696 L 220.007 263.619 L 218.482 265.357 L 216.743 266.882 L 214.821 268.166 L 212.747 269.189 L 210.557 269.932 L 208.289 270.384 L 205.982 270.535 L 203.674 270.384 L 201.406 269.932 L 199.217 269.189 L 197.143 268.166 L 195.220 266.882 L 193.482 265.357 L 191.957 263.619 L 190.672 261.696 L 189.649 259.622 L 188.906 257.432 L 188.455 255.164 L 188.304 252.857 L 188.455 250.549 L 188.906 248.281 L 189.649 246.092 L 190.672 244.018 L 191.957 242.095 L 193.482 240.357 L 195.220 238.832 L 197.143 237.547 L 199.217 236.525 L 201.406 235.781 L 203.674 235.330 L 205.982 235.179 L 208.289 235.330 L 210.557 235.781 L 212.747 236.525 L 214.821 237.547 L 216.743 238.832 L 218.482 240.357 L 220.007 242.095 L 221.291 244.018 L 222.314 246.092 L 223.057 248.281 L 223.508 250.549 L 223.660 252.857 M 204.762 56.749 L 204.663 58.255 L 204.369 59.736 L 203.884 61.165 L 203.216 62.519 L 202.377 63.774 L 201.382 64.909 L 200.247 65.905 L 198.992 66.743 L 197.638 67.411 L 196.208 67.896 L 194.727 68.191 L 193.221 68.290 L 191.715 68.191 L 190.234 67.896 L 188.804 67.411 L 187.450 66.743 L 186.195 65.905 L 185.060 64.909 L 184.065 63.774 L 183.226 62.519 L 182.558 61.165 L 182.073 59.736 L 181.779 58.255 L 181.680 56.749 L 181.779 55.242 L 182.073 53.762 L 182.558 52.332 L 183.226 50.978 L 184.065 49.723 L 185.060 48.588 L 186.195 47.592 L 187.450 46.754 L 188.804 46.086 L 190.234 45.601 L 191.715 45.306 L 193.221 45.207 L 194.727 45.306 L 196.208 45.601 L 197.638 46.086 L 198.992 46.754 L 200.247 47.592 L 201.382 48.588 L 202.377 49.723 L 203.216 50.978 L 203.884 52.332 L 204.369 53.762 L 204.663 55.242 L 204.762 56.749 M 227.000 206.445 L 226.847 208.790 L 226.388 211.094 L 225.633 213.319 L 224.594 215.426 L 223.289 217.379 L 221.740 219.145 L 219.974 220.695 L 218.020 222.000 L 215.913 223.039 L 213.688 223.794 L 211.384 224.252 L 209.040 224.406 L 206.695 224.252 L 204.391 223.794 L 202.166 223.039 L 200.059 222.000 L 198.106 220.695 L 196.340 219.145 L 194.791 217.379 L 193.485 215.426 L 192.446 213.319 L 191.691 211.094 L 191.233 208.790 L 191.079 206.445 L 191.233 204.101 L 191.691 201.797 L 192.446 199.572 L 193.485 197.465 L 194.791 195.512 L 196.340 193.745 L 198.106 192.196 L 200.059 190.891 L 202.166 189.852 L 204.391 189.097 L 206.695 188.638 L 209.040 188.485 L 211.384 188.638 L 213.688 189.097 L 215.913 189.852 L 218.020 190.891 L 219.974 192.196 L 221.740 193.745 L 223.289 195.512 L 224.594 197.465 L 225.633 199.572 L 226.388 201.797 L 226.847 204.101 L 227.000 206.445 M 270.562 61.674 L 270.505 62.550 L 270.334 63.410 L 270.052 64.241 L 269.664 65.028 L 269.176 65.758 L 268.598 66.417 L 267.938 66.996 L 267.208 67.484 L 266.421 67.872 L 265.590 68.154 L 264.730 68.325 L 263.854 68.382 L 262.979 68.325 L 262.118 68.154 L 261.287 67.872 L 260.500 67.484 L 259.771 66.996 L 259.111 66.417 L 258.532 65.758 L 258.045 65.028 L 257.657 64.241 L 257.375 63.410 L 257.204 62.550 L 257.146 61.674 L 257.204 60.799 L 257.375 59.938 L 257.657 59.107 L 258.045 58.320 L 258.532 57.590 L 259.111 56.931 L 259.771 56.352 L 260.500 55.865 L 261.287 55.477 L 262.118 55.195 L 262.979 55.023 L 263.854 54.966 L 264.730 55.023 L 265.590 55.195 L 266.421 55.477 L 267.208 55.865 L 267.938 56.352 L 268.598 56.931 L 269.176 57.590 L 269.664 58.320 L 270.052 59.107 L 270.334 59.938 L 270.505 60.799 L 270.562 61.674 M 259.782 51.777 L 259.712 52.849 L 259.502 53.904 L 259.156 54.922 L 258.681 55.886 L 258.084 56.780 L 257.375 57.588 L 256.567 58.297 L 255.673 58.894 L 254.709 59.369 L 253.691 59.715 L 252.636 59.925 L 251.564 59.995 L 250.491 59.925 L 249.437 59.715 L 248.419 59.369 L 247.454 58.894 L 246.561 58.297 L 245.752 57.588 L 245.044 56.780 L 244.446 55.886 L 243.971 54.922 L 243.625 53.904 L 243.416 52.849 L 243.345 51.777 L 243.416 50.704 L 243.625 49.649 L 243.971 48.631 L 244.446 47.667 L 245.044 46.773 L 245.752 45.965 L 246.561 45.256 L 247.454 44.659 L 248.419 44.184 L 249.437 43.838 L 250.491 43.628 L 251.564 43.558 L 252.636 43.628 L 253.691 43.838 L 254.709 44.184 L 255.673 44.659 L 256.567 45.256 L 257.375 45.965 L 258.084 46.773 L 258.681 47.667 L 259.156 48.631 L 259.502 49.649 L 259.712 50.704 L 259.782 51.777 M 276.864 82.930 L 276.768 84.396 L 276.481 85.836 L 276.009 87.227 L 275.360 88.544 L 274.544 89.766 L 273.575 90.870 L 272.471 91.838 L 271.250 92.654 L 269.933 93.304 L 268.542 93.776 L 267.102 94.062 L 265.636 94.158 L 264.171 94.062 L 262.730 93.776 L 261.339 93.304 L 260.022 92.654 L 258.801 91.838 L 257.697 90.870 L 256.729 89.766 L 255.913 88.544 L 255.263 87.227 L 254.791 85.836 L 254.504 84.396 L 254.408 82.930 L 254.504 81.465 L 254.791 80.025 L 255.263 78.634 L 255.913 77.317 L 256.729 76.095 L 257.697 74.991 L 258.801 74.023 L 260.022 73.207 L 261.339 72.557 L 262.730 72.085 L 264.171 71.799 L 265.636 71.703 L 267.102 71.799 L 268.542 72.085 L 269.933 72.557 L 271.250 73.207 L 272.471 74.023 L 273.575 74.991 L 274.544 76.095 L 275.360 77.317 L 276.009 78.634 L 276.481 80.025 L 276.768 81.465 L 276.864 82.930 M 313.382 149.355 L 313.271 151.059 L 312.937 152.735 L 312.388 154.353 L 311.632 155.886 L 310.683 157.306 L 309.556 158.591 L 308.272 159.717 L 306.851 160.667 L 305.319 161.422 L 303.701 161.971 L 302.025 162.305 L 300.320 162.417 L 298.615 162.305 L 296.940 161.971 L 295.322 161.422 L 293.789 160.667 L 292.369 159.717 L 291.084 158.591 L 289.957 157.306 L 289.008 155.886 L 288.253 154.353 L 287.703 152.735 L 287.370 151.059 L 287.258 149.355 L 287.370 147.650 L 287.703 145.974 L 288.253 144.356 L 289.008 142.824 L 289.957 141.403 L 291.084 140.118 L 292.369 138.992 L 293.789 138.043 L 295.322 137.287 L 296.940 136.738 L 298.615 136.404 L 300.320 136.293 L 302.025 136.404 L 303.701 136.738 L 305.319 137.287 L 306.851 138.043 L 308.272 138.992 L 309.556 140.118 L 310.683 141.403 L 311.632 142.824 L 312.388 144.356 L 312.937 145.974 L 313.271 147.650 L 313.382 149.355 M 276.443 154.013 L 276.346 155.501 L 276.055 156.963 L 275.575 158.375 L 274.916 159.713 L 274.087 160.952 L 273.104 162.074 L 271.983 163.057 L 270.743 163.885 L 269.406 164.545 L 267.994 165.024 L 266.531 165.315 L 265.043 165.413 L 263.555 165.315 L 262.093 165.024 L 260.681 164.545 L 259.343 163.885 L 258.103 163.057 L 256.982 162.074 L 255.999 160.952 L 255.171 159.713 L 254.511 158.375 L 254.032 156.963 L 253.741 155.501 L 253.643 154.013 L 253.741 152.525 L 254.032 151.062 L 254.511 149.650 L 255.171 148.313 L 255.999 147.073 L 256.982 145.952 L 258.103 144.969 L 259.343 144.140 L 260.681 143.481 L 262.093 143.001 L 263.555 142.710 L 265.043 142.613 L 266.531 142.710 L 267.994 143.001 L 269.406 143.481 L 270.743 144.140 L 271.983 144.969 L 273.104 145.952 L 274.087 147.073 L 274.916 148.313 L 275.575 149.650 L 276.055 151.062 L 276.346 152.525 L 276.443 154.013 M 155.744 91.933 L 155.576 94.487 L 155.077 96.998 L 154.254 99.422 L 153.122 101.717 L 151.700 103.846 L 150.012 105.770 L 148.088 107.458 L 145.959 108.880 L 143.664 110.012 L 141.240 110.835 L 138.729 111.334 L 136.175 111.502 L 133.621 111.334 L 131.110 110.835 L 128.686 110.012 L 126.390 108.880 L 124.262 107.458 L 122.338 105.770 L 120.650 103.846 L 119.228 101.717 L 118.096 99.422 L 117.273 96.998 L 116.773 94.487 L 116.606 91.933 L 116.773 89.379 L 117.273 86.868 L 118.096 84.444 L 119.228 82.148 L 120.650 80.020 L 122.338 78.096 L 124.262 76.408 L 126.390 74.986 L 128.686 73.854 L 131.110 73.031 L 133.621 72.531 L 136.175 72.364 L 138.729 72.531 L 141.240 73.031 L 143.664 73.854 L 145.959 74.986 L 148.088 76.408 L 150.012 78.096 L 151.700 80.020 L 153.122 82.148 L 154.254 84.444 L 155.077 86.868 L 155.576 89.379 L 155.744 91.933 M 272.868 226.681 L 272.689 229.409 L 272.156 232.090 L 271.277 234.679 L 270.068 237.131 L 268.549 239.404 L 266.747 241.459 L 264.692 243.261 L 262.419 244.780 L 259.967 245.989 L 257.378 246.868 L 254.697 247.401 L 251.969 247.580 L 249.242 247.401 L 246.560 246.868 L 243.972 245.989 L 241.520 244.780 L 239.247 243.261 L 237.192 241.459 L 235.389 239.404 L 233.871 237.131 L 232.662 234.679 L 231.783 232.090 L 231.250 229.409 L 231.071 226.681 L 231.250 223.954 L 231.783 221.272 L 232.662 218.684 L 233.871 216.232 L 235.389 213.959 L 237.192 211.904 L 239.247 210.101 L 241.520 208.583 L 243.972 207.374 L 246.560 206.495 L 249.242 205.962 L 251.969 205.783 L 254.697 205.962 L 257.378 206.495 L 259.967 207.374 L 262.419 208.583 L 264.692 210.101 L 266.747 211.904 L 268.549 213.959 L 270.068 216.232 L 271.277 218.684 L 272.156 221.272 L 272.689 223.954 L 272.868 226.681 M 122.700 187.706 L 122.588 189.405 L 122.256 191.075 L 121.709 192.688 L 120.956 194.215 L 120.009 195.631 L 118.887 196.911 L 117.606 198.034 L 116.190 198.980 L 114.663 199.733 L 113.051 200.280 L 111.381 200.613 L 109.681 200.724 L 107.982 200.613 L 106.312 200.280 L 104.699 199.733 L 103.172 198.980 L 101.756 198.034 L 100.476 196.911 L 99.353 195.631 L 98.407 194.215 L 97.654 192.688 L 97.107 191.075 L 96.774 189.405 L 96.663 187.706 L 96.774 186.006 L 97.107 184.336 L 97.654 182.724 L 98.407 181.197 L 99.353 179.781 L 100.476 178.500 L 101.756 177.378 L 103.172 176.431 L 104.699 175.678 L 106.312 175.131 L 107.982 174.799 L 109.681 174.687 L 111.381 174.799 L 113.051 175.131 L 114.663 175.678 L 116.190 176.431 L 117.606 177.378 L 118.887 178.500 L 120.009 179.781 L 120.956 181.197 L 121.709 182.724 L 122.256 184.336 L 122.588 186.006 L 122.700 187.706 M 283.528 191.922 L 283.475 192.722 L 283.319 193.509 L 283.061 194.268 L 282.707 194.987 L 282.261 195.654 L 281.732 196.257 L 281.129 196.786 L 280.463 197.231 L 279.743 197.586 L 278.984 197.844 L 278.198 198.000 L 277.397 198.052 L 276.597 198.000 L 275.811 197.844 L 275.051 197.586 L 274.332 197.231 L 273.665 196.786 L 273.063 196.257 L 272.534 195.654 L 272.088 194.987 L 271.734 194.268 L 271.476 193.509 L 271.319 192.722 L 271.267 191.922 L 271.319 191.122 L 271.476 190.335 L 271.734 189.576 L 272.088 188.857 L 272.534 188.190 L 273.063 187.587 L 273.665 187.058 L 274.332 186.613 L 275.051 186.258 L 275.811 186.000 L 276.597 185.844 L 277.397 185.792 L 278.198 185.844 L 278.984 186.000 L 279.743 186.258 L 280.463 186.613 L 281.129 187.058 L 281.732 187.587 L 282.261 188.190 L 282.707 188.857 L 283.061 189.576 L 283.319 190.335 L 283.475 191.122 L 283.528 191.922 M 242.767 68.792 L 242.628 70.913 L 242.213 72.998 L 241.530 75.011 L 240.590 76.917 L 239.409 78.684 L 238.007 80.282 L 236.409 81.684 L 234.642 82.865 L 232.736 83.805 L 230.723 84.488 L 228.638 84.903 L 226.517 85.042 L 224.396 84.903 L 222.312 84.488 L 220.299 83.805 L 218.393 82.865 L 216.625 81.684 L 215.027 80.282 L 213.626 78.684 L 212.445 76.917 L 211.505 75.011 L 210.822 72.998 L 210.407 70.913 L 210.268 68.792 L 210.407 66.671 L 210.822 64.587 L 211.505 62.574 L 212.445 60.668 L 213.626 58.900 L 215.027 57.302 L 216.625 55.901 L 218.393 54.720 L 220.299 53.780 L 222.312 53.097 L 224.396 52.682 L 226.517 52.543 L 228.638 52.682 L 230.723 53.097 L 232.736 53.780 L 234.642 54.720 L 236.409 55.901 L 238.007 57.302 L 239.409 58.900 L 240.590 60.668 L 241.530 62.574 L 242.213 64.587 L 242.628 66.671 L 242.767 68.792 M 170.772 88.381 L 170.716 89.226 L 170.551 90.057 L 170.279 90.858 L 169.904 91.618 L 169.434 92.322 L 168.875 92.959 L 168.239 93.517 L 167.535 93.988 L 166.775 94.362 L 165.973 94.634 L 165.143 94.800 L 164.298 94.855 L 163.453 94.800 L 162.622 94.634 L 161.820 94.362 L 161.061 93.988 L 160.357 93.517 L 159.720 92.959 L 159.162 92.322 L 158.691 91.618 L 158.317 90.858 L 158.044 90.057 L 157.879 89.226 L 157.824 88.381 L 157.879 87.536 L 158.044 86.705 L 158.317 85.904 L 158.691 85.144 L 159.162 84.440 L 159.720 83.803 L 160.357 83.245 L 161.061 82.774 L 161.820 82.400 L 162.622 82.128 L 163.453 81.963 L 164.298 81.907 L 165.143 81.963 L 165.973 82.128 L 166.775 82.400 L 167.535 82.774 L 168.239 83.245 L 168.875 83.803 L 169.434 84.440 L 169.904 85.144 L 170.279 85.904 L 170.551 86.705 L 170.716 87.536 L 170.772 88.381 M 175.082 159.719 L 174.916 162.261 L 174.419 164.760 L 173.600 167.172 L 172.473 169.457 L 171.057 171.575 L 169.378 173.491 L 167.462 175.171 L 165.344 176.586 L 163.059 177.713 L 160.646 178.532 L 158.148 179.029 L 155.606 179.195 L 153.063 179.029 L 150.565 178.532 L 148.152 177.713 L 145.867 176.586 L 143.749 175.171 L 141.834 173.491 L 140.154 171.575 L 138.738 169.457 L 137.612 167.172 L 136.793 164.760 L 136.296 162.261 L 136.129 159.719 L 136.296 157.177 L 136.793 154.678 L 137.612 152.265 L 138.738 149.980 L 140.154 147.862 L 141.834 145.947 L 143.749 144.267 L 145.867 142.852 L 148.152 141.725 L 150.565 140.906 L 153.063 140.409 L 155.606 140.242 L 158.148 140.409 L 160.646 140.906 L 163.059 141.725 L 165.344 142.852 L 167.462 144.267 L 169.378 145.947 L 171.057 147.862 L 172.473 149.980 L 173.600 152.265 L 174.419 154.678 L 174.916 157.177 L 175.082 159.719 M 181.330 211.244 L 181.150 213.986 L 180.614 216.682 L 179.731 219.284 L 178.515 221.749 L 176.988 224.034 L 175.176 226.100 L 173.110 227.913 L 170.825 229.439 L 168.360 230.655 L 165.757 231.538 L 163.062 232.075 L 160.319 232.254 L 157.577 232.075 L 154.881 231.538 L 152.279 230.655 L 149.814 229.439 L 147.529 227.913 L 145.463 226.100 L 143.651 224.034 L 142.124 221.749 L 140.908 219.284 L 140.025 216.682 L 139.489 213.986 L 139.309 211.244 L 139.489 208.501 L 140.025 205.806 L 140.908 203.203 L 142.124 200.739 L 143.651 198.453 L 145.463 196.387 L 147.529 194.575 L 149.814 193.048 L 152.279 191.833 L 154.881 190.949 L 157.577 190.413 L 160.319 190.233 L 163.062 190.413 L 165.757 190.949 L 168.360 191.833 L 170.825 193.048 L 173.110 194.575 L 175.176 196.387 L 176.988 198.453 L 178.515 200.739 L 179.731 203.203 L 180.614 205.806 L 181.150 208.501 L 181.330 211.244 M 333.276 138.782 L 333.224 139.561 L 333.072 140.327 L 332.821 141.066 L 332.476 141.767 L 332.042 142.416 L 331.527 143.003 L 330.940 143.518 L 330.290 143.952 L 329.590 144.297 L 328.851 144.549 L 328.085 144.701 L 327.305 144.752 L 326.526 144.701 L 325.760 144.549 L 325.021 144.297 L 324.320 143.952 L 323.671 143.518 L 323.084 143.003 L 322.569 142.416 L 322.135 141.767 L 321.790 141.066 L 321.539 140.327 L 321.386 139.561 L 321.335 138.782 L 321.386 138.002 L 321.539 137.237 L 321.790 136.497 L 322.135 135.797 L 322.569 135.147 L 323.084 134.560 L 323.671 134.045 L 324.320 133.611 L 325.021 133.266 L 325.760 133.015 L 326.526 132.863 L 327.305 132.812 L 328.085 132.863 L 328.851 133.015 L 329.590 133.266 L 330.290 133.611 L 330.940 134.045 L 331.527 134.560 L 332.042 135.147 L 332.476 135.797 L 332.821 136.497 L 333.072 137.237 L 333.224 138.002 L 333.276 138.782 M 118.546 117.566 L 118.457 118.925 L 118.192 120.260 L 117.754 121.549 L 117.152 122.770 L 116.396 123.902 L 115.498 124.926 L 114.475 125.823 L 113.343 126.580 L 112.122 127.182 L 110.833 127.619 L 109.497 127.885 L 108.139 127.974 L 106.780 127.885 L 105.445 127.619 L 104.156 127.182 L 102.935 126.580 L 101.803 125.823 L 100.780 124.926 L 99.882 123.902 L 99.126 122.770 L 98.523 121.549 L 98.086 120.260 L 97.820 118.925 L 97.731 117.566 L 97.820 116.208 L 98.086 114.873 L 98.523 113.583 L 99.126 112.362 L 99.882 111.231 L 100.780 110.207 L 101.803 109.309 L 102.935 108.553 L 104.156 107.951 L 105.445 107.513 L 106.780 107.248 L 108.139 107.159 L 109.497 107.248 L 110.833 107.513 L 112.122 107.951 L 113.343 108.553 L 114.475 109.309 L 115.498 110.207 L 116.396 111.231 L 117.152 112.362 L 117.754 113.583 L 118.192 114.873 L 118.457 116.208 L 118.546 117.566 M 167.344 244.640 L 167.253 246.026 L 166.982 247.389 L 166.535 248.705 L 165.921 249.951 L 165.149 251.106 L 164.233 252.151 L 163.188 253.067 L 162.033 253.839 L 160.787 254.454 L 159.471 254.900 L 158.108 255.171 L 156.722 255.262 L 155.335 255.171 L 153.973 254.900 L 152.657 254.454 L 151.411 253.839 L 150.255 253.067 L 149.211 252.151 L 148.295 251.106 L 147.523 249.951 L 146.908 248.705 L 146.462 247.389 L 146.190 246.026 L 146.100 244.640 L 146.190 243.254 L 146.462 241.891 L 146.908 240.575 L 147.523 239.329 L 148.295 238.174 L 149.211 237.129 L 150.255 236.213 L 151.411 235.441 L 152.657 234.826 L 153.973 234.380 L 155.335 234.109 L 156.722 234.018 L 158.108 234.109 L 159.471 234.380 L 160.787 234.826 L 162.033 235.441 L 163.188 236.213 L 164.233 237.129 L 165.149 238.174 L 165.921 239.329 L 166.535 240.575 L 166.982 241.891 L 167.253 243.254 L 167.344 244.640 M 167.857 64.839 L 167.774 66.111 L 167.525 67.361 L 167.116 68.568 L 166.552 69.712 L 165.843 70.772 L 165.003 71.730 L 164.044 72.571 L 162.984 73.279 L 161.841 73.843 L 160.633 74.253 L 159.383 74.502 L 158.111 74.585 L 156.839 74.502 L 155.588 74.253 L 154.381 73.843 L 153.238 73.279 L 152.178 72.571 L 151.219 71.730 L 150.378 70.772 L 149.670 69.712 L 149.106 68.568 L 148.696 67.361 L 148.448 66.111 L 148.364 64.839 L 148.448 63.566 L 148.696 62.316 L 149.106 61.109 L 149.670 59.965 L 150.378 58.905 L 151.219 57.947 L 152.178 57.106 L 153.238 56.398 L 154.381 55.834 L 155.588 55.424 L 156.839 55.175 L 158.111 55.092 L 159.383 55.175 L 160.633 55.424 L 161.841 55.834 L 162.984 56.398 L 164.044 57.106 L 165.003 57.947 L 165.843 58.905 L 166.552 59.965 L 167.116 61.109 L 167.525 62.316 L 167.774 63.566 L 167.857 64.839 M 281.983 210.217 L 281.925 211.095 L 281.754 211.959 L 281.471 212.792 L 281.082 213.581 L 280.593 214.313 L 280.012 214.975 L 279.351 215.555 L 278.619 216.044 L 277.829 216.433 L 276.996 216.716 L 276.133 216.888 L 275.255 216.946 L 274.376 216.888 L 273.513 216.716 L 272.680 216.433 L 271.890 216.044 L 271.159 215.555 L 270.497 214.975 L 269.917 214.313 L 269.428 213.581 L 269.038 212.792 L 268.756 211.959 L 268.584 211.095 L 268.526 210.217 L 268.584 209.339 L 268.756 208.476 L 269.038 207.642 L 269.428 206.853 L 269.917 206.121 L 270.497 205.460 L 271.159 204.879 L 271.890 204.390 L 272.680 204.001 L 273.513 203.718 L 274.376 203.546 L 275.255 203.489 L 276.133 203.546 L 276.996 203.718 L 277.829 204.001 L 278.619 204.390 L 279.351 204.879 L 280.012 205.460 L 280.593 206.121 L 281.082 206.853 L 281.471 207.642 L 281.754 208.476 L 281.925 209.339 L 281.983 210.217 M 207.481 169.231 L 207.423 170.120 L 207.249 170.993 L 206.963 171.836 L 206.569 172.635 L 206.074 173.375 L 205.487 174.045 L 204.817 174.632 L 204.077 175.127 L 203.278 175.521 L 202.435 175.807 L 201.562 175.980 L 200.673 176.039 L 199.785 175.980 L 198.911 175.807 L 198.068 175.521 L 197.270 175.127 L 196.529 174.632 L 195.860 174.045 L 195.273 173.375 L 194.778 172.635 L 194.384 171.836 L 194.098 170.993 L 193.924 170.120 L 193.866 169.231 L 193.924 168.343 L 194.098 167.469 L 194.384 166.626 L 194.778 165.828 L 195.273 165.087 L 195.860 164.418 L 196.529 163.831 L 197.270 163.336 L 198.068 162.942 L 198.911 162.656 L 199.785 162.482 L 200.673 162.424 L 201.562 162.482 L 202.435 162.656 L 203.278 162.942 L 204.077 163.336 L 204.817 163.831 L 205.487 164.418 L 206.074 165.087 L 206.569 165.828 L 206.963 166.626 L 207.249 167.469 L 207.423 168.343 L 207.481 169.231 M 194.765 92.449 L 194.676 93.806 L 194.411 95.140 L 193.974 96.427 L 193.373 97.647 L 192.617 98.777 L 191.721 99.799 L 190.699 100.696 L 189.568 101.451 L 188.349 102.052 L 187.061 102.489 L 185.728 102.755 L 184.371 102.844 L 183.014 102.755 L 181.681 102.489 L 180.393 102.052 L 179.174 101.451 L 178.043 100.696 L 177.021 99.799 L 176.125 98.777 L 175.369 97.647 L 174.768 96.427 L 174.331 95.140 L 174.066 93.806 L 173.977 92.449 L 174.066 91.093 L 174.331 89.759 L 174.768 88.472 L 175.369 87.252 L 176.125 86.122 L 177.021 85.100 L 178.043 84.203 L 179.174 83.448 L 180.393 82.846 L 181.681 82.409 L 183.014 82.144 L 184.371 82.055 L 185.728 82.144 L 187.061 82.409 L 188.349 82.846 L 189.568 83.448 L 190.699 84.203 L 191.721 85.100 L 192.617 86.122 L 193.373 87.252 L 193.974 88.472 L 194.411 89.759 L 194.676 91.093 L 194.765 92.449 M 321.942 120.198 L 321.843 121.710 L 321.547 123.196 L 321.060 124.631 L 320.390 125.990 L 319.548 127.250 L 318.549 128.389 L 317.410 129.388 L 316.150 130.230 L 314.791 130.900 L 313.356 131.387 L 311.870 131.683 L 310.358 131.782 L 308.846 131.683 L 307.360 131.387 L 305.925 130.900 L 304.566 130.230 L 303.306 129.388 L 302.167 128.389 L 301.168 127.250 L 300.326 125.990 L 299.656 124.631 L 299.169 123.196 L 298.873 121.710 L 298.774 120.198 L 298.873 118.686 L 299.169 117.200 L 299.656 115.765 L 300.326 114.406 L 301.168 113.146 L 302.167 112.007 L 303.306 111.008 L 304.566 110.166 L 305.925 109.496 L 307.360 109.009 L 308.846 108.714 L 310.358 108.614 L 311.870 108.714 L 313.356 109.009 L 314.791 109.496 L 316.150 110.166 L 317.410 111.008 L 318.549 112.007 L 319.548 113.146 L 320.390 114.406 L 321.060 115.765 L 321.547 117.200 L 321.843 118.686 L 321.942 120.198 M 216.726 151.153 L 216.680 151.859 L 216.542 152.552 L 216.315 153.222 L 216.002 153.856 L 215.609 154.444 L 215.143 154.976 L 214.611 155.442 L 214.023 155.835 L 213.389 156.148 L 212.719 156.375 L 212.026 156.513 L 211.320 156.559 L 210.615 156.513 L 209.921 156.375 L 209.251 156.148 L 208.617 155.835 L 208.029 155.442 L 207.497 154.976 L 207.031 154.444 L 206.638 153.856 L 206.326 153.222 L 206.098 152.552 L 205.960 151.859 L 205.914 151.153 L 205.960 150.448 L 206.098 149.754 L 206.326 149.084 L 206.638 148.450 L 207.031 147.862 L 207.497 147.331 L 208.029 146.864 L 208.617 146.471 L 209.251 146.159 L 209.921 145.931 L 210.615 145.793 L 211.320 145.747 L 212.026 145.793 L 212.719 145.931 L 213.389 146.159 L 214.023 146.471 L 214.611 146.864 L 215.143 147.331 L 215.609 147.862 L 216.002 148.450 L 216.315 149.084 L 216.542 149.754 L 216.680 150.448 L 216.726 151.153 M 324.834 173.481 L 324.738 174.945 L 324.452 176.385 L 323.980 177.775 L 323.331 179.091 L 322.515 180.312 L 321.547 181.415 L 320.444 182.383 L 319.224 183.198 L 317.907 183.847 L 316.517 184.319 L 315.078 184.605 L 313.613 184.701 L 312.149 184.605 L 310.709 184.319 L 309.319 183.847 L 308.003 183.198 L 306.783 182.383 L 305.679 181.415 L 304.711 180.312 L 303.896 179.091 L 303.247 177.775 L 302.775 176.385 L 302.489 174.945 L 302.393 173.481 L 302.489 172.016 L 302.775 170.577 L 303.247 169.187 L 303.896 167.870 L 304.711 166.650 L 305.679 165.547 L 306.783 164.579 L 308.003 163.763 L 309.319 163.114 L 310.709 162.643 L 312.149 162.356 L 313.613 162.260 L 315.078 162.356 L 316.517 162.643 L 317.907 163.114 L 319.224 163.763 L 320.444 164.579 L 321.547 165.547 L 322.515 166.650 L 323.331 167.870 L 323.980 169.187 L 324.452 170.577 L 324.738 172.016 L 324.834 173.481 M 292.223 109.618 L 292.115 111.266 L 291.793 112.885 L 291.262 114.449 L 290.531 115.930 L 289.614 117.303 L 288.525 118.544 L 287.284 119.633 L 285.911 120.550 L 284.430 121.280 L 282.866 121.811 L 281.247 122.133 L 279.599 122.241 L 277.952 122.133 L 276.332 121.811 L 274.768 121.280 L 273.288 120.550 L 271.915 119.633 L 270.673 118.544 L 269.584 117.303 L 268.667 115.930 L 267.937 114.449 L 267.406 112.885 L 267.084 111.266 L 266.976 109.618 L 267.084 107.970 L 267.406 106.351 L 267.937 104.787 L 268.667 103.306 L 269.584 101.933 L 270.673 100.692 L 271.915 99.603 L 273.288 98.686 L 274.768 97.955 L 276.332 97.425 L 277.952 97.102 L 279.599 96.994 L 281.247 97.102 L 282.866 97.425 L 284.430 97.955 L 285.911 98.686 L 287.284 99.603 L 288.525 100.692 L 289.614 101.933 L 290.531 103.306 L 291.262 104.787 L 291.793 106.351 L 292.115 107.970 L 292.223 109.618 M 286.388 238.845 L 286.342 239.542 L 286.206 240.227 L 285.981 240.889 L 285.672 241.515 L 285.284 242.096 L 284.823 242.622 L 284.298 243.082 L 283.717 243.471 L 283.090 243.780 L 282.429 244.004 L 281.743 244.141 L 281.046 244.186 L 280.349 244.141 L 279.664 244.004 L 279.002 243.780 L 278.375 243.471 L 277.794 243.082 L 277.269 242.622 L 276.808 242.096 L 276.420 241.515 L 276.111 240.889 L 275.886 240.227 L 275.750 239.542 L 275.704 238.845 L 275.750 238.147 L 275.886 237.462 L 276.111 236.801 L 276.420 236.174 L 276.808 235.593 L 277.269 235.068 L 277.794 234.607 L 278.375 234.219 L 279.002 233.910 L 279.664 233.685 L 280.349 233.549 L 281.046 233.503 L 281.743 233.549 L 282.429 233.685 L 283.090 233.910 L 283.717 234.219 L 284.298 234.607 L 284.823 235.068 L 285.284 235.593 L 285.672 236.174 L 285.981 236.801 L 286.206 237.462 L 286.342 238.147 L 286.388 238.845 M 192.248 224.929 L 192.193 225.758 L 192.031 226.572 L 191.765 227.358 L 191.397 228.103 L 190.936 228.793 L 190.389 229.417 L 189.765 229.964 L 189.074 230.426 L 188.330 230.793 L 187.544 231.060 L 186.730 231.222 L 185.901 231.276 L 185.073 231.222 L 184.259 231.060 L 183.472 230.793 L 182.728 230.426 L 182.038 229.964 L 181.413 229.417 L 180.866 228.793 L 180.405 228.103 L 180.038 227.358 L 179.771 226.572 L 179.609 225.758 L 179.555 224.929 L 179.609 224.101 L 179.771 223.287 L 180.038 222.500 L 180.405 221.756 L 180.866 221.066 L 181.413 220.441 L 182.038 219.894 L 182.728 219.433 L 183.472 219.066 L 184.259 218.799 L 185.073 218.637 L 185.901 218.583 L 186.730 218.637 L 187.544 218.799 L 188.330 219.066 L 189.074 219.433 L 189.765 219.894 L 190.389 220.441 L 190.936 221.066 L 191.397 221.756 L 191.765 222.500 L 192.031 223.287 L 192.193 224.101 L 192.248 224.929 M 305.913 102.114 L 305.858 102.952 L 305.695 103.776 L 305.425 104.571 L 305.053 105.324 L 304.586 106.023 L 304.033 106.654 L 303.401 107.208 L 302.703 107.675 L 301.949 108.046 L 301.154 108.316 L 300.330 108.480 L 299.492 108.535 L 298.654 108.480 L 297.830 108.316 L 297.035 108.046 L 296.281 107.675 L 295.583 107.208 L 294.951 106.654 L 294.397 106.023 L 293.931 105.324 L 293.559 104.571 L 293.289 103.776 L 293.125 102.952 L 293.071 102.114 L 293.125 101.276 L 293.289 100.452 L 293.559 99.656 L 293.931 98.903 L 294.397 98.205 L 294.951 97.573 L 295.583 97.019 L 296.281 96.553 L 297.035 96.181 L 297.830 95.911 L 298.654 95.747 L 299.492 95.692 L 300.330 95.747 L 301.154 95.911 L 301.949 96.181 L 302.703 96.553 L 303.401 97.019 L 304.033 97.573 L 304.586 98.205 L 305.053 98.903 L 305.425 99.656 L 305.695 100.452 L 305.858 101.276 L 305.913 102.114 M 137.327 216.647 L 137.238 218.008 L 136.972 219.347 L 136.533 220.639 L 135.930 221.863 L 135.171 222.998 L 134.272 224.024 L 133.246 224.923 L 132.111 225.681 L 130.887 226.285 L 129.595 226.724 L 128.257 226.990 L 126.895 227.079 L 125.533 226.990 L 124.195 226.724 L 122.902 226.285 L 121.679 225.681 L 120.544 224.923 L 119.518 224.024 L 118.618 222.998 L 117.860 221.863 L 117.256 220.639 L 116.818 219.347 L 116.551 218.008 L 116.462 216.647 L 116.551 215.285 L 116.818 213.946 L 117.256 212.654 L 117.860 211.430 L 118.618 210.296 L 119.518 209.270 L 120.544 208.370 L 121.679 207.612 L 122.902 207.008 L 124.195 206.570 L 125.533 206.303 L 126.895 206.214 L 128.257 206.303 L 129.595 206.570 L 130.887 207.008 L 132.111 207.612 L 133.246 208.370 L 134.272 209.270 L 135.171 210.296 L 135.930 211.430 L 136.533 212.654 L 136.972 213.946 L 137.238 215.285 L 137.327 216.647 M 241.348 97.527 L 241.266 98.785 L 241.020 100.021 L 240.615 101.214 L 240.057 102.344 L 239.357 103.392 L 238.526 104.339 L 237.579 105.170 L 236.531 105.871 L 235.401 106.428 L 234.207 106.833 L 232.971 107.079 L 231.714 107.161 L 230.456 107.079 L 229.220 106.833 L 228.027 106.428 L 226.897 105.871 L 225.849 105.170 L 224.901 104.339 L 224.070 103.392 L 223.370 102.344 L 222.813 101.214 L 222.408 100.021 L 222.162 98.785 L 222.080 97.527 L 222.162 96.269 L 222.408 95.033 L 222.813 93.840 L 223.370 92.710 L 224.070 91.662 L 224.901 90.715 L 225.849 89.884 L 226.897 89.183 L 228.027 88.626 L 229.220 88.221 L 230.456 87.975 L 231.714 87.893 L 232.971 87.975 L 234.207 88.221 L 235.401 88.626 L 236.531 89.183 L 237.579 89.884 L 238.526 90.715 L 239.357 91.662 L 240.057 92.710 L 240.615 93.840 L 241.020 95.033 L 241.266 96.269 L 241.348 97.527 M 187.971 189.895 L 187.917 190.710 L 187.758 191.510 L 187.496 192.283 L 187.135 193.015 L 186.682 193.693 L 186.144 194.307 L 185.530 194.845 L 184.851 195.298 L 184.120 195.659 L 183.347 195.921 L 182.547 196.080 L 181.732 196.134 L 180.918 196.080 L 180.118 195.921 L 179.345 195.659 L 178.613 195.298 L 177.934 194.845 L 177.321 194.307 L 176.783 193.693 L 176.329 193.015 L 175.969 192.283 L 175.706 191.510 L 175.547 190.710 L 175.494 189.895 L 175.547 189.081 L 175.706 188.281 L 175.969 187.508 L 176.329 186.776 L 176.783 186.098 L 177.321 185.484 L 177.934 184.946 L 178.613 184.493 L 179.345 184.132 L 180.118 183.869 L 180.918 183.710 L 181.732 183.657 L 182.547 183.710 L 183.347 183.869 L 184.120 184.132 L 184.851 184.493 L 185.530 184.946 L 186.144 185.484 L 186.682 186.098 L 187.135 186.776 L 187.496 187.508 L 187.758 188.281 L 187.917 189.081 L 187.971 189.895 M 149.137 127.627 L 149.009 129.568 L 148.630 131.476 L 148.005 133.318 L 147.144 135.063 L 146.064 136.680 L 144.781 138.143 L 143.319 139.425 L 141.701 140.506 L 139.957 141.366 L 138.115 141.992 L 136.207 142.371 L 134.266 142.498 L 132.325 142.371 L 130.417 141.992 L 128.575 141.366 L 126.830 140.506 L 125.213 139.425 L 123.750 138.143 L 122.468 136.680 L 121.387 135.063 L 120.527 133.318 L 119.901 131.476 L 119.522 129.568 L 119.395 127.627 L 119.522 125.686 L 119.901 123.778 L 120.527 121.936 L 121.387 120.192 L 122.468 118.574 L 123.750 117.112 L 125.213 115.829 L 126.830 114.749 L 128.575 113.888 L 130.417 113.263 L 132.325 112.884 L 134.266 112.756 L 136.207 112.884 L 138.115 113.263 L 139.957 113.888 L 141.701 114.749 L 143.319 115.829 L 144.781 117.112 L 146.064 118.574 L 147.144 120.192 L 148.005 121.936 L 148.630 123.778 L 149.009 125.686 L 149.137 127.627 M 115.988 139.117 L 115.925 140.074 L 115.738 141.015 L 115.429 141.924 L 115.005 142.785 L 114.472 143.583 L 113.839 144.304 L 113.118 144.937 L 112.320 145.470 L 111.459 145.895 L 110.550 146.203 L 109.609 146.390 L 108.652 146.453 L 107.694 146.390 L 106.753 146.203 L 105.844 145.895 L 104.983 145.470 L 104.186 144.937 L 103.464 144.304 L 102.831 143.583 L 102.298 142.785 L 101.874 141.924 L 101.565 141.015 L 101.378 140.074 L 101.315 139.117 L 101.378 138.159 L 101.565 137.218 L 101.874 136.309 L 102.298 135.449 L 102.831 134.651 L 103.464 133.929 L 104.186 133.296 L 104.983 132.763 L 105.844 132.339 L 106.753 132.030 L 107.694 131.843 L 108.652 131.780 L 109.609 131.843 L 110.550 132.030 L 111.459 132.339 L 112.320 132.763 L 113.118 133.296 L 113.839 133.929 L 114.472 134.651 L 115.005 135.449 L 115.429 136.309 L 115.738 137.218 L 115.925 138.159 L 115.988 139.117 M 177.528 51.422 L 177.472 52.281 L 177.304 53.125 L 177.027 53.941 L 176.646 54.713 L 176.168 55.429 L 175.600 56.076 L 174.952 56.644 L 174.236 57.123 L 173.464 57.504 L 172.649 57.780 L 171.804 57.948 L 170.945 58.005 L 170.086 57.948 L 169.241 57.780 L 168.426 57.504 L 167.653 57.123 L 166.937 56.644 L 166.290 56.076 L 165.722 55.429 L 165.244 54.713 L 164.863 53.941 L 164.586 53.125 L 164.418 52.281 L 164.362 51.422 L 164.418 50.562 L 164.586 49.718 L 164.863 48.902 L 165.244 48.130 L 165.722 47.414 L 166.290 46.767 L 166.937 46.199 L 167.653 45.720 L 168.426 45.340 L 169.241 45.063 L 170.086 44.895 L 170.945 44.838 L 171.804 44.895 L 172.649 45.063 L 173.464 45.340 L 174.236 45.720 L 174.952 46.199 L 175.600 46.767 L 176.168 47.414 L 176.646 48.130 L 177.027 48.902 L 177.304 49.718 L 177.472 50.562 L 177.528 51.422 M 303.122 225.690 L 303.075 226.404 L 302.935 227.107 L 302.705 227.786 L 302.388 228.428 L 301.990 229.024 L 301.517 229.563 L 300.979 230.035 L 300.383 230.433 L 299.740 230.750 L 299.062 230.980 L 298.359 231.120 L 297.644 231.167 L 296.930 231.120 L 296.227 230.980 L 295.548 230.750 L 294.906 230.433 L 294.310 230.035 L 293.771 229.563 L 293.299 229.024 L 292.901 228.428 L 292.584 227.786 L 292.354 227.107 L 292.214 226.404 L 292.167 225.690 L 292.214 224.975 L 292.354 224.272 L 292.584 223.593 L 292.901 222.951 L 293.299 222.355 L 293.771 221.817 L 294.310 221.344 L 294.906 220.946 L 295.548 220.629 L 296.227 220.399 L 296.930 220.259 L 297.644 220.212 L 298.359 220.259 L 299.062 220.399 L 299.740 220.629 L 300.383 220.946 L 300.979 221.344 L 301.517 221.817 L 301.990 222.355 L 302.388 222.951 L 302.705 223.593 L 302.935 224.272 L 303.075 224.975 L 303.122 225.690 M 179.577 127.095 L 179.503 128.232 L 179.281 129.350 L 178.914 130.429 L 178.410 131.451 L 177.777 132.398 L 177.026 133.255 L 176.169 134.006 L 175.222 134.639 L 174.200 135.143 L 173.121 135.509 L 172.004 135.731 L 170.867 135.806 L 169.730 135.731 L 168.612 135.509 L 167.533 135.143 L 166.512 134.639 L 165.564 134.006 L 164.708 133.255 L 163.956 132.398 L 163.323 131.451 L 162.819 130.429 L 162.453 129.350 L 162.231 128.232 L 162.156 127.095 L 162.231 125.958 L 162.453 124.841 L 162.819 123.762 L 163.323 122.740 L 163.956 121.793 L 164.708 120.936 L 165.564 120.185 L 166.512 119.552 L 167.533 119.048 L 168.612 118.682 L 169.730 118.459 L 170.867 118.385 L 172.004 118.459 L 173.121 118.682 L 174.200 119.048 L 175.222 119.552 L 176.169 120.185 L 177.026 120.936 L 177.777 121.793 L 178.410 122.740 L 178.914 123.762 L 179.281 124.841 L 179.503 125.958 L 179.577 127.095 M 307.876 83.377 L 307.832 84.051 L 307.700 84.715 L 307.482 85.355 L 307.183 85.961 L 306.808 86.523 L 306.362 87.031 L 305.854 87.477 L 305.292 87.853 L 304.685 88.152 L 304.045 88.369 L 303.382 88.501 L 302.707 88.545 L 302.033 88.501 L 301.370 88.369 L 300.730 88.152 L 300.123 87.853 L 299.561 87.477 L 299.053 87.031 L 298.607 86.523 L 298.231 85.961 L 297.932 85.355 L 297.715 84.715 L 297.583 84.051 L 297.539 83.377 L 297.583 82.702 L 297.715 82.039 L 297.932 81.399 L 298.231 80.793 L 298.607 80.231 L 299.053 79.722 L 299.561 79.276 L 300.123 78.901 L 300.730 78.602 L 301.370 78.385 L 302.033 78.253 L 302.707 78.208 L 303.382 78.253 L 304.045 78.385 L 304.685 78.602 L 305.292 78.901 L 305.854 79.276 L 306.362 79.722 L 306.808 80.231 L 307.183 80.793 L 307.482 81.399 L 307.700 82.039 L 307.832 82.702 L 307.876 83.377 M 217.862 37.196 L 217.792 38.257 L 217.585 39.300 L 217.243 40.307 L 216.773 41.261 L 216.182 42.145 L 215.481 42.944 L 214.681 43.646 L 213.797 44.236 L 212.843 44.707 L 211.836 45.049 L 210.793 45.256 L 209.732 45.326 L 208.671 45.256 L 207.628 45.049 L 206.621 44.707 L 205.667 44.236 L 204.783 43.646 L 203.983 42.944 L 203.282 42.145 L 202.691 41.261 L 202.221 40.307 L 201.879 39.300 L 201.672 38.257 L 201.602 37.196 L 201.672 36.135 L 201.879 35.092 L 202.221 34.085 L 202.691 33.131 L 203.282 32.247 L 203.983 31.447 L 204.783 30.746 L 205.667 30.155 L 206.621 29.685 L 207.628 29.343 L 208.671 29.135 L 209.732 29.066 L 210.793 29.135 L 211.836 29.343 L 212.843 29.685 L 213.797 30.155 L 214.681 30.746 L 215.481 31.447 L 216.182 32.247 L 216.773 33.131 L 217.243 34.085 L 217.585 35.092 L 217.792 36.135 L 217.862 37.196 M 241.970 146.448 L 241.928 147.092 L 241.802 147.725 L 241.595 148.336 L 241.309 148.915 L 240.951 149.452 L 240.525 149.937 L 240.040 150.363 L 239.503 150.721 L 238.924 151.007 L 238.313 151.214 L 237.680 151.340 L 237.036 151.382 L 236.392 151.340 L 235.759 151.214 L 235.148 151.007 L 234.569 150.721 L 234.032 150.363 L 233.547 149.937 L 233.121 149.452 L 232.763 148.915 L 232.477 148.336 L 232.270 147.725 L 232.144 147.092 L 232.101 146.448 L 232.144 145.804 L 232.270 145.171 L 232.477 144.559 L 232.763 143.981 L 233.121 143.444 L 233.547 142.959 L 234.032 142.533 L 234.569 142.174 L 235.148 141.889 L 235.759 141.681 L 236.392 141.556 L 237.036 141.513 L 237.680 141.556 L 238.313 141.681 L 238.924 141.889 L 239.503 142.174 L 240.040 142.533 L 240.525 142.959 L 240.951 143.444 L 241.309 143.981 L 241.595 144.559 L 241.802 145.171 L 241.928 145.804 L 241.970 146.448 M 216.134 88.036 L 216.057 89.212 L 215.827 90.368 L 215.449 91.484 L 214.927 92.541 L 214.272 93.521 L 213.495 94.408 L 212.609 95.185 L 211.629 95.840 L 210.572 96.361 L 209.456 96.740 L 208.300 96.970 L 207.124 97.047 L 205.948 96.970 L 204.792 96.740 L 203.676 96.361 L 202.618 95.840 L 201.638 95.185 L 200.752 94.408 L 199.975 93.521 L 199.320 92.541 L 198.799 91.484 L 198.420 90.368 L 198.190 89.212 L 198.113 88.036 L 198.190 86.860 L 198.420 85.704 L 198.799 84.588 L 199.320 83.531 L 199.975 82.551 L 200.752 81.665 L 201.638 80.888 L 202.618 80.233 L 203.676 79.711 L 204.792 79.333 L 205.948 79.103 L 207.124 79.025 L 208.300 79.103 L 209.456 79.333 L 210.572 79.711 L 211.629 80.233 L 212.609 80.888 L 213.495 81.665 L 214.272 82.551 L 214.927 83.531 L 215.449 84.588 L 215.827 85.704 L 216.057 86.860 L 216.134 88.036 M 101.098 131.112 L 101.049 131.861 L 100.902 132.597 L 100.661 133.308 L 100.329 133.981 L 99.912 134.605 L 99.417 135.170 L 98.852 135.665 L 98.228 136.082 L 97.555 136.414 L 96.844 136.655 L 96.108 136.802 L 95.359 136.851 L 94.610 136.802 L 93.874 136.655 L 93.163 136.414 L 92.490 136.082 L 91.865 135.665 L 91.301 135.170 L 90.806 134.605 L 90.389 133.981 L 90.057 133.308 L 89.816 132.597 L 89.669 131.861 L 89.620 131.112 L 89.669 130.363 L 89.816 129.627 L 90.057 128.916 L 90.389 128.243 L 90.806 127.618 L 91.301 127.054 L 91.865 126.559 L 92.490 126.142 L 93.163 125.810 L 93.874 125.569 L 94.610 125.422 L 95.359 125.373 L 96.108 125.422 L 96.844 125.569 L 97.555 125.810 L 98.228 126.142 L 98.852 126.559 L 99.417 127.054 L 99.912 127.618 L 100.329 128.243 L 100.661 128.916 L 100.902 129.627 L 101.049 130.363 L 101.098 131.112 M 285.195 62.213 L 285.146 62.966 L 284.998 63.706 L 284.756 64.421 L 284.422 65.098 L 284.002 65.726 L 283.505 66.293 L 282.937 66.791 L 282.310 67.210 L 281.633 67.544 L 280.918 67.787 L 280.177 67.934 L 279.424 67.983 L 278.671 67.934 L 277.931 67.787 L 277.216 67.544 L 276.539 67.210 L 275.911 66.791 L 275.344 66.293 L 274.846 65.726 L 274.427 65.098 L 274.093 64.421 L 273.850 63.706 L 273.703 62.966 L 273.653 62.213 L 273.703 61.459 L 273.850 60.719 L 274.093 60.004 L 274.427 59.327 L 274.846 58.700 L 275.344 58.132 L 275.911 57.634 L 276.539 57.215 L 277.216 56.881 L 277.931 56.639 L 278.671 56.491 L 279.424 56.442 L 280.177 56.491 L 280.918 56.639 L 281.633 56.881 L 282.310 57.215 L 282.937 57.634 L 283.505 58.132 L 284.002 58.700 L 284.422 59.327 L 284.756 60.004 L 284.998 60.719 L 285.146 61.459 L 285.195 62.213 M 108.328 162.121 L 108.249 163.329 L 108.013 164.516 L 107.624 165.663 L 107.088 166.749 L 106.416 167.755 L 105.618 168.665 L 104.707 169.464 L 103.701 170.136 L 102.615 170.672 L 101.469 171.061 L 100.281 171.297 L 99.073 171.376 L 97.865 171.297 L 96.678 171.061 L 95.531 170.672 L 94.445 170.136 L 93.439 169.464 L 92.529 168.665 L 91.730 167.755 L 91.058 166.749 L 90.522 165.663 L 90.133 164.516 L 89.897 163.329 L 89.818 162.121 L 89.897 160.913 L 90.133 159.725 L 90.522 158.579 L 91.058 157.493 L 91.730 156.486 L 92.529 155.576 L 93.439 154.778 L 94.445 154.105 L 95.531 153.570 L 96.678 153.181 L 97.865 152.945 L 99.073 152.865 L 100.281 152.945 L 101.469 153.181 L 102.615 153.570 L 103.701 154.105 L 104.707 154.778 L 105.618 155.576 L 106.416 156.486 L 107.088 157.493 L 107.624 158.579 L 108.013 159.725 L 108.249 160.913 L 108.328 162.121 M 192.410 39.622 L 192.365 40.315 L 192.230 40.995 L 192.007 41.652 L 191.700 42.274 L 191.314 42.851 L 190.857 43.373 L 190.335 43.830 L 189.758 44.216 L 189.136 44.522 L 188.479 44.745 L 187.799 44.881 L 187.106 44.926 L 186.414 44.881 L 185.734 44.745 L 185.077 44.522 L 184.454 44.216 L 183.878 43.830 L 183.356 43.373 L 182.899 42.851 L 182.513 42.274 L 182.206 41.652 L 181.983 40.995 L 181.848 40.315 L 181.802 39.622 L 181.848 38.930 L 181.983 38.249 L 182.206 37.593 L 182.513 36.970 L 182.899 36.393 L 183.356 35.872 L 183.878 35.414 L 184.454 35.029 L 185.077 34.722 L 185.734 34.499 L 186.414 34.364 L 187.106 34.318 L 187.799 34.364 L 188.479 34.499 L 189.136 34.722 L 189.758 35.029 L 190.335 35.414 L 190.857 35.872 L 191.314 36.393 L 191.700 36.970 L 192.007 37.593 L 192.230 38.249 L 192.365 38.930 L 192.410 39.622 M 257.586 198.979 L 257.543 199.628 L 257.416 200.265 L 257.207 200.880 L 256.920 201.462 L 256.559 202.003 L 256.131 202.491 L 255.643 202.919 L 255.102 203.280 L 254.520 203.568 L 253.905 203.776 L 253.268 203.903 L 252.619 203.946 L 251.971 203.903 L 251.334 203.776 L 250.719 203.568 L 250.136 203.280 L 249.596 202.919 L 249.108 202.491 L 248.679 202.003 L 248.319 201.462 L 248.031 200.880 L 247.822 200.265 L 247.696 199.628 L 247.653 198.979 L 247.696 198.331 L 247.822 197.694 L 248.031 197.079 L 248.319 196.496 L 248.679 195.956 L 249.108 195.468 L 249.596 195.040 L 250.136 194.679 L 250.719 194.391 L 251.334 194.183 L 251.971 194.056 L 252.619 194.013 L 253.268 194.056 L 253.905 194.183 L 254.520 194.391 L 255.102 194.679 L 255.643 195.040 L 256.131 195.468 L 256.559 195.956 L 256.920 196.496 L 257.207 197.079 L 257.416 197.694 L 257.543 198.331 L 257.586 198.979 M 182.943 75.335 L 182.903 75.949 L 182.782 76.554 L 182.584 77.137 L 182.312 77.690 L 181.970 78.202 L 181.563 78.665 L 181.100 79.071 L 180.588 79.414 L 180.035 79.686 L 179.452 79.884 L 178.848 80.004 L 178.233 80.045 L 177.618 80.004 L 177.014 79.884 L 176.431 79.686 L 175.878 79.414 L 175.366 79.071 L 174.903 78.665 L 174.496 78.202 L 174.154 77.690 L 173.882 77.137 L 173.684 76.554 L 173.563 75.949 L 173.523 75.335 L 173.563 74.720 L 173.684 74.116 L 173.882 73.532 L 174.154 72.980 L 174.496 72.468 L 174.903 72.004 L 175.366 71.598 L 175.878 71.256 L 176.431 70.983 L 177.014 70.785 L 177.618 70.665 L 178.233 70.625 L 178.848 70.665 L 179.452 70.785 L 180.035 70.983 L 180.588 71.256 L 181.100 71.598 L 181.563 72.004 L 181.970 72.468 L 182.312 72.980 L 182.584 73.532 L 182.782 74.116 L 182.903 74.720 L 182.943 75.335 M 139.814 194.475 L 139.747 195.500 L 139.547 196.508 L 139.216 197.480 L 138.762 198.402 L 138.191 199.256 L 137.514 200.028 L 136.742 200.706 L 135.887 201.277 L 134.966 201.731 L 133.993 202.061 L 132.985 202.262 L 131.960 202.329 L 130.935 202.262 L 129.928 202.061 L 128.955 201.731 L 128.033 201.277 L 127.179 200.706 L 126.407 200.028 L 125.729 199.256 L 125.159 198.402 L 124.704 197.480 L 124.374 196.508 L 124.173 195.500 L 124.106 194.475 L 124.173 193.450 L 124.374 192.442 L 124.704 191.469 L 125.159 190.548 L 125.729 189.694 L 126.407 188.921 L 127.179 188.244 L 128.033 187.673 L 128.955 187.219 L 129.928 186.888 L 130.935 186.688 L 131.960 186.621 L 132.985 186.688 L 133.993 186.888 L 134.966 187.219 L 135.887 187.673 L 136.742 188.244 L 137.514 188.921 L 138.191 189.694 L 138.762 190.548 L 139.216 191.469 L 139.547 192.442 L 139.747 193.450 L 139.814 194.475 M 288.102 224.904 L 288.059 225.555 L 287.932 226.194 L 287.723 226.811 L 287.434 227.396 L 287.072 227.938 L 286.643 228.428 L 286.153 228.857 L 285.611 229.219 L 285.026 229.508 L 284.409 229.717 L 283.770 229.844 L 283.120 229.887 L 282.469 229.844 L 281.830 229.717 L 281.213 229.508 L 280.628 229.219 L 280.086 228.857 L 279.596 228.428 L 279.167 227.938 L 278.805 227.396 L 278.516 226.811 L 278.307 226.194 L 278.180 225.555 L 278.137 224.904 L 278.180 224.254 L 278.307 223.615 L 278.516 222.998 L 278.805 222.413 L 279.167 221.871 L 279.596 221.381 L 280.086 220.952 L 280.628 220.589 L 281.213 220.301 L 281.830 220.092 L 282.469 219.965 L 283.120 219.922 L 283.770 219.965 L 284.409 220.092 L 285.026 220.301 L 285.611 220.589 L 286.153 220.952 L 286.643 221.381 L 287.072 221.871 L 287.434 222.413 L 287.723 222.998 L 287.932 223.615 L 288.059 224.254 L 288.102 224.904 M 240.175 195.907 L 240.122 196.718 L 239.963 197.514 L 239.702 198.283 L 239.343 199.011 L 238.892 199.686 L 238.357 200.296 L 237.747 200.832 L 237.071 201.283 L 236.343 201.642 L 235.574 201.903 L 234.778 202.061 L 233.968 202.114 L 233.158 202.061 L 232.362 201.903 L 231.593 201.642 L 230.865 201.283 L 230.189 200.832 L 229.579 200.296 L 229.044 199.686 L 228.593 199.011 L 228.234 198.283 L 227.973 197.514 L 227.814 196.718 L 227.761 195.907 L 227.814 195.097 L 227.973 194.301 L 228.234 193.532 L 228.593 192.804 L 229.044 192.129 L 229.579 191.518 L 230.189 190.983 L 230.865 190.532 L 231.593 190.173 L 232.362 189.912 L 233.158 189.754 L 233.968 189.701 L 234.778 189.754 L 235.574 189.912 L 236.343 190.173 L 237.071 190.532 L 237.747 190.983 L 238.357 191.518 L 238.892 192.129 L 239.343 192.804 L 239.702 193.532 L 239.963 194.301 L 240.122 195.097 L 240.175 195.907 M 181.965 246.089 L 181.918 246.800 L 181.779 247.499 L 181.550 248.174 L 181.235 248.813 L 180.839 249.406 L 180.369 249.941 L 179.833 250.411 L 179.241 250.807 L 178.602 251.122 L 177.927 251.351 L 177.228 251.491 L 176.517 251.537 L 175.806 251.491 L 175.107 251.351 L 174.432 251.122 L 173.793 250.807 L 173.200 250.411 L 172.664 249.941 L 172.194 249.406 L 171.798 248.813 L 171.483 248.174 L 171.254 247.499 L 171.115 246.800 L 171.068 246.089 L 171.115 245.378 L 171.254 244.679 L 171.483 244.004 L 171.798 243.365 L 172.194 242.772 L 172.664 242.236 L 173.200 241.766 L 173.793 241.371 L 174.432 241.055 L 175.107 240.826 L 175.806 240.687 L 176.517 240.641 L 177.228 240.687 L 177.927 240.826 L 178.602 241.055 L 179.241 241.371 L 179.833 241.766 L 180.369 242.236 L 180.839 242.772 L 181.235 243.365 L 181.550 244.004 L 181.779 244.679 L 181.918 245.378 L 181.965 246.089 M 247.555 34.921 L 247.512 35.571 L 247.385 36.210 L 247.175 36.827 L 246.887 37.412 L 246.525 37.954 L 246.095 38.444 L 245.605 38.874 L 245.063 39.236 L 244.479 39.524 L 243.862 39.734 L 243.222 39.861 L 242.572 39.903 L 241.922 39.861 L 241.282 39.734 L 240.665 39.524 L 240.081 39.236 L 239.539 38.874 L 239.049 38.444 L 238.619 37.954 L 238.257 37.412 L 237.969 36.827 L 237.759 36.210 L 237.632 35.571 L 237.589 34.921 L 237.632 34.270 L 237.759 33.631 L 237.969 33.014 L 238.257 32.429 L 238.619 31.888 L 239.049 31.398 L 239.539 30.968 L 240.081 30.606 L 240.665 30.317 L 241.282 30.108 L 241.922 29.981 L 242.572 29.938 L 243.222 29.981 L 243.862 30.108 L 244.479 30.317 L 245.063 30.606 L 245.605 30.968 L 246.095 31.398 L 246.525 31.888 L 246.887 32.429 L 247.175 33.014 L 247.385 33.631 L 247.512 34.270 L 247.555 34.921 M 227.121 228.169 L 227.072 228.917 L 226.926 229.651 L 226.685 230.360 L 226.354 231.032 L 225.938 231.655 L 225.444 232.218 L 224.881 232.711 L 224.259 233.127 L 223.587 233.459 L 222.878 233.699 L 222.143 233.845 L 221.396 233.894 L 220.649 233.845 L 219.914 233.699 L 219.205 233.459 L 218.534 233.127 L 217.911 232.711 L 217.348 232.218 L 216.854 231.655 L 216.438 231.032 L 216.107 230.360 L 215.866 229.651 L 215.720 228.917 L 215.671 228.169 L 215.720 227.422 L 215.866 226.688 L 216.107 225.979 L 216.438 225.307 L 216.854 224.684 L 217.348 224.121 L 217.911 223.628 L 218.534 223.211 L 219.205 222.880 L 219.914 222.640 L 220.649 222.493 L 221.396 222.444 L 222.143 222.493 L 222.878 222.640 L 223.587 222.880 L 224.259 223.211 L 224.881 223.628 L 225.444 224.121 L 225.938 224.684 L 226.354 225.307 L 226.685 225.979 L 226.926 226.688 L 227.072 227.422 L 227.121 228.169 M 260.725 185.045 L 260.676 185.800 L 260.528 186.542 L 260.285 187.258 L 259.950 187.937 L 259.530 188.566 L 259.031 189.135 L 258.463 189.633 L 257.834 190.054 L 257.155 190.388 L 256.439 190.631 L 255.697 190.779 L 254.942 190.829 L 254.187 190.779 L 253.445 190.631 L 252.729 190.388 L 252.050 190.054 L 251.421 189.633 L 250.852 189.135 L 250.354 188.566 L 249.933 187.937 L 249.599 187.258 L 249.356 186.542 L 249.208 185.800 L 249.158 185.045 L 249.208 184.290 L 249.356 183.548 L 249.599 182.832 L 249.933 182.153 L 250.354 181.524 L 250.852 180.956 L 251.421 180.457 L 252.050 180.037 L 252.729 179.702 L 253.445 179.459 L 254.187 179.311 L 254.942 179.262 L 255.697 179.311 L 256.439 179.459 L 257.155 179.702 L 257.834 180.037 L 258.463 180.457 L 259.031 180.956 L 259.530 181.524 L 259.950 182.153 L 260.285 182.832 L 260.528 183.548 L 260.676 184.290 L 260.725 185.045 M 290.446 90.977 L 290.404 91.615 L 290.279 92.243 L 290.074 92.850 L 289.790 93.424 L 289.435 93.956 L 289.013 94.437 L 288.531 94.859 L 287.999 95.215 L 287.425 95.498 L 286.818 95.704 L 286.191 95.829 L 285.552 95.871 L 284.913 95.829 L 284.285 95.704 L 283.679 95.498 L 283.105 95.215 L 282.572 94.859 L 282.091 94.437 L 281.669 93.956 L 281.313 93.424 L 281.030 92.850 L 280.824 92.243 L 280.699 91.615 L 280.657 90.977 L 280.699 90.338 L 280.824 89.710 L 281.030 89.104 L 281.313 88.529 L 281.669 87.997 L 282.091 87.516 L 282.572 87.094 L 283.105 86.738 L 283.679 86.455 L 284.285 86.249 L 284.913 86.124 L 285.552 86.082 L 286.191 86.124 L 286.818 86.249 L 287.425 86.455 L 287.999 86.738 L 288.531 87.094 L 289.013 87.516 L 289.435 87.997 L 289.790 88.529 L 290.074 89.104 L 290.279 89.710 L 290.404 90.338 L 290.446 90.977 M 112.845 98.874 L 112.782 99.829 L 112.595 100.768 L 112.287 101.675 L 111.864 102.534 L 111.332 103.330 L 110.701 104.050 L 109.981 104.681 L 109.184 105.213 L 108.326 105.637 L 107.419 105.945 L 106.480 106.131 L 105.524 106.194 L 104.569 106.131 L 103.630 105.945 L 102.723 105.637 L 101.864 105.213 L 101.068 104.681 L 100.348 104.050 L 99.717 103.330 L 99.185 102.534 L 98.761 101.675 L 98.453 100.768 L 98.266 99.829 L 98.204 98.874 L 98.266 97.918 L 98.453 96.979 L 98.761 96.072 L 99.185 95.213 L 99.717 94.417 L 100.348 93.697 L 101.068 93.066 L 101.864 92.534 L 102.723 92.110 L 103.630 91.803 L 104.569 91.616 L 105.524 91.553 L 106.480 91.616 L 107.419 91.803 L 108.326 92.110 L 109.184 92.534 L 109.981 93.066 L 110.701 93.697 L 111.332 94.417 L 111.864 95.213 L 112.287 96.072 L 112.595 96.979 L 112.782 97.918 L 112.845 98.874 M 291.476 131.302 L 291.433 131.959 L 291.304 132.605 L 291.092 133.229 L 290.801 133.820 L 290.435 134.368 L 290.000 134.863 L 289.505 135.298 L 288.957 135.664 L 288.366 135.955 L 287.742 136.167 L 287.096 136.296 L 286.438 136.339 L 285.781 136.296 L 285.135 136.167 L 284.511 135.955 L 283.920 135.664 L 283.372 135.298 L 282.877 134.863 L 282.442 134.368 L 282.076 133.820 L 281.785 133.229 L 281.573 132.605 L 281.444 131.959 L 281.401 131.302 L 281.444 130.644 L 281.573 129.998 L 281.785 129.374 L 282.076 128.783 L 282.442 128.235 L 282.877 127.740 L 283.372 127.305 L 283.920 126.939 L 284.511 126.648 L 285.135 126.436 L 285.781 126.307 L 286.438 126.264 L 287.096 126.307 L 287.742 126.436 L 288.366 126.648 L 288.957 126.939 L 289.505 127.305 L 290.000 127.740 L 290.435 128.235 L 290.801 128.783 L 291.092 129.374 L 291.304 129.998 L 291.433 130.644 L 291.476 131.302 M 229.072 46.308 L 229.026 47.005 L 228.890 47.689 L 228.666 48.350 L 228.357 48.977 L 227.969 49.557 L 227.509 50.082 L 226.984 50.542 L 226.404 50.930 L 225.777 51.239 L 225.116 51.463 L 224.432 51.599 L 223.735 51.645 L 223.038 51.599 L 222.354 51.463 L 221.693 51.239 L 221.067 50.930 L 220.486 50.542 L 219.961 50.082 L 219.501 49.557 L 219.113 48.977 L 218.804 48.350 L 218.580 47.689 L 218.444 47.005 L 218.398 46.308 L 218.444 45.611 L 218.580 44.927 L 218.804 44.266 L 219.113 43.640 L 219.501 43.059 L 219.961 42.534 L 220.486 42.074 L 221.067 41.686 L 221.693 41.377 L 222.354 41.153 L 223.038 41.017 L 223.735 40.971 L 224.432 41.017 L 225.116 41.153 L 225.777 41.377 L 226.404 41.686 L 226.984 42.074 L 227.509 42.534 L 227.969 43.059 L 228.357 43.640 L 228.666 44.266 L 228.890 44.927 L 229.026 45.611 L 229.072 46.308 M 333.200 154.209 L 333.124 155.365 L 332.898 156.501 L 332.526 157.598 L 332.014 158.638 L 331.370 159.601 L 330.606 160.472 L 329.735 161.236 L 328.771 161.880 L 327.732 162.392 L 326.635 162.765 L 325.499 162.991 L 324.343 163.066 L 323.186 162.991 L 322.050 162.765 L 320.953 162.392 L 319.914 161.880 L 318.950 161.236 L 318.079 160.472 L 317.315 159.601 L 316.672 158.638 L 316.159 157.598 L 315.787 156.501 L 315.561 155.365 L 315.485 154.209 L 315.561 153.053 L 315.787 151.916 L 316.159 150.819 L 316.672 149.780 L 317.315 148.817 L 318.079 147.945 L 318.950 147.181 L 319.914 146.538 L 320.953 146.025 L 322.050 145.653 L 323.186 145.427 L 324.343 145.351 L 325.499 145.427 L 326.635 145.653 L 327.732 146.025 L 328.771 146.538 L 329.735 147.181 L 330.606 147.945 L 331.370 148.817 L 332.014 149.780 L 332.526 150.819 L 332.898 151.916 L 333.124 153.053 L 333.200 154.209 M 198.291 186.773 L 198.248 187.427 L 198.120 188.070 L 197.910 188.690 L 197.620 189.277 L 197.256 189.822 L 196.824 190.315 L 196.331 190.747 L 195.787 191.111 L 195.199 191.400 L 194.579 191.611 L 193.936 191.739 L 193.282 191.782 L 192.629 191.739 L 191.986 191.611 L 191.366 191.400 L 190.778 191.111 L 190.233 190.747 L 189.741 190.315 L 189.309 189.822 L 188.945 189.277 L 188.655 188.690 L 188.444 188.070 L 188.317 187.427 L 188.274 186.773 L 188.317 186.120 L 188.444 185.477 L 188.655 184.857 L 188.945 184.269 L 189.309 183.724 L 189.741 183.232 L 190.233 182.800 L 190.778 182.436 L 191.366 182.146 L 191.986 181.935 L 192.629 181.808 L 193.282 181.765 L 193.936 181.808 L 194.579 181.935 L 195.199 182.146 L 195.787 182.436 L 196.331 182.800 L 196.824 183.232 L 197.256 183.724 L 197.620 184.269 L 197.910 184.857 L 198.120 185.477 L 198.248 186.120 L 198.291 186.773 M 296.097 74.319 L 296.049 75.054 L 295.906 75.776 L 295.669 76.473 L 295.343 77.134 L 294.934 77.746 L 294.449 78.299 L 293.895 78.785 L 293.283 79.194 L 292.623 79.519 L 291.926 79.756 L 291.204 79.900 L 290.469 79.948 L 289.734 79.900 L 289.012 79.756 L 288.315 79.519 L 287.655 79.194 L 287.043 78.785 L 286.489 78.299 L 286.004 77.746 L 285.595 77.134 L 285.269 76.473 L 285.033 75.776 L 284.889 75.054 L 284.841 74.319 L 284.889 73.585 L 285.033 72.863 L 285.269 72.165 L 285.595 71.505 L 286.004 70.893 L 286.489 70.340 L 287.043 69.854 L 287.655 69.445 L 288.315 69.119 L 289.012 68.883 L 289.734 68.739 L 290.469 68.691 L 291.204 68.739 L 291.926 68.883 L 292.623 69.119 L 293.283 69.445 L 293.895 69.854 L 294.449 70.340 L 294.934 70.893 L 295.343 71.505 L 295.669 72.165 L 295.906 72.863 L 296.049 73.585 L 296.097 74.319 M 267.469 253.957 L 267.421 254.696 L 267.276 255.422 L 267.038 256.123 L 266.711 256.787 L 266.300 257.402 L 265.812 257.959 L 265.255 258.447 L 264.640 258.858 L 263.976 259.185 L 263.275 259.423 L 262.549 259.568 L 261.810 259.616 L 261.072 259.568 L 260.346 259.423 L 259.645 259.185 L 258.981 258.858 L 258.365 258.447 L 257.809 257.959 L 257.321 257.402 L 256.910 256.787 L 256.582 256.123 L 256.344 255.422 L 256.200 254.696 L 256.151 253.957 L 256.200 253.219 L 256.344 252.493 L 256.582 251.792 L 256.910 251.128 L 257.321 250.512 L 257.809 249.956 L 258.365 249.468 L 258.981 249.056 L 259.645 248.729 L 260.346 248.491 L 261.072 248.347 L 261.810 248.298 L 262.549 248.347 L 263.275 248.491 L 263.976 248.729 L 264.640 249.056 L 265.255 249.468 L 265.812 249.956 L 266.300 250.512 L 266.711 251.128 L 267.038 251.792 L 267.276 252.493 L 267.421 253.219 L 267.469 253.957 M 146.143 238.210 L 146.081 239.149 L 145.898 240.072 L 145.595 240.964 L 145.179 241.808 L 144.656 242.590 L 144.035 243.298 L 143.328 243.919 L 142.545 244.442 L 141.701 244.858 L 140.810 245.160 L 139.886 245.344 L 138.947 245.406 L 138.008 245.344 L 137.085 245.160 L 136.194 244.858 L 135.349 244.442 L 134.567 243.919 L 133.859 243.298 L 133.239 242.590 L 132.716 241.808 L 132.299 240.964 L 131.997 240.072 L 131.813 239.149 L 131.752 238.210 L 131.813 237.271 L 131.997 236.348 L 132.299 235.456 L 132.716 234.612 L 133.239 233.830 L 133.859 233.122 L 134.567 232.501 L 135.349 231.978 L 136.194 231.562 L 137.085 231.260 L 138.008 231.076 L 138.947 231.014 L 139.886 231.076 L 140.810 231.260 L 141.701 231.562 L 142.545 231.978 L 143.328 232.501 L 144.035 233.122 L 144.656 233.830 L 145.179 234.612 L 145.595 235.456 L 145.898 236.348 L 146.081 237.271 L 146.143 238.210 M 193.980 154.824 L 193.928 155.619 L 193.772 156.401 L 193.516 157.157 L 193.163 157.872 L 192.720 158.535 L 192.194 159.134 L 191.595 159.660 L 190.932 160.103 L 190.217 160.455 L 189.462 160.712 L 188.680 160.867 L 187.884 160.919 L 187.089 160.867 L 186.307 160.712 L 185.552 160.455 L 184.837 160.103 L 184.174 159.660 L 183.574 159.134 L 183.048 158.535 L 182.605 157.872 L 182.253 157.157 L 181.996 156.401 L 181.841 155.619 L 181.789 154.824 L 181.841 154.028 L 181.996 153.246 L 182.253 152.491 L 182.605 151.776 L 183.048 151.113 L 183.574 150.514 L 184.174 149.988 L 184.837 149.545 L 185.552 149.192 L 186.307 148.936 L 187.089 148.781 L 187.884 148.728 L 188.680 148.781 L 189.462 148.936 L 190.217 149.192 L 190.932 149.545 L 191.595 149.988 L 192.194 150.514 L 192.720 151.113 L 193.163 151.776 L 193.516 152.491 L 193.772 153.246 L 193.928 154.028 L 193.980 154.824 M 183.748 261.390 L 183.702 262.092 L 183.565 262.781 L 183.339 263.447 L 183.028 264.077 L 182.637 264.662 L 182.174 265.191 L 181.645 265.654 L 181.061 266.045 L 180.430 266.356 L 179.765 266.581 L 179.075 266.719 L 178.374 266.765 L 177.672 266.719 L 176.983 266.581 L 176.317 266.356 L 175.686 266.045 L 175.102 265.654 L 174.573 265.191 L 174.110 264.662 L 173.719 264.077 L 173.408 263.447 L 173.182 262.781 L 173.045 262.092 L 172.999 261.390 L 173.045 260.689 L 173.182 259.999 L 173.408 259.334 L 173.719 258.703 L 174.110 258.119 L 174.573 257.590 L 175.102 257.127 L 175.686 256.736 L 176.317 256.425 L 176.983 256.199 L 177.672 256.062 L 178.374 256.016 L 179.075 256.062 L 179.765 256.199 L 180.430 256.425 L 181.061 256.736 L 181.645 257.127 L 182.174 257.590 L 182.637 258.119 L 183.028 258.703 L 183.339 259.334 L 183.565 259.999 L 183.702 260.689 L 183.748 261.390 M 232.349 136.763 L 232.290 137.675 L 232.111 138.572 L 231.817 139.438 L 231.413 140.259 L 230.905 141.019 L 230.302 141.707 L 229.614 142.310 L 228.853 142.818 L 228.033 143.222 L 227.167 143.516 L 226.270 143.695 L 225.358 143.755 L 224.445 143.695 L 223.548 143.516 L 222.682 143.222 L 221.862 142.818 L 221.101 142.310 L 220.414 141.707 L 219.811 141.019 L 219.303 140.259 L 218.898 139.438 L 218.604 138.572 L 218.426 137.675 L 218.366 136.763 L 218.426 135.850 L 218.604 134.953 L 218.898 134.087 L 219.303 133.267 L 219.811 132.506 L 220.414 131.819 L 221.101 131.216 L 221.862 130.708 L 222.682 130.303 L 223.548 130.009 L 224.445 129.831 L 225.358 129.771 L 226.270 129.831 L 227.167 130.009 L 228.033 130.303 L 228.853 130.708 L 229.614 131.216 L 230.302 131.819 L 230.905 132.506 L 231.413 133.267 L 231.817 134.087 L 232.111 134.953 L 232.290 135.850 L 232.349 136.763 M 160.714 115.587 L 160.672 116.232 L 160.546 116.866 L 160.338 117.479 L 160.052 118.058 L 159.693 118.596 L 159.266 119.082 L 158.780 119.509 L 158.243 119.868 L 157.663 120.154 L 157.050 120.362 L 156.416 120.488 L 155.771 120.530 L 155.125 120.488 L 154.491 120.362 L 153.879 120.154 L 153.299 119.868 L 152.761 119.509 L 152.275 119.082 L 151.849 118.596 L 151.490 118.058 L 151.204 117.479 L 150.996 116.866 L 150.870 116.232 L 150.827 115.587 L 150.870 114.941 L 150.996 114.307 L 151.204 113.695 L 151.490 113.115 L 151.849 112.577 L 152.275 112.091 L 152.761 111.665 L 153.299 111.305 L 153.879 111.019 L 154.491 110.812 L 155.125 110.685 L 155.771 110.643 L 156.416 110.685 L 157.050 110.812 L 157.663 111.019 L 158.243 111.305 L 158.780 111.665 L 159.266 112.091 L 159.693 112.577 L 160.052 113.115 L 160.338 113.695 L 160.546 114.307 L 160.672 114.941 L 160.714 115.587 M 291.158 163.314 L 291.110 164.042 L 290.968 164.757 L 290.733 165.447 L 290.411 166.101 L 290.006 166.708 L 289.525 167.256 L 288.977 167.737 L 288.371 168.142 L 287.717 168.464 L 287.026 168.699 L 286.311 168.841 L 285.583 168.889 L 284.856 168.841 L 284.141 168.699 L 283.450 168.464 L 282.796 168.142 L 282.190 167.737 L 281.642 167.256 L 281.161 166.708 L 280.756 166.101 L 280.433 165.447 L 280.199 164.757 L 280.057 164.042 L 280.009 163.314 L 280.057 162.586 L 280.199 161.871 L 280.433 161.181 L 280.756 160.527 L 281.161 159.921 L 281.642 159.372 L 282.190 158.892 L 282.796 158.487 L 283.450 158.164 L 284.141 157.930 L 284.856 157.787 L 285.583 157.740 L 286.311 157.787 L 287.026 157.930 L 287.717 158.164 L 288.371 158.487 L 288.977 158.892 L 289.525 159.372 L 290.006 159.921 L 290.411 160.527 L 290.733 161.181 L 290.968 161.871 L 291.110 162.586 L 291.158 163.314 M 252.644 256.223 L 252.572 257.319 L 252.357 258.397 L 252.004 259.438 L 251.518 260.423 L 250.908 261.337 L 250.183 262.163 L 249.357 262.888 L 248.443 263.499 L 247.457 263.985 L 246.417 264.338 L 245.339 264.552 L 244.242 264.624 L 243.145 264.552 L 242.067 264.338 L 241.027 263.985 L 240.041 263.499 L 239.127 262.888 L 238.301 262.163 L 237.576 261.337 L 236.966 260.423 L 236.480 259.438 L 236.127 258.397 L 235.912 257.319 L 235.840 256.223 L 235.912 255.126 L 236.127 254.048 L 236.480 253.007 L 236.966 252.022 L 237.576 251.108 L 238.301 250.282 L 239.127 249.557 L 240.041 248.946 L 241.027 248.460 L 242.067 248.107 L 243.145 247.893 L 244.242 247.821 L 245.339 247.893 L 246.417 248.107 L 247.457 248.460 L 248.443 248.946 L 249.357 249.557 L 250.183 250.282 L 250.908 251.108 L 251.518 252.022 L 252.004 253.007 L 252.357 254.048 L 252.572 255.126 L 252.644 256.223 M 183.360 110.768 L 183.307 111.584 L 183.147 112.386 L 182.884 113.160 L 182.523 113.893 L 182.068 114.573 L 181.529 115.188 L 180.915 115.727 L 180.235 116.181 L 179.501 116.543 L 178.727 116.806 L 177.925 116.965 L 177.109 117.019 L 176.293 116.965 L 175.491 116.806 L 174.717 116.543 L 173.984 116.181 L 173.304 115.727 L 172.689 115.188 L 172.150 114.573 L 171.695 113.893 L 171.334 113.160 L 171.071 112.386 L 170.911 111.584 L 170.858 110.768 L 170.911 109.952 L 171.071 109.150 L 171.334 108.376 L 171.695 107.642 L 172.150 106.962 L 172.689 106.348 L 173.304 105.808 L 173.984 105.354 L 174.717 104.993 L 175.491 104.730 L 176.293 104.570 L 177.109 104.517 L 177.925 104.570 L 178.727 104.730 L 179.501 104.993 L 180.235 105.354 L 180.915 105.808 L 181.529 106.348 L 182.068 106.962 L 182.523 107.642 L 182.884 108.376 L 183.147 109.150 L 183.307 109.952 L 183.360 110.768 M 233.798 265.722 L 233.752 266.413 L 233.617 267.093 L 233.394 267.749 L 233.088 268.370 L 232.703 268.946 L 232.246 269.467 L 231.725 269.924 L 231.149 270.309 L 230.528 270.615 L 229.872 270.838 L 229.192 270.973 L 228.501 271.018 L 227.810 270.973 L 227.130 270.838 L 226.474 270.615 L 225.853 270.309 L 225.277 269.924 L 224.756 269.467 L 224.299 268.946 L 223.914 268.370 L 223.608 267.749 L 223.385 267.093 L 223.250 266.413 L 223.205 265.722 L 223.250 265.031 L 223.385 264.351 L 223.608 263.695 L 223.914 263.074 L 224.299 262.498 L 224.756 261.977 L 225.277 261.520 L 225.853 261.135 L 226.474 260.829 L 227.130 260.606 L 227.810 260.471 L 228.501 260.425 L 229.192 260.471 L 229.872 260.606 L 230.528 260.829 L 231.149 261.135 L 231.725 261.520 L 232.246 261.977 L 232.703 262.498 L 233.088 263.074 L 233.394 263.695 L 233.617 264.351 L 233.752 265.031 L 233.798 265.722 M 278.301 130.234 L 278.254 130.938 L 278.117 131.629 L 277.890 132.296 L 277.579 132.928 L 277.187 133.514 L 276.722 134.044 L 276.192 134.509 L 275.606 134.901 L 274.974 135.212 L 274.307 135.439 L 273.615 135.576 L 272.912 135.623 L 272.209 135.576 L 271.518 135.439 L 270.850 135.212 L 270.218 134.901 L 269.632 134.509 L 269.102 134.044 L 268.637 133.514 L 268.246 132.928 L 267.934 132.296 L 267.707 131.629 L 267.570 130.938 L 267.524 130.234 L 267.570 129.531 L 267.707 128.840 L 267.934 128.172 L 268.246 127.540 L 268.637 126.954 L 269.102 126.424 L 269.632 125.959 L 270.218 125.568 L 270.850 125.256 L 271.518 125.029 L 272.209 124.892 L 272.912 124.846 L 273.615 124.892 L 274.307 125.029 L 274.974 125.256 L 275.606 125.568 L 276.192 125.959 L 276.722 126.424 L 277.187 126.954 L 277.579 127.540 L 277.890 128.172 L 278.117 128.840 L 278.254 129.531 L 278.301 130.234 M 132.930 64.560 L 132.890 65.173 L 132.770 65.776 L 132.572 66.358 L 132.300 66.910 L 131.959 67.421 L 131.553 67.883 L 131.091 68.289 L 130.580 68.630 L 130.029 68.902 L 129.447 69.100 L 128.844 69.220 L 128.230 69.260 L 127.617 69.220 L 127.014 69.100 L 126.431 68.902 L 125.880 68.630 L 125.369 68.289 L 124.907 67.883 L 124.501 67.421 L 124.160 66.910 L 123.888 66.358 L 123.690 65.776 L 123.570 65.173 L 123.530 64.560 L 123.570 63.946 L 123.690 63.343 L 123.888 62.761 L 124.160 62.210 L 124.501 61.699 L 124.907 61.236 L 125.369 60.831 L 125.880 60.490 L 126.431 60.218 L 127.014 60.020 L 127.617 59.900 L 128.230 59.860 L 128.844 59.900 L 129.447 60.020 L 130.029 60.218 L 130.580 60.490 L 131.091 60.831 L 131.553 61.236 L 131.959 61.699 L 132.300 62.210 L 132.572 62.761 L 132.770 63.343 L 132.890 63.946 L 132.930 64.560 M 218.870 174.790 L 218.827 175.443 L 218.699 176.085 L 218.489 176.704 L 218.200 177.291 L 217.836 177.835 L 217.405 178.326 L 216.913 178.758 L 216.369 179.121 L 215.783 179.410 L 215.163 179.621 L 214.522 179.748 L 213.869 179.791 L 213.216 179.748 L 212.575 179.621 L 211.955 179.410 L 211.369 179.121 L 210.825 178.758 L 210.333 178.326 L 209.902 177.835 L 209.538 177.291 L 209.249 176.704 L 209.039 176.085 L 208.911 175.443 L 208.868 174.790 L 208.911 174.138 L 209.039 173.496 L 209.249 172.877 L 209.538 172.290 L 209.902 171.746 L 210.333 171.254 L 210.825 170.823 L 211.369 170.460 L 211.955 170.170 L 212.575 169.960 L 213.216 169.832 L 213.869 169.790 L 214.522 169.832 L 215.163 169.960 L 215.783 170.170 L 216.369 170.460 L 216.913 170.823 L 217.405 171.254 L 217.836 171.746 L 218.200 172.290 L 218.489 172.877 L 218.699 173.496 L 218.827 174.138 L 218.870 174.790 M 147.366 52.085 L 147.323 52.745 L 147.194 53.393 L 146.981 54.020 L 146.689 54.613 L 146.321 55.163 L 145.885 55.660 L 145.388 56.096 L 144.838 56.463 L 144.245 56.756 L 143.619 56.968 L 142.970 57.097 L 142.310 57.141 L 141.650 57.097 L 141.002 56.968 L 140.375 56.756 L 139.782 56.463 L 139.232 56.096 L 138.735 55.660 L 138.299 55.163 L 137.932 54.613 L 137.639 54.020 L 137.427 53.393 L 137.298 52.745 L 137.254 52.085 L 137.298 51.425 L 137.427 50.776 L 137.639 50.150 L 137.932 49.557 L 138.299 49.007 L 138.735 48.510 L 139.232 48.074 L 139.782 47.707 L 140.375 47.414 L 141.002 47.202 L 141.650 47.073 L 142.310 47.029 L 142.970 47.073 L 143.619 47.202 L 144.245 47.414 L 144.838 47.707 L 145.388 48.074 L 145.885 48.510 L 146.321 49.007 L 146.689 49.557 L 146.981 50.150 L 147.194 50.776 L 147.323 51.425 L 147.366 52.085 M 275.444 174.423 L 275.372 175.515 L 275.159 176.588 L 274.807 177.625 L 274.323 178.606 L 273.715 179.516 L 272.993 180.339 L 272.170 181.061 L 271.260 181.669 L 270.279 182.153 L 269.242 182.505 L 268.169 182.718 L 267.077 182.790 L 265.984 182.718 L 264.911 182.505 L 263.875 182.153 L 262.893 181.669 L 261.983 181.061 L 261.160 180.339 L 260.439 179.516 L 259.831 178.606 L 259.346 177.625 L 258.995 176.588 L 258.781 175.515 L 258.710 174.423 L 258.781 173.331 L 258.995 172.257 L 259.346 171.221 L 259.831 170.239 L 260.439 169.329 L 261.160 168.507 L 261.983 167.785 L 262.893 167.177 L 263.875 166.693 L 264.911 166.341 L 265.984 166.128 L 267.077 166.056 L 268.169 166.128 L 269.242 166.341 L 270.279 166.693 L 271.260 167.177 L 272.170 167.785 L 272.993 168.507 L 273.715 169.329 L 274.323 170.239 L 274.807 171.221 L 275.159 172.257 L 275.372 173.331 L 275.444 174.423 M 183.733 140.511 L 183.689 141.192 L 183.556 141.862 L 183.336 142.508 L 183.034 143.120 L 182.655 143.687 L 182.205 144.200 L 181.692 144.650 L 181.125 145.029 L 180.513 145.331 L 179.867 145.550 L 179.197 145.684 L 178.516 145.728 L 177.835 145.684 L 177.166 145.550 L 176.520 145.331 L 175.908 145.029 L 175.341 144.650 L 174.828 144.200 L 174.378 143.687 L 173.998 143.120 L 173.697 142.508 L 173.477 141.862 L 173.344 141.192 L 173.300 140.511 L 173.344 139.830 L 173.477 139.161 L 173.697 138.515 L 173.998 137.903 L 174.378 137.335 L 174.828 136.822 L 175.341 136.372 L 175.908 135.993 L 176.520 135.692 L 177.166 135.472 L 177.835 135.339 L 178.516 135.294 L 179.197 135.339 L 179.867 135.472 L 180.513 135.692 L 181.125 135.993 L 181.692 136.372 L 182.205 136.822 L 182.655 137.335 L 183.034 137.903 L 183.336 138.515 L 183.556 139.161 L 183.689 139.830 L 183.733 140.511" fill="none" stroke="#2dd4bf" stroke-width="1" vector-effect="non-scaling-stroke"/></svg>