<svg xmlns="http://www.w3.org/2000/svg" viewBox="78.95665157661088 17.82009876647887 257.8928833455202 260.53227509746455" width="257.8928833455202" height="260.53227509746455" shape-rendering="geometricPrecision"><rect x="78.95665157661088" y="17.82009876647887" width="257.8928833455202" height="260.53227509746455" fill="#0b0f14"/><path d="M 201.768 160.941 L 201.594 163.593 L 201.076 166.199 L 200.222 168.715 L 199.047 171.098 L 197.570 173.307 L 195.818 175.305 L 193.821 177.057 L 191.611 178.533 L 189.228 179.708 L 186.712 180.562 L 184.106 181.081 L 181.455 181.254 L 178.803 181.081 L 176.197 180.562 L 173.681 179.708 L 171.298 178.533 L 169.089 177.057 L 167.091 175.305 L 165.339 173.307 L 163.863 171.098 L 162.688 168.715 L 161.833 166.199 L 161.315 163.593 L 161.141 160.941 L 161.315 158.290 L 161.833 155.684 L 162.688 153.168 L 163.863 150.784 L 165.339 148.575 L 167.091 146.577 L 169.089 144.825 L 171.298 143.349 L 173.681 142.174 L 176.197 141.320 L 178.803 140.802 L 181.455 140.628 L 184.106 140.802 L 186.712 141.320 L 189.228 142.174 L 191.611 143.349 L 193.821 144.825 L 195.818 146.577 L 197.570 148.575 L 199.047 150.784 L 200.222 153.168 L 201.076 155.684 L 201.594 158.290 L 201.768 160.941 M 256.322 240.922 L 256.172 243.211 L 255.724 245.461 L 254.987 247.634 L 253.972 249.691 L 252.697 251.599 L 251.185 253.323 L 249.460 254.836 L 247.553 256.111 L 245.495 257.125 L 243.323 257.863 L 241.073 258.310 L 238.784 258.460 L 236.494 258.310 L 234.244 257.863 L 232.072 257.125 L 230.014 256.111 L 228.107 254.836 L 226.382 253.323 L 224.870 251.599 L 223.595 249.691 L 222.580 247.634 L 221.843 245.461 L 221.395 243.211 L 221.245 240.922 L 221.395 238.633 L 221.843 236.383 L 222.580 234.211 L 223.595 232.153 L 224.870 230.246 L 226.382 228.521 L 228.107 227.008 L 230.014 225.734 L 232.072 224.719 L 234.244 223.981 L 236.494 223.534 L 238.784 223.384 L 241.073 223.534 L 243.323 223.981 L 245.495 224.719 L 247.553 225.734 L 249.460 227.008 L 251.185 228.521 L 252.697 230.246 L 253.972 232.153 L 254.987 234.211 L 255.724 236.383 L 256.172 238.633 L 256.322 240.922 M 294.109 110.639 L 294.001 112.291 L 293.678 113.915 L 293.146 115.483 L 292.413 116.968 L 291.493 118.345 L 290.402 119.590 L 289.157 120.682 L 287.780 121.602 L 286.295 122.334 L 284.727 122.866 L 283.103 123.189 L 281.451 123.298 L 279.798 123.189 L 278.174 122.866 L 276.606 122.334 L 275.121 121.602 L 273.744 120.682 L 272.499 119.590 L 271.408 118.345 L 270.488 116.968 L 269.755 115.483 L 269.223 113.915 L 268.900 112.291 L 268.792 110.639 L 268.900 108.987 L 269.223 107.362 L 269.755 105.795 L 270.488 104.309 L 271.408 102.933 L 272.499 101.688 L 273.744 100.596 L 275.121 99.676 L 276.606 98.944 L 278.174 98.411 L 279.798 98.088 L 281.451 97.980 L 283.103 98.088 L 284.727 98.411 L 286.295 98.944 L 287.780 99.676 L 289.157 100.596 L 290.402 101.688 L 291.493 102.933 L 292.413 104.309 L 293.146 105.795 L 293.678 107.362 L 294.001 108.987 L 294.109 110.639 M 224.545 212.684 L 224.475 213.759 L 224.264 214.816 L 223.918 215.837 L 223.441 216.804 L 222.842 217.700 L 222.131 218.511 L 221.321 219.222 L 220.425 219.820 L 219.458 220.297 L 218.437 220.644 L 217.380 220.854 L 216.304 220.924 L 215.229 220.854 L 214.171 220.644 L 213.150 220.297 L 212.184 219.820 L 211.287 219.222 L 210.477 218.511 L 209.766 217.700 L 209.167 216.804 L 208.691 215.837 L 208.344 214.816 L 208.134 213.759 L 208.063 212.684 L 208.134 211.608 L 208.344 210.551 L 208.691 209.530 L 209.167 208.563 L 209.766 207.667 L 210.477 206.856 L 211.287 206.146 L 212.184 205.547 L 213.150 205.070 L 214.171 204.723 L 215.229 204.513 L 216.304 204.443 L 217.380 204.513 L 218.437 204.723 L 219.458 205.070 L 220.425 205.547 L 221.321 206.146 L 222.131 206.856 L 222.842 207.667 L 223.441 208.563 L 223.918 209.530 L 224.264 210.551 L 224.475 211.608 L 224.545 212.684 M 255.686 177.075 L 255.506 179.823 L 254.968 182.524 L 254.083 185.132 L 252.865 187.602 L 251.335 189.891 L 249.519 191.962 L 247.449 193.778 L 245.159 195.308 L 242.689 196.526 L 240.082 197.411 L 237.381 197.948 L 234.633 198.128 L 231.885 197.948 L 229.184 197.411 L 226.576 196.526 L 224.106 195.308 L 221.816 193.778 L 219.746 191.962 L 217.930 189.891 L 216.400 187.602 L 215.182 185.132 L 214.297 182.524 L 213.760 179.823 L 213.580 177.075 L 213.760 174.327 L 214.297 171.626 L 215.182 169.018 L 216.400 166.548 L 217.930 164.259 L 219.746 162.188 L 221.816 160.372 L 224.106 158.843 L 226.576 157.625 L 229.184 156.739 L 231.885 156.202 L 234.633 156.022 L 237.381 156.202 L 240.082 156.739 L 242.689 157.625 L 245.159 158.843 L 247.449 160.372 L 249.519 162.188 L 251.335 164.259 L 252.865 166.548 L 254.083 169.018 L 254.968 171.626 L 255.506 174.327 L 255.686 177.075 M 109.096 158.970 L 109.027 160.028 L 108.820 161.068 L 108.479 162.072 L 108.011 163.023 L 107.422 163.904 L 106.722 164.701 L 105.925 165.400 L 105.044 165.989 L 104.093 166.458 L 103.089 166.799 L 102.049 167.006 L 100.991 167.075 L 99.934 167.006 L 98.894 166.799 L 97.890 166.458 L 96.939 165.989 L 96.057 165.400 L 95.260 164.701 L 94.561 163.904 L 93.972 163.023 L 93.503 162.072 L 93.163 161.068 L 92.956 160.028 L 92.887 158.970 L 92.956 157.912 L 93.163 156.873 L 93.503 155.869 L 93.972 154.918 L 94.561 154.036 L 95.260 153.239 L 96.057 152.540 L 96.939 151.951 L 97.890 151.482 L 98.894 151.141 L 99.934 150.935 L 100.991 150.865 L 102.049 150.935 L 103.089 151.141 L 104.093 151.482 L 105.044 151.951 L 105.925 152.540 L 106.722 153.239 L 107.422 154.036 L 108.011 154.918 L 108.479 155.869 L 108.820 156.873 L 109.027 157.912 L 109.096 158.970 M 155.803 216.574 L 155.637 219.107 L 155.142 221.596 L 154.326 224.000 L 153.204 226.276 L 151.794 228.387 L 150.120 230.295 L 148.212 231.968 L 146.101 233.378 L 143.825 234.501 L 141.422 235.317 L 138.932 235.812 L 136.399 235.978 L 133.867 235.812 L 131.377 235.317 L 128.974 234.501 L 126.698 233.378 L 124.587 231.968 L 122.679 230.295 L 121.005 228.387 L 119.595 226.276 L 118.473 224.000 L 117.657 221.596 L 117.162 219.107 L 116.996 216.574 L 117.162 214.042 L 117.657 211.552 L 118.473 209.149 L 119.595 206.872 L 121.005 204.762 L 122.679 202.854 L 124.587 201.180 L 126.698 199.770 L 128.974 198.648 L 131.377 197.832 L 133.867 197.337 L 136.399 197.171 L 138.932 197.337 L 141.422 197.832 L 143.825 198.648 L 146.101 199.770 L 148.212 201.180 L 150.120 202.854 L 151.794 204.762 L 153.204 206.872 L 154.326 209.149 L 155.142 211.552 L 155.637 214.042 L 155.803 216.574 M 202.569 78.211 L 202.391 80.931 L 201.859 83.605 L 200.983 86.186 L 199.777 88.631 L 198.263 90.898 L 196.465 92.947 L 194.415 94.745 L 192.149 96.259 L 189.704 97.465 L 187.122 98.341 L 184.449 98.873 L 181.728 99.052 L 179.008 98.873 L 176.334 98.341 L 173.753 97.465 L 171.308 96.259 L 169.041 94.745 L 166.992 92.947 L 165.194 90.898 L 163.680 88.631 L 162.474 86.186 L 161.598 83.605 L 161.066 80.931 L 160.888 78.211 L 161.066 75.491 L 161.598 72.817 L 162.474 70.235 L 163.680 67.790 L 165.194 65.524 L 166.992 63.474 L 169.041 61.677 L 171.308 60.162 L 173.753 58.956 L 176.334 58.080 L 179.008 57.548 L 181.728 57.370 L 184.449 57.548 L 187.122 58.080 L 189.704 58.956 L 192.149 60.162 L 194.415 61.677 L 196.465 63.474 L 198.263 65.524 L 199.777 67.790 L 200.983 70.235 L 201.859 72.817 L 202.391 75.491 L 202.569 78.211 M 260.075 98.870 L 259.991 100.148 L 259.741 101.404 L 259.330 102.617 L 258.763 103.765 L 258.052 104.830 L 257.208 105.792 L 256.245 106.637 L 255.180 107.348 L 254.032 107.914 L 252.819 108.326 L 251.564 108.576 L 250.286 108.660 L 249.008 108.576 L 247.752 108.326 L 246.540 107.914 L 245.391 107.348 L 244.326 106.637 L 243.364 105.792 L 242.519 104.830 L 241.808 103.765 L 241.242 102.617 L 240.830 101.404 L 240.580 100.148 L 240.497 98.870 L 240.580 97.593 L 240.830 96.337 L 241.242 95.124 L 241.808 93.976 L 242.519 92.911 L 243.364 91.948 L 244.326 91.104 L 245.391 90.393 L 246.540 89.826 L 247.752 89.415 L 249.008 89.165 L 250.286 89.081 L 251.564 89.165 L 252.819 89.415 L 254.032 89.826 L 255.180 90.393 L 256.245 91.104 L 257.208 91.948 L 258.052 92.911 L 258.763 93.976 L 259.330 95.124 L 259.741 96.337 L 259.991 97.593 L 260.075 98.870 M 141.921 86.496 L 141.877 87.155 L 141.749 87.803 L 141.536 88.428 L 141.244 89.021 L 140.877 89.570 L 140.442 90.066 L 139.945 90.502 L 139.396 90.869 L 138.804 91.161 L 138.178 91.373 L 137.531 91.502 L 136.872 91.545 L 136.213 91.502 L 135.565 91.373 L 134.940 91.161 L 134.347 90.869 L 133.798 90.502 L 133.302 90.066 L 132.866 89.570 L 132.499 89.021 L 132.207 88.428 L 131.995 87.803 L 131.866 87.155 L 131.823 86.496 L 131.866 85.837 L 131.995 85.190 L 132.207 84.564 L 132.499 83.972 L 132.866 83.423 L 133.302 82.926 L 133.798 82.491 L 134.347 82.124 L 134.940 81.832 L 135.565 81.619 L 136.213 81.491 L 136.872 81.447 L 137.531 81.491 L 138.178 81.619 L 138.804 81.832 L 139.396 82.124 L 139.945 82.491 L 140.442 82.926 L 140.877 83.423 L 141.244 83.972 L 141.536 84.564 L 141.749 85.190 L 141.877 85.837 L 141.921 86.496 M 189.114 228.669 L 189.037 229.854 L 188.805 231.018 L 188.423 232.142 L 187.898 233.207 L 187.239 234.194 L 186.456 235.087 L 185.564 235.869 L 184.576 236.529 L 183.512 237.054 L 182.388 237.436 L 181.223 237.667 L 180.039 237.745 L 178.854 237.667 L 177.690 237.436 L 176.566 237.054 L 175.501 236.529 L 174.514 235.869 L 173.621 235.087 L 172.839 234.194 L 172.179 233.207 L 171.654 232.142 L 171.272 231.018 L 171.041 229.854 L 170.963 228.669 L 171.041 227.485 L 171.272 226.320 L 171.654 225.196 L 172.179 224.132 L 172.839 223.144 L 173.621 222.252 L 174.514 221.469 L 175.501 220.810 L 176.566 220.285 L 177.690 219.903 L 178.854 219.671 L 180.039 219.594 L 181.223 219.671 L 182.388 219.903 L 183.512 220.285 L 184.576 220.810 L 185.564 221.469 L 186.456 222.252 L 187.239 223.144 L 187.898 224.132 L 188.423 225.196 L 188.805 226.320 L 189.037 227.485 L 189.114 228.669 M 285.999 189.500 L 285.921 190.692 L 285.688 191.863 L 285.304 192.994 L 284.776 194.066 L 284.112 195.059 L 283.325 195.957 L 282.427 196.744 L 281.433 197.408 L 280.362 197.936 L 279.231 198.320 L 278.060 198.553 L 276.868 198.631 L 275.676 198.553 L 274.504 198.320 L 273.373 197.936 L 272.302 197.408 L 271.309 196.744 L 270.411 195.957 L 269.623 195.059 L 268.960 194.066 L 268.431 192.994 L 268.047 191.863 L 267.814 190.692 L 267.736 189.500 L 267.814 188.308 L 268.047 187.136 L 268.431 186.005 L 268.960 184.934 L 269.623 183.941 L 270.411 183.043 L 271.309 182.255 L 272.302 181.592 L 273.373 181.063 L 274.504 180.679 L 275.676 180.446 L 276.868 180.368 L 278.060 180.446 L 279.231 180.679 L 280.362 181.063 L 281.433 181.592 L 282.427 182.255 L 283.325 183.043 L 284.112 183.941 L 284.776 184.934 L 285.304 186.005 L 285.688 187.136 L 285.921 188.308 L 285.999 189.500 M 136.093 110.323 L 136.052 110.942 L 135.931 111.550 L 135.732 112.137 L 135.458 112.694 L 135.113 113.210 L 134.704 113.676 L 134.238 114.085 L 133.722 114.430 L 133.165 114.704 L 132.578 114.903 L 131.969 115.025 L 131.350 115.065 L 130.731 115.025 L 130.123 114.903 L 129.536 114.704 L 128.979 114.430 L 128.463 114.085 L 127.997 113.676 L 127.588 113.210 L 127.243 112.694 L 126.969 112.137 L 126.770 111.550 L 126.648 110.942 L 126.608 110.323 L 126.648 109.704 L 126.770 109.095 L 126.969 108.508 L 127.243 107.951 L 127.588 107.435 L 127.997 106.969 L 128.463 106.560 L 128.979 106.215 L 129.536 105.941 L 130.123 105.742 L 130.731 105.621 L 131.350 105.580 L 131.969 105.621 L 132.578 105.742 L 133.165 105.941 L 133.722 106.215 L 134.238 106.560 L 134.704 106.969 L 135.113 107.435 L 135.458 107.951 L 135.732 108.508 L 135.931 109.095 L 136.052 109.704 L 136.093 110.323 M 190.466 113.528 L 190.378 114.867 L 190.116 116.183 L 189.685 117.453 L 189.091 118.657 L 188.346 119.773 L 187.461 120.782 L 186.452 121.666 L 185.336 122.412 L 184.133 123.006 L 182.862 123.437 L 181.546 123.699 L 180.207 123.786 L 178.868 123.699 L 177.552 123.437 L 176.281 123.006 L 175.077 122.412 L 173.962 121.666 L 172.953 120.782 L 172.068 119.773 L 171.322 118.657 L 170.729 117.453 L 170.298 116.183 L 170.036 114.867 L 169.948 113.528 L 170.036 112.189 L 170.298 110.872 L 170.729 109.602 L 171.322 108.398 L 172.068 107.282 L 172.953 106.273 L 173.962 105.389 L 175.077 104.643 L 176.281 104.050 L 177.552 103.618 L 178.868 103.356 L 180.207 103.269 L 181.546 103.356 L 182.862 103.618 L 184.133 104.050 L 185.336 104.643 L 186.452 105.389 L 187.461 106.273 L 188.346 107.282 L 189.091 108.398 L 189.685 109.602 L 190.116 110.872 L 190.378 112.189 L 190.466 113.528 M 233.259 130.098 L 233.144 131.850 L 232.802 133.572 L 232.237 135.235 L 231.461 136.810 L 230.485 138.270 L 229.327 139.590 L 228.007 140.747 L 226.547 141.723 L 224.972 142.500 L 223.310 143.064 L 221.588 143.406 L 219.835 143.521 L 218.083 143.406 L 216.361 143.064 L 214.698 142.500 L 213.124 141.723 L 211.664 140.747 L 210.344 139.590 L 209.186 138.270 L 208.210 136.810 L 207.434 135.235 L 206.869 133.572 L 206.527 131.850 L 206.412 130.098 L 206.527 128.346 L 206.869 126.623 L 207.434 124.961 L 208.210 123.386 L 209.186 121.926 L 210.344 120.606 L 211.664 119.448 L 213.124 118.473 L 214.698 117.696 L 216.361 117.132 L 218.083 116.789 L 219.835 116.674 L 221.588 116.789 L 223.310 117.132 L 224.972 117.696 L 226.547 118.473 L 228.007 119.448 L 229.327 120.606 L 230.485 121.926 L 231.461 123.386 L 232.237 124.961 L 232.802 126.623 L 233.144 128.346 L 233.259 130.098 M 165.690 47.169 L 165.631 48.067 L 165.455 48.951 L 165.166 49.803 L 164.767 50.611 L 164.267 51.359 L 163.674 52.036 L 162.997 52.630 L 162.248 53.130 L 161.440 53.529 L 160.588 53.818 L 159.705 53.994 L 158.806 54.053 L 157.908 53.994 L 157.024 53.818 L 156.172 53.529 L 155.364 53.130 L 154.616 52.630 L 153.939 52.036 L 153.345 51.359 L 152.845 50.611 L 152.446 49.803 L 152.157 48.951 L 151.981 48.067 L 151.922 47.169 L 151.981 46.270 L 152.157 45.387 L 152.446 44.535 L 152.845 43.727 L 153.345 42.978 L 153.939 42.301 L 154.616 41.708 L 155.364 41.207 L 156.172 40.809 L 157.024 40.520 L 157.908 40.344 L 158.806 40.285 L 159.705 40.344 L 160.588 40.520 L 161.440 40.809 L 162.248 41.207 L 162.997 41.708 L 163.674 42.301 L 164.267 42.978 L 164.767 43.727 L 165.166 44.535 L 165.455 45.387 L 165.631 46.270 L 165.690 47.169 M 235.198 73.131 L 235.075 75.008 L 234.708 76.854 L 234.103 78.636 L 233.271 80.324 L 232.225 81.888 L 230.985 83.303 L 229.570 84.544 L 228.005 85.589 L 226.318 86.422 L 224.536 87.026 L 222.690 87.394 L 220.812 87.517 L 218.935 87.394 L 217.089 87.026 L 215.307 86.422 L 213.619 85.589 L 212.055 84.544 L 210.640 83.303 L 209.399 81.888 L 208.354 80.324 L 207.521 78.636 L 206.916 76.854 L 206.549 75.008 L 206.426 73.131 L 206.549 71.253 L 206.916 69.407 L 207.521 67.625 L 208.354 65.938 L 209.399 64.373 L 210.640 62.958 L 212.055 61.717 L 213.619 60.672 L 215.307 59.840 L 217.089 59.235 L 218.935 58.868 L 220.812 58.745 L 222.690 58.868 L 224.536 59.235 L 226.318 59.840 L 228.005 60.672 L 229.570 61.717 L 230.985 62.958 L 232.225 64.373 L 233.271 65.938 L 234.103 67.625 L 234.708 69.407 L 235.075 71.253 L 235.198 73.131 M 209.991 194.487 L 209.910 195.722 L 209.668 196.936 L 209.270 198.107 L 208.723 199.218 L 208.035 200.247 L 207.219 201.177 L 206.289 201.993 L 205.260 202.681 L 204.150 203.228 L 202.978 203.626 L 201.764 203.867 L 200.529 203.948 L 199.294 203.867 L 198.080 203.626 L 196.908 203.228 L 195.798 202.681 L 194.769 201.993 L 193.838 201.177 L 193.022 200.247 L 192.335 199.218 L 191.787 198.107 L 191.389 196.936 L 191.148 195.722 L 191.067 194.487 L 191.148 193.252 L 191.389 192.038 L 191.787 190.866 L 192.335 189.756 L 193.022 188.727 L 193.838 187.796 L 194.769 186.980 L 195.798 186.292 L 196.908 185.745 L 198.080 185.347 L 199.294 185.106 L 200.529 185.025 L 201.764 185.106 L 202.978 185.347 L 204.150 185.745 L 205.260 186.292 L 206.289 186.980 L 207.219 187.796 L 208.035 188.727 L 208.723 189.756 L 209.270 190.866 L 209.668 192.038 L 209.910 193.252 L 209.991 194.487 M 296.871 136.651 L 296.777 138.089 L 296.496 139.503 L 296.032 140.869 L 295.395 142.162 L 294.594 143.361 L 293.643 144.445 L 292.559 145.395 L 291.360 146.196 L 290.067 146.834 L 288.702 147.297 L 287.288 147.579 L 285.849 147.673 L 284.410 147.579 L 282.996 147.297 L 281.631 146.834 L 280.338 146.196 L 279.139 145.395 L 278.055 144.445 L 277.104 143.361 L 276.303 142.162 L 275.666 140.869 L 275.202 139.503 L 274.921 138.089 L 274.826 136.651 L 274.921 135.212 L 275.202 133.798 L 275.666 132.432 L 276.303 131.139 L 277.104 129.940 L 278.055 128.856 L 279.139 127.906 L 280.338 127.105 L 281.631 126.467 L 282.996 126.004 L 284.410 125.722 L 285.849 125.628 L 287.288 125.722 L 288.702 126.004 L 290.067 126.467 L 291.360 127.105 L 292.559 127.906 L 293.643 128.856 L 294.594 129.940 L 295.395 131.139 L 296.032 132.432 L 296.496 133.798 L 296.777 135.212 L 296.871 136.651 M 205.328 216.786 L 205.271 217.657 L 205.101 218.513 L 204.820 219.340 L 204.434 220.123 L 203.949 220.849 L 203.373 221.505 L 202.717 222.081 L 201.991 222.566 L 201.208 222.952 L 200.382 223.233 L 199.525 223.403 L 198.654 223.460 L 197.783 223.403 L 196.927 223.233 L 196.100 222.952 L 195.317 222.566 L 194.591 222.081 L 193.935 221.505 L 193.359 220.849 L 192.874 220.123 L 192.488 219.340 L 192.208 218.513 L 192.037 217.657 L 191.980 216.786 L 192.037 215.915 L 192.208 215.059 L 192.488 214.232 L 192.874 213.449 L 193.359 212.723 L 193.935 212.067 L 194.591 211.491 L 195.317 211.006 L 196.100 210.620 L 196.927 210.339 L 197.783 210.169 L 198.654 210.112 L 199.525 210.169 L 200.382 210.339 L 201.208 210.620 L 201.991 211.006 L 202.717 211.491 L 203.373 212.067 L 203.949 212.723 L 204.434 213.449 L 204.820 214.232 L 205.101 215.059 L 205.271 215.915 L 205.328 216.786 M 278.549 80.797 L 278.506 81.459 L 278.376 82.109 L 278.163 82.738 L 277.870 83.333 L 277.501 83.885 L 277.063 84.384 L 276.565 84.821 L 276.013 85.190 L 275.418 85.483 L 274.789 85.697 L 274.138 85.826 L 273.476 85.869 L 272.814 85.826 L 272.163 85.697 L 271.535 85.483 L 270.940 85.190 L 270.388 84.821 L 269.889 84.384 L 269.452 83.885 L 269.083 83.333 L 268.790 82.738 L 268.576 82.109 L 268.447 81.459 L 268.404 80.797 L 268.447 80.134 L 268.576 79.484 L 268.790 78.855 L 269.083 78.260 L 269.452 77.708 L 269.889 77.209 L 270.388 76.772 L 270.940 76.403 L 271.535 76.110 L 272.163 75.897 L 272.814 75.767 L 273.476 75.724 L 274.138 75.767 L 274.789 75.897 L 275.418 76.110 L 276.013 76.403 L 276.565 76.772 L 277.063 77.209 L 277.501 77.708 L 277.870 78.260 L 278.163 78.855 L 278.376 79.484 L 278.506 80.134 L 278.549 80.797 M 317.265 183.116 L 317.176 184.481 L 316.909 185.823 L 316.469 187.119 L 315.864 188.346 L 315.103 189.484 L 314.201 190.512 L 313.172 191.415 L 312.035 192.175 L 310.807 192.780 L 309.512 193.220 L 308.170 193.487 L 306.804 193.576 L 305.439 193.487 L 304.097 193.220 L 302.801 192.780 L 301.574 192.175 L 300.436 191.415 L 299.407 190.512 L 298.505 189.484 L 297.745 188.346 L 297.140 187.119 L 296.700 185.823 L 296.433 184.481 L 296.343 183.116 L 296.433 181.750 L 296.700 180.408 L 297.140 179.112 L 297.745 177.885 L 298.505 176.747 L 299.407 175.719 L 300.436 174.816 L 301.574 174.056 L 302.801 173.451 L 304.097 173.011 L 305.439 172.744 L 306.804 172.655 L 308.170 172.744 L 309.512 173.011 L 310.807 173.451 L 312.035 174.056 L 313.172 174.816 L 314.201 175.719 L 315.103 176.747 L 315.864 177.885 L 316.469 179.112 L 316.909 180.408 L 317.176 181.750 L 317.265 183.116 M 161.514 135.769 L 161.370 137.965 L 160.940 140.123 L 160.233 142.206 L 159.260 144.180 L 158.037 146.009 L 156.587 147.664 L 154.932 149.115 L 153.103 150.337 L 151.129 151.310 L 149.046 152.018 L 146.888 152.447 L 144.692 152.591 L 142.496 152.447 L 140.338 152.018 L 138.254 151.310 L 136.281 150.337 L 134.451 149.115 L 132.797 147.664 L 131.346 146.009 L 130.124 144.180 L 129.150 142.206 L 128.443 140.123 L 128.014 137.965 L 127.870 135.769 L 128.014 133.573 L 128.443 131.415 L 129.150 129.332 L 130.124 127.358 L 131.346 125.528 L 132.797 123.874 L 134.451 122.423 L 136.281 121.201 L 138.254 120.228 L 140.338 119.520 L 142.496 119.091 L 144.692 118.947 L 146.888 119.091 L 149.046 119.520 L 151.129 120.228 L 153.103 121.201 L 154.932 122.423 L 156.587 123.874 L 158.037 125.528 L 159.260 127.358 L 160.233 129.332 L 160.940 131.415 L 161.370 133.573 L 161.514 135.769 M 261.861 59.299 L 261.771 60.676 L 261.502 62.029 L 261.058 63.336 L 260.448 64.574 L 259.681 65.721 L 258.772 66.758 L 257.734 67.668 L 256.587 68.435 L 255.349 69.045 L 254.043 69.488 L 252.689 69.758 L 251.313 69.848 L 249.936 69.758 L 248.582 69.488 L 247.276 69.045 L 246.038 68.435 L 244.891 67.668 L 243.854 66.758 L 242.944 65.721 L 242.177 64.574 L 241.567 63.336 L 241.123 62.029 L 240.854 60.676 L 240.764 59.299 L 240.854 57.922 L 241.123 56.569 L 241.567 55.262 L 242.177 54.025 L 242.944 52.878 L 243.854 51.840 L 244.891 50.930 L 246.038 50.164 L 247.276 49.554 L 248.582 49.110 L 249.936 48.841 L 251.313 48.751 L 252.689 48.841 L 254.043 49.110 L 255.349 49.554 L 256.587 50.164 L 257.734 50.930 L 258.772 51.840 L 259.681 52.878 L 260.448 54.025 L 261.058 55.262 L 261.502 56.569 L 261.771 57.922 L 261.861 59.299 M 165.757 184.247 L 165.666 185.623 L 165.397 186.975 L 164.954 188.281 L 164.345 189.517 L 163.579 190.664 L 162.670 191.700 L 161.633 192.609 L 160.487 193.375 L 159.250 193.985 L 157.945 194.428 L 156.593 194.697 L 155.217 194.787 L 153.841 194.697 L 152.489 194.428 L 151.183 193.985 L 149.947 193.375 L 148.801 192.609 L 147.764 191.700 L 146.855 190.664 L 146.089 189.517 L 145.479 188.281 L 145.036 186.975 L 144.767 185.623 L 144.677 184.247 L 144.767 182.872 L 145.036 181.520 L 145.479 180.214 L 146.089 178.978 L 146.855 177.831 L 147.764 176.795 L 148.801 175.886 L 149.947 175.120 L 151.183 174.510 L 152.489 174.067 L 153.841 173.798 L 155.217 173.708 L 156.593 173.798 L 157.945 174.067 L 159.250 174.510 L 160.487 175.120 L 161.633 175.886 L 162.670 176.795 L 163.579 177.831 L 164.345 178.978 L 164.954 180.214 L 165.397 181.520 L 165.666 182.872 L 165.757 184.247 M 328.850 128.331 L 328.788 129.270 L 328.604 130.192 L 328.302 131.083 L 327.886 131.927 L 327.363 132.709 L 326.743 133.417 L 326.035 134.037 L 325.253 134.560 L 324.409 134.976 L 323.518 135.278 L 322.596 135.462 L 321.657 135.523 L 320.718 135.462 L 319.795 135.278 L 318.904 134.976 L 318.060 134.560 L 317.278 134.037 L 316.571 133.417 L 315.950 132.709 L 315.428 131.927 L 315.011 131.083 L 314.709 130.192 L 314.525 129.270 L 314.464 128.331 L 314.525 127.392 L 314.709 126.469 L 315.011 125.578 L 315.428 124.734 L 315.950 123.952 L 316.571 123.245 L 317.278 122.624 L 318.060 122.101 L 318.904 121.685 L 319.795 121.383 L 320.718 121.199 L 321.657 121.138 L 322.596 121.199 L 323.518 121.383 L 324.409 121.685 L 325.253 122.101 L 326.035 122.624 L 326.743 123.245 L 327.363 123.952 L 327.886 124.734 L 328.302 125.578 L 328.604 126.469 L 328.788 127.392 L 328.850 128.331 M 305.825 81.849 L 305.781 82.525 L 305.649 83.190 L 305.431 83.833 L 305.131 84.441 L 304.754 85.005 L 304.307 85.514 L 303.797 85.961 L 303.233 86.338 L 302.625 86.638 L 301.983 86.856 L 301.318 86.988 L 300.641 87.033 L 299.965 86.988 L 299.300 86.856 L 298.658 86.638 L 298.050 86.338 L 297.486 85.961 L 296.976 85.514 L 296.529 85.005 L 296.152 84.441 L 295.852 83.833 L 295.634 83.190 L 295.502 82.525 L 295.458 81.849 L 295.502 81.172 L 295.634 80.507 L 295.852 79.865 L 296.152 79.257 L 296.529 78.693 L 296.976 78.183 L 297.486 77.736 L 298.050 77.359 L 298.658 77.059 L 299.300 76.842 L 299.965 76.709 L 300.641 76.665 L 301.318 76.709 L 301.983 76.842 L 302.625 77.059 L 303.233 77.359 L 303.797 77.736 L 304.307 78.183 L 304.754 78.693 L 305.131 79.257 L 305.431 79.865 L 305.649 80.507 L 305.781 81.172 L 305.825 81.849 M 225.326 38.884 L 225.238 40.213 L 224.979 41.520 L 224.550 42.781 L 223.961 43.975 L 223.221 45.083 L 222.343 46.084 L 221.342 46.963 L 220.234 47.702 L 219.040 48.292 L 217.779 48.720 L 216.472 48.980 L 215.143 49.067 L 213.814 48.980 L 212.508 48.720 L 211.247 48.292 L 210.052 47.702 L 208.945 46.963 L 207.943 46.084 L 207.065 45.083 L 206.325 43.975 L 205.736 42.781 L 205.308 41.520 L 205.048 40.213 L 204.961 38.884 L 205.048 37.555 L 205.308 36.249 L 205.736 34.988 L 206.325 33.793 L 207.065 32.686 L 207.943 31.684 L 208.945 30.806 L 210.052 30.066 L 211.247 29.477 L 212.508 29.049 L 213.814 28.789 L 215.143 28.702 L 216.472 28.789 L 217.779 29.049 L 219.040 29.477 L 220.234 30.066 L 221.342 30.806 L 222.343 31.684 L 223.221 32.686 L 223.961 33.793 L 224.550 34.988 L 224.979 36.249 L 225.238 37.555 L 225.326 38.884 M 212.474 238.459 L 212.415 239.354 L 212.240 240.234 L 211.952 241.084 L 211.555 241.888 L 211.056 242.634 L 210.465 243.309 L 209.790 243.900 L 209.044 244.399 L 208.240 244.796 L 207.390 245.084 L 206.510 245.259 L 205.615 245.318 L 204.720 245.259 L 203.840 245.084 L 202.990 244.796 L 202.185 244.399 L 201.439 243.900 L 200.765 243.309 L 200.173 242.634 L 199.675 241.888 L 199.278 241.084 L 198.990 240.234 L 198.815 239.354 L 198.756 238.459 L 198.815 237.564 L 198.990 236.684 L 199.278 235.834 L 199.675 235.029 L 200.173 234.283 L 200.765 233.609 L 201.439 233.017 L 202.185 232.519 L 202.990 232.122 L 203.840 231.834 L 204.720 231.659 L 205.615 231.600 L 206.510 231.659 L 207.390 231.834 L 208.240 232.122 L 209.044 232.519 L 209.790 233.017 L 210.465 233.609 L 211.056 234.283 L 211.555 235.029 L 211.952 235.834 L 212.240 236.684 L 212.415 237.564 L 212.474 238.459 M 277.629 204.989 L 277.572 205.862 L 277.401 206.719 L 277.120 207.547 L 276.734 208.331 L 276.248 209.058 L 275.672 209.715 L 275.014 210.291 L 274.288 210.777 L 273.504 211.163 L 272.676 211.444 L 271.819 211.615 L 270.946 211.672 L 270.074 211.615 L 269.217 211.444 L 268.389 211.163 L 267.605 210.777 L 266.878 210.291 L 266.221 209.715 L 265.645 209.058 L 265.159 208.331 L 264.772 207.547 L 264.491 206.719 L 264.321 205.862 L 264.264 204.989 L 264.321 204.117 L 264.491 203.260 L 264.772 202.432 L 265.159 201.648 L 265.645 200.921 L 266.221 200.264 L 266.878 199.688 L 267.605 199.202 L 268.389 198.815 L 269.217 198.535 L 270.074 198.364 L 270.946 198.307 L 271.819 198.364 L 272.676 198.535 L 273.504 198.815 L 274.288 199.202 L 275.014 199.688 L 275.672 200.264 L 276.248 200.921 L 276.734 201.648 L 277.120 202.432 L 277.401 203.260 L 277.572 204.117 L 277.629 204.989 M 198.240 45.940 L 198.188 46.744 L 198.030 47.533 L 197.772 48.296 L 197.415 49.018 L 196.968 49.688 L 196.437 50.293 L 195.832 50.824 L 195.162 51.272 L 194.440 51.628 L 193.677 51.887 L 192.887 52.044 L 192.084 52.097 L 191.280 52.044 L 190.490 51.887 L 189.728 51.628 L 189.005 51.272 L 188.336 50.824 L 187.730 50.293 L 187.199 49.688 L 186.752 49.018 L 186.396 48.296 L 186.137 47.533 L 185.980 46.744 L 185.927 45.940 L 185.980 45.136 L 186.137 44.347 L 186.396 43.584 L 186.752 42.862 L 187.199 42.192 L 187.730 41.587 L 188.336 41.056 L 189.005 40.608 L 189.728 40.252 L 190.490 39.993 L 191.280 39.836 L 192.084 39.783 L 192.887 39.836 L 193.677 39.993 L 194.440 40.252 L 195.162 40.608 L 195.832 41.056 L 196.437 41.587 L 196.968 42.192 L 197.415 42.862 L 197.772 43.584 L 198.030 44.347 L 198.188 45.136 L 198.240 45.940 M 128.345 190.803 L 128.241 192.391 L 127.931 193.952 L 127.419 195.459 L 126.715 196.886 L 125.831 198.209 L 124.782 199.406 L 123.585 200.455 L 122.262 201.339 L 120.835 202.043 L 119.328 202.555 L 117.767 202.865 L 116.179 202.969 L 114.591 202.865 L 113.030 202.555 L 111.523 202.043 L 110.096 201.339 L 108.773 200.455 L 107.576 199.406 L 106.527 198.209 L 105.643 196.886 L 104.939 195.459 L 104.427 193.952 L 104.117 192.391 L 104.013 190.803 L 104.117 189.215 L 104.427 187.654 L 104.939 186.147 L 105.643 184.720 L 106.527 183.397 L 107.576 182.200 L 108.773 181.151 L 110.096 180.267 L 111.523 179.563 L 113.030 179.051 L 114.591 178.741 L 116.179 178.637 L 117.767 178.741 L 119.328 179.051 L 120.835 179.563 L 122.262 180.267 L 123.585 181.151 L 124.782 182.200 L 125.831 183.397 L 126.715 184.720 L 127.419 186.147 L 127.931 187.654 L 128.241 189.215 L 128.345 190.803 M 123.723 119.982 L 123.682 120.603 L 123.561 121.214 L 123.361 121.804 L 123.085 122.362 L 122.739 122.880 L 122.329 123.349 L 121.860 123.759 L 121.342 124.105 L 120.784 124.381 L 120.194 124.581 L 119.583 124.702 L 118.962 124.743 L 118.340 124.702 L 117.730 124.581 L 117.140 124.381 L 116.581 124.105 L 116.063 123.759 L 115.595 123.349 L 115.184 122.880 L 114.838 122.362 L 114.563 121.804 L 114.363 121.214 L 114.241 120.603 L 114.201 119.982 L 114.241 119.360 L 114.363 118.750 L 114.563 118.160 L 114.838 117.601 L 115.184 117.083 L 115.595 116.615 L 116.063 116.204 L 116.581 115.858 L 117.140 115.583 L 117.730 115.383 L 118.340 115.261 L 118.962 115.221 L 119.583 115.261 L 120.194 115.383 L 120.784 115.583 L 121.342 115.858 L 121.860 116.204 L 122.329 116.615 L 122.739 117.083 L 123.085 117.601 L 123.361 118.160 L 123.561 118.750 L 123.682 119.360 L 123.723 119.982 M 120.926 137.632 L 120.849 138.807 L 120.619 139.963 L 120.240 141.078 L 119.719 142.135 L 119.065 143.114 L 118.288 144.000 L 117.402 144.777 L 116.423 145.431 L 115.366 145.952 L 114.251 146.331 L 113.095 146.561 L 111.920 146.638 L 110.744 146.561 L 109.589 146.331 L 108.473 145.952 L 107.416 145.431 L 106.437 144.777 L 105.551 144.000 L 104.774 143.114 L 104.120 142.135 L 103.599 141.078 L 103.220 139.963 L 102.990 138.807 L 102.913 137.632 L 102.990 136.456 L 103.220 135.301 L 103.599 134.185 L 104.120 133.129 L 104.774 132.149 L 105.551 131.263 L 106.437 130.486 L 107.416 129.832 L 108.473 129.311 L 109.589 128.932 L 110.744 128.702 L 111.920 128.625 L 113.095 128.702 L 114.251 128.932 L 115.366 129.311 L 116.423 129.832 L 117.402 130.486 L 118.288 131.263 L 119.065 132.149 L 119.719 133.129 L 120.240 134.185 L 120.619 135.301 L 120.849 136.456 L 120.926 137.632 M 266.544 134.462 L 266.445 135.972 L 266.150 137.456 L 265.664 138.889 L 264.994 140.246 L 264.154 141.504 L 263.156 142.641 L 262.019 143.639 L 260.761 144.480 L 259.404 145.149 L 257.971 145.635 L 256.487 145.930 L 254.977 146.029 L 253.467 145.930 L 251.983 145.635 L 250.551 145.149 L 249.194 144.480 L 247.936 143.639 L 246.798 142.641 L 245.800 141.504 L 244.960 140.246 L 244.291 138.889 L 243.804 137.456 L 243.509 135.972 L 243.410 134.462 L 243.509 132.953 L 243.804 131.469 L 244.291 130.036 L 244.960 128.679 L 245.800 127.421 L 246.798 126.283 L 247.936 125.286 L 249.194 124.445 L 250.551 123.776 L 251.983 123.289 L 253.467 122.994 L 254.977 122.895 L 256.487 122.994 L 257.971 123.289 L 259.404 123.776 L 260.761 124.445 L 262.019 125.286 L 263.156 126.283 L 264.154 127.421 L 264.994 128.679 L 265.664 130.036 L 266.150 131.469 L 266.445 132.953 L 266.544 134.462 M 176.650 203.999 L 176.580 205.069 L 176.371 206.120 L 176.026 207.134 L 175.552 208.095 L 174.957 208.986 L 174.250 209.792 L 173.445 210.499 L 172.554 211.094 L 171.592 211.568 L 170.578 211.913 L 169.527 212.122 L 168.457 212.192 L 167.388 212.122 L 166.337 211.913 L 165.322 211.568 L 164.361 211.094 L 163.470 210.499 L 162.664 209.792 L 161.958 208.986 L 161.362 208.095 L 160.888 207.134 L 160.544 206.120 L 160.335 205.069 L 160.265 203.999 L 160.335 202.930 L 160.544 201.879 L 160.888 200.864 L 161.362 199.903 L 161.958 199.012 L 162.664 198.206 L 163.470 197.500 L 164.361 196.904 L 165.322 196.430 L 166.337 196.086 L 167.388 195.877 L 168.457 195.807 L 169.527 195.877 L 170.578 196.086 L 171.592 196.430 L 172.554 196.904 L 173.445 197.500 L 174.250 198.206 L 174.957 199.012 L 175.552 199.903 L 176.026 200.864 L 176.371 201.879 L 176.580 202.930 L 176.650 203.999 M 274.760 167.295 L 274.677 168.559 L 274.430 169.801 L 274.023 171.000 L 273.463 172.136 L 272.760 173.189 L 271.925 174.141 L 270.972 174.976 L 269.920 175.679 L 268.784 176.239 L 267.585 176.646 L 266.343 176.893 L 265.079 176.976 L 263.815 176.893 L 262.573 176.646 L 261.374 176.239 L 260.238 175.679 L 259.186 174.976 L 258.233 174.141 L 257.398 173.189 L 256.695 172.136 L 256.135 171.000 L 255.728 169.801 L 255.481 168.559 L 255.398 167.295 L 255.481 166.031 L 255.728 164.789 L 256.135 163.590 L 256.695 162.455 L 257.398 161.402 L 258.233 160.450 L 259.186 159.615 L 260.238 158.911 L 261.374 158.351 L 262.573 157.944 L 263.815 157.697 L 265.079 157.614 L 266.343 157.697 L 267.585 157.944 L 268.784 158.351 L 269.920 158.911 L 270.972 159.615 L 271.925 160.450 L 272.760 161.402 L 273.463 162.455 L 274.023 163.590 L 274.430 164.789 L 274.677 166.031 L 274.760 167.295 M 126.032 79.933 L 125.961 81.028 L 125.747 82.103 L 125.394 83.142 L 124.909 84.126 L 124.299 85.038 L 123.576 85.863 L 122.751 86.586 L 121.839 87.195 L 120.855 87.681 L 119.817 88.033 L 118.741 88.247 L 117.646 88.319 L 116.552 88.247 L 115.476 88.033 L 114.437 87.681 L 113.453 87.195 L 112.541 86.586 L 111.717 85.863 L 110.993 85.038 L 110.384 84.126 L 109.899 83.142 L 109.546 82.103 L 109.332 81.028 L 109.260 79.933 L 109.332 78.838 L 109.546 77.763 L 109.899 76.724 L 110.384 75.740 L 110.993 74.828 L 111.717 74.003 L 112.541 73.280 L 113.453 72.671 L 114.437 72.185 L 115.476 71.833 L 116.552 71.619 L 117.646 71.547 L 118.741 71.619 L 119.817 71.833 L 120.855 72.185 L 121.839 72.671 L 122.751 73.280 L 123.576 74.003 L 124.299 74.828 L 124.909 75.740 L 125.394 76.724 L 125.747 77.763 L 125.961 78.838 L 126.032 79.933 M 260.495 258.244 L 260.453 258.879 L 260.329 259.503 L 260.125 260.106 L 259.843 260.676 L 259.490 261.205 L 259.070 261.684 L 258.592 262.103 L 258.063 262.457 L 257.492 262.738 L 256.890 262.943 L 256.266 263.067 L 255.631 263.108 L 254.996 263.067 L 254.372 262.943 L 253.769 262.738 L 253.199 262.457 L 252.670 262.103 L 252.191 261.684 L 251.772 261.205 L 251.418 260.676 L 251.137 260.106 L 250.932 259.503 L 250.808 258.879 L 250.767 258.244 L 250.808 257.609 L 250.932 256.985 L 251.137 256.383 L 251.418 255.812 L 251.772 255.283 L 252.191 254.805 L 252.670 254.385 L 253.199 254.032 L 253.769 253.750 L 254.372 253.546 L 254.996 253.422 L 255.631 253.380 L 256.266 253.422 L 256.890 253.546 L 257.492 253.750 L 258.063 254.032 L 258.592 254.385 L 259.070 254.805 L 259.490 255.283 L 259.843 255.812 L 260.125 256.383 L 260.329 256.985 L 260.453 257.609 L 260.495 258.244 M 158.335 62.260 L 158.294 62.889 L 158.171 63.507 L 157.968 64.104 L 157.690 64.669 L 157.339 65.193 L 156.924 65.666 L 156.450 66.082 L 155.926 66.432 L 155.361 66.710 L 154.765 66.913 L 154.147 67.036 L 153.518 67.077 L 152.889 67.036 L 152.271 66.913 L 151.675 66.710 L 151.110 66.432 L 150.586 66.082 L 150.112 65.666 L 149.696 65.193 L 149.346 64.669 L 149.068 64.104 L 148.865 63.507 L 148.742 62.889 L 148.701 62.260 L 148.742 61.631 L 148.865 61.013 L 149.068 60.417 L 149.346 59.852 L 149.696 59.328 L 150.112 58.854 L 150.586 58.439 L 151.110 58.089 L 151.675 57.810 L 152.271 57.607 L 152.889 57.484 L 153.518 57.443 L 154.147 57.484 L 154.765 57.607 L 155.361 57.810 L 155.926 58.089 L 156.450 58.439 L 156.924 58.854 L 157.339 59.328 L 157.690 59.852 L 157.968 60.417 L 158.171 61.013 L 158.294 61.631 L 158.335 62.260 M 306.418 109.092 L 306.374 109.769 L 306.241 110.435 L 306.023 111.077 L 305.723 111.685 L 305.346 112.249 L 304.899 112.759 L 304.389 113.206 L 303.825 113.583 L 303.217 113.883 L 302.574 114.101 L 301.909 114.234 L 301.232 114.278 L 300.556 114.234 L 299.890 114.101 L 299.248 113.883 L 298.640 113.583 L 298.076 113.206 L 297.566 112.759 L 297.119 112.249 L 296.742 111.685 L 296.442 111.077 L 296.224 110.435 L 296.091 109.769 L 296.047 109.092 L 296.091 108.416 L 296.224 107.750 L 296.442 107.108 L 296.742 106.500 L 297.119 105.936 L 297.566 105.426 L 298.076 104.979 L 298.640 104.602 L 299.248 104.302 L 299.890 104.084 L 300.556 103.951 L 301.232 103.907 L 301.909 103.951 L 302.574 104.084 L 303.217 104.302 L 303.825 104.602 L 304.389 104.979 L 304.899 105.426 L 305.346 105.936 L 305.723 106.500 L 306.023 107.108 L 306.241 107.750 L 306.374 108.416 L 306.418 109.092 M 155.092 164.239 L 155.018 165.376 L 154.796 166.493 L 154.429 167.572 L 153.925 168.594 L 153.292 169.541 L 152.541 170.398 L 151.684 171.149 L 150.737 171.782 L 149.715 172.286 L 148.636 172.653 L 147.519 172.875 L 146.382 172.949 L 145.245 172.875 L 144.127 172.653 L 143.048 172.286 L 142.026 171.782 L 141.079 171.149 L 140.222 170.398 L 139.471 169.541 L 138.838 168.594 L 138.334 167.572 L 137.968 166.493 L 137.745 165.376 L 137.671 164.239 L 137.745 163.102 L 137.968 161.984 L 138.334 160.905 L 138.838 159.883 L 139.471 158.936 L 140.222 158.079 L 141.079 157.328 L 142.026 156.695 L 143.048 156.191 L 144.127 155.825 L 145.245 155.602 L 146.382 155.528 L 147.519 155.602 L 148.636 155.825 L 149.715 156.191 L 150.737 156.695 L 151.684 157.328 L 152.541 158.079 L 153.292 158.936 L 153.925 159.883 L 154.429 160.905 L 154.796 161.984 L 155.018 163.102 L 155.092 164.239 M 254.105 204.111 L 254.053 204.908 L 253.897 205.691 L 253.640 206.448 L 253.287 207.164 L 252.843 207.828 L 252.317 208.429 L 251.716 208.956 L 251.052 209.399 L 250.335 209.753 L 249.579 210.010 L 248.796 210.165 L 247.998 210.218 L 247.201 210.165 L 246.418 210.010 L 245.661 209.753 L 244.945 209.399 L 244.281 208.956 L 243.680 208.429 L 243.153 207.828 L 242.710 207.164 L 242.356 206.448 L 242.100 205.691 L 241.944 204.908 L 241.892 204.111 L 241.944 203.314 L 242.100 202.530 L 242.356 201.774 L 242.710 201.057 L 243.153 200.393 L 243.680 199.793 L 244.281 199.266 L 244.945 198.822 L 245.661 198.469 L 246.418 198.212 L 247.201 198.056 L 247.998 198.004 L 248.796 198.056 L 249.579 198.212 L 250.335 198.469 L 251.052 198.822 L 251.716 199.266 L 252.317 199.793 L 252.843 200.393 L 253.287 201.057 L 253.640 201.774 L 253.897 202.530 L 254.053 203.314 L 254.105 204.111 M 293.334 68.291 L 293.294 68.892 L 293.177 69.482 L 292.983 70.052 L 292.717 70.592 L 292.383 71.092 L 291.986 71.545 L 291.533 71.942 L 291.033 72.276 L 290.493 72.542 L 289.923 72.736 L 289.333 72.853 L 288.732 72.892 L 288.132 72.853 L 287.541 72.736 L 286.972 72.542 L 286.432 72.276 L 285.931 71.942 L 285.479 71.545 L 285.082 71.092 L 284.748 70.592 L 284.481 70.052 L 284.288 69.482 L 284.170 68.892 L 284.131 68.291 L 284.170 67.691 L 284.288 67.100 L 284.481 66.530 L 284.748 65.990 L 285.082 65.490 L 285.479 65.038 L 285.931 64.641 L 286.432 64.306 L 286.972 64.040 L 287.541 63.847 L 288.132 63.729 L 288.732 63.690 L 289.333 63.729 L 289.923 63.847 L 290.493 64.040 L 291.033 64.306 L 291.533 64.641 L 291.986 65.038 L 292.383 65.490 L 292.717 65.990 L 292.983 66.530 L 293.177 67.100 L 293.294 67.691 L 293.334 68.291 M 205.196 105.044 L 205.150 105.754 L 205.011 106.453 L 204.782 107.127 L 204.467 107.766 L 204.071 108.359 L 203.601 108.894 L 203.066 109.364 L 202.473 109.760 L 201.834 110.075 L 201.160 110.304 L 200.461 110.443 L 199.750 110.489 L 199.040 110.443 L 198.341 110.304 L 197.666 110.075 L 197.028 109.760 L 196.435 109.364 L 195.900 108.894 L 195.430 108.359 L 195.034 107.766 L 194.719 107.127 L 194.490 106.453 L 194.351 105.754 L 194.305 105.044 L 194.351 104.333 L 194.490 103.634 L 194.719 102.960 L 195.034 102.321 L 195.430 101.728 L 195.900 101.193 L 196.435 100.723 L 197.028 100.327 L 197.666 100.012 L 198.341 99.783 L 199.040 99.644 L 199.750 99.598 L 200.461 99.644 L 201.160 99.783 L 201.834 100.012 L 202.473 100.327 L 203.066 100.723 L 203.601 101.193 L 204.071 101.728 L 204.467 102.321 L 204.782 102.960 L 205.011 103.634 L 205.150 104.333 L 205.196 105.044 M 164.825 105.478 L 164.748 106.643 L 164.520 107.789 L 164.145 108.895 L 163.628 109.942 L 162.980 110.913 L 162.210 111.791 L 161.331 112.561 L 160.360 113.210 L 159.313 113.727 L 158.207 114.102 L 157.062 114.330 L 155.896 114.406 L 154.731 114.330 L 153.585 114.102 L 152.479 113.727 L 151.432 113.210 L 150.461 112.561 L 149.583 111.791 L 148.813 110.913 L 148.164 109.942 L 147.647 108.895 L 147.272 107.789 L 147.044 106.643 L 146.968 105.478 L 147.044 104.312 L 147.272 103.167 L 147.647 102.061 L 148.164 101.014 L 148.813 100.043 L 149.583 99.164 L 150.461 98.394 L 151.432 97.746 L 152.479 97.229 L 153.585 96.854 L 154.731 96.626 L 155.896 96.549 L 157.062 96.626 L 158.207 96.854 L 159.313 97.229 L 160.360 97.746 L 161.331 98.394 L 162.210 99.164 L 162.980 100.043 L 163.628 101.014 L 164.145 102.061 L 164.520 103.167 L 164.748 104.312 L 164.825 105.478 M 240.648 52.655 L 240.599 53.406 L 240.452 54.144 L 240.210 54.856 L 239.878 55.531 L 239.460 56.157 L 238.963 56.723 L 238.398 57.219 L 237.772 57.637 L 237.097 57.970 L 236.385 58.211 L 235.647 58.358 L 234.896 58.407 L 234.145 58.358 L 233.407 58.211 L 232.694 57.970 L 232.020 57.637 L 231.394 57.219 L 230.828 56.723 L 230.332 56.157 L 229.914 55.531 L 229.581 54.856 L 229.339 54.144 L 229.193 53.406 L 229.143 52.655 L 229.193 51.904 L 229.339 51.166 L 229.581 50.454 L 229.914 49.779 L 230.332 49.153 L 230.828 48.587 L 231.394 48.091 L 232.020 47.673 L 232.694 47.340 L 233.407 47.098 L 234.145 46.952 L 234.896 46.902 L 235.647 46.952 L 236.385 47.098 L 237.097 47.340 L 237.772 47.673 L 238.398 48.091 L 238.963 48.587 L 239.460 49.153 L 239.878 49.779 L 240.210 50.454 L 240.452 51.166 L 240.599 51.904 L 240.648 52.655 M 230.786 262.947 L 230.742 263.620 L 230.610 264.281 L 230.393 264.920 L 230.095 265.525 L 229.720 266.086 L 229.276 266.593 L 228.768 267.038 L 228.208 267.413 L 227.603 267.711 L 226.964 267.928 L 226.302 268.059 L 225.629 268.103 L 224.956 268.059 L 224.295 267.928 L 223.656 267.711 L 223.051 267.413 L 222.490 267.038 L 221.983 266.593 L 221.538 266.086 L 221.164 265.525 L 220.865 264.920 L 220.649 264.281 L 220.517 263.620 L 220.473 262.947 L 220.517 262.274 L 220.649 261.612 L 220.865 260.974 L 221.164 260.369 L 221.538 259.808 L 221.983 259.301 L 222.490 258.856 L 223.051 258.481 L 223.656 258.183 L 224.295 257.966 L 224.956 257.834 L 225.629 257.790 L 226.302 257.834 L 226.964 257.966 L 227.603 258.183 L 228.208 258.481 L 228.768 258.856 L 229.276 259.301 L 229.720 259.808 L 230.095 260.369 L 230.393 260.974 L 230.610 261.612 L 230.742 262.274 L 230.786 262.947 M 268.425 223.571 L 268.355 224.646 L 268.145 225.703 L 267.799 226.723 L 267.322 227.689 L 266.723 228.585 L 266.013 229.395 L 265.203 230.105 L 264.307 230.704 L 263.341 231.180 L 262.321 231.526 L 261.264 231.737 L 260.189 231.807 L 259.114 231.737 L 258.058 231.526 L 257.037 231.180 L 256.071 230.704 L 255.175 230.105 L 254.365 229.395 L 253.655 228.585 L 253.056 227.689 L 252.580 226.723 L 252.234 225.703 L 252.023 224.646 L 251.953 223.571 L 252.023 222.496 L 252.234 221.439 L 252.580 220.419 L 253.056 219.453 L 253.655 218.557 L 254.365 217.747 L 255.175 217.037 L 256.071 216.438 L 257.037 215.962 L 258.058 215.615 L 259.114 215.405 L 260.189 215.335 L 261.264 215.405 L 262.321 215.615 L 263.341 215.962 L 264.307 216.438 L 265.203 217.037 L 266.013 217.747 L 266.723 218.557 L 267.322 219.453 L 267.799 220.419 L 268.145 221.439 L 268.355 222.496 L 268.425 223.571 M 293.190 213.045 L 293.138 213.845 L 292.982 214.631 L 292.724 215.390 L 292.370 216.108 L 291.924 216.775 L 291.396 217.377 L 290.793 217.906 L 290.127 218.351 L 289.408 218.705 L 288.649 218.963 L 287.863 219.119 L 287.063 219.172 L 286.264 219.119 L 285.477 218.963 L 284.719 218.705 L 284.000 218.351 L 283.333 217.906 L 282.731 217.377 L 282.202 216.775 L 281.757 216.108 L 281.403 215.390 L 281.145 214.631 L 280.989 213.845 L 280.936 213.045 L 280.989 212.245 L 281.145 211.459 L 281.403 210.700 L 281.757 209.981 L 282.202 209.315 L 282.731 208.712 L 283.333 208.184 L 284.000 207.739 L 284.719 207.384 L 285.477 207.127 L 286.264 206.970 L 287.063 206.918 L 287.863 206.970 L 288.649 207.127 L 289.408 207.384 L 290.127 207.739 L 290.793 208.184 L 291.396 208.712 L 291.924 209.315 L 292.370 209.981 L 292.724 210.700 L 292.982 211.459 L 293.138 212.245 L 293.190 213.045 M 129.909 155.569 L 129.835 156.702 L 129.613 157.815 L 129.248 158.890 L 128.746 159.908 L 128.115 160.852 L 127.367 161.706 L 126.513 162.454 L 125.569 163.085 L 124.551 163.587 L 123.476 163.952 L 122.363 164.173 L 121.230 164.247 L 120.097 164.173 L 118.984 163.952 L 117.909 163.587 L 116.891 163.085 L 115.947 162.454 L 115.094 161.706 L 114.345 160.852 L 113.714 159.908 L 113.212 158.890 L 112.847 157.815 L 112.626 156.702 L 112.552 155.569 L 112.626 154.436 L 112.847 153.323 L 113.212 152.248 L 113.714 151.230 L 114.345 150.286 L 115.094 149.432 L 115.947 148.684 L 116.891 148.053 L 117.909 147.551 L 118.984 147.186 L 120.097 146.964 L 121.230 146.890 L 122.363 146.964 L 123.476 147.186 L 124.551 147.551 L 125.569 148.053 L 126.513 148.684 L 127.367 149.432 L 128.115 150.286 L 128.746 151.230 L 129.248 152.248 L 129.613 153.323 L 129.835 154.436 L 129.909 155.569 M 215.265 257.865 L 215.221 258.535 L 215.090 259.193 L 214.875 259.829 L 214.578 260.431 L 214.205 260.989 L 213.762 261.494 L 213.257 261.936 L 212.699 262.309 L 212.097 262.606 L 211.462 262.822 L 210.803 262.953 L 210.133 262.997 L 209.464 262.953 L 208.805 262.822 L 208.170 262.606 L 207.568 262.309 L 207.009 261.936 L 206.505 261.494 L 206.062 260.989 L 205.689 260.431 L 205.392 259.829 L 205.176 259.193 L 205.046 258.535 L 205.002 257.865 L 205.046 257.195 L 205.176 256.537 L 205.392 255.901 L 205.689 255.299 L 206.062 254.741 L 206.505 254.236 L 207.009 253.794 L 207.568 253.421 L 208.170 253.124 L 208.805 252.908 L 209.464 252.777 L 210.133 252.733 L 210.803 252.777 L 211.462 252.908 L 212.097 253.124 L 212.699 253.421 L 213.257 253.794 L 213.762 254.236 L 214.205 254.741 L 214.578 255.299 L 214.875 255.901 L 215.090 256.537 L 215.221 257.195 L 215.265 257.865 M 183.364 250.095 L 183.299 251.077 L 183.107 252.043 L 182.791 252.975 L 182.355 253.859 L 181.808 254.677 L 181.159 255.418 L 180.419 256.067 L 179.600 256.614 L 178.717 257.050 L 177.784 257.366 L 176.818 257.558 L 175.836 257.623 L 174.853 257.558 L 173.887 257.366 L 172.955 257.050 L 172.072 256.614 L 171.253 256.067 L 170.513 255.418 L 169.863 254.677 L 169.316 253.859 L 168.881 252.975 L 168.564 252.043 L 168.372 251.077 L 168.308 250.095 L 168.372 249.112 L 168.564 248.146 L 168.881 247.214 L 169.316 246.331 L 169.863 245.512 L 170.513 244.771 L 171.253 244.122 L 172.072 243.575 L 172.955 243.140 L 173.887 242.823 L 174.853 242.631 L 175.836 242.567 L 176.818 242.631 L 177.784 242.823 L 178.717 243.140 L 179.600 243.575 L 180.419 244.122 L 181.159 244.771 L 181.808 245.512 L 182.355 246.331 L 182.791 247.214 L 183.107 248.146 L 183.299 249.112 L 183.364 250.095 M 310.542 161.234 L 310.502 161.850 L 310.382 162.454 L 310.183 163.038 L 309.911 163.591 L 309.568 164.104 L 309.162 164.568 L 308.698 164.974 L 308.185 165.317 L 307.632 165.590 L 307.048 165.788 L 306.443 165.908 L 305.828 165.949 L 305.213 165.908 L 304.608 165.788 L 304.024 165.590 L 303.471 165.317 L 302.958 164.974 L 302.494 164.568 L 302.088 164.104 L 301.745 163.591 L 301.472 163.038 L 301.274 162.454 L 301.154 161.850 L 301.113 161.234 L 301.154 160.619 L 301.274 160.014 L 301.472 159.430 L 301.745 158.877 L 302.088 158.364 L 302.494 157.901 L 302.958 157.494 L 303.471 157.151 L 304.024 156.879 L 304.608 156.680 L 305.213 156.560 L 305.828 156.520 L 306.443 156.560 L 307.048 156.680 L 307.632 156.879 L 308.185 157.151 L 308.698 157.494 L 309.162 157.901 L 309.568 158.364 L 309.911 158.877 L 310.183 159.430 L 310.382 160.014 L 310.502 160.619 L 310.542 161.234 M 143.654 65.612 L 143.579 66.754 L 143.356 67.878 L 142.988 68.962 L 142.481 69.989 L 141.845 70.941 L 141.090 71.802 L 140.229 72.557 L 139.277 73.193 L 138.250 73.700 L 137.165 74.068 L 136.042 74.291 L 134.899 74.366 L 133.757 74.291 L 132.633 74.068 L 131.549 73.700 L 130.522 73.193 L 129.570 72.557 L 128.709 71.802 L 127.954 70.941 L 127.318 69.989 L 126.811 68.962 L 126.443 67.878 L 126.220 66.754 L 126.145 65.612 L 126.220 64.469 L 126.443 63.346 L 126.811 62.261 L 127.318 61.234 L 127.954 60.282 L 128.709 59.421 L 129.570 58.666 L 130.522 58.030 L 131.549 57.523 L 132.633 57.155 L 133.757 56.932 L 134.899 56.857 L 136.042 56.932 L 137.165 57.155 L 138.250 57.523 L 139.277 58.030 L 140.229 58.666 L 141.090 59.421 L 141.845 60.282 L 142.481 61.234 L 142.988 62.261 L 143.356 63.346 L 143.579 64.469 L 143.654 65.612 M 244.248 40.681 L 244.203 41.366 L 244.069 42.038 L 243.849 42.688 L 243.545 43.303 L 243.164 43.873 L 242.712 44.389 L 242.196 44.841 L 241.626 45.222 L 241.011 45.526 L 240.361 45.746 L 239.689 45.880 L 239.004 45.925 L 238.320 45.880 L 237.647 45.746 L 236.997 45.526 L 236.382 45.222 L 235.812 44.841 L 235.296 44.389 L 234.844 43.873 L 234.463 43.303 L 234.160 42.688 L 233.939 42.038 L 233.805 41.366 L 233.760 40.681 L 233.805 39.997 L 233.939 39.324 L 234.160 38.675 L 234.463 38.059 L 234.844 37.489 L 235.296 36.973 L 235.812 36.521 L 236.382 36.140 L 236.997 35.837 L 237.647 35.616 L 238.320 35.482 L 239.004 35.437 L 239.689 35.482 L 240.361 35.616 L 241.011 35.837 L 241.626 36.140 L 242.196 36.521 L 242.712 36.973 L 243.164 37.489 L 243.545 38.059 L 243.849 38.675 L 244.069 39.324 L 244.203 39.997 L 244.248 40.681 M 151.689 51.081 L 151.649 51.696 L 151.529 52.300 L 151.331 52.884 L 151.058 53.437 L 150.716 53.949 L 150.309 54.412 L 149.846 54.819 L 149.333 55.161 L 148.781 55.434 L 148.197 55.632 L 147.593 55.752 L 146.978 55.792 L 146.363 55.752 L 145.758 55.632 L 145.175 55.434 L 144.622 55.161 L 144.109 54.819 L 143.646 54.412 L 143.240 53.949 L 142.897 53.437 L 142.625 52.884 L 142.427 52.300 L 142.306 51.696 L 142.266 51.081 L 142.306 50.466 L 142.427 49.861 L 142.625 49.278 L 142.897 48.725 L 143.240 48.213 L 143.646 47.749 L 144.109 47.343 L 144.622 47.000 L 145.175 46.728 L 145.758 46.530 L 146.363 46.410 L 146.978 46.369 L 147.593 46.410 L 148.197 46.530 L 148.781 46.728 L 149.333 47.000 L 149.846 47.343 L 150.309 47.749 L 150.716 48.213 L 151.058 48.725 L 151.331 49.278 L 151.529 49.861 L 151.649 50.466 L 151.689 51.081 M 268.310 74.730 L 268.256 75.552 L 268.096 76.360 L 267.831 77.140 L 267.466 77.879 L 267.009 78.564 L 266.466 79.183 L 265.846 79.726 L 265.161 80.184 L 264.422 80.548 L 263.642 80.813 L 262.834 80.974 L 262.012 81.028 L 261.190 80.974 L 260.382 80.813 L 259.602 80.548 L 258.863 80.184 L 258.178 79.726 L 257.559 79.183 L 257.016 78.564 L 256.558 77.879 L 256.194 77.140 L 255.929 76.360 L 255.768 75.552 L 255.714 74.730 L 255.768 73.908 L 255.929 73.100 L 256.194 72.320 L 256.558 71.581 L 257.016 70.896 L 257.559 70.276 L 258.178 69.733 L 258.863 69.276 L 259.602 68.911 L 260.382 68.646 L 261.190 68.486 L 262.012 68.432 L 262.834 68.486 L 263.642 68.646 L 264.422 68.911 L 265.161 69.276 L 265.846 69.733 L 266.466 70.276 L 267.009 70.896 L 267.466 71.581 L 267.831 72.320 L 268.096 73.100 L 268.256 73.908 L 268.310 74.730 M 283.327 63.585 L 283.251 64.739 L 283.026 65.873 L 282.654 66.968 L 282.143 68.006 L 281.500 68.967 L 280.737 69.837 L 279.868 70.599 L 278.906 71.242 L 277.869 71.753 L 276.774 72.125 L 275.640 72.351 L 274.486 72.426 L 273.332 72.351 L 272.197 72.125 L 271.102 71.753 L 270.065 71.242 L 269.103 70.599 L 268.234 69.837 L 267.471 68.967 L 266.829 68.006 L 266.317 66.968 L 265.945 65.873 L 265.720 64.739 L 265.644 63.585 L 265.720 62.431 L 265.945 61.297 L 266.317 60.201 L 266.829 59.164 L 267.471 58.203 L 268.234 57.333 L 269.103 56.571 L 270.065 55.928 L 271.102 55.417 L 272.197 55.045 L 273.332 54.819 L 274.486 54.743 L 275.640 54.819 L 276.774 55.045 L 277.869 55.417 L 278.906 55.928 L 279.868 56.571 L 280.737 57.333 L 281.500 58.203 L 282.143 59.164 L 282.654 60.201 L 283.026 61.297 L 283.251 62.431 L 283.327 63.585 M 284.128 235.682 L 284.046 236.923 L 283.804 238.142 L 283.404 239.319 L 282.854 240.434 L 282.164 241.467 L 281.344 242.402 L 280.410 243.221 L 279.376 243.912 L 278.261 244.462 L 277.084 244.861 L 275.865 245.104 L 274.625 245.185 L 273.384 245.104 L 272.165 244.861 L 270.988 244.462 L 269.873 243.912 L 268.840 243.221 L 267.905 242.402 L 267.086 241.467 L 266.395 240.434 L 265.845 239.319 L 265.446 238.142 L 265.203 236.923 L 265.122 235.682 L 265.203 234.442 L 265.446 233.223 L 265.845 232.046 L 266.395 230.931 L 267.086 229.897 L 267.905 228.963 L 268.840 228.143 L 269.873 227.453 L 270.988 226.903 L 272.165 226.503 L 273.384 226.261 L 274.625 226.180 L 275.865 226.261 L 277.084 226.503 L 278.261 226.903 L 279.376 227.453 L 280.410 228.143 L 281.344 228.963 L 282.164 229.897 L 282.854 230.931 L 283.404 232.046 L 283.804 233.223 L 284.046 234.442 L 284.128 235.682 M 323.563 151.818 L 323.520 152.472 L 323.392 153.116 L 323.181 153.737 L 322.891 154.325 L 322.526 154.871 L 322.094 155.364 L 321.601 155.797 L 321.055 156.161 L 320.467 156.451 L 319.845 156.662 L 319.202 156.790 L 318.547 156.833 L 317.893 156.790 L 317.249 156.662 L 316.628 156.451 L 316.040 156.161 L 315.494 155.797 L 315.001 155.364 L 314.568 154.871 L 314.204 154.325 L 313.914 153.737 L 313.703 153.116 L 313.575 152.472 L 313.532 151.818 L 313.575 151.163 L 313.703 150.519 L 313.914 149.898 L 314.204 149.310 L 314.568 148.764 L 315.001 148.271 L 315.494 147.838 L 316.040 147.474 L 316.628 147.184 L 317.249 146.973 L 317.893 146.845 L 318.547 146.802 L 319.202 146.845 L 319.845 146.973 L 320.467 147.184 L 321.055 147.474 L 321.601 147.838 L 322.094 148.271 L 322.526 148.764 L 322.891 149.310 L 323.181 149.898 L 323.392 150.519 L 323.520 151.163 L 323.563 151.818 M 108.597 124.489 L 108.548 125.228 L 108.404 125.955 L 108.166 126.657 L 107.838 127.322 L 107.426 127.938 L 106.937 128.495 L 106.380 128.984 L 105.764 129.395 L 105.099 129.723 L 104.397 129.962 L 103.670 130.106 L 102.931 130.155 L 102.191 130.106 L 101.464 129.962 L 100.763 129.723 L 100.098 129.395 L 99.482 128.984 L 98.924 128.495 L 98.436 127.938 L 98.024 127.322 L 97.696 126.657 L 97.458 125.955 L 97.313 125.228 L 97.265 124.489 L 97.313 123.749 L 97.458 123.022 L 97.696 122.320 L 98.024 121.655 L 98.436 121.039 L 98.924 120.482 L 99.482 119.993 L 100.098 119.582 L 100.763 119.254 L 101.464 119.015 L 102.191 118.871 L 102.931 118.822 L 103.670 118.871 L 104.397 119.015 L 105.099 119.254 L 105.764 119.582 L 106.380 119.993 L 106.937 120.482 L 107.426 121.039 L 107.838 121.655 L 108.166 122.320 L 108.404 123.022 L 108.548 123.749 L 108.597 124.489 M 237.010 150.120 L 236.968 150.768 L 236.841 151.404 L 236.633 152.018 L 236.346 152.600 L 235.985 153.140 L 235.557 153.628 L 235.069 154.055 L 234.530 154.416 L 233.948 154.703 L 233.334 154.912 L 232.697 155.038 L 232.050 155.081 L 231.402 155.038 L 230.766 154.912 L 230.151 154.703 L 229.569 154.416 L 229.030 154.055 L 228.542 153.628 L 228.114 153.140 L 227.754 152.600 L 227.467 152.018 L 227.258 151.404 L 227.132 150.768 L 227.089 150.120 L 227.132 149.473 L 227.258 148.836 L 227.467 148.222 L 227.754 147.640 L 228.114 147.100 L 228.542 146.612 L 229.030 146.185 L 229.569 145.824 L 230.151 145.537 L 230.766 145.329 L 231.402 145.202 L 232.050 145.160 L 232.697 145.202 L 233.334 145.329 L 233.948 145.537 L 234.530 145.824 L 235.069 146.185 L 235.557 146.612 L 235.985 147.100 L 236.346 147.640 L 236.633 148.222 L 236.841 148.836 L 236.968 149.473 L 237.010 150.120 M 202.703 130.087 L 202.654 130.836 L 202.507 131.573 L 202.266 132.284 L 201.934 132.958 L 201.516 133.583 L 201.021 134.147 L 200.456 134.642 L 199.832 135.060 L 199.158 135.392 L 198.447 135.633 L 197.710 135.780 L 196.961 135.829 L 196.211 135.780 L 195.475 135.633 L 194.763 135.392 L 194.090 135.060 L 193.465 134.642 L 192.900 134.147 L 192.405 133.583 L 191.988 132.958 L 191.656 132.284 L 191.414 131.573 L 191.268 130.836 L 191.219 130.087 L 191.268 129.337 L 191.414 128.601 L 191.656 127.889 L 191.988 127.216 L 192.405 126.591 L 192.900 126.026 L 193.465 125.531 L 194.090 125.114 L 194.763 124.782 L 195.475 124.540 L 196.211 124.394 L 196.961 124.345 L 197.710 124.394 L 198.447 124.540 L 199.158 124.782 L 199.832 125.114 L 200.456 125.531 L 201.021 126.026 L 201.516 126.591 L 201.934 127.216 L 202.266 127.889 L 202.507 128.601 L 202.654 129.337 L 202.703 130.087 M 135.627 167.777 L 135.585 168.416 L 135.461 169.044 L 135.255 169.650 L 134.971 170.224 L 134.616 170.757 L 134.193 171.238 L 133.712 171.661 L 133.180 172.016 L 132.605 172.300 L 131.999 172.505 L 131.371 172.630 L 130.732 172.672 L 130.093 172.630 L 129.465 172.505 L 128.858 172.300 L 128.284 172.016 L 127.751 171.661 L 127.270 171.238 L 126.848 170.757 L 126.492 170.224 L 126.209 169.650 L 126.003 169.044 L 125.878 168.416 L 125.836 167.777 L 125.878 167.138 L 126.003 166.509 L 126.209 165.903 L 126.492 165.329 L 126.848 164.796 L 127.270 164.315 L 127.751 163.893 L 128.284 163.537 L 128.858 163.254 L 129.465 163.048 L 130.093 162.923 L 130.732 162.881 L 131.371 162.923 L 131.999 163.048 L 132.605 163.254 L 133.180 163.537 L 133.712 163.893 L 134.193 164.315 L 134.616 164.796 L 134.971 165.329 L 135.255 165.903 L 135.461 166.509 L 135.585 167.138 L 135.627 167.777 M 284.658 90.563 L 284.612 91.266 L 284.474 91.956 L 284.248 92.623 L 283.936 93.255 L 283.545 93.840 L 283.081 94.370 L 282.551 94.834 L 281.966 95.225 L 281.334 95.537 L 280.667 95.763 L 279.976 95.901 L 279.274 95.947 L 278.571 95.901 L 277.880 95.763 L 277.213 95.537 L 276.582 95.225 L 275.996 94.834 L 275.467 94.370 L 275.002 93.840 L 274.611 93.255 L 274.300 92.623 L 274.073 91.956 L 273.936 91.266 L 273.890 90.563 L 273.936 89.860 L 274.073 89.169 L 274.300 88.503 L 274.611 87.871 L 275.002 87.285 L 275.467 86.756 L 275.996 86.292 L 276.582 85.900 L 277.213 85.589 L 277.880 85.362 L 278.571 85.225 L 279.274 85.179 L 279.976 85.225 L 280.667 85.362 L 281.334 85.589 L 281.966 85.900 L 282.551 86.292 L 283.081 86.756 L 283.545 87.285 L 283.936 87.871 L 284.248 88.503 L 284.474 89.169 L 284.612 89.860 L 284.658 90.563 M 253.129 78.473 L 253.077 79.271 L 252.921 80.056 L 252.663 80.813 L 252.310 81.531 L 251.865 82.196 L 251.338 82.798 L 250.736 83.325 L 250.071 83.770 L 249.353 84.123 L 248.596 84.381 L 247.811 84.537 L 247.013 84.589 L 246.215 84.537 L 245.430 84.381 L 244.672 84.123 L 243.955 83.770 L 243.290 83.325 L 242.688 82.798 L 242.161 82.196 L 241.716 81.531 L 241.362 80.813 L 241.105 80.056 L 240.949 79.271 L 240.897 78.473 L 240.949 77.675 L 241.105 76.890 L 241.362 76.132 L 241.716 75.415 L 242.161 74.750 L 242.688 74.148 L 243.290 73.621 L 243.955 73.176 L 244.672 72.822 L 245.430 72.565 L 246.215 72.409 L 247.013 72.357 L 247.811 72.409 L 248.596 72.565 L 249.353 72.822 L 250.071 73.176 L 250.736 73.621 L 251.338 74.148 L 251.865 74.750 L 252.310 75.415 L 252.663 76.132 L 252.921 76.890 L 253.077 77.675 L 253.129 78.473 M 262.520 193.813 L 262.479 194.427 L 262.359 195.031 L 262.161 195.614 L 261.889 196.167 L 261.547 196.678 L 261.141 197.141 L 260.678 197.547 L 260.166 197.889 L 259.614 198.162 L 259.031 198.360 L 258.427 198.480 L 257.813 198.520 L 257.198 198.480 L 256.595 198.360 L 256.011 198.162 L 255.459 197.889 L 254.947 197.547 L 254.484 197.141 L 254.078 196.678 L 253.736 196.167 L 253.464 195.614 L 253.266 195.031 L 253.146 194.427 L 253.106 193.813 L 253.146 193.199 L 253.266 192.595 L 253.464 192.012 L 253.736 191.460 L 254.078 190.948 L 254.484 190.485 L 254.947 190.079 L 255.459 189.737 L 256.011 189.464 L 256.595 189.266 L 257.198 189.146 L 257.813 189.106 L 258.427 189.146 L 259.031 189.266 L 259.614 189.464 L 260.166 189.737 L 260.678 190.079 L 261.141 190.485 L 261.547 190.948 L 261.889 191.460 L 262.161 192.012 L 262.359 192.595 L 262.479 193.199 L 262.520 193.813 M 181.569 133.330 L 181.517 134.119 L 181.363 134.895 L 181.109 135.644 L 180.759 136.353 L 180.319 137.011 L 179.798 137.606 L 179.203 138.127 L 178.545 138.567 L 177.836 138.917 L 177.087 139.171 L 176.311 139.325 L 175.522 139.377 L 174.733 139.325 L 173.957 139.171 L 173.208 138.917 L 172.499 138.567 L 171.841 138.127 L 171.246 137.606 L 170.725 137.011 L 170.285 136.353 L 169.935 135.644 L 169.681 134.895 L 169.527 134.119 L 169.475 133.330 L 169.527 132.541 L 169.681 131.765 L 169.935 131.016 L 170.285 130.307 L 170.725 129.649 L 171.246 129.054 L 171.841 128.533 L 172.499 128.093 L 173.208 127.743 L 173.957 127.489 L 174.733 127.335 L 175.522 127.283 L 176.311 127.335 L 177.087 127.489 L 177.836 127.743 L 178.545 128.093 L 179.203 128.533 L 179.798 129.054 L 180.319 129.649 L 180.759 130.307 L 181.109 131.016 L 181.363 131.765 L 181.517 132.541 L 181.569 133.330 M 201.915 262.329 L 201.846 263.377 L 201.641 264.406 L 201.304 265.400 L 200.840 266.341 L 200.257 267.214 L 199.565 268.003 L 198.776 268.694 L 197.903 269.278 L 196.962 269.742 L 195.968 270.079 L 194.939 270.284 L 193.892 270.352 L 192.845 270.284 L 191.815 270.079 L 190.822 269.742 L 189.880 269.278 L 189.008 268.694 L 188.219 268.003 L 187.527 267.214 L 186.944 266.341 L 186.480 265.400 L 186.142 264.406 L 185.938 263.377 L 185.869 262.329 L 185.938 261.282 L 186.142 260.253 L 186.480 259.259 L 186.944 258.318 L 187.527 257.445 L 188.219 256.656 L 189.008 255.964 L 189.880 255.381 L 190.822 254.917 L 191.815 254.580 L 192.845 254.375 L 193.892 254.307 L 194.939 254.375 L 195.968 254.580 L 196.962 254.917 L 197.903 255.381 L 198.776 255.964 L 199.565 256.656 L 200.257 257.445 L 200.840 258.318 L 201.304 259.259 L 201.641 260.253 L 201.846 261.282 L 201.915 262.329 M 312.541 93.520 L 312.496 94.199 L 312.364 94.865 L 312.145 95.509 L 311.844 96.119 L 311.467 96.684 L 311.018 97.195 L 310.507 97.644 L 309.942 98.021 L 309.332 98.322 L 308.689 98.540 L 308.022 98.673 L 307.344 98.717 L 306.665 98.673 L 305.998 98.540 L 305.355 98.322 L 304.745 98.021 L 304.180 97.644 L 303.669 97.195 L 303.220 96.684 L 302.843 96.119 L 302.542 95.509 L 302.323 94.865 L 302.191 94.199 L 302.146 93.520 L 302.191 92.842 L 302.323 92.175 L 302.542 91.532 L 302.843 90.922 L 303.220 90.357 L 303.669 89.845 L 304.180 89.397 L 304.745 89.020 L 305.355 88.719 L 305.998 88.500 L 306.665 88.368 L 307.344 88.323 L 308.022 88.368 L 308.689 88.500 L 309.332 88.719 L 309.942 89.020 L 310.507 89.397 L 311.018 89.845 L 311.467 90.357 L 311.844 90.922 L 312.145 91.532 L 312.364 92.175 L 312.496 92.842 L 312.541 93.520 M 213.891 150.442 L 213.841 151.202 L 213.692 151.949 L 213.447 152.671 L 213.110 153.354 L 212.687 153.988 L 212.184 154.561 L 211.612 155.063 L 210.978 155.487 L 210.295 155.824 L 209.573 156.068 L 208.826 156.217 L 208.065 156.267 L 207.305 156.217 L 206.558 156.068 L 205.836 155.824 L 205.153 155.487 L 204.519 155.063 L 203.946 154.561 L 203.444 153.988 L 203.021 153.354 L 202.684 152.671 L 202.439 151.949 L 202.290 151.202 L 202.240 150.442 L 202.290 149.681 L 202.439 148.934 L 202.684 148.213 L 203.021 147.529 L 203.444 146.896 L 203.946 146.323 L 204.519 145.820 L 205.153 145.397 L 205.836 145.060 L 206.558 144.815 L 207.305 144.667 L 208.065 144.617 L 208.826 144.667 L 209.573 144.815 L 210.295 145.060 L 210.978 145.397 L 211.612 145.820 L 212.184 146.323 L 212.687 146.896 L 213.110 147.529 L 213.447 148.213 L 213.692 148.934 L 213.841 149.681 L 213.891 150.442 M 289.890 164.403 L 289.847 165.056 L 289.719 165.699 L 289.509 166.319 L 289.219 166.907 L 288.855 167.452 L 288.423 167.944 L 287.930 168.376 L 287.386 168.740 L 286.798 169.030 L 286.178 169.241 L 285.535 169.368 L 284.881 169.411 L 284.228 169.368 L 283.585 169.241 L 282.965 169.030 L 282.377 168.740 L 281.832 168.376 L 281.340 167.944 L 280.908 167.452 L 280.544 166.907 L 280.254 166.319 L 280.043 165.699 L 279.916 165.056 L 279.873 164.403 L 279.916 163.749 L 280.043 163.106 L 280.254 162.486 L 280.544 161.898 L 280.908 161.353 L 281.340 160.861 L 281.832 160.429 L 282.377 160.065 L 282.965 159.775 L 283.585 159.565 L 284.228 159.437 L 284.881 159.394 L 285.535 159.437 L 286.178 159.565 L 286.798 159.775 L 287.386 160.065 L 287.930 160.429 L 288.423 160.861 L 288.855 161.353 L 289.219 161.898 L 289.509 162.486 L 289.719 163.106 L 289.847 163.749 L 289.890 164.403 M 97.656 135.727 L 97.610 136.425 L 97.473 137.112 L 97.248 137.774 L 96.939 138.402 L 96.550 138.984 L 96.089 139.510 L 95.563 139.971 L 94.981 140.360 L 94.353 140.669 L 93.691 140.894 L 93.004 141.031 L 92.306 141.077 L 91.608 141.031 L 90.922 140.894 L 90.259 140.669 L 89.631 140.360 L 89.050 139.971 L 88.523 139.510 L 88.062 138.984 L 87.673 138.402 L 87.364 137.774 L 87.139 137.112 L 87.002 136.425 L 86.957 135.727 L 87.002 135.029 L 87.139 134.343 L 87.364 133.680 L 87.673 133.052 L 88.062 132.471 L 88.523 131.944 L 89.050 131.483 L 89.631 131.094 L 90.259 130.785 L 90.922 130.560 L 91.608 130.423 L 92.306 130.378 L 93.004 130.423 L 93.691 130.560 L 94.353 130.785 L 94.981 131.094 L 95.563 131.483 L 96.089 131.944 L 96.550 132.471 L 96.939 133.052 L 97.248 133.680 L 97.473 134.343 L 97.610 135.029 L 97.656 135.727 M 159.331 77.662 L 159.289 78.305 L 159.163 78.937 L 158.956 79.547 L 158.671 80.125 L 158.313 80.661 L 157.888 81.146 L 157.403 81.571 L 156.868 81.929 L 156.290 82.214 L 155.679 82.421 L 155.047 82.547 L 154.404 82.589 L 153.761 82.547 L 153.129 82.421 L 152.519 82.214 L 151.941 81.929 L 151.405 81.571 L 150.921 81.146 L 150.496 80.661 L 150.138 80.125 L 149.853 79.547 L 149.646 78.937 L 149.520 78.305 L 149.478 77.662 L 149.520 77.019 L 149.646 76.387 L 149.853 75.777 L 150.138 75.199 L 150.496 74.663 L 150.921 74.179 L 151.405 73.754 L 151.941 73.396 L 152.519 73.111 L 153.129 72.903 L 153.761 72.778 L 154.404 72.736 L 155.047 72.778 L 155.679 72.903 L 156.290 73.111 L 156.868 73.396 L 157.403 73.754 L 157.888 74.179 L 158.313 74.663 L 158.671 75.199 L 158.956 75.777 L 159.163 76.387 L 159.289 77.019 L 159.331 77.662 M 313.477 125.078 L 313.429 125.807 L 313.286 126.524 L 313.051 127.217 L 312.728 127.873 L 312.321 128.481 L 311.839 129.030 L 311.289 129.513 L 310.682 129.919 L 310.026 130.242 L 309.333 130.477 L 308.616 130.620 L 307.886 130.668 L 307.157 130.620 L 306.440 130.477 L 305.747 130.242 L 305.091 129.919 L 304.483 129.513 L 303.934 129.030 L 303.452 128.481 L 303.045 127.873 L 302.722 127.217 L 302.487 126.524 L 302.344 125.807 L 302.296 125.078 L 302.344 124.348 L 302.487 123.631 L 302.722 122.938 L 303.045 122.283 L 303.452 121.675 L 303.934 121.125 L 304.483 120.643 L 305.091 120.236 L 305.747 119.913 L 306.440 119.678 L 307.157 119.535 L 307.886 119.488 L 308.616 119.535 L 309.333 119.678 L 310.026 119.913 L 310.682 120.236 L 311.289 120.643 L 311.839 121.125 L 312.321 121.675 L 312.728 122.283 L 313.051 122.938 L 313.286 123.631 L 313.429 124.348 L 313.477 125.078 M 326.921 168.778 L 326.865 169.629 L 326.698 170.465 L 326.424 171.273 L 326.047 172.038 L 325.573 172.747 L 325.011 173.388 L 324.369 173.951 L 323.660 174.425 L 322.895 174.802 L 322.088 175.076 L 321.251 175.242 L 320.400 175.298 L 319.549 175.242 L 318.712 175.076 L 317.905 174.802 L 317.140 174.425 L 316.431 173.951 L 315.789 173.388 L 315.227 172.747 L 314.753 172.038 L 314.376 171.273 L 314.102 170.465 L 313.935 169.629 L 313.879 168.778 L 313.935 167.926 L 314.102 167.090 L 314.376 166.282 L 314.753 165.517 L 315.227 164.808 L 315.789 164.167 L 316.431 163.605 L 317.140 163.131 L 317.905 162.753 L 318.712 162.479 L 319.549 162.313 L 320.400 162.257 L 321.251 162.313 L 322.088 162.479 L 322.895 162.753 L 323.660 163.131 L 324.369 163.605 L 325.011 164.167 L 325.573 164.808 L 326.047 165.517 L 326.424 166.282 L 326.698 167.090 L 326.865 167.926 L 326.921 168.778 M 180.583 49.371 L 180.535 50.113 L 180.390 50.842 L 180.151 51.546 L 179.822 52.213 L 179.409 52.831 L 178.919 53.390 L 178.360 53.880 L 177.742 54.293 L 177.076 54.621 L 176.372 54.860 L 175.643 55.005 L 174.901 55.054 L 174.159 55.005 L 173.430 54.860 L 172.727 54.621 L 172.060 54.293 L 171.442 53.880 L 170.883 53.390 L 170.393 52.831 L 169.980 52.213 L 169.651 51.546 L 169.412 50.842 L 169.267 50.113 L 169.219 49.371 L 169.267 48.630 L 169.412 47.901 L 169.651 47.197 L 169.980 46.530 L 170.393 45.912 L 170.883 45.353 L 171.442 44.863 L 172.060 44.450 L 172.727 44.122 L 173.430 43.883 L 174.159 43.738 L 174.901 43.689 L 175.643 43.738 L 176.372 43.883 L 177.076 44.122 L 177.742 44.450 L 178.360 44.863 L 178.919 45.353 L 179.409 45.912 L 179.822 46.530 L 180.151 47.197 L 180.390 47.901 L 180.535 48.630 L 180.583 49.371 M 202.206 31.770 L 202.155 32.547 L 202.003 33.310 L 201.753 34.047 L 201.408 34.745 L 200.976 35.393 L 200.463 35.978 L 199.878 36.491 L 199.231 36.923 L 198.532 37.268 L 197.795 37.518 L 197.032 37.670 L 196.255 37.720 L 195.479 37.670 L 194.715 37.518 L 193.978 37.268 L 193.280 36.923 L 192.633 36.491 L 192.048 35.978 L 191.535 35.393 L 191.102 34.745 L 190.758 34.047 L 190.508 33.310 L 190.356 32.547 L 190.305 31.770 L 190.356 30.994 L 190.508 30.230 L 190.758 29.493 L 191.102 28.795 L 191.535 28.148 L 192.048 27.563 L 192.633 27.050 L 193.280 26.617 L 193.978 26.273 L 194.715 26.023 L 195.479 25.871 L 196.255 25.820 L 197.032 25.871 L 197.795 26.023 L 198.532 26.273 L 199.231 26.617 L 199.878 27.050 L 200.463 27.563 L 200.976 28.148 L 201.408 28.795 L 201.753 29.493 L 202.003 30.230 L 202.155 30.994 L 202.206 31.770 M 283.972 152.651 L 283.929 153.311 L 283.800 153.960 L 283.587 154.587 L 283.295 155.180 L 282.927 155.731 L 282.491 156.228 L 281.993 156.664 L 281.443 157.032 L 280.849 157.325 L 280.223 157.537 L 279.574 157.667 L 278.913 157.710 L 278.253 157.667 L 277.604 157.537 L 276.977 157.325 L 276.384 157.032 L 275.834 156.664 L 275.336 156.228 L 274.900 155.731 L 274.532 155.180 L 274.240 154.587 L 274.027 153.960 L 273.898 153.311 L 273.855 152.651 L 273.898 151.991 L 274.027 151.342 L 274.240 150.715 L 274.532 150.121 L 274.900 149.571 L 275.336 149.074 L 275.834 148.637 L 276.384 148.270 L 276.977 147.977 L 277.604 147.764 L 278.253 147.635 L 278.913 147.592 L 279.574 147.635 L 280.223 147.764 L 280.849 147.977 L 281.443 148.270 L 281.993 148.637 L 282.491 149.074 L 282.927 149.571 L 283.295 150.121 L 283.587 150.715 L 283.800 151.342 L 283.929 151.991 L 283.972 152.651 M 235.440 102.500 L 235.345 103.960 L 235.059 105.395 L 234.589 106.781 L 233.942 108.093 L 233.129 109.310 L 232.164 110.410 L 231.064 111.375 L 229.847 112.188 L 228.535 112.835 L 227.149 113.305 L 225.714 113.591 L 224.254 113.686 L 222.794 113.591 L 221.359 113.305 L 219.973 112.835 L 218.661 112.188 L 217.445 111.375 L 216.344 110.410 L 215.380 109.310 L 214.567 108.093 L 213.920 106.781 L 213.449 105.395 L 213.164 103.960 L 213.068 102.500 L 213.164 101.040 L 213.449 99.605 L 213.920 98.219 L 214.567 96.907 L 215.380 95.690 L 216.344 94.590 L 217.445 93.626 L 218.661 92.813 L 219.973 92.166 L 221.359 91.695 L 222.794 91.410 L 224.254 91.314 L 225.714 91.410 L 227.149 91.695 L 228.535 92.166 L 229.847 92.813 L 231.064 93.626 L 232.164 94.590 L 233.129 95.690 L 233.942 96.907 L 234.589 98.219 L 235.059 99.605 L 235.345 101.040 L 235.440 102.500 M 313.846 210.327 L 313.777 211.377 L 313.572 212.409 L 313.233 213.405 L 312.768 214.348 L 312.184 215.223 L 311.490 216.014 L 310.699 216.707 L 309.825 217.292 L 308.881 217.757 L 307.885 218.095 L 306.854 218.300 L 305.804 218.369 L 304.754 218.300 L 303.723 218.095 L 302.726 217.757 L 301.783 217.292 L 300.908 216.707 L 300.118 216.014 L 299.424 215.223 L 298.840 214.348 L 298.374 213.405 L 298.036 212.409 L 297.831 211.377 L 297.762 210.327 L 297.831 209.278 L 298.036 208.246 L 298.374 207.250 L 298.840 206.306 L 299.424 205.432 L 300.118 204.641 L 300.908 203.947 L 301.783 203.363 L 302.726 202.898 L 303.723 202.560 L 304.754 202.354 L 305.804 202.286 L 306.854 202.354 L 307.885 202.560 L 308.881 202.898 L 309.825 203.363 L 310.699 203.947 L 311.490 204.641 L 312.184 205.432 L 312.768 206.306 L 313.233 207.250 L 313.572 208.246 L 313.777 209.278 L 313.846 210.327 M 168.337 238.712 L 168.258 239.914 L 168.023 241.094 L 167.636 242.234 L 167.104 243.314 L 166.435 244.315 L 165.641 245.221 L 164.736 246.014 L 163.735 246.683 L 162.655 247.216 L 161.515 247.603 L 160.334 247.838 L 159.132 247.916 L 157.931 247.838 L 156.750 247.603 L 155.610 247.216 L 154.530 246.683 L 153.529 246.014 L 152.624 245.221 L 151.830 244.315 L 151.161 243.314 L 150.629 242.234 L 150.242 241.094 L 150.007 239.914 L 149.928 238.712 L 150.007 237.511 L 150.242 236.330 L 150.629 235.190 L 151.161 234.110 L 151.830 233.109 L 152.624 232.204 L 153.529 231.410 L 154.530 230.741 L 155.610 230.209 L 156.750 229.822 L 157.931 229.587 L 159.132 229.508 L 160.334 229.587 L 161.515 229.822 L 162.655 230.209 L 163.735 230.741 L 164.736 231.410 L 165.641 232.204 L 166.435 233.109 L 167.104 234.110 L 167.636 235.190 L 168.023 236.330 L 168.258 237.511 L 168.337 238.712 M 120.321 106.972 L 120.253 108.008 L 120.050 109.027 L 119.716 110.011 L 119.257 110.942 L 118.680 111.806 L 117.995 112.587 L 117.214 113.272 L 116.350 113.849 L 115.418 114.309 L 114.435 114.643 L 113.416 114.845 L 112.379 114.913 L 111.343 114.845 L 110.324 114.643 L 109.340 114.309 L 108.409 113.849 L 107.545 113.272 L 106.764 112.587 L 106.079 111.806 L 105.502 110.942 L 105.042 110.011 L 104.709 109.027 L 104.506 108.008 L 104.438 106.972 L 104.506 105.935 L 104.709 104.916 L 105.042 103.933 L 105.502 103.001 L 106.079 102.137 L 106.764 101.356 L 107.545 100.671 L 108.409 100.094 L 109.340 99.635 L 110.324 99.301 L 111.343 99.098 L 112.379 99.030 L 113.416 99.098 L 114.435 99.301 L 115.418 99.635 L 116.350 100.094 L 117.214 100.671 L 117.995 101.356 L 118.680 102.137 L 119.257 103.001 L 119.716 103.933 L 120.050 104.916 L 120.253 105.935 L 120.321 106.972 M 205.999 179.171 L 205.953 179.871 L 205.816 180.558 L 205.591 181.222 L 205.281 181.851 L 204.891 182.434 L 204.429 182.961 L 203.902 183.423 L 203.319 183.813 L 202.690 184.123 L 202.026 184.348 L 201.339 184.485 L 200.639 184.531 L 199.940 184.485 L 199.252 184.348 L 198.588 184.123 L 197.959 183.813 L 197.376 183.423 L 196.849 182.961 L 196.387 182.434 L 195.998 181.851 L 195.687 181.222 L 195.462 180.558 L 195.325 179.871 L 195.279 179.171 L 195.325 178.471 L 195.462 177.784 L 195.687 177.120 L 195.998 176.491 L 196.387 175.908 L 196.849 175.381 L 197.376 174.919 L 197.959 174.529 L 198.588 174.219 L 199.252 173.994 L 199.940 173.857 L 200.639 173.811 L 201.339 173.857 L 202.026 173.994 L 202.690 174.219 L 203.319 174.529 L 203.902 174.919 L 204.429 175.381 L 204.891 175.908 L 205.281 176.491 L 205.591 177.120 L 205.816 177.784 L 205.953 178.471 L 205.999 179.171 M 297.698 200.482 L 297.646 201.267 L 297.493 202.038 L 297.240 202.783 L 296.892 203.488 L 296.455 204.142 L 295.937 204.733 L 295.346 205.251 L 294.692 205.688 L 293.987 206.036 L 293.242 206.289 L 292.471 206.442 L 291.686 206.493 L 290.902 206.442 L 290.131 206.289 L 289.386 206.036 L 288.681 205.688 L 288.027 205.251 L 287.436 204.733 L 286.917 204.142 L 286.481 203.488 L 286.133 202.783 L 285.880 202.038 L 285.727 201.267 L 285.675 200.482 L 285.727 199.698 L 285.880 198.926 L 286.133 198.182 L 286.481 197.477 L 286.917 196.823 L 287.436 196.232 L 288.027 195.713 L 288.681 195.276 L 289.386 194.929 L 290.131 194.676 L 290.902 194.522 L 291.686 194.471 L 292.471 194.522 L 293.242 194.676 L 293.987 194.929 L 294.692 195.276 L 295.346 195.713 L 295.937 196.232 L 296.455 196.823 L 296.892 197.477 L 297.240 198.182 L 297.493 198.926 L 297.646 199.698 L 297.698 200.482 M 189.572 187.107 L 189.531 187.731 L 189.409 188.344 L 189.208 188.936 L 188.932 189.497 L 188.584 190.017 L 188.172 190.487 L 187.702 190.899 L 187.182 191.247 L 186.621 191.523 L 186.029 191.724 L 185.415 191.846 L 184.792 191.887 L 184.168 191.846 L 183.554 191.724 L 182.962 191.523 L 182.401 191.247 L 181.881 190.899 L 181.411 190.487 L 180.999 190.017 L 180.651 189.497 L 180.375 188.936 L 180.174 188.344 L 180.052 187.731 L 180.011 187.107 L 180.052 186.483 L 180.174 185.870 L 180.375 185.277 L 180.651 184.717 L 180.999 184.197 L 181.411 183.727 L 181.881 183.314 L 182.401 182.967 L 182.962 182.690 L 183.554 182.489 L 184.168 182.367 L 184.792 182.326 L 185.415 182.367 L 186.029 182.489 L 186.621 182.690 L 187.182 182.967 L 187.702 183.314 L 188.172 183.727 L 188.584 184.197 L 188.932 184.717 L 189.208 185.277 L 189.409 185.870 L 189.531 186.483 L 189.572 187.107 M 112.780 93.648 L 112.735 94.321 L 112.604 94.983 L 112.387 95.622 L 112.089 96.227 L 111.714 96.788 L 111.269 97.295 L 110.762 97.740 L 110.201 98.114 L 109.596 98.413 L 108.957 98.630 L 108.295 98.761 L 107.622 98.805 L 106.949 98.761 L 106.287 98.630 L 105.649 98.413 L 105.044 98.114 L 104.483 97.740 L 103.976 97.295 L 103.531 96.788 L 103.156 96.227 L 102.858 95.622 L 102.641 94.983 L 102.509 94.321 L 102.465 93.648 L 102.509 92.975 L 102.641 92.313 L 102.858 91.675 L 103.156 91.069 L 103.531 90.509 L 103.976 90.001 L 104.483 89.557 L 105.044 89.182 L 105.649 88.883 L 106.287 88.667 L 106.949 88.535 L 107.622 88.491 L 108.295 88.535 L 108.957 88.667 L 109.596 88.883 L 110.201 89.182 L 110.762 89.557 L 111.269 90.001 L 111.714 90.509 L 112.089 91.069 L 112.387 91.675 L 112.604 92.313 L 112.735 92.975 L 112.780 93.648 M 296.524 177.441 L 296.466 178.321 L 296.294 179.187 L 296.010 180.022 L 295.620 180.814 L 295.130 181.547 L 294.548 182.210 L 293.885 182.792 L 293.151 183.282 L 292.360 183.673 L 291.524 183.956 L 290.659 184.128 L 289.779 184.186 L 288.898 184.128 L 288.033 183.956 L 287.197 183.673 L 286.406 183.282 L 285.672 182.792 L 285.009 182.210 L 284.427 181.547 L 283.937 180.814 L 283.547 180.022 L 283.263 179.187 L 283.091 178.321 L 283.033 177.441 L 283.091 176.561 L 283.263 175.695 L 283.547 174.860 L 283.937 174.068 L 284.427 173.335 L 285.009 172.671 L 285.672 172.090 L 286.406 171.599 L 287.197 171.209 L 288.033 170.926 L 288.898 170.753 L 289.779 170.696 L 290.659 170.753 L 291.524 170.926 L 292.360 171.209 L 293.151 171.599 L 293.885 172.090 L 294.548 172.671 L 295.130 173.335 L 295.620 174.068 L 296.010 174.860 L 296.294 175.695 L 296.466 176.561 L 296.524 177.441 M 299.210 156.989 L 299.168 157.623 L 299.044 158.247 L 298.840 158.848 L 298.559 159.418 L 298.206 159.947 L 297.787 160.425 L 297.309 160.844 L 296.781 161.197 L 296.211 161.478 L 295.609 161.682 L 294.985 161.806 L 294.351 161.848 L 293.717 161.806 L 293.094 161.682 L 292.492 161.478 L 291.922 161.197 L 291.393 160.844 L 290.916 160.425 L 290.496 159.947 L 290.143 159.418 L 289.862 158.848 L 289.658 158.247 L 289.534 157.623 L 289.492 156.989 L 289.534 156.355 L 289.658 155.731 L 289.862 155.130 L 290.143 154.560 L 290.496 154.031 L 290.916 153.553 L 291.393 153.134 L 291.922 152.781 L 292.492 152.500 L 293.094 152.296 L 293.717 152.172 L 294.351 152.130 L 294.985 152.172 L 295.609 152.296 L 296.211 152.500 L 296.781 152.781 L 297.309 153.134 L 297.787 153.553 L 298.206 154.031 L 298.559 154.560 L 298.840 155.130 L 299.044 155.731 L 299.168 156.355 L 299.210 156.989 M 325.846 114.766 L 325.802 115.430 L 325.673 116.082 L 325.459 116.712 L 325.165 117.309 L 324.795 117.862 L 324.357 118.362 L 323.856 118.800 L 323.303 119.170 L 322.707 119.464 L 322.077 119.678 L 321.425 119.808 L 320.761 119.851 L 320.097 119.808 L 319.445 119.678 L 318.815 119.464 L 318.218 119.170 L 317.665 118.800 L 317.165 118.362 L 316.726 117.862 L 316.357 117.309 L 316.063 116.712 L 315.849 116.082 L 315.719 115.430 L 315.676 114.766 L 315.719 114.102 L 315.849 113.450 L 316.063 112.820 L 316.357 112.223 L 316.726 111.670 L 317.165 111.170 L 317.665 110.732 L 318.218 110.362 L 318.815 110.068 L 319.445 109.854 L 320.097 109.724 L 320.761 109.681 L 321.425 109.724 L 322.077 109.854 L 322.707 110.068 L 323.303 110.362 L 323.856 110.732 L 324.357 111.170 L 324.795 111.670 L 325.165 112.223 L 325.459 112.820 L 325.673 113.450 L 325.802 114.102 L 325.846 114.766 M 130.726 95.195 L 130.679 95.917 L 130.538 96.627 L 130.305 97.312 L 129.985 97.961 L 129.583 98.562 L 129.106 99.106 L 128.562 99.583 L 127.960 99.985 L 127.311 100.305 L 126.626 100.538 L 125.916 100.679 L 125.194 100.727 L 124.472 100.679 L 123.763 100.538 L 123.077 100.305 L 122.428 99.985 L 121.827 99.583 L 121.283 99.106 L 120.806 98.562 L 120.404 97.961 L 120.084 97.312 L 119.851 96.627 L 119.710 95.917 L 119.662 95.195 L 119.710 94.473 L 119.851 93.763 L 120.084 93.078 L 120.404 92.429 L 120.806 91.827 L 121.283 91.283 L 121.827 90.806 L 122.428 90.404 L 123.077 90.084 L 123.763 89.851 L 124.472 89.710 L 125.194 89.663 L 125.916 89.710 L 126.626 89.851 L 127.311 90.084 L 127.960 90.404 L 128.562 90.806 L 129.106 91.283 L 129.583 91.827 L 129.985 92.429 L 130.305 93.078 L 130.538 93.763 L 130.679 94.473 L 130.726 95.195 M 241.511 207.559 L 241.447 208.538 L 241.255 209.501 L 240.940 210.430 L 240.505 211.311 L 239.960 212.127 L 239.313 212.865 L 238.575 213.512 L 237.759 214.057 L 236.878 214.491 L 235.949 214.807 L 234.986 214.998 L 234.007 215.062 L 233.027 214.998 L 232.065 214.807 L 231.135 214.491 L 230.255 214.057 L 229.439 213.512 L 228.701 212.865 L 228.054 212.127 L 227.508 211.311 L 227.074 210.430 L 226.759 209.501 L 226.567 208.538 L 226.503 207.559 L 226.567 206.579 L 226.759 205.617 L 227.074 204.687 L 227.508 203.807 L 228.054 202.991 L 228.701 202.253 L 229.439 201.605 L 230.255 201.060 L 231.135 200.626 L 232.065 200.311 L 233.027 200.119 L 234.007 200.055 L 234.986 200.119 L 235.949 200.311 L 236.878 200.626 L 237.759 201.060 L 238.575 201.605 L 239.313 202.253 L 239.960 202.991 L 240.505 203.807 L 240.940 204.687 L 241.255 205.617 L 241.447 206.579 L 241.511 207.559 M 103.801 173.593 L 103.752 174.336 L 103.607 175.068 L 103.367 175.774 L 103.037 176.442 L 102.623 177.062 L 102.131 177.623 L 101.571 178.114 L 100.951 178.528 L 100.282 178.858 L 99.577 179.098 L 98.845 179.243 L 98.101 179.292 L 97.358 179.243 L 96.626 179.098 L 95.920 178.858 L 95.252 178.528 L 94.632 178.114 L 94.071 177.623 L 93.580 177.062 L 93.166 176.442 L 92.836 175.774 L 92.596 175.068 L 92.451 174.336 L 92.402 173.593 L 92.451 172.849 L 92.596 172.117 L 92.836 171.411 L 93.166 170.743 L 93.580 170.123 L 94.071 169.563 L 94.632 169.071 L 95.252 168.657 L 95.920 168.327 L 96.626 168.087 L 97.358 167.942 L 98.101 167.893 L 98.845 167.942 L 99.577 168.087 L 100.282 168.327 L 100.951 168.657 L 101.571 169.071 L 102.131 169.563 L 102.623 170.123 L 103.037 170.743 L 103.367 171.411 L 103.607 172.117 L 103.752 172.849 L 103.801 173.593 M 189.240 34.856 L 189.184 35.718 L 189.015 36.565 L 188.738 37.383 L 188.356 38.158 L 187.876 38.876 L 187.306 39.525 L 186.657 40.095 L 185.938 40.575 L 185.164 40.957 L 184.346 41.235 L 183.499 41.403 L 182.637 41.460 L 181.775 41.403 L 180.927 41.235 L 180.109 40.957 L 179.335 40.575 L 178.616 40.095 L 177.967 39.525 L 177.397 38.876 L 176.918 38.158 L 176.535 37.383 L 176.258 36.565 L 176.089 35.718 L 176.033 34.856 L 176.089 33.994 L 176.258 33.147 L 176.535 32.329 L 176.918 31.554 L 177.397 30.836 L 177.967 30.186 L 178.616 29.617 L 179.335 29.137 L 180.109 28.755 L 180.927 28.477 L 181.775 28.308 L 182.637 28.252 L 183.499 28.308 L 184.346 28.477 L 185.164 28.755 L 185.938 29.137 L 186.657 29.617 L 187.306 30.186 L 187.876 30.836 L 188.356 31.554 L 188.738 32.329 L 189.015 33.147 L 189.184 33.994 L 189.240 34.856" fill="none" stroke="#2dd4bf" stroke-width="1" vector-effect="non-scaling-stroke"/></svg>