<svg xmlns="http://www.w3.org/2000/svg" viewBox="84.2480582459098 18.220169743570224 254.38620301153213 259.47044265692756" width="254.38620301153213" height="259.47044265692756" shape-rendering="geometricPrecision"><rect x="84.2480582459098" y="18.220169743570224" width="254.38620301153213" height="259.47044265692756" fill="#0b0f14"/><path d="M 289.040 60.518 L 288.939 62.061 L 288.637 63.577 L 288.140 65.041 L 287.456 66.428 L 286.597 67.714 L 285.577 68.876 L 284.415 69.896 L 283.129 70.755 L 281.742 71.439 L 280.278 71.936 L 278.762 72.238 L 277.219 72.339 L 275.676 72.238 L 274.159 71.936 L 272.695 71.439 L 271.308 70.755 L 270.022 69.896 L 268.860 68.876 L 267.840 67.714 L 266.981 66.428 L 266.297 65.041 L 265.800 63.577 L 265.499 62.061 L 265.397 60.518 L 265.499 58.975 L 265.800 57.458 L 266.297 55.994 L 266.981 54.607 L 267.840 53.321 L 268.860 52.159 L 270.022 51.139 L 271.308 50.280 L 272.695 49.596 L 274.159 49.099 L 275.676 48.798 L 277.219 48.696 L 278.762 48.798 L 280.278 49.099 L 281.742 49.596 L 283.129 50.280 L 284.415 51.139 L 285.577 52.159 L 286.597 53.321 L 287.456 54.607 L 288.140 55.994 L 288.637 57.458 L 288.939 58.975 L 289.040 60.518 M 251.388 221.917 L 251.292 223.378 L 251.006 224.814 L 250.536 226.200 L 249.888 227.514 L 249.075 228.731 L 248.109 229.832 L 247.008 230.797 L 245.791 231.611 L 244.478 232.258 L 243.091 232.729 L 241.655 233.015 L 240.194 233.110 L 238.733 233.015 L 237.297 232.729 L 235.911 232.258 L 234.597 231.611 L 233.380 230.797 L 232.279 229.832 L 231.314 228.731 L 230.500 227.514 L 229.853 226.200 L 229.382 224.814 L 229.097 223.378 L 229.001 221.917 L 229.097 220.456 L 229.382 219.020 L 229.853 217.633 L 230.500 216.320 L 231.314 215.103 L 232.279 214.002 L 233.380 213.037 L 234.597 212.223 L 235.911 211.576 L 237.297 211.105 L 238.733 210.819 L 240.194 210.723 L 241.655 210.819 L 243.091 211.105 L 244.478 211.576 L 245.791 212.223 L 247.008 213.037 L 248.109 214.002 L 249.075 215.103 L 249.888 216.320 L 250.536 217.633 L 251.006 219.020 L 251.292 220.456 L 251.388 221.917 M 302.821 159.555 L 302.622 162.586 L 302.030 165.564 L 301.054 168.440 L 299.711 171.164 L 298.023 173.689 L 296.021 175.972 L 293.738 177.974 L 291.213 179.661 L 288.489 181.005 L 285.614 181.981 L 282.635 182.573 L 279.605 182.772 L 276.574 182.573 L 273.596 181.981 L 270.720 181.005 L 267.997 179.661 L 265.471 177.974 L 263.188 175.972 L 261.186 173.689 L 259.499 171.164 L 258.156 168.440 L 257.179 165.564 L 256.587 162.586 L 256.388 159.555 L 256.587 156.525 L 257.179 153.547 L 258.156 150.671 L 259.499 147.947 L 261.186 145.422 L 263.188 143.139 L 265.471 141.137 L 267.997 139.450 L 270.720 138.106 L 273.596 137.130 L 276.574 136.538 L 279.605 136.339 L 282.635 136.538 L 285.614 137.130 L 288.489 138.106 L 291.213 139.450 L 293.738 141.137 L 296.021 143.139 L 298.023 145.422 L 299.711 147.947 L 301.054 150.671 L 302.030 153.547 L 302.622 156.525 L 302.821 159.555 M 226.070 209.211 L 225.965 210.813 L 225.652 212.388 L 225.136 213.908 L 224.426 215.348 L 223.533 216.683 L 222.475 217.891 L 221.268 218.949 L 219.933 219.841 L 218.492 220.552 L 216.972 221.068 L 215.397 221.381 L 213.795 221.486 L 212.193 221.381 L 210.618 221.068 L 209.097 220.552 L 207.657 219.841 L 206.322 218.949 L 205.115 217.891 L 204.056 216.683 L 203.164 215.348 L 202.454 213.908 L 201.938 212.388 L 201.625 210.813 L 201.520 209.211 L 201.625 207.608 L 201.938 206.034 L 202.454 204.513 L 203.164 203.073 L 204.056 201.738 L 205.115 200.531 L 206.322 199.472 L 207.657 198.580 L 209.097 197.870 L 210.618 197.354 L 212.193 197.040 L 213.795 196.935 L 215.397 197.040 L 216.972 197.354 L 218.492 197.870 L 219.933 198.580 L 221.268 199.472 L 222.475 200.531 L 223.533 201.738 L 224.426 203.073 L 225.136 204.513 L 225.652 206.034 L 225.965 207.608 L 226.070 209.211 M 217.599 83.327 L 217.511 84.668 L 217.249 85.986 L 216.817 87.259 L 216.222 88.464 L 215.476 89.582 L 214.590 90.592 L 213.579 91.478 L 212.461 92.225 L 211.256 92.820 L 209.983 93.252 L 208.665 93.514 L 207.324 93.602 L 205.983 93.514 L 204.664 93.252 L 203.392 92.820 L 202.186 92.225 L 201.069 91.478 L 200.058 90.592 L 199.172 89.582 L 198.425 88.464 L 197.831 87.259 L 197.399 85.986 L 197.136 84.668 L 197.048 83.327 L 197.136 81.985 L 197.399 80.667 L 197.831 79.394 L 198.425 78.189 L 199.172 77.071 L 200.058 76.061 L 201.069 75.175 L 202.186 74.428 L 203.392 73.833 L 204.664 73.401 L 205.983 73.139 L 207.324 73.051 L 208.665 73.139 L 209.983 73.401 L 211.256 73.833 L 212.461 74.428 L 213.579 75.175 L 214.590 76.061 L 215.476 77.071 L 216.222 78.189 L 216.817 79.394 L 217.249 80.667 L 217.511 81.985 L 217.599 83.327 M 268.868 89.222 L 268.769 90.733 L 268.474 92.217 L 267.987 93.651 L 267.318 95.009 L 266.477 96.268 L 265.479 97.406 L 264.340 98.404 L 263.082 99.245 L 261.724 99.915 L 260.290 100.401 L 258.805 100.697 L 257.295 100.796 L 255.784 100.697 L 254.299 100.401 L 252.866 99.915 L 251.508 99.245 L 250.249 98.404 L 249.111 97.406 L 248.113 96.268 L 247.272 95.009 L 246.602 93.651 L 246.115 92.217 L 245.820 90.733 L 245.721 89.222 L 245.820 87.711 L 246.115 86.226 L 246.602 84.793 L 247.272 83.435 L 248.113 82.176 L 249.111 81.038 L 250.249 80.040 L 251.508 79.199 L 252.866 78.529 L 254.299 78.043 L 255.784 77.747 L 257.295 77.648 L 258.805 77.747 L 260.290 78.043 L 261.724 78.529 L 263.082 79.199 L 264.340 80.040 L 265.479 81.038 L 266.477 82.176 L 267.318 83.435 L 267.987 84.793 L 268.474 86.226 L 268.769 87.711 L 268.868 89.222 M 300.653 215.502 L 300.531 217.365 L 300.166 219.196 L 299.566 220.964 L 298.740 222.639 L 297.703 224.191 L 296.472 225.595 L 295.068 226.826 L 293.516 227.863 L 291.842 228.689 L 290.074 229.289 L 288.243 229.653 L 286.380 229.775 L 284.517 229.653 L 282.685 229.289 L 280.917 228.689 L 279.243 227.863 L 277.691 226.826 L 276.287 225.595 L 275.056 224.191 L 274.019 222.639 L 273.193 220.964 L 272.593 219.196 L 272.228 217.365 L 272.106 215.502 L 272.228 213.639 L 272.593 211.808 L 273.193 210.040 L 274.019 208.366 L 275.056 206.813 L 276.287 205.410 L 277.691 204.179 L 279.243 203.141 L 280.917 202.316 L 282.685 201.716 L 284.517 201.351 L 286.380 201.229 L 288.243 201.351 L 290.074 201.716 L 291.842 202.316 L 293.516 203.141 L 295.068 204.179 L 296.472 205.410 L 297.703 206.813 L 298.740 208.366 L 299.566 210.040 L 300.166 211.808 L 300.531 213.639 L 300.653 215.502 M 181.963 221.214 L 181.849 222.948 L 181.510 224.652 L 180.952 226.298 L 180.183 227.857 L 179.217 229.302 L 178.072 230.608 L 176.765 231.754 L 175.320 232.720 L 173.761 233.488 L 172.116 234.047 L 170.411 234.386 L 168.677 234.500 L 166.943 234.386 L 165.238 234.047 L 163.593 233.488 L 162.034 232.720 L 160.589 231.754 L 159.283 230.608 L 158.137 229.302 L 157.171 227.857 L 156.403 226.298 L 155.844 224.652 L 155.505 222.948 L 155.391 221.214 L 155.505 219.480 L 155.844 217.775 L 156.403 216.130 L 157.171 214.571 L 158.137 213.126 L 159.283 211.819 L 160.589 210.673 L 162.034 209.708 L 163.593 208.939 L 165.238 208.381 L 166.943 208.042 L 168.677 207.928 L 170.411 208.042 L 172.116 208.381 L 173.761 208.939 L 175.320 209.708 L 176.765 210.673 L 178.072 211.819 L 179.217 213.126 L 180.183 214.571 L 180.952 216.130 L 181.510 217.775 L 181.849 219.480 L 181.963 221.214 M 201.667 45.805 L 201.605 46.748 L 201.420 47.675 L 201.116 48.571 L 200.698 49.419 L 200.173 50.205 L 199.549 50.916 L 198.838 51.539 L 198.052 52.065 L 197.204 52.483 L 196.309 52.787 L 195.381 52.971 L 194.438 53.033 L 193.494 52.971 L 192.567 52.787 L 191.672 52.483 L 190.824 52.065 L 190.037 51.539 L 189.326 50.916 L 188.703 50.205 L 188.178 49.419 L 187.759 48.571 L 187.455 47.675 L 187.271 46.748 L 187.209 45.805 L 187.271 44.861 L 187.455 43.934 L 187.759 43.038 L 188.178 42.190 L 188.703 41.404 L 189.326 40.693 L 190.037 40.070 L 190.824 39.544 L 191.672 39.126 L 192.567 38.822 L 193.494 38.638 L 194.438 38.576 L 195.381 38.638 L 196.309 38.822 L 197.204 39.126 L 198.052 39.544 L 198.838 40.070 L 199.549 40.693 L 200.173 41.404 L 200.698 42.190 L 201.116 43.038 L 201.420 43.934 L 201.605 44.861 L 201.667 45.805 M 120.649 150.136 L 120.532 151.926 L 120.182 153.685 L 119.605 155.384 L 118.812 156.993 L 117.815 158.485 L 116.632 159.834 L 115.283 161.017 L 113.791 162.014 L 112.182 162.807 L 110.484 163.384 L 108.724 163.734 L 106.934 163.851 L 105.143 163.734 L 103.384 163.384 L 101.685 162.807 L 100.076 162.014 L 98.584 161.017 L 97.235 159.834 L 96.052 158.485 L 95.056 156.993 L 94.262 155.384 L 93.686 153.685 L 93.336 151.926 L 93.218 150.136 L 93.336 148.345 L 93.686 146.586 L 94.262 144.887 L 95.056 143.278 L 96.052 141.786 L 97.235 140.437 L 98.584 139.254 L 100.076 138.258 L 101.685 137.464 L 103.384 136.887 L 105.143 136.537 L 106.934 136.420 L 108.724 136.537 L 110.484 136.887 L 112.182 137.464 L 113.791 138.258 L 115.283 139.254 L 116.632 140.437 L 117.815 141.786 L 118.812 143.278 L 119.605 144.887 L 120.182 146.586 L 120.532 148.345 L 120.649 150.136 M 162.078 199.157 L 161.929 201.436 L 161.483 203.676 L 160.749 205.839 L 159.739 207.887 L 158.470 209.786 L 156.964 211.503 L 155.247 213.009 L 153.348 214.278 L 151.300 215.288 L 149.137 216.023 L 146.897 216.468 L 144.618 216.617 L 142.339 216.468 L 140.099 216.023 L 137.936 215.288 L 135.888 214.278 L 133.989 213.009 L 132.272 211.503 L 130.766 209.786 L 129.497 207.887 L 128.487 205.839 L 127.753 203.676 L 127.307 201.436 L 127.158 199.157 L 127.307 196.878 L 127.753 194.638 L 128.487 192.476 L 129.497 190.427 L 130.766 188.528 L 132.272 186.811 L 133.989 185.305 L 135.888 184.036 L 137.936 183.026 L 140.099 182.292 L 142.339 181.846 L 144.618 181.697 L 146.897 181.846 L 149.137 182.292 L 151.300 183.026 L 153.348 184.036 L 155.247 185.305 L 156.964 186.811 L 158.470 188.528 L 159.739 190.427 L 160.749 192.476 L 161.483 194.638 L 161.929 196.878 L 162.078 199.157 M 167.892 95.742 L 167.778 97.495 L 167.435 99.217 L 166.871 100.879 L 166.094 102.454 L 165.119 103.914 L 163.961 105.234 L 162.641 106.392 L 161.181 107.367 L 159.606 108.144 L 157.944 108.708 L 156.221 109.051 L 154.469 109.165 L 152.717 109.051 L 150.995 108.708 L 149.333 108.144 L 147.758 107.367 L 146.298 106.392 L 144.978 105.234 L 143.820 103.914 L 142.845 102.454 L 142.068 100.879 L 141.504 99.217 L 141.161 97.495 L 141.046 95.742 L 141.161 93.990 L 141.504 92.268 L 142.068 90.606 L 142.845 89.031 L 143.820 87.571 L 144.978 86.251 L 146.298 85.093 L 147.758 84.118 L 149.333 83.341 L 150.995 82.777 L 152.717 82.434 L 154.469 82.319 L 156.221 82.434 L 157.944 82.777 L 159.606 83.341 L 161.181 84.118 L 162.641 85.093 L 163.961 86.251 L 165.119 87.571 L 166.094 89.031 L 166.871 90.606 L 167.435 92.268 L 167.778 93.990 L 167.892 95.742 M 181.325 53.846 L 181.214 55.531 L 180.885 57.186 L 180.342 58.784 L 179.596 60.298 L 178.658 61.701 L 177.545 62.970 L 176.276 64.083 L 174.873 65.021 L 173.359 65.767 L 171.761 66.310 L 170.105 66.639 L 168.421 66.750 L 166.737 66.639 L 165.082 66.310 L 163.483 65.767 L 161.970 65.021 L 160.566 64.083 L 159.297 62.970 L 158.184 61.701 L 157.247 60.298 L 156.500 58.784 L 155.958 57.186 L 155.628 55.531 L 155.518 53.846 L 155.628 52.162 L 155.958 50.507 L 156.500 48.908 L 157.247 47.395 L 158.184 45.991 L 159.297 44.722 L 160.566 43.609 L 161.970 42.672 L 163.483 41.925 L 165.082 41.383 L 166.737 41.053 L 168.421 40.943 L 170.105 41.053 L 171.761 41.383 L 173.359 41.925 L 174.873 42.672 L 176.276 43.609 L 177.545 44.722 L 178.658 45.991 L 179.596 47.395 L 180.342 48.908 L 180.885 50.507 L 181.214 52.162 L 181.325 53.846 M 128.677 105.614 L 128.635 106.254 L 128.510 106.883 L 128.304 107.490 L 128.020 108.065 L 127.664 108.599 L 127.241 109.081 L 126.759 109.503 L 126.226 109.860 L 125.651 110.143 L 125.044 110.349 L 124.415 110.475 L 123.775 110.516 L 123.135 110.475 L 122.506 110.349 L 121.899 110.143 L 121.324 109.860 L 120.791 109.503 L 120.309 109.081 L 119.886 108.599 L 119.530 108.065 L 119.246 107.490 L 119.040 106.883 L 118.915 106.254 L 118.873 105.614 L 118.915 104.975 L 119.040 104.346 L 119.246 103.738 L 119.530 103.163 L 119.886 102.630 L 120.309 102.148 L 120.791 101.725 L 121.324 101.369 L 121.899 101.085 L 122.506 100.879 L 123.135 100.754 L 123.775 100.712 L 124.415 100.754 L 125.044 100.879 L 125.651 101.085 L 126.226 101.369 L 126.759 101.725 L 127.241 102.148 L 127.664 102.630 L 128.020 103.163 L 128.304 103.738 L 128.510 104.346 L 128.635 104.975 L 128.677 105.614 M 198.110 134.027 L 198.062 134.750 L 197.921 135.462 L 197.688 136.149 L 197.367 136.800 L 196.964 137.403 L 196.486 137.948 L 195.940 138.427 L 195.337 138.830 L 194.686 139.150 L 193.999 139.384 L 193.288 139.525 L 192.564 139.573 L 191.840 139.525 L 191.128 139.384 L 190.441 139.150 L 189.791 138.830 L 189.188 138.427 L 188.642 137.948 L 188.164 137.403 L 187.761 136.800 L 187.440 136.149 L 187.207 135.462 L 187.065 134.750 L 187.018 134.027 L 187.065 133.303 L 187.207 132.591 L 187.440 131.904 L 187.761 131.254 L 188.164 130.650 L 188.642 130.105 L 189.188 129.627 L 189.791 129.224 L 190.441 128.903 L 191.128 128.669 L 191.840 128.528 L 192.564 128.480 L 193.288 128.528 L 193.999 128.669 L 194.686 128.903 L 195.337 129.224 L 195.940 129.627 L 196.486 130.105 L 196.964 130.650 L 197.367 131.254 L 197.688 131.904 L 197.921 132.591 L 198.062 133.303 L 198.110 134.027 M 208.780 180.306 L 208.693 181.627 L 208.435 182.925 L 208.009 184.179 L 207.424 185.366 L 206.688 186.467 L 205.816 187.462 L 204.820 188.335 L 203.720 189.070 L 202.532 189.656 L 201.279 190.081 L 199.981 190.339 L 198.660 190.426 L 197.339 190.339 L 196.040 190.081 L 194.787 189.656 L 193.600 189.070 L 192.499 188.335 L 191.504 187.462 L 190.631 186.467 L 189.895 185.366 L 189.310 184.179 L 188.884 182.925 L 188.626 181.627 L 188.540 180.306 L 188.626 178.985 L 188.884 177.686 L 189.310 176.433 L 189.895 175.246 L 190.631 174.145 L 191.504 173.150 L 192.499 172.277 L 193.600 171.541 L 194.787 170.956 L 196.040 170.530 L 197.339 170.272 L 198.660 170.186 L 199.981 170.272 L 201.279 170.530 L 202.532 170.956 L 203.720 171.541 L 204.820 172.277 L 205.816 173.150 L 206.688 174.145 L 207.424 175.246 L 208.009 176.433 L 208.435 177.686 L 208.693 178.985 L 208.780 180.306 M 182.574 141.806 L 182.385 144.677 L 181.824 147.499 L 180.899 150.223 L 179.627 152.804 L 178.028 155.196 L 176.131 157.359 L 173.968 159.256 L 171.576 160.855 L 168.995 162.127 L 166.271 163.052 L 163.449 163.613 L 160.578 163.802 L 157.707 163.613 L 154.885 163.052 L 152.161 162.127 L 149.580 160.855 L 147.188 159.256 L 145.025 157.359 L 143.128 155.196 L 141.529 152.804 L 140.257 150.223 L 139.332 147.499 L 138.771 144.677 L 138.583 141.806 L 138.771 138.935 L 139.332 136.113 L 140.257 133.389 L 141.529 130.808 L 143.128 128.416 L 145.025 126.253 L 147.188 124.356 L 149.580 122.757 L 152.161 121.485 L 154.885 120.560 L 157.707 119.999 L 160.578 119.810 L 163.449 119.999 L 166.271 120.560 L 168.995 121.485 L 171.576 122.757 L 173.968 124.356 L 176.131 126.253 L 178.028 128.416 L 179.627 130.808 L 180.899 133.389 L 181.824 136.113 L 182.385 138.935 L 182.574 141.806 M 182.075 249.327 L 181.991 250.615 L 181.739 251.880 L 181.324 253.101 L 180.754 254.258 L 180.037 255.331 L 179.186 256.301 L 178.217 257.152 L 177.144 257.868 L 175.987 258.439 L 174.765 258.854 L 173.500 259.105 L 172.213 259.190 L 170.925 259.105 L 169.660 258.854 L 168.439 258.439 L 167.282 257.868 L 166.209 257.152 L 165.239 256.301 L 164.388 255.331 L 163.672 254.258 L 163.101 253.101 L 162.686 251.880 L 162.435 250.615 L 162.350 249.327 L 162.435 248.040 L 162.686 246.775 L 163.101 245.553 L 163.672 244.396 L 164.388 243.323 L 165.239 242.353 L 166.209 241.503 L 167.282 240.786 L 168.439 240.216 L 169.660 239.801 L 170.925 239.549 L 172.213 239.465 L 173.500 239.549 L 174.765 239.801 L 175.987 240.216 L 177.144 240.786 L 178.217 241.503 L 179.186 242.353 L 180.037 243.323 L 180.754 244.396 L 181.324 245.553 L 181.739 246.775 L 181.991 248.040 L 182.075 249.327 M 262.719 184.261 L 262.575 186.465 L 262.144 188.630 L 261.434 190.721 L 260.458 192.702 L 259.231 194.538 L 257.775 196.198 L 256.114 197.654 L 254.278 198.881 L 252.298 199.858 L 250.207 200.567 L 248.041 200.998 L 245.838 201.143 L 243.634 200.998 L 241.468 200.567 L 239.377 199.858 L 237.397 198.881 L 235.561 197.654 L 233.900 196.198 L 232.444 194.538 L 231.218 192.702 L 230.241 190.721 L 229.531 188.630 L 229.100 186.465 L 228.956 184.261 L 229.100 182.058 L 229.531 179.892 L 230.241 177.801 L 231.218 175.820 L 232.444 173.984 L 233.900 172.324 L 235.561 170.868 L 237.397 169.641 L 239.377 168.664 L 241.468 167.955 L 243.634 167.524 L 245.838 167.379 L 248.041 167.524 L 250.207 167.955 L 252.298 168.664 L 254.278 169.641 L 256.114 170.868 L 257.775 172.324 L 259.231 173.984 L 260.458 175.820 L 261.434 177.801 L 262.144 179.892 L 262.575 182.058 L 262.719 184.261 M 251.487 148.591 L 251.432 149.433 L 251.267 150.262 L 250.995 151.062 L 250.622 151.819 L 250.153 152.521 L 249.596 153.156 L 248.961 153.713 L 248.258 154.183 L 247.501 154.556 L 246.701 154.828 L 245.873 154.992 L 245.030 155.048 L 244.187 154.992 L 243.359 154.828 L 242.559 154.556 L 241.801 154.183 L 241.099 153.713 L 240.464 153.156 L 239.907 152.521 L 239.438 151.819 L 239.064 151.062 L 238.793 150.262 L 238.628 149.433 L 238.573 148.591 L 238.628 147.748 L 238.793 146.919 L 239.064 146.120 L 239.438 145.362 L 239.907 144.660 L 240.464 144.025 L 241.099 143.468 L 241.801 142.999 L 242.559 142.625 L 243.359 142.354 L 244.187 142.189 L 245.030 142.134 L 245.873 142.189 L 246.701 142.354 L 247.501 142.625 L 248.258 142.999 L 248.961 143.468 L 249.596 144.025 L 250.153 144.660 L 250.622 145.362 L 250.995 146.120 L 251.267 146.919 L 251.432 147.748 L 251.487 148.591 M 239.420 58.397 L 239.282 60.500 L 238.871 62.567 L 238.193 64.563 L 237.261 66.454 L 236.090 68.206 L 234.700 69.791 L 233.115 71.181 L 231.363 72.352 L 229.472 73.284 L 227.476 73.962 L 225.409 74.373 L 223.306 74.511 L 221.202 74.373 L 219.135 73.962 L 217.139 73.284 L 215.248 72.352 L 213.496 71.181 L 211.911 69.791 L 210.521 68.206 L 209.350 66.454 L 208.418 64.563 L 207.740 62.567 L 207.329 60.500 L 207.191 58.397 L 207.329 56.293 L 207.740 54.226 L 208.418 52.230 L 209.350 50.339 L 210.521 48.587 L 211.911 47.002 L 213.496 45.612 L 215.248 44.441 L 217.139 43.509 L 219.135 42.831 L 221.202 42.420 L 223.306 42.282 L 225.409 42.420 L 227.476 42.831 L 229.472 43.509 L 231.363 44.441 L 233.115 45.612 L 234.700 47.002 L 236.090 48.587 L 237.261 50.339 L 238.193 52.230 L 238.871 54.226 L 239.282 56.293 L 239.420 58.397 M 314.699 108.364 L 314.573 110.279 L 314.199 112.162 L 313.582 113.980 L 312.733 115.701 L 311.666 117.297 L 310.401 118.740 L 308.958 120.006 L 307.362 121.072 L 305.640 121.921 L 303.823 122.538 L 301.940 122.913 L 300.025 123.038 L 298.109 122.913 L 296.227 122.538 L 294.409 121.921 L 292.687 121.072 L 291.091 120.006 L 289.648 118.740 L 288.383 117.297 L 287.316 115.701 L 286.467 113.980 L 285.850 112.162 L 285.476 110.279 L 285.350 108.364 L 285.476 106.449 L 285.850 104.566 L 286.467 102.749 L 287.316 101.027 L 288.383 99.431 L 289.648 97.988 L 291.091 96.722 L 292.687 95.656 L 294.409 94.807 L 296.227 94.190 L 298.109 93.815 L 300.025 93.690 L 301.940 93.815 L 303.823 94.190 L 305.640 94.807 L 307.362 95.656 L 308.958 96.722 L 310.401 97.988 L 311.666 99.431 L 312.733 101.027 L 313.582 102.749 L 314.199 104.566 L 314.573 106.449 L 314.699 108.364 M 201.712 106.534 L 201.566 108.756 L 201.131 110.940 L 200.415 113.049 L 199.430 115.047 L 198.193 116.899 L 196.724 118.573 L 195.050 120.042 L 193.198 121.279 L 191.201 122.264 L 189.092 122.980 L 186.907 123.415 L 184.685 123.560 L 182.462 123.415 L 180.278 122.980 L 178.169 122.264 L 176.171 121.279 L 174.319 120.042 L 172.645 118.573 L 171.176 116.899 L 169.939 115.047 L 168.954 113.049 L 168.238 110.940 L 167.804 108.756 L 167.658 106.534 L 167.804 104.311 L 168.238 102.127 L 168.954 100.018 L 169.939 98.020 L 171.176 96.168 L 172.645 94.494 L 174.319 93.025 L 176.171 91.788 L 178.169 90.803 L 180.278 90.087 L 182.462 89.652 L 184.685 89.507 L 186.907 89.652 L 189.092 90.087 L 191.201 90.803 L 193.198 91.788 L 195.050 93.025 L 196.724 94.494 L 198.193 96.168 L 199.430 98.020 L 200.415 100.018 L 201.131 102.127 L 201.566 104.311 L 201.712 106.534 M 270.431 250.337 L 270.348 251.614 L 270.098 252.869 L 269.687 254.081 L 269.121 255.228 L 268.410 256.293 L 267.566 257.255 L 266.604 258.098 L 265.540 258.809 L 264.392 259.375 L 263.180 259.787 L 261.925 260.036 L 260.648 260.120 L 259.371 260.036 L 258.116 259.787 L 256.904 259.375 L 255.756 258.809 L 254.692 258.098 L 253.730 257.255 L 252.886 256.293 L 252.175 255.228 L 251.609 254.081 L 251.198 252.869 L 250.948 251.614 L 250.865 250.337 L 250.948 249.060 L 251.198 247.805 L 251.609 246.593 L 252.175 245.445 L 252.886 244.381 L 253.730 243.419 L 254.692 242.575 L 255.756 241.864 L 256.904 241.298 L 258.116 240.887 L 259.371 240.637 L 260.648 240.553 L 261.925 240.637 L 263.180 240.887 L 264.392 241.298 L 265.540 241.864 L 266.604 242.575 L 267.566 243.419 L 268.410 244.381 L 269.121 245.445 L 269.687 246.593 L 270.098 247.805 L 270.348 249.060 L 270.431 250.337 M 140.580 153.684 L 140.528 154.480 L 140.372 155.263 L 140.115 156.019 L 139.762 156.735 L 139.319 157.399 L 138.792 157.999 L 138.192 158.525 L 137.529 158.968 L 136.813 159.322 L 136.057 159.578 L 135.274 159.734 L 134.477 159.786 L 133.681 159.734 L 132.898 159.578 L 132.142 159.322 L 131.426 158.968 L 130.762 158.525 L 130.162 157.999 L 129.636 157.399 L 129.192 156.735 L 128.839 156.019 L 128.583 155.263 L 128.427 154.480 L 128.375 153.684 L 128.427 152.887 L 128.583 152.104 L 128.839 151.348 L 129.192 150.632 L 129.636 149.969 L 130.162 149.368 L 130.762 148.842 L 131.426 148.399 L 132.142 148.046 L 132.898 147.789 L 133.681 147.633 L 134.477 147.581 L 135.274 147.633 L 136.057 147.789 L 136.813 148.046 L 137.529 148.399 L 138.192 148.842 L 138.792 149.368 L 139.319 149.969 L 139.762 150.632 L 140.115 151.348 L 140.372 152.104 L 140.528 152.887 L 140.580 153.684 M 304.503 189.724 L 304.452 190.503 L 304.300 191.268 L 304.049 192.007 L 303.704 192.706 L 303.271 193.355 L 302.756 193.942 L 302.170 194.456 L 301.521 194.890 L 300.821 195.235 L 300.083 195.485 L 299.317 195.638 L 298.539 195.689 L 297.761 195.638 L 296.995 195.485 L 296.257 195.235 L 295.557 194.890 L 294.908 194.456 L 294.322 193.942 L 293.807 193.355 L 293.374 192.706 L 293.029 192.007 L 292.778 191.268 L 292.626 190.503 L 292.575 189.724 L 292.626 188.946 L 292.778 188.181 L 293.029 187.442 L 293.374 186.742 L 293.807 186.094 L 294.322 185.507 L 294.908 184.993 L 295.557 184.559 L 296.257 184.214 L 296.995 183.963 L 297.761 183.811 L 298.539 183.760 L 299.317 183.811 L 300.083 183.963 L 300.821 184.214 L 301.521 184.559 L 302.170 184.993 L 302.756 185.507 L 303.271 186.094 L 303.704 186.742 L 304.049 187.442 L 304.300 188.181 L 304.452 188.946 L 304.503 189.724 M 235.086 247.316 L 234.923 249.805 L 234.436 252.250 L 233.635 254.612 L 232.532 256.848 L 231.146 258.922 L 229.502 260.797 L 227.627 262.441 L 225.553 263.827 L 223.317 264.930 L 220.955 265.731 L 218.510 266.218 L 216.021 266.381 L 213.533 266.218 L 211.087 265.731 L 208.725 264.930 L 206.489 263.827 L 204.415 262.441 L 202.540 260.797 L 200.896 258.922 L 199.511 256.848 L 198.408 254.612 L 197.606 252.250 L 197.120 249.805 L 196.956 247.316 L 197.120 244.828 L 197.606 242.382 L 198.408 240.020 L 199.511 237.784 L 200.896 235.710 L 202.540 233.835 L 204.415 232.191 L 206.489 230.806 L 208.725 229.703 L 211.087 228.901 L 213.533 228.415 L 216.021 228.252 L 218.510 228.415 L 220.955 228.901 L 223.317 229.703 L 225.553 230.806 L 227.627 232.191 L 229.502 233.835 L 231.146 235.710 L 232.532 237.784 L 233.635 240.020 L 234.436 242.382 L 234.923 244.828 L 235.086 247.316 M 256.504 68.281 L 256.445 69.170 L 256.272 70.044 L 255.985 70.888 L 255.591 71.687 L 255.096 72.428 L 254.509 73.098 L 253.839 73.685 L 253.098 74.180 L 252.299 74.574 L 251.455 74.861 L 250.581 75.034 L 249.692 75.093 L 248.803 75.034 L 247.929 74.861 L 247.085 74.574 L 246.286 74.180 L 245.545 73.685 L 244.876 73.098 L 244.288 72.428 L 243.793 71.687 L 243.399 70.888 L 243.113 70.044 L 242.939 69.170 L 242.881 68.281 L 242.939 67.392 L 243.113 66.518 L 243.399 65.674 L 243.793 64.875 L 244.288 64.134 L 244.876 63.465 L 245.545 62.877 L 246.286 62.382 L 247.085 61.988 L 247.929 61.702 L 248.803 61.528 L 249.692 61.469 L 250.581 61.528 L 251.455 61.702 L 252.299 61.988 L 253.098 62.382 L 253.839 62.877 L 254.509 63.465 L 255.096 64.134 L 255.591 64.875 L 255.985 65.674 L 256.272 66.518 L 256.445 67.392 L 256.504 68.281 M 326.910 166.302 L 326.827 167.570 L 326.579 168.817 L 326.170 170.020 L 325.608 171.160 L 324.902 172.216 L 324.064 173.172 L 323.109 174.010 L 322.052 174.716 L 320.912 175.278 L 319.709 175.686 L 318.463 175.934 L 317.195 176.017 L 315.927 175.934 L 314.680 175.686 L 313.477 175.278 L 312.337 174.716 L 311.281 174.010 L 310.325 173.172 L 309.487 172.216 L 308.781 171.160 L 308.219 170.020 L 307.811 168.817 L 307.563 167.570 L 307.480 166.302 L 307.563 165.034 L 307.811 163.788 L 308.219 162.584 L 308.781 161.445 L 309.487 160.388 L 310.325 159.433 L 311.281 158.595 L 312.337 157.889 L 313.477 157.327 L 314.680 156.918 L 315.927 156.670 L 317.195 156.587 L 318.463 156.670 L 319.709 156.918 L 320.912 157.327 L 322.052 157.889 L 323.109 158.595 L 324.064 159.433 L 324.902 160.388 L 325.608 161.445 L 326.170 162.584 L 326.579 163.788 L 326.827 165.034 L 326.910 166.302 M 330.634 131.869 L 330.539 133.326 L 330.254 134.758 L 329.785 136.141 L 329.139 137.450 L 328.328 138.664 L 327.365 139.762 L 326.267 140.724 L 325.054 141.536 L 323.744 142.181 L 322.362 142.651 L 320.930 142.935 L 319.473 143.031 L 318.016 142.935 L 316.584 142.651 L 315.201 142.181 L 313.892 141.536 L 312.678 140.724 L 311.580 139.762 L 310.618 138.664 L 309.807 137.450 L 309.161 136.141 L 308.692 134.758 L 308.407 133.326 L 308.311 131.869 L 308.407 130.413 L 308.692 128.981 L 309.161 127.598 L 309.807 126.289 L 310.618 125.075 L 311.580 123.977 L 312.678 123.014 L 313.892 122.203 L 315.201 121.558 L 316.584 121.088 L 318.016 120.803 L 319.473 120.708 L 320.930 120.803 L 322.362 121.088 L 323.744 121.558 L 325.054 122.203 L 326.267 123.014 L 327.365 123.977 L 328.328 125.075 L 329.139 126.289 L 329.785 127.598 L 330.254 128.981 L 330.539 130.413 L 330.634 131.869 M 190.546 167.072 L 190.490 167.925 L 190.323 168.763 L 190.049 169.572 L 189.671 170.338 L 189.196 171.048 L 188.633 171.690 L 187.991 172.253 L 187.281 172.728 L 186.514 173.106 L 185.705 173.380 L 184.868 173.547 L 184.015 173.603 L 183.163 173.547 L 182.325 173.380 L 181.516 173.106 L 180.750 172.728 L 180.040 172.253 L 179.397 171.690 L 178.834 171.048 L 178.360 170.338 L 177.982 169.572 L 177.707 168.763 L 177.540 167.925 L 177.485 167.072 L 177.540 166.220 L 177.707 165.382 L 177.982 164.573 L 178.360 163.807 L 178.834 163.097 L 179.397 162.455 L 180.040 161.891 L 180.750 161.417 L 181.516 161.039 L 182.325 160.764 L 183.163 160.598 L 184.015 160.542 L 184.868 160.598 L 185.705 160.764 L 186.514 161.039 L 187.281 161.417 L 187.991 161.891 L 188.633 162.455 L 189.196 163.097 L 189.671 163.807 L 190.049 164.573 L 190.323 165.382 L 190.490 166.220 L 190.546 167.072 M 149.178 71.010 L 149.137 71.636 L 149.014 72.251 L 148.813 72.845 L 148.535 73.408 L 148.186 73.930 L 147.773 74.401 L 147.301 74.815 L 146.779 75.164 L 146.217 75.441 L 145.623 75.643 L 145.007 75.765 L 144.381 75.806 L 143.755 75.765 L 143.140 75.643 L 142.546 75.441 L 141.983 75.164 L 141.461 74.815 L 140.990 74.401 L 140.576 73.930 L 140.227 73.408 L 139.950 72.845 L 139.748 72.251 L 139.626 71.636 L 139.585 71.010 L 139.626 70.384 L 139.748 69.768 L 139.950 69.174 L 140.227 68.612 L 140.576 68.090 L 140.990 67.618 L 141.461 67.205 L 141.983 66.856 L 142.546 66.578 L 143.140 66.377 L 143.755 66.254 L 144.381 66.213 L 145.007 66.254 L 145.623 66.377 L 146.217 66.578 L 146.779 66.856 L 147.301 67.205 L 147.773 67.618 L 148.186 68.090 L 148.535 68.612 L 148.813 69.174 L 149.014 69.768 L 149.137 70.384 L 149.178 71.010 M 235.484 157.486 L 235.386 158.978 L 235.094 160.445 L 234.613 161.861 L 233.952 163.202 L 233.121 164.445 L 232.135 165.570 L 231.011 166.556 L 229.768 167.386 L 228.426 168.048 L 227.010 168.529 L 225.544 168.820 L 224.052 168.918 L 222.559 168.820 L 221.093 168.529 L 219.677 168.048 L 218.335 167.386 L 217.092 166.556 L 215.968 165.570 L 214.982 164.445 L 214.151 163.202 L 213.490 161.861 L 213.009 160.445 L 212.717 158.978 L 212.619 157.486 L 212.717 155.994 L 213.009 154.527 L 213.490 153.111 L 214.151 151.770 L 214.982 150.527 L 215.968 149.402 L 217.092 148.416 L 218.335 147.585 L 219.677 146.924 L 221.093 146.443 L 222.559 146.152 L 224.052 146.054 L 225.544 146.152 L 227.010 146.443 L 228.426 146.924 L 229.768 147.585 L 231.011 148.416 L 232.135 149.402 L 233.121 150.527 L 233.952 151.770 L 234.613 153.111 L 235.094 154.527 L 235.386 155.994 L 235.484 157.486 M 271.337 199.691 L 271.282 200.538 L 271.116 201.370 L 270.844 202.174 L 270.468 202.935 L 269.997 203.640 L 269.437 204.278 L 268.800 204.837 L 268.094 205.309 L 267.333 205.684 L 266.530 205.957 L 265.698 206.122 L 264.851 206.178 L 264.004 206.122 L 263.172 205.957 L 262.369 205.684 L 261.608 205.309 L 260.902 204.837 L 260.264 204.278 L 259.705 203.640 L 259.233 202.935 L 258.858 202.174 L 258.585 201.370 L 258.420 200.538 L 258.364 199.691 L 258.420 198.845 L 258.585 198.013 L 258.858 197.209 L 259.233 196.448 L 259.705 195.743 L 260.264 195.105 L 260.902 194.545 L 261.608 194.074 L 262.369 193.699 L 263.172 193.426 L 264.004 193.260 L 264.851 193.205 L 265.698 193.260 L 266.530 193.426 L 267.333 193.699 L 268.094 194.074 L 268.800 194.545 L 269.437 195.105 L 269.997 195.743 L 270.468 196.448 L 270.844 197.209 L 271.116 198.013 L 271.282 198.845 L 271.337 199.691 M 312.743 144.767 L 312.697 145.462 L 312.561 146.146 L 312.337 146.806 L 312.029 147.431 L 311.642 148.010 L 311.182 148.534 L 310.658 148.994 L 310.079 149.381 L 309.454 149.689 L 308.794 149.913 L 308.111 150.049 L 307.415 150.095 L 306.720 150.049 L 306.036 149.913 L 305.376 149.689 L 304.751 149.381 L 304.172 148.994 L 303.648 148.534 L 303.189 148.010 L 302.801 147.431 L 302.493 146.806 L 302.269 146.146 L 302.133 145.462 L 302.088 144.767 L 302.133 144.072 L 302.269 143.388 L 302.493 142.728 L 302.801 142.103 L 303.189 141.524 L 303.648 141.000 L 304.172 140.541 L 304.751 140.153 L 305.376 139.845 L 306.036 139.621 L 306.720 139.485 L 307.415 139.440 L 308.111 139.485 L 308.794 139.621 L 309.454 139.845 L 310.079 140.153 L 310.658 140.541 L 311.182 141.000 L 311.642 141.524 L 312.029 142.103 L 312.337 142.728 L 312.561 143.388 L 312.697 144.072 L 312.743 144.767 M 134.005 81.550 L 133.913 82.954 L 133.638 84.334 L 133.186 85.667 L 132.564 86.929 L 131.782 88.098 L 130.854 89.156 L 129.796 90.084 L 128.627 90.866 L 127.365 91.488 L 126.032 91.940 L 124.652 92.215 L 123.248 92.307 L 121.844 92.215 L 120.464 91.940 L 119.132 91.488 L 117.870 90.866 L 116.700 90.084 L 115.643 89.156 L 114.715 88.098 L 113.933 86.929 L 113.311 85.667 L 112.859 84.334 L 112.584 82.954 L 112.492 81.550 L 112.584 80.146 L 112.859 78.766 L 113.311 77.434 L 113.933 76.172 L 114.715 75.002 L 115.643 73.945 L 116.700 73.017 L 117.870 72.235 L 119.132 71.613 L 120.464 71.161 L 121.844 70.886 L 123.248 70.794 L 124.652 70.886 L 126.032 71.161 L 127.365 71.613 L 128.627 72.235 L 129.796 73.017 L 130.854 73.945 L 131.782 75.002 L 132.564 76.172 L 133.186 77.434 L 133.638 78.766 L 133.913 80.146 L 134.005 81.550 M 319.976 196.917 L 319.927 197.665 L 319.780 198.400 L 319.539 199.110 L 319.208 199.783 L 318.791 200.406 L 318.297 200.970 L 317.733 201.465 L 317.109 201.881 L 316.437 202.213 L 315.727 202.454 L 314.991 202.600 L 314.243 202.649 L 313.495 202.600 L 312.759 202.454 L 312.049 202.213 L 311.377 201.881 L 310.753 201.465 L 310.189 200.970 L 309.695 200.406 L 309.278 199.783 L 308.947 199.110 L 308.706 198.400 L 308.559 197.665 L 308.510 196.917 L 308.559 196.168 L 308.706 195.433 L 308.947 194.723 L 309.278 194.050 L 309.695 193.427 L 310.189 192.863 L 310.753 192.368 L 311.377 191.952 L 312.049 191.620 L 312.759 191.379 L 313.495 191.233 L 314.243 191.184 L 314.991 191.233 L 315.727 191.379 L 316.437 191.620 L 317.109 191.952 L 317.733 192.368 L 318.297 192.863 L 318.791 193.427 L 319.208 194.050 L 319.539 194.723 L 319.780 195.433 L 319.927 196.168 L 319.976 196.917 M 103.046 120.104 L 103.000 120.808 L 102.862 121.501 L 102.635 122.170 L 102.323 122.803 L 101.930 123.390 L 101.465 123.921 L 100.934 124.387 L 100.347 124.779 L 99.713 125.092 L 99.044 125.319 L 98.352 125.456 L 97.647 125.503 L 96.942 125.456 L 96.250 125.319 L 95.581 125.092 L 94.948 124.779 L 94.360 124.387 L 93.829 123.921 L 93.364 123.390 L 92.971 122.803 L 92.659 122.170 L 92.432 121.501 L 92.294 120.808 L 92.248 120.104 L 92.294 119.399 L 92.432 118.706 L 92.659 118.037 L 92.971 117.404 L 93.364 116.817 L 93.829 116.286 L 94.360 115.820 L 94.948 115.428 L 95.581 115.115 L 96.250 114.888 L 96.942 114.751 L 97.647 114.704 L 98.352 114.751 L 99.044 114.888 L 99.713 115.115 L 100.347 115.428 L 100.934 115.820 L 101.465 116.286 L 101.930 116.817 L 102.323 117.404 L 102.635 118.037 L 102.862 118.706 L 103.000 119.399 L 103.046 120.104 M 217.836 110.035 L 217.785 110.812 L 217.633 111.575 L 217.383 112.312 L 217.038 113.011 L 216.606 113.658 L 216.093 114.243 L 215.507 114.756 L 214.860 115.189 L 214.162 115.533 L 213.425 115.783 L 212.661 115.935 L 211.885 115.986 L 211.108 115.935 L 210.344 115.783 L 209.607 115.533 L 208.909 115.189 L 208.262 114.756 L 207.677 114.243 L 207.163 113.658 L 206.731 113.011 L 206.387 112.312 L 206.136 111.575 L 205.984 110.812 L 205.934 110.035 L 205.984 109.258 L 206.136 108.495 L 206.387 107.758 L 206.731 107.060 L 207.163 106.412 L 207.677 105.827 L 208.262 105.314 L 208.909 104.881 L 209.607 104.537 L 210.344 104.287 L 211.108 104.135 L 211.885 104.084 L 212.661 104.135 L 213.425 104.287 L 214.162 104.537 L 214.860 104.881 L 215.507 105.314 L 216.093 105.827 L 216.606 106.412 L 217.038 107.060 L 217.383 107.758 L 217.633 108.495 L 217.785 109.258 L 217.836 110.035 M 300.795 81.445 L 300.717 82.629 L 300.486 83.793 L 300.104 84.916 L 299.579 85.981 L 298.920 86.967 L 298.138 87.859 L 297.245 88.642 L 296.259 89.301 L 295.195 89.826 L 294.071 90.207 L 292.907 90.439 L 291.723 90.517 L 290.539 90.439 L 289.375 90.207 L 288.251 89.826 L 287.187 89.301 L 286.200 88.642 L 285.308 87.859 L 284.525 86.967 L 283.866 85.981 L 283.341 84.916 L 282.960 83.793 L 282.728 82.629 L 282.651 81.445 L 282.728 80.260 L 282.960 79.097 L 283.341 77.973 L 283.866 76.909 L 284.525 75.922 L 285.308 75.030 L 286.200 74.247 L 287.187 73.588 L 288.251 73.063 L 289.375 72.682 L 290.539 72.450 L 291.723 72.373 L 292.907 72.450 L 294.071 72.682 L 295.195 73.063 L 296.259 73.588 L 297.245 74.247 L 298.138 75.030 L 298.920 75.922 L 299.579 76.909 L 300.104 77.973 L 300.486 79.097 L 300.717 80.260 L 300.795 81.445 M 219.238 130.357 L 219.197 130.991 L 219.073 131.615 L 218.868 132.217 L 218.587 132.787 L 218.234 133.316 L 217.815 133.794 L 217.336 134.213 L 216.808 134.566 L 216.238 134.847 L 215.636 135.052 L 215.012 135.176 L 214.378 135.217 L 213.743 135.176 L 213.120 135.052 L 212.518 134.847 L 211.947 134.566 L 211.419 134.213 L 210.941 133.794 L 210.521 133.316 L 210.168 132.787 L 209.887 132.217 L 209.683 131.615 L 209.559 130.991 L 209.517 130.357 L 209.559 129.722 L 209.683 129.099 L 209.887 128.497 L 210.168 127.926 L 210.521 127.398 L 210.941 126.920 L 211.419 126.501 L 211.947 126.147 L 212.518 125.866 L 213.120 125.662 L 213.743 125.538 L 214.378 125.496 L 215.012 125.538 L 215.636 125.662 L 216.238 125.866 L 216.808 126.147 L 217.336 126.501 L 217.815 126.920 L 218.234 127.398 L 218.587 127.926 L 218.868 128.497 L 219.073 129.099 L 219.197 129.722 L 219.238 130.357 M 195.732 262.509 L 195.671 263.446 L 195.487 264.368 L 195.185 265.257 L 194.770 266.100 L 194.248 266.881 L 193.629 267.587 L 192.922 268.207 L 192.141 268.728 L 191.299 269.144 L 190.409 269.446 L 189.488 269.629 L 188.550 269.691 L 187.613 269.629 L 186.692 269.446 L 185.802 269.144 L 184.959 268.728 L 184.178 268.207 L 183.472 267.587 L 182.853 266.881 L 182.331 266.100 L 181.915 265.257 L 181.613 264.368 L 181.430 263.446 L 181.369 262.509 L 181.430 261.571 L 181.613 260.650 L 181.915 259.760 L 182.331 258.918 L 182.853 258.137 L 183.472 257.430 L 184.178 256.811 L 184.959 256.289 L 185.802 255.874 L 186.692 255.572 L 187.613 255.388 L 188.550 255.327 L 189.488 255.388 L 190.409 255.572 L 191.299 255.874 L 192.141 256.289 L 192.922 256.811 L 193.629 257.430 L 194.248 258.137 L 194.770 258.918 L 195.185 259.760 L 195.487 260.650 L 195.671 261.571 L 195.732 262.509 M 116.228 200.521 L 116.172 201.373 L 116.005 202.210 L 115.731 203.018 L 115.354 203.783 L 114.880 204.492 L 114.317 205.134 L 113.676 205.696 L 112.966 206.170 L 112.201 206.548 L 111.393 206.822 L 110.556 206.989 L 109.705 207.044 L 108.853 206.989 L 108.016 206.822 L 107.208 206.548 L 106.443 206.170 L 105.734 205.696 L 105.092 205.134 L 104.530 204.492 L 104.056 203.783 L 103.678 203.018 L 103.404 202.210 L 103.237 201.373 L 103.182 200.521 L 103.237 199.670 L 103.404 198.833 L 103.678 198.025 L 104.056 197.260 L 104.530 196.550 L 105.092 195.909 L 105.734 195.346 L 106.443 194.872 L 107.208 194.495 L 108.016 194.221 L 108.853 194.054 L 109.705 193.998 L 110.556 194.054 L 111.393 194.221 L 112.201 194.495 L 112.966 194.872 L 113.676 195.346 L 114.317 195.909 L 114.880 196.550 L 115.354 197.260 L 115.731 198.025 L 116.005 198.833 L 116.172 199.670 L 116.228 200.521 M 159.800 243.463 L 159.742 244.351 L 159.568 245.224 L 159.282 246.067 L 158.888 246.865 L 158.394 247.605 L 157.807 248.274 L 157.138 248.861 L 156.398 249.355 L 155.600 249.749 L 154.757 250.035 L 153.884 250.209 L 152.996 250.267 L 152.108 250.209 L 151.235 250.035 L 150.392 249.749 L 149.594 249.355 L 148.854 248.861 L 148.185 248.274 L 147.598 247.605 L 147.103 246.865 L 146.710 246.067 L 146.424 245.224 L 146.250 244.351 L 146.192 243.463 L 146.250 242.575 L 146.424 241.702 L 146.710 240.859 L 147.103 240.061 L 147.598 239.321 L 148.185 238.652 L 148.854 238.065 L 149.594 237.570 L 150.392 237.177 L 151.235 236.891 L 152.108 236.717 L 152.996 236.659 L 153.884 236.717 L 154.757 236.891 L 155.600 237.177 L 156.398 237.570 L 157.138 238.065 L 157.807 238.652 L 158.394 239.321 L 158.888 240.061 L 159.282 240.859 L 159.568 241.702 L 159.742 242.575 L 159.800 243.463 M 223.824 185.680 L 223.761 186.653 L 223.570 187.610 L 223.257 188.534 L 222.825 189.409 L 222.283 190.221 L 221.640 190.954 L 220.906 191.598 L 220.095 192.140 L 219.219 192.571 L 218.295 192.885 L 217.338 193.075 L 216.365 193.139 L 215.391 193.075 L 214.434 192.885 L 213.510 192.571 L 212.635 192.140 L 211.824 191.598 L 211.090 190.954 L 210.447 190.221 L 209.905 189.409 L 209.473 188.534 L 209.159 187.610 L 208.969 186.653 L 208.905 185.680 L 208.969 184.706 L 209.159 183.749 L 209.473 182.825 L 209.905 181.950 L 210.447 181.138 L 211.090 180.405 L 211.824 179.762 L 212.635 179.219 L 213.510 178.788 L 214.434 178.474 L 215.391 178.284 L 216.365 178.220 L 217.338 178.284 L 218.295 178.474 L 219.219 178.788 L 220.095 179.219 L 220.906 179.762 L 221.640 180.405 L 222.283 181.138 L 222.825 181.950 L 223.257 182.825 L 223.570 183.749 L 223.761 184.706 L 223.824 185.680 M 279.846 116.490 L 279.765 117.727 L 279.524 118.942 L 279.125 120.116 L 278.577 121.228 L 277.888 122.258 L 277.071 123.190 L 276.139 124.007 L 275.109 124.696 L 273.997 125.244 L 272.823 125.642 L 271.608 125.884 L 270.371 125.965 L 269.134 125.884 L 267.919 125.642 L 266.745 125.244 L 265.633 124.696 L 264.603 124.007 L 263.671 123.190 L 262.854 122.258 L 262.165 121.228 L 261.617 120.116 L 261.219 118.942 L 260.977 117.727 L 260.896 116.490 L 260.977 115.253 L 261.219 114.038 L 261.617 112.864 L 262.165 111.752 L 262.854 110.722 L 263.671 109.790 L 264.603 108.973 L 265.633 108.284 L 266.745 107.736 L 267.919 107.337 L 269.134 107.096 L 270.371 107.015 L 271.608 107.096 L 272.823 107.337 L 273.997 107.736 L 275.109 108.284 L 276.139 108.973 L 277.071 109.790 L 277.888 110.722 L 278.577 111.752 L 279.125 112.864 L 279.524 114.038 L 279.765 115.253 L 279.846 116.490 M 248.092 110.603 L 248.009 111.864 L 247.762 113.102 L 247.356 114.299 L 246.798 115.431 L 246.096 116.482 L 245.263 117.431 L 244.314 118.264 L 243.263 118.966 L 242.130 119.525 L 240.934 119.931 L 239.696 120.177 L 238.435 120.260 L 237.175 120.177 L 235.936 119.931 L 234.740 119.525 L 233.607 118.966 L 232.557 118.264 L 231.607 117.431 L 230.774 116.482 L 230.073 115.431 L 229.514 114.299 L 229.108 113.102 L 228.861 111.864 L 228.779 110.603 L 228.861 109.343 L 229.108 108.104 L 229.514 106.908 L 230.073 105.775 L 230.774 104.725 L 231.607 103.775 L 232.557 102.942 L 233.607 102.241 L 234.740 101.682 L 235.936 101.276 L 237.175 101.029 L 238.435 100.947 L 239.696 101.029 L 240.934 101.276 L 242.130 101.682 L 243.263 102.241 L 244.314 102.942 L 245.263 103.775 L 246.096 104.725 L 246.798 105.775 L 247.356 106.908 L 247.762 108.104 L 248.009 109.343 L 248.092 110.603 M 106.989 175.756 L 106.941 176.486 L 106.798 177.204 L 106.563 177.897 L 106.240 178.553 L 105.833 179.162 L 105.351 179.712 L 104.800 180.194 L 104.192 180.601 L 103.536 180.924 L 102.843 181.160 L 102.125 181.302 L 101.395 181.350 L 100.665 181.302 L 99.947 181.160 L 99.254 180.924 L 98.598 180.601 L 97.990 180.194 L 97.439 179.712 L 96.957 179.162 L 96.550 178.553 L 96.227 177.897 L 95.992 177.204 L 95.849 176.486 L 95.801 175.756 L 95.849 175.026 L 95.992 174.308 L 96.227 173.615 L 96.550 172.959 L 96.957 172.351 L 97.439 171.801 L 97.990 171.318 L 98.598 170.912 L 99.254 170.588 L 99.947 170.353 L 100.665 170.210 L 101.395 170.162 L 102.125 170.210 L 102.843 170.353 L 103.536 170.588 L 104.192 170.912 L 104.800 171.318 L 105.351 171.801 L 105.833 172.351 L 106.240 172.959 L 106.563 173.615 L 106.798 174.308 L 106.941 175.026 L 106.989 175.756 M 269.648 215.162 L 269.582 216.160 L 269.387 217.142 L 269.065 218.090 L 268.623 218.987 L 268.067 219.819 L 267.407 220.572 L 266.654 221.232 L 265.822 221.788 L 264.925 222.230 L 263.977 222.552 L 262.995 222.747 L 261.997 222.813 L 260.998 222.747 L 260.017 222.552 L 259.069 222.230 L 258.171 221.788 L 257.339 221.232 L 256.587 220.572 L 255.927 219.819 L 255.371 218.987 L 254.928 218.090 L 254.606 217.142 L 254.411 216.160 L 254.346 215.162 L 254.411 214.163 L 254.606 213.182 L 254.928 212.234 L 255.371 211.336 L 255.927 210.504 L 256.587 209.752 L 257.339 209.092 L 258.171 208.536 L 259.069 208.093 L 260.017 207.771 L 260.998 207.576 L 261.997 207.511 L 262.995 207.576 L 263.977 207.771 L 264.925 208.093 L 265.822 208.536 L 266.654 209.092 L 267.407 209.752 L 268.067 210.504 L 268.623 211.336 L 269.065 212.234 L 269.387 213.182 L 269.582 214.163 L 269.648 215.162 M 255.794 39.736 L 255.738 40.601 L 255.569 41.451 L 255.290 42.271 L 254.907 43.048 L 254.426 43.768 L 253.854 44.420 L 253.203 44.991 L 252.483 45.473 L 251.705 45.856 L 250.885 46.134 L 250.035 46.303 L 249.171 46.360 L 248.306 46.303 L 247.456 46.134 L 246.636 45.856 L 245.859 45.473 L 245.138 44.991 L 244.487 44.420 L 243.916 43.768 L 243.434 43.048 L 243.051 42.271 L 242.773 41.451 L 242.604 40.601 L 242.547 39.736 L 242.604 38.872 L 242.773 38.022 L 243.051 37.201 L 243.434 36.424 L 243.916 35.704 L 244.487 35.053 L 245.138 34.481 L 245.859 34.000 L 246.636 33.617 L 247.456 33.338 L 248.306 33.169 L 249.171 33.113 L 250.035 33.169 L 250.885 33.338 L 251.705 33.617 L 252.483 34.000 L 253.203 34.481 L 253.854 35.053 L 254.426 35.704 L 254.907 36.424 L 255.290 37.201 L 255.569 38.022 L 255.738 38.872 L 255.794 39.736 M 245.267 128.907 L 245.217 129.665 L 245.069 130.410 L 244.825 131.129 L 244.489 131.810 L 244.067 132.442 L 243.566 133.013 L 242.995 133.514 L 242.363 133.936 L 241.682 134.272 L 240.963 134.516 L 240.218 134.664 L 239.460 134.714 L 238.702 134.664 L 237.957 134.516 L 237.237 134.272 L 236.556 133.936 L 235.925 133.514 L 235.354 133.013 L 234.853 132.442 L 234.431 131.810 L 234.095 131.129 L 233.851 130.410 L 233.702 129.665 L 233.653 128.907 L 233.702 128.149 L 233.851 127.404 L 234.095 126.685 L 234.431 126.003 L 234.853 125.372 L 235.354 124.801 L 235.925 124.300 L 236.556 123.878 L 237.237 123.542 L 237.957 123.298 L 238.702 123.150 L 239.460 123.100 L 240.218 123.150 L 240.963 123.298 L 241.682 123.542 L 242.363 123.878 L 242.995 124.300 L 243.566 124.801 L 244.067 125.372 L 244.489 126.003 L 244.825 126.685 L 245.069 127.404 L 245.217 128.149 L 245.267 128.907 M 286.572 240.874 L 286.502 241.947 L 286.293 243.001 L 285.947 244.019 L 285.472 244.982 L 284.875 245.876 L 284.166 246.684 L 283.358 247.393 L 282.464 247.990 L 281.500 248.465 L 280.482 248.811 L 279.428 249.021 L 278.356 249.091 L 277.283 249.021 L 276.229 248.811 L 275.211 248.465 L 274.248 247.990 L 273.354 247.393 L 272.546 246.684 L 271.837 245.876 L 271.240 244.982 L 270.765 244.019 L 270.419 243.001 L 270.209 241.947 L 270.139 240.874 L 270.209 239.802 L 270.419 238.748 L 270.765 237.730 L 271.240 236.766 L 271.837 235.872 L 272.546 235.064 L 273.354 234.355 L 274.248 233.758 L 275.211 233.283 L 276.229 232.937 L 277.283 232.728 L 278.356 232.657 L 279.428 232.728 L 280.482 232.937 L 281.500 233.283 L 282.464 233.758 L 283.358 234.355 L 284.166 235.064 L 284.875 235.872 L 285.472 236.766 L 285.947 237.730 L 286.293 238.748 L 286.502 239.802 L 286.572 240.874 M 237.954 81.852 L 237.909 82.542 L 237.774 83.221 L 237.552 83.876 L 237.246 84.496 L 236.861 85.072 L 236.405 85.592 L 235.885 86.048 L 235.310 86.432 L 234.690 86.738 L 234.035 86.960 L 233.356 87.095 L 232.666 87.140 L 231.976 87.095 L 231.297 86.960 L 230.642 86.738 L 230.022 86.432 L 229.447 86.048 L 228.926 85.592 L 228.470 85.072 L 228.086 84.496 L 227.780 83.876 L 227.558 83.221 L 227.423 82.542 L 227.378 81.852 L 227.423 81.162 L 227.558 80.484 L 227.780 79.829 L 228.086 79.208 L 228.470 78.633 L 228.926 78.113 L 229.447 77.657 L 230.022 77.272 L 230.642 76.967 L 231.297 76.744 L 231.976 76.609 L 232.666 76.564 L 233.356 76.609 L 234.035 76.744 L 234.690 76.967 L 235.310 77.272 L 235.885 77.657 L 236.405 78.113 L 236.861 78.633 L 237.246 79.208 L 237.552 79.829 L 237.774 80.484 L 237.909 81.162 L 237.954 81.852 M 144.489 111.888 L 144.441 112.614 L 144.299 113.328 L 144.065 114.018 L 143.743 114.671 L 143.338 115.276 L 142.858 115.823 L 142.311 116.303 L 141.706 116.708 L 141.053 117.030 L 140.363 117.264 L 139.649 117.406 L 138.923 117.453 L 138.197 117.406 L 137.483 117.264 L 136.793 117.030 L 136.140 116.708 L 135.535 116.303 L 134.988 115.823 L 134.508 115.276 L 134.103 114.671 L 133.781 114.018 L 133.547 113.328 L 133.405 112.614 L 133.357 111.888 L 133.405 111.162 L 133.547 110.447 L 133.781 109.758 L 134.103 109.105 L 134.508 108.500 L 134.988 107.953 L 135.535 107.473 L 136.140 107.068 L 136.793 106.746 L 137.483 106.512 L 138.197 106.370 L 138.923 106.322 L 139.649 106.370 L 140.363 106.512 L 141.053 106.746 L 141.706 107.068 L 142.311 107.473 L 142.858 107.953 L 143.338 108.500 L 143.743 109.105 L 144.065 109.758 L 144.299 110.447 L 144.441 111.162 L 144.489 111.888 M 200.434 61.822 L 200.393 62.443 L 200.272 63.054 L 200.072 63.644 L 199.796 64.202 L 199.450 64.720 L 199.039 65.189 L 198.571 65.599 L 198.053 65.945 L 197.495 66.221 L 196.905 66.421 L 196.294 66.543 L 195.672 66.583 L 195.051 66.543 L 194.440 66.421 L 193.850 66.221 L 193.291 65.945 L 192.773 65.599 L 192.305 65.189 L 191.894 64.720 L 191.548 64.202 L 191.273 63.644 L 191.073 63.054 L 190.951 62.443 L 190.910 61.822 L 190.951 61.200 L 191.073 60.589 L 191.273 59.999 L 191.548 59.441 L 191.894 58.923 L 192.305 58.454 L 192.773 58.044 L 193.291 57.698 L 193.850 57.422 L 194.440 57.222 L 195.051 57.100 L 195.672 57.060 L 196.294 57.100 L 196.905 57.222 L 197.495 57.422 L 198.053 57.698 L 198.571 58.044 L 199.039 58.454 L 199.450 58.923 L 199.796 59.441 L 200.072 59.999 L 200.272 60.589 L 200.393 61.200 L 200.434 61.822 M 136.689 229.767 L 136.618 230.849 L 136.406 231.912 L 136.057 232.939 L 135.578 233.912 L 134.975 234.814 L 134.260 235.629 L 133.445 236.344 L 132.543 236.947 L 131.571 237.426 L 130.544 237.775 L 129.480 237.986 L 128.398 238.057 L 127.316 237.986 L 126.252 237.775 L 125.225 237.426 L 124.253 236.947 L 123.351 236.344 L 122.536 235.629 L 121.820 234.814 L 121.218 233.912 L 120.738 232.939 L 120.390 231.912 L 120.178 230.849 L 120.107 229.767 L 120.178 228.685 L 120.390 227.621 L 120.738 226.594 L 121.218 225.621 L 121.820 224.720 L 122.536 223.904 L 123.351 223.189 L 124.253 222.587 L 125.225 222.107 L 126.252 221.759 L 127.316 221.547 L 128.398 221.476 L 129.480 221.547 L 130.544 221.759 L 131.571 222.107 L 132.543 222.587 L 133.445 223.189 L 134.260 223.904 L 134.975 224.720 L 135.578 225.621 L 136.057 226.594 L 136.406 227.621 L 136.618 228.685 L 136.689 229.767 M 213.410 141.949 L 213.340 143.024 L 213.130 144.081 L 212.783 145.101 L 212.307 146.067 L 211.708 146.963 L 210.998 147.773 L 210.188 148.483 L 209.292 149.082 L 208.326 149.559 L 207.305 149.905 L 206.249 150.115 L 205.173 150.186 L 204.098 150.115 L 203.042 149.905 L 202.021 149.559 L 201.055 149.082 L 200.159 148.483 L 199.349 147.773 L 198.639 146.963 L 198.040 146.067 L 197.564 145.101 L 197.217 144.081 L 197.007 143.024 L 196.937 141.949 L 197.007 140.874 L 197.217 139.817 L 197.564 138.797 L 198.040 137.830 L 198.639 136.934 L 199.349 136.124 L 200.159 135.414 L 201.055 134.815 L 202.021 134.339 L 203.042 133.992 L 204.098 133.782 L 205.173 133.712 L 206.249 133.782 L 207.305 133.992 L 208.326 134.339 L 209.292 134.815 L 210.188 135.414 L 210.998 136.124 L 211.708 136.934 L 212.307 137.830 L 212.783 138.797 L 213.130 139.817 L 213.340 140.874 L 213.410 141.949 M 127.796 211.877 L 127.753 212.533 L 127.625 213.178 L 127.414 213.800 L 127.123 214.390 L 126.758 214.936 L 126.324 215.431 L 125.830 215.864 L 125.283 216.229 L 124.694 216.520 L 124.071 216.732 L 123.426 216.860 L 122.770 216.903 L 122.114 216.860 L 121.470 216.732 L 120.847 216.520 L 120.258 216.229 L 119.711 215.864 L 119.217 215.431 L 118.783 214.936 L 118.418 214.390 L 118.127 213.800 L 117.916 213.178 L 117.788 212.533 L 117.745 211.877 L 117.788 211.221 L 117.916 210.576 L 118.127 209.954 L 118.418 209.364 L 118.783 208.817 L 119.217 208.323 L 119.711 207.890 L 120.258 207.525 L 120.847 207.234 L 121.470 207.022 L 122.114 206.894 L 122.770 206.851 L 123.426 206.894 L 124.071 207.022 L 124.694 207.234 L 125.283 207.525 L 125.830 207.890 L 126.324 208.323 L 126.758 208.817 L 127.123 209.364 L 127.414 209.954 L 127.625 210.576 L 127.753 211.221 L 127.796 211.877 M 116.594 106.740 L 116.544 107.504 L 116.395 108.255 L 116.149 108.979 L 115.810 109.666 L 115.385 110.302 L 114.880 110.878 L 114.305 111.382 L 113.668 111.807 L 112.982 112.146 L 112.257 112.392 L 111.507 112.541 L 110.743 112.591 L 109.979 112.541 L 109.229 112.392 L 108.504 112.146 L 107.818 111.807 L 107.181 111.382 L 106.606 110.878 L 106.101 110.302 L 105.676 109.666 L 105.338 108.979 L 105.092 108.255 L 104.942 107.504 L 104.892 106.740 L 104.942 105.977 L 105.092 105.226 L 105.338 104.501 L 105.676 103.815 L 106.101 103.179 L 106.606 102.603 L 107.181 102.099 L 107.818 101.673 L 108.504 101.335 L 109.229 101.089 L 109.979 100.940 L 110.743 100.890 L 111.507 100.940 L 112.257 101.089 L 112.982 101.335 L 113.668 101.673 L 114.305 102.099 L 114.880 102.603 L 115.385 103.179 L 115.810 103.815 L 116.149 104.501 L 116.395 105.226 L 116.544 105.977 L 116.594 106.740 M 204.386 221.409 L 204.342 222.079 L 204.211 222.737 L 203.995 223.373 L 203.699 223.975 L 203.326 224.533 L 202.883 225.037 L 202.379 225.480 L 201.821 225.853 L 201.219 226.150 L 200.583 226.365 L 199.925 226.496 L 199.255 226.540 L 198.586 226.496 L 197.927 226.365 L 197.292 226.150 L 196.690 225.853 L 196.132 225.480 L 195.627 225.037 L 195.185 224.533 L 194.812 223.975 L 194.515 223.373 L 194.299 222.737 L 194.169 222.079 L 194.125 221.409 L 194.169 220.740 L 194.299 220.082 L 194.515 219.446 L 194.812 218.844 L 195.185 218.286 L 195.627 217.782 L 196.132 217.339 L 196.690 216.966 L 197.292 216.669 L 197.927 216.454 L 198.586 216.323 L 199.255 216.279 L 199.925 216.323 L 200.583 216.454 L 201.219 216.669 L 201.821 216.966 L 202.379 217.339 L 202.883 217.782 L 203.326 218.286 L 203.699 218.844 L 203.995 219.446 L 204.211 220.082 L 204.342 220.740 L 204.386 221.409 M 116.446 185.908 L 116.391 186.748 L 116.227 187.573 L 115.956 188.370 L 115.584 189.125 L 115.116 189.824 L 114.562 190.457 L 113.929 191.012 L 113.229 191.480 L 112.474 191.852 L 111.677 192.122 L 110.852 192.287 L 110.012 192.342 L 109.172 192.287 L 108.347 192.122 L 107.550 191.852 L 106.795 191.480 L 106.096 191.012 L 105.463 190.457 L 104.908 189.824 L 104.440 189.125 L 104.068 188.370 L 103.798 187.573 L 103.633 186.748 L 103.578 185.908 L 103.633 185.068 L 103.798 184.243 L 104.068 183.446 L 104.440 182.691 L 104.908 181.991 L 105.463 181.358 L 106.096 180.804 L 106.795 180.336 L 107.550 179.964 L 108.347 179.693 L 109.172 179.529 L 110.012 179.474 L 110.852 179.529 L 111.677 179.693 L 112.474 179.964 L 113.229 180.336 L 113.929 180.804 L 114.562 181.358 L 115.116 181.991 L 115.584 182.691 L 115.956 183.446 L 116.227 184.243 L 116.391 185.068 L 116.446 185.908 M 130.729 173.187 L 130.673 174.049 L 130.504 174.897 L 130.226 175.716 L 129.844 176.491 L 129.363 177.210 L 128.793 177.860 L 128.143 178.430 L 127.425 178.910 L 126.649 179.293 L 125.831 179.571 L 124.983 179.739 L 124.120 179.796 L 123.257 179.739 L 122.410 179.571 L 121.591 179.293 L 120.816 178.910 L 120.097 178.430 L 119.447 177.860 L 118.877 177.210 L 118.396 176.491 L 118.014 175.716 L 117.736 174.897 L 117.568 174.049 L 117.511 173.187 L 117.568 172.324 L 117.736 171.476 L 118.014 170.657 L 118.396 169.882 L 118.877 169.163 L 119.447 168.513 L 120.097 167.943 L 120.816 167.463 L 121.591 167.081 L 122.410 166.803 L 123.257 166.634 L 124.120 166.577 L 124.983 166.634 L 125.831 166.803 L 126.649 167.081 L 127.425 167.463 L 128.143 167.943 L 128.793 168.513 L 129.363 169.163 L 129.844 169.882 L 130.226 170.657 L 130.504 171.476 L 130.673 172.324 L 130.729 173.187 M 184.427 77.342 L 184.387 77.944 L 184.270 78.535 L 184.076 79.106 L 183.809 79.647 L 183.474 80.148 L 183.077 80.602 L 182.623 80.999 L 182.122 81.334 L 181.581 81.601 L 181.010 81.795 L 180.419 81.912 L 179.817 81.952 L 179.215 81.912 L 178.624 81.795 L 178.053 81.601 L 177.512 81.334 L 177.011 80.999 L 176.558 80.602 L 176.160 80.148 L 175.825 79.647 L 175.559 79.106 L 175.365 78.535 L 175.247 77.944 L 175.208 77.342 L 175.247 76.741 L 175.365 76.149 L 175.559 75.578 L 175.825 75.038 L 176.160 74.536 L 176.558 74.083 L 177.011 73.685 L 177.512 73.350 L 178.053 73.084 L 178.624 72.890 L 179.215 72.772 L 179.817 72.733 L 180.419 72.772 L 181.010 72.890 L 181.581 73.084 L 182.122 73.350 L 182.623 73.685 L 183.077 74.083 L 183.474 74.536 L 183.809 75.038 L 184.076 75.578 L 184.270 76.149 L 184.387 76.741 L 184.427 77.342 M 193.042 196.572 L 192.958 197.856 L 192.707 199.117 L 192.294 200.335 L 191.725 201.489 L 191.010 202.558 L 190.162 203.525 L 189.195 204.373 L 188.126 205.088 L 186.972 205.657 L 185.754 206.070 L 184.493 206.321 L 183.210 206.405 L 181.926 206.321 L 180.665 206.070 L 179.447 205.657 L 178.293 205.088 L 177.224 204.373 L 176.257 203.525 L 175.409 202.558 L 174.694 201.489 L 174.125 200.335 L 173.712 199.117 L 173.461 197.856 L 173.377 196.572 L 173.461 195.289 L 173.712 194.027 L 174.125 192.809 L 174.694 191.656 L 175.409 190.586 L 176.257 189.619 L 177.224 188.771 L 178.293 188.057 L 179.447 187.488 L 180.665 187.074 L 181.926 186.824 L 183.210 186.739 L 184.493 186.824 L 185.754 187.074 L 186.972 187.488 L 188.126 188.057 L 189.195 188.771 L 190.162 189.619 L 191.010 190.586 L 191.725 191.656 L 192.294 192.809 L 192.707 194.027 L 192.958 195.289 L 193.042 196.572 M 258.823 121.417 L 258.775 122.149 L 258.632 122.868 L 258.396 123.563 L 258.071 124.221 L 257.664 124.831 L 257.180 125.382 L 256.628 125.866 L 256.019 126.274 L 255.361 126.598 L 254.666 126.834 L 253.946 126.977 L 253.214 127.025 L 252.482 126.977 L 251.763 126.834 L 251.068 126.598 L 250.410 126.274 L 249.800 125.866 L 249.249 125.382 L 248.765 124.831 L 248.358 124.221 L 248.033 123.563 L 247.797 122.868 L 247.654 122.149 L 247.606 121.417 L 247.654 120.685 L 247.797 119.965 L 248.033 119.271 L 248.358 118.613 L 248.765 118.003 L 249.249 117.451 L 249.800 116.968 L 250.410 116.560 L 251.068 116.235 L 251.763 116.000 L 252.482 115.857 L 253.214 115.809 L 253.946 115.857 L 254.666 116.000 L 255.361 116.235 L 256.019 116.560 L 256.628 116.968 L 257.180 117.451 L 257.664 118.003 L 258.071 118.613 L 258.396 119.271 L 258.632 119.965 L 258.775 120.685 L 258.823 121.417 M 150.248 166.393 L 150.196 167.189 L 150.040 167.972 L 149.783 168.728 L 149.431 169.443 L 148.987 170.107 L 148.461 170.706 L 147.861 171.232 L 147.198 171.676 L 146.482 172.029 L 145.727 172.285 L 144.944 172.441 L 144.148 172.493 L 143.352 172.441 L 142.569 172.285 L 141.814 172.029 L 141.098 171.676 L 140.435 171.232 L 139.835 170.706 L 139.309 170.107 L 138.866 169.443 L 138.513 168.728 L 138.256 167.972 L 138.101 167.189 L 138.048 166.393 L 138.101 165.597 L 138.256 164.815 L 138.513 164.059 L 138.866 163.343 L 139.309 162.680 L 139.835 162.080 L 140.435 161.554 L 141.098 161.111 L 141.814 160.758 L 142.569 160.502 L 143.352 160.346 L 144.148 160.294 L 144.944 160.346 L 145.727 160.502 L 146.482 160.758 L 147.198 161.111 L 147.861 161.554 L 148.461 162.080 L 148.987 162.680 L 149.431 163.343 L 149.783 164.059 L 150.040 164.815 L 150.196 165.597 L 150.248 166.393 M 137.481 133.851 L 137.418 134.809 L 137.230 135.751 L 136.922 136.660 L 136.497 137.521 L 135.964 138.320 L 135.330 139.042 L 134.608 139.675 L 133.810 140.208 L 132.949 140.633 L 132.040 140.942 L 131.098 141.129 L 130.140 141.192 L 129.181 141.129 L 128.239 140.942 L 127.330 140.633 L 126.469 140.208 L 125.671 139.675 L 124.949 139.042 L 124.315 138.320 L 123.782 137.521 L 123.357 136.660 L 123.049 135.751 L 122.861 134.809 L 122.798 133.851 L 122.861 132.893 L 123.049 131.951 L 123.357 131.041 L 123.782 130.180 L 124.315 129.382 L 124.949 128.660 L 125.671 128.027 L 126.469 127.493 L 127.330 127.069 L 128.239 126.760 L 129.181 126.573 L 130.140 126.510 L 131.098 126.573 L 132.040 126.760 L 132.949 127.069 L 133.810 127.493 L 134.608 128.027 L 135.330 128.660 L 135.964 129.382 L 136.497 130.180 L 136.922 131.041 L 137.230 131.951 L 137.418 132.893 L 137.481 133.851 M 158.416 65.448 L 158.374 66.089 L 158.248 66.719 L 158.042 67.328 L 157.758 67.904 L 157.400 68.439 L 156.977 68.922 L 156.494 69.346 L 155.959 69.703 L 155.383 69.987 L 154.774 70.193 L 154.144 70.319 L 153.503 70.361 L 152.861 70.319 L 152.231 70.193 L 151.622 69.987 L 151.046 69.703 L 150.512 69.346 L 150.029 68.922 L 149.605 68.439 L 149.248 67.904 L 148.963 67.328 L 148.757 66.719 L 148.632 66.089 L 148.589 65.448 L 148.632 64.806 L 148.757 64.176 L 148.963 63.568 L 149.248 62.991 L 149.605 62.457 L 150.029 61.974 L 150.512 61.550 L 151.046 61.193 L 151.622 60.909 L 152.231 60.702 L 152.861 60.577 L 153.503 60.535 L 154.144 60.577 L 154.774 60.702 L 155.383 60.909 L 155.959 61.193 L 156.494 61.550 L 156.977 61.974 L 157.400 62.457 L 157.758 62.991 L 158.042 63.568 L 158.248 64.176 L 158.374 64.806 L 158.416 65.448 M 272.541 231.100 L 272.486 231.938 L 272.322 232.762 L 272.052 233.557 L 271.681 234.310 L 271.214 235.008 L 270.661 235.640 L 270.030 236.193 L 269.331 236.660 L 268.578 237.031 L 267.783 237.301 L 266.960 237.465 L 266.122 237.520 L 265.284 237.465 L 264.460 237.301 L 263.665 237.031 L 262.912 236.660 L 262.214 236.193 L 261.583 235.640 L 261.029 235.008 L 260.562 234.310 L 260.191 233.557 L 259.921 232.762 L 259.757 231.938 L 259.702 231.100 L 259.757 230.263 L 259.921 229.439 L 260.191 228.644 L 260.562 227.891 L 261.029 227.193 L 261.583 226.561 L 262.214 226.008 L 262.912 225.541 L 263.665 225.170 L 264.460 224.900 L 265.284 224.736 L 266.122 224.681 L 266.960 224.736 L 267.783 224.900 L 268.578 225.170 L 269.331 225.541 L 270.030 226.008 L 270.661 226.561 L 271.214 227.193 L 271.681 227.891 L 272.052 228.644 L 272.322 229.439 L 272.486 230.263 L 272.541 231.100 M 211.538 120.931 L 211.491 121.646 L 211.352 122.349 L 211.121 123.027 L 210.804 123.670 L 210.406 124.266 L 209.934 124.805 L 209.395 125.277 L 208.799 125.675 L 208.156 125.992 L 207.478 126.223 L 206.775 126.362 L 206.060 126.409 L 205.345 126.362 L 204.642 126.223 L 203.963 125.992 L 203.320 125.675 L 202.724 125.277 L 202.186 124.805 L 201.713 124.266 L 201.315 123.670 L 200.998 123.027 L 200.768 122.349 L 200.628 121.646 L 200.581 120.931 L 200.628 120.216 L 200.768 119.513 L 200.998 118.834 L 201.315 118.191 L 201.713 117.595 L 202.186 117.057 L 202.724 116.584 L 203.320 116.186 L 203.963 115.869 L 204.642 115.639 L 205.345 115.499 L 206.060 115.452 L 206.775 115.499 L 207.478 115.639 L 208.156 115.869 L 208.799 116.186 L 209.395 116.584 L 209.934 117.057 L 210.406 117.595 L 210.804 118.191 L 211.121 118.834 L 211.352 119.513 L 211.491 120.216 L 211.538 120.931 M 283.778 90.335 L 283.734 91.000 L 283.604 91.654 L 283.390 92.285 L 283.095 92.883 L 282.725 93.437 L 282.285 93.938 L 281.784 94.377 L 281.230 94.748 L 280.632 95.042 L 280.001 95.257 L 279.347 95.387 L 278.682 95.430 L 278.017 95.387 L 277.363 95.257 L 276.732 95.042 L 276.135 94.748 L 275.580 94.377 L 275.079 93.938 L 274.640 93.437 L 274.269 92.883 L 273.975 92.285 L 273.760 91.654 L 273.630 91.000 L 273.587 90.335 L 273.630 89.670 L 273.760 89.016 L 273.975 88.385 L 274.269 87.787 L 274.640 87.233 L 275.079 86.732 L 275.580 86.292 L 276.135 85.922 L 276.732 85.627 L 277.363 85.413 L 278.017 85.283 L 278.682 85.239 L 279.347 85.283 L 280.001 85.413 L 280.632 85.627 L 281.230 85.922 L 281.784 86.292 L 282.285 86.732 L 282.725 87.233 L 283.095 87.787 L 283.390 88.385 L 283.604 89.016 L 283.734 89.670 L 283.778 90.335 M 278.150 99.927 L 278.099 100.705 L 277.947 101.469 L 277.696 102.207 L 277.352 102.905 L 276.919 103.553 L 276.405 104.139 L 275.819 104.653 L 275.172 105.085 L 274.473 105.430 L 273.735 105.680 L 272.971 105.832 L 272.194 105.883 L 271.416 105.832 L 270.652 105.680 L 269.914 105.430 L 269.216 105.085 L 268.568 104.653 L 267.982 104.139 L 267.468 103.553 L 267.035 102.905 L 266.691 102.207 L 266.440 101.469 L 266.288 100.705 L 266.237 99.927 L 266.288 99.150 L 266.440 98.386 L 266.691 97.648 L 267.035 96.949 L 267.468 96.301 L 267.982 95.716 L 268.568 95.202 L 269.216 94.769 L 269.914 94.425 L 270.652 94.174 L 271.416 94.022 L 272.194 93.971 L 272.971 94.022 L 273.735 94.174 L 274.473 94.425 L 275.172 94.769 L 275.819 95.202 L 276.405 95.716 L 276.919 96.301 L 277.352 96.949 L 277.696 97.648 L 277.947 98.386 L 278.099 99.150 L 278.150 99.927 M 307.596 131.567 L 307.550 132.269 L 307.413 132.959 L 307.186 133.626 L 306.875 134.257 L 306.484 134.842 L 306.020 135.372 L 305.491 135.836 L 304.905 136.227 L 304.274 136.538 L 303.608 136.764 L 302.917 136.902 L 302.215 136.948 L 301.513 136.902 L 300.822 136.764 L 300.156 136.538 L 299.524 136.227 L 298.939 135.836 L 298.410 135.372 L 297.946 134.842 L 297.555 134.257 L 297.244 133.626 L 297.017 132.959 L 296.880 132.269 L 296.834 131.567 L 296.880 130.864 L 297.017 130.174 L 297.244 129.507 L 297.555 128.876 L 297.946 128.291 L 298.410 127.762 L 298.939 127.298 L 299.524 126.907 L 300.156 126.595 L 300.822 126.369 L 301.513 126.232 L 302.215 126.186 L 302.917 126.232 L 303.608 126.369 L 304.274 126.595 L 304.905 126.907 L 305.491 127.298 L 306.020 127.762 L 306.484 128.291 L 306.875 128.876 L 307.186 129.507 L 307.413 130.174 L 307.550 130.864 L 307.596 131.567 M 261.537 110.195 L 261.496 110.833 L 261.371 111.460 L 261.165 112.065 L 260.883 112.639 L 260.528 113.170 L 260.106 113.651 L 259.625 114.072 L 259.094 114.427 L 258.521 114.710 L 257.915 114.916 L 257.288 115.040 L 256.650 115.082 L 256.012 115.040 L 255.385 114.916 L 254.780 114.710 L 254.207 114.427 L 253.675 114.072 L 253.195 113.651 L 252.773 113.170 L 252.418 112.639 L 252.135 112.065 L 251.930 111.460 L 251.805 110.833 L 251.763 110.195 L 251.805 109.557 L 251.930 108.930 L 252.135 108.325 L 252.418 107.752 L 252.773 107.220 L 253.195 106.739 L 253.675 106.318 L 254.207 105.963 L 254.780 105.680 L 255.385 105.475 L 256.012 105.350 L 256.650 105.308 L 257.288 105.350 L 257.915 105.475 L 258.521 105.680 L 259.094 105.963 L 259.625 106.318 L 260.106 106.739 L 260.528 107.220 L 260.883 107.752 L 261.165 108.325 L 261.371 108.930 L 261.496 109.557 L 261.537 110.195 M 289.390 127.807 L 289.336 128.622 L 289.177 129.423 L 288.915 130.196 L 288.553 130.928 L 288.100 131.607 L 287.562 132.221 L 286.948 132.759 L 286.269 133.212 L 285.537 133.574 L 284.764 133.836 L 283.963 133.995 L 283.148 134.049 L 282.333 133.995 L 281.533 133.836 L 280.760 133.574 L 280.027 133.212 L 279.349 132.759 L 278.735 132.221 L 278.196 131.607 L 277.743 130.928 L 277.382 130.196 L 277.119 129.423 L 276.960 128.622 L 276.907 127.807 L 276.960 126.992 L 277.119 126.192 L 277.382 125.419 L 277.743 124.686 L 278.196 124.008 L 278.735 123.394 L 279.349 122.855 L 280.027 122.402 L 280.760 122.041 L 281.533 121.778 L 282.333 121.619 L 283.148 121.566 L 283.963 121.619 L 284.764 121.778 L 285.537 122.041 L 286.269 122.402 L 286.948 122.855 L 287.562 123.394 L 288.100 124.008 L 288.553 124.686 L 288.915 125.419 L 289.177 126.192 L 289.336 126.992 L 289.390 127.807 M 173.745 174.907 L 173.687 175.793 L 173.514 176.664 L 173.228 177.505 L 172.835 178.302 L 172.342 179.040 L 171.756 179.708 L 171.088 180.294 L 170.350 180.787 L 169.553 181.180 L 168.712 181.466 L 167.841 181.639 L 166.955 181.697 L 166.068 181.639 L 165.197 181.466 L 164.356 181.180 L 163.560 180.787 L 162.821 180.294 L 162.153 179.708 L 161.568 179.040 L 161.074 178.302 L 160.681 177.505 L 160.396 176.664 L 160.223 175.793 L 160.165 174.907 L 160.223 174.020 L 160.396 173.149 L 160.681 172.308 L 161.074 171.512 L 161.568 170.773 L 162.153 170.105 L 162.821 169.520 L 163.560 169.026 L 164.356 168.633 L 165.197 168.348 L 166.068 168.175 L 166.955 168.116 L 167.841 168.175 L 168.712 168.348 L 169.553 168.633 L 170.350 169.026 L 171.088 169.520 L 171.756 170.105 L 172.342 170.773 L 172.835 171.512 L 173.228 172.308 L 173.514 173.149 L 173.687 174.020 L 173.745 174.907 M 225.736 97.481 L 225.680 98.343 L 225.511 99.191 L 225.233 100.010 L 224.851 100.786 L 224.371 101.504 L 223.800 102.154 L 223.150 102.725 L 222.432 103.205 L 221.656 103.587 L 220.837 103.865 L 219.989 104.034 L 219.127 104.090 L 218.264 104.034 L 217.416 103.865 L 216.597 103.587 L 215.822 103.205 L 215.103 102.725 L 214.453 102.154 L 213.883 101.504 L 213.402 100.786 L 213.020 100.010 L 212.742 99.191 L 212.573 98.343 L 212.517 97.481 L 212.573 96.618 L 212.742 95.770 L 213.020 94.951 L 213.402 94.176 L 213.883 93.457 L 214.453 92.807 L 215.103 92.237 L 215.822 91.756 L 216.597 91.374 L 217.416 91.096 L 218.264 90.927 L 219.127 90.871 L 219.989 90.927 L 220.837 91.096 L 221.656 91.374 L 222.432 91.756 L 223.150 92.237 L 223.800 92.807 L 224.371 93.457 L 224.851 94.176 L 225.233 94.951 L 225.511 95.770 L 225.680 96.618 L 225.736 97.481 M 252.363 240.904 L 252.300 241.874 L 252.110 242.828 L 251.798 243.749 L 251.368 244.621 L 250.827 245.429 L 250.186 246.160 L 249.455 246.801 L 248.647 247.341 L 247.775 247.771 L 246.854 248.084 L 245.901 248.273 L 244.931 248.337 L 243.961 248.273 L 243.007 248.084 L 242.086 247.771 L 241.214 247.341 L 240.406 246.801 L 239.675 246.160 L 239.034 245.429 L 238.494 244.621 L 238.064 243.749 L 237.751 242.828 L 237.562 241.874 L 237.498 240.904 L 237.562 239.934 L 237.751 238.981 L 238.064 238.060 L 238.494 237.188 L 239.034 236.380 L 239.675 235.649 L 240.406 235.008 L 241.214 234.467 L 242.086 234.037 L 243.007 233.725 L 243.961 233.535 L 244.931 233.472 L 245.901 233.535 L 246.854 233.725 L 247.775 234.037 L 248.647 234.467 L 249.455 235.008 L 250.186 235.649 L 250.827 236.380 L 251.368 237.188 L 251.798 238.060 L 252.110 238.981 L 252.300 239.934 L 252.363 240.904 M 117.208 122.129 L 117.151 123.001 L 116.980 123.858 L 116.699 124.686 L 116.313 125.470 L 115.827 126.197 L 115.251 126.854 L 114.593 127.431 L 113.867 127.916 L 113.083 128.303 L 112.255 128.584 L 111.398 128.754 L 110.525 128.811 L 109.653 128.754 L 108.796 128.584 L 107.968 128.303 L 107.184 127.916 L 106.457 127.431 L 105.800 126.854 L 105.224 126.197 L 104.738 125.470 L 104.351 124.686 L 104.070 123.858 L 103.900 123.001 L 103.843 122.129 L 103.900 121.257 L 104.070 120.399 L 104.351 119.572 L 104.738 118.788 L 105.224 118.061 L 105.800 117.404 L 106.457 116.827 L 107.184 116.342 L 107.968 115.955 L 108.796 115.674 L 109.653 115.503 L 110.525 115.446 L 111.398 115.503 L 112.255 115.674 L 113.083 115.955 L 113.867 116.342 L 114.593 116.827 L 115.251 117.404 L 115.827 118.061 L 116.313 118.788 L 116.699 119.572 L 116.980 120.399 L 117.151 121.257 L 117.208 122.129 M 195.017 151.648 L 194.973 152.332 L 194.839 153.004 L 194.619 153.652 L 194.316 154.267 L 193.935 154.836 L 193.484 155.351 L 192.969 155.803 L 192.399 156.183 L 191.785 156.486 L 191.136 156.706 L 190.464 156.840 L 189.781 156.885 L 189.097 156.840 L 188.425 156.706 L 187.777 156.486 L 187.163 156.183 L 186.593 155.803 L 186.078 155.351 L 185.626 154.836 L 185.246 154.267 L 184.943 153.652 L 184.723 153.004 L 184.589 152.332 L 184.544 151.648 L 184.589 150.965 L 184.723 150.293 L 184.943 149.644 L 185.246 149.030 L 185.626 148.460 L 186.078 147.945 L 186.593 147.494 L 187.163 147.113 L 187.777 146.810 L 188.425 146.590 L 189.097 146.456 L 189.781 146.412 L 190.464 146.456 L 191.136 146.590 L 191.785 146.810 L 192.399 147.113 L 192.969 147.494 L 193.484 147.945 L 193.935 148.460 L 194.316 149.030 L 194.619 149.644 L 194.839 150.293 L 194.973 150.965 L 195.017 151.648 M 221.159 37.597 L 221.119 38.215 L 220.998 38.823 L 220.798 39.410 L 220.524 39.967 L 220.180 40.482 L 219.771 40.948 L 219.305 41.357 L 218.789 41.701 L 218.233 41.976 L 217.646 42.175 L 217.038 42.296 L 216.419 42.336 L 215.801 42.296 L 215.192 42.175 L 214.605 41.976 L 214.049 41.701 L 213.534 41.357 L 213.068 40.948 L 212.659 40.482 L 212.314 39.967 L 212.040 39.410 L 211.841 38.823 L 211.720 38.215 L 211.679 37.597 L 211.720 36.978 L 211.841 36.370 L 212.040 35.783 L 212.314 35.227 L 212.659 34.711 L 213.068 34.245 L 213.534 33.836 L 214.049 33.492 L 214.605 33.218 L 215.192 33.018 L 215.801 32.897 L 216.419 32.857 L 217.038 32.897 L 217.646 33.018 L 218.233 33.218 L 218.789 33.492 L 219.305 33.836 L 219.771 34.245 L 220.180 34.711 L 220.524 35.227 L 220.798 35.783 L 220.998 36.370 L 221.119 36.978 L 221.159 37.597 M 133.044 63.904 L 133.000 64.571 L 132.869 65.227 L 132.655 65.861 L 132.359 66.460 L 131.987 67.016 L 131.546 67.519 L 131.043 67.960 L 130.487 68.332 L 129.888 68.627 L 129.254 68.842 L 128.598 68.973 L 127.931 69.017 L 127.264 68.973 L 126.608 68.842 L 125.975 68.627 L 125.375 68.332 L 124.819 67.960 L 124.316 67.519 L 123.875 67.016 L 123.503 66.460 L 123.208 65.861 L 122.993 65.227 L 122.862 64.571 L 122.818 63.904 L 122.862 63.237 L 122.993 62.581 L 123.208 61.948 L 123.503 61.348 L 123.875 60.792 L 124.316 60.289 L 124.819 59.848 L 125.375 59.476 L 125.975 59.181 L 126.608 58.966 L 127.264 58.835 L 127.931 58.791 L 128.598 58.835 L 129.254 58.966 L 129.888 59.181 L 130.487 59.476 L 131.043 59.848 L 131.546 60.289 L 131.987 60.792 L 132.359 61.348 L 132.655 61.948 L 132.869 62.581 L 133.000 63.237 L 133.044 63.904 M 191.199 33.898 L 191.146 34.712 L 190.987 35.511 L 190.725 36.283 L 190.364 37.014 L 189.912 37.692 L 189.374 38.304 L 188.761 38.842 L 188.084 39.295 L 187.353 39.655 L 186.581 39.917 L 185.781 40.076 L 184.968 40.130 L 184.155 40.076 L 183.355 39.917 L 182.583 39.655 L 181.852 39.295 L 181.175 38.842 L 180.562 38.304 L 180.024 37.692 L 179.572 37.014 L 179.211 36.283 L 178.949 35.511 L 178.790 34.712 L 178.737 33.898 L 178.790 33.085 L 178.949 32.286 L 179.211 31.514 L 179.572 30.783 L 180.024 30.105 L 180.562 29.492 L 181.175 28.955 L 181.852 28.502 L 182.583 28.141 L 183.355 27.879 L 184.155 27.720 L 184.968 27.667 L 185.781 27.720 L 186.581 27.879 L 187.353 28.141 L 188.084 28.502 L 188.761 28.955 L 189.374 29.492 L 189.912 30.105 L 190.364 30.783 L 190.725 31.514 L 190.987 32.286 L 191.146 33.085 L 191.199 33.898 M 243.777 263.902 L 243.733 264.574 L 243.602 265.234 L 243.385 265.871 L 243.088 266.475 L 242.714 267.034 L 242.270 267.540 L 241.764 267.984 L 241.204 268.358 L 240.601 268.656 L 239.963 268.872 L 239.303 269.004 L 238.631 269.048 L 237.960 269.004 L 237.300 268.872 L 236.662 268.656 L 236.059 268.358 L 235.499 267.984 L 234.993 267.540 L 234.549 267.034 L 234.175 266.475 L 233.877 265.871 L 233.661 265.234 L 233.530 264.574 L 233.486 263.902 L 233.530 263.230 L 233.661 262.570 L 233.877 261.933 L 234.175 261.329 L 234.549 260.769 L 234.993 260.263 L 235.499 259.820 L 236.059 259.446 L 236.662 259.148 L 237.300 258.932 L 237.960 258.800 L 238.631 258.756 L 239.303 258.800 L 239.963 258.932 L 240.601 259.148 L 241.204 259.446 L 241.764 259.820 L 242.270 260.263 L 242.714 260.769 L 243.088 261.329 L 243.385 261.933 L 243.602 262.570 L 243.733 263.230 L 243.777 263.902 M 236.627 139.799 L 236.587 140.413 L 236.467 141.017 L 236.269 141.600 L 235.997 142.152 L 235.654 142.664 L 235.249 143.127 L 234.786 143.533 L 234.274 143.875 L 233.722 144.148 L 233.139 144.345 L 232.535 144.466 L 231.920 144.506 L 231.306 144.466 L 230.702 144.345 L 230.119 144.148 L 229.567 143.875 L 229.055 143.533 L 228.592 143.127 L 228.186 142.664 L 227.844 142.152 L 227.572 141.600 L 227.374 141.017 L 227.254 140.413 L 227.214 139.799 L 227.254 139.185 L 227.374 138.581 L 227.572 137.998 L 227.844 137.446 L 228.186 136.934 L 228.592 136.471 L 229.055 136.065 L 229.567 135.723 L 230.119 135.451 L 230.702 135.253 L 231.306 135.133 L 231.920 135.092 L 232.535 135.133 L 233.139 135.253 L 233.722 135.451 L 234.274 135.723 L 234.786 136.065 L 235.249 136.471 L 235.654 136.934 L 235.997 137.446 L 236.269 137.998 L 236.467 138.581 L 236.587 139.185 L 236.627 139.799 M 235.684 31.980 L 235.635 32.732 L 235.488 33.471 L 235.246 34.185 L 234.913 34.860 L 234.494 35.487 L 233.997 36.053 L 233.431 36.550 L 232.804 36.969 L 232.129 37.302 L 231.415 37.544 L 230.676 37.691 L 229.924 37.740 L 229.172 37.691 L 228.433 37.544 L 227.720 37.302 L 227.044 36.969 L 226.418 36.550 L 225.851 36.053 L 225.354 35.487 L 224.936 34.860 L 224.603 34.185 L 224.360 33.471 L 224.213 32.732 L 224.164 31.980 L 224.213 31.228 L 224.360 30.489 L 224.603 29.776 L 224.936 29.100 L 225.354 28.474 L 225.851 27.907 L 226.418 27.410 L 227.044 26.992 L 227.720 26.659 L 228.433 26.416 L 229.172 26.269 L 229.924 26.220 L 230.676 26.269 L 231.415 26.416 L 232.129 26.659 L 232.804 26.992 L 233.431 27.410 L 233.997 27.907 L 234.494 28.474 L 234.913 29.100 L 235.246 29.776 L 235.488 30.489 L 235.635 31.228 L 235.684 31.980 M 316.526 86.938 L 316.474 87.741 L 316.317 88.530 L 316.058 89.292 L 315.702 90.013 L 315.255 90.682 L 314.725 91.287 L 314.120 91.817 L 313.451 92.264 L 312.730 92.620 L 311.968 92.879 L 311.179 93.036 L 310.376 93.088 L 309.573 93.036 L 308.784 92.879 L 308.023 92.620 L 307.301 92.264 L 306.632 91.817 L 306.027 91.287 L 305.497 90.682 L 305.050 90.013 L 304.694 89.292 L 304.436 88.530 L 304.279 87.741 L 304.226 86.938 L 304.279 86.135 L 304.436 85.346 L 304.694 84.585 L 305.050 83.863 L 305.497 83.194 L 306.027 82.589 L 306.632 82.059 L 307.301 81.612 L 308.023 81.256 L 308.784 80.998 L 309.573 80.841 L 310.376 80.788 L 311.179 80.841 L 311.968 80.998 L 312.730 81.256 L 313.451 81.612 L 314.120 82.059 L 314.725 82.589 L 315.255 83.194 L 315.702 83.863 L 316.058 84.585 L 316.317 85.346 L 316.474 86.135 L 316.526 86.938 M 173.831 77.480 L 173.782 78.237 L 173.634 78.981 L 173.390 79.699 L 173.054 80.379 L 172.633 81.010 L 172.133 81.580 L 171.563 82.080 L 170.932 82.502 L 170.252 82.837 L 169.533 83.081 L 168.789 83.229 L 168.032 83.279 L 167.275 83.229 L 166.531 83.081 L 165.813 82.837 L 165.133 82.502 L 164.502 82.080 L 163.932 81.580 L 163.432 81.010 L 163.010 80.379 L 162.675 79.699 L 162.431 78.981 L 162.283 78.237 L 162.233 77.480 L 162.283 76.723 L 162.431 75.979 L 162.675 75.260 L 163.010 74.580 L 163.432 73.949 L 163.932 73.379 L 164.502 72.879 L 165.133 72.458 L 165.813 72.122 L 166.531 71.878 L 167.275 71.730 L 168.032 71.681 L 168.789 71.730 L 169.533 71.878 L 170.252 72.122 L 170.932 72.458 L 171.563 72.879 L 172.133 73.379 L 172.633 73.949 L 173.054 74.580 L 173.390 75.260 L 173.634 75.979 L 173.782 76.723 L 173.831 77.480 M 146.935 56.661 L 146.874 57.591 L 146.692 58.505 L 146.393 59.387 L 145.981 60.222 L 145.463 60.997 L 144.849 61.698 L 144.148 62.312 L 143.373 62.830 L 142.538 63.242 L 141.656 63.541 L 140.742 63.723 L 139.812 63.784 L 138.882 63.723 L 137.969 63.541 L 137.086 63.242 L 136.251 62.830 L 135.476 62.312 L 134.776 61.698 L 134.161 60.997 L 133.644 60.222 L 133.231 59.387 L 132.932 58.505 L 132.750 57.591 L 132.689 56.661 L 132.750 55.731 L 132.932 54.817 L 133.231 53.935 L 133.644 53.100 L 134.161 52.325 L 134.776 51.624 L 135.476 51.010 L 136.251 50.492 L 137.086 50.080 L 137.969 49.781 L 138.882 49.599 L 139.812 49.538 L 140.742 49.599 L 141.656 49.781 L 142.538 50.080 L 143.373 50.492 L 144.148 51.010 L 144.849 51.624 L 145.463 52.325 L 145.981 53.100 L 146.393 53.935 L 146.692 54.817 L 146.874 55.731 L 146.935 56.661" fill="none" stroke="#2dd4bf" stroke-width="1" vector-effect="non-scaling-stroke"/></svg>