<svg xmlns="http://www.w3.org/2000/svg" viewBox="80.26299556527626 18.723542368937736 257.5600637597743 260.7225774660423" width="257.5600637597743" height="260.7225774660423" shape-rendering="geometricPrecision"><rect x="80.26299556527626" y="18.723542368937736" width="257.5600637597743" height="260.7225774660423" fill="#0b0f14"/><path d="M 164.988 205.507 L 164.945 206.169 L 164.815 206.820 L 164.602 207.449 L 164.308 208.044 L 163.940 208.596 L 163.502 209.095 L 163.003 209.533 L 162.451 209.901 L 161.856 210.195 L 161.227 210.408 L 160.576 210.538 L 159.914 210.581 L 159.251 210.538 L 158.600 210.408 L 157.972 210.195 L 157.376 209.901 L 156.824 209.533 L 156.325 209.095 L 155.888 208.596 L 155.519 208.044 L 155.225 207.449 L 155.012 206.820 L 154.882 206.169 L 154.839 205.507 L 154.882 204.844 L 155.012 204.193 L 155.225 203.565 L 155.519 202.969 L 155.888 202.417 L 156.325 201.918 L 156.824 201.481 L 157.376 201.112 L 157.972 200.818 L 158.600 200.605 L 159.251 200.475 L 159.914 200.432 L 160.576 200.475 L 161.227 200.605 L 161.856 200.818 L 162.451 201.112 L 163.003 201.481 L 163.502 201.918 L 163.940 202.417 L 164.308 202.969 L 164.602 203.565 L 164.815 204.193 L 164.945 204.844 L 164.988 205.507 M 202.599 82.711 L 202.498 84.247 L 202.198 85.756 L 201.703 87.214 L 201.022 88.594 L 200.167 89.874 L 199.152 91.032 L 197.995 92.046 L 196.715 92.902 L 195.334 93.582 L 193.877 94.077 L 192.367 94.377 L 190.831 94.478 L 189.295 94.377 L 187.785 94.077 L 186.328 93.582 L 184.947 92.902 L 183.667 92.046 L 182.510 91.032 L 181.495 89.874 L 180.640 88.594 L 179.959 87.214 L 179.465 85.756 L 179.164 84.247 L 179.064 82.711 L 179.164 81.175 L 179.465 79.665 L 179.959 78.207 L 180.640 76.827 L 181.495 75.547 L 182.510 74.390 L 183.667 73.375 L 184.947 72.520 L 186.328 71.839 L 187.785 71.344 L 189.295 71.044 L 190.831 70.943 L 192.367 71.044 L 193.877 71.344 L 195.334 71.839 L 196.715 72.520 L 197.995 73.375 L 199.152 74.390 L 200.167 75.547 L 201.022 76.827 L 201.703 78.207 L 202.198 79.665 L 202.498 81.175 L 202.599 82.711 M 168.876 104.045 L 168.764 105.753 L 168.430 107.433 L 167.879 109.055 L 167.122 110.590 L 166.170 112.014 L 165.041 113.302 L 163.754 114.431 L 162.330 115.382 L 160.794 116.140 L 159.172 116.690 L 157.493 117.024 L 155.784 117.136 L 154.075 117.024 L 152.396 116.690 L 150.774 116.140 L 149.238 115.382 L 147.814 114.431 L 146.527 113.302 L 145.398 112.014 L 144.446 110.590 L 143.689 109.055 L 143.138 107.433 L 142.804 105.753 L 142.692 104.045 L 142.804 102.336 L 143.138 100.656 L 143.689 99.035 L 144.446 97.499 L 145.398 96.075 L 146.527 94.787 L 147.814 93.658 L 149.238 92.707 L 150.774 91.949 L 152.396 91.399 L 154.075 91.065 L 155.784 90.953 L 157.493 91.065 L 159.172 91.399 L 160.794 91.949 L 162.330 92.707 L 163.754 93.658 L 165.041 94.787 L 166.170 96.075 L 167.122 97.499 L 167.879 99.035 L 168.430 100.656 L 168.764 102.336 L 168.876 104.045 M 270.886 176.253 L 270.682 179.364 L 270.074 182.421 L 269.072 185.373 L 267.693 188.169 L 265.961 190.761 L 263.905 193.105 L 261.562 195.160 L 258.970 196.892 L 256.174 198.271 L 253.222 199.273 L 250.164 199.881 L 247.054 200.085 L 243.943 199.881 L 240.886 199.273 L 237.934 198.271 L 235.138 196.892 L 232.546 195.160 L 230.202 193.105 L 228.147 190.761 L 226.415 188.169 L 225.036 185.373 L 224.034 182.421 L 223.426 179.364 L 223.222 176.253 L 223.426 173.142 L 224.034 170.085 L 225.036 167.133 L 226.415 164.337 L 228.147 161.745 L 230.202 159.401 L 232.546 157.346 L 235.138 155.614 L 237.934 154.235 L 240.886 153.233 L 243.943 152.625 L 247.054 152.421 L 250.164 152.625 L 253.222 153.233 L 256.174 154.235 L 258.970 155.614 L 261.562 157.346 L 263.905 159.401 L 265.961 161.745 L 267.693 164.337 L 269.072 167.133 L 270.074 170.085 L 270.682 173.142 L 270.886 176.253 M 118.319 123.675 L 118.228 125.069 L 117.955 126.440 L 117.506 127.763 L 116.888 129.017 L 116.112 130.179 L 115.190 131.230 L 114.139 132.151 L 112.977 132.927 L 111.724 133.546 L 110.401 133.995 L 109.030 134.267 L 107.635 134.359 L 106.241 134.267 L 104.870 133.995 L 103.547 133.546 L 102.293 132.927 L 101.131 132.151 L 100.081 131.230 L 99.159 130.179 L 98.383 129.017 L 97.765 127.763 L 97.315 126.440 L 97.043 125.069 L 96.951 123.675 L 97.043 122.280 L 97.315 120.910 L 97.765 119.586 L 98.383 118.333 L 99.159 117.171 L 100.081 116.120 L 101.131 115.199 L 102.293 114.422 L 103.547 113.804 L 104.870 113.355 L 106.241 113.082 L 107.635 112.991 L 109.030 113.082 L 110.401 113.355 L 111.724 113.804 L 112.977 114.422 L 114.139 115.199 L 115.190 116.120 L 116.112 117.171 L 116.888 118.333 L 117.506 119.586 L 117.955 120.910 L 118.228 122.280 L 118.319 123.675 M 322.284 145.738 L 322.228 146.593 L 322.060 147.434 L 321.785 148.246 L 321.405 149.015 L 320.929 149.728 L 320.364 150.372 L 319.719 150.938 L 319.006 151.414 L 318.237 151.793 L 317.425 152.069 L 316.585 152.236 L 315.729 152.292 L 314.873 152.236 L 314.032 152.069 L 313.221 151.793 L 312.452 151.414 L 311.739 150.938 L 311.094 150.372 L 310.529 149.728 L 310.052 149.015 L 309.673 148.246 L 309.398 147.434 L 309.230 146.593 L 309.174 145.738 L 309.230 144.882 L 309.398 144.041 L 309.673 143.229 L 310.052 142.460 L 310.529 141.747 L 311.094 141.103 L 311.739 140.538 L 312.452 140.061 L 313.221 139.682 L 314.032 139.406 L 314.873 139.239 L 315.729 139.183 L 316.585 139.239 L 317.425 139.406 L 318.237 139.682 L 319.006 140.061 L 319.719 140.538 L 320.364 141.103 L 320.929 141.747 L 321.405 142.460 L 321.785 143.229 L 322.060 144.041 L 322.228 144.882 L 322.284 145.738 M 257.517 245.745 L 257.387 247.728 L 256.999 249.678 L 256.360 251.560 L 255.481 253.343 L 254.377 254.996 L 253.066 256.490 L 251.571 257.801 L 249.918 258.905 L 248.136 259.785 L 246.253 260.424 L 244.304 260.811 L 242.320 260.941 L 240.336 260.811 L 238.387 260.424 L 236.505 259.785 L 234.722 258.905 L 233.069 257.801 L 231.574 256.490 L 230.264 254.996 L 229.159 253.343 L 228.280 251.560 L 227.641 249.678 L 227.253 247.728 L 227.123 245.745 L 227.253 243.761 L 227.641 241.811 L 228.280 239.929 L 229.159 238.146 L 230.264 236.493 L 231.574 234.999 L 233.069 233.688 L 234.722 232.584 L 236.505 231.705 L 238.387 231.066 L 240.336 230.678 L 242.320 230.548 L 244.304 230.678 L 246.253 231.066 L 248.136 231.705 L 249.918 232.584 L 251.571 233.688 L 253.066 234.999 L 254.377 236.493 L 255.481 238.146 L 256.360 239.929 L 256.999 241.811 L 257.387 243.761 L 257.517 245.745 M 186.459 146.278 L 186.389 147.360 L 186.177 148.423 L 185.829 149.449 L 185.349 150.421 L 184.747 151.322 L 184.032 152.137 L 183.218 152.852 L 182.316 153.454 L 181.344 153.934 L 180.318 154.282 L 179.255 154.493 L 178.173 154.564 L 177.092 154.493 L 176.029 154.282 L 175.002 153.934 L 174.030 153.454 L 173.129 152.852 L 172.314 152.137 L 171.599 151.322 L 170.997 150.421 L 170.518 149.449 L 170.169 148.423 L 169.958 147.360 L 169.887 146.278 L 169.958 145.197 L 170.169 144.134 L 170.518 143.107 L 170.997 142.135 L 171.599 141.234 L 172.314 140.419 L 173.129 139.704 L 174.030 139.102 L 175.002 138.623 L 176.029 138.274 L 177.092 138.063 L 178.173 137.992 L 179.255 138.063 L 180.318 138.274 L 181.344 138.623 L 182.316 139.102 L 183.218 139.704 L 184.032 140.419 L 184.747 141.234 L 185.349 142.135 L 185.829 143.107 L 186.177 144.134 L 186.389 145.197 L 186.459 146.278 M 291.622 72.561 L 291.456 75.097 L 290.960 77.590 L 290.143 79.997 L 289.019 82.276 L 287.607 84.390 L 285.931 86.301 L 284.020 87.976 L 281.907 89.389 L 279.627 90.513 L 277.221 91.330 L 274.728 91.826 L 272.191 91.992 L 269.655 91.826 L 267.162 91.330 L 264.756 90.513 L 262.476 89.389 L 260.363 87.976 L 258.452 86.301 L 256.776 84.390 L 255.364 82.276 L 254.240 79.997 L 253.423 77.590 L 252.927 75.097 L 252.761 72.561 L 252.927 70.025 L 253.423 67.532 L 254.240 65.125 L 255.364 62.845 L 256.776 60.732 L 258.452 58.821 L 260.363 57.145 L 262.476 55.733 L 264.756 54.609 L 267.162 53.792 L 269.655 53.296 L 272.191 53.130 L 274.728 53.296 L 277.221 53.792 L 279.627 54.609 L 281.907 55.733 L 284.020 57.145 L 285.931 58.821 L 287.607 60.732 L 289.019 62.845 L 290.143 65.125 L 290.960 67.532 L 291.456 70.025 L 291.622 72.561 M 151.909 137.918 L 151.843 138.926 L 151.646 139.917 L 151.321 140.873 L 150.874 141.779 L 150.313 142.619 L 149.647 143.379 L 148.888 144.045 L 148.048 144.606 L 147.142 145.053 L 146.185 145.378 L 145.194 145.575 L 144.186 145.641 L 143.178 145.575 L 142.187 145.378 L 141.231 145.053 L 140.325 144.606 L 139.485 144.045 L 138.725 143.379 L 138.059 142.619 L 137.498 141.779 L 137.051 140.873 L 136.726 139.917 L 136.529 138.926 L 136.463 137.918 L 136.529 136.910 L 136.726 135.919 L 137.051 134.962 L 137.498 134.056 L 138.059 133.216 L 138.725 132.457 L 139.485 131.791 L 140.325 131.230 L 141.231 130.783 L 142.187 130.458 L 143.178 130.261 L 144.186 130.195 L 145.194 130.261 L 146.185 130.458 L 147.142 130.783 L 148.048 131.230 L 148.888 131.791 L 149.647 132.457 L 150.313 133.216 L 150.874 134.056 L 151.321 134.962 L 151.646 135.919 L 151.843 136.910 L 151.909 137.918 M 177.781 176.867 L 177.721 177.782 L 177.542 178.680 L 177.247 179.548 L 176.842 180.370 L 176.333 181.132 L 175.729 181.821 L 175.040 182.425 L 174.278 182.934 L 173.456 183.339 L 172.588 183.634 L 171.690 183.813 L 170.775 183.873 L 169.861 183.813 L 168.962 183.634 L 168.094 183.339 L 167.273 182.934 L 166.511 182.425 L 165.822 181.821 L 165.218 181.132 L 164.708 180.370 L 164.303 179.548 L 164.009 178.680 L 163.830 177.782 L 163.770 176.867 L 163.830 175.953 L 164.009 175.054 L 164.303 174.186 L 164.708 173.365 L 165.218 172.603 L 165.822 171.914 L 166.511 171.310 L 167.273 170.800 L 168.094 170.395 L 168.962 170.101 L 169.861 169.922 L 170.775 169.862 L 171.690 169.922 L 172.588 170.101 L 173.456 170.395 L 174.278 170.800 L 175.040 171.310 L 175.729 171.914 L 176.333 172.603 L 176.842 173.365 L 177.247 174.186 L 177.542 175.054 L 177.721 175.953 L 177.781 176.867 M 209.265 52.098 L 209.181 53.380 L 208.930 54.639 L 208.518 55.855 L 207.950 57.006 L 207.236 58.074 L 206.390 59.039 L 205.424 59.886 L 204.357 60.599 L 203.205 61.167 L 201.989 61.580 L 200.730 61.830 L 199.449 61.914 L 198.167 61.830 L 196.908 61.580 L 195.692 61.167 L 194.541 60.599 L 193.473 59.886 L 192.508 59.039 L 191.661 58.074 L 190.948 57.006 L 190.380 55.855 L 189.967 54.639 L 189.716 53.380 L 189.632 52.098 L 189.716 50.817 L 189.967 49.558 L 190.380 48.342 L 190.948 47.190 L 191.661 46.123 L 192.508 45.157 L 193.473 44.311 L 194.541 43.597 L 195.692 43.029 L 196.908 42.617 L 198.167 42.366 L 199.449 42.282 L 200.730 42.366 L 201.989 42.617 L 203.205 43.029 L 204.357 43.597 L 205.424 44.311 L 206.390 45.157 L 207.236 46.123 L 207.950 47.190 L 208.518 48.342 L 208.930 49.558 L 209.181 50.817 L 209.265 52.098 M 199.817 107.389 L 199.714 108.962 L 199.406 110.507 L 198.900 111.999 L 198.203 113.412 L 197.328 114.722 L 196.289 115.906 L 195.105 116.945 L 193.795 117.820 L 192.382 118.517 L 190.890 119.024 L 189.344 119.331 L 187.772 119.434 L 186.200 119.331 L 184.655 119.024 L 183.163 118.517 L 181.750 117.820 L 180.440 116.945 L 179.255 115.906 L 178.217 114.722 L 177.341 113.412 L 176.645 111.999 L 176.138 110.507 L 175.831 108.962 L 175.728 107.389 L 175.831 105.817 L 176.138 104.272 L 176.645 102.780 L 177.341 101.367 L 178.217 100.057 L 179.255 98.873 L 180.440 97.834 L 181.750 96.959 L 183.163 96.262 L 184.655 95.755 L 186.200 95.448 L 187.772 95.345 L 189.344 95.448 L 190.890 95.755 L 192.382 96.262 L 193.795 96.959 L 195.105 97.834 L 196.289 98.873 L 197.328 100.057 L 198.203 101.367 L 198.900 102.780 L 199.406 104.272 L 199.714 105.817 L 199.817 107.389 M 199.076 205.309 L 199.024 206.103 L 198.869 206.883 L 198.614 207.636 L 198.262 208.349 L 197.820 209.010 L 197.296 209.607 L 196.698 210.132 L 196.037 210.573 L 195.324 210.925 L 194.571 211.181 L 193.791 211.336 L 192.998 211.388 L 192.205 211.336 L 191.425 211.181 L 190.672 210.925 L 189.959 210.573 L 189.298 210.132 L 188.700 209.607 L 188.176 209.010 L 187.734 208.349 L 187.382 207.636 L 187.127 206.883 L 186.972 206.103 L 186.920 205.309 L 186.972 204.516 L 187.127 203.736 L 187.382 202.983 L 187.734 202.270 L 188.176 201.609 L 188.700 201.011 L 189.298 200.487 L 189.959 200.045 L 190.672 199.694 L 191.425 199.438 L 192.205 199.283 L 192.998 199.231 L 193.791 199.283 L 194.571 199.438 L 195.324 199.694 L 196.037 200.045 L 196.698 200.487 L 197.296 201.011 L 197.820 201.609 L 198.262 202.270 L 198.614 202.983 L 198.869 203.736 L 199.024 204.516 L 199.076 205.309 M 274.184 129.230 L 274.007 131.935 L 273.478 134.594 L 272.607 137.161 L 271.408 139.592 L 269.902 141.846 L 268.115 143.884 L 266.077 145.671 L 263.823 147.177 L 261.392 148.376 L 258.825 149.248 L 256.166 149.776 L 253.461 149.954 L 250.756 149.776 L 248.097 149.248 L 245.531 148.376 L 243.099 147.177 L 240.845 145.671 L 238.807 143.884 L 237.020 141.846 L 235.514 139.592 L 234.315 137.161 L 233.444 134.594 L 232.915 131.935 L 232.738 129.230 L 232.915 126.525 L 233.444 123.867 L 234.315 121.300 L 235.514 118.869 L 237.020 116.615 L 238.807 114.577 L 240.845 112.789 L 243.099 111.283 L 245.531 110.084 L 248.097 109.213 L 250.756 108.684 L 253.461 108.507 L 256.166 108.684 L 258.825 109.213 L 261.392 110.084 L 263.823 111.283 L 266.077 112.789 L 268.115 114.577 L 269.902 116.615 L 271.408 118.869 L 272.607 121.300 L 273.478 123.867 L 274.007 126.525 L 274.184 129.230 M 326.129 175.153 L 325.949 177.899 L 325.412 180.599 L 324.527 183.205 L 323.310 185.674 L 321.781 187.962 L 319.966 190.031 L 317.897 191.846 L 315.608 193.375 L 313.140 194.593 L 310.533 195.477 L 307.834 196.014 L 305.087 196.194 L 302.341 196.014 L 299.641 195.477 L 297.035 194.593 L 294.566 193.375 L 292.278 191.846 L 290.209 190.031 L 288.394 187.962 L 286.865 185.674 L 285.647 183.205 L 284.763 180.599 L 284.226 177.899 L 284.046 175.153 L 284.226 172.406 L 284.763 169.707 L 285.647 167.100 L 286.865 164.632 L 288.394 162.343 L 290.209 160.274 L 292.278 158.459 L 294.566 156.930 L 297.035 155.713 L 299.641 154.828 L 302.341 154.291 L 305.087 154.111 L 307.834 154.291 L 310.533 154.828 L 313.140 155.713 L 315.608 156.930 L 317.897 158.459 L 319.966 160.274 L 321.781 162.343 L 323.310 164.632 L 324.527 167.100 L 325.412 169.707 L 325.949 172.406 L 326.129 175.153 M 239.128 92.001 L 239.054 93.129 L 238.833 94.239 L 238.470 95.309 L 237.970 96.324 L 237.341 97.264 L 236.596 98.114 L 235.746 98.860 L 234.805 99.488 L 233.791 99.988 L 232.720 100.351 L 231.611 100.572 L 230.483 100.646 L 229.355 100.572 L 228.246 100.351 L 227.175 99.988 L 226.161 99.488 L 225.220 98.860 L 224.370 98.114 L 223.625 97.264 L 222.996 96.324 L 222.496 95.309 L 222.133 94.239 L 221.912 93.129 L 221.838 92.001 L 221.912 90.873 L 222.133 89.764 L 222.496 88.693 L 222.996 87.679 L 223.625 86.738 L 224.370 85.888 L 225.220 85.143 L 226.161 84.514 L 227.175 84.014 L 228.246 83.651 L 229.355 83.430 L 230.483 83.356 L 231.611 83.430 L 232.720 83.651 L 233.791 84.014 L 234.805 84.514 L 235.746 85.143 L 236.596 85.888 L 237.341 86.738 L 237.970 87.679 L 238.470 88.693 L 238.833 89.764 L 239.054 90.873 L 239.128 92.001 M 156.058 59.602 L 155.958 61.125 L 155.660 62.622 L 155.170 64.068 L 154.495 65.437 L 153.646 66.706 L 152.640 67.854 L 151.492 68.860 L 150.223 69.709 L 148.854 70.384 L 147.408 70.874 L 145.911 71.172 L 144.388 71.272 L 142.864 71.172 L 141.367 70.874 L 139.922 70.384 L 138.553 69.709 L 137.283 68.860 L 136.136 67.854 L 135.129 66.706 L 134.281 65.437 L 133.606 64.068 L 133.115 62.622 L 132.817 61.125 L 132.717 59.602 L 132.817 58.079 L 133.115 56.581 L 133.606 55.136 L 134.281 53.767 L 135.129 52.497 L 136.136 51.350 L 137.283 50.343 L 138.553 49.495 L 139.922 48.820 L 141.367 48.329 L 142.864 48.031 L 144.388 47.932 L 145.911 48.031 L 147.408 48.329 L 148.854 48.820 L 150.223 49.495 L 151.492 50.343 L 152.640 51.350 L 153.646 52.497 L 154.495 53.767 L 155.170 55.136 L 155.660 56.581 L 155.958 58.079 L 156.058 59.602 M 300.128 129.988 L 300.025 131.556 L 299.718 133.098 L 299.213 134.587 L 298.518 135.997 L 297.644 137.304 L 296.607 138.487 L 295.425 139.523 L 294.118 140.397 L 292.708 141.092 L 291.219 141.597 L 289.677 141.904 L 288.109 142.007 L 286.540 141.904 L 284.998 141.597 L 283.509 141.092 L 282.099 140.397 L 280.792 139.523 L 279.610 138.487 L 278.573 137.304 L 277.700 135.997 L 277.004 134.587 L 276.499 133.098 L 276.192 131.556 L 276.089 129.988 L 276.192 128.419 L 276.499 126.877 L 277.004 125.388 L 277.700 123.978 L 278.573 122.671 L 279.610 121.489 L 280.792 120.452 L 282.099 119.579 L 283.509 118.883 L 284.998 118.378 L 286.540 118.071 L 288.109 117.968 L 289.677 118.071 L 291.219 118.378 L 292.708 118.883 L 294.118 119.579 L 295.425 120.452 L 296.607 121.489 L 297.644 122.671 L 298.518 123.978 L 299.213 125.388 L 299.718 126.877 L 300.025 128.419 L 300.128 129.988 M 124.836 180.141 L 124.707 182.100 L 124.324 184.025 L 123.693 185.884 L 122.825 187.645 L 121.734 189.277 L 120.440 190.753 L 118.964 192.048 L 117.332 193.138 L 115.571 194.007 L 113.712 194.638 L 111.787 195.021 L 109.828 195.149 L 107.869 195.021 L 105.943 194.638 L 104.084 194.007 L 102.324 193.138 L 100.691 192.048 L 99.215 190.753 L 97.921 189.277 L 96.830 187.645 L 95.962 185.884 L 95.331 184.025 L 94.948 182.100 L 94.820 180.141 L 94.948 178.182 L 95.331 176.257 L 95.962 174.398 L 96.830 172.637 L 97.921 171.005 L 99.215 169.529 L 100.691 168.234 L 102.324 167.144 L 104.084 166.275 L 105.943 165.644 L 107.869 165.261 L 109.828 165.133 L 111.787 165.261 L 113.712 165.644 L 115.571 166.275 L 117.332 167.144 L 118.964 168.234 L 120.440 169.529 L 121.734 171.005 L 122.825 172.637 L 123.693 174.398 L 124.324 176.257 L 124.707 178.182 L 124.836 180.141 M 170.863 225.219 L 170.774 226.585 L 170.507 227.927 L 170.067 229.223 L 169.462 230.451 L 168.701 231.589 L 167.799 232.618 L 166.770 233.520 L 165.632 234.280 L 164.404 234.886 L 163.108 235.326 L 161.766 235.593 L 160.400 235.682 L 159.035 235.593 L 157.692 235.326 L 156.396 234.886 L 155.169 234.280 L 154.031 233.520 L 153.002 232.618 L 152.099 231.589 L 151.339 230.451 L 150.734 229.223 L 150.294 227.927 L 150.027 226.585 L 149.937 225.219 L 150.027 223.853 L 150.294 222.511 L 150.734 221.215 L 151.339 219.987 L 152.099 218.849 L 153.002 217.820 L 154.031 216.918 L 155.169 216.158 L 156.396 215.552 L 157.692 215.112 L 159.035 214.845 L 160.400 214.756 L 161.766 214.845 L 163.108 215.112 L 164.404 215.552 L 165.632 216.158 L 166.770 216.918 L 167.799 217.820 L 168.701 218.849 L 169.462 219.987 L 170.067 221.215 L 170.507 222.511 L 170.774 223.853 L 170.863 225.219 M 284.756 166.062 L 284.710 166.764 L 284.573 167.454 L 284.347 168.120 L 284.036 168.750 L 283.646 169.335 L 283.182 169.864 L 282.653 170.327 L 282.068 170.718 L 281.438 171.029 L 280.772 171.255 L 280.082 171.392 L 279.380 171.438 L 278.679 171.392 L 277.989 171.255 L 277.323 171.029 L 276.692 170.718 L 276.108 170.327 L 275.579 169.864 L 275.115 169.335 L 274.725 168.750 L 274.414 168.120 L 274.188 167.454 L 274.051 166.764 L 274.005 166.062 L 274.051 165.361 L 274.188 164.671 L 274.414 164.005 L 274.725 163.374 L 275.115 162.790 L 275.579 162.261 L 276.108 161.797 L 276.692 161.407 L 277.323 161.095 L 277.989 160.869 L 278.679 160.732 L 279.380 160.686 L 280.082 160.732 L 280.772 160.869 L 281.438 161.095 L 282.068 161.407 L 282.653 161.797 L 283.182 162.261 L 283.646 162.790 L 284.036 163.374 L 284.347 164.005 L 284.573 164.671 L 284.710 165.361 L 284.756 166.062 M 290.713 197.817 L 290.658 198.657 L 290.493 199.482 L 290.223 200.279 L 289.851 201.034 L 289.383 201.734 L 288.828 202.367 L 288.195 202.922 L 287.496 203.389 L 286.741 203.761 L 285.944 204.032 L 285.119 204.196 L 284.279 204.251 L 283.439 204.196 L 282.613 204.032 L 281.817 203.761 L 281.062 203.389 L 280.362 202.922 L 279.729 202.367 L 279.174 201.734 L 278.707 201.034 L 278.334 200.279 L 278.064 199.482 L 277.900 198.657 L 277.845 197.817 L 277.900 196.977 L 278.064 196.152 L 278.334 195.355 L 278.707 194.600 L 279.174 193.900 L 279.729 193.268 L 280.362 192.713 L 281.062 192.245 L 281.817 191.873 L 282.613 191.602 L 283.439 191.438 L 284.279 191.383 L 285.119 191.438 L 285.944 191.602 L 286.741 191.873 L 287.496 192.245 L 288.195 192.713 L 288.828 193.268 L 289.383 193.900 L 289.851 194.600 L 290.223 195.355 L 290.493 196.152 L 290.658 196.977 L 290.713 197.817 M 220.347 191.743 L 220.252 193.191 L 219.969 194.615 L 219.502 195.990 L 218.860 197.292 L 218.053 198.499 L 217.096 199.591 L 216.005 200.548 L 214.797 201.354 L 213.495 201.997 L 212.121 202.463 L 210.697 202.747 L 209.248 202.841 L 207.799 202.747 L 206.375 202.463 L 205.001 201.997 L 203.699 201.354 L 202.492 200.548 L 201.400 199.591 L 200.443 198.499 L 199.636 197.292 L 198.994 195.990 L 198.527 194.615 L 198.244 193.191 L 198.149 191.743 L 198.244 190.294 L 198.527 188.870 L 198.994 187.495 L 199.636 186.193 L 200.443 184.986 L 201.400 183.895 L 202.492 182.937 L 203.699 182.131 L 205.001 181.489 L 206.375 181.022 L 207.799 180.739 L 209.248 180.644 L 210.697 180.739 L 212.121 181.022 L 213.495 181.489 L 214.797 182.131 L 216.005 182.937 L 217.096 183.895 L 218.053 184.986 L 218.860 186.193 L 219.502 187.495 L 219.969 188.870 L 220.252 190.294 L 220.347 191.743 M 289.130 231.688 L 289.075 232.519 L 288.913 233.336 L 288.645 234.126 L 288.276 234.873 L 287.813 235.566 L 287.264 236.192 L 286.637 236.742 L 285.944 237.205 L 285.197 237.573 L 284.408 237.841 L 283.590 238.004 L 282.759 238.058 L 281.927 238.004 L 281.110 237.841 L 280.321 237.573 L 279.573 237.205 L 278.881 236.742 L 278.254 236.192 L 277.705 235.566 L 277.242 234.873 L 276.873 234.126 L 276.605 233.336 L 276.443 232.519 L 276.388 231.688 L 276.443 230.856 L 276.605 230.039 L 276.873 229.250 L 277.242 228.502 L 277.705 227.809 L 278.254 227.183 L 278.881 226.633 L 279.573 226.170 L 280.321 225.802 L 281.110 225.534 L 281.927 225.371 L 282.759 225.317 L 283.590 225.371 L 284.408 225.534 L 285.197 225.802 L 285.944 226.170 L 286.637 226.633 L 287.264 227.183 L 287.813 227.809 L 288.276 228.502 L 288.645 229.250 L 288.913 230.039 L 289.075 230.856 L 289.130 231.688 M 281.144 99.270 L 281.097 99.986 L 280.957 100.690 L 280.726 101.370 L 280.408 102.014 L 280.009 102.611 L 279.536 103.151 L 278.996 103.624 L 278.400 104.023 L 277.756 104.340 L 277.076 104.571 L 276.372 104.711 L 275.655 104.758 L 274.939 104.711 L 274.235 104.571 L 273.555 104.340 L 272.911 104.023 L 272.315 103.624 L 271.775 103.151 L 271.301 102.611 L 270.903 102.014 L 270.585 101.370 L 270.354 100.690 L 270.214 99.986 L 270.167 99.270 L 270.214 98.554 L 270.354 97.850 L 270.585 97.170 L 270.903 96.526 L 271.301 95.929 L 271.775 95.389 L 272.315 94.916 L 272.911 94.517 L 273.555 94.200 L 274.235 93.969 L 274.939 93.829 L 275.655 93.782 L 276.372 93.829 L 277.076 93.969 L 277.756 94.200 L 278.400 94.517 L 278.996 94.916 L 279.536 95.389 L 280.009 95.929 L 280.408 96.526 L 280.726 97.170 L 280.957 97.850 L 281.097 98.554 L 281.144 99.270 M 248.224 65.050 L 248.166 65.927 L 247.995 66.789 L 247.712 67.621 L 247.324 68.409 L 246.836 69.139 L 246.256 69.800 L 245.596 70.379 L 244.865 70.867 L 244.077 71.256 L 243.245 71.538 L 242.384 71.709 L 241.507 71.767 L 240.630 71.709 L 239.769 71.538 L 238.937 71.256 L 238.149 70.867 L 237.418 70.379 L 236.758 69.800 L 236.179 69.139 L 235.691 68.409 L 235.302 67.621 L 235.020 66.789 L 234.848 65.927 L 234.791 65.050 L 234.848 64.174 L 235.020 63.312 L 235.302 62.480 L 235.691 61.692 L 236.179 60.962 L 236.758 60.301 L 237.418 59.722 L 238.149 59.234 L 238.937 58.845 L 239.769 58.563 L 240.630 58.391 L 241.507 58.334 L 242.384 58.391 L 243.245 58.563 L 244.077 58.845 L 244.865 59.234 L 245.596 59.722 L 246.256 60.301 L 246.836 60.962 L 247.324 61.692 L 247.712 62.480 L 247.995 63.312 L 248.166 64.174 L 248.224 65.050 M 211.673 238.428 L 211.566 240.060 L 211.247 241.663 L 210.722 243.212 L 209.999 244.678 L 209.090 246.037 L 208.012 247.267 L 206.783 248.345 L 205.424 249.253 L 203.957 249.976 L 202.409 250.502 L 200.806 250.821 L 199.174 250.928 L 197.543 250.821 L 195.939 250.502 L 194.391 249.976 L 192.925 249.253 L 191.565 248.345 L 190.336 247.267 L 189.258 246.037 L 188.350 244.678 L 187.626 243.212 L 187.101 241.663 L 186.782 240.060 L 186.675 238.428 L 186.782 236.797 L 187.101 235.193 L 187.626 233.645 L 188.350 232.179 L 189.258 230.820 L 190.336 229.590 L 191.565 228.512 L 192.925 227.604 L 194.391 226.881 L 195.939 226.355 L 197.543 226.036 L 199.174 225.929 L 200.806 226.036 L 202.409 226.355 L 203.957 226.881 L 205.424 227.604 L 206.783 228.512 L 208.012 229.590 L 209.090 230.820 L 209.999 232.179 L 210.722 233.645 L 211.247 235.193 L 211.566 236.797 L 211.673 238.428 M 115.792 140.959 L 115.751 141.586 L 115.629 142.203 L 115.427 142.798 L 115.148 143.362 L 114.799 143.885 L 114.384 144.358 L 113.912 144.773 L 113.389 145.122 L 112.825 145.400 L 112.229 145.602 L 111.613 145.725 L 110.985 145.766 L 110.358 145.725 L 109.741 145.602 L 109.146 145.400 L 108.582 145.122 L 108.059 144.773 L 107.586 144.358 L 107.171 143.885 L 106.822 143.362 L 106.544 142.798 L 106.342 142.203 L 106.219 141.586 L 106.178 140.959 L 106.219 140.331 L 106.342 139.715 L 106.544 139.119 L 106.822 138.555 L 107.171 138.032 L 107.586 137.560 L 108.059 137.145 L 108.582 136.796 L 109.146 136.518 L 109.741 136.315 L 110.358 136.193 L 110.985 136.152 L 111.613 136.193 L 112.229 136.315 L 112.825 136.518 L 113.389 136.796 L 113.912 137.145 L 114.384 137.560 L 114.799 138.032 L 115.148 138.555 L 115.427 139.119 L 115.629 139.715 L 115.751 140.331 L 115.792 140.959 M 248.770 210.845 L 248.716 211.672 L 248.554 212.484 L 248.288 213.269 L 247.921 214.012 L 247.461 214.700 L 246.915 215.323 L 246.292 215.870 L 245.603 216.330 L 244.860 216.696 L 244.076 216.963 L 243.263 217.124 L 242.436 217.178 L 241.610 217.124 L 240.797 216.963 L 240.013 216.696 L 239.270 216.330 L 238.581 215.870 L 237.958 215.323 L 237.412 214.700 L 236.951 214.012 L 236.585 213.269 L 236.319 212.484 L 236.157 211.672 L 236.103 210.845 L 236.157 210.018 L 236.319 209.206 L 236.585 208.421 L 236.951 207.678 L 237.412 206.989 L 237.958 206.366 L 238.581 205.820 L 239.270 205.360 L 240.013 204.994 L 240.797 204.727 L 241.610 204.566 L 242.436 204.511 L 243.263 204.566 L 244.076 204.727 L 244.860 204.994 L 245.603 205.360 L 246.292 205.820 L 246.915 206.366 L 247.461 206.989 L 247.921 207.678 L 248.288 208.421 L 248.554 209.206 L 248.716 210.018 L 248.770 210.845 M 220.457 108.300 L 220.393 109.264 L 220.205 110.211 L 219.895 111.125 L 219.467 111.992 L 218.931 112.795 L 218.294 113.521 L 217.568 114.157 L 216.765 114.694 L 215.899 115.121 L 214.984 115.432 L 214.037 115.620 L 213.073 115.683 L 212.109 115.620 L 211.162 115.432 L 210.248 115.121 L 209.381 114.694 L 208.578 114.157 L 207.852 113.521 L 207.216 112.795 L 206.679 111.992 L 206.252 111.125 L 205.941 110.211 L 205.753 109.264 L 205.690 108.300 L 205.753 107.336 L 205.941 106.389 L 206.252 105.474 L 206.679 104.608 L 207.216 103.805 L 207.852 103.079 L 208.578 102.442 L 209.381 101.906 L 210.248 101.478 L 211.162 101.168 L 212.109 100.980 L 213.073 100.916 L 214.037 100.980 L 214.984 101.168 L 215.899 101.478 L 216.765 101.906 L 217.568 102.442 L 218.294 103.079 L 218.931 103.805 L 219.467 104.608 L 219.895 105.474 L 220.205 106.389 L 220.393 107.336 L 220.457 108.300 M 203.050 33.351 L 202.996 34.175 L 202.834 34.985 L 202.569 35.767 L 202.204 36.508 L 201.745 37.194 L 201.201 37.815 L 200.580 38.360 L 199.893 38.818 L 199.153 39.184 L 198.371 39.449 L 197.561 39.610 L 196.737 39.664 L 195.913 39.610 L 195.103 39.449 L 194.321 39.184 L 193.580 38.818 L 192.894 38.360 L 192.273 37.815 L 191.729 37.194 L 191.270 36.508 L 190.905 35.767 L 190.639 34.985 L 190.478 34.175 L 190.424 33.351 L 190.478 32.527 L 190.639 31.718 L 190.905 30.936 L 191.270 30.195 L 191.729 29.508 L 192.273 28.888 L 192.894 28.343 L 193.580 27.884 L 194.321 27.519 L 195.103 27.254 L 195.913 27.093 L 196.737 27.039 L 197.561 27.093 L 198.371 27.254 L 199.153 27.519 L 199.893 27.884 L 200.580 28.343 L 201.201 28.888 L 201.745 29.508 L 202.204 30.195 L 202.569 30.936 L 202.834 31.718 L 202.996 32.527 L 203.050 33.351 M 221.866 135.528 L 221.777 136.882 L 221.512 138.213 L 221.076 139.498 L 220.476 140.715 L 219.722 141.843 L 218.828 142.863 L 217.808 143.758 L 216.679 144.512 L 215.462 145.112 L 214.178 145.548 L 212.847 145.812 L 211.493 145.901 L 210.139 145.812 L 208.808 145.548 L 207.523 145.112 L 206.306 144.512 L 205.178 143.758 L 204.158 142.863 L 203.264 141.843 L 202.510 140.715 L 201.910 139.498 L 201.473 138.213 L 201.209 136.882 L 201.120 135.528 L 201.209 134.174 L 201.473 132.844 L 201.910 131.559 L 202.510 130.342 L 203.264 129.214 L 204.158 128.194 L 205.178 127.299 L 206.306 126.545 L 207.523 125.945 L 208.808 125.509 L 210.139 125.244 L 211.493 125.155 L 212.847 125.244 L 214.178 125.509 L 215.462 125.945 L 216.679 126.545 L 217.808 127.299 L 218.828 128.194 L 219.722 129.214 L 220.476 130.342 L 221.076 131.559 L 221.512 132.844 L 221.777 134.174 L 221.866 135.528 M 185.592 196.368 L 185.523 197.414 L 185.318 198.443 L 184.981 199.436 L 184.517 200.376 L 183.935 201.248 L 183.243 202.037 L 182.455 202.728 L 181.583 203.311 L 180.642 203.775 L 179.649 204.112 L 178.621 204.316 L 177.574 204.385 L 176.528 204.316 L 175.499 204.112 L 174.506 203.775 L 173.566 203.311 L 172.694 202.728 L 171.905 202.037 L 171.214 201.248 L 170.631 200.376 L 170.167 199.436 L 169.830 198.443 L 169.626 197.414 L 169.557 196.368 L 169.626 195.321 L 169.830 194.293 L 170.167 193.300 L 170.631 192.359 L 171.214 191.487 L 171.905 190.699 L 172.694 190.007 L 173.566 189.425 L 174.506 188.961 L 175.499 188.624 L 176.528 188.419 L 177.574 188.350 L 178.621 188.419 L 179.649 188.624 L 180.642 188.961 L 181.583 189.425 L 182.455 190.007 L 183.243 190.699 L 183.935 191.487 L 184.517 192.359 L 184.981 193.300 L 185.318 194.293 L 185.523 195.321 L 185.592 196.368 M 131.259 85.159 L 131.214 85.851 L 131.079 86.530 L 130.856 87.186 L 130.550 87.808 L 130.165 88.384 L 129.708 88.904 L 129.187 89.361 L 128.611 89.746 L 127.990 90.053 L 127.334 90.275 L 126.654 90.410 L 125.963 90.456 L 125.271 90.410 L 124.592 90.275 L 123.936 90.053 L 123.315 89.746 L 122.739 89.361 L 122.218 88.904 L 121.761 88.384 L 121.376 87.808 L 121.070 87.186 L 120.847 86.530 L 120.712 85.851 L 120.666 85.159 L 120.712 84.468 L 120.847 83.789 L 121.070 83.133 L 121.376 82.511 L 121.761 81.935 L 122.218 81.414 L 122.739 80.957 L 123.315 80.573 L 123.936 80.266 L 124.592 80.043 L 125.271 79.908 L 125.963 79.863 L 126.654 79.908 L 127.334 80.043 L 127.990 80.266 L 128.611 80.573 L 129.187 80.957 L 129.708 81.414 L 130.165 81.935 L 130.550 82.511 L 130.856 83.133 L 131.079 83.789 L 131.214 84.468 L 131.259 85.159 M 232.933 65.255 L 232.853 66.483 L 232.613 67.689 L 232.218 68.854 L 231.674 69.957 L 230.990 70.980 L 230.179 71.905 L 229.254 72.716 L 228.232 73.399 L 227.128 73.943 L 225.964 74.339 L 224.757 74.579 L 223.530 74.659 L 222.302 74.579 L 221.096 74.339 L 219.931 73.943 L 218.828 73.399 L 217.805 72.716 L 216.880 71.905 L 216.069 70.980 L 215.386 69.957 L 214.842 68.854 L 214.446 67.689 L 214.206 66.483 L 214.126 65.255 L 214.206 64.028 L 214.446 62.821 L 214.842 61.657 L 215.386 60.553 L 216.069 59.531 L 216.880 58.606 L 217.805 57.795 L 218.828 57.111 L 219.931 56.567 L 221.096 56.172 L 222.302 55.932 L 223.530 55.851 L 224.757 55.932 L 225.964 56.172 L 227.128 56.567 L 228.232 57.111 L 229.254 57.795 L 230.179 58.606 L 230.990 59.531 L 231.674 60.553 L 232.218 61.657 L 232.613 62.821 L 232.853 64.028 L 232.933 65.255 M 230.537 219.997 L 230.444 221.426 L 230.164 222.831 L 229.704 224.188 L 229.070 225.473 L 228.274 226.664 L 227.329 227.741 L 226.252 228.686 L 225.061 229.482 L 223.776 230.115 L 222.420 230.576 L 221.014 230.855 L 219.585 230.949 L 218.155 230.855 L 216.750 230.576 L 215.393 230.115 L 214.109 229.482 L 212.917 228.686 L 211.840 227.741 L 210.896 226.664 L 210.100 225.473 L 209.466 224.188 L 209.006 222.831 L 208.726 221.426 L 208.632 219.997 L 208.726 218.567 L 209.006 217.162 L 209.466 215.805 L 210.100 214.520 L 210.896 213.329 L 211.840 212.252 L 212.917 211.307 L 214.109 210.512 L 215.393 209.878 L 216.750 209.417 L 218.155 209.138 L 219.585 209.044 L 221.014 209.138 L 222.420 209.417 L 223.776 209.878 L 225.061 210.512 L 226.252 211.307 L 227.329 212.252 L 228.274 213.329 L 229.070 214.520 L 229.704 215.805 L 230.164 217.162 L 230.444 218.567 L 230.537 219.997 M 156.774 159.157 L 156.709 160.153 L 156.514 161.132 L 156.193 162.077 L 155.752 162.972 L 155.197 163.802 L 154.539 164.553 L 153.788 165.211 L 152.958 165.766 L 152.063 166.207 L 151.118 166.528 L 150.139 166.723 L 149.143 166.788 L 148.147 166.723 L 147.167 166.528 L 146.222 166.207 L 145.327 165.766 L 144.497 165.211 L 143.746 164.553 L 143.088 163.802 L 142.534 162.972 L 142.092 162.077 L 141.771 161.132 L 141.576 160.153 L 141.511 159.157 L 141.576 158.161 L 141.771 157.181 L 142.092 156.236 L 142.534 155.341 L 143.088 154.511 L 143.746 153.760 L 144.497 153.102 L 145.327 152.548 L 146.222 152.106 L 147.167 151.785 L 148.147 151.590 L 149.143 151.525 L 150.139 151.590 L 151.118 151.785 L 152.063 152.106 L 152.958 152.548 L 153.788 153.102 L 154.539 153.760 L 155.197 154.511 L 155.752 155.341 L 156.193 156.236 L 156.514 157.181 L 156.709 158.161 L 156.774 159.157 M 315.662 103.024 L 315.531 105.014 L 315.142 106.970 L 314.501 108.858 L 313.619 110.647 L 312.511 112.305 L 311.197 113.804 L 309.697 115.119 L 308.039 116.227 L 306.251 117.109 L 304.362 117.750 L 302.407 118.139 L 300.417 118.269 L 298.427 118.139 L 296.471 117.750 L 294.583 117.109 L 292.794 116.227 L 291.136 115.119 L 289.637 113.804 L 288.322 112.305 L 287.214 110.647 L 286.332 108.858 L 285.691 106.970 L 285.302 105.014 L 285.171 103.024 L 285.302 101.034 L 285.691 99.078 L 286.332 97.190 L 287.214 95.401 L 288.322 93.743 L 289.637 92.244 L 291.136 90.929 L 292.794 89.821 L 294.583 88.939 L 296.471 88.298 L 298.427 87.909 L 300.417 87.779 L 302.407 87.909 L 304.362 88.298 L 306.251 88.939 L 308.039 89.821 L 309.697 90.929 L 311.197 92.244 L 312.511 93.743 L 313.619 95.401 L 314.501 97.190 L 315.142 99.078 L 315.531 101.034 L 315.662 103.024 M 184.853 48.665 L 184.807 49.360 L 184.671 50.044 L 184.447 50.704 L 184.139 51.328 L 183.752 51.908 L 183.292 52.432 L 182.768 52.891 L 182.189 53.278 L 181.564 53.587 L 180.904 53.811 L 180.221 53.947 L 179.525 53.992 L 178.830 53.947 L 178.147 53.811 L 177.487 53.587 L 176.862 53.278 L 176.282 52.891 L 175.759 52.432 L 175.299 51.908 L 174.912 51.328 L 174.604 50.704 L 174.380 50.044 L 174.244 49.360 L 174.198 48.665 L 174.244 47.970 L 174.380 47.286 L 174.604 46.626 L 174.912 46.001 L 175.299 45.422 L 175.759 44.898 L 176.282 44.439 L 176.862 44.051 L 177.487 43.743 L 178.147 43.519 L 178.830 43.383 L 179.525 43.338 L 180.221 43.383 L 180.904 43.519 L 181.564 43.743 L 182.189 44.051 L 182.768 44.439 L 183.292 44.898 L 183.752 45.422 L 184.139 46.001 L 184.447 46.626 L 184.671 47.286 L 184.807 47.970 L 184.853 48.665 M 98.428 143.543 L 98.385 144.207 L 98.255 144.859 L 98.041 145.488 L 97.747 146.084 L 97.378 146.637 L 96.939 147.137 L 96.440 147.575 L 95.887 147.945 L 95.291 148.239 L 94.661 148.453 L 94.009 148.582 L 93.346 148.626 L 92.682 148.582 L 92.030 148.453 L 91.401 148.239 L 90.804 147.945 L 90.251 147.575 L 89.752 147.137 L 89.313 146.637 L 88.944 146.084 L 88.650 145.488 L 88.436 144.859 L 88.306 144.207 L 88.263 143.543 L 88.306 142.880 L 88.436 142.228 L 88.650 141.598 L 88.944 141.002 L 89.313 140.449 L 89.752 139.949 L 90.251 139.511 L 90.804 139.142 L 91.401 138.847 L 92.030 138.634 L 92.682 138.504 L 93.346 138.461 L 94.009 138.504 L 94.661 138.634 L 95.291 138.847 L 95.887 139.142 L 96.440 139.511 L 96.939 139.949 L 97.378 140.449 L 97.747 141.002 L 98.041 141.598 L 98.255 142.228 L 98.385 142.880 L 98.428 143.543 M 150.469 85.629 L 150.405 86.601 L 150.215 87.557 L 149.902 88.479 L 149.471 89.353 L 148.930 90.163 L 148.288 90.895 L 147.555 91.538 L 146.745 92.079 L 145.872 92.510 L 144.949 92.823 L 143.994 93.013 L 143.022 93.077 L 142.050 93.013 L 141.094 92.823 L 140.172 92.510 L 139.298 92.079 L 138.488 91.538 L 137.756 90.895 L 137.114 90.163 L 136.572 89.353 L 136.141 88.479 L 135.828 87.557 L 135.638 86.601 L 135.575 85.629 L 135.638 84.657 L 135.828 83.702 L 136.141 82.779 L 136.572 81.906 L 137.114 81.096 L 137.756 80.363 L 138.488 79.721 L 139.298 79.180 L 140.172 78.749 L 141.094 78.436 L 142.050 78.246 L 143.022 78.182 L 143.994 78.246 L 144.949 78.436 L 145.872 78.749 L 146.745 79.180 L 147.555 79.721 L 148.288 80.363 L 148.930 81.096 L 149.471 81.906 L 149.902 82.779 L 150.215 83.702 L 150.405 84.657 L 150.469 85.629 M 152.265 211.552 L 152.174 212.933 L 151.904 214.291 L 151.459 215.601 L 150.847 216.843 L 150.078 217.994 L 149.165 219.034 L 148.125 219.947 L 146.974 220.716 L 145.732 221.328 L 144.421 221.773 L 143.064 222.043 L 141.683 222.134 L 140.301 222.043 L 138.944 221.773 L 137.633 221.328 L 136.391 220.716 L 135.241 219.947 L 134.200 219.034 L 133.287 217.994 L 132.518 216.843 L 131.906 215.601 L 131.461 214.291 L 131.191 212.933 L 131.100 211.552 L 131.191 210.170 L 131.461 208.813 L 131.906 207.502 L 132.518 206.261 L 133.287 205.110 L 134.200 204.069 L 135.241 203.156 L 136.391 202.387 L 137.633 201.775 L 138.944 201.330 L 140.301 201.060 L 141.683 200.970 L 143.064 201.060 L 144.421 201.330 L 145.732 201.775 L 146.974 202.387 L 148.125 203.156 L 149.165 204.069 L 150.078 205.110 L 150.847 206.261 L 151.459 207.502 L 151.904 208.813 L 152.174 210.170 L 152.265 211.552 M 288.698 148.120 L 288.645 148.926 L 288.487 149.719 L 288.228 150.484 L 287.870 151.208 L 287.422 151.880 L 286.889 152.487 L 286.281 153.020 L 285.610 153.469 L 284.885 153.826 L 284.120 154.086 L 283.328 154.244 L 282.521 154.296 L 281.715 154.244 L 280.923 154.086 L 280.158 153.826 L 279.433 153.469 L 278.762 153.020 L 278.154 152.487 L 277.621 151.880 L 277.173 151.208 L 276.815 150.484 L 276.556 149.719 L 276.398 148.926 L 276.345 148.120 L 276.398 147.314 L 276.556 146.521 L 276.815 145.756 L 277.173 145.032 L 277.621 144.360 L 278.154 143.753 L 278.762 143.220 L 279.433 142.771 L 280.158 142.414 L 280.923 142.154 L 281.715 141.996 L 282.521 141.944 L 283.328 141.996 L 284.120 142.154 L 284.885 142.414 L 285.610 142.771 L 286.281 143.220 L 286.889 143.753 L 287.422 144.360 L 287.870 145.032 L 288.228 145.756 L 288.487 146.521 L 288.645 147.314 L 288.698 148.120 M 177.817 126.955 L 177.733 128.226 L 177.485 129.475 L 177.076 130.680 L 176.513 131.822 L 175.805 132.881 L 174.966 133.838 L 174.008 134.678 L 172.950 135.385 L 171.808 135.948 L 170.602 136.358 L 169.353 136.606 L 168.083 136.689 L 166.812 136.606 L 165.563 136.358 L 164.358 135.948 L 163.216 135.385 L 162.157 134.678 L 161.200 133.838 L 160.360 132.881 L 159.653 131.822 L 159.089 130.680 L 158.680 129.475 L 158.432 128.226 L 158.349 126.955 L 158.432 125.685 L 158.680 124.436 L 159.089 123.230 L 159.653 122.088 L 160.360 121.030 L 161.200 120.072 L 162.157 119.233 L 163.216 118.525 L 164.358 117.962 L 165.563 117.553 L 166.812 117.305 L 168.083 117.221 L 169.353 117.305 L 170.602 117.553 L 171.808 117.962 L 172.950 118.525 L 174.008 119.233 L 174.966 120.072 L 175.805 121.030 L 176.513 122.088 L 177.076 123.230 L 177.485 124.436 L 177.733 125.685 L 177.817 126.955 M 165.485 143.458 L 165.434 144.239 L 165.281 145.007 L 165.030 145.749 L 164.683 146.451 L 164.248 147.102 L 163.732 147.691 L 163.143 148.207 L 162.492 148.642 L 161.790 148.988 L 161.049 149.240 L 160.281 149.392 L 159.500 149.444 L 158.718 149.392 L 157.950 149.240 L 157.209 148.988 L 156.507 148.642 L 155.856 148.207 L 155.267 147.691 L 154.751 147.102 L 154.316 146.451 L 153.970 145.749 L 153.718 145.007 L 153.565 144.239 L 153.514 143.458 L 153.565 142.677 L 153.718 141.909 L 153.970 141.167 L 154.316 140.465 L 154.751 139.814 L 155.267 139.226 L 155.856 138.709 L 156.507 138.274 L 157.209 137.928 L 157.950 137.676 L 158.718 137.524 L 159.500 137.472 L 160.281 137.524 L 161.049 137.676 L 161.790 137.928 L 162.492 138.274 L 163.143 138.709 L 163.732 139.226 L 164.248 139.814 L 164.683 140.465 L 165.030 141.167 L 165.281 141.909 L 165.434 142.677 L 165.485 143.458 M 128.118 204.980 L 128.054 205.956 L 127.863 206.916 L 127.549 207.842 L 127.116 208.719 L 126.573 209.532 L 125.928 210.268 L 125.193 210.913 L 124.379 211.456 L 123.502 211.889 L 122.576 212.203 L 121.617 212.394 L 120.641 212.458 L 119.665 212.394 L 118.705 212.203 L 117.779 211.889 L 116.902 211.456 L 116.089 210.913 L 115.353 210.268 L 114.708 209.532 L 114.165 208.719 L 113.732 207.842 L 113.418 206.916 L 113.227 205.956 L 113.163 204.980 L 113.227 204.004 L 113.418 203.045 L 113.732 202.119 L 114.165 201.242 L 114.708 200.429 L 115.353 199.693 L 116.089 199.048 L 116.902 198.505 L 117.779 198.072 L 118.705 197.758 L 119.665 197.567 L 120.641 197.503 L 121.617 197.567 L 122.576 197.758 L 123.502 198.072 L 124.379 198.505 L 125.193 199.048 L 125.928 199.693 L 126.573 200.429 L 127.116 201.242 L 127.549 202.119 L 127.863 203.045 L 128.054 204.004 L 128.118 204.980 M 278.567 243.016 L 278.481 244.315 L 278.228 245.591 L 277.809 246.823 L 277.234 247.990 L 276.511 249.072 L 275.653 250.051 L 274.674 250.909 L 273.592 251.632 L 272.425 252.207 L 271.193 252.626 L 269.916 252.880 L 268.618 252.965 L 267.319 252.880 L 266.043 252.626 L 264.811 252.207 L 263.644 251.632 L 262.562 250.909 L 261.583 250.051 L 260.725 249.072 L 260.002 247.990 L 259.427 246.823 L 259.008 245.591 L 258.754 244.315 L 258.669 243.016 L 258.754 241.717 L 259.008 240.441 L 259.427 239.209 L 260.002 238.042 L 260.725 236.960 L 261.583 235.981 L 262.562 235.123 L 263.644 234.400 L 264.811 233.825 L 266.043 233.406 L 267.319 233.152 L 268.618 233.067 L 269.916 233.152 L 271.193 233.406 L 272.425 233.825 L 273.592 234.400 L 274.674 235.123 L 275.653 235.981 L 276.511 236.960 L 277.234 238.042 L 277.809 239.209 L 278.228 240.441 L 278.481 241.717 L 278.567 243.016 M 131.299 148.197 L 131.244 149.034 L 131.081 149.856 L 130.811 150.650 L 130.440 151.402 L 129.974 152.100 L 129.422 152.730 L 128.791 153.283 L 128.094 153.749 L 127.342 154.120 L 126.548 154.389 L 125.725 154.553 L 124.889 154.608 L 124.052 154.553 L 123.229 154.389 L 122.435 154.120 L 121.683 153.749 L 120.986 153.283 L 120.355 152.730 L 119.803 152.100 L 119.337 151.402 L 118.966 150.650 L 118.696 149.856 L 118.533 149.034 L 118.478 148.197 L 118.533 147.360 L 118.696 146.538 L 118.966 145.744 L 119.337 144.992 L 119.803 144.294 L 120.355 143.664 L 120.986 143.111 L 121.683 142.645 L 122.435 142.274 L 123.229 142.005 L 124.052 141.841 L 124.889 141.786 L 125.725 141.841 L 126.548 142.005 L 127.342 142.274 L 128.094 142.645 L 128.791 143.111 L 129.422 143.664 L 129.974 144.294 L 130.440 144.992 L 130.811 145.744 L 131.081 146.538 L 131.244 147.360 L 131.299 148.197 M 273.075 217.757 L 273.011 218.736 L 272.820 219.699 L 272.504 220.629 L 272.070 221.509 L 271.524 222.325 L 270.877 223.063 L 270.139 223.711 L 269.323 224.256 L 268.442 224.690 L 267.513 225.006 L 266.550 225.197 L 265.570 225.261 L 264.591 225.197 L 263.628 225.006 L 262.699 224.690 L 261.818 224.256 L 261.002 223.711 L 260.264 223.063 L 259.617 222.325 L 259.071 221.509 L 258.637 220.629 L 258.321 219.699 L 258.130 218.736 L 258.066 217.757 L 258.130 216.777 L 258.321 215.814 L 258.637 214.885 L 259.071 214.004 L 259.617 213.188 L 260.264 212.450 L 261.002 211.803 L 261.818 211.257 L 262.699 210.823 L 263.628 210.508 L 264.591 210.316 L 265.570 210.252 L 266.550 210.316 L 267.513 210.508 L 268.442 210.823 L 269.323 211.257 L 270.139 211.803 L 270.877 212.450 L 271.524 213.188 L 272.070 214.004 L 272.504 214.885 L 272.820 215.814 L 273.011 216.777 L 273.075 217.757 M 141.409 104.895 L 141.358 105.675 L 141.206 106.442 L 140.954 107.183 L 140.608 107.884 L 140.174 108.535 L 139.658 109.123 L 139.070 109.638 L 138.420 110.073 L 137.718 110.419 L 136.977 110.670 L 136.210 110.823 L 135.430 110.874 L 134.649 110.823 L 133.882 110.670 L 133.142 110.419 L 132.440 110.073 L 131.790 109.638 L 131.202 109.123 L 130.686 108.535 L 130.251 107.884 L 129.905 107.183 L 129.654 106.442 L 129.501 105.675 L 129.450 104.895 L 129.501 104.114 L 129.654 103.347 L 129.905 102.606 L 130.251 101.905 L 130.686 101.254 L 131.202 100.666 L 131.790 100.151 L 132.440 99.716 L 133.142 99.370 L 133.882 99.119 L 134.649 98.966 L 135.430 98.915 L 136.210 98.966 L 136.977 99.119 L 137.718 99.370 L 138.420 99.716 L 139.070 100.151 L 139.658 100.666 L 140.174 101.254 L 140.608 101.905 L 140.954 102.606 L 141.206 103.347 L 141.358 104.114 L 141.409 104.895 M 174.799 158.779 L 174.742 159.636 L 174.575 160.479 L 174.299 161.293 L 173.918 162.063 L 173.441 162.778 L 172.875 163.424 L 172.228 163.990 L 171.514 164.468 L 170.743 164.848 L 169.930 165.124 L 169.087 165.292 L 168.229 165.348 L 167.372 165.292 L 166.529 165.124 L 165.715 164.848 L 164.945 164.468 L 164.230 163.990 L 163.584 163.424 L 163.018 162.778 L 162.540 162.063 L 162.160 161.293 L 161.884 160.479 L 161.716 159.636 L 161.660 158.779 L 161.716 157.921 L 161.884 157.078 L 162.160 156.265 L 162.540 155.494 L 163.018 154.780 L 163.584 154.133 L 164.230 153.567 L 164.945 153.089 L 165.715 152.709 L 166.529 152.433 L 167.372 152.266 L 168.229 152.209 L 169.087 152.266 L 169.930 152.433 L 170.743 152.709 L 171.514 153.089 L 172.228 153.567 L 172.875 154.133 L 173.441 154.780 L 173.918 155.494 L 174.299 156.265 L 174.575 157.078 L 174.742 157.921 L 174.799 158.779 M 231.157 45.797 L 231.083 46.920 L 230.864 48.024 L 230.502 49.090 L 230.004 50.099 L 229.379 51.035 L 228.637 51.881 L 227.791 52.623 L 226.855 53.248 L 225.846 53.746 L 224.780 54.107 L 223.677 54.327 L 222.554 54.401 L 221.431 54.327 L 220.327 54.107 L 219.261 53.746 L 218.252 53.248 L 217.316 52.623 L 216.470 51.881 L 215.728 51.035 L 215.103 50.099 L 214.605 49.090 L 214.244 48.024 L 214.024 46.920 L 213.951 45.797 L 214.024 44.674 L 214.244 43.571 L 214.605 42.505 L 215.103 41.496 L 215.728 40.560 L 216.470 39.714 L 217.316 38.972 L 218.252 38.347 L 219.261 37.849 L 220.327 37.487 L 221.431 37.268 L 222.554 37.194 L 223.677 37.268 L 224.780 37.487 L 225.846 37.849 L 226.855 38.347 L 227.791 38.972 L 228.637 39.714 L 229.379 40.560 L 230.004 41.496 L 230.502 42.505 L 230.864 43.571 L 231.083 44.674 L 231.157 45.797 M 272.929 201.870 L 272.870 202.774 L 272.693 203.663 L 272.402 204.521 L 272.001 205.334 L 271.497 206.087 L 270.900 206.768 L 270.219 207.366 L 269.465 207.869 L 268.653 208.270 L 267.795 208.561 L 266.906 208.738 L 266.002 208.797 L 265.098 208.738 L 264.209 208.561 L 263.351 208.270 L 262.539 207.869 L 261.785 207.366 L 261.104 206.768 L 260.506 206.087 L 260.003 205.334 L 259.602 204.521 L 259.311 203.663 L 259.134 202.774 L 259.075 201.870 L 259.134 200.966 L 259.311 200.077 L 259.602 199.219 L 260.003 198.407 L 260.506 197.653 L 261.104 196.972 L 261.785 196.375 L 262.539 195.871 L 263.351 195.470 L 264.209 195.179 L 265.098 195.002 L 266.002 194.943 L 266.906 195.002 L 267.795 195.179 L 268.653 195.470 L 269.465 195.871 L 270.219 196.375 L 270.900 196.972 L 271.497 197.653 L 272.001 198.407 L 272.402 199.219 L 272.693 200.077 L 272.870 200.966 L 272.929 201.870 M 241.507 46.346 L 241.466 46.981 L 241.341 47.605 L 241.137 48.208 L 240.855 48.779 L 240.502 49.308 L 240.082 49.786 L 239.604 50.206 L 239.075 50.559 L 238.504 50.841 L 237.902 51.045 L 237.278 51.169 L 236.643 51.211 L 236.008 51.169 L 235.384 51.045 L 234.781 50.841 L 234.211 50.559 L 233.682 50.206 L 233.203 49.786 L 232.784 49.308 L 232.430 48.779 L 232.149 48.208 L 231.944 47.605 L 231.820 46.981 L 231.778 46.346 L 231.820 45.712 L 231.944 45.087 L 232.149 44.485 L 232.430 43.914 L 232.784 43.385 L 233.203 42.907 L 233.682 42.487 L 234.211 42.134 L 234.781 41.852 L 235.384 41.648 L 236.008 41.524 L 236.643 41.482 L 237.278 41.524 L 237.902 41.648 L 238.504 41.852 L 239.075 42.134 L 239.604 42.487 L 240.082 42.907 L 240.502 43.385 L 240.855 43.914 L 241.137 44.485 L 241.341 45.087 L 241.466 45.712 L 241.507 46.346 M 129.085 109.855 L 129.036 110.603 L 128.889 111.339 L 128.648 112.049 L 128.317 112.721 L 127.900 113.345 L 127.406 113.908 L 126.842 114.403 L 126.218 114.819 L 125.546 115.151 L 124.836 115.392 L 124.100 115.538 L 123.352 115.588 L 122.604 115.538 L 121.868 115.392 L 121.158 115.151 L 120.486 114.819 L 119.862 114.403 L 119.298 113.908 L 118.804 113.345 L 118.387 112.721 L 118.056 112.049 L 117.815 111.339 L 117.668 110.603 L 117.619 109.855 L 117.668 109.107 L 117.815 108.371 L 118.056 107.661 L 118.387 106.988 L 118.804 106.365 L 119.298 105.801 L 119.862 105.307 L 120.486 104.890 L 121.158 104.558 L 121.868 104.317 L 122.604 104.171 L 123.352 104.122 L 124.100 104.171 L 124.836 104.317 L 125.546 104.558 L 126.218 104.890 L 126.842 105.307 L 127.406 105.801 L 127.900 106.365 L 128.317 106.988 L 128.648 107.661 L 128.889 108.371 L 129.036 109.107 L 129.085 109.855 M 112.880 90.156 L 112.837 90.802 L 112.711 91.437 L 112.503 92.050 L 112.217 92.631 L 111.857 93.169 L 111.430 93.656 L 110.943 94.083 L 110.405 94.442 L 109.824 94.729 L 109.211 94.937 L 108.576 95.063 L 107.930 95.106 L 107.284 95.063 L 106.649 94.937 L 106.036 94.729 L 105.455 94.442 L 104.916 94.083 L 104.430 93.656 L 104.003 93.169 L 103.643 92.631 L 103.357 92.050 L 103.149 91.437 L 103.022 90.802 L 102.980 90.156 L 103.022 89.510 L 103.149 88.874 L 103.357 88.261 L 103.643 87.681 L 104.003 87.142 L 104.430 86.656 L 104.916 86.229 L 105.455 85.869 L 106.036 85.583 L 106.649 85.374 L 107.284 85.248 L 107.930 85.206 L 108.576 85.248 L 109.211 85.374 L 109.824 85.583 L 110.405 85.869 L 110.943 86.229 L 111.430 86.656 L 111.857 87.142 L 112.217 87.681 L 112.503 88.261 L 112.711 88.874 L 112.837 89.510 L 112.880 90.156 M 165.139 167.582 L 165.099 168.192 L 164.979 168.792 L 164.783 169.371 L 164.512 169.920 L 164.172 170.428 L 163.769 170.888 L 163.309 171.291 L 162.801 171.631 L 162.252 171.902 L 161.673 172.098 L 161.073 172.218 L 160.463 172.258 L 159.853 172.218 L 159.253 172.098 L 158.674 171.902 L 158.125 171.631 L 157.617 171.291 L 157.157 170.888 L 156.754 170.428 L 156.414 169.920 L 156.144 169.371 L 155.947 168.792 L 155.828 168.192 L 155.788 167.582 L 155.828 166.972 L 155.947 166.372 L 156.144 165.793 L 156.414 165.244 L 156.754 164.736 L 157.157 164.276 L 157.617 163.873 L 158.125 163.533 L 158.674 163.262 L 159.253 163.066 L 159.853 162.947 L 160.463 162.907 L 161.073 162.947 L 161.673 163.066 L 162.252 163.262 L 162.801 163.533 L 163.309 163.873 L 163.769 164.276 L 164.172 164.736 L 164.512 165.244 L 164.783 165.793 L 164.979 166.372 L 165.099 166.972 L 165.139 167.582 M 292.781 218.724 L 292.737 219.398 L 292.606 220.060 L 292.388 220.700 L 292.090 221.306 L 291.714 221.868 L 291.269 222.375 L 290.761 222.821 L 290.200 223.196 L 289.594 223.495 L 288.954 223.712 L 288.292 223.844 L 287.618 223.888 L 286.944 223.844 L 286.281 223.712 L 285.642 223.495 L 285.036 223.196 L 284.474 222.821 L 283.966 222.375 L 283.521 221.868 L 283.146 221.306 L 282.847 220.700 L 282.630 220.060 L 282.498 219.398 L 282.454 218.724 L 282.498 218.050 L 282.630 217.388 L 282.847 216.748 L 283.146 216.142 L 283.521 215.580 L 283.966 215.073 L 284.474 214.627 L 285.036 214.252 L 285.642 213.953 L 286.281 213.736 L 286.944 213.604 L 287.618 213.560 L 288.292 213.604 L 288.954 213.736 L 289.594 213.953 L 290.200 214.252 L 290.761 214.627 L 291.269 215.073 L 291.714 215.580 L 292.090 216.142 L 292.388 216.748 L 292.606 217.388 L 292.737 218.050 L 292.781 218.724 M 178.595 244.187 L 178.521 245.323 L 178.298 246.439 L 177.933 247.517 L 177.429 248.538 L 176.797 249.485 L 176.046 250.341 L 175.190 251.091 L 174.244 251.724 L 173.222 252.227 L 172.145 252.593 L 171.028 252.815 L 169.892 252.890 L 168.756 252.815 L 167.639 252.593 L 166.561 252.227 L 165.540 251.724 L 164.594 251.091 L 163.738 250.341 L 162.987 249.485 L 162.355 248.538 L 161.851 247.517 L 161.486 246.439 L 161.263 245.323 L 161.189 244.187 L 161.263 243.051 L 161.486 241.934 L 161.851 240.856 L 162.355 239.835 L 162.987 238.889 L 163.738 238.033 L 164.594 237.282 L 165.540 236.650 L 166.561 236.146 L 167.639 235.780 L 168.756 235.558 L 169.892 235.484 L 171.028 235.558 L 172.145 235.780 L 173.222 236.146 L 174.244 236.650 L 175.190 237.282 L 176.046 238.033 L 176.797 238.889 L 177.429 239.835 L 177.933 240.856 L 178.298 241.934 L 178.521 243.051 L 178.595 244.187 M 262.469 43.374 L 262.389 44.604 L 262.148 45.813 L 261.752 46.981 L 261.207 48.086 L 260.522 49.111 L 259.709 50.038 L 258.783 50.850 L 257.758 51.535 L 256.652 52.080 L 255.485 52.477 L 254.276 52.717 L 253.046 52.798 L 251.816 52.717 L 250.607 52.477 L 249.440 52.080 L 248.335 51.535 L 247.310 50.850 L 246.383 50.038 L 245.570 49.111 L 244.885 48.086 L 244.340 46.981 L 243.944 45.813 L 243.704 44.604 L 243.623 43.374 L 243.704 42.144 L 243.944 40.936 L 244.340 39.768 L 244.885 38.663 L 245.570 37.638 L 246.383 36.711 L 247.310 35.899 L 248.335 35.214 L 249.440 34.669 L 250.607 34.272 L 251.816 34.032 L 253.046 33.951 L 254.276 34.032 L 255.485 34.272 L 256.652 34.669 L 257.758 35.214 L 258.783 35.899 L 259.709 36.711 L 260.522 37.638 L 261.207 38.663 L 261.752 39.768 L 262.148 40.936 L 262.389 42.144 L 262.469 43.374 M 284.666 185.522 L 284.619 186.247 L 284.477 186.959 L 284.244 187.647 L 283.923 188.298 L 283.519 188.902 L 283.040 189.448 L 282.494 189.927 L 281.890 190.331 L 281.239 190.652 L 280.551 190.885 L 279.839 191.027 L 279.114 191.075 L 278.389 191.027 L 277.677 190.885 L 276.989 190.652 L 276.338 190.331 L 275.734 189.927 L 275.188 189.448 L 274.709 188.902 L 274.306 188.298 L 273.985 187.647 L 273.751 186.959 L 273.609 186.247 L 273.562 185.522 L 273.609 184.798 L 273.751 184.085 L 273.985 183.398 L 274.306 182.746 L 274.709 182.142 L 275.188 181.596 L 275.734 181.117 L 276.338 180.714 L 276.989 180.393 L 277.677 180.159 L 278.389 180.018 L 279.114 179.970 L 279.839 180.018 L 280.551 180.159 L 281.239 180.393 L 281.890 180.714 L 282.494 181.117 L 283.040 181.596 L 283.519 182.142 L 283.923 182.746 L 284.244 183.398 L 284.477 184.085 L 284.619 184.798 L 284.666 185.522 M 196.097 217.552 L 196.046 218.322 L 195.896 219.079 L 195.648 219.810 L 195.306 220.503 L 194.877 221.144 L 194.368 221.725 L 193.788 222.234 L 193.146 222.663 L 192.454 223.004 L 191.723 223.252 L 190.966 223.403 L 190.195 223.453 L 189.425 223.403 L 188.668 223.252 L 187.937 223.004 L 187.244 222.663 L 186.602 222.234 L 186.022 221.725 L 185.513 221.144 L 185.084 220.503 L 184.743 219.810 L 184.495 219.079 L 184.344 218.322 L 184.293 217.552 L 184.344 216.781 L 184.495 216.024 L 184.743 215.293 L 185.084 214.601 L 185.513 213.959 L 186.022 213.378 L 186.602 212.869 L 187.244 212.441 L 187.937 212.099 L 188.668 211.851 L 189.425 211.700 L 190.195 211.650 L 190.966 211.700 L 191.723 211.851 L 192.454 212.099 L 193.146 212.441 L 193.788 212.869 L 194.368 213.378 L 194.877 213.959 L 195.306 214.601 L 195.648 215.293 L 195.896 216.024 L 196.046 216.781 L 196.097 217.552 M 189.455 124.451 L 189.415 125.063 L 189.295 125.664 L 189.098 126.244 L 188.827 126.794 L 188.486 127.304 L 188.082 127.765 L 187.621 128.169 L 187.112 128.509 L 186.562 128.780 L 185.982 128.977 L 185.381 129.097 L 184.769 129.137 L 184.157 129.097 L 183.556 128.977 L 182.976 128.780 L 182.426 128.509 L 181.916 128.169 L 181.455 127.765 L 181.051 127.304 L 180.711 126.794 L 180.440 126.244 L 180.243 125.664 L 180.123 125.063 L 180.083 124.451 L 180.123 123.840 L 180.243 123.238 L 180.440 122.658 L 180.711 122.108 L 181.051 121.599 L 181.455 121.138 L 181.916 120.734 L 182.426 120.393 L 182.976 120.122 L 183.556 119.925 L 184.157 119.805 L 184.769 119.765 L 185.381 119.805 L 185.982 119.925 L 186.562 120.122 L 187.112 120.393 L 187.621 120.734 L 188.082 121.138 L 188.486 121.599 L 188.827 122.108 L 189.098 122.658 L 189.295 123.238 L 189.415 123.840 L 189.455 124.451 M 251.664 91.621 L 251.618 92.334 L 251.478 93.034 L 251.249 93.710 L 250.933 94.350 L 250.536 94.944 L 250.066 95.480 L 249.529 95.951 L 248.936 96.348 L 248.295 96.663 L 247.619 96.893 L 246.919 97.032 L 246.207 97.079 L 245.494 97.032 L 244.794 96.893 L 244.118 96.663 L 243.478 96.348 L 242.885 95.951 L 242.348 95.480 L 241.877 94.944 L 241.481 94.350 L 241.165 93.710 L 240.935 93.034 L 240.796 92.334 L 240.749 91.621 L 240.796 90.909 L 240.935 90.209 L 241.165 89.533 L 241.481 88.893 L 241.877 88.299 L 242.348 87.762 L 242.885 87.292 L 243.478 86.895 L 244.118 86.579 L 244.794 86.350 L 245.494 86.211 L 246.207 86.164 L 246.919 86.211 L 247.619 86.350 L 248.295 86.579 L 248.936 86.895 L 249.529 87.292 L 250.066 87.762 L 250.536 88.299 L 250.933 88.893 L 251.249 89.533 L 251.478 90.209 L 251.618 90.909 L 251.664 91.621 M 150.670 235.656 L 150.580 237.035 L 150.310 238.390 L 149.866 239.699 L 149.255 240.938 L 148.488 242.087 L 147.577 243.125 L 146.538 244.036 L 145.389 244.804 L 144.150 245.415 L 142.841 245.859 L 141.486 246.129 L 140.108 246.219 L 138.729 246.129 L 137.374 245.859 L 136.066 245.415 L 134.826 244.804 L 133.678 244.036 L 132.639 243.125 L 131.728 242.087 L 130.960 240.938 L 130.349 239.699 L 129.905 238.390 L 129.635 237.035 L 129.545 235.656 L 129.635 234.278 L 129.905 232.923 L 130.349 231.614 L 130.960 230.375 L 131.728 229.226 L 132.639 228.188 L 133.678 227.277 L 134.826 226.509 L 136.066 225.898 L 137.374 225.454 L 138.729 225.184 L 140.108 225.094 L 141.486 225.184 L 142.841 225.454 L 144.150 225.898 L 145.389 226.509 L 146.538 227.277 L 147.577 228.188 L 148.488 229.226 L 149.255 230.375 L 149.866 231.614 L 150.310 232.923 L 150.580 234.278 L 150.670 235.656 M 199.641 167.859 L 199.574 168.881 L 199.374 169.886 L 199.044 170.856 L 198.591 171.775 L 198.022 172.627 L 197.347 173.397 L 196.576 174.073 L 195.725 174.642 L 194.806 175.095 L 193.836 175.424 L 192.831 175.624 L 191.809 175.691 L 190.786 175.624 L 189.782 175.424 L 188.811 175.095 L 187.893 174.642 L 187.041 174.073 L 186.271 173.397 L 185.595 172.627 L 185.026 171.775 L 184.573 170.856 L 184.244 169.886 L 184.044 168.881 L 183.977 167.859 L 184.044 166.837 L 184.244 165.832 L 184.573 164.862 L 185.026 163.943 L 185.595 163.091 L 186.271 162.321 L 187.041 161.646 L 187.893 161.076 L 188.811 160.623 L 189.782 160.294 L 190.786 160.094 L 191.809 160.027 L 192.831 160.094 L 193.836 160.294 L 194.806 160.623 L 195.725 161.076 L 196.576 161.646 L 197.347 162.321 L 198.022 163.091 L 198.591 163.943 L 199.044 164.862 L 199.374 165.832 L 199.574 166.837 L 199.641 167.859 M 176.963 76.496 L 176.913 77.267 L 176.762 78.024 L 176.514 78.755 L 176.172 79.448 L 175.743 80.090 L 175.234 80.670 L 174.653 81.180 L 174.011 81.609 L 173.319 81.950 L 172.588 82.198 L 171.830 82.349 L 171.060 82.399 L 170.289 82.349 L 169.532 82.198 L 168.801 81.950 L 168.108 81.609 L 167.466 81.180 L 166.886 80.670 L 166.376 80.090 L 165.947 79.448 L 165.606 78.755 L 165.358 78.024 L 165.207 77.267 L 165.157 76.496 L 165.207 75.726 L 165.358 74.968 L 165.606 74.237 L 165.947 73.545 L 166.376 72.903 L 166.886 72.322 L 167.466 71.813 L 168.108 71.384 L 168.801 71.042 L 169.532 70.794 L 170.289 70.643 L 171.060 70.593 L 171.830 70.643 L 172.588 70.794 L 173.319 71.042 L 174.011 71.384 L 174.653 71.813 L 175.234 72.322 L 175.743 72.903 L 176.172 73.545 L 176.514 74.237 L 176.762 74.968 L 176.913 75.726 L 176.963 76.496 M 111.387 207.093 L 111.347 207.712 L 111.226 208.320 L 111.026 208.908 L 110.752 209.464 L 110.408 209.980 L 109.999 210.446 L 109.532 210.855 L 109.016 211.200 L 108.460 211.474 L 107.873 211.674 L 107.264 211.795 L 106.645 211.835 L 106.026 211.795 L 105.418 211.674 L 104.830 211.474 L 104.274 211.200 L 103.758 210.855 L 103.292 210.446 L 102.883 209.980 L 102.538 209.464 L 102.264 208.908 L 102.065 208.320 L 101.944 207.712 L 101.903 207.093 L 101.944 206.474 L 102.065 205.866 L 102.264 205.278 L 102.538 204.722 L 102.883 204.206 L 103.292 203.740 L 103.758 203.331 L 104.274 202.986 L 104.830 202.712 L 105.418 202.512 L 106.026 202.391 L 106.645 202.351 L 107.264 202.391 L 107.873 202.512 L 108.460 202.712 L 109.016 202.986 L 109.532 203.331 L 109.999 203.740 L 110.408 204.206 L 110.752 204.722 L 111.026 205.278 L 111.226 205.866 L 111.347 206.474 L 111.387 207.093 M 169.133 189.768 L 169.067 190.782 L 168.868 191.779 L 168.542 192.742 L 168.092 193.653 L 167.528 194.498 L 166.857 195.262 L 166.093 195.932 L 165.248 196.497 L 164.337 196.946 L 163.375 197.273 L 162.378 197.471 L 161.364 197.538 L 160.350 197.471 L 159.353 197.273 L 158.390 196.946 L 157.479 196.497 L 156.634 195.932 L 155.870 195.262 L 155.200 194.498 L 154.635 193.653 L 154.186 192.742 L 153.859 191.779 L 153.661 190.782 L 153.594 189.768 L 153.661 188.754 L 153.859 187.757 L 154.186 186.795 L 154.635 185.884 L 155.200 185.039 L 155.870 184.275 L 156.634 183.604 L 157.479 183.040 L 158.390 182.590 L 159.353 182.264 L 160.350 182.065 L 161.364 181.999 L 162.378 182.065 L 163.375 182.264 L 164.337 182.590 L 165.248 183.040 L 166.093 183.604 L 166.857 184.275 L 167.528 185.039 L 168.092 185.884 L 168.542 186.795 L 168.868 187.757 L 169.067 188.754 L 169.133 189.768 M 173.862 45.867 L 173.816 46.567 L 173.679 47.255 L 173.454 47.919 L 173.144 48.548 L 172.754 49.132 L 172.292 49.659 L 171.764 50.121 L 171.181 50.511 L 170.552 50.821 L 169.888 51.047 L 169.200 51.184 L 168.500 51.230 L 167.800 51.184 L 167.112 51.047 L 166.448 50.821 L 165.819 50.511 L 165.236 50.121 L 164.708 49.659 L 164.246 49.132 L 163.856 48.548 L 163.546 47.919 L 163.320 47.255 L 163.184 46.567 L 163.138 45.867 L 163.184 45.167 L 163.320 44.479 L 163.546 43.815 L 163.856 43.186 L 164.246 42.603 L 164.708 42.076 L 165.236 41.613 L 165.819 41.223 L 166.448 40.913 L 167.112 40.688 L 167.800 40.551 L 168.500 40.505 L 169.200 40.551 L 169.888 40.688 L 170.552 40.913 L 171.181 41.223 L 171.764 41.613 L 172.292 42.076 L 172.754 42.603 L 173.144 43.186 L 173.454 43.815 L 173.679 44.479 L 173.816 45.167 L 173.862 45.867 M 192.091 255.806 L 192.025 256.807 L 191.830 257.790 L 191.507 258.740 L 191.064 259.640 L 190.506 260.474 L 189.845 261.228 L 189.091 261.889 L 188.257 262.446 L 187.358 262.890 L 186.408 263.212 L 185.424 263.408 L 184.423 263.473 L 183.422 263.408 L 182.439 263.212 L 181.489 262.890 L 180.589 262.446 L 179.756 261.889 L 179.001 261.228 L 178.340 260.474 L 177.783 259.640 L 177.339 258.740 L 177.017 257.790 L 176.821 256.807 L 176.756 255.806 L 176.821 254.805 L 177.017 253.821 L 177.339 252.872 L 177.783 251.972 L 178.340 251.138 L 179.001 250.384 L 179.756 249.723 L 180.589 249.165 L 181.489 248.722 L 182.439 248.399 L 183.422 248.204 L 184.423 248.138 L 185.424 248.204 L 186.408 248.399 L 187.358 248.722 L 188.257 249.165 L 189.091 249.723 L 189.845 250.384 L 190.506 251.138 L 191.064 251.972 L 191.507 252.872 L 191.830 253.821 L 192.025 254.805 L 192.091 255.806 M 311.615 204.129 L 311.562 204.936 L 311.405 205.730 L 311.145 206.496 L 310.787 207.221 L 310.337 207.894 L 309.804 208.502 L 309.196 209.036 L 308.523 209.485 L 307.797 209.843 L 307.031 210.103 L 306.238 210.261 L 305.431 210.314 L 304.623 210.261 L 303.830 210.103 L 303.064 209.843 L 302.338 209.485 L 301.666 209.036 L 301.057 208.502 L 300.524 207.894 L 300.074 207.221 L 299.717 206.496 L 299.457 205.730 L 299.299 204.936 L 299.246 204.129 L 299.299 203.322 L 299.457 202.528 L 299.717 201.762 L 300.074 201.037 L 300.524 200.364 L 301.057 199.756 L 301.666 199.222 L 302.338 198.773 L 303.064 198.415 L 303.830 198.155 L 304.623 197.997 L 305.431 197.944 L 306.238 197.997 L 307.031 198.155 L 307.797 198.415 L 308.523 198.773 L 309.196 199.222 L 309.804 199.756 L 310.337 200.364 L 310.787 201.037 L 311.145 201.762 L 311.405 202.528 L 311.562 203.322 L 311.615 204.129 M 99.645 162.118 L 99.599 162.828 L 99.460 163.527 L 99.231 164.201 L 98.916 164.839 L 98.520 165.431 L 98.051 165.967 L 97.515 166.436 L 96.923 166.832 L 96.285 167.147 L 95.611 167.376 L 94.912 167.515 L 94.202 167.561 L 93.491 167.515 L 92.793 167.376 L 92.119 167.147 L 91.480 166.832 L 90.888 166.436 L 90.353 165.967 L 89.883 165.431 L 89.488 164.839 L 89.173 164.201 L 88.944 163.527 L 88.805 162.828 L 88.758 162.118 L 88.805 161.407 L 88.944 160.709 L 89.173 160.035 L 89.488 159.396 L 89.883 158.804 L 90.353 158.269 L 90.888 157.799 L 91.480 157.404 L 92.119 157.089 L 92.793 156.860 L 93.491 156.721 L 94.202 156.674 L 94.912 156.721 L 95.611 156.860 L 96.285 157.089 L 96.923 157.404 L 97.515 157.799 L 98.051 158.269 L 98.520 158.804 L 98.916 159.396 L 99.231 160.035 L 99.460 160.709 L 99.599 161.407 L 99.645 162.118 M 135.185 131.495 L 135.125 132.418 L 134.944 133.326 L 134.647 134.202 L 134.238 135.032 L 133.724 135.802 L 133.114 136.497 L 132.418 137.107 L 131.648 137.621 L 130.818 138.031 L 129.942 138.328 L 129.035 138.509 L 128.111 138.569 L 127.188 138.509 L 126.280 138.328 L 125.404 138.031 L 124.574 137.621 L 123.805 137.107 L 123.109 136.497 L 122.499 135.802 L 121.985 135.032 L 121.576 134.202 L 121.278 133.326 L 121.098 132.418 L 121.037 131.495 L 121.098 130.572 L 121.278 129.664 L 121.576 128.788 L 121.985 127.958 L 122.499 127.189 L 123.109 126.493 L 123.805 125.883 L 124.574 125.369 L 125.404 124.959 L 126.280 124.662 L 127.188 124.481 L 128.111 124.421 L 129.035 124.481 L 129.942 124.662 L 130.818 124.959 L 131.648 125.369 L 132.418 125.883 L 133.114 126.493 L 133.724 127.189 L 134.238 127.958 L 134.647 128.788 L 134.944 129.664 L 135.125 130.572 L 135.185 131.495 M 329.823 122.860 L 329.745 124.051 L 329.512 125.221 L 329.129 126.351 L 328.601 127.422 L 327.938 128.414 L 327.151 129.311 L 326.254 130.098 L 325.262 130.761 L 324.191 131.289 L 323.061 131.672 L 321.891 131.905 L 320.700 131.983 L 319.509 131.905 L 318.339 131.672 L 317.209 131.289 L 316.138 130.761 L 315.146 130.098 L 314.249 129.311 L 313.462 128.414 L 312.799 127.422 L 312.271 126.351 L 311.888 125.221 L 311.655 124.051 L 311.577 122.860 L 311.655 121.669 L 311.888 120.499 L 312.271 119.369 L 312.799 118.299 L 313.462 117.306 L 314.249 116.409 L 315.146 115.622 L 316.138 114.959 L 317.209 114.432 L 318.339 114.048 L 319.509 113.815 L 320.700 113.737 L 321.891 113.815 L 323.061 114.048 L 324.191 114.432 L 325.262 114.959 L 326.254 115.622 L 327.151 116.409 L 327.938 117.306 L 328.601 118.299 L 329.129 119.369 L 329.512 120.499 L 329.745 121.669 L 329.823 122.860 M 224.492 156.559 L 224.424 157.598 L 224.221 158.619 L 223.886 159.605 L 223.426 160.539 L 222.847 161.404 L 222.161 162.187 L 221.378 162.874 L 220.512 163.452 L 219.579 163.913 L 218.593 164.247 L 217.571 164.450 L 216.533 164.518 L 215.494 164.450 L 214.472 164.247 L 213.487 163.913 L 212.553 163.452 L 211.687 162.874 L 210.904 162.187 L 210.218 161.404 L 209.639 160.539 L 209.179 159.605 L 208.844 158.619 L 208.641 157.598 L 208.573 156.559 L 208.641 155.520 L 208.844 154.499 L 209.179 153.513 L 209.639 152.579 L 210.218 151.713 L 210.904 150.931 L 211.687 150.244 L 212.553 149.666 L 213.487 149.205 L 214.472 148.870 L 215.494 148.667 L 216.533 148.599 L 217.571 148.667 L 218.593 148.870 L 219.579 149.205 L 220.512 149.666 L 221.378 150.244 L 222.161 150.931 L 222.847 151.713 L 223.426 152.579 L 223.886 153.513 L 224.221 154.499 L 224.424 155.520 L 224.492 156.559 M 148.292 173.679 L 148.231 174.617 L 148.047 175.540 L 147.745 176.431 L 147.329 177.274 L 146.806 178.056 L 146.186 178.764 L 145.479 179.384 L 144.697 179.906 L 143.853 180.322 L 142.963 180.625 L 142.040 180.808 L 141.102 180.870 L 140.163 180.808 L 139.240 180.625 L 138.350 180.322 L 137.506 179.906 L 136.724 179.384 L 136.017 178.764 L 135.397 178.056 L 134.874 177.274 L 134.458 176.431 L 134.156 175.540 L 133.972 174.617 L 133.911 173.679 L 133.972 172.740 L 134.156 171.818 L 134.458 170.927 L 134.874 170.083 L 135.397 169.301 L 136.017 168.594 L 136.724 167.974 L 137.506 167.451 L 138.350 167.035 L 139.240 166.733 L 140.163 166.549 L 141.102 166.488 L 142.040 166.549 L 142.963 166.733 L 143.853 167.035 L 144.697 167.451 L 145.479 167.974 L 146.186 168.594 L 146.806 169.301 L 147.329 170.083 L 147.745 170.927 L 148.047 171.818 L 148.231 172.740 L 148.292 173.679 M 282.822 112.367 L 282.775 113.090 L 282.634 113.801 L 282.401 114.487 L 282.080 115.137 L 281.678 115.739 L 281.200 116.284 L 280.655 116.761 L 280.053 117.164 L 279.403 117.484 L 278.717 117.717 L 278.007 117.859 L 277.284 117.906 L 276.561 117.859 L 275.850 117.717 L 275.164 117.484 L 274.515 117.164 L 273.912 116.761 L 273.368 116.284 L 272.890 115.739 L 272.487 115.137 L 272.167 114.487 L 271.934 113.801 L 271.793 113.090 L 271.745 112.367 L 271.793 111.645 L 271.934 110.934 L 272.167 110.248 L 272.487 109.598 L 272.890 108.996 L 273.368 108.451 L 273.912 107.974 L 274.515 107.571 L 275.164 107.251 L 275.850 107.018 L 276.561 106.876 L 277.284 106.829 L 278.007 106.876 L 278.717 107.018 L 279.403 107.251 L 280.053 107.571 L 280.655 107.974 L 281.200 108.451 L 281.678 108.996 L 282.080 109.598 L 282.401 110.248 L 282.634 110.934 L 282.775 111.645 L 282.822 112.367 M 198.796 137.499 L 198.750 138.201 L 198.613 138.891 L 198.387 139.557 L 198.076 140.188 L 197.685 140.772 L 197.221 141.301 L 196.692 141.765 L 196.107 142.156 L 195.476 142.467 L 194.810 142.693 L 194.120 142.830 L 193.418 142.876 L 192.717 142.830 L 192.027 142.693 L 191.361 142.467 L 190.730 142.156 L 190.145 141.765 L 189.616 141.301 L 189.152 140.772 L 188.761 140.188 L 188.450 139.557 L 188.224 138.891 L 188.087 138.201 L 188.041 137.499 L 188.087 136.797 L 188.224 136.107 L 188.450 135.441 L 188.761 134.810 L 189.152 134.225 L 189.616 133.696 L 190.145 133.232 L 190.730 132.842 L 191.361 132.530 L 192.027 132.304 L 192.717 132.167 L 193.418 132.121 L 194.120 132.167 L 194.810 132.304 L 195.476 132.530 L 196.107 132.842 L 196.692 133.232 L 197.221 133.696 L 197.685 134.225 L 198.076 134.810 L 198.387 135.441 L 198.613 136.107 L 198.750 136.797 L 198.796 137.499 M 157.913 44.565 L 157.870 45.226 L 157.741 45.876 L 157.528 46.503 L 157.235 47.097 L 156.867 47.648 L 156.430 48.146 L 155.932 48.582 L 155.382 48.950 L 154.788 49.243 L 154.160 49.456 L 153.511 49.585 L 152.850 49.629 L 152.189 49.585 L 151.539 49.456 L 150.912 49.243 L 150.318 48.950 L 149.767 48.582 L 149.269 48.146 L 148.833 47.648 L 148.465 47.097 L 148.172 46.503 L 147.959 45.876 L 147.830 45.226 L 147.786 44.565 L 147.830 43.904 L 147.959 43.255 L 148.172 42.628 L 148.465 42.034 L 148.833 41.483 L 149.269 40.985 L 149.767 40.548 L 150.318 40.180 L 150.912 39.887 L 151.539 39.674 L 152.189 39.545 L 152.850 39.502 L 153.511 39.545 L 154.160 39.674 L 154.788 39.887 L 155.382 40.180 L 155.932 40.548 L 156.430 40.985 L 156.867 41.483 L 157.235 42.034 L 157.528 42.628 L 157.741 43.255 L 157.870 43.904 L 157.913 44.565 M 175.440 89.200 L 175.396 89.859 L 175.267 90.508 L 175.055 91.133 L 174.763 91.726 L 174.395 92.276 L 173.959 92.773 L 173.462 93.209 L 172.913 93.576 L 172.320 93.868 L 171.694 94.081 L 171.046 94.210 L 170.386 94.253 L 169.726 94.210 L 169.078 94.081 L 168.452 93.868 L 167.859 93.576 L 167.310 93.209 L 166.813 92.773 L 166.377 92.276 L 166.010 91.726 L 165.717 91.133 L 165.505 90.508 L 165.376 89.859 L 165.332 89.200 L 165.376 88.540 L 165.505 87.892 L 165.717 87.266 L 166.010 86.673 L 166.377 86.123 L 166.813 85.626 L 167.310 85.190 L 167.859 84.823 L 168.452 84.531 L 169.078 84.318 L 169.726 84.189 L 170.386 84.146 L 171.046 84.189 L 171.694 84.318 L 172.320 84.531 L 172.913 84.823 L 173.462 85.190 L 173.959 85.626 L 174.395 86.123 L 174.763 86.673 L 175.055 87.266 L 175.267 87.892 L 175.396 88.540 L 175.440 89.200 M 117.372 102.530 L 117.315 103.405 L 117.143 104.266 L 116.861 105.097 L 116.473 105.884 L 115.986 106.613 L 115.407 107.273 L 114.748 107.852 L 114.018 108.339 L 113.231 108.727 L 112.400 109.009 L 111.540 109.180 L 110.664 109.238 L 109.789 109.180 L 108.928 109.009 L 108.097 108.727 L 107.310 108.339 L 106.581 107.852 L 105.921 107.273 L 105.343 106.613 L 104.855 105.884 L 104.467 105.097 L 104.185 104.266 L 104.014 103.405 L 103.957 102.530 L 104.014 101.654 L 104.185 100.794 L 104.467 99.963 L 104.855 99.176 L 105.343 98.447 L 105.921 97.787 L 106.581 97.208 L 107.310 96.721 L 108.097 96.333 L 108.928 96.051 L 109.789 95.880 L 110.664 95.822 L 111.540 95.880 L 112.400 96.051 L 113.231 96.333 L 114.018 96.721 L 114.748 97.208 L 115.407 97.787 L 115.986 98.447 L 116.473 99.176 L 116.861 99.963 L 117.143 100.794 L 117.315 101.654 L 117.372 102.530 M 192.026 181.692 L 191.977 182.438 L 191.831 183.171 L 191.591 183.878 L 191.260 184.548 L 190.845 185.170 L 190.353 185.731 L 189.791 186.224 L 189.170 186.639 L 188.499 186.970 L 187.792 187.210 L 187.059 187.356 L 186.314 187.404 L 185.568 187.356 L 184.835 187.210 L 184.128 186.970 L 183.458 186.639 L 182.836 186.224 L 182.275 185.731 L 181.782 185.170 L 181.367 184.548 L 181.036 183.878 L 180.796 183.171 L 180.650 182.438 L 180.602 181.692 L 180.650 180.947 L 180.796 180.214 L 181.036 179.507 L 181.367 178.836 L 181.782 178.215 L 182.275 177.653 L 182.836 177.161 L 183.458 176.746 L 184.128 176.415 L 184.835 176.175 L 185.568 176.029 L 186.314 175.980 L 187.059 176.029 L 187.792 176.175 L 188.499 176.415 L 189.170 176.746 L 189.791 177.161 L 190.353 177.653 L 190.845 178.215 L 191.260 178.836 L 191.591 179.507 L 191.831 180.214 L 191.977 180.947 L 192.026 181.692 M 169.051 58.100 L 169.004 58.823 L 168.862 59.534 L 168.630 60.220 L 168.309 60.870 L 167.906 61.472 L 167.428 62.017 L 166.884 62.495 L 166.281 62.898 L 165.631 63.218 L 164.945 63.451 L 164.234 63.593 L 163.511 63.640 L 162.788 63.593 L 162.077 63.451 L 161.391 63.218 L 160.741 62.898 L 160.138 62.495 L 159.593 62.017 L 159.115 61.472 L 158.713 60.870 L 158.392 60.220 L 158.159 59.534 L 158.018 58.823 L 157.970 58.100 L 158.018 57.376 L 158.159 56.666 L 158.392 55.979 L 158.713 55.329 L 159.115 54.727 L 159.593 54.182 L 160.138 53.704 L 160.741 53.301 L 161.391 52.981 L 162.077 52.748 L 162.788 52.607 L 163.511 52.559 L 164.234 52.607 L 164.945 52.748 L 165.631 52.981 L 166.281 53.301 L 166.884 53.704 L 167.428 54.182 L 167.906 54.727 L 168.309 55.329 L 168.630 55.979 L 168.862 56.666 L 169.004 57.376 L 169.051 58.100 M 160.416 250.076 L 160.369 250.783 L 160.231 251.478 L 160.003 252.150 L 159.690 252.785 L 159.296 253.375 L 158.828 253.908 L 158.295 254.375 L 157.706 254.769 L 157.070 255.082 L 156.399 255.310 L 155.704 255.449 L 154.996 255.495 L 154.289 255.449 L 153.594 255.310 L 152.922 255.082 L 152.287 254.769 L 151.697 254.375 L 151.164 253.908 L 150.697 253.375 L 150.303 252.785 L 149.990 252.150 L 149.762 251.478 L 149.623 250.783 L 149.577 250.076 L 149.623 249.368 L 149.762 248.673 L 149.990 248.002 L 150.303 247.366 L 150.697 246.777 L 151.164 246.244 L 151.697 245.776 L 152.287 245.382 L 152.922 245.069 L 153.594 244.841 L 154.289 244.703 L 154.996 244.656 L 155.704 244.703 L 156.399 244.841 L 157.070 245.069 L 157.706 245.382 L 158.295 245.776 L 158.828 246.244 L 159.296 246.777 L 159.690 247.366 L 160.003 248.002 L 160.231 248.673 L 160.369 249.368 L 160.416 250.076 M 229.281 261.824 L 229.198 263.080 L 228.953 264.315 L 228.548 265.506 L 227.992 266.635 L 227.292 267.682 L 226.463 268.628 L 225.516 269.458 L 224.470 270.157 L 223.341 270.714 L 222.149 271.118 L 220.915 271.364 L 219.659 271.446 L 218.403 271.364 L 217.169 271.118 L 215.977 270.714 L 214.848 270.157 L 213.801 269.458 L 212.855 268.628 L 212.025 267.682 L 211.326 266.635 L 210.769 265.506 L 210.365 264.315 L 210.119 263.080 L 210.037 261.824 L 210.119 260.568 L 210.365 259.334 L 210.769 258.142 L 211.326 257.013 L 212.025 255.967 L 212.855 255.021 L 213.801 254.191 L 214.848 253.492 L 215.977 252.935 L 217.169 252.530 L 218.403 252.285 L 219.659 252.203 L 220.915 252.285 L 222.149 252.530 L 223.341 252.935 L 224.470 253.492 L 225.516 254.191 L 226.463 255.021 L 227.292 255.967 L 227.992 257.013 L 228.548 258.142 L 228.953 259.334 L 229.198 260.568 L 229.281 261.824 M 221.830 82.429 L 221.761 83.481 L 221.556 84.515 L 221.217 85.513 L 220.751 86.458 L 220.165 87.335 L 219.470 88.128 L 218.677 88.823 L 217.801 89.408 L 216.855 89.875 L 215.857 90.214 L 214.823 90.419 L 213.771 90.488 L 212.719 90.419 L 211.685 90.214 L 210.687 89.875 L 209.741 89.408 L 208.865 88.823 L 208.072 88.128 L 207.377 87.335 L 206.791 86.458 L 206.325 85.513 L 205.986 84.515 L 205.780 83.481 L 205.711 82.429 L 205.780 81.377 L 205.986 80.343 L 206.325 79.344 L 206.791 78.399 L 207.377 77.522 L 208.072 76.730 L 208.865 76.035 L 209.741 75.449 L 210.687 74.983 L 211.685 74.644 L 212.719 74.438 L 213.771 74.369 L 214.823 74.438 L 215.857 74.644 L 216.855 74.983 L 217.801 75.449 L 218.677 76.035 L 219.470 76.730 L 220.165 77.522 L 220.751 78.399 L 221.217 79.344 L 221.556 80.343 L 221.761 81.377 L 221.830 82.429 M 136.990 74.228 L 136.940 74.996 L 136.790 75.751 L 136.542 76.480 L 136.201 77.171 L 135.774 77.811 L 135.266 78.390 L 134.687 78.898 L 134.047 79.326 L 133.356 79.666 L 132.627 79.914 L 131.872 80.064 L 131.104 80.114 L 130.335 80.064 L 129.580 79.914 L 128.851 79.666 L 128.161 79.326 L 127.520 78.898 L 126.941 78.390 L 126.434 77.811 L 126.006 77.171 L 125.665 76.480 L 125.418 75.751 L 125.268 74.996 L 125.217 74.228 L 125.268 73.459 L 125.418 72.704 L 125.665 71.975 L 126.006 71.285 L 126.434 70.644 L 126.941 70.065 L 127.520 69.558 L 128.161 69.130 L 128.851 68.789 L 129.580 68.542 L 130.335 68.392 L 131.104 68.341 L 131.872 68.392 L 132.627 68.542 L 133.356 68.789 L 134.047 69.130 L 134.687 69.558 L 135.266 70.065 L 135.774 70.644 L 136.201 71.285 L 136.542 71.975 L 136.790 72.704 L 136.940 73.459 L 136.990 74.228 M 144.619 191.080 L 144.554 192.078 L 144.359 193.058 L 144.037 194.005 L 143.595 194.901 L 143.040 195.732 L 142.381 196.484 L 141.629 197.143 L 140.798 197.698 L 139.901 198.141 L 138.955 198.462 L 137.974 198.657 L 136.977 198.722 L 135.979 198.657 L 134.999 198.462 L 134.052 198.141 L 133.156 197.698 L 132.325 197.143 L 131.573 196.484 L 130.914 195.732 L 130.359 194.901 L 129.917 194.005 L 129.595 193.058 L 129.400 192.078 L 129.335 191.080 L 129.400 190.083 L 129.595 189.102 L 129.917 188.156 L 130.359 187.259 L 130.914 186.428 L 131.573 185.676 L 132.325 185.017 L 133.156 184.462 L 134.052 184.020 L 134.999 183.699 L 135.979 183.504 L 136.977 183.438 L 137.974 183.504 L 138.955 183.699 L 139.901 184.020 L 140.798 184.462 L 141.629 185.017 L 142.381 185.676 L 143.040 186.428 L 143.595 187.259 L 144.037 188.156 L 144.359 189.102 L 144.554 190.083 L 144.619 191.080 M 130.498 220.870 L 130.444 221.696 L 130.283 222.508 L 130.017 223.293 L 129.650 224.035 L 129.190 224.724 L 128.644 225.346 L 128.022 225.892 L 127.333 226.352 L 126.590 226.719 L 125.806 226.985 L 124.994 227.147 L 124.168 227.201 L 123.341 227.147 L 122.529 226.985 L 121.745 226.719 L 121.002 226.352 L 120.314 225.892 L 119.691 225.346 L 119.145 224.724 L 118.685 224.035 L 118.319 223.293 L 118.052 222.508 L 117.891 221.696 L 117.837 220.870 L 117.891 220.043 L 118.052 219.231 L 118.319 218.447 L 118.685 217.704 L 119.145 217.016 L 119.691 216.393 L 120.314 215.847 L 121.002 215.387 L 121.745 215.021 L 122.529 214.755 L 123.341 214.593 L 124.168 214.539 L 124.994 214.593 L 125.806 214.755 L 126.590 215.021 L 127.333 215.387 L 128.022 215.847 L 128.644 216.393 L 129.190 217.016 L 129.650 217.704 L 130.017 218.447 L 130.283 219.231 L 130.444 220.043 L 130.498 220.870 M 260.213 226.950 L 260.169 227.628 L 260.036 228.294 L 259.818 228.937 L 259.518 229.546 L 259.141 230.110 L 258.693 230.621 L 258.182 231.068 L 257.618 231.446 L 257.009 231.746 L 256.366 231.964 L 255.700 232.097 L 255.022 232.141 L 254.345 232.097 L 253.679 231.964 L 253.036 231.746 L 252.427 231.446 L 251.862 231.068 L 251.352 230.621 L 250.904 230.110 L 250.527 229.546 L 250.227 228.937 L 250.008 228.294 L 249.876 227.628 L 249.831 226.950 L 249.876 226.273 L 250.008 225.607 L 250.227 224.964 L 250.527 224.355 L 250.904 223.790 L 251.352 223.280 L 251.862 222.832 L 252.427 222.455 L 253.036 222.154 L 253.679 221.936 L 254.345 221.804 L 255.022 221.759 L 255.700 221.804 L 256.366 221.936 L 257.009 222.154 L 257.618 222.455 L 258.182 222.832 L 258.693 223.280 L 259.141 223.790 L 259.518 224.355 L 259.818 224.964 L 260.036 225.607 L 260.169 226.273 L 260.213 226.950 M 311.496 217.266 L 311.445 218.053 L 311.291 218.828 L 311.037 219.575 L 310.688 220.283 L 310.249 220.939 L 309.729 221.533 L 309.135 222.053 L 308.479 222.492 L 307.771 222.841 L 307.023 223.095 L 306.249 223.249 L 305.461 223.300 L 304.674 223.249 L 303.899 223.095 L 303.152 222.841 L 302.444 222.492 L 301.788 222.053 L 301.194 221.533 L 300.674 220.939 L 300.235 220.283 L 299.886 219.575 L 299.632 218.828 L 299.478 218.053 L 299.427 217.266 L 299.478 216.478 L 299.632 215.704 L 299.886 214.956 L 300.235 214.248 L 300.674 213.592 L 301.194 212.998 L 301.788 212.478 L 302.444 212.039 L 303.152 211.690 L 303.899 211.436 L 304.674 211.282 L 305.461 211.231 L 306.249 211.282 L 307.023 211.436 L 307.771 211.690 L 308.479 212.039 L 309.135 212.478 L 309.729 212.998 L 310.249 213.592 L 310.688 214.248 L 311.037 214.956 L 311.291 215.704 L 311.445 216.478 L 311.496 217.266 M 225.874 31.677 L 225.832 32.323 L 225.705 32.959 L 225.497 33.572 L 225.210 34.154 L 224.850 34.692 L 224.423 35.179 L 223.936 35.607 L 223.397 35.967 L 222.816 36.253 L 222.203 36.461 L 221.567 36.588 L 220.921 36.630 L 220.274 36.588 L 219.639 36.461 L 219.025 36.253 L 218.444 35.967 L 217.905 35.607 L 217.418 35.179 L 216.991 34.692 L 216.631 34.154 L 216.344 33.572 L 216.136 32.959 L 216.010 32.323 L 215.967 31.677 L 216.010 31.030 L 216.136 30.395 L 216.344 29.781 L 216.631 29.200 L 216.991 28.661 L 217.418 28.174 L 217.905 27.747 L 218.444 27.387 L 219.025 27.101 L 219.639 26.892 L 220.274 26.766 L 220.921 26.724 L 221.567 26.766 L 222.203 26.892 L 222.816 27.101 L 223.397 27.387 L 223.936 27.747 L 224.423 28.174 L 224.850 28.661 L 225.210 29.200 L 225.497 29.781 L 225.705 30.395 L 225.832 31.030 L 225.874 31.677" fill="none" stroke="#2dd4bf" stroke-width="1" vector-effect="non-scaling-stroke"/></svg>