<svg xmlns="http://www.w3.org/2000/svg" viewBox="86.16619156299402 19.975859705025073 249.16682428439861 258.4601112297263" width="249.16682428439861" height="258.4601112297263" shape-rendering="geometricPrecision"><rect x="86.16619156299402" y="19.975859705025073" width="249.16682428439861" height="258.4601112297263" fill="#0b0f14"/><path d="M 270.899 214.777 L 270.740 217.202 L 270.266 219.585 L 269.485 221.886 L 268.410 224.066 L 267.060 226.087 L 265.458 227.914 L 263.630 229.516 L 261.610 230.866 L 259.430 231.941 L 257.129 232.722 L 254.746 233.196 L 252.321 233.355 L 249.896 233.196 L 247.512 232.722 L 245.211 231.941 L 243.032 230.866 L 241.011 229.516 L 239.184 227.914 L 237.581 226.087 L 236.231 224.066 L 235.157 221.886 L 234.375 219.585 L 233.901 217.202 L 233.742 214.777 L 233.901 212.352 L 234.375 209.968 L 235.157 207.667 L 236.231 205.488 L 237.581 203.467 L 239.184 201.640 L 241.011 200.038 L 243.032 198.688 L 245.211 197.613 L 247.512 196.832 L 249.896 196.357 L 252.321 196.198 L 254.746 196.357 L 257.129 196.832 L 259.430 197.613 L 261.610 198.688 L 263.630 200.038 L 265.458 201.640 L 267.060 203.467 L 268.410 205.488 L 269.485 207.667 L 270.266 209.968 L 270.740 212.352 L 270.899 214.777 M 129.188 156.756 L 129.077 158.445 L 128.747 160.105 L 128.203 161.707 L 127.454 163.225 L 126.514 164.632 L 125.398 165.905 L 124.126 167.021 L 122.719 167.961 L 121.201 168.709 L 119.598 169.253 L 117.939 169.584 L 116.250 169.694 L 114.561 169.584 L 112.901 169.253 L 111.299 168.709 L 109.781 167.961 L 108.374 167.021 L 107.101 165.905 L 105.986 164.632 L 105.045 163.225 L 104.297 161.707 L 103.753 160.105 L 103.423 158.445 L 103.312 156.756 L 103.423 155.068 L 103.753 153.408 L 104.297 151.805 L 105.045 150.287 L 105.986 148.880 L 107.101 147.608 L 108.374 146.492 L 109.781 145.552 L 111.299 144.803 L 112.901 144.259 L 114.561 143.929 L 116.250 143.819 L 117.939 143.929 L 119.598 144.259 L 121.201 144.803 L 122.719 145.552 L 124.126 146.492 L 125.398 147.608 L 126.514 148.880 L 127.454 150.287 L 128.203 151.805 L 128.747 153.408 L 129.077 155.068 L 129.188 156.756 M 291.651 145.588 L 291.592 146.500 L 291.414 147.395 L 291.120 148.260 L 290.716 149.079 L 290.209 149.839 L 289.607 150.525 L 288.920 151.127 L 288.161 151.635 L 287.341 152.039 L 286.477 152.332 L 285.581 152.511 L 284.670 152.570 L 283.758 152.511 L 282.863 152.332 L 281.998 152.039 L 281.179 151.635 L 280.419 151.127 L 279.733 150.525 L 279.130 149.839 L 278.623 149.079 L 278.219 148.260 L 277.926 147.395 L 277.747 146.500 L 277.688 145.588 L 277.747 144.677 L 277.926 143.781 L 278.219 142.917 L 278.623 142.097 L 279.130 141.338 L 279.733 140.651 L 280.419 140.049 L 281.179 139.542 L 281.998 139.138 L 282.863 138.844 L 283.758 138.666 L 284.670 138.606 L 285.581 138.666 L 286.477 138.844 L 287.341 139.138 L 288.161 139.542 L 288.920 140.049 L 289.607 140.651 L 290.209 141.338 L 290.716 142.097 L 291.120 142.917 L 291.414 143.781 L 291.592 144.677 L 291.651 145.588 M 291.867 192.820 L 291.754 194.547 L 291.417 196.244 L 290.860 197.883 L 290.095 199.435 L 289.134 200.874 L 287.993 202.175 L 286.692 203.315 L 285.253 204.277 L 283.701 205.042 L 282.062 205.598 L 280.365 205.936 L 278.638 206.049 L 276.912 205.936 L 275.215 205.598 L 273.576 205.042 L 272.024 204.277 L 270.585 203.315 L 269.284 202.175 L 268.143 200.874 L 267.182 199.435 L 266.416 197.883 L 265.860 196.244 L 265.523 194.547 L 265.409 192.820 L 265.523 191.094 L 265.860 189.396 L 266.416 187.758 L 267.182 186.206 L 268.143 184.767 L 269.284 183.466 L 270.585 182.325 L 272.024 181.364 L 273.576 180.598 L 275.215 180.042 L 276.912 179.704 L 278.638 179.591 L 280.365 179.704 L 282.062 180.042 L 283.701 180.598 L 285.253 181.364 L 286.692 182.325 L 287.993 183.466 L 289.134 184.767 L 290.095 186.206 L 290.860 187.758 L 291.417 189.396 L 291.754 191.094 L 291.867 192.820 M 253.906 162.037 L 253.763 164.222 L 253.336 166.369 L 252.632 168.442 L 251.664 170.405 L 250.448 172.226 L 249.004 173.872 L 247.358 175.315 L 245.538 176.531 L 243.575 177.500 L 241.502 178.203 L 239.354 178.630 L 237.170 178.774 L 234.985 178.630 L 232.838 178.203 L 230.765 177.500 L 228.802 176.531 L 226.981 175.315 L 225.335 173.872 L 223.892 172.226 L 222.676 170.405 L 221.707 168.442 L 221.004 166.369 L 220.577 164.222 L 220.433 162.037 L 220.577 159.852 L 221.004 157.705 L 221.707 155.632 L 222.676 153.669 L 223.892 151.848 L 225.335 150.203 L 226.981 148.759 L 228.802 147.543 L 230.765 146.575 L 232.838 145.871 L 234.985 145.444 L 237.170 145.301 L 239.354 145.444 L 241.502 145.871 L 243.575 146.575 L 245.538 147.543 L 247.358 148.759 L 249.004 150.203 L 250.448 151.848 L 251.664 153.669 L 252.632 155.632 L 253.336 157.705 L 253.763 159.852 L 253.906 162.037 M 225.411 70.168 L 225.282 72.146 L 224.895 74.091 L 224.258 75.968 L 223.381 77.746 L 222.279 79.395 L 220.972 80.885 L 219.481 82.193 L 217.833 83.294 L 216.055 84.171 L 214.177 84.808 L 212.233 85.195 L 210.254 85.325 L 208.276 85.195 L 206.331 84.808 L 204.454 84.171 L 202.676 83.294 L 201.027 82.193 L 199.537 80.885 L 198.230 79.395 L 197.128 77.746 L 196.251 75.968 L 195.614 74.091 L 195.227 72.146 L 195.097 70.168 L 195.227 68.189 L 195.614 66.245 L 196.251 64.368 L 197.128 62.589 L 198.230 60.941 L 199.537 59.450 L 201.027 58.143 L 202.676 57.042 L 204.454 56.165 L 206.331 55.527 L 208.276 55.141 L 210.254 55.011 L 212.233 55.141 L 214.177 55.527 L 216.055 56.165 L 217.833 57.042 L 219.481 58.143 L 220.972 59.450 L 222.279 60.941 L 223.381 62.589 L 224.258 64.368 L 224.895 66.245 L 225.282 68.189 L 225.411 70.168 M 298.197 98.408 L 298.062 100.453 L 297.663 102.463 L 297.004 104.404 L 296.097 106.242 L 294.959 107.946 L 293.607 109.487 L 292.066 110.838 L 290.362 111.977 L 288.524 112.884 L 286.583 113.542 L 284.573 113.942 L 282.528 114.076 L 280.483 113.942 L 278.473 113.542 L 276.532 112.884 L 274.694 111.977 L 272.989 110.838 L 271.449 109.487 L 270.097 107.946 L 268.959 106.242 L 268.052 104.404 L 267.393 102.463 L 266.993 100.453 L 266.859 98.408 L 266.993 96.363 L 267.393 94.352 L 268.052 92.412 L 268.959 90.573 L 270.097 88.869 L 271.449 87.328 L 272.989 85.977 L 274.694 84.838 L 276.532 83.932 L 278.473 83.273 L 280.483 82.873 L 282.528 82.739 L 284.573 82.873 L 286.583 83.273 L 288.524 83.932 L 290.362 84.838 L 292.066 85.977 L 293.607 87.328 L 294.959 88.869 L 296.097 90.573 L 297.004 92.412 L 297.663 94.352 L 298.062 96.363 L 298.197 98.408 M 167.686 119.205 L 167.596 120.581 L 167.327 121.932 L 166.884 123.237 L 166.274 124.473 L 165.509 125.619 L 164.600 126.655 L 163.564 127.564 L 162.418 128.329 L 161.182 128.939 L 159.877 129.382 L 158.526 129.651 L 157.151 129.741 L 155.775 129.651 L 154.424 129.382 L 153.119 128.939 L 151.883 128.329 L 150.737 127.564 L 149.701 126.655 L 148.792 125.619 L 148.027 124.473 L 147.417 123.237 L 146.974 121.932 L 146.705 120.581 L 146.615 119.205 L 146.705 117.830 L 146.974 116.479 L 147.417 115.174 L 148.027 113.938 L 148.792 112.792 L 149.701 111.756 L 150.737 110.847 L 151.883 110.081 L 153.119 109.472 L 154.424 109.029 L 155.775 108.760 L 157.151 108.670 L 158.526 108.760 L 159.877 109.029 L 161.182 109.472 L 162.418 110.081 L 163.564 110.847 L 164.600 111.756 L 165.509 112.792 L 166.274 113.938 L 166.884 115.174 L 167.327 116.479 L 167.596 117.830 L 167.686 119.205 M 179.998 65.271 L 179.800 68.297 L 179.208 71.271 L 178.233 74.142 L 176.892 76.861 L 175.208 79.382 L 173.209 81.662 L 170.929 83.661 L 168.408 85.346 L 165.688 86.687 L 162.817 87.662 L 159.843 88.253 L 156.818 88.451 L 153.792 88.253 L 150.818 87.662 L 147.947 86.687 L 145.227 85.346 L 142.706 83.661 L 140.427 81.662 L 138.427 79.382 L 136.743 76.861 L 135.402 74.142 L 134.427 71.271 L 133.836 68.297 L 133.637 65.271 L 133.836 62.245 L 134.427 59.272 L 135.402 56.400 L 136.743 53.681 L 138.427 51.160 L 140.427 48.880 L 142.706 46.881 L 145.227 45.196 L 147.947 43.855 L 150.818 42.881 L 153.792 42.289 L 156.818 42.091 L 159.843 42.289 L 162.817 42.881 L 165.688 43.855 L 168.408 45.196 L 170.929 46.881 L 173.209 48.880 L 175.208 51.160 L 176.892 53.681 L 178.233 56.400 L 179.208 59.272 L 179.800 62.245 L 179.998 65.271 M 243.907 122.402 L 243.763 124.595 L 243.335 126.751 L 242.628 128.833 L 241.656 130.805 L 240.434 132.633 L 238.985 134.285 L 237.332 135.735 L 235.504 136.956 L 233.532 137.929 L 231.451 138.635 L 229.295 139.064 L 227.101 139.208 L 224.907 139.064 L 222.751 138.635 L 220.670 137.929 L 218.698 136.956 L 216.870 135.735 L 215.217 134.285 L 213.768 132.633 L 212.547 130.805 L 211.574 128.833 L 210.868 126.751 L 210.439 124.595 L 210.295 122.402 L 210.439 120.208 L 210.868 118.052 L 211.574 115.970 L 212.547 113.999 L 213.768 112.171 L 215.217 110.518 L 216.870 109.068 L 218.698 107.847 L 220.670 106.875 L 222.751 106.168 L 224.907 105.739 L 227.101 105.596 L 229.295 105.739 L 231.451 106.168 L 233.532 106.875 L 235.504 107.847 L 237.332 109.068 L 238.985 110.518 L 240.434 112.171 L 241.656 113.999 L 242.628 115.970 L 243.335 118.052 L 243.763 120.208 L 243.907 122.402 M 167.000 212.668 L 166.807 215.617 L 166.231 218.514 L 165.281 221.312 L 163.975 223.962 L 162.333 226.418 L 160.385 228.639 L 158.164 230.587 L 155.707 232.229 L 153.058 233.535 L 150.260 234.485 L 147.362 235.061 L 144.414 235.255 L 141.466 235.061 L 138.569 234.485 L 135.771 233.535 L 133.121 232.229 L 130.665 230.587 L 128.444 228.639 L 126.496 226.418 L 124.854 223.962 L 123.548 221.312 L 122.598 218.514 L 122.022 215.617 L 121.828 212.668 L 122.022 209.720 L 122.598 206.823 L 123.548 204.025 L 124.854 201.375 L 126.496 198.919 L 128.444 196.698 L 130.665 194.750 L 133.121 193.108 L 135.771 191.802 L 138.569 190.852 L 141.466 190.276 L 144.414 190.082 L 147.362 190.276 L 150.260 190.852 L 153.058 191.802 L 155.707 193.108 L 158.164 194.750 L 160.385 196.698 L 162.333 198.919 L 163.975 201.375 L 165.281 204.025 L 166.231 206.823 L 166.807 209.720 L 167.000 212.668 M 123.139 185.685 L 123.048 187.073 L 122.776 188.438 L 122.329 189.755 L 121.714 191.003 L 120.941 192.159 L 120.024 193.205 L 118.978 194.122 L 117.821 194.895 L 116.574 195.510 L 115.257 195.957 L 113.892 196.229 L 112.504 196.320 L 111.116 196.229 L 109.752 195.957 L 108.435 195.510 L 107.187 194.895 L 106.030 194.122 L 104.985 193.205 L 104.067 192.159 L 103.295 191.003 L 102.679 189.755 L 102.232 188.438 L 101.961 187.073 L 101.870 185.685 L 101.961 184.297 L 102.232 182.933 L 102.679 181.616 L 103.295 180.368 L 104.067 179.212 L 104.985 178.166 L 106.030 177.249 L 107.187 176.476 L 108.435 175.861 L 109.752 175.413 L 111.116 175.142 L 112.504 175.051 L 113.892 175.142 L 115.257 175.413 L 116.574 175.861 L 117.821 176.476 L 118.978 177.249 L 120.024 178.166 L 120.941 179.212 L 121.714 180.368 L 122.329 181.616 L 122.776 182.933 L 123.048 184.297 L 123.139 185.685 M 283.921 242.309 L 283.854 243.336 L 283.653 244.346 L 283.322 245.321 L 282.867 246.244 L 282.295 247.100 L 281.616 247.875 L 280.842 248.553 L 279.986 249.125 L 279.062 249.581 L 278.087 249.912 L 277.078 250.113 L 276.050 250.180 L 275.023 250.113 L 274.013 249.912 L 273.038 249.581 L 272.115 249.125 L 271.259 248.553 L 270.485 247.875 L 269.806 247.100 L 269.234 246.244 L 268.778 245.321 L 268.447 244.346 L 268.247 243.336 L 268.179 242.309 L 268.247 241.281 L 268.447 240.272 L 268.778 239.297 L 269.234 238.373 L 269.806 237.517 L 270.485 236.743 L 271.259 236.064 L 272.115 235.492 L 273.038 235.037 L 274.013 234.706 L 275.023 234.505 L 276.050 234.438 L 277.078 234.505 L 278.087 234.706 L 279.062 235.037 L 279.986 235.492 L 280.842 236.064 L 281.616 236.743 L 282.295 237.517 L 282.867 238.373 L 283.322 239.297 L 283.653 240.272 L 283.854 241.281 L 283.921 242.309 M 320.363 193.988 L 320.250 195.708 L 319.914 197.398 L 319.360 199.030 L 318.598 200.576 L 317.640 202.009 L 316.504 203.305 L 315.208 204.441 L 313.775 205.399 L 312.229 206.161 L 310.597 206.715 L 308.907 207.051 L 307.187 207.164 L 305.467 207.051 L 303.777 206.715 L 302.145 206.161 L 300.599 205.399 L 299.166 204.441 L 297.870 203.305 L 296.734 202.009 L 295.776 200.576 L 295.014 199.030 L 294.460 197.398 L 294.124 195.708 L 294.011 193.988 L 294.124 192.268 L 294.460 190.578 L 295.014 188.946 L 295.776 187.400 L 296.734 185.967 L 297.870 184.671 L 299.166 183.535 L 300.599 182.577 L 302.145 181.815 L 303.777 181.261 L 305.467 180.925 L 307.187 180.812 L 308.907 180.925 L 310.597 181.261 L 312.229 181.815 L 313.775 182.577 L 315.208 183.535 L 316.504 184.671 L 317.640 185.967 L 318.598 187.400 L 319.360 188.946 L 319.914 190.578 L 320.250 192.268 L 320.363 193.988 M 166.743 169.983 L 166.586 172.369 L 166.120 174.714 L 165.351 176.978 L 164.294 179.122 L 162.966 181.110 L 161.389 182.907 L 159.592 184.484 L 157.604 185.812 L 155.459 186.869 L 153.196 187.638 L 150.851 188.104 L 148.465 188.261 L 146.079 188.104 L 143.734 187.638 L 141.470 186.869 L 139.326 185.812 L 137.338 184.484 L 135.541 182.907 L 133.964 181.110 L 132.636 179.122 L 131.578 176.978 L 130.810 174.714 L 130.344 172.369 L 130.187 169.983 L 130.344 167.597 L 130.810 165.252 L 131.578 162.988 L 132.636 160.844 L 133.964 158.856 L 135.541 157.059 L 137.338 155.482 L 139.326 154.154 L 141.470 153.097 L 143.734 152.328 L 146.079 151.862 L 148.465 151.705 L 150.851 151.862 L 153.196 152.328 L 155.459 153.097 L 157.604 154.154 L 159.592 155.482 L 161.389 157.059 L 162.966 158.856 L 164.294 160.844 L 165.351 162.988 L 166.120 165.252 L 166.586 167.597 L 166.743 169.983 M 200.462 211.335 L 200.371 212.724 L 200.100 214.089 L 199.652 215.407 L 199.037 216.655 L 198.264 217.812 L 197.346 218.858 L 196.300 219.776 L 195.143 220.549 L 193.894 221.164 L 192.577 221.612 L 191.212 221.883 L 189.823 221.974 L 188.434 221.883 L 187.069 221.612 L 185.752 221.164 L 184.504 220.549 L 183.346 219.776 L 182.300 218.858 L 181.383 217.812 L 180.609 216.655 L 179.994 215.407 L 179.547 214.089 L 179.275 212.724 L 179.184 211.335 L 179.275 209.947 L 179.547 208.582 L 179.994 207.264 L 180.609 206.016 L 181.383 204.859 L 182.300 203.812 L 183.346 202.895 L 184.504 202.122 L 185.752 201.506 L 187.069 201.059 L 188.434 200.787 L 189.823 200.696 L 191.212 200.787 L 192.577 201.059 L 193.894 201.506 L 195.143 202.122 L 196.300 202.895 L 197.346 203.812 L 198.264 204.859 L 199.037 206.016 L 199.652 207.264 L 200.100 208.582 L 200.371 209.947 L 200.462 211.335 M 243.350 251.111 L 243.197 253.442 L 242.742 255.732 L 241.991 257.944 L 240.958 260.038 L 239.661 261.980 L 238.121 263.736 L 236.365 265.276 L 234.423 266.573 L 232.328 267.606 L 230.117 268.357 L 227.826 268.813 L 225.496 268.966 L 223.165 268.813 L 220.875 268.357 L 218.663 267.606 L 216.569 266.573 L 214.627 265.276 L 212.871 263.736 L 211.331 261.980 L 210.033 260.038 L 209.000 257.944 L 208.250 255.732 L 207.794 253.442 L 207.641 251.111 L 207.794 248.781 L 208.250 246.490 L 209.000 244.279 L 210.033 242.184 L 211.331 240.242 L 212.871 238.486 L 214.627 236.946 L 216.569 235.649 L 218.663 234.616 L 220.875 233.865 L 223.165 233.409 L 225.496 233.257 L 227.826 233.409 L 230.117 233.865 L 232.328 234.616 L 234.423 235.649 L 236.365 236.946 L 238.121 238.486 L 239.661 240.242 L 240.958 242.184 L 241.991 244.279 L 242.742 246.490 L 243.197 248.781 L 243.350 251.111 M 211.806 135.578 L 211.742 136.555 L 211.551 137.516 L 211.236 138.443 L 210.803 139.321 L 210.259 140.136 L 209.613 140.872 L 208.877 141.518 L 208.062 142.062 L 207.184 142.495 L 206.256 142.810 L 205.296 143.001 L 204.319 143.065 L 203.341 143.001 L 202.381 142.810 L 201.453 142.495 L 200.575 142.062 L 199.761 141.518 L 199.024 140.872 L 198.378 140.136 L 197.834 139.321 L 197.401 138.443 L 197.086 137.516 L 196.895 136.555 L 196.831 135.578 L 196.895 134.601 L 197.086 133.640 L 197.401 132.713 L 197.834 131.834 L 198.378 131.020 L 199.024 130.283 L 199.761 129.638 L 200.575 129.094 L 201.453 128.660 L 202.381 128.346 L 203.341 128.155 L 204.319 128.090 L 205.296 128.155 L 206.256 128.346 L 207.184 128.660 L 208.062 129.094 L 208.877 129.638 L 209.613 130.283 L 210.259 131.020 L 210.803 131.834 L 211.236 132.713 L 211.551 133.640 L 211.742 134.601 L 211.806 135.578 M 240.260 48.406 L 240.184 49.573 L 239.955 50.720 L 239.579 51.827 L 239.062 52.876 L 238.412 53.849 L 237.641 54.728 L 236.762 55.499 L 235.790 56.149 L 234.741 56.666 L 233.633 57.042 L 232.486 57.270 L 231.319 57.347 L 230.152 57.270 L 229.005 57.042 L 227.898 56.666 L 226.849 56.149 L 225.877 55.499 L 224.997 54.728 L 224.226 53.849 L 223.576 52.876 L 223.059 51.827 L 222.683 50.720 L 222.455 49.573 L 222.379 48.406 L 222.455 47.239 L 222.683 46.092 L 223.059 44.984 L 223.576 43.935 L 224.226 42.963 L 224.997 42.084 L 225.877 41.313 L 226.849 40.663 L 227.898 40.146 L 229.005 39.770 L 230.152 39.542 L 231.319 39.465 L 232.486 39.542 L 233.633 39.770 L 234.741 40.146 L 235.790 40.663 L 236.762 41.313 L 237.641 42.084 L 238.412 42.963 L 239.062 43.935 L 239.579 44.984 L 239.955 46.092 L 240.184 47.239 L 240.260 48.406 M 201.387 103.384 L 201.301 104.693 L 201.045 105.979 L 200.624 107.221 L 200.044 108.397 L 199.315 109.487 L 198.451 110.473 L 197.465 111.338 L 196.374 112.066 L 195.198 112.646 L 193.957 113.068 L 192.670 113.324 L 191.362 113.409 L 190.053 113.324 L 188.767 113.068 L 187.526 112.646 L 186.349 112.066 L 185.259 111.338 L 184.273 110.473 L 183.409 109.487 L 182.680 108.397 L 182.100 107.221 L 181.679 105.979 L 181.423 104.693 L 181.337 103.384 L 181.423 102.076 L 181.679 100.790 L 182.100 99.548 L 182.680 98.372 L 183.409 97.281 L 184.273 96.296 L 185.259 95.431 L 186.349 94.702 L 187.526 94.122 L 188.767 93.701 L 190.053 93.445 L 191.362 93.359 L 192.670 93.445 L 193.957 93.701 L 195.198 94.122 L 196.374 94.702 L 197.465 95.431 L 198.451 96.296 L 199.315 97.281 L 200.044 98.372 L 200.624 99.548 L 201.045 100.790 L 201.301 102.076 L 201.387 103.384 M 263.063 72.013 L 262.997 73.017 L 262.801 74.004 L 262.477 74.956 L 262.032 75.859 L 261.473 76.695 L 260.810 77.452 L 260.053 78.115 L 259.217 78.674 L 258.314 79.119 L 257.362 79.443 L 256.375 79.639 L 255.371 79.705 L 254.367 79.639 L 253.380 79.443 L 252.427 79.119 L 251.525 78.674 L 250.688 78.115 L 249.932 77.452 L 249.268 76.695 L 248.709 75.859 L 248.264 74.956 L 247.941 74.004 L 247.744 73.017 L 247.679 72.013 L 247.744 71.009 L 247.941 70.022 L 248.264 69.069 L 248.709 68.167 L 249.268 67.330 L 249.932 66.574 L 250.688 65.910 L 251.525 65.351 L 252.427 64.906 L 253.380 64.583 L 254.367 64.386 L 255.371 64.321 L 256.375 64.386 L 257.362 64.583 L 258.314 64.906 L 259.217 65.351 L 260.053 65.910 L 260.810 66.574 L 261.473 67.330 L 262.032 68.167 L 262.477 69.069 L 262.801 70.022 L 262.997 71.009 L 263.063 72.013 M 323.299 120.229 L 323.167 122.245 L 322.773 124.226 L 322.124 126.139 L 321.230 127.950 L 320.108 129.630 L 318.776 131.149 L 317.257 132.481 L 315.578 133.603 L 313.766 134.497 L 311.853 135.146 L 309.872 135.540 L 307.856 135.672 L 305.840 135.540 L 303.859 135.146 L 301.946 134.497 L 300.134 133.603 L 298.455 132.481 L 296.936 131.149 L 295.604 129.630 L 294.482 127.950 L 293.588 126.139 L 292.939 124.226 L 292.545 122.245 L 292.413 120.229 L 292.545 118.213 L 292.939 116.232 L 293.588 114.319 L 294.482 112.507 L 295.604 110.827 L 296.936 109.309 L 298.455 107.977 L 300.134 106.854 L 301.946 105.961 L 303.859 105.312 L 305.840 104.918 L 307.856 104.785 L 309.872 104.918 L 311.853 105.312 L 313.766 105.961 L 315.578 106.854 L 317.257 107.977 L 318.776 109.309 L 320.108 110.827 L 321.230 112.507 L 322.124 114.319 L 322.773 116.232 L 323.167 118.213 L 323.299 120.229 M 221.782 200.731 L 221.686 202.204 L 221.398 203.652 L 220.923 205.049 L 220.271 206.373 L 219.451 207.600 L 218.477 208.710 L 217.368 209.683 L 216.141 210.503 L 214.817 211.156 L 213.419 211.630 L 211.972 211.918 L 210.499 212.015 L 209.026 211.918 L 207.578 211.630 L 206.181 211.156 L 204.857 210.503 L 203.630 209.683 L 202.520 208.710 L 201.547 207.600 L 200.727 206.373 L 200.074 205.049 L 199.600 203.652 L 199.312 202.204 L 199.215 200.731 L 199.312 199.258 L 199.600 197.811 L 200.074 196.413 L 200.727 195.089 L 201.547 193.862 L 202.520 192.753 L 203.630 191.779 L 204.857 190.959 L 206.181 190.307 L 207.578 189.832 L 209.026 189.544 L 210.499 189.448 L 211.972 189.544 L 213.419 189.832 L 214.817 190.307 L 216.141 190.959 L 217.368 191.779 L 218.477 192.753 L 219.451 193.862 L 220.271 195.089 L 220.923 196.413 L 221.398 197.811 L 221.686 199.258 L 221.782 200.731 M 285.987 223.738 L 285.934 224.534 L 285.779 225.316 L 285.523 226.071 L 285.170 226.786 L 284.727 227.449 L 284.201 228.049 L 283.601 228.575 L 282.938 229.018 L 282.223 229.370 L 281.468 229.627 L 280.686 229.782 L 279.890 229.834 L 279.095 229.782 L 278.313 229.627 L 277.557 229.370 L 276.842 229.018 L 276.179 228.575 L 275.580 228.049 L 275.054 227.449 L 274.611 226.786 L 274.258 226.071 L 274.002 225.316 L 273.846 224.534 L 273.794 223.738 L 273.846 222.943 L 274.002 222.160 L 274.258 221.405 L 274.611 220.690 L 275.054 220.027 L 275.580 219.428 L 276.179 218.902 L 276.842 218.459 L 277.557 218.106 L 278.313 217.850 L 279.095 217.694 L 279.890 217.642 L 280.686 217.694 L 281.468 217.850 L 282.223 218.106 L 282.938 218.459 L 283.601 218.902 L 284.201 219.428 L 284.727 220.027 L 285.170 220.690 L 285.523 221.405 L 285.779 222.160 L 285.934 222.943 L 285.987 223.738 M 271.762 144.788 L 271.687 145.936 L 271.463 147.064 L 271.093 148.153 L 270.584 149.185 L 269.945 150.142 L 269.186 151.006 L 268.321 151.765 L 267.365 152.404 L 266.333 152.913 L 265.244 153.283 L 264.115 153.507 L 262.967 153.582 L 261.820 153.507 L 260.691 153.283 L 259.602 152.913 L 258.570 152.404 L 257.614 151.765 L 256.749 151.006 L 255.990 150.142 L 255.351 149.185 L 254.842 148.153 L 254.472 147.064 L 254.248 145.936 L 254.173 144.788 L 254.248 143.640 L 254.472 142.511 L 254.842 141.422 L 255.351 140.390 L 255.990 139.434 L 256.749 138.569 L 257.614 137.810 L 258.570 137.171 L 259.602 136.662 L 260.691 136.292 L 261.820 136.068 L 262.967 135.993 L 264.115 136.068 L 265.244 136.292 L 266.333 136.662 L 267.365 137.171 L 268.321 137.810 L 269.186 138.569 L 269.945 139.434 L 270.584 140.390 L 271.093 141.422 L 271.463 142.511 L 271.687 143.640 L 271.762 144.788 M 140.602 98.991 L 140.550 99.790 L 140.394 100.574 L 140.136 101.332 L 139.782 102.050 L 139.338 102.715 L 138.810 103.317 L 138.209 103.844 L 137.543 104.289 L 136.826 104.643 L 136.068 104.900 L 135.283 105.056 L 134.485 105.108 L 133.686 105.056 L 132.901 104.900 L 132.144 104.643 L 131.426 104.289 L 130.761 103.844 L 130.159 103.317 L 129.632 102.715 L 129.187 102.050 L 128.833 101.332 L 128.576 100.574 L 128.420 99.790 L 128.367 98.991 L 128.420 98.193 L 128.576 97.408 L 128.833 96.650 L 129.187 95.933 L 129.632 95.267 L 130.159 94.666 L 130.761 94.138 L 131.426 93.693 L 132.144 93.340 L 132.901 93.082 L 133.686 92.926 L 134.485 92.874 L 135.283 92.926 L 136.068 93.082 L 136.826 93.340 L 137.543 93.693 L 138.209 94.138 L 138.810 94.666 L 139.338 95.267 L 139.782 95.933 L 140.136 96.650 L 140.394 97.408 L 140.550 98.193 L 140.602 98.991 M 140.053 122.411 L 139.893 124.854 L 139.415 127.255 L 138.629 129.572 L 137.546 131.768 L 136.186 133.803 L 134.572 135.643 L 132.732 137.257 L 130.697 138.617 L 128.502 139.700 L 126.184 140.486 L 123.783 140.964 L 121.341 141.124 L 118.898 140.964 L 116.497 140.486 L 114.180 139.700 L 111.984 138.617 L 109.949 137.257 L 108.109 135.643 L 106.495 133.803 L 105.135 131.768 L 104.052 129.572 L 103.266 127.255 L 102.788 124.854 L 102.628 122.411 L 102.788 119.969 L 103.266 117.568 L 104.052 115.251 L 105.135 113.055 L 106.495 111.020 L 108.109 109.180 L 109.949 107.566 L 111.984 106.206 L 114.180 105.123 L 116.497 104.337 L 118.898 103.859 L 121.341 103.699 L 123.783 103.859 L 126.184 104.337 L 128.502 105.123 L 130.697 106.206 L 132.732 107.566 L 134.572 109.180 L 136.186 111.020 L 137.546 113.055 L 138.629 115.251 L 139.415 117.568 L 139.893 119.969 L 140.053 122.411 M 190.196 46.443 L 190.134 47.388 L 189.950 48.316 L 189.645 49.213 L 189.227 50.062 L 188.701 50.849 L 188.077 51.561 L 187.365 52.185 L 186.578 52.711 L 185.729 53.129 L 184.833 53.434 L 183.904 53.618 L 182.960 53.680 L 182.015 53.618 L 181.086 53.434 L 180.190 53.129 L 179.341 52.711 L 178.554 52.185 L 177.842 51.561 L 177.218 50.849 L 176.692 50.062 L 176.274 49.213 L 175.969 48.316 L 175.785 47.388 L 175.723 46.443 L 175.785 45.499 L 175.969 44.570 L 176.274 43.674 L 176.692 42.825 L 177.218 42.038 L 177.842 41.326 L 178.554 40.702 L 179.341 40.176 L 180.190 39.757 L 181.086 39.453 L 182.015 39.269 L 182.960 39.207 L 183.904 39.269 L 184.833 39.453 L 185.729 39.757 L 186.578 40.176 L 187.365 40.702 L 188.077 41.326 L 188.701 42.038 L 189.227 42.825 L 189.645 43.674 L 189.950 44.570 L 190.134 45.499 L 190.196 46.443 M 227.923 184.175 L 227.876 184.888 L 227.737 185.589 L 227.507 186.266 L 227.191 186.907 L 226.794 187.502 L 226.322 188.039 L 225.785 188.511 L 225.190 188.908 L 224.549 189.224 L 223.872 189.454 L 223.171 189.593 L 222.458 189.640 L 221.744 189.593 L 221.043 189.454 L 220.366 189.224 L 219.725 188.908 L 219.130 188.511 L 218.593 188.039 L 218.122 187.502 L 217.724 186.907 L 217.408 186.266 L 217.178 185.589 L 217.039 184.888 L 216.992 184.175 L 217.039 183.461 L 217.178 182.760 L 217.408 182.083 L 217.724 181.442 L 218.122 180.848 L 218.593 180.310 L 219.130 179.839 L 219.725 179.442 L 220.366 179.125 L 221.043 178.896 L 221.744 178.756 L 222.458 178.709 L 223.171 178.756 L 223.872 178.896 L 224.549 179.125 L 225.190 179.442 L 225.785 179.839 L 226.322 180.310 L 226.794 180.848 L 227.191 181.442 L 227.507 182.083 L 227.737 182.760 L 227.876 183.461 L 227.923 184.175 M 257.821 94.428 L 257.761 95.348 L 257.581 96.252 L 257.284 97.125 L 256.877 97.952 L 256.364 98.719 L 255.757 99.412 L 255.063 100.020 L 254.297 100.532 L 253.470 100.939 L 252.597 101.236 L 251.693 101.416 L 250.773 101.476 L 249.853 101.416 L 248.949 101.236 L 248.076 100.939 L 247.249 100.532 L 246.482 100.020 L 245.789 99.412 L 245.181 98.719 L 244.669 97.952 L 244.261 97.125 L 243.965 96.252 L 243.785 95.348 L 243.725 94.428 L 243.785 93.508 L 243.965 92.604 L 244.261 91.731 L 244.669 90.904 L 245.181 90.137 L 245.789 89.444 L 246.482 88.836 L 247.249 88.324 L 248.076 87.916 L 248.949 87.620 L 249.853 87.440 L 250.773 87.380 L 251.693 87.440 L 252.597 87.620 L 253.470 87.916 L 254.297 88.324 L 255.063 88.836 L 255.757 89.444 L 256.364 90.137 L 256.877 90.904 L 257.284 91.731 L 257.581 92.604 L 257.761 93.508 L 257.821 94.428 M 195.600 246.351 L 195.481 248.158 L 195.128 249.934 L 194.546 251.648 L 193.745 253.272 L 192.739 254.778 L 191.545 256.139 L 190.184 257.333 L 188.679 258.339 L 187.055 259.140 L 185.340 259.722 L 183.564 260.075 L 181.758 260.193 L 179.951 260.075 L 178.175 259.722 L 176.460 259.140 L 174.837 258.339 L 173.331 257.333 L 171.970 256.139 L 170.776 254.778 L 169.770 253.272 L 168.969 251.648 L 168.387 249.934 L 168.034 248.158 L 167.916 246.351 L 168.034 244.545 L 168.387 242.769 L 168.969 241.054 L 169.770 239.430 L 170.776 237.925 L 171.970 236.564 L 173.331 235.370 L 174.837 234.364 L 176.460 233.563 L 178.175 232.981 L 179.951 232.628 L 181.758 232.509 L 183.564 232.628 L 185.340 232.981 L 187.055 233.563 L 188.679 234.364 L 190.184 235.370 L 191.545 236.564 L 192.739 237.925 L 193.745 239.430 L 194.546 241.054 L 195.128 242.769 L 195.481 244.545 L 195.600 246.351 M 178.279 108.373 L 178.232 109.085 L 178.093 109.785 L 177.863 110.461 L 177.548 111.101 L 177.151 111.695 L 176.680 112.231 L 176.144 112.702 L 175.550 113.098 L 174.910 113.414 L 174.234 113.643 L 173.534 113.783 L 172.822 113.829 L 172.110 113.783 L 171.410 113.643 L 170.734 113.414 L 170.094 113.098 L 169.501 112.702 L 168.964 112.231 L 168.493 111.695 L 168.097 111.101 L 167.781 110.461 L 167.552 109.785 L 167.413 109.085 L 167.366 108.373 L 167.413 107.661 L 167.552 106.961 L 167.781 106.285 L 168.097 105.645 L 168.493 105.051 L 168.964 104.515 L 169.501 104.044 L 170.094 103.648 L 170.734 103.332 L 171.410 103.103 L 172.110 102.963 L 172.822 102.917 L 173.534 102.963 L 174.234 103.103 L 174.910 103.332 L 175.550 103.648 L 176.144 104.044 L 176.680 104.515 L 177.151 105.051 L 177.548 105.645 L 177.863 106.285 L 178.093 106.961 L 178.232 107.661 L 178.279 108.373 M 186.665 180.391 L 186.580 181.692 L 186.326 182.970 L 185.907 184.205 L 185.330 185.374 L 184.606 186.458 L 183.746 187.438 L 182.766 188.297 L 181.683 189.021 L 180.514 189.598 L 179.279 190.017 L 178.001 190.271 L 176.700 190.356 L 175.400 190.271 L 174.121 190.017 L 172.887 189.598 L 171.718 189.021 L 170.634 188.297 L 169.654 187.438 L 168.795 186.458 L 168.070 185.374 L 167.494 184.205 L 167.075 182.970 L 166.821 181.692 L 166.735 180.391 L 166.821 179.091 L 167.075 177.812 L 167.494 176.578 L 168.070 175.409 L 168.795 174.325 L 169.654 173.345 L 170.634 172.486 L 171.718 171.761 L 172.887 171.185 L 174.121 170.766 L 175.400 170.512 L 176.700 170.426 L 178.001 170.512 L 179.279 170.766 L 180.514 171.185 L 181.683 171.761 L 182.766 172.486 L 183.746 173.345 L 184.606 174.325 L 185.330 175.409 L 185.907 176.578 L 186.326 177.812 L 186.580 179.091 L 186.665 180.391 M 299.690 70.584 L 299.591 72.093 L 299.295 73.577 L 298.809 75.009 L 298.140 76.366 L 297.300 77.624 L 296.302 78.762 L 295.165 79.759 L 293.907 80.599 L 292.550 81.269 L 291.118 81.755 L 289.634 82.050 L 288.124 82.149 L 286.615 82.050 L 285.131 81.755 L 283.698 81.269 L 282.341 80.599 L 281.084 79.759 L 279.946 78.762 L 278.949 77.624 L 278.108 76.366 L 277.439 75.009 L 276.953 73.577 L 276.658 72.093 L 276.559 70.584 L 276.658 69.074 L 276.953 67.590 L 277.439 66.158 L 278.108 64.801 L 278.949 63.543 L 279.946 62.406 L 281.084 61.408 L 282.341 60.568 L 283.698 59.899 L 285.131 59.412 L 286.615 59.117 L 288.124 59.018 L 289.634 59.117 L 291.118 59.412 L 292.550 59.899 L 293.907 60.568 L 295.165 61.408 L 296.302 62.406 L 297.300 63.543 L 298.140 64.801 L 298.809 66.158 L 299.295 67.590 L 299.591 69.074 L 299.690 70.584 M 325.779 146.065 L 325.703 147.210 L 325.480 148.335 L 325.111 149.421 L 324.603 150.450 L 323.966 151.404 L 323.209 152.267 L 322.347 153.024 L 321.393 153.661 L 320.364 154.169 L 319.277 154.537 L 318.152 154.761 L 317.007 154.836 L 315.862 154.761 L 314.737 154.537 L 313.650 154.169 L 312.621 153.661 L 311.667 153.024 L 310.805 152.267 L 310.048 151.404 L 309.411 150.450 L 308.903 149.421 L 308.534 148.335 L 308.311 147.210 L 308.236 146.065 L 308.311 144.920 L 308.534 143.794 L 308.903 142.708 L 309.411 141.679 L 310.048 140.725 L 310.805 139.862 L 311.667 139.106 L 312.621 138.468 L 313.650 137.961 L 314.737 137.592 L 315.862 137.368 L 317.007 137.293 L 318.152 137.368 L 319.277 137.592 L 320.364 137.961 L 321.393 138.468 L 322.347 139.106 L 323.209 139.862 L 323.966 140.725 L 324.603 141.679 L 325.111 142.708 L 325.480 143.794 L 325.703 144.920 L 325.779 146.065 M 197.564 59.182 L 197.515 59.938 L 197.367 60.680 L 197.124 61.397 L 196.789 62.076 L 196.369 62.705 L 195.869 63.274 L 195.300 63.773 L 194.671 64.194 L 193.992 64.529 L 193.275 64.772 L 192.533 64.920 L 191.777 64.969 L 191.022 64.920 L 190.279 64.772 L 189.563 64.529 L 188.884 64.194 L 188.254 63.773 L 187.685 63.274 L 187.186 62.705 L 186.765 62.076 L 186.431 61.397 L 186.187 60.680 L 186.040 59.938 L 185.990 59.182 L 186.040 58.427 L 186.187 57.684 L 186.431 56.968 L 186.765 56.289 L 187.186 55.659 L 187.685 55.090 L 188.254 54.591 L 188.884 54.170 L 189.563 53.836 L 190.279 53.592 L 191.022 53.445 L 191.777 53.395 L 192.533 53.445 L 193.275 53.592 L 193.992 53.836 L 194.671 54.170 L 195.300 54.591 L 195.869 55.090 L 196.369 55.659 L 196.789 56.289 L 197.124 56.968 L 197.367 57.684 L 197.515 58.427 L 197.564 59.182 M 288.831 120.411 L 288.788 121.068 L 288.660 121.714 L 288.448 122.337 L 288.157 122.928 L 287.791 123.475 L 287.357 123.970 L 286.862 124.404 L 286.314 124.770 L 285.723 125.062 L 285.100 125.273 L 284.454 125.402 L 283.797 125.445 L 283.140 125.402 L 282.494 125.273 L 281.870 125.062 L 281.280 124.770 L 280.732 124.404 L 280.237 123.970 L 279.803 123.475 L 279.437 122.928 L 279.146 122.337 L 278.934 121.714 L 278.806 121.068 L 278.763 120.411 L 278.806 119.753 L 278.934 119.108 L 279.146 118.484 L 279.437 117.893 L 279.803 117.346 L 280.237 116.851 L 280.732 116.417 L 281.280 116.051 L 281.870 115.760 L 282.494 115.548 L 283.140 115.419 L 283.797 115.376 L 284.454 115.419 L 285.100 115.548 L 285.723 115.760 L 286.314 116.051 L 286.862 116.417 L 287.357 116.851 L 287.791 117.346 L 288.157 117.893 L 288.448 118.484 L 288.660 119.108 L 288.788 119.753 L 288.831 120.411 M 199.772 172.573 L 199.716 173.422 L 199.550 174.257 L 199.276 175.063 L 198.900 175.826 L 198.427 176.534 L 197.866 177.173 L 197.226 177.735 L 196.518 178.207 L 195.755 178.584 L 194.949 178.857 L 194.114 179.023 L 193.265 179.079 L 192.416 179.023 L 191.581 178.857 L 190.775 178.584 L 190.012 178.207 L 189.304 177.735 L 188.664 177.173 L 188.103 176.534 L 187.630 175.826 L 187.254 175.063 L 186.980 174.257 L 186.814 173.422 L 186.759 172.573 L 186.814 171.723 L 186.980 170.889 L 187.254 170.083 L 187.630 169.319 L 188.103 168.612 L 188.664 167.972 L 189.304 167.411 L 190.012 166.938 L 190.775 166.561 L 191.581 166.288 L 192.416 166.122 L 193.265 166.066 L 194.114 166.122 L 194.949 166.288 L 195.755 166.561 L 196.518 166.938 L 197.226 167.411 L 197.866 167.972 L 198.427 168.612 L 198.900 169.319 L 199.276 170.083 L 199.550 170.889 L 199.716 171.723 L 199.772 172.573 M 232.888 195.388 L 232.847 196.019 L 232.723 196.639 L 232.520 197.238 L 232.240 197.805 L 231.889 198.331 L 231.472 198.807 L 230.996 199.224 L 230.470 199.575 L 229.903 199.855 L 229.304 200.058 L 228.684 200.182 L 228.053 200.223 L 227.421 200.182 L 226.801 200.058 L 226.202 199.855 L 225.635 199.575 L 225.109 199.224 L 224.633 198.807 L 224.216 198.331 L 223.865 197.805 L 223.585 197.238 L 223.382 196.639 L 223.258 196.019 L 223.217 195.388 L 223.258 194.757 L 223.382 194.136 L 223.585 193.537 L 223.865 192.970 L 224.216 192.444 L 224.633 191.969 L 225.109 191.552 L 225.635 191.200 L 226.202 190.920 L 226.801 190.717 L 227.421 190.594 L 228.053 190.552 L 228.684 190.594 L 229.304 190.717 L 229.903 190.920 L 230.470 191.200 L 230.996 191.552 L 231.472 191.969 L 231.889 192.444 L 232.240 192.970 L 232.520 193.537 L 232.723 194.136 L 232.847 194.757 L 232.888 195.388 M 255.180 188.301 L 255.127 189.113 L 254.968 189.910 L 254.707 190.681 L 254.347 191.410 L 253.895 192.086 L 253.359 192.698 L 252.747 193.234 L 252.071 193.686 L 251.342 194.046 L 250.572 194.307 L 249.774 194.466 L 248.962 194.519 L 248.151 194.466 L 247.353 194.307 L 246.583 194.046 L 245.853 193.686 L 245.177 193.234 L 244.566 192.698 L 244.029 192.086 L 243.577 191.410 L 243.218 190.681 L 242.956 189.910 L 242.798 189.113 L 242.744 188.301 L 242.798 187.490 L 242.956 186.692 L 243.218 185.922 L 243.577 185.192 L 244.029 184.516 L 244.566 183.904 L 245.177 183.368 L 245.853 182.916 L 246.583 182.557 L 247.353 182.295 L 248.151 182.136 L 248.962 182.083 L 249.774 182.136 L 250.572 182.295 L 251.342 182.557 L 252.071 182.916 L 252.747 183.368 L 253.359 183.904 L 253.895 184.516 L 254.347 185.192 L 254.707 185.922 L 254.968 186.692 L 255.127 187.490 L 255.180 188.301 M 327.333 169.131 L 327.272 170.057 L 327.091 170.967 L 326.793 171.845 L 326.383 172.677 L 325.868 173.449 L 325.256 174.146 L 324.558 174.758 L 323.787 175.273 L 322.955 175.683 L 322.077 175.982 L 321.167 176.163 L 320.241 176.223 L 319.315 176.163 L 318.406 175.982 L 317.527 175.683 L 316.695 175.273 L 315.924 174.758 L 315.226 174.146 L 314.615 173.449 L 314.099 172.677 L 313.689 171.845 L 313.391 170.967 L 313.210 170.057 L 313.149 169.131 L 313.210 168.206 L 313.391 167.296 L 313.689 166.417 L 314.099 165.585 L 314.615 164.814 L 315.226 164.117 L 315.924 163.505 L 316.695 162.990 L 317.527 162.579 L 318.406 162.281 L 319.315 162.100 L 320.241 162.040 L 321.167 162.100 L 322.077 162.281 L 322.955 162.579 L 323.787 162.990 L 324.558 163.505 L 325.256 164.117 L 325.868 164.814 L 326.383 165.585 L 326.793 166.417 L 327.091 167.296 L 327.272 168.206 L 327.333 169.131 M 215.350 223.754 L 215.310 224.365 L 215.191 224.966 L 214.994 225.545 L 214.723 226.095 L 214.383 226.604 L 213.979 227.064 L 213.519 227.468 L 213.010 227.808 L 212.460 228.079 L 211.881 228.276 L 211.280 228.395 L 210.669 228.435 L 210.058 228.395 L 209.457 228.276 L 208.877 228.079 L 208.328 227.808 L 207.819 227.468 L 207.358 227.064 L 206.955 226.604 L 206.615 226.095 L 206.344 225.545 L 206.147 224.966 L 206.027 224.365 L 205.987 223.754 L 206.027 223.143 L 206.147 222.542 L 206.344 221.962 L 206.615 221.413 L 206.955 220.904 L 207.358 220.443 L 207.819 220.040 L 208.328 219.699 L 208.877 219.429 L 209.457 219.232 L 210.058 219.112 L 210.669 219.072 L 211.280 219.112 L 211.881 219.232 L 212.460 219.429 L 213.010 219.699 L 213.519 220.040 L 213.979 220.443 L 214.383 220.904 L 214.723 221.413 L 214.994 221.962 L 215.191 222.542 L 215.310 223.143 L 215.350 223.754 M 289.380 130.751 L 289.340 131.363 L 289.221 131.963 L 289.024 132.544 L 288.753 133.093 L 288.412 133.602 L 288.009 134.063 L 287.548 134.467 L 287.039 134.807 L 286.489 135.078 L 285.909 135.275 L 285.308 135.394 L 284.697 135.434 L 284.086 135.394 L 283.485 135.275 L 282.905 135.078 L 282.356 134.807 L 281.846 134.467 L 281.386 134.063 L 280.982 133.602 L 280.641 133.093 L 280.371 132.544 L 280.174 131.963 L 280.054 131.363 L 280.014 130.751 L 280.054 130.140 L 280.174 129.539 L 280.371 128.959 L 280.641 128.410 L 280.982 127.900 L 281.386 127.440 L 281.846 127.036 L 282.356 126.696 L 282.905 126.425 L 283.485 126.228 L 284.086 126.108 L 284.697 126.068 L 285.308 126.108 L 285.909 126.228 L 286.489 126.425 L 287.039 126.696 L 287.548 127.036 L 288.009 127.440 L 288.412 127.900 L 288.753 128.410 L 289.024 128.959 L 289.221 129.539 L 289.340 130.140 L 289.380 130.751 M 209.877 168.196 L 209.837 168.806 L 209.717 169.407 L 209.521 169.986 L 209.250 170.535 L 208.910 171.044 L 208.506 171.504 L 208.046 171.907 L 207.537 172.247 L 206.989 172.518 L 206.409 172.715 L 205.809 172.834 L 205.198 172.874 L 204.588 172.834 L 203.987 172.715 L 203.408 172.518 L 202.859 172.247 L 202.350 171.907 L 201.890 171.504 L 201.486 171.044 L 201.146 170.535 L 200.876 169.986 L 200.679 169.407 L 200.560 168.806 L 200.520 168.196 L 200.560 167.585 L 200.679 166.985 L 200.876 166.405 L 201.146 165.856 L 201.486 165.348 L 201.890 164.888 L 202.350 164.484 L 202.859 164.144 L 203.408 163.873 L 203.987 163.677 L 204.588 163.557 L 205.198 163.517 L 205.809 163.557 L 206.409 163.677 L 206.989 163.873 L 207.537 164.144 L 208.046 164.484 L 208.506 164.888 L 208.910 165.348 L 209.250 165.856 L 209.521 166.405 L 209.717 166.985 L 209.837 167.585 L 209.877 168.196 M 175.451 143.753 L 175.396 144.604 L 175.229 145.441 L 174.955 146.249 L 174.578 147.014 L 174.104 147.723 L 173.541 148.365 L 172.900 148.927 L 172.190 149.401 L 171.425 149.779 L 170.618 150.053 L 169.781 150.219 L 168.930 150.275 L 168.078 150.219 L 167.242 150.053 L 166.434 149.779 L 165.669 149.401 L 164.959 148.927 L 164.318 148.365 L 163.755 147.723 L 163.281 147.014 L 162.904 146.249 L 162.630 145.441 L 162.463 144.604 L 162.408 143.753 L 162.463 142.902 L 162.630 142.065 L 162.904 141.257 L 163.281 140.492 L 163.755 139.783 L 164.318 139.142 L 164.959 138.579 L 165.669 138.105 L 166.434 137.728 L 167.242 137.454 L 168.078 137.287 L 168.930 137.231 L 169.781 137.287 L 170.618 137.454 L 171.425 137.728 L 172.190 138.105 L 172.900 138.579 L 173.541 139.142 L 174.104 139.783 L 174.578 140.492 L 174.955 141.257 L 175.229 142.065 L 175.396 142.902 L 175.451 143.753 M 154.155 245.144 L 154.112 245.802 L 153.984 246.448 L 153.772 247.072 L 153.480 247.664 L 153.114 248.212 L 152.679 248.707 L 152.184 249.142 L 151.636 249.508 L 151.044 249.800 L 150.420 250.012 L 149.774 250.140 L 149.116 250.183 L 148.458 250.140 L 147.811 250.012 L 147.187 249.800 L 146.596 249.508 L 146.048 249.142 L 145.552 248.707 L 145.118 248.212 L 144.751 247.664 L 144.460 247.072 L 144.248 246.448 L 144.119 245.802 L 144.076 245.144 L 144.119 244.486 L 144.248 243.839 L 144.460 243.215 L 144.751 242.624 L 145.118 242.076 L 145.552 241.580 L 146.048 241.146 L 146.596 240.779 L 147.187 240.488 L 147.811 240.276 L 148.458 240.147 L 149.116 240.104 L 149.774 240.147 L 150.420 240.276 L 151.044 240.488 L 151.636 240.779 L 152.184 241.146 L 152.679 241.580 L 153.114 242.076 L 153.480 242.624 L 153.772 243.215 L 153.984 243.839 L 154.112 244.486 L 154.155 245.144 M 309.840 159.212 L 309.784 160.059 L 309.618 160.892 L 309.345 161.697 L 308.970 162.459 L 308.498 163.165 L 307.937 163.804 L 307.299 164.364 L 306.592 164.836 L 305.831 165.212 L 305.026 165.485 L 304.193 165.650 L 303.345 165.706 L 302.498 165.650 L 301.664 165.485 L 300.860 165.212 L 300.098 164.836 L 299.392 164.364 L 298.753 163.804 L 298.193 163.165 L 297.721 162.459 L 297.345 161.697 L 297.072 160.892 L 296.907 160.059 L 296.851 159.212 L 296.907 158.364 L 297.072 157.531 L 297.345 156.726 L 297.721 155.965 L 298.193 155.258 L 298.753 154.619 L 299.392 154.059 L 300.098 153.587 L 300.860 153.212 L 301.664 152.939 L 302.498 152.773 L 303.345 152.717 L 304.193 152.773 L 305.026 152.939 L 305.831 153.212 L 306.592 153.587 L 307.299 154.059 L 307.937 154.619 L 308.498 155.258 L 308.970 155.965 L 309.345 156.726 L 309.618 157.531 L 309.784 158.364 L 309.840 159.212 M 267.489 171.505 L 267.428 172.438 L 267.245 173.355 L 266.945 174.240 L 266.531 175.079 L 266.012 175.856 L 265.396 176.559 L 264.693 177.175 L 263.916 177.694 L 263.077 178.108 L 262.192 178.408 L 261.275 178.591 L 260.342 178.652 L 259.410 178.591 L 258.493 178.408 L 257.608 178.108 L 256.769 177.694 L 255.992 177.175 L 255.289 176.559 L 254.673 175.856 L 254.154 175.079 L 253.740 174.240 L 253.440 173.355 L 253.257 172.438 L 253.196 171.505 L 253.257 170.573 L 253.440 169.656 L 253.740 168.771 L 254.154 167.932 L 254.673 167.155 L 255.289 166.452 L 255.992 165.836 L 256.769 165.316 L 257.608 164.903 L 258.493 164.603 L 259.410 164.420 L 260.342 164.359 L 261.275 164.420 L 262.192 164.603 L 263.077 164.903 L 263.916 165.316 L 264.693 165.836 L 265.396 166.452 L 266.012 167.155 L 266.531 167.932 L 266.945 168.771 L 267.245 169.656 L 267.428 170.573 L 267.489 171.505 M 162.214 139.948 L 162.163 140.730 L 162.010 141.499 L 161.758 142.242 L 161.411 142.945 L 160.975 143.597 L 160.458 144.187 L 159.869 144.704 L 159.217 145.140 L 158.513 145.487 L 157.771 145.739 L 157.002 145.892 L 156.219 145.943 L 155.436 145.892 L 154.667 145.739 L 153.925 145.487 L 153.221 145.140 L 152.569 144.704 L 151.980 144.187 L 151.463 143.597 L 151.027 142.945 L 150.680 142.242 L 150.428 141.499 L 150.275 140.730 L 150.224 139.948 L 150.275 139.165 L 150.428 138.396 L 150.680 137.653 L 151.027 136.950 L 151.463 136.298 L 151.980 135.709 L 152.569 135.191 L 153.221 134.756 L 153.925 134.409 L 154.667 134.157 L 155.436 134.004 L 156.219 133.953 L 157.002 134.004 L 157.771 134.157 L 158.513 134.409 L 159.217 134.756 L 159.869 135.191 L 160.458 135.709 L 160.975 136.298 L 161.411 136.950 L 161.758 137.653 L 162.010 138.396 L 162.163 139.165 L 162.214 139.948 M 133.120 73.275 L 133.077 73.930 L 132.949 74.573 L 132.738 75.194 L 132.448 75.783 L 132.083 76.328 L 131.651 76.821 L 131.158 77.254 L 130.612 77.618 L 130.024 77.908 L 129.403 78.119 L 128.759 78.247 L 128.105 78.290 L 127.450 78.247 L 126.807 78.119 L 126.186 77.908 L 125.598 77.618 L 125.052 77.254 L 124.559 76.821 L 124.126 76.328 L 123.762 75.783 L 123.472 75.194 L 123.261 74.573 L 123.133 73.930 L 123.090 73.275 L 123.133 72.621 L 123.261 71.977 L 123.472 71.356 L 123.762 70.768 L 124.126 70.222 L 124.559 69.729 L 125.052 69.297 L 125.598 68.932 L 126.186 68.642 L 126.807 68.431 L 127.450 68.303 L 128.105 68.260 L 128.759 68.303 L 129.403 68.431 L 130.024 68.642 L 130.612 68.932 L 131.158 69.297 L 131.651 69.729 L 132.083 70.222 L 132.448 70.768 L 132.738 71.356 L 132.949 71.977 L 133.077 72.621 L 133.120 73.275 M 194.811 74.282 L 194.750 75.212 L 194.568 76.126 L 194.269 77.008 L 193.857 77.844 L 193.339 78.618 L 192.725 79.319 L 192.024 79.933 L 191.249 80.451 L 190.414 80.863 L 189.531 81.162 L 188.618 81.344 L 187.688 81.405 L 186.758 81.344 L 185.844 81.162 L 184.962 80.863 L 184.127 80.451 L 183.352 79.933 L 182.651 79.319 L 182.037 78.618 L 181.519 77.844 L 181.107 77.008 L 180.808 76.126 L 180.626 75.212 L 180.565 74.282 L 180.626 73.353 L 180.808 72.439 L 181.107 71.556 L 181.519 70.721 L 182.037 69.946 L 182.651 69.246 L 183.352 68.631 L 184.127 68.114 L 184.962 67.702 L 185.844 67.402 L 186.758 67.220 L 187.688 67.159 L 188.618 67.220 L 189.531 67.402 L 190.414 67.702 L 191.249 68.114 L 192.024 68.631 L 192.725 69.246 L 193.339 69.946 L 193.857 70.721 L 194.269 71.556 L 194.568 72.439 L 194.750 73.353 L 194.811 74.282 M 224.959 95.966 L 224.880 97.171 L 224.645 98.355 L 224.257 99.498 L 223.723 100.581 L 223.052 101.585 L 222.256 102.493 L 221.348 103.289 L 220.344 103.960 L 219.261 104.494 L 218.118 104.882 L 216.933 105.118 L 215.728 105.197 L 214.523 105.118 L 213.339 104.882 L 212.196 104.494 L 211.113 103.960 L 210.109 103.289 L 209.201 102.493 L 208.405 101.585 L 207.734 100.581 L 207.200 99.498 L 206.812 98.355 L 206.576 97.171 L 206.497 95.966 L 206.576 94.761 L 206.812 93.577 L 207.200 92.433 L 207.734 91.350 L 208.405 90.346 L 209.201 89.439 L 210.109 88.642 L 211.113 87.972 L 212.196 87.438 L 213.339 87.049 L 214.523 86.814 L 215.728 86.735 L 216.933 86.814 L 218.118 87.049 L 219.261 87.438 L 220.344 87.972 L 221.348 88.642 L 222.256 89.439 L 223.052 90.346 L 223.723 91.350 L 224.257 92.433 L 224.645 93.577 L 224.880 94.761 L 224.959 95.966 M 127.137 86.618 L 127.077 87.537 L 126.897 88.440 L 126.601 89.312 L 126.194 90.138 L 125.682 90.903 L 125.075 91.595 L 124.383 92.202 L 123.618 92.714 L 122.792 93.121 L 121.920 93.417 L 121.017 93.597 L 120.098 93.657 L 119.180 93.597 L 118.277 93.417 L 117.405 93.121 L 116.579 92.714 L 115.814 92.202 L 115.122 91.595 L 114.515 90.903 L 114.003 90.138 L 113.596 89.312 L 113.300 88.440 L 113.120 87.537 L 113.060 86.618 L 113.120 85.700 L 113.300 84.797 L 113.596 83.925 L 114.003 83.099 L 114.515 82.334 L 115.122 81.642 L 115.814 81.034 L 116.579 80.523 L 117.405 80.116 L 118.277 79.820 L 119.180 79.640 L 120.098 79.580 L 121.017 79.640 L 121.920 79.820 L 122.792 80.116 L 123.618 80.523 L 124.383 81.034 L 125.075 81.642 L 125.682 82.334 L 126.194 83.099 L 126.601 83.925 L 126.897 84.797 L 127.077 85.700 L 127.137 86.618 M 271.682 46.569 L 271.617 47.560 L 271.423 48.534 L 271.104 49.475 L 270.665 50.366 L 270.113 51.192 L 269.458 51.939 L 268.711 52.593 L 267.885 53.145 L 266.994 53.585 L 266.053 53.904 L 265.079 54.098 L 264.088 54.163 L 263.097 54.098 L 262.122 53.904 L 261.182 53.585 L 260.291 53.145 L 259.465 52.593 L 258.718 51.939 L 258.063 51.192 L 257.511 50.366 L 257.072 49.475 L 256.752 48.534 L 256.559 47.560 L 256.494 46.569 L 256.559 45.577 L 256.752 44.603 L 257.072 43.662 L 257.511 42.772 L 258.063 41.946 L 258.718 41.199 L 259.465 40.544 L 260.291 39.992 L 261.182 39.553 L 262.122 39.233 L 263.097 39.039 L 264.088 38.974 L 265.079 39.039 L 266.053 39.233 L 266.994 39.553 L 267.885 39.992 L 268.711 40.544 L 269.458 41.199 L 270.113 41.946 L 270.665 42.772 L 271.104 43.662 L 271.423 44.603 L 271.617 45.577 L 271.682 46.569 M 312.841 85.995 L 312.771 87.065 L 312.562 88.116 L 312.217 89.132 L 311.743 90.093 L 311.148 90.984 L 310.441 91.790 L 309.635 92.497 L 308.744 93.093 L 307.782 93.567 L 306.767 93.911 L 305.716 94.120 L 304.646 94.191 L 303.576 94.120 L 302.525 93.911 L 301.510 93.567 L 300.548 93.093 L 299.657 92.497 L 298.851 91.790 L 298.144 90.984 L 297.549 90.093 L 297.075 89.132 L 296.730 88.116 L 296.521 87.065 L 296.451 85.995 L 296.521 84.926 L 296.730 83.874 L 297.075 82.859 L 297.549 81.898 L 298.144 81.006 L 298.851 80.201 L 299.657 79.494 L 300.548 78.898 L 301.510 78.424 L 302.525 78.079 L 303.576 77.870 L 304.646 77.800 L 305.716 77.870 L 306.767 78.079 L 307.782 78.424 L 308.744 78.898 L 309.635 79.494 L 310.441 80.201 L 311.148 81.006 L 311.743 81.898 L 312.217 82.859 L 312.562 83.874 L 312.771 84.926 L 312.841 85.995 M 201.406 265.518 L 201.364 266.160 L 201.239 266.791 L 201.032 267.400 L 200.747 267.977 L 200.390 268.512 L 199.966 268.996 L 199.482 269.420 L 198.947 269.777 L 198.371 270.062 L 197.761 270.268 L 197.130 270.394 L 196.489 270.436 L 195.847 270.394 L 195.216 270.268 L 194.607 270.062 L 194.030 269.777 L 193.495 269.420 L 193.011 268.996 L 192.587 268.512 L 192.230 267.977 L 191.945 267.400 L 191.738 266.791 L 191.613 266.160 L 191.571 265.518 L 191.613 264.876 L 191.738 264.245 L 191.945 263.636 L 192.230 263.059 L 192.587 262.525 L 193.011 262.041 L 193.495 261.617 L 194.030 261.259 L 194.607 260.975 L 195.216 260.768 L 195.847 260.643 L 196.489 260.601 L 197.130 260.643 L 197.761 260.768 L 198.371 260.975 L 198.947 261.259 L 199.482 261.617 L 199.966 262.041 L 200.390 262.525 L 200.747 263.059 L 201.032 263.636 L 201.239 264.245 L 201.364 264.876 L 201.406 265.518 M 209.477 33.208 L 209.432 33.891 L 209.298 34.562 L 209.078 35.210 L 208.776 35.824 L 208.396 36.393 L 207.944 36.908 L 207.430 37.359 L 206.861 37.739 L 206.247 38.042 L 205.599 38.262 L 204.927 38.396 L 204.244 38.440 L 203.562 38.396 L 202.890 38.262 L 202.242 38.042 L 201.628 37.739 L 201.059 37.359 L 200.545 36.908 L 200.093 36.393 L 199.713 35.824 L 199.411 35.210 L 199.191 34.562 L 199.057 33.891 L 199.012 33.208 L 199.057 32.525 L 199.191 31.854 L 199.411 31.206 L 199.713 30.592 L 200.093 30.023 L 200.545 29.508 L 201.059 29.057 L 201.628 28.677 L 202.242 28.374 L 202.890 28.154 L 203.562 28.021 L 204.244 27.976 L 204.927 28.021 L 205.599 28.154 L 206.247 28.374 L 206.861 28.677 L 207.430 29.057 L 207.944 29.508 L 208.396 30.023 L 208.776 30.592 L 209.078 31.206 L 209.298 31.854 L 209.432 32.525 L 209.477 33.208 M 243.086 84.981 L 243.021 85.972 L 242.828 86.945 L 242.508 87.885 L 242.069 88.776 L 241.518 89.602 L 240.863 90.348 L 240.117 91.003 L 239.291 91.554 L 238.401 91.993 L 237.460 92.313 L 236.487 92.506 L 235.496 92.571 L 234.505 92.506 L 233.531 92.313 L 232.591 91.993 L 231.701 91.554 L 230.875 91.003 L 230.129 90.348 L 229.474 89.602 L 228.922 88.776 L 228.483 87.885 L 228.164 86.945 L 227.970 85.972 L 227.905 84.981 L 227.970 83.990 L 228.164 83.016 L 228.483 82.076 L 228.922 81.186 L 229.474 80.360 L 230.129 79.614 L 230.875 78.959 L 231.701 78.407 L 232.591 77.968 L 233.531 77.649 L 234.505 77.455 L 235.496 77.390 L 236.487 77.455 L 237.460 77.649 L 238.401 77.968 L 239.291 78.407 L 240.117 78.959 L 240.863 79.614 L 241.518 80.360 L 242.069 81.186 L 242.508 82.076 L 242.828 83.016 L 243.021 83.990 L 243.086 84.981 M 254.748 255.479 L 254.703 256.169 L 254.568 256.846 L 254.346 257.500 L 254.041 258.120 L 253.657 258.694 L 253.201 259.213 L 252.682 259.669 L 252.108 260.053 L 251.488 260.358 L 250.834 260.580 L 250.157 260.715 L 249.467 260.760 L 248.778 260.715 L 248.101 260.580 L 247.447 260.358 L 246.827 260.053 L 246.253 259.669 L 245.734 259.213 L 245.278 258.694 L 244.894 258.120 L 244.589 257.500 L 244.367 256.846 L 244.232 256.169 L 244.187 255.479 L 244.232 254.790 L 244.367 254.113 L 244.589 253.459 L 244.894 252.839 L 245.278 252.265 L 245.734 251.746 L 246.253 251.290 L 246.827 250.906 L 247.447 250.601 L 248.101 250.379 L 248.778 250.244 L 249.467 250.199 L 250.157 250.244 L 250.834 250.379 L 251.488 250.601 L 252.108 250.906 L 252.682 251.290 L 253.201 251.746 L 253.657 252.265 L 254.041 252.839 L 254.346 253.459 L 254.568 254.113 L 254.703 254.790 L 254.748 255.479 M 291.716 169.863 L 291.659 170.727 L 291.490 171.577 L 291.212 172.397 L 290.829 173.174 L 290.348 173.894 L 289.777 174.545 L 289.126 175.116 L 288.406 175.597 L 287.629 175.980 L 286.809 176.258 L 285.960 176.427 L 285.095 176.484 L 284.231 176.427 L 283.382 176.258 L 282.562 175.980 L 281.785 175.597 L 281.065 175.116 L 280.414 174.545 L 279.843 173.894 L 279.362 173.174 L 278.979 172.397 L 278.700 171.577 L 278.532 170.727 L 278.475 169.863 L 278.532 168.999 L 278.700 168.150 L 278.979 167.330 L 279.362 166.553 L 279.843 165.833 L 280.414 165.182 L 281.065 164.611 L 281.785 164.130 L 282.562 163.747 L 283.382 163.468 L 284.231 163.300 L 285.095 163.243 L 285.960 163.300 L 286.809 163.468 L 287.629 163.747 L 288.406 164.130 L 289.126 164.611 L 289.777 165.182 L 290.348 165.833 L 290.829 166.553 L 291.212 167.330 L 291.490 168.150 L 291.659 168.999 L 291.716 169.863 M 281.876 158.507 L 281.821 159.343 L 281.658 160.164 L 281.388 160.957 L 281.018 161.708 L 280.553 162.405 L 280.001 163.034 L 279.371 163.586 L 278.675 164.052 L 277.924 164.422 L 277.131 164.691 L 276.309 164.855 L 275.474 164.909 L 274.638 164.855 L 273.817 164.691 L 273.024 164.422 L 272.272 164.052 L 271.576 163.586 L 270.947 163.034 L 270.394 162.405 L 269.929 161.708 L 269.559 160.957 L 269.290 160.164 L 269.126 159.343 L 269.071 158.507 L 269.126 157.672 L 269.290 156.850 L 269.559 156.057 L 269.929 155.306 L 270.394 154.610 L 270.947 153.980 L 271.576 153.428 L 272.272 152.963 L 273.024 152.592 L 273.817 152.323 L 274.638 152.160 L 275.474 152.105 L 276.309 152.160 L 277.131 152.323 L 277.924 152.592 L 278.675 152.963 L 279.371 153.428 L 280.001 153.980 L 280.553 154.610 L 281.018 155.306 L 281.388 156.057 L 281.658 156.850 L 281.821 157.672 L 281.876 158.507 M 242.971 65.765 L 242.912 66.657 L 242.738 67.533 L 242.451 68.379 L 242.056 69.181 L 241.559 69.924 L 240.970 70.596 L 240.298 71.185 L 239.555 71.681 L 238.754 72.076 L 237.908 72.364 L 237.031 72.538 L 236.139 72.596 L 235.248 72.538 L 234.371 72.364 L 233.525 72.076 L 232.724 71.681 L 231.981 71.185 L 231.309 70.596 L 230.720 69.924 L 230.223 69.181 L 229.828 68.379 L 229.541 67.533 L 229.366 66.657 L 229.308 65.765 L 229.366 64.873 L 229.541 63.997 L 229.828 63.151 L 230.223 62.349 L 230.720 61.606 L 231.309 60.934 L 231.981 60.345 L 232.724 59.849 L 233.525 59.454 L 234.371 59.166 L 235.248 58.992 L 236.139 58.934 L 237.031 58.992 L 237.908 59.166 L 238.754 59.454 L 239.555 59.849 L 240.298 60.345 L 240.970 60.934 L 241.559 61.606 L 242.056 62.349 L 242.451 63.151 L 242.738 63.997 L 242.912 64.873 L 242.971 65.765 M 257.405 110.871 L 257.340 111.863 L 257.146 112.838 L 256.826 113.779 L 256.386 114.671 L 255.834 115.497 L 255.179 116.245 L 254.431 116.900 L 253.604 117.453 L 252.713 117.892 L 251.771 118.212 L 250.796 118.406 L 249.804 118.471 L 248.812 118.406 L 247.837 118.212 L 246.896 117.892 L 246.004 117.453 L 245.178 116.900 L 244.430 116.245 L 243.775 115.497 L 243.222 114.671 L 242.783 113.779 L 242.463 112.838 L 242.269 111.863 L 242.204 110.871 L 242.269 109.879 L 242.463 108.904 L 242.783 107.962 L 243.222 107.071 L 243.775 106.244 L 244.430 105.496 L 245.178 104.841 L 246.004 104.289 L 246.896 103.849 L 247.837 103.529 L 248.812 103.335 L 249.804 103.270 L 250.796 103.335 L 251.771 103.529 L 252.713 103.849 L 253.604 104.289 L 254.431 104.841 L 255.179 105.496 L 255.834 106.244 L 256.386 107.071 L 256.826 107.962 L 257.146 108.904 L 257.340 109.879 L 257.405 110.871 M 292.193 233.291 L 292.153 233.897 L 292.035 234.493 L 291.839 235.068 L 291.571 235.612 L 291.234 236.117 L 290.833 236.574 L 290.377 236.974 L 289.872 237.311 L 289.327 237.580 L 288.752 237.775 L 288.157 237.894 L 287.551 237.933 L 286.945 237.894 L 286.349 237.775 L 285.775 237.580 L 285.230 237.311 L 284.725 236.974 L 284.269 236.574 L 283.868 236.117 L 283.531 235.612 L 283.262 235.068 L 283.067 234.493 L 282.949 233.897 L 282.909 233.291 L 282.949 232.686 L 283.067 232.090 L 283.262 231.515 L 283.531 230.970 L 283.868 230.466 L 284.269 230.009 L 284.725 229.609 L 285.230 229.271 L 285.775 229.003 L 286.349 228.808 L 286.945 228.689 L 287.551 228.650 L 288.157 228.689 L 288.752 228.808 L 289.327 229.003 L 289.872 229.271 L 290.377 229.609 L 290.833 230.009 L 291.234 230.466 L 291.571 230.970 L 291.839 231.515 L 292.035 232.090 L 292.153 232.686 L 292.193 233.291 M 253.803 42.801 L 253.763 43.415 L 253.643 44.019 L 253.445 44.601 L 253.173 45.153 L 252.831 45.665 L 252.426 46.127 L 251.963 46.533 L 251.451 46.875 L 250.900 47.147 L 250.317 47.345 L 249.713 47.465 L 249.099 47.505 L 248.486 47.465 L 247.882 47.345 L 247.299 47.147 L 246.748 46.875 L 246.236 46.533 L 245.773 46.127 L 245.368 45.665 L 245.026 45.153 L 244.754 44.601 L 244.556 44.019 L 244.436 43.415 L 244.396 42.801 L 244.436 42.187 L 244.556 41.584 L 244.754 41.001 L 245.026 40.450 L 245.368 39.938 L 245.773 39.475 L 246.236 39.070 L 246.748 38.728 L 247.299 38.456 L 247.882 38.258 L 248.486 38.138 L 249.099 38.098 L 249.713 38.138 L 250.317 38.258 L 250.900 38.456 L 251.451 38.728 L 251.963 39.070 L 252.426 39.475 L 252.831 39.938 L 253.173 40.450 L 253.445 41.001 L 253.643 41.584 L 253.763 42.187 L 253.803 42.801 M 195.746 138.806 L 195.663 140.078 L 195.414 141.329 L 195.004 142.536 L 194.440 143.680 L 193.731 144.740 L 192.891 145.699 L 191.932 146.540 L 190.872 147.248 L 189.728 147.812 L 188.520 148.222 L 187.270 148.471 L 185.997 148.554 L 184.725 148.471 L 183.474 148.222 L 182.267 147.812 L 181.123 147.248 L 180.063 146.540 L 179.104 145.699 L 178.263 144.740 L 177.555 143.680 L 176.991 142.536 L 176.581 141.329 L 176.332 140.078 L 176.249 138.806 L 176.332 137.533 L 176.581 136.283 L 176.991 135.075 L 177.555 133.931 L 178.263 132.871 L 179.104 131.912 L 180.063 131.072 L 181.123 130.363 L 182.267 129.799 L 183.474 129.389 L 184.725 129.140 L 185.997 129.057 L 187.270 129.140 L 188.520 129.389 L 189.728 129.799 L 190.872 130.363 L 191.932 131.072 L 192.891 131.912 L 193.731 132.871 L 194.440 133.931 L 195.004 135.075 L 195.414 136.283 L 195.663 137.533 L 195.746 138.806 M 183.187 159.204 L 183.129 160.085 L 182.957 160.950 L 182.673 161.786 L 182.283 162.578 L 181.793 163.312 L 181.211 163.975 L 180.547 164.557 L 179.813 165.048 L 179.021 165.438 L 178.186 165.722 L 177.320 165.894 L 176.439 165.952 L 175.558 165.894 L 174.693 165.722 L 173.857 165.438 L 173.065 165.048 L 172.331 164.557 L 171.668 163.975 L 171.086 163.312 L 170.596 162.578 L 170.205 161.786 L 169.921 160.950 L 169.749 160.085 L 169.692 159.204 L 169.749 158.323 L 169.921 157.457 L 170.205 156.622 L 170.596 155.830 L 171.086 155.096 L 171.668 154.432 L 172.331 153.851 L 173.065 153.360 L 173.857 152.970 L 174.693 152.686 L 175.558 152.514 L 176.439 152.456 L 177.320 152.514 L 178.186 152.686 L 179.021 152.970 L 179.813 153.360 L 180.547 153.851 L 181.211 154.432 L 181.793 155.096 L 182.283 155.830 L 182.673 156.622 L 182.957 157.457 L 183.129 158.323 L 183.187 159.204 M 221.717 44.076 L 221.665 44.871 L 221.510 45.653 L 221.253 46.407 L 220.901 47.122 L 220.458 47.785 L 219.933 48.384 L 219.333 48.910 L 218.671 49.353 L 217.956 49.705 L 217.201 49.961 L 216.419 50.117 L 215.624 50.169 L 214.828 50.117 L 214.047 49.961 L 213.292 49.705 L 212.577 49.353 L 211.914 48.910 L 211.315 48.384 L 210.789 47.785 L 210.347 47.122 L 209.994 46.407 L 209.738 45.653 L 209.582 44.871 L 209.530 44.076 L 209.582 43.280 L 209.738 42.498 L 209.994 41.744 L 210.347 41.029 L 210.789 40.366 L 211.315 39.767 L 211.914 39.241 L 212.577 38.798 L 213.292 38.446 L 214.047 38.190 L 214.828 38.034 L 215.624 37.982 L 216.419 38.034 L 217.201 38.190 L 217.956 38.446 L 218.671 38.798 L 219.333 39.241 L 219.933 39.767 L 220.458 40.366 L 220.901 41.029 L 221.253 41.744 L 221.510 42.498 L 221.665 43.280 L 221.717 44.076 M 232.130 216.231 L 232.070 217.143 L 231.891 218.040 L 231.597 218.906 L 231.193 219.727 L 230.685 220.487 L 230.082 221.175 L 229.394 221.778 L 228.634 222.286 L 227.814 222.690 L 226.947 222.984 L 226.050 223.163 L 225.138 223.223 L 224.225 223.163 L 223.328 222.984 L 222.462 222.690 L 221.642 222.286 L 220.881 221.778 L 220.194 221.175 L 219.591 220.487 L 219.083 219.727 L 218.678 218.906 L 218.384 218.040 L 218.206 217.143 L 218.146 216.231 L 218.206 215.318 L 218.384 214.421 L 218.678 213.555 L 219.083 212.735 L 219.591 211.974 L 220.194 211.287 L 220.881 210.684 L 221.642 210.176 L 222.462 209.771 L 223.328 209.477 L 224.225 209.299 L 225.138 209.239 L 226.050 209.299 L 226.947 209.477 L 227.814 209.771 L 228.634 210.176 L 229.394 210.684 L 230.082 211.287 L 230.685 211.974 L 231.193 212.735 L 231.597 213.555 L 231.891 214.421 L 232.070 215.318 L 232.130 216.231 M 221.914 150.671 L 221.844 151.733 L 221.636 152.778 L 221.294 153.786 L 220.823 154.741 L 220.232 155.627 L 219.529 156.427 L 218.729 157.129 L 217.843 157.721 L 216.888 158.192 L 215.880 158.534 L 214.835 158.742 L 213.773 158.812 L 212.710 158.742 L 211.666 158.534 L 210.657 158.192 L 209.702 157.721 L 208.817 157.129 L 208.016 156.427 L 207.314 155.627 L 206.722 154.741 L 206.251 153.786 L 205.909 152.778 L 205.701 151.733 L 205.632 150.671 L 205.701 149.608 L 205.909 148.564 L 206.251 147.555 L 206.722 146.600 L 207.314 145.715 L 208.016 144.914 L 208.817 144.212 L 209.702 143.620 L 210.657 143.149 L 211.666 142.807 L 212.710 142.599 L 213.773 142.530 L 214.835 142.599 L 215.880 142.807 L 216.888 143.149 L 217.843 143.620 L 218.729 144.212 L 219.529 144.914 L 220.232 145.715 L 220.823 146.600 L 221.294 147.555 L 221.636 148.564 L 221.844 149.608 L 221.914 150.671 M 270.682 252.719 L 270.639 253.384 L 270.509 254.037 L 270.294 254.668 L 270.000 255.266 L 269.629 255.820 L 269.190 256.321 L 268.689 256.760 L 268.135 257.131 L 267.537 257.425 L 266.906 257.640 L 266.253 257.770 L 265.588 257.813 L 264.923 257.770 L 264.269 257.640 L 263.638 257.425 L 263.040 257.131 L 262.486 256.760 L 261.985 256.321 L 261.546 255.820 L 261.176 255.266 L 260.881 254.668 L 260.667 254.037 L 260.537 253.384 L 260.493 252.719 L 260.537 252.054 L 260.667 251.400 L 260.881 250.769 L 261.176 250.171 L 261.546 249.617 L 261.985 249.116 L 262.486 248.677 L 263.040 248.307 L 263.638 248.012 L 264.269 247.798 L 264.923 247.668 L 265.588 247.624 L 266.253 247.668 L 266.906 247.798 L 267.537 248.012 L 268.135 248.307 L 268.689 248.677 L 269.190 249.116 L 269.629 249.617 L 270.000 250.171 L 270.294 250.769 L 270.509 251.400 L 270.639 252.054 L 270.682 252.719 M 159.337 97.124 L 159.282 97.967 L 159.117 98.795 L 158.846 99.594 L 158.473 100.351 L 158.004 101.053 L 157.447 101.688 L 156.812 102.245 L 156.110 102.714 L 155.353 103.087 L 154.553 103.359 L 153.725 103.523 L 152.883 103.579 L 152.040 103.523 L 151.212 103.359 L 150.413 103.087 L 149.656 102.714 L 148.954 102.245 L 148.319 101.688 L 147.762 101.053 L 147.293 100.351 L 146.920 99.594 L 146.648 98.795 L 146.484 97.967 L 146.428 97.124 L 146.484 96.282 L 146.648 95.453 L 146.920 94.654 L 147.293 93.897 L 147.762 93.195 L 148.319 92.560 L 148.954 92.003 L 149.656 91.534 L 150.413 91.161 L 151.212 90.889 L 152.040 90.725 L 152.883 90.670 L 153.725 90.725 L 154.553 90.889 L 155.353 91.161 L 156.110 91.534 L 156.812 92.003 L 157.447 92.560 L 158.004 93.195 L 158.473 93.897 L 158.846 94.654 L 159.117 95.453 L 159.282 96.282 L 159.337 97.124 M 254.982 56.626 L 254.928 57.456 L 254.766 58.271 L 254.499 59.059 L 254.131 59.804 L 253.669 60.496 L 253.121 61.121 L 252.496 61.669 L 251.804 62.131 L 251.059 62.498 L 250.271 62.766 L 249.456 62.928 L 248.626 62.982 L 247.797 62.928 L 246.981 62.766 L 246.194 62.498 L 245.448 62.131 L 244.757 61.669 L 244.132 61.121 L 243.584 60.496 L 243.122 59.804 L 242.754 59.059 L 242.487 58.271 L 242.325 57.456 L 242.270 56.626 L 242.325 55.797 L 242.487 54.981 L 242.754 54.194 L 243.122 53.448 L 243.584 52.757 L 244.132 52.132 L 244.757 51.584 L 245.448 51.122 L 246.194 50.754 L 246.981 50.487 L 247.797 50.325 L 248.626 50.270 L 249.456 50.325 L 250.271 50.487 L 251.059 50.754 L 251.804 51.122 L 252.496 51.584 L 253.121 52.132 L 253.669 52.757 L 254.131 53.448 L 254.499 54.194 L 254.766 54.981 L 254.928 55.797 L 254.982 56.626 M 137.187 187.116 L 137.146 187.730 L 137.026 188.334 L 136.828 188.917 L 136.556 189.470 L 136.214 189.982 L 135.808 190.445 L 135.344 190.851 L 134.832 191.193 L 134.280 191.466 L 133.697 191.664 L 133.093 191.784 L 132.478 191.824 L 131.864 191.784 L 131.260 191.664 L 130.676 191.466 L 130.124 191.193 L 129.612 190.851 L 129.149 190.445 L 128.743 189.982 L 128.401 189.470 L 128.128 188.917 L 127.930 188.334 L 127.810 187.730 L 127.770 187.116 L 127.810 186.501 L 127.930 185.897 L 128.128 185.314 L 128.401 184.761 L 128.743 184.249 L 129.149 183.786 L 129.612 183.380 L 130.124 183.038 L 130.676 182.766 L 131.260 182.568 L 131.864 182.448 L 132.478 182.407 L 133.093 182.448 L 133.697 182.568 L 134.280 182.766 L 134.832 183.038 L 135.344 183.380 L 135.808 183.786 L 136.214 184.249 L 136.556 184.761 L 136.828 185.314 L 137.026 185.897 L 137.146 186.501 L 137.187 187.116 M 277.062 119.162 L 276.996 120.171 L 276.799 121.164 L 276.474 122.122 L 276.026 123.029 L 275.464 123.870 L 274.797 124.631 L 274.036 125.298 L 273.195 125.860 L 272.288 126.307 L 271.330 126.633 L 270.338 126.830 L 269.328 126.896 L 268.319 126.830 L 267.326 126.633 L 266.368 126.307 L 265.461 125.860 L 264.620 125.298 L 263.859 124.631 L 263.192 123.870 L 262.630 123.029 L 262.183 122.122 L 261.857 121.164 L 261.660 120.171 L 261.594 119.162 L 261.660 118.152 L 261.857 117.160 L 262.183 116.202 L 262.630 115.295 L 263.192 114.454 L 263.859 113.693 L 264.620 113.026 L 265.461 112.464 L 266.368 112.016 L 267.326 111.691 L 268.319 111.494 L 269.328 111.428 L 270.338 111.494 L 271.330 111.691 L 272.288 112.016 L 273.195 112.464 L 274.036 113.026 L 274.797 113.693 L 275.464 114.454 L 276.026 115.295 L 276.474 116.202 L 276.799 117.160 L 276.996 118.152 L 277.062 119.162 M 206.095 227.588 L 206.049 228.285 L 205.913 228.970 L 205.688 229.631 L 205.379 230.257 L 204.991 230.838 L 204.531 231.363 L 204.006 231.823 L 203.425 232.211 L 202.799 232.520 L 202.138 232.745 L 201.453 232.881 L 200.756 232.927 L 200.059 232.881 L 199.374 232.745 L 198.713 232.520 L 198.087 232.211 L 197.506 231.823 L 196.981 231.363 L 196.521 230.838 L 196.133 230.257 L 195.824 229.631 L 195.599 228.970 L 195.463 228.285 L 195.417 227.588 L 195.463 226.891 L 195.599 226.206 L 195.824 225.545 L 196.133 224.919 L 196.521 224.338 L 196.981 223.813 L 197.506 223.352 L 198.087 222.965 L 198.713 222.656 L 199.374 222.431 L 200.059 222.295 L 200.756 222.249 L 201.453 222.295 L 202.138 222.431 L 202.799 222.656 L 203.425 222.965 L 204.006 223.352 L 204.531 223.813 L 204.991 224.338 L 205.379 224.919 L 205.688 225.545 L 205.913 226.206 L 206.049 226.891 L 206.095 227.588 M 198.800 185.502 L 198.754 186.201 L 198.618 186.889 L 198.392 187.553 L 198.082 188.181 L 197.693 188.764 L 197.231 189.291 L 196.703 189.753 L 196.121 190.143 L 195.492 190.453 L 194.828 190.678 L 194.140 190.815 L 193.441 190.861 L 192.741 190.815 L 192.054 190.678 L 191.390 190.453 L 190.761 190.143 L 190.178 189.753 L 189.651 189.291 L 189.189 188.764 L 188.800 188.181 L 188.489 187.553 L 188.264 186.889 L 188.127 186.201 L 188.082 185.502 L 188.127 184.802 L 188.264 184.114 L 188.489 183.451 L 188.800 182.822 L 189.189 182.239 L 189.651 181.712 L 190.178 181.250 L 190.761 180.860 L 191.390 180.550 L 192.054 180.325 L 192.741 180.188 L 193.441 180.142 L 194.140 180.188 L 194.828 180.325 L 195.492 180.550 L 196.121 180.860 L 196.703 181.250 L 197.231 181.712 L 197.693 182.239 L 198.082 182.822 L 198.392 183.451 L 198.618 184.114 L 198.754 184.802 L 198.800 185.502 M 205.802 239.094 L 205.762 239.703 L 205.643 240.301 L 205.447 240.879 L 205.177 241.427 L 204.838 241.934 L 204.435 242.393 L 203.977 242.796 L 203.469 243.135 L 202.922 243.405 L 202.344 243.601 L 201.745 243.720 L 201.136 243.760 L 200.527 243.720 L 199.928 243.601 L 199.350 243.405 L 198.803 243.135 L 198.295 242.796 L 197.836 242.393 L 197.434 241.934 L 197.095 241.427 L 196.825 240.879 L 196.629 240.301 L 196.510 239.703 L 196.470 239.094 L 196.510 238.485 L 196.629 237.886 L 196.825 237.308 L 197.095 236.761 L 197.434 236.253 L 197.836 235.794 L 198.295 235.392 L 198.803 235.053 L 199.350 234.783 L 199.928 234.587 L 200.527 234.467 L 201.136 234.428 L 201.745 234.467 L 202.344 234.587 L 202.922 234.783 L 203.469 235.053 L 203.977 235.392 L 204.435 235.794 L 204.838 236.253 L 205.177 236.761 L 205.447 237.308 L 205.643 237.886 L 205.762 238.485 L 205.802 239.094 M 254.333 133.992 L 254.283 134.761 L 254.132 135.517 L 253.885 136.247 L 253.544 136.938 L 253.115 137.579 L 252.607 138.159 L 252.028 138.667 L 251.387 139.095 L 250.695 139.436 L 249.966 139.684 L 249.210 139.834 L 248.440 139.885 L 247.671 139.834 L 246.915 139.684 L 246.185 139.436 L 245.494 139.095 L 244.853 138.667 L 244.274 138.159 L 243.766 137.579 L 243.337 136.938 L 242.996 136.247 L 242.749 135.517 L 242.598 134.761 L 242.548 133.992 L 242.598 133.223 L 242.749 132.467 L 242.996 131.737 L 243.337 131.046 L 243.766 130.405 L 244.274 129.825 L 244.853 129.317 L 245.494 128.889 L 246.185 128.548 L 246.915 128.300 L 247.671 128.150 L 248.440 128.100 L 249.210 128.150 L 249.966 128.300 L 250.695 128.548 L 251.387 128.889 L 252.028 129.317 L 252.607 129.825 L 253.115 130.405 L 253.544 131.046 L 253.885 131.737 L 254.132 132.467 L 254.283 133.223 L 254.333 133.992 M 163.612 253.075 L 163.571 253.707 L 163.448 254.328 L 163.244 254.928 L 162.964 255.495 L 162.612 256.022 L 162.195 256.498 L 161.719 256.915 L 161.192 257.267 L 160.625 257.547 L 160.025 257.751 L 159.404 257.874 L 158.772 257.915 L 158.141 257.874 L 157.520 257.751 L 156.920 257.547 L 156.352 257.267 L 155.826 256.915 L 155.350 256.498 L 154.933 256.022 L 154.581 255.495 L 154.301 254.928 L 154.097 254.328 L 153.974 253.707 L 153.932 253.075 L 153.974 252.444 L 154.097 251.823 L 154.301 251.223 L 154.581 250.655 L 154.933 250.129 L 155.350 249.653 L 155.826 249.235 L 156.352 248.884 L 156.920 248.604 L 157.520 248.400 L 158.141 248.277 L 158.772 248.235 L 159.404 248.277 L 160.025 248.400 L 160.625 248.604 L 161.192 248.884 L 161.719 249.235 L 162.195 249.653 L 162.612 250.129 L 162.964 250.655 L 163.244 251.223 L 163.448 251.823 L 163.571 252.444 L 163.612 253.075 M 184.531 225.963 L 184.487 226.645 L 184.353 227.315 L 184.134 227.961 L 183.832 228.574 L 183.452 229.142 L 183.002 229.656 L 182.488 230.106 L 181.920 230.486 L 181.307 230.788 L 180.660 231.008 L 179.990 231.141 L 179.308 231.186 L 178.627 231.141 L 177.957 231.008 L 177.310 230.788 L 176.697 230.486 L 176.129 230.106 L 175.615 229.656 L 175.165 229.142 L 174.785 228.574 L 174.483 227.961 L 174.263 227.315 L 174.130 226.645 L 174.086 225.963 L 174.130 225.281 L 174.263 224.611 L 174.483 223.964 L 174.785 223.351 L 175.165 222.783 L 175.615 222.270 L 176.129 221.819 L 176.697 221.440 L 177.310 221.137 L 177.957 220.918 L 178.627 220.785 L 179.308 220.740 L 179.990 220.785 L 180.660 220.918 L 181.307 221.137 L 181.920 221.440 L 182.488 221.819 L 183.002 222.270 L 183.452 222.783 L 183.832 223.351 L 184.134 223.964 L 184.353 224.611 L 184.487 225.281 L 184.531 225.963 M 301.275 210.662 L 301.214 211.588 L 301.033 212.497 L 300.735 213.376 L 300.325 214.208 L 299.810 214.979 L 299.198 215.676 L 298.501 216.287 L 297.730 216.803 L 296.898 217.213 L 296.020 217.511 L 295.110 217.692 L 294.185 217.753 L 293.259 217.692 L 292.350 217.511 L 291.471 217.213 L 290.640 216.803 L 289.868 216.287 L 289.171 215.676 L 288.560 214.979 L 288.044 214.208 L 287.634 213.376 L 287.336 212.497 L 287.155 211.588 L 287.094 210.662 L 287.155 209.737 L 287.336 208.827 L 287.634 207.949 L 288.044 207.117 L 288.560 206.346 L 289.171 205.649 L 289.868 205.037 L 290.640 204.522 L 291.471 204.112 L 292.350 203.814 L 293.259 203.633 L 294.185 203.572 L 295.110 203.633 L 296.020 203.814 L 296.898 204.112 L 297.730 204.522 L 298.501 205.037 L 299.198 205.649 L 299.810 206.346 L 300.325 207.117 L 300.735 207.949 L 301.033 208.827 L 301.214 209.737 L 301.275 210.662 M 202.006 85.874 L 201.966 86.477 L 201.849 87.069 L 201.654 87.640 L 201.387 88.182 L 201.052 88.684 L 200.654 89.138 L 200.200 89.536 L 199.698 89.872 L 199.156 90.139 L 198.585 90.333 L 197.992 90.450 L 197.390 90.490 L 196.787 90.450 L 196.195 90.333 L 195.624 90.139 L 195.082 89.872 L 194.580 89.536 L 194.126 89.138 L 193.728 88.684 L 193.392 88.182 L 193.125 87.640 L 192.931 87.069 L 192.814 86.477 L 192.774 85.874 L 192.814 85.272 L 192.931 84.679 L 193.125 84.108 L 193.392 83.566 L 193.728 83.064 L 194.126 82.610 L 194.580 82.212 L 195.082 81.877 L 195.624 81.610 L 196.195 81.415 L 196.787 81.298 L 197.390 81.258 L 197.992 81.298 L 198.585 81.415 L 199.156 81.610 L 199.698 81.877 L 200.200 82.212 L 200.654 82.610 L 201.052 83.064 L 201.387 83.566 L 201.654 84.108 L 201.849 84.679 L 201.966 85.272 L 202.006 85.874 M 167.639 240.438 L 167.581 241.328 L 167.407 242.202 L 167.120 243.047 L 166.726 243.846 L 166.231 244.587 L 165.643 245.258 L 164.973 245.845 L 164.231 246.341 L 163.432 246.735 L 162.588 247.022 L 161.713 247.196 L 160.824 247.254 L 159.934 247.196 L 159.060 247.022 L 158.216 246.735 L 157.416 246.341 L 156.675 245.845 L 156.004 245.258 L 155.417 244.587 L 154.921 243.846 L 154.527 243.047 L 154.240 242.202 L 154.066 241.328 L 154.008 240.438 L 154.066 239.549 L 154.240 238.674 L 154.527 237.830 L 154.921 237.031 L 155.417 236.289 L 156.004 235.619 L 156.675 235.031 L 157.416 234.536 L 158.216 234.142 L 159.060 233.855 L 159.934 233.681 L 160.824 233.623 L 161.713 233.681 L 162.588 233.855 L 163.432 234.142 L 164.231 234.536 L 164.973 235.031 L 165.643 235.619 L 166.231 236.289 L 166.726 237.031 L 167.120 237.830 L 167.407 238.674 L 167.581 239.549 L 167.639 240.438 M 303.068 173.497 L 303.027 174.122 L 302.905 174.735 L 302.704 175.328 L 302.428 175.889 L 302.080 176.409 L 301.667 176.880 L 301.197 177.292 L 300.677 177.640 L 300.115 177.917 L 299.523 178.118 L 298.909 178.240 L 298.285 178.281 L 297.660 178.240 L 297.047 178.118 L 296.454 177.917 L 295.893 177.640 L 295.373 177.292 L 294.902 176.880 L 294.490 176.409 L 294.142 175.889 L 293.865 175.328 L 293.664 174.735 L 293.542 174.122 L 293.501 173.497 L 293.542 172.873 L 293.664 172.259 L 293.865 171.667 L 294.142 171.106 L 294.490 170.585 L 294.902 170.115 L 295.373 169.702 L 295.893 169.355 L 296.454 169.078 L 297.047 168.877 L 297.660 168.755 L 298.285 168.714 L 298.909 168.755 L 299.523 168.877 L 300.115 169.078 L 300.677 169.355 L 301.197 169.702 L 301.667 170.115 L 302.080 170.585 L 302.428 171.106 L 302.704 171.667 L 302.905 172.259 L 303.027 172.873 L 303.068 173.497 M 105.058 106.385 L 105.011 107.096 L 104.872 107.795 L 104.643 108.469 L 104.328 109.108 L 103.933 109.701 L 103.463 110.236 L 102.927 110.706 L 102.335 111.102 L 101.696 111.417 L 101.022 111.646 L 100.323 111.785 L 99.612 111.831 L 98.901 111.785 L 98.203 111.646 L 97.528 111.417 L 96.889 111.102 L 96.297 110.706 L 95.761 110.236 L 95.292 109.701 L 94.896 109.108 L 94.581 108.469 L 94.352 107.795 L 94.213 107.096 L 94.166 106.385 L 94.213 105.675 L 94.352 104.976 L 94.581 104.301 L 94.896 103.663 L 95.292 103.070 L 95.761 102.535 L 96.297 102.065 L 96.889 101.669 L 97.528 101.354 L 98.203 101.125 L 98.901 100.986 L 99.612 100.940 L 100.323 100.986 L 101.022 101.125 L 101.696 101.354 L 102.335 101.669 L 102.927 102.065 L 103.463 102.535 L 103.933 103.070 L 104.328 103.663 L 104.643 104.301 L 104.872 104.976 L 105.011 105.675 L 105.058 106.385 M 187.585 87.391 L 187.524 88.316 L 187.343 89.226 L 187.045 90.104 L 186.635 90.936 L 186.119 91.708 L 185.508 92.405 L 184.810 93.017 L 184.039 93.532 L 183.207 93.943 L 182.328 94.241 L 181.419 94.422 L 180.493 94.482 L 179.567 94.422 L 178.657 94.241 L 177.779 93.943 L 176.947 93.532 L 176.176 93.017 L 175.478 92.405 L 174.867 91.708 L 174.351 90.936 L 173.941 90.104 L 173.643 89.226 L 173.462 88.316 L 173.401 87.391 L 173.462 86.465 L 173.643 85.555 L 173.941 84.677 L 174.351 83.845 L 174.867 83.073 L 175.478 82.376 L 176.176 81.764 L 176.947 81.249 L 177.779 80.839 L 178.657 80.540 L 179.567 80.360 L 180.493 80.299 L 181.419 80.360 L 182.328 80.540 L 183.207 80.839 L 184.039 81.249 L 184.810 81.764 L 185.508 82.376 L 186.119 83.073 L 186.635 83.845 L 187.045 84.677 L 187.343 85.555 L 187.524 86.465 L 187.585 87.391 M 208.769 118.602 L 208.724 119.294 L 208.588 119.975 L 208.365 120.632 L 208.058 121.254 L 207.673 121.831 L 207.215 122.353 L 206.693 122.811 L 206.116 123.196 L 205.494 123.503 L 204.837 123.726 L 204.156 123.862 L 203.464 123.907 L 202.771 123.862 L 202.091 123.726 L 201.433 123.503 L 200.811 123.196 L 200.234 122.811 L 199.712 122.353 L 199.255 121.831 L 198.869 121.254 L 198.562 120.632 L 198.339 119.975 L 198.204 119.294 L 198.158 118.602 L 198.204 117.909 L 198.339 117.229 L 198.562 116.571 L 198.869 115.949 L 199.255 115.372 L 199.712 114.850 L 200.234 114.393 L 200.811 114.007 L 201.433 113.700 L 202.091 113.477 L 202.771 113.342 L 203.464 113.296 L 204.156 113.342 L 204.837 113.477 L 205.494 113.700 L 206.116 114.007 L 206.693 114.393 L 207.215 114.850 L 207.673 115.372 L 208.058 115.949 L 208.365 116.571 L 208.588 117.229 L 208.724 117.909 L 208.769 118.602 M 214.482 180.240 L 214.434 180.975 L 214.290 181.697 L 214.053 182.395 L 213.727 183.055 L 213.318 183.668 L 212.833 184.221 L 212.279 184.707 L 211.666 185.116 L 211.006 185.442 L 210.308 185.679 L 209.586 185.822 L 208.851 185.871 L 208.116 185.822 L 207.394 185.679 L 206.696 185.442 L 206.036 185.116 L 205.423 184.707 L 204.870 184.221 L 204.384 183.668 L 203.975 183.055 L 203.649 182.395 L 203.412 181.697 L 203.269 180.975 L 203.220 180.240 L 203.269 179.505 L 203.412 178.783 L 203.649 178.085 L 203.975 177.425 L 204.384 176.812 L 204.870 176.258 L 205.423 175.773 L 206.036 175.364 L 206.696 175.038 L 207.394 174.801 L 208.116 174.657 L 208.851 174.609 L 209.586 174.657 L 210.308 174.801 L 211.006 175.038 L 211.666 175.364 L 212.279 175.773 L 212.833 176.258 L 213.318 176.812 L 213.727 177.425 L 214.053 178.085 L 214.290 178.783 L 214.434 179.505 L 214.482 180.240" fill="none" stroke="#2dd4bf" stroke-width="1" vector-effect="non-scaling-stroke"/></svg>