<svg xmlns="http://www.w3.org/2000/svg" viewBox="83.44407956417953 18.325758415245097 251.12207551988345 259.90549173505195" width="251.12207551988345" height="259.90549173505195" shape-rendering="geometricPrecision"><rect x="83.44407956417953" y="18.325758415245097" width="251.12207551988345" height="259.90549173505195" fill="#0b0f14"/><path d="M 294.833 164.864 L 294.769 165.837 L 294.579 166.793 L 294.266 167.716 L 293.835 168.591 L 293.293 169.401 L 292.650 170.134 L 291.917 170.777 L 291.106 171.319 L 290.232 171.750 L 289.308 172.064 L 288.352 172.254 L 287.379 172.317 L 286.406 172.254 L 285.450 172.064 L 284.527 171.750 L 283.652 171.319 L 282.842 170.777 L 282.109 170.134 L 281.466 169.401 L 280.924 168.591 L 280.493 167.716 L 280.179 166.793 L 279.989 165.837 L 279.925 164.864 L 279.989 163.891 L 280.179 162.934 L 280.493 162.011 L 280.924 161.137 L 281.466 160.326 L 282.109 159.593 L 282.842 158.950 L 283.652 158.408 L 284.527 157.977 L 285.450 157.664 L 286.406 157.474 L 287.379 157.410 L 288.352 157.474 L 289.308 157.664 L 290.232 157.977 L 291.106 158.408 L 291.917 158.950 L 292.650 159.593 L 293.293 160.326 L 293.835 161.137 L 294.266 162.011 L 294.579 162.934 L 294.769 163.891 L 294.833 164.864 M 248.823 208.784 L 248.619 211.893 L 248.011 214.949 L 247.010 217.899 L 245.632 220.694 L 243.900 223.284 L 241.846 225.627 L 239.504 227.681 L 236.913 229.412 L 234.118 230.790 L 231.168 231.792 L 228.112 232.400 L 225.003 232.604 L 221.894 232.400 L 218.838 231.792 L 215.888 230.790 L 213.093 229.412 L 210.503 227.681 L 208.160 225.627 L 206.106 223.284 L 204.375 220.694 L 202.997 217.899 L 201.995 214.949 L 201.387 211.893 L 201.183 208.784 L 201.387 205.675 L 201.995 202.619 L 202.997 199.669 L 204.375 196.874 L 206.106 194.284 L 208.160 191.941 L 210.503 189.887 L 213.093 188.156 L 215.888 186.778 L 218.838 185.776 L 221.894 185.168 L 225.003 184.964 L 228.112 185.168 L 231.168 185.776 L 234.118 186.778 L 236.913 188.156 L 239.504 189.887 L 241.846 191.941 L 243.900 194.284 L 245.632 196.874 L 247.010 199.669 L 248.011 202.619 L 248.619 205.675 L 248.823 208.784 M 106.884 171.775 L 106.836 172.514 L 106.691 173.240 L 106.453 173.942 L 106.125 174.606 L 105.714 175.222 L 105.225 175.779 L 104.668 176.268 L 104.052 176.679 L 103.388 177.007 L 102.687 177.245 L 101.960 177.390 L 101.221 177.438 L 100.482 177.390 L 99.755 177.245 L 99.054 177.007 L 98.389 176.679 L 97.773 176.268 L 97.216 175.779 L 96.728 175.222 L 96.316 174.606 L 95.989 173.942 L 95.750 173.240 L 95.606 172.514 L 95.557 171.775 L 95.606 171.035 L 95.750 170.309 L 95.989 169.607 L 96.316 168.943 L 96.728 168.327 L 97.216 167.770 L 97.773 167.282 L 98.389 166.870 L 99.054 166.542 L 99.755 166.304 L 100.482 166.160 L 101.221 166.111 L 101.960 166.160 L 102.687 166.304 L 103.388 166.542 L 104.052 166.870 L 104.668 167.282 L 105.225 167.770 L 105.714 168.327 L 106.125 168.943 L 106.453 169.607 L 106.691 170.309 L 106.836 171.035 L 106.884 171.775 M 166.229 105.314 L 166.029 108.374 L 165.430 111.382 L 164.445 114.285 L 163.088 117.036 L 161.385 119.586 L 159.363 121.891 L 157.057 123.913 L 154.507 125.617 L 151.757 126.973 L 148.853 127.959 L 145.846 128.557 L 142.786 128.758 L 139.726 128.557 L 136.718 127.959 L 133.814 126.973 L 131.064 125.617 L 128.514 123.913 L 126.208 121.891 L 124.187 119.586 L 122.483 117.036 L 121.127 114.285 L 120.141 111.382 L 119.543 108.374 L 119.342 105.314 L 119.543 102.254 L 120.141 99.246 L 121.127 96.342 L 122.483 93.592 L 124.187 91.042 L 126.208 88.737 L 128.514 86.715 L 131.064 85.011 L 133.814 83.655 L 136.718 82.669 L 139.726 82.071 L 142.786 81.870 L 145.846 82.071 L 148.853 82.669 L 151.757 83.655 L 154.507 85.011 L 157.057 86.715 L 159.363 88.737 L 161.385 91.042 L 163.088 93.592 L 164.445 96.342 L 165.430 99.246 L 166.029 102.254 L 166.229 105.314 M 175.980 149.802 L 175.802 152.518 L 175.271 155.187 L 174.396 157.764 L 173.192 160.205 L 171.680 162.468 L 169.886 164.514 L 167.840 166.309 L 165.577 167.821 L 163.136 169.024 L 160.559 169.899 L 157.890 170.430 L 155.174 170.608 L 152.458 170.430 L 149.789 169.899 L 147.212 169.024 L 144.771 167.821 L 142.508 166.309 L 140.462 164.514 L 138.668 162.468 L 137.156 160.205 L 135.952 157.764 L 135.077 155.187 L 134.546 152.518 L 134.368 149.802 L 134.546 147.087 L 135.077 144.418 L 135.952 141.840 L 137.156 139.400 L 138.668 137.137 L 140.462 135.091 L 142.508 133.296 L 144.771 131.784 L 147.212 130.581 L 149.789 129.706 L 152.458 129.175 L 155.174 128.997 L 157.890 129.175 L 160.559 129.706 L 163.136 130.581 L 165.577 131.784 L 167.840 133.296 L 169.886 135.091 L 171.680 137.137 L 173.192 139.400 L 174.396 141.840 L 175.271 144.418 L 175.802 147.087 L 175.980 149.802 M 229.947 247.966 L 229.845 249.526 L 229.540 251.060 L 229.037 252.541 L 228.345 253.944 L 227.477 255.244 L 226.445 256.420 L 225.269 257.451 L 223.969 258.320 L 222.566 259.012 L 221.085 259.515 L 219.552 259.820 L 217.991 259.922 L 216.430 259.820 L 214.896 259.515 L 213.415 259.012 L 212.013 258.320 L 210.712 257.451 L 209.537 256.420 L 208.505 255.244 L 207.637 253.944 L 206.945 252.541 L 206.442 251.060 L 206.137 249.526 L 206.035 247.966 L 206.137 246.405 L 206.442 244.871 L 206.945 243.390 L 207.637 241.988 L 208.505 240.687 L 209.537 239.512 L 210.712 238.480 L 212.013 237.611 L 213.415 236.920 L 214.896 236.417 L 216.430 236.112 L 217.991 236.010 L 219.552 236.112 L 221.085 236.417 L 222.566 236.920 L 223.969 237.611 L 225.269 238.480 L 226.445 239.512 L 227.477 240.687 L 228.345 241.988 L 229.037 243.390 L 229.540 244.871 L 229.845 246.405 L 229.947 247.966 M 275.146 73.677 L 274.976 76.268 L 274.469 78.814 L 273.635 81.273 L 272.486 83.602 L 271.044 85.761 L 269.332 87.714 L 267.379 89.426 L 265.220 90.868 L 262.891 92.017 L 260.432 92.852 L 257.886 93.358 L 255.294 93.528 L 252.703 93.358 L 250.157 92.852 L 247.698 92.017 L 245.369 90.868 L 243.210 89.426 L 241.257 87.714 L 239.545 85.761 L 238.103 83.602 L 236.954 81.273 L 236.120 78.814 L 235.613 76.268 L 235.443 73.677 L 235.613 71.085 L 236.120 68.539 L 236.954 66.080 L 238.103 63.751 L 239.545 61.592 L 241.257 59.640 L 243.210 57.927 L 245.369 56.485 L 247.698 55.336 L 250.157 54.502 L 252.703 53.995 L 255.294 53.825 L 257.886 53.995 L 260.432 54.502 L 262.891 55.336 L 265.220 56.485 L 267.379 57.927 L 269.332 59.640 L 271.044 61.592 L 272.486 63.751 L 273.635 66.080 L 274.469 68.539 L 274.976 71.085 L 275.146 73.677 M 313.013 193.557 L 312.855 195.976 L 312.382 198.353 L 311.602 200.649 L 310.530 202.823 L 309.184 204.838 L 307.585 206.660 L 305.763 208.259 L 303.748 209.605 L 301.573 210.678 L 299.278 211.457 L 296.901 211.930 L 294.482 212.088 L 292.063 211.930 L 289.686 211.457 L 287.390 210.678 L 285.216 209.605 L 283.201 208.259 L 281.378 206.660 L 279.780 204.838 L 278.433 202.823 L 277.361 200.649 L 276.582 198.353 L 276.109 195.976 L 275.951 193.557 L 276.109 191.138 L 276.582 188.761 L 277.361 186.465 L 278.433 184.291 L 279.780 182.276 L 281.378 180.453 L 283.201 178.855 L 285.216 177.508 L 287.390 176.436 L 289.686 175.657 L 292.063 175.184 L 294.482 175.026 L 296.901 175.184 L 299.278 175.657 L 301.573 176.436 L 303.748 177.508 L 305.763 178.855 L 307.585 180.453 L 309.184 182.276 L 310.530 184.291 L 311.602 186.465 L 312.382 188.761 L 312.855 191.138 L 313.013 193.557 M 223.236 129.250 L 223.170 130.261 L 222.972 131.255 L 222.647 132.215 L 222.198 133.124 L 221.635 133.966 L 220.967 134.728 L 220.205 135.396 L 219.363 135.959 L 218.454 136.408 L 217.494 136.733 L 216.500 136.931 L 215.489 136.997 L 214.477 136.931 L 213.484 136.733 L 212.524 136.408 L 211.615 135.959 L 210.772 135.396 L 210.010 134.728 L 209.342 133.966 L 208.779 133.124 L 208.331 132.215 L 208.005 131.255 L 207.807 130.261 L 207.741 129.250 L 207.807 128.238 L 208.005 127.245 L 208.331 126.285 L 208.779 125.376 L 209.342 124.533 L 210.010 123.771 L 210.772 123.103 L 211.615 122.540 L 212.524 122.092 L 213.484 121.766 L 214.477 121.568 L 215.489 121.502 L 216.500 121.568 L 217.494 121.766 L 218.454 122.092 L 219.363 122.540 L 220.205 123.103 L 220.967 123.771 L 221.635 124.533 L 222.198 125.376 L 222.647 126.285 L 222.972 127.245 L 223.170 128.238 L 223.236 129.250 M 160.637 60.481 L 160.517 62.316 L 160.158 64.121 L 159.566 65.863 L 158.753 67.513 L 157.730 69.043 L 156.517 70.426 L 155.134 71.639 L 153.605 72.661 L 151.955 73.475 L 150.212 74.066 L 148.408 74.425 L 146.572 74.545 L 144.736 74.425 L 142.932 74.066 L 141.190 73.475 L 139.540 72.661 L 138.010 71.639 L 136.627 70.426 L 135.414 69.043 L 134.392 67.513 L 133.578 65.863 L 132.987 64.121 L 132.628 62.316 L 132.507 60.481 L 132.628 58.645 L 132.987 56.840 L 133.578 55.098 L 134.392 53.448 L 135.414 51.919 L 136.627 50.535 L 138.010 49.322 L 139.540 48.300 L 141.190 47.487 L 142.932 46.895 L 144.736 46.536 L 146.572 46.416 L 148.408 46.536 L 150.212 46.895 L 151.955 47.487 L 153.605 48.300 L 155.134 49.322 L 156.517 50.535 L 157.730 51.919 L 158.753 53.448 L 159.566 55.098 L 160.158 56.840 L 160.517 58.645 L 160.637 60.481 M 314.430 96.936 L 314.305 98.841 L 313.932 100.714 L 313.319 102.521 L 312.474 104.234 L 311.414 105.821 L 310.155 107.256 L 308.720 108.515 L 307.132 109.576 L 305.420 110.420 L 303.612 111.034 L 301.740 111.406 L 299.835 111.531 L 297.930 111.406 L 296.058 111.034 L 294.250 110.420 L 292.538 109.576 L 290.951 108.515 L 289.515 107.256 L 288.256 105.821 L 287.196 104.234 L 286.351 102.521 L 285.738 100.714 L 285.365 98.841 L 285.241 96.936 L 285.365 95.031 L 285.738 93.159 L 286.351 91.351 L 287.196 89.639 L 288.256 88.052 L 289.515 86.616 L 290.951 85.358 L 292.538 84.297 L 294.250 83.453 L 296.058 82.839 L 297.930 82.467 L 299.835 82.342 L 301.740 82.467 L 303.612 82.839 L 305.420 83.453 L 307.132 84.297 L 308.720 85.358 L 310.155 86.616 L 311.414 88.052 L 312.474 89.639 L 313.319 91.351 L 313.932 93.159 L 314.305 95.031 L 314.430 96.936 M 248.291 135.658 L 248.185 137.273 L 247.869 138.859 L 247.349 140.391 L 246.634 141.842 L 245.735 143.188 L 244.668 144.404 L 243.452 145.471 L 242.107 146.370 L 240.656 147.085 L 239.124 147.605 L 237.537 147.921 L 235.922 148.027 L 234.308 147.921 L 232.721 147.605 L 231.189 147.085 L 229.738 146.370 L 228.393 145.471 L 227.177 144.404 L 226.110 143.188 L 225.211 141.842 L 224.496 140.391 L 223.976 138.859 L 223.660 137.273 L 223.554 135.658 L 223.660 134.044 L 223.976 132.457 L 224.496 130.925 L 225.211 129.474 L 226.110 128.129 L 227.177 126.913 L 228.393 125.846 L 229.738 124.947 L 231.189 124.231 L 232.721 123.711 L 234.308 123.396 L 235.922 123.290 L 237.537 123.396 L 239.124 123.711 L 240.656 124.231 L 242.107 124.947 L 243.452 125.846 L 244.668 126.913 L 245.735 128.129 L 246.634 129.474 L 247.349 130.925 L 247.869 132.457 L 248.185 134.044 L 248.291 135.658 M 135.063 202.958 L 134.950 204.693 L 134.611 206.397 L 134.052 208.043 L 133.283 209.602 L 132.318 211.047 L 131.172 212.354 L 129.865 213.500 L 128.420 214.466 L 126.861 215.234 L 125.215 215.793 L 123.510 216.132 L 121.776 216.246 L 120.041 216.132 L 118.337 215.793 L 116.691 215.234 L 115.132 214.466 L 113.687 213.500 L 112.380 212.354 L 111.234 211.047 L 110.268 209.602 L 109.500 208.043 L 108.941 206.397 L 108.602 204.693 L 108.488 202.958 L 108.602 201.224 L 108.941 199.519 L 109.500 197.873 L 110.268 196.314 L 111.234 194.869 L 112.380 193.562 L 113.687 192.416 L 115.132 191.451 L 116.691 190.682 L 118.337 190.123 L 120.041 189.784 L 121.776 189.671 L 123.510 189.784 L 125.215 190.123 L 126.861 190.682 L 128.420 191.451 L 129.865 192.416 L 131.172 193.562 L 132.318 194.869 L 133.283 196.314 L 134.052 197.873 L 134.611 199.519 L 134.950 201.224 L 135.063 202.958 M 201.794 94.971 L 201.736 95.862 L 201.562 96.737 L 201.275 97.583 L 200.880 98.383 L 200.384 99.126 L 199.795 99.797 L 199.124 100.385 L 198.382 100.881 L 197.581 101.276 L 196.736 101.563 L 195.861 101.737 L 194.970 101.795 L 194.079 101.737 L 193.204 101.563 L 192.358 101.276 L 191.558 100.881 L 190.816 100.385 L 190.144 99.797 L 189.556 99.126 L 189.060 98.383 L 188.665 97.583 L 188.378 96.737 L 188.204 95.862 L 188.146 94.971 L 188.204 94.080 L 188.378 93.205 L 188.665 92.360 L 189.060 91.559 L 189.556 90.817 L 190.144 90.146 L 190.816 89.557 L 191.558 89.061 L 192.358 88.666 L 193.204 88.379 L 194.079 88.205 L 194.970 88.147 L 195.861 88.205 L 196.736 88.379 L 197.581 88.666 L 198.382 89.061 L 199.124 89.557 L 199.795 90.146 L 200.384 90.817 L 200.880 91.559 L 201.275 92.360 L 201.562 93.205 L 201.736 94.080 L 201.794 94.971 M 189.876 217.182 L 189.695 219.941 L 189.156 222.652 L 188.267 225.270 L 187.044 227.750 L 185.508 230.049 L 183.685 232.127 L 181.607 233.950 L 179.308 235.486 L 176.828 236.709 L 174.210 237.598 L 171.499 238.137 L 168.740 238.318 L 165.981 238.137 L 163.269 237.598 L 160.651 236.709 L 158.172 235.486 L 155.873 233.950 L 153.794 232.127 L 151.971 230.049 L 150.435 227.750 L 149.213 225.270 L 148.324 222.652 L 147.785 219.941 L 147.604 217.182 L 147.785 214.423 L 148.324 211.711 L 149.213 209.093 L 150.435 206.614 L 151.971 204.315 L 153.794 202.236 L 155.873 200.413 L 158.172 198.877 L 160.651 197.655 L 163.269 196.766 L 165.981 196.227 L 168.740 196.046 L 171.499 196.227 L 174.210 196.766 L 176.828 197.655 L 179.308 198.877 L 181.607 200.413 L 183.685 202.236 L 185.508 204.315 L 187.044 206.614 L 188.267 209.093 L 189.156 211.711 L 189.695 214.423 L 189.876 217.182 M 279.235 119.717 L 279.174 120.644 L 278.993 121.556 L 278.695 122.435 L 278.284 123.268 L 277.768 124.041 L 277.155 124.739 L 276.457 125.352 L 275.684 125.868 L 274.851 126.279 L 273.971 126.578 L 273.060 126.759 L 272.133 126.820 L 271.206 126.759 L 270.295 126.578 L 269.415 126.279 L 268.582 125.868 L 267.809 125.352 L 267.111 124.739 L 266.498 124.041 L 265.982 123.268 L 265.571 122.435 L 265.273 121.556 L 265.091 120.644 L 265.031 119.717 L 265.091 118.790 L 265.273 117.879 L 265.571 116.999 L 265.982 116.166 L 266.498 115.394 L 267.111 114.695 L 267.809 114.083 L 268.582 113.567 L 269.415 113.156 L 270.295 112.857 L 271.206 112.676 L 272.133 112.615 L 273.060 112.676 L 273.971 112.857 L 274.851 113.156 L 275.684 113.567 L 276.457 114.083 L 277.155 114.695 L 277.768 115.394 L 278.284 116.166 L 278.695 116.999 L 278.993 117.879 L 279.174 118.790 L 279.235 119.717 M 279.867 154.874 L 279.759 156.520 L 279.437 158.138 L 278.907 159.700 L 278.177 161.179 L 277.261 162.551 L 276.173 163.791 L 274.933 164.878 L 273.562 165.795 L 272.082 166.524 L 270.520 167.054 L 268.903 167.376 L 267.257 167.484 L 265.611 167.376 L 263.993 167.054 L 262.431 166.524 L 260.952 165.795 L 259.580 164.878 L 258.340 163.791 L 257.253 162.551 L 256.336 161.179 L 255.607 159.700 L 255.077 158.138 L 254.755 156.520 L 254.647 154.874 L 254.755 153.228 L 255.077 151.611 L 255.607 150.049 L 256.336 148.569 L 257.253 147.198 L 258.340 145.958 L 259.580 144.870 L 260.952 143.954 L 262.431 143.224 L 263.993 142.694 L 265.611 142.372 L 267.257 142.265 L 268.903 142.372 L 270.520 142.694 L 272.082 143.224 L 273.562 143.954 L 274.933 144.870 L 276.173 145.958 L 277.261 147.198 L 278.177 148.569 L 278.907 150.049 L 279.437 151.611 L 279.759 153.228 L 279.867 154.874 M 172.564 181.413 L 172.509 182.259 L 172.344 183.091 L 172.071 183.894 L 171.696 184.655 L 171.225 185.360 L 170.666 185.998 L 170.028 186.557 L 169.323 187.028 L 168.562 187.403 L 167.759 187.676 L 166.927 187.841 L 166.081 187.897 L 165.235 187.841 L 164.403 187.676 L 163.600 187.403 L 162.839 187.028 L 162.134 186.557 L 161.497 185.998 L 160.938 185.360 L 160.466 184.655 L 160.091 183.894 L 159.819 183.091 L 159.653 182.259 L 159.598 181.413 L 159.653 180.567 L 159.819 179.735 L 160.091 178.932 L 160.466 178.172 L 160.938 177.466 L 161.497 176.829 L 162.134 176.270 L 162.839 175.798 L 163.600 175.423 L 164.403 175.151 L 165.235 174.985 L 166.081 174.930 L 166.927 174.985 L 167.759 175.151 L 168.562 175.423 L 169.323 175.798 L 170.028 176.270 L 170.666 176.829 L 171.225 177.466 L 171.696 178.172 L 172.071 178.932 L 172.344 179.735 L 172.509 180.567 L 172.564 181.413 M 124.378 125.988 L 124.318 126.907 L 124.139 127.809 L 123.843 128.681 L 123.436 129.506 L 122.924 130.272 L 122.317 130.964 L 121.625 131.570 L 120.860 132.082 L 120.035 132.489 L 119.163 132.785 L 118.260 132.964 L 117.342 133.025 L 116.423 132.964 L 115.521 132.785 L 114.649 132.489 L 113.824 132.082 L 113.058 131.570 L 112.366 130.964 L 111.759 130.272 L 111.248 129.506 L 110.841 128.681 L 110.545 127.809 L 110.366 126.907 L 110.305 125.988 L 110.366 125.070 L 110.545 124.167 L 110.841 123.295 L 111.248 122.470 L 111.759 121.705 L 112.366 121.013 L 113.058 120.406 L 113.824 119.894 L 114.649 119.487 L 115.521 119.191 L 116.423 119.012 L 117.342 118.952 L 118.260 119.012 L 119.163 119.191 L 120.035 119.487 L 120.860 119.894 L 121.625 120.406 L 122.317 121.013 L 122.924 121.705 L 123.436 122.470 L 123.843 123.295 L 124.139 124.167 L 124.318 125.070 L 124.378 125.988 M 134.058 221.896 L 134.012 222.603 L 133.874 223.298 L 133.646 223.970 L 133.332 224.605 L 132.939 225.194 L 132.471 225.727 L 131.938 226.194 L 131.349 226.588 L 130.714 226.902 L 130.043 227.129 L 129.348 227.268 L 128.640 227.314 L 127.933 227.268 L 127.238 227.129 L 126.567 226.902 L 125.932 226.588 L 125.342 226.194 L 124.809 225.727 L 124.342 225.194 L 123.949 224.605 L 123.635 223.970 L 123.407 223.298 L 123.269 222.603 L 123.223 221.896 L 123.269 221.189 L 123.407 220.494 L 123.635 219.823 L 123.949 219.187 L 124.342 218.598 L 124.809 218.065 L 125.342 217.598 L 125.932 217.204 L 126.567 216.891 L 127.238 216.663 L 127.933 216.525 L 128.640 216.479 L 129.348 216.525 L 130.043 216.663 L 130.714 216.891 L 131.349 217.204 L 131.938 217.598 L 132.471 218.065 L 132.939 218.598 L 133.332 219.187 L 133.646 219.823 L 133.874 220.494 L 134.012 221.189 L 134.058 221.896 M 203.687 166.633 L 203.575 168.349 L 203.239 170.036 L 202.687 171.664 L 201.926 173.206 L 200.971 174.636 L 199.837 175.929 L 198.544 177.063 L 197.114 178.018 L 195.572 178.778 L 193.944 179.331 L 192.257 179.667 L 190.541 179.779 L 188.825 179.667 L 187.139 179.331 L 185.510 178.778 L 183.968 178.018 L 182.538 177.063 L 181.245 175.929 L 180.112 174.636 L 179.156 173.206 L 178.396 171.664 L 177.843 170.036 L 177.508 168.349 L 177.395 166.633 L 177.508 164.917 L 177.843 163.231 L 178.396 161.602 L 179.156 160.060 L 180.112 158.630 L 181.245 157.337 L 182.538 156.204 L 183.968 155.248 L 185.510 154.488 L 187.139 153.935 L 188.825 153.599 L 190.541 153.487 L 192.257 153.599 L 193.944 153.935 L 195.572 154.488 L 197.114 155.248 L 198.544 156.204 L 199.837 157.337 L 200.971 158.630 L 201.926 160.060 L 202.687 161.602 L 203.239 163.231 L 203.575 164.917 L 203.687 166.633 M 211.071 139.901 L 211.010 140.829 L 210.828 141.740 L 210.530 142.621 L 210.118 143.454 L 209.602 144.227 L 208.989 144.926 L 208.290 145.539 L 207.517 146.056 L 206.683 146.467 L 205.803 146.766 L 204.891 146.947 L 203.964 147.008 L 203.036 146.947 L 202.124 146.766 L 201.244 146.467 L 200.410 146.056 L 199.637 145.539 L 198.938 144.926 L 198.325 144.227 L 197.809 143.454 L 197.398 142.621 L 197.099 141.740 L 196.918 140.829 L 196.857 139.901 L 196.918 138.973 L 197.099 138.062 L 197.398 137.181 L 197.809 136.348 L 198.325 135.575 L 198.938 134.876 L 199.637 134.263 L 200.410 133.746 L 201.244 133.335 L 202.124 133.036 L 203.036 132.855 L 203.964 132.794 L 204.891 132.855 L 205.803 133.036 L 206.683 133.335 L 207.517 133.746 L 208.290 134.263 L 208.989 134.876 L 209.602 135.575 L 210.118 136.348 L 210.530 137.181 L 210.828 138.062 L 211.010 138.973 L 211.071 139.901 M 287.710 60.545 L 287.656 61.369 L 287.495 62.179 L 287.229 62.961 L 286.864 63.701 L 286.405 64.388 L 285.861 65.008 L 285.240 65.553 L 284.554 66.011 L 283.813 66.376 L 283.032 66.642 L 282.222 66.803 L 281.398 66.857 L 280.574 66.803 L 279.765 66.642 L 278.983 66.376 L 278.242 66.011 L 277.556 65.553 L 276.935 65.008 L 276.391 64.388 L 275.932 63.701 L 275.567 62.961 L 275.302 62.179 L 275.141 61.369 L 275.087 60.545 L 275.141 59.722 L 275.302 58.912 L 275.567 58.130 L 275.932 57.390 L 276.391 56.703 L 276.935 56.082 L 277.556 55.538 L 278.242 55.079 L 278.983 54.714 L 279.765 54.449 L 280.574 54.288 L 281.398 54.234 L 282.222 54.288 L 283.032 54.449 L 283.813 54.714 L 284.554 55.079 L 285.240 55.538 L 285.861 56.082 L 286.405 56.703 L 286.864 57.390 L 287.229 58.130 L 287.495 58.912 L 287.656 59.722 L 287.710 60.545 M 271.759 106.448 L 271.693 107.455 L 271.496 108.446 L 271.171 109.403 L 270.724 110.309 L 270.163 111.149 L 269.497 111.908 L 268.737 112.574 L 267.898 113.135 L 266.992 113.582 L 266.035 113.907 L 265.044 114.104 L 264.036 114.170 L 263.028 114.104 L 262.038 113.907 L 261.081 113.582 L 260.175 113.135 L 259.335 112.574 L 258.576 111.908 L 257.910 111.149 L 257.349 110.309 L 256.902 109.403 L 256.577 108.446 L 256.380 107.455 L 256.314 106.448 L 256.380 105.440 L 256.577 104.449 L 256.902 103.492 L 257.349 102.586 L 257.910 101.746 L 258.576 100.987 L 259.335 100.321 L 260.175 99.760 L 261.081 99.313 L 262.038 98.988 L 263.028 98.791 L 264.036 98.725 L 265.044 98.791 L 266.035 98.988 L 266.992 99.313 L 267.898 99.760 L 268.737 100.321 L 269.497 100.987 L 270.163 101.746 L 270.724 102.586 L 271.171 103.492 L 271.496 104.449 L 271.693 105.440 L 271.759 106.448 M 314.065 161.356 L 314.013 162.140 L 313.860 162.911 L 313.608 163.654 L 313.260 164.359 L 312.824 165.012 L 312.306 165.603 L 311.715 166.121 L 311.062 166.557 L 310.357 166.905 L 309.613 167.157 L 308.843 167.310 L 308.059 167.362 L 307.275 167.310 L 306.505 167.157 L 305.761 166.905 L 305.056 166.557 L 304.403 166.121 L 303.812 165.603 L 303.294 165.012 L 302.858 164.359 L 302.511 163.654 L 302.258 162.911 L 302.105 162.140 L 302.053 161.356 L 302.105 160.572 L 302.258 159.802 L 302.511 159.058 L 302.858 158.353 L 303.294 157.700 L 303.812 157.110 L 304.403 156.592 L 305.056 156.155 L 305.761 155.808 L 306.505 155.555 L 307.275 155.402 L 308.059 155.351 L 308.843 155.402 L 309.613 155.555 L 310.357 155.808 L 311.062 156.155 L 311.715 156.592 L 312.306 157.110 L 312.824 157.700 L 313.260 158.353 L 313.608 159.058 L 313.860 159.802 L 314.013 160.572 L 314.065 161.356 M 294.028 223.605 L 293.939 224.965 L 293.673 226.301 L 293.235 227.591 L 292.633 228.813 L 291.876 229.946 L 290.978 230.970 L 289.953 231.868 L 288.821 232.625 L 287.599 233.228 L 286.309 233.666 L 284.973 233.931 L 283.613 234.020 L 282.254 233.931 L 280.918 233.666 L 279.628 233.228 L 278.406 232.625 L 277.273 231.868 L 276.249 230.970 L 275.350 229.946 L 274.594 228.813 L 273.991 227.591 L 273.553 226.301 L 273.287 224.965 L 273.198 223.605 L 273.287 222.246 L 273.553 220.910 L 273.991 219.620 L 274.594 218.398 L 275.350 217.265 L 276.249 216.241 L 277.273 215.343 L 278.406 214.586 L 279.628 213.983 L 280.918 213.545 L 282.254 213.280 L 283.613 213.190 L 284.973 213.280 L 286.309 213.545 L 287.599 213.983 L 288.821 214.586 L 289.953 215.343 L 290.978 216.241 L 291.876 217.265 L 292.633 218.398 L 293.235 219.620 L 293.673 220.910 L 293.939 222.246 L 294.028 223.605 M 259.922 173.144 L 259.811 174.843 L 259.479 176.513 L 258.932 178.125 L 258.179 179.652 L 257.233 181.068 L 256.110 182.348 L 254.830 183.471 L 253.414 184.416 L 251.887 185.169 L 250.275 185.717 L 248.605 186.049 L 246.907 186.160 L 245.208 186.049 L 243.538 185.717 L 241.926 185.169 L 240.399 184.416 L 238.983 183.471 L 237.703 182.348 L 236.580 181.068 L 235.635 179.652 L 234.882 178.125 L 234.334 176.513 L 234.002 174.843 L 233.891 173.144 L 234.002 171.445 L 234.334 169.776 L 234.882 168.163 L 235.635 166.636 L 236.580 165.221 L 237.703 163.941 L 238.983 162.818 L 240.399 161.872 L 241.926 161.119 L 243.538 160.572 L 245.208 160.240 L 246.907 160.129 L 248.605 160.240 L 250.275 160.572 L 251.887 161.119 L 253.414 161.872 L 254.830 162.818 L 256.110 163.941 L 257.233 165.221 L 258.179 166.636 L 258.932 168.163 L 259.479 169.776 L 259.811 171.445 L 259.922 173.144 M 144.350 174.245 L 144.275 175.398 L 144.049 176.531 L 143.678 177.624 L 143.167 178.660 L 142.525 179.621 L 141.764 180.489 L 140.895 181.251 L 139.935 181.892 L 138.899 182.403 L 137.805 182.775 L 136.672 183.000 L 135.520 183.076 L 134.367 183.000 L 133.234 182.775 L 132.141 182.403 L 131.105 181.892 L 130.144 181.251 L 129.276 180.489 L 128.514 179.621 L 127.872 178.660 L 127.362 177.624 L 126.990 176.531 L 126.765 175.398 L 126.689 174.245 L 126.765 173.092 L 126.990 171.960 L 127.362 170.866 L 127.872 169.830 L 128.514 168.869 L 129.276 168.001 L 130.144 167.239 L 131.105 166.598 L 132.141 166.087 L 133.234 165.716 L 134.367 165.490 L 135.520 165.415 L 136.672 165.490 L 137.805 165.716 L 138.899 166.087 L 139.935 166.598 L 140.895 167.239 L 141.764 168.001 L 142.525 168.869 L 143.167 169.830 L 143.678 170.866 L 144.049 171.960 L 144.275 173.092 L 144.350 174.245 M 262.390 129.509 L 262.343 130.234 L 262.201 130.946 L 261.967 131.634 L 261.646 132.285 L 261.243 132.889 L 260.764 133.435 L 260.218 133.914 L 259.614 134.317 L 258.963 134.638 L 258.275 134.872 L 257.563 135.013 L 256.839 135.061 L 256.114 135.013 L 255.402 134.872 L 254.714 134.638 L 254.063 134.317 L 253.459 133.914 L 252.913 133.435 L 252.434 132.889 L 252.031 132.285 L 251.710 131.634 L 251.476 130.946 L 251.335 130.234 L 251.287 129.509 L 251.335 128.785 L 251.476 128.073 L 251.710 127.385 L 252.031 126.734 L 252.434 126.130 L 252.913 125.584 L 253.459 125.105 L 254.063 124.702 L 254.714 124.381 L 255.402 124.147 L 256.114 124.005 L 256.839 123.958 L 257.563 124.005 L 258.275 124.147 L 258.963 124.381 L 259.614 124.702 L 260.218 125.105 L 260.764 125.584 L 261.243 126.130 L 261.646 126.734 L 261.967 127.385 L 262.201 128.073 L 262.343 128.785 L 262.390 129.509 M 227.035 64.991 L 226.884 67.295 L 226.434 69.559 L 225.692 71.745 L 224.671 73.816 L 223.388 75.735 L 221.866 77.471 L 220.131 78.993 L 218.211 80.276 L 216.141 81.297 L 213.954 82.039 L 211.690 82.489 L 209.387 82.640 L 207.083 82.489 L 204.819 82.039 L 202.633 81.297 L 200.562 80.276 L 198.643 78.993 L 196.907 77.471 L 195.385 75.735 L 194.102 73.816 L 193.081 71.745 L 192.339 69.559 L 191.889 67.295 L 191.738 64.991 L 191.889 62.688 L 192.339 60.423 L 193.081 58.237 L 194.102 56.167 L 195.385 54.247 L 196.907 52.512 L 198.643 50.990 L 200.562 49.707 L 202.633 48.686 L 204.819 47.944 L 207.083 47.494 L 209.387 47.343 L 211.690 47.494 L 213.954 47.944 L 216.141 48.686 L 218.211 49.707 L 220.131 50.990 L 221.866 52.512 L 223.388 54.247 L 224.671 56.167 L 225.692 58.237 L 226.434 60.423 L 226.884 62.688 L 227.035 64.991 M 275.581 239.822 L 275.479 241.375 L 275.175 242.901 L 274.675 244.375 L 273.987 245.770 L 273.123 247.064 L 272.097 248.234 L 270.927 249.260 L 269.633 250.125 L 268.237 250.813 L 266.764 251.313 L 265.238 251.617 L 263.685 251.718 L 262.132 251.617 L 260.606 251.313 L 259.132 250.813 L 257.737 250.125 L 256.443 249.260 L 255.273 248.234 L 254.247 247.064 L 253.383 245.770 L 252.694 244.375 L 252.194 242.901 L 251.891 241.375 L 251.789 239.822 L 251.891 238.270 L 252.194 236.743 L 252.694 235.270 L 253.383 233.874 L 254.247 232.580 L 255.273 231.411 L 256.443 230.385 L 257.737 229.520 L 259.132 228.832 L 260.606 228.332 L 262.132 228.028 L 263.685 227.926 L 265.238 228.028 L 266.764 228.332 L 268.237 228.832 L 269.633 229.520 L 270.927 230.385 L 272.097 231.411 L 273.123 232.580 L 273.987 233.874 L 274.675 235.270 L 275.175 236.743 L 275.479 238.270 L 275.581 239.822 M 200.577 251.432 L 200.449 253.390 L 200.066 255.315 L 199.435 257.173 L 198.567 258.934 L 197.476 260.565 L 196.182 262.041 L 194.707 263.335 L 193.075 264.425 L 191.315 265.294 L 189.456 265.924 L 187.531 266.307 L 185.573 266.436 L 183.615 266.307 L 181.690 265.924 L 179.831 265.294 L 178.071 264.425 L 176.439 263.335 L 174.964 262.041 L 173.670 260.565 L 172.579 258.934 L 171.711 257.173 L 171.080 255.315 L 170.697 253.390 L 170.569 251.432 L 170.697 249.473 L 171.080 247.548 L 171.711 245.690 L 172.579 243.930 L 173.670 242.298 L 174.964 240.822 L 176.439 239.528 L 178.071 238.438 L 179.831 237.570 L 181.690 236.939 L 183.615 236.556 L 185.573 236.428 L 187.531 236.556 L 189.456 236.939 L 191.315 237.570 L 193.075 238.438 L 194.707 239.528 L 196.182 240.822 L 197.476 242.298 L 198.567 243.930 L 199.435 245.690 L 200.066 247.548 L 200.449 249.473 L 200.577 251.432 M 203.222 114.306 L 203.177 114.985 L 203.045 115.652 L 202.826 116.296 L 202.525 116.906 L 202.147 117.472 L 201.699 117.983 L 201.187 118.432 L 200.622 118.810 L 200.011 119.110 L 199.367 119.329 L 198.700 119.462 L 198.021 119.506 L 197.343 119.462 L 196.675 119.329 L 196.031 119.110 L 195.421 118.810 L 194.855 118.432 L 194.344 117.983 L 193.896 117.472 L 193.518 116.906 L 193.217 116.296 L 192.998 115.652 L 192.865 114.985 L 192.821 114.306 L 192.865 113.627 L 192.998 112.960 L 193.217 112.316 L 193.518 111.706 L 193.896 111.140 L 194.344 110.629 L 194.855 110.180 L 195.421 109.802 L 196.031 109.501 L 196.675 109.283 L 197.343 109.150 L 198.021 109.105 L 198.700 109.150 L 199.367 109.283 L 200.011 109.501 L 200.622 109.802 L 201.187 110.180 L 201.699 110.629 L 202.147 111.140 L 202.525 111.706 L 202.826 112.316 L 203.045 112.960 L 203.177 113.627 L 203.222 114.306 M 201.920 190.630 L 201.859 191.561 L 201.677 192.476 L 201.377 193.359 L 200.964 194.195 L 200.446 194.971 L 199.831 195.672 L 199.130 196.287 L 198.354 196.805 L 197.518 197.218 L 196.635 197.518 L 195.720 197.700 L 194.789 197.761 L 193.858 197.700 L 192.944 197.518 L 192.060 197.218 L 191.224 196.805 L 190.448 196.287 L 189.747 195.672 L 189.132 194.971 L 188.614 194.195 L 188.201 193.359 L 187.902 192.476 L 187.720 191.561 L 187.659 190.630 L 187.720 189.699 L 187.902 188.785 L 188.201 187.901 L 188.614 187.065 L 189.132 186.289 L 189.747 185.588 L 190.448 184.973 L 191.224 184.455 L 192.060 184.042 L 192.944 183.743 L 193.858 183.561 L 194.789 183.500 L 195.720 183.561 L 196.635 183.743 L 197.518 184.042 L 198.354 184.455 L 199.130 184.973 L 199.831 185.588 L 200.446 186.289 L 200.964 187.065 L 201.377 187.901 L 201.677 188.785 L 201.859 189.699 L 201.920 190.630 M 116.790 147.445 L 116.729 148.380 L 116.546 149.298 L 116.245 150.185 L 115.831 151.025 L 115.310 151.804 L 114.693 152.508 L 113.989 153.125 L 113.210 153.646 L 112.370 154.060 L 111.483 154.361 L 110.565 154.544 L 109.630 154.605 L 108.696 154.544 L 107.777 154.361 L 106.890 154.060 L 106.050 153.646 L 105.272 153.125 L 104.568 152.508 L 103.950 151.804 L 103.430 151.025 L 103.016 150.185 L 102.715 149.298 L 102.532 148.380 L 102.471 147.445 L 102.532 146.511 L 102.715 145.592 L 103.016 144.705 L 103.430 143.866 L 103.950 143.087 L 104.568 142.383 L 105.272 141.765 L 106.050 141.245 L 106.890 140.831 L 107.777 140.530 L 108.696 140.347 L 109.630 140.286 L 110.565 140.347 L 111.483 140.530 L 112.370 140.831 L 113.210 141.245 L 113.989 141.765 L 114.693 142.383 L 115.310 143.087 L 115.831 143.866 L 116.245 144.705 L 116.546 145.592 L 116.729 146.511 L 116.790 147.445 M 175.125 82.264 L 175.061 83.240 L 174.870 84.200 L 174.556 85.126 L 174.123 86.003 L 173.580 86.817 L 172.935 87.552 L 172.199 88.197 L 171.386 88.740 L 170.509 89.173 L 169.582 89.487 L 168.623 89.678 L 167.647 89.742 L 166.671 89.678 L 165.712 89.487 L 164.785 89.173 L 163.908 88.740 L 163.095 88.197 L 162.359 87.552 L 161.715 86.817 L 161.171 86.003 L 160.738 85.126 L 160.424 84.200 L 160.233 83.240 L 160.169 82.264 L 160.233 81.288 L 160.424 80.329 L 160.738 79.403 L 161.171 78.525 L 161.715 77.712 L 162.359 76.977 L 163.095 76.332 L 163.908 75.788 L 164.785 75.356 L 165.712 75.041 L 166.671 74.851 L 167.647 74.787 L 168.623 74.851 L 169.582 75.041 L 170.509 75.356 L 171.386 75.788 L 172.199 76.332 L 172.935 76.977 L 173.580 77.712 L 174.123 78.525 L 174.556 79.403 L 174.870 80.329 L 175.061 81.288 L 175.125 82.264 M 326.498 132.500 L 326.416 133.755 L 326.170 134.989 L 325.766 136.180 L 325.210 137.308 L 324.511 138.353 L 323.681 139.299 L 322.736 140.128 L 321.690 140.827 L 320.562 141.383 L 319.371 141.788 L 318.137 142.033 L 316.882 142.115 L 315.627 142.033 L 314.394 141.788 L 313.203 141.383 L 312.074 140.827 L 311.029 140.128 L 310.083 139.299 L 309.254 138.353 L 308.555 137.308 L 307.999 136.180 L 307.594 134.989 L 307.349 133.755 L 307.267 132.500 L 307.349 131.245 L 307.594 130.011 L 307.999 128.820 L 308.555 127.692 L 309.254 126.646 L 310.083 125.701 L 311.029 124.871 L 312.074 124.173 L 313.203 123.616 L 314.394 123.212 L 315.627 122.967 L 316.882 122.884 L 318.137 122.967 L 319.371 123.212 L 320.562 123.616 L 321.690 124.173 L 322.736 124.871 L 323.681 125.701 L 324.511 126.646 L 325.210 127.692 L 325.766 128.820 L 326.170 130.011 L 326.416 131.245 L 326.498 132.500 M 234.824 158.213 L 234.740 159.497 L 234.489 160.760 L 234.075 161.979 L 233.506 163.133 L 232.791 164.203 L 231.942 165.171 L 230.975 166.020 L 229.904 166.735 L 228.750 167.304 L 227.531 167.718 L 226.269 167.969 L 224.984 168.053 L 223.700 167.969 L 222.438 167.718 L 221.219 167.304 L 220.064 166.735 L 218.994 166.020 L 218.026 165.171 L 217.178 164.203 L 216.463 163.133 L 215.893 161.979 L 215.480 160.760 L 215.228 159.497 L 215.144 158.213 L 215.228 156.929 L 215.480 155.666 L 215.893 154.447 L 216.463 153.293 L 217.178 152.223 L 218.026 151.255 L 218.994 150.406 L 220.064 149.691 L 221.219 149.122 L 222.438 148.708 L 223.700 148.457 L 224.984 148.373 L 226.269 148.457 L 227.531 148.708 L 228.750 149.122 L 229.904 149.691 L 230.975 150.406 L 231.942 151.255 L 232.791 152.223 L 233.506 153.293 L 234.075 154.447 L 234.489 155.666 L 234.740 156.929 L 234.824 158.213 M 246.937 110.487 L 246.871 111.485 L 246.676 112.466 L 246.355 113.413 L 245.912 114.310 L 245.357 115.141 L 244.697 115.893 L 243.945 116.552 L 243.114 117.108 L 242.217 117.550 L 241.270 117.872 L 240.289 118.067 L 239.291 118.132 L 238.293 118.067 L 237.313 117.872 L 236.366 117.550 L 235.469 117.108 L 234.637 116.552 L 233.885 115.893 L 233.226 115.141 L 232.670 114.310 L 232.228 113.413 L 231.907 112.466 L 231.711 111.485 L 231.646 110.487 L 231.711 109.489 L 231.907 108.508 L 232.228 107.561 L 232.670 106.664 L 233.226 105.833 L 233.885 105.081 L 234.637 104.422 L 235.469 103.866 L 236.366 103.424 L 237.313 103.102 L 238.293 102.907 L 239.291 102.842 L 240.289 102.907 L 241.270 103.102 L 242.217 103.424 L 243.114 103.866 L 243.945 104.422 L 244.697 105.081 L 245.357 105.833 L 245.912 106.664 L 246.355 107.561 L 246.676 108.508 L 246.871 109.489 L 246.937 110.487 M 250.317 40.284 L 250.243 41.414 L 250.022 42.524 L 249.658 43.596 L 249.157 44.611 L 248.528 45.553 L 247.782 46.404 L 246.931 47.150 L 245.989 47.779 L 244.974 48.280 L 243.902 48.644 L 242.791 48.865 L 241.662 48.939 L 240.532 48.865 L 239.422 48.644 L 238.350 48.280 L 237.334 47.779 L 236.393 47.150 L 235.542 46.404 L 234.795 45.553 L 234.166 44.611 L 233.665 43.596 L 233.302 42.524 L 233.081 41.414 L 233.007 40.284 L 233.081 39.154 L 233.302 38.044 L 233.665 36.972 L 234.166 35.956 L 234.795 35.015 L 235.542 34.164 L 236.393 33.417 L 237.334 32.788 L 238.350 32.288 L 239.422 31.924 L 240.532 31.703 L 241.662 31.629 L 242.791 31.703 L 243.902 31.924 L 244.974 32.288 L 245.989 32.788 L 246.931 33.417 L 247.782 34.164 L 248.528 35.015 L 249.157 35.956 L 249.658 36.972 L 250.022 38.044 L 250.243 39.154 L 250.317 40.284 M 106.786 124.205 L 106.742 124.880 L 106.610 125.544 L 106.392 126.184 L 106.093 126.791 L 105.717 127.353 L 105.271 127.862 L 104.763 128.308 L 104.200 128.684 L 103.593 128.983 L 102.953 129.201 L 102.289 129.333 L 101.614 129.377 L 100.939 129.333 L 100.275 129.201 L 99.635 128.983 L 99.028 128.684 L 98.466 128.308 L 97.957 127.862 L 97.511 127.353 L 97.135 126.791 L 96.836 126.184 L 96.618 125.544 L 96.486 124.880 L 96.442 124.205 L 96.486 123.530 L 96.618 122.866 L 96.836 122.226 L 97.135 121.619 L 97.511 121.057 L 97.957 120.548 L 98.466 120.102 L 99.028 119.726 L 99.635 119.427 L 100.275 119.209 L 100.939 119.077 L 101.614 119.033 L 102.289 119.077 L 102.953 119.209 L 103.593 119.427 L 104.200 119.726 L 104.763 120.102 L 105.271 120.548 L 105.717 121.057 L 106.093 121.619 L 106.392 122.226 L 106.610 122.866 L 106.742 123.530 L 106.786 124.205 M 236.009 90.480 L 235.920 91.828 L 235.657 93.152 L 235.223 94.431 L 234.625 95.642 L 233.875 96.765 L 232.985 97.780 L 231.970 98.671 L 230.847 99.421 L 229.636 100.018 L 228.357 100.452 L 227.032 100.716 L 225.685 100.804 L 224.337 100.716 L 223.013 100.452 L 221.734 100.018 L 220.523 99.421 L 219.400 98.671 L 218.385 97.780 L 217.495 96.765 L 216.744 95.642 L 216.147 94.431 L 215.713 93.152 L 215.449 91.828 L 215.361 90.480 L 215.449 89.133 L 215.713 87.808 L 216.147 86.529 L 216.744 85.318 L 217.495 84.196 L 218.385 83.180 L 219.400 82.290 L 220.523 81.540 L 221.734 80.942 L 223.013 80.508 L 224.337 80.245 L 225.685 80.156 L 227.032 80.245 L 228.357 80.508 L 229.636 80.942 L 230.847 81.540 L 231.970 82.290 L 232.985 83.180 L 233.875 84.196 L 234.625 85.318 L 235.223 86.529 L 235.657 87.808 L 235.920 89.133 L 236.009 90.480 M 103.497 139.259 L 103.446 140.046 L 103.292 140.819 L 103.038 141.566 L 102.690 142.273 L 102.252 142.928 L 101.732 143.521 L 101.139 144.041 L 100.484 144.479 L 99.777 144.827 L 99.030 145.081 L 98.257 145.234 L 97.471 145.286 L 96.684 145.234 L 95.911 145.081 L 95.164 144.827 L 94.457 144.479 L 93.802 144.041 L 93.209 143.521 L 92.689 142.928 L 92.251 142.273 L 91.903 141.566 L 91.649 140.819 L 91.496 140.046 L 91.444 139.259 L 91.496 138.473 L 91.649 137.700 L 91.903 136.953 L 92.251 136.246 L 92.689 135.591 L 93.209 134.998 L 93.802 134.478 L 94.457 134.040 L 95.164 133.692 L 95.911 133.438 L 96.684 133.284 L 97.471 133.233 L 98.257 133.284 L 99.030 133.438 L 99.777 133.692 L 100.484 134.040 L 101.139 134.478 L 101.732 134.998 L 102.252 135.591 L 102.690 136.246 L 103.038 136.953 L 103.292 137.700 L 103.446 138.473 L 103.497 139.259 M 255.168 255.194 L 255.121 255.918 L 254.979 256.629 L 254.746 257.316 L 254.426 257.966 L 254.023 258.569 L 253.544 259.114 L 252.999 259.593 L 252.396 259.996 L 251.746 260.316 L 251.059 260.549 L 250.348 260.691 L 249.624 260.738 L 248.900 260.691 L 248.189 260.549 L 247.502 260.316 L 246.852 259.996 L 246.249 259.593 L 245.704 259.114 L 245.225 258.569 L 244.822 257.966 L 244.502 257.316 L 244.269 256.629 L 244.127 255.918 L 244.080 255.194 L 244.127 254.470 L 244.269 253.759 L 244.502 253.072 L 244.822 252.422 L 245.225 251.819 L 245.704 251.274 L 246.249 250.795 L 246.852 250.392 L 247.502 250.072 L 248.189 249.839 L 248.900 249.697 L 249.624 249.650 L 250.348 249.697 L 251.059 249.839 L 251.746 250.072 L 252.396 250.392 L 252.999 250.795 L 253.544 251.274 L 254.023 251.819 L 254.426 252.422 L 254.746 253.072 L 254.979 253.759 L 255.121 254.470 L 255.168 255.194 M 305.802 121.225 L 305.746 122.081 L 305.578 122.923 L 305.303 123.735 L 304.923 124.505 L 304.446 125.218 L 303.881 125.863 L 303.236 126.429 L 302.522 126.906 L 301.753 127.285 L 300.940 127.561 L 300.099 127.728 L 299.242 127.784 L 298.386 127.728 L 297.545 127.561 L 296.732 127.285 L 295.963 126.906 L 295.249 126.429 L 294.604 125.863 L 294.038 125.218 L 293.562 124.505 L 293.182 123.735 L 292.906 122.923 L 292.739 122.081 L 292.683 121.225 L 292.739 120.369 L 292.906 119.527 L 293.182 118.715 L 293.562 117.945 L 294.038 117.232 L 294.604 116.587 L 295.249 116.021 L 295.963 115.544 L 296.732 115.165 L 297.545 114.889 L 298.386 114.722 L 299.242 114.665 L 300.099 114.722 L 300.940 114.889 L 301.753 115.165 L 302.522 115.544 L 303.236 116.021 L 303.881 116.587 L 304.446 117.232 L 304.923 117.945 L 305.303 118.715 L 305.578 119.527 L 305.746 120.369 L 305.802 121.225 M 109.517 189.655 L 109.475 190.295 L 109.350 190.923 L 109.145 191.530 L 108.861 192.105 L 108.505 192.637 L 108.083 193.119 L 107.601 193.541 L 107.068 193.897 L 106.494 194.181 L 105.887 194.387 L 105.258 194.512 L 104.619 194.554 L 103.980 194.512 L 103.351 194.387 L 102.745 194.181 L 102.170 193.897 L 101.637 193.541 L 101.155 193.119 L 100.733 192.637 L 100.377 192.105 L 100.094 191.530 L 99.888 190.923 L 99.763 190.295 L 99.721 189.655 L 99.763 189.016 L 99.888 188.388 L 100.094 187.781 L 100.377 187.206 L 100.733 186.674 L 101.155 186.192 L 101.637 185.769 L 102.170 185.413 L 102.745 185.130 L 103.351 184.924 L 103.980 184.799 L 104.619 184.757 L 105.258 184.799 L 105.887 184.924 L 106.494 185.130 L 107.068 185.413 L 107.601 185.769 L 108.083 186.192 L 108.505 186.674 L 108.861 187.206 L 109.145 187.781 L 109.350 188.388 L 109.475 189.016 L 109.517 189.655 M 149.983 234.367 L 149.927 235.219 L 149.761 236.057 L 149.486 236.866 L 149.108 237.632 L 148.633 238.343 L 148.070 238.985 L 147.428 239.549 L 146.717 240.023 L 145.951 240.401 L 145.142 240.676 L 144.304 240.842 L 143.451 240.898 L 142.599 240.842 L 141.761 240.676 L 140.952 240.401 L 140.185 240.023 L 139.475 239.549 L 138.833 238.985 L 138.269 238.343 L 137.795 237.632 L 137.417 236.866 L 137.142 236.057 L 136.975 235.219 L 136.920 234.367 L 136.975 233.514 L 137.142 232.676 L 137.417 231.867 L 137.795 231.101 L 138.269 230.390 L 138.833 229.748 L 139.475 229.185 L 140.185 228.710 L 140.952 228.332 L 141.761 228.057 L 142.599 227.891 L 143.451 227.835 L 144.304 227.891 L 145.142 228.057 L 145.951 228.332 L 146.717 228.710 L 147.428 229.185 L 148.070 229.748 L 148.633 230.390 L 149.108 231.101 L 149.486 231.867 L 149.761 232.676 L 149.927 233.514 L 149.983 234.367 M 189.377 37.127 L 189.309 38.161 L 189.107 39.177 L 188.774 40.158 L 188.315 41.087 L 187.740 41.949 L 187.057 42.728 L 186.278 43.411 L 185.416 43.986 L 184.487 44.445 L 183.506 44.778 L 182.490 44.980 L 181.456 45.048 L 180.422 44.980 L 179.406 44.778 L 178.425 44.445 L 177.496 43.986 L 176.635 43.411 L 175.856 42.728 L 175.173 41.949 L 174.597 41.087 L 174.139 40.158 L 173.806 39.177 L 173.604 38.161 L 173.536 37.127 L 173.604 36.093 L 173.806 35.077 L 174.139 34.096 L 174.597 33.167 L 175.173 32.306 L 175.856 31.527 L 176.635 30.844 L 177.496 30.268 L 178.425 29.810 L 179.406 29.477 L 180.422 29.275 L 181.456 29.207 L 182.490 29.275 L 183.506 29.477 L 184.487 29.810 L 185.416 30.268 L 186.278 30.844 L 187.057 31.527 L 187.740 32.306 L 188.315 33.167 L 188.774 34.096 L 189.107 35.077 L 189.309 36.093 L 189.377 37.127 M 276.397 203.738 L 276.307 205.118 L 276.037 206.475 L 275.592 207.785 L 274.980 209.026 L 274.212 210.176 L 273.299 211.217 L 272.259 212.129 L 271.109 212.897 L 269.868 213.509 L 268.558 213.954 L 267.201 214.224 L 265.821 214.314 L 264.440 214.224 L 263.083 213.954 L 261.773 213.509 L 260.532 212.897 L 259.382 212.129 L 258.342 211.217 L 257.430 210.176 L 256.661 209.026 L 256.049 207.785 L 255.604 206.475 L 255.335 205.118 L 255.244 203.738 L 255.335 202.357 L 255.604 201.000 L 256.049 199.690 L 256.661 198.450 L 257.430 197.299 L 258.342 196.259 L 259.382 195.347 L 260.532 194.578 L 261.773 193.966 L 263.083 193.522 L 264.440 193.252 L 265.821 193.161 L 267.201 193.252 L 268.558 193.522 L 269.868 193.966 L 271.109 194.578 L 272.259 195.347 L 273.299 196.259 L 274.212 197.299 L 274.980 198.450 L 275.592 199.690 L 276.037 201.000 L 276.307 202.357 L 276.397 203.738 M 163.779 242.419 L 163.737 243.057 L 163.613 243.683 L 163.407 244.288 L 163.125 244.861 L 162.770 245.392 L 162.349 245.872 L 161.869 246.293 L 161.337 246.648 L 160.765 246.931 L 160.160 247.136 L 159.533 247.261 L 158.896 247.302 L 158.259 247.261 L 157.632 247.136 L 157.027 246.931 L 156.454 246.648 L 155.923 246.293 L 155.443 245.872 L 155.022 245.392 L 154.667 244.861 L 154.384 244.288 L 154.179 243.683 L 154.055 243.057 L 154.013 242.419 L 154.055 241.782 L 154.179 241.155 L 154.384 240.551 L 154.667 239.978 L 155.022 239.447 L 155.443 238.966 L 155.923 238.545 L 156.454 238.190 L 157.027 237.908 L 157.632 237.703 L 158.259 237.578 L 158.896 237.536 L 159.533 237.578 L 160.160 237.703 L 160.765 237.908 L 161.337 238.190 L 161.869 238.545 L 162.349 238.966 L 162.770 239.447 L 163.125 239.978 L 163.407 240.551 L 163.613 241.155 L 163.737 241.782 L 163.779 242.419 M 214.063 153.752 L 214.022 154.369 L 213.902 154.977 L 213.703 155.563 L 213.429 156.118 L 213.085 156.633 L 212.677 157.098 L 212.211 157.506 L 211.697 157.850 L 211.141 158.124 L 210.555 158.323 L 209.948 158.444 L 209.330 158.484 L 208.713 158.444 L 208.106 158.323 L 207.519 158.124 L 206.964 157.850 L 206.450 157.506 L 205.984 157.098 L 205.576 156.633 L 205.232 156.118 L 204.958 155.563 L 204.759 154.977 L 204.639 154.369 L 204.598 153.752 L 204.639 153.134 L 204.759 152.527 L 204.958 151.941 L 205.232 151.386 L 205.576 150.871 L 205.984 150.405 L 206.450 149.997 L 206.964 149.653 L 207.519 149.380 L 208.106 149.181 L 208.713 149.060 L 209.330 149.019 L 209.948 149.060 L 210.555 149.181 L 211.141 149.380 L 211.697 149.653 L 212.211 149.997 L 212.677 150.405 L 213.085 150.871 L 213.429 151.386 L 213.703 151.941 L 213.902 152.527 L 214.022 153.134 L 214.063 153.752 M 208.605 32.400 L 208.553 33.193 L 208.398 33.972 L 208.142 34.725 L 207.791 35.437 L 207.349 36.098 L 206.826 36.695 L 206.228 37.219 L 205.567 37.661 L 204.855 38.012 L 204.102 38.268 L 203.323 38.423 L 202.530 38.475 L 201.737 38.423 L 200.958 38.268 L 200.206 38.012 L 199.493 37.661 L 198.832 37.219 L 198.235 36.695 L 197.711 36.098 L 197.270 35.437 L 196.918 34.725 L 196.663 33.972 L 196.508 33.193 L 196.456 32.400 L 196.508 31.607 L 196.663 30.828 L 196.918 30.076 L 197.270 29.363 L 197.711 28.702 L 198.235 28.105 L 198.832 27.581 L 199.493 27.140 L 200.206 26.788 L 200.958 26.533 L 201.737 26.378 L 202.530 26.326 L 203.323 26.378 L 204.102 26.533 L 204.855 26.788 L 205.567 27.140 L 206.228 27.581 L 206.826 28.105 L 207.349 28.702 L 207.791 29.363 L 208.142 30.076 L 208.398 30.828 L 208.553 31.607 L 208.605 32.400 M 125.060 80.242 L 125.015 80.923 L 124.882 81.593 L 124.662 82.240 L 124.360 82.852 L 123.981 83.420 L 123.531 83.933 L 123.017 84.384 L 122.450 84.763 L 121.837 85.065 L 121.191 85.284 L 120.521 85.418 L 119.840 85.462 L 119.158 85.418 L 118.488 85.284 L 117.842 85.065 L 117.229 84.763 L 116.662 84.384 L 116.148 83.933 L 115.698 83.420 L 115.319 82.852 L 115.017 82.240 L 114.797 81.593 L 114.664 80.923 L 114.619 80.242 L 114.664 79.561 L 114.797 78.891 L 115.017 78.244 L 115.319 77.632 L 115.698 77.064 L 116.148 76.551 L 116.662 76.101 L 117.229 75.721 L 117.842 75.419 L 118.488 75.200 L 119.158 75.067 L 119.840 75.022 L 120.521 75.067 L 121.191 75.200 L 121.837 75.419 L 122.450 75.721 L 123.017 76.101 L 123.531 76.551 L 123.981 77.064 L 124.360 77.632 L 124.662 78.244 L 124.882 78.891 L 125.015 79.561 L 125.060 80.242 M 294.787 150.417 L 294.743 151.083 L 294.613 151.737 L 294.398 152.369 L 294.103 152.967 L 293.733 153.522 L 293.293 154.023 L 292.791 154.463 L 292.236 154.834 L 291.638 155.129 L 291.006 155.344 L 290.352 155.474 L 289.686 155.517 L 289.020 155.474 L 288.366 155.344 L 287.734 155.129 L 287.136 154.834 L 286.581 154.463 L 286.080 154.023 L 285.640 153.522 L 285.269 152.967 L 284.974 152.369 L 284.760 151.737 L 284.629 151.083 L 284.586 150.417 L 284.629 149.751 L 284.760 149.097 L 284.974 148.465 L 285.269 147.867 L 285.640 147.312 L 286.080 146.810 L 286.581 146.371 L 287.136 146.000 L 287.734 145.705 L 288.366 145.490 L 289.020 145.360 L 289.686 145.317 L 290.352 145.360 L 291.006 145.490 L 291.638 145.705 L 292.236 146.000 L 292.791 146.371 L 293.293 146.810 L 293.733 147.312 L 294.103 147.867 L 294.398 148.465 L 294.613 149.097 L 294.743 149.751 L 294.787 150.417 M 274.849 186.709 L 274.806 187.372 L 274.676 188.024 L 274.462 188.653 L 274.169 189.249 L 273.799 189.801 L 273.361 190.301 L 272.862 190.739 L 272.310 191.108 L 271.714 191.402 L 271.085 191.615 L 270.433 191.745 L 269.770 191.788 L 269.107 191.745 L 268.456 191.615 L 267.827 191.402 L 267.231 191.108 L 266.678 190.739 L 266.179 190.301 L 265.741 189.801 L 265.372 189.249 L 265.078 188.653 L 264.865 188.024 L 264.735 187.372 L 264.691 186.709 L 264.735 186.047 L 264.865 185.395 L 265.078 184.766 L 265.372 184.170 L 265.741 183.618 L 266.179 183.118 L 266.678 182.680 L 267.231 182.311 L 267.827 182.017 L 268.456 181.804 L 269.107 181.674 L 269.770 181.631 L 270.433 181.674 L 271.085 181.804 L 271.714 182.017 L 272.310 182.311 L 272.862 182.680 L 273.361 183.118 L 273.799 183.618 L 274.169 184.170 L 274.462 184.766 L 274.676 185.395 L 274.806 186.047 L 274.849 186.709 M 305.406 217.809 L 305.359 218.521 L 305.220 219.221 L 304.991 219.897 L 304.675 220.537 L 304.279 221.130 L 303.808 221.666 L 303.272 222.137 L 302.678 222.533 L 302.038 222.849 L 301.363 223.078 L 300.663 223.218 L 299.951 223.264 L 299.239 223.218 L 298.539 223.078 L 297.863 222.849 L 297.223 222.533 L 296.630 222.137 L 296.093 221.666 L 295.623 221.130 L 295.226 220.537 L 294.911 219.897 L 294.681 219.221 L 294.542 218.521 L 294.495 217.809 L 294.542 217.097 L 294.681 216.397 L 294.911 215.721 L 295.226 215.081 L 295.623 214.488 L 296.093 213.951 L 296.630 213.481 L 297.223 213.084 L 297.863 212.769 L 298.539 212.540 L 299.239 212.400 L 299.951 212.354 L 300.663 212.400 L 301.363 212.540 L 302.038 212.769 L 302.678 213.084 L 303.272 213.481 L 303.808 213.951 L 304.279 214.488 L 304.675 215.081 L 304.991 215.721 L 305.220 216.397 L 305.359 217.097 L 305.406 217.809 M 190.021 136.483 L 189.977 137.156 L 189.845 137.818 L 189.628 138.457 L 189.330 139.062 L 188.955 139.624 L 188.510 140.131 L 188.002 140.576 L 187.441 140.951 L 186.836 141.249 L 186.197 141.466 L 185.535 141.598 L 184.862 141.642 L 184.188 141.598 L 183.526 141.466 L 182.887 141.249 L 182.282 140.951 L 181.721 140.576 L 181.214 140.131 L 180.769 139.624 L 180.394 139.062 L 180.095 138.457 L 179.878 137.818 L 179.747 137.156 L 179.703 136.483 L 179.747 135.809 L 179.878 135.148 L 180.095 134.509 L 180.394 133.903 L 180.769 133.342 L 181.214 132.835 L 181.721 132.390 L 182.282 132.015 L 182.887 131.716 L 183.526 131.499 L 184.188 131.368 L 184.862 131.324 L 185.535 131.368 L 186.197 131.499 L 186.836 131.716 L 187.441 132.015 L 188.002 132.390 L 188.510 132.835 L 188.955 133.342 L 189.330 133.903 L 189.628 134.509 L 189.845 135.148 L 189.977 135.809 L 190.021 136.483 M 258.682 141.913 L 258.636 142.609 L 258.500 143.293 L 258.276 143.953 L 257.967 144.579 L 257.580 145.158 L 257.120 145.683 L 256.596 146.143 L 256.016 146.530 L 255.390 146.838 L 254.730 147.063 L 254.046 147.199 L 253.350 147.244 L 252.654 147.199 L 251.970 147.063 L 251.310 146.838 L 250.685 146.530 L 250.105 146.143 L 249.580 145.683 L 249.121 145.158 L 248.733 144.579 L 248.425 143.953 L 248.201 143.293 L 248.064 142.609 L 248.019 141.913 L 248.064 141.217 L 248.201 140.533 L 248.425 139.873 L 248.733 139.247 L 249.121 138.667 L 249.580 138.143 L 250.105 137.683 L 250.685 137.296 L 251.310 136.987 L 251.970 136.763 L 252.654 136.627 L 253.350 136.582 L 254.046 136.627 L 254.730 136.763 L 255.390 136.987 L 256.016 137.296 L 256.596 137.683 L 257.120 138.143 L 257.580 138.667 L 257.967 139.247 L 258.276 139.873 L 258.500 140.533 L 258.636 141.217 L 258.682 141.913 M 122.531 221.709 L 122.488 222.366 L 122.359 223.011 L 122.148 223.635 L 121.856 224.225 L 121.491 224.772 L 121.057 225.267 L 120.562 225.701 L 120.015 226.067 L 119.425 226.358 L 118.801 226.569 L 118.156 226.698 L 117.499 226.741 L 116.842 226.698 L 116.197 226.569 L 115.574 226.358 L 114.983 226.067 L 114.436 225.701 L 113.941 225.267 L 113.507 224.772 L 113.142 224.225 L 112.850 223.635 L 112.639 223.011 L 112.511 222.366 L 112.467 221.709 L 112.511 221.052 L 112.639 220.407 L 112.850 219.784 L 113.142 219.193 L 113.507 218.646 L 113.941 218.151 L 114.436 217.717 L 114.983 217.352 L 115.574 217.061 L 116.197 216.849 L 116.842 216.721 L 117.499 216.678 L 118.156 216.721 L 118.801 216.849 L 119.425 217.061 L 120.015 217.352 L 120.562 217.717 L 121.057 218.151 L 121.491 218.646 L 121.856 219.193 L 122.148 219.784 L 122.359 220.407 L 122.488 221.052 L 122.531 221.709 M 292.908 131.262 L 292.867 131.879 L 292.746 132.486 L 292.547 133.072 L 292.274 133.627 L 291.930 134.142 L 291.522 134.607 L 291.057 135.015 L 290.542 135.359 L 289.987 135.632 L 289.401 135.831 L 288.794 135.952 L 288.177 135.993 L 287.559 135.952 L 286.952 135.831 L 286.366 135.632 L 285.811 135.359 L 285.297 135.015 L 284.831 134.607 L 284.423 134.142 L 284.080 133.627 L 283.806 133.072 L 283.607 132.486 L 283.486 131.879 L 283.446 131.262 L 283.486 130.644 L 283.607 130.037 L 283.806 129.451 L 284.080 128.896 L 284.423 128.382 L 284.831 127.916 L 285.297 127.508 L 285.811 127.165 L 286.366 126.891 L 286.952 126.692 L 287.559 126.571 L 288.177 126.531 L 288.794 126.571 L 289.401 126.692 L 289.987 126.891 L 290.542 127.165 L 291.057 127.508 L 291.522 127.916 L 291.930 128.382 L 292.274 128.896 L 292.547 129.451 L 292.746 130.037 L 292.867 130.644 L 292.908 131.262 M 183.339 56.838 L 183.248 58.221 L 182.978 59.580 L 182.532 60.892 L 181.919 62.135 L 181.150 63.287 L 180.236 64.328 L 179.194 65.242 L 178.042 66.012 L 176.800 66.624 L 175.488 67.070 L 174.129 67.340 L 172.746 67.431 L 171.364 67.340 L 170.005 67.070 L 168.693 66.624 L 167.450 66.012 L 166.298 65.242 L 165.256 64.328 L 164.343 63.287 L 163.573 62.135 L 162.960 60.892 L 162.515 59.580 L 162.245 58.221 L 162.154 56.838 L 162.245 55.456 L 162.515 54.097 L 162.960 52.785 L 163.573 51.542 L 164.343 50.390 L 165.256 49.349 L 166.298 48.435 L 167.450 47.665 L 168.693 47.052 L 170.005 46.607 L 171.364 46.337 L 172.746 46.246 L 174.129 46.337 L 175.488 46.607 L 176.800 47.052 L 178.042 47.665 L 179.194 48.435 L 180.236 49.349 L 181.150 50.390 L 181.919 51.542 L 182.532 52.785 L 182.978 54.097 L 183.248 55.456 L 183.339 56.838 M 123.565 177.715 L 123.522 178.363 L 123.395 179.000 L 123.187 179.615 L 122.899 180.198 L 122.539 180.738 L 122.110 181.226 L 121.622 181.654 L 121.082 182.015 L 120.500 182.303 L 119.885 182.511 L 119.248 182.638 L 118.600 182.680 L 117.952 182.638 L 117.315 182.511 L 116.700 182.303 L 116.117 182.015 L 115.577 181.654 L 115.089 181.226 L 114.661 180.738 L 114.300 180.198 L 114.012 179.615 L 113.804 179.000 L 113.677 178.363 L 113.635 177.715 L 113.677 177.067 L 113.804 176.430 L 114.012 175.815 L 114.300 175.233 L 114.661 174.693 L 115.089 174.205 L 115.577 173.776 L 116.117 173.415 L 116.700 173.128 L 117.315 172.919 L 117.952 172.793 L 118.600 172.750 L 119.248 172.793 L 119.885 172.919 L 120.500 173.128 L 121.082 173.415 L 121.622 173.776 L 122.110 174.205 L 122.539 174.693 L 122.899 175.233 L 123.187 175.815 L 123.395 176.430 L 123.522 177.067 L 123.565 177.715 M 135.643 73.519 L 135.594 74.267 L 135.448 75.003 L 135.207 75.713 L 134.875 76.386 L 134.458 77.010 L 133.964 77.574 L 133.400 78.068 L 132.776 78.485 L 132.104 78.816 L 131.393 79.058 L 130.658 79.204 L 129.909 79.253 L 129.161 79.204 L 128.425 79.058 L 127.715 78.816 L 127.042 78.485 L 126.419 78.068 L 125.855 77.574 L 125.360 77.010 L 124.944 76.386 L 124.612 75.713 L 124.371 75.003 L 124.225 74.267 L 124.175 73.519 L 124.225 72.771 L 124.371 72.035 L 124.612 71.325 L 124.944 70.652 L 125.360 70.029 L 125.855 69.465 L 126.419 68.970 L 127.042 68.553 L 127.715 68.222 L 128.425 67.981 L 129.161 67.834 L 129.909 67.785 L 130.658 67.834 L 131.393 67.981 L 132.104 68.222 L 132.776 68.553 L 133.400 68.970 L 133.964 69.465 L 134.458 70.029 L 134.875 70.652 L 135.207 71.325 L 135.448 72.035 L 135.594 72.771 L 135.643 73.519 M 322.084 172.168 L 322.040 172.838 L 321.909 173.496 L 321.693 174.132 L 321.396 174.734 L 321.023 175.293 L 320.581 175.797 L 320.076 176.240 L 319.518 176.613 L 318.915 176.910 L 318.280 177.126 L 317.621 177.257 L 316.951 177.301 L 316.281 177.257 L 315.623 177.126 L 314.987 176.910 L 314.385 176.613 L 313.827 176.240 L 313.322 175.797 L 312.879 175.293 L 312.506 174.734 L 312.210 174.132 L 311.994 173.496 L 311.863 172.838 L 311.819 172.168 L 311.863 171.498 L 311.994 170.840 L 312.210 170.204 L 312.506 169.602 L 312.879 169.044 L 313.322 168.539 L 313.827 168.096 L 314.385 167.723 L 314.987 167.426 L 315.623 167.210 L 316.281 167.079 L 316.951 167.036 L 317.621 167.079 L 318.280 167.210 L 318.915 167.426 L 319.518 167.723 L 320.076 168.096 L 320.581 168.539 L 321.023 169.044 L 321.396 169.602 L 321.693 170.204 L 321.909 170.840 L 322.040 171.498 L 322.084 172.168 M 231.922 177.024 L 231.870 177.826 L 231.713 178.615 L 231.455 179.376 L 231.099 180.097 L 230.652 180.765 L 230.122 181.369 L 229.518 181.899 L 228.850 182.346 L 228.129 182.701 L 227.368 182.960 L 226.580 183.116 L 225.777 183.169 L 224.975 183.116 L 224.187 182.960 L 223.426 182.701 L 222.705 182.346 L 222.037 181.899 L 221.432 181.369 L 220.903 180.765 L 220.456 180.097 L 220.100 179.376 L 219.842 178.615 L 219.685 177.826 L 219.633 177.024 L 219.685 176.222 L 219.842 175.434 L 220.100 174.673 L 220.456 173.952 L 220.903 173.283 L 221.432 172.679 L 222.037 172.149 L 222.705 171.703 L 223.426 171.347 L 224.187 171.089 L 224.975 170.932 L 225.777 170.879 L 226.580 170.932 L 227.368 171.089 L 228.129 171.347 L 228.850 171.703 L 229.518 172.149 L 230.122 172.679 L 230.652 173.283 L 231.099 173.952 L 231.455 174.673 L 231.713 175.434 L 231.870 176.222 L 231.922 177.024 M 152.347 190.258 L 152.292 191.093 L 152.129 191.915 L 151.860 192.708 L 151.489 193.459 L 151.024 194.155 L 150.472 194.785 L 149.842 195.337 L 149.146 195.802 L 148.395 196.173 L 147.602 196.442 L 146.780 196.605 L 145.945 196.660 L 145.109 196.605 L 144.288 196.442 L 143.495 196.173 L 142.743 195.802 L 142.047 195.337 L 141.417 194.785 L 140.865 194.155 L 140.400 193.459 L 140.030 192.708 L 139.760 191.915 L 139.597 191.093 L 139.542 190.258 L 139.597 189.422 L 139.760 188.601 L 140.030 187.808 L 140.400 187.056 L 140.865 186.360 L 141.417 185.730 L 142.047 185.178 L 142.743 184.713 L 143.495 184.343 L 144.288 184.073 L 145.109 183.910 L 145.945 183.855 L 146.780 183.910 L 147.602 184.073 L 148.395 184.343 L 149.146 184.713 L 149.842 185.178 L 150.472 185.730 L 151.024 186.360 L 151.489 187.056 L 151.860 187.808 L 152.129 188.601 L 152.292 189.422 L 152.347 190.258 M 185.888 73.369 L 185.835 74.179 L 185.676 74.975 L 185.415 75.744 L 185.056 76.473 L 184.605 77.148 L 184.069 77.759 L 183.459 78.294 L 182.783 78.745 L 182.055 79.105 L 181.286 79.366 L 180.490 79.524 L 179.679 79.577 L 178.869 79.524 L 178.072 79.366 L 177.303 79.105 L 176.575 78.745 L 175.900 78.294 L 175.289 77.759 L 174.753 77.148 L 174.302 76.473 L 173.943 75.744 L 173.682 74.975 L 173.524 74.179 L 173.470 73.369 L 173.524 72.558 L 173.682 71.762 L 173.943 70.993 L 174.302 70.264 L 174.753 69.589 L 175.289 68.978 L 175.900 68.443 L 176.575 67.992 L 177.303 67.632 L 178.072 67.371 L 178.869 67.213 L 179.679 67.160 L 180.490 67.213 L 181.286 67.371 L 182.055 67.632 L 182.783 67.992 L 183.459 68.443 L 184.069 68.978 L 184.605 69.589 L 185.056 70.264 L 185.415 70.993 L 185.676 71.762 L 185.835 72.558 L 185.888 73.369 M 188.360 106.064 L 188.315 106.756 L 188.179 107.436 L 187.956 108.093 L 187.649 108.716 L 187.264 109.292 L 186.806 109.814 L 186.285 110.272 L 185.708 110.657 L 185.086 110.964 L 184.429 111.187 L 183.748 111.322 L 183.056 111.368 L 182.364 111.322 L 181.683 111.187 L 181.026 110.964 L 180.404 110.657 L 179.827 110.272 L 179.305 109.814 L 178.848 109.292 L 178.462 108.716 L 178.156 108.093 L 177.933 107.436 L 177.797 106.756 L 177.752 106.064 L 177.797 105.371 L 177.933 104.691 L 178.156 104.034 L 178.462 103.411 L 178.848 102.835 L 179.305 102.313 L 179.827 101.856 L 180.404 101.470 L 181.026 101.163 L 181.683 100.940 L 182.364 100.805 L 183.056 100.759 L 183.748 100.805 L 184.429 100.940 L 185.086 101.163 L 185.708 101.470 L 186.285 101.856 L 186.806 102.313 L 187.264 102.835 L 187.649 103.411 L 187.956 104.034 L 188.179 104.691 L 188.315 105.371 L 188.360 106.064 M 180.629 125.291 L 180.574 126.135 L 180.409 126.964 L 180.137 127.765 L 179.763 128.523 L 179.293 129.226 L 178.736 129.862 L 178.100 130.419 L 177.397 130.889 L 176.639 131.263 L 175.838 131.535 L 175.009 131.700 L 174.165 131.755 L 173.321 131.700 L 172.492 131.535 L 171.691 131.263 L 170.933 130.889 L 170.230 130.419 L 169.594 129.862 L 169.037 129.226 L 168.567 128.523 L 168.193 127.765 L 167.921 126.964 L 167.756 126.135 L 167.701 125.291 L 167.756 124.447 L 167.921 123.618 L 168.193 122.817 L 168.567 122.059 L 169.037 121.356 L 169.594 120.720 L 170.230 120.163 L 170.933 119.693 L 171.691 119.319 L 172.492 119.047 L 173.321 118.882 L 174.165 118.827 L 175.009 118.882 L 175.838 119.047 L 176.639 119.319 L 177.397 119.693 L 178.100 120.163 L 178.736 120.720 L 179.293 121.356 L 179.763 122.059 L 180.137 122.817 L 180.409 123.618 L 180.574 124.447 L 180.629 125.291 M 220.122 106.231 L 220.082 106.832 L 219.965 107.423 L 219.771 107.993 L 219.505 108.533 L 219.170 109.033 L 218.773 109.486 L 218.321 109.883 L 217.820 110.217 L 217.280 110.484 L 216.710 110.677 L 216.120 110.795 L 215.519 110.834 L 214.918 110.795 L 214.328 110.677 L 213.758 110.484 L 213.218 110.217 L 212.717 109.883 L 212.264 109.486 L 211.867 109.033 L 211.533 108.533 L 211.267 107.993 L 211.073 107.423 L 210.956 106.832 L 210.916 106.231 L 210.956 105.631 L 211.073 105.040 L 211.267 104.470 L 211.533 103.930 L 211.867 103.430 L 212.264 102.977 L 212.717 102.580 L 213.218 102.245 L 213.758 101.979 L 214.328 101.786 L 214.918 101.668 L 215.519 101.629 L 216.120 101.668 L 216.710 101.786 L 217.280 101.979 L 217.820 102.245 L 218.321 102.580 L 218.773 102.977 L 219.170 103.430 L 219.505 103.930 L 219.771 104.470 L 219.965 105.040 L 220.082 105.631 L 220.122 106.231 M 185.311 90.577 L 185.258 91.380 L 185.101 92.169 L 184.842 92.931 L 184.486 93.653 L 184.039 94.322 L 183.509 94.927 L 182.904 95.457 L 182.235 95.904 L 181.513 96.260 L 180.751 96.519 L 179.962 96.676 L 179.159 96.728 L 178.356 96.676 L 177.567 96.519 L 176.805 96.260 L 176.083 95.904 L 175.414 95.457 L 174.809 94.927 L 174.279 94.322 L 173.832 93.653 L 173.476 92.931 L 173.217 92.169 L 173.060 91.380 L 173.008 90.577 L 173.060 89.774 L 173.217 88.985 L 173.476 88.223 L 173.832 87.501 L 174.279 86.832 L 174.809 86.227 L 175.414 85.697 L 176.083 85.249 L 176.805 84.894 L 177.567 84.635 L 178.356 84.478 L 179.159 84.425 L 179.962 84.478 L 180.751 84.635 L 181.513 84.894 L 182.235 85.249 L 182.904 85.697 L 183.509 86.227 L 184.039 86.832 L 184.486 87.501 L 184.842 88.223 L 185.101 88.985 L 185.258 89.774 L 185.311 90.577 M 195.889 81.754 L 195.845 82.431 L 195.712 83.097 L 195.494 83.739 L 195.194 84.348 L 194.817 84.912 L 194.370 85.422 L 193.860 85.869 L 193.296 86.246 L 192.687 86.546 L 192.045 86.765 L 191.379 86.897 L 190.702 86.941 L 190.025 86.897 L 189.360 86.765 L 188.717 86.546 L 188.109 86.246 L 187.545 85.869 L 187.035 85.422 L 186.587 84.912 L 186.210 84.348 L 185.910 83.739 L 185.692 83.097 L 185.560 82.431 L 185.515 81.754 L 185.560 81.077 L 185.692 80.412 L 185.910 79.770 L 186.210 79.161 L 186.587 78.597 L 187.035 78.087 L 187.545 77.639 L 188.109 77.263 L 188.717 76.962 L 189.360 76.744 L 190.025 76.612 L 190.702 76.568 L 191.379 76.612 L 192.045 76.744 L 192.687 76.962 L 193.296 77.263 L 193.860 77.639 L 194.370 78.087 L 194.817 78.597 L 195.194 79.161 L 195.494 79.770 L 195.712 80.412 L 195.845 81.077 L 195.889 81.754 M 229.161 265.486 L 229.120 266.105 L 228.999 266.714 L 228.800 267.302 L 228.525 267.858 L 228.180 268.375 L 227.771 268.841 L 227.304 269.251 L 226.788 269.595 L 226.231 269.870 L 225.643 270.070 L 225.035 270.191 L 224.415 270.231 L 223.796 270.191 L 223.187 270.070 L 222.599 269.870 L 222.042 269.595 L 221.526 269.251 L 221.060 268.841 L 220.650 268.375 L 220.305 267.858 L 220.031 267.302 L 219.831 266.714 L 219.710 266.105 L 219.670 265.486 L 219.710 264.866 L 219.831 264.257 L 220.031 263.670 L 220.305 263.113 L 220.650 262.597 L 221.060 262.130 L 221.526 261.721 L 222.042 261.376 L 222.599 261.101 L 223.187 260.902 L 223.796 260.781 L 224.415 260.740 L 225.035 260.781 L 225.643 260.902 L 226.231 261.101 L 226.788 261.376 L 227.304 261.721 L 227.771 262.130 L 228.180 262.597 L 228.525 263.113 L 228.800 263.670 L 228.999 264.257 L 229.120 264.866 L 229.161 265.486 M 214.397 180.956 L 214.349 181.693 L 214.204 182.418 L 213.967 183.118 L 213.640 183.781 L 213.229 184.396 L 212.742 184.952 L 212.186 185.439 L 211.571 185.850 L 210.908 186.177 L 210.208 186.414 L 209.483 186.559 L 208.746 186.607 L 208.008 186.559 L 207.283 186.414 L 206.583 186.177 L 205.920 185.850 L 205.306 185.439 L 204.750 184.952 L 204.262 184.396 L 203.852 183.781 L 203.525 183.118 L 203.287 182.418 L 203.143 181.693 L 203.095 180.956 L 203.143 180.218 L 203.287 179.493 L 203.525 178.793 L 203.852 178.130 L 204.262 177.515 L 204.750 176.960 L 205.306 176.472 L 205.920 176.062 L 206.583 175.735 L 207.283 175.497 L 208.008 175.353 L 208.746 175.304 L 209.483 175.353 L 210.208 175.497 L 210.908 175.735 L 211.571 176.062 L 212.186 176.472 L 212.742 176.960 L 213.229 177.515 L 213.640 178.130 L 213.967 178.793 L 214.204 179.493 L 214.349 180.218 L 214.397 180.956 M 243.131 253.535 L 243.080 254.311 L 242.928 255.074 L 242.678 255.811 L 242.334 256.508 L 241.902 257.155 L 241.389 257.740 L 240.804 258.253 L 240.157 258.685 L 239.460 259.029 L 238.723 259.279 L 237.960 259.431 L 237.184 259.482 L 236.408 259.431 L 235.645 259.279 L 234.908 259.029 L 234.211 258.685 L 233.564 258.253 L 232.979 257.740 L 232.466 257.155 L 232.034 256.508 L 231.690 255.811 L 231.440 255.074 L 231.288 254.311 L 231.237 253.535 L 231.288 252.759 L 231.440 251.996 L 231.690 251.259 L 232.034 250.562 L 232.466 249.915 L 232.979 249.330 L 233.564 248.817 L 234.211 248.385 L 234.908 248.041 L 235.645 247.791 L 236.408 247.639 L 237.184 247.588 L 237.960 247.639 L 238.723 247.791 L 239.460 248.041 L 240.157 248.385 L 240.804 248.817 L 241.389 249.330 L 241.902 249.915 L 242.334 250.562 L 242.678 251.259 L 242.928 251.996 L 243.080 252.759 L 243.131 253.535 M 326.566 115.692 L 326.527 116.296 L 326.408 116.890 L 326.214 117.463 L 325.946 118.006 L 325.610 118.510 L 325.210 118.965 L 324.755 119.364 L 324.252 119.701 L 323.709 119.968 L 323.135 120.163 L 322.542 120.281 L 321.937 120.321 L 321.333 120.281 L 320.739 120.163 L 320.166 119.968 L 319.623 119.701 L 319.120 119.364 L 318.665 118.965 L 318.265 118.510 L 317.929 118.006 L 317.661 117.463 L 317.467 116.890 L 317.348 116.296 L 317.309 115.692 L 317.348 115.088 L 317.467 114.494 L 317.661 113.921 L 317.929 113.378 L 318.265 112.874 L 318.665 112.419 L 319.120 112.020 L 319.623 111.683 L 320.166 111.416 L 320.739 111.221 L 321.333 111.103 L 321.937 111.063 L 322.542 111.103 L 323.135 111.221 L 323.709 111.416 L 324.252 111.683 L 324.755 112.020 L 325.210 112.419 L 325.610 112.874 L 325.946 113.378 L 326.214 113.921 L 326.408 114.494 L 326.527 115.088 L 326.566 115.692 M 114.024 104.315 L 113.946 105.497 L 113.715 106.658 L 113.335 107.780 L 112.811 108.842 L 112.153 109.826 L 111.372 110.716 L 110.482 111.497 L 109.497 112.155 L 108.435 112.679 L 107.314 113.059 L 106.153 113.290 L 104.971 113.368 L 103.790 113.290 L 102.628 113.059 L 101.507 112.679 L 100.445 112.155 L 99.461 111.497 L 98.570 110.716 L 97.790 109.826 L 97.132 108.842 L 96.608 107.780 L 96.227 106.658 L 95.996 105.497 L 95.919 104.315 L 95.996 103.134 L 96.227 101.972 L 96.608 100.851 L 97.132 99.789 L 97.790 98.805 L 98.570 97.914 L 99.461 97.134 L 100.445 96.476 L 101.507 95.952 L 102.628 95.572 L 103.790 95.341 L 104.971 95.263 L 106.153 95.341 L 107.314 95.572 L 108.435 95.952 L 109.497 96.476 L 110.482 97.134 L 111.372 97.914 L 112.153 98.805 L 112.811 99.789 L 113.335 100.851 L 113.715 101.972 L 113.946 103.134 L 114.024 104.315 M 279.269 136.100 L 279.218 136.879 L 279.065 137.645 L 278.814 138.385 L 278.469 139.085 L 278.035 139.734 L 277.520 140.321 L 276.933 140.836 L 276.284 141.270 L 275.584 141.615 L 274.844 141.866 L 274.078 142.019 L 273.299 142.070 L 272.520 142.019 L 271.754 141.866 L 271.015 141.615 L 270.314 141.270 L 269.665 140.836 L 269.078 140.321 L 268.563 139.734 L 268.129 139.085 L 267.784 138.385 L 267.533 137.645 L 267.380 136.879 L 267.329 136.100 L 267.380 135.321 L 267.533 134.555 L 267.784 133.816 L 268.129 133.115 L 268.563 132.466 L 269.078 131.879 L 269.665 131.364 L 270.314 130.930 L 271.015 130.585 L 271.754 130.334 L 272.520 130.181 L 273.299 130.130 L 274.078 130.181 L 274.844 130.334 L 275.584 130.585 L 276.284 130.930 L 276.933 131.364 L 277.520 131.879 L 278.035 132.466 L 278.469 133.115 L 278.814 133.816 L 279.065 134.555 L 279.218 135.321 L 279.269 136.100 M 222.446 35.944 L 222.388 36.819 L 222.217 37.679 L 221.935 38.510 L 221.547 39.297 L 221.060 40.026 L 220.482 40.686 L 219.822 41.264 L 219.093 41.751 L 218.306 42.139 L 217.475 42.421 L 216.615 42.592 L 215.740 42.650 L 214.864 42.592 L 214.004 42.421 L 213.173 42.139 L 212.386 41.751 L 211.657 41.264 L 210.997 40.686 L 210.419 40.026 L 209.932 39.297 L 209.544 38.510 L 209.262 37.679 L 209.091 36.819 L 209.033 35.944 L 209.091 35.068 L 209.262 34.208 L 209.544 33.377 L 209.932 32.590 L 210.419 31.861 L 210.997 31.202 L 211.657 30.623 L 212.386 30.136 L 213.173 29.748 L 214.004 29.466 L 214.864 29.295 L 215.740 29.237 L 216.615 29.295 L 217.475 29.466 L 218.306 29.748 L 219.093 30.136 L 219.822 30.623 L 220.482 31.202 L 221.060 31.861 L 221.547 32.590 L 221.935 33.377 L 222.217 34.208 L 222.388 35.068 L 222.446 35.944 M 157.649 252.900 L 157.606 253.544 L 157.481 254.176 L 157.273 254.787 L 156.988 255.365 L 156.630 255.901 L 156.205 256.386 L 155.720 256.811 L 155.184 257.170 L 154.605 257.455 L 153.995 257.662 L 153.362 257.788 L 152.719 257.830 L 152.075 257.788 L 151.443 257.662 L 150.832 257.455 L 150.254 257.170 L 149.718 256.811 L 149.233 256.386 L 148.807 255.901 L 148.449 255.365 L 148.164 254.787 L 147.957 254.176 L 147.831 253.544 L 147.789 252.900 L 147.831 252.257 L 147.957 251.624 L 148.164 251.014 L 148.449 250.435 L 148.807 249.899 L 149.233 249.414 L 149.718 248.989 L 150.254 248.631 L 150.832 248.346 L 151.443 248.138 L 152.075 248.012 L 152.719 247.970 L 153.362 248.012 L 153.995 248.138 L 154.605 248.346 L 155.184 248.631 L 155.720 248.989 L 156.205 249.414 L 156.630 249.899 L 156.988 250.435 L 157.273 251.014 L 157.481 251.624 L 157.606 252.257 L 157.649 252.900 M 249.015 242.371 L 248.972 243.021 L 248.845 243.660 L 248.636 244.277 L 248.347 244.862 L 247.985 245.404 L 247.556 245.894 L 247.066 246.323 L 246.524 246.685 L 245.939 246.974 L 245.322 247.183 L 244.683 247.310 L 244.033 247.353 L 243.383 247.310 L 242.744 247.183 L 242.126 246.974 L 241.542 246.685 L 241.000 246.323 L 240.510 245.894 L 240.081 245.404 L 239.719 244.862 L 239.430 244.277 L 239.221 243.660 L 239.094 243.021 L 239.051 242.371 L 239.094 241.721 L 239.221 241.082 L 239.430 240.464 L 239.719 239.880 L 240.081 239.338 L 240.510 238.848 L 241.000 238.419 L 241.542 238.057 L 242.126 237.768 L 242.744 237.559 L 243.383 237.432 L 244.033 237.389 L 244.683 237.432 L 245.322 237.559 L 245.939 237.768 L 246.524 238.057 L 247.066 238.419 L 247.556 238.848 L 247.985 239.338 L 248.347 239.880 L 248.636 240.464 L 248.845 241.082 L 248.972 241.721 L 249.015 242.371 M 207.425 239.641 L 207.383 240.289 L 207.256 240.927 L 207.047 241.542 L 206.760 242.125 L 206.399 242.665 L 205.970 243.153 L 205.482 243.582 L 204.941 243.943 L 204.359 244.230 L 203.743 244.439 L 203.106 244.566 L 202.458 244.608 L 201.809 244.566 L 201.172 244.439 L 200.557 244.230 L 199.974 243.943 L 199.434 243.582 L 198.945 243.153 L 198.517 242.665 L 198.156 242.125 L 197.869 241.542 L 197.660 240.927 L 197.533 240.289 L 197.491 239.641 L 197.533 238.993 L 197.660 238.355 L 197.869 237.740 L 198.156 237.157 L 198.517 236.617 L 198.945 236.129 L 199.434 235.700 L 199.974 235.339 L 200.557 235.052 L 201.172 234.843 L 201.809 234.716 L 202.458 234.674 L 203.106 234.716 L 203.743 234.843 L 204.359 235.052 L 204.941 235.339 L 205.482 235.700 L 205.970 236.129 L 206.399 236.617 L 206.760 237.157 L 207.047 237.740 L 207.256 238.355 L 207.383 238.993 L 207.425 239.641 M 199.920 229.029 L 199.871 229.778 L 199.725 230.513 L 199.484 231.224 L 199.152 231.897 L 198.735 232.521 L 198.240 233.085 L 197.676 233.579 L 197.052 233.996 L 196.380 234.328 L 195.669 234.569 L 194.933 234.715 L 194.185 234.764 L 193.436 234.715 L 192.700 234.569 L 191.990 234.328 L 191.317 233.996 L 190.693 233.579 L 190.129 233.085 L 189.635 232.521 L 189.218 231.897 L 188.886 231.224 L 188.645 230.513 L 188.499 229.778 L 188.449 229.029 L 188.499 228.280 L 188.645 227.545 L 188.886 226.834 L 189.218 226.161 L 189.635 225.538 L 190.129 224.974 L 190.693 224.479 L 191.317 224.062 L 191.990 223.730 L 192.700 223.489 L 193.436 223.343 L 194.185 223.294 L 194.933 223.343 L 195.669 223.489 L 196.380 223.730 L 197.052 224.062 L 197.676 224.479 L 198.240 224.974 L 198.735 225.538 L 199.152 226.161 L 199.484 226.834 L 199.725 227.545 L 199.871 228.280 L 199.920 229.029 M 215.232 114.978 L 215.191 115.603 L 215.069 116.216 L 214.867 116.809 L 214.591 117.370 L 214.243 117.890 L 213.831 118.361 L 213.360 118.773 L 212.840 119.121 L 212.279 119.397 L 211.686 119.599 L 211.073 119.721 L 210.448 119.761 L 209.824 119.721 L 209.211 119.599 L 208.618 119.397 L 208.057 119.121 L 207.537 118.773 L 207.066 118.361 L 206.654 117.890 L 206.306 117.370 L 206.029 116.809 L 205.828 116.216 L 205.706 115.603 L 205.665 114.978 L 205.706 114.354 L 205.828 113.740 L 206.029 113.148 L 206.306 112.587 L 206.654 112.067 L 207.066 111.596 L 207.537 111.184 L 208.057 110.836 L 208.618 110.559 L 209.211 110.358 L 209.824 110.236 L 210.448 110.195 L 211.073 110.236 L 211.686 110.358 L 212.279 110.559 L 212.840 110.836 L 213.360 111.184 L 213.831 111.596 L 214.243 112.067 L 214.591 112.587 L 214.867 113.148 L 215.069 113.740 L 215.191 114.354 L 215.232 114.978 M 104.291 160.580 L 104.250 161.212 L 104.126 161.833 L 103.923 162.433 L 103.642 163.001 L 103.291 163.527 L 102.873 164.003 L 102.397 164.421 L 101.870 164.773 L 101.302 165.053 L 100.703 165.257 L 100.082 165.380 L 99.450 165.422 L 98.818 165.380 L 98.197 165.257 L 97.597 165.053 L 97.029 164.773 L 96.502 164.421 L 96.026 164.003 L 95.609 163.527 L 95.257 163.001 L 94.977 162.433 L 94.773 161.833 L 94.650 161.212 L 94.608 160.580 L 94.650 159.948 L 94.773 159.327 L 94.977 158.727 L 95.257 158.159 L 95.609 157.633 L 96.026 157.157 L 96.502 156.739 L 97.029 156.387 L 97.597 156.107 L 98.197 155.904 L 98.818 155.780 L 99.450 155.739 L 100.082 155.780 L 100.703 155.904 L 101.302 156.107 L 101.870 156.387 L 102.397 156.739 L 102.873 157.157 L 103.291 157.633 L 103.642 158.159 L 103.923 158.727 L 104.126 159.327 L 104.250 159.948 L 104.291 160.580 M 289.378 82.733 L 289.315 83.684 L 289.130 84.619 L 288.823 85.522 L 288.402 86.376 L 287.872 87.169 L 287.244 87.885 L 286.527 88.514 L 285.735 89.043 L 284.880 89.465 L 283.978 89.771 L 283.043 89.957 L 282.092 90.019 L 281.141 89.957 L 280.206 89.771 L 279.304 89.465 L 278.449 89.043 L 277.656 88.514 L 276.940 87.885 L 276.311 87.169 L 275.782 86.376 L 275.360 85.522 L 275.054 84.619 L 274.868 83.684 L 274.806 82.733 L 274.868 81.782 L 275.054 80.848 L 275.360 79.945 L 275.782 79.090 L 276.311 78.298 L 276.940 77.581 L 277.656 76.953 L 278.449 76.424 L 279.304 76.002 L 280.206 75.696 L 281.141 75.510 L 282.092 75.447 L 283.043 75.510 L 283.978 75.696 L 284.880 76.002 L 285.735 76.424 L 286.527 76.953 L 287.244 77.581 L 287.872 78.298 L 288.402 79.090 L 288.823 79.945 L 289.130 80.848 L 289.315 81.782 L 289.378 82.733 M 127.092 163.641 L 127.023 164.690 L 126.818 165.721 L 126.480 166.717 L 126.015 167.660 L 125.431 168.534 L 124.737 169.325 L 123.947 170.018 L 123.073 170.603 L 122.129 171.068 L 121.134 171.406 L 120.102 171.611 L 119.053 171.680 L 118.004 171.611 L 116.972 171.406 L 115.977 171.068 L 115.034 170.603 L 114.159 170.018 L 113.369 169.325 L 112.675 168.534 L 112.091 167.660 L 111.626 166.717 L 111.288 165.721 L 111.083 164.690 L 111.014 163.641 L 111.083 162.591 L 111.288 161.560 L 111.626 160.564 L 112.091 159.621 L 112.675 158.747 L 113.369 157.956 L 114.159 157.263 L 115.034 156.679 L 115.977 156.214 L 116.972 155.876 L 118.004 155.671 L 119.053 155.602 L 120.102 155.671 L 121.134 155.876 L 122.129 156.214 L 123.073 156.679 L 123.947 157.263 L 124.737 157.956 L 125.431 158.747 L 126.015 159.621 L 126.480 160.564 L 126.818 161.560 L 127.023 162.591 L 127.092 163.641 M 193.125 121.173 L 193.081 121.836 L 192.952 122.487 L 192.739 123.115 L 192.445 123.710 L 192.076 124.262 L 191.639 124.761 L 191.140 125.199 L 190.588 125.567 L 189.993 125.861 L 189.364 126.074 L 188.714 126.204 L 188.051 126.247 L 187.389 126.204 L 186.738 126.074 L 186.110 125.861 L 185.515 125.567 L 184.963 125.199 L 184.464 124.761 L 184.026 124.262 L 183.658 123.710 L 183.364 123.115 L 183.151 122.487 L 183.021 121.836 L 182.978 121.173 L 183.021 120.511 L 183.151 119.860 L 183.364 119.232 L 183.658 118.637 L 184.026 118.085 L 184.464 117.586 L 184.963 117.148 L 185.515 116.780 L 186.110 116.486 L 186.738 116.273 L 187.389 116.143 L 188.051 116.100 L 188.714 116.143 L 189.364 116.273 L 189.993 116.486 L 190.588 116.780 L 191.140 117.148 L 191.639 117.586 L 192.076 118.085 L 192.445 118.637 L 192.739 119.232 L 192.952 119.860 L 193.081 120.511 L 193.125 121.173 M 208.587 263.591 L 208.543 264.261 L 208.412 264.920 L 208.196 265.556 L 207.899 266.159 L 207.526 266.718 L 207.083 267.223 L 206.578 267.666 L 206.019 268.039 L 205.416 268.336 L 204.780 268.552 L 204.121 268.683 L 203.451 268.727 L 202.780 268.683 L 202.121 268.552 L 201.485 268.336 L 200.882 268.039 L 200.324 267.666 L 199.819 267.223 L 199.376 266.718 L 199.002 266.159 L 198.705 265.556 L 198.489 264.920 L 198.358 264.261 L 198.314 263.591 L 198.358 262.920 L 198.489 262.261 L 198.705 261.625 L 199.002 261.022 L 199.376 260.464 L 199.819 259.959 L 200.324 259.516 L 200.882 259.142 L 201.485 258.845 L 202.121 258.629 L 202.780 258.498 L 203.451 258.454 L 204.121 258.498 L 204.780 258.629 L 205.416 258.845 L 206.019 259.142 L 206.578 259.516 L 207.083 259.959 L 207.526 260.464 L 207.899 261.022 L 208.196 261.625 L 208.412 262.261 L 208.543 262.920 L 208.587 263.591 M 305.685 138.002 L 305.629 138.861 L 305.461 139.705 L 305.184 140.521 L 304.804 141.293 L 304.325 142.009 L 303.757 142.656 L 303.110 143.224 L 302.394 143.702 L 301.622 144.083 L 300.807 144.360 L 299.962 144.528 L 299.103 144.584 L 298.244 144.528 L 297.399 144.360 L 296.584 144.083 L 295.812 143.702 L 295.096 143.224 L 294.449 142.656 L 293.881 142.009 L 293.402 141.293 L 293.022 140.521 L 292.745 139.705 L 292.577 138.861 L 292.521 138.002 L 292.577 137.143 L 292.745 136.298 L 293.022 135.483 L 293.402 134.710 L 293.881 133.995 L 294.449 133.347 L 295.096 132.780 L 295.812 132.301 L 296.584 131.920 L 297.399 131.644 L 298.244 131.476 L 299.103 131.419 L 299.962 131.476 L 300.807 131.644 L 301.622 131.920 L 302.394 132.301 L 303.110 132.780 L 303.757 133.347 L 304.325 133.995 L 304.804 134.710 L 305.184 135.483 L 305.461 136.298 L 305.629 137.143 L 305.685 138.002" fill="none" stroke="#2dd4bf" stroke-width="1" vector-effect="non-scaling-stroke"/></svg>