<svg xmlns="http://www.w3.org/2000/svg" viewBox="89.00313701730195 19.791428162278955 251.8865297801057 251.4304246832318" width="251.8865297801057" height="251.4304246832318" shape-rendering="geometricPrecision"><rect x="89.00313701730195" y="19.791428162278955" width="251.8865297801057" height="251.4304246832318" fill="#0b0f14"/><path d="M 135.265 131.918 L 135.102 134.415 L 134.613 136.869 L 133.809 139.239 L 132.702 141.483 L 131.312 143.564 L 129.662 145.445 L 127.780 147.095 L 125.700 148.486 L 123.455 149.592 L 121.086 150.397 L 118.631 150.885 L 116.134 151.049 L 113.637 150.885 L 111.183 150.397 L 108.813 149.592 L 106.569 148.486 L 104.488 147.095 L 102.606 145.445 L 100.957 143.564 L 99.566 141.483 L 98.459 139.239 L 97.655 136.869 L 97.167 134.415 L 97.003 131.918 L 97.167 129.421 L 97.655 126.966 L 98.459 124.596 L 99.566 122.352 L 100.957 120.271 L 102.606 118.390 L 104.488 116.740 L 106.569 115.350 L 108.813 114.243 L 111.183 113.438 L 113.637 112.950 L 116.134 112.787 L 118.631 112.950 L 121.086 113.438 L 123.455 114.243 L 125.700 115.350 L 127.780 116.740 L 129.662 118.390 L 131.312 120.271 L 132.702 122.352 L 133.809 124.596 L 134.613 126.966 L 135.102 129.421 L 135.265 131.918 M 299.532 178.992 L 299.477 179.839 L 299.311 180.672 L 299.038 181.476 L 298.662 182.238 L 298.190 182.944 L 297.630 183.583 L 296.992 184.143 L 296.286 184.615 L 295.524 184.990 L 294.720 185.263 L 293.887 185.429 L 293.039 185.485 L 292.192 185.429 L 291.359 185.263 L 290.555 184.990 L 289.793 184.615 L 289.087 184.143 L 288.448 183.583 L 287.888 182.944 L 287.417 182.238 L 287.041 181.476 L 286.768 180.672 L 286.602 179.839 L 286.547 178.992 L 286.602 178.144 L 286.768 177.311 L 287.041 176.507 L 287.417 175.746 L 287.888 175.039 L 288.448 174.401 L 289.087 173.841 L 289.793 173.369 L 290.555 172.993 L 291.359 172.720 L 292.192 172.555 L 293.039 172.499 L 293.887 172.555 L 294.720 172.720 L 295.524 172.993 L 296.286 173.369 L 296.992 173.841 L 297.630 174.401 L 298.190 175.039 L 298.662 175.746 L 299.038 176.507 L 299.311 177.311 L 299.477 178.144 L 299.532 178.992 M 189.265 164.279 L 189.086 167.003 L 188.554 169.680 L 187.676 172.265 L 186.469 174.713 L 184.952 176.983 L 183.153 179.035 L 181.100 180.835 L 178.831 182.351 L 176.382 183.559 L 173.797 184.436 L 171.120 184.969 L 168.396 185.147 L 165.672 184.969 L 162.995 184.436 L 160.410 183.559 L 157.962 182.351 L 155.692 180.835 L 153.640 179.035 L 151.840 176.983 L 150.323 174.713 L 149.116 172.265 L 148.239 169.680 L 147.706 167.003 L 147.528 164.279 L 147.706 161.555 L 148.239 158.878 L 149.116 156.293 L 150.323 153.844 L 151.840 151.575 L 153.640 149.522 L 155.692 147.723 L 157.962 146.206 L 160.410 144.999 L 162.995 144.121 L 165.672 143.589 L 168.396 143.410 L 171.120 143.589 L 173.797 144.121 L 176.382 144.999 L 178.831 146.206 L 181.100 147.723 L 183.153 149.522 L 184.952 151.575 L 186.469 153.844 L 187.676 156.293 L 188.554 158.878 L 189.086 161.555 L 189.265 164.279 M 231.581 92.043 L 231.439 94.214 L 231.015 96.348 L 230.315 98.407 L 229.353 100.358 L 228.145 102.167 L 226.710 103.803 L 225.075 105.237 L 223.266 106.446 L 221.315 107.408 L 219.255 108.107 L 217.122 108.531 L 214.951 108.674 L 212.781 108.531 L 210.647 108.107 L 208.587 107.408 L 206.636 106.446 L 204.827 105.237 L 203.192 103.803 L 201.758 102.167 L 200.549 100.358 L 199.587 98.407 L 198.888 96.348 L 198.463 94.214 L 198.321 92.043 L 198.463 89.873 L 198.888 87.739 L 199.587 85.679 L 200.549 83.728 L 201.758 81.920 L 203.192 80.284 L 204.827 78.850 L 206.636 77.641 L 208.587 76.679 L 210.647 75.980 L 212.781 75.556 L 214.951 75.413 L 217.122 75.556 L 219.255 75.980 L 221.315 76.679 L 223.266 77.641 L 225.075 78.850 L 226.710 80.284 L 228.145 81.920 L 229.353 83.728 L 230.315 85.679 L 231.015 87.739 L 231.439 89.873 L 231.581 92.043 M 288.956 102.066 L 288.787 104.646 L 288.282 107.183 L 287.451 109.632 L 286.307 111.951 L 284.870 114.102 L 283.165 116.046 L 281.220 117.751 L 279.070 119.188 L 276.750 120.332 L 274.302 121.163 L 271.765 121.668 L 269.184 121.837 L 266.604 121.668 L 264.067 121.163 L 261.618 120.332 L 259.299 119.188 L 257.148 117.751 L 255.204 116.046 L 253.499 114.102 L 252.062 111.951 L 250.918 109.632 L 250.087 107.183 L 249.582 104.646 L 249.413 102.066 L 249.582 99.485 L 250.087 96.948 L 250.918 94.500 L 252.062 92.180 L 253.499 90.030 L 255.204 88.085 L 257.148 86.380 L 259.299 84.943 L 261.618 83.799 L 264.067 82.968 L 266.604 82.463 L 269.184 82.294 L 271.765 82.463 L 274.302 82.968 L 276.750 83.799 L 279.070 84.943 L 281.220 86.380 L 283.165 88.085 L 284.870 90.030 L 286.307 92.180 L 287.451 94.500 L 288.282 96.948 L 288.787 99.485 L 288.956 102.066 M 207.794 47.572 L 207.754 48.184 L 207.634 48.785 L 207.437 49.365 L 207.166 49.914 L 206.826 50.424 L 206.422 50.885 L 205.961 51.289 L 205.452 51.629 L 204.902 51.900 L 204.322 52.097 L 203.721 52.217 L 203.110 52.257 L 202.498 52.217 L 201.897 52.097 L 201.317 51.900 L 200.767 51.629 L 200.258 51.289 L 199.797 50.885 L 199.393 50.424 L 199.053 49.914 L 198.782 49.365 L 198.585 48.785 L 198.465 48.184 L 198.425 47.572 L 198.465 46.961 L 198.585 46.360 L 198.782 45.780 L 199.053 45.230 L 199.393 44.721 L 199.797 44.260 L 200.258 43.856 L 200.767 43.516 L 201.317 43.245 L 201.897 43.048 L 202.498 42.928 L 203.110 42.888 L 203.721 42.928 L 204.322 43.048 L 204.902 43.245 L 205.452 43.516 L 205.961 43.856 L 206.422 44.260 L 206.826 44.721 L 207.166 45.230 L 207.437 45.780 L 207.634 46.360 L 207.754 46.961 L 207.794 47.572 M 153.306 191.656 L 153.262 192.334 L 153.129 193.002 L 152.910 193.646 L 152.609 194.256 L 152.232 194.821 L 151.783 195.333 L 151.272 195.781 L 150.706 196.159 L 150.096 196.460 L 149.452 196.678 L 148.785 196.811 L 148.106 196.856 L 147.428 196.811 L 146.760 196.678 L 146.116 196.460 L 145.506 196.159 L 144.941 195.781 L 144.429 195.333 L 143.981 194.821 L 143.603 194.256 L 143.302 193.646 L 143.084 193.002 L 142.951 192.334 L 142.906 191.656 L 142.951 190.977 L 143.084 190.310 L 143.302 189.666 L 143.603 189.056 L 143.981 188.490 L 144.429 187.979 L 144.941 187.530 L 145.506 187.153 L 146.116 186.852 L 146.760 186.633 L 147.428 186.500 L 148.106 186.456 L 148.785 186.500 L 149.452 186.633 L 150.096 186.852 L 150.706 187.153 L 151.272 187.530 L 151.783 187.979 L 152.232 188.490 L 152.609 189.056 L 152.910 189.666 L 153.129 190.310 L 153.262 190.977 L 153.306 191.656 M 121.046 165.740 L 120.948 167.242 L 120.654 168.719 L 120.170 170.144 L 119.504 171.494 L 118.668 172.746 L 117.675 173.878 L 116.544 174.871 L 115.292 175.707 L 113.942 176.373 L 112.516 176.857 L 111.040 177.150 L 109.537 177.249 L 108.035 177.150 L 106.559 176.857 L 105.133 176.373 L 103.783 175.707 L 102.531 174.871 L 101.399 173.878 L 100.407 172.746 L 99.570 171.494 L 98.905 170.144 L 98.421 168.719 L 98.127 167.242 L 98.028 165.740 L 98.127 164.238 L 98.421 162.761 L 98.905 161.336 L 99.570 159.986 L 100.407 158.734 L 101.399 157.602 L 102.531 156.609 L 103.783 155.773 L 105.133 155.107 L 106.559 154.623 L 108.035 154.330 L 109.537 154.231 L 111.040 154.330 L 112.516 154.623 L 113.942 155.107 L 115.292 155.773 L 116.544 156.609 L 117.675 157.602 L 118.668 158.734 L 119.504 159.986 L 120.170 161.336 L 120.654 162.761 L 120.948 164.238 L 121.046 165.740 M 122.098 210.834 L 122.029 211.887 L 121.823 212.922 L 121.484 213.922 L 121.017 214.869 L 120.431 215.746 L 119.735 216.540 L 118.941 217.236 L 118.063 217.822 L 117.117 218.289 L 116.117 218.628 L 115.082 218.834 L 114.029 218.903 L 112.975 218.834 L 111.940 218.628 L 110.941 218.289 L 109.994 217.822 L 109.116 217.236 L 108.323 216.540 L 107.627 215.746 L 107.040 214.869 L 106.574 213.922 L 106.234 212.922 L 106.028 211.887 L 105.959 210.834 L 106.028 209.781 L 106.234 208.745 L 106.574 207.746 L 107.040 206.799 L 107.627 205.922 L 108.323 205.128 L 109.116 204.432 L 109.994 203.846 L 110.941 203.379 L 111.940 203.039 L 112.975 202.834 L 114.029 202.765 L 115.082 202.834 L 116.117 203.039 L 117.117 203.379 L 118.063 203.846 L 118.941 204.432 L 119.735 205.128 L 120.431 205.922 L 121.017 206.799 L 121.484 207.746 L 121.823 208.745 L 122.029 209.781 L 122.098 210.834 M 266.590 140.936 L 266.427 143.413 L 265.943 145.848 L 265.145 148.199 L 264.047 150.426 L 262.667 152.491 L 261.030 154.357 L 259.164 155.994 L 257.099 157.374 L 254.872 158.472 L 252.521 159.270 L 250.086 159.755 L 247.608 159.917 L 245.131 159.755 L 242.696 159.270 L 240.345 158.472 L 238.118 157.374 L 236.053 155.994 L 234.187 154.357 L 232.550 152.491 L 231.170 150.426 L 230.072 148.199 L 229.274 145.848 L 228.790 143.413 L 228.627 140.936 L 228.790 138.458 L 229.274 136.023 L 230.072 133.672 L 231.170 131.445 L 232.550 129.381 L 234.187 127.514 L 236.053 125.877 L 238.118 124.497 L 240.345 123.399 L 242.696 122.601 L 245.131 122.117 L 247.608 121.954 L 250.086 122.117 L 252.521 122.601 L 254.872 123.399 L 257.099 124.497 L 259.164 125.877 L 261.030 127.514 L 262.667 129.381 L 264.047 131.445 L 265.145 133.672 L 265.943 136.023 L 266.427 138.458 L 266.590 140.936 M 231.530 217.764 L 231.446 219.035 L 231.198 220.285 L 230.788 221.491 L 230.225 222.633 L 229.517 223.692 L 228.677 224.650 L 227.720 225.490 L 226.661 226.198 L 225.518 226.761 L 224.312 227.170 L 223.063 227.419 L 221.792 227.502 L 220.521 227.419 L 219.271 227.170 L 218.065 226.761 L 216.923 226.198 L 215.864 225.490 L 214.906 224.650 L 214.066 223.692 L 213.358 222.633 L 212.795 221.491 L 212.385 220.285 L 212.137 219.035 L 212.054 217.764 L 212.137 216.493 L 212.385 215.244 L 212.795 214.038 L 213.358 212.895 L 214.066 211.836 L 214.906 210.878 L 215.864 210.039 L 216.923 209.331 L 218.065 208.768 L 219.271 208.358 L 220.521 208.110 L 221.792 208.026 L 223.063 208.110 L 224.312 208.358 L 225.518 208.768 L 226.661 209.331 L 227.720 210.039 L 228.677 210.878 L 229.517 211.836 L 230.225 212.895 L 230.788 214.038 L 231.198 215.244 L 231.446 216.493 L 231.530 217.764 M 289.043 197.756 L 288.850 200.695 L 288.276 203.583 L 287.329 206.372 L 286.027 209.013 L 284.391 211.462 L 282.449 213.676 L 280.235 215.617 L 277.786 217.254 L 275.145 218.556 L 272.356 219.503 L 269.468 220.077 L 266.529 220.270 L 263.591 220.077 L 260.702 219.503 L 257.914 218.556 L 255.273 217.254 L 252.824 215.617 L 250.610 213.676 L 248.668 211.462 L 247.032 209.013 L 245.730 206.372 L 244.783 203.583 L 244.208 200.695 L 244.016 197.756 L 244.208 194.818 L 244.783 191.929 L 245.730 189.141 L 247.032 186.499 L 248.668 184.051 L 250.610 181.837 L 252.824 179.895 L 255.273 178.259 L 257.914 176.956 L 260.702 176.010 L 263.591 175.435 L 266.529 175.243 L 269.468 175.435 L 272.356 176.010 L 275.145 176.956 L 277.786 178.259 L 280.235 179.895 L 282.449 181.837 L 284.391 184.051 L 286.027 186.499 L 287.329 189.141 L 288.276 191.929 L 288.850 194.818 L 289.043 197.756 M 143.884 74.209 L 143.836 74.949 L 143.691 75.677 L 143.453 76.379 L 143.125 77.044 L 142.713 77.660 L 142.224 78.218 L 141.667 78.707 L 141.050 79.119 L 140.385 79.447 L 139.683 79.685 L 138.956 79.830 L 138.216 79.878 L 137.476 79.830 L 136.749 79.685 L 136.047 79.447 L 135.382 79.119 L 134.765 78.707 L 134.208 78.218 L 133.719 77.660 L 133.307 77.044 L 132.979 76.379 L 132.741 75.677 L 132.596 74.949 L 132.547 74.209 L 132.596 73.470 L 132.741 72.742 L 132.979 72.040 L 133.307 71.375 L 133.719 70.759 L 134.208 70.201 L 134.765 69.712 L 135.382 69.300 L 136.047 68.972 L 136.749 68.734 L 137.476 68.589 L 138.216 68.541 L 138.956 68.589 L 139.683 68.734 L 140.385 68.972 L 141.050 69.300 L 141.667 69.712 L 142.224 70.201 L 142.713 70.759 L 143.125 71.375 L 143.453 72.040 L 143.691 72.742 L 143.836 73.470 L 143.884 74.209 M 158.500 94.814 L 158.425 95.954 L 158.202 97.075 L 157.835 98.157 L 157.330 99.182 L 156.695 100.132 L 155.941 100.991 L 155.082 101.745 L 154.132 102.379 L 153.107 102.885 L 152.025 103.252 L 150.904 103.475 L 149.764 103.550 L 148.624 103.475 L 147.503 103.252 L 146.421 102.885 L 145.396 102.379 L 144.446 101.745 L 143.587 100.991 L 142.834 100.132 L 142.199 99.182 L 141.693 98.157 L 141.326 97.075 L 141.103 95.954 L 141.028 94.814 L 141.103 93.674 L 141.326 92.553 L 141.693 91.471 L 142.199 90.446 L 142.834 89.496 L 143.587 88.637 L 144.446 87.883 L 145.396 87.249 L 146.421 86.743 L 147.503 86.376 L 148.624 86.153 L 149.764 86.078 L 150.904 86.153 L 152.025 86.376 L 153.107 86.743 L 154.132 87.249 L 155.082 87.883 L 155.941 88.637 L 156.695 89.496 L 157.330 90.446 L 157.835 91.471 L 158.202 92.553 L 158.425 93.674 L 158.500 94.814 M 320.241 128.414 L 320.155 129.736 L 319.896 131.036 L 319.470 132.291 L 318.884 133.480 L 318.148 134.582 L 317.274 135.578 L 316.277 136.452 L 315.175 137.188 L 313.987 137.774 L 312.732 138.200 L 311.432 138.459 L 310.109 138.546 L 308.787 138.459 L 307.487 138.200 L 306.232 137.774 L 305.043 137.188 L 303.942 136.452 L 302.945 135.578 L 302.071 134.582 L 301.335 133.480 L 300.749 132.291 L 300.323 131.036 L 300.064 129.736 L 299.978 128.414 L 300.064 127.091 L 300.323 125.791 L 300.749 124.536 L 301.335 123.348 L 302.071 122.246 L 302.945 121.249 L 303.942 120.376 L 305.043 119.639 L 306.232 119.053 L 307.487 118.627 L 308.787 118.368 L 310.109 118.282 L 311.432 118.368 L 312.732 118.627 L 313.987 119.053 L 315.175 119.639 L 316.277 120.376 L 317.274 121.249 L 318.148 122.246 L 318.884 123.348 L 319.470 124.536 L 319.896 125.791 L 320.155 127.091 L 320.241 128.414 M 161.937 45.470 L 161.892 46.164 L 161.756 46.846 L 161.533 47.505 L 161.225 48.129 L 160.838 48.707 L 160.380 49.230 L 159.857 49.689 L 159.278 50.075 L 158.654 50.383 L 157.996 50.607 L 157.313 50.742 L 156.619 50.788 L 155.925 50.742 L 155.243 50.607 L 154.584 50.383 L 153.960 50.075 L 153.382 49.689 L 152.859 49.230 L 152.400 48.707 L 152.013 48.129 L 151.706 47.505 L 151.482 46.846 L 151.346 46.164 L 151.301 45.470 L 151.346 44.775 L 151.482 44.093 L 151.706 43.434 L 152.013 42.810 L 152.400 42.232 L 152.859 41.709 L 153.382 41.250 L 153.960 40.864 L 154.584 40.556 L 155.243 40.332 L 155.925 40.197 L 156.619 40.151 L 157.313 40.197 L 157.996 40.332 L 158.654 40.556 L 159.278 40.864 L 159.857 41.250 L 160.380 41.709 L 160.838 42.232 L 161.225 42.810 L 161.533 43.434 L 161.756 44.093 L 161.892 44.775 L 161.937 45.470 M 258.376 50.298 L 258.326 51.072 L 258.174 51.833 L 257.925 52.567 L 257.582 53.263 L 257.151 53.908 L 256.640 54.491 L 256.057 55.002 L 255.412 55.433 L 254.716 55.776 L 253.982 56.026 L 253.221 56.177 L 252.447 56.228 L 251.673 56.177 L 250.912 56.026 L 250.178 55.776 L 249.482 55.433 L 248.837 55.002 L 248.254 54.491 L 247.743 53.908 L 247.312 53.263 L 246.969 52.567 L 246.719 51.833 L 246.568 51.072 L 246.517 50.298 L 246.568 49.524 L 246.719 48.764 L 246.969 48.029 L 247.312 47.334 L 247.743 46.689 L 248.254 46.106 L 248.837 45.594 L 249.482 45.163 L 250.178 44.820 L 250.912 44.571 L 251.673 44.420 L 252.447 44.369 L 253.221 44.420 L 253.982 44.571 L 254.716 44.820 L 255.412 45.163 L 256.057 45.594 L 256.640 46.106 L 257.151 46.689 L 257.582 47.334 L 257.925 48.029 L 258.174 48.764 L 258.326 49.524 L 258.376 50.298 M 223.205 150.350 L 223.060 152.571 L 222.625 154.754 L 221.910 156.862 L 220.925 158.858 L 219.689 160.709 L 218.221 162.382 L 216.548 163.850 L 214.697 165.087 L 212.700 166.071 L 210.593 166.787 L 208.409 167.221 L 206.188 167.367 L 203.967 167.221 L 201.784 166.787 L 199.676 166.071 L 197.680 165.087 L 195.829 163.850 L 194.156 162.382 L 192.688 160.709 L 191.451 158.858 L 190.467 156.862 L 189.751 154.754 L 189.317 152.571 L 189.171 150.350 L 189.317 148.129 L 189.751 145.945 L 190.467 143.838 L 191.451 141.841 L 192.688 139.990 L 194.156 138.317 L 195.829 136.849 L 197.680 135.613 L 199.676 134.628 L 201.784 133.913 L 203.967 133.478 L 206.188 133.333 L 208.409 133.478 L 210.593 133.913 L 212.700 134.628 L 214.697 135.613 L 216.548 136.849 L 218.221 138.317 L 219.689 139.990 L 220.925 141.841 L 221.910 143.838 L 222.625 145.945 L 223.060 148.129 L 223.205 150.350 M 221.087 238.489 L 221.044 239.159 L 220.912 239.818 L 220.696 240.454 L 220.399 241.057 L 220.026 241.616 L 219.583 242.121 L 219.078 242.564 L 218.519 242.937 L 217.917 243.234 L 217.280 243.450 L 216.621 243.581 L 215.951 243.625 L 215.280 243.581 L 214.622 243.450 L 213.985 243.234 L 213.383 242.937 L 212.824 242.564 L 212.319 242.121 L 211.876 241.616 L 211.503 241.057 L 211.205 240.454 L 210.989 239.818 L 210.858 239.159 L 210.814 238.489 L 210.858 237.818 L 210.989 237.159 L 211.205 236.523 L 211.503 235.920 L 211.876 235.362 L 212.319 234.857 L 212.824 234.414 L 213.383 234.040 L 213.985 233.743 L 214.622 233.527 L 215.280 233.396 L 215.951 233.352 L 216.621 233.396 L 217.280 233.527 L 217.917 233.743 L 218.519 234.040 L 219.078 234.414 L 219.583 234.857 L 220.026 235.362 L 220.399 235.920 L 220.696 236.523 L 220.912 237.159 L 221.044 237.818 L 221.087 238.489 M 285.799 59.741 L 285.734 60.726 L 285.542 61.694 L 285.225 62.629 L 284.788 63.514 L 284.240 64.334 L 283.589 65.076 L 282.847 65.727 L 282.026 66.275 L 281.141 66.712 L 280.207 67.029 L 279.239 67.222 L 278.254 67.286 L 277.269 67.222 L 276.301 67.029 L 275.366 66.712 L 274.481 66.275 L 273.661 65.727 L 272.919 65.076 L 272.268 64.334 L 271.720 63.514 L 271.283 62.629 L 270.966 61.694 L 270.773 60.726 L 270.709 59.741 L 270.773 58.756 L 270.966 57.788 L 271.283 56.854 L 271.720 55.969 L 272.268 55.148 L 272.919 54.406 L 273.661 53.755 L 274.481 53.207 L 275.366 52.770 L 276.301 52.453 L 277.269 52.261 L 278.254 52.196 L 279.239 52.261 L 280.207 52.453 L 281.141 52.770 L 282.026 53.207 L 282.847 53.755 L 283.589 54.406 L 284.240 55.148 L 284.788 55.969 L 285.225 56.854 L 285.542 57.788 L 285.734 58.756 L 285.799 59.741 M 193.478 128.164 L 193.373 129.760 L 193.061 131.328 L 192.547 132.842 L 191.840 134.277 L 190.951 135.607 L 189.897 136.809 L 188.695 137.863 L 187.365 138.752 L 185.930 139.459 L 184.416 139.973 L 182.848 140.285 L 181.252 140.390 L 179.656 140.285 L 178.087 139.973 L 176.573 139.459 L 175.139 138.752 L 173.809 137.863 L 172.606 136.809 L 171.552 135.607 L 170.663 134.277 L 169.956 132.842 L 169.442 131.328 L 169.130 129.760 L 169.025 128.164 L 169.130 126.568 L 169.442 124.999 L 169.956 123.485 L 170.663 122.051 L 171.552 120.721 L 172.606 119.518 L 173.809 118.464 L 175.139 117.575 L 176.573 116.868 L 178.087 116.354 L 179.656 116.042 L 181.252 115.937 L 182.848 116.042 L 184.416 116.354 L 185.930 116.868 L 187.365 117.575 L 188.695 118.464 L 189.897 119.518 L 190.951 120.721 L 191.840 122.051 L 192.547 123.485 L 193.061 124.999 L 193.373 126.568 L 193.478 128.164 M 183.910 218.914 L 183.831 220.117 L 183.596 221.300 L 183.208 222.442 L 182.675 223.524 L 182.004 224.527 L 181.209 225.434 L 180.302 226.229 L 179.300 226.899 L 178.218 227.433 L 177.076 227.820 L 175.893 228.056 L 174.689 228.135 L 173.486 228.056 L 172.303 227.820 L 171.161 227.433 L 170.079 226.899 L 169.076 226.229 L 168.169 225.434 L 167.374 224.527 L 166.704 223.524 L 166.170 222.442 L 165.783 221.300 L 165.547 220.117 L 165.468 218.914 L 165.547 217.710 L 165.783 216.527 L 166.170 215.385 L 166.704 214.303 L 167.374 213.301 L 168.169 212.394 L 169.076 211.599 L 170.079 210.928 L 171.161 210.395 L 172.303 210.007 L 173.486 209.772 L 174.689 209.693 L 175.893 209.772 L 177.076 210.007 L 178.218 210.395 L 179.300 210.928 L 180.302 211.599 L 181.209 212.394 L 182.004 213.301 L 182.675 214.303 L 183.208 215.385 L 183.596 216.527 L 183.831 217.710 L 183.910 218.914 M 271.280 233.788 L 271.204 234.949 L 270.977 236.091 L 270.602 237.193 L 270.087 238.237 L 269.441 239.205 L 268.673 240.081 L 267.798 240.848 L 266.830 241.495 L 265.786 242.010 L 264.683 242.384 L 263.542 242.611 L 262.380 242.687 L 261.218 242.611 L 260.076 242.384 L 258.974 242.010 L 257.930 241.495 L 256.962 240.848 L 256.087 240.081 L 255.319 239.205 L 254.672 238.237 L 254.158 237.193 L 253.783 236.091 L 253.556 234.949 L 253.480 233.788 L 253.556 232.626 L 253.783 231.484 L 254.158 230.382 L 254.672 229.338 L 255.319 228.370 L 256.087 227.494 L 256.962 226.727 L 257.930 226.080 L 258.974 225.565 L 260.076 225.191 L 261.218 224.964 L 262.380 224.888 L 263.542 224.964 L 264.683 225.191 L 265.786 225.565 L 266.830 226.080 L 267.798 226.727 L 268.673 227.494 L 269.441 228.370 L 270.087 229.338 L 270.602 230.382 L 270.977 231.484 L 271.204 232.626 L 271.280 233.788 M 196.693 249.432 L 196.590 251.010 L 196.281 252.560 L 195.773 254.058 L 195.074 255.476 L 194.195 256.790 L 193.153 257.979 L 191.964 259.022 L 190.649 259.900 L 189.231 260.599 L 187.734 261.108 L 186.183 261.416 L 184.606 261.520 L 183.028 261.416 L 181.477 261.108 L 179.980 260.599 L 178.562 259.900 L 177.247 259.022 L 176.058 257.979 L 175.016 256.790 L 174.137 255.476 L 173.438 254.058 L 172.930 252.560 L 172.621 251.010 L 172.518 249.432 L 172.621 247.854 L 172.930 246.303 L 173.438 244.806 L 174.137 243.388 L 175.016 242.074 L 176.058 240.885 L 177.247 239.842 L 178.562 238.964 L 179.980 238.264 L 181.477 237.756 L 183.028 237.448 L 184.606 237.344 L 186.183 237.448 L 187.734 237.756 L 189.231 238.264 L 190.649 238.964 L 191.964 239.842 L 193.153 240.885 L 194.195 242.074 L 195.074 243.388 L 195.773 244.806 L 196.281 246.303 L 196.590 247.854 L 196.693 249.432 M 223.490 179.164 L 223.431 180.066 L 223.255 180.952 L 222.964 181.808 L 222.565 182.619 L 222.062 183.370 L 221.466 184.050 L 220.787 184.646 L 220.035 185.148 L 219.225 185.548 L 218.369 185.838 L 217.482 186.015 L 216.580 186.074 L 215.679 186.015 L 214.792 185.838 L 213.936 185.548 L 213.125 185.148 L 212.374 184.646 L 211.694 184.050 L 211.098 183.370 L 210.596 182.619 L 210.196 181.808 L 209.906 180.952 L 209.730 180.066 L 209.671 179.164 L 209.730 178.262 L 209.906 177.375 L 210.196 176.519 L 210.596 175.709 L 211.098 174.957 L 211.694 174.278 L 212.374 173.682 L 213.125 173.180 L 213.936 172.780 L 214.792 172.489 L 215.679 172.313 L 216.580 172.254 L 217.482 172.313 L 218.369 172.489 L 219.225 172.780 L 220.035 173.180 L 220.787 173.682 L 221.466 174.278 L 222.062 174.957 L 222.565 175.709 L 222.964 176.519 L 223.255 177.375 L 223.431 178.262 L 223.490 179.164 M 231.884 253.358 L 231.819 254.348 L 231.626 255.321 L 231.307 256.261 L 230.868 257.151 L 230.317 257.976 L 229.662 258.722 L 228.916 259.377 L 228.091 259.928 L 227.201 260.367 L 226.261 260.686 L 225.288 260.879 L 224.298 260.944 L 223.307 260.879 L 222.334 260.686 L 221.394 260.367 L 220.504 259.928 L 219.679 259.377 L 218.933 258.722 L 218.279 257.976 L 217.728 257.151 L 217.289 256.261 L 216.970 255.321 L 216.776 254.348 L 216.711 253.358 L 216.776 252.367 L 216.970 251.394 L 217.289 250.454 L 217.728 249.564 L 218.279 248.739 L 218.933 247.993 L 219.679 247.339 L 220.504 246.788 L 221.394 246.349 L 222.334 246.030 L 223.307 245.836 L 224.298 245.771 L 225.288 245.836 L 226.261 246.030 L 227.201 246.349 L 228.091 246.788 L 228.916 247.339 L 229.662 247.993 L 230.317 248.739 L 230.868 249.564 L 231.307 250.454 L 231.626 251.394 L 231.819 252.367 L 231.884 253.358 M 163.019 221.421 L 162.897 223.278 L 162.534 225.103 L 161.936 226.866 L 161.113 228.535 L 160.079 230.082 L 158.852 231.482 L 157.452 232.709 L 155.905 233.743 L 154.236 234.566 L 152.474 235.164 L 150.648 235.527 L 148.791 235.649 L 146.934 235.527 L 145.109 235.164 L 143.346 234.566 L 141.677 233.743 L 140.130 232.709 L 138.731 231.482 L 137.504 230.082 L 136.470 228.535 L 135.647 226.866 L 135.048 225.103 L 134.685 223.278 L 134.564 221.421 L 134.685 219.564 L 135.048 217.739 L 135.647 215.976 L 136.470 214.307 L 137.504 212.760 L 138.731 211.361 L 140.130 210.134 L 141.677 209.100 L 143.346 208.277 L 145.109 207.678 L 146.934 207.315 L 148.791 207.194 L 150.648 207.315 L 152.474 207.678 L 154.236 208.277 L 155.905 209.100 L 157.452 210.134 L 158.852 211.361 L 160.079 212.760 L 161.113 214.307 L 161.936 215.976 L 162.534 217.739 L 162.897 219.564 L 163.019 221.421 M 314.741 198.834 L 314.671 199.913 L 314.460 200.974 L 314.112 201.998 L 313.634 202.968 L 313.033 203.868 L 312.319 204.681 L 311.506 205.394 L 310.607 205.995 L 309.637 206.473 L 308.612 206.821 L 307.551 207.032 L 306.472 207.103 L 305.393 207.032 L 304.332 206.821 L 303.308 206.473 L 302.337 205.995 L 301.438 205.394 L 300.625 204.681 L 299.912 203.868 L 299.311 202.968 L 298.832 201.998 L 298.485 200.974 L 298.274 199.913 L 298.203 198.834 L 298.274 197.754 L 298.485 196.693 L 298.832 195.669 L 299.311 194.699 L 299.912 193.800 L 300.625 192.986 L 301.438 192.273 L 302.337 191.672 L 303.308 191.194 L 304.332 190.846 L 305.393 190.635 L 306.472 190.564 L 307.551 190.635 L 308.612 190.846 L 309.637 191.194 L 310.607 191.672 L 311.506 192.273 L 312.319 192.986 L 313.033 193.800 L 313.634 194.699 L 314.112 195.669 L 314.460 196.693 L 314.671 197.754 L 314.741 198.834 M 289.573 135.636 L 289.481 137.036 L 289.207 138.413 L 288.756 139.742 L 288.135 141.001 L 287.355 142.169 L 286.430 143.224 L 285.374 144.150 L 284.207 144.929 L 282.948 145.550 L 281.619 146.002 L 280.242 146.275 L 278.841 146.367 L 277.441 146.275 L 276.064 146.002 L 274.735 145.550 L 273.476 144.929 L 272.309 144.150 L 271.253 143.224 L 270.328 142.169 L 269.548 141.001 L 268.927 139.742 L 268.476 138.413 L 268.202 137.036 L 268.110 135.636 L 268.202 134.235 L 268.476 132.858 L 268.927 131.529 L 269.548 130.270 L 270.328 129.103 L 271.253 128.047 L 272.309 127.122 L 273.476 126.342 L 274.735 125.721 L 276.064 125.270 L 277.441 124.996 L 278.841 124.904 L 280.242 124.996 L 281.619 125.270 L 282.948 125.721 L 284.207 126.342 L 285.374 127.122 L 286.430 128.047 L 287.355 129.103 L 288.135 130.270 L 288.756 131.529 L 289.207 132.858 L 289.481 134.235 L 289.573 135.636 M 196.921 85.332 L 196.843 86.531 L 196.608 87.711 L 196.222 88.849 L 195.690 89.927 L 195.022 90.927 L 194.229 91.831 L 193.325 92.624 L 192.326 93.292 L 191.247 93.823 L 190.109 94.210 L 188.930 94.444 L 187.730 94.523 L 186.530 94.444 L 185.351 94.210 L 184.213 93.823 L 183.135 93.292 L 182.135 92.624 L 181.231 91.831 L 180.438 90.927 L 179.770 89.927 L 179.239 88.849 L 178.852 87.711 L 178.618 86.531 L 178.539 85.332 L 178.618 84.132 L 178.852 82.953 L 179.239 81.814 L 179.770 80.736 L 180.438 79.737 L 181.231 78.833 L 182.135 78.040 L 183.135 77.372 L 184.213 76.840 L 185.351 76.454 L 186.530 76.219 L 187.730 76.141 L 188.930 76.219 L 190.109 76.454 L 191.247 76.840 L 192.326 77.372 L 193.325 78.040 L 194.229 78.833 L 195.022 79.737 L 195.690 80.736 L 196.222 81.814 L 196.608 82.953 L 196.843 84.132 L 196.921 85.332 M 305.866 76.565 L 305.753 78.289 L 305.417 79.983 L 304.861 81.618 L 304.097 83.167 L 303.138 84.603 L 301.999 85.901 L 300.701 87.040 L 299.265 88.000 L 297.716 88.764 L 296.080 89.319 L 294.386 89.656 L 292.663 89.769 L 290.940 89.656 L 289.246 89.319 L 287.610 88.764 L 286.061 88.000 L 284.625 87.040 L 283.327 85.901 L 282.188 84.603 L 281.229 83.167 L 280.465 81.618 L 279.910 79.983 L 279.573 78.289 L 279.460 76.565 L 279.573 74.842 L 279.910 73.148 L 280.465 71.513 L 281.229 69.964 L 282.188 68.528 L 283.327 67.229 L 284.625 66.090 L 286.061 65.131 L 287.610 64.367 L 289.246 63.812 L 290.940 63.475 L 292.663 63.362 L 294.386 63.475 L 296.080 63.812 L 297.716 64.367 L 299.265 65.131 L 300.701 66.090 L 301.999 67.229 L 303.138 68.528 L 304.097 69.964 L 304.861 71.513 L 305.417 73.148 L 305.753 74.842 L 305.866 76.565 M 238.826 61.743 L 238.770 62.602 L 238.602 63.446 L 238.325 64.262 L 237.944 65.034 L 237.466 65.750 L 236.898 66.398 L 236.251 66.965 L 235.535 67.444 L 234.762 67.825 L 233.947 68.101 L 233.102 68.269 L 232.243 68.326 L 231.384 68.269 L 230.539 68.101 L 229.724 67.825 L 228.951 67.444 L 228.235 66.965 L 227.588 66.398 L 227.020 65.750 L 226.542 65.034 L 226.161 64.262 L 225.884 63.446 L 225.716 62.602 L 225.660 61.743 L 225.716 60.883 L 225.884 60.039 L 226.161 59.223 L 226.542 58.451 L 227.020 57.735 L 227.588 57.087 L 228.235 56.520 L 228.951 56.041 L 229.724 55.660 L 230.539 55.384 L 231.384 55.216 L 232.243 55.159 L 233.102 55.216 L 233.947 55.384 L 234.762 55.660 L 235.535 56.041 L 236.251 56.520 L 236.898 57.087 L 237.466 57.735 L 237.944 58.451 L 238.325 59.223 L 238.602 60.039 L 238.770 60.883 L 238.826 61.743 M 207.596 181.431 L 207.528 182.467 L 207.325 183.486 L 206.991 184.469 L 206.532 185.400 L 205.955 186.264 L 205.271 187.044 L 204.490 187.729 L 203.627 188.306 L 202.695 188.765 L 201.712 189.099 L 200.694 189.301 L 199.658 189.369 L 198.621 189.301 L 197.603 189.099 L 196.620 188.765 L 195.689 188.306 L 194.825 187.729 L 194.044 187.044 L 193.360 186.264 L 192.783 185.400 L 192.324 184.469 L 191.990 183.486 L 191.787 182.467 L 191.719 181.431 L 191.787 180.395 L 191.990 179.377 L 192.324 178.393 L 192.783 177.462 L 193.360 176.599 L 194.044 175.818 L 194.825 175.133 L 195.689 174.557 L 196.620 174.097 L 197.603 173.764 L 198.621 173.561 L 199.658 173.493 L 200.694 173.561 L 201.712 173.764 L 202.695 174.097 L 203.627 174.557 L 204.490 175.133 L 205.271 175.818 L 205.955 176.599 L 206.532 177.462 L 206.991 178.393 L 207.325 179.377 L 207.528 180.395 L 207.596 181.431 M 306.539 214.427 L 306.473 215.441 L 306.275 216.438 L 305.948 217.400 L 305.499 218.311 L 304.934 219.155 L 304.264 219.919 L 303.501 220.589 L 302.656 221.153 L 301.745 221.603 L 300.783 221.929 L 299.786 222.128 L 298.773 222.194 L 297.759 222.128 L 296.763 221.929 L 295.801 221.603 L 294.889 221.153 L 294.045 220.589 L 293.281 219.919 L 292.611 219.155 L 292.047 218.311 L 291.597 217.400 L 291.271 216.438 L 291.073 215.441 L 291.006 214.427 L 291.073 213.414 L 291.271 212.417 L 291.597 211.455 L 292.047 210.544 L 292.611 209.700 L 293.281 208.936 L 294.045 208.266 L 294.889 207.702 L 295.801 207.252 L 296.763 206.926 L 297.759 206.727 L 298.773 206.661 L 299.786 206.727 L 300.783 206.926 L 301.745 207.252 L 302.656 207.702 L 303.501 208.266 L 304.264 208.936 L 304.934 209.700 L 305.499 210.544 L 305.948 211.455 L 306.275 212.417 L 306.473 213.414 L 306.539 214.427 M 330.006 149.087 L 329.928 150.286 L 329.693 151.464 L 329.307 152.601 L 328.776 153.679 L 328.108 154.678 L 327.316 155.581 L 326.413 156.373 L 325.414 157.040 L 324.337 157.572 L 323.199 157.958 L 322.021 158.192 L 320.822 158.271 L 319.624 158.192 L 318.446 157.958 L 317.308 157.572 L 316.231 157.040 L 315.232 156.373 L 314.329 155.581 L 313.537 154.678 L 312.869 153.679 L 312.338 152.601 L 311.952 151.464 L 311.717 150.286 L 311.639 149.087 L 311.717 147.888 L 311.952 146.710 L 312.338 145.572 L 312.869 144.495 L 313.537 143.496 L 314.329 142.593 L 315.232 141.801 L 316.231 141.134 L 317.308 140.602 L 318.446 140.216 L 319.624 139.982 L 320.822 139.903 L 322.021 139.982 L 323.199 140.216 L 324.337 140.602 L 325.414 141.134 L 326.413 141.801 L 327.316 142.593 L 328.108 143.496 L 328.776 144.495 L 329.307 145.572 L 329.693 146.710 L 329.928 147.888 L 330.006 149.087 M 204.229 199.985 L 204.158 201.070 L 203.946 202.137 L 203.596 203.167 L 203.115 204.142 L 202.511 205.046 L 201.794 205.864 L 200.977 206.581 L 200.073 207.185 L 199.097 207.666 L 198.068 208.015 L 197.001 208.227 L 195.916 208.299 L 194.831 208.227 L 193.764 208.015 L 192.735 207.666 L 191.759 207.185 L 190.855 206.581 L 190.038 205.864 L 189.321 205.046 L 188.717 204.142 L 188.236 203.167 L 187.886 202.137 L 187.674 201.070 L 187.603 199.985 L 187.674 198.900 L 187.886 197.834 L 188.236 196.804 L 188.717 195.829 L 189.321 194.925 L 190.038 194.107 L 190.855 193.390 L 191.759 192.786 L 192.735 192.305 L 193.764 191.955 L 194.831 191.743 L 195.916 191.672 L 197.001 191.743 L 198.068 191.955 L 199.097 192.305 L 200.073 192.786 L 200.977 193.390 L 201.794 194.107 L 202.511 194.925 L 203.115 195.829 L 203.596 196.804 L 203.946 197.834 L 204.158 198.900 L 204.229 199.985 M 243.226 46.395 L 243.181 47.078 L 243.048 47.750 L 242.828 48.398 L 242.525 49.012 L 242.144 49.581 L 241.693 50.096 L 241.178 50.548 L 240.609 50.928 L 239.995 51.231 L 239.347 51.451 L 238.675 51.584 L 237.992 51.629 L 237.309 51.584 L 236.637 51.451 L 235.989 51.231 L 235.375 50.928 L 234.805 50.548 L 234.291 50.096 L 233.839 49.581 L 233.459 49.012 L 233.156 48.398 L 232.936 47.750 L 232.802 47.078 L 232.758 46.395 L 232.802 45.712 L 232.936 45.040 L 233.156 44.392 L 233.459 43.778 L 233.839 43.209 L 234.291 42.694 L 234.805 42.242 L 235.375 41.862 L 235.989 41.559 L 236.637 41.339 L 237.309 41.206 L 237.992 41.161 L 238.675 41.206 L 239.347 41.339 L 239.995 41.559 L 240.609 41.862 L 241.178 42.242 L 241.693 42.694 L 242.144 43.209 L 242.525 43.778 L 242.828 44.392 L 243.048 45.040 L 243.181 45.712 L 243.226 46.395 M 260.625 80.762 L 260.583 81.410 L 260.456 82.048 L 260.247 82.663 L 259.960 83.246 L 259.599 83.786 L 259.171 84.275 L 258.682 84.703 L 258.142 85.064 L 257.559 85.351 L 256.944 85.560 L 256.306 85.687 L 255.658 85.729 L 255.010 85.687 L 254.372 85.560 L 253.757 85.351 L 253.174 85.064 L 252.634 84.703 L 252.146 84.275 L 251.717 83.786 L 251.356 83.246 L 251.069 82.663 L 250.860 82.048 L 250.733 81.410 L 250.691 80.762 L 250.733 80.114 L 250.860 79.476 L 251.069 78.861 L 251.356 78.278 L 251.717 77.738 L 252.146 77.250 L 252.634 76.821 L 253.174 76.460 L 253.757 76.173 L 254.372 75.964 L 255.010 75.837 L 255.658 75.795 L 256.306 75.837 L 256.944 75.964 L 257.559 76.173 L 258.142 76.460 L 258.682 76.821 L 259.171 77.250 L 259.599 77.738 L 259.960 78.278 L 260.247 78.861 L 260.456 79.476 L 260.583 80.114 L 260.625 80.762 M 137.071 172.366 L 137.012 173.270 L 136.835 174.158 L 136.544 175.016 L 136.143 175.829 L 135.640 176.582 L 135.043 177.263 L 134.362 177.860 L 133.609 178.363 L 132.796 178.764 L 131.939 179.055 L 131.050 179.231 L 130.146 179.291 L 129.243 179.231 L 128.354 179.055 L 127.497 178.764 L 126.684 178.363 L 125.931 177.860 L 125.250 177.263 L 124.653 176.582 L 124.150 175.829 L 123.749 175.016 L 123.458 174.158 L 123.281 173.270 L 123.222 172.366 L 123.281 171.463 L 123.458 170.574 L 123.749 169.716 L 124.150 168.904 L 124.653 168.151 L 125.250 167.470 L 125.931 166.873 L 126.684 166.370 L 127.497 165.969 L 128.354 165.678 L 129.243 165.501 L 130.146 165.442 L 131.050 165.501 L 131.939 165.678 L 132.796 165.969 L 133.609 166.370 L 134.362 166.873 L 135.043 167.470 L 135.640 168.151 L 136.143 168.904 L 136.544 169.716 L 136.835 170.574 L 137.012 171.463 L 137.071 172.366 M 181.783 64.938 L 181.741 65.581 L 181.616 66.212 L 181.409 66.822 L 181.124 67.399 L 180.766 67.934 L 180.342 68.418 L 179.858 68.843 L 179.323 69.200 L 178.745 69.485 L 178.136 69.692 L 177.504 69.818 L 176.862 69.860 L 176.219 69.818 L 175.588 69.692 L 174.978 69.485 L 174.401 69.200 L 173.866 68.843 L 173.382 68.418 L 172.957 67.934 L 172.600 67.399 L 172.315 66.822 L 172.108 66.212 L 171.982 65.581 L 171.940 64.938 L 171.982 64.296 L 172.108 63.664 L 172.315 63.055 L 172.600 62.477 L 172.957 61.942 L 173.382 61.458 L 173.866 61.034 L 174.401 60.676 L 174.978 60.391 L 175.588 60.184 L 176.219 60.059 L 176.862 60.017 L 177.504 60.059 L 178.136 60.184 L 178.745 60.391 L 179.323 60.676 L 179.858 61.034 L 180.342 61.458 L 180.766 61.942 L 181.124 62.477 L 181.409 63.055 L 181.616 63.664 L 181.741 64.296 L 181.783 64.938 M 177.820 78.518 L 177.742 79.711 L 177.509 80.884 L 177.124 82.016 L 176.596 83.088 L 175.931 84.082 L 175.143 84.981 L 174.245 85.769 L 173.251 86.433 L 172.178 86.962 L 171.046 87.346 L 169.874 87.579 L 168.681 87.657 L 167.488 87.579 L 166.316 87.346 L 165.184 86.962 L 164.112 86.433 L 163.118 85.769 L 162.219 84.981 L 161.431 84.082 L 160.767 83.088 L 160.238 82.016 L 159.854 80.884 L 159.621 79.711 L 159.542 78.518 L 159.621 77.326 L 159.854 76.153 L 160.238 75.021 L 160.767 73.949 L 161.431 72.955 L 162.219 72.056 L 163.118 71.268 L 164.112 70.604 L 165.184 70.075 L 166.316 69.691 L 167.488 69.458 L 168.681 69.380 L 169.874 69.458 L 171.046 69.691 L 172.178 70.075 L 173.251 70.604 L 174.245 71.268 L 175.143 72.056 L 175.931 72.955 L 176.596 73.949 L 177.124 75.021 L 177.509 76.153 L 177.742 77.326 L 177.820 78.518 M 302.606 107.395 L 302.563 108.040 L 302.437 108.675 L 302.229 109.287 L 301.943 109.867 L 301.584 110.405 L 301.158 110.891 L 300.672 111.317 L 300.134 111.676 L 299.554 111.962 L 298.942 112.170 L 298.307 112.296 L 297.662 112.339 L 297.017 112.296 L 296.383 112.170 L 295.770 111.962 L 295.190 111.676 L 294.653 111.317 L 294.166 110.891 L 293.740 110.405 L 293.381 109.867 L 293.095 109.287 L 292.887 108.675 L 292.761 108.040 L 292.719 107.395 L 292.761 106.750 L 292.887 106.116 L 293.095 105.503 L 293.381 104.923 L 293.740 104.386 L 294.166 103.900 L 294.653 103.473 L 295.190 103.114 L 295.770 102.828 L 296.383 102.620 L 297.017 102.494 L 297.662 102.452 L 298.307 102.494 L 298.942 102.620 L 299.554 102.828 L 300.134 103.114 L 300.672 103.473 L 301.158 103.900 L 301.584 104.386 L 301.943 104.923 L 302.229 105.503 L 302.437 106.116 L 302.563 106.750 L 302.606 107.395 M 245.263 72.726 L 245.215 73.458 L 245.072 74.177 L 244.837 74.871 L 244.513 75.528 L 244.105 76.138 L 243.622 76.689 L 243.071 77.172 L 242.461 77.580 L 241.804 77.904 L 241.110 78.139 L 240.391 78.282 L 239.659 78.330 L 238.928 78.282 L 238.209 78.139 L 237.515 77.904 L 236.857 77.580 L 236.248 77.172 L 235.697 76.689 L 235.213 76.138 L 234.806 75.528 L 234.482 74.871 L 234.246 74.177 L 234.103 73.458 L 234.055 72.726 L 234.103 71.995 L 234.246 71.276 L 234.482 70.582 L 234.806 69.924 L 235.213 69.315 L 235.697 68.764 L 236.248 68.280 L 236.857 67.873 L 237.515 67.549 L 238.209 67.313 L 238.928 67.170 L 239.659 67.122 L 240.391 67.170 L 241.110 67.313 L 241.804 67.549 L 242.461 67.873 L 243.071 68.280 L 243.622 68.764 L 244.105 69.315 L 244.513 69.924 L 244.837 70.582 L 245.072 71.276 L 245.215 71.995 L 245.263 72.726 M 136.985 237.036 L 136.944 237.663 L 136.822 238.280 L 136.620 238.875 L 136.342 239.438 L 135.993 239.961 L 135.578 240.433 L 135.106 240.847 L 134.583 241.196 L 134.020 241.474 L 133.425 241.676 L 132.809 241.799 L 132.182 241.840 L 131.555 241.799 L 130.939 241.676 L 130.344 241.474 L 129.780 241.196 L 129.258 240.847 L 128.785 240.433 L 128.371 239.961 L 128.022 239.438 L 127.744 238.875 L 127.542 238.280 L 127.419 237.663 L 127.378 237.036 L 127.419 236.409 L 127.542 235.793 L 127.744 235.198 L 128.022 234.635 L 128.371 234.112 L 128.785 233.640 L 129.258 233.226 L 129.780 232.877 L 130.344 232.599 L 130.939 232.397 L 131.555 232.274 L 132.182 232.233 L 132.809 232.274 L 133.425 232.397 L 134.020 232.599 L 134.583 232.877 L 135.106 233.226 L 135.578 233.640 L 135.993 234.112 L 136.342 234.635 L 136.620 235.198 L 136.822 235.793 L 136.944 236.409 L 136.985 237.036 M 238.990 233.512 L 238.947 234.162 L 238.820 234.801 L 238.610 235.418 L 238.322 236.003 L 237.960 236.544 L 237.531 237.034 L 237.041 237.464 L 236.499 237.826 L 235.915 238.114 L 235.298 238.324 L 234.658 238.451 L 234.008 238.493 L 233.358 238.451 L 232.719 238.324 L 232.102 238.114 L 231.518 237.826 L 230.976 237.464 L 230.486 237.034 L 230.056 236.544 L 229.694 236.003 L 229.406 235.418 L 229.197 234.801 L 229.070 234.162 L 229.027 233.512 L 229.070 232.862 L 229.197 232.223 L 229.406 231.606 L 229.694 231.021 L 230.056 230.479 L 230.486 229.990 L 230.976 229.560 L 231.518 229.198 L 232.102 228.910 L 232.719 228.700 L 233.358 228.573 L 234.008 228.531 L 234.658 228.573 L 235.298 228.700 L 235.915 228.910 L 236.499 229.198 L 237.041 229.560 L 237.531 229.990 L 237.960 230.479 L 238.322 231.021 L 238.610 231.606 L 238.820 232.223 L 238.947 232.862 L 238.990 233.512 M 156.695 123.225 L 156.639 124.069 L 156.474 124.898 L 156.203 125.699 L 155.829 126.457 L 155.359 127.160 L 154.801 127.796 L 154.165 128.354 L 153.462 128.824 L 152.704 129.198 L 151.903 129.469 L 151.074 129.634 L 150.230 129.690 L 149.386 129.634 L 148.556 129.469 L 147.756 129.198 L 146.997 128.824 L 146.294 128.354 L 145.658 127.796 L 145.101 127.160 L 144.631 126.457 L 144.257 125.699 L 143.985 124.898 L 143.820 124.069 L 143.765 123.225 L 143.820 122.381 L 143.985 121.552 L 144.257 120.751 L 144.631 119.992 L 145.101 119.289 L 145.658 118.654 L 146.294 118.096 L 146.997 117.626 L 147.756 117.252 L 148.556 116.980 L 149.386 116.815 L 150.230 116.760 L 151.074 116.815 L 151.903 116.980 L 152.704 117.252 L 153.462 117.626 L 154.165 118.096 L 154.801 118.654 L 155.359 119.289 L 155.829 119.992 L 156.203 120.751 L 156.474 121.552 L 156.639 122.381 L 156.695 123.225 M 273.194 159.547 L 273.139 160.375 L 272.977 161.190 L 272.711 161.976 L 272.343 162.721 L 271.882 163.411 L 271.334 164.035 L 270.710 164.583 L 270.020 165.044 L 269.275 165.412 L 268.489 165.678 L 267.674 165.840 L 266.846 165.895 L 266.017 165.840 L 265.203 165.678 L 264.417 165.412 L 263.672 165.044 L 262.982 164.583 L 262.357 164.035 L 261.810 163.411 L 261.348 162.721 L 260.981 161.976 L 260.714 161.190 L 260.552 160.375 L 260.498 159.547 L 260.552 158.718 L 260.714 157.904 L 260.981 157.118 L 261.348 156.373 L 261.810 155.683 L 262.357 155.058 L 262.982 154.511 L 263.672 154.049 L 264.417 153.682 L 265.203 153.415 L 266.017 153.253 L 266.846 153.199 L 267.674 153.253 L 268.489 153.415 L 269.275 153.682 L 270.020 154.049 L 270.710 154.511 L 271.334 155.058 L 271.882 155.683 L 272.343 156.373 L 272.711 157.118 L 272.977 157.904 L 273.139 158.718 L 273.194 159.547 M 244.473 181.046 L 244.417 181.899 L 244.250 182.738 L 243.975 183.548 L 243.597 184.315 L 243.122 185.026 L 242.558 185.669 L 241.915 186.233 L 241.204 186.708 L 240.437 187.086 L 239.627 187.361 L 238.788 187.528 L 237.934 187.584 L 237.081 187.528 L 236.242 187.361 L 235.432 187.086 L 234.665 186.708 L 233.954 186.233 L 233.311 185.669 L 232.747 185.026 L 232.272 184.315 L 231.894 183.548 L 231.619 182.738 L 231.452 181.899 L 231.396 181.046 L 231.452 180.192 L 231.619 179.354 L 231.894 178.544 L 232.272 177.777 L 232.747 177.066 L 233.311 176.423 L 233.954 175.859 L 234.665 175.384 L 235.432 175.005 L 236.242 174.730 L 237.081 174.564 L 237.934 174.508 L 238.788 174.564 L 239.627 174.730 L 240.437 175.005 L 241.204 175.384 L 241.915 175.859 L 242.558 176.423 L 243.122 177.066 L 243.597 177.777 L 243.975 178.544 L 244.250 179.354 L 244.417 180.192 L 244.473 181.046 M 252.704 238.795 L 252.662 239.442 L 252.536 240.078 L 252.327 240.691 L 252.041 241.273 L 251.681 241.811 L 251.253 242.299 L 250.766 242.726 L 250.227 243.086 L 249.646 243.373 L 249.032 243.581 L 248.396 243.708 L 247.750 243.750 L 247.103 243.708 L 246.467 243.581 L 245.853 243.373 L 245.272 243.086 L 244.733 242.726 L 244.246 242.299 L 243.819 241.811 L 243.458 241.273 L 243.172 240.691 L 242.963 240.078 L 242.837 239.442 L 242.795 238.795 L 242.837 238.148 L 242.963 237.513 L 243.172 236.899 L 243.458 236.318 L 243.819 235.779 L 244.246 235.291 L 244.733 234.864 L 245.272 234.504 L 245.853 234.217 L 246.467 234.009 L 247.103 233.883 L 247.750 233.840 L 248.396 233.883 L 249.032 234.009 L 249.646 234.217 L 250.227 234.504 L 250.766 234.864 L 251.253 235.291 L 251.681 235.779 L 252.041 236.318 L 252.327 236.899 L 252.536 237.513 L 252.662 238.148 L 252.704 238.795 M 291.231 167.073 L 291.172 167.982 L 290.994 168.876 L 290.701 169.739 L 290.298 170.557 L 289.791 171.314 L 289.190 172.000 L 288.505 172.601 L 287.747 173.107 L 286.930 173.510 L 286.067 173.803 L 285.173 173.981 L 284.263 174.040 L 283.354 173.981 L 282.460 173.803 L 281.597 173.510 L 280.780 173.107 L 280.022 172.601 L 279.336 172.000 L 278.736 171.314 L 278.229 170.557 L 277.826 169.739 L 277.533 168.876 L 277.355 167.982 L 277.296 167.073 L 277.355 166.163 L 277.533 165.269 L 277.826 164.406 L 278.229 163.589 L 278.736 162.831 L 279.336 162.146 L 280.022 161.545 L 280.780 161.038 L 281.597 160.635 L 282.460 160.342 L 283.354 160.165 L 284.263 160.105 L 285.173 160.165 L 286.067 160.342 L 286.930 160.635 L 287.747 161.038 L 288.505 161.545 L 289.190 162.146 L 289.791 162.831 L 290.298 163.589 L 290.701 164.406 L 290.994 165.269 L 291.172 166.163 L 291.231 167.073 M 226.521 115.606 L 226.476 116.291 L 226.342 116.964 L 226.122 117.614 L 225.818 118.229 L 225.437 118.800 L 224.984 119.316 L 224.469 119.768 L 223.898 120.149 L 223.283 120.453 L 222.633 120.674 L 221.960 120.807 L 221.275 120.852 L 220.590 120.807 L 219.917 120.674 L 219.268 120.453 L 218.652 120.149 L 218.082 119.768 L 217.566 119.316 L 217.113 118.800 L 216.732 118.229 L 216.429 117.614 L 216.208 116.964 L 216.074 116.291 L 216.029 115.606 L 216.074 114.922 L 216.208 114.249 L 216.429 113.599 L 216.732 112.984 L 217.113 112.413 L 217.566 111.897 L 218.082 111.445 L 218.652 111.063 L 219.268 110.760 L 219.917 110.539 L 220.590 110.405 L 221.275 110.361 L 221.960 110.405 L 222.633 110.539 L 223.283 110.760 L 223.898 111.063 L 224.469 111.445 L 224.984 111.897 L 225.437 112.413 L 225.818 112.984 L 226.122 113.599 L 226.342 114.249 L 226.476 114.922 L 226.521 115.606 M 194.796 49.638 L 194.709 50.963 L 194.450 52.265 L 194.023 53.522 L 193.436 54.713 L 192.699 55.816 L 191.823 56.815 L 190.825 57.690 L 189.722 58.427 L 188.531 59.014 L 187.274 59.441 L 185.972 59.700 L 184.647 59.787 L 183.323 59.700 L 182.021 59.441 L 180.764 59.014 L 179.573 58.427 L 178.469 57.690 L 177.471 56.815 L 176.596 55.816 L 175.858 54.713 L 175.271 53.522 L 174.845 52.265 L 174.586 50.963 L 174.499 49.638 L 174.586 48.314 L 174.845 47.012 L 175.271 45.755 L 175.858 44.564 L 176.596 43.460 L 177.471 42.462 L 178.469 41.587 L 179.573 40.849 L 180.764 40.262 L 182.021 39.836 L 183.323 39.577 L 184.647 39.490 L 185.972 39.577 L 187.274 39.836 L 188.531 40.262 L 189.722 40.849 L 190.825 41.587 L 191.823 42.462 L 192.699 43.460 L 193.436 44.564 L 194.023 45.755 L 194.450 47.012 L 194.709 48.314 L 194.796 49.638 M 327.090 180.125 L 327.022 181.173 L 326.817 182.204 L 326.479 183.199 L 326.014 184.142 L 325.430 185.015 L 324.737 185.805 L 323.947 186.498 L 323.074 187.082 L 322.131 187.547 L 321.136 187.885 L 320.105 188.090 L 319.057 188.158 L 318.008 188.090 L 316.978 187.885 L 315.982 187.547 L 315.040 187.082 L 314.166 186.498 L 313.376 185.805 L 312.683 185.015 L 312.099 184.142 L 311.635 183.199 L 311.297 182.204 L 311.092 181.173 L 311.023 180.125 L 311.092 179.076 L 311.297 178.045 L 311.635 177.050 L 312.099 176.108 L 312.683 175.234 L 313.376 174.444 L 314.166 173.751 L 315.040 173.167 L 315.982 172.703 L 316.978 172.365 L 318.008 172.160 L 319.057 172.091 L 320.105 172.160 L 321.136 172.365 L 322.131 172.703 L 323.074 173.167 L 323.947 173.751 L 324.737 174.444 L 325.430 175.234 L 326.014 176.108 L 326.479 177.050 L 326.817 178.045 L 327.022 179.076 L 327.090 180.125 M 309.480 161.208 L 309.430 161.975 L 309.280 162.729 L 309.033 163.456 L 308.694 164.145 L 308.267 164.784 L 307.760 165.362 L 307.182 165.868 L 306.544 166.295 L 305.855 166.635 L 305.127 166.882 L 304.373 167.032 L 303.607 167.082 L 302.840 167.032 L 302.087 166.882 L 301.359 166.635 L 300.670 166.295 L 300.031 165.868 L 299.453 165.362 L 298.947 164.784 L 298.520 164.145 L 298.180 163.456 L 297.933 162.729 L 297.783 161.975 L 297.733 161.208 L 297.783 160.442 L 297.933 159.688 L 298.180 158.961 L 298.520 158.272 L 298.947 157.633 L 299.453 157.055 L 300.031 156.548 L 300.670 156.122 L 301.359 155.782 L 302.087 155.535 L 302.840 155.385 L 303.607 155.335 L 304.373 155.385 L 305.127 155.535 L 305.855 155.782 L 306.544 156.122 L 307.182 156.548 L 307.760 157.055 L 308.267 157.633 L 308.694 158.272 L 309.033 158.961 L 309.280 159.688 L 309.430 160.442 L 309.480 161.208 M 206.875 66.555 L 206.813 67.497 L 206.629 68.423 L 206.325 69.317 L 205.908 70.164 L 205.383 70.949 L 204.761 71.659 L 204.051 72.282 L 203.266 72.806 L 202.419 73.224 L 201.525 73.527 L 200.599 73.711 L 199.657 73.773 L 198.714 73.711 L 197.788 73.527 L 196.894 73.224 L 196.048 72.806 L 195.263 72.282 L 194.553 71.659 L 193.930 70.949 L 193.406 70.164 L 192.988 69.317 L 192.685 68.423 L 192.500 67.497 L 192.439 66.555 L 192.500 65.613 L 192.685 64.687 L 192.988 63.793 L 193.406 62.946 L 193.930 62.161 L 194.553 61.451 L 195.263 60.829 L 196.048 60.304 L 196.894 59.887 L 197.788 59.583 L 198.714 59.399 L 199.657 59.337 L 200.599 59.399 L 201.525 59.583 L 202.419 59.887 L 203.266 60.304 L 204.051 60.829 L 204.761 61.451 L 205.383 62.161 L 205.908 62.946 L 206.325 63.793 L 206.629 64.687 L 206.813 65.613 L 206.875 66.555 M 295.363 227.316 L 295.322 227.940 L 295.200 228.554 L 294.999 229.146 L 294.722 229.707 L 294.375 230.227 L 293.962 230.698 L 293.492 231.110 L 292.972 231.458 L 292.411 231.734 L 291.818 231.936 L 291.205 232.058 L 290.580 232.099 L 289.956 232.058 L 289.342 231.936 L 288.750 231.734 L 288.189 231.458 L 287.669 231.110 L 287.198 230.698 L 286.786 230.227 L 286.438 229.707 L 286.161 229.146 L 285.960 228.554 L 285.838 227.940 L 285.797 227.316 L 285.838 226.691 L 285.960 226.078 L 286.161 225.485 L 286.438 224.924 L 286.786 224.404 L 287.198 223.934 L 287.669 223.521 L 288.189 223.173 L 288.750 222.897 L 289.342 222.696 L 289.956 222.574 L 290.580 222.533 L 291.205 222.574 L 291.818 222.696 L 292.411 222.897 L 292.972 223.173 L 293.492 223.521 L 293.962 223.934 L 294.375 224.404 L 294.722 224.924 L 294.999 225.485 L 295.200 226.078 L 295.322 226.691 L 295.363 227.316 M 172.317 243.128 L 172.248 244.182 L 172.042 245.219 L 171.702 246.219 L 171.235 247.167 L 170.648 248.046 L 169.951 248.840 L 169.156 249.537 L 168.278 250.124 L 167.330 250.591 L 166.329 250.931 L 165.293 251.137 L 164.239 251.206 L 163.184 251.137 L 162.148 250.931 L 161.147 250.591 L 160.200 250.124 L 159.321 249.537 L 158.527 248.840 L 157.830 248.046 L 157.243 247.167 L 156.775 246.219 L 156.436 245.219 L 156.230 244.182 L 156.161 243.128 L 156.230 242.074 L 156.436 241.037 L 156.775 240.037 L 157.243 239.089 L 157.830 238.210 L 158.527 237.416 L 159.321 236.719 L 160.200 236.132 L 161.147 235.665 L 162.148 235.325 L 163.184 235.119 L 164.239 235.050 L 165.293 235.119 L 166.329 235.325 L 167.330 235.665 L 168.278 236.132 L 169.156 236.719 L 169.951 237.416 L 170.648 238.210 L 171.235 239.089 L 171.702 240.037 L 172.042 241.037 L 172.248 242.074 L 172.317 243.128 M 232.029 35.129 L 231.966 36.086 L 231.779 37.028 L 231.471 37.937 L 231.046 38.797 L 230.513 39.595 L 229.880 40.317 L 229.158 40.950 L 228.360 41.483 L 227.500 41.907 L 226.591 42.216 L 225.649 42.403 L 224.692 42.466 L 223.734 42.403 L 222.793 42.216 L 221.884 41.907 L 221.023 41.483 L 220.225 40.950 L 219.503 40.317 L 218.871 39.595 L 218.337 38.797 L 217.913 37.937 L 217.604 37.028 L 217.417 36.086 L 217.354 35.129 L 217.417 34.171 L 217.604 33.230 L 217.913 32.321 L 218.337 31.460 L 218.871 30.662 L 219.503 29.940 L 220.225 29.308 L 221.023 28.774 L 221.884 28.350 L 222.793 28.041 L 223.734 27.854 L 224.692 27.791 L 225.649 27.854 L 226.591 28.041 L 227.500 28.350 L 228.360 28.774 L 229.158 29.308 L 229.880 29.940 L 230.513 30.662 L 231.046 31.460 L 231.471 32.321 L 231.779 33.230 L 231.966 34.171 L 232.029 35.129 M 251.870 88.476 L 251.820 89.248 L 251.669 90.006 L 251.420 90.738 L 251.078 91.432 L 250.648 92.075 L 250.138 92.657 L 249.557 93.167 L 248.914 93.596 L 248.220 93.938 L 247.488 94.187 L 246.729 94.338 L 245.957 94.389 L 245.186 94.338 L 244.427 94.187 L 243.695 93.938 L 243.001 93.596 L 242.358 93.167 L 241.776 92.657 L 241.266 92.075 L 240.837 91.432 L 240.495 90.738 L 240.246 90.006 L 240.095 89.248 L 240.045 88.476 L 240.095 87.704 L 240.246 86.945 L 240.495 86.213 L 240.837 85.519 L 241.266 84.876 L 241.776 84.295 L 242.358 83.785 L 243.001 83.355 L 243.695 83.013 L 244.427 82.764 L 245.186 82.614 L 245.957 82.563 L 246.729 82.614 L 247.488 82.764 L 248.220 83.013 L 248.914 83.355 L 249.557 83.785 L 250.138 84.295 L 250.648 84.876 L 251.078 85.519 L 251.420 86.213 L 251.669 86.945 L 251.820 87.704 L 251.870 88.476 M 140.732 59.066 L 140.688 59.730 L 140.558 60.383 L 140.344 61.013 L 140.050 61.611 L 139.680 62.164 L 139.241 62.665 L 138.740 63.104 L 138.187 63.474 L 137.590 63.768 L 136.959 63.982 L 136.306 64.112 L 135.642 64.156 L 134.977 64.112 L 134.324 63.982 L 133.694 63.768 L 133.097 63.474 L 132.543 63.104 L 132.043 62.665 L 131.604 62.164 L 131.234 61.611 L 130.939 61.013 L 130.725 60.383 L 130.595 59.730 L 130.552 59.066 L 130.595 58.401 L 130.725 57.748 L 130.939 57.118 L 131.234 56.521 L 131.604 55.967 L 132.043 55.466 L 132.543 55.028 L 133.097 54.658 L 133.694 54.363 L 134.324 54.149 L 134.977 54.019 L 135.642 53.976 L 136.306 54.019 L 136.959 54.149 L 137.590 54.363 L 138.187 54.658 L 138.740 55.028 L 139.241 55.466 L 139.680 55.967 L 140.050 56.521 L 140.344 57.118 L 140.558 57.748 L 140.688 58.401 L 140.732 59.066 M 121.394 93.127 L 121.327 94.151 L 121.127 95.157 L 120.797 96.128 L 120.343 97.048 L 119.774 97.901 L 119.097 98.673 L 118.326 99.349 L 117.473 99.919 L 116.553 100.372 L 115.582 100.702 L 114.576 100.902 L 113.552 100.969 L 112.528 100.902 L 111.522 100.702 L 110.551 100.372 L 109.631 99.919 L 108.778 99.349 L 108.007 98.673 L 107.330 97.901 L 106.760 97.048 L 106.307 96.128 L 105.977 95.157 L 105.777 94.151 L 105.710 93.127 L 105.777 92.104 L 105.977 91.097 L 106.307 90.126 L 106.760 89.206 L 107.330 88.353 L 108.007 87.582 L 108.778 86.906 L 109.631 86.336 L 110.551 85.882 L 111.522 85.552 L 112.528 85.352 L 113.552 85.285 L 114.576 85.352 L 115.582 85.552 L 116.553 85.882 L 117.473 86.336 L 118.326 86.906 L 119.097 87.582 L 119.774 88.353 L 120.343 89.206 L 120.797 90.126 L 121.127 91.097 L 121.327 92.104 L 121.394 93.127 M 182.711 99.762 L 182.646 100.750 L 182.453 101.721 L 182.135 102.658 L 181.697 103.546 L 181.147 104.369 L 180.494 105.113 L 179.750 105.766 L 178.927 106.316 L 178.039 106.754 L 177.102 107.072 L 176.131 107.265 L 175.143 107.330 L 174.156 107.265 L 173.185 107.072 L 172.248 106.754 L 171.360 106.316 L 170.537 105.766 L 169.793 105.113 L 169.140 104.369 L 168.590 103.546 L 168.152 102.658 L 167.834 101.721 L 167.641 100.750 L 167.576 99.762 L 167.641 98.775 L 167.834 97.804 L 168.152 96.866 L 168.590 95.979 L 169.140 95.156 L 169.793 94.411 L 170.537 93.759 L 171.360 93.209 L 172.248 92.771 L 173.185 92.453 L 174.156 92.260 L 175.143 92.195 L 176.131 92.260 L 177.102 92.453 L 178.039 92.771 L 178.927 93.209 L 179.750 93.759 L 180.494 94.411 L 181.147 95.156 L 181.697 95.979 L 182.135 96.866 L 182.453 97.804 L 182.646 98.775 L 182.711 99.762 M 170.768 56.514 L 170.729 57.117 L 170.611 57.710 L 170.417 58.283 L 170.149 58.825 L 169.813 59.328 L 169.415 59.782 L 168.960 60.181 L 168.458 60.517 L 167.915 60.784 L 167.343 60.978 L 166.750 61.096 L 166.147 61.136 L 165.543 61.096 L 164.951 60.978 L 164.378 60.784 L 163.836 60.517 L 163.333 60.181 L 162.879 59.782 L 162.480 59.328 L 162.144 58.825 L 161.877 58.283 L 161.682 57.710 L 161.564 57.117 L 161.525 56.514 L 161.564 55.911 L 161.682 55.318 L 161.877 54.745 L 162.144 54.203 L 162.480 53.700 L 162.879 53.246 L 163.333 52.847 L 163.836 52.511 L 164.378 52.244 L 164.951 52.050 L 165.543 51.932 L 166.147 51.892 L 166.750 51.932 L 167.343 52.050 L 167.915 52.244 L 168.458 52.511 L 168.960 52.847 L 169.415 53.246 L 169.813 53.700 L 170.149 54.203 L 170.417 54.745 L 170.611 55.318 L 170.729 55.911 L 170.768 56.514 M 135.893 96.685 L 135.838 97.526 L 135.673 98.354 L 135.402 99.152 L 135.029 99.909 L 134.560 100.610 L 134.004 101.244 L 133.370 101.800 L 132.669 102.269 L 131.912 102.642 L 131.114 102.913 L 130.287 103.078 L 129.445 103.133 L 128.603 103.078 L 127.776 102.913 L 126.977 102.642 L 126.221 102.269 L 125.520 101.800 L 124.885 101.244 L 124.329 100.610 L 123.861 99.909 L 123.488 99.152 L 123.217 98.354 L 123.052 97.526 L 122.997 96.685 L 123.052 95.843 L 123.217 95.016 L 123.488 94.217 L 123.861 93.461 L 124.329 92.759 L 124.885 92.125 L 125.520 91.569 L 126.221 91.101 L 126.977 90.728 L 127.776 90.456 L 128.603 90.292 L 129.445 90.237 L 130.287 90.292 L 131.114 90.456 L 131.912 90.728 L 132.669 91.101 L 133.370 91.569 L 134.004 92.125 L 134.560 92.759 L 135.029 93.461 L 135.402 94.217 L 135.673 95.016 L 135.838 95.843 L 135.893 96.685 M 141.482 157.135 L 141.430 157.937 L 141.273 158.725 L 141.015 159.486 L 140.659 160.207 L 140.213 160.875 L 139.683 161.479 L 139.079 162.009 L 138.411 162.455 L 137.690 162.811 L 136.929 163.069 L 136.141 163.226 L 135.339 163.278 L 134.538 163.226 L 133.749 163.069 L 132.989 162.811 L 132.268 162.455 L 131.600 162.009 L 130.996 161.479 L 130.466 160.875 L 130.019 160.207 L 129.664 159.486 L 129.406 158.725 L 129.249 157.937 L 129.196 157.135 L 129.249 156.334 L 129.406 155.545 L 129.664 154.785 L 130.019 154.064 L 130.466 153.396 L 130.996 152.792 L 131.600 152.262 L 132.268 151.815 L 132.989 151.460 L 133.749 151.202 L 134.538 151.045 L 135.339 150.992 L 136.141 151.045 L 136.929 151.202 L 137.690 151.460 L 138.411 151.815 L 139.079 152.262 L 139.683 152.792 L 140.213 153.396 L 140.659 154.064 L 141.015 154.785 L 141.273 155.545 L 141.430 156.334 L 141.482 157.135 M 216.351 60.099 L 216.311 60.715 L 216.190 61.320 L 215.992 61.904 L 215.719 62.457 L 215.377 62.970 L 214.970 63.433 L 214.506 63.840 L 213.993 64.183 L 213.440 64.455 L 212.856 64.654 L 212.251 64.774 L 211.636 64.814 L 211.020 64.774 L 210.416 64.654 L 209.832 64.455 L 209.278 64.183 L 208.766 63.840 L 208.302 63.433 L 207.895 62.970 L 207.553 62.457 L 207.280 61.904 L 207.082 61.320 L 206.961 60.715 L 206.921 60.099 L 206.961 59.484 L 207.082 58.879 L 207.280 58.295 L 207.553 57.742 L 207.895 57.229 L 208.302 56.765 L 208.766 56.359 L 209.278 56.016 L 209.832 55.743 L 210.416 55.545 L 211.020 55.425 L 211.636 55.384 L 212.251 55.425 L 212.856 55.545 L 213.440 55.743 L 213.993 56.016 L 214.506 56.359 L 214.970 56.765 L 215.377 57.229 L 215.719 57.742 L 215.992 58.295 L 216.190 58.879 L 216.311 59.484 L 216.351 60.099 M 310.211 183.472 L 310.168 184.127 L 310.040 184.770 L 309.829 185.391 L 309.539 185.980 L 309.175 186.526 L 308.742 187.019 L 308.249 187.452 L 307.703 187.816 L 307.114 188.106 L 306.493 188.317 L 305.849 188.445 L 305.195 188.488 L 304.540 188.445 L 303.896 188.317 L 303.275 188.106 L 302.686 187.816 L 302.141 187.452 L 301.647 187.019 L 301.215 186.526 L 300.850 185.980 L 300.560 185.391 L 300.349 184.770 L 300.221 184.127 L 300.178 183.472 L 300.221 182.817 L 300.349 182.173 L 300.560 181.552 L 300.850 180.963 L 301.215 180.418 L 301.647 179.925 L 302.141 179.492 L 302.686 179.127 L 303.275 178.837 L 303.896 178.626 L 304.540 178.498 L 305.195 178.455 L 305.849 178.498 L 306.493 178.626 L 307.114 178.837 L 307.703 179.127 L 308.249 179.492 L 308.742 179.925 L 309.175 180.418 L 309.539 180.963 L 309.829 181.552 L 310.040 182.173 L 310.168 182.817 L 310.211 183.472 M 207.516 219.584 L 207.471 220.272 L 207.336 220.948 L 207.115 221.600 L 206.810 222.218 L 206.427 222.791 L 205.973 223.309 L 205.455 223.763 L 204.882 224.146 L 204.264 224.451 L 203.612 224.672 L 202.936 224.807 L 202.249 224.852 L 201.561 224.807 L 200.885 224.672 L 200.233 224.451 L 199.615 224.146 L 199.042 223.763 L 198.524 223.309 L 198.070 222.791 L 197.687 222.218 L 197.382 221.600 L 197.161 220.948 L 197.026 220.272 L 196.981 219.584 L 197.026 218.897 L 197.161 218.221 L 197.382 217.569 L 197.687 216.951 L 198.070 216.378 L 198.524 215.860 L 199.042 215.406 L 199.615 215.023 L 200.233 214.718 L 200.885 214.497 L 201.561 214.362 L 202.249 214.317 L 202.936 214.362 L 203.612 214.497 L 204.264 214.718 L 204.882 215.023 L 205.455 215.406 L 205.973 215.860 L 206.427 216.378 L 206.810 216.951 L 207.115 217.569 L 207.336 218.221 L 207.471 218.897 L 207.516 219.584 M 302.122 150.452 L 302.074 151.190 L 301.929 151.916 L 301.692 152.616 L 301.364 153.280 L 300.953 153.895 L 300.465 154.451 L 299.909 154.939 L 299.294 155.350 L 298.630 155.678 L 297.930 155.915 L 297.204 156.060 L 296.466 156.108 L 295.727 156.060 L 295.002 155.915 L 294.301 155.678 L 293.637 155.350 L 293.022 154.939 L 292.466 154.451 L 291.978 153.895 L 291.567 153.280 L 291.240 152.616 L 291.002 151.916 L 290.857 151.190 L 290.809 150.452 L 290.857 149.713 L 291.002 148.988 L 291.240 148.287 L 291.567 147.623 L 291.978 147.008 L 292.466 146.452 L 293.022 145.964 L 293.637 145.553 L 294.301 145.226 L 295.002 144.988 L 295.727 144.843 L 296.466 144.795 L 297.204 144.843 L 297.930 144.988 L 298.630 145.226 L 299.294 145.553 L 299.909 145.964 L 300.465 146.452 L 300.953 147.008 L 301.364 147.623 L 301.692 148.287 L 301.929 148.988 L 302.074 149.713 L 302.122 150.452 M 123.687 186.248 L 123.620 187.270 L 123.420 188.274 L 123.091 189.244 L 122.638 190.162 L 122.069 191.014 L 121.394 191.784 L 120.624 192.459 L 119.773 193.028 L 118.854 193.481 L 117.884 193.810 L 116.880 194.010 L 115.858 194.077 L 114.836 194.010 L 113.832 193.810 L 112.862 193.481 L 111.944 193.028 L 111.092 192.459 L 110.322 191.784 L 109.647 191.014 L 109.078 190.162 L 108.625 189.244 L 108.296 188.274 L 108.096 187.270 L 108.029 186.248 L 108.096 185.226 L 108.296 184.221 L 108.625 183.252 L 109.078 182.333 L 109.647 181.482 L 110.322 180.712 L 111.092 180.037 L 111.944 179.468 L 112.862 179.015 L 113.832 178.686 L 114.836 178.486 L 115.858 178.419 L 116.880 178.486 L 117.884 178.686 L 118.854 179.015 L 119.773 179.468 L 120.624 180.037 L 121.394 180.712 L 122.069 181.482 L 122.638 182.333 L 123.091 183.252 L 123.420 184.221 L 123.620 185.226 L 123.687 186.248 M 217.692 124.473 L 217.646 125.174 L 217.509 125.863 L 217.283 126.529 L 216.972 127.159 L 216.581 127.744 L 216.118 128.272 L 215.590 128.735 L 215.005 129.126 L 214.375 129.437 L 213.709 129.663 L 213.020 129.800 L 212.319 129.846 L 211.617 129.800 L 210.928 129.663 L 210.263 129.437 L 209.632 129.126 L 209.048 128.735 L 208.520 128.272 L 208.056 127.744 L 207.666 127.159 L 207.355 126.529 L 207.129 125.863 L 206.992 125.174 L 206.946 124.473 L 206.992 123.771 L 207.129 123.082 L 207.355 122.417 L 207.666 121.786 L 208.056 121.202 L 208.520 120.673 L 209.048 120.210 L 209.632 119.820 L 210.263 119.509 L 210.928 119.283 L 211.617 119.146 L 212.319 119.100 L 213.020 119.146 L 213.709 119.283 L 214.375 119.509 L 215.005 119.820 L 215.590 120.210 L 216.118 120.673 L 216.581 121.202 L 216.972 121.786 L 217.283 122.417 L 217.509 123.082 L 217.646 123.771 L 217.692 124.473 M 215.640 32.688 L 215.599 33.311 L 215.478 33.923 L 215.277 34.514 L 215.001 35.074 L 214.654 35.593 L 214.242 36.063 L 213.773 36.474 L 213.254 36.821 L 212.694 37.097 L 212.103 37.298 L 211.491 37.420 L 210.868 37.461 L 210.245 37.420 L 209.632 37.298 L 209.041 37.097 L 208.481 36.821 L 207.962 36.474 L 207.493 36.063 L 207.081 35.593 L 206.735 35.074 L 206.459 34.514 L 206.258 33.923 L 206.136 33.311 L 206.095 32.688 L 206.136 32.065 L 206.258 31.453 L 206.459 30.862 L 206.735 30.302 L 207.081 29.783 L 207.493 29.314 L 207.962 28.902 L 208.481 28.555 L 209.041 28.279 L 209.632 28.078 L 210.245 27.957 L 210.868 27.916 L 211.491 27.957 L 212.103 28.078 L 212.694 28.279 L 213.254 28.555 L 213.773 28.902 L 214.242 29.314 L 214.654 29.783 L 215.001 30.302 L 215.277 30.862 L 215.478 31.453 L 215.599 32.065 L 215.640 32.688 M 243.751 106.789 L 243.683 107.840 L 243.477 108.874 L 243.138 109.872 L 242.672 110.817 L 242.087 111.693 L 241.392 112.485 L 240.600 113.180 L 239.724 113.765 L 238.779 114.231 L 237.781 114.570 L 236.748 114.775 L 235.696 114.844 L 234.645 114.775 L 233.611 114.570 L 232.614 114.231 L 231.669 113.765 L 230.792 113.180 L 230.000 112.485 L 229.306 111.693 L 228.720 110.817 L 228.254 109.872 L 227.915 108.874 L 227.710 107.840 L 227.641 106.789 L 227.710 105.738 L 227.915 104.704 L 228.254 103.706 L 228.720 102.761 L 229.306 101.885 L 230.000 101.093 L 230.792 100.398 L 231.669 99.813 L 232.614 99.347 L 233.611 99.008 L 234.645 98.803 L 235.696 98.734 L 236.748 98.803 L 237.781 99.008 L 238.779 99.347 L 239.724 99.813 L 240.600 100.398 L 241.392 101.093 L 242.087 101.885 L 242.672 102.761 L 243.138 103.706 L 243.477 104.704 L 243.683 105.738 L 243.751 106.789 M 175.580 196.639 L 175.488 198.043 L 175.213 199.422 L 174.761 200.754 L 174.139 202.015 L 173.358 203.184 L 172.431 204.241 L 171.374 205.168 L 170.204 205.950 L 168.943 206.572 L 167.612 207.024 L 166.232 207.298 L 164.829 207.390 L 163.426 207.298 L 162.047 207.024 L 160.715 206.572 L 159.454 205.950 L 158.285 205.168 L 157.227 204.241 L 156.300 203.184 L 155.519 202.015 L 154.897 200.754 L 154.445 199.422 L 154.171 198.043 L 154.079 196.639 L 154.171 195.236 L 154.445 193.857 L 154.897 192.525 L 155.519 191.264 L 156.300 190.095 L 157.227 189.038 L 158.285 188.111 L 159.454 187.329 L 160.715 186.707 L 162.047 186.255 L 163.426 185.981 L 164.829 185.889 L 166.232 185.981 L 167.612 186.255 L 168.943 186.707 L 170.204 187.329 L 171.374 188.111 L 172.431 189.038 L 173.358 190.095 L 174.139 191.264 L 174.761 192.525 L 175.213 193.857 L 175.488 195.236 L 175.580 196.639 M 159.427 63.799 L 159.378 64.543 L 159.233 65.274 L 158.993 65.979 L 158.663 66.647 L 158.249 67.267 L 157.758 67.827 L 157.198 68.319 L 156.578 68.732 L 155.910 69.062 L 155.205 69.302 L 154.474 69.447 L 153.730 69.496 L 152.987 69.447 L 152.256 69.302 L 151.550 69.062 L 150.882 68.732 L 150.263 68.319 L 149.702 67.827 L 149.211 67.267 L 148.797 66.647 L 148.468 65.979 L 148.228 65.274 L 148.083 64.543 L 148.034 63.799 L 148.083 63.056 L 148.228 62.325 L 148.468 61.619 L 148.797 60.951 L 149.211 60.332 L 149.702 59.771 L 150.263 59.280 L 150.882 58.866 L 151.550 58.537 L 152.256 58.297 L 152.987 58.152 L 153.730 58.103 L 154.474 58.152 L 155.205 58.297 L 155.910 58.537 L 156.578 58.866 L 157.198 59.280 L 157.758 59.771 L 158.249 60.332 L 158.663 60.951 L 158.993 61.619 L 159.233 62.325 L 159.378 63.056 L 159.427 63.799 M 141.655 202.205 L 141.599 203.065 L 141.431 203.910 L 141.154 204.726 L 140.773 205.498 L 140.294 206.215 L 139.726 206.862 L 139.078 207.430 L 138.362 207.909 L 137.589 208.290 L 136.774 208.567 L 135.929 208.735 L 135.069 208.791 L 134.209 208.735 L 133.364 208.567 L 132.549 208.290 L 131.776 207.909 L 131.060 207.430 L 130.412 206.862 L 129.844 206.215 L 129.365 205.498 L 128.984 204.726 L 128.707 203.910 L 128.539 203.065 L 128.483 202.205 L 128.539 201.345 L 128.707 200.500 L 128.984 199.685 L 129.365 198.912 L 129.844 198.196 L 130.412 197.548 L 131.060 196.980 L 131.776 196.501 L 132.549 196.120 L 133.364 195.843 L 134.209 195.675 L 135.069 195.619 L 135.929 195.675 L 136.774 195.843 L 137.589 196.120 L 138.362 196.501 L 139.078 196.980 L 139.726 197.548 L 140.294 198.196 L 140.773 198.912 L 141.154 199.685 L 141.431 200.500 L 141.599 201.345 L 141.655 202.205 M 262.541 252.568 L 262.487 253.388 L 262.327 254.193 L 262.063 254.971 L 261.700 255.708 L 261.243 256.391 L 260.702 257.009 L 260.084 257.550 L 259.401 258.007 L 258.664 258.370 L 257.886 258.634 L 257.081 258.794 L 256.261 258.848 L 255.441 258.794 L 254.636 258.634 L 253.858 258.370 L 253.121 258.007 L 252.438 257.550 L 251.820 257.009 L 251.279 256.391 L 250.822 255.708 L 250.459 254.971 L 250.195 254.193 L 250.035 253.388 L 249.981 252.568 L 250.035 251.748 L 250.195 250.943 L 250.459 250.165 L 250.822 249.428 L 251.279 248.745 L 251.820 248.127 L 252.438 247.586 L 253.121 247.129 L 253.858 246.766 L 254.636 246.502 L 255.441 246.342 L 256.261 246.288 L 257.081 246.342 L 257.886 246.502 L 258.664 246.766 L 259.401 247.129 L 260.084 247.586 L 260.702 248.127 L 261.243 248.745 L 261.700 249.428 L 262.063 250.165 L 262.327 250.943 L 262.487 251.748 L 262.541 252.568 M 315.285 91.410 L 315.223 92.362 L 315.037 93.297 L 314.730 94.200 L 314.309 95.055 L 313.779 95.848 L 313.150 96.565 L 312.433 97.194 L 311.640 97.724 L 310.785 98.145 L 309.882 98.452 L 308.947 98.638 L 307.995 98.700 L 307.043 98.638 L 306.108 98.452 L 305.205 98.145 L 304.350 97.724 L 303.557 97.194 L 302.840 96.565 L 302.211 95.848 L 301.681 95.055 L 301.260 94.200 L 300.953 93.297 L 300.767 92.362 L 300.705 91.410 L 300.767 90.458 L 300.953 89.523 L 301.260 88.620 L 301.681 87.765 L 302.211 86.972 L 302.840 86.255 L 303.557 85.626 L 304.350 85.096 L 305.205 84.675 L 306.108 84.368 L 307.043 84.182 L 307.995 84.120 L 308.947 84.182 L 309.882 84.368 L 310.785 84.675 L 311.640 85.096 L 312.433 85.626 L 313.150 86.255 L 313.779 86.972 L 314.309 87.765 L 314.730 88.620 L 315.037 89.523 L 315.223 90.458 L 315.285 91.410 M 248.064 257.312 L 248.014 258.084 L 247.863 258.842 L 247.614 259.574 L 247.272 260.267 L 246.843 260.910 L 246.333 261.491 L 245.752 262.001 L 245.109 262.430 L 244.416 262.772 L 243.684 263.020 L 242.926 263.171 L 242.155 263.222 L 241.383 263.171 L 240.625 263.020 L 239.893 262.772 L 239.200 262.430 L 238.557 262.001 L 237.976 261.491 L 237.466 260.910 L 237.037 260.267 L 236.695 259.574 L 236.446 258.842 L 236.295 258.084 L 236.245 257.312 L 236.295 256.541 L 236.446 255.783 L 236.695 255.051 L 237.037 254.357 L 237.466 253.715 L 237.976 253.133 L 238.557 252.624 L 239.200 252.194 L 239.893 251.852 L 240.625 251.604 L 241.383 251.453 L 242.155 251.402 L 242.926 251.453 L 243.684 251.604 L 244.416 251.852 L 245.109 252.194 L 245.752 252.624 L 246.333 253.133 L 246.843 253.715 L 247.272 254.357 L 247.614 255.051 L 247.863 255.783 L 248.014 256.541 L 248.064 257.312 M 158.314 138.448 L 158.246 139.486 L 158.043 140.506 L 157.709 141.491 L 157.249 142.424 L 156.671 143.288 L 155.985 144.070 L 155.203 144.756 L 154.339 145.334 L 153.406 145.794 L 152.421 146.128 L 151.401 146.331 L 150.363 146.399 L 149.326 146.331 L 148.306 146.128 L 147.321 145.794 L 146.388 145.334 L 145.523 144.756 L 144.742 144.070 L 144.056 143.288 L 143.478 142.424 L 143.018 141.491 L 142.684 140.506 L 142.481 139.486 L 142.413 138.448 L 142.481 137.411 L 142.684 136.391 L 143.018 135.406 L 143.478 134.473 L 144.056 133.608 L 144.742 132.827 L 145.523 132.141 L 146.388 131.563 L 147.321 131.103 L 148.306 130.769 L 149.326 130.566 L 150.363 130.498 L 151.401 130.566 L 152.421 130.769 L 153.406 131.103 L 154.339 131.563 L 155.203 132.141 L 155.985 132.827 L 156.671 133.608 L 157.249 134.473 L 157.709 135.406 L 158.043 136.391 L 158.246 137.411 L 158.314 138.448 M 256.498 37.812 L 256.449 38.561 L 256.303 39.296 L 256.062 40.006 L 255.730 40.678 L 255.314 41.301 L 254.819 41.865 L 254.256 42.359 L 253.632 42.776 L 252.960 43.107 L 252.250 43.348 L 251.515 43.494 L 250.767 43.543 L 250.019 43.494 L 249.284 43.348 L 248.574 43.107 L 247.901 42.776 L 247.278 42.359 L 246.715 41.865 L 246.220 41.301 L 245.804 40.678 L 245.472 40.006 L 245.231 39.296 L 245.085 38.561 L 245.036 37.812 L 245.085 37.064 L 245.231 36.329 L 245.472 35.619 L 245.804 34.947 L 246.220 34.324 L 246.715 33.760 L 247.278 33.266 L 247.901 32.849 L 248.574 32.518 L 249.284 32.277 L 250.019 32.131 L 250.767 32.081 L 251.515 32.131 L 252.250 32.277 L 252.960 32.518 L 253.632 32.849 L 254.256 33.266 L 254.819 33.760 L 255.314 34.324 L 255.730 34.947 L 256.062 35.619 L 256.303 36.329 L 256.449 37.064 L 256.498 37.812 M 245.473 222.925 L 245.430 223.577 L 245.303 224.218 L 245.093 224.836 L 244.804 225.422 L 244.441 225.966 L 244.010 226.457 L 243.519 226.888 L 242.975 227.251 L 242.389 227.540 L 241.770 227.750 L 241.130 227.877 L 240.478 227.920 L 239.826 227.877 L 239.185 227.750 L 238.566 227.540 L 237.980 227.251 L 237.437 226.888 L 236.945 226.457 L 236.515 225.966 L 236.152 225.422 L 235.863 224.836 L 235.653 224.218 L 235.525 223.577 L 235.482 222.925 L 235.525 222.273 L 235.653 221.632 L 235.863 221.013 L 236.152 220.427 L 236.515 219.884 L 236.945 219.392 L 237.437 218.962 L 237.980 218.599 L 238.566 218.310 L 239.185 218.100 L 239.826 217.972 L 240.478 217.929 L 241.130 217.972 L 241.770 218.100 L 242.389 218.310 L 242.975 218.599 L 243.519 218.962 L 244.010 219.392 L 244.441 219.884 L 244.804 220.427 L 245.093 221.013 L 245.303 221.632 L 245.430 222.273 L 245.473 222.925 M 204.237 110.528 L 204.180 111.395 L 204.010 112.248 L 203.731 113.071 L 203.346 113.851 L 202.863 114.573 L 202.290 115.227 L 201.637 115.800 L 200.914 116.283 L 200.134 116.668 L 199.311 116.947 L 198.459 117.117 L 197.591 117.173 L 196.724 117.117 L 195.871 116.947 L 195.048 116.668 L 194.268 116.283 L 193.546 115.800 L 192.892 115.227 L 192.319 114.573 L 191.836 113.851 L 191.451 113.071 L 191.172 112.248 L 191.002 111.395 L 190.945 110.528 L 191.002 109.660 L 191.172 108.808 L 191.451 107.985 L 191.836 107.205 L 192.319 106.482 L 192.892 105.829 L 193.546 105.255 L 194.268 104.772 L 195.048 104.388 L 195.871 104.109 L 196.724 103.939 L 197.591 103.882 L 198.459 103.939 L 199.311 104.109 L 200.134 104.388 L 200.914 104.772 L 201.637 105.255 L 202.290 105.829 L 202.863 106.482 L 203.346 107.205 L 203.731 107.985 L 204.010 108.808 L 204.180 109.660 L 204.237 110.528 M 136.909 185.825 L 136.861 186.547 L 136.720 187.257 L 136.488 187.942 L 136.167 188.592 L 135.765 189.193 L 135.288 189.737 L 134.744 190.215 L 134.142 190.617 L 133.493 190.937 L 132.808 191.169 L 132.098 191.311 L 131.376 191.358 L 130.654 191.311 L 129.944 191.169 L 129.258 190.937 L 128.609 190.617 L 128.008 190.215 L 127.463 189.737 L 126.986 189.193 L 126.584 188.592 L 126.264 187.942 L 126.031 187.257 L 125.890 186.547 L 125.843 185.825 L 125.890 185.103 L 126.031 184.393 L 126.264 183.708 L 126.584 183.059 L 126.986 182.457 L 127.463 181.913 L 128.008 181.435 L 128.609 181.033 L 129.258 180.713 L 129.944 180.481 L 130.654 180.339 L 131.376 180.292 L 132.098 180.339 L 132.808 180.481 L 133.493 180.713 L 134.142 181.033 L 134.744 181.435 L 135.288 181.913 L 135.765 182.457 L 136.167 183.059 L 136.488 183.708 L 136.720 184.393 L 136.861 185.103 L 136.909 185.825 M 257.343 167.872 L 257.285 168.754 L 257.113 169.620 L 256.829 170.457 L 256.438 171.249 L 255.947 171.984 L 255.365 172.648 L 254.701 173.230 L 253.966 173.721 L 253.174 174.112 L 252.337 174.396 L 251.471 174.568 L 250.589 174.626 L 249.707 174.568 L 248.841 174.396 L 248.004 174.112 L 247.212 173.721 L 246.478 173.230 L 245.813 172.648 L 245.231 171.984 L 244.740 171.249 L 244.349 170.457 L 244.065 169.620 L 243.893 168.754 L 243.835 167.872 L 243.893 166.991 L 244.065 166.124 L 244.349 165.287 L 244.740 164.495 L 245.231 163.761 L 245.813 163.096 L 246.478 162.514 L 247.212 162.023 L 248.004 161.632 L 248.841 161.348 L 249.707 161.176 L 250.589 161.118 L 251.471 161.176 L 252.337 161.348 L 253.174 161.632 L 253.966 162.023 L 254.701 162.514 L 255.365 163.096 L 255.947 163.761 L 256.438 164.495 L 256.829 165.287 L 257.113 166.124 L 257.285 166.991 L 257.343 167.872 M 205.830 236.134 L 205.772 237.014 L 205.600 237.878 L 205.317 238.713 L 204.927 239.504 L 204.437 240.237 L 203.856 240.900 L 203.193 241.481 L 202.460 241.971 L 201.669 242.361 L 200.834 242.645 L 199.969 242.817 L 199.089 242.874 L 198.209 242.817 L 197.345 242.645 L 196.510 242.361 L 195.719 241.971 L 194.986 241.481 L 194.323 240.900 L 193.742 240.237 L 193.252 239.504 L 192.862 238.713 L 192.578 237.878 L 192.406 237.014 L 192.349 236.134 L 192.406 235.254 L 192.578 234.389 L 192.862 233.554 L 193.252 232.763 L 193.742 232.030 L 194.323 231.367 L 194.986 230.786 L 195.719 230.296 L 196.510 229.906 L 197.345 229.623 L 198.209 229.451 L 199.089 229.393 L 199.969 229.451 L 200.834 229.623 L 201.669 229.906 L 202.460 230.296 L 203.193 230.786 L 203.856 231.367 L 204.437 232.030 L 204.927 232.763 L 205.317 233.554 L 205.600 234.389 L 205.772 235.254 L 205.830 236.134 M 323.353 107.066 L 323.285 108.102 L 323.082 109.121 L 322.748 110.105 L 322.289 111.037 L 321.711 111.900 L 321.026 112.681 L 320.245 113.366 L 319.382 113.944 L 318.450 114.403 L 317.466 114.737 L 316.447 114.940 L 315.411 115.008 L 314.374 114.940 L 313.355 114.737 L 312.371 114.403 L 311.440 113.944 L 310.576 113.366 L 309.795 112.681 L 309.110 111.900 L 308.533 111.037 L 308.073 110.105 L 307.739 109.121 L 307.537 108.102 L 307.469 107.066 L 307.537 106.029 L 307.739 105.010 L 308.073 104.026 L 308.533 103.094 L 309.110 102.231 L 309.795 101.450 L 310.576 100.765 L 311.440 100.187 L 312.371 99.728 L 313.355 99.394 L 314.374 99.191 L 315.411 99.123 L 316.447 99.191 L 317.466 99.394 L 318.450 99.728 L 319.382 100.187 L 320.245 100.765 L 321.026 101.450 L 321.711 102.231 L 322.289 103.094 L 322.748 104.026 L 323.082 105.010 L 323.285 106.029 L 323.353 107.066 M 238.631 196.152 L 238.582 196.899 L 238.436 197.633 L 238.196 198.342 L 237.865 199.013 L 237.449 199.635 L 236.955 200.198 L 236.393 200.692 L 235.770 201.107 L 235.099 201.438 L 234.390 201.679 L 233.656 201.825 L 232.909 201.874 L 232.163 201.825 L 231.429 201.679 L 230.720 201.438 L 230.049 201.107 L 229.426 200.692 L 228.864 200.198 L 228.370 199.635 L 227.954 199.013 L 227.623 198.342 L 227.383 197.633 L 227.237 196.899 L 227.188 196.152 L 227.237 195.405 L 227.383 194.671 L 227.623 193.963 L 227.954 193.291 L 228.370 192.669 L 228.864 192.106 L 229.426 191.613 L 230.049 191.197 L 230.720 190.866 L 231.429 190.626 L 232.163 190.480 L 232.909 190.431 L 233.656 190.480 L 234.390 190.626 L 235.099 190.866 L 235.770 191.197 L 236.393 191.613 L 236.955 192.106 L 237.449 192.669 L 237.865 193.291 L 238.196 193.963 L 238.436 194.671 L 238.582 195.405 L 238.631 196.152 M 150.931 245.887 L 150.877 246.713 L 150.715 247.525 L 150.449 248.308 L 150.083 249.051 L 149.624 249.739 L 149.078 250.361 L 148.456 250.907 L 147.767 251.367 L 147.025 251.733 L 146.241 251.999 L 145.430 252.160 L 144.604 252.214 L 143.778 252.160 L 142.966 251.999 L 142.183 251.733 L 141.440 251.367 L 140.752 250.907 L 140.130 250.361 L 139.584 249.739 L 139.124 249.051 L 138.758 248.308 L 138.492 247.525 L 138.331 246.713 L 138.277 245.887 L 138.331 245.061 L 138.492 244.250 L 138.758 243.466 L 139.124 242.724 L 139.584 242.035 L 140.130 241.413 L 140.752 240.867 L 141.440 240.408 L 142.183 240.042 L 142.966 239.776 L 143.778 239.614 L 144.604 239.560 L 145.430 239.614 L 146.241 239.776 L 147.025 240.042 L 147.767 240.408 L 148.456 240.867 L 149.078 241.413 L 149.624 242.035 L 150.083 242.724 L 150.449 243.466 L 150.715 244.250 L 150.877 245.061 L 150.931 245.887 M 129.859 78.381 L 129.795 79.367 L 129.602 80.336 L 129.285 81.272 L 128.848 82.158 L 128.299 82.979 L 127.647 83.722 L 126.904 84.373 L 126.083 84.922 L 125.197 85.359 L 124.261 85.677 L 123.292 85.869 L 122.307 85.934 L 121.321 85.869 L 120.352 85.677 L 119.416 85.359 L 118.530 84.922 L 117.709 84.373 L 116.966 83.722 L 116.314 82.979 L 115.765 82.158 L 115.328 81.272 L 115.011 80.336 L 114.818 79.367 L 114.754 78.381 L 114.818 77.395 L 115.011 76.426 L 115.328 75.491 L 115.765 74.605 L 116.314 73.783 L 116.966 73.040 L 117.709 72.389 L 118.530 71.840 L 119.416 71.403 L 120.352 71.086 L 121.321 70.893 L 122.307 70.828 L 123.292 70.893 L 124.261 71.086 L 125.197 71.403 L 126.083 71.840 L 126.904 72.389 L 127.647 73.040 L 128.299 73.783 L 128.848 74.605 L 129.285 75.491 L 129.602 76.426 L 129.795 77.395 L 129.859 78.381 M 241.151 164.789 L 241.092 165.683 L 240.917 166.563 L 240.629 167.412 L 240.232 168.216 L 239.734 168.961 L 239.143 169.635 L 238.469 170.226 L 237.724 170.724 L 236.920 171.121 L 236.071 171.409 L 235.191 171.584 L 234.297 171.643 L 233.402 171.584 L 232.523 171.409 L 231.674 171.121 L 230.870 170.724 L 230.124 170.226 L 229.450 169.635 L 228.859 168.961 L 228.361 168.216 L 227.964 167.412 L 227.676 166.563 L 227.501 165.683 L 227.443 164.789 L 227.501 163.894 L 227.676 163.015 L 227.964 162.166 L 228.361 161.362 L 228.859 160.616 L 229.450 159.942 L 230.124 159.351 L 230.870 158.853 L 231.674 158.456 L 232.523 158.168 L 233.402 157.993 L 234.297 157.935 L 235.191 157.993 L 236.071 158.168 L 236.920 158.456 L 237.724 158.853 L 238.469 159.351 L 239.143 159.942 L 239.734 160.616 L 240.232 161.362 L 240.629 162.166 L 240.917 163.015 L 241.092 163.894 L 241.151 164.789 M 213.864 209.728 L 213.823 210.356 L 213.700 210.974 L 213.498 211.570 L 213.219 212.134 L 212.870 212.658 L 212.455 213.131 L 211.981 213.546 L 211.458 213.896 L 210.893 214.175 L 210.297 214.377 L 209.680 214.500 L 209.051 214.541 L 208.423 214.500 L 207.806 214.377 L 207.210 214.175 L 206.645 213.896 L 206.122 213.546 L 205.648 213.131 L 205.233 212.658 L 204.883 212.134 L 204.605 211.570 L 204.403 210.974 L 204.280 210.356 L 204.239 209.728 L 204.280 209.100 L 204.403 208.482 L 204.605 207.886 L 204.883 207.322 L 205.233 206.798 L 205.648 206.325 L 206.122 205.910 L 206.645 205.560 L 207.210 205.282 L 207.806 205.079 L 208.423 204.956 L 209.051 204.915 L 209.680 204.956 L 210.297 205.079 L 210.893 205.282 L 211.458 205.560 L 211.981 205.910 L 212.455 206.325 L 212.870 206.798 L 213.219 207.322 L 213.498 207.886 L 213.700 208.482 L 213.823 209.100 L 213.864 209.728 M 267.973 64.237 L 267.899 65.361 L 267.680 66.465 L 267.318 67.531 L 266.820 68.541 L 266.194 69.477 L 265.452 70.324 L 264.605 71.066 L 263.669 71.692 L 262.659 72.190 L 261.593 72.552 L 260.489 72.771 L 259.365 72.845 L 258.242 72.771 L 257.137 72.552 L 256.071 72.190 L 255.061 71.692 L 254.125 71.066 L 253.278 70.324 L 252.536 69.477 L 251.910 68.541 L 251.412 67.531 L 251.050 66.465 L 250.831 65.361 L 250.757 64.237 L 250.831 63.114 L 251.050 62.009 L 251.412 60.943 L 251.910 59.933 L 252.536 58.997 L 253.278 58.150 L 254.125 57.408 L 255.061 56.782 L 256.071 56.284 L 257.137 55.923 L 258.242 55.703 L 259.365 55.629 L 260.489 55.703 L 261.593 55.923 L 262.659 56.284 L 263.669 56.782 L 264.605 57.408 L 265.452 58.150 L 266.194 58.997 L 266.820 59.933 L 267.318 60.943 L 267.680 62.009 L 267.899 63.114 L 267.973 64.237 M 332.890 133.574 L 332.844 134.277 L 332.706 134.968 L 332.480 135.635 L 332.168 136.267 L 331.777 136.852 L 331.313 137.382 L 330.783 137.846 L 330.197 138.237 L 329.566 138.549 L 328.899 138.775 L 328.208 138.913 L 327.505 138.959 L 326.802 138.913 L 326.111 138.775 L 325.445 138.549 L 324.813 138.237 L 324.227 137.846 L 323.698 137.382 L 323.233 136.852 L 322.842 136.267 L 322.530 135.635 L 322.304 134.968 L 322.167 134.277 L 322.121 133.574 L 322.167 132.871 L 322.304 132.181 L 322.530 131.514 L 322.842 130.882 L 323.233 130.296 L 323.698 129.767 L 324.227 129.302 L 324.813 128.911 L 325.445 128.600 L 326.111 128.373 L 326.802 128.236 L 327.505 128.190 L 328.208 128.236 L 328.899 128.373 L 329.566 128.600 L 330.197 128.911 L 330.783 129.302 L 331.313 129.767 L 331.777 130.296 L 332.168 130.882 L 332.480 131.514 L 332.706 132.181 L 332.844 132.871 L 332.890 133.574" fill="none" stroke="#2dd4bf" stroke-width="1" vector-effect="non-scaling-stroke"/></svg>