<svg xmlns="http://www.w3.org/2000/svg" viewBox="11.999999999999943 11.999999999999943 396.0000000000001 273.00000000000017" width="396.0000000000001" height="273.00000000000017" shape-rendering="geometricPrecision"><rect x="11.999999999999943" y="11.999999999999943" width="396.0000000000001" height="273.00000000000017" fill="#0b0f14"/><path d="" fill="none" stroke="#EC008C" stroke-width="1" vector-effect="non-scaling-stroke"/><path d="" fill="none" stroke="#f472b6" stroke-width="1" vector-effect="non-scaling-stroke"/><path d="" fill="none" stroke="#2dd4bf" stroke-width="1" vector-effect="non-scaling-stroke"/><path d="M 389.393 20.000 L 400.000 30.607 M 378.787 20.000 L 400.000 41.213 M 368.180 20.000 L 400.000 51.820 M 357.574 20.000 L 400.000 62.426 M 346.967 20.000 L 400.000 73.033 M 336.360 20.000 L 400.000 83.640 M 325.754 20.000 L 400.000 94.246 M 315.147 20.000 L 400.000 104.853 M 304.541 20.000 L 400.000 115.459 M 293.934 20.000 L 400.000 126.066 M 283.327 20.000 L 400.000 136.673 M 272.721 20.000 L 400.000 147.279 M 262.114 20.000 L 400.000 157.886 M 251.508 20.000 L 400.000 168.492 M 240.901 20.000 L 400.000 179.099 M 230.294 20.000 L 400.000 189.706 M 219.688 20.000 L 400.000 200.312 M 209.081 20.000 L 400.000 210.919 M 198.475 20.000 L 400.000 221.525 M 187.868 20.000 L 400.000 232.132 M 177.261 20.000 L 400.000 242.739 M 166.655 20.000 L 400.000 253.345 M 156.048 20.000 L 400.000 263.952 M 145.442 20.000 L 400.000 274.558 M 134.835 20.000 L 391.835 277.000 M 124.228 20.000 L 381.228 277.000 M 113.622 20.000 L 370.622 277.000 M 103.015 20.000 L 360.015 277.000 M 92.409 20.000 L 349.409 277.000 M 81.802 20.000 L 338.802 277.000 M 71.195 20.000 L 328.195 277.000 M 60.589 20.000 L 317.589 277.000 M 49.982 20.000 L 306.982 277.000 M 39.376 20.000 L 296.376 277.000 M 28.769 20.000 L 285.769 277.000 M 20.000 21.838 L 275.162 277.000 M 20.000 32.444 L 264.556 277.000 M 20.000 43.051 L 253.949 277.000 M 20.000 53.657 L 243.343 277.000 M 20.000 64.264 L 232.736 277.000 M 20.000 74.871 L 222.129 277.000 M 20.000 85.477 L 211.523 277.000 M 20.000 96.084 L 200.916 277.000 M 20.000 106.690 L 190.310 277.000 M 20.000 117.297 L 179.703 277.000 M 20.000 127.904 L 169.096 277.000 M 20.000 138.510 L 158.490 277.000 M 20.000 149.117 L 147.883 277.000 M 20.000 159.723 L 137.277 277.000 M 20.000 170.330 L 126.670 277.000 M 20.000 180.937 L 116.063 277.000 M 20.000 191.543 L 105.457 277.000 M 20.000 202.150 L 94.850 277.000 M 20.000 212.756 L 84.244 277.000 M 20.000 223.363 L 73.637 277.000 M 20.000 233.970 L 63.030 277.000 M 20.000 244.576 L 52.424 277.000 M 20.000 255.183 L 41.817 277.000 M 20.000 265.790 L 31.210 277.000 M 20.000 276.396 L 20.604 277.000 M 400.000 266.393 L 389.393 277.000 M 400.000 255.787 L 378.787 277.000 M 400.000 245.180 L 368.180 277.000 M 400.000 234.574 L 357.574 277.000 M 400.000 223.967 L 346.967 277.000 M 400.000 213.360 L 336.360 277.000 M 400.000 202.754 L 325.754 277.000 M 400.000 192.147 L 315.147 277.000 M 400.000 181.541 L 304.541 277.000 M 400.000 170.934 L 293.934 277.000 M 400.000 160.327 L 283.327 277.000 M 400.000 149.721 L 272.721 277.000 M 400.000 139.114 L 262.114 277.000 M 400.000 128.508 L 251.508 277.000 M 400.000 117.901 L 240.901 277.000 M 400.000 107.294 L 230.294 277.000 M 400.000 96.688 L 219.688 277.000 M 400.000 86.081 L 209.081 277.000 M 400.000 75.475 L 198.475 277.000 M 400.000 64.868 L 187.868 277.000 M 400.000 54.261 L 177.261 277.000 M 400.000 43.655 L 166.655 277.000 M 400.000 33.048 L 156.048 277.000 M 400.000 22.442 L 145.442 277.000 M 391.835 20.000 L 134.835 277.000 M 381.228 20.000 L 124.228 277.000 M 370.622 20.000 L 113.622 277.000 M 360.015 20.000 L 103.015 277.000 M 349.409 20.000 L 92.409 277.000 M 338.802 20.000 L 81.802 277.000 M 328.195 20.000 L 71.195 277.000 M 317.589 20.000 L 60.589 277.000 M 306.982 20.000 L 49.982 277.000 M 296.376 20.000 L 39.376 277.000 M 285.769 20.000 L 28.769 277.000 M 275.162 20.000 L 20.000 275.162 M 264.556 20.000 L 20.000 264.556 M 253.949 20.000 L 20.000 253.949 M 243.343 20.000 L 20.000 243.343 M 232.736 20.000 L 20.000 232.736 M 222.129 20.000 L 20.000 222.129 M 211.523 20.000 L 20.000 211.523 M 200.916 20.000 L 20.000 200.916 M 190.310 20.000 L 20.000 190.310 M 179.703 20.000 L 20.000 179.703 M 169.096 20.000 L 20.000 169.096 M 158.490 20.000 L 20.000 158.490 M 147.883 20.000 L 20.000 147.883 M 137.277 20.000 L 20.000 137.277 M 126.670 20.000 L 20.000 126.670 M 116.063 20.000 L 20.000 116.063 M 105.457 20.000 L 20.000 105.457 M 94.850 20.000 L 20.000 94.850 M 84.244 20.000 L 20.000 84.244 M 73.637 20.000 L 20.000 73.637 M 63.030 20.000 L 20.000 63.030 M 52.424 20.000 L 20.000 52.424 M 41.817 20.000 L 20.000 41.817 M 31.210 20.000 L 20.000 31.210 M 20.604 20.000 L 20.000 20.604" fill="none" stroke="#00AEEF" stroke-width="1" vector-effect="non-scaling-stroke"/></svg>