<svg xmlns="http://www.w3.org/2000/svg" viewBox="11.999999999999943 11.999999999999943 396.0000000000001 273.00000000000017" width="396.0000000000001" height="273.00000000000017" shape-rendering="geometricPrecision"><rect x="11.999999999999943" y="11.999999999999943" width="396.0000000000001" height="273.00000000000017" fill="#0b0f14"/><path d="" fill="none" stroke="#EC008C" stroke-width="1" vector-effect="non-scaling-stroke"/><path d="" fill="none" stroke="#f472b6" stroke-width="1" vector-effect="non-scaling-stroke"/><path d="" fill="none" stroke="#2dd4bf" stroke-width="1" vector-effect="non-scaling-stroke"/><path d="M 393.636 20.000 L 400.000 26.364 M 387.272 20.000 L 400.000 32.728 M 380.908 20.000 L 400.000 39.092 M 374.544 20.000 L 400.000 45.456 M 368.180 20.000 L 400.000 51.820 M 361.816 20.000 L 400.000 58.184 M 355.452 20.000 L 400.000 64.548 M 349.088 20.000 L 400.000 70.912 M 342.724 20.000 L 400.000 77.276 M 336.360 20.000 L 400.000 83.640 M 329.996 20.000 L 400.000 90.004 M 323.632 20.000 L 400.000 96.368 M 317.269 20.000 L 400.000 102.731 M 310.905 20.000 L 400.000 109.095 M 304.541 20.000 L 400.000 115.459 M 298.177 20.000 L 400.000 121.823 M 291.813 20.000 L 400.000 128.187 M 285.449 20.000 L 400.000 134.551 M 279.085 20.000 L 400.000 140.915 M 272.721 20.000 L 400.000 147.279 M 266.357 20.000 L 400.000 153.643 M 259.993 20.000 L 400.000 160.007 M 253.629 20.000 L 400.000 166.371 M 247.265 20.000 L 400.000 172.735 M 240.901 20.000 L 400.000 179.099 M 234.537 20.000 L 400.000 185.463 M 228.173 20.000 L 400.000 191.827 M 221.809 20.000 L 400.000 198.191 M 215.445 20.000 L 400.000 204.555 M 209.081 20.000 L 400.000 210.919 M 202.717 20.000 L 400.000 217.283 M 196.353 20.000 L 400.000 223.647 M 189.989 20.000 L 400.000 230.011 M 183.625 20.000 L 400.000 236.375 M 177.261 20.000 L 400.000 242.739 M 170.897 20.000 L 400.000 249.103 M 164.533 20.000 L 400.000 255.467 M 158.169 20.000 L 400.000 261.831 M 151.806 20.000 L 400.000 268.194 M 145.442 20.000 L 400.000 274.558 M 139.078 20.000 L 396.078 277.000 M 132.714 20.000 L 389.714 277.000 M 126.350 20.000 L 383.350 277.000 M 119.986 20.000 L 376.986 277.000 M 113.622 20.000 L 370.622 277.000 M 107.258 20.000 L 364.258 277.000 M 100.894 20.000 L 357.894 277.000 M 94.530 20.000 L 351.530 277.000 M 88.166 20.000 L 345.166 277.000 M 81.802 20.000 L 338.802 277.000 M 75.438 20.000 L 332.438 277.000 M 69.074 20.000 L 326.074 277.000 M 62.710 20.000 L 319.710 277.000 M 56.346 20.000 L 313.346 277.000 M 49.982 20.000 L 306.982 277.000 M 43.618 20.000 L 300.618 277.000 M 37.254 20.000 L 294.254 277.000 M 30.890 20.000 L 287.890 277.000 M 24.526 20.000 L 281.526 277.000 M 20.000 21.838 L 275.162 277.000 M 20.000 28.202 L 268.798 277.000 M 20.000 34.566 L 262.434 277.000 M 20.000 40.930 L 256.070 277.000 M 20.000 47.294 L 249.706 277.000 M 20.000 53.657 L 243.343 277.000 M 20.000 60.021 L 236.979 277.000 M 20.000 66.385 L 230.615 277.000 M 20.000 72.749 L 224.251 277.000 M 20.000 79.113 L 217.887 277.000 M 20.000 85.477 L 211.523 277.000 M 20.000 91.841 L 205.159 277.000 M 20.000 98.205 L 198.795 277.000 M 20.000 104.569 L 192.431 277.000 M 20.000 110.933 L 186.067 277.000 M 20.000 117.297 L 179.703 277.000 M 20.000 123.661 L 173.339 277.000 M 20.000 130.025 L 166.975 277.000 M 20.000 136.389 L 160.611 277.000 M 20.000 142.753 L 154.247 277.000 M 20.000 149.117 L 147.883 277.000 M 20.000 155.481 L 141.519 277.000 M 20.000 161.845 L 135.155 277.000 M 20.000 168.209 L 128.791 277.000 M 20.000 174.573 L 122.427 277.000 M 20.000 180.937 L 116.063 277.000 M 20.000 187.301 L 109.699 277.000 M 20.000 193.665 L 103.335 277.000 M 20.000 200.029 L 96.971 277.000 M 20.000 206.393 L 90.607 277.000 M 20.000 212.756 L 84.244 277.000 M 20.000 219.120 L 77.880 277.000 M 20.000 225.484 L 71.516 277.000 M 20.000 231.848 L 65.152 277.000 M 20.000 238.212 L 58.788 277.000 M 20.000 244.576 L 52.424 277.000 M 20.000 250.940 L 46.060 277.000 M 20.000 257.304 L 39.696 277.000 M 20.000 263.668 L 33.332 277.000 M 20.000 270.032 L 26.968 277.000 M 20.000 276.396 L 20.604 277.000 M 400.000 270.636 L 393.636 277.000 M 400.000 264.272 L 387.272 277.000 M 400.000 257.908 L 380.908 277.000 M 400.000 251.544 L 374.544 277.000 M 400.000 245.180 L 368.180 277.000 M 400.000 238.816 L 361.816 277.000 M 400.000 232.452 L 355.452 277.000 M 400.000 226.088 L 349.088 277.000 M 400.000 219.724 L 342.724 277.000 M 400.000 213.360 L 336.360 277.000 M 400.000 206.996 L 329.996 277.000 M 400.000 200.632 L 323.632 277.000 M 400.000 194.269 L 317.269 277.000 M 400.000 187.905 L 310.905 277.000 M 400.000 181.541 L 304.541 277.000 M 400.000 175.177 L 298.177 277.000 M 400.000 168.813 L 291.813 277.000 M 400.000 162.449 L 285.449 277.000 M 400.000 156.085 L 279.085 277.000 M 400.000 149.721 L 272.721 277.000 M 400.000 143.357 L 266.357 277.000 M 400.000 136.993 L 259.993 277.000 M 400.000 130.629 L 253.629 277.000 M 400.000 124.265 L 247.265 277.000 M 400.000 117.901 L 240.901 277.000 M 400.000 111.537 L 234.537 277.000 M 400.000 105.173 L 228.173 277.000 M 400.000 98.809 L 221.809 277.000 M 400.000 92.445 L 215.445 277.000 M 400.000 86.081 L 209.081 277.000 M 400.000 79.717 L 202.717 277.000 M 400.000 73.353 L 196.353 277.000 M 400.000 66.989 L 189.989 277.000 M 400.000 60.625 L 183.625 277.000 M 400.000 54.261 L 177.261 277.000 M 400.000 47.897 L 170.897 277.000 M 400.000 41.533 L 164.533 277.000 M 400.000 35.169 L 158.169 277.000 M 400.000 28.806 L 151.806 277.000 M 400.000 22.442 L 145.442 277.000 M 396.078 20.000 L 139.078 277.000 M 389.714 20.000 L 132.714 277.000 M 383.350 20.000 L 126.350 277.000 M 376.986 20.000 L 119.986 277.000 M 370.622 20.000 L 113.622 277.000 M 364.258 20.000 L 107.258 277.000 M 357.894 20.000 L 100.894 277.000 M 351.530 20.000 L 94.530 277.000 M 345.166 20.000 L 88.166 277.000 M 338.802 20.000 L 81.802 277.000 M 332.438 20.000 L 75.438 277.000 M 326.074 20.000 L 69.074 277.000 M 319.710 20.000 L 62.710 277.000 M 313.346 20.000 L 56.346 277.000 M 306.982 20.000 L 49.982 277.000 M 300.618 20.000 L 43.618 277.000 M 294.254 20.000 L 37.254 277.000 M 287.890 20.000 L 30.890 277.000 M 281.526 20.000 L 24.526 277.000 M 275.162 20.000 L 20.000 275.162 M 268.798 20.000 L 20.000 268.798 M 262.434 20.000 L 20.000 262.434 M 256.070 20.000 L 20.000 256.070 M 249.706 20.000 L 20.000 249.706 M 243.343 20.000 L 20.000 243.343 M 236.979 20.000 L 20.000 236.979 M 230.615 20.000 L 20.000 230.615 M 224.251 20.000 L 20.000 224.251 M 217.887 20.000 L 20.000 217.887 M 211.523 20.000 L 20.000 211.523 M 205.159 20.000 L 20.000 205.159 M 198.795 20.000 L 20.000 198.795 M 192.431 20.000 L 20.000 192.431 M 186.067 20.000 L 20.000 186.067 M 179.703 20.000 L 20.000 179.703 M 173.339 20.000 L 20.000 173.339 M 166.975 20.000 L 20.000 166.975 M 160.611 20.000 L 20.000 160.611 M 154.247 20.000 L 20.000 154.247 M 147.883 20.000 L 20.000 147.883 M 141.519 20.000 L 20.000 141.519 M 135.155 20.000 L 20.000 135.155 M 128.791 20.000 L 20.000 128.791 M 122.427 20.000 L 20.000 122.427 M 116.063 20.000 L 20.000 116.063 M 109.699 20.000 L 20.000 109.699 M 103.335 20.000 L 20.000 103.335 M 96.971 20.000 L 20.000 96.971 M 90.607 20.000 L 20.000 90.607 M 84.244 20.000 L 20.000 84.244 M 77.880 20.000 L 20.000 77.880 M 71.516 20.000 L 20.000 71.516 M 65.152 20.000 L 20.000 65.152 M 58.788 20.000 L 20.000 58.788 M 52.424 20.000 L 20.000 52.424 M 46.060 20.000 L 20.000 46.060 M 39.696 20.000 L 20.000 39.696 M 33.332 20.000 L 20.000 33.332 M 26.968 20.000 L 20.000 26.968 M 20.604 20.000 L 20.000 20.604" fill="none" stroke="#00AEEF" stroke-width="1" vector-effect="non-scaling-stroke"/></svg>