<svg xmlns="http://www.w3.org/2000/svg" viewBox="76.38702580269361 95.91055735804012 267.2259483946127 159.5285709698623" width="267.2259483946127" height="159.5285709698623" shape-rendering="geometricPrecision"><rect x="76.38702580269361" y="95.91055735804012" width="267.2259483946127" height="159.5285709698623" fill="#0b0f14"/><path d="M 170.560 136.125 L 170.218 137.034 L 169.091 141.620 L 168.539 146.207 L 168.539 150.793 L 169.091 155.380 L 170.218 159.966 L 170.560 160.875 L 172.073 164.553 L 174.697 169.139 L 175.200 169.822 L 178.460 173.726 L 179.840 175.054 L 183.802 178.312 L 184.480 178.778 L 189.120 181.431 L 192.386 182.898 L 193.760 183.435 L 198.400 184.789 L 203.040 185.680 L 207.680 186.122 L 212.320 186.122 L 216.960 185.680 L 221.600 184.789 L 226.240 183.435 L 227.614 182.898 M 250.909 141.620 L 251.461 146.207 L 251.461 150.793 L 250.909 155.380 L 249.782 159.966 M 165.920 140.830 L 165.744 141.620 L 165.239 146.207 L 165.239 150.793 L 165.744 155.380 L 165.920 156.170 L 166.823 159.966 L 168.511 164.553 L 170.560 168.553 L 170.891 169.139 L 174.244 173.726 L 175.200 174.775 L 178.877 178.312 L 179.840 179.082 L 184.480 182.248 L 185.636 182.898 L 189.120 184.595 L 193.760 186.371 L 197.704 187.485 L 198.400 187.661 L 203.040 188.443 L 207.680 188.831 L 212.320 188.831 L 216.960 188.443 L 221.600 187.678 L 222.296 187.485 M 165.920 130.677 L 165.102 132.447 L 163.560 137.034 L 162.566 141.620 L 162.079 146.207 L 162.079 150.793 L 162.566 155.380 L 163.560 159.966 L 165.102 164.553 L 165.920 166.323 L 167.328 169.139 L 170.336 173.726 L 170.560 174.002 L 174.471 178.312 L 175.200 178.977 L 179.840 182.664 L 180.186 182.898 L 184.480 185.400 L 188.884 187.485 L 189.120 187.584 L 193.760 189.142 L 198.400 190.289 L 203.040 191.044 L 207.680 191.418 L 212.320 191.418 L 216.960 191.044 L 221.600 190.289 L 226.240 189.142 L 230.880 187.584 L 231.116 187.485 M 256.440 137.034 L 257.434 141.620 L 257.921 146.207 L 257.921 150.793 L 257.434 155.380 L 256.440 159.966 L 254.898 164.553 M 161.280 134.130 L 160.382 137.034 L 159.462 141.620 L 159.011 146.207 L 159.011 150.793 L 159.462 155.380 L 160.382 159.966 L 161.280 162.870 L 161.831 164.553 L 163.903 169.139 L 165.920 172.540 L 166.686 173.726 L 170.405 178.312 L 170.560 178.471 L 175.200 182.695 L 175.457 182.898 L 179.840 185.870 L 182.676 187.485 L 184.480 188.390 L 189.120 190.312 L 193.760 191.812 L 194.835 192.071 L 198.400 192.858 L 203.040 193.534 L 207.680 193.869 L 212.320 193.869 L 216.960 193.534 L 221.600 192.858 L 225.165 192.071 M 260.538 141.620 L 260.989 146.207 L 260.989 150.793 L 260.538 155.380 L 259.618 159.966 M 161.280 126.567 L 160.581 127.861 L 158.665 132.447 L 157.293 137.034 M 156.640 140.406 L 156.414 141.620 L 155.991 146.207 L 155.991 150.793 L 156.414 155.380 L 156.640 156.594 L 157.293 159.966 L 158.665 164.553 L 160.581 169.139 L 161.280 170.433 L 163.190 173.726 L 165.920 177.451 L 166.612 178.312 L 170.560 182.351 L 171.163 182.898 L 175.200 186.018 L 177.402 187.485 L 179.840 188.908 L 184.480 191.191 L 186.659 192.071 L 189.120 192.972 L 193.760 194.314 L 198.400 195.303 L 203.040 195.953 L 207.680 196.275 L 212.320 196.275 L 216.960 195.953 L 221.600 195.303 L 226.240 194.314 L 230.880 192.972 L 233.341 192.071 M 156.640 129.631 L 155.550 132.447 L 154.265 137.034 L 153.437 141.620 L 153.031 146.207 L 153.031 150.793 L 153.437 155.380 L 154.265 159.966 L 155.550 164.553 L 156.640 167.369 L 157.360 169.139 L 159.795 173.726 L 161.280 175.949 L 162.986 178.312 L 165.920 181.639 L 167.149 182.898 L 170.560 185.856 L 172.694 187.485 L 175.200 189.152 L 179.840 191.800 L 180.398 192.071 L 184.480 193.858 L 189.120 195.509 L 193.245 196.658 L 193.760 196.791 L 198.400 197.693 L 203.040 198.286 L 207.680 198.580 L 212.320 198.580 L 216.960 198.286 L 221.600 197.693 L 226.240 196.798 L 226.755 196.658 M 265.735 137.034 L 266.563 141.620 L 266.969 146.207 L 266.969 150.793 L 266.563 155.380 L 265.735 159.966 L 264.450 164.553 M 156.640 123.010 L 156.478 123.274 L 154.204 127.861 L 152.486 132.447 M 152.000 134.238 L 151.265 137.034 L 150.482 141.620 L 150.098 146.207 L 150.098 150.793 L 150.482 155.380 L 151.265 159.966 L 152.000 162.762 L 152.486 164.553 L 154.204 169.139 L 156.478 173.726 L 156.640 173.990 L 159.469 178.312 L 161.280 180.565 L 163.324 182.898 L 165.920 185.393 L 168.350 187.485 L 170.560 189.135 L 175.068 192.071 L 175.200 192.148 L 179.840 194.509 L 184.480 196.464 L 185.035 196.658 L 189.120 197.977 L 193.760 199.151 L 198.400 200.015 L 203.040 200.584 L 207.680 200.866 L 212.320 200.866 L 216.960 200.584 L 221.600 200.015 L 226.240 199.151 L 230.880 197.977 L 234.965 196.658 M 269.518 141.620 L 269.902 146.207 L 269.902 150.793 L 269.518 155.380 L 268.735 159.966 M 152.000 125.857 L 151.078 127.861 L 149.457 132.447 L 148.295 137.034 L 147.545 141.620 M 270.543 132.447 L 271.705 137.034 L 272.455 141.620 L 272.640 143.931 M 147.360 143.931 L 147.179 146.207 L 147.179 150.793 L 147.360 153.069 L 147.545 155.380 L 148.295 159.966 L 149.457 164.553 L 151.078 169.139 L 152.000 171.143 L 153.241 173.726 L 156.034 178.312 L 156.640 179.132 L 159.631 182.898 L 161.280 184.636 L 164.249 187.485 L 165.920 188.867 L 170.281 192.071 L 170.560 192.253 L 175.200 194.940 L 178.696 196.658 L 179.840 197.172 L 184.480 198.949 L 189.120 200.388 L 192.641 201.244 L 193.760 201.503 L 198.400 202.304 L 203.040 202.832 L 207.680 203.094 L 212.320 203.094 L 216.960 202.832 L 221.600 202.304 L 226.240 201.511 L 227.359 201.244 M 272.455 155.380 L 271.705 159.966 L 270.543 164.553 L 268.922 169.139 M 147.360 129.680 L 146.437 132.447 L 145.330 137.034 L 144.616 141.620 L 144.266 146.207 L 144.266 150.793 L 144.616 155.380 L 145.330 159.966 L 146.437 164.553 L 147.360 167.320 L 147.983 169.139 L 150.032 173.726 L 152.000 177.189 L 152.672 178.312 L 156.034 182.898 L 156.640 183.594 L 160.317 187.485 L 161.280 188.359 L 165.815 192.071 L 165.920 192.147 L 170.560 195.167 L 173.209 196.658 L 175.200 197.679 L 179.840 199.728 L 183.972 201.244 L 184.480 201.419 L 189.120 202.751 L 193.760 203.791 L 198.400 204.556 L 203.040 205.060 L 207.680 205.310 L 212.320 205.310 L 216.960 205.060 L 221.600 204.556 L 226.240 203.791 L 230.880 202.751 L 235.520 201.425 L 236.028 201.244 M 274.670 137.034 L 275.384 141.620 L 275.734 146.207 L 275.734 150.793 L 275.384 155.380 L 274.670 159.966 L 273.563 164.553 M 147.360 122.293 L 146.841 123.274 L 144.893 127.861 L 143.421 132.447 M 142.720 135.480 L 142.364 137.034 L 141.678 141.620 L 141.343 146.207 L 141.343 150.793 L 141.678 155.380 L 142.364 159.966 L 142.720 161.520 L 143.421 164.553 L 144.893 169.139 L 146.841 173.726 L 147.360 174.707 L 149.346 178.312 L 152.000 182.193 L 152.512 182.898 L 156.504 187.485 L 156.640 187.619 L 161.280 191.824 L 161.582 192.071 L 165.920 195.203 L 168.211 196.658 L 170.560 198.009 L 175.200 200.331 L 177.327 201.244 L 179.840 202.252 L 184.480 203.819 L 189.120 205.088 L 192.582 205.831 L 193.760 206.076 L 198.400 206.797 L 203.040 207.271 L 207.680 207.506 L 212.320 207.506 L 216.960 207.271 L 221.600 206.797 L 226.240 206.078 L 227.418 205.831 M 278.322 141.620 L 278.657 146.207 L 278.657 150.793 L 278.322 155.380 L 277.636 159.966 M 142.720 125.558 L 141.797 127.861 L 140.387 132.447 L 139.377 137.034 L 138.726 141.620 L 138.406 146.207 L 138.406 150.793 L 138.726 155.380 L 139.377 159.966 L 140.387 164.553 L 141.797 169.139 L 142.720 171.442 L 143.656 173.726 L 146.032 178.312 L 147.360 180.397 L 149.032 182.898 L 152.000 186.577 L 152.784 187.485 L 156.640 191.293 L 157.502 192.071 L 161.280 195.064 L 163.533 196.658 L 165.920 198.179 L 170.560 200.777 L 171.510 201.244 L 175.200 202.931 L 179.840 204.730 L 183.241 205.831 L 184.480 206.215 L 189.120 207.406 L 193.760 208.337 L 198.400 209.023 L 203.040 209.473 L 207.680 209.697 L 212.320 209.697 L 216.960 209.473 L 221.600 209.023 L 226.240 208.337 L 230.880 207.406 L 235.520 206.219 L 236.759 205.831 M 279.613 132.447 L 280.623 137.034 L 281.274 141.620 L 281.594 146.207 L 281.594 150.793 L 281.274 155.380 L 280.623 159.966 L 279.613 164.553 L 278.203 169.139 M 138.080 129.907 L 137.335 132.447 L 136.360 137.034 L 135.731 141.620 L 135.423 146.207 L 135.423 150.793 L 135.731 155.380 L 136.360 159.966 L 137.335 164.553 L 138.080 167.093 L 138.684 169.139 L 140.453 173.726 L 142.720 178.306 M 283.640 137.034 L 284.269 141.620 L 284.577 146.207 L 284.577 150.793 L 284.269 155.380 L 283.640 159.966 L 282.665 164.553 M 145.562 182.898 L 147.360 185.292 L 149.105 187.485 L 152.000 190.575 L 153.515 192.071 L 156.640 194.764 L 159.066 196.658 L 161.280 198.206 L 165.920 201.083 L 166.211 201.244 L 170.560 203.475 L 175.200 205.502 L 176.067 205.831 L 179.840 207.192 L 184.480 208.587 L 189.120 209.717 L 192.787 210.417 L 193.760 210.601 L 198.400 211.255 L 203.040 211.686 L 207.680 211.899 L 212.320 211.899 L 216.960 211.686 L 221.600 211.255 L 226.240 210.599 L 227.213 210.417 M 138.080 121.441 L 137.227 123.274 L 135.526 127.861 L 134.240 132.447 M 133.440 136.424 L 133.316 137.034 L 132.706 141.620 L 132.407 146.207 L 132.407 150.793 L 132.706 155.380 L 133.316 159.966 L 133.440 160.576 L 134.240 164.553 L 135.526 169.139 L 137.227 173.726 L 138.080 175.559 L 139.387 178.312 L 142.092 182.898 L 142.720 183.792 L 145.440 187.485 L 147.360 189.686 L 149.584 192.071 L 152.000 194.321 L 154.737 196.658 L 156.640 198.105 L 161.243 201.244 L 161.280 201.267 L 165.920 203.903 L 169.859 205.831 L 170.560 206.154 L 175.200 208.049 L 179.840 209.641 L 182.534 210.417 L 184.480 210.964 L 189.120 212.040 L 193.760 212.880 L 198.400 213.498 L 203.040 213.905 L 207.680 214.107 L 212.320 214.107 L 216.960 213.905 L 221.600 213.498 L 226.240 212.880 L 230.880 212.040 L 235.520 210.960 L 237.466 210.417 M 287.294 141.620 L 287.593 146.207 L 287.593 150.793 L 287.294 155.380 L 286.684 159.966 M 268.000 194.321 L 263.360 198.182 L 258.720 201.268 L 258.757 201.244 M 133.440 124.728 L 132.327 127.861 L 131.083 132.447 L 130.192 137.034 L 129.617 141.620 L 129.336 146.207 L 129.336 150.793 L 129.617 155.380 L 130.192 159.966 L 131.083 164.553 L 132.327 169.139 L 133.440 172.272 L 133.959 173.726 L 136.015 178.312 L 138.080 181.999 L 138.598 182.898 L 141.772 187.485 L 142.720 188.646 L 145.677 192.071 L 147.360 193.755 L 150.491 196.658 L 152.000 197.898 L 156.486 201.244 L 156.640 201.349 L 161.280 204.236 L 164.205 205.831 L 165.920 206.708 L 170.560 208.807 L 174.730 210.417 L 175.200 210.592 L 179.840 212.104 L 184.480 213.355 L 189.120 214.368 L 192.834 215.004 L 193.760 215.163 L 198.400 215.761 L 203.040 216.154 L 207.680 216.349 L 212.320 216.349 L 216.960 216.154 L 221.600 215.761 L 226.240 215.159 L 227.166 215.004 M 288.917 132.447 L 289.808 137.034 L 290.383 141.620 L 290.664 146.207 L 290.664 150.793 L 290.383 155.380 L 289.808 159.966 L 288.917 164.553 L 287.673 169.139 M 272.640 193.755 L 268.000 197.964 L 263.360 201.352 L 263.514 201.244 M 142.720 103.911 L 141.768 104.929 L 138.082 109.515 L 135.051 114.102 M 133.440 117.093 L 132.597 118.688 L 130.615 123.274 L 129.071 127.861 M 128.800 128.906 L 127.871 132.447 L 127.005 137.034 L 126.446 141.620 L 126.172 146.207 L 126.172 150.793 L 126.446 155.380 L 127.005 159.966 L 127.871 164.553 L 128.800 168.094 L 129.071 169.139 L 130.615 173.726 L 132.597 178.312 L 133.440 179.907 L 135.051 182.898 L 138.080 187.482 M 292.995 137.034 L 293.554 141.620 L 293.828 146.207 L 293.828 150.793 L 293.554 155.380 L 292.995 159.966 L 292.129 164.553 M 141.768 192.071 L 142.720 193.089 L 146.284 196.658 L 147.360 197.608 L 151.849 201.244 L 152.000 201.355 L 156.640 204.496 L 158.859 205.831 L 161.280 207.189 L 165.920 209.490 L 168.048 210.417 L 170.560 211.468 L 175.200 213.154 L 179.840 214.572 L 181.512 215.004 L 184.480 215.766 L 189.120 216.741 L 193.760 217.503 L 198.400 218.064 L 203.040 218.433 L 207.680 218.616 L 212.320 218.616 L 216.960 218.433 L 221.600 218.064 L 226.240 217.503 L 230.880 216.741 L 235.520 215.746 L 238.488 215.004 M 277.280 193.089 L 272.640 197.658 L 268.000 201.359 L 268.151 201.244 M 128.800 119.427 L 127.200 123.274 L 125.706 127.861 L 124.576 132.447 M 124.160 134.787 L 123.749 137.034 L 123.204 141.620 L 122.937 146.207 L 122.937 150.793 L 123.204 155.380 L 123.749 159.966 L 124.160 162.213 L 124.576 164.553 L 125.706 169.139 L 127.200 173.726 L 128.800 177.573 L 129.108 178.312 L 131.442 182.898 L 133.440 186.103 L 134.326 187.485 L 137.830 192.071 L 138.080 192.356 L 142.080 196.658 L 142.720 197.262 L 147.272 201.244 L 147.360 201.313 L 152.000 204.710 L 153.704 205.831 L 156.640 207.623 L 161.280 210.123 L 161.886 210.417 L 165.920 212.288 L 170.560 214.141 L 173.052 215.004 L 175.200 215.735 L 179.840 217.095 L 184.480 218.220 L 189.120 219.131 L 192.088 219.590 L 193.760 219.855 L 198.400 220.402 L 203.040 220.763 L 207.680 220.941 L 212.320 220.941 L 216.960 220.763 L 221.600 220.402 L 226.240 219.843 L 227.912 219.590 M 296.796 141.620 L 297.063 146.207 L 297.063 150.793 L 296.796 155.380 L 296.251 159.966 M 124.160 122.110 L 123.700 123.274 L 122.248 127.861 L 121.151 132.447 L 120.365 137.034 L 119.858 141.620 L 119.610 146.207 L 119.610 150.793 L 119.858 155.380 L 120.365 159.966 L 121.151 164.553 L 122.248 169.139 L 123.700 173.726 L 124.160 174.890 L 125.503 178.312 L 127.751 182.898 L 128.800 184.675 L 130.491 187.485 L 133.440 191.558 L 133.826 192.071 L 137.842 196.658 L 138.080 196.897 L 142.706 201.244 M 297.752 127.861 L 298.849 132.447 L 299.635 137.034 L 300.142 141.620 L 300.390 146.207 L 300.390 150.793 L 300.142 155.380 L 299.635 159.966 L 298.849 164.553 L 297.752 169.139 L 296.300 173.726 M 147.360 204.908 L 148.651 205.831 L 152.000 208.039 L 156.063 210.417 L 156.640 210.737 L 161.280 213.079 L 165.706 215.004 L 165.920 215.094 L 170.560 216.863 L 175.200 218.366 L 179.692 219.590 L 179.840 219.631 L 184.480 220.725 L 189.120 221.610 L 193.760 222.301 L 198.400 222.810 L 203.040 223.145 L 207.680 223.311 L 212.320 223.311 L 216.960 223.145 L 221.600 222.810 L 226.240 222.301 L 230.880 221.610 L 235.520 220.725 L 240.160 219.629 L 240.308 219.590 M 272.640 204.908 L 268.000 208.064 L 263.360 210.734 L 263.937 210.417 M 124.160 113.736 L 123.955 114.102 L 121.784 118.688 L 120.062 123.274 M 119.520 125.094 L 118.678 127.861 L 117.610 132.447 L 116.844 137.034 L 116.351 141.620 L 116.109 146.207 L 116.109 150.793 L 116.351 155.380 L 116.844 159.966 L 117.610 164.553 L 118.678 169.139 L 119.520 171.906 L 120.062 173.726 L 121.784 178.312 L 123.955 182.898 L 124.160 183.264 L 126.552 187.485 L 128.800 190.763 L 129.723 192.071 L 133.440 196.551 L 133.533 196.658 L 138.080 201.222 M 302.390 132.447 L 303.156 137.034 L 303.649 141.620 L 303.891 146.207 L 303.891 150.793 L 303.649 155.380 L 303.156 159.966 L 302.390 164.553 L 301.322 169.139 M 142.720 205.128 L 143.630 205.831 L 147.360 208.472 L 150.419 210.417 L 152.000 211.363 L 156.640 213.872 L 158.999 215.004 L 161.280 216.063 L 165.920 217.973 L 170.509 219.590 L 170.560 219.608 L 175.200 221.060 L 179.840 222.281 L 184.480 223.291 L 189.120 224.109 L 189.601 224.177 L 193.760 224.785 L 198.400 225.286 L 203.040 225.615 L 207.680 225.779 L 212.320 225.779 L 216.960 225.615 L 221.600 225.286 L 226.240 224.748 L 230.399 224.177 M 119.520 115.161 L 117.923 118.688 L 116.258 123.274 L 114.961 127.861 M 114.880 128.230 L 113.925 132.447 L 113.179 137.034 L 112.698 141.620 L 112.462 146.207 L 112.462 150.793 L 112.698 155.380 L 113.179 159.966 L 113.925 164.553 L 114.880 168.770 L 114.961 169.139 L 116.258 173.726 L 117.923 178.312 L 119.520 181.839 L 119.997 182.898 L 122.479 187.485 L 124.160 190.065 L 125.493 192.071 L 128.800 196.281 L 129.108 196.658 L 133.417 201.244 M 306.821 137.034 L 307.302 141.620 L 307.538 146.207 L 307.538 150.793 L 307.302 155.380 L 306.821 159.966 L 306.075 164.553 M 138.080 205.417 L 138.579 205.831 L 142.720 208.965 L 144.835 210.417 L 147.360 212.039 L 152.000 214.705 L 152.570 215.004 L 156.640 217.061 L 161.280 219.100 L 162.529 219.590 L 165.920 220.910 L 170.560 222.478 L 175.200 223.810 L 176.680 224.177 L 179.840 224.979 L 184.480 225.967 L 189.120 226.766 L 193.760 227.390 L 198.400 227.849 L 203.040 228.152 L 207.680 228.302 L 212.320 228.302 L 216.960 228.152 L 221.600 227.849 L 226.240 227.390 L 230.880 226.766 L 235.520 225.967 L 240.160 224.930 L 243.320 224.177 M 114.880 116.380 L 113.882 118.688 L 112.272 123.274 L 111.018 127.861 M 110.240 131.612 L 110.059 132.447 L 109.332 137.034 L 108.864 141.620 L 108.634 146.207 L 108.634 150.793 L 108.864 155.380 L 109.332 159.966 L 110.059 164.553 L 110.240 165.388 L 111.018 169.139 L 112.272 173.726 L 113.882 178.312 L 114.880 180.620 L 115.851 182.898 L 118.233 187.485 L 119.520 189.560 L 121.096 192.071 L 124.160 196.177 L 124.530 196.658 L 128.596 201.244 L 128.800 201.448 L 133.439 205.831 M 310.668 137.034 L 311.136 141.620 L 311.366 146.207 L 311.366 150.793 L 311.136 155.380 L 310.668 159.966 L 309.941 164.553 M 138.080 209.568 L 139.232 210.417 L 142.720 212.811 L 146.282 215.004 L 147.360 215.636 L 152.000 218.128 L 155.087 219.590 L 156.640 220.312 L 161.280 222.252 L 165.920 223.920 L 166.721 224.177 L 170.560 225.423 L 175.200 226.715 L 179.840 227.800 L 184.480 228.699 L 184.879 228.763 L 189.120 229.482 L 193.760 230.098 L 198.400 230.551 L 203.040 230.849 L 207.680 230.997 L 212.320 230.997 L 216.960 230.849 L 221.600 230.551 L 226.240 230.098 L 230.880 229.426 L 235.121 228.763 M 281.920 209.568 L 277.280 212.793 L 272.640 215.620 L 273.718 215.004 M 240.160 227.800 L 244.800 226.715 L 249.440 225.423 L 253.279 224.177 M 110.240 117.169 L 109.611 118.688 L 108.058 123.274 L 106.849 127.861 L 105.935 132.447 M 311.942 123.274 L 313.151 127.861 L 314.065 132.447 L 314.400 134.771 M 105.600 134.771 L 105.255 137.034 L 104.799 141.620 L 104.576 146.207 L 104.576 150.793 L 104.799 155.380 L 105.255 159.966 L 105.600 162.229 L 105.935 164.553 L 106.849 169.139 L 108.058 173.726 L 109.611 178.312 L 110.240 179.831 L 111.482 182.898 L 113.762 187.485 L 114.880 189.372 L 116.485 192.071 L 119.520 196.341 L 119.750 196.658 L 123.581 201.244 L 124.160 201.854 L 128.124 205.831 L 128.800 206.439 L 133.440 210.346 L 133.530 210.417 L 138.080 213.739 L 139.992 215.004 L 142.720 216.714 L 147.360 219.313 L 147.899 219.590 L 152.000 221.649 L 156.640 223.678 L 157.909 224.177 L 161.280 225.508 L 165.920 227.109 L 170.560 228.479 L 171.658 228.763 L 175.200 229.716 L 179.840 230.777 L 184.480 231.655 L 189.120 232.365 L 193.760 232.920 L 198.400 233.329 L 198.750 233.350 L 203.040 233.623 L 207.680 233.770 L 212.320 233.770 L 216.960 233.598 L 221.250 233.350 M 315.201 141.620 L 315.424 146.207 L 315.424 150.793 L 315.201 155.380 L 314.745 159.966 M 314.065 164.553 L 313.151 169.139 L 311.942 173.726 L 310.389 178.312 M 226.240 232.920 L 230.880 232.365 L 235.520 231.655 L 240.160 230.777 L 244.800 229.716 L 248.342 228.763 M 105.600 117.290 L 105.045 118.688 L 103.554 123.274 L 102.393 127.861 L 101.515 132.447 M 316.446 123.274 L 317.607 127.861 L 318.485 132.447 L 319.040 136.487 M 100.960 136.487 L 100.880 137.034 L 100.439 141.620 L 100.224 146.207 L 100.224 150.793 L 100.439 155.380 L 100.880 159.966 L 100.960 160.513 L 101.515 164.553 L 102.393 169.139 L 103.554 173.726 L 105.045 178.312 L 105.600 179.710 L 106.829 182.898 L 109.002 187.485 L 110.240 189.668 L 111.597 192.071 L 114.697 196.658 L 114.880 196.895 L 118.304 201.244 L 119.520 202.591 L 122.572 205.831 L 124.160 207.337 L 127.612 210.417 L 128.800 211.388 L 133.440 214.894 L 133.594 215.004 L 138.080 217.995 L 140.753 219.590 L 142.720 220.724 L 147.360 223.145 L 149.569 224.177 L 152.000 225.305 L 156.640 227.229 L 160.912 228.763 L 161.280 228.898 L 165.920 230.443 L 170.560 231.766 L 175.200 232.889 L 177.419 233.350 L 179.840 233.883 L 184.480 234.746 L 189.120 235.444 L 193.760 235.989 L 198.400 236.390 L 203.040 236.654 L 207.680 236.785 L 212.320 236.785 L 216.960 236.654 L 221.600 236.390 L 226.240 235.989 L 230.880 235.444 L 235.520 234.746 L 240.160 233.834 L 242.581 233.350 M 319.561 141.620 L 319.776 146.207 L 319.776 150.793 L 319.561 155.380 L 319.120 159.966 M 318.485 164.553 L 317.607 169.139 L 316.446 173.726 L 314.955 178.312 M 305.120 196.895 L 300.480 202.633 L 295.840 207.354 L 291.200 211.381 L 292.388 210.417 M 249.440 231.766 L 254.080 230.443 L 258.720 228.898 L 259.088 228.763 M 100.960 116.428 L 100.098 118.688 L 98.678 123.274 L 97.572 127.861 L 96.735 132.447 M 321.322 123.274 L 322.428 127.861 L 323.265 132.447 L 323.680 135.611 M 96.320 135.611 L 96.119 137.034 L 95.697 141.620 L 95.490 146.207 L 95.490 150.793 L 95.697 155.380 L 96.119 159.966 L 96.320 161.389 L 96.735 164.553 L 97.572 169.139 L 98.678 173.726 L 100.098 178.312 L 100.960 180.572 L 101.815 182.898 L 103.871 187.485 L 105.600 190.666 L 106.356 192.071 L 109.266 196.658 L 110.240 197.981 L 112.680 201.244 L 114.880 203.795 L 116.697 205.831 L 119.520 208.643 L 121.399 210.417 L 124.160 212.793 L 126.924 215.004 L 128.800 216.404 L 133.440 219.562 L 133.484 219.590 L 138.080 222.407 L 141.344 224.177 L 142.720 224.910 L 147.360 227.171 L 151.092 228.763 L 152.000 229.155 L 156.640 230.984 L 161.280 232.561 L 163.920 233.350 L 165.920 233.975 L 170.560 235.254 L 175.200 236.341 L 179.840 237.254 L 184.007 237.936 L 184.480 238.020 L 189.120 238.707 L 193.760 239.243 L 198.400 239.638 L 203.040 239.898 L 207.680 240.027 L 212.320 240.027 L 216.960 239.898 L 221.600 239.638 L 226.240 239.243 L 230.880 238.707 L 235.520 238.011 L 235.993 237.936 M 324.303 141.620 L 324.510 146.207 L 324.510 150.793 L 324.303 155.380 L 323.881 159.966 M 323.265 164.553 L 322.428 169.139 L 321.322 173.726 L 319.902 178.312 M 309.760 197.981 L 305.120 203.875 L 300.480 208.675 L 295.840 212.774 M 100.960 104.387 L 100.636 104.929 L 98.260 109.515 L 96.341 114.102 L 94.659 118.688 L 93.323 123.274 L 92.282 127.861 M 91.680 131.354 L 91.477 132.447 L 90.857 137.034 L 90.457 141.620 L 90.261 146.207 L 90.261 150.793 L 90.457 155.380 L 90.857 159.966 L 91.477 164.553 L 91.680 165.646 L 92.282 169.139 L 93.323 173.726 L 94.659 178.312 L 96.320 182.839 L 96.341 182.898 L 98.260 187.485 L 100.636 192.071 L 100.960 192.613 L 103.360 196.658 L 105.600 199.831 L 106.606 201.244 L 110.240 205.647 L 110.396 205.831 L 114.783 210.417 L 114.880 210.509 L 119.520 214.690 L 119.890 215.004 L 124.160 218.359 L 125.865 219.590 L 128.800 221.603 L 132.966 224.177 L 133.440 224.461 L 138.080 227.068 L 141.504 228.763 L 142.720 229.365 L 147.360 231.473 L 152.000 233.294 L 152.154 233.350 L 156.640 235.023 L 161.280 236.518 L 165.920 237.804 L 166.453 237.936 L 170.560 239.022 L 175.200 240.071 L 179.840 240.953 L 184.480 241.683 L 189.120 242.274 L 191.596 242.522 L 193.760 242.765 L 198.400 243.153 L 203.040 243.408 L 207.680 243.534 L 212.320 243.534 L 216.960 243.408 L 221.600 243.153 L 226.240 242.735 L 228.404 242.522 M 329.143 137.034 L 329.543 141.620 L 329.739 146.207 L 329.739 150.793 L 329.543 155.380 L 329.143 159.966 L 328.523 164.553 M 235.520 241.683 L 240.160 240.953 L 244.800 240.071 L 249.440 239.022 L 253.547 237.936 M 91.680 110.399 L 90.134 114.102 L 88.582 118.688 L 87.350 123.274 M 87.040 124.725 L 86.320 127.861 L 85.516 132.447 L 84.940 137.034 L 84.569 141.620 L 84.387 146.207 L 84.387 150.793 L 84.569 155.380 L 84.940 159.966 L 85.516 164.553 L 86.320 169.139 L 87.040 172.275 L 87.350 173.726 L 88.582 178.312 L 90.134 182.898 L 91.680 186.601 L 92.034 187.485 L 94.209 192.071 L 96.320 195.735 L 96.843 196.658 L 99.866 201.244 L 100.960 202.683 L 103.383 205.831 L 105.600 208.350 L 107.475 210.417 L 110.240 213.150 L 112.210 215.004 L 114.880 217.310 L 117.707 219.590 L 119.520 220.965 L 124.147 224.177 L 124.160 224.185 L 128.800 227.128 L 131.699 228.763 L 133.440 229.735 L 138.080 232.101 L 140.829 233.350 L 142.720 234.225 L 147.360 236.170 L 152.000 237.852 L 152.252 237.936 L 156.640 239.471 L 161.280 240.876 L 165.920 242.084 L 167.833 242.522 L 170.560 243.202 L 175.200 244.204 L 179.840 245.046 L 184.480 245.744 L 189.120 246.308 L 193.760 246.749 L 198.400 247.074 L 199.151 247.109 L 203.040 247.316 L 207.680 247.439 L 212.320 247.439 L 216.960 247.316 L 220.849 247.109 M 334.484 132.447 L 335.060 137.034 L 335.431 141.620 L 335.613 146.207 L 335.613 150.793 L 335.431 155.380 L 335.060 159.966 L 334.484 164.553 L 333.680 169.139 M 319.040 202.683 L 314.400 208.379 L 309.760 213.129 L 305.120 217.250 M 305.120 217.310 L 300.480 220.905 L 295.840 224.185 L 295.853 224.177 M 226.240 246.749 L 230.880 246.308 L 235.520 245.744 L 240.160 245.046 L 244.800 244.204 L 249.440 243.202 L 252.167 242.522" fill="none" stroke="#EC008C" stroke-width="1" vector-effect="non-scaling-stroke"/><path d="M 162.056 217.749 L 165.607 217.995 M 165.607 217.995 L 168.944 219.085 M 168.944 219.085 L 169.159 219.164 M 169.159 219.164 L 172.710 221.453 M 172.710 221.453 L 174.118 222.704 M 174.118 222.704 L 176.262 224.958 M 176.262 224.958 L 177.298 226.324 M 177.298 226.324 L 179.483 229.944 M 179.483 229.944 L 179.813 230.709 M 179.813 230.709 L 180.846 233.563 M 180.846 233.563 L 181.579 237.183 M 181.579 237.183 L 181.713 240.803 M 181.713 240.803 L 181.248 244.423 M 181.248 244.423 L 181.019 245.224 M 150.628 226.324 L 149.179 229.944 M 149.179 229.944 L 148.328 233.563 M 148.328 233.563 L 148.130 236.449 M 158.505 216.315 L 162.056 215.606 M 162.056 215.606 L 165.607 215.918 M 165.607 215.918 L 169.159 217.130 M 169.159 217.130 L 172.603 219.085 M 172.603 219.085 L 172.710 219.154 M 172.710 219.154 L 176.262 222.316 M 176.262 222.316 L 176.612 222.704 M 176.612 222.704 L 179.363 226.324 M 179.363 226.324 L 179.813 227.068 M 179.813 227.068 L 181.286 229.944 M 181.286 229.944 L 182.603 233.563 M 182.603 233.563 L 183.343 237.183 M 183.343 237.183 L 183.364 237.735 M 183.364 237.735 L 183.466 240.803 M 147.382 229.944 L 146.678 233.563 M 146.678 233.563 L 146.549 235.830 M 183.364 241.724 L 183.019 244.423 M 183.019 244.423 L 182.717 245.479 M 162.056 213.686 L 165.607 214.024 M 165.607 214.024 L 169.159 215.148 M 169.159 215.148 L 169.766 215.465 M 169.766 215.465 L 172.710 217.163 M 172.710 217.163 L 175.171 219.085 M 175.171 219.085 L 176.262 220.056 M 176.262 220.056 L 178.653 222.704 M 178.653 222.704 L 179.813 224.227 M 179.813 224.227 L 181.174 226.324 M 181.174 226.324 L 183.035 229.944 M 183.035 229.944 L 183.364 230.848 M 183.364 230.848 L 184.236 233.563 M 184.236 233.563 L 184.880 237.183 M 184.880 237.183 L 184.995 240.803 M 184.995 240.803 L 184.590 244.423 M 184.590 244.423 L 184.273 245.713 M 146.976 226.324 L 145.800 229.944 M 145.800 229.944 L 145.102 233.563 M 145.102 233.563 L 145.011 235.185 M 162.600 211.845 L 165.607 212.181 M 165.607 212.181 L 169.159 213.354 M 169.159 213.354 L 172.710 215.215 M 172.710 215.215 L 173.065 215.465 M 173.065 215.465 L 176.262 217.973 M 176.262 217.973 L 177.414 219.085 M 177.414 219.085 L 179.813 221.738 M 179.813 221.738 L 180.562 222.704 M 180.562 222.704 L 182.915 226.324 M 182.915 226.324 L 183.364 227.198 M 183.364 227.198 L 184.616 229.944 M 184.616 229.944 L 185.774 233.563 M 185.774 233.563 L 186.414 237.183 M 186.414 237.183 L 186.523 240.803 M 186.523 240.803 L 186.112 244.423 M 186.112 244.423 L 185.748 245.898 M 144.227 229.944 L 143.611 233.563 M 143.611 233.563 L 143.559 234.576 M 158.505 210.429 L 162.056 210.053 M 162.056 210.053 L 165.607 210.473 M 165.607 210.473 L 169.159 211.587 M 169.159 211.587 L 169.681 211.845 M 169.681 211.845 L 172.710 213.459 M 172.710 213.459 L 175.552 215.465 M 175.552 215.465 L 176.262 216.021 M 176.262 216.021 L 179.436 219.085 M 179.436 219.085 L 179.813 219.501 M 179.813 219.501 L 182.297 222.704 M 182.297 222.704 L 183.364 224.346 M 183.364 224.346 L 184.513 226.324 M 184.513 226.324 L 186.159 229.944 M 186.159 229.944 L 186.916 232.317 M 186.916 232.317 L 187.277 233.563 M 187.277 233.563 L 187.851 237.183 M 187.851 237.183 L 187.941 240.803 M 187.941 240.803 L 187.562 244.423 M 143.856 226.324 L 142.828 229.944 M 142.828 229.944 L 142.207 233.563 M 142.207 233.563 L 142.185 233.977 M 158.505 208.626 L 162.056 208.317 M 162.056 208.317 L 165.607 208.796 M 165.607 208.796 L 169.159 209.957 M 169.159 209.957 L 172.710 211.716 M 172.710 211.716 L 172.907 211.845 M 172.907 211.845 L 176.262 214.228 M 176.262 214.228 L 177.695 215.465 M 177.695 215.465 L 179.813 217.510 M 179.813 217.510 L 181.222 219.085 M 181.222 219.085 L 183.364 221.846 M 183.364 221.846 L 183.962 222.704 M 183.962 222.704 L 186.062 226.324 M 186.062 226.324 L 186.916 228.206 M 186.916 228.206 L 187.639 229.944 M 187.639 229.944 L 188.682 233.563 M 188.682 233.563 L 189.242 237.183 M 189.242 237.183 L 189.320 240.803 M 189.320 240.803 L 188.932 244.423 M 188.932 244.423 L 188.524 246.236 M 143.850 222.704 L 142.460 226.324 M 142.460 226.324 L 141.429 229.944 M 141.429 229.944 L 140.839 233.354 M 162.056 200.411 L 165.019 200.986 M 165.019 200.986 L 165.607 201.098 M 165.607 201.098 L 169.159 202.356 M 169.159 202.356 L 172.710 204.089 M 172.710 204.089 L 173.557 204.606 M 173.557 204.606 L 176.196 206.269 M 186.590 215.775 L 186.916 216.179 M 186.916 216.179 L 189.111 219.085 M 189.111 219.085 L 190.467 221.195 M 190.467 221.195 L 191.397 222.704 M 191.397 222.704 L 193.197 226.324 M 193.197 226.324 L 194.019 228.526 M 194.019 228.526 L 194.529 229.944 M 194.529 229.944 L 195.388 233.563 M 195.388 233.563 L 195.802 237.183 M 195.802 237.183 L 195.792 240.803 M 195.792 240.803 L 195.381 244.423 M 195.381 244.423 L 194.867 246.827 M 135.994 226.324 L 135.038 229.944 M 135.038 229.944 L 134.941 230.500 M 154.953 199.444 L 158.505 198.784 M 158.505 198.784 L 162.056 198.885 M 162.056 198.885 L 165.607 199.629 M 165.607 199.629 L 169.159 200.910 M 169.159 200.910 L 169.310 200.986 M 169.310 200.986 L 171.748 202.200 M 191.061 219.865 L 192.807 222.704 M 192.807 222.704 L 194.019 225.165 M 194.019 225.165 L 194.574 226.324 M 194.574 226.324 L 195.861 229.944 M 195.861 229.944 L 196.686 233.563 M 196.686 233.563 L 197.074 237.183 M 197.074 237.183 L 197.042 240.803 M 197.042 240.803 L 196.615 244.423 M 196.615 244.423 L 196.074 246.911 M 151.402 199.238 L 147.850 201.694 M 147.850 201.694 L 144.299 205.292 M 144.299 205.292 L 140.748 210.234 M 165.607 198.162 L 168.533 199.260 M 194.259 222.790 L 195.945 226.324 M 195.945 226.324 L 197.194 229.944 M 197.194 229.944 L 197.570 231.643 M 197.570 231.643 L 197.989 233.563 M 197.989 233.563 L 198.347 237.183 M 198.347 237.183 L 198.290 240.803 M 198.290 240.803 L 197.846 244.423 M 133.576 226.324 L 132.761 229.356 M 197.570 245.678 L 197.281 246.996 M 158.505 195.577 L 162.056 195.818 M 162.056 195.818 L 165.607 196.692 M 165.607 196.692 L 165.816 196.775 M 196.719 225.040 L 197.317 226.324 M 197.317 226.324 L 197.570 227.065 M 197.570 227.065 L 198.541 229.944 M 198.541 229.944 L 199.299 233.563 M 199.299 233.563 L 199.622 237.183 M 199.622 237.183 L 199.536 240.803 M 199.536 240.803 L 199.069 244.423 M 199.069 244.423 L 198.477 247.078 M 132.394 226.324 L 131.720 228.775 M 151.402 195.716 L 147.850 198.037 M 147.850 198.037 L 144.299 201.397 M 144.299 201.397 L 140.748 205.975 M 140.748 205.975 L 137.196 211.884 M 154.953 194.401 L 158.505 193.963 M 158.505 193.963 L 162.056 194.277 M 162.056 194.277 L 163.504 194.661 M 198.966 227.095 L 199.894 229.944 M 199.894 229.944 L 200.609 233.563 M 200.609 233.563 L 200.896 237.183 M 200.896 237.183 L 200.782 240.803 M 200.782 240.803 L 200.292 244.423 M 200.292 244.423 L 199.673 247.137 M 147.850 196.163 L 144.299 199.509 M 144.299 199.509 L 140.748 203.920 M 140.748 203.920 L 137.196 209.575 M 200.920 228.882 L 201.121 229.526 M 201.121 229.526 L 201.254 229.944 M 201.254 229.944 L 201.951 233.563 M 201.951 233.563 L 202.205 237.183 M 202.205 237.183 L 202.050 240.803 M 202.050 240.803 L 201.521 244.423 M 130.032 226.324 L 129.658 227.612 M 201.121 246.097 L 200.866 247.200 M 151.402 184.183 L 151.920 184.065 M 209.132 236.393 L 209.124 237.183 M 209.124 237.183 L 208.667 240.803 M 208.224 242.712 L 207.872 244.423 M 207.872 244.423 L 206.997 247.421 M 210.583 237.720 L 210.128 240.803 M 210.128 240.803 L 209.241 244.423 M 211.776 239.653 L 211.588 240.803 M 211.588 240.803 L 210.636 244.423 M 210.636 244.423 L 209.609 247.439 M 213.339 240.241 L 213.213 240.803 M 213.213 240.803 L 212.060 244.423 M 214.644 241.435 L 213.615 244.423 M 213.615 244.423 L 212.364 247.438 M 215.327 243.974 L 215.169 244.423 M 215.169 244.423 L 213.870 247.398 M 132.643 166.434 L 132.926 168.408 M 132.926 168.408 L 132.922 172.028 M 132.922 172.028 L 132.480 175.648 M 132.480 175.648 L 131.677 179.268 M 131.677 179.268 L 130.583 182.887 M 126.331 193.746 L 124.704 197.366 M 124.704 197.366 L 123.006 200.986 M 123.006 200.986 L 119.439 208.209 M 119.439 208.209 L 117.401 211.845 M 131.243 168.408 L 131.332 172.028 M 131.332 172.028 L 130.973 175.648 M 130.973 175.648 L 130.242 179.268 M 128.983 164.789 L 129.617 168.408 M 129.617 168.408 L 129.775 172.028 M 129.775 172.028 L 129.518 175.648 M 129.518 175.648 L 128.904 179.268 M 128.904 179.268 L 127.989 182.887 M 127.989 182.887 L 126.826 186.507 M 115.888 210.070 L 112.527 215.278 M 128.112 168.408 L 128.335 172.028 M 128.335 172.028 L 128.138 175.648 M 128.138 175.648 L 127.577 179.268 M 127.577 179.268 L 126.707 182.887 M 119.439 201.181 L 115.888 207.944 M 115.888 207.944 L 112.336 213.535 M 112.336 213.535 L 111.610 214.439 M 126.264 179.268 L 125.473 182.887 M 125.473 182.887 L 124.418 186.507 M 124.418 186.507 L 123.144 190.127 M 117.589 164.789 L 118.499 168.408 M 118.499 168.408 L 118.989 172.028 M 118.989 172.028 L 119.086 175.648 M 119.086 175.648 L 118.816 179.268 M 118.816 179.268 L 118.202 182.887 M 118.202 182.887 L 117.276 186.507 M 117.276 186.507 L 116.072 190.127 M 117.199 168.408 L 117.717 172.028 M 117.717 172.028 L 117.840 175.648 M 117.840 175.648 L 117.590 179.268 M 117.590 179.268 L 116.993 182.887 M 116.993 182.887 L 116.080 186.507 M 114.580 168.408 L 115.160 172.028 M 115.160 172.028 L 115.333 175.648 M 115.333 175.648 L 115.115 179.268 M 115.115 179.268 L 114.526 182.887 M 114.526 182.887 L 113.594 186.507 M 113.594 186.507 L 112.348 190.127 M 113.863 172.028 L 114.054 175.648 M 114.054 175.648 L 113.850 179.268 M 113.850 179.268 L 113.272 182.887 M 113.272 182.887 L 112.347 186.507 M 112.347 186.507 L 108.785 196.054 M 106.893 172.028 L 107.181 175.648 M 107.181 175.648 L 106.982 179.268 M 106.982 179.268 L 106.312 182.887 M 103.617 172.028 L 103.953 175.648 M 103.953 175.648 L 103.712 179.268 M 103.712 179.268 L 102.909 182.887 M 94.023 191.679 L 94.579 191.448 M 94.579 191.448 L 96.235 190.127 M 99.694 172.028 L 100.079 175.648 M 100.079 175.648 L 99.744 179.268 M 99.744 179.268 L 98.694 182.887" fill="none" stroke="#00AEEF" stroke-width="1" vector-effect="non-scaling-stroke"/></svg>