<svg xmlns="http://www.w3.org/2000/svg" viewBox="12 18.047211531783404 395.35977975761546 261.53445608429865" width="395.35977975761546" height="261.53445608429865" shape-rendering="geometricPrecision"><rect x="12" y="18.047211531783404" width="395.35977975761546" height="261.53445608429865" fill="#0b0f14"/><path d="M 43.919 142.685 L 181.131 213.821 L 299.863 247.503 L 291.700 251.604 L 226.300 42.570 L 340.801 44.478 L 81.602 167.508 L 115.472 60.007 L 338.752 244.252 L 75.331 161.073 L 344.719 45.004 L 177.720 158.379 L 330.823 74.016 L 355.895 270.716 L 224.728 244.146 L 174.439 120.136 L 345.893 251.899 L 374.874 246.065 L 143.396 191.914 L 241.359 28.364 L 275.096 95.900 L 213.511 121.616 L 176.727 183.931 L 230.907 236.446 L 242.948 238.844 L 172.856 116.352 L 198.651 222.445 L 301.775 251.815 L 218.913 60.800 L 93.440 155.588 L 85.357 177.625 L 206.877 64.857 L 221.716 54.134 L 355.557 270.568 L 283.296 251.716 L 220.131 28.637 L 236.694 90.672 L 146.013 201.064 L 244.500 239.287 L 314.619 78.196 L 341.783 43.567 L 160.776 150.617 L 218.292 106.519 L 144.722 127.775 L 173.237 210.316 L 342.234 251.736 L 131.351 182.283 L 143.588 118.051 L 263.191 35.534 L 233.465 43.516 L 284.601 69.060 L 176.466 162.110 L 48.067 147.858 L 188.386 30.262 L 244.646 235.585 L 58.806 125.177 L 114.136 213.657 L 196.424 234.262 L 355.723 265.661 L 390.591 261.533 L 104.693 78.957 L 41.193 81.473 L 180.264 34.373 L 200.676 215.164 L 99.447 51.912 L 100.153 90.099 L 288.843 65.087 L 35.851 102.188 L 190.528 156.553 L 327.684 251.076 L 293.146 247.933 L 387.428 251.808 L 194.538 123.697 L 106.416 175.429 L 40.782 81.474 L 202.853 217.010 L 318.612 42.104 L 368.097 50.847 L 302.195 251.325 L 295.387 65.861 L 225.455 37.570 L 238.227 252.296 L 71.444 113.188 L 228.395 32.430 L 315.214 41.116 L 47.502 154.763 L 255.231 246.128 L 233.908 80.452 L 223.399 92.788 L 167.623 31.309 L 102.541 50.195 L 56.190 124.516 L 42.199 93.353 L 215.630 43.647 L 218.180 117.579 L 326.002 250.425 L 345.989 67.512 L 373.891 52.245 L 274.932 246.816 L 222.345 30.039 L 262.690 60.220 L 306.030 263.607 L 382.823 257.769 L 158.256 156.074 L 230.825 106.322 L 173.604 29.698 L 229.167 230.551 L 217.062 29.884 L 305.829 70.284 L 267.439 96.045 L 296.854 237.308 L 193.963 78.448 L 390.819 264.056 L 125.091 55.801 L 265.251 99.524 L 337.297 247.673 L 140.442 91.530 L 91.135 78.221 L 379.683 240.074 L 193.050 189.844 L 199.887 237.051 L 274.923 251.412 L 341.305 269.105 L 46.681 152.956 L 260.638 246.638 L 295.775 244.990 L 389.907 252.214 L 179.439 152.381 L 135.160 223.588 L 51.783 119.038 L 219.261 30.305 L 230.300 46.020 L 396.379 269.444 L 250.044 86.630 L 233.237 228.542 L 141.963 41.737 L 92.729 120.382 L 69.763 185.762 L 199.418 137.682 L 59.583 130.991 L 42.865 111.244 L 292.629 250.035 L 265.703 248.048 L 227.509 107.765 L 85.090 170.479 L 339.179 215.974 L 90.478 200.079 L 112.695 194.480 L 45.313 138.159 L 58.782 69.509 L 190.841 92.485 L 297.085 38.311 L 243.172 252.502 L 323.064 75.029 L 127.438 93.667 L 299.795 265.647 L 230.393 38.183 L 301.698 38.827 L 145.726 129.919 L 181.767 30.826 L 239.181 97.326 L 211.371 29.237 L 200.583 71.633 L 267.456 240.810 L 260.806 73.038 L 321.256 43.078 L 235.039 107.992 L 322.604 251.582 L 98.934 167.762 L 163.982 215.710 L 315.205 231.632 L 41.732 89.083 L 101.243 148.052 L 369.847 261.988 L 40.877 129.738 L 390.006 255.176 L 83.522 111.786 L 245.677 84.258 L 184.026 194.800 L 314.613 68.712 L 196.111 107.778 L 192.640 76.085 L 244.395 239.157 L 273.091 90.797 L 213.148 209.915 L 181.545 29.030 L 62.328 117.827 L 341.493 211.620 L 382.301 270.810 L 55.105 154.661 L 289.761 261.128 L 215.014 119.710 L 29.695 90.921 L 353.191 235.454 L 241.911 240.983 L 344.560 67.327 L 343.309 54.570 L 315.614 232.994 L 127.975 44.081 L 323.568 251.527 L 25.384 95.378 L 232.730 30.413 L 247.511 58.549 L 338.679 267.723 L 375.778 259.307 L 205.290 34.613 L 194.367 72.753 L 218.118 116.479 L 218.515 52.778 L 288.665 260.289 L 225.177 221.221 L 187.265 199.222 L 399.360 262.884 L 180.208 162.965 L 233.327 227.700 L 92.759 110.182 L 313.412 38.097 L 48.379 116.977 L 35.943 97.851 L 190.097 156.444 L 200.879 128.472 L 257.951 251.783 L 182.702 218.015 L 103.878 179.035 L 73.113 157.983 L 214.130 119.595 L 94.504 52.645 L 174.810 162.123 L 184.681 158.848 L 180.565 29.199 L 77.623 59.971 L 192.914 113.143 L 51.298 73.917 L 182.938 163.420 L 207.174 63.093 L 57.941 70.092 L 329.937 216.798 L 75.740 129.493 L 339.064 47.092 L 51.713 126.250 L 204.270 40.623 L 60.776 113.439 L 227.643 107.523 L 66.729 150.048 L 234.567 33.816 L 323.456 57.001 L 267.415 39.545 L 263.170 55.629 L 191.873 186.948 L 158.546 219.240 L 169.672 208.385 L 370.036 249.870 L 377.093 244.856 L 206.177 26.047 L 164.474 205.448 L 355.627 251.702 L 190.833 76.377 L 129.141 184.148 L 242.962 252.552 L 323.578 75.675 L 125.630 91.435 L 83.181 195.665 L 160.691 162.736 L 216.067 107.065 L 128.791 143.122 L 240.691 252.551 L 215.844 80.606 L 240.192 98.105 L 212.013 29.367 L 196.672 94.659 L 309.620 55.983 L 317.445 251.780 L 103.462 172.096 L 41.984 105.132 L 271.631 249.073 L 232.292 43.202 L 317.917 53.266 L 185.832 208.013 L 166.372 177.674 L 129.932 63.776 L 269.561 258.161 L 156.367 219.226 L 31.418 93.832 L 282.472 241.808 L 223.526 31.079 L 327.268 216.003 L 208.982 39.990 L 252.283 252.165 L 245.004 83.753 L 188.901 198.256 L 224.979 243.078 L 225.943 110.705 L 111.629 50.040 L 89.380 97.061 L 118.619 61.574 L 224.189 89.679 L 203.237 224.984 L 191.684 80.496 L 245.197 250.397 L 218.200 61.738 L 305.844 251.800 L 203.183 42.625 L 228.501 33.176 L 344.812 45.317 L 156.175 149.130 L 201.182 69.878 L 100.429 92.600 L 331.970 212.871 L 126.301 46.204 L 334.625 238.416 L 102.986 171.644 L 46.258 89.534 L 205.771 26.195 L 192.295 219.731 L 29.526 93.137 L 111.491 110.344 L 396.547 263.894 L 270.722 241.364 L 185.366 79.846 L 165.053 31.916 L 176.857 184.413 L 232.415 237.144 L 222.626 31.030 L 333.001 212.424 L 72.574 121.060 L 275.036 76.218 L 110.358 78.562 L 378.251 233.956 L 346.626 66.349 L 281.497 92.788 L 202.692 117.332 L 146.639 204.505 L 34.239 88.432 L 303.418 251.808 L 149.910 190.582 L 335.253 267.671 L 305.320 251.805 L 132.149 43.368 L 263.589 92.083 L 202.999 229.911 L 37.872 126.164 L 286.093 39.101 L 53.135 75.388 L 313.786 81.127 L 64.684 67.053 L 233.825 31.843 L 365.272 245.791 L 176.870 212.224 L 380.626 239.017 L 211.214 194.123 L 299.872 37.879 L 298.527 250.874 L 213.693 229.612 L 245.635 239.516 L 344.130 46.798 L 102.690 196.886 L 28.489 94.423 L 246.725 38.813 L 194.266 155.240 L 373.700 260.853 L 288.749 59.882 L 96.214 151.790 L 104.850 67.212 L 332.568 250.028 L 197.307 29.062 L 141.640 41.561 L 251.392 236.217 L 208.929 102.636 L 111.969 63.907 L 260.939 244.755 L 232.664 57.709 L 283.348 52.349 L 118.445 64.030 L 219.906 108.340 L 214.097 202.258 L 236.611 45.392 L 171.152 177.324 L 67.905 64.636 L 43.239 79.919 L 24.456 102.292 L 302.040 251.816 L 330.946 57.718 L 89.009 74.903 L 211.913 108.956 L 170.489 206.907 L 100.237 141.725 L 86.227 93.658 L 370.023 229.567 L 180.667 111.180 L 269.472 255.970 L 72.684 171.352 L 235.596 101.356 L 34.072 127.067 L 187.638 116.929 L 109.613 77.533 L 36.819 85.110 L 20.000 103.338 L 311.646 54.562 L 201.198 176.301 L 107.325 64.500 L 319.355 232.081 L 152.206 37.049 L 194.219 220.608 L 292.706 68.486 L 25.129 116.663 L 215.864 213.549 L 201.399 175.848 L 265.730 98.705 L 333.573 237.684 L 284.382 38.241 L 377.509 246.562 L 166.691 154.132 L 373.688 230.244 L 366.572 222.322 L 235.797 33.454 L 330.819 39.503 L 50.613 130.100 L 116.353 46.159 L 116.463 89.264 L 203.200 205.287 L 146.327 89.497 L 320.608 54.375 L 215.735 80.860 L 226.675 100.906 L 105.419 160.097 L 40.038 83.115 L 374.947 229.133 L 176.082 180.728 L 189.976 212.338 L 73.686 81.628 L 319.165 267.293 L 102.524 134.430 L 61.223 148.591 L 327.953 251.035 L 284.328 250.394 L 224.767 32.340 L 306.867 46.204 L 95.624 116.804 L 276.855 262.897 L 91.142 180.719 L 113.032 66.298 L 217.178 85.432 L 66.371 97.353 L 259.426 71.758 L 29.849 89.189 L 333.298 223.308 L 45.513 106.739 L 71.454 129.052 L 194.738 146.179 L 219.559 240.325 L 205.570 115.554 L 141.125 99.379 L 101.180 170.021 L 77.636 62.631 L 179.585 103.957 L 47.977 147.762 L 190.695 29.626 L 193.143 27.299 L 275.785 240.058 L 268.188 246.555 L 209.658 128.983 L 169.117 31.330 L 169.041 32.795 L 313.961 231.585 L 29.414 120.591 L 235.847 46.313 L 368.454 271.582 L 203.565 77.441 L 176.997 108.172 L 229.796 236.181 L 232.730 235.572 L 218.476 230.710 L 149.032 37.429 L 230.696 48.399 L 37.401 130.644 L 318.050 38.592 L 243.555 105.469 L 51.964 116.488 L 176.026 29.635 L 116.874 75.643 L 339.164 244.283 L 164.192 31.505 L 344.405 251.842 L 45.760 78.012 L 272.431 249.754 L 191.368 154.539 L 228.519 251.330 L 186.562 130.626 L 320.712 262.877 L 224.723 30.996 L 331.372 212.818 L 181.745 28.936 L 154.824 192.786 L 42.500 82.669 L 270.066 38.348 L 35.203 84.840 L 292.710 251.539 L 265.455 250.583 L 290.753 68.644 L 35.654 87.353 L 156.954 199.612 L 169.101 224.155 L 215.312 240.494 L 323.593 76.525 L 133.581 92.004 L 209.237 92.037 L 117.189 176.758 L 305.489 251.680 L 149.525 41.508 L 333.072 268.242 L 248.951 249.010 L 230.390 81.828 L 205.834 105.294 L 110.673 67.308 L 223.013 49.503 L 31.665 99.695 L 211.895 63.047 L 220.737 36.794 L 84.606 102.794 L 108.952 110.435 L 316.835 267.040 L 56.826 129.289 L 50.210 78.126 L 151.871 166.330 L 352.607 251.910 L 251.840 29.280 L 156.860 218.696 L 235.446 236.395 L 228.608 35.653 L 104.155 126.990 L 355.111 265.627 L 390.708 256.120 L 238.410 232.820 L 131.835 189.160 L 274.807 251.914 L 308.037 263.970 L 288.593 85.559 L 387.002 268.613 L 181.545 29.574 L 148.633 189.174 L 379.723 236.062 L 189.926 174.369 L 353.384 270.223 L 170.797 175.843 L 72.443 62.481 L 379.369 236.169 L 179.622 168.488 L 398.701 258.499 L 121.292 131.414 L 199.765 233.206 L 231.989 104.640 L 304.092 63.044 L 241.332 35.293 L 216.897 89.911 L 190.875 27.535 L 161.107 34.405 L 182.773 162.969 L 210.450 69.702 L 327.370 75.361 L 243.291 251.768 L 261.410 88.472 L 290.143 36.852 L 234.416 33.393 L 335.265 39.892 L 82.052 143.486 L 73.895 122.671 L 338.826 46.902 L 51.411 127.049 L 187.827 41.450 L 126.273 170.456 L 253.876 252.020 L 295.033 64.177 L 223.834 30.798 L 379.196 240.438 L 147.586 132.928 L 149.854 197.308 L 259.821 253.905 L 304.272 61.858 L 333.995 46.644 L 164.221 31.961 L 112.419 46.324 L 51.267 142.509 L 69.936 136.691 L 240.696 97.527 L 205.286 28.451 L 280.933 258.343 L 131.397 88.090 L 51.022 165.320 L 329.865 52.610 L 220.220 111.865 L 183.599 186.190 L 313.268 264.095 L 78.231 136.727 L 266.090 51.545 L 252.590 252.051 L 249.942 82.613 L 193.081 154.095 L 234.326 243.663 L 191.034 106.295 L 284.041 263.826 L 124.329 89.243" fill="none" stroke="#EC008C" stroke-width="1" vector-effect="non-scaling-stroke"/></svg>