<svg xmlns="http://www.w3.org/2000/svg" viewBox="-8.000000000000002 229 76 64" width="76" height="64" shape-rendering="geometricPrecision"><rect x="-8.000000000000002" y="229" width="76" height="64" fill="#0b0f14"/><path d="M 20.000 277.000 L 24.000 277.000 L 24.000 281.000 L 20.000 281.000 L 20.000 285.000 L 16.000 285.000 L 16.000 281.000 L 12.000 281.000 L 12.000 285.000 L 8.000 285.000 L 8.000 281.000 L 12.000 281.000 L 12.000 277.000 L 8.000 277.000 L 8.000 273.000 L 4.000 273.000 L 4.000 277.000 L -0.000 277.000 L -0.000 273.000 L 4.000 273.000 L 4.000 269.000 L 8.000 269.000 L 8.000 273.000 L 12.000 273.000 L 12.000 269.000 L 8.000 269.000 L 8.000 265.000 L 12.000 265.000 L 12.000 261.000 L 8.000 261.000 L 8.000 257.000 L 4.000 257.000 L 4.000 261.000 L -0.000 261.000 L -0.000 257.000 L 4.000 257.000 L 4.000 253.000 L 8.000 253.000 L 8.000 257.000 L 12.000 257.000 L 12.000 253.000 L 16.000 253.000 L 16.000 257.000 L 12.000 257.000 L 12.000 261.000 L 16.000 261.000 L 16.000 265.000 L 20.000 265.000 L 20.000 261.000 L 16.000 261.000 L 16.000 257.000 L 20.000 257.000 L 20.000 253.000 L 24.000 253.000 L 24.000 257.000 L 28.000 257.000 L 28.000 253.000 L 24.000 253.000 L 24.000 249.000 L 28.000 249.000 L 28.000 245.000 L 24.000 245.000 L 24.000 241.000 L 20.000 241.000 L 20.000 245.000 L 16.000 245.000 L 16.000 241.000 L 20.000 241.000 L 20.000 237.000 L 24.000 237.000 L 24.000 241.000 L 28.000 241.000 L 28.000 237.000 L 32.000 237.000 L 32.000 241.000 L 28.000 241.000 L 28.000 245.000 L 32.000 245.000 L 32.000 249.000 L 36.000 249.000 L 36.000 245.000 L 40.000 245.000 L 40.000 249.000 L 36.000 249.000 L 36.000 253.000 L 32.000 253.000 L 32.000 249.000 L 28.000 249.000 L 28.000 253.000 L 32.000 253.000 L 32.000 257.000 L 28.000 257.000 L 28.000 261.000 L 32.000 261.000 L 32.000 265.000 L 36.000 265.000 L 36.000 261.000 L 32.000 261.000 L 32.000 257.000 L 36.000 257.000 L 36.000 253.000 L 40.000 253.000 L 40.000 257.000 L 44.000 257.000 L 44.000 253.000 L 48.000 253.000 L 48.000 257.000 L 44.000 257.000 L 44.000 261.000 L 48.000 261.000 L 48.000 265.000 L 52.000 265.000 L 52.000 261.000 L 48.000 261.000 L 48.000 257.000 L 52.000 257.000 L 52.000 253.000 L 56.000 253.000 L 56.000 257.000 L 60.000 257.000 L 60.000 253.000 L 56.000 253.000 L 56.000 249.000 L 60.000 249.000 L 60.000 245.000 L 56.000 245.000 L 56.000 241.000 L 52.000 241.000 L 52.000 245.000" fill="none" stroke="#00AEEF" stroke-width="1" vector-effect="non-scaling-stroke"/><path d="M 20.000 277.000 L 24.000 277.000 L 24.000 281.000 L 20.000 281.000 L 20.000 285.000 L 16.000 285.000 L 16.000 281.000 L 12.000 281.000 L 12.000 285.000 L 8.000 285.000 L 8.000 281.000 L 12.000 281.000 L 12.000 277.000 L 8.000 277.000 L 8.000 273.000 L 4.000 273.000 L 4.000 277.000 L -0.000 277.000 L -0.000 273.000 L 4.000 273.000 L 4.000 269.000 L 8.000 269.000 L 8.000 273.000 L 12.000 273.000 L 12.000 269.000 L 8.000 269.000 L 8.000 265.000 L 12.000 265.000 L 12.000 261.000 L 8.000 261.000 L 8.000 257.000 L 4.000 257.000 L 4.000 261.000 L -0.000 261.000 L -0.000 257.000 L 4.000 257.000 L 4.000 253.000 L 8.000 253.000 L 8.000 257.000 L 12.000 257.000 L 12.000 253.000 L 16.000 253.000 L 16.000 257.000 L 12.000 257.000 L 12.000 261.000 L 16.000 261.000 L 16.000 265.000 L 20.000 265.000 L 20.000 261.000 L 16.000 261.000 L 16.000 257.000 L 20.000 257.000 L 20.000 253.000 L 24.000 253.000 L 24.000 257.000 L 28.000 257.000 L 28.000 253.000 L 24.000 253.000 L 24.000 249.000 L 28.000 249.000 L 28.000 245.000 L 24.000 245.000 L 24.000 241.000 L 20.000 241.000 L 20.000 245.000 L 16.000 245.000 L 16.000 241.000 L 20.000 241.000 L 20.000 237.000 L 24.000 237.000 L 24.000 241.000 L 28.000 241.000 L 28.000 237.000 L 32.000 237.000 L 32.000 241.000 L 28.000 241.000 L 28.000 245.000 L 32.000 245.000 L 32.000 249.000 L 36.000 249.000 L 36.000 245.000 L 40.000 245.000 L 40.000 249.000 L 36.000 249.000 L 36.000 253.000 L 32.000 253.000 L 32.000 249.000 L 28.000 249.000 L 28.000 253.000 L 32.000 253.000 L 32.000 257.000 L 28.000 257.000 L 28.000 261.000 L 32.000 261.000 L 32.000 265.000 L 36.000 265.000 L 36.000 261.000 L 32.000 261.000 L 32.000 257.000 L 36.000 257.000 L 36.000 253.000 L 40.000 253.000 L 40.000 257.000 L 44.000 257.000 L 44.000 253.000 L 48.000 253.000 L 48.000 257.000 L 44.000 257.000 L 44.000 261.000 L 48.000 261.000 L 48.000 265.000 L 52.000 265.000 L 52.000 261.000 L 48.000 261.000 L 48.000 257.000 L 52.000 257.000 L 52.000 253.000 L 56.000 253.000 L 56.000 257.000 L 60.000 257.000 L 60.000 253.000 L 56.000 253.000 L 56.000 249.000 L 60.000 249.000 L 60.000 245.000 L 56.000 245.000 L 56.000 241.000 L 52.000 241.000 L 52.000 245.000" fill="none" stroke="#EC008C" stroke-width="1" vector-effect="non-scaling-stroke"/><path d="M 20.000 277.000 L 24.000 277.000 L 24.000 281.000 L 20.000 281.000 L 20.000 285.000 L 16.000 285.000 L 16.000 281.000 L 12.000 281.000 L 12.000 285.000 L 8.000 285.000 L 8.000 281.000 L 12.000 281.000 L 12.000 277.000 L 8.000 277.000 L 8.000 273.000 L 4.000 273.000 L 4.000 277.000 L -0.000 277.000 L -0.000 273.000 L 4.000 273.000 L 4.000 269.000 L 8.000 269.000 L 8.000 273.000 L 12.000 273.000 L 12.000 269.000 L 8.000 269.000 L 8.000 265.000 L 12.000 265.000 L 12.000 261.000 L 8.000 261.000 L 8.000 257.000 L 4.000 257.000 L 4.000 261.000 L -0.000 261.000 L -0.000 257.000 L 4.000 257.000 L 4.000 253.000 L 8.000 253.000 L 8.000 257.000 L 12.000 257.000 L 12.000 253.000 L 16.000 253.000 L 16.000 257.000 L 12.000 257.000 L 12.000 261.000 L 16.000 261.000 L 16.000 265.000 L 20.000 265.000 L 20.000 261.000 L 16.000 261.000 L 16.000 257.000 L 20.000 257.000 L 20.000 253.000 L 24.000 253.000 L 24.000 257.000 L 28.000 257.000 L 28.000 253.000 L 24.000 253.000 L 24.000 249.000 L 28.000 249.000 L 28.000 245.000 L 24.000 245.000 L 24.000 241.000 L 20.000 241.000 L 20.000 245.000 L 16.000 245.000 L 16.000 241.000 L 20.000 241.000 L 20.000 237.000 L 24.000 237.000 L 24.000 241.000 L 28.000 241.000 L 28.000 237.000 L 32.000 237.000 L 32.000 241.000 L 28.000 241.000 L 28.000 245.000 L 32.000 245.000 L 32.000 249.000 L 36.000 249.000 L 36.000 245.000 L 40.000 245.000 L 40.000 249.000 L 36.000 249.000 L 36.000 253.000 L 32.000 253.000 L 32.000 249.000 L 28.000 249.000 L 28.000 253.000 L 32.000 253.000 L 32.000 257.000 L 28.000 257.000 L 28.000 261.000 L 32.000 261.000 L 32.000 265.000 L 36.000 265.000 L 36.000 261.000 L 32.000 261.000 L 32.000 257.000 L 36.000 257.000 L 36.000 253.000 L 40.000 253.000 L 40.000 257.000 L 44.000 257.000 L 44.000 253.000 L 48.000 253.000 L 48.000 257.000 L 44.000 257.000 L 44.000 261.000 L 48.000 261.000 L 48.000 265.000 L 52.000 265.000 L 52.000 261.000 L 48.000 261.000 L 48.000 257.000 L 52.000 257.000 L 52.000 253.000 L 56.000 253.000 L 56.000 257.000 L 60.000 257.000 L 60.000 253.000 L 56.000 253.000 L 56.000 249.000 L 60.000 249.000 L 60.000 245.000 L 56.000 245.000 L 56.000 241.000 L 52.000 241.000 L 52.000 245.000" fill="none" stroke="#FFF200" stroke-width="1" vector-effect="non-scaling-stroke"/><path d="M 20.000 277.000 L 24.000 277.000 L 24.000 281.000 L 20.000 281.000 L 20.000 285.000 L 16.000 285.000 L 16.000 281.000 L 12.000 281.000 L 12.000 285.000 L 8.000 285.000 L 8.000 281.000 L 12.000 281.000 L 12.000 277.000 L 8.000 277.000 L 8.000 273.000 L 4.000 273.000 L 4.000 277.000 L -0.000 277.000 L -0.000 273.000 L 4.000 273.000 L 4.000 269.000 L 8.000 269.000 L 8.000 273.000 L 12.000 273.000 L 12.000 269.000 L 8.000 269.000 L 8.000 265.000 L 12.000 265.000 L 12.000 261.000 L 8.000 261.000 L 8.000 257.000 L 4.000 257.000 L 4.000 261.000 L -0.000 261.000 L -0.000 257.000 L 4.000 257.000 L 4.000 253.000 L 8.000 253.000 L 8.000 257.000 L 12.000 257.000 L 12.000 253.000 L 16.000 253.000 L 16.000 257.000 L 12.000 257.000 L 12.000 261.000 L 16.000 261.000 L 16.000 265.000 L 20.000 265.000 L 20.000 261.000 L 16.000 261.000 L 16.000 257.000 L 20.000 257.000 L 20.000 253.000 L 24.000 253.000 L 24.000 257.000 L 28.000 257.000 L 28.000 253.000 L 24.000 253.000 L 24.000 249.000 L 28.000 249.000 L 28.000 245.000 L 24.000 245.000 L 24.000 241.000 L 20.000 241.000 L 20.000 245.000 L 16.000 245.000 L 16.000 241.000 L 20.000 241.000 L 20.000 237.000 L 24.000 237.000 L 24.000 241.000 L 28.000 241.000 L 28.000 237.000 L 32.000 237.000 L 32.000 241.000 L 28.000 241.000 L 28.000 245.000 L 32.000 245.000 L 32.000 249.000 L 36.000 249.000 L 36.000 245.000 L 40.000 245.000 L 40.000 249.000 L 36.000 249.000 L 36.000 253.000 L 32.000 253.000 L 32.000 249.000 L 28.000 249.000 L 28.000 253.000 L 32.000 253.000 L 32.000 257.000 L 28.000 257.000 L 28.000 261.000 L 32.000 261.000 L 32.000 265.000 L 36.000 265.000 L 36.000 261.000 L 32.000 261.000 L 32.000 257.000 L 36.000 257.000 L 36.000 253.000 L 40.000 253.000 L 40.000 257.000 L 44.000 257.000 L 44.000 253.000 L 48.000 253.000 L 48.000 257.000 L 44.000 257.000 L 44.000 261.000 L 48.000 261.000 L 48.000 265.000 L 52.000 265.000 L 52.000 261.000 L 48.000 261.000 L 48.000 257.000 L 52.000 257.000 L 52.000 253.000 L 56.000 253.000 L 56.000 257.000 L 60.000 257.000 L 60.000 253.000 L 56.000 253.000 L 56.000 249.000 L 60.000 249.000 L 60.000 245.000 L 56.000 245.000 L 56.000 241.000 L 52.000 241.000 L 52.000 245.000" fill="none" stroke="#111111" stroke-width="1" vector-effect="non-scaling-stroke"/></svg>