<svg xmlns="http://www.w3.org/2000/svg" viewBox="86.9160338227588 63.04916257572299 249.4257973958025 173.4508374237373" width="249.4257973958025" height="173.4508374237373" shape-rendering="geometricPrecision"><rect x="86.9160338227588" y="63.04916257572299" width="249.4257973958025" height="173.4508374237373" fill="#0b0f14"/><path d="M 210.000 228.500 L 211.951 228.481 L 213.901 228.446 L 215.849 228.395 L 217.795 228.329 L 219.739 228.247 L 221.679 228.149 L 223.616 228.036 L 225.548 227.908 L 227.476 227.763 L 229.399 227.604 L 231.316 227.429 L 233.227 227.238 L 235.131 227.033 L 237.028 226.811 L 238.917 226.575 L 240.798 226.324 L 242.671 226.057 L 244.534 225.775 L 246.387 225.478 L 248.231 225.166 L 250.063 224.839 L 251.885 224.498 L 253.695 224.141 L 255.493 223.770 L 257.278 223.384 L 259.051 222.984 L 260.810 222.569 L 262.555 222.140 L 264.285 221.697 L 266.001 221.239 L 267.701 220.767 L 269.386 220.282 L 271.054 219.782 L 272.706 219.269 L 274.341 218.741 L 275.958 218.201 L 277.558 217.646 L 279.139 217.079 L 280.701 216.498 L 282.244 215.904 L 283.768 215.297 L 285.272 214.677 L 286.755 214.044 L 288.218 213.399 L 289.659 212.741 L 291.079 212.070 L 292.478 211.388 L 293.854 210.693 L 295.207 209.987 L 296.538 209.268 L 297.845 208.538 L 299.129 207.796 L 300.388 207.043 L 301.624 206.279 L 302.835 205.503 L 304.021 204.717 L 305.182 203.920 L 306.317 203.112 L 307.426 202.294 L 308.510 201.465 L 309.567 200.627 L 310.597 199.778 L 311.601 198.920 L 312.577 198.052 L 313.526 197.174 L 314.448 196.288 L 315.341 195.392 L 316.206 194.487 L 317.043 193.573 L 317.852 192.651 L 318.632 191.721 L 319.382 190.782 L 320.104 189.836 L 320.796 188.881 L 321.459 187.919 L 322.092 186.950 L 322.696 185.973 L 323.269 184.989 L 323.812 183.998 L 324.326 183.001 L 324.808 181.997 L 325.260 180.987 L 325.682 179.971 L 326.073 178.949 L 326.433 177.921 L 326.762 176.888 L 327.060 175.850 L 327.327 174.806 L 327.563 173.758 L 327.768 172.705 L 327.942 171.648 L 328.085 170.586 L 328.196 169.520 L 328.276 168.451 L 328.324 167.378 L 328.342 166.302 L 328.328 165.222 L 328.283 164.140 L 328.206 163.054 L 328.099 161.966 L 327.960 160.876 L 327.790 159.784 L 327.588 158.690 L 327.356 157.594 L 327.093 156.497 L 326.799 155.398 L 326.474 154.299 L 326.119 153.198 L 325.733 152.097 L 325.316 150.996 L 324.869 149.894 L 324.392 148.793 L 323.885 147.692 L 323.347 146.591 L 322.780 145.491 L 322.184 144.392 L 321.557 143.293 L 320.902 142.197 L 320.217 141.102 L 319.504 140.008 L 318.761 138.917 L 317.990 137.828 L 317.191 136.741 L 316.364 135.657 L 315.509 134.575 L 314.626 133.497 L 313.716 132.422 L 312.778 131.350 L 311.814 130.282 L 310.823 129.218 L 309.806 128.158 L 308.762 127.102 L 307.693 126.051 L 306.598 125.005 L 305.478 123.963 L 304.333 122.926 L 303.164 121.895 L 301.970 120.869 L 300.752 119.849 L 299.511 118.835 L 298.246 117.827 L 296.958 116.826 L 295.648 115.830 L 294.316 114.842 L 292.961 113.860 L 291.585 112.886 L 290.188 111.918 L 288.770 110.958 L 287.331 110.006 L 285.873 109.062 L 284.395 108.125 L 282.898 107.197 L 281.381 106.277 L 279.847 105.366 L 278.294 104.463 L 276.724 103.569 L 275.137 102.684 L 273.532 101.809 L 271.912 100.943 L 270.276 100.086 L 268.624 99.239 L 266.957 98.402 L 265.275 97.575 L 263.580 96.758 L 261.871 95.952 L 260.148 95.156 L 258.413 94.371 L 256.665 93.597 L 254.906 92.833 L 253.135 92.081 L 251.353 91.340 L 249.561 90.610 L 247.759 89.892 L 245.948 89.186 L 244.127 88.491 L 242.299 87.809 L 240.462 87.138 L 238.617 86.480 L 236.766 85.834 L 234.908 85.201 L 233.043 84.580 L 231.174 83.971 L 229.299 83.376 L 227.420 82.793 L 225.536 82.224 L 223.650 81.667 L 221.760 81.124 L 219.867 80.594 L 217.973 80.078 L 216.076 79.575 L 214.179 79.086 L 212.281 78.611 L 210.384 78.149 L 208.486 77.701 L 206.590 77.268 L 204.695 76.848 L 202.802 76.443 L 200.911 76.051 L 199.024 75.674 L 197.139 75.312 L 195.259 74.964 L 193.383 74.630 L 191.513 74.311 L 189.647 74.006 L 187.788 73.716 L 185.935 73.441 L 184.088 73.181 L 182.250 72.935 L 180.419 72.705 L 178.596 72.489 L 176.782 72.288 L 174.978 72.102 L 173.183 71.931 L 171.399 71.776 L 169.625 71.635 L 167.862 71.509 L 166.112 71.399 L 164.373 71.303 L 162.647 71.223 L 160.933 71.158 L 159.234 71.108 L 157.548 71.073 L 155.876 71.054 L 154.220 71.049 L 152.578 71.060 L 150.953 71.086 L 149.343 71.127 L 147.750 71.183 L 146.173 71.254 L 144.614 71.340 L 143.073 71.442 L 141.550 71.558 L 140.046 71.690 L 138.560 71.836 L 137.094 71.998 L 135.647 72.174 L 134.221 72.366 L 132.815 72.572 L 131.429 72.793 L 130.065 73.029 L 128.723 73.279 L 127.402 73.544 L 126.104 73.824 L 124.828 74.118 L 123.575 74.427 L 122.345 74.750 L 121.139 75.087 L 119.956 75.439 L 118.798 75.805 L 117.664 76.185 L 116.555 76.579 L 115.471 76.987 L 114.412 77.409 L 113.379 77.845 L 112.372 78.294 L 111.391 78.757 L 110.436 79.234 L 109.507 79.724 L 108.606 80.227 L 107.732 80.743 L 106.884 81.273 L 106.065 81.816 L 105.273 82.371 L 104.509 82.940 L 103.773 83.521 L 103.066 84.114 L 102.387 84.720 L 101.736 85.338 L 101.115 85.969 L 100.522 86.611 L 99.958 87.266 L 99.424 87.932 L 98.919 88.610 L 98.444 89.300 L 97.998 90.000 L 97.582 90.713 L 97.196 91.436 L 96.840 92.170 L 96.514 92.915 L 96.218 93.671 L 95.952 94.437 L 95.716 95.213 L 95.511 96.000 L 95.335 96.797 L 95.191 97.603 L 95.076 98.420 L 94.993 99.246 L 94.939 100.081 L 94.916 100.926 L 94.923 101.779 L 94.961 102.642 L 95.029 103.513 L 95.128 104.393 L 95.257 105.281 L 95.416 106.178 L 95.606 107.082 L 95.825 107.995 L 96.075 108.915 L 96.355 109.842 L 96.665 110.777 L 97.005 111.719 L 97.374 112.668 L 97.773 113.623 L 98.202 114.585 L 98.660 115.554 L 99.147 116.528 L 99.664 117.509 L 100.210 118.495 L 100.784 119.487 L 101.387 120.485 L 102.019 121.487 L 102.679 122.495 L 103.367 123.507 L 104.084 124.524 L 104.828 125.546 L 105.599 126.571 L 106.399 127.601 L 107.225 128.634 L 108.078 129.671 L 108.958 130.711 L 109.864 131.755 L 110.797 132.801 L 111.755 133.851 L 112.739 134.903 L 113.749 135.957 L 114.784 137.013 L 115.843 138.071 L 116.927 139.131 L 118.036 140.193 L 119.168 141.256 L 120.325 142.320 L 121.504 143.385 L 122.707 144.450 L 123.932 145.516 L 125.180 146.583 L 126.450 147.649 L 127.741 148.715 L 129.054 149.781 L 130.388 150.847 L 131.743 151.911 L 133.118 152.975 L 134.512 154.037 L 135.927 155.098 L 137.360 156.158 L 138.813 157.215 L 140.284 158.271 L 141.772 159.324 L 143.279 160.375 L 144.802 161.424 L 146.343 162.469 L 147.899 163.512 L 149.472 164.551 L 151.060 165.587 L 152.664 166.619 L 154.282 167.647 L 155.914 168.671 L 157.560 169.691 L 159.220 170.707 L 160.892 171.718 L 162.578 172.724 L 164.275 173.725 L 165.983 174.721 L 167.703 175.711 L 169.434 176.696 L 171.174 177.675 L 172.925 178.648 L 174.685 179.615 L 176.453 180.575 L 178.230 181.529 L 180.015 182.477 L 181.807 183.417 L 183.607 184.350 L 185.412 185.276 L 187.224 186.194 L 189.041 187.105 L 190.863 188.008 L 192.690 188.903 L 194.521 189.789 L 196.355 190.668 L 198.192 191.538 L 200.032 192.399 L 201.874 193.251 L 203.718 194.095 L 205.563 194.929 L 207.408 195.754 L 209.254 196.569 L 211.099 197.375 L 212.944 198.171 L 214.787 198.957 L 216.628 199.733 L 218.467 200.498 L 220.303 201.254 L 222.137 201.998 L 223.966 202.732 L 225.791 203.455 L 227.611 204.168 L 229.426 204.869 L 231.236 205.559 L 233.039 206.237 L 234.836 206.904 L 236.626 207.559 L 238.408 208.203 L 240.182 208.835 L 241.948 209.455 L 243.704 210.062 L 245.452 210.658 L 247.189 211.241 L 248.916 211.811 L 250.632 212.369 L 252.337 212.915 L 254.031 213.447 L 255.712 213.967 L 257.381 214.474 L 259.036 214.968 L 260.678 215.448 L 262.307 215.916 L 263.921 216.370 L 265.520 216.810 L 267.104 217.237 L 268.673 217.651 L 270.225 218.051 L 271.762 218.437 L 273.281 218.809 L 274.783 219.168 L 276.268 219.512 L 277.735 219.843 L 279.183 220.159 L 280.613 220.461 L 282.024 220.750 L 283.415 221.023 L 284.786 221.283 L 286.138 221.528 L 287.468 221.759 L 288.778 221.976 L 290.067 222.178 L 291.334 222.366 L 292.579 222.539 L 293.802 222.697 L 295.003 222.841 L 296.180 222.971 L 297.335 223.086 L 298.466 223.186 L 299.574 223.271 L 300.657 223.342 L 301.716 223.398 L 302.751 223.440 L 303.761 223.467 L 304.745 223.479 L 305.705 223.476 L 306.639 223.459 L 307.547 223.427 L 308.429 223.381 L 309.284 223.319 L 310.113 223.244 L 310.916 223.153 L 311.691 223.048 L 312.440 222.928 L 313.161 222.794 L 313.854 222.646 L 314.520 222.483 L 315.159 222.305 L 315.769 222.113 L 316.351 221.907 L 316.905 221.686 L 317.430 221.451 L 317.927 221.202 L 318.395 220.939 L 318.834 220.662 L 319.244 220.370 L 319.626 220.065 L 319.978 219.746 L 320.301 219.413 L 320.595 219.066 L 320.860 218.705 L 321.095 218.331 L 321.301 217.943 L 321.477 217.542 L 321.623 217.127 L 321.741 216.699 L 321.828 216.258 L 321.886 215.803 L 321.915 215.336 L 321.913 214.855 L 321.883 214.362 L 321.822 213.856 L 321.732 213.337 L 321.613 212.806 L 321.464 212.263 L 321.286 211.707 L 321.078 211.138 L 320.841 210.558 L 320.575 209.966 L 320.279 209.362 L 319.955 208.746 L 319.601 208.119 L 319.219 207.480 L 318.808 206.829 L 318.368 206.168 L 317.900 205.495 L 317.403 204.812 L 316.878 204.117 L 316.325 203.412 L 315.744 202.696 L 315.136 201.970 L 314.499 201.234 L 313.835 200.488 L 313.144 199.731 L 312.426 198.965 L 311.681 198.189 L 310.909 197.404 L 310.111 196.609 L 309.287 195.805 L 308.437 194.992 L 307.560 194.170 L 306.659 193.340 L 305.732 192.501 L 304.780 191.654 L 303.803 190.798 L 302.801 189.934 L 301.776 189.063 L 300.726 188.184 L 299.653 187.297 L 298.556 186.403 L 297.437 185.502 L 296.294 184.594 L 295.129 183.679 L 293.942 182.757 L 292.733 181.829 L 291.502 180.895 L 290.250 179.954 L 288.978 179.008 L 287.685 178.056 L 286.371 177.098 L 285.038 176.136 L 283.686 175.168 L 282.314 174.195 L 280.924 173.217 L 279.515 172.235 L 278.088 171.249 L 276.644 170.258 L 275.183 169.263 L 273.704 168.265 L 272.210 167.263 L 270.699 166.257 L 269.173 165.249 L 267.631 164.237 L 266.075 163.223 L 264.504 162.206 L 262.919 161.186 L 261.321 160.165 L 259.710 159.141 L 258.086 158.116 L 256.450 157.089 L 254.802 156.061 L 253.142 155.031 L 251.472 154.001 L 249.791 152.970 L 248.100 151.938 L 246.400 150.906 L 244.690 149.873 L 242.972 148.841 L 241.245 147.809 L 239.511 146.777 L 237.770 145.746 L 236.021 144.716 L 234.267 143.687 L 232.506 142.659 L 230.740 141.632 L 228.969 140.608 L 227.193 139.585 L 225.414 138.564 L 223.630 137.545 L 221.844 136.529 L 220.055 135.515 L 218.264 134.504 L 216.472 133.496 L 214.678 132.492 L 212.883 131.491 L 211.088 130.493 L 209.294 129.500 L 207.500 128.510 L 205.707 127.524 L 203.916 126.543 L 202.127 125.567 L 200.341 124.595 L 198.558 123.628 L 196.778 122.667 L 195.002 121.710 L 193.231 120.760 L 191.465 119.814 L 189.704 118.875 L 187.949 117.942 L 186.200 117.015 L 184.458 116.095 L 182.724 115.181 L 180.997 114.274 L 179.278 113.374 L 177.568 112.481 L 175.867 111.595 L 174.175 110.717 L 172.494 109.847 L 170.822 108.984 L 169.162 108.129 L 167.513 107.283 L 165.876 106.445 L 164.250 105.615 L 162.638 104.794 L 161.038 103.981 L 159.452 103.178 L 157.879 102.384 L 156.321 101.599 L 154.778 100.823 L 153.249 100.057 L 151.736 99.301 L 150.239 98.554 L 148.758 97.818 L 147.294 97.091 L 145.846 96.375 L 144.416 95.670 L 143.004 94.974 L 141.610 94.290 L 140.234 93.616 L 138.877 92.954 L 137.540 92.302 L 136.222 91.662 L 134.924 91.032 L 133.646 90.415 L 132.388 89.809 L 131.152 89.214 L 129.937 88.631 L 128.743 88.060 L 127.571 87.502 L 126.421 86.955 L 125.294 86.420 L 124.189 85.898 L 123.107 85.388 L 122.049 84.891 L 121.014 84.406 L 120.003 83.934 L 119.016 83.475 L 118.054 83.029 L 117.116 82.595 L 116.203 82.175 L 115.314 81.767 L 114.452 81.373 L 113.614 80.992 L 112.803 80.625 L 112.017 80.271 L 111.258 79.930 L 110.525 79.603 L 109.818 79.289 L 109.138 78.989 L 108.485 78.703 L 107.859 78.430 L 107.260 78.172 L 106.688 77.927 L 106.144 77.696 L 105.628 77.479 L 105.139 77.276 L 104.678 77.086 L 104.245 76.911 L 103.840 76.750 L 103.464 76.603 L 103.116 76.471 L 102.796 76.352 L 102.504 76.247 L 102.241 76.157 L 102.007 76.081 L 101.801 76.019 L 101.624 75.971 L 101.475 75.938 L 101.355 75.918 L 101.264 75.913 L 101.202 75.922 L 101.169 75.946 L 101.164 75.983 L 101.188 76.035 L 101.241 76.101 L 101.323 76.181 L 101.433 76.275 L 101.572 76.383 L 101.740 76.506 L 101.936 76.642 L 102.161 76.793 L 102.414 76.957 L 102.695 77.135 L 103.005 77.328 L 103.343 77.534 L 103.709 77.754 L 104.104 77.988 L 104.526 78.235 L 104.975 78.496 L 105.453 78.771 L 105.958 79.060 L 106.490 79.362 L 107.049 79.677 L 107.636 80.006 L 108.249 80.348 L 108.890 80.703 L 109.556 81.072 L 110.249 81.453 L 110.969 81.848 L 111.714 82.255 L 112.485 82.676 L 113.281 83.109 L 114.103 83.555 L 114.950 84.013 L 115.822 84.484 L 116.719 84.967 L 117.640 85.463 L 118.585 85.971 L 119.554 86.491 L 120.546 87.022 L 121.562 87.566 L 122.602 88.122 L 123.663 88.689 L 124.748 89.268 L 125.854 89.858 L 126.983 90.459 L 128.133 91.072 L 129.305 91.696 L 130.497 92.330 L 131.710 92.976 L 132.944 93.632 L 134.197 94.299 L 135.471 94.976 L 136.763 95.663 L 138.075 96.361 L 139.405 97.068 L 140.753 97.786 L 142.120 98.513 L 143.504 99.249 L 144.905 99.996 L 146.323 100.751 L 147.757 101.516 L 149.207 102.289 L 150.673 103.071 L 152.155 103.862 L 153.651 104.662 L 155.161 105.470 L 156.686 106.286 L 158.225 107.110 L 159.776 107.942 L 161.341 108.782 L 162.917 109.629 L 164.506 110.483 L 166.107 111.345 L 167.718 112.214 L 169.340 113.090 L 170.973 113.972 L 172.615 114.861 L 174.267 115.756 L 175.928 116.657 L 177.597 117.564 L 179.274 118.477 L 180.959 119.396 L 182.652 120.320 L 184.351 121.250 L 186.056 122.184 L 187.767 123.123 L 189.483 124.067 L 191.205 125.016 L 192.931 125.969 L 194.660 126.926 L 196.394 127.886 L 198.130 128.851 L 199.870 129.819 L 201.611 130.791 L 203.354 131.766 L 205.098 132.744 L 206.843 133.724 L 208.589 134.707 L 210.334 135.693 L 212.079 136.681 L 213.822 137.671 L 215.565 138.662 L 217.305 139.656 L 219.042 140.651 L 220.777 141.647 L 222.509 142.644 L 224.236 143.642 L 225.960 144.640 L 227.678 145.639 L 229.392 146.639 L 231.100 147.638 L 232.802 148.637 L 234.497 149.636 L 236.185 150.635 L 237.866 151.633 L 239.539 152.629 L 241.204 153.625 L 242.860 154.620 L 244.507 155.613 L 246.144 156.604 L 247.772 157.594 L 249.388 158.581 L 250.994 159.566 L 252.589 160.549 L 254.172 161.529 L 255.743 162.506 L 257.301 163.480 L 258.846 164.451 L 260.378 165.419 L 261.896 166.383 L 263.400 167.343 L 264.890 168.299 L 266.364 169.251 L 267.823 170.199 L 269.267 171.142 L 270.694 172.081 L 272.105 173.014 L 273.499 173.943 L 274.876 174.866 L 276.235 175.784 L 277.577 176.696 L 278.900 177.603 L 280.204 178.503 L 281.490 179.398 L 282.757 180.286 L 284.003 181.167 L 285.230 182.042 L 286.437 182.910 L 287.623 183.771 L 288.788 184.625 L 289.932 185.472 L 291.054 186.311 L 292.155 187.143 L 293.234 187.967 L 294.290 188.782 L 295.324 189.590 L 296.335 190.389 L 297.323 191.180 L 298.288 191.963 L 299.229 192.736 L 300.146 193.501 L 301.038 194.257 L 301.907 195.003 L 302.751 195.741 L 303.570 196.468 L 304.365 197.187 L 305.134 197.895 L 305.878 198.594 L 306.596 199.282 L 307.288 199.961 L 307.955 200.629 L 308.595 201.286 L 309.209 201.934 L 309.797 202.570 L 310.358 203.196 L 310.893 203.811 L 311.400 204.415 L 311.881 205.008 L 312.335 205.589 L 312.761 206.159 L 313.161 206.718 L 313.532 207.265 L 313.877 207.801 L 314.193 208.325 L 314.482 208.837 L 314.744 209.337 L 314.977 209.824 L 315.183 210.300 L 315.361 210.764 L 315.511 211.215 L 315.633 211.654 L 315.728 212.080 L 315.794 212.494 L 315.832 212.895 L 315.842 213.283 L 315.824 213.659 L 315.778 214.021 L 315.705 214.371 L 315.603 214.708 L 315.473 215.032 L 315.316 215.342 L 315.131 215.640 L 314.918 215.924 L 314.677 216.195 L 314.409 216.452 L 314.113 216.697 L 313.790 216.927 L 313.440 217.145 L 313.062 217.349 L 312.657 217.539 L 312.225 217.716 L 311.766 217.879 L 311.280 218.028 L 310.768 218.164 L 310.229 218.286 L 309.664 218.395 L 309.073 218.489 L 308.456 218.570 L 307.812 218.638 L 307.144 218.691 L 306.449 218.731 L 305.730 218.757 L 304.985 218.769 L 304.215 218.768 L 303.421 218.753 L 302.602 218.724 L 301.759 218.681 L 300.892 218.624 L 300.001 218.554 L 299.087 218.470 L 298.149 218.373 L 297.189 218.262 L 296.205 218.137 L 295.199 217.998 L 294.171 217.846 L 293.121 217.681 L 292.049 217.502 L 290.956 217.309 L 289.841 217.103 L 288.706 216.884 L 287.551 216.652 L 286.375 216.406 L 285.179 216.147 L 283.964 215.874 L 282.730 215.589 L 281.477 215.291 L 280.205 214.979 L 278.915 214.655 L 277.607 214.318 L 276.282 213.968 L 274.940 213.605 L 273.581 213.230 L 272.205 212.842 L 270.813 212.442 L 269.406 212.029 L 267.983 211.604 L 266.546 211.167 L 265.094 210.717 L 263.627 210.256 L 262.147 209.782 L 260.654 209.297 L 259.148 208.800 L 257.629 208.291 L 256.098 207.771 L 254.555 207.239 L 253.001 206.696 L 251.436 206.142 L 249.860 205.576 L 248.275 205.000 L 246.679 204.412 L 245.075 203.814 L 243.462 203.206 L 241.840 202.586 L 240.210 201.956 L 238.573 201.316 L 236.929 200.666 L 235.278 200.006 L 233.621 199.336 L 231.958 198.656 L 230.290 197.967 L 228.617 197.268 L 226.939 196.560 L 225.258 195.842 L 223.573 195.116 L 221.885 194.380 L 220.194 193.636 L 218.501 192.883 L 216.806 192.122 L 215.110 191.352 L 213.413 190.574 L 211.716 189.788 L 210.018 188.995 L 208.321 188.193 L 206.625 187.384 L 204.931 186.568 L 203.238 185.745 L 201.548 184.914 L 199.860 184.077 L 198.176 183.232 L 196.495 182.382 L 194.818 181.525 L 193.146 180.661 L 191.478 179.792 L 189.816 178.917 L 188.160 178.036 L 186.510 177.149 L 184.867 176.257 L 183.230 175.360 L 181.602 174.458 L 179.981 173.551 L 178.369 172.640 L 176.766 171.724 L 175.171 170.804 L 173.587 169.880 L 172.013 168.951 L 170.449 168.019 L 168.896 167.084 L 167.354 166.145 L 165.824 165.203 L 164.306 164.258 L 162.801 163.310 L 161.308 162.359 L 159.829 161.406 L 158.364 160.451 L 156.913 159.494 L 155.476 158.535 L 154.054 157.574 L 152.647 156.612 L 151.256 155.648 L 149.880 154.683 L 148.521 153.718 L 147.179 152.751 L 145.853 151.784 L 144.545 150.817 L 143.255 149.849 L 141.983 148.882 L 140.729 147.915 L 139.493 146.948 L 138.277 145.981 L 137.080 145.016 L 135.903 144.051 L 134.745 143.088 L 133.608 142.126 L 132.491 141.165 L 131.395 140.206 L 130.320 139.249 L 129.267 138.294 L 128.235 137.342 L 127.225 136.392 L 126.238 135.444 L 125.272 134.499 L 124.330 133.558 L 123.410 132.619 L 122.514 131.684 L 121.641 130.753 L 120.791 129.825 L 119.965 128.901 L 119.164 127.981 L 118.387 127.066 L 117.634 126.155 L 116.905 125.249 L 116.202 124.347 L 115.523 123.450 L 114.870 122.559 L 114.242 121.673 L 113.640 120.792 L 113.063 119.918 L 112.512 119.049 L 111.987 118.186 L 111.488 117.329 L 111.015 116.478 L 110.569 115.634 L 110.148 114.797 L 109.755 113.967 L 109.388 113.143 L 109.048 112.327 L 108.734 111.518 L 108.448 110.716 L 108.188 109.922 L 107.955 109.136 L 107.750 108.358 L 107.571 107.588 L 107.420 106.826 L 107.296 106.073 L 107.199 105.328 L 107.129 104.592 L 107.086 103.864 L 107.071 103.146 L 107.083 102.436 L 107.122 101.736 L 107.188 101.045 L 107.281 100.364 L 107.402 99.692 L 107.549 99.030 L 107.724 98.378 L 107.926 97.736 L 108.154 97.104 L 108.410 96.482 L 108.692 95.871 L 109.001 95.270 L 109.336 94.679 L 109.698 94.100 L 110.087 93.531 L 110.501 92.973 L 110.942 92.426 L 111.409 91.891 L 111.902 91.366 L 112.421 90.853 L 112.965 90.351 L 113.535 89.861 L 114.131 89.383 L 114.751 88.916 L 115.396 88.461 L 116.067 88.017 L 116.761 87.586 L 117.481 87.167 L 118.224 86.760 L 118.992 86.365 L 119.783 85.983 L 120.598 85.613 L 121.437 85.255 L 122.299 84.910 L 123.183 84.577 L 124.091 84.257 L 125.020 83.949 L 125.972 83.655 L 126.946 83.373 L 127.942 83.103 L 128.959 82.847 L 129.997 82.604 L 131.056 82.374 L 132.135 82.156 L 133.235 81.952 L 134.355 81.761 L 135.494 81.583 L 136.653 81.418 L 137.831 81.266 L 139.027 81.127 L 140.242 81.002 L 141.476 80.890 L 142.726 80.791 L 143.995 80.706 L 145.280 80.634 L 146.582 80.575 L 147.901 80.529 L 149.235 80.497 L 150.586 80.478 L 151.951 80.472 L 153.332 80.480 L 154.727 80.501 L 156.136 80.535 L 157.559 80.583 L 158.996 80.644 L 160.445 80.718 L 161.908 80.805 L 163.382 80.906 L 164.869 81.020 L 166.367 81.147 L 167.876 81.287 L 169.396 81.440 L 170.926 81.606 L 172.466 81.786 L 174.016 81.978 L 175.574 82.183 L 177.141 82.402 L 178.717 82.633 L 180.300 82.877 L 181.891 83.134 L 183.488 83.403 L 185.093 83.685 L 186.703 83.980 L 188.319 84.287 L 189.940 84.607 L 191.566 84.939 L 193.197 85.284 L 194.831 85.641 L 196.469 86.010 L 198.110 86.391 L 199.754 86.784 L 201.400 87.189 L 203.048 87.606 L 204.697 88.035 L 206.347 88.476 L 207.998 88.928 L 209.649 89.392 L 211.299 89.867 L 212.948 90.353 L 214.597 90.851 L 216.243 91.360 L 217.887 91.880 L 219.529 92.411 L 221.168 92.953 L 222.803 93.505 L 224.435 94.068 L 226.062 94.641 L 227.685 95.225 L 229.302 95.819 L 230.914 96.424 L 232.520 97.038 L 234.119 97.662 L 235.712 98.296 L 237.297 98.940 L 238.875 99.593 L 240.444 100.255 L 242.005 100.927 L 243.557 101.608 L 245.100 102.298 L 246.633 102.997 L 248.156 103.704 L 249.669 104.420 L 251.170 105.144 L 252.660 105.877 L 254.139 106.618 L 255.605 107.367 L 257.059 108.123 L 258.500 108.888 L 259.928 109.660 L 261.342 110.439 L 262.742 111.225 L 264.128 112.019 L 265.499 112.819 L 266.855 113.626 L 268.196 114.440 L 269.521 115.260 L 270.830 116.087 L 272.122 116.920 L 273.398 117.758 L 274.656 118.602 L 275.897 119.452 L 277.120 120.308 L 278.325 121.168 L 279.512 122.034 L 280.679 122.905 L 281.828 123.780 L 282.958 124.660 L 284.068 125.545 L 285.158 126.433 L 286.228 127.326 L 287.277 128.223 L 288.306 129.123 L 289.313 130.027 L 290.300 130.934 L 291.265 131.844 L 292.208 132.758 L 293.129 133.674 L 294.028 134.593 L 294.904 135.514 L 295.758 136.438 L 296.589 137.363 L 297.396 138.291 L 298.181 139.220 L 298.941 140.151 L 299.678 141.083 L 300.391 142.017 L 301.080 142.951 L 301.745 143.886 L 302.385 144.822 L 303.001 145.759 L 303.592 146.695 L 304.158 147.632 L 304.699 148.568 L 305.215 149.505 L 305.705 150.440 L 306.170 151.376 L 306.609 152.310 L 307.023 153.243 L 307.411 154.175 L 307.773 155.106 L 308.109 156.035 L 308.419 156.963 L 308.703 157.888 L 308.961 158.812 L 309.193 159.733 L 309.398 160.651 L 309.577 161.567 L 309.729 162.481 L 309.856 163.391 L 309.955 164.298 L 310.029 165.201 L 310.075 166.101 L 310.096 166.998 L 310.090 167.890 L 310.057 168.779 L 309.998 169.663 L 309.912 170.543 L 309.801 171.418 L 309.662 172.289 L 309.498 173.154 L 309.307 174.015 L 309.090 174.870 L 308.847 175.720 L 308.578 176.565 L 308.283 177.403 L 307.961 178.236 L 307.615 179.062 L 307.242 179.883 L 306.844 180.697 L 306.420 181.504 L 305.971 182.305 L 305.497 183.099 L 304.997 183.886 L 304.473 184.666 L 303.924 185.438 L 303.350 186.203 L 302.752 186.961 L 302.129 187.710 L 301.482 188.452 L 300.811 189.186 L 300.116 189.912 L 299.398 190.629 L 298.656 191.338 L 297.891 192.038 L 297.103 192.729 L 296.292 193.412 L 295.459 194.086 L 294.603 194.750 L 293.725 195.405 L 292.826 196.051 L 291.904 196.688 L 290.961 197.315 L 289.997 197.932 L 289.013 198.539 L 288.007 199.136 L 286.982 199.723 L 285.936 200.300 L 284.870 200.867 L 283.785 201.423 L 282.681 201.969 L 281.558 202.504 L 280.416 203.028 L 279.256 203.542 L 278.078 204.044 L 276.882 204.536 L 275.669 205.016 L 274.439 205.486 L 273.193 205.944 L 271.930 206.390 L 270.651 206.826 L 269.356 207.249 L 268.046 207.661 L 266.721 208.061 L 265.381 208.450 L 264.027 208.827 L 262.660 209.191 L 261.278 209.544 L 259.884 209.885 L 258.477 210.213 L 257.057 210.530 L 255.625 210.834 L 254.182 211.126 L 252.728 211.405 L 251.262 211.673 L 249.786 211.927 L 248.300 212.169 L 246.804 212.399 L 245.299 212.616 L 243.785 212.821 L 242.263 213.013 L 240.733 213.192 L 239.194 213.358 L 237.649 213.512 L 236.097 213.653 L 234.538 213.781 L 232.973 213.896 L 231.402 213.999 L 229.827 214.088 L 228.246 214.165 L 226.662 214.229 L 225.073 214.280 L 223.481 214.318 L 221.885 214.343 L 220.287 214.356 L 218.687 214.355 L 217.085 214.342 L 215.481 214.315 L 213.877 214.276 L 212.271 214.224 L 210.666 214.159 L 209.061 214.081 L 207.457 213.991 L 205.854 213.887 L 204.252 213.771 L 202.653 213.642 L 201.056 213.501 L 199.461 213.346 L 197.870 213.179 L 196.283 213.000 L 194.699 212.808 L 193.121 212.603 L 191.547 212.386 L 189.978 212.156 L 188.415 211.914 L 186.858 211.660 L 185.308 211.393 L 183.765 211.114 L 182.229 210.823 L 180.701 210.520 L 179.182 210.205 L 177.671 209.878 L 176.168 209.539 L 174.675 209.188 L 173.192 208.825 L 171.719 208.450 L 170.257 208.064 L 168.806 207.667 L 167.366 207.258 L 165.937 206.837 L 164.521 206.405 L 163.117 205.962 L 161.726 205.508 L 160.348 205.043 L 158.983 204.567 L 157.633 204.080 L 156.296 203.582 L 154.975 203.074 L 153.668 202.555 L 152.376 202.026 L 151.100 201.486 L 149.840 200.937 L 148.597 200.377 L 147.370 199.807 L 146.159 199.227 L 144.966 198.637 L 143.791 198.038 L 142.633 197.430 L 141.494 196.811 L 140.373 196.184 L 139.271 195.547 L 138.187 194.902 L 137.123 194.247 L 136.079 193.584 L 135.054 192.912 L 134.050 192.232 L 133.066 191.543 L 132.102 190.846 L 131.160 190.141 L 130.238 189.428 L 129.338 188.707 L 128.460 187.979 L 127.603 187.243 L 126.768 186.500 L 125.956 185.749 L 125.166 184.991 L 124.399 184.227 L 123.654 183.455 L 122.933 182.677 L 122.235 181.893 L 121.560 181.102 L 120.909 180.305 L 120.281 179.502 L 119.678 178.694 L 119.098 177.879 L 118.543 177.059 L 118.012 176.234 L 117.505 175.404 L 117.023 174.568 L 116.566 173.728 L 116.134 172.883 L 115.727 172.033 L 115.344 171.179 L 114.987 170.321 L 114.655 169.459 L 114.348 168.593 L 114.067 167.723 L 113.811 166.850 L 113.581 165.973 L 113.376 165.094 L 113.197 164.211 L 113.043 163.325 L 112.915 162.437 L 112.813 161.546 L 112.737 160.653 L 112.686 159.758 L 112.661 158.861 L 112.662 157.963 L 112.688 157.062 L 112.741 156.160 L 112.818 155.257 L 112.922 154.353 L 113.051 153.448 L 113.206 152.543 L 113.387 151.636 L 113.592 150.730 L 113.824 149.823 L 114.080 148.916 L 114.362 148.010 L 114.669 147.104 L 115.002 146.198 L 115.359 145.293 L 115.741 144.389 L 116.148 143.486 L 116.580 142.584 L 117.036 141.684 L 117.517 140.785 L 118.022 139.888 L 118.551 138.993 L 119.104 138.100 L 119.682 137.209 L 120.282 136.321 L 120.907 135.436 L 121.554 134.553 L 122.225 133.673 L 122.919 132.797 L 123.636 131.924 L 124.376 131.054 L 125.137 130.188 L 125.921 129.326 L 126.727 128.467 L 127.555 127.613 L 128.405 126.764 L 129.275 125.918 L 130.167 125.078 L 131.080 124.242 L 132.013 123.411 L 132.967 122.586 L 133.940 121.765 L 134.934 120.951 L 135.947 120.141 L 136.979 119.338 L 138.031 118.541 L 139.101 117.749 L 140.189 116.964 L 141.296 116.185 L 142.421 115.413 L 143.563 114.648 L 144.722 113.889 L 145.898 113.138 L 147.091 112.393 L 148.300 111.656 L 149.525 110.926 L 150.766 110.204 L 152.022 109.489 L 153.293 108.783 L 154.578 108.084 L 155.878 107.394 L 157.192 106.711 L 158.520 106.037 L 159.860 105.372 L 161.214 104.715 L 162.580 104.067 L 163.958 103.428 L 165.348 102.798 L 166.749 102.177 L 168.162 101.565 L 169.585 100.963 L 171.018 100.370 L 172.461 99.786 L 173.914 99.213 L 175.376 98.649 L 176.846 98.095 L 178.325 97.551 L 179.812 97.017 L 181.306 96.494 L 182.808 95.981 L 184.316 95.478 L 185.831 94.986 L 187.351 94.504 L 188.877 94.033 L 190.409 93.573 L 191.945 93.124 L 193.485 92.686 L 195.029 92.259 L 196.577 91.843 L 198.128 91.438 L 199.682 91.044 L 201.238 90.662 L 202.795 90.291 L 204.354 89.932 L 205.915 89.584 L 207.476 89.248 L 209.037 88.924 L 210.597 88.611 L 212.158 88.311 L 213.717 88.022 L 215.275 87.745 L 216.831 87.480 L 218.385 87.227 L 219.936 86.986 L 221.484 86.757 L 223.028 86.540 L 224.569 86.336 L 226.105 86.144 L 227.637 85.964 L 229.163 85.796 L 230.684 85.640 L 232.199 85.497 L 233.708 85.367 L 235.210 85.249 L 236.705 85.143 L 238.192 85.049 L 239.672 84.968 L 241.143 84.900 L 242.606 84.844 L 244.060 84.800 L 245.504 84.769 L 246.938 84.751 L 248.362 84.745 L 249.776 84.751 L 251.179 84.770 L 252.570 84.801 L 253.950 84.845 L 255.318 84.901 L 256.673 84.970 L 258.016 85.051 L 259.346 85.145 L 260.662 85.251 L 261.964 85.369 L 263.252 85.499 L 264.526 85.642 L 265.785 85.797 L 267.029 85.965 L 268.258 86.144 L 269.470 86.336 L 270.667 86.540 L 271.847 86.755 L 273.011 86.983 L 274.157 87.223 L 275.287 87.475 L 276.398 87.739 L 277.492 88.014 L 278.568 88.301 L 279.625 88.600 L 280.663 88.911 L 281.683 89.233 L 282.683 89.567 L 283.664 89.912 L 284.625 90.268 L 285.566 90.636 L 286.487 91.015 L 287.387 91.405 L 288.267 91.807 L 289.125 92.219 L 289.963 92.642 L 290.779 93.076 L 291.573 93.520 L 292.346 93.976 L 293.096 94.441 L 293.825 94.918 L 294.531 95.404 L 295.215 95.901 L 295.875 96.408 L 296.513 96.925 L 297.128 97.452 L 297.720 97.989 L 298.288 98.536 L 298.833 99.092 L 299.354 99.658 L 299.851 100.233 L 300.325 100.817 L 300.774 101.411 L 301.200 102.013 L 301.601 102.625 L 301.978 103.245 L 302.330 103.874 L 302.658 104.512 L 302.961 105.158 L 303.240 105.812 L 303.493 106.475 L 303.722 107.145 L 303.927 107.823 L 304.106 108.510 L 304.260 109.203 L 304.390 109.905 L 304.494 110.613 L 304.574 111.329 L 304.628 112.052 L 304.657 112.782 L 304.662 113.519 L 304.641 114.262 L 304.595 115.012 L 304.524 115.768 L 304.429 116.530 L 304.308 117.298 L 304.162 118.073 L 303.992 118.853 L 303.797 119.638 L 303.577 120.429 L 303.332 121.225 L 303.063 122.027 L 302.769 122.833 L 302.451 123.644 L 302.109 124.460 L 301.742 125.280 L 301.351 126.104 L 300.936 126.933 L 300.497 127.765 L 300.034 128.602 L 299.548 129.442 L 299.038 130.285 L 298.505 131.132 L 297.948 131.982 L 297.368 132.835 L 296.766 133.691 L 296.141 134.550 L 295.493 135.411 L 294.822 136.274 L 294.130 137.139 L 293.415 138.007 L 292.679 138.876 L 291.921 139.747 L 291.141 140.619 L 290.340 141.493 L 289.518 142.368 L 288.676 143.243 L 287.813 144.120 L 286.929 144.997 L 286.026 145.874 L 285.102 146.752 L 284.159 147.630 L 283.197 148.508 L 282.216 149.385 L 281.215 150.262 L 280.197 151.139 L 279.160 152.014 L 278.105 152.889 L 277.032 153.763 L 275.942 154.635 L 274.835 155.506 L 273.711 156.375 L 272.570 157.243 L 271.413 158.108 L 270.241 158.972 L 269.053 159.833 L 267.849 160.691 L 266.631 161.547 L 265.397 162.401 L 264.150 163.251 L 262.889 164.098 L 261.614 164.942 L 260.326 165.782 L 259.024 166.619 L 257.711 167.452 L 256.385 168.281 L 255.047 169.106 L 253.697 169.926 L 252.337 170.742 L 250.965 171.554 L 249.584 172.361 L 248.192 173.163 L 246.790 173.959 L 245.379 174.751 L 243.960 175.537 L 242.531 176.318 L 241.095 177.093 L 239.650 177.862 L 238.198 178.626 L 236.740 179.383 L 235.274 180.134 L 233.802 180.878 L 232.325 181.616 L 230.842 182.348 L 229.354 183.072 L 227.861 183.789 L 226.364 184.500 L 224.862 185.203 L 223.358 185.898 L 221.850 186.587 L 220.340 187.267 L 218.827 187.940 L 217.313 188.605 L 215.797 189.261 L 214.280 189.910 L 212.762 190.550 L 211.244 191.182 L 209.726 191.806 L 208.208 192.420 L 206.692 193.026 L 205.176 193.623 L 203.663 194.211 L 202.151 194.790 L 200.643 195.360 L 199.137 195.920 L 197.634 196.471 L 196.135 197.012 L 194.640 197.544 L 193.150 198.066 L 191.664 198.578 L 190.184 199.080 L 188.709 199.572 L 187.241 200.054 L 185.779 200.526 L 184.323 200.987 L 182.875 201.438 L 181.435 201.879 L 180.002 202.309 L 178.578 202.728 L 177.163 203.136 L 175.756 203.534 L 174.360 203.921 L 172.972 204.297 L 171.596 204.662 L 170.229 205.015 L 168.874 205.358 L 167.530 205.689 L 166.197 206.009 L 164.877 206.318 L 163.568 206.615 L 162.273 206.901 L 160.990 207.175 L 159.721 207.438 L 158.465 207.689 L 157.224 207.929 L 155.996 208.156 L 154.784 208.372 L 153.586 208.577 L 152.404 208.769 L 151.237 208.950 L 150.086 209.118 L 148.951 209.275 L 147.832 209.420 L 146.731 209.553 L 145.646 209.674 L 144.579 209.782 L 143.529 209.879 L 142.498 209.964 L 141.484 210.037 L 140.489 210.097 L 139.512 210.146 L 138.555 210.182 L 137.616 210.207 L 136.697 210.219 L 135.798 210.219 L 134.918 210.208 L 134.059 210.184 L 133.220 210.148 L 132.401 210.100 L 131.603 210.039 L 130.826 209.967 L 130.071 209.883 L 129.336 209.787 L 128.623 209.679 L 127.932 209.559 L 127.263 209.427 L 126.616 209.283 L 125.991 209.127 L 125.389 208.960 L 124.809 208.781 L 124.252 208.590 L 123.717 208.387 L 123.206 208.172 L 122.717 207.946 L 122.252 207.709 L 121.810 207.460 L 121.392 207.199 L 120.997 206.927 L 120.626 206.644 L 120.278 206.349 L 119.955 206.043 L 119.655 205.726 L 119.379 205.398 L 119.128 205.058 L 118.900 204.708 L 118.697 204.347 L 118.517 203.975 L 118.362 203.592 L 118.231 203.199 L 118.125 202.795 L 118.043 202.380 L 117.985 201.955 L 117.952 201.520 L 117.943 201.075 L 117.958 200.619 L 117.997 200.153 L 118.061 199.677 L 118.149 199.192 L 118.262 198.696 L 118.398 198.191 L 118.559 197.677 L 118.744 197.153 L 118.953 196.619 L 119.186 196.076 L 119.443 195.524 L 119.724 194.963 L 120.029 194.393 L 120.357 193.815 L 120.709 193.227 L 121.084 192.631 L 121.483 192.027 L 121.905 191.414 L 122.351 190.793 L 122.819 190.164 L 123.310 189.527 L 123.824 188.882 L 124.361 188.229 L 124.920 187.569 L 125.502 186.901 L 126.105 186.226 L 126.731 185.544 L 127.379 184.854 L 128.048 184.158 L 128.738 183.455 L 129.450 182.745 L 130.183 182.029 L 130.937 181.307 L 131.712 180.578 L 132.507 179.843 L 133.322 179.103 L 134.158 178.356 L 135.013 177.604 L 135.887 176.846 L 136.782 176.083 L 137.695 175.315 L 138.627 174.542 L 139.577 173.764 L 140.546 172.981 L 141.533 172.194 L 142.538 171.402 L 143.561 170.606 L 144.600 169.806 L 145.657 169.002 L 146.731 168.195 L 147.820 167.383 L 148.926 166.568 L 150.048 165.750 L 151.185 164.929 L 152.338 164.105 L 153.505 163.277 L 154.687 162.448 L 155.884 161.615 L 157.094 160.781 L 158.318 159.944 L 159.555 159.105 L 160.805 158.265 L 162.068 157.423 L 163.343 156.579 L 164.630 155.734 L 165.929 154.888 L 167.239 154.040 L 168.560 153.192 L 169.892 152.343 L 171.233 151.494 L 172.585 150.645 L 173.946 149.795 L 175.316 148.945 L 176.695 148.095 L 178.083 147.246 L 179.478 146.397 L 180.881 145.549 L 182.292 144.702 L 183.709 143.855 L 185.133 143.010 L 186.563 142.166 L 187.999 141.324 L 189.440 140.483 L 190.886 139.644 L 192.337 138.807 L 193.792 137.972 L 195.251 137.140 L 196.714 136.310 L 198.179 135.482 L 199.648 134.658 L 201.118 133.836 L 202.591 133.017 L 204.065 132.202 L 205.540 131.390 L 207.016 130.582 L 208.492 129.777 L 209.968 128.977 L 211.444 128.180 L 212.919 127.388 L 214.393 126.599 L 215.865 125.816 L 217.336 125.037 L 218.804 124.263 L 220.269 123.494 L 221.731 122.730 L 223.189 121.971 L 224.644 121.218 L 226.094 120.470 L 227.540 119.728 L 228.980 118.992 L 230.415 118.262 L 231.845 117.538 L 233.268 116.820 L 234.685 116.109 L 236.094 115.404 L 237.496 114.706 L 238.891 114.014 L 240.278 113.330 L 241.656 112.653 L 243.025 111.982 L 244.386 111.320 L 245.737 110.664 L 247.078 110.017 L 248.408 109.377 L 249.729 108.745 L 251.038 108.121 L 252.336 107.504 L 253.623 106.897 L 254.897 106.297 L 256.160 105.706 L 257.410 105.123 L 258.647 104.549 L 259.871 103.984 L 261.081 103.428 L 262.277 102.881 L 263.459 102.343 L 264.627 101.814 L 265.780 101.294 L 266.918 100.784 L 268.040 100.283 L 269.147 99.792 L 270.238 99.310 L 271.313 98.838 L 272.371 98.376 L 273.412 97.924 L 274.436 97.482 L 275.443 97.050 L 276.433 96.629 L 277.404 96.217 L 278.357 95.816 L 279.292 95.426 L 280.209 95.046 L 281.106 94.676 L 281.985 94.317 L 282.844 93.969 L 283.684 93.632 L 284.504 93.305 L 285.304 92.990 L 286.084 92.685 L 286.844 92.391 L 287.583 92.109 L 288.301 91.837 L 288.998 91.577 L 289.675 91.328 L 290.330 91.090 L 290.964 90.863 L 291.576 90.648 L 292.166 90.444 L 292.734 90.252 L 293.281 90.071 L 293.805 89.902 L 294.307 89.744 L 294.786 89.597 L 295.243 89.463 L 295.678 89.339 L 296.089 89.228 L 296.478 89.128 L 296.843 89.040 L 297.186 88.963 L 297.505 88.898 L 297.801 88.845 L 298.074 88.803 L 298.324 88.774 L 298.550 88.755 L 298.753 88.749 L 298.932 88.754 L 299.087 88.771 L 299.219 88.800 L 299.327 88.840 L 299.412 88.892 L 299.473 88.956 L 299.510 89.031 L 299.524 89.118 L 299.514 89.216 L 299.480 89.326 L 299.423 89.448 L 299.342 89.581 L 299.237 89.726 L 299.109 89.882 L 298.958 90.049 L 298.783 90.228 L 298.584 90.418 L 298.362 90.620 L 298.117 90.833 L 297.848 91.057 L 297.557 91.292 L 297.242 91.539 L 296.905 91.796 L 296.544 92.065 L 296.161 92.344 L 295.755 92.634 L 295.326 92.936 L 294.875 93.248 L 294.402 93.570 L 293.907 93.904 L 293.389 94.248 L 292.850 94.602 L 292.289 94.967 L 291.706 95.343 L 291.102 95.728 L 290.477 96.124 L 289.830 96.530 L 289.163 96.946 L 288.475 97.372 L 287.766 97.808 L 287.037 98.254 L 286.288 98.709 L 285.518 99.174 L 284.729 99.649 L 283.921 100.133 L 283.093 100.626 L 282.246 101.129 L 281.381 101.640 L 280.496 102.161 L 279.594 102.691 L 278.673 103.229 L 277.734 103.776 L 276.778 104.332 L 275.804 104.896 L 274.813 105.469 L 273.805 106.050 L 272.781 106.639 L 271.741 107.236 L 270.684 107.841 L 269.612 108.453 L 268.524 109.074 L 267.421 109.702 L 266.303 110.337 L 265.171 110.980 L 264.024 111.629 L 262.863 112.286 L 261.689 112.950 L 260.502 113.620 L 259.301 114.297 L 258.088 114.981 L 256.862 115.671 L 255.624 116.367 L 254.375 117.069 L 253.114 117.778 L 251.843 118.492 L 250.560 119.211 L 249.267 119.937 L 247.964 120.667 L 246.652 121.403 L 245.330 122.144 L 243.999 122.890 L 242.660 123.641 L 241.312 124.396 L 239.957 125.156 L 238.594 125.920 L 237.224 126.688 L 235.847 127.461 L 234.463 128.237 L 233.074 129.017 L 231.678 129.801 L 230.278 130.588 L 228.872 131.378 L 227.462 132.172 L 226.048 132.968 L 224.630 133.768 L 223.208 134.570 L 221.784 135.374 L 220.356 136.181 L 218.927 136.990 L 217.495 137.801 L 216.062 138.613 L 214.628 139.428 L 213.192 140.244 L 211.757 141.061 L 210.321 141.880 L 208.886 142.700 L 207.451 143.520 L 206.017 144.342 L 204.585 145.164 L 203.155 145.986 L 201.727 146.809 L 200.302 147.631 L 198.879 148.454 L 197.460 149.276 L 196.045 150.098 L 194.634 150.920 L 193.227 151.741 L 191.825 152.561 L 190.428 153.379 L 189.037 154.197 L 187.652 155.013 L 186.273 155.828 L 184.901 156.641 L 183.535 157.453 L 182.178 158.262 L 180.827 159.069 L 179.485 159.874 L 178.152 160.676 L 176.827 161.476 L 175.512 162.273 L 174.206 163.067 L 172.909 163.858 L 171.623 164.646 L 170.348 165.430 L 169.083 166.211 L 167.830 166.988 L 166.588 167.762 L 165.358 168.531 L 164.140 169.296 L 162.934 170.057 L 161.741 170.813 L 160.562 171.565 L 159.396 172.312 L 158.243 173.055 L 157.105 173.792 L 155.981 174.524 L 154.871 175.251 L 153.776 175.972 L 152.697 176.688 L 151.633 177.398 L 150.585 178.102 L 149.552 178.800 L 148.536 179.492 L 147.537 180.178 L 146.554 180.857 L 145.589 181.530 L 144.641 182.196 L 143.710 182.855 L 142.797 183.508 L 141.902 184.153 L 141.025 184.791 L 140.167 185.422 L 139.328 186.046 L 138.507 186.662 L 137.706 187.270 L 136.924 187.871 L 136.162 188.464 L 135.419 189.048 L 134.696 189.625 L 133.993 190.193 L 133.311 190.753 L 132.649 191.305 L 132.008 191.848 L 131.387 192.383 L 130.788 192.908 L 130.210 193.425 L 129.653 193.933 L 129.117 194.432 L 128.603 194.922 L 128.110 195.402 L 127.639 195.873 L 127.191 196.335 L 126.764 196.787 L 126.359 197.230 L 125.977 197.663 L 125.617 198.086 L 125.279 198.500 L 124.964 198.903 L 124.671 199.297 L 124.401 199.681 L 124.154 200.054 L 123.930 200.417 L 123.728 200.770 L 123.549 201.113 L 123.393 201.445 L 123.260 201.766 L 123.150 202.078 L 123.063 202.378 L 122.999 202.668 L 122.959 202.948 L 122.941 203.216 L 122.946 203.474 L 122.974 203.721 L 123.025 203.957 L 123.099 204.182 L 123.196 204.396 L 123.316 204.599 L 123.459 204.791 L 123.625 204.972 L 123.813 205.142 L 124.024 205.301 L 124.258 205.449 L 124.515 205.585 L 124.794 205.710 L 125.095 205.824 L 125.419 205.927 L 125.765 206.019 L 126.133 206.099 L 126.524 206.168 L 126.936 206.225 L 127.370 206.272 L 127.826 206.307 L 128.303 206.330 L 128.802 206.342 L 129.322 206.343 L 129.864 206.333 L 130.426 206.311 L 131.010 206.278 L 131.614 206.234 L 132.238 206.178 L 132.883 206.112 L 133.548 206.033 L 134.233 205.944 L 134.938 205.843 L 135.663 205.732 L 136.407 205.609 L 137.171 205.475 L 137.953 205.329 L 138.754 205.173 L 139.574 205.006 L 140.412 204.827 L 141.268 204.638 L 142.143 204.438 L 143.035 204.227 L 143.944 204.005 L 144.871 203.772 L 145.814 203.528 L 146.774 203.274 L 147.751 203.009 L 148.744 202.734 L 149.753 202.448 L 150.777 202.151 L 151.817 201.844 L 152.872 201.527 L 153.941 201.199 L 155.026 200.862 L 156.124 200.514 L 157.236 200.156 L 158.362 199.788 L 159.502 199.410 L 160.654 199.022 L 161.819 198.624 L 162.996 198.217 L 164.186 197.800 L 165.387 197.373 L 166.600 196.938 L 167.824 196.492 L 169.058 196.038 L 170.303 195.574 L 171.559 195.101 L 172.824 194.620 L 174.098 194.129 L 175.382 193.629 L 176.674 193.121 L 177.975 192.605 L 179.284 192.079 L 180.601 191.546 L 181.925 191.004 L 183.256 190.454 L 184.593 189.896 L 185.938 189.330 L 187.288 188.756 L 188.643 188.174 L 190.004 187.585 L 191.370 186.989 L 192.741 186.385 L 194.115 185.773 L 195.494 185.155 L 196.875 184.530 L 198.260 183.897 L 199.648 183.258 L 201.038 182.613 L 202.430 181.961 L 203.823 181.302 L 205.218 180.638 L 206.613 179.967 L 208.009 179.290 L 209.406 178.608 L 210.802 177.919 L 212.197 177.225 L 213.591 176.526 L 214.984 175.822 L 216.375 175.112 L 217.765 174.397 L 219.151 173.678 L 220.535 172.953 L 221.916 172.225 L 223.293 171.491 L 224.666 170.754 L 226.035 170.012 L 227.400 169.266 L 228.759 168.517 L 230.113 167.763 L 231.461 167.007 L 232.804 166.246 L 234.139 165.483 L 235.469 164.716 L 236.790 163.947 L 238.105 163.174 L 239.412 162.399 L 240.710 161.622 L 242.000 160.842 L 243.281 160.060 L 244.553 159.276 L 245.816 158.490 L 247.068 157.702 L 248.311 156.913 L 249.543 156.122 L 250.764 155.331 L 251.974 154.538 L 253.173 153.744 L 254.360 152.949 L 255.535 152.153 L 256.697 151.357 L 257.847 150.561 L 258.983 149.765 L 260.107 148.968 L 261.217 148.172 L 262.313 147.376 L 263.395 146.580 L 264.462 145.786 L 265.515 144.991 L 266.553 144.198 L 267.575 143.406 L 268.582 142.615 L 269.574 141.825 L 270.549 141.037 L 271.508 140.251 L 272.450 139.466 L 273.376 138.684 L 274.284 137.903 L 275.175 137.125 L 276.049 136.350 L 276.905 135.577 L 277.744 134.806 L 278.564 134.039 L 279.365 133.275 L 280.148 132.514 L 280.913 131.756 L 281.658 131.002 L 282.384 130.251 L 283.091 129.504 L 283.778 128.761 L 284.446 128.022 L 285.094 127.288 L 285.721 126.558 L 286.329 125.832 L 286.916 125.111 L 287.482 124.394 L 288.028 123.683 L 288.554 122.977 L 289.058 122.276 L 289.541 121.580 L 290.003 120.890 L 290.444 120.205 L 290.863 119.526 L 291.261 118.853 L 291.637 118.186 L 291.992 117.525 L 292.325 116.870 L 292.636 116.222 L 292.925 115.580 L 293.192 114.945 L 293.436 114.316 L 293.659 113.695 L 293.860 113.080 L 294.038 112.473 L 294.194 111.872 L 294.328 111.279 L 294.440 110.694 L 294.529 110.116 L 294.595 109.546 L 294.640 108.984 L 294.662 108.429 L 294.661 107.883 L 294.638 107.344 L 294.593 106.814 L 294.526 106.292 L 294.436 105.779 L 294.324 105.274 L 294.189 104.777 L 294.033 104.290 L 293.854 103.811 L 293.653 103.341 L 293.430 102.880 L 293.185 102.428 L 292.918 101.985 L 292.629 101.552 L 292.319 101.128 L 291.986 100.713 L 291.633 100.308 L 291.257 99.912 L 290.861 99.526 L 290.443 99.149 L 290.004 98.782 L 289.544 98.426 L 289.063 98.079 L 288.561 97.742 L 288.039 97.415 L 287.496 97.098 L 286.933 96.791 L 286.349 96.495 L 285.746 96.209 L 285.123 95.933 L 284.480 95.667 L 283.818 95.412 L 283.136 95.167 L 282.435 94.933 L 281.715 94.710 L 280.977 94.497 L 280.220 94.294 L 279.444 94.103 L 278.650 93.922 L 277.839 93.751 L 277.010 93.592 L 276.163 93.443 L 275.299 93.305 L 274.418 93.178 L 273.520 93.062 L 272.606 92.957 L 271.676 92.863 L 270.729 92.779 L 269.767 92.707 L 268.789 92.645 L 267.796 92.594 L 266.787 92.555 L 265.764 92.526 L 264.727 92.508 L 263.676 92.502 L 262.610 92.506 L 261.531 92.521 L 260.439 92.547 L 259.334 92.584 L 258.216 92.632 L 257.085 92.691 L 255.943 92.761 L 254.788 92.842 L 253.622 92.933 L 252.445 93.036 L 251.257 93.149 L 250.059 93.273 L 248.850 93.408 L 247.631 93.554 L 246.403 93.710 L 245.165 93.877 L 243.919 94.054 L 242.664 94.243 L 241.400 94.442 L 240.129 94.651 L 238.850 94.871 L 237.564 95.101 L 236.270 95.342 L 234.971 95.593 L 233.665 95.854 L 232.353 96.125 L 231.036 96.407 L 229.713 96.699 L 228.386 97.001 L 227.054 97.312 L 225.718 97.634 L 224.378 97.966 L 223.035 98.307 L 221.689 98.658 L 220.340 99.019 L 218.989 99.390 L 217.636 99.769 L 216.281 100.159 L 214.925 100.557 L 213.568 100.965 L 212.210 101.383 L 210.852 101.809 L 209.495 102.244 L 208.138 102.688 L 206.782 103.141 L 205.427 103.603 L 204.073 104.073 L 202.722 104.552 L 201.373 105.040 L 200.026 105.536 L 198.683 106.040 L 197.343 106.552 L 196.007 107.072 L 194.675 107.601 L 193.347 108.137 L 192.024 108.681 L 190.706 109.232 L 189.394 109.791 L 188.087 110.358 L 186.787 110.931 L 185.493 111.512 L 184.206 112.100 L 182.926 112.695 L 181.654 113.297 L 180.390 113.906 L 179.134 114.521 L 177.886 115.142 L 176.647 115.770 L 175.417 116.404 L 174.197 117.045 L 172.987 117.691 L 171.787 118.343 L 170.597 119.001 L 169.418 119.664 L 168.250 120.333 L 167.093 121.007 L 165.949 121.687 L 164.816 122.371 L 163.695 123.060 L 162.587 123.754 L 161.492 124.453 L 160.410 125.156 L 159.341 125.864 L 158.286 126.576 L 157.245 127.292 L 156.219 128.012 L 155.206 128.735 L 154.209 129.463 L 153.227 130.194 L 152.260 130.928 L 151.308 131.665 L 150.372 132.406 L 149.453 133.149 L 148.549 133.896 L 147.662 134.645 L 146.792 135.396 L 145.939 136.150 L 145.103 136.906 L 144.284 137.664 L 143.483 138.424 L 142.700 139.185 L 141.935 139.949 L 141.188 140.713 L 140.459 141.479 L 139.749 142.246 L 139.058 143.015 L 138.386 143.784 L 137.733 144.553 L 137.099 145.324 L 136.485 146.094 L 135.890 146.865 L 135.315 147.636 L 134.760 148.407 L 134.225 149.178 L 133.710 149.948 L 133.215 150.718 L 132.741 151.488 L 132.288 152.256 L 131.855 153.024 L 131.443 153.790 L 131.052 154.555 L 130.682 155.319 L 130.333 156.081 L 130.005 156.841 L 129.698 157.600 L 129.413 158.357 L 129.149 159.111 L 128.906 159.863 L 128.685 160.613 L 128.486 161.360 L 128.308 162.104 L 128.152 162.846 L 128.017 163.584 L 127.904 164.320 L 127.813 165.052 L 127.744 165.780 L 127.697 166.505 L 127.671 167.227 L 127.667 167.944 L 127.685 168.657 L 127.724 169.366 L 127.785 170.071 L 127.868 170.772 L 127.973 171.468 L 128.100 172.159 L 128.248 172.845 L 128.417 173.527 L 128.608 174.203 L 128.821 174.874 L 129.055 175.540 L 129.310 176.200 L 129.586 176.855 L 129.884 177.504 L 130.203 178.147 L 130.543 178.784 L 130.903 179.415 L 131.285 180.040 L 131.687 180.658 L 132.110 181.270 L 132.553 181.875 L 133.017 182.474 L 133.501 183.066 L 134.005 183.650 L 134.529 184.228 L 135.072 184.799 L 135.636 185.362 L 136.218 185.918 L 136.821 186.467 L 137.442 187.007 L 138.082 187.541 L 138.741 188.066 L 139.419 188.584 L 140.116 189.093 L 140.830 189.594 L 141.563 190.088 L 142.313 190.573 L 143.081 191.049 L 143.867 191.517 L 144.670 191.977 L 145.490 192.428 L 146.327 192.870 L 147.180 193.303 L 148.050 193.728 L 148.936 194.143 L 149.838 194.550 L 150.755 194.947 L 151.688 195.335 L 152.636 195.714 L 153.599 196.083 L 154.576 196.443 L 155.568 196.794 L 156.574 197.135 L 157.594 197.466 L 158.627 197.788 L 159.674 198.100 L 160.733 198.402 L 161.806 198.694 L 162.891 198.977 L 163.987 199.249 L 165.096 199.511 L 166.217 199.764 L 167.348 200.006 L 168.491 200.238 L 169.644 200.460 L 170.807 200.672 L 171.981 200.873 L 173.164 201.064 L 174.357 201.245 L 175.559 201.415 L 176.769 201.575 L 177.988 201.724 L 179.215 201.864 L 180.450 201.992 L 181.692 202.110 L 182.942 202.218 L 184.198 202.315 L 185.460 202.401 L 186.729 202.477 L 188.004 202.542 L 189.284 202.597 L 190.569 202.641 L 191.859 202.674 L 193.153 202.697 L 194.452 202.709 L 195.754 202.711 L 197.059 202.702 L 198.368 202.682 L 199.679 202.652 L 200.993 202.611 L 202.308 202.560 L 203.625 202.498 L 204.944 202.425 L 206.264 202.342 L 207.584 202.248 L 208.904 202.144 L 210.224 202.030 L 211.544 201.905 L 212.863 201.769 L 214.181 201.624 L 215.498 201.467 L 216.812 201.301 L 218.125 201.124 L 219.435 200.937 L 220.742 200.740 L 222.045 200.532 L 223.346 200.315 L 224.642 200.087 L 225.934 199.850 L 227.222 199.602 L 228.504 199.344 L 229.782 199.077 L 231.053 198.800 L 232.319 198.513 L 233.579 198.216 L 234.832 197.910 L 236.078 197.594 L 237.316 197.268 L 238.547 196.933 L 239.771 196.589 L 240.986 196.235 L 242.192 195.872 L 243.390 195.500 L 244.578 195.119 L 245.757 194.729 L 246.927 194.330 L 248.086 193.922 L 249.234 193.505 L 250.372 193.080 L 251.499 192.646 L 252.615 192.203 L 253.719 191.752 L 254.811 191.293 L 255.891 190.825 L 256.959 190.350 L 258.014 189.866 L 259.056 189.374 L 260.084 188.875 L 261.099 188.367 L 262.101 187.852 L 263.088 187.330 L 264.061 186.800 L 265.019 186.263 L 265.962 185.718 L 266.891 185.166 L 267.804 184.608 L 268.702 184.042 L 269.583 183.470 L 270.449 182.890 L 271.299 182.305 L 272.132 181.713 L 272.948 181.114 L 273.748 180.510 L 274.530 179.899 L 275.295 179.282 L 276.043 178.660 L 276.773 178.031 L 277.485 177.397 L 278.179 176.758 L 278.855 176.113 L 279.513 175.463 L 280.152 174.808 L 280.772 174.148 L 281.373 173.484 L 281.955 172.814 L 282.518 172.140 L 283.062 171.461 L 283.586 170.779 L 284.091 170.092 L 284.576 169.401 L 285.041 168.706 L 285.486 168.007 L 285.911 167.305 L 286.316 166.599 L 286.700 165.890 L 287.064 165.178 L 287.408 164.462 L 287.731 163.744 L 288.033 163.023 L 288.315 162.299 L 288.576 161.573 L 288.816 160.845 L 289.035 160.114 L 289.233 159.381 L 289.411 158.647 L 289.567 157.910 L 289.702 157.172 L 289.816 156.432 L 289.909 155.692 L 289.980 154.949 L 290.031 154.206 L 290.060 153.462 L 290.068 152.717 L 290.055 151.972 L 290.021 151.226 L 289.966 150.480 L 289.889 149.733 L 289.792 148.987 L 289.673 148.241 L 289.533 147.495 L 289.373 146.749 L 289.191 146.004 L 288.989 145.260 L 288.765 144.516 L 288.521 143.774 L 288.257 143.032 L 287.971 142.292 L 287.665 141.554 L 287.339 140.816 L 286.992 140.081 L 286.625 139.348 L 286.238 138.616 L 285.831 137.887 L 285.404 137.160 L 284.957 136.435 L 284.491 135.713 L 284.005 134.994 L 283.499 134.277 L 282.974 133.564 L 282.430 132.853 L 281.867 132.146 L 281.285 131.442 L 280.685 130.742 L 280.066 130.046 L 279.429 129.353 L 278.773 128.664 L 278.100 127.980 L 277.408 127.299 L 276.699 126.623 L 275.973 125.952 L 275.229 125.285 L 274.469 124.622 L 273.691 123.965 L 272.897 123.312 L 272.087 122.665 L 271.260 122.023 L 270.417 121.387 L 269.559 120.755 L 268.685 120.130 L 267.796 119.510 L 266.892 118.896 L 265.973 118.288 L 265.040 117.686 L 264.092 117.090 L 263.130 116.501 L 262.155 115.918 L 261.166 115.342 L 260.163 114.772 L 259.148 114.209 L 258.120 113.653 L 257.080 113.104 L 256.027 112.562 L 254.963 112.027 L 253.887 111.499 L 252.800 110.979 L 251.701 110.466 L 250.592 109.961 L 249.473 109.464 L 248.343 108.974 L 247.204 108.493 L 246.055 108.019 L 244.897 107.553 L 243.730 107.096 L 242.555 106.646 L 241.371 106.205 L 240.180 105.773 L 238.980 105.349 L 237.774 104.933 L 236.560 104.526 L 235.340 104.128 L 234.113 103.739 L 232.880 103.359 L 231.642 102.987 L 230.398 102.625 L 229.149 102.271 L 227.896 101.927 L 226.638 101.592 L 225.376 101.266 L 224.111 100.950 L 222.842 100.643 L 221.570 100.345 L 220.295 100.057 L 219.018 99.779 L 217.739 99.510 L 216.458 99.251 L 215.176 99.001 L 213.893 98.761 L 212.609 98.531 L 211.325 98.311 L 210.041 98.101 L 208.758 97.901 L 207.475 97.711 L 206.193 97.530 L 204.912 97.360 L 203.633 97.200 L 202.357 97.050 L 201.082 96.910 L 199.811 96.780 L 198.542 96.660 L 197.277 96.551 L 196.015 96.451 L 194.758 96.362 L 193.505 96.284 L 192.257 96.215 L 191.014 96.157 L 189.776 96.108 L 188.544 96.071 L 187.317 96.043 L 186.098 96.026 L 184.885 96.019 L 183.678 96.022 L 182.480 96.036 L 181.288 96.059 L 180.105 96.094 L 178.930 96.138 L 177.764 96.192 L 176.606 96.257 L 175.458 96.332 L 174.319 96.417 L 173.190 96.513 L 172.070 96.618 L 170.962 96.734 L 169.864 96.860 L 168.776 96.995 L 167.700 97.141 L 166.636 97.297 L 165.583 97.463 L 164.542 97.639 L 163.514 97.824 L 162.498 98.020 L 161.495 98.225 L 160.505 98.441 L 159.529 98.665 L 158.566 98.900 L 157.617 99.144 L 156.682 99.398 L 155.762 99.661 L 154.856 99.934 L 153.965 100.217 L 153.089 100.508 L 152.229 100.809 L 151.383 101.119 L 150.554 101.439 L 149.741 101.767 L 148.943 102.105 L 148.163 102.451 L 147.398 102.807 L 146.651 103.171 L 145.920 103.544 L 145.207 103.926 L 144.511 104.316 L 143.832 104.715 L 143.171 105.123 L 142.528 105.538 L 141.903 105.962 L 141.296 106.395 L 140.708 106.835 L 140.138 107.283 L 139.587 107.740 L 139.054 108.204 L 138.540 108.676 L 138.046 109.155 L 137.570 109.643 L 137.114 110.137 L 136.678 110.639 L 136.260 111.148 L 135.863 111.665 L 135.485 112.188 L 135.127 112.719 L 134.788 113.256 L 134.470 113.800 L 134.172 114.351 L 133.894 114.908 L 133.636 115.471 L 133.399 116.041 L 133.181 116.617 L 132.985 117.200 L 132.808 117.788 L 132.652 118.382 L 132.517 118.981 L 132.402 119.587 L 132.307 120.198 L 132.233 120.814 L 132.180 121.435 L 132.147 122.062 L 132.135 122.693 L 132.144 123.330 L 132.173 123.971 L 132.223 124.616 L 132.293 125.267 L 132.384 125.921 L 132.495 126.580 L 132.626 127.243 L 132.779 127.910 L 132.951 128.581 L 133.144 129.255 L 133.357 129.933 L 133.590 130.614 L 133.843 131.299 L 134.117 131.987 L 134.410 132.678 L 134.724 133.372 L 135.057 134.068 L 135.410 134.768 L 135.782 135.469 L 136.174 136.174 L 136.586 136.880 L 137.016 137.588 L 137.466 138.298 L 137.935 139.010 L 138.423 139.724 L 138.930 140.439 L 139.455 141.156 L 139.999 141.874 L 140.561 142.593 L 141.141 143.313 L 141.739 144.033 L 142.355 144.755 L 142.989 145.477 L 143.641 146.199 L 144.310 146.921 L 144.996 147.644 L 145.699 148.367 L 146.418 149.089 L 147.155 149.811 L 147.908 150.533 L 148.677 151.254 L 149.461 151.974 L 150.262 152.693 L 151.079 153.411 L 151.910 154.129 L 152.757 154.844 L 153.619 155.559 L 154.495 156.272 L 155.386 156.983 L 156.291 157.692 L 157.209 158.399 L 158.142 159.104 L 159.088 159.807 L 160.047 160.507 L 161.019 161.205 L 162.004 161.900 L 163.001 162.593 L 164.011 163.282 L 165.032 163.968 L 166.065 164.651 L 167.109 165.331 L 168.164 166.007 L 169.230 166.680 L 170.306 167.348 L 171.393 168.013 L 172.489 168.674 L 173.595 169.331 L 174.710 169.983 L 175.835 170.631 L 176.968 171.275 L 178.109 171.914 L 179.259 172.548 L 180.416 173.177 L 181.581 173.802 L 182.753 174.421 L 183.932 175.035 L 185.117 175.643 L 186.309 176.246 L 187.507 176.844 L 188.710 177.435 L 189.918 178.021 L 191.132 178.601 L 192.350 179.175 L 193.572 179.743 L 194.799 180.304 L 196.029 180.859 L 197.262 181.408 L 198.499 181.950 L 199.738 182.485 L 200.979 183.013 L 202.223 183.535 L 203.468 184.049 L 204.714 184.556 L 205.962 185.057 L 207.210 185.550 L 208.459 186.035 L 209.707 186.513 L 210.956 186.983 L 212.204 187.446 L 213.450 187.901 L 214.696 188.348 L 215.940 188.787 L 217.182 189.219 L 218.422 189.642 L 219.659 190.057 L 220.893 190.463 L 222.124 190.862 L 223.352 191.252 L 224.576 191.633 L 225.795 192.006 L 227.010 192.370 L 228.220 192.726 L 229.425 193.073 L 230.624 193.411 L 231.818 193.740 L 233.005 194.060 L 234.186 194.371 L 235.361 194.673 L 236.528 194.966 L 237.688 195.250 L 238.840 195.524 L 239.984 195.790 L 241.120 196.045 L 242.248 196.292 L 243.367 196.529 L 244.476 196.757 L 245.576 196.975 L 246.666 197.183 L 247.747 197.382 L 248.817 197.572 L 249.876 197.751 L 250.925 197.921 L 251.962 198.082 L 252.989 198.232 L 254.003 198.373 L 255.005 198.504 L 255.996 198.625 L 256.974 198.736 L 257.939 198.838 L 258.891 198.929 L 259.830 199.011 L 260.756 199.082 L 261.668 199.144 L 262.565 199.196 L 263.449 199.238 L 264.319 199.270 L 265.174 199.292 L 266.013 199.304 L 266.838 199.306 L 267.648 199.298 L 268.442 199.281 L 269.221 199.253 L 269.983 199.215 L 270.730 199.168 L 271.460 199.110 L 272.174 199.043 L 272.871 198.966 L 273.551 198.879 L 274.215 198.782 L 274.861 198.675 L 275.490 198.558 L 276.101 198.432 L 276.695 198.296 L 277.271 198.150 L 277.829 197.995 L 278.369 197.830 L 278.890 197.655 L 279.393 197.471 L 279.878 197.277 L 280.344 197.074 L 280.792 196.861 L 281.220 196.639 L 281.630 196.408 L 282.020 196.167 L 282.392 195.917 L 282.744 195.658 L 283.077 195.389 L 283.390 195.112 L 283.684 194.825 L 283.958 194.530 L 284.213 194.225 L 284.448 193.912 L 284.663 193.590 L 284.859 193.259 L 285.034 192.919 L 285.190 192.571 L 285.326 192.214 L 285.442 191.849 L 285.538 191.476 L 285.613 191.094 L 285.669 190.704 L 285.705 190.306 L 285.721 189.900 L 285.717 189.485 L 285.693 189.063 L 285.648 188.633 L 285.584 188.196 L 285.500 187.750 L 285.396 187.297 L 285.272 186.837 L 285.128 186.369 L 284.964 185.894 L 284.781 185.412 L 284.577 184.923 L 284.354 184.427 L 284.112 183.923 L 283.850 183.414 L 283.569 182.897 L 283.268 182.374 L 282.948 181.844 L 282.608 181.308 L 282.250 180.766 L 281.873 180.217 L 281.476 179.663 L 281.061 179.102 L 280.628 178.536 L 280.175 177.964 L 279.705 177.386 L 279.216 176.803 L 278.708 176.215 L 278.183 175.621 L 277.640 175.022 L 277.079 174.418 L 276.501 173.809 L 275.905 173.196 L 275.292 172.577 L 274.662 171.955 L 274.015 171.328 L 273.352 170.696 L 272.671 170.060 L 271.975 169.421 L 271.262 168.777 L 270.533 168.130 L 269.788 167.479 L 269.028 166.824 L 268.252 166.166 L 267.462 165.505 L 266.656 164.841 L 265.835 164.173 L 265.000 163.503 L 264.151 162.830 L 263.288 162.155 L 262.410 161.477 L 261.519 160.796 L 260.615 160.114 L 259.698 159.429 L 258.768 158.742 L 257.825 158.054 L 256.870 157.364 L 255.902 156.672 L 254.923 155.979 L 253.932 155.285 L 252.930 154.589 L 251.917 153.893 L 250.893 153.196 L 249.859 152.498 L 248.814 151.799 L 247.759 151.100 L 246.695 150.401 L 245.621 149.701 L 244.538 149.002 L 243.447 148.302 L 242.347 147.603 L 241.238 146.904 L 240.122 146.206 L 238.998 145.508 L 237.866 144.811 L 236.728 144.115 L 235.583 143.420 L 234.431 142.727 L 233.274 142.034 L 232.110 141.343 L 230.941 140.654 L 229.767 139.967 L 228.588 139.281 L 227.404 138.597 L 226.216 137.916 L 225.024 137.236 L 223.829 136.560 L 222.630 135.885 L 221.428 135.214 L 220.224 134.545 L 219.017 133.879 L 217.808 133.216 L 216.597 132.556 L 215.385 131.900 L 214.172 131.247 L 212.959 130.597 L 211.744 129.952 L 210.530 129.310 L 209.316 128.672 L 208.102 128.038 L 206.890 127.408 L 205.678 126.783 L 204.468 126.162 L 203.260 125.545 L 202.053 124.934 L 200.850 124.327 L 199.649 123.725 L 198.451 123.128 L 197.256 122.536 L 196.066 121.949 L 194.879 121.368 L 193.697 120.792 L 192.519 120.222 L 191.346 119.658 L 190.179 119.099 L 189.017 118.546 L 187.861 117.999 L 186.711 117.459 L 185.568 116.924 L 184.431 116.396 L 183.302 115.875 L 182.180 115.360 L 181.065 114.851 L 179.959 114.350 L 178.861 113.855 L 177.771 113.367 L 176.690 112.886 L 175.618 112.412 L 174.556 111.945 L 173.504 111.486 L 172.461 111.034 L 171.429 110.590 L 170.407 110.153 L 169.396 109.724 L 168.395 109.302 L 167.407 108.888 L 166.429 108.482 L 165.464 108.084 L 164.510 107.694 L 163.569 107.313 L 162.641 106.939 L 161.725 106.574 L 160.822 106.216 L 159.933 105.868 L 159.057 105.527 L 158.194 105.196 L 157.346 104.872 L 156.512 104.558 L 155.692 104.252 L 154.887 103.955 L 154.096 103.667 L 153.321 103.387 L 152.561 103.117 L 151.816 102.855 L 151.087 102.603 L 150.374 102.359 L 149.676 102.125 L 148.995 101.899 L 148.330 101.683 L 147.681 101.477 L 147.050 101.279 L 146.435 101.091 L 145.837 100.912 L 145.256 100.742 L 144.692 100.582 L 144.146 100.431 L 143.618 100.290 L 143.107 100.158 L 142.614 100.036 L 142.139 99.923 L 141.682 99.820 L 141.243 99.726 L 140.823 99.642 L 140.421 99.567 L 140.037 99.503 L 139.672 99.447 L 139.326 99.402 L 138.998 99.365 L 138.690 99.339 L 138.400 99.322 L 138.129 99.315 L 137.878 99.318 L 137.645 99.330 L 137.432 99.351 L 137.238 99.383 L 137.064 99.424 L 136.908 99.474 L 136.772 99.534 L 136.656 99.604 L 136.559 99.683 L 136.481 99.772 L 136.423 99.870 L 136.384 99.978 L 136.365 100.095 L 136.365 100.222 L 136.384 100.358 L 136.423 100.503 L 136.482 100.658 L 136.560 100.822 L 136.657 100.996 L 136.774 101.178 L 136.910 101.370 L 137.065 101.571 L 137.240 101.781 L 137.434 102.001 L 137.647 102.229 L 137.878 102.466 L 138.129 102.713 L 138.399 102.968 L 138.688 103.232 L 138.996 103.504 L 139.322 103.786 L 139.666 104.076 L 140.030 104.375 L 140.411 104.682 L 140.811 104.998 L 141.229 105.322 L 141.666 105.655 L 142.120 105.996 L 142.592 106.345 L 143.081 106.702 L 143.589 107.067 L 144.113 107.441 L 144.655 107.822 L 145.214 108.211 L 145.790 108.608 L 146.383 109.013 L 146.992 109.425 L 147.618 109.845 L 148.260 110.272 L 148.919 110.706 L 149.593 111.148 L 150.283 111.597 L 150.989 112.053 L 151.710 112.516 L 152.446 112.986 L 153.197 113.463 L 153.963 113.947 L 154.744 114.437 L 155.539 114.934 L 156.348 115.437 L 157.171 115.946 L 158.008 116.462 L 158.859 116.984 L 159.722 117.512 L 160.599 118.045 L 161.489 118.585 L 162.391 119.130 L 163.305 119.681 L 164.232 120.237 L 165.170 120.799 L 166.120 121.366 L 167.081 121.938 L 168.053 122.515 L 169.036 123.097 L 170.030 123.684 L 171.034 124.276 L 172.048 124.872 L 173.072 125.472 L 174.105 126.077 L 175.147 126.686 L 176.199 127.300 L 177.258 127.917 L 178.327 128.538 L 179.403 129.163 L 180.487 129.791 L 181.579 130.423 L 182.678 131.058 L 183.783 131.696 L 184.896 132.338 L 186.014 132.983 L 187.139 133.630 L 188.269 134.280 L 189.405 134.933 L 190.546 135.588 L 191.692 136.245 L 192.842 136.905 L 193.996 137.567 L 195.155 138.231 L 196.316 138.896 L 197.482 139.563 L 198.650 140.232 L 199.821 140.902 L 200.994 141.574 L 202.169 142.247 L 203.346 142.920 L 204.524 143.595 L 205.704 144.270 L 206.884 144.946 L 208.065 145.623 L 209.246 146.300 L 210.427 146.977 L 211.607 147.654 L 212.787 148.331 L 213.965 149.008 L 215.142 149.685 L 216.318 150.361 L 217.491 151.037 L 218.662 151.712 L 219.830 152.386 L 220.996 153.060 L 222.158 153.732 L 223.317 154.403 L 224.472 155.072 L 225.623 155.740 L 226.769 156.407 L 227.910 157.072 L 229.047 157.735 L 230.178 158.396 L 231.303 159.054 L 232.423 159.711 L 233.536 160.365 L 234.642 161.017 L 235.742 161.666 L 236.835 162.312 L 237.920 162.955 L 238.998 163.596 L 240.067 164.233 L 241.129 164.867 L 242.181 165.497 L 243.225 166.124 L 244.260 166.748 L 245.286 167.367 L 246.302 167.983 L 247.308 168.595 L 248.304 169.202 L 249.289 169.806 L 250.264 170.405 L 251.228 171.000 L 252.180 171.590 L 253.122 172.175 L 254.051 172.756 L 254.969 173.331 L 255.874 173.902 L 256.768 174.467 L 257.648 175.028 L 258.516 175.582 L 259.370 176.132 L 260.212 176.676 L 261.039 177.214 L 261.853 177.746 L 262.653 178.273 L 263.439 178.793 L 264.211 179.308 L 264.968 179.816 L 265.710 180.318 L 266.437 180.814 L 267.150 181.303 L 267.846 181.786 L 268.528 182.261 L 269.194 182.731 L 269.843 183.193 L 270.477 183.648 L 271.095 184.097 L 271.696 184.538 L 272.281 184.972 L 272.849 185.399 L 273.401 185.819 L 273.935 186.231 L 274.453 186.635 L 274.953 187.032 L 275.436 187.422 L 275.902 187.803 L 276.350 188.177 L 276.780 188.543 L 277.192 188.901 L 277.587 189.251 L 277.964 189.593 L 278.322 189.927 L 278.663 190.252 L 278.985 190.570 L 279.289 190.879 L 279.574 191.179 L 279.841 191.471 L 280.089 191.755 L 280.319 192.030 L 280.530 192.297 L 280.723 192.555 L 280.896 192.804 L 281.051 193.044 L 281.187 193.276 L 281.304 193.499 L 281.403 193.712 L 281.482 193.917 L 281.543 194.113 L 281.584 194.301 L 281.607 194.479 L 281.610 194.648 L 281.595 194.807 L 281.561 194.958 L 281.508 195.100 L 281.436 195.232 L 281.345 195.356 L 281.235 195.470 L 281.107 195.575 L 280.959 195.670 L 280.793 195.757 L 280.609 195.834 L 280.406 195.902 L 280.184 195.960 L 279.943 196.009 L 279.685 196.049 L 279.408 196.080 L 279.112 196.101 L 278.799 196.113 L 278.467 196.115 L 278.117 196.109 L 277.750 196.093 L 277.365 196.067 L 276.961 196.033 L 276.541 195.989 L 276.103 195.935 L 275.647 195.873 L 275.175 195.801 L 274.685 195.720 L 274.178 195.630 L 273.654 195.530 L 273.114 195.422 L 272.557 195.304 L 271.984 195.177 L 271.395 195.041 L 270.790 194.896 L 270.168 194.742 L 269.531 194.579 L 268.878 194.407 L 268.210 194.226 L 267.527 194.036 L 266.829 193.837 L 266.116 193.629 L 265.388 193.413 L 264.646 193.188 L 263.890 192.954 L 263.120 192.712 L 262.335 192.461 L 261.538 192.201 L 260.727 191.933 L 259.902 191.657 L 259.065 191.372 L 258.215 191.079 L 257.352 190.777 L 256.477 190.468 L 255.591 190.150 L 254.692 189.824 L 253.782 189.491 L 252.860 189.149 L 251.928 188.800 L 250.984 188.442 L 250.030 188.077 L 249.066 187.704 L 248.092 187.324 L 247.108 186.937 L 246.114 186.541 L 245.111 186.139 L 244.099 185.729 L 243.079 185.312 L 242.049 184.888 L 241.012 184.457 L 239.967 184.019 L 238.914 183.575 L 237.854 183.123 L 236.787 182.665 L 235.713 182.200 L 234.633 181.729 L 233.546 181.252 L 232.454 180.768 L 231.355 180.278 L 230.252 179.782 L 229.143 179.280 L 228.030 178.772 L 226.912 178.258 L 225.791 177.739 L 224.665 177.214 L 223.536 176.684 L 222.403 176.148 L 221.268 175.607 L 220.130 175.061 L 218.989 174.510 L 217.847 173.954 L 216.702 173.393 L 215.557 172.827 L 214.410 172.257 L 213.262 171.682 L 212.114 171.103 L 210.966 170.519 L 209.817 169.932 L 208.669 169.340 L 207.522 168.745 L 206.376 168.146 L 205.231 167.543 L 204.087 166.936 L 202.946 166.326 L 201.806 165.713 L 200.670 165.097 L 199.535 164.477 L 198.405 163.855 L 197.277 163.229 L 196.153 162.601 L 195.033 161.971 L 193.918 161.338 L 192.807 160.703 L 191.700 160.065 L 190.599 159.425 L 189.504 158.784 L 188.414 158.140 L 187.330 157.495 L 186.253 156.849 L 185.182 156.201 L 184.118 155.551 L 183.061 154.901 L 182.012 154.249 L 180.970 153.596 L 179.936 152.943 L 178.911 152.289 L 177.894 151.634 L 176.885 150.979 L 175.886 150.323 L 174.896 149.668 L 173.916 149.012 L 172.945 148.357 L 171.985 147.701 L 171.035 147.046 L 170.096 146.392 L 169.167 145.738 L 168.249 145.085 L 167.343 144.433 L 166.448 143.781 L 165.565 143.131 L 164.694 142.482 L 163.835 141.835 L 162.989 141.189 L 162.155 140.544 L 161.335 139.901 L 160.527 139.260 L 159.733 138.622 L 158.952 137.985 L 158.185 137.350 L 157.432 136.718 L 156.693 136.089 L 155.968 135.461 L 155.258 134.837 L 154.562 134.216 L 153.881 133.597 L 153.216 132.982 L 152.565 132.370 L 151.930 131.761 L 151.310 131.155 L 150.707 130.554 L 150.119 129.955 L 149.547 129.361 L 148.991 128.771 L 148.451 128.184 L 147.928 127.602 L 147.421 127.024 L 146.931 126.451 L 146.458 125.881 L 146.002 125.317 L 145.563 124.757 L 145.141 124.202 L 144.737 123.652 L 144.349 123.107 L 143.979 122.567 L 143.627 122.032 L 143.293 121.503 L 142.976 120.979 L 142.677 120.461 L 142.395 119.948 L 142.132 119.441 L 141.887 118.940 L 141.660 118.444 L 141.451 117.955 L 141.260 117.472 L 141.088 116.995 L 140.933 116.525 L 140.797 116.060 L 140.680 115.603 L 140.580 115.152 L 140.499 114.707 L 140.437 114.269 L 140.393 113.838 L 140.367 113.414 L 140.360 112.997 L 140.371 112.587 L 140.400 112.185 L 140.448 111.789 L 140.515 111.401 L 140.599 111.020 L 140.702 110.646 L 140.823 110.281 L 140.963 109.922 L 141.121 109.572 L 141.297 109.229 L 141.491 108.893 L 141.703 108.566 L 141.933 108.247 L 142.181 107.935 L 142.447 107.632 L 142.730 107.337 L 143.032 107.049 L 143.351 106.770 L 143.687 106.500 L 144.041 106.237 L 144.412 105.983 L 144.801 105.737 L 145.206 105.500 L 145.629 105.271 L 146.069 105.051 L 146.525 104.840 L 146.998 104.637 L 147.487 104.442 L 147.993 104.256 L 148.515 104.079 L 149.053 103.911 L 149.608 103.752 L 150.178 103.601 L 150.763 103.459 L 151.364 103.326 L 151.981 103.202 L 152.612 103.087 L 153.259 102.981 L 153.920 102.883 L 154.596 102.795 L 155.287 102.715 L 155.992 102.645 L 156.711 102.584 L 157.443 102.531 L 158.190 102.488 L 158.950 102.453 L 159.723 102.428 L 160.509 102.412 L 161.308 102.404 L 162.120 102.406 L 162.944 102.417 L 163.780 102.437 L 164.629 102.465 L 165.489 102.503 L 166.360 102.550 L 167.243 102.606 L 168.137 102.670 L 169.042 102.744 L 169.957 102.827 L 170.883 102.918 L 171.819 103.019 L 172.764 103.128 L 173.719 103.246 L 174.684 103.373 L 175.657 103.509 L 176.640 103.653 L 177.631 103.806 L 178.630 103.968 L 179.637 104.139 L 180.652 104.318 L 181.674 104.506 L 182.703 104.703 L 183.740 104.908 L 184.783 105.121 L 185.832 105.343 L 186.888 105.573 L 187.949 105.812 L 189.016 106.059 L 190.088 106.314 L 191.165 106.577 L 192.247 106.848 L 193.333 107.128 L 194.423 107.415 L 195.517 107.711 L 196.615 108.014 L 197.715 108.325 L 198.819 108.644 L 199.925 108.971 L 201.034 109.305 L 202.145 109.647 L 203.257 109.997 L 204.371 110.354 L 205.486 110.718 L 206.602 111.089 L 207.718 111.468 L 208.835 111.854 L 209.952 112.247 L 211.069 112.647 L 212.184 113.054 L 213.299 113.467 L 214.413 113.888 L 215.525 114.315 L 216.636 114.748 L 217.744 115.188 L 218.850 115.635 L 219.954 116.088 L 221.054 116.547 L 222.151 117.012 L 223.245 117.483 L 224.335 117.960 L 225.421 118.443 L 226.502 118.932 L 227.579 119.426 L 228.651 119.926 L 229.717 120.431 L 230.778 120.942 L 231.833 121.458 L 232.882 121.979 L 233.925 122.505 L 234.961 123.036 L 235.990 123.572 L 237.012 124.112 L 238.027 124.657 L 239.034 125.207 L 240.033 125.761 L 241.024 126.320 L 242.006 126.882 L 242.979 127.449 L 243.944 128.020 L 244.899 128.594 L 245.845 129.172 L 246.781 129.754 L 247.707 130.339 L 248.622 130.928 L 249.528 131.520 L 250.422 132.115 L 251.306 132.713 L 252.178 133.314 L 253.039 133.918 L 253.889 134.525 L 254.726 135.134 L 255.552 135.745 L 256.365 136.359 L 257.166 136.975 L 257.954 137.593 L 258.729 138.214 L 259.491 138.835 L 260.239 139.459 L 260.975 140.084 L 261.696 140.711 L 262.404 141.339 L 263.097 141.968 L 263.777 142.599 L 264.442 143.230 L 265.092 143.862 L 265.727 144.495 L 266.348 145.129 L 266.954 145.763 L 267.544 146.397 L 268.119 147.032 L 268.678 147.666 L 269.222 148.301 L 269.750 148.935 L 270.262 149.570 L 270.758 150.204 L 271.238 150.837 L 271.701 151.470 L 272.148 152.102 L 272.578 152.733 L 272.992 153.363 L 273.389 153.992 L 273.769 154.619 L 274.132 155.245 L 274.478 155.870 L 274.807 156.493 L 275.119 157.115 L 275.413 157.734 L 275.690 158.352 L 275.950 158.967 L 276.192 159.580 L 276.416 160.191 L 276.623 160.800 L 276.812 161.405 L 276.983 162.009 L 277.137 162.609 L 277.273 163.206 L 277.391 163.801 L 277.491 164.392 L 277.573 164.980 L 277.638 165.564 L 277.684 166.145 L 277.713 166.722 L 277.724 167.296 L 277.717 167.866 L 277.691 168.431 L 277.648 168.993 L 277.588 169.551 L 277.509 170.104 L 277.412 170.653 L 277.298 171.197 L 277.166 171.737 L 277.016 172.272 L 276.849 172.802 L 276.663 173.328 L 276.461 173.848 L 276.241 174.363 L 276.003 174.873 L 275.748 175.378 L 275.476 175.877 L 275.186 176.371 L 274.879 176.860 L 274.555 177.342 L 274.215 177.819 L 273.857 178.290 L 273.483 178.755 L 273.092 179.213 L 272.684 179.666 L 272.260 180.112 L 271.819 180.553 L 271.363 180.986 L 270.890 181.414 L 270.401 181.834 L 269.897 182.248 L 269.376 182.656 L 268.841 183.056 L 268.289 183.450 L 267.723 183.836 L 267.141 184.216 L 266.545 184.589 L 265.934 184.954 L 265.308 185.312 L 264.667 185.663 L 264.013 186.006 L 263.344 186.342 L 262.662 186.671 L 261.965 186.992 L 261.255 187.305 L 260.532 187.611 L 259.796 187.909 L 259.047 188.199 L 258.284 188.481 L 257.510 188.755 L 256.723 189.022 L 255.924 189.280 L 255.113 189.530 L 254.290 189.772 L 253.456 190.006 L 252.611 190.232 L 251.754 190.450 L 250.887 190.659 L 250.009 190.860 L 249.121 191.053 L 248.223 191.237 L 247.315 191.413 L 246.398 191.580 L 245.471 191.739 L 244.534 191.890 L 243.590 192.032 L 242.636 192.165 L 241.674 192.290 L 240.704 192.406 L 239.726 192.513 L 238.741 192.612 L 237.748 192.702 L 236.748 192.784 L 235.742 192.857 L 234.729 192.921 L 233.709 192.976 L 232.684 193.023 L 231.653 193.061 L 230.617 193.090 L 229.575 193.110 L 228.529 193.122 L 227.478 193.125 L 226.422 193.119 L 225.363 193.105 L 224.300 193.082 L 223.233 193.050 L 222.163 193.009 L 221.090 192.960 L 220.015 192.902 L 218.937 192.835 L 217.858 192.760 L 216.776 192.676 L 215.693 192.583 L 214.609 192.482 L 213.524 192.372 L 212.438 192.253 L 211.352 192.127 L 210.266 191.991 L 209.180 191.847 L 208.095 191.695 L 207.011 191.534 L 205.927 191.365 L 204.845 191.188 L 203.765 191.002 L 202.687 190.808 L 201.610 190.606 L 200.537 190.395 L 199.466 190.177 L 198.398 189.950 L 197.334 189.715 L 196.273 189.472 L 195.217 189.222 L 194.164 188.963 L 193.116 188.697 L 192.073 188.423 L 191.035 188.141 L 190.002 187.851 L 188.975 187.554 L 187.953 187.249 L 186.938 186.937 L 185.929 186.617 L 184.927 186.290 L 183.931 185.955 L 182.943 185.614 L 181.962 185.265 L 180.989 184.909 L 180.024 184.546 L 179.067 184.176 L 178.119 183.799 L 177.179 183.416 L 176.249 183.026 L 175.327 182.629 L 174.415 182.225 L 173.512 181.815 L 172.620 181.399 L 171.737 180.976 L 170.865 180.547 L 170.004 180.112 L 169.153 179.671 L 168.314 179.224 L 167.485 178.771 L 166.668 178.312 L 165.863 177.847 L 165.070 177.377 L 164.289 176.902 L 163.520 176.421 L 162.764 175.934 L 162.020 175.443 L 161.289 174.946 L 160.572 174.444 L 159.867 173.937 L 159.176 173.426 L 158.499 172.910 L 157.836 172.389 L 157.186 171.863 L 156.551 171.333 L 155.930 170.799 L 155.323 170.261 L 154.732 169.718 L 154.154 169.172 L 153.592 168.621 L 153.045 168.067 L 152.513 167.509 L 151.997 166.948 L 151.496 166.383 L 151.010 165.815 L 150.541 165.244 L 150.087 164.669 L 149.649 164.092 L 149.227 163.511 L 148.821 162.928 L 148.432 162.342 L 148.059 161.754 L 147.703 161.163 L 147.363 160.570 L 147.040 159.975 L 146.733 159.377 L 146.444 158.778 L 146.171 158.177 L 145.915 157.574 L 145.676 156.969 L 145.455 156.363 L 145.250 155.756 L 145.063 155.148 L 144.892 154.538 L 144.739 153.927 L 144.604 153.316 L 144.486 152.703 L 144.385 152.090 L 144.301 151.477 L 144.235 150.863 L 144.186 150.249 L 144.155 149.634 L 144.141 149.020 L 144.144 148.405 L 144.165 147.791 L 144.203 147.177 L 144.259 146.564 L 144.332 145.951 L 144.423 145.339 L 144.530 144.728 L 144.655 144.117 L 144.797 143.508 L 144.957 142.899 L 145.133 142.292 L 145.327 141.687 L 145.538 141.083 L 145.765 140.480 L 146.010 139.879 L 146.272 139.281 L 146.550 138.684 L 146.845 138.089 L 147.156 137.496 L 147.484 136.906 L 147.829 136.318 L 148.190 135.733 L 148.567 135.150 L 148.960 134.570 L 149.369 133.994 L 149.794 133.420 L 150.235 132.849 L 150.692 132.281 L 151.164 131.717 L 151.651 131.156 L 152.154 130.599 L 152.672 130.045 L 153.205 129.496 L 153.753 128.950 L 154.316 128.408 L 154.893 127.870 L 155.484 127.336 L 156.090 126.807 L 156.710 126.282 L 157.344 125.762 L 157.991 125.246 L 158.653 124.735 L 159.327 124.228 L 160.015 123.727 L 160.715 123.230 L 161.429 122.739 L 162.155 122.253 L 162.894 121.772 L 163.644 121.296 L 164.407 120.826 L 165.182 120.362 L 165.968 119.903 L 166.766 119.450 L 167.575 119.002 L 168.395 118.561 L 169.226 118.126 L 170.067 117.696 L 170.918 117.273 L 171.780 116.856 L 172.651 116.445 L 173.533 116.041 L 174.423 115.643 L 175.323 115.252 L 176.231 114.868 L 177.148 114.490 L 178.074 114.118 L 179.008 113.754 L 179.950 113.397 L 180.899 113.046 L 181.856 112.703 L 182.820 112.367 L 183.791 112.037 L 184.768 111.716 L 185.752 111.401 L 186.742 111.094 L 187.738 110.794 L 188.740 110.502 L 189.747 110.217 L 190.759 109.939 L 191.775 109.670 L 192.796 109.408 L 193.822 109.154 L 194.851 108.907 L 195.885 108.669 L 196.921 108.438 L 197.961 108.215 L 199.004 108.000 L 200.049 107.793 L 201.097 107.594 L 202.146 107.403 L 203.198 107.221 L 204.250 107.046 L 205.305 106.880 L 206.360 106.721 L 207.415 106.571 L 208.471 106.430 L 209.528 106.296 L 210.584 106.171 L 211.639 106.054 L 212.694 105.946 L 213.748 105.846 L 214.800 105.754 L 215.851 105.670 L 216.900 105.595 L 217.947 105.529 L 218.992 105.471 L 220.034 105.421 L 221.073 105.380 L 222.108 105.347 L 223.141 105.323 L 224.169 105.307 L 225.193 105.300 L 226.213 105.301 L 227.229 105.310 L 228.240 105.328 L 229.245 105.355 L 230.245 105.389 L 231.240 105.433 L 232.228 105.484 L 233.211 105.545 L 234.187 105.613 L 235.156 105.690 L 236.119 105.775 L 237.074 105.869 L 238.022 105.971 L 238.962 106.081 L 239.894 106.199 L 240.818 106.326 L 241.733 106.461 L 242.640 106.604 L 243.538 106.755 L 244.427 106.915 L 245.307 107.082 L 246.177 107.258 L 247.037 107.441 L 247.887 107.633 L 248.727 107.832 L 249.556 108.040 L 250.375 108.255 L 251.183 108.478 L 251.979 108.709 L 252.765 108.948 L 253.539 109.194 L 254.301 109.448 L 255.051 109.709 L 255.789 109.978 L 256.514 110.255 L 257.227 110.538 L 257.928 110.830 L 258.616 111.128 L 259.290 111.434 L 259.951 111.747 L 260.599 112.067 L 261.234 112.394 L 261.854 112.728 L 262.461 113.069 L 263.054 113.416 L 263.632 113.771 L 264.196 114.132 L 264.746 114.500 L 265.281 114.874 L 265.801 115.255 L 266.307 115.642 L 266.797 116.036 L 267.272 116.436 L 267.732 116.842 L 268.176 117.254 L 268.605 117.672 L 269.019 118.096 L 269.416 118.526 L 269.798 118.961 L 270.164 119.402 L 270.514 119.849 L 270.848 120.301 L 271.165 120.759 L 271.467 121.222 L 271.752 121.690 L 272.020 122.163 L 272.272 122.642 L 272.508 123.125 L 272.727 123.613 L 272.929 124.105 L 273.115 124.603 L 273.284 125.105 L 273.436 125.611 L 273.571 126.122 L 273.690 126.637 L 273.791 127.156 L 273.876 127.679 L 273.944 128.206 L 273.994 128.737 L 274.028 129.271 L 274.045 129.809 L 274.045 130.351 L 274.028 130.896 L 273.995 131.444 L 273.944 131.996 L 273.876 132.551 L 273.792 133.108 L 273.690 133.668 L 273.572 134.232 L 273.437 134.797 L 273.286 135.366 L 273.117 135.936 L 272.932 136.509 L 272.731 137.085 L 272.513 137.662 L 272.278 138.241 L 272.027 138.822 L 271.760 139.405 L 271.476 139.989 L 271.177 140.575 L 270.861 141.162 L 270.529 141.751 L 270.182 142.341 L 269.818 142.931 L 269.439 143.523 L 269.044 144.115 L 268.634 144.708 L 268.208 145.302 L 267.767 145.896 L 267.311 146.491 L 266.840 147.086 L 266.354 147.680 L 265.853 148.275 L 265.338 148.870 L 264.808 149.464 L 264.263 150.058 L 263.705 150.652 L 263.133 151.245 L 262.546 151.837 L 261.946 152.429 L 261.333 153.019 L 260.706 153.609 L 260.065 154.197 L 259.412 154.784 L 258.746 155.370 L 258.067 155.954 L 257.376 156.536 L 256.672 157.117 L 255.956 157.696 L 255.228 158.273 L 254.489 158.848 L 253.738 159.420 L 252.975 159.991 L 252.202 160.558 L 251.417 161.124 L 250.622 161.687 L 249.816 162.247 L 249.000 162.804 L 248.174 163.358 L 247.338 163.909 L 246.493 164.457 L 245.638 165.002 L 244.774 165.543 L 243.901 166.081 L 243.019 166.615 L 242.128 167.146 L 241.230 167.672 L 240.323 168.195 L 239.409 168.714 L 238.487 169.229 L 237.558 169.739 L 236.622 170.245 L 235.679 170.747 L 234.730 171.244 L 233.774 171.737 L 232.813 172.225 L 231.845 172.708 L 230.872 173.186 L 229.894 173.660 L 228.911 174.128 L 227.923 174.591 L 226.931 175.049 L 225.935 175.502 L 224.934 175.949 L 223.930 176.390 L 222.923 176.826 L 221.912 177.257 L 220.899 177.681 L 219.883 178.100 L 218.865 178.513 L 217.844 178.920 L 216.822 179.321 L 215.798 179.715 L 214.773 180.104 L 213.748 180.486 L 212.721 180.862 L 211.694 181.231 L 210.667 181.594 L 209.640 181.950 L 208.613 182.300 L 207.587 182.643 L 206.562 182.979 L 205.539 183.308 L 204.516 183.630 L 203.496 183.946 L 202.477 184.254 L 201.461 184.555 L 200.447 184.849 L 199.436 185.136 L 198.428 185.416 L 197.424 185.688 L 196.423 185.953 L 195.426 186.211 L 194.433 186.461 L 193.444 186.703 L 192.461 186.938 L 191.482 187.166 L 190.508 187.386 L 189.540 187.598 L 188.577 187.802 L 187.621 187.999 L 186.670 188.188 L 185.726 188.369 L 184.789 188.542 L 183.859 188.707 L 182.935 188.865 L 182.020 189.014 L 181.112 189.156 L 180.211 189.289 L 179.319 189.415 L 178.436 189.532 L 177.560 189.641 L 176.694 189.743 L 175.837 189.836 L 174.989 189.921 L 174.151 189.998 L 173.322 190.067 L 172.503 190.127 L 171.695 190.180 L 170.896 190.224 L 170.109 190.260 L 169.332 190.288 L 168.566 190.307 L 167.811 190.319 L 167.068 190.322 L 166.336 190.317 L 165.616 190.304 L 164.907 190.283 L 164.211 190.254 L 163.528 190.216 L 162.857 190.171 L 162.198 190.117 L 161.552 190.055 L 160.920 189.985 L 160.300 189.906 L 159.694 189.820 L 159.101 189.726 L 158.522 189.623 L 157.956 189.513 L 157.405 189.394 L 156.868 189.268 L 156.344 189.134 L 155.836 188.991 L 155.341 188.841 L 154.861 188.683 L 154.396 188.518 L 153.946 188.344 L 153.511 188.163 L 153.091 187.974 L 152.686 187.777 L 152.296 187.572 L 151.921 187.361 L 151.562 187.141 L 151.219 186.914 L 150.891 186.680 L 150.579 186.438 L 150.283 186.189 L 150.003 185.932 L 149.738 185.668 L 149.490 185.397 L 149.257 185.119 L 149.041 184.834 L 148.841 184.542 L 148.657 184.242 L 148.490 183.936 L 148.339 183.623 L 148.204 183.304 L 148.085 182.977 L 147.983 182.644 L 147.897 182.304 L 147.828 181.958 L 147.775 181.605 L 147.739 181.246 L 147.719 180.881 L 147.716 180.509 L 147.729 180.132 L 147.759 179.748 L 147.805 179.358 L 147.867 178.962 L 147.946 178.560 L 148.041 178.153 L 148.153 177.740 L 148.281 177.321 L 148.425 176.897 L 148.585 176.467 L 148.762 176.032 L 148.955 175.592 L 149.163 175.147 L 149.388 174.696 L 149.629 174.241 L 149.886 173.780 L 150.158 173.315 L 150.447 172.845 L 150.751 172.370 L 151.070 171.891 L 151.405 171.408 L 151.756 170.920 L 152.121 170.428 L 152.502 169.931 L 152.898 169.431 L 153.309 168.927 L 153.735 168.419 L 154.176 167.907 L 154.631 167.391 L 155.100 166.872 L 155.585 166.349 L 156.083 165.823 L 156.595 165.294 L 157.122 164.762 L 157.662 164.227 L 158.216 163.688 L 158.784 163.147 L 159.364 162.604 L 159.958 162.057 L 160.566 161.508 L 161.186 160.957 L 161.818 160.403 L 162.464 159.848 L 163.121 159.290 L 163.791 158.730 L 164.473 158.169 L 165.167 157.605 L 165.872 157.040 L 166.589 156.474 L 167.317 155.906 L 168.057 155.337 L 168.807 154.767 L 169.567 154.195 L 170.339 153.623 L 171.120 153.050 L 171.912 152.476 L 172.713 151.902 L 173.524 151.327 L 174.345 150.751 L 175.174 150.176 L 176.013 149.600 L 176.860 149.024 L 177.716 148.448 L 178.580 147.873 L 179.452 147.297 L 180.332 146.723 L 181.220 146.148 L 182.115 145.574 L 183.017 145.001 L 183.926 144.429 L 184.842 143.858 L 185.764 143.288 L 186.692 142.719 L 187.626 142.151 L 188.565 141.585 L 189.510 141.020 L 190.461 140.457 L 191.416 139.896 L 192.375 139.336 L 193.339 138.779 L 194.308 138.223 L 195.280 137.670 L 196.255 137.119 L 197.234 136.570 L 198.217 136.024 L 199.202 135.480 L 200.189 134.939 L 201.179 134.401 L 202.171 133.866 L 203.165 133.334 L 204.160 132.805 L 205.156 132.279 L 206.154 131.757 L 207.152 131.238 L 208.151 130.722 L 209.149 130.210 L 210.148 129.702 L 211.147 129.198 L 212.145 128.698 L 213.142 128.201 L 214.138 127.709 L 215.132 127.221 L 216.125 126.737 L 217.116 126.258 L 218.105 125.783 L 219.091 125.313 L 220.075 124.847 L 221.055 124.386 L 222.033 123.930 L 223.007 123.479 L 223.977 123.033 L 224.944 122.593 L 225.906 122.157 L 226.864 121.727 L 227.817 121.302 L 228.764 120.882 L 229.707 120.468 L 230.644 120.059 L 231.576 119.657 L 232.501 119.260 L 233.421 118.869 L 234.334 118.483 L 235.240 118.104 L 236.139 117.731 L 237.031 117.364 L 237.916 117.003 L 238.793 116.648 L 239.662 116.300 L 240.523 115.958 L 241.375 115.623 L 242.220 115.294 L 243.055 114.972 L 243.881 114.656 L 244.699 114.347 L 245.507 114.045 L 246.305 113.750 L 247.093 113.461 L 247.871 113.180 L 248.640 112.906 L 249.397 112.638 L 250.144 112.378 L 250.880 112.125 L 251.606 111.879 L 252.320 111.640 L 253.022 111.409 L 253.713 111.184 L 254.392 110.968 L 255.060 110.758 L 255.715 110.556 L 256.358 110.362 L 256.988 110.175 L 257.606 109.996 L 258.211 109.824 L 258.804 109.660 L 259.383 109.504 L 259.949 109.355 L 260.501 109.214 L 261.040 109.080 L 261.566 108.955 L 262.077 108.837 L 262.575 108.727 L 263.058 108.625 L 263.528 108.530 L 263.983 108.444 L 264.424 108.365 L 264.850 108.294 L 265.262 108.232 L 265.659 108.177 L 266.041 108.130 L 266.408 108.090 L 266.760 108.059 L 267.097 108.036 L 267.419 108.020 L 267.725 108.013 L 268.017 108.014 L 268.292 108.022 L 268.553 108.038 L 268.797 108.063 L 269.026 108.095 L 269.240 108.135 L 269.438 108.183 L 269.620 108.239 L 269.786 108.302 L 269.936 108.374 L 270.070 108.453 L 270.189 108.540 L 270.291 108.635 L 270.378 108.738 L 270.448 108.849 L 270.503 108.967 L 270.542 109.093 L 270.564 109.226 L 270.571 109.368 L 270.561 109.517 L 270.536 109.673 L 270.494 109.837 L 270.437 110.009 L 270.363 110.188 L 270.274 110.374 L 270.168 110.568 L 270.047 110.769 L 269.910 110.978 L 269.757 111.194 L 269.589 111.417 L 269.404 111.647 L 269.205 111.885 L 268.989 112.130 L 268.758 112.381 L 268.511 112.640 L 268.249 112.905 L 267.972 113.178 L 267.680 113.457 L 267.372 113.743 L 267.049 114.036 L 266.712 114.335 L 266.359 114.641 L 265.992 114.954 L 265.609 115.273 L 265.213 115.599 L 264.801 115.930 L 264.376 116.269 L 263.936 116.613 L 263.482 116.963 L 263.014 117.320 L 262.532 117.682 L 262.037 118.051 L 261.527 118.425 L 261.005 118.805 L 260.469 119.191 L 259.920 119.583 L 259.357 119.980 L 258.782 120.382 L 258.194 120.790 L 257.594 121.203 L 256.981 121.621 L 256.356 122.045 L 255.719 122.473 L 255.070 122.907 L 254.409 123.345 L 253.737 123.789 L 253.053 124.237 L 252.358 124.689 L 251.652 125.146 L 250.935 125.608 L 250.208 126.074 L 249.470 126.544 L 248.722 127.018 L 247.964 127.496 L 247.196 127.979 L 246.419 128.465 L 245.632 128.955 L 244.836 129.449 L 244.031 129.946 L 243.217 130.447 L 242.395 130.951 L 241.564 131.458 L 240.726 131.969 L 239.879 132.482 L 239.025 132.999 L 238.163 133.519 L 237.294 134.041 L 236.418 134.566 L 235.536 135.094 L 234.647 135.624 L 233.751 136.156 L 232.850 136.691 L 231.943 137.228 L 231.030 137.767 L 230.112 138.308 L 229.189 138.850 L 228.261 139.395 L 227.329 139.941 L 226.392 140.488 L 225.451 141.037 L 224.507 141.588 L 223.558 142.139 L 222.607 142.692 L 221.652 143.245 L 220.695 143.800 L 219.735 144.355 L 218.773 144.911 L 217.809 145.467 L 216.843 146.024 L 215.875 146.581 L 214.906 147.138 L 213.937 147.696 L 212.966 148.253 L 211.995 148.811 L 211.023 149.368 L 210.052 149.925 L 209.081 150.481 L 208.111 151.037 L 207.141 151.592 L 206.172 152.146 L 205.205 152.700 L 204.239 153.252 L 203.275 153.804 L 202.313 154.354 L 201.353 154.903 L 200.396 155.450 L 199.441 155.996 L 198.490 156.541 L 197.542 157.083 L 196.598 157.624 L 195.657 158.163 L 194.721 158.700 L 193.788 159.234 L 192.861 159.767 L 191.938 160.297 L 191.020 160.824 L 190.108 161.350 L 189.201 161.872 L 188.299 162.391 L 187.404 162.908 L 186.515 163.422 L 185.633 163.933 L 184.757 164.440 L 183.888 164.944 L 183.026 165.445 L 182.172 165.943 L 181.325 166.436 L 180.486 166.927 L 179.655 167.413 L 178.832 167.896 L 178.018 168.374 L 177.213 168.849 L 176.416 169.320 L 175.629 169.786 L 174.851 170.248 L 174.082 170.705 L 173.323 171.159 L 172.574 171.607 L 171.835 172.051 L 171.107 172.490 L 170.388 172.925 L 169.681 173.354 L 168.984 173.779 L 168.299 174.198 L 167.625 174.612 L 166.962 175.021 L 166.311 175.425 L 165.671 175.823 L 165.043 176.216 L 164.428 176.603 L 163.824 176.985 L 163.233 177.361 L 162.655 177.731 L 162.089 178.096 L 161.536 178.454 L 160.996 178.807 L 160.469 179.153 L 159.956 179.494 L 159.456 179.828 L 158.969 180.156 L 158.496 180.478 L 158.036 180.793 L 157.591 181.102 L 157.159 181.405 L 156.742 181.701 L 156.339 181.990 L 155.950 182.273 L 155.576 182.549 L 155.216 182.818 L 154.870 183.081 L 154.539 183.336 L 154.223 183.585 L 153.922 183.827 L 153.636 184.062 L 153.365 184.289 L 153.109 184.510 L 152.868 184.724 L 152.642 184.930 L 152.431 185.130 L 152.236 185.322 L 152.056 185.506 L 151.891 185.684 L 151.742 185.854 L 151.608 186.017 L 151.490 186.172 L 151.387 186.320 L 151.300 186.461 L 151.228 186.594 L 151.172 186.720 L 151.131 186.838 L 151.106 186.948 L 151.096 187.051 L 151.103 187.146 L 151.124 187.234 L 151.161 187.314 L 151.214 187.387 L 151.282 187.452 L 151.366 187.509 L 151.466 187.559 L 151.580 187.601 L 151.710 187.635 L 151.856 187.662 L 152.017 187.681 L 152.193 187.692 L 152.384 187.696 L 152.591 187.692 L 152.812 187.680 L 153.049 187.660 L 153.301 187.633 L 153.568 187.599 L 153.849 187.556 L 154.145 187.506 L 154.456 187.449 L 154.782 187.384 L 155.122 187.311 L 155.476 187.230 L 155.845 187.142 L 156.228 187.047 L 156.625 186.944 L 157.036 186.833 L 157.461 186.715 L 157.899 186.590 L 158.352 186.457 L 158.818 186.317 L 159.297 186.169 L 159.789 186.014 L 160.295 185.852 L 160.814 185.683 L 161.345 185.506 L 161.890 185.322 L 162.446 185.131 L 163.016 184.933 L 163.597 184.728 L 164.191 184.515 L 164.796 184.296 L 165.413 184.070 L 166.042 183.837 L 166.683 183.597 L 167.334 183.350 L 167.997 183.096 L 168.670 182.836 L 169.355 182.569 L 170.050 182.296 L 170.755 182.016 L 171.470 181.729 L 172.196 181.437 L 172.931 181.137 L 173.676 180.832 L 174.430 180.520 L 175.193 180.202 L 175.965 179.878 L 176.746 179.548 L 177.536 179.212 L 178.334 178.869 L 179.140 178.522 L 179.954 178.168 L 180.776 177.809 L 181.606 177.444 L 182.442 177.073 L 183.286 176.697 L 184.136 176.315 L 184.993 175.929 L 185.856 175.537 L 186.726 175.139 L 187.601 174.737 L 188.482 174.330 L 189.369 173.917 L 190.261 173.500 L 191.157 173.078 L 192.059 172.652 L 192.965 172.221 L 193.875 171.785 L 194.789 171.345 L 195.707 170.900 L 196.628 170.451 L 197.553 169.998 L 198.480 169.541 L 199.411 169.080 L 200.344 168.615 L 201.279 168.147 L 202.216 167.674 L 203.156 167.198 L 204.096 166.719 L 205.038 166.236 L 205.981 165.749 L 206.925 165.260 L 207.869 164.767 L 208.814 164.271 L 209.758 163.773 L 210.703 163.271 L 211.647 162.767 L 212.590 162.260 L 213.532 161.751 L 214.473 161.239 L 215.413 160.724 L 216.351 160.208 L 217.287 159.689 L 218.221 159.169 L 219.152 158.646 L 220.081 158.122 L 221.006 157.595 L 221.929 157.068 L 222.848 156.538 L 223.764 156.007 L 224.675 155.475 L 225.583 154.942 L 226.486 154.408 L 227.384 153.872 L 228.278 153.336 L 229.166 152.799 L 230.049 152.261 L 230.927 151.723 L 231.799 151.184 L 232.664 150.645 L 233.524 150.105 L 234.377 149.566 L 235.223 149.026 L 236.063 148.486 L 236.895 147.947 L 237.720 147.408 L 238.538 146.869 L 239.347 146.331 L 240.149 145.793 L 240.942 145.256 L 241.727 144.719 L 242.504 144.184 L 243.271 143.650 L 244.030 143.116 L 244.779 142.584 L 245.519 142.053 L 246.250 141.524 L 246.970 140.996 L 247.681 140.470 L 248.381 139.945 L 249.071 139.423 L 249.751 138.902 L 250.419 138.383 L 251.077 137.867 L 251.724 137.352 L 252.360 136.840 L 252.984 136.331 L 253.597 135.824 L 254.198 135.319 L 254.787 134.818 L 255.364 134.319 L 255.929 133.823 L 256.482 133.330 L 257.022 132.840 L 257.550 132.353 L 258.065 131.870 L 258.567 131.390 L 259.056 130.914 L 259.532 130.441 L 259.995 129.971 L 260.444 129.506 L 260.880 129.044 L 261.303 128.587 L 261.711 128.133 L 262.106 127.684 L 262.487 127.238 L 262.854 126.797 L 263.207 126.361 L 263.546 125.929 L 263.870 125.501 L 264.181 125.078 L 264.476 124.660 L 264.758 124.246 L 265.024 123.838 L 265.276 123.434 L 265.514 123.035 L 265.736 122.642 L 265.944 122.253 L 266.137 121.870 L 266.315 121.492 L 266.479 121.120 L 266.627 120.753 L 266.760 120.392 L 266.878 120.036 L 266.981 119.686 L 267.069 119.341 L 267.142 119.003 L 267.200 118.670 L 267.242 118.343 L 267.270 118.022 L 267.282 117.708 L 267.279 117.399 L 267.261 117.097 L 267.228 116.801 L 267.180 116.511 L 267.116 116.227 L 267.038 115.950 L 266.944 115.679 L 266.836 115.415 L 266.712 115.157 L 266.574 114.906 L 266.420 114.662 L 266.252 114.424 L 266.069 114.193 L 265.871 113.969 L 265.658 113.752 L 265.431 113.541 L 265.189 113.338 L 264.933 113.141 L 264.662 112.951 L 264.377 112.769 L 264.078 112.593 L 263.764 112.425 L 263.436 112.263 L 263.094 112.109 L 262.738 111.962 L 262.369 111.822 L 261.985 111.689 L 261.588 111.564 L 261.178 111.446 L 260.754 111.335 L 260.317 111.231 L 259.866 111.135 L 259.403 111.046 L 258.927 110.965 L 258.437 110.890 L 257.936 110.824 L 257.421 110.764 L 256.894 110.712 L 256.355 110.668 L 255.804 110.630 L 255.241 110.601 L 254.666 110.578 L 254.080 110.564 L 253.482 110.556 L 252.873 110.556 L 252.252 110.563 L 251.621 110.578 L 250.978 110.601 L 250.325 110.630 L 249.662 110.667 L 248.988 110.712 L 248.305 110.764 L 247.611 110.823 L 246.907 110.889 L 246.194 110.963 L 245.472 111.045 L 244.740 111.133 L 244.000 111.229 L 243.250 111.332 L 242.493 111.442 L 241.726 111.560 L 240.952 111.685 L 240.169 111.817 L 239.379 111.956 L 238.582 112.102 L 237.777 112.255 L 236.965 112.416 L 236.146 112.583 L 235.320 112.757 L 234.488 112.939 L 233.649 113.127 L 232.805 113.322 L 231.955 113.524 L 231.099 113.732 L 230.238 113.948 L 229.372 114.170 L 228.501 114.399 L 227.625 114.634 L 226.745 114.876 L 225.861 115.125 L 224.973 115.380 L 224.081 115.641 L 223.185 115.909 L 222.287 116.183 L 221.385 116.463 L 220.481 116.749 L 219.574 117.042 L 218.665 117.341 L 217.754 117.645 L 216.841 117.956 L 215.926 118.272 L 215.011 118.595 L 214.094 118.923 L 213.176 119.257 L 212.258 119.596 L 211.339 119.941 L 210.421 120.291 L 209.502 120.647 L 208.584 121.008 L 207.667 121.375 L 206.750 121.747 L 205.835 122.124 L 204.921 122.505 L 204.008 122.892 L 203.097 123.284 L 202.189 123.681 L 201.283 124.082 L 200.379 124.488 L 199.478 124.899 L 198.580 125.314 L 197.686 125.733 L 196.795 126.157 L 195.908 126.585 L 195.024 127.017 L 194.145 127.454 L 193.271 127.894 L 192.401 128.338 L 191.536 128.786 L 190.676 129.238 L 189.821 129.694 L 188.972 130.153 L 188.129 130.615 L 187.292 131.081 L 186.461 131.550 L 185.637 132.022 L 184.819 132.498 L 184.008 132.976 L 183.204 133.457 L 182.408 133.941 L 181.619 134.428 L 180.838 134.918 L 180.065 135.409 L 179.300 135.904 L 178.543 136.400 L 177.795 136.899 L 177.055 137.400 L 176.325 137.903 L 175.603 138.408 L 174.891 138.915 L 174.188 139.424 L 173.495 139.934 L 172.812 140.445 L 172.139 140.958 L 171.476 141.473 L 170.824 141.989 L 170.182 142.505 L 169.550 143.023 L 168.930 143.542 L 168.321 144.061 L 167.722 144.582 L 167.136 145.103 L 166.560 145.624 L 165.997 146.146 L 165.445 146.668 L 164.905 147.190 L 164.377 147.713 L 163.861 148.235 L 163.358 148.757 L 162.867 149.280 L 162.389 149.801 L 161.924 150.323 L 161.471 150.844 L 161.031 151.364 L 160.605 151.884 L 160.191 152.403 L 159.791 152.920 L 159.404 153.437 L 159.031 153.953 L 158.671 154.468 L 158.325 154.981 L 157.993 155.493 L 157.675 156.003 L 157.370 156.512 L 157.080 157.018 L 156.804 157.524 L 156.541 158.027 L 156.293 158.528 L 156.060 159.027 L 155.840 159.524 L 155.635 160.019 L 155.444 160.511 L 155.268 161.001 L 155.107 161.488 L 154.960 161.972 L 154.827 162.454 L 154.709 162.933 L 154.606 163.408 L 154.518 163.881 L 154.444 164.351 L 154.385 164.817 L 154.340 165.280 L 154.311 165.740 L 154.296 166.196 L 154.296 166.649 L 154.310 167.097 L 154.339 167.542 L 154.383 167.984 L 154.442 168.421 L 154.515 168.854 L 154.603 169.283 L 154.706 169.708 L 154.823 170.129 L 154.955 170.545 L 155.101 170.957 L 155.262 171.365 L 155.437 171.767 L 155.627 172.165 L 155.830 172.559 L 156.049 172.947 L 156.281 173.331 L 156.527 173.710 L 156.788 174.083 L 157.062 174.452 L 157.351 174.815 L 157.653 175.173 L 157.969 175.526 L 158.299 175.873 L 158.642 176.215 L 158.999 176.551 L 159.369 176.882 L 159.752 177.207 L 160.149 177.527 L 160.558 177.840 L 160.981 178.148 L 161.416 178.450 L 161.865 178.746 L 162.325 179.036 L 162.799 179.320 L 163.284 179.598 L 163.782 179.869 L 164.292 180.135 L 164.813 180.394 L 165.347 180.647 L 165.892 180.893 L 166.449 181.133 L 167.017 181.367 L 167.596 181.594 L 168.187 181.814 L 168.788 182.028 L 169.400 182.235 L 170.022 182.436 L 170.655 182.630 L 171.298 182.817 L 171.951 182.998 L 172.614 183.171 L 173.287 183.338 L 173.969 183.498 L 174.661 183.651 L 175.362 183.797 L 176.071 183.936 L 176.790 184.068 L 177.517 184.194 L 178.252 184.312 L 178.996 184.423 L 179.747 184.527 L 180.506 184.624 L 181.273 184.714 L 182.048 184.796 L 182.829 184.872 L 183.617 184.941 L 184.413 185.002 L 185.214 185.056 L 186.022 185.103 L 186.836 185.143 L 187.656 185.175 L 188.482 185.201 L 189.313 185.219 L 190.149 185.230 L 190.991 185.234 L 191.837 185.231 L 192.687 185.220 L 193.543 185.202 L 194.402 185.177 L 195.265 185.145 L 196.131 185.106 L 197.001 185.060 L 197.875 185.006 L 198.751 184.946 L 199.630 184.878 L 200.511 184.803 L 201.395 184.721" fill="none" stroke="#2dd4bf" stroke-width="1" vector-effect="non-scaling-stroke"/></svg>