<svg xmlns="http://www.w3.org/2000/svg" viewBox="73.5 12 273 273" width="273" height="273" shape-rendering="geometricPrecision"><rect x="73.5" y="12" width="273" height="273" fill="#0b0f14"/><path d="M 81.500 20.000 L 85.579 20.000 L 85.579 24.079 L 81.500 24.079 L 81.500 28.159 L 81.500 32.238 L 85.579 32.238 L 85.579 28.159 L 89.659 28.159 L 89.659 32.238 L 93.738 32.238 L 93.738 28.159 L 93.738 24.079 L 89.659 24.079 L 89.659 20.000 L 93.738 20.000 L 97.817 20.000 L 97.817 24.079 L 101.897 24.079 L 101.897 20.000 L 105.976 20.000 L 110.056 20.000 L 110.056 24.079 L 105.976 24.079 L 105.976 28.159 L 110.056 28.159 L 110.056 32.238 L 105.976 32.238 L 101.897 32.238 L 101.897 28.159 L 97.817 28.159 L 97.817 32.238 L 97.817 36.317 L 97.817 40.397 L 101.897 40.397 L 101.897 36.317 L 105.976 36.317 L 110.056 36.317 L 110.056 40.397 L 105.976 40.397 L 105.976 44.476 L 110.056 44.476 L 110.056 48.556 L 105.976 48.556 L 101.897 48.556 L 101.897 44.476 L 97.817 44.476 L 97.817 48.556 L 93.738 48.556 L 89.659 48.556 L 89.659 44.476 L 93.738 44.476 L 93.738 40.397 L 93.738 36.317 L 89.659 36.317 L 89.659 40.397 L 85.579 40.397 L 85.579 36.317 L 81.500 36.317 L 81.500 40.397 L 81.500 44.476 L 85.579 44.476 L 85.579 48.556 L 81.500 48.556 L 81.500 52.635 L 81.500 56.714 L 85.579 56.714 L 85.579 52.635 L 89.659 52.635 L 93.738 52.635 L 93.738 56.714 L 89.659 56.714 L 89.659 60.794 L 93.738 60.794 L 93.738 64.873 L 89.659 64.873 L 85.579 64.873 L 85.579 60.794 L 81.500 60.794 L 81.500 64.873 L 81.500 68.952 L 85.579 68.952 L 85.579 73.032 L 81.500 73.032 L 81.500 77.111 L 81.500 81.190 L 85.579 81.190 L 85.579 77.111 L 89.659 77.111 L 89.659 81.190 L 93.738 81.190 L 93.738 77.111 L 93.738 73.032 L 89.659 73.032 L 89.659 68.952 L 93.738 68.952 L 97.817 68.952 L 101.897 68.952 L 101.897 73.032 L 97.817 73.032 L 97.817 77.111 L 97.817 81.190 L 101.897 81.190 L 101.897 77.111 L 105.976 77.111 L 105.976 81.190 L 110.056 81.190 L 110.056 77.111 L 110.056 73.032 L 105.976 73.032 L 105.976 68.952 L 110.056 68.952 L 110.056 64.873 L 110.056 60.794 L 105.976 60.794 L 105.976 64.873 L 101.897 64.873 L 97.817 64.873 L 97.817 60.794 L 101.897 60.794 L 101.897 56.714 L 97.817 56.714 L 97.817 52.635 L 101.897 52.635 L 105.976 52.635 L 105.976 56.714 L 110.056 56.714 L 110.056 52.635 L 114.135 52.635 L 114.135 56.714 L 118.214 56.714 L 118.214 52.635 L 122.294 52.635 L 126.373 52.635 L 126.373 56.714 L 122.294 56.714 L 122.294 60.794 L 126.373 60.794 L 126.373 64.873 L 122.294 64.873 L 118.214 64.873 L 118.214 60.794 L 114.135 60.794 L 114.135 64.873 L 114.135 68.952 L 118.214 68.952 L 118.214 73.032 L 114.135 73.032 L 114.135 77.111 L 114.135 81.190 L 118.214 81.190 L 118.214 77.111 L 122.294 77.111 L 122.294 81.190 L 126.373 81.190 L 126.373 77.111 L 126.373 73.032 L 122.294 73.032 L 122.294 68.952 L 126.373 68.952 L 130.452 68.952 L 134.532 68.952 L 134.532 73.032 L 130.452 73.032 L 130.452 77.111 L 130.452 81.190 L 134.532 81.190 L 134.532 77.111 L 138.611 77.111 L 138.611 81.190 L 142.690 81.190 L 142.690 77.111 L 142.690 73.032 L 138.611 73.032 L 138.611 68.952 L 142.690 68.952 L 142.690 64.873 L 142.690 60.794 L 138.611 60.794 L 138.611 64.873 L 134.532 64.873 L 130.452 64.873 L 130.452 60.794 L 134.532 60.794 L 134.532 56.714 L 130.452 56.714 L 130.452 52.635 L 134.532 52.635 L 138.611 52.635 L 138.611 56.714 L 142.690 56.714 L 142.690 52.635 L 142.690 48.556 L 138.611 48.556 L 138.611 44.476 L 142.690 44.476 L 142.690 40.397 L 142.690 36.317 L 138.611 36.317 L 138.611 40.397 L 134.532 40.397 L 134.532 36.317 L 130.452 36.317 L 130.452 40.397 L 130.452 44.476 L 134.532 44.476 L 134.532 48.556 L 130.452 48.556 L 126.373 48.556 L 126.373 44.476 L 122.294 44.476 L 122.294 48.556 L 118.214 48.556 L 114.135 48.556 L 114.135 44.476 L 118.214 44.476 L 118.214 40.397 L 114.135 40.397 L 114.135 36.317 L 118.214 36.317 L 122.294 36.317 L 122.294 40.397 L 126.373 40.397 L 126.373 36.317 L 126.373 32.238 L 126.373 28.159 L 122.294 28.159 L 122.294 32.238 L 118.214 32.238 L 114.135 32.238 L 114.135 28.159 L 118.214 28.159 L 118.214 24.079 L 114.135 24.079 L 114.135 20.000 L 118.214 20.000 L 122.294 20.000 L 122.294 24.079 L 126.373 24.079 L 126.373 20.000 L 130.452 20.000 L 134.532 20.000 L 134.532 24.079 L 130.452 24.079 L 130.452 28.159 L 130.452 32.238 L 134.532 32.238 L 134.532 28.159 L 138.611 28.159 L 138.611 32.238 L 142.690 32.238 L 142.690 28.159 L 142.690 24.079 L 138.611 24.079 L 138.611 20.000 L 142.690 20.000 L 146.770 20.000 L 146.770 24.079 L 150.849 24.079 L 150.849 20.000 L 154.929 20.000 L 159.008 20.000 L 159.008 24.079 L 154.929 24.079 L 154.929 28.159 L 159.008 28.159 L 159.008 32.238 L 154.929 32.238 L 150.849 32.238 L 150.849 28.159 L 146.770 28.159 L 146.770 32.238 L 146.770 36.317 L 150.849 36.317 L 150.849 40.397 L 146.770 40.397 L 146.770 44.476 L 146.770 48.556 L 150.849 48.556 L 150.849 44.476 L 154.929 44.476 L 154.929 48.556 L 159.008 48.556 L 159.008 44.476 L 159.008 40.397 L 154.929 40.397 L 154.929 36.317 L 159.008 36.317 L 163.087 36.317 L 167.167 36.317 L 167.167 40.397 L 163.087 40.397 L 163.087 44.476 L 163.087 48.556 L 167.167 48.556 L 167.167 44.476 L 171.246 44.476 L 171.246 48.556 L 175.325 48.556 L 175.325 44.476 L 175.325 40.397 L 171.246 40.397 L 171.246 36.317 L 175.325 36.317 L 175.325 32.238 L 175.325 28.159 L 171.246 28.159 L 171.246 32.238 L 167.167 32.238 L 163.087 32.238 L 163.087 28.159 L 167.167 28.159 L 167.167 24.079 L 163.087 24.079 L 163.087 20.000 L 167.167 20.000 L 171.246 20.000 L 171.246 24.079 L 175.325 24.079 L 175.325 20.000 L 179.405 20.000 L 183.484 20.000 L 183.484 24.079 L 179.405 24.079 L 179.405 28.159 L 179.405 32.238 L 183.484 32.238 L 183.484 28.159 L 187.563 28.159 L 187.563 32.238 L 191.643 32.238 L 191.643 28.159 L 191.643 24.079 L 187.563 24.079 L 187.563 20.000 L 191.643 20.000 L 195.722 20.000 L 195.722 24.079 L 199.802 24.079 L 199.802 20.000 L 203.881 20.000 L 207.960 20.000 L 207.960 24.079 L 203.881 24.079 L 203.881 28.159 L 207.960 28.159 L 207.960 32.238 L 203.881 32.238 L 199.802 32.238 L 199.802 28.159 L 195.722 28.159 L 195.722 32.238 L 195.722 36.317 L 195.722 40.397 L 199.802 40.397 L 199.802 36.317 L 203.881 36.317 L 207.960 36.317 L 207.960 40.397 L 203.881 40.397 L 203.881 44.476 L 207.960 44.476 L 207.960 48.556 L 203.881 48.556 L 199.802 48.556 L 199.802 44.476 L 195.722 44.476 L 195.722 48.556 L 191.643 48.556 L 187.563 48.556 L 187.563 44.476 L 191.643 44.476 L 191.643 40.397 L 191.643 36.317 L 187.563 36.317 L 187.563 40.397 L 183.484 40.397 L 183.484 36.317 L 179.405 36.317 L 179.405 40.397 L 179.405 44.476 L 183.484 44.476 L 183.484 48.556 L 179.405 48.556 L 179.405 52.635 L 183.484 52.635 L 183.484 56.714 L 179.405 56.714 L 179.405 60.794 L 179.405 64.873 L 183.484 64.873 L 183.484 60.794 L 187.563 60.794 L 187.563 64.873 L 191.643 64.873 L 191.643 60.794 L 191.643 56.714 L 187.563 56.714 L 187.563 52.635 L 191.643 52.635 L 195.722 52.635 L 195.722 56.714 L 199.802 56.714 L 199.802 52.635 L 203.881 52.635 L 207.960 52.635 L 207.960 56.714 L 203.881 56.714 L 203.881 60.794 L 207.960 60.794 L 207.960 64.873 L 203.881 64.873 L 199.802 64.873 L 199.802 60.794 L 195.722 60.794 L 195.722 64.873 L 195.722 68.952 L 195.722 73.032 L 199.802 73.032 L 199.802 68.952 L 203.881 68.952 L 207.960 68.952 L 207.960 73.032 L 203.881 73.032 L 203.881 77.111 L 207.960 77.111 L 207.960 81.190 L 203.881 81.190 L 199.802 81.190 L 199.802 77.111 L 195.722 77.111 L 195.722 81.190 L 191.643 81.190 L 187.563 81.190 L 187.563 77.111 L 191.643 77.111 L 191.643 73.032 L 191.643 68.952 L 187.563 68.952 L 187.563 73.032 L 183.484 73.032 L 183.484 68.952 L 179.405 68.952 L 179.405 73.032 L 179.405 77.111 L 183.484 77.111 L 183.484 81.190 L 179.405 81.190 L 175.325 81.190 L 175.325 77.111 L 171.246 77.111 L 171.246 81.190 L 167.167 81.190 L 163.087 81.190 L 163.087 77.111 L 167.167 77.111 L 167.167 73.032 L 163.087 73.032 L 163.087 68.952 L 167.167 68.952 L 171.246 68.952 L 171.246 73.032 L 175.325 73.032 L 175.325 68.952 L 175.325 64.873 L 171.246 64.873 L 171.246 60.794 L 175.325 60.794 L 175.325 56.714 L 175.325 52.635 L 171.246 52.635 L 171.246 56.714 L 167.167 56.714 L 167.167 52.635 L 163.087 52.635 L 163.087 56.714 L 163.087 60.794 L 167.167 60.794 L 167.167 64.873 L 163.087 64.873 L 159.008 64.873 L 154.929 64.873 L 154.929 60.794 L 159.008 60.794 L 159.008 56.714 L 159.008 52.635 L 154.929 52.635 L 154.929 56.714 L 150.849 56.714 L 150.849 52.635 L 146.770 52.635 L 146.770 56.714 L 146.770 60.794 L 150.849 60.794 L 150.849 64.873 L 146.770 64.873 L 146.770 68.952 L 146.770 73.032 L 150.849 73.032 L 150.849 68.952 L 154.929 68.952 L 159.008 68.952 L 159.008 73.032 L 154.929 73.032 L 154.929 77.111 L 159.008 77.111 L 159.008 81.190 L 154.929 81.190 L 150.849 81.190 L 150.849 77.111 L 146.770 77.111 L 146.770 81.190 L 146.770 85.270 L 146.770 89.349 L 150.849 89.349 L 150.849 85.270 L 154.929 85.270 L 159.008 85.270 L 159.008 89.349 L 154.929 89.349 L 154.929 93.429 L 159.008 93.429 L 159.008 97.508 L 154.929 97.508 L 150.849 97.508 L 150.849 93.429 L 146.770 93.429 L 146.770 97.508 L 146.770 101.587 L 150.849 101.587 L 150.849 105.667 L 146.770 105.667 L 146.770 109.746 L 146.770 113.825 L 150.849 113.825 L 150.849 109.746 L 154.929 109.746 L 154.929 113.825 L 159.008 113.825 L 159.008 109.746 L 159.008 105.667 L 154.929 105.667 L 154.929 101.587 L 159.008 101.587 L 163.087 101.587 L 167.167 101.587 L 167.167 105.667 L 163.087 105.667 L 163.087 109.746 L 163.087 113.825 L 167.167 113.825 L 167.167 109.746 L 171.246 109.746 L 171.246 113.825 L 175.325 113.825 L 175.325 109.746 L 175.325 105.667 L 171.246 105.667 L 171.246 101.587 L 175.325 101.587 L 175.325 97.508 L 175.325 93.429 L 171.246 93.429 L 171.246 97.508 L 167.167 97.508 L 163.087 97.508 L 163.087 93.429 L 167.167 93.429 L 167.167 89.349 L 163.087 89.349 L 163.087 85.270 L 167.167 85.270 L 171.246 85.270 L 171.246 89.349 L 175.325 89.349 L 175.325 85.270 L 179.405 85.270 L 183.484 85.270 L 183.484 89.349 L 179.405 89.349 L 179.405 93.429 L 179.405 97.508 L 183.484 97.508 L 183.484 93.429 L 187.563 93.429 L 187.563 97.508 L 191.643 97.508 L 191.643 93.429 L 191.643 89.349 L 187.563 89.349 L 187.563 85.270 L 191.643 85.270 L 195.722 85.270 L 195.722 89.349 L 199.802 89.349 L 199.802 85.270 L 203.881 85.270 L 207.960 85.270 L 207.960 89.349 L 203.881 89.349 L 203.881 93.429 L 207.960 93.429 L 207.960 97.508 L 203.881 97.508 L 199.802 97.508 L 199.802 93.429 L 195.722 93.429 L 195.722 97.508 L 195.722 101.587 L 195.722 105.667 L 199.802 105.667 L 199.802 101.587 L 203.881 101.587 L 207.960 101.587 L 207.960 105.667 L 203.881 105.667 L 203.881 109.746 L 207.960 109.746 L 207.960 113.825 L 203.881 113.825 L 199.802 113.825 L 199.802 109.746 L 195.722 109.746 L 195.722 113.825 L 191.643 113.825 L 187.563 113.825 L 187.563 109.746 L 191.643 109.746 L 191.643 105.667 L 191.643 101.587 L 187.563 101.587 L 187.563 105.667 L 183.484 105.667 L 183.484 101.587 L 179.405 101.587 L 179.405 105.667 L 179.405 109.746 L 183.484 109.746 L 183.484 113.825 L 179.405 113.825 L 179.405 117.905 L 183.484 117.905 L 183.484 121.984 L 179.405 121.984 L 179.405 126.063 L 179.405 130.143 L 183.484 130.143 L 183.484 126.063 L 187.563 126.063 L 187.563 130.143 L 191.643 130.143 L 191.643 126.063 L 191.643 121.984 L 187.563 121.984 L 187.563 117.905 L 191.643 117.905 L 195.722 117.905 L 195.722 121.984 L 199.802 121.984 L 199.802 117.905 L 203.881 117.905 L 207.960 117.905 L 207.960 121.984 L 203.881 121.984 L 203.881 126.063 L 207.960 126.063 L 207.960 130.143 L 203.881 130.143 L 199.802 130.143 L 199.802 126.063 L 195.722 126.063 L 195.722 130.143 L 195.722 134.222 L 195.722 138.302 L 199.802 138.302 L 199.802 134.222 L 203.881 134.222 L 207.960 134.222 L 207.960 138.302 L 203.881 138.302 L 203.881 142.381 L 207.960 142.381 L 207.960 146.460 L 203.881 146.460 L 199.802 146.460 L 199.802 142.381 L 195.722 142.381 L 195.722 146.460 L 191.643 146.460 L 187.563 146.460 L 187.563 142.381 L 191.643 142.381 L 191.643 138.302 L 191.643 134.222 L 187.563 134.222 L 187.563 138.302 L 183.484 138.302 L 183.484 134.222 L 179.405 134.222 L 179.405 138.302 L 179.405 142.381 L 183.484 142.381 L 183.484 146.460 L 179.405 146.460 L 175.325 146.460 L 175.325 142.381 L 171.246 142.381 L 171.246 146.460 L 167.167 146.460 L 163.087 146.460 L 163.087 142.381 L 167.167 142.381 L 167.167 138.302 L 163.087 138.302 L 163.087 134.222 L 167.167 134.222 L 171.246 134.222 L 171.246 138.302 L 175.325 138.302 L 175.325 134.222 L 175.325 130.143 L 171.246 130.143 L 171.246 126.063 L 175.325 126.063 L 175.325 121.984 L 175.325 117.905 L 171.246 117.905 L 171.246 121.984 L 167.167 121.984 L 167.167 117.905 L 163.087 117.905 L 163.087 121.984 L 163.087 126.063 L 167.167 126.063 L 167.167 130.143 L 163.087 130.143 L 159.008 130.143 L 154.929 130.143 L 154.929 126.063 L 159.008 126.063 L 159.008 121.984 L 159.008 117.905 L 154.929 117.905 L 154.929 121.984 L 150.849 121.984 L 150.849 117.905 L 146.770 117.905 L 146.770 121.984 L 146.770 126.063 L 150.849 126.063 L 150.849 130.143 L 146.770 130.143 L 146.770 134.222 L 146.770 138.302 L 150.849 138.302 L 150.849 134.222 L 154.929 134.222 L 159.008 134.222 L 159.008 138.302 L 154.929 138.302 L 154.929 142.381 L 159.008 142.381 L 159.008 146.460 L 154.929 146.460 L 150.849 146.460 L 150.849 142.381 L 146.770 142.381 L 146.770 146.460 L 142.690 146.460 L 138.611 146.460 L 138.611 142.381 L 142.690 142.381 L 142.690 138.302 L 142.690 134.222 L 138.611 134.222 L 138.611 138.302 L 134.532 138.302 L 134.532 134.222 L 130.452 134.222 L 130.452 138.302 L 130.452 142.381 L 134.532 142.381 L 134.532 146.460 L 130.452 146.460 L 126.373 146.460 L 126.373 142.381 L 122.294 142.381 L 122.294 146.460 L 118.214 146.460 L 114.135 146.460 L 114.135 142.381 L 118.214 142.381 L 118.214 138.302 L 114.135 138.302 L 114.135 134.222 L 118.214 134.222 L 122.294 134.222 L 122.294 138.302 L 126.373 138.302 L 126.373 134.222 L 126.373 130.143 L 126.373 126.063 L 122.294 126.063 L 122.294 130.143 L 118.214 130.143 L 114.135 130.143 L 114.135 126.063 L 118.214 126.063 L 118.214 121.984 L 114.135 121.984 L 114.135 117.905 L 118.214 117.905 L 122.294 117.905 L 122.294 121.984 L 126.373 121.984 L 126.373 117.905 L 130.452 117.905 L 134.532 117.905 L 134.532 121.984 L 130.452 121.984 L 130.452 126.063 L 130.452 130.143 L 134.532 130.143 L 134.532 126.063 L 138.611 126.063 L 138.611 130.143 L 142.690 130.143 L 142.690 126.063 L 142.690 121.984 L 138.611 121.984 L 138.611 117.905 L 142.690 117.905 L 142.690 113.825 L 142.690 109.746 L 138.611 109.746 L 138.611 113.825 L 134.532 113.825 L 130.452 113.825 L 130.452 109.746 L 134.532 109.746 L 134.532 105.667 L 130.452 105.667 L 130.452 101.587 L 134.532 101.587 L 138.611 101.587 L 138.611 105.667 L 142.690 105.667 L 142.690 101.587 L 142.690 97.508 L 138.611 97.508 L 138.611 93.429 L 142.690 93.429 L 142.690 89.349 L 142.690 85.270 L 138.611 85.270 L 138.611 89.349 L 134.532 89.349 L 134.532 85.270 L 130.452 85.270 L 130.452 89.349 L 130.452 93.429 L 134.532 93.429 L 134.532 97.508 L 130.452 97.508 L 126.373 97.508 L 122.294 97.508 L 122.294 93.429 L 126.373 93.429 L 126.373 89.349 L 126.373 85.270 L 122.294 85.270 L 122.294 89.349 L 118.214 89.349 L 118.214 85.270 L 114.135 85.270 L 114.135 89.349 L 114.135 93.429 L 118.214 93.429 L 118.214 97.508 L 114.135 97.508 L 114.135 101.587 L 114.135 105.667 L 118.214 105.667 L 118.214 101.587 L 122.294 101.587 L 126.373 101.587 L 126.373 105.667 L 122.294 105.667 L 122.294 109.746 L 126.373 109.746 L 126.373 113.825 L 122.294 113.825 L 118.214 113.825 L 118.214 109.746 L 114.135 109.746 L 114.135 113.825 L 110.056 113.825 L 110.056 109.746 L 105.976 109.746 L 105.976 113.825 L 101.897 113.825 L 97.817 113.825 L 97.817 109.746 L 101.897 109.746 L 101.897 105.667 L 97.817 105.667 L 97.817 101.587 L 101.897 101.587 L 105.976 101.587 L 105.976 105.667 L 110.056 105.667 L 110.056 101.587 L 110.056 97.508 L 105.976 97.508 L 105.976 93.429 L 110.056 93.429 L 110.056 89.349 L 110.056 85.270 L 105.976 85.270 L 105.976 89.349 L 101.897 89.349 L 101.897 85.270 L 97.817 85.270 L 97.817 89.349 L 97.817 93.429 L 101.897 93.429 L 101.897 97.508 L 97.817 97.508 L 93.738 97.508 L 89.659 97.508 L 89.659 93.429 L 93.738 93.429 L 93.738 89.349 L 93.738 85.270 L 89.659 85.270 L 89.659 89.349 L 85.579 89.349 L 85.579 85.270 L 81.500 85.270 L 81.500 89.349 L 81.500 93.429 L 85.579 93.429 L 85.579 97.508 L 81.500 97.508 L 81.500 101.587 L 81.500 105.667 L 85.579 105.667 L 85.579 101.587 L 89.659 101.587 L 93.738 101.587 L 93.738 105.667 L 89.659 105.667 L 89.659 109.746 L 93.738 109.746 L 93.738 113.825 L 89.659 113.825 L 85.579 113.825 L 85.579 109.746 L 81.500 109.746 L 81.500 113.825 L 81.500 117.905 L 85.579 117.905 L 85.579 121.984 L 81.500 121.984 L 81.500 126.063 L 81.500 130.143 L 85.579 130.143 L 85.579 126.063 L 89.659 126.063 L 89.659 130.143 L 93.738 130.143 L 93.738 126.063 L 93.738 121.984 L 89.659 121.984 L 89.659 117.905 L 93.738 117.905 L 97.817 117.905 L 97.817 121.984 L 101.897 121.984 L 101.897 117.905 L 105.976 117.905 L 110.056 117.905 L 110.056 121.984 L 105.976 121.984 L 105.976 126.063 L 110.056 126.063 L 110.056 130.143 L 105.976 130.143 L 101.897 130.143 L 101.897 126.063 L 97.817 126.063 L 97.817 130.143 L 97.817 134.222 L 97.817 138.302 L 101.897 138.302 L 101.897 134.222 L 105.976 134.222 L 110.056 134.222 L 110.056 138.302 L 105.976 138.302 L 105.976 142.381 L 110.056 142.381 L 110.056 146.460 L 105.976 146.460 L 101.897 146.460 L 101.897 142.381 L 97.817 142.381 L 97.817 146.460 L 93.738 146.460 L 89.659 146.460 L 89.659 142.381 L 93.738 142.381 L 93.738 138.302 L 93.738 134.222 L 89.659 134.222 L 89.659 138.302 L 85.579 138.302 L 85.579 134.222 L 81.500 134.222 L 81.500 138.302 L 81.500 142.381 L 85.579 142.381 L 85.579 146.460 L 81.500 146.460 L 81.500 150.540 L 81.500 154.619 L 85.579 154.619 L 85.579 150.540 L 89.659 150.540 L 93.738 150.540 L 93.738 154.619 L 89.659 154.619 L 89.659 158.698 L 93.738 158.698 L 93.738 162.778 L 89.659 162.778 L 85.579 162.778 L 85.579 158.698 L 81.500 158.698 L 81.500 162.778 L 81.500 166.857 L 85.579 166.857 L 85.579 170.937 L 81.500 170.937 L 81.500 175.016 L 81.500 179.095 L 85.579 179.095 L 85.579 175.016 L 89.659 175.016 L 89.659 179.095 L 93.738 179.095 L 93.738 175.016 L 93.738 170.937 L 89.659 170.937 L 89.659 166.857 L 93.738 166.857 L 97.817 166.857 L 101.897 166.857 L 101.897 170.937 L 97.817 170.937 L 97.817 175.016 L 97.817 179.095 L 101.897 179.095 L 101.897 175.016 L 105.976 175.016 L 105.976 179.095 L 110.056 179.095 L 110.056 175.016 L 110.056 170.937 L 105.976 170.937 L 105.976 166.857 L 110.056 166.857 L 110.056 162.778 L 110.056 158.698 L 105.976 158.698 L 105.976 162.778 L 101.897 162.778 L 97.817 162.778 L 97.817 158.698 L 101.897 158.698 L 101.897 154.619 L 97.817 154.619 L 97.817 150.540 L 101.897 150.540 L 105.976 150.540 L 105.976 154.619 L 110.056 154.619 L 110.056 150.540 L 114.135 150.540 L 118.214 150.540 L 118.214 154.619 L 114.135 154.619 L 114.135 158.698 L 114.135 162.778 L 118.214 162.778 L 118.214 158.698 L 122.294 158.698 L 122.294 162.778 L 126.373 162.778 L 126.373 158.698 L 126.373 154.619 L 122.294 154.619 L 122.294 150.540 L 126.373 150.540 L 130.452 150.540 L 130.452 154.619 L 134.532 154.619 L 134.532 150.540 L 138.611 150.540 L 142.690 150.540 L 142.690 154.619 L 138.611 154.619 L 138.611 158.698 L 142.690 158.698 L 142.690 162.778 L 138.611 162.778 L 134.532 162.778 L 134.532 158.698 L 130.452 158.698 L 130.452 162.778 L 130.452 166.857 L 130.452 170.937 L 134.532 170.937 L 134.532 166.857 L 138.611 166.857 L 142.690 166.857 L 142.690 170.937 L 138.611 170.937 L 138.611 175.016 L 142.690 175.016 L 142.690 179.095 L 138.611 179.095 L 134.532 179.095 L 134.532 175.016 L 130.452 175.016 L 130.452 179.095 L 126.373 179.095 L 122.294 179.095 L 122.294 175.016 L 126.373 175.016 L 126.373 170.937 L 126.373 166.857 L 122.294 166.857 L 122.294 170.937 L 118.214 170.937 L 118.214 166.857 L 114.135 166.857 L 114.135 170.937 L 114.135 175.016 L 118.214 175.016 L 118.214 179.095 L 114.135 179.095 L 114.135 183.175 L 118.214 183.175 L 118.214 187.254 L 114.135 187.254 L 114.135 191.333 L 114.135 195.413 L 118.214 195.413 L 118.214 191.333 L 122.294 191.333 L 122.294 195.413 L 126.373 195.413 L 126.373 191.333 L 126.373 187.254 L 122.294 187.254 L 122.294 183.175 L 126.373 183.175 L 130.452 183.175 L 130.452 187.254 L 134.532 187.254 L 134.532 183.175 L 138.611 183.175 L 142.690 183.175 L 142.690 187.254 L 138.611 187.254 L 138.611 191.333 L 142.690 191.333 L 142.690 195.413 L 138.611 195.413 L 134.532 195.413 L 134.532 191.333 L 130.452 191.333 L 130.452 195.413 L 130.452 199.492 L 130.452 203.571 L 134.532 203.571 L 134.532 199.492 L 138.611 199.492 L 142.690 199.492 L 142.690 203.571 L 138.611 203.571 L 138.611 207.651 L 142.690 207.651 L 142.690 211.730 L 138.611 211.730 L 134.532 211.730 L 134.532 207.651 L 130.452 207.651 L 130.452 211.730 L 126.373 211.730 L 122.294 211.730 L 122.294 207.651 L 126.373 207.651 L 126.373 203.571 L 126.373 199.492 L 122.294 199.492 L 122.294 203.571 L 118.214 203.571 L 118.214 199.492 L 114.135 199.492 L 114.135 203.571 L 114.135 207.651 L 118.214 207.651 L 118.214 211.730 L 114.135 211.730 L 110.056 211.730 L 110.056 207.651 L 105.976 207.651 L 105.976 211.730 L 101.897 211.730 L 97.817 211.730 L 97.817 207.651 L 101.897 207.651 L 101.897 203.571 L 97.817 203.571 L 97.817 199.492 L 101.897 199.492 L 105.976 199.492 L 105.976 203.571 L 110.056 203.571 L 110.056 199.492 L 110.056 195.413 L 105.976 195.413 L 105.976 191.333 L 110.056 191.333 L 110.056 187.254 L 110.056 183.175 L 105.976 183.175 L 105.976 187.254 L 101.897 187.254 L 101.897 183.175 L 97.817 183.175 L 97.817 187.254 L 97.817 191.333 L 101.897 191.333 L 101.897 195.413 L 97.817 195.413 L 93.738 195.413 L 89.659 195.413 L 89.659 191.333 L 93.738 191.333 L 93.738 187.254 L 93.738 183.175 L 89.659 183.175 L 89.659 187.254 L 85.579 187.254 L 85.579 183.175 L 81.500 183.175 L 81.500 187.254 L 81.500 191.333 L 85.579 191.333 L 85.579 195.413 L 81.500 195.413 L 81.500 199.492 L 81.500 203.571 L 85.579 203.571 L 85.579 199.492 L 89.659 199.492 L 93.738 199.492 L 93.738 203.571 L 89.659 203.571 L 89.659 207.651 L 93.738 207.651 L 93.738 211.730 L 89.659 211.730 L 85.579 211.730 L 85.579 207.651 L 81.500 207.651 L 81.500 211.730 L 81.500 215.810 L 85.579 215.810 L 85.579 219.889 L 81.500 219.889 L 81.500 223.968 L 81.500 228.048 L 85.579 228.048 L 85.579 223.968 L 89.659 223.968 L 89.659 228.048 L 93.738 228.048 L 93.738 223.968 L 93.738 219.889 L 89.659 219.889 L 89.659 215.810 L 93.738 215.810 L 97.817 215.810 L 97.817 219.889 L 101.897 219.889 L 101.897 215.810 L 105.976 215.810 L 110.056 215.810 L 110.056 219.889 L 105.976 219.889 L 105.976 223.968 L 110.056 223.968 L 110.056 228.048 L 105.976 228.048 L 101.897 228.048 L 101.897 223.968 L 97.817 223.968 L 97.817 228.048 L 97.817 232.127 L 97.817 236.206 L 101.897 236.206 L 101.897 232.127 L 105.976 232.127 L 110.056 232.127 L 110.056 236.206 L 105.976 236.206 L 105.976 240.286 L 110.056 240.286 L 110.056 244.365 L 105.976 244.365 L 101.897 244.365 L 101.897 240.286 L 97.817 240.286 L 97.817 244.365 L 93.738 244.365 L 89.659 244.365 L 89.659 240.286 L 93.738 240.286 L 93.738 236.206 L 93.738 232.127 L 89.659 232.127 L 89.659 236.206 L 85.579 236.206 L 85.579 232.127 L 81.500 232.127 L 81.500 236.206 L 81.500 240.286 L 85.579 240.286 L 85.579 244.365 L 81.500 244.365 L 81.500 248.444 L 81.500 252.524 L 85.579 252.524 L 85.579 248.444 L 89.659 248.444 L 93.738 248.444 L 93.738 252.524 L 89.659 252.524 L 89.659 256.603 L 93.738 256.603 L 93.738 260.683 L 89.659 260.683 L 85.579 260.683 L 85.579 256.603 L 81.500 256.603 L 81.500 260.683 L 81.500 264.762 L 85.579 264.762 L 85.579 268.841 L 81.500 268.841 L 81.500 272.921 L 81.500 277.000 L 85.579 277.000 L 85.579 272.921 L 89.659 272.921 L 89.659 277.000 L 93.738 277.000 L 93.738 272.921 L 93.738 268.841 L 89.659 268.841 L 89.659 264.762 L 93.738 264.762 L 97.817 264.762 L 101.897 264.762 L 101.897 268.841 L 97.817 268.841 L 97.817 272.921 L 97.817 277.000 L 101.897 277.000 L 101.897 272.921 L 105.976 272.921 L 105.976 277.000 L 110.056 277.000 L 110.056 272.921 L 110.056 268.841 L 105.976 268.841 L 105.976 264.762 L 110.056 264.762 L 110.056 260.683 L 110.056 256.603 L 105.976 256.603 L 105.976 260.683 L 101.897 260.683 L 97.817 260.683 L 97.817 256.603 L 101.897 256.603 L 101.897 252.524 L 97.817 252.524 L 97.817 248.444 L 101.897 248.444 L 105.976 248.444 L 105.976 252.524 L 110.056 252.524 L 110.056 248.444 L 114.135 248.444 L 114.135 252.524 L 118.214 252.524 L 118.214 248.444 L 122.294 248.444 L 126.373 248.444 L 126.373 252.524 L 122.294 252.524 L 122.294 256.603 L 126.373 256.603 L 126.373 260.683 L 122.294 260.683 L 118.214 260.683 L 118.214 256.603 L 114.135 256.603 L 114.135 260.683 L 114.135 264.762 L 118.214 264.762 L 118.214 268.841 L 114.135 268.841 L 114.135 272.921 L 114.135 277.000 L 118.214 277.000 L 118.214 272.921 L 122.294 272.921 L 122.294 277.000 L 126.373 277.000 L 126.373 272.921 L 126.373 268.841 L 122.294 268.841 L 122.294 264.762 L 126.373 264.762 L 130.452 264.762 L 134.532 264.762 L 134.532 268.841 L 130.452 268.841 L 130.452 272.921 L 130.452 277.000 L 134.532 277.000 L 134.532 272.921 L 138.611 272.921 L 138.611 277.000 L 142.690 277.000 L 142.690 272.921 L 142.690 268.841 L 138.611 268.841 L 138.611 264.762 L 142.690 264.762 L 142.690 260.683 L 142.690 256.603 L 138.611 256.603 L 138.611 260.683 L 134.532 260.683 L 130.452 260.683 L 130.452 256.603 L 134.532 256.603 L 134.532 252.524 L 130.452 252.524 L 130.452 248.444 L 134.532 248.444 L 138.611 248.444 L 138.611 252.524 L 142.690 252.524 L 142.690 248.444 L 142.690 244.365 L 138.611 244.365 L 138.611 240.286 L 142.690 240.286 L 142.690 236.206 L 142.690 232.127 L 138.611 232.127 L 138.611 236.206 L 134.532 236.206 L 134.532 232.127 L 130.452 232.127 L 130.452 236.206 L 130.452 240.286 L 134.532 240.286 L 134.532 244.365 L 130.452 244.365 L 126.373 244.365 L 126.373 240.286 L 122.294 240.286 L 122.294 244.365 L 118.214 244.365 L 114.135 244.365 L 114.135 240.286 L 118.214 240.286 L 118.214 236.206 L 114.135 236.206 L 114.135 232.127 L 118.214 232.127 L 122.294 232.127 L 122.294 236.206 L 126.373 236.206 L 126.373 232.127 L 126.373 228.048 L 126.373 223.968 L 122.294 223.968 L 122.294 228.048 L 118.214 228.048 L 114.135 228.048 L 114.135 223.968 L 118.214 223.968 L 118.214 219.889 L 114.135 219.889 L 114.135 215.810 L 118.214 215.810 L 122.294 215.810 L 122.294 219.889 L 126.373 219.889 L 126.373 215.810 L 130.452 215.810 L 134.532 215.810 L 134.532 219.889 L 130.452 219.889 L 130.452 223.968 L 130.452 228.048 L 134.532 228.048 L 134.532 223.968 L 138.611 223.968 L 138.611 228.048 L 142.690 228.048 L 142.690 223.968 L 142.690 219.889 L 138.611 219.889 L 138.611 215.810 L 142.690 215.810 L 146.770 215.810 L 150.849 215.810 L 150.849 219.889 L 146.770 219.889 L 146.770 223.968 L 146.770 228.048 L 150.849 228.048 L 150.849 223.968 L 154.929 223.968 L 154.929 228.048 L 159.008 228.048 L 159.008 223.968 L 159.008 219.889 L 154.929 219.889 L 154.929 215.810 L 159.008 215.810 L 163.087 215.810 L 163.087 219.889 L 167.167 219.889 L 167.167 215.810 L 171.246 215.810 L 175.325 215.810 L 175.325 219.889 L 171.246 219.889 L 171.246 223.968 L 175.325 223.968 L 175.325 228.048 L 171.246 228.048 L 167.167 228.048 L 167.167 223.968 L 163.087 223.968 L 163.087 228.048 L 163.087 232.127 L 163.087 236.206 L 167.167 236.206 L 167.167 232.127 L 171.246 232.127 L 175.325 232.127 L 175.325 236.206 L 171.246 236.206 L 171.246 240.286 L 175.325 240.286 L 175.325 244.365 L 171.246 244.365 L 167.167 244.365 L 167.167 240.286 L 163.087 240.286 L 163.087 244.365 L 159.008 244.365 L 154.929 244.365 L 154.929 240.286 L 159.008 240.286 L 159.008 236.206 L 159.008 232.127 L 154.929 232.127 L 154.929 236.206 L 150.849 236.206 L 150.849 232.127 L 146.770 232.127 L 146.770 236.206 L 146.770 240.286 L 150.849 240.286 L 150.849 244.365 L 146.770 244.365 L 146.770 248.444 L 146.770 252.524 L 150.849 252.524 L 150.849 248.444 L 154.929 248.444 L 159.008 248.444 L 159.008 252.524 L 154.929 252.524 L 154.929 256.603 L 159.008 256.603 L 159.008 260.683 L 154.929 260.683 L 150.849 260.683 L 150.849 256.603 L 146.770 256.603 L 146.770 260.683 L 146.770 264.762 L 150.849 264.762 L 150.849 268.841 L 146.770 268.841 L 146.770 272.921 L 146.770 277.000 L 150.849 277.000 L 150.849 272.921 L 154.929 272.921 L 154.929 277.000 L 159.008 277.000 L 159.008 272.921 L 159.008 268.841 L 154.929 268.841 L 154.929 264.762 L 159.008 264.762 L 163.087 264.762 L 167.167 264.762 L 167.167 268.841 L 163.087 268.841 L 163.087 272.921 L 163.087 277.000 L 167.167 277.000 L 167.167 272.921 L 171.246 272.921 L 171.246 277.000 L 175.325 277.000 L 175.325 272.921 L 175.325 268.841 L 171.246 268.841 L 171.246 264.762 L 175.325 264.762 L 175.325 260.683 L 175.325 256.603 L 171.246 256.603 L 171.246 260.683 L 167.167 260.683 L 163.087 260.683 L 163.087 256.603 L 167.167 256.603 L 167.167 252.524 L 163.087 252.524 L 163.087 248.444 L 167.167 248.444 L 171.246 248.444 L 171.246 252.524 L 175.325 252.524 L 175.325 248.444 L 179.405 248.444 L 179.405 252.524 L 183.484 252.524 L 183.484 248.444 L 187.563 248.444 L 191.643 248.444 L 191.643 252.524 L 187.563 252.524 L 187.563 256.603 L 191.643 256.603 L 191.643 260.683 L 187.563 260.683 L 183.484 260.683 L 183.484 256.603 L 179.405 256.603 L 179.405 260.683 L 179.405 264.762 L 183.484 264.762 L 183.484 268.841 L 179.405 268.841 L 179.405 272.921 L 179.405 277.000 L 183.484 277.000 L 183.484 272.921 L 187.563 272.921 L 187.563 277.000 L 191.643 277.000 L 191.643 272.921 L 191.643 268.841 L 187.563 268.841 L 187.563 264.762 L 191.643 264.762 L 195.722 264.762 L 199.802 264.762 L 199.802 268.841 L 195.722 268.841 L 195.722 272.921 L 195.722 277.000 L 199.802 277.000 L 199.802 272.921 L 203.881 272.921 L 203.881 277.000 L 207.960 277.000 L 207.960 272.921 L 207.960 268.841 L 203.881 268.841 L 203.881 264.762 L 207.960 264.762 L 207.960 260.683 L 207.960 256.603 L 203.881 256.603 L 203.881 260.683 L 199.802 260.683 L 195.722 260.683 L 195.722 256.603 L 199.802 256.603 L 199.802 252.524 L 195.722 252.524 L 195.722 248.444 L 199.802 248.444 L 203.881 248.444 L 203.881 252.524 L 207.960 252.524 L 207.960 248.444 L 207.960 244.365 L 203.881 244.365 L 203.881 240.286 L 207.960 240.286 L 207.960 236.206 L 207.960 232.127 L 203.881 232.127 L 203.881 236.206 L 199.802 236.206 L 199.802 232.127 L 195.722 232.127 L 195.722 236.206 L 195.722 240.286 L 199.802 240.286 L 199.802 244.365 L 195.722 244.365 L 191.643 244.365 L 191.643 240.286 L 187.563 240.286 L 187.563 244.365 L 183.484 244.365 L 179.405 244.365 L 179.405 240.286 L 183.484 240.286 L 183.484 236.206 L 179.405 236.206 L 179.405 232.127 L 183.484 232.127 L 187.563 232.127 L 187.563 236.206 L 191.643 236.206 L 191.643 232.127 L 191.643 228.048 L 191.643 223.968 L 187.563 223.968 L 187.563 228.048 L 183.484 228.048 L 179.405 228.048 L 179.405 223.968 L 183.484 223.968 L 183.484 219.889 L 179.405 219.889 L 179.405 215.810 L 183.484 215.810 L 187.563 215.810 L 187.563 219.889 L 191.643 219.889 L 191.643 215.810 L 195.722 215.810 L 199.802 215.810 L 199.802 219.889 L 195.722 219.889 L 195.722 223.968 L 195.722 228.048 L 199.802 228.048 L 199.802 223.968 L 203.881 223.968 L 203.881 228.048 L 207.960 228.048 L 207.960 223.968 L 207.960 219.889 L 203.881 219.889 L 203.881 215.810 L 207.960 215.810 L 207.960 211.730 L 207.960 207.651 L 203.881 207.651 L 203.881 211.730 L 199.802 211.730 L 195.722 211.730 L 195.722 207.651 L 199.802 207.651 L 199.802 203.571 L 195.722 203.571 L 195.722 199.492 L 199.802 199.492 L 203.881 199.492 L 203.881 203.571 L 207.960 203.571 L 207.960 199.492 L 207.960 195.413 L 203.881 195.413 L 203.881 191.333 L 207.960 191.333 L 207.960 187.254 L 207.960 183.175 L 203.881 183.175 L 203.881 187.254 L 199.802 187.254 L 199.802 183.175 L 195.722 183.175 L 195.722 187.254 L 195.722 191.333 L 199.802 191.333 L 199.802 195.413 L 195.722 195.413 L 191.643 195.413 L 187.563 195.413 L 187.563 191.333 L 191.643 191.333 L 191.643 187.254 L 191.643 183.175 L 187.563 183.175 L 187.563 187.254 L 183.484 187.254 L 183.484 183.175 L 179.405 183.175 L 179.405 187.254 L 179.405 191.333 L 183.484 191.333 L 183.484 195.413 L 179.405 195.413 L 179.405 199.492 L 179.405 203.571 L 183.484 203.571 L 183.484 199.492 L 187.563 199.492 L 191.643 199.492 L 191.643 203.571 L 187.563 203.571 L 187.563 207.651 L 191.643 207.651 L 191.643 211.730 L 187.563 211.730 L 183.484 211.730 L 183.484 207.651 L 179.405 207.651 L 179.405 211.730 L 175.325 211.730 L 171.246 211.730 L 171.246 207.651 L 175.325 207.651 L 175.325 203.571 L 175.325 199.492 L 171.246 199.492 L 171.246 203.571 L 167.167 203.571 L 167.167 199.492 L 163.087 199.492 L 163.087 203.571 L 163.087 207.651 L 167.167 207.651 L 167.167 211.730 L 163.087 211.730 L 159.008 211.730 L 159.008 207.651 L 154.929 207.651 L 154.929 211.730 L 150.849 211.730 L 146.770 211.730 L 146.770 207.651 L 150.849 207.651 L 150.849 203.571 L 146.770 203.571 L 146.770 199.492 L 150.849 199.492 L 154.929 199.492 L 154.929 203.571 L 159.008 203.571 L 159.008 199.492 L 159.008 195.413 L 159.008 191.333 L 154.929 191.333 L 154.929 195.413 L 150.849 195.413 L 146.770 195.413 L 146.770 191.333 L 150.849 191.333 L 150.849 187.254 L 146.770 187.254 L 146.770 183.175 L 150.849 183.175 L 154.929 183.175 L 154.929 187.254 L 159.008 187.254 L 159.008 183.175 L 163.087 183.175 L 167.167 183.175 L 167.167 187.254 L 163.087 187.254 L 163.087 191.333 L 163.087 195.413 L 167.167 195.413 L 167.167 191.333 L 171.246 191.333 L 171.246 195.413 L 175.325 195.413 L 175.325 191.333 L 175.325 187.254 L 171.246 187.254 L 171.246 183.175 L 175.325 183.175 L 175.325 179.095 L 171.246 179.095 L 171.246 175.016 L 175.325 175.016 L 175.325 170.937 L 175.325 166.857 L 171.246 166.857 L 171.246 170.937 L 167.167 170.937 L 167.167 166.857 L 163.087 166.857 L 163.087 170.937 L 163.087 175.016 L 167.167 175.016 L 167.167 179.095 L 163.087 179.095 L 159.008 179.095 L 159.008 175.016 L 154.929 175.016 L 154.929 179.095 L 150.849 179.095 L 146.770 179.095 L 146.770 175.016 L 150.849 175.016 L 150.849 170.937 L 146.770 170.937 L 146.770 166.857 L 150.849 166.857 L 154.929 166.857 L 154.929 170.937 L 159.008 170.937 L 159.008 166.857 L 159.008 162.778 L 159.008 158.698 L 154.929 158.698 L 154.929 162.778 L 150.849 162.778 L 146.770 162.778 L 146.770 158.698 L 150.849 158.698 L 150.849 154.619 L 146.770 154.619 L 146.770 150.540 L 150.849 150.540 L 154.929 150.540 L 154.929 154.619 L 159.008 154.619 L 159.008 150.540 L 163.087 150.540 L 167.167 150.540 L 167.167 154.619 L 163.087 154.619 L 163.087 158.698 L 163.087 162.778 L 167.167 162.778 L 167.167 158.698 L 171.246 158.698 L 171.246 162.778 L 175.325 162.778 L 175.325 158.698 L 175.325 154.619 L 171.246 154.619 L 171.246 150.540 L 175.325 150.540 L 179.405 150.540 L 179.405 154.619 L 183.484 154.619 L 183.484 150.540 L 187.563 150.540 L 191.643 150.540 L 191.643 154.619 L 187.563 154.619 L 187.563 158.698 L 191.643 158.698 L 191.643 162.778 L 187.563 162.778 L 183.484 162.778 L 183.484 158.698 L 179.405 158.698 L 179.405 162.778 L 179.405 166.857 L 183.484 166.857 L 183.484 170.937 L 179.405 170.937 L 179.405 175.016 L 179.405 179.095 L 183.484 179.095 L 183.484 175.016 L 187.563 175.016 L 187.563 179.095 L 191.643 179.095 L 191.643 175.016 L 191.643 170.937 L 187.563 170.937 L 187.563 166.857 L 191.643 166.857 L 195.722 166.857 L 199.802 166.857 L 199.802 170.937 L 195.722 170.937 L 195.722 175.016 L 195.722 179.095 L 199.802 179.095 L 199.802 175.016 L 203.881 175.016 L 203.881 179.095 L 207.960 179.095 L 207.960 175.016 L 207.960 170.937 L 203.881 170.937 L 203.881 166.857 L 207.960 166.857 L 207.960 162.778 L 207.960 158.698 L 203.881 158.698 L 203.881 162.778 L 199.802 162.778 L 195.722 162.778 L 195.722 158.698 L 199.802 158.698 L 199.802 154.619 L 195.722 154.619 L 195.722 150.540 L 199.802 150.540 L 203.881 150.540 L 203.881 154.619 L 207.960 154.619 L 207.960 150.540 L 212.040 150.540 L 212.040 154.619 L 216.119 154.619 L 216.119 150.540 L 220.198 150.540 L 224.278 150.540 L 224.278 154.619 L 220.198 154.619 L 220.198 158.698 L 224.278 158.698 L 224.278 162.778 L 220.198 162.778 L 216.119 162.778 L 216.119 158.698 L 212.040 158.698 L 212.040 162.778 L 212.040 166.857 L 216.119 166.857 L 216.119 170.937 L 212.040 170.937 L 212.040 175.016 L 212.040 179.095 L 216.119 179.095 L 216.119 175.016 L 220.198 175.016 L 220.198 179.095 L 224.278 179.095 L 224.278 175.016 L 224.278 170.937 L 220.198 170.937 L 220.198 166.857 L 224.278 166.857 L 228.357 166.857 L 232.437 166.857 L 232.437 170.937 L 228.357 170.937 L 228.357 175.016 L 228.357 179.095 L 232.437 179.095 L 232.437 175.016 L 236.516 175.016 L 236.516 179.095 L 240.595 179.095 L 240.595 175.016 L 240.595 170.937 L 236.516 170.937 L 236.516 166.857 L 240.595 166.857 L 240.595 162.778 L 240.595 158.698 L 236.516 158.698 L 236.516 162.778 L 232.437 162.778 L 228.357 162.778 L 228.357 158.698 L 232.437 158.698 L 232.437 154.619 L 228.357 154.619 L 228.357 150.540 L 232.437 150.540 L 236.516 150.540 L 236.516 154.619 L 240.595 154.619 L 240.595 150.540 L 244.675 150.540 L 248.754 150.540 L 248.754 154.619 L 244.675 154.619 L 244.675 158.698 L 244.675 162.778 L 248.754 162.778 L 248.754 158.698 L 252.833 158.698 L 252.833 162.778 L 256.913 162.778 L 256.913 158.698 L 256.913 154.619 L 252.833 154.619 L 252.833 150.540 L 256.913 150.540 L 260.992 150.540 L 260.992 154.619 L 265.071 154.619 L 265.071 150.540 L 269.151 150.540 L 273.230 150.540 L 273.230 154.619 L 269.151 154.619 L 269.151 158.698 L 273.230 158.698 L 273.230 162.778 L 269.151 162.778 L 265.071 162.778 L 265.071 158.698 L 260.992 158.698 L 260.992 162.778 L 260.992 166.857 L 260.992 170.937 L 265.071 170.937 L 265.071 166.857 L 269.151 166.857 L 273.230 166.857 L 273.230 170.937 L 269.151 170.937 L 269.151 175.016 L 273.230 175.016 L 273.230 179.095 L 269.151 179.095 L 265.071 179.095 L 265.071 175.016 L 260.992 175.016 L 260.992 179.095 L 256.913 179.095 L 252.833 179.095 L 252.833 175.016 L 256.913 175.016 L 256.913 170.937 L 256.913 166.857 L 252.833 166.857 L 252.833 170.937 L 248.754 170.937 L 248.754 166.857 L 244.675 166.857 L 244.675 170.937 L 244.675 175.016 L 248.754 175.016 L 248.754 179.095 L 244.675 179.095 L 244.675 183.175 L 248.754 183.175 L 248.754 187.254 L 244.675 187.254 L 244.675 191.333 L 244.675 195.413 L 248.754 195.413 L 248.754 191.333 L 252.833 191.333 L 252.833 195.413 L 256.913 195.413 L 256.913 191.333 L 256.913 187.254 L 252.833 187.254 L 252.833 183.175 L 256.913 183.175 L 260.992 183.175 L 260.992 187.254 L 265.071 187.254 L 265.071 183.175 L 269.151 183.175 L 273.230 183.175 L 273.230 187.254 L 269.151 187.254 L 269.151 191.333 L 273.230 191.333 L 273.230 195.413 L 269.151 195.413 L 265.071 195.413 L 265.071 191.333 L 260.992 191.333 L 260.992 195.413 L 260.992 199.492 L 260.992 203.571 L 265.071 203.571 L 265.071 199.492 L 269.151 199.492 L 273.230 199.492 L 273.230 203.571 L 269.151 203.571 L 269.151 207.651 L 273.230 207.651 L 273.230 211.730 L 269.151 211.730 L 265.071 211.730 L 265.071 207.651 L 260.992 207.651 L 260.992 211.730 L 256.913 211.730 L 252.833 211.730 L 252.833 207.651 L 256.913 207.651 L 256.913 203.571 L 256.913 199.492 L 252.833 199.492 L 252.833 203.571 L 248.754 203.571 L 248.754 199.492 L 244.675 199.492 L 244.675 203.571 L 244.675 207.651 L 248.754 207.651 L 248.754 211.730 L 244.675 211.730 L 240.595 211.730 L 240.595 207.651 L 236.516 207.651 L 236.516 211.730 L 232.437 211.730 L 228.357 211.730 L 228.357 207.651 L 232.437 207.651 L 232.437 203.571 L 228.357 203.571 L 228.357 199.492 L 232.437 199.492 L 236.516 199.492 L 236.516 203.571 L 240.595 203.571 L 240.595 199.492 L 240.595 195.413 L 236.516 195.413 L 236.516 191.333 L 240.595 191.333 L 240.595 187.254 L 240.595 183.175 L 236.516 183.175 L 236.516 187.254 L 232.437 187.254 L 232.437 183.175 L 228.357 183.175 L 228.357 187.254 L 228.357 191.333 L 232.437 191.333 L 232.437 195.413 L 228.357 195.413 L 224.278 195.413 L 220.198 195.413 L 220.198 191.333 L 224.278 191.333 L 224.278 187.254 L 224.278 183.175 L 220.198 183.175 L 220.198 187.254 L 216.119 187.254 L 216.119 183.175 L 212.040 183.175 L 212.040 187.254 L 212.040 191.333 L 216.119 191.333 L 216.119 195.413 L 212.040 195.413 L 212.040 199.492 L 212.040 203.571 L 216.119 203.571 L 216.119 199.492 L 220.198 199.492 L 224.278 199.492 L 224.278 203.571 L 220.198 203.571 L 220.198 207.651 L 224.278 207.651 L 224.278 211.730 L 220.198 211.730 L 216.119 211.730 L 216.119 207.651 L 212.040 207.651 L 212.040 211.730 L 212.040 215.810 L 216.119 215.810 L 216.119 219.889 L 212.040 219.889 L 212.040 223.968 L 212.040 228.048 L 216.119 228.048 L 216.119 223.968 L 220.198 223.968 L 220.198 228.048 L 224.278 228.048 L 224.278 223.968 L 224.278 219.889 L 220.198 219.889 L 220.198 215.810 L 224.278 215.810 L 228.357 215.810 L 228.357 219.889 L 232.437 219.889 L 232.437 215.810 L 236.516 215.810 L 240.595 215.810 L 240.595 219.889 L 236.516 219.889 L 236.516 223.968 L 240.595 223.968 L 240.595 228.048 L 236.516 228.048 L 232.437 228.048 L 232.437 223.968 L 228.357 223.968 L 228.357 228.048 L 228.357 232.127 L 228.357 236.206 L 232.437 236.206 L 232.437 232.127 L 236.516 232.127 L 240.595 232.127 L 240.595 236.206 L 236.516 236.206 L 236.516 240.286 L 240.595 240.286 L 240.595 244.365 L 236.516 244.365 L 232.437 244.365 L 232.437 240.286 L 228.357 240.286 L 228.357 244.365 L 224.278 244.365 L 220.198 244.365 L 220.198 240.286 L 224.278 240.286 L 224.278 236.206 L 224.278 232.127 L 220.198 232.127 L 220.198 236.206 L 216.119 236.206 L 216.119 232.127 L 212.040 232.127 L 212.040 236.206 L 212.040 240.286 L 216.119 240.286 L 216.119 244.365 L 212.040 244.365 L 212.040 248.444 L 212.040 252.524 L 216.119 252.524 L 216.119 248.444 L 220.198 248.444 L 224.278 248.444 L 224.278 252.524 L 220.198 252.524 L 220.198 256.603 L 224.278 256.603 L 224.278 260.683 L 220.198 260.683 L 216.119 260.683 L 216.119 256.603 L 212.040 256.603 L 212.040 260.683 L 212.040 264.762 L 216.119 264.762 L 216.119 268.841 L 212.040 268.841 L 212.040 272.921 L 212.040 277.000 L 216.119 277.000 L 216.119 272.921 L 220.198 272.921 L 220.198 277.000 L 224.278 277.000 L 224.278 272.921 L 224.278 268.841 L 220.198 268.841 L 220.198 264.762 L 224.278 264.762 L 228.357 264.762 L 232.437 264.762 L 232.437 268.841 L 228.357 268.841 L 228.357 272.921 L 228.357 277.000 L 232.437 277.000 L 232.437 272.921 L 236.516 272.921 L 236.516 277.000 L 240.595 277.000 L 240.595 272.921 L 240.595 268.841 L 236.516 268.841 L 236.516 264.762 L 240.595 264.762 L 240.595 260.683 L 240.595 256.603 L 236.516 256.603 L 236.516 260.683 L 232.437 260.683 L 228.357 260.683 L 228.357 256.603 L 232.437 256.603 L 232.437 252.524 L 228.357 252.524 L 228.357 248.444 L 232.437 248.444 L 236.516 248.444 L 236.516 252.524 L 240.595 252.524 L 240.595 248.444 L 244.675 248.444 L 244.675 252.524 L 248.754 252.524 L 248.754 248.444 L 252.833 248.444 L 256.913 248.444 L 256.913 252.524 L 252.833 252.524 L 252.833 256.603 L 256.913 256.603 L 256.913 260.683 L 252.833 260.683 L 248.754 260.683 L 248.754 256.603 L 244.675 256.603 L 244.675 260.683 L 244.675 264.762 L 248.754 264.762 L 248.754 268.841 L 244.675 268.841 L 244.675 272.921 L 244.675 277.000 L 248.754 277.000 L 248.754 272.921 L 252.833 272.921 L 252.833 277.000 L 256.913 277.000 L 256.913 272.921 L 256.913 268.841 L 252.833 268.841 L 252.833 264.762 L 256.913 264.762 L 260.992 264.762 L 265.071 264.762 L 265.071 268.841 L 260.992 268.841 L 260.992 272.921 L 260.992 277.000 L 265.071 277.000 L 265.071 272.921 L 269.151 272.921 L 269.151 277.000 L 273.230 277.000 L 273.230 272.921 L 273.230 268.841 L 269.151 268.841 L 269.151 264.762 L 273.230 264.762 L 273.230 260.683 L 273.230 256.603 L 269.151 256.603 L 269.151 260.683 L 265.071 260.683 L 260.992 260.683 L 260.992 256.603 L 265.071 256.603 L 265.071 252.524 L 260.992 252.524 L 260.992 248.444 L 265.071 248.444 L 269.151 248.444 L 269.151 252.524 L 273.230 252.524 L 273.230 248.444 L 273.230 244.365 L 269.151 244.365 L 269.151 240.286 L 273.230 240.286 L 273.230 236.206 L 273.230 232.127 L 269.151 232.127 L 269.151 236.206 L 265.071 236.206 L 265.071 232.127 L 260.992 232.127 L 260.992 236.206 L 260.992 240.286 L 265.071 240.286 L 265.071 244.365 L 260.992 244.365 L 256.913 244.365 L 256.913 240.286 L 252.833 240.286 L 252.833 244.365 L 248.754 244.365 L 244.675 244.365 L 244.675 240.286 L 248.754 240.286 L 248.754 236.206 L 244.675 236.206 L 244.675 232.127 L 248.754 232.127 L 252.833 232.127 L 252.833 236.206 L 256.913 236.206 L 256.913 232.127 L 256.913 228.048 L 256.913 223.968 L 252.833 223.968 L 252.833 228.048 L 248.754 228.048 L 244.675 228.048 L 244.675 223.968 L 248.754 223.968 L 248.754 219.889 L 244.675 219.889 L 244.675 215.810 L 248.754 215.810 L 252.833 215.810 L 252.833 219.889 L 256.913 219.889 L 256.913 215.810 L 260.992 215.810 L 265.071 215.810 L 265.071 219.889 L 260.992 219.889 L 260.992 223.968 L 260.992 228.048 L 265.071 228.048 L 265.071 223.968 L 269.151 223.968 L 269.151 228.048 L 273.230 228.048 L 273.230 223.968 L 273.230 219.889 L 269.151 219.889 L 269.151 215.810 L 273.230 215.810 L 277.310 215.810 L 281.389 215.810 L 281.389 219.889 L 277.310 219.889 L 277.310 223.968 L 277.310 228.048 L 281.389 228.048 L 281.389 223.968 L 285.468 223.968 L 285.468 228.048 L 289.548 228.048 L 289.548 223.968 L 289.548 219.889 L 285.468 219.889 L 285.468 215.810 L 289.548 215.810 L 293.627 215.810 L 293.627 219.889 L 297.706 219.889 L 297.706 215.810 L 301.786 215.810 L 305.865 215.810 L 305.865 219.889 L 301.786 219.889 L 301.786 223.968 L 305.865 223.968 L 305.865 228.048 L 301.786 228.048 L 297.706 228.048 L 297.706 223.968 L 293.627 223.968 L 293.627 228.048 L 293.627 232.127 L 293.627 236.206 L 297.706 236.206 L 297.706 232.127 L 301.786 232.127 L 305.865 232.127 L 305.865 236.206 L 301.786 236.206 L 301.786 240.286 L 305.865 240.286 L 305.865 244.365 L 301.786 244.365 L 297.706 244.365 L 297.706 240.286 L 293.627 240.286 L 293.627 244.365 L 289.548 244.365 L 285.468 244.365 L 285.468 240.286 L 289.548 240.286 L 289.548 236.206 L 289.548 232.127 L 285.468 232.127 L 285.468 236.206 L 281.389 236.206 L 281.389 232.127 L 277.310 232.127 L 277.310 236.206 L 277.310 240.286 L 281.389 240.286 L 281.389 244.365 L 277.310 244.365 L 277.310 248.444 L 277.310 252.524 L 281.389 252.524 L 281.389 248.444 L 285.468 248.444 L 289.548 248.444 L 289.548 252.524 L 285.468 252.524 L 285.468 256.603 L 289.548 256.603 L 289.548 260.683 L 285.468 260.683 L 281.389 260.683 L 281.389 256.603 L 277.310 256.603 L 277.310 260.683 L 277.310 264.762 L 281.389 264.762 L 281.389 268.841 L 277.310 268.841 L 277.310 272.921 L 277.310 277.000 L 281.389 277.000 L 281.389 272.921 L 285.468 272.921 L 285.468 277.000 L 289.548 277.000 L 289.548 272.921 L 289.548 268.841 L 285.468 268.841 L 285.468 264.762 L 289.548 264.762 L 293.627 264.762 L 297.706 264.762 L 297.706 268.841 L 293.627 268.841 L 293.627 272.921 L 293.627 277.000 L 297.706 277.000 L 297.706 272.921 L 301.786 272.921 L 301.786 277.000 L 305.865 277.000 L 305.865 272.921 L 305.865 268.841 L 301.786 268.841 L 301.786 264.762 L 305.865 264.762 L 305.865 260.683 L 305.865 256.603 L 301.786 256.603 L 301.786 260.683 L 297.706 260.683 L 293.627 260.683 L 293.627 256.603 L 297.706 256.603 L 297.706 252.524 L 293.627 252.524 L 293.627 248.444 L 297.706 248.444 L 301.786 248.444 L 301.786 252.524 L 305.865 252.524 L 305.865 248.444 L 309.944 248.444 L 309.944 252.524 L 314.024 252.524 L 314.024 248.444 L 318.103 248.444 L 322.183 248.444 L 322.183 252.524 L 318.103 252.524 L 318.103 256.603 L 322.183 256.603 L 322.183 260.683 L 318.103 260.683 L 314.024 260.683 L 314.024 256.603 L 309.944 256.603 L 309.944 260.683 L 309.944 264.762 L 314.024 264.762 L 314.024 268.841 L 309.944 268.841 L 309.944 272.921 L 309.944 277.000 L 314.024 277.000 L 314.024 272.921 L 318.103 272.921 L 318.103 277.000 L 322.183 277.000 L 322.183 272.921 L 322.183 268.841 L 318.103 268.841 L 318.103 264.762 L 322.183 264.762 L 326.262 264.762 L 330.341 264.762 L 330.341 268.841 L 326.262 268.841 L 326.262 272.921 L 326.262 277.000 L 330.341 277.000 L 330.341 272.921 L 334.421 272.921 L 334.421 277.000 L 338.500 277.000 L 338.500 272.921 L 338.500 268.841 L 334.421 268.841 L 334.421 264.762 L 338.500 264.762 L 338.500 260.683 L 338.500 256.603 L 334.421 256.603 L 334.421 260.683 L 330.341 260.683 L 326.262 260.683 L 326.262 256.603 L 330.341 256.603 L 330.341 252.524 L 326.262 252.524 L 326.262 248.444 L 330.341 248.444 L 334.421 248.444 L 334.421 252.524 L 338.500 252.524 L 338.500 248.444 L 338.500 244.365 L 334.421 244.365 L 334.421 240.286 L 338.500 240.286 L 338.500 236.206 L 338.500 232.127 L 334.421 232.127 L 334.421 236.206 L 330.341 236.206 L 330.341 232.127 L 326.262 232.127 L 326.262 236.206 L 326.262 240.286 L 330.341 240.286 L 330.341 244.365 L 326.262 244.365 L 322.183 244.365 L 322.183 240.286 L 318.103 240.286 L 318.103 244.365 L 314.024 244.365 L 309.944 244.365 L 309.944 240.286 L 314.024 240.286 L 314.024 236.206 L 309.944 236.206 L 309.944 232.127 L 314.024 232.127 L 318.103 232.127 L 318.103 236.206 L 322.183 236.206 L 322.183 232.127 L 322.183 228.048 L 322.183 223.968 L 318.103 223.968 L 318.103 228.048 L 314.024 228.048 L 309.944 228.048 L 309.944 223.968 L 314.024 223.968 L 314.024 219.889 L 309.944 219.889 L 309.944 215.810 L 314.024 215.810 L 318.103 215.810 L 318.103 219.889 L 322.183 219.889 L 322.183 215.810 L 326.262 215.810 L 330.341 215.810 L 330.341 219.889 L 326.262 219.889 L 326.262 223.968 L 326.262 228.048 L 330.341 228.048 L 330.341 223.968 L 334.421 223.968 L 334.421 228.048 L 338.500 228.048 L 338.500 223.968 L 338.500 219.889 L 334.421 219.889 L 334.421 215.810 L 338.500 215.810 L 338.500 211.730 L 338.500 207.651 L 334.421 207.651 L 334.421 211.730 L 330.341 211.730 L 326.262 211.730 L 326.262 207.651 L 330.341 207.651 L 330.341 203.571 L 326.262 203.571 L 326.262 199.492 L 330.341 199.492 L 334.421 199.492 L 334.421 203.571 L 338.500 203.571 L 338.500 199.492 L 338.500 195.413 L 334.421 195.413 L 334.421 191.333 L 338.500 191.333 L 338.500 187.254 L 338.500 183.175 L 334.421 183.175 L 334.421 187.254 L 330.341 187.254 L 330.341 183.175 L 326.262 183.175 L 326.262 187.254 L 326.262 191.333 L 330.341 191.333 L 330.341 195.413 L 326.262 195.413 L 322.183 195.413 L 318.103 195.413 L 318.103 191.333 L 322.183 191.333 L 322.183 187.254 L 322.183 183.175 L 318.103 183.175 L 318.103 187.254 L 314.024 187.254 L 314.024 183.175 L 309.944 183.175 L 309.944 187.254 L 309.944 191.333 L 314.024 191.333 L 314.024 195.413 L 309.944 195.413 L 309.944 199.492 L 309.944 203.571 L 314.024 203.571 L 314.024 199.492 L 318.103 199.492 L 322.183 199.492 L 322.183 203.571 L 318.103 203.571 L 318.103 207.651 L 322.183 207.651 L 322.183 211.730 L 318.103 211.730 L 314.024 211.730 L 314.024 207.651 L 309.944 207.651 L 309.944 211.730 L 305.865 211.730 L 301.786 211.730 L 301.786 207.651 L 305.865 207.651 L 305.865 203.571 L 305.865 199.492 L 301.786 199.492 L 301.786 203.571 L 297.706 203.571 L 297.706 199.492 L 293.627 199.492 L 293.627 203.571 L 293.627 207.651 L 297.706 207.651 L 297.706 211.730 L 293.627 211.730 L 289.548 211.730 L 289.548 207.651 L 285.468 207.651 L 285.468 211.730 L 281.389 211.730 L 277.310 211.730 L 277.310 207.651 L 281.389 207.651 L 281.389 203.571 L 277.310 203.571 L 277.310 199.492 L 281.389 199.492 L 285.468 199.492 L 285.468 203.571 L 289.548 203.571 L 289.548 199.492 L 289.548 195.413 L 289.548 191.333 L 285.468 191.333 L 285.468 195.413 L 281.389 195.413 L 277.310 195.413 L 277.310 191.333 L 281.389 191.333 L 281.389 187.254 L 277.310 187.254 L 277.310 183.175 L 281.389 183.175 L 285.468 183.175 L 285.468 187.254 L 289.548 187.254 L 289.548 183.175 L 293.627 183.175 L 297.706 183.175 L 297.706 187.254 L 293.627 187.254 L 293.627 191.333 L 293.627 195.413 L 297.706 195.413 L 297.706 191.333 L 301.786 191.333 L 301.786 195.413 L 305.865 195.413 L 305.865 191.333 L 305.865 187.254 L 301.786 187.254 L 301.786 183.175 L 305.865 183.175 L 305.865 179.095 L 301.786 179.095 L 301.786 175.016 L 305.865 175.016 L 305.865 170.937 L 305.865 166.857 L 301.786 166.857 L 301.786 170.937 L 297.706 170.937 L 297.706 166.857 L 293.627 166.857 L 293.627 170.937 L 293.627 175.016 L 297.706 175.016 L 297.706 179.095 L 293.627 179.095 L 289.548 179.095 L 289.548 175.016 L 285.468 175.016 L 285.468 179.095 L 281.389 179.095 L 277.310 179.095 L 277.310 175.016 L 281.389 175.016 L 281.389 170.937 L 277.310 170.937 L 277.310 166.857 L 281.389 166.857 L 285.468 166.857 L 285.468 170.937 L 289.548 170.937 L 289.548 166.857 L 289.548 162.778 L 289.548 158.698 L 285.468 158.698 L 285.468 162.778 L 281.389 162.778 L 277.310 162.778 L 277.310 158.698 L 281.389 158.698 L 281.389 154.619 L 277.310 154.619 L 277.310 150.540 L 281.389 150.540 L 285.468 150.540 L 285.468 154.619 L 289.548 154.619 L 289.548 150.540 L 293.627 150.540 L 297.706 150.540 L 297.706 154.619 L 293.627 154.619 L 293.627 158.698 L 293.627 162.778 L 297.706 162.778 L 297.706 158.698 L 301.786 158.698 L 301.786 162.778 L 305.865 162.778 L 305.865 158.698 L 305.865 154.619 L 301.786 154.619 L 301.786 150.540 L 305.865 150.540 L 309.944 150.540 L 309.944 154.619 L 314.024 154.619 L 314.024 150.540 L 318.103 150.540 L 322.183 150.540 L 322.183 154.619 L 318.103 154.619 L 318.103 158.698 L 322.183 158.698 L 322.183 162.778 L 318.103 162.778 L 314.024 162.778 L 314.024 158.698 L 309.944 158.698 L 309.944 162.778 L 309.944 166.857 L 314.024 166.857 L 314.024 170.937 L 309.944 170.937 L 309.944 175.016 L 309.944 179.095 L 314.024 179.095 L 314.024 175.016 L 318.103 175.016 L 318.103 179.095 L 322.183 179.095 L 322.183 175.016 L 322.183 170.937 L 318.103 170.937 L 318.103 166.857 L 322.183 166.857 L 326.262 166.857 L 330.341 166.857 L 330.341 170.937 L 326.262 170.937 L 326.262 175.016 L 326.262 179.095 L 330.341 179.095 L 330.341 175.016 L 334.421 175.016 L 334.421 179.095 L 338.500 179.095 L 338.500 175.016 L 338.500 170.937 L 334.421 170.937 L 334.421 166.857 L 338.500 166.857 L 338.500 162.778 L 338.500 158.698 L 334.421 158.698 L 334.421 162.778 L 330.341 162.778 L 326.262 162.778 L 326.262 158.698 L 330.341 158.698 L 330.341 154.619 L 326.262 154.619 L 326.262 150.540 L 330.341 150.540 L 334.421 150.540 L 334.421 154.619 L 338.500 154.619 L 338.500 150.540 L 338.500 146.460 L 334.421 146.460 L 334.421 142.381 L 338.500 142.381 L 338.500 138.302 L 338.500 134.222 L 334.421 134.222 L 334.421 138.302 L 330.341 138.302 L 330.341 134.222 L 326.262 134.222 L 326.262 138.302 L 326.262 142.381 L 330.341 142.381 L 330.341 146.460 L 326.262 146.460 L 322.183 146.460 L 322.183 142.381 L 318.103 142.381 L 318.103 146.460 L 314.024 146.460 L 309.944 146.460 L 309.944 142.381 L 314.024 142.381 L 314.024 138.302 L 309.944 138.302 L 309.944 134.222 L 314.024 134.222 L 318.103 134.222 L 318.103 138.302 L 322.183 138.302 L 322.183 134.222 L 322.183 130.143 L 322.183 126.063 L 318.103 126.063 L 318.103 130.143 L 314.024 130.143 L 309.944 130.143 L 309.944 126.063 L 314.024 126.063 L 314.024 121.984 L 309.944 121.984 L 309.944 117.905 L 314.024 117.905 L 318.103 117.905 L 318.103 121.984 L 322.183 121.984 L 322.183 117.905 L 326.262 117.905 L 330.341 117.905 L 330.341 121.984 L 326.262 121.984 L 326.262 126.063 L 326.262 130.143 L 330.341 130.143 L 330.341 126.063 L 334.421 126.063 L 334.421 130.143 L 338.500 130.143 L 338.500 126.063 L 338.500 121.984 L 334.421 121.984 L 334.421 117.905 L 338.500 117.905 L 338.500 113.825 L 338.500 109.746 L 334.421 109.746 L 334.421 113.825 L 330.341 113.825 L 326.262 113.825 L 326.262 109.746 L 330.341 109.746 L 330.341 105.667 L 326.262 105.667 L 326.262 101.587 L 330.341 101.587 L 334.421 101.587 L 334.421 105.667 L 338.500 105.667 L 338.500 101.587 L 338.500 97.508 L 334.421 97.508 L 334.421 93.429 L 338.500 93.429 L 338.500 89.349 L 338.500 85.270 L 334.421 85.270 L 334.421 89.349 L 330.341 89.349 L 330.341 85.270 L 326.262 85.270 L 326.262 89.349 L 326.262 93.429 L 330.341 93.429 L 330.341 97.508 L 326.262 97.508 L 322.183 97.508 L 318.103 97.508 L 318.103 93.429 L 322.183 93.429 L 322.183 89.349 L 322.183 85.270 L 318.103 85.270 L 318.103 89.349 L 314.024 89.349 L 314.024 85.270 L 309.944 85.270 L 309.944 89.349 L 309.944 93.429 L 314.024 93.429 L 314.024 97.508 L 309.944 97.508 L 309.944 101.587 L 309.944 105.667 L 314.024 105.667 L 314.024 101.587 L 318.103 101.587 L 322.183 101.587 L 322.183 105.667 L 318.103 105.667 L 318.103 109.746 L 322.183 109.746 L 322.183 113.825 L 318.103 113.825 L 314.024 113.825 L 314.024 109.746 L 309.944 109.746 L 309.944 113.825 L 305.865 113.825 L 305.865 109.746 L 301.786 109.746 L 301.786 113.825 L 297.706 113.825 L 293.627 113.825 L 293.627 109.746 L 297.706 109.746 L 297.706 105.667 L 293.627 105.667 L 293.627 101.587 L 297.706 101.587 L 301.786 101.587 L 301.786 105.667 L 305.865 105.667 L 305.865 101.587 L 305.865 97.508 L 301.786 97.508 L 301.786 93.429 L 305.865 93.429 L 305.865 89.349 L 305.865 85.270 L 301.786 85.270 L 301.786 89.349 L 297.706 89.349 L 297.706 85.270 L 293.627 85.270 L 293.627 89.349 L 293.627 93.429 L 297.706 93.429 L 297.706 97.508 L 293.627 97.508 L 289.548 97.508 L 285.468 97.508 L 285.468 93.429 L 289.548 93.429 L 289.548 89.349 L 289.548 85.270 L 285.468 85.270 L 285.468 89.349 L 281.389 89.349 L 281.389 85.270 L 277.310 85.270 L 277.310 89.349 L 277.310 93.429 L 281.389 93.429 L 281.389 97.508 L 277.310 97.508 L 277.310 101.587 L 277.310 105.667 L 281.389 105.667 L 281.389 101.587 L 285.468 101.587 L 289.548 101.587 L 289.548 105.667 L 285.468 105.667 L 285.468 109.746 L 289.548 109.746 L 289.548 113.825 L 285.468 113.825 L 281.389 113.825 L 281.389 109.746 L 277.310 109.746 L 277.310 113.825 L 277.310 117.905 L 281.389 117.905 L 281.389 121.984 L 277.310 121.984 L 277.310 126.063 L 277.310 130.143 L 281.389 130.143 L 281.389 126.063 L 285.468 126.063 L 285.468 130.143 L 289.548 130.143 L 289.548 126.063 L 289.548 121.984 L 285.468 121.984 L 285.468 117.905 L 289.548 117.905 L 293.627 117.905 L 293.627 121.984 L 297.706 121.984 L 297.706 117.905 L 301.786 117.905 L 305.865 117.905 L 305.865 121.984 L 301.786 121.984 L 301.786 126.063 L 305.865 126.063 L 305.865 130.143 L 301.786 130.143 L 297.706 130.143 L 297.706 126.063 L 293.627 126.063 L 293.627 130.143 L 293.627 134.222 L 293.627 138.302 L 297.706 138.302 L 297.706 134.222 L 301.786 134.222 L 305.865 134.222 L 305.865 138.302 L 301.786 138.302 L 301.786 142.381 L 305.865 142.381 L 305.865 146.460 L 301.786 146.460 L 297.706 146.460 L 297.706 142.381 L 293.627 142.381 L 293.627 146.460 L 289.548 146.460 L 285.468 146.460 L 285.468 142.381 L 289.548 142.381 L 289.548 138.302 L 289.548 134.222 L 285.468 134.222 L 285.468 138.302 L 281.389 138.302 L 281.389 134.222 L 277.310 134.222 L 277.310 138.302 L 277.310 142.381 L 281.389 142.381 L 281.389 146.460 L 277.310 146.460 L 273.230 146.460 L 273.230 142.381 L 269.151 142.381 L 269.151 146.460 L 265.071 146.460 L 260.992 146.460 L 260.992 142.381 L 265.071 142.381 L 265.071 138.302 L 260.992 138.302 L 260.992 134.222 L 265.071 134.222 L 269.151 134.222 L 269.151 138.302 L 273.230 138.302 L 273.230 134.222 L 273.230 130.143 L 269.151 130.143 L 269.151 126.063 L 273.230 126.063 L 273.230 121.984 L 273.230 117.905 L 269.151 117.905 L 269.151 121.984 L 265.071 121.984 L 265.071 117.905 L 260.992 117.905 L 260.992 121.984 L 260.992 126.063 L 265.071 126.063 L 265.071 130.143 L 260.992 130.143 L 256.913 130.143 L 252.833 130.143 L 252.833 126.063 L 256.913 126.063 L 256.913 121.984 L 256.913 117.905 L 252.833 117.905 L 252.833 121.984 L 248.754 121.984 L 248.754 117.905 L 244.675 117.905 L 244.675 121.984 L 244.675 126.063 L 248.754 126.063 L 248.754 130.143 L 244.675 130.143 L 244.675 134.222 L 244.675 138.302 L 248.754 138.302 L 248.754 134.222 L 252.833 134.222 L 256.913 134.222 L 256.913 138.302 L 252.833 138.302 L 252.833 142.381 L 256.913 142.381 L 256.913 146.460 L 252.833 146.460 L 248.754 146.460 L 248.754 142.381 L 244.675 142.381 L 244.675 146.460 L 240.595 146.460 L 236.516 146.460 L 236.516 142.381 L 240.595 142.381 L 240.595 138.302 L 240.595 134.222 L 236.516 134.222 L 236.516 138.302 L 232.437 138.302 L 232.437 134.222 L 228.357 134.222 L 228.357 138.302 L 228.357 142.381 L 232.437 142.381 L 232.437 146.460 L 228.357 146.460 L 224.278 146.460 L 224.278 142.381 L 220.198 142.381 L 220.198 146.460 L 216.119 146.460 L 212.040 146.460 L 212.040 142.381 L 216.119 142.381 L 216.119 138.302 L 212.040 138.302 L 212.040 134.222 L 216.119 134.222 L 220.198 134.222 L 220.198 138.302 L 224.278 138.302 L 224.278 134.222 L 224.278 130.143 L 224.278 126.063 L 220.198 126.063 L 220.198 130.143 L 216.119 130.143 L 212.040 130.143 L 212.040 126.063 L 216.119 126.063 L 216.119 121.984 L 212.040 121.984 L 212.040 117.905 L 216.119 117.905 L 220.198 117.905 L 220.198 121.984 L 224.278 121.984 L 224.278 117.905 L 228.357 117.905 L 232.437 117.905 L 232.437 121.984 L 228.357 121.984 L 228.357 126.063 L 228.357 130.143 L 232.437 130.143 L 232.437 126.063 L 236.516 126.063 L 236.516 130.143 L 240.595 130.143 L 240.595 126.063 L 240.595 121.984 L 236.516 121.984 L 236.516 117.905 L 240.595 117.905 L 240.595 113.825 L 236.516 113.825 L 236.516 109.746 L 240.595 109.746 L 240.595 105.667 L 240.595 101.587 L 236.516 101.587 L 236.516 105.667 L 232.437 105.667 L 232.437 101.587 L 228.357 101.587 L 228.357 105.667 L 228.357 109.746 L 232.437 109.746 L 232.437 113.825 L 228.357 113.825 L 224.278 113.825 L 224.278 109.746 L 220.198 109.746 L 220.198 113.825 L 216.119 113.825 L 212.040 113.825 L 212.040 109.746 L 216.119 109.746 L 216.119 105.667 L 212.040 105.667 L 212.040 101.587 L 216.119 101.587 L 220.198 101.587 L 220.198 105.667 L 224.278 105.667 L 224.278 101.587 L 224.278 97.508 L 224.278 93.429 L 220.198 93.429 L 220.198 97.508 L 216.119 97.508 L 212.040 97.508 L 212.040 93.429 L 216.119 93.429 L 216.119 89.349 L 212.040 89.349 L 212.040 85.270 L 216.119 85.270 L 220.198 85.270 L 220.198 89.349 L 224.278 89.349 L 224.278 85.270 L 228.357 85.270 L 232.437 85.270 L 232.437 89.349 L 228.357 89.349 L 228.357 93.429 L 228.357 97.508 L 232.437 97.508 L 232.437 93.429 L 236.516 93.429 L 236.516 97.508 L 240.595 97.508 L 240.595 93.429 L 240.595 89.349 L 236.516 89.349 L 236.516 85.270 L 240.595 85.270 L 244.675 85.270 L 244.675 89.349 L 248.754 89.349 L 248.754 85.270 L 252.833 85.270 L 256.913 85.270 L 256.913 89.349 L 252.833 89.349 L 252.833 93.429 L 256.913 93.429 L 256.913 97.508 L 252.833 97.508 L 248.754 97.508 L 248.754 93.429 L 244.675 93.429 L 244.675 97.508 L 244.675 101.587 L 248.754 101.587 L 248.754 105.667 L 244.675 105.667 L 244.675 109.746 L 244.675 113.825 L 248.754 113.825 L 248.754 109.746 L 252.833 109.746 L 252.833 113.825 L 256.913 113.825 L 256.913 109.746 L 256.913 105.667 L 252.833 105.667 L 252.833 101.587 L 256.913 101.587 L 260.992 101.587 L 265.071 101.587 L 265.071 105.667 L 260.992 105.667 L 260.992 109.746 L 260.992 113.825 L 265.071 113.825 L 265.071 109.746 L 269.151 109.746 L 269.151 113.825 L 273.230 113.825 L 273.230 109.746 L 273.230 105.667 L 269.151 105.667 L 269.151 101.587 L 273.230 101.587 L 273.230 97.508 L 273.230 93.429 L 269.151 93.429 L 269.151 97.508 L 265.071 97.508 L 260.992 97.508 L 260.992 93.429 L 265.071 93.429 L 265.071 89.349 L 260.992 89.349 L 260.992 85.270 L 265.071 85.270 L 269.151 85.270 L 269.151 89.349 L 273.230 89.349 L 273.230 85.270 L 273.230 81.190 L 273.230 77.111 L 269.151 77.111 L 269.151 81.190 L 265.071 81.190 L 260.992 81.190 L 260.992 77.111 L 265.071 77.111 L 265.071 73.032 L 260.992 73.032 L 260.992 68.952 L 265.071 68.952 L 269.151 68.952 L 269.151 73.032 L 273.230 73.032 L 273.230 68.952 L 273.230 64.873 L 269.151 64.873 L 269.151 60.794 L 273.230 60.794 L 273.230 56.714 L 273.230 52.635 L 269.151 52.635 L 269.151 56.714 L 265.071 56.714 L 265.071 52.635 L 260.992 52.635 L 260.992 56.714 L 260.992 60.794 L 265.071 60.794 L 265.071 64.873 L 260.992 64.873 L 256.913 64.873 L 252.833 64.873 L 252.833 60.794 L 256.913 60.794 L 256.913 56.714 L 256.913 52.635 L 252.833 52.635 L 252.833 56.714 L 248.754 56.714 L 248.754 52.635 L 244.675 52.635 L 244.675 56.714 L 244.675 60.794 L 248.754 60.794 L 248.754 64.873 L 244.675 64.873 L 244.675 68.952 L 244.675 73.032 L 248.754 73.032 L 248.754 68.952 L 252.833 68.952 L 256.913 68.952 L 256.913 73.032 L 252.833 73.032 L 252.833 77.111 L 256.913 77.111 L 256.913 81.190 L 252.833 81.190 L 248.754 81.190 L 248.754 77.111 L 244.675 77.111 L 244.675 81.190 L 240.595 81.190 L 236.516 81.190 L 236.516 77.111 L 240.595 77.111 L 240.595 73.032 L 240.595 68.952 L 236.516 68.952 L 236.516 73.032 L 232.437 73.032 L 232.437 68.952 L 228.357 68.952 L 228.357 73.032 L 228.357 77.111 L 232.437 77.111 L 232.437 81.190 L 228.357 81.190 L 224.278 81.190 L 224.278 77.111 L 220.198 77.111 L 220.198 81.190 L 216.119 81.190 L 212.040 81.190 L 212.040 77.111 L 216.119 77.111 L 216.119 73.032 L 212.040 73.032 L 212.040 68.952 L 216.119 68.952 L 220.198 68.952 L 220.198 73.032 L 224.278 73.032 L 224.278 68.952 L 224.278 64.873 L 224.278 60.794 L 220.198 60.794 L 220.198 64.873 L 216.119 64.873 L 212.040 64.873 L 212.040 60.794 L 216.119 60.794 L 216.119 56.714 L 212.040 56.714 L 212.040 52.635 L 216.119 52.635 L 220.198 52.635 L 220.198 56.714 L 224.278 56.714 L 224.278 52.635 L 228.357 52.635 L 232.437 52.635 L 232.437 56.714 L 228.357 56.714 L 228.357 60.794 L 228.357 64.873 L 232.437 64.873 L 232.437 60.794 L 236.516 60.794 L 236.516 64.873 L 240.595 64.873 L 240.595 60.794 L 240.595 56.714 L 236.516 56.714 L 236.516 52.635 L 240.595 52.635 L 240.595 48.556 L 236.516 48.556 L 236.516 44.476 L 240.595 44.476 L 240.595 40.397 L 240.595 36.317 L 236.516 36.317 L 236.516 40.397 L 232.437 40.397 L 232.437 36.317 L 228.357 36.317 L 228.357 40.397 L 228.357 44.476 L 232.437 44.476 L 232.437 48.556 L 228.357 48.556 L 224.278 48.556 L 224.278 44.476 L 220.198 44.476 L 220.198 48.556 L 216.119 48.556 L 212.040 48.556 L 212.040 44.476 L 216.119 44.476 L 216.119 40.397 L 212.040 40.397 L 212.040 36.317 L 216.119 36.317 L 220.198 36.317 L 220.198 40.397 L 224.278 40.397 L 224.278 36.317 L 224.278 32.238 L 224.278 28.159 L 220.198 28.159 L 220.198 32.238 L 216.119 32.238 L 212.040 32.238 L 212.040 28.159 L 216.119 28.159 L 216.119 24.079 L 212.040 24.079 L 212.040 20.000 L 216.119 20.000 L 220.198 20.000 L 220.198 24.079 L 224.278 24.079 L 224.278 20.000 L 228.357 20.000 L 232.437 20.000 L 232.437 24.079 L 228.357 24.079 L 228.357 28.159 L 228.357 32.238 L 232.437 32.238 L 232.437 28.159 L 236.516 28.159 L 236.516 32.238 L 240.595 32.238 L 240.595 28.159 L 240.595 24.079 L 236.516 24.079 L 236.516 20.000 L 240.595 20.000 L 244.675 20.000 L 244.675 24.079 L 248.754 24.079 L 248.754 20.000 L 252.833 20.000 L 256.913 20.000 L 256.913 24.079 L 252.833 24.079 L 252.833 28.159 L 256.913 28.159 L 256.913 32.238 L 252.833 32.238 L 248.754 32.238 L 248.754 28.159 L 244.675 28.159 L 244.675 32.238 L 244.675 36.317 L 248.754 36.317 L 248.754 40.397 L 244.675 40.397 L 244.675 44.476 L 244.675 48.556 L 248.754 48.556 L 248.754 44.476 L 252.833 44.476 L 252.833 48.556 L 256.913 48.556 L 256.913 44.476 L 256.913 40.397 L 252.833 40.397 L 252.833 36.317 L 256.913 36.317 L 260.992 36.317 L 265.071 36.317 L 265.071 40.397 L 260.992 40.397 L 260.992 44.476 L 260.992 48.556 L 265.071 48.556 L 265.071 44.476 L 269.151 44.476 L 269.151 48.556 L 273.230 48.556 L 273.230 44.476 L 273.230 40.397 L 269.151 40.397 L 269.151 36.317 L 273.230 36.317 L 273.230 32.238 L 273.230 28.159 L 269.151 28.159 L 269.151 32.238 L 265.071 32.238 L 260.992 32.238 L 260.992 28.159 L 265.071 28.159 L 265.071 24.079 L 260.992 24.079 L 260.992 20.000 L 265.071 20.000 L 269.151 20.000 L 269.151 24.079 L 273.230 24.079 L 273.230 20.000 L 277.310 20.000 L 281.389 20.000 L 281.389 24.079 L 277.310 24.079 L 277.310 28.159 L 277.310 32.238 L 281.389 32.238 L 281.389 28.159 L 285.468 28.159 L 285.468 32.238 L 289.548 32.238 L 289.548 28.159 L 289.548 24.079 L 285.468 24.079 L 285.468 20.000 L 289.548 20.000 L 293.627 20.000 L 293.627 24.079 L 297.706 24.079 L 297.706 20.000 L 301.786 20.000 L 305.865 20.000 L 305.865 24.079 L 301.786 24.079 L 301.786 28.159 L 305.865 28.159 L 305.865 32.238 L 301.786 32.238 L 297.706 32.238 L 297.706 28.159 L 293.627 28.159 L 293.627 32.238 L 293.627 36.317 L 293.627 40.397 L 297.706 40.397 L 297.706 36.317 L 301.786 36.317 L 305.865 36.317 L 305.865 40.397 L 301.786 40.397 L 301.786 44.476 L 305.865 44.476 L 305.865 48.556 L 301.786 48.556 L 297.706 48.556 L 297.706 44.476 L 293.627 44.476 L 293.627 48.556 L 289.548 48.556 L 285.468 48.556 L 285.468 44.476 L 289.548 44.476 L 289.548 40.397 L 289.548 36.317 L 285.468 36.317 L 285.468 40.397 L 281.389 40.397 L 281.389 36.317 L 277.310 36.317 L 277.310 40.397 L 277.310 44.476 L 281.389 44.476 L 281.389 48.556 L 277.310 48.556 L 277.310 52.635 L 277.310 56.714 L 281.389 56.714 L 281.389 52.635 L 285.468 52.635 L 289.548 52.635 L 289.548 56.714 L 285.468 56.714 L 285.468 60.794 L 289.548 60.794 L 289.548 64.873 L 285.468 64.873 L 281.389 64.873 L 281.389 60.794 L 277.310 60.794 L 277.310 64.873 L 277.310 68.952 L 281.389 68.952 L 281.389 73.032 L 277.310 73.032 L 277.310 77.111 L 277.310 81.190 L 281.389 81.190 L 281.389 77.111 L 285.468 77.111 L 285.468 81.190 L 289.548 81.190 L 289.548 77.111 L 289.548 73.032 L 285.468 73.032 L 285.468 68.952 L 289.548 68.952 L 293.627 68.952 L 297.706 68.952 L 297.706 73.032 L 293.627 73.032 L 293.627 77.111 L 293.627 81.190 L 297.706 81.190 L 297.706 77.111 L 301.786 77.111 L 301.786 81.190 L 305.865 81.190 L 305.865 77.111 L 305.865 73.032 L 301.786 73.032 L 301.786 68.952 L 305.865 68.952 L 305.865 64.873 L 305.865 60.794 L 301.786 60.794 L 301.786 64.873 L 297.706 64.873 L 293.627 64.873 L 293.627 60.794 L 297.706 60.794 L 297.706 56.714 L 293.627 56.714 L 293.627 52.635 L 297.706 52.635 L 301.786 52.635 L 301.786 56.714 L 305.865 56.714 L 305.865 52.635 L 309.944 52.635 L 309.944 56.714 L 314.024 56.714 L 314.024 52.635 L 318.103 52.635 L 322.183 52.635 L 322.183 56.714 L 318.103 56.714 L 318.103 60.794 L 322.183 60.794 L 322.183 64.873 L 318.103 64.873 L 314.024 64.873 L 314.024 60.794 L 309.944 60.794 L 309.944 64.873 L 309.944 68.952 L 314.024 68.952 L 314.024 73.032 L 309.944 73.032 L 309.944 77.111 L 309.944 81.190 L 314.024 81.190 L 314.024 77.111 L 318.103 77.111 L 318.103 81.190 L 322.183 81.190 L 322.183 77.111 L 322.183 73.032 L 318.103 73.032 L 318.103 68.952 L 322.183 68.952 L 326.262 68.952 L 330.341 68.952 L 330.341 73.032 L 326.262 73.032 L 326.262 77.111 L 326.262 81.190 L 330.341 81.190 L 330.341 77.111 L 334.421 77.111 L 334.421 81.190 L 338.500 81.190 L 338.500 77.111 L 338.500 73.032 L 334.421 73.032 L 334.421 68.952 L 338.500 68.952 L 338.500 64.873 L 338.500 60.794 L 334.421 60.794 L 334.421 64.873 L 330.341 64.873 L 326.262 64.873 L 326.262 60.794 L 330.341 60.794 L 330.341 56.714 L 326.262 56.714 L 326.262 52.635 L 330.341 52.635 L 334.421 52.635 L 334.421 56.714 L 338.500 56.714 L 338.500 52.635 L 338.500 48.556 L 334.421 48.556 L 334.421 44.476 L 338.500 44.476 L 338.500 40.397 L 338.500 36.317 L 334.421 36.317 L 334.421 40.397 L 330.341 40.397 L 330.341 36.317 L 326.262 36.317 L 326.262 40.397 L 326.262 44.476 L 330.341 44.476 L 330.341 48.556 L 326.262 48.556 L 322.183 48.556 L 322.183 44.476 L 318.103 44.476 L 318.103 48.556 L 314.024 48.556 L 309.944 48.556 L 309.944 44.476 L 314.024 44.476 L 314.024 40.397 L 309.944 40.397 L 309.944 36.317 L 314.024 36.317 L 318.103 36.317 L 318.103 40.397 L 322.183 40.397 L 322.183 36.317 L 322.183 32.238 L 322.183 28.159 L 318.103 28.159 L 318.103 32.238 L 314.024 32.238 L 309.944 32.238 L 309.944 28.159 L 314.024 28.159 L 314.024 24.079 L 309.944 24.079 L 309.944 20.000 L 314.024 20.000 L 318.103 20.000 L 318.103 24.079 L 322.183 24.079 L 322.183 20.000 L 326.262 20.000 L 330.341 20.000 L 330.341 24.079 L 326.262 24.079 L 326.262 28.159 L 326.262 32.238 L 330.341 32.238 L 330.341 28.159 L 334.421 28.159 L 334.421 32.238 L 338.500 32.238 L 338.500 28.159 L 338.500 24.079 L 334.421 24.079 L 334.421 20.000 L 338.500 20.000" fill="none" stroke="#f472b6" stroke-width="1" vector-effect="non-scaling-stroke"/></svg>