<svg xmlns="http://www.w3.org/2000/svg" viewBox="77.43967674139874 3.5086565259798874 265.17444920692634 298.96422238847504" width="265.17444920692634" height="298.96422238847504" shape-rendering="geometricPrecision"><rect x="77.43967674139874" y="3.5086565259798874" width="265.17444920692634" height="298.96422238847504" fill="#0b0f14"/><path d="M 198.400 87.011 L 197.980 87.616 L 195.973 91.815 L 194.589 96.014 M 193.760 99.389 L 193.606 100.213 L 192.918 104.412 L 192.200 108.611 L 191.368 112.810 L 190.391 117.008 L 189.282 121.207 M 226.990 104.412 L 227.694 108.611 L 228.516 112.810 L 229.486 117.008 L 230.592 121.207 L 230.880 122.220 M 189.120 121.777 L 188.282 125.406 L 187.312 129.605 L 186.417 133.804 L 185.672 138.003 L 185.139 142.202 L 184.866 146.401 L 184.876 150.599 L 185.169 154.798 L 185.720 158.997 L 186.481 163.196 L 187.386 167.395 L 188.359 171.594 L 189.120 174.904 L 189.371 175.793 L 190.463 179.992 L 191.418 184.190 L 192.222 188.389 L 192.913 192.588 L 193.576 196.787 L 193.760 197.797 L 194.528 200.986 L 195.909 205.185 L 197.932 209.384 L 198.400 210.051 L 202.107 213.583 L 203.040 214.213 L 207.680 215.776 L 212.320 215.760 L 216.960 214.159 L 217.801 213.583 M 232.594 129.605 L 233.500 133.804 L 234.262 138.003 L 234.816 142.202 L 235.114 146.401 L 235.128 150.599 L 234.857 154.798 L 234.322 158.997 L 233.571 163.196 L 232.669 167.395 L 231.691 171.594 M 230.675 175.793 L 229.559 179.992 L 228.576 184.190 L 227.741 188.389 L 227.022 192.588 L 226.335 196.787 M 193.760 84.660 L 192.213 87.616 L 190.705 91.815 L 189.664 96.014 M 189.120 98.956 L 188.931 100.213 L 188.377 104.412 L 187.800 108.611 L 187.133 112.810 L 186.350 117.008 L 185.462 121.207 L 184.511 125.406 M 231.526 104.412 L 232.095 108.611 L 232.757 112.810 L 233.538 117.008 L 234.426 121.207 L 235.381 125.406 L 235.520 126.015 M 184.480 125.544 L 183.694 129.605 L 182.944 133.804 L 182.318 138.003 L 181.870 142.202 L 181.639 146.401 L 181.646 150.599 L 181.890 154.798 L 182.351 158.997 L 182.989 163.196 L 183.748 167.395 L 184.480 171.157 L 184.580 171.594 L 185.526 175.793 L 186.402 179.992 L 187.166 184.190 L 187.809 188.389 L 188.361 192.588 L 188.890 196.787 L 189.120 198.357 L 189.592 200.986 L 190.624 205.185 L 192.138 209.384 L 193.760 212.455 L 194.548 213.583 L 198.400 217.477 L 198.852 217.781 L 203.040 219.868 L 207.680 221.017 L 212.320 221.010 L 216.960 219.843 L 221.050 217.781 M 236.980 133.804 L 237.620 138.003 L 238.085 142.202 L 238.336 146.401 L 238.349 150.599 L 238.122 154.798 L 237.675 158.997 L 237.046 163.196 L 236.288 167.395 M 235.458 171.594 L 234.496 175.793 L 233.599 179.992 L 232.809 184.190 L 232.137 188.389 L 231.558 192.588 L 231.005 196.787 M 189.120 84.358 L 187.749 87.616 L 186.535 91.815 L 185.697 96.014 L 185.073 100.213 L 184.529 104.412 M 233.393 91.815 L 234.212 96.014 L 234.821 100.213 L 235.356 104.412 L 235.520 105.641 M 184.480 104.771 L 184.037 108.611 L 183.477 112.810 L 182.821 117.008 L 182.077 121.207 L 181.281 125.406 L 180.484 129.605 M 236.417 112.810 L 237.074 117.008 L 237.820 121.207 L 238.620 125.406 L 239.423 129.605 L 240.160 133.756 M 179.840 133.284 L 179.760 133.804 L 179.217 138.003 L 178.828 142.202 L 178.626 146.401 L 178.630 150.599 L 178.840 154.798 L 179.238 158.997 L 179.791 163.196 L 179.840 163.513 L 180.528 167.395 L 181.328 171.594 L 182.123 175.793 L 182.858 179.992 L 183.499 184.190 L 184.038 188.389 L 184.480 192.403 L 184.504 192.588 L 185.023 196.787 L 185.627 200.986 L 186.453 205.185 L 187.668 209.384 L 189.120 212.809 L 189.525 213.583 L 192.642 217.781 L 193.760 218.887 L 197.924 221.980 L 198.400 222.251 L 203.040 224.018 L 207.680 224.896 L 212.320 224.893 L 216.960 224.007 L 221.600 222.228 L 222.033 221.980 M 240.721 138.003 L 241.125 142.202 L 241.343 146.401 L 241.355 150.599 L 241.160 154.798 L 240.773 158.997 L 240.228 163.196 M 239.494 167.395 L 238.687 171.594 L 237.879 175.793 L 237.125 179.992 L 236.460 184.190 L 235.895 188.389 M 235.389 192.588 L 234.846 196.787 L 234.229 200.986 L 233.402 205.185 L 232.202 209.384 M 184.480 86.078 L 183.938 87.616 L 182.917 91.815 L 182.211 96.014 L 181.686 100.213 L 181.228 104.412 L 180.752 108.611 L 180.204 112.810 M 237.004 91.815 L 237.693 96.014 L 238.207 100.213 L 238.658 104.412 L 239.131 108.611 L 239.679 112.810 L 240.160 115.941 M 179.840 115.185 L 179.594 117.008 L 178.950 121.207 L 178.261 125.406 L 177.571 129.605 L 176.934 133.804 L 176.402 138.003 L 176.020 142.202 L 175.820 146.401 L 175.822 150.599 L 176.026 154.798 L 176.415 158.997 L 176.954 163.196 L 177.599 167.395 L 178.293 171.594 L 178.981 175.793 L 179.619 179.992 L 179.840 181.664 L 180.219 184.190 L 180.748 188.389 L 181.202 192.588 L 181.638 196.787 L 182.145 200.986 L 182.839 205.185 L 183.857 209.384 L 184.480 211.140 L 185.502 213.583 L 188.004 217.781 L 189.120 219.153 L 191.977 221.980 L 193.760 223.327 L 198.400 225.953 L 198.999 226.179 L 203.040 227.397 L 207.680 228.093 L 212.320 228.091 L 216.960 227.392 L 220.976 226.179 M 240.952 121.207 L 241.645 125.406 L 242.340 129.605 L 242.985 133.804 L 243.528 138.003 L 243.923 142.202 L 244.137 146.401 L 244.150 150.599 L 243.959 154.798 L 243.581 158.997 L 243.048 163.196 L 242.404 167.395 L 241.705 171.594 L 241.004 175.793 L 240.348 179.992 M 239.720 184.190 L 239.164 188.389 L 238.686 192.588 L 238.231 196.787 L 237.714 200.986 L 237.020 205.185 L 236.015 209.384 M 184.480 78.712 L 184.138 79.219 L 182.058 83.417 L 180.598 87.616 M 179.840 90.784 L 179.623 91.815 L 179.009 96.014 L 178.552 100.213 L 178.155 104.412 L 177.742 108.611 L 177.267 112.810 L 176.711 117.008 L 176.081 121.207 L 175.407 125.406 M 240.892 96.014 L 241.339 100.213 L 241.732 104.412 L 242.143 108.611 L 242.619 112.810 L 243.178 117.008 L 243.812 121.207 L 244.491 125.406 L 244.800 127.309 M 175.200 126.691 L 174.776 129.605 L 174.210 133.804 L 173.736 138.003 L 173.396 142.202 L 173.217 146.401 L 173.217 150.599 L 173.397 154.798 L 173.740 158.997 L 174.219 163.196 L 174.791 167.395 L 175.200 170.188 L 175.428 171.594 L 176.104 175.793 L 176.729 179.992 L 177.275 184.190 L 177.735 188.389 L 178.129 192.588 L 178.508 196.787 L 178.947 200.986 L 179.549 205.185 L 179.840 206.574 L 180.510 209.384 L 181.978 213.583 L 184.077 217.781 L 184.480 218.372 L 187.399 221.980 L 189.120 223.596 L 192.553 226.179 L 193.760 226.899 L 198.400 228.978 L 203.040 230.353 L 203.206 230.378 L 207.680 230.927 L 212.320 230.926 L 216.775 230.378 M 245.709 133.804 L 246.191 138.003 L 246.542 142.202 L 246.732 146.401 L 246.744 150.599 L 246.576 154.798 L 246.241 158.997 L 245.767 163.196 L 245.196 167.395 M 244.551 171.594 L 243.864 175.793 L 243.221 179.992 L 242.654 184.190 L 242.172 188.389 L 241.757 192.588 L 241.363 196.787 L 240.914 200.986 L 240.314 205.185 M 179.840 81.039 L 178.824 83.417 L 177.556 87.616 L 176.685 91.815 L 176.081 96.014 L 175.632 100.213 L 175.242 104.412 M 242.366 87.616 L 243.218 91.815 L 243.807 96.014 L 244.247 100.213 L 244.632 104.412 L 244.800 106.154 M 175.200 104.846 L 174.871 108.611 L 174.449 112.810 L 173.956 117.008 L 173.397 121.207 L 172.799 125.406 L 172.200 129.605 L 171.646 133.804 L 171.182 138.003 L 170.848 142.202 L 170.672 146.401 L 170.670 150.599 L 170.844 154.798 L 171.179 158.997 L 171.646 163.196 L 172.205 167.395 L 172.809 171.594 L 173.409 175.793 L 173.966 179.992 L 174.452 184.190 L 174.861 188.389 L 175.200 192.435 L 175.214 192.588 L 175.587 196.787 L 176.019 200.986 L 176.609 205.185 L 177.475 209.384 L 178.746 213.583 L 179.840 216.120 L 180.660 217.781 L 183.505 221.980 L 184.480 223.073 L 187.787 226.179 L 189.120 227.166 L 193.760 229.916 L 194.799 230.378 L 198.400 231.694 L 203.040 232.820 L 207.680 233.379 L 212.320 233.377 L 216.960 232.816 L 221.600 231.692 L 225.205 230.378 M 245.438 112.810 L 245.935 117.008 L 246.497 121.207 L 247.100 125.406 L 247.703 129.605 L 248.263 133.804 L 248.735 138.003 L 249.079 142.202 L 249.266 146.401 L 249.278 150.599 L 249.114 154.798 L 248.786 158.997 L 248.323 163.196 L 247.764 167.395 L 247.156 171.594 L 246.545 175.793 L 245.974 179.992 L 245.470 184.190 L 245.041 188.389 M 244.659 192.588 L 244.273 196.787 L 243.834 200.986 L 243.247 205.185 L 242.395 209.384 L 241.146 213.583 M 175.200 85.591 L 174.658 87.616 L 173.882 91.815 L 173.344 96.014 L 172.944 100.213 L 172.596 104.412 L 172.236 108.611 L 171.824 112.810 L 171.341 117.008 L 170.795 121.207 M 246.021 91.815 L 246.545 96.014 L 246.937 100.213 L 247.280 104.412 L 247.639 108.611 L 248.054 112.810 L 248.540 117.008 L 249.090 121.207 L 249.440 123.695 M 170.560 122.892 L 170.236 125.406 L 169.694 129.605 L 169.192 133.804 L 168.771 138.003 L 168.467 142.202 L 168.306 146.401 L 168.304 150.599 L 168.460 154.798 L 168.762 158.997 L 169.184 163.196 L 169.690 167.395 L 170.237 171.594 L 170.560 174.090 L 170.799 175.793 L 171.345 179.992 L 171.822 184.190 L 172.225 188.389 L 172.571 192.588 L 172.903 196.787 L 173.288 200.986 L 173.812 205.185 L 174.581 209.384 L 175.200 211.694 L 175.763 213.583 L 177.544 217.781 L 179.840 221.697 L 180.031 221.980 L 183.764 226.179 L 184.480 226.812 L 189.120 230.235 L 189.362 230.378 L 193.760 232.508 L 198.400 234.177 L 200.070 234.577 L 203.040 235.182 L 207.680 235.653 L 212.320 235.650 L 216.960 235.177 L 219.915 234.577 M 250.208 129.605 L 250.715 133.804 L 251.142 138.003 L 251.454 142.202 L 251.624 146.401 L 251.635 150.599 L 251.487 154.798 L 251.191 158.997 L 250.772 163.196 L 250.267 167.395 L 249.716 171.594 M 249.140 175.793 L 248.581 179.992 L 248.087 184.190 L 247.668 188.389 L 247.307 192.588 L 246.964 196.787 L 246.575 200.986 L 246.054 205.185 L 245.296 209.384 M 175.200 78.149 L 174.656 79.219 L 173.085 83.417 L 171.979 87.616 L 171.217 91.815 L 170.689 96.014 M 246.850 83.417 L 247.936 87.616 L 248.679 91.815 L 249.192 96.014 L 249.440 98.726 M 170.560 97.388 L 170.315 100.213 L 169.999 104.412 L 169.673 108.611 L 169.299 112.810 L 168.863 117.008 L 168.369 121.207 L 167.840 125.406 L 167.309 129.605 L 166.818 133.804 L 166.406 138.003 L 166.108 142.202 L 165.950 146.401 L 165.946 150.599 L 166.097 154.798 L 166.391 158.997 L 166.803 163.196 L 167.298 167.395 L 167.833 171.594 L 168.366 175.793 L 168.862 179.992 L 169.295 184.190 L 169.661 188.389 L 169.976 192.588 L 170.278 196.787 L 170.560 200.175 L 170.633 200.986 L 171.148 205.185 L 171.901 209.384 L 173.006 213.583 L 174.587 217.781 L 175.200 218.974 L 176.936 221.980 L 179.840 225.759 L 180.213 226.179 L 184.480 229.949 L 185.062 230.378 L 189.120 232.818 L 192.807 234.577 L 193.760 234.961 L 198.400 236.367 L 203.040 237.296 L 207.680 237.757 L 212.320 237.754 L 216.960 237.289 L 221.600 236.361 L 226.240 234.962 L 227.202 234.577 M 249.877 104.412 L 250.203 108.611 L 250.579 112.810 L 251.019 117.008 L 251.516 121.207 L 252.049 125.406 L 252.583 129.605 L 253.079 133.804 L 253.497 138.003 L 253.802 142.202 L 253.968 146.401 L 253.980 150.599 L 253.835 154.798 L 253.547 158.997 L 253.138 163.196 L 252.644 167.395 L 252.106 171.594 L 251.566 175.793 L 251.060 179.992 L 250.613 184.190 L 250.233 188.389 L 249.906 192.588 L 249.595 196.787 M 249.227 200.986 L 248.717 205.185 L 247.977 209.384 L 246.892 213.583 L 245.338 217.781 M 170.560 82.933 L 170.397 83.417 L 169.394 87.616 L 168.702 91.815 L 168.221 96.014 L 167.864 100.213 L 167.553 104.412 L 167.234 108.611 L 166.868 112.810 L 166.442 117.008 L 165.959 121.207 M 250.524 87.616 L 251.198 91.815 L 251.664 96.014 L 252.011 100.213 L 252.315 104.412 L 252.633 108.611 L 253.001 112.810 L 253.430 117.008 L 253.917 121.207 L 254.080 122.522 M 165.920 121.527 L 165.470 125.406 L 164.983 129.605 L 164.530 133.804 L 164.151 138.003 L 163.876 142.202 L 163.729 146.401 L 163.724 150.599 L 163.862 154.798 L 164.132 158.997 L 164.511 163.196 L 164.966 167.395 L 165.458 171.594 L 165.920 175.540 L 165.952 175.793 L 166.437 179.992 L 166.862 184.190 L 167.222 188.389 L 167.532 192.588 L 167.829 196.787 L 168.172 200.986 L 168.638 205.185 L 169.320 209.384 L 170.321 213.583 L 170.560 214.293 L 171.847 217.781 L 173.987 221.980 L 175.200 223.778 L 177.027 226.179 L 179.840 229.065 L 181.328 230.378 L 184.480 232.638 L 187.742 234.577 L 189.120 235.266 L 193.760 237.123 L 198.400 238.501 L 199.793 238.776 L 203.040 239.337 L 207.680 239.734 L 212.320 239.730 L 216.960 239.327 L 220.150 238.776 M 254.908 129.605 L 255.364 133.804 L 255.749 138.003 L 256.031 142.202 L 256.184 146.401 L 256.195 150.599 L 256.062 154.798 L 255.797 158.997 L 255.421 163.196 L 254.967 167.395 L 254.473 171.594 M 253.969 175.793 L 253.475 179.992 L 253.039 184.190 L 252.668 188.389 L 252.349 192.588 L 252.046 196.787 L 251.702 200.986 L 251.239 205.185 L 250.568 209.384 L 249.585 213.583 M 170.560 76.425 L 169.291 79.219 L 167.897 83.417 L 166.914 87.616 L 166.235 91.815 M 252.040 83.417 L 253.003 87.616 L 253.662 91.815 L 254.080 95.673 M 165.920 94.618 L 165.773 96.014 L 165.442 100.213 L 165.155 104.412 L 164.860 108.611 L 164.524 112.810 L 164.132 117.008 L 163.688 121.207 L 163.213 125.406 L 162.737 129.605 L 162.295 133.804 L 161.923 138.003 L 161.654 142.202 L 161.510 146.401 L 161.505 150.599 L 161.638 154.798 L 161.901 158.997 L 162.271 163.196 L 162.715 167.395 L 163.197 171.594 L 163.678 175.793 L 164.125 179.992 L 164.518 184.190 L 164.850 188.389 L 165.137 192.588 L 165.411 196.787 L 165.728 200.986 L 165.920 202.865 L 166.173 205.185 L 166.840 209.384 L 167.818 213.583 L 169.216 217.781 L 170.560 220.713 L 171.199 221.980 L 174.005 226.179 L 175.200 227.575 L 177.923 230.378 L 179.840 231.972 L 183.500 234.577 L 184.480 235.161 L 189.120 237.468 L 192.442 238.776 L 193.760 239.227 L 198.400 240.418 L 203.040 241.204 L 207.680 241.592 L 212.320 241.586 L 216.960 241.190 L 221.600 240.402 L 226.240 239.277 L 227.545 238.776 M 254.435 100.213 L 254.715 104.412 L 255.007 108.611 L 255.345 112.810 L 255.740 117.008 L 256.187 121.207 L 256.665 125.406 L 257.145 129.605 L 257.592 133.804 L 257.968 138.003 L 258.243 142.202 L 258.393 146.401 L 258.404 150.599 L 258.274 154.798 L 258.016 158.997 L 257.649 163.196 L 257.207 167.395 L 256.725 171.594 L 256.241 175.793 L 255.787 179.992 L 255.386 184.190 L 255.045 188.389 L 254.752 192.588 L 254.473 196.787 L 254.156 200.986 M 253.709 205.185 L 253.052 209.384 L 252.091 213.583 L 250.715 217.781 M 165.920 81.793 L 165.427 83.417 L 164.520 87.616 L 163.894 91.815 L 163.458 96.014 L 163.134 100.213 L 162.853 104.412 L 162.564 108.611 L 162.235 112.810 L 161.853 117.008 L 161.420 121.207 M 255.403 87.616 L 256.010 91.815 L 256.428 96.014 L 256.740 100.213 L 257.013 104.412 L 257.298 108.611 L 257.627 112.810 L 258.012 117.008 L 258.448 121.207 L 258.720 123.650 M 161.280 122.468 L 160.970 125.406 L 160.526 129.605 L 160.114 133.804 L 159.767 138.003 L 159.515 142.202 L 159.381 146.401 L 159.375 150.599 L 159.499 154.798 L 159.743 158.997 L 160.087 163.196 L 160.501 167.395 L 160.951 171.594 L 161.280 174.674 L 161.406 175.793 L 161.844 179.992 L 162.229 184.190 L 162.555 188.389 L 162.837 192.588 L 163.106 196.787 L 163.416 200.986 L 163.837 205.185 L 164.451 209.384 L 165.350 213.583 L 165.920 215.457 L 166.680 217.781 L 168.571 221.980 L 170.560 225.289 L 171.152 226.179 L 174.734 230.378 L 175.200 230.819 L 179.733 234.577 L 179.840 234.651 L 184.480 237.413 L 187.257 238.776 L 189.120 239.566 L 193.760 241.138 L 198.400 242.303 L 202.450 242.975 L 203.040 243.062 L 207.680 243.405 L 212.320 243.399 L 216.960 243.053 L 217.435 242.975 M 259.354 129.605 L 259.771 133.804 L 260.123 138.003 L 260.380 142.202 L 260.520 146.401 L 260.531 150.599 L 260.410 154.798 L 260.168 158.997 L 259.827 163.196 L 259.415 167.395 L 258.966 171.594 M 258.506 175.793 L 258.064 179.992 L 257.674 184.190 L 257.342 188.389 L 257.056 192.588 L 256.784 196.787 L 256.475 200.986 L 256.059 205.185 L 255.454 209.384 L 254.568 213.583 M 165.920 75.341 L 164.327 79.219 L 163.071 83.417 L 162.184 87.616 L 161.571 91.815 M 256.875 83.417 L 257.741 87.616 L 258.333 91.815 L 258.720 95.793 M 161.280 94.675 L 161.150 96.014 L 160.846 100.213 L 160.583 104.412 L 160.313 108.611 L 160.006 112.810 L 159.649 117.008 L 159.246 121.207 L 158.814 125.406 L 158.380 129.605 L 157.978 133.804 L 157.639 138.003 L 157.393 142.202 L 157.261 146.401 L 157.255 150.599 L 157.376 154.798 L 157.614 158.997 L 157.949 163.196 L 158.353 167.395 L 158.792 171.594 L 159.232 175.793 L 159.641 179.992 L 160.001 184.190 L 160.307 188.389 L 160.570 192.588 L 160.822 196.787 L 161.113 200.986 L 161.280 202.778 L 161.516 205.185 L 162.116 209.384 L 162.994 213.583 L 164.249 217.781 L 165.920 221.825 L 165.990 221.980 L 168.466 226.179 L 170.560 228.922 L 171.796 230.378 L 175.200 233.599 L 176.379 234.577 L 179.840 236.967 L 182.921 238.776 L 184.480 239.563 L 189.120 241.513 L 193.530 242.975 L 193.760 243.043 L 198.400 244.075 L 203.040 244.754 L 207.680 245.088 L 212.320 245.080 L 216.960 244.733 L 221.600 244.048 L 226.240 243.026 L 226.399 242.975 M 259.031 100.213 L 259.286 104.412 L 259.551 108.611 L 259.857 112.810 L 260.216 117.008 L 260.622 121.207 L 261.058 125.406 L 261.495 129.605 L 261.902 133.804 L 262.246 138.003 L 262.497 142.202 L 262.633 146.401 L 262.643 150.599 L 262.526 154.798 L 262.291 158.997 L 261.958 163.196 L 261.557 167.395 L 261.120 171.594 L 260.682 175.793 L 260.271 179.992 L 259.908 184.190 L 259.599 188.389 L 259.333 192.588 L 259.080 196.787 L 258.791 200.986 M 258.387 205.185 L 257.797 209.384 L 256.931 213.583 L 255.693 217.781 M 165.920 70.768 L 165.884 70.821 L 163.630 75.020 L 161.943 79.219 M 161.280 81.473 L 160.740 83.417 L 159.911 87.616 L 159.338 91.815 L 158.939 96.014 L 158.641 100.213 L 158.383 104.412 L 158.119 108.611 L 157.820 112.810 L 157.471 117.008 L 157.078 121.207 L 156.657 125.406 M 260.021 87.616 L 260.574 91.815 L 260.954 96.014 L 261.237 100.213 L 261.484 104.412 L 261.742 108.611 L 262.040 112.810 L 262.389 117.008 L 262.784 121.207 L 263.209 125.406 L 263.360 126.888 M 156.640 125.571 L 156.247 129.605 L 155.868 133.804 L 155.548 138.003 L 155.316 142.202 L 155.191 146.401 L 155.185 150.599 L 155.298 154.798 L 155.522 158.997 L 155.839 163.196 L 156.220 167.395 L 156.634 171.594 M 264.012 133.804 L 264.338 138.003 L 264.575 142.202 L 264.704 146.401 L 264.713 150.599 L 264.602 154.798 L 264.380 158.997 L 264.067 163.196 L 263.688 167.395 M 157.063 175.793 L 157.464 179.992 L 157.816 184.190 L 158.115 188.389 L 158.373 192.588 L 158.620 196.787 L 158.904 200.986 L 159.288 205.185 L 159.847 209.384 L 160.666 213.583 L 161.280 215.801 L 161.861 217.781 L 163.555 221.980 L 165.829 226.179 L 165.920 226.311 L 168.983 230.378 L 170.560 232.052 L 173.224 234.577 L 175.200 236.129 L 179.072 238.776 L 179.840 239.225 L 184.480 241.556 L 187.915 242.975 L 189.120 243.416 L 193.760 244.776 L 198.400 245.783 L 203.040 246.446 L 207.680 246.771 L 212.320 246.761 L 216.960 246.421 L 221.600 245.750 L 226.240 244.746 L 230.880 243.442 L 232.050 242.975 M 263.274 171.594 L 262.848 175.793 L 262.449 179.992 L 262.096 184.190 L 261.796 188.389 L 261.538 192.588 L 261.291 196.787 L 261.010 200.986 L 260.630 205.185 L 260.078 209.384 L 259.269 213.583 M 161.280 74.874 L 161.209 75.020 L 159.634 79.219 L 158.488 83.417 L 157.678 87.616 L 157.118 91.815 L 156.727 96.014 M 260.344 79.219 L 261.471 83.417 L 262.260 87.616 L 262.798 91.815 L 263.168 96.014 L 263.360 98.941 M 156.640 97.267 L 156.442 100.213 L 156.198 104.412 L 155.948 108.611 L 155.665 112.810 L 155.337 117.008 L 154.966 121.207 L 154.569 125.406 L 154.170 129.605 L 153.800 133.804 L 153.489 138.003 L 153.263 142.202 L 153.141 146.401 L 153.135 150.599 L 153.245 154.798 L 153.464 158.997 L 153.772 163.196 L 154.143 167.395 L 154.548 171.594 L 154.953 175.793 L 155.331 179.992 L 155.664 184.190 L 155.947 188.389 L 156.191 192.588 L 156.425 196.787 L 156.640 200.142 L 156.696 200.986 L 157.071 205.185 L 157.616 209.384 L 158.414 213.583 L 159.554 217.781 L 161.132 221.980 L 161.280 222.281 L 163.341 226.179 L 165.920 229.925 L 166.261 230.378 L 170.205 234.577 L 170.560 234.890 L 175.200 238.523 L 175.570 238.776 L 179.840 241.275 L 183.282 242.975 L 184.480 243.497 L 189.120 245.182 L 193.760 246.509 L 196.881 247.174 L 198.400 247.469 L 203.040 248.069 L 207.680 248.361 L 212.320 248.351 L 216.960 248.041 L 221.600 247.452 L 222.929 247.174 M 263.673 104.412 L 263.916 108.611 L 264.196 112.810 L 264.525 117.008 L 264.898 121.207 L 265.299 125.406 L 265.703 129.605 L 266.078 133.804 L 266.396 138.003 L 266.627 142.202 L 266.753 146.401 L 266.762 150.599 L 266.653 154.798 L 266.437 158.997 L 266.131 163.196 L 265.764 167.395 L 265.364 171.594 L 264.962 175.793 L 264.587 179.992 L 264.256 184.190 L 263.974 188.389 L 263.731 192.588 L 263.498 196.787 M 263.229 200.986 L 262.859 205.185 L 262.320 209.384 L 261.530 213.583 L 260.402 217.781 L 258.839 221.980 M 161.280 70.275 L 160.941 70.821 L 158.890 75.020 L 157.354 79.219 M 156.640 81.888 L 156.249 83.417 L 155.483 87.616 L 154.953 91.815 L 154.584 96.014 L 154.307 100.213 L 154.069 104.412 L 153.825 108.611 L 153.549 112.810 L 153.229 117.008 L 152.868 121.207 L 152.481 125.406 L 152.093 129.605 M 264.463 87.616 L 264.971 91.815 L 265.320 96.014 L 265.579 100.213 L 265.804 104.412 L 266.039 108.611 L 266.311 112.810 L 266.631 117.008 L 266.994 121.207 L 267.385 125.406 L 267.778 129.605 L 268.000 132.145 M 152.000 130.691 L 151.739 133.804 L 151.442 138.003 L 151.227 142.202 L 151.111 146.401 L 151.104 150.599 L 151.210 154.798 L 151.418 158.997 L 151.711 163.196 L 152.000 166.620 L 152.067 167.395 L 152.461 171.594 L 152.856 175.793 L 153.226 179.992 L 153.551 184.190 L 153.827 188.389 L 154.066 192.588 L 154.294 196.787 L 154.557 200.986 L 154.911 205.185 L 155.426 209.384 L 156.178 213.583 L 156.640 215.400 L 157.273 217.781 L 158.809 221.980 L 160.872 226.179 L 161.280 226.831 L 163.677 230.378 L 165.920 233.017 L 167.381 234.577 L 170.560 237.377 L 172.352 238.776 L 175.200 240.671 L 179.209 242.975 L 179.840 243.293 L 184.480 245.306 L 189.120 246.949 L 189.913 247.174 L 193.760 248.166 L 198.400 249.055 L 203.040 249.638 L 207.680 249.922 L 212.320 249.911 L 216.960 249.606 L 221.600 249.011 L 226.240 248.121 L 229.944 247.174 M 268.445 138.003 L 268.666 142.202 L 268.786 146.401 L 268.794 150.599 L 268.690 154.798 L 268.484 158.997 L 268.192 163.196 M 267.839 167.395 L 267.450 171.594 L 267.061 175.793 L 266.697 179.992 L 266.376 184.190 L 266.102 188.389 L 265.867 192.588 L 265.641 196.787 L 265.383 200.986 L 265.033 205.185 L 264.524 209.384 L 263.778 213.583 M 156.640 74.871 L 156.573 75.020 L 155.123 79.219 L 154.067 83.417 L 153.321 87.616 L 152.804 91.815 L 152.443 96.014 L 152.173 100.213 M 264.874 79.219 L 265.910 83.417 L 266.634 87.616 L 267.127 91.815 L 267.466 96.014 L 267.717 100.213 L 267.935 104.412 L 268.000 105.601 M 152.000 103.327 L 151.941 104.412 L 151.708 108.611 L 151.445 112.810 L 151.140 117.008 L 150.796 121.207 L 150.428 125.406 L 150.058 129.605 L 149.715 133.804 L 149.427 138.003 L 149.217 142.202 L 149.104 146.401 L 149.099 150.599 L 149.201 154.798 L 149.404 158.997 L 149.690 163.196 L 150.035 167.395 L 150.411 171.594 L 150.787 175.793 L 151.139 179.992 L 151.450 184.190 L 151.714 188.389 L 151.942 192.588 L 152.000 193.711 L 152.164 196.787 L 152.419 200.986 L 152.765 205.185 L 153.266 209.384 L 153.999 213.583 L 155.045 217.781 L 156.492 221.980 L 156.640 222.307 L 158.494 226.179 L 161.121 230.378 L 161.280 230.584 L 164.636 234.577 L 165.920 235.830 L 169.269 238.776 L 170.560 239.738 L 175.200 242.790 L 175.521 242.975 L 179.840 245.155 L 184.480 247.115 L 184.646 247.174 L 189.120 248.606 L 193.760 249.775 L 198.400 250.640 L 203.040 251.208 L 205.804 251.372 L 207.680 251.478 L 212.320 251.470 L 213.845 251.372 M 268.419 112.810 L 268.723 117.008 L 269.070 121.207 L 269.443 125.406 L 269.818 129.605 L 270.169 133.804 L 270.464 138.003 L 270.679 142.202 L 270.795 146.401 L 270.803 150.599 L 270.702 154.798 L 270.500 158.997 L 270.217 163.196 L 269.876 167.395 L 269.507 171.594 L 269.137 175.793 L 268.791 179.992 L 268.486 184.190 L 268.227 188.389 L 268.003 192.588 M 267.784 196.787 L 267.533 200.986 L 267.193 205.185 L 266.697 209.384 L 265.969 213.583 L 264.929 217.781 L 263.491 221.980 M 221.600 250.590 L 226.240 249.722 L 230.880 248.560 L 235.264 247.174 M 156.640 70.072 L 156.212 70.821 L 154.326 75.020 L 152.913 79.219 M 152.000 82.944 L 151.888 83.417 L 151.175 87.616 L 150.681 91.815 L 150.337 96.014 L 150.079 100.213 L 149.857 104.412 L 149.630 108.611 L 149.374 112.810 L 149.077 117.008 L 148.742 121.207 L 148.384 125.406 L 148.025 129.605 L 147.692 133.804 L 147.412 138.003 M 268.788 87.616 L 269.258 91.815 L 269.580 96.014 L 269.819 100.213 L 270.026 104.412 L 270.243 108.611 L 270.494 112.810 L 270.789 117.008 L 271.126 121.207 L 271.489 125.406 L 271.855 129.605 L 272.196 133.804 L 272.483 138.003 L 272.640 141.154 M 147.360 139.063 L 147.209 142.202 L 147.101 146.401 L 147.096 150.599 L 147.194 154.798 L 147.360 158.360 L 147.390 158.997 L 147.669 163.196 L 148.005 167.395 L 148.370 171.594 L 148.736 175.793 L 149.079 179.992 L 149.381 184.190 L 149.639 188.389 L 149.861 192.588 L 150.074 196.787 L 150.318 200.986 L 150.647 205.185 L 151.125 209.384 L 151.823 213.583 L 152.000 214.335 L 152.837 217.781 L 154.244 221.980 L 156.133 226.179 L 156.640 227.061 L 158.671 230.378 L 161.280 233.749 L 161.976 234.577 L 165.920 238.426 L 166.318 238.776 L 170.560 241.940 L 172.137 242.975 L 175.200 244.732 L 179.840 247.016 L 180.213 247.174 L 184.480 248.800 L 189.120 250.246 L 193.710 251.372 L 193.760 251.384 L 198.400 252.182 L 203.040 252.705 L 207.680 252.958 L 212.320 252.944 L 216.960 252.667 L 221.600 252.169 L 225.966 251.372 M 272.517 158.997 L 272.242 163.196 L 271.911 167.395 L 271.552 171.594 L 271.194 175.793 L 270.859 179.992 L 270.563 184.190 L 270.313 188.389 L 270.096 192.588 L 269.888 196.787 L 269.649 200.986 L 269.325 205.185 L 268.851 209.384 L 268.157 213.583 M 156.640 66.146 L 156.304 66.622 L 153.913 70.821 L 152.078 75.020 M 152.000 75.256 L 150.730 79.219 L 149.749 83.417 L 149.056 87.616 L 148.575 91.815 L 148.240 96.014 L 147.989 100.213 L 147.772 104.412 L 147.551 108.611 M 270.247 83.417 L 270.916 87.616 L 271.372 91.815 L 271.684 96.014 L 271.915 100.213 L 272.116 104.412 L 272.325 108.611 L 272.568 112.810 L 272.640 113.855 M 147.360 111.830 L 147.303 112.810 L 147.017 117.008 L 146.695 121.207 L 146.351 125.406 L 146.006 129.605 L 145.686 133.804 L 145.417 138.003 L 145.221 142.202 L 145.117 146.401 L 145.112 150.599 L 145.208 154.798 L 145.398 158.997 L 145.667 163.196 L 145.990 167.395 L 146.341 171.594 L 146.693 175.793 L 147.023 179.992 L 147.314 184.190 L 147.360 184.977 L 147.564 188.389 L 147.780 192.588 L 147.987 196.787 L 148.225 200.986 L 148.545 205.185 L 149.010 209.384 L 149.689 213.583 L 150.657 217.781 L 151.996 221.980 M 273.178 121.207 L 273.528 125.406 L 273.881 129.605 L 274.209 133.804 L 274.486 138.003 L 274.688 142.202 L 274.796 146.401 L 274.802 150.599 L 274.706 154.798 L 274.517 158.997 L 274.252 163.196 L 273.933 167.395 L 273.589 171.594 L 273.244 175.793 L 272.923 179.992 L 272.641 184.190 L 268.000 259.060 M 272.398 188.389 L 272.189 192.588 L 271.988 196.787 L 271.756 200.986 L 271.441 205.185 L 270.980 209.384 L 270.304 213.583 L 269.338 217.781 L 268.002 221.980 L 263.360 232.286 M 153.832 226.179 L 156.234 230.378 L 156.640 230.949 L 159.403 234.577 L 161.280 236.588 L 163.514 238.776 L 165.920 240.764 L 168.912 242.975 L 170.560 244.034 L 175.200 246.656 L 176.253 247.174 L 179.840 248.757 L 184.480 250.481 L 187.396 251.372 L 189.120 251.861 L 193.760 252.910 L 198.400 253.685 L 203.040 254.193 L 207.680 254.438 L 212.320 254.424 L 216.960 254.152 L 221.600 253.626 L 226.240 252.843 L 230.880 251.820 L 232.395 251.372 M 152.000 70.108 L 151.622 70.821 L 149.873 75.020 L 148.564 79.219 L 147.611 83.417 M 270.172 75.020 L 271.464 79.219 L 272.395 83.417 L 272.640 84.992 M 147.360 84.973 L 146.941 87.616 L 146.478 91.815 L 146.155 96.014 L 145.913 100.213 L 145.705 104.412 L 145.492 108.611 L 145.253 112.810 L 144.975 117.008 L 144.663 121.207 L 144.329 125.406 L 143.994 129.605 L 143.684 133.804 L 143.423 138.003 L 143.234 142.202 L 143.132 146.401 L 143.128 150.599 L 143.222 154.798 L 143.407 158.997 L 143.668 163.196 L 143.982 167.395 L 144.323 171.594 L 144.666 175.793 L 144.986 179.992 L 145.268 184.190 L 145.508 188.389 L 145.716 192.588 L 145.916 196.787 L 146.144 200.986 L 146.453 205.185 L 146.900 209.384 L 147.360 212.350 L 147.555 213.583 L 148.495 217.781 L 149.795 221.980 L 151.540 226.179 L 152.000 227.045 L 153.863 230.378 L 156.640 234.288 L 156.860 234.577 L 160.757 238.776 L 161.280 239.250 L 165.809 242.975 L 165.920 243.054 L 170.560 246.033 L 172.594 247.174 L 175.200 248.481 L 179.840 250.487 L 182.260 251.372 L 184.480 252.122 L 189.120 253.418 L 193.760 254.437 L 198.400 255.189 L 201.990 255.571 L 203.040 255.678 L 207.680 255.908 L 212.320 255.892 L 216.960 255.637 L 217.562 255.571 M 273.478 91.815 L 273.777 96.014 L 273.999 100.213 L 274.191 104.412 L 274.392 108.611 L 274.626 112.810 L 274.902 117.008 L 275.217 121.207 L 275.557 125.406 L 275.900 129.605 L 276.220 133.804 L 276.488 138.003 L 276.684 142.202 L 276.789 146.401 L 276.794 150.599 L 276.700 154.798 L 276.516 158.997 L 276.258 163.196 L 275.949 167.395 L 275.615 171.594 L 275.281 175.793 L 274.971 179.992 L 274.698 184.190 L 274.466 188.389 L 274.266 192.588 L 274.073 196.787 L 273.850 200.986 L 273.547 205.185 L 273.104 209.384 M 272.451 213.583 L 271.512 217.781 L 270.213 221.980 L 268.470 226.179 M 226.240 254.361 L 230.880 253.344 L 235.520 252.060 L 237.589 251.372 M 152.000 65.980 L 151.581 66.622 L 149.368 70.821 L 147.670 75.020 M 147.360 76.030 L 146.407 79.219 L 145.490 83.417 L 144.842 87.616 L 144.392 91.815 L 144.079 96.014 L 143.844 100.213 L 143.641 104.412 L 143.435 108.611 L 143.203 112.810 L 142.933 117.008 M 274.525 83.417 L 275.148 87.616 L 275.572 91.815 L 275.862 96.014 L 276.076 100.213 L 276.262 104.412 L 276.457 108.611 L 276.683 112.810 L 276.950 117.008 L 277.256 121.207 L 277.280 121.509 M 142.720 119.963 L 142.631 121.207 L 142.307 125.406 L 141.983 129.605 L 141.682 133.804 L 141.430 138.003 L 141.247 142.202 L 141.149 146.401 L 141.145 150.599 L 141.237 154.798 L 141.418 158.997 L 141.671 163.196 L 141.976 167.395 L 142.306 171.594 L 142.638 175.793 L 142.720 176.909 L 142.948 179.992 L 143.222 184.190 L 143.455 188.389 L 143.657 192.588 L 143.851 196.787 L 144.073 200.986 L 144.372 205.185 L 144.807 209.384 L 145.440 213.583 L 146.343 217.781 L 147.360 221.212 L 147.594 221.980 L 149.287 226.179 L 151.502 230.378 L 152.000 231.136 L 154.393 234.577 L 156.640 237.199 L 158.099 238.776 L 161.280 241.660 L 162.879 242.975 L 165.920 245.140 L 169.141 247.174 L 170.560 247.971 L 175.200 250.270 L 177.789 251.372 L 179.840 252.174 L 184.480 253.717 L 189.120 254.975 L 191.897 255.571 L 193.760 255.951 L 198.400 256.657 L 203.040 257.119 L 207.680 257.341 L 212.320 257.325 L 216.960 257.074 L 221.600 256.589 L 226.240 255.880 L 227.706 255.571 M 277.921 129.605 L 278.231 133.804 L 278.492 138.003 L 278.681 142.202 L 278.783 146.401 L 278.787 150.599 L 278.695 154.798 L 278.516 158.997 L 278.265 163.196 L 277.965 167.395 L 277.641 171.594 L 277.318 175.793 M 277.018 179.992 L 276.754 184.190 L 276.531 188.389 L 276.337 192.588 L 276.151 196.787 L 275.936 200.986 L 275.642 205.185 L 275.211 209.384 L 274.579 213.583 L 273.675 217.781 M 156.640 57.109 L 155.521 58.224 L 152.003 62.423 L 149.260 66.622 M 147.360 70.326 L 147.116 70.821 L 145.483 75.020 L 144.261 79.219 L 143.372 83.417 L 142.743 87.616 M 274.584 75.020 L 275.787 79.219 L 276.653 83.417 L 277.256 87.616 L 277.280 87.864 M 142.720 87.836 L 142.307 91.815 L 142.002 96.014 L 141.775 100.213 L 141.579 104.412 L 141.379 108.611 L 141.153 112.810 L 140.893 117.008 L 140.599 121.207 L 140.286 125.406 L 139.972 129.605 L 139.681 133.804 L 139.437 138.003 L 139.260 142.202 L 139.166 146.401 L 139.163 150.599 L 139.253 154.798 L 139.428 158.997 L 139.675 163.196 L 139.970 167.395 L 140.291 171.594 L 140.612 175.793 L 140.912 179.992 L 141.177 184.190 L 141.403 188.389 L 141.598 192.588 L 141.786 196.787 L 142.001 200.986 L 142.292 205.185 L 142.713 209.384 L 142.720 209.431 L 143.327 213.583 L 144.203 217.781 L 145.413 221.980 L 147.037 226.179 L 147.360 226.834 L 149.181 230.378 L 151.934 234.577 L 152.000 234.660 L 155.480 238.776 L 156.640 239.921 L 160.008 242.975 L 161.280 243.968 L 165.842 247.174 L 165.920 247.222 L 170.560 249.829 L 173.734 251.372 L 175.200 252.024 L 179.840 253.817 L 184.480 255.313 L 185.445 255.571 L 189.120 256.502 L 193.760 257.429 L 198.400 258.113 L 203.040 258.560 L 207.680 258.774 L 212.320 258.757 L 216.960 258.512 L 221.600 258.041 L 226.240 257.342 L 230.880 256.438 L 234.226 255.571 M 277.946 96.014 L 278.153 100.213 L 278.333 104.412 L 278.522 108.611 L 278.741 112.810 L 279.001 117.008 L 279.298 121.207 L 279.619 125.406 L 279.943 129.605 L 280.244 133.804 L 280.497 138.003 L 280.680 142.202 L 280.777 146.401 L 280.781 150.599 L 280.691 154.798 L 280.516 158.997 L 280.272 163.196 L 279.981 167.395 L 279.668 171.594 L 279.355 175.793 L 279.065 179.992 L 278.810 184.190 L 278.595 188.389 L 278.409 192.588 L 278.229 196.787 L 278.021 200.986 L 277.736 205.185 L 277.318 209.384 M 276.705 213.583 L 275.828 217.781 L 274.614 221.980 L 272.987 226.179 M 147.360 65.937 L 146.943 66.622 L 144.881 70.821 L 143.299 75.020 M 142.720 77.055 L 142.115 79.219 L 141.253 83.417 L 140.643 87.616 L 140.221 91.815 L 139.926 96.014 L 139.706 100.213 L 139.516 104.412 L 139.323 108.611 L 139.104 112.810 L 138.852 117.008 L 138.568 121.207 L 138.265 125.406 M 278.780 83.417 L 279.363 87.616 L 279.759 91.815 L 280.030 96.014 L 280.230 100.213 L 280.405 104.412 L 280.587 108.611 L 280.800 112.810 L 281.052 117.008 L 281.340 121.207 L 281.651 125.406 L 281.920 129.000 M 138.080 127.957 L 137.960 129.605 L 137.676 133.804 L 137.438 138.003 L 137.266 142.202 L 137.175 146.401 L 137.173 150.599 L 137.262 154.798 L 137.434 158.997 L 137.675 163.196 L 137.964 167.395 L 138.080 168.954 L 138.276 171.594 L 138.587 175.793 L 138.877 179.992 L 139.133 184.190 L 139.351 188.389 L 139.540 192.588 L 139.721 196.787 L 139.930 200.986 L 140.212 205.185 L 140.620 209.384 L 141.215 213.583 L 142.063 217.781 L 142.720 220.156 L 143.234 221.980 L 144.807 226.179 L 146.864 230.378 L 147.360 231.191 L 149.525 234.577 L 152.000 237.702 L 152.908 238.776 L 156.640 242.460 L 157.208 242.975 L 161.280 246.155 L 162.729 247.174 L 165.920 249.161 L 169.960 251.372 L 170.560 251.671 L 175.200 253.723 L 179.840 255.460 L 180.188 255.571 L 184.480 256.866 L 189.120 258.010 L 193.760 258.907 L 198.400 259.569 L 200.549 259.770 L 203.040 259.998 L 207.680 260.201 L 212.320 260.184 L 216.960 259.950 L 218.794 259.770 M 282.260 133.804 L 282.507 138.003 L 282.686 142.202 L 282.780 146.401 L 282.783 150.599 L 282.694 154.798 L 282.522 158.997 L 282.283 163.196 L 281.999 167.395 M 281.694 171.594 L 281.392 175.793 L 281.112 179.992 L 280.866 184.190 L 280.658 188.389 L 280.479 192.588 L 280.306 196.787 L 280.104 200.986 L 279.828 205.185 L 279.424 209.384 L 278.830 213.583 L 277.980 217.781 M 226.240 258.813 L 230.880 257.910 L 235.520 256.774 L 239.565 255.571 M 142.720 70.661 L 142.646 70.821 L 141.113 75.020 L 139.967 79.219 L 139.133 83.417 L 138.543 87.616 L 138.135 91.815 M 278.972 75.020 L 280.097 79.219 L 280.906 83.417 L 281.470 87.616 L 281.853 91.815 L 281.920 92.890 M 138.080 92.624 L 137.848 96.014 L 137.633 100.213 L 137.448 104.412 L 137.259 108.611 L 137.046 112.810 L 136.800 117.008 L 136.523 121.207 L 136.227 125.406 L 135.931 129.605 L 135.657 133.804 L 135.428 138.003 L 135.262 142.202 L 135.175 146.401 L 135.174 150.599 L 135.260 154.798 L 135.428 158.997 L 135.661 163.196 L 135.941 167.395 L 136.245 171.594 L 136.548 175.793 L 136.831 179.992 L 137.080 184.190 L 137.292 188.389 L 137.476 192.588 L 137.653 196.787 L 137.857 200.986 L 138.080 204.390 L 138.132 205.185 L 138.527 209.384 L 139.102 213.583 L 139.923 217.781 L 141.056 221.980 L 142.576 226.179 L 142.720 226.491 L 144.567 230.378 L 147.119 234.577 L 147.360 234.904 L 150.371 238.776 L 152.000 240.515 L 154.479 242.975 L 156.640 244.811 L 159.690 247.174 L 161.280 248.260 L 165.920 251.099 L 166.419 251.372 L 170.560 253.435 L 175.200 255.421 L 175.602 255.571 L 179.840 257.054 L 184.480 258.412 L 189.120 259.518 L 190.451 259.770 L 193.760 260.377 L 198.400 261.009 L 203.040 261.420 L 207.680 261.616 L 212.320 261.598 L 216.960 261.369 L 221.600 260.929 L 226.240 260.285 L 228.990 259.770 M 282.311 100.213 L 282.481 104.412 L 282.660 108.611 L 282.868 112.810 L 283.115 117.008 L 283.397 121.207 L 283.702 125.406 L 284.008 129.605 L 284.293 133.804 L 284.532 138.003 L 284.704 142.202 L 284.795 146.401 L 284.797 150.599 L 284.710 154.798 L 284.542 158.997 L 284.310 163.196 L 284.034 167.395 L 283.737 171.594 L 283.443 175.793 L 283.170 179.992 L 282.931 184.190 L 282.729 188.389 L 282.555 192.588 L 282.386 196.787 L 282.190 200.986 L 281.921 205.185 M 281.530 209.384 L 280.954 213.583 L 280.130 217.781 L 278.991 221.980 L 277.463 226.179 M 142.720 65.957 L 142.341 66.622 L 140.408 70.821 L 138.927 75.020 M 138.080 78.217 L 137.817 79.219 L 137.003 83.417 L 136.428 87.616 L 136.030 91.815 L 135.752 96.014 L 135.545 100.213 L 135.366 104.412 L 135.184 108.611 L 134.978 112.810 L 134.740 117.008 L 134.473 121.207 L 134.187 125.406 L 133.902 129.605 L 133.638 133.804 M 283.042 83.417 L 283.591 87.616 L 283.964 91.815 L 284.219 96.014 L 284.408 100.213 L 284.573 104.412 L 284.746 108.611 L 284.948 112.810 L 285.187 117.008 L 285.460 121.207 L 285.755 125.406 L 286.051 129.605 L 286.326 133.804 L 286.557 138.003 M 133.440 137.566 L 133.417 138.003 L 133.254 142.202 L 133.169 146.401 L 133.169 150.599 L 133.256 154.798 L 133.421 158.997 L 133.440 159.345 L 133.648 163.196 L 133.919 167.395 L 134.212 171.594 L 134.505 175.793 L 134.777 179.992 L 135.018 184.190 L 135.222 188.389 L 135.399 192.588 L 135.570 196.787 L 135.767 200.986 L 136.033 205.185 L 136.418 209.384 L 136.980 213.583 L 137.780 217.781 L 138.080 218.936 L 138.878 221.980 L 140.347 226.179 L 142.269 230.378 L 142.720 231.169 L 144.735 234.577 L 147.360 238.142 L 147.853 238.776 L 151.774 242.975 L 152.000 243.182 L 156.640 247.115 L 156.715 247.174 L 161.280 250.292 L 163.054 251.372 L 165.920 252.954 L 170.560 255.200 L 171.431 255.571 L 175.200 257.071 L 179.840 258.646 L 183.800 259.770 L 184.480 259.955 L 189.120 261.010 L 193.760 261.837 L 198.400 262.446 L 203.040 262.843 L 207.680 263.031 L 212.320 263.013 L 216.960 262.790 L 221.600 262.363 L 226.240 261.733 L 230.880 260.896 L 235.520 259.844 L 235.794 259.770 M 286.814 146.401 L 286.815 150.599 L 286.728 154.798 L 286.563 158.997 L 281.920 240.161 M 286.338 163.196 L 286.070 167.395 L 285.783 171.594 L 285.498 175.793 L 285.234 179.992 L 285.004 184.190 L 284.810 188.389 L 284.642 192.588 L 284.480 196.787 L 284.291 200.986 L 284.031 205.185 L 283.649 209.384 L 283.088 213.583 L 282.284 217.781 M 142.720 61.989 L 142.422 62.423 L 140.036 66.622 L 138.171 70.821 M 138.080 71.082 L 136.727 75.020 L 135.647 79.219 L 134.862 83.417 L 134.308 87.616 L 133.924 91.815 L 133.656 96.014 L 133.456 100.213 M 283.369 75.020 L 284.426 79.219 L 285.187 83.417 L 285.716 87.616 L 286.076 91.815 L 286.323 96.014 L 286.505 100.213 L 286.560 101.666 M 133.440 100.613 L 133.281 104.412 L 133.102 108.611 L 132.900 112.810 L 132.667 117.008 L 132.404 121.207 L 132.124 125.406 L 131.844 129.605 L 131.586 133.804 L 131.369 138.003 L 131.214 142.202 L 131.132 146.401 L 131.134 150.599 L 131.218 154.798 L 131.378 158.997 L 131.602 163.196 L 131.868 167.395 L 132.156 171.594 L 132.444 175.793 L 132.711 179.992 L 132.946 184.190 L 133.146 188.389 L 133.320 192.588 L 133.440 195.601 L 133.487 196.787 L 133.677 200.986 L 133.933 205.185 L 134.305 209.384 L 134.848 213.583 L 135.620 217.781 L 136.687 221.980 L 138.080 226.071 L 138.117 226.179 L 139.973 230.378 L 142.352 234.577 L 142.720 235.111 L 145.357 238.776 L 147.360 241.076 L 149.121 242.975 L 152.000 245.621 L 153.834 247.174 L 156.640 249.259 L 159.788 251.372 L 161.280 252.276 L 165.920 254.795 L 167.536 255.571 L 170.560 256.921 L 175.200 258.717 L 178.382 259.770 L 179.840 260.231 L 184.480 261.481 L 189.120 262.498 L 193.760 263.296 L 198.400 263.883 L 199.439 263.969 L 203.040 264.267 L 207.680 264.449 L 212.320 264.430 L 216.960 264.210 L 219.681 263.969 M 286.836 108.611 L 287.036 112.810 L 287.271 117.008 L 287.540 121.207 L 287.831 125.406 L 288.122 129.605 L 288.392 133.804 L 288.619 138.003 L 288.781 142.202 L 288.866 146.401 L 288.866 150.599 L 288.781 154.798 L 288.620 158.997 L 288.398 163.196 L 288.134 167.395 L 287.851 171.594 L 287.571 175.793 L 287.312 179.992 L 287.087 184.190 L 286.896 188.389 L 286.732 192.588 L 286.574 196.787 M 286.391 200.986 L 286.140 205.185 L 285.772 209.384 L 285.229 213.583 L 284.453 217.781 L 283.378 221.980 L 281.936 226.179 M 138.080 65.968 L 137.729 66.622 L 135.911 70.821 L 134.519 75.020 L 133.478 79.219 M 133.440 79.427 L 132.708 83.417 L 132.164 87.616 L 131.788 91.815 L 131.526 96.014 L 131.330 100.213 L 131.161 104.412 L 130.988 108.611 L 130.794 112.810 L 130.569 117.008 L 130.316 121.207 L 130.047 125.406 L 129.778 129.605 L 129.529 133.804 L 129.322 138.003 L 129.173 142.202 L 129.096 146.401 L 129.098 150.599 L 129.180 154.798 L 129.336 158.997 L 129.552 163.196 L 129.809 167.395 L 130.087 171.594 L 130.363 175.793 L 130.621 179.992 L 130.847 184.190 L 131.039 188.389 L 131.205 192.588 L 131.366 196.787 L 131.553 200.986 L 131.804 205.185 L 132.170 209.384 L 132.702 213.583 L 133.440 217.670 L 133.460 217.781 L 134.488 221.980 L 135.868 226.179 L 137.673 230.378 L 138.080 231.139 L 139.970 234.577 L 142.720 238.574 L 142.865 238.776 L 146.477 242.975 L 147.360 243.847 L 150.976 247.174 L 152.000 247.996 L 156.602 251.372 L 156.640 251.398 L 161.280 254.205 L 163.835 255.571 L 165.920 256.602 L 170.560 258.630 L 173.573 259.770 L 175.200 260.355 L 179.840 261.802 L 184.480 263.007 L 189.033 263.969 L 189.120 263.987 L 193.760 264.759 L 198.400 265.327 L 203.040 265.697 L 207.680 265.872 L 212.320 265.853 L 216.960 265.642 L 221.600 265.240 L 226.240 264.642 L 230.245 263.969 M 287.344 83.417 L 287.863 87.616 L 288.216 91.815 L 288.459 96.014 L 288.638 100.213 L 288.795 104.412 L 288.961 108.611 L 289.153 112.810 L 289.381 117.008 L 289.641 121.207 L 289.921 125.406 L 290.202 129.605 L 290.463 133.804 L 290.681 138.003 L 290.837 142.202 L 290.918 146.401 L 290.916 150.599 L 290.833 154.798 L 290.677 158.997 L 290.462 163.196 L 290.207 167.395 L 289.933 171.594 L 289.663 175.793 L 289.413 179.992 L 289.196 184.190 L 289.012 188.389 L 288.855 192.588 L 288.702 196.787 L 288.524 200.986 L 288.278 205.185 L 287.917 209.384 L 287.384 213.583 L 286.622 217.781 M 138.080 61.742 L 137.639 62.423 L 135.401 66.622 L 133.651 70.821 M 133.440 71.468 L 132.289 75.020 L 131.269 79.219 L 130.528 83.417 L 130.005 87.616 L 129.643 91.815 L 129.391 96.014 L 129.203 100.213 L 129.040 104.412 L 128.875 108.611 M 288.807 79.219 L 289.525 83.417 L 290.025 87.616 L 290.365 91.815 L 290.599 96.014 L 290.772 100.213 L 290.924 104.412 L 291.085 108.611 L 291.200 111.205 M 128.800 110.282 L 128.685 112.810 L 128.462 117.008 L 128.213 121.207 L 127.947 125.406 L 127.682 129.605 L 127.437 133.804 L 127.233 138.003 L 127.086 142.202 L 127.012 146.401 L 127.015 150.599 L 127.098 154.798 L 127.253 158.997 L 127.467 163.196 L 127.722 167.395 L 127.996 171.594 L 128.269 175.793 L 128.523 179.992 L 128.746 184.190 L 128.800 185.402 L 128.931 188.389 L 129.091 192.588 L 129.245 196.787 L 129.424 200.986 L 129.666 205.185 L 130.018 209.384 L 130.531 213.583 L 131.261 217.781 L 132.269 221.980 L 133.440 225.626 L 133.618 226.179 L 135.356 230.378 L 137.584 234.577 L 138.080 235.345 L 140.375 238.776 L 142.720 241.656 L 143.851 242.975 L 147.360 246.440 L 148.157 247.174 L 152.000 250.260 L 153.516 251.372 L 156.640 253.429 L 160.275 255.571 L 161.280 256.116 L 165.920 258.386 L 169.167 259.770 L 170.560 260.332 L 175.200 261.980 L 179.840 263.373 L 182.190 263.969 L 184.480 264.536 L 189.120 265.484 L 193.760 266.226 L 198.400 266.772 L 203.040 267.128 L 207.680 267.295 L 212.320 267.276 L 216.960 267.071 L 221.600 266.683 L 226.240 266.111 L 230.880 265.352 L 235.520 264.397 L 237.282 263.969 M 291.499 117.008 L 291.757 121.207 L 292.033 125.406 L 292.311 129.605 L 292.568 133.804 L 292.783 138.003 L 292.937 142.202 L 293.016 146.401 L 293.014 150.599 L 292.931 154.798 L 292.775 158.997 L 292.561 163.196 L 292.308 167.395 L 292.037 171.594 L 291.770 175.793 L 291.523 179.992 L 291.308 184.190 M 291.129 188.389 L 290.977 192.588 L 290.830 196.787 L 290.659 200.986 L 290.422 205.185 L 290.074 209.384 L 289.561 213.583 L 288.826 217.781 L 287.808 221.980 M 133.440 65.883 L 133.065 66.622 L 131.351 70.821 L 130.039 75.020 L 129.059 79.219 M 288.764 70.821 L 290.057 75.020 L 291.015 79.219 L 291.200 80.333 M 128.800 80.735 L 128.335 83.417 L 127.820 87.616 L 127.463 91.815 L 127.214 96.014 L 127.029 100.213 L 126.868 104.412 L 126.705 108.611 L 126.521 112.810 L 126.308 117.008 L 126.068 121.207 L 125.813 125.406 L 125.559 129.605 L 125.324 133.804 L 125.129 138.003 L 124.990 142.202 L 124.920 146.401 L 124.924 150.599 L 125.005 154.798 L 125.155 158.997 L 125.361 163.196 L 125.607 167.395 L 125.870 171.594 L 126.133 175.793 L 126.376 179.992 L 126.589 184.190 L 126.770 188.389 L 126.927 192.588 L 127.079 196.787 L 127.255 200.986 L 127.494 205.185 L 127.841 209.384 L 128.347 213.583 L 128.800 216.232 L 129.061 217.781 L 130.031 221.980 L 131.331 226.179 L 133.032 230.378 L 133.440 231.187 L 135.181 234.577 L 137.884 238.776 L 138.080 239.032 L 141.227 242.975 L 142.720 244.552 L 145.359 247.174 L 147.360 248.900 L 150.463 251.372 L 152.000 252.465 L 156.640 255.460 L 156.829 255.571 L 161.280 257.985 L 165.040 259.770 L 165.920 260.164 L 170.560 262.020 L 175.200 263.605 L 176.431 263.969 L 179.840 264.950 L 184.480 266.070 L 189.120 266.980 L 193.760 267.693 L 197.956 268.168 L 198.400 268.219 L 203.040 268.567 L 207.680 268.732 L 212.320 268.712 L 216.960 268.501 L 221.094 268.168 M 292.211 87.616 L 292.548 91.815 L 292.779 96.014 L 292.951 100.213 L 293.103 104.412 L 293.262 108.611 L 293.447 112.810 L 293.665 117.008 L 293.913 121.207 L 294.179 125.406 L 294.446 129.605 L 294.693 133.804 L 294.899 138.003 L 295.046 142.202 L 295.122 146.401 L 295.119 150.599 L 295.038 154.798 L 294.887 158.997 L 294.681 163.196 L 294.436 167.395 L 294.175 171.594 L 293.916 175.793 L 293.678 179.992 L 293.471 184.190 L 293.297 188.389 L 293.147 192.588 L 293.003 196.787 L 292.834 200.986 L 292.601 205.185 L 292.258 209.384 L 291.752 213.583 M 291.031 217.781 L 290.050 221.980 L 288.736 226.179 L 287.021 230.378 M 263.360 255.513 L 258.720 258.081 L 254.080 260.140 L 254.915 259.770 M 133.440 61.376 L 132.800 62.423 L 130.693 66.622 L 129.048 70.821 M 128.800 71.632 L 127.762 75.020 L 126.796 79.219 L 126.096 83.417 L 125.602 87.616 L 125.260 91.815 L 125.021 96.014 L 124.844 100.213 L 124.690 104.412 L 124.534 108.611 L 124.357 112.810 M 293.274 79.219 L 293.954 83.417 L 294.428 87.616 L 294.752 91.815 L 294.975 96.014 L 295.141 100.213 L 295.288 104.412 L 295.442 108.611 L 295.620 112.810 L 295.830 117.008 L 295.840 117.180 M 124.160 116.854 L 124.152 117.008 L 123.915 121.207 L 123.662 125.406 L 123.410 129.605 L 123.178 133.804 L 122.985 138.003 L 122.848 142.202 L 122.780 146.401 L 122.786 150.599 L 122.868 154.798 L 123.018 158.997 L 123.224 163.196 L 123.468 167.395 L 123.730 171.594 L 123.990 175.793 L 124.160 178.751 L 124.229 179.992 L 124.433 184.190 L 124.605 188.389 L 124.755 192.588 L 124.900 196.787 L 125.069 200.986 L 125.298 205.185 L 125.631 209.384 L 126.117 213.583 L 126.809 217.781 L 127.765 221.980 L 128.800 225.385 L 129.040 226.179 L 130.673 230.378 L 132.766 234.577 L 133.440 235.684 L 135.372 238.776 L 138.080 242.319 L 138.603 242.975 L 142.569 247.174 L 142.720 247.313 L 147.360 251.308 M 296.341 125.406 L 296.606 129.605 L 296.851 133.804 L 297.055 138.003 L 297.201 142.202 L 297.275 146.401 L 297.271 150.599 L 297.190 154.798 L 297.039 158.997 L 296.833 163.196 L 296.589 167.395 L 296.328 171.594 L 296.071 175.793 M 295.834 179.992 L 295.635 184.190 L 295.467 188.389 L 295.323 192.588 L 295.185 196.787 L 295.022 200.986 L 294.799 205.185 L 294.469 209.384 L 293.983 213.583 L 293.286 217.781 L 292.320 221.980 M 152.000 254.613 L 153.487 255.571 L 156.640 257.430 L 161.112 259.770 L 161.280 259.853 L 165.920 261.925 L 170.560 263.708 L 171.332 263.969 L 175.200 265.237 L 179.840 266.529 L 184.480 267.604 L 187.450 268.168 L 189.120 268.484 L 193.760 269.184 L 198.400 269.698 L 203.040 270.032 L 207.680 270.189 L 212.320 270.169 L 216.960 269.974 L 221.600 269.605 L 226.240 269.062 L 230.880 268.338 L 231.795 268.168 M 128.800 65.597 L 128.308 66.622 L 126.689 70.821 L 125.451 75.020 L 124.527 79.219 M 293.414 70.821 L 294.633 75.020 L 295.538 79.219 L 295.840 81.154 M 124.160 81.502 L 123.846 83.417 L 123.356 87.616 L 123.018 91.815 L 122.782 96.014 L 122.605 100.213 L 122.453 104.412 L 122.298 108.611 L 122.123 112.810 L 121.921 117.008 L 121.693 121.207 L 121.452 125.406 L 121.211 129.605 L 120.990 133.804 L 120.806 138.003 L 120.677 142.202 L 120.613 146.401 L 120.620 150.599 L 120.700 154.798 L 120.845 158.997 L 121.043 163.196 L 121.277 167.395 L 121.528 171.594 L 121.777 175.793 L 122.008 179.992 L 122.209 184.190 L 122.380 188.389 L 122.528 192.588 L 122.671 196.787 L 122.838 200.986 L 123.065 205.185 L 123.395 209.384 L 123.877 213.583 L 124.160 215.325 L 124.550 217.781 L 125.466 221.980 L 126.695 226.179 L 128.301 230.378 L 128.800 231.424 L 130.320 234.577 L 132.850 238.776 L 133.440 239.595 L 135.961 242.975 L 138.080 245.359 L 139.779 247.174 L 142.720 249.886 L 144.449 251.372 L 147.360 253.595 L 150.189 255.571 L 152.000 256.725 L 156.640 259.398 L 157.352 259.770 L 161.280 261.698 L 165.920 263.686 L 166.662 263.969 L 170.560 265.403 L 175.200 266.870 L 179.840 268.109 L 180.099 268.168 L 184.480 269.161 L 189.120 270.016 L 193.760 270.685 L 198.400 271.177 L 203.040 271.496 L 207.680 271.646 L 212.320 271.627 L 216.960 271.439 L 221.600 271.084 L 226.240 270.563 L 230.880 269.873 L 235.520 269.008 L 239.258 268.168 M 296.672 87.616 L 296.994 91.815 L 297.216 96.014 L 297.382 100.213 L 297.529 104.412 L 297.682 108.611 L 297.860 112.810 L 298.069 117.008 L 298.306 121.207 L 298.559 125.406 L 298.813 129.605 L 299.048 133.804 L 299.243 138.003 L 299.382 142.202 L 299.452 146.401 L 299.448 150.599 L 299.370 154.798 L 299.224 158.997 L 299.026 163.196 L 298.791 167.395 L 298.539 171.594 L 298.291 175.793 L 298.063 179.992 L 297.865 184.190 L 297.698 188.389 L 297.555 192.588 L 297.417 196.787 L 297.256 200.986 L 297.035 205.185 L 296.709 209.384 L 296.227 213.583 M 295.545 217.781 L 294.618 221.980 L 293.375 226.179 L 291.752 230.378 M 128.800 60.792 L 127.854 62.423 L 125.871 66.622 L 124.323 70.821 M 124.160 71.388 L 123.104 75.020 L 122.190 79.219 L 121.528 83.417 L 121.060 87.616 L 120.737 91.815 L 120.511 96.014 L 120.343 100.213 L 120.198 104.412 L 120.050 108.611 L 119.882 112.810 L 119.689 117.008 M 297.867 79.219 L 298.512 83.417 L 298.964 87.616 L 299.273 91.815 L 299.487 96.014 L 299.647 100.213 L 299.788 104.412 L 299.936 108.611 L 300.107 112.810 L 300.308 117.008 L 300.480 120.191 M 119.520 120.277 L 119.470 121.207 L 119.229 125.406 L 118.990 129.605 L 118.770 133.804 L 118.589 138.003 L 118.461 142.202 L 118.399 146.401 L 118.408 150.599 L 118.489 154.798 L 118.635 158.997 L 118.833 163.196 L 119.067 167.395 L 119.318 171.594 L 119.520 175.011 L 119.564 175.793 L 119.784 179.992 L 119.976 184.190 L 120.138 188.389 L 120.279 192.588 L 120.415 196.787 L 120.575 200.986 L 120.792 205.185 L 121.107 209.384 L 121.568 213.583 L 122.225 217.781 L 123.132 221.980 L 124.160 225.541 L 124.342 226.179 L 125.879 230.378 L 127.848 234.577 L 128.800 236.229 L 130.293 238.776 L 133.311 242.975 L 133.440 243.128 L 136.981 247.174 L 138.080 248.253 L 141.457 251.372 L 142.720 252.402 L 146.924 255.571 L 147.360 255.869 L 152.000 258.805 L 153.688 259.770 L 156.640 261.345 L 161.280 263.543 L 162.281 263.969 L 165.920 265.455 L 170.560 267.100 L 174.056 268.168 L 175.200 268.512 L 179.840 269.724 L 184.480 270.731 L 189.120 271.548 L 193.760 272.187 L 195.524 272.367 L 198.400 272.668 L 203.040 272.985 L 207.680 273.134 L 212.320 273.114 L 216.960 272.926 L 221.600 272.563 L 223.444 272.367 M 300.790 125.406 L 301.043 129.605 L 301.276 133.804 L 301.470 138.003 L 301.608 142.202 L 301.678 146.401 L 301.673 150.599 L 301.594 154.798 L 301.449 158.997 L 301.249 163.196 L 301.014 167.395 L 300.762 171.594 L 300.513 175.793 M 300.292 179.992 L 300.102 184.190 L 299.941 188.389 L 299.804 192.588 L 299.672 196.787 L 299.517 200.986 L 299.306 205.185 L 298.993 209.384 L 298.532 213.583 L 297.870 217.781 L 296.952 221.980 M 124.160 64.975 L 123.409 66.622 L 121.880 70.821 L 120.712 75.020 L 119.841 79.219 M 298.199 70.821 L 299.351 75.020 L 300.206 79.219 L 300.480 81.068 M 119.520 81.339 L 119.196 83.417 L 118.731 87.616 L 118.410 91.815 L 118.186 96.014 L 118.019 100.213 L 117.875 104.412 L 117.727 108.611 L 117.561 112.810 L 117.368 117.008 L 117.152 121.207 L 116.923 125.406 L 116.695 129.605 L 116.487 133.804 L 116.315 138.003 L 116.194 142.202 L 116.136 146.401 L 116.147 150.599 L 116.226 154.798 L 116.366 158.997 L 116.556 163.196 L 116.780 167.395 L 117.019 171.594 L 117.256 175.793 L 117.475 179.992 L 117.665 184.190 L 117.826 188.389 L 117.965 192.588 L 118.101 196.787 L 118.259 200.986 L 118.475 205.185 L 118.789 209.384 L 119.248 213.583 L 119.520 215.344 L 119.886 217.781 L 120.752 221.980 L 121.913 226.179 L 123.432 230.378 L 124.160 231.985 L 125.336 234.577 L 127.708 238.776 L 128.800 240.378 L 130.617 242.975 L 133.440 246.344 L 134.166 247.174 L 138.080 251.016 L 138.466 251.372 L 142.720 254.843 L 143.686 255.571 L 147.360 258.081 L 150.085 259.770 L 152.000 260.872 L 156.640 263.287 L 158.093 263.969 L 161.280 265.397 L 165.920 267.225 L 168.654 268.168 L 170.560 268.812 L 175.200 270.183 L 179.840 271.340 L 184.480 272.300 L 184.867 272.367 L 189.120 273.108 L 193.760 273.743 L 198.400 274.208 L 203.040 274.510 L 207.680 274.652 L 212.320 274.632 L 216.960 274.452 L 221.600 274.114 L 226.240 273.616 L 230.880 272.934 L 234.234 272.367 M 301.288 87.616 L 301.597 91.815 L 301.811 96.014 L 301.971 100.213 L 302.113 104.412 L 302.261 108.611 L 302.432 112.810 L 302.632 117.008 L 302.858 121.207 L 303.100 125.406 L 303.341 129.605 L 303.563 133.804 L 303.748 138.003 L 303.880 142.202 L 303.946 146.401 L 303.942 150.599 L 303.866 154.798 L 303.726 158.997 L 303.535 163.196 L 303.309 167.395 L 303.067 171.594 L 302.828 175.793 L 302.608 179.992 L 302.417 184.190 L 302.256 188.389 L 302.118 192.588 L 301.986 196.787 L 301.833 200.986 L 301.622 205.185 L 301.311 209.384 L 300.852 213.583 M 300.205 217.781 L 299.328 221.980 L 298.152 226.179 L 296.617 230.378 M 119.520 70.559 L 119.428 70.821 L 118.269 75.020 L 117.405 79.219 L 116.779 83.417 L 116.337 87.616 L 116.031 91.815 L 115.818 96.014 L 115.659 100.213 L 115.522 104.412 L 115.382 108.611 L 115.223 112.810 L 115.040 117.008 M 301.782 75.020 L 302.632 79.219 L 303.246 83.417 L 303.675 87.616 L 303.971 91.815 L 304.176 96.014 L 304.330 100.213 L 304.466 104.412 L 304.608 108.611 L 304.772 112.810 L 304.963 117.008 L 305.120 120.059 M 114.880 120.281 L 114.833 121.207 L 114.604 125.406 L 114.376 129.605 L 114.169 133.804 L 113.998 138.003 L 113.879 142.202 L 113.822 146.401 L 113.835 150.599 L 113.915 154.798 L 114.057 158.997 L 114.248 163.196 L 114.473 167.395 L 114.713 171.594 L 114.880 174.567 L 114.946 175.793 L 115.154 179.992 L 115.334 184.190 L 115.487 188.389 L 115.619 192.588 L 115.747 196.787 L 115.897 200.986 L 116.102 205.185 L 116.401 209.384 L 116.838 213.583 L 117.461 217.781 L 118.322 221.980 L 119.476 226.179 L 119.520 226.305 L 120.924 230.378 L 122.777 234.577 L 124.160 237.105 L 125.083 238.776 L 127.898 242.975 L 128.800 244.112 L 131.314 247.174 L 133.440 249.387 L 135.450 251.372 L 138.080 253.655 L 140.448 255.571 L 142.720 257.229 L 146.523 259.770 L 147.360 260.287 L 152.000 262.927 L 154.035 263.969 L 156.640 265.237 L 161.280 267.252 L 163.662 268.168 L 165.920 269.015 L 170.560 270.549 L 175.200 271.855 L 177.317 272.367 L 179.840 272.980 L 184.480 273.931 L 189.120 274.703 L 193.760 275.306 L 198.400 275.748 L 203.040 276.035 L 207.680 276.169 L 212.320 276.150 L 216.960 275.979 L 221.600 275.656 L 226.240 275.182 L 230.880 274.555 L 235.520 273.770 L 240.160 272.800 L 242.052 272.367 M 305.423 125.406 L 305.664 129.605 L 305.886 133.804 L 306.071 138.003 L 306.202 142.202 L 306.268 146.401 L 306.264 150.599 L 306.188 154.798 L 306.048 158.997 L 305.856 163.196 L 305.628 167.395 L 305.385 171.594 L 305.144 175.793 M 304.932 179.992 L 304.748 184.190 L 304.593 188.389 L 304.461 192.588 L 304.334 196.787 L 304.188 200.986 L 303.987 205.185 L 303.690 209.384 L 303.253 213.583 L 302.626 217.781 L 301.755 221.980 L 300.587 226.179 M 281.920 253.727 L 277.280 257.377 L 272.640 260.387 L 273.625 259.770 M 119.520 63.849 L 118.315 66.622 L 116.875 70.821 L 115.775 75.020 L 114.956 79.219 M 303.173 70.821 L 304.260 75.020 L 305.069 79.219 L 305.120 79.581 M 114.880 79.747 L 114.335 83.417 L 113.895 87.616 L 113.591 91.815 L 113.379 96.014 L 113.220 100.213 L 113.083 104.412 L 112.944 108.611 L 112.785 112.810 L 112.603 117.008 L 112.398 121.207 L 112.181 125.406 L 111.965 129.605 L 111.768 133.804 L 111.607 138.003 L 111.495 142.202 L 111.444 146.401 L 111.457 150.599 L 111.535 154.798 L 111.671 158.997 L 111.853 163.196 L 112.067 167.395 L 112.295 171.594 L 112.520 175.793 L 112.727 179.992 L 112.907 184.190 L 113.059 188.389 L 113.190 192.588 L 113.318 196.787 L 113.467 200.986 L 113.672 205.185 L 113.970 209.384 L 114.406 213.583 L 114.880 216.792 L 115.021 217.781 L 115.838 221.980 L 116.935 226.179 L 118.368 230.378 L 119.520 233.046 L 120.177 234.577 L 122.397 238.776 L 124.160 241.500 L 125.131 242.975 L 128.439 247.174 L 128.800 247.571 L 132.411 251.372 L 133.440 252.319 L 137.200 255.571 L 138.080 256.254 L 142.720 259.593 L 142.986 259.770 L 147.360 262.471 L 150.059 263.969 L 152.000 264.988 L 156.640 267.191 L 158.945 268.168 L 161.280 269.130 L 165.920 270.827 L 170.560 272.285 L 170.855 272.367 L 175.200 273.574 L 179.840 274.662 L 184.480 275.565 L 189.120 276.297 L 191.276 276.566 L 193.760 276.887 L 198.400 277.331 L 203.040 277.619 L 207.680 277.753 L 212.320 277.734 L 216.960 277.561 L 221.600 277.235 L 226.240 276.747 L 227.669 276.566 M 306.110 87.616 L 306.405 91.815 L 306.611 96.014 L 306.766 100.213 L 306.902 104.412 L 307.045 108.611 L 307.208 112.810 L 307.399 117.008 L 307.614 121.207 L 307.844 125.406 L 308.074 129.605 L 308.285 133.804 L 308.460 138.003 L 308.585 142.202 L 308.648 146.401 L 308.644 150.599 L 308.572 154.798 L 308.439 158.997 L 308.256 163.196 L 308.038 167.395 L 307.806 171.594 L 307.575 175.793 L 307.363 179.992 L 307.177 184.190 L 307.021 188.389 L 306.888 192.588 L 306.760 196.787 L 306.613 200.986 L 306.412 205.185 L 306.117 209.384 L 305.681 213.583 M 305.058 217.781 L 304.231 221.980 L 303.121 226.179 L 301.671 230.378 M 235.520 275.405 L 240.160 274.502 L 244.800 273.429 L 248.731 272.367 M 114.880 69.072 L 114.294 70.821 L 113.202 75.020 L 112.387 79.219 L 111.797 83.417 L 111.381 87.616 L 111.093 91.815 L 110.892 96.014 L 110.742 100.213 L 110.612 104.412 L 110.480 108.611 L 110.330 112.810 M 306.819 75.020 L 307.625 79.219 L 308.207 83.417 L 308.615 87.616 L 308.896 91.815 L 309.092 96.014 L 309.240 100.213 L 309.370 104.412 L 309.506 108.611 L 309.661 112.810 L 309.760 115.090 M 110.240 114.992 L 110.152 117.008 L 109.947 121.207 L 109.730 125.406 L 109.514 129.605 L 109.318 133.804 L 109.157 138.003 L 109.046 142.202 L 108.996 146.401 L 109.011 150.599 L 109.091 154.798 L 109.228 158.997 L 109.412 163.196 L 109.627 167.395 L 109.856 171.594 L 110.082 175.793 L 110.240 178.992 L 110.287 179.992 L 110.457 184.190 L 110.601 188.389 L 110.724 192.588 L 110.844 196.787 L 110.985 200.986 L 111.178 205.185 L 111.461 209.384 L 111.874 213.583 L 112.463 217.781 L 113.277 221.980 L 114.369 226.179 L 114.880 227.711 L 115.752 230.378 L 117.492 234.577 L 119.520 238.470 L 119.679 238.776 L 122.301 242.975 L 124.160 245.445 L 125.497 247.174 L 128.800 250.809 L 129.335 251.372 L 133.440 255.149 L 133.928 255.571 L 138.080 258.793 L 139.444 259.770 L 142.720 261.929 L 146.133 263.969 L 147.360 264.660 L 152.000 267.055 L 154.406 268.168 L 156.640 269.168 L 161.280 271.029 L 165.104 272.367 L 165.920 272.650 L 170.560 274.089 L 175.200 275.313 L 179.840 276.344 L 181.016 276.566 L 184.480 277.236 L 189.120 277.969 L 193.760 278.541 L 198.400 278.961 L 203.040 279.234 L 207.680 279.360 L 212.320 279.342 L 216.960 279.178 L 221.600 278.869 L 226.240 278.416 L 230.880 277.818 L 235.520 277.040 L 238.129 276.566 M 310.063 121.207 L 310.293 125.406 L 310.523 129.605 L 310.734 133.804 L 310.911 138.003 L 311.036 142.202 L 311.100 146.401 L 311.096 150.599 L 311.025 154.798 L 310.891 158.997 L 310.707 163.196 L 310.488 167.395 L 310.253 171.594 L 310.021 175.793 L 309.805 179.992 M 309.625 184.190 L 309.476 188.389 L 309.348 192.588 L 309.225 196.787 L 309.085 200.986 L 308.894 205.185 L 308.614 209.384 L 308.201 213.583 L 307.609 217.781 L 306.787 221.980 L 305.682 226.179 M 281.920 258.882 L 277.280 262.062 L 272.640 264.757 L 274.047 263.969 M 114.880 62.061 L 114.698 62.423 L 112.964 66.622 L 111.614 70.821 L 110.583 75.020 M 307.054 66.622 L 308.396 70.821 L 309.420 75.020 L 309.760 76.873 M 110.240 76.877 L 109.791 79.219 L 109.202 83.417 L 108.788 87.616 L 108.501 91.815 L 108.300 96.014 L 108.151 100.213 L 108.021 104.412 L 107.889 108.611 L 107.739 112.810 L 107.566 117.008 L 107.372 121.207 L 107.167 125.406 L 106.963 129.605 L 106.778 133.804 L 106.627 138.003 L 106.524 142.202 L 106.478 146.401 L 106.493 150.599 L 106.570 154.798 L 106.701 158.997 L 106.875 163.196 L 107.079 167.395 L 107.296 171.594 L 107.510 175.793 L 107.706 179.992 L 107.877 184.190 L 108.020 188.389 L 108.143 192.588 L 108.262 196.787 L 108.403 200.986 L 108.595 205.185 L 108.877 209.384 L 109.289 213.583 L 109.878 217.781 L 110.240 219.667 L 110.667 221.980 L 111.698 226.179 L 113.046 230.378 L 114.774 234.577 L 114.880 234.791 L 116.851 238.776 L 119.434 242.975 L 119.520 243.095 L 122.498 247.174 L 124.160 249.101 L 126.192 251.372 L 128.800 253.909 L 130.604 255.571 L 133.440 257.903 L 135.879 259.770 L 138.080 261.312 L 142.227 263.969 L 142.720 264.265 L 147.360 266.857 L 149.976 268.168 L 152.000 269.145 L 156.640 271.168 L 159.747 272.367 L 161.280 272.951 L 165.920 274.536 L 170.560 275.896 L 173.203 276.566 L 175.200 277.081 L 179.840 278.111 L 184.480 278.965 L 189.120 279.656 L 193.760 280.196 L 198.400 280.591 L 201.518 280.765 L 203.040 280.854 L 207.680 280.983 L 212.320 280.964 L 216.960 280.795 L 217.445 280.765 M 310.789 83.417 L 311.198 87.616 L 311.480 91.815 L 311.676 96.014 L 311.823 100.213 L 311.953 104.412 L 312.089 108.611 L 312.245 112.810 L 312.426 117.008 L 312.631 121.207 L 312.849 125.406 L 313.066 129.605 L 313.267 133.804 L 313.434 138.003 L 313.554 142.202 L 313.615 146.401 L 313.612 150.599 L 313.545 154.798 L 313.419 158.997 L 313.245 163.196 L 313.037 167.395 L 312.814 171.594 L 312.592 175.793 L 312.387 179.992 L 312.208 184.190 L 312.056 188.389 L 311.926 192.588 L 311.802 196.787 L 311.661 200.986 L 311.470 205.185 L 311.190 209.384 L 310.777 213.583 L 310.186 217.781 M 309.387 221.980 L 308.345 226.179 L 306.982 230.378 L 305.238 234.577 M 286.560 257.972 L 281.920 261.430 L 277.280 264.373 L 277.953 263.969 M 226.240 280.075 L 230.880 279.510 L 235.520 278.803 L 240.160 277.947 M 110.240 66.523 L 110.201 66.622 L 108.859 70.821 L 107.835 75.020 L 107.072 79.219 L 106.519 83.417 L 106.129 87.616 L 105.860 91.815 L 105.671 96.014 M 311.131 70.821 L 312.152 75.020 L 312.912 79.219 L 313.461 83.417 L 313.846 87.616 L 314.112 91.815 L 314.297 96.014 L 314.400 99.126 M 105.600 98.140 L 105.526 100.213 L 105.397 104.412 L 105.264 108.611 L 105.114 112.810 L 104.941 117.008 L 104.746 121.207 L 104.540 125.406 L 104.336 129.605 L 104.151 133.804 L 104.000 138.003 L 103.897 142.202 L 103.852 146.401 L 103.868 150.599 L 103.946 154.798 L 104.079 158.997 L 104.255 163.196 L 104.461 167.395 L 104.679 171.594 L 104.894 175.793 L 105.092 179.992 L 105.262 184.190 L 105.406 188.389 L 105.529 192.588 L 105.600 195.092 L 105.645 196.787 L 105.777 200.986 L 105.957 205.185 L 106.222 209.384 L 106.610 213.583 L 107.164 217.781 L 107.930 221.980 L 108.957 226.179 L 110.240 230.196 L 110.296 230.378 L 111.922 234.577 L 113.971 238.776 L 114.880 240.320 L 116.446 242.975 L 119.449 247.174 L 119.520 247.259 L 122.994 251.372 L 124.160 252.567 L 127.230 255.571 L 128.800 256.935 L 132.278 259.770 L 133.440 260.633 L 138.080 263.819 L 138.314 263.969 L 142.720 266.613 L 145.602 268.168 L 147.360 269.076 L 152.000 271.261 L 154.626 272.367 L 156.640 273.201 L 161.280 274.929 L 165.920 276.422 L 166.420 276.566 L 170.560 277.769 L 175.200 278.922 L 179.840 279.891 L 184.480 280.693 L 184.977 280.765 L 189.120 281.387 L 193.760 281.932 L 198.400 282.332 L 203.040 282.591 L 207.680 282.712 L 212.320 282.694 L 216.960 282.537 L 221.600 282.242 L 226.240 281.809 L 230.880 281.202 L 233.958 280.765 M 314.569 104.412 L 314.705 108.611 L 314.861 112.810 L 315.043 117.008 L 315.248 121.207 L 315.467 125.406 L 315.685 129.605 L 315.887 133.804 L 316.056 138.003 L 316.177 142.202 L 316.240 146.401 L 316.238 150.599 L 316.172 154.798 L 316.046 158.997 L 315.871 163.196 L 315.663 167.395 L 315.438 171.594 L 315.214 175.793 L 315.006 179.992 L 314.823 184.190 L 314.669 188.389 L 314.536 192.588 L 314.410 196.787 M 314.275 200.986 L 314.095 205.185 L 313.831 209.384 L 313.444 213.583 L 312.888 217.781 L 312.117 221.980 L 311.080 226.179 M 281.920 263.925 L 277.280 266.714 L 272.640 269.163 L 274.613 268.168 M 110.240 59.623 L 108.898 62.423 L 107.282 66.622 L 106.026 70.821 M 105.600 72.661 L 105.033 75.020 L 104.273 79.219 L 103.723 83.417 L 103.335 87.616 L 103.066 91.815 L 102.879 96.014 L 102.738 100.213 L 102.617 104.412 L 102.493 108.611 L 102.352 112.810 L 102.189 117.008 L 102.006 121.207 L 101.812 125.406 L 101.621 129.605 L 101.447 133.804 L 101.306 138.003 L 101.210 142.202 L 101.168 146.401 L 101.185 150.599 L 101.259 154.798 L 101.385 158.997 L 101.551 163.196 L 101.745 167.395 L 101.951 171.594 L 102.153 175.793 L 102.339 179.992 L 102.499 184.190 L 102.634 188.389 L 102.749 192.588 L 102.861 196.787 L 102.992 200.986 L 103.171 205.185 L 103.435 209.384 L 103.822 213.583 L 104.374 217.781 L 105.139 221.980 L 105.600 223.892 L 106.130 226.179 L 107.389 230.378 L 109.002 234.577 L 110.240 237.178 L 110.991 238.776 L 113.385 242.975 L 114.880 245.160 L 116.273 247.174 L 119.520 251.129 L 119.725 251.372 L 123.795 255.571 L 124.160 255.906 L 128.625 259.770 L 128.800 259.907 L 133.440 263.339 L 134.360 263.969 L 138.080 266.341 L 141.243 268.168 L 142.720 268.981 L 147.360 271.327 L 149.642 272.367 L 152.000 273.419 L 156.640 275.284 L 160.266 276.566 L 161.280 276.926 L 165.920 278.410 L 170.560 279.681 L 175.200 280.762 M 315.695 79.219 L 316.244 83.417 L 316.630 87.616 L 316.894 91.815 L 317.079 96.014 L 317.217 100.213 L 317.339 104.412 L 317.466 108.611 L 317.613 112.810 L 317.783 117.008 L 317.976 121.207 L 318.182 125.406 L 318.388 129.605 L 318.579 133.804 L 318.739 138.003 L 318.855 142.202 L 318.915 146.401 L 318.915 150.599 L 318.854 154.798 L 318.736 158.997 L 318.573 163.196 L 318.377 167.395 L 318.165 171.594 L 317.954 175.793 L 317.756 179.992 L 317.583 184.190 L 317.435 188.389 L 317.308 192.588 L 317.188 196.787 L 317.053 200.986 L 316.872 205.185 L 316.608 209.384 L 316.222 213.583 L 315.668 217.781 L 314.899 221.980 M 179.840 281.738 L 184.480 282.547 L 189.120 283.201 L 193.760 283.711 L 198.400 284.085 L 203.040 284.328 L 207.680 284.441 L 212.320 284.425 L 216.960 284.278 L 221.600 284.001 L 226.240 283.595 L 230.880 283.058 L 235.520 282.387 M 193.760 11.509 L 189.137 12.037 L 184.480 12.656 L 179.840 13.414 L 175.200 14.322 L 170.560 15.397 L 167.422 16.235 M 110.240 53.901 L 110.158 54.025 L 107.776 58.224 L 105.870 62.423 M 105.600 63.153 L 104.285 66.622 L 103.038 70.821 L 102.088 75.020 L 101.380 79.219 M 316.911 70.821 L 317.866 75.020 L 318.576 79.219 L 319.040 83.014 M 100.960 82.651 L 100.861 83.417 L 100.474 87.616 L 100.206 91.815 L 100.019 96.014 L 99.879 100.213 L 99.757 104.412 L 99.633 108.611 L 99.492 112.810 L 99.329 117.008 L 99.146 121.207 L 98.951 125.406 L 98.760 129.605 L 98.585 133.804 L 98.444 138.003 L 98.348 142.202 L 98.306 146.401 L 98.324 150.599 L 98.399 154.798 L 98.526 158.997 L 98.694 163.196 L 98.889 167.395 L 99.097 171.594 L 99.300 175.793 L 99.487 179.992 L 99.648 184.190 L 99.783 188.389 L 99.898 192.588 L 100.009 196.787 L 100.140 200.986 L 100.319 205.185 L 100.582 209.384 L 100.960 213.492 M 319.478 87.616 L 319.743 91.815 L 319.926 96.014 L 320.064 100.213 L 320.185 104.412 L 320.312 108.611 L 320.458 112.810 L 320.628 117.008 L 320.821 121.207 L 321.028 125.406 L 321.235 129.605 L 321.428 133.804 L 321.590 138.003 L 321.708 142.202 L 321.771 146.401 L 321.773 150.599 L 321.714 154.798 L 321.597 158.997 L 321.434 163.196 L 321.239 167.395 L 321.026 171.594 L 320.813 175.793 L 320.613 179.992 L 320.437 184.190 L 320.286 188.389 L 320.157 192.588 L 320.034 196.787 L 319.897 200.986 L 319.715 205.185 L 319.451 209.384 L 319.065 213.583 M 101.483 217.781 L 102.196 221.980 L 103.153 226.179 L 104.405 230.378 L 105.600 233.536 L 105.983 234.577 L 107.881 238.776 L 110.240 242.966 M 318.547 217.781 L 317.832 221.980 L 316.869 226.179 L 315.607 230.378 M 113.006 247.174 L 114.880 249.566 L 116.325 251.372 L 119.520 254.812 L 120.253 255.571 L 124.160 259.149 L 124.878 259.770 L 128.800 262.844 L 130.345 263.969 L 133.440 266.059 L 136.862 268.168 L 138.080 268.880 L 142.720 271.387 L 144.720 272.367 L 147.360 273.628 L 152.000 275.624 L 154.441 276.566 L 156.640 277.414 L 161.280 279.019 L 165.920 280.405 L 167.281 280.765 L 170.560 281.656 L 175.200 282.741 L 179.840 283.652 L 184.480 284.405 L 188.719 284.963 L 189.120 285.020 L 193.760 285.539 L 198.400 285.919 L 203.040 286.167 L 207.680 286.282 L 212.320 286.265 L 216.960 286.116 L 221.600 285.834 L 226.240 285.420 L 230.123 284.963 M 295.840 259.170 L 291.200 262.946 L 286.560 266.144 L 281.920 268.983 M 235.520 284.255 L 240.160 283.498 L 244.800 282.598 L 249.440 281.541 L 252.407 280.765 M 105.600 56.291 L 104.547 58.224 L 102.666 62.423 L 101.180 66.622 M 100.960 67.401 L 99.958 70.821 L 99.014 75.020 L 98.312 79.219 L 97.803 83.417 L 97.444 87.616 L 97.196 91.815 L 97.023 96.014 L 96.893 100.213 L 96.781 104.412 L 96.665 108.611 L 96.534 112.810 L 96.382 117.008 M 320.923 75.020 L 321.631 79.219 L 322.142 83.417 L 322.500 87.616 L 322.745 91.815 L 322.914 96.014 L 323.041 100.213 L 323.152 104.412 L 323.268 108.611 L 323.403 112.810 L 323.561 117.008 L 323.680 119.776 M 96.320 118.537 L 96.203 121.207 L 96.008 125.406 L 95.815 129.605 L 95.640 133.804 L 95.498 138.003 L 95.401 142.202 L 95.360 146.401 L 95.377 150.599 L 95.453 154.798 L 95.582 158.997 L 95.752 163.196 L 95.949 167.395 L 96.158 171.594 L 96.320 174.909 L 96.360 175.793 L 96.534 179.992 L 96.685 184.190 L 96.810 188.389 L 96.918 192.588 L 97.021 196.787 L 97.141 200.986 L 97.307 205.185 L 97.551 209.384 L 97.909 213.583 L 98.421 217.781 L 99.130 221.980 L 100.082 226.179 L 100.960 229.163 L 101.303 230.378 L 102.792 234.577 L 104.669 238.776 L 105.600 240.499 L 106.922 242.975 L 109.634 247.174 L 110.240 247.981 L 112.818 251.372 L 114.880 253.699 L 116.591 255.571 L 119.520 258.390 L 121.026 259.770 L 124.160 262.358 L 126.244 263.969 L 128.800 265.792 L 132.424 268.168 L 133.440 268.797 L 138.080 271.464 L 139.801 272.367 L 142.720 273.852 L 147.360 275.973 L 148.780 276.566 L 152.000 277.903 L 156.640 279.619 L 160.156 280.765 L 161.280 281.138 L 165.920 282.524 L 170.560 283.712 L 175.200 284.719 L 176.508 284.963 L 179.840 285.620 L 184.480 286.384 L 189.120 287.001 L 193.760 287.482 L 198.400 287.835 L 203.040 288.064 L 207.680 288.171 L 212.320 288.156 L 216.960 288.018 L 221.600 287.757 L 226.240 287.373 L 230.880 286.865 L 235.520 286.231 L 240.160 285.420 L 242.739 284.963 M 323.954 125.406 L 324.163 129.605 L 324.358 133.804 L 324.524 138.003 L 324.645 142.202 L 324.711 146.401 L 324.716 150.599 L 324.658 154.798 L 324.543 158.997 L 324.380 163.196 L 324.184 167.395 L 323.971 171.594 L 323.756 175.793 M 323.563 179.992 L 323.396 184.190 L 323.254 188.389 L 323.131 192.588 L 323.015 196.787 L 322.886 200.986 L 322.716 205.185 L 322.471 209.384 L 322.113 213.583 L 321.601 217.781 L 320.890 221.980 L 319.934 226.179 M 300.480 258.385 L 295.840 262.425 L 291.200 265.854 L 286.560 268.887 M 100.960 58.734 L 99.337 62.423 L 97.870 66.622 L 96.730 70.821 M 96.320 72.776 L 95.825 75.020 L 95.128 79.219 L 94.623 83.417 L 94.267 87.616 L 94.021 91.815 L 93.849 96.014 L 93.720 100.213 L 93.608 104.412 L 93.494 108.611 L 93.364 112.810 L 93.212 117.008 L 93.041 121.207 L 92.860 125.406 L 92.681 129.605 L 92.518 133.804 L 92.386 138.003 L 92.296 142.202 L 92.257 146.401 L 92.273 150.599 L 92.344 154.798 L 92.463 158.997 L 92.621 163.196 L 92.805 167.395 L 92.999 171.594 L 93.190 175.793 L 93.365 179.992 L 93.516 184.190 L 93.641 188.389 L 93.749 192.588 L 93.851 196.787 L 93.971 200.986 L 94.135 205.185 L 94.377 209.384 L 94.733 213.583 L 95.242 217.781 L 95.948 221.980 L 96.320 223.653 L 96.853 226.179 L 98.002 230.378 L 99.475 234.577 L 100.960 237.961 L 101.308 238.776 L 103.467 242.975 L 105.600 246.372 L 106.102 247.174 L 109.178 251.372 L 110.240 252.624 L 112.798 255.571 L 114.880 257.670 L 117.049 259.770 L 119.520 261.915 L 122.030 263.969 L 124.160 265.569 L 127.894 268.168 L 128.800 268.760 L 133.440 271.586 L 134.836 272.367 L 138.080 274.118 L 142.720 276.358 L 143.183 276.566 L 147.360 278.422 L 152.000 280.238 L 153.481 280.765 L 156.640 281.905 L 161.280 283.389 L 165.920 284.670 L 167.120 284.963 L 170.560 285.841 L 175.200 286.857 L 179.840 287.710 L 184.480 288.413 L 189.120 288.982 L 190.987 289.162 L 193.760 289.454 L 198.400 289.814 L 203.040 290.048 L 207.680 290.158 L 212.320 290.144 L 216.960 290.003 L 221.600 289.736 L 226.240 289.326 L 227.886 289.162 M 324.804 79.219 L 325.313 83.417 L 325.669 87.616 L 325.911 91.815 L 326.078 96.014 L 326.202 100.213 L 326.311 104.412 L 326.425 108.611 L 326.558 112.810 L 326.715 117.008 L 326.894 121.207 L 327.087 125.406 L 327.281 129.605 L 327.464 133.804 L 327.620 138.003 L 327.735 142.202 L 327.800 146.401 L 327.807 150.599 L 327.756 154.798 L 327.652 158.997 L 327.503 163.196 L 327.322 167.395 L 327.125 171.594 L 326.925 175.793 L 326.737 179.992 L 326.569 184.190 L 326.424 188.389 L 326.299 192.588 L 326.182 196.787 L 326.052 200.986 L 325.881 205.185 L 325.637 209.384 L 325.281 213.583 L 324.772 217.781 L 324.066 221.980 M 305.120 257.648 L 300.480 261.950 L 295.840 265.606 L 291.200 268.828 L 292.221 268.168 M 235.520 288.274 L 240.160 287.566 L 244.800 286.725 L 249.440 285.736 L 252.585 284.963 M 96.320 61.319 L 95.854 62.423 L 94.407 66.622 L 93.283 70.821 L 92.426 75.020 L 91.789 79.219 M 325.479 66.622 L 326.621 70.821 L 327.492 75.020 L 328.140 79.219 L 328.320 80.826 M 91.680 80.200 L 91.298 83.417 L 90.945 87.616 L 90.701 91.815 L 90.530 96.014 L 90.403 100.213 L 90.292 104.412 L 90.179 108.611 L 90.049 112.810 L 89.898 117.008 L 89.727 121.207 L 89.546 125.406 L 89.367 129.605 L 89.203 133.804 L 89.070 138.003 L 88.980 142.202 L 88.940 146.401 L 88.956 150.599 L 89.026 154.798 L 89.145 158.997 L 89.303 163.196 L 89.487 167.395 L 89.682 171.594 L 89.873 175.793 L 90.049 179.992 L 90.200 184.190 L 90.326 188.389 L 90.433 192.588 L 90.535 196.787 L 90.654 200.986 L 90.817 205.185 L 91.057 209.384 L 91.411 213.583 L 91.680 215.833 L 91.898 217.781 L 92.543 221.980 L 93.411 226.179 L 94.546 230.378 L 96.003 234.577 L 96.320 235.328 L 97.729 238.776 L 99.851 242.975 L 100.960 244.813 L 102.371 247.174 L 105.375 251.372 L 105.600 251.649 L 108.843 255.571 L 110.240 257.043 L 112.915 259.770 L 114.880 261.558 L 117.670 263.969 L 119.520 265.430 L 123.236 268.168 L 124.160 268.805 L 128.800 271.785 L 129.777 272.367 L 133.440 274.460 L 137.562 276.566 L 138.080 276.825 L 142.720 279.001 L 146.994 280.765 L 147.360 280.916 L 152.000 282.711 L 156.640 284.278 L 158.913 284.963 L 161.280 285.703 L 165.920 286.987 L 170.560 288.086 L 175.200 289.018 L 176.034 289.162 L 179.840 289.868 L 184.480 290.582 L 189.120 291.159 L 193.760 291.608 L 198.400 291.937 L 203.040 292.152 L 207.680 292.254 L 212.320 292.241 L 216.960 292.113 L 221.600 291.870 L 226.240 291.511 L 230.880 291.037 L 235.520 290.443 L 240.160 289.724 L 243.245 289.162 M 328.985 87.616 L 329.225 91.815 L 329.389 96.014 L 329.509 100.213 L 329.615 104.412 L 329.726 108.611 L 329.857 112.810 L 330.012 117.008 L 330.190 121.207 L 330.383 125.406 L 330.578 129.605 L 330.763 133.804 L 330.921 138.003 L 331.040 142.202 L 331.108 146.401 L 331.119 150.599 L 331.071 154.798 L 330.970 158.997 L 330.823 163.196 L 330.643 167.395 L 330.446 171.594 L 330.247 175.793 L 330.057 179.992 L 329.888 184.190 L 329.741 188.389 L 329.614 192.588 L 329.495 196.787 L 329.364 200.986 L 329.193 205.185 L 328.950 209.384 L 328.596 213.583 M 328.109 217.781 L 327.464 221.980 L 326.595 226.179 L 325.455 230.378 L 323.991 234.577 M 314.400 251.602 L 309.760 257.058 L 305.120 261.573 L 300.480 265.445 L 295.840 268.847 L 296.839 268.168 M 291.200 271.876 L 286.560 274.494 L 281.920 276.947 L 282.718 276.566 M 249.440 287.992 L 254.080 286.934 L 258.720 285.701 L 261.170 284.963 M 96.320 53.276 L 95.882 54.025 L 93.800 58.224 L 92.136 62.423 M 91.680 63.848 L 90.752 66.622 L 89.646 70.821 L 88.803 75.020 L 88.177 79.219 L 87.723 83.417 L 87.403 87.616 L 87.183 91.815 M 330.249 70.821 L 331.111 75.020 L 331.752 79.219 L 332.212 83.417 L 332.531 87.616 L 332.747 91.815 L 332.893 96.014 L 332.960 98.631 M 87.040 95.698 L 87.027 96.014 L 86.901 100.213 L 86.792 104.412 L 86.680 108.611 L 86.551 112.810 L 86.401 117.008 L 86.231 121.207 L 86.050 125.406 L 85.870 129.605 L 85.706 133.804 L 85.572 138.003 L 85.480 142.202 L 85.440 146.401 L 85.454 150.599 L 85.524 154.798 L 85.642 158.997 L 85.800 163.196 L 85.983 167.395 L 86.178 171.594 L 86.369 175.793 L 86.545 179.992 L 86.697 184.190 L 86.824 188.389 L 86.930 192.588 L 87.032 196.787 L 87.040 197.067 L 87.141 200.986 L 87.288 205.185 L 87.506 209.384 L 87.825 213.583 L 88.284 217.781 L 88.920 221.980 L 89.775 226.179 L 90.896 230.378 L 91.680 232.708 L 92.281 234.577 L 93.951 238.776 L 96.032 242.975 L 96.320 243.470 L 98.437 247.174 L 100.960 250.826 L 101.338 251.372 L 104.683 255.571 L 105.600 256.579 L 108.582 259.770 L 110.240 261.347 L 113.120 263.969 L 114.880 265.426 L 118.403 268.168 L 119.520 268.976 L 124.160 272.102 L 124.580 272.367 L 128.800 274.913 L 131.843 276.566 L 133.440 277.413 L 138.080 279.678 L 140.546 280.765 L 142.720 281.725 L 147.360 283.590 L 151.221 284.963 L 152.000 285.248 L 156.640 286.807 L 161.280 288.162 L 165.221 289.162 L 165.920 289.350 L 170.560 290.459 L 175.200 291.398 L 179.840 292.184 L 184.480 292.832 L 189.120 293.355 L 189.187 293.361 L 193.760 293.813 L 198.400 294.149 L 203.040 294.369 L 207.680 294.473 L 212.320 294.461 L 216.960 294.332 L 221.600 294.084 L 226.240 293.719 L 229.686 293.361 M 333.106 104.412 L 333.213 108.611 L 333.341 112.810 L 333.494 117.008 L 333.670 121.207 L 333.862 125.406 L 334.058 129.605 L 334.245 133.804 L 334.406 138.003 L 334.527 142.202 L 334.599 146.401 L 334.614 150.599 L 334.570 154.798 L 334.472 158.997 L 334.328 163.196 L 334.150 167.395 L 333.954 171.594 L 333.755 175.793 L 333.565 179.992 L 333.395 184.190 L 333.246 188.389 L 333.118 192.588 L 332.997 196.787 M 332.873 200.986 L 332.718 205.185 L 332.496 209.384 L 332.175 213.583 L 331.717 217.781 L 331.082 221.980 L 330.227 226.179 L 329.104 230.378 M 314.400 256.549 L 309.760 261.355 L 305.120 265.428 L 300.480 268.995 L 301.640 268.168 M 235.520 292.710 L 240.160 292.058 L 244.800 291.282 L 249.440 290.368 L 254.080 289.301 L 254.618 289.162" fill="none" stroke="#00AEEF" stroke-width="1" vector-effect="non-scaling-stroke"/></svg>