<svg xmlns="http://www.w3.org/2000/svg" viewBox="67.79878991239113 74.68434973873293 284.4405709731525 196.75963970137076" width="284.4405709731525" height="196.75963970137076" shape-rendering="geometricPrecision"><rect x="67.79878991239113" y="74.68434973873293" width="284.4405709731525" height="196.75963970137076" fill="#0b0f14"/><path d="M 189.120 124.994 L 188.878 125.406 L 187.066 129.605 L 185.801 133.804 L 184.964 138.003 M 232.861 129.605 L 234.131 133.804 L 234.980 138.003 L 235.498 142.202 L 235.520 142.564 M 184.480 142.062 L 184.466 142.202 L 184.270 146.401 L 184.277 150.599 L 184.480 154.662 L 184.488 154.798 L 185.003 158.997 L 185.850 163.196 L 187.119 167.395 L 188.929 171.594 L 189.120 171.920 L 191.939 175.793 L 193.760 177.679 L 196.745 179.992 L 198.400 180.993 L 203.040 182.850 L 207.680 183.764 L 212.320 183.752 L 216.960 182.822 L 221.600 180.961 L 223.209 179.992 M 235.031 158.997 L 234.190 163.196 L 232.916 167.395 L 231.093 171.594 M 184.480 124.640 L 184.103 125.406 L 182.590 129.605 L 181.533 133.804 L 180.834 138.003 L 180.415 142.202 L 180.222 146.401 L 180.227 150.599 L 180.430 154.798 L 180.858 158.997 L 181.564 163.196 L 182.622 167.395 L 184.131 171.594 L 184.480 172.306 L 186.504 175.793 L 189.120 179.176 L 189.906 179.992 L 193.760 183.102 L 195.572 184.190 L 198.400 185.555 L 203.040 187.031 L 207.680 187.754 L 212.320 187.741 L 216.960 186.994 L 221.600 185.505 L 224.325 184.190 M 237.343 129.605 L 238.403 133.804 L 239.111 138.003 L 239.544 142.202 L 239.753 146.401 L 239.765 150.599 L 239.576 154.798 L 239.158 158.997 L 238.458 163.196 L 237.397 167.395 L 235.879 171.594 M 179.840 125.777 L 178.651 129.605 L 177.740 133.804 L 177.137 138.003 L 176.775 142.202 L 176.607 146.401 L 176.610 150.599 L 176.783 154.798 L 177.150 158.997 L 177.756 163.196 L 178.668 167.395 L 179.840 171.186 L 179.984 171.594 L 182.012 175.793 L 184.480 179.616 L 184.768 179.992 L 188.930 184.190 L 189.120 184.344 L 193.760 187.331 L 195.980 188.389 L 198.400 189.342 L 203.040 190.547 L 207.680 191.136 L 212.320 191.122 L 216.960 190.507 L 221.600 189.286 L 223.868 188.389 M 242.196 133.804 L 242.806 138.003 L 243.179 142.202 L 243.360 146.401 L 243.370 150.599 L 243.209 154.798 L 242.850 158.997 L 242.248 163.196 L 241.336 167.395 M 175.200 129.066 L 175.053 129.605 L 174.248 133.804 L 173.715 138.003 L 173.394 142.202 L 173.245 146.401 L 173.245 150.599 L 173.396 154.798 L 173.718 158.997 L 174.253 163.196 L 175.056 167.395 L 175.200 167.925 L 176.310 171.594 L 178.056 175.793 L 179.840 179.009 L 180.467 179.992 L 183.933 184.190 L 184.480 184.718 L 189.052 188.389 L 189.120 188.434 L 193.760 190.873 L 198.191 192.588 L 198.400 192.657 L 203.040 193.665 L 207.680 194.158 L 212.320 194.144 L 216.960 193.627 L 221.600 192.601 L 221.634 192.588 M 245.686 133.804 L 246.224 138.003 L 246.553 142.202 L 246.713 146.401 L 246.723 150.599 L 246.581 154.798 L 246.266 158.997 L 245.735 163.196 L 244.932 167.395 M 175.200 119.700 L 174.462 121.207 L 172.910 125.406 L 171.786 129.605 L 171.000 133.804 M 247.022 125.406 L 248.140 129.605 L 248.924 133.804 L 249.440 137.928 M 170.560 137.347 L 170.485 138.003 L 170.195 142.202 L 170.059 146.401 L 170.058 150.599 L 170.192 154.798 L 170.481 158.997 L 170.560 159.693 L 170.994 163.196 L 171.778 167.395 L 172.898 171.594 L 174.439 175.793 L 175.200 177.357 L 176.639 179.992 L 179.621 184.190 L 179.840 184.436 L 183.931 188.389 L 184.480 188.822 L 189.120 191.863 L 190.517 192.588 L 193.760 194.008 L 198.400 195.511 L 203.040 196.495 L 205.861 196.787 L 207.680 196.952 L 212.320 196.960 L 213.911 196.787 M 249.745 142.202 L 249.890 146.401 L 249.899 150.599 L 249.772 154.798 L 249.489 158.997 M 248.976 163.196 L 248.193 167.395 L 247.070 171.594 L 245.521 175.793 M 170.560 122.773 L 169.689 125.406 L 168.677 129.605 L 167.970 133.804 L 167.500 138.003 L 167.217 142.202 L 167.083 146.401 L 167.081 150.599 L 167.210 154.798 L 167.490 158.997 L 167.957 163.196 L 168.662 167.395 L 169.669 171.594 L 170.560 174.304 L 171.097 175.793 L 173.109 179.992 L 175.200 183.344 L 175.796 184.190 L 179.526 188.389 L 179.840 188.677 L 184.480 192.325 L 184.884 192.588 L 189.120 194.906 L 193.496 196.787 L 193.760 196.885 L 198.400 198.173 L 203.040 199.017 L 207.680 199.429 L 212.320 199.416 L 216.960 198.981 L 221.600 198.118 L 226.240 196.822 L 226.323 196.787 M 251.245 129.605 L 251.950 133.804 L 252.422 138.003 L 252.712 142.202 L 252.853 146.401 L 252.862 150.599 L 252.739 154.798 L 252.463 158.997 L 252.000 163.196 L 251.296 167.395 L 250.288 171.594 M 170.560 115.707 L 169.832 117.008 L 168.010 121.207 L 166.650 125.406 M 165.920 128.505 L 165.679 129.605 L 165.033 133.804 L 164.604 138.003 L 164.344 142.202 L 164.221 146.401 L 164.217 150.599 L 164.334 154.798 L 164.589 158.997 L 165.014 163.196 L 165.658 167.395 L 165.920 168.597 L 166.623 171.594 L 167.975 175.793 L 169.784 179.992 L 170.560 181.387 L 172.283 184.190 L 175.200 187.927 L 175.609 188.389 L 179.840 192.270 L 180.246 192.588 L 184.480 195.365 L 187.116 196.787 L 189.120 197.717 L 193.760 199.423 L 198.400 200.680 L 200.115 200.986 L 203.040 201.451 L 207.680 201.812 L 212.320 201.801 L 216.960 201.468 L 219.626 200.986 M 254.883 133.804 L 255.315 138.003 L 255.579 142.202 L 255.709 146.401 L 255.718 150.599 L 255.605 154.798 L 255.354 158.997 L 254.931 163.196 L 254.289 167.395 M 165.920 118.861 L 164.997 121.207 L 163.754 125.406 L 162.854 129.605 L 162.224 133.804 L 161.805 138.003 L 161.552 142.202 L 161.431 146.401 L 161.426 150.599 L 161.539 154.798 L 161.786 158.997 L 162.201 163.196 L 162.827 167.395 L 163.725 171.594 L 164.960 175.793 L 165.920 178.246 L 166.660 179.992 L 168.964 184.190 L 170.560 186.485 L 172.032 188.389 L 175.200 191.703 L 176.164 192.588 L 179.840 195.395 L 181.984 196.787 L 184.480 198.174 L 189.120 200.297 L 191.022 200.986 L 193.760 201.861 L 198.400 202.962 L 203.040 203.684 L 207.680 204.037 L 212.320 204.027 L 216.960 203.654 L 221.600 202.917 L 226.240 201.806 L 228.795 200.986 M 256.161 125.406 L 257.055 129.605 L 257.683 133.804 L 258.104 138.003 L 258.362 142.202 L 258.488 146.401 L 258.497 150.599 L 258.388 154.798 L 258.144 158.997 L 257.732 163.196 L 257.108 167.395 L 256.212 171.594 L 254.976 175.793 M 165.920 112.700 L 165.851 112.810 L 163.733 117.008 L 162.114 121.207 M 161.280 124.093 L 160.923 125.406 L 160.089 129.605 L 159.506 133.804 L 159.119 138.003 L 158.884 142.202 L 158.771 146.401 L 158.767 150.599 L 158.870 154.798 L 159.099 158.997 L 159.481 163.196 L 160.061 167.395 L 160.891 171.594 L 161.280 173.030 L 162.075 175.793 L 163.686 179.992 L 165.790 184.190 L 165.920 184.398 L 168.657 188.389 L 170.560 190.624 L 172.429 192.588 L 175.200 195.002 L 177.551 196.787 L 179.840 198.268 L 184.480 200.809 L 184.868 200.986 L 189.120 202.684 L 193.760 204.139 L 198.277 205.185 L 198.400 205.211 L 203.040 205.856 L 207.680 206.172 L 212.320 206.164 L 216.960 205.889 L 221.511 205.185 M 259.816 129.605 L 260.398 133.804 L 260.788 138.003 L 261.028 142.202 L 261.144 146.401 L 261.153 150.599 L 261.052 154.798 L 260.826 158.997 L 260.446 163.196 L 259.868 167.395 L 259.039 171.594 M 257.853 175.793 L 256.243 179.992 L 254.136 184.190 L 249.440 190.940 M 161.280 116.027 L 160.829 117.008 L 159.331 121.207 L 158.213 125.406 L 157.403 129.605 L 156.835 133.804 M 260.584 121.207 L 261.692 125.406 L 262.497 129.605 L 263.064 133.804 L 263.360 137.077 M 156.640 135.975 L 156.465 138.003 L 156.245 142.202 L 156.139 146.401 L 156.134 150.599 L 156.231 154.798 L 156.444 158.997 L 156.640 161.305 L 156.808 163.196 L 157.372 167.395 L 158.180 171.594 L 159.295 175.793 L 160.785 179.992 L 161.280 181.074 L 162.808 184.190 L 165.431 188.389 L 165.920 189.026 L 168.927 192.588 L 170.560 194.186 L 173.551 196.787 L 175.200 198.004 L 179.840 200.971 L 179.867 200.986 L 184.480 203.192 L 189.120 204.999 L 189.718 205.185 L 193.760 206.314 L 198.400 207.274 L 203.040 207.904 L 207.680 208.212 L 212.320 208.205 L 216.960 207.881 L 221.600 207.239 L 226.240 206.273 L 230.124 205.185 M 263.665 142.202 L 263.774 146.401 L 263.782 150.599 L 263.688 154.798 L 263.476 158.997 M 263.111 163.196 L 262.550 167.395 L 261.744 171.594 L 260.633 175.793 L 259.144 179.992 M 156.640 121.061 L 156.592 121.207 L 155.546 125.406 L 154.787 129.605 L 154.257 133.804 L 153.904 138.003 L 153.690 142.202 L 153.587 146.401 L 153.582 150.599 L 153.676 154.798 L 153.882 158.997 L 154.230 163.196 L 154.758 167.395 L 155.514 171.594 L 156.557 175.793 L 156.640 176.046 L 158.004 179.992 L 159.898 184.190 L 161.280 186.607 L 162.378 188.389 L 165.593 192.588 L 165.920 192.943 L 169.840 196.787 L 170.560 197.384 L 175.200 200.788 L 175.509 200.986 L 179.840 203.398 L 183.664 205.185 L 184.480 205.525 L 189.120 207.137 L 193.760 208.402 L 198.400 209.336 L 198.754 209.384 L 203.040 209.914 L 207.680 210.196 L 212.320 210.189 L 216.960 209.931 L 221.032 209.384 M 265.113 129.605 L 265.644 133.804 L 266.000 138.003 L 266.218 142.202 L 266.325 146.401 L 266.332 150.599 L 266.240 154.798 L 266.035 158.997 L 265.689 163.196 L 265.163 167.395 L 264.410 171.594 L 263.370 175.793 L 258.720 188.846 M 226.240 208.366 L 230.880 207.099 L 235.520 205.486 L 236.240 205.185 M 156.640 113.862 L 155.313 117.008 L 153.952 121.207 L 152.937 125.406 L 152.200 129.605 M 265.955 121.207 L 266.964 125.406 L 267.698 129.605 L 268.000 132.054 M 152.000 131.233 L 151.694 133.804 L 151.360 138.003 L 151.158 142.202 L 151.061 146.401 L 151.056 150.599 L 151.144 154.798 L 151.340 158.997 L 151.668 163.196 L 152.000 165.993 L 152.172 167.395 L 152.907 171.594 L 153.921 175.793 L 155.277 179.992 L 156.640 183.235 L 157.065 184.190 L 159.422 188.389 L 161.280 191.045 L 162.450 192.588 L 165.920 196.352 L 166.364 196.787 L 170.560 200.264 L 171.545 200.986 L 175.200 203.307 L 178.637 205.185 L 179.840 205.769 L 184.480 207.692 L 189.120 209.258 L 189.586 209.384 L 193.760 210.417 L 198.400 211.267 L 203.040 211.827 L 207.680 212.103 L 212.320 212.097 L 216.960 211.811 L 221.600 211.244 L 226.240 210.390 L 230.302 209.384 M 268.546 138.003 L 268.753 142.202 L 268.853 146.401 L 268.860 150.599 L 268.773 154.798 L 268.578 158.997 L 268.251 163.196 M 267.747 167.395 L 267.016 171.594 L 266.006 175.793 L 264.653 179.992 M 156.640 108.509 L 156.574 108.611 L 154.360 112.810 L 152.633 117.008 M 152.000 119.006 L 151.331 121.207 L 150.372 125.406 L 149.677 129.605 L 149.191 133.804 L 148.868 138.003 L 148.671 142.202 L 148.577 146.401 L 148.573 150.599 L 148.659 154.798 L 148.848 158.997 L 149.168 163.196 L 149.652 167.395 L 150.346 171.594 L 151.304 175.793 L 152.000 178.089 L 152.602 179.992 L 154.322 184.190 L 156.525 188.389 L 156.640 188.568 L 159.404 192.588 L 161.280 194.822 L 163.078 196.787 L 165.920 199.399 L 167.842 200.986 L 170.560 202.924 L 174.174 205.185 L 175.200 205.753 L 179.840 207.991 L 183.279 209.384 L 184.480 209.827 L 189.120 211.249 L 193.760 212.368 L 198.400 213.195 L 201.687 213.583 L 203.040 213.733 L 207.680 213.989 L 212.320 213.984 L 216.960 213.727 L 218.187 213.583 M 269.531 125.406 L 270.226 129.605 L 270.715 133.804 L 271.042 138.003 L 271.243 142.202 L 271.340 146.401 L 271.346 150.599 L 271.261 154.798 L 271.072 158.997 L 270.754 163.196 L 270.272 167.395 L 269.580 171.594 L 268.626 175.793 M 152.000 112.066 L 151.637 112.810 L 150.007 117.008 L 148.762 121.207 L 147.832 125.406 M 269.908 117.008 L 271.147 121.207 L 272.073 125.406 L 272.640 128.932 M 147.360 128.341 L 147.162 129.605 L 146.699 133.804 L 146.391 138.003 L 146.204 142.202 L 146.115 146.401 L 146.111 150.599 L 146.193 154.798 L 146.374 158.997 L 146.679 163.196 L 147.140 167.395 L 147.360 168.795 L 147.810 171.594 L 148.739 175.793 L 149.982 179.992 L 151.607 184.190 L 152.000 185.000 L 153.733 188.389 L 156.424 192.588 L 156.640 192.868 L 159.893 196.787 L 161.280 198.187 L 164.324 200.986 L 165.920 202.248 L 170.083 205.185 L 170.560 205.482 L 175.200 208.042 L 178.035 209.384 L 179.840 210.158 L 184.480 211.851 L 189.120 213.232 L 190.601 213.583 L 193.760 214.283 L 198.400 215.049 L 203.040 215.554 L 207.680 215.804 L 212.320 215.800 L 216.960 215.544 L 221.600 215.035 L 226.240 214.268 L 229.338 213.583 M 273.213 133.804 L 273.525 138.003 L 273.716 142.202 L 273.809 146.401 L 273.814 150.599 L 273.733 154.798 L 273.552 158.997 L 273.248 163.196 L 272.788 167.395 M 272.120 171.594 L 271.195 175.793 L 269.955 179.992 L 268.333 184.190 M 152.000 106.938 L 151.001 108.611 L 148.977 112.810 L 147.398 117.008 M 147.360 117.140 L 146.211 121.207 L 145.326 125.406 L 144.685 129.605 L 144.237 133.804 L 143.940 138.003 L 143.759 142.202 L 143.673 146.401 L 143.670 150.599 L 143.750 154.798 L 143.926 158.997 L 144.221 163.196 L 144.669 167.395 L 145.310 171.594 L 146.195 175.793 L 147.360 179.926 L 147.379 179.992 L 148.953 184.190 L 150.968 188.389 L 152.000 190.126 L 153.548 192.588 L 156.640 196.598 L 156.797 196.787 L 160.943 200.986 L 161.280 201.278 L 165.920 204.935 L 166.274 205.185 L 170.560 207.850 L 173.390 209.384 L 175.200 210.269 L 179.840 212.235 L 183.634 213.583 L 184.480 213.861 L 189.120 215.136 L 193.760 216.140 L 198.400 216.884 L 203.040 217.376 L 207.680 217.618 L 212.320 217.615 L 216.960 217.367 L 221.600 216.874 L 226.240 216.130 L 230.880 215.129 L 235.520 213.871 L 236.354 213.583 M 274.585 125.406 L 275.230 129.605 L 275.682 133.804 L 275.985 138.003 L 276.169 142.202 L 276.258 146.401 L 276.263 150.599 L 276.184 154.798 L 276.008 158.997 L 275.714 163.196 L 275.268 167.395 L 274.628 171.594 L 273.746 175.793 M 147.360 110.547 L 146.334 112.810 L 144.832 117.008 L 143.684 121.207 L 142.828 125.406 M 275.088 117.008 L 276.233 121.207 L 277.089 125.406 L 277.280 126.682 M 142.720 126.134 L 142.212 129.605 L 141.782 133.804 L 141.497 138.003 L 141.325 142.202 L 141.242 146.401 L 141.240 150.599 L 141.317 154.798 L 141.487 158.997 L 141.771 163.196 L 142.201 167.395 L 142.720 170.937 L 142.818 171.594 L 143.674 175.793 L 144.820 179.992 L 146.317 184.190 L 147.360 186.500 L 148.249 188.389 L 150.706 192.588 L 152.000 194.403 L 153.810 196.787 L 156.640 199.898 L 157.712 200.986 L 161.280 204.084 L 162.681 205.185 L 165.920 207.419 L 169.137 209.384 L 170.560 210.165 L 175.200 212.408 L 178.031 213.583 L 179.840 214.276 L 184.480 215.788 L 189.120 217.024 L 192.718 217.781 L 193.760 217.991 L 198.400 218.690 L 203.040 219.152 L 207.680 219.381 L 212.320 219.379 L 216.960 219.146 L 221.600 218.683 L 226.240 217.985 L 227.261 217.781 M 278.147 133.804 L 278.438 138.003 L 278.615 142.202 L 278.700 146.401 L 278.704 150.599 L 278.627 154.798 L 278.457 158.997 L 278.174 163.196 L 277.744 167.395 M 277.128 171.594 L 276.274 175.793 L 275.130 179.992 L 273.634 184.190 M 142.720 115.676 L 142.269 117.008 L 141.168 121.207 L 140.347 125.406 L 139.753 129.605 L 139.338 133.804 L 139.063 138.003 L 138.897 142.202 L 138.819 146.401 L 138.817 150.599 L 138.892 154.798 L 139.057 158.997 L 139.332 163.196 L 139.748 167.395 L 140.344 171.594 L 141.165 175.793 L 142.264 179.992 L 142.720 181.343 L 143.707 184.190 L 145.561 188.389 L 147.360 191.646 L 147.905 192.588 L 150.859 196.787 L 152.000 198.144 L 154.561 200.986 L 156.640 202.952 L 159.216 205.185 L 161.280 206.748 L 165.156 209.384 L 165.920 209.849 L 170.560 212.379 L 173.096 213.583 L 175.200 214.501 L 179.840 216.252 L 184.480 217.716 L 184.730 217.781 L 189.120 218.876 L 193.760 219.790 L 198.400 220.468 L 203.040 220.917 L 207.680 221.139 L 212.320 221.136 L 216.960 220.911 L 221.600 220.463 L 226.240 219.788 L 230.880 218.879 L 235.303 217.781 M 278.756 121.207 L 279.581 125.406 L 280.181 129.605 L 280.602 133.804 L 280.883 138.003 L 281.054 142.202 L 281.136 146.401 L 281.139 150.599 L 281.063 154.798 L 280.899 158.997 L 280.624 163.196 L 280.208 167.395 L 279.613 171.594 L 278.792 175.793 L 277.694 179.992 M 142.720 109.017 L 141.112 112.810 L 139.721 117.008 L 138.658 121.207 M 138.080 124.265 L 137.866 125.406 L 137.292 129.605 L 136.892 133.804 L 136.627 138.003 L 136.467 142.202 L 136.392 146.401 L 136.391 150.599 L 136.465 154.798 L 136.625 158.997 L 136.891 163.196 L 137.294 167.395 L 137.870 171.594 L 138.080 172.715 L 138.663 175.793 L 139.723 179.992 L 141.109 184.190 L 142.720 188.007 L 142.887 188.389 L 145.141 192.588 L 147.360 195.935 L 147.955 196.787 L 151.464 200.986 L 152.000 201.534 L 155.851 205.185 L 156.640 205.836 L 161.280 209.319 L 161.374 209.384 L 165.920 212.151 L 168.597 213.583 L 170.560 214.544 L 175.200 216.538 L 178.585 217.781 L 179.840 218.215 L 184.480 219.585 L 189.120 220.705 L 193.760 221.589 L 196.509 221.980 L 198.400 222.242 L 203.040 222.670 L 207.680 222.882 L 212.320 222.880 L 216.960 222.666 L 221.600 222.243 L 223.480 221.980 M 282.653 129.605 L 283.061 133.804 L 283.333 138.003 L 283.497 142.202 L 283.576 146.401 L 283.578 150.599 L 283.504 154.798 L 283.344 158.997 L 283.077 163.196 L 282.674 167.395 L 282.098 171.594 M 142.720 103.907 L 142.405 104.412 L 140.234 108.611 L 138.513 112.810 M 138.080 114.148 L 137.171 117.008 L 136.145 121.207 L 135.381 125.406 L 134.828 129.605 L 134.444 133.804 L 134.189 138.003 L 134.036 142.202 L 133.964 146.401 L 133.964 150.599 L 134.036 154.798 L 134.191 158.997 L 134.449 163.196 L 134.837 167.395 L 135.393 171.594 L 136.158 175.793 L 137.181 179.992 L 138.080 182.830 L 138.518 184.190 L 140.230 188.389 L 142.388 192.588 L 142.720 193.125 L 145.089 196.787 L 147.360 199.691 L 148.434 200.986 L 152.000 204.634 L 152.581 205.185 L 156.640 208.533 L 157.774 209.384 L 161.280 211.727 L 164.395 213.583 L 165.920 214.411 L 170.560 216.652 L 173.248 217.781 L 175.200 218.550 L 179.840 220.130 L 184.480 221.453 L 186.720 221.980 L 189.120 222.526 L 193.760 223.368 L 198.400 223.993 L 203.040 224.407 L 207.680 224.612 L 212.320 224.610 L 216.960 224.403 L 221.600 223.991 L 226.240 223.370 L 230.880 222.545 L 233.341 221.980 M 283.797 121.207 L 284.568 125.406 L 285.129 129.605 L 285.523 133.804 L 285.785 138.003 L 285.943 142.202 L 286.018 146.401 L 286.019 150.599 L 285.946 154.798 L 285.791 158.997 L 285.533 163.196 L 285.144 167.395 L 284.588 171.594 L 283.821 175.793 L 282.796 179.992 M 138.080 107.565 L 137.570 108.611 L 135.910 112.810 L 134.617 117.008 L 133.630 121.207 M 284.036 112.810 L 285.330 117.008 L 286.322 121.207 L 286.560 122.542 M 133.440 122.285 L 132.890 125.406 L 132.353 129.605 L 131.980 133.804 L 131.733 138.003 L 131.585 142.202 L 131.516 146.401 L 131.517 150.599 L 131.588 154.798 L 131.740 158.997 L 131.991 163.196 L 132.370 167.395 L 132.910 171.594 L 133.440 174.595 L 133.652 175.793 L 134.637 179.992 L 135.924 184.190 L 137.573 188.389 L 138.080 189.435 L 139.651 192.588 L 142.235 196.787 L 142.720 197.450 L 145.436 200.986 L 147.360 203.103 L 149.381 205.185 L 152.000 207.522 L 154.269 209.384 L 156.640 211.110 L 160.404 213.583 L 161.280 214.105 L 165.920 216.602 L 168.411 217.781 L 170.560 218.730 L 175.200 220.523 L 179.635 221.980 L 179.840 222.045 L 184.480 223.300 L 189.120 224.328 L 193.760 225.140 L 198.400 225.744 L 203.040 226.144 L 203.865 226.179 L 207.680 226.342 L 212.320 226.341 L 216.073 226.179 M 287.617 129.605 L 288.000 133.804 L 288.255 138.003 L 288.408 142.202 L 288.480 146.401 L 288.480 150.599 L 288.409 154.798 L 288.256 158.997 L 288.004 163.196 L 287.625 167.395 L 287.083 171.594 M 286.340 175.793 L 285.352 179.992 L 284.061 184.190 L 282.407 188.389 M 221.600 225.742 L 226.240 225.144 L 230.880 224.339 L 235.520 223.320 M 133.440 112.448 L 133.304 112.810 L 132.048 117.008 L 131.091 121.207 L 130.378 125.406 L 129.863 129.605 L 129.505 133.804 L 129.269 138.003 L 129.128 142.202 L 129.063 146.401 L 129.065 150.599 L 129.135 154.798 L 129.281 158.997 L 129.524 163.196 L 129.888 167.395 L 130.407 171.594 L 131.122 175.793 L 132.078 179.992 L 133.327 184.190 L 133.440 184.494 L 134.913 188.389 L 136.912 192.588 L 138.080 194.598 L 139.397 196.787 L 142.456 200.986 L 142.720 201.297 L 146.215 205.185 L 147.360 206.284 L 150.837 209.384 L 152.000 210.300 L 156.569 213.583 L 156.640 213.629 L 161.280 216.393 L 163.914 217.781 L 165.920 218.762 L 170.560 220.772 L 173.777 221.980 L 175.200 222.489 L 179.840 223.932 L 184.480 225.141 L 189.120 226.130 L 189.405 226.179 L 193.760 226.914 L 198.400 227.496 L 203.040 227.881 L 207.680 228.072 L 212.320 228.071 L 216.960 227.878 L 221.600 227.494 L 226.240 226.917 L 230.667 226.179 M 287.906 117.008 L 288.871 121.207 L 289.594 125.406 L 290.120 129.605 L 290.489 133.804 L 290.733 138.003 L 290.880 142.202 L 290.948 146.401 L 290.947 150.599 L 290.877 154.798 L 290.730 158.997 L 290.487 163.196 L 290.121 167.395 L 289.599 171.594 L 288.882 175.793 L 287.922 179.992 L 286.668 184.190 M 133.440 105.957 L 132.219 108.611 L 130.672 112.810 L 129.467 117.008 M 128.800 120.046 L 128.544 121.207 L 127.848 125.406 L 127.346 129.605 L 126.997 133.804 L 126.768 138.003 L 126.631 142.202 L 126.569 146.401 L 126.572 150.599 L 126.642 154.798 L 126.786 158.997 L 127.024 163.196 L 127.380 167.395 L 127.888 171.594 L 128.586 175.793 L 128.800 176.765 L 129.507 179.992 L 130.704 184.190 L 132.240 188.389 L 133.440 191.021 L 134.169 192.588 L 136.556 196.787 L 138.080 199.007 L 139.494 200.986 L 142.720 204.783 L 143.081 205.185 L 147.360 209.290 L 147.465 209.384 L 152.000 212.956 L 152.872 213.583 L 156.640 216.029 L 159.655 217.781 L 161.280 218.654 L 165.920 220.886 L 168.508 221.980 L 170.560 222.803 L 175.200 224.434 L 179.840 225.820 L 181.252 226.179 L 184.480 226.982 L 189.120 227.934 L 193.760 228.688 L 198.400 229.248 L 203.040 229.619 L 207.680 229.803 L 212.320 229.801 L 216.960 229.615 L 221.600 229.245 L 226.240 228.691 L 230.880 227.946 L 235.520 227.004 L 238.862 226.179 M 292.135 125.406 L 292.649 129.605 L 293.009 133.804 L 293.247 138.003 L 293.390 142.202 L 293.456 146.401 L 293.454 150.599 L 293.385 154.798 L 293.240 158.997 L 293.001 163.196 L 292.643 167.395 L 292.132 171.594 L 291.430 175.793 M 128.800 110.628 L 128.025 112.810 L 126.850 117.008 L 125.954 121.207 L 125.289 125.406 L 124.809 129.605 L 124.476 133.804 L 124.258 138.003 M 293.120 117.008 L 294.025 121.207 L 294.704 125.406 L 295.197 129.605 L 295.542 133.804 L 295.770 138.003 L 295.840 140.146 M 124.160 141.177 L 124.128 142.202 L 124.068 146.401 L 124.072 150.599 L 124.142 154.798 L 124.160 155.340 L 124.281 158.997 L 124.510 163.196 L 124.852 167.395 L 125.338 171.594 L 126.007 175.793 L 126.901 179.992 L 128.068 184.190 L 128.800 186.269 L 129.551 188.389 L 131.406 192.588 L 133.440 196.302 L 133.713 196.787 L 136.530 200.986 L 138.080 202.930 L 139.967 205.185 L 142.720 208.011 L 144.145 209.384 L 147.360 212.107 L 149.250 213.583 L 152.000 215.515 L 155.566 217.781 L 156.640 218.410 L 161.280 220.872 L 163.636 221.980 L 165.920 222.995 L 170.560 224.816 L 174.590 226.179 L 175.200 226.379 L 179.840 227.709 L 184.480 228.824 L 189.120 229.739 L 193.213 230.378 L 193.760 230.463 L 198.400 231.010 L 203.040 231.372 L 207.680 231.551 L 212.320 231.549 L 216.960 231.367 L 221.600 231.006 L 226.240 230.464 L 226.807 230.378 M 295.759 158.997 L 295.529 163.196 L 295.185 167.395 L 294.695 171.594 L 294.021 175.793 L 293.122 179.992 L 291.947 184.190 M 128.800 104.045 L 128.608 104.412 L 126.786 108.611 L 125.343 112.810 L 124.220 117.008 M 293.182 108.611 L 294.626 112.810 L 295.757 117.008 L 295.840 117.407 M 124.160 117.299 L 123.344 121.207 L 122.691 125.406 L 122.222 129.605 L 121.896 133.804 L 121.683 138.003 L 121.558 142.202 L 121.502 146.401 L 121.508 150.599 L 121.575 154.798 L 121.713 158.997 L 121.938 163.196 L 122.274 167.395 L 122.752 171.594 L 123.408 175.793 L 124.160 179.401 L 124.282 179.992 L 125.397 184.190 L 126.827 188.389 L 128.632 192.588 L 128.800 192.913 L 130.843 196.787 L 133.440 200.803 L 133.562 200.986 L 136.852 205.185 L 138.080 206.528 L 140.840 209.384 L 142.720 211.087 L 145.679 213.583 L 147.360 214.853 L 151.599 217.781 L 152.000 218.035 L 156.640 220.736 L 159.039 221.980 L 161.280 223.073 L 165.920 225.088 L 168.786 226.179 L 170.560 226.830 L 175.200 228.327 L 179.840 229.599 L 183.201 230.378 L 184.480 230.672 L 189.120 231.562 L 193.760 232.266 L 198.400 232.790 L 203.040 233.137 L 207.680 233.308 L 212.320 233.306 L 216.960 233.131 L 221.600 232.784 L 226.240 232.266 L 230.880 231.571 L 235.520 230.692 L 236.901 230.378 M 297.309 125.406 L 297.793 129.605 L 298.131 133.804 L 298.355 138.003 L 298.488 142.202 L 298.549 146.401 L 298.545 150.599 L 298.479 154.798 L 298.340 158.997 L 298.114 163.196 L 297.775 167.395 L 297.294 171.594 L 296.632 175.793 M 295.751 179.992 L 294.627 184.190 L 293.188 188.389 L 291.374 192.588 M 124.160 108.306 L 124.034 108.611 L 122.622 112.810 L 121.523 117.008 L 120.685 121.207 L 120.064 125.406 L 119.617 129.605 M 297.351 112.810 L 298.458 117.008 L 299.308 121.207 L 299.943 125.406 L 300.405 129.605 L 300.480 130.571 M 119.520 130.915 L 119.301 133.804 L 119.092 138.003 L 118.969 142.202 L 118.916 146.401 L 118.924 150.599 L 118.992 154.798 L 119.129 158.997 L 119.352 163.196 L 119.520 165.327 L 119.679 167.395 L 120.135 171.594 L 120.760 175.793 L 121.596 179.992 L 122.687 184.190 L 124.087 188.389 L 124.160 188.568 L 125.810 192.588 L 127.954 196.787 L 128.800 198.170 L 130.565 200.986 L 133.440 204.810 L 133.733 205.185 L 137.544 209.384 L 138.080 209.901 L 142.143 213.583 L 142.720 214.049 L 147.360 217.528 L 147.727 217.781 L 152.000 220.485 L 154.634 221.980 L 156.640 223.046 L 161.280 225.258 L 163.453 226.179 L 165.920 227.182 L 170.560 228.846 L 175.200 230.274 L 175.586 230.378 L 179.840 231.508 L 184.480 232.545 L 189.120 233.396 L 193.760 234.069 L 198.400 234.570 L 198.491 234.577 L 203.040 234.912 L 207.680 235.080 L 212.320 235.077 L 216.960 234.894 L 221.396 234.577 M 300.956 138.003 L 301.087 142.202 L 301.146 146.401 L 301.142 150.599 L 301.076 154.798 L 300.939 158.997 L 300.715 163.196 M 300.383 167.395 L 299.922 171.594 L 299.290 175.793 L 298.446 179.992 L 297.345 184.190 L 295.936 188.389 M 124.160 101.897 L 122.912 104.412 L 121.214 108.611 L 119.869 112.810 M 119.520 114.193 L 118.800 117.008 L 117.977 121.207 L 117.366 125.406 L 116.927 129.605 L 116.624 133.804 L 116.427 138.003 L 116.311 142.202 L 116.263 146.401 L 116.271 150.599 L 116.338 154.798 L 116.469 158.997 L 116.682 163.196 L 116.999 167.395 L 117.448 171.594 L 118.064 175.793 L 118.886 179.992 L 119.520 182.491 L 119.945 184.190 L 121.276 188.389 L 122.957 192.588 L 124.160 195.038 L 125.028 196.787 L 127.544 200.986 L 128.800 202.752 L 130.586 205.185 L 133.440 208.495 L 134.243 209.384 L 138.080 213.086 L 138.628 213.583 L 142.720 216.891 L 143.912 217.781 L 147.360 220.128 L 150.363 221.980 L 152.000 222.921 L 156.640 225.337 L 158.442 226.179 L 161.280 227.445 L 165.920 229.277 L 169.106 230.378 L 170.560 230.870 L 175.200 232.253 L 179.840 233.430 L 184.480 234.418 L 185.372 234.577 L 189.120 235.250 L 193.760 235.913 L 198.400 236.405 L 203.040 236.730 L 207.680 236.890 L 212.320 236.886 L 216.960 236.720 L 221.600 236.393 L 226.240 235.905 L 230.880 235.232 L 234.693 234.577 M 302.020 121.207 L 302.645 125.406 L 303.099 129.605 L 303.416 133.804 L 303.626 138.003 L 303.750 142.202 L 303.806 146.401 L 303.802 150.599 L 303.739 154.798 L 303.608 158.997 L 303.393 163.196 L 303.073 167.395 L 302.619 171.594 L 301.996 175.793 L 301.165 179.992 M 277.280 216.872 L 272.640 220.188 L 268.000 222.932 L 269.625 221.980 M 119.520 105.650 L 118.356 108.611 L 117.037 112.810 L 116.011 117.008 L 115.229 121.207 M 302.941 112.810 L 303.976 117.008 L 304.769 121.207 L 305.120 123.672 M 114.880 123.728 L 114.641 125.406 L 114.208 129.605 L 113.909 133.804 L 113.715 138.003 L 113.603 142.202 L 113.556 146.401 L 113.567 150.599 L 113.634 154.798 L 113.765 158.997 L 113.977 163.196 L 114.290 167.395 L 114.734 171.594 L 114.880 172.607 L 115.325 175.793 L 116.105 179.992 L 117.124 184.190 L 118.430 188.389 L 119.520 191.194 L 120.060 192.588 L 122.048 196.787 L 124.160 200.426 L 124.490 200.986 L 127.410 205.185 L 128.800 206.888 L 130.917 209.384 L 133.440 211.966 L 135.107 213.583 L 138.080 216.142 L 140.124 217.781 L 142.720 219.672 L 146.182 221.980 L 147.360 222.708 L 152.000 225.335 L 153.652 226.179 L 156.640 227.631 L 161.280 229.633 L 163.218 230.378 L 165.920 231.389 L 170.560 232.919 L 175.200 234.233 L 176.596 234.577 L 179.840 235.377 L 184.480 236.346 L 189.120 237.142 L 193.760 237.772 L 198.400 238.240 L 203.040 238.549 L 207.680 238.701 L 212.320 238.696 L 216.960 238.537 L 221.600 238.225 L 226.240 237.760 L 230.880 237.138 L 235.520 236.354 L 240.160 235.397 L 243.517 234.577 M 305.822 129.605 L 306.135 133.804 L 306.341 138.003 L 306.464 142.202 L 306.520 146.401 L 306.516 150.599 L 306.453 154.798 L 306.323 158.997 L 306.110 163.196 L 305.793 167.395 L 305.343 171.594 M 304.742 175.793 L 303.951 179.992 L 302.921 184.190 L 301.603 188.389 M 128.800 86.313 L 127.587 87.616 L 124.203 91.815 L 121.344 96.014 M 119.520 99.252 L 118.984 100.213 L 117.020 104.412 L 115.442 108.611 M 114.880 110.474 L 114.165 112.810 L 113.155 117.008 L 112.385 121.207 L 111.814 125.406 L 111.405 129.605 L 111.123 133.804 L 110.940 138.003 L 110.835 142.202 L 110.793 146.401 L 110.804 150.599 L 110.869 154.798 L 110.995 158.997 L 111.196 163.196 L 111.493 167.395 L 111.914 171.594 L 112.491 175.793 L 113.260 179.992 L 114.264 184.190 L 114.880 186.226 L 115.524 188.389 L 117.085 192.588 L 119.030 196.787 L 119.520 197.675 L 121.366 200.986 L 124.160 205.124 M 306.831 117.008 L 307.612 121.207 L 308.198 125.406 L 308.623 129.605 L 308.919 133.804 L 309.115 138.003 L 309.232 142.202 L 309.285 146.401 L 309.281 150.599 L 309.222 154.798 L 309.098 158.997 L 308.896 163.196 L 308.595 167.395 L 308.168 171.594 L 307.583 175.793 L 306.803 179.992 L 305.786 184.190 M 127.559 209.384 L 128.800 210.725 L 131.567 213.583 L 133.440 215.293 L 136.341 217.781 L 138.080 219.130 L 142.057 221.980 L 142.720 222.419 L 147.360 225.261 L 149.013 226.179 L 152.000 227.750 L 156.640 229.925 L 157.710 230.378 L 161.280 231.845 L 165.920 233.520 L 169.268 234.577 L 170.560 234.982 L 175.200 236.266 L 179.840 237.360 L 184.480 238.278 L 187.516 238.776 L 189.120 239.045 L 193.760 239.670 L 198.400 240.134 L 203.040 240.440 L 207.680 240.589 L 212.320 240.584 L 216.960 240.425 L 221.600 240.114 L 226.240 239.652 L 230.880 239.024 L 232.453 238.776 M 286.560 215.287 L 281.920 219.162 L 277.280 222.413 L 277.925 221.980 M 128.800 82.684 L 128.036 83.417 L 124.176 87.616 L 120.900 91.815 M 114.880 102.423 L 113.984 104.412 L 112.434 108.611 L 111.208 112.810 L 110.253 117.008 M 307.540 108.611 L 308.769 112.810 L 309.731 117.008 L 309.760 117.174 M 110.240 117.083 L 109.493 121.207 L 108.929 125.406 L 108.525 129.605 L 108.246 133.804 L 108.067 138.003 L 107.964 142.202 L 107.923 146.401 L 107.936 150.599 L 108.001 154.798 L 108.127 158.997 L 108.327 163.196 L 108.622 167.395 L 109.039 171.594 L 109.610 175.793 L 110.240 179.278 L 110.365 179.992 L 111.312 184.190 L 112.526 188.389 L 114.059 192.588 L 114.880 194.431 L 115.926 196.787 L 118.190 200.986 L 119.520 203.056 L 120.911 205.185 L 124.160 209.379 M 311.079 125.406 L 311.499 129.605 L 311.793 133.804 L 311.987 138.003 L 312.103 142.202 L 312.156 146.401 L 312.153 150.599 L 312.094 154.798 L 311.972 158.997 L 311.773 163.196 L 311.475 167.395 L 311.051 171.594 L 310.471 175.793 M 309.701 179.992 L 308.740 184.190 L 307.513 188.389 L 305.969 192.588 M 127.996 213.583 L 128.800 214.358 L 132.546 217.781 L 133.440 218.517 L 137.959 221.980 L 138.080 222.066 L 142.720 225.130 L 144.468 226.179 L 147.360 227.815 L 152.000 230.165 L 152.459 230.378 L 156.640 232.249 L 161.280 234.069 L 162.727 234.577 L 165.920 235.685 L 170.560 237.096 L 175.200 238.310 L 177.259 238.776 L 179.840 239.369 L 184.480 240.277 L 189.120 241.023 L 193.760 241.614 L 198.400 242.052 L 203.040 242.341 L 207.680 242.481 L 212.320 242.475 L 216.960 242.323 L 221.600 242.029 L 226.240 241.591 L 230.880 241.007 L 235.520 240.272 L 240.160 239.351 L 242.808 238.776 M 291.200 214.362 L 286.560 218.537 L 281.920 222.059 L 282.029 221.980 M 119.520 89.138 L 117.534 91.815 L 114.911 96.014 L 112.678 100.213 L 110.863 104.412 M 110.240 106.175 L 109.366 108.611 L 108.157 112.810 L 107.217 117.008 L 106.501 121.207 L 105.970 125.406 M 311.814 112.810 L 312.760 117.008 L 313.487 121.207 L 314.031 125.406 L 314.400 129.313 M 105.600 129.487 L 105.589 129.605 L 105.313 133.804 L 105.136 138.003 L 105.035 142.202 L 104.996 146.401 L 105.010 150.599 L 105.076 154.798 L 105.202 158.997 L 105.401 163.196 L 105.600 166.039 L 105.690 167.395 L 106.083 171.594 L 106.621 175.793 L 107.337 179.992 L 108.271 184.190 L 109.467 188.389 L 110.240 190.570 L 110.943 192.588 L 112.740 196.787 L 114.880 200.849 L 114.952 200.986 L 117.556 205.185 L 119.520 207.848 L 120.680 209.384 L 124.160 213.347 L 124.375 213.583 L 128.721 217.781 L 128.800 217.850 L 133.440 221.662 L 133.855 221.980 L 138.080 224.958 L 139.973 226.179 L 142.720 227.842 L 147.360 230.370 M 314.721 133.804 L 314.914 138.003 L 315.030 142.202 L 315.083 146.401 L 315.081 150.599 L 315.024 154.798 L 314.903 158.997 L 314.705 163.196 L 314.409 167.395 L 309.760 212.370 M 314.009 171.594 L 313.462 175.793 L 312.734 179.992 L 311.786 184.190 L 310.575 188.389 M 272.640 230.374 L 268.000 232.596 L 263.360 234.606 L 263.432 234.577 M 161.280 236.347 L 165.920 237.883 L 168.999 238.776 L 170.560 239.232 L 175.200 240.426 L 179.840 241.444 L 184.480 242.299 L 188.938 242.975 L 189.120 243.003 L 193.760 243.593 L 198.400 244.030 L 203.040 244.318 L 207.680 244.457 L 212.320 244.449 L 216.960 244.296 L 221.600 244.001 L 226.240 243.563 L 230.880 242.979 M 110.240 98.574 L 109.407 100.213 L 107.626 104.412 L 106.196 108.611 M 105.600 110.792 L 105.034 112.810 L 104.105 117.008 L 103.398 121.207 L 102.873 125.406 L 102.497 129.605 L 102.238 133.804 L 102.072 138.003 L 101.979 142.202 L 101.942 146.401 L 101.956 150.599 L 102.019 154.798 L 102.138 158.997 L 102.327 163.196 L 102.603 167.395 L 102.993 171.594 L 103.525 175.793 L 104.233 179.992 L 105.156 184.190 L 105.600 185.792 L 106.300 188.389 L 107.714 192.588 L 109.477 196.787 L 110.240 198.303 L 111.586 200.986 L 114.125 205.185 L 114.880 206.258 L 117.118 209.384 L 119.520 212.256 L 120.665 213.583 L 124.160 217.134 L 124.828 217.781 L 128.800 221.234 L 129.714 221.980 L 133.440 224.765 L 135.488 226.179 L 138.080 227.851 L 142.397 230.378 L 142.720 230.558 L 147.360 232.965 L 150.863 234.577 L 152.000 235.087 L 156.640 236.986 L 161.280 238.642 L 161.696 238.776 L 165.920 240.142 L 170.560 241.445 L 175.200 242.565 L 177.158 242.975 L 179.840 243.552 L 184.480 244.403 L 189.120 245.101 L 193.760 245.653 L 198.400 246.063 L 203.040 246.332 L 207.680 246.461 L 212.320 246.453 L 216.960 246.308 L 221.600 246.030 L 226.240 245.617 L 230.880 245.069 L 235.520 244.380 L 240.160 243.511 L 242.840 242.975 M 315.864 117.008 L 316.581 121.207 L 317.118 125.406 L 317.510 129.605 L 317.784 133.804 L 317.967 138.003 L 318.078 142.202 L 318.130 146.401 L 318.129 150.599 L 318.076 154.798 L 317.964 158.997 L 317.778 163.196 L 317.500 167.395 L 317.105 171.594 L 316.564 175.793 L 315.844 179.992 L 314.906 184.190 M 286.560 224.765 L 281.920 227.848 L 277.280 230.558 L 277.607 230.378 M 105.600 101.253 L 104.296 104.412 L 102.889 108.611 L 101.775 112.810 M 100.960 116.749 L 100.904 117.008 L 100.204 121.207 L 99.684 125.406 L 99.312 129.605 L 99.056 133.804 L 98.892 138.003 L 98.799 142.202 L 98.764 146.401 L 98.778 150.599 L 98.841 154.798 L 98.960 158.997 L 99.148 163.196 L 99.423 167.395 L 99.810 171.594 L 100.338 175.793 L 100.960 179.523 L 101.035 179.992 L 101.896 184.190 L 102.999 188.389 L 104.390 192.588 L 105.600 195.553 L 106.096 196.787 L 108.123 200.986 L 110.240 204.597 L 110.586 205.185 L 113.463 209.384 L 114.880 211.159 L 116.863 213.583 L 119.520 216.417 L 120.850 217.781 L 124.160 220.810 L 125.511 221.980 L 128.800 224.577 L 130.978 226.179 L 133.440 227.864 L 137.453 230.378 L 138.080 230.750 L 142.720 233.315 L 145.258 234.577 L 147.360 235.592 L 152.000 237.618 L 154.976 238.776 L 156.640 239.419 L 161.280 241.036 L 165.920 242.442 L 167.909 242.975 L 170.560 243.699 L 175.200 244.808 L 179.840 245.753 L 184.480 246.547 L 188.938 247.174 L 189.120 247.200 L 193.760 247.754 L 198.400 248.164 L 203.040 248.433 L 207.680 248.561 L 212.320 248.551 L 216.960 248.405 L 221.600 248.124 L 226.240 247.709 L 230.750 247.174 M 319.763 121.207 L 320.294 125.406 L 320.682 129.605 L 320.955 133.804 L 321.138 138.003 L 321.250 142.202 L 321.303 146.401 L 321.304 150.599 L 321.253 154.798 L 321.143 158.997 L 320.960 163.196 L 320.685 167.395 L 320.294 171.594 L 319.758 175.793 L 319.043 179.992 L 314.400 200.574 M 291.200 224.584 L 286.560 227.866 L 281.920 230.748 L 282.552 230.378 M 235.520 246.516 L 240.160 245.735 L 244.800 244.805 L 249.440 243.711 L 252.159 242.975 M 100.960 104.139 L 100.852 104.412 L 99.468 108.611 L 98.371 112.810 L 97.516 117.008 L 96.865 121.207 L 96.382 125.406 M 320.484 108.611 L 321.577 112.810 L 322.433 117.008 L 323.090 121.207 L 323.584 125.406 L 323.680 126.519 M 96.320 126.153 L 96.017 129.605 L 95.763 133.804 L 95.600 138.003 L 95.508 142.202 L 95.473 146.401 L 95.487 150.599 L 95.551 154.798 L 95.670 158.997 L 95.857 163.196 L 96.131 167.395 L 96.320 169.466 L 96.503 171.594 L 96.994 175.793 L 97.647 179.992 L 98.496 184.190 L 99.582 188.389 L 100.951 192.588 L 100.960 192.610 L 102.560 196.787 L 104.542 200.986 L 105.600 202.870 L 106.897 205.185 L 109.693 209.384 L 110.240 210.101 L 112.948 213.583 L 114.880 215.742 L 116.766 217.781 L 119.520 220.427 L 121.216 221.980 L 124.160 224.428 L 126.405 226.179 L 128.800 227.911 L 132.497 230.378 L 133.440 230.973 L 138.080 233.690 L 139.739 234.577 L 142.720 236.117 L 147.360 238.268 L 148.562 238.776 L 152.000 240.213 L 156.640 241.934 L 159.809 242.975 L 161.280 243.464 L 165.920 244.849 L 170.560 246.047 L 175.200 247.077 L 175.698 247.174 L 179.840 248.012 L 184.480 248.804 L 189.120 249.454 L 193.760 249.967 L 198.400 250.347 L 203.040 250.596 L 207.680 250.714 L 212.320 250.703 L 216.960 250.566 L 221.600 250.303 L 226.240 249.916 L 230.880 249.404 L 235.520 248.761 L 240.160 247.926 L 244.223 247.174 M 324.234 133.804 L 324.418 138.003 L 324.531 142.202 L 324.586 146.401 L 324.590 150.599 L 324.541 154.798 L 324.434 158.997 L 324.253 163.196 L 323.982 167.395 M 323.600 171.594 L 323.101 175.793 L 322.437 179.992 L 321.573 184.190 L 320.471 188.389 L 319.087 192.588 M 300.480 220.445 L 295.840 224.479 L 291.200 227.918 L 286.560 230.970 L 287.514 230.378 M 249.440 246.050 L 254.080 244.866 L 258.720 243.493 L 260.285 242.975 M 100.960 95.632 L 100.753 96.014 L 98.799 100.213 L 97.210 104.412 M 96.320 107.309 L 95.906 108.611 L 94.826 112.810 L 93.985 117.008 L 93.343 121.207 L 92.867 125.406 L 92.525 129.605 L 92.290 133.804 L 92.139 138.003 L 92.053 142.202 L 92.020 146.401 L 92.033 150.599 L 92.093 154.798 L 92.203 158.997 L 92.377 163.196 L 92.631 167.395 L 92.987 171.594 L 93.472 175.793 L 94.116 179.992 L 94.954 184.190 L 96.024 188.389 L 96.320 189.333 L 97.306 192.588 L 98.879 196.787 L 100.818 200.986 L 100.960 201.249 L 103.062 205.185 L 105.600 209.120 L 105.771 209.384 L 108.891 213.583 L 110.240 215.158 L 112.547 217.781 L 114.880 220.129 L 116.797 221.980 L 119.520 224.356 L 121.729 226.179 L 124.160 228.029 L 127.477 230.378 L 128.800 231.259 L 133.440 234.122 L 134.236 234.577 L 138.080 236.693 L 142.322 238.776 L 142.720 238.967 L 147.360 241.043 L 152.000 242.860 L 152.319 242.975 L 156.640 244.538 L 161.280 246.009 L 165.488 247.174 L 165.920 247.297 L 170.560 248.486 L 175.200 249.508 L 179.840 250.378 L 184.480 251.108 L 186.501 251.372 L 189.120 251.737 L 193.760 252.252 L 198.400 252.632 L 203.040 252.881 L 207.680 252.999 L 212.320 252.986 L 216.960 252.846 L 221.600 252.581 L 226.240 252.191 L 230.880 251.649 L 233.070 251.372 M 325.111 112.810 L 325.952 117.008 L 326.598 121.207 L 327.084 125.406 L 327.440 129.605 L 327.693 133.804 L 327.865 138.003 L 327.973 142.202 L 328.027 146.401 L 328.033 150.599 L 327.991 154.798 L 327.893 158.997 L 327.728 163.196 L 327.477 167.395 L 327.120 171.594 L 326.629 175.793 L 325.974 179.992 L 325.122 184.190 L 324.036 188.389 M 300.480 224.374 L 295.840 228.041 L 291.200 231.256 L 292.540 230.378 M 96.320 97.140 L 94.939 100.213 L 93.386 104.412 L 92.137 108.611 M 91.680 110.523 L 91.108 112.810 L 90.280 117.008 L 89.649 121.207 L 89.180 125.406 L 88.843 129.605 L 88.611 133.804 L 88.461 138.003 L 88.375 142.202 L 88.342 146.401 L 88.355 150.599 L 88.413 154.798 L 88.522 158.997 L 88.693 163.196 L 88.944 167.395 L 89.296 171.594 L 89.774 175.793 L 90.409 179.992 L 91.234 184.190 L 91.680 185.990 L 92.247 188.389 L 93.483 192.588 L 95.021 196.787 L 96.320 199.704 L 96.878 200.986 L 99.050 205.185 L 100.960 208.271 L 101.647 209.384 L 104.659 213.583 L 105.600 214.729 L 108.156 217.781 L 110.240 219.972 L 112.217 221.980 L 114.880 224.414 L 116.910 226.179 L 119.520 228.264 L 122.344 230.378 L 124.160 231.651 L 128.683 234.577 L 128.800 234.649 L 133.440 237.354 L 136.146 238.776 L 138.080 239.767 L 142.720 241.939 L 145.177 242.975 L 147.360 243.893 L 152.000 245.660 L 156.539 247.174 L 156.640 247.208 L 161.280 248.658 L 165.920 249.918 L 170.560 251.009 L 172.323 251.372 L 175.200 251.996 L 179.840 252.864 L 184.480 253.592 L 189.120 254.189 L 193.760 254.660 L 198.400 255.008 L 203.040 255.234 L 207.680 255.341 L 212.320 255.328 L 216.960 255.198 L 221.600 254.953 L 226.240 254.594 L 230.880 254.120 L 235.520 253.527 L 240.160 252.809 L 244.800 251.910 L 247.556 251.372 M 329.644 117.008 L 330.278 121.207 L 330.756 125.406 L 331.107 129.605 L 331.358 133.804 L 331.530 138.003 L 331.639 142.202 L 331.696 146.401 L 331.706 150.599 L 331.667 154.798 L 331.573 158.997 L 331.411 163.196 L 331.166 167.395 L 330.814 171.594 L 330.331 175.793 L 329.687 179.992 L 328.848 184.190 M 314.400 214.762 L 309.760 220.075 L 305.120 224.475 L 300.480 228.279 L 295.840 231.646 L 291.200 234.662 L 291.342 234.577 M 91.680 98.317 L 90.859 100.213 L 89.346 104.412 L 88.128 108.611 L 87.163 112.810 M 330.599 104.412 L 331.804 108.611 L 332.760 112.810 L 332.960 113.913 M 87.040 113.483 L 86.360 117.008 L 85.741 121.207 L 85.280 125.406 L 84.948 129.605 L 84.719 133.804 L 84.570 138.003 L 84.485 142.202 L 84.451 146.401 L 84.463 150.599 L 84.519 154.798 L 84.626 158.997 L 84.794 163.196 L 85.041 167.395 L 85.387 171.594 L 85.857 175.793 L 86.482 179.992 L 87.040 182.897 L 87.275 184.190 L 88.233 188.389 L 89.440 192.588 L 90.941 196.787 L 91.680 198.509 L 92.713 200.986 L 94.817 205.185 L 96.320 207.711 L 97.308 209.384 L 100.208 213.583 L 100.960 214.538 L 103.552 217.781 L 105.600 220.029 L 107.431 221.980 L 110.240 224.662 L 111.899 226.179 L 114.880 228.672 L 117.042 230.378 L 119.520 232.202 L 122.993 234.577 L 124.160 235.335 L 128.800 238.142 L 129.932 238.776 L 133.440 240.684 L 138.080 242.936 L 138.165 242.975 L 142.720 245.026 L 147.360 246.860 L 148.226 247.174 L 152.000 248.563 L 156.640 250.074 L 161.205 251.372 L 161.280 251.395 L 165.920 252.643 L 170.560 253.723 L 175.200 254.650 L 179.840 255.439 L 180.751 255.571 L 184.480 256.154 L 189.120 256.750 L 193.760 257.220 L 198.400 257.567 L 203.040 257.793 L 207.680 257.899 L 212.320 257.885 L 216.960 257.753 L 221.600 257.506 L 226.240 257.145 L 230.880 256.668 L 235.520 256.026 L 238.778 255.571 M 334.175 121.207 L 334.643 125.406 L 334.989 129.605 L 335.237 133.804 L 335.409 138.003 L 335.519 142.202 L 335.579 146.401 L 335.592 150.599 L 335.557 154.798 L 335.467 158.997 L 335.310 163.196 L 335.070 167.395 L 334.725 171.594 L 334.251 175.793 L 333.618 179.992 M 332.807 184.190 L 331.834 188.389 L 330.613 192.588 L 329.100 196.787 M 314.400 220.063 L 309.760 224.733 L 305.120 228.692 L 300.480 232.190 M 87.040 98.929 L 86.504 100.213 L 85.035 104.412 L 83.854 108.611 L 82.917 112.810 M 334.908 104.412 L 336.076 108.611 L 337.003 112.810 L 337.600 116.253 M 82.400 115.761 L 82.168 117.008 L 81.563 121.207 L 81.112 125.406 L 80.787 129.605 L 80.561 133.804 L 80.414 138.003 L 80.329 142.202 L 80.294 146.401 L 80.303 150.599 L 80.357 154.798 L 80.461 158.997 L 80.625 163.196 L 80.866 167.395 L 81.204 171.594 L 81.665 175.793 L 82.276 179.992 L 82.400 180.658 L 83.017 184.190 L 83.950 188.389 L 85.123 192.588 L 86.581 196.787 L 87.040 197.894 L 88.277 200.986 L 90.308 205.185 L 91.680 207.579 L 92.700 209.384 L 95.481 213.583 L 96.320 214.691 L 98.680 217.781 L 100.960 220.388 L 102.386 221.980 L 105.600 225.181 L 106.640 226.179 L 110.240 229.324 L 111.510 230.378 L 114.880 232.974 L 117.104 234.577 L 119.520 236.225 L 123.582 238.776 L 124.160 239.126 L 128.800 241.767 L 131.139 242.975 L 133.440 244.145 L 138.080 246.293 L 140.175 247.174 L 142.720 248.251 L 147.360 250.024 L 151.354 251.372 L 152.000 251.597 L 156.640 253.078 L 161.280 254.372 L 165.920 255.497 L 166.262 255.571 L 170.560 256.561 L 175.200 257.481 L 179.840 258.263 L 184.480 258.917 L 189.120 259.453 L 192.600 259.770 L 193.760 259.886 L 198.400 260.233 L 203.040 260.458 L 207.680 260.563 L 212.320 260.547 L 216.960 260.414 L 221.600 260.164 L 226.240 259.796 L 226.522 259.770 M 338.346 121.207 L 338.803 125.406 L 339.142 129.605 L 339.386 133.804 L 339.556 138.003 L 339.667 142.202 L 339.729 146.401 L 339.746 150.599 L 339.715 154.798 L 339.630 158.997 L 339.478 163.196 L 339.244 167.395 L 338.908 171.594 L 338.444 175.793 L 337.825 179.992 M 337.066 184.190 L 336.120 188.389 L 334.933 192.588 L 333.464 196.787 M 319.040 220.428 L 314.400 225.266 L 309.760 229.348 L 305.120 232.952 M 305.120 232.995 L 300.480 236.193 L 295.840 239.132 L 296.455 238.776 M 235.520 258.830 L 240.160 258.183 L 244.800 257.417 L 249.440 256.519 L 253.666 255.571 M 82.400 98.724 L 81.800 100.213 L 80.384 104.412 L 79.246 108.611 L 78.343 112.810 M 339.564 104.412 L 340.688 108.611 L 341.580 112.810 L 342.240 116.776 M 77.760 116.272 L 77.627 117.008 L 77.040 121.207 L 76.602 125.406 L 76.285 129.605 L 76.065 133.804 L 75.920 138.003 L 75.835 142.202 L 75.799 146.401 L 75.806 150.599 L 75.856 154.798 L 75.955 158.997 L 76.113 163.196 L 76.346 167.395 L 76.674 171.594 L 77.121 175.793 L 77.715 179.992 L 77.760 180.241 L 78.425 184.190 L 79.326 188.389 L 80.459 192.588 L 81.867 196.787 L 82.400 198.117 L 83.504 200.986 L 85.452 205.185 L 87.040 208.057 L 87.759 209.384 L 90.408 213.583 L 91.680 215.327 L 93.473 217.781 L 96.320 221.166 L 97.017 221.980 L 100.960 226.070 L 101.068 226.179 L 105.600 230.308 L 105.681 230.378 L 110.240 234.047 L 110.939 234.577 L 114.880 237.390 L 116.973 238.776 L 119.520 240.394 L 123.972 242.975 L 124.160 243.081 L 128.800 245.568 L 132.155 247.174 L 133.440 247.787 L 138.080 249.837 L 142.005 251.372 L 142.720 251.658 L 147.360 253.374 L 152.000 254.879 L 154.376 255.571 L 156.640 256.262 L 161.280 257.531 L 165.920 258.635 L 170.560 259.588 L 171.565 259.770 L 175.200 260.479 L 179.840 261.254 L 184.480 261.902 L 189.120 262.431 L 193.760 262.847 L 198.400 263.154 L 203.040 263.352 L 207.680 263.444 L 212.320 263.429 L 216.960 263.309 L 221.600 263.086 L 226.240 262.761 L 230.880 262.333 L 235.520 261.800 L 240.160 261.158 L 244.800 260.398 L 248.114 259.770 M 342.868 121.207 L 343.311 125.406 L 343.640 129.605 L 343.878 133.804 L 344.045 138.003 L 344.156 142.202 L 344.220 146.401 L 344.239 150.599 L 344.213 154.798 L 344.133 158.997 L 343.987 163.196 L 343.761 167.395 L 343.434 171.594 L 342.984 175.793 L 342.383 179.992 M 341.655 184.190 L 340.741 188.389 L 339.596 192.588 L 338.177 196.787 M 323.680 221.209 L 319.040 226.175 L 314.400 230.336 L 309.760 234.011 L 305.120 237.324 M 254.080 258.612 L 258.720 257.538 L 263.360 256.297 L 265.770 255.571" fill="none" stroke="#00AEEF" stroke-width="1" vector-effect="non-scaling-stroke"/></svg>