<svg xmlns="http://www.w3.org/2000/svg" viewBox="68.10641759854087 45.33241584973456 284.78572492124925 414.3997120127755" width="284.78572492124925" height="414.3997120127755" shape-rendering="geometricPrecision"><rect x="68.10641759854087" y="45.33241584973456" width="284.78572492124925" height="414.3997120127755" fill="#0b0f14"/><path d="M 203.835 316.890 L 203.835 166.376 M 221.835 325.890 L 221.835 175.376 M 203.835 334.890 L 203.835 184.376 M 185.835 325.890 L 185.835 175.376 M 203.835 166.376 L 221.835 175.376 L 203.835 184.376 L 185.835 175.376 L 203.835 166.376 M 203.835 316.890 L 221.835 325.890 M 221.835 325.890 L 203.835 334.890 M 203.835 334.890 L 185.835 325.890 M 185.835 325.890 L 203.835 316.890 M 218.892 326.867 L 218.892 144.930 M 236.892 335.867 L 236.892 153.930 M 218.892 344.867 L 218.892 162.930 M 200.892 335.867 L 200.892 153.930 M 218.892 144.930 L 236.892 153.930 L 218.892 162.930 L 200.892 153.930 L 218.892 144.930 M 218.892 326.867 L 236.892 335.867 M 236.892 335.867 L 218.892 344.867 M 218.892 344.867 L 200.892 335.867 M 200.892 335.867 L 218.892 326.867 M 237.865 335.731 L 237.865 53.332 M 255.865 344.731 L 255.865 62.332 M 237.865 353.731 L 237.865 71.332 M 219.865 344.731 L 219.865 62.332 M 237.865 53.332 L 255.865 62.332 L 237.865 71.332 L 219.865 62.332 L 237.865 53.332 M 237.865 335.731 L 255.865 344.731 M 255.865 344.731 L 237.865 353.731 M 237.865 353.731 L 219.865 344.731 M 219.865 344.731 L 237.865 335.731 M 257.016 344.472 L 257.016 277.673 M 275.016 353.472 L 275.016 286.673 M 257.016 362.472 L 257.016 295.673 M 239.016 353.472 L 239.016 286.673 M 257.016 277.673 L 275.016 286.673 L 257.016 295.673 L 239.016 286.673 L 257.016 277.673 M 257.016 344.472 L 275.016 353.472 M 275.016 353.472 L 257.016 362.472 M 257.016 362.472 L 239.016 353.472 M 239.016 353.472 L 257.016 344.472 M 292.990 361.303 L 292.990 221.134 M 310.990 370.303 L 310.990 230.134 M 292.990 379.303 L 292.990 239.134 M 274.990 370.303 L 274.990 230.134 M 292.990 221.134 L 310.990 230.134 L 292.990 239.134 L 274.990 230.134 L 292.990 221.134 M 292.990 361.303 L 310.990 370.303 M 310.990 370.303 L 292.990 379.303 M 292.990 379.303 L 274.990 370.303 M 274.990 370.303 L 292.990 361.303 M 326.892 378.030 L 326.892 283.611 M 344.892 387.030 L 344.892 292.611 M 326.892 396.030 L 326.892 301.611 M 308.892 387.030 L 308.892 292.611 M 326.892 283.611 L 344.892 292.611 L 326.892 301.611 L 308.892 292.611 L 326.892 283.611 M 326.892 378.030 L 344.892 387.030 M 344.892 387.030 L 326.892 396.030 M 326.892 396.030 L 308.892 387.030 M 308.892 387.030 L 326.892 378.030 M 197.800 335.318 L 197.800 97.907 M 215.800 344.318 L 215.800 106.907 M 197.800 353.318 L 197.800 115.907 M 179.800 344.318 L 179.800 106.907 M 197.800 97.907 L 215.800 106.907 L 197.800 115.907 L 179.800 106.907 L 197.800 97.907 M 197.800 335.318 L 215.800 344.318 M 215.800 344.318 L 197.800 353.318 M 197.800 353.318 L 179.800 344.318 M 179.800 344.318 L 197.800 335.318 M 219.499 342.861 L 219.499 56.220 M 237.499 351.861 L 237.499 65.220 M 219.499 360.861 L 219.499 74.220 M 201.499 351.861 L 201.499 65.220 M 219.499 56.220 L 237.499 65.220 L 219.499 74.220 L 201.499 65.220 L 219.499 56.220 M 219.499 342.861 L 237.499 351.861 M 237.499 351.861 L 219.499 360.861 M 219.499 360.861 L 201.499 351.861 M 201.499 351.861 L 219.499 342.861 M 236.422 353.395 L 236.422 67.046 M 254.422 362.395 L 254.422 76.046 M 236.422 371.395 L 236.422 85.046 M 218.422 362.395 L 218.422 76.046 M 236.422 67.046 L 254.422 76.046 L 236.422 85.046 L 218.422 76.046 L 236.422 67.046 M 236.422 353.395 L 254.422 362.395 M 254.422 362.395 L 236.422 371.395 M 236.422 371.395 L 218.422 362.395 M 218.422 362.395 L 236.422 353.395 M 258.394 361.814 L 258.394 175.140 M 276.394 370.814 L 276.394 184.140 M 258.394 379.814 L 258.394 193.140 M 240.394 370.814 L 240.394 184.140 M 258.394 175.140 L 276.394 184.140 L 258.394 193.140 L 240.394 184.140 L 258.394 175.140 M 258.394 361.814 L 276.394 370.814 M 276.394 370.814 L 258.394 379.814 M 258.394 379.814 L 240.394 370.814 M 240.394 370.814 L 258.394 361.814 M 289.379 379.274 L 289.379 204.163 M 307.379 388.274 L 307.379 213.163 M 289.379 397.274 L 289.379 222.163 M 271.379 388.274 L 271.379 213.163 M 289.379 204.163 L 307.379 213.163 L 289.379 222.163 L 271.379 213.163 L 289.379 204.163 M 289.379 379.274 L 307.379 388.274 M 307.379 388.274 L 289.379 397.274 M 289.379 397.274 L 271.379 388.274 M 271.379 388.274 L 289.379 379.274 M 166.803 334.082 L 166.803 134.841 M 184.803 343.082 L 184.803 143.841 M 166.803 352.082 L 166.803 152.841 M 148.803 343.082 L 148.803 143.841 M 166.803 134.841 L 184.803 143.841 L 166.803 152.841 L 148.803 143.841 L 166.803 134.841 M 166.803 334.082 L 184.803 343.082 M 184.803 343.082 L 166.803 352.082 M 166.803 352.082 L 148.803 343.082 M 148.803 343.082 L 166.803 334.082 M 181.454 344.845 L 181.454 106.827 M 199.454 353.845 L 199.454 115.827 M 181.454 362.845 L 181.454 124.827 M 163.454 353.845 L 163.454 115.827 M 181.454 106.827 L 199.454 115.827 L 181.454 124.827 L 163.454 115.827 L 181.454 106.827 M 181.454 344.845 L 199.454 353.845 M 199.454 353.845 L 181.454 362.845 M 181.454 362.845 L 163.454 353.845 M 163.454 353.845 L 181.454 344.845 M 254.686 381.678 L 254.686 206.439 M 272.686 390.678 L 272.686 215.439 M 254.686 399.678 L 254.686 224.439 M 236.686 390.678 L 236.686 215.439 M 254.686 206.439 L 272.686 215.439 L 254.686 224.439 L 236.686 215.439 L 254.686 206.439 M 254.686 381.678 L 272.686 390.678 M 272.686 390.678 L 254.686 399.678 M 254.686 399.678 L 236.686 390.678 M 236.686 390.678 L 254.686 381.678 M 272.277 388.236 L 272.277 293.864 M 290.277 397.236 L 290.277 302.864 M 272.277 406.236 L 272.277 311.864 M 254.277 397.236 L 254.277 302.864 M 272.277 293.864 L 290.277 302.864 L 272.277 311.864 L 254.277 302.864 L 272.277 293.864 M 272.277 388.236 L 290.277 397.236 M 290.277 397.236 L 272.277 406.236 M 272.277 406.236 L 254.277 397.236 M 254.277 397.236 L 272.277 388.236 M 292.904 397.332 L 292.904 237.154 M 310.904 406.332 L 310.904 246.154 M 292.904 415.332 L 292.904 255.154 M 274.904 406.332 L 274.904 246.154 M 292.904 237.154 L 310.904 246.154 L 292.904 255.154 L 274.904 246.154 L 292.904 237.154 M 292.904 397.332 L 310.904 406.332 M 310.904 406.332 L 292.904 415.332 M 292.904 415.332 L 274.904 406.332 M 274.904 406.332 L 292.904 397.332 M 144.818 343.646 L 144.818 231.695 M 162.818 352.646 L 162.818 240.695 M 144.818 361.646 L 144.818 249.695 M 126.818 352.646 L 126.818 240.695 M 144.818 231.695 L 162.818 240.695 L 144.818 249.695 L 126.818 240.695 L 144.818 231.695 M 144.818 343.646 L 162.818 352.646 M 162.818 352.646 L 144.818 361.646 M 144.818 361.646 L 126.818 352.646 M 126.818 352.646 L 144.818 343.646 M 161.519 353.394 L 161.519 87.228 M 179.519 362.394 L 179.519 96.228 M 161.519 371.394 L 161.519 105.228 M 143.519 362.394 L 143.519 96.228 M 161.519 87.228 L 179.519 96.228 L 161.519 105.228 L 143.519 96.228 L 161.519 87.228 M 161.519 353.394 L 179.519 362.394 M 179.519 362.394 L 161.519 371.394 M 161.519 371.394 L 143.519 362.394 M 143.519 362.394 L 161.519 353.394 M 201.700 369.442 L 201.700 228.459 M 219.700 378.442 L 219.700 237.459 M 201.700 387.442 L 201.700 246.459 M 183.700 378.442 L 183.700 237.459 M 201.700 228.459 L 219.700 237.459 L 201.700 246.459 L 183.700 237.459 L 201.700 228.459 M 201.700 369.442 L 219.700 378.442 M 219.700 378.442 L 201.700 387.442 M 201.700 387.442 L 183.700 378.442 M 183.700 378.442 L 201.700 369.442 M 219.937 381.371 L 219.937 260.426 M 237.937 390.371 L 237.937 269.426 M 219.937 399.371 L 219.937 278.426 M 201.937 390.371 L 201.937 269.426 M 219.937 260.426 L 237.937 269.426 L 219.937 278.426 L 201.937 269.426 L 219.937 260.426 M 219.937 381.371 L 237.937 390.371 M 237.937 390.371 L 219.937 399.371 M 219.937 399.371 L 201.937 390.371 M 201.937 390.371 L 219.937 381.371 M 236.198 388.937 L 236.198 257.853 M 254.198 397.937 L 254.198 266.853 M 236.198 406.937 L 236.198 275.853 M 218.198 397.937 L 218.198 266.853 M 236.198 257.853 L 254.198 266.853 L 236.198 275.853 L 218.198 266.853 L 236.198 257.853 M 236.198 388.937 L 254.198 397.937 M 254.198 397.937 L 236.198 406.937 M 236.198 406.937 L 218.198 397.937 M 218.198 397.937 L 236.198 388.937 M 252.769 397.207 L 252.769 109.435 M 270.769 406.207 L 270.769 118.435 M 252.769 415.207 L 252.769 127.435 M 234.769 406.207 L 234.769 118.435 M 252.769 109.435 L 270.769 118.435 L 252.769 127.435 L 234.769 118.435 L 252.769 109.435 M 252.769 397.207 L 270.769 406.207 M 270.769 406.207 L 252.769 415.207 M 252.769 415.207 L 234.769 406.207 M 234.769 406.207 L 252.769 397.207 M 129.395 353.103 L 129.395 258.123 M 147.395 362.103 L 147.395 267.123 M 129.395 371.103 L 129.395 276.123 M 111.395 362.103 L 111.395 267.123 M 129.395 258.123 L 147.395 267.123 L 129.395 276.123 L 111.395 267.123 L 129.395 258.123 M 129.395 353.103 L 147.395 362.103 M 147.395 362.103 L 129.395 371.103 M 129.395 371.103 L 111.395 362.103 M 111.395 362.103 L 129.395 353.103 M 149.855 361.283 L 149.855 195.634 M 167.855 370.283 L 167.855 204.634 M 149.855 379.283 L 149.855 213.634 M 131.855 370.283 L 131.855 204.634 M 149.855 195.634 L 167.855 204.634 L 149.855 213.634 L 131.855 204.634 L 149.855 195.634 M 149.855 361.283 L 167.855 370.283 M 167.855 370.283 L 149.855 379.283 M 149.855 379.283 L 131.855 370.283 M 131.855 370.283 L 149.855 361.283 M 168.702 371.308 L 168.702 245.116 M 186.702 380.308 L 186.702 254.116 M 168.702 389.308 L 168.702 263.116 M 150.702 380.308 L 150.702 254.116 M 168.702 245.116 L 186.702 254.116 L 168.702 263.116 L 150.702 254.116 L 168.702 245.116 M 168.702 371.308 L 186.702 380.308 M 186.702 380.308 L 168.702 389.308 M 168.702 389.308 L 150.702 380.308 M 150.702 380.308 L 168.702 371.308 M 181.629 380.426 L 181.629 213.162 M 199.629 389.426 L 199.629 222.162 M 181.629 398.426 L 181.629 231.162 M 163.629 389.426 L 163.629 222.162 M 181.629 213.162 L 199.629 222.162 L 181.629 231.162 L 163.629 222.162 L 181.629 213.162 M 181.629 380.426 L 199.629 389.426 M 199.629 389.426 L 181.629 398.426 M 181.629 398.426 L 163.629 389.426 M 163.629 389.426 L 181.629 380.426 M 200.779 387.807 L 200.779 187.264 M 218.779 396.807 L 218.779 196.264 M 200.779 405.807 L 200.779 205.264 M 182.779 396.807 L 182.779 196.264 M 200.779 187.264 L 218.779 196.264 L 200.779 205.264 L 182.779 196.264 L 200.779 187.264 M 200.779 387.807 L 218.779 396.807 M 218.779 396.807 L 200.779 405.807 M 200.779 405.807 L 182.779 396.807 M 182.779 396.807 L 200.779 387.807 M 235.376 405.963 L 235.376 118.655 M 253.376 414.963 L 253.376 127.655 M 235.376 423.963 L 235.376 136.655 M 217.376 414.963 L 217.376 127.655 M 235.376 118.655 L 253.376 127.655 L 235.376 136.655 L 217.376 127.655 L 235.376 118.655 M 235.376 405.963 L 253.376 414.963 M 253.376 414.963 L 235.376 423.963 M 235.376 423.963 L 217.376 414.963 M 217.376 414.963 L 235.376 405.963 M 254.525 416.732 L 254.525 220.495 M 272.525 425.732 L 272.525 229.495 M 254.525 434.732 L 254.525 238.495 M 236.525 425.732 L 236.525 229.495 M 254.525 220.495 L 272.525 229.495 L 254.525 238.495 L 236.525 229.495 L 254.525 220.495 M 254.525 416.732 L 272.525 425.732 M 272.525 425.732 L 254.525 434.732 M 254.525 434.732 L 236.525 425.732 M 236.525 425.732 L 254.525 416.732 M 144.723 379.287 L 144.723 235.604 M 162.723 388.287 L 162.723 244.604 M 144.723 397.287 L 144.723 253.604 M 126.723 388.287 L 126.723 244.604 M 144.723 235.604 L 162.723 244.604 L 144.723 253.604 L 126.723 244.604 L 144.723 235.604 M 144.723 379.287 L 162.723 388.287 M 162.723 388.287 L 144.723 397.287 M 144.723 397.287 L 126.723 388.287 M 126.723 388.287 L 144.723 379.287 M 201.851 407.674 L 201.851 337.969 M 219.851 416.674 L 219.851 346.969 M 201.851 425.674 L 201.851 355.969 M 183.851 416.674 L 183.851 346.969 M 201.851 337.969 L 219.851 346.969 L 201.851 355.969 L 183.851 346.969 L 201.851 337.969 M 201.851 407.674 L 219.851 416.674 M 219.851 416.674 L 201.851 425.674 M 201.851 425.674 L 183.851 416.674 M 183.851 416.674 L 201.851 407.674 M 238.865 424.105 L 238.865 265.460 M 256.865 433.105 L 256.865 274.460 M 238.865 442.105 L 238.865 283.460 M 220.865 433.105 L 220.865 274.460 M 238.865 265.460 L 256.865 274.460 L 238.865 283.460 L 220.865 274.460 L 238.865 265.460 M 238.865 424.105 L 256.865 433.105 M 256.865 433.105 L 238.865 442.105 M 238.865 442.105 L 220.865 433.105 M 220.865 433.105 L 238.865 424.105 M 94.106 371.434 L 94.106 85.817 M 112.106 380.434 L 112.106 94.817 M 94.106 389.434 L 94.106 103.817 M 76.106 380.434 L 76.106 94.817 M 94.106 85.817 L 112.106 94.817 L 94.106 103.817 L 76.106 94.817 L 94.106 85.817 M 94.106 371.434 L 112.106 380.434 M 112.106 380.434 L 94.106 389.434 M 94.106 389.434 L 76.106 380.434 M 76.106 380.434 L 94.106 371.434 M 111.418 379.734 L 111.418 297.107 M 129.418 388.734 L 129.418 306.107 M 111.418 397.734 L 111.418 315.107 M 93.418 388.734 L 93.418 306.107 M 111.418 297.107 L 129.418 306.107 L 111.418 315.107 L 93.418 306.107 L 111.418 297.107 M 111.418 379.734 L 129.418 388.734 M 129.418 388.734 L 111.418 397.734 M 111.418 397.734 L 93.418 388.734 M 93.418 388.734 L 111.418 379.734 M 130.317 390.361 L 130.317 208.195 M 148.317 399.361 L 148.317 217.195 M 130.317 408.361 L 130.317 226.195 M 112.317 399.361 L 112.317 217.195 M 130.317 208.195 L 148.317 217.195 L 130.317 226.195 L 112.317 217.195 L 130.317 208.195 M 130.317 390.361 L 148.317 399.361 M 148.317 399.361 L 130.317 408.361 M 130.317 408.361 L 112.317 399.361 M 112.317 399.361 L 130.317 390.361 M 149.877 397.982 L 149.877 250.133 M 167.877 406.982 L 167.877 259.133 M 149.877 415.982 L 149.877 268.133 M 131.877 406.982 L 131.877 259.133 M 149.877 250.133 L 167.877 259.133 L 149.877 268.133 L 131.877 259.133 L 149.877 250.133 M 149.877 397.982 L 167.877 406.982 M 167.877 406.982 L 149.877 415.982 M 149.877 415.982 L 131.877 406.982 M 131.877 406.982 L 149.877 397.982 M 185.162 415.379 L 185.162 173.203 M 203.162 424.379 L 203.162 182.203 M 185.162 433.379 L 185.162 191.203 M 167.162 424.379 L 167.162 182.203 M 185.162 173.203 L 203.162 182.203 L 185.162 191.203 L 167.162 182.203 L 185.162 173.203 M 185.162 415.379 L 203.162 424.379 M 203.162 424.379 L 185.162 433.379 M 185.162 433.379 L 167.162 424.379 M 167.162 424.379 L 185.162 415.379 M 201.130 426.964 L 201.130 229.762 M 219.130 435.964 L 219.130 238.762 M 201.130 444.964 L 201.130 247.762 M 183.130 435.964 L 183.130 238.762 M 201.130 229.762 L 219.130 238.762 L 201.130 247.762 L 183.130 238.762 L 201.130 229.762 M 201.130 426.964 L 219.130 435.964 M 219.130 435.964 L 201.130 444.964 M 201.130 444.964 L 183.130 435.964 M 183.130 435.964 L 201.130 426.964 M 219.017 433.732 L 219.017 351.132 M 237.017 442.732 L 237.017 360.132 M 219.017 451.732 L 219.017 369.132 M 201.017 442.732 L 201.017 360.132 M 219.017 351.132 L 237.017 360.132 L 219.017 369.132 L 201.017 360.132 L 219.017 351.132 M 219.017 433.732 L 237.017 442.732 M 237.017 442.732 L 219.017 451.732 M 219.017 451.732 L 201.017 442.732 M 201.017 442.732 L 219.017 433.732" fill="none" stroke="#e5e7eb" stroke-width="1" vector-effect="non-scaling-stroke"/></svg>