<svg xmlns="http://www.w3.org/2000/svg" viewBox="-28.62135348739983 45.33241584973456 466.01498949580514 504.5939916039022" width="466.01498949580514" height="504.5939916039022" shape-rendering="geometricPrecision"><rect x="-28.62135348739983" y="45.33241584973456" width="466.01498949580514" height="504.5939916039022" fill="#0b0f14"/><path d="M 194.835 316.890 L 194.835 166.376 M 212.835 325.890 L 212.835 175.376 M 194.835 334.890 L 194.835 184.376 M 176.835 325.890 L 176.835 175.376 M 194.835 166.376 L 212.835 175.376 L 194.835 184.376 L 176.835 175.376 L 194.835 166.376 M 194.835 316.890 L 212.835 325.890 M 212.835 325.890 L 194.835 334.890 M 194.835 334.890 L 176.835 325.890 M 176.835 325.890 L 194.835 316.890 M 209.892 326.867 L 209.892 144.930 M 227.892 335.867 L 227.892 153.930 M 209.892 344.867 L 209.892 162.930 M 191.892 335.867 L 191.892 153.930 M 209.892 144.930 L 227.892 153.930 L 209.892 162.930 L 191.892 153.930 L 209.892 144.930 M 209.892 326.867 L 227.892 335.867 M 227.892 335.867 L 209.892 344.867 M 209.892 344.867 L 191.892 335.867 M 191.892 335.867 L 209.892 326.867 M 228.865 335.731 L 228.865 53.332 M 246.865 344.731 L 246.865 62.332 M 228.865 353.731 L 228.865 71.332 M 210.865 344.731 L 210.865 62.332 M 228.865 53.332 L 246.865 62.332 L 228.865 71.332 L 210.865 62.332 L 228.865 53.332 M 228.865 335.731 L 246.865 344.731 M 246.865 344.731 L 228.865 353.731 M 228.865 353.731 L 210.865 344.731 M 210.865 344.731 L 228.865 335.731 M 248.016 344.472 L 248.016 277.673 M 266.016 353.472 L 266.016 286.673 M 248.016 362.472 L 248.016 295.673 M 230.016 353.472 L 230.016 286.673 M 248.016 277.673 L 266.016 286.673 L 248.016 295.673 L 230.016 286.673 L 248.016 277.673 M 248.016 344.472 L 266.016 353.472 M 266.016 353.472 L 248.016 362.472 M 248.016 362.472 L 230.016 353.472 M 230.016 353.472 L 248.016 344.472 M 283.990 361.303 L 283.990 221.134 M 301.990 370.303 L 301.990 230.134 M 283.990 379.303 L 283.990 239.134 M 265.990 370.303 L 265.990 230.134 M 283.990 221.134 L 301.990 230.134 L 283.990 239.134 L 265.990 230.134 L 283.990 221.134 M 283.990 361.303 L 301.990 370.303 M 301.990 370.303 L 283.990 379.303 M 283.990 379.303 L 265.990 370.303 M 265.990 370.303 L 283.990 361.303 M 317.892 378.030 L 317.892 283.611 M 335.892 387.030 L 335.892 292.611 M 317.892 396.030 L 317.892 301.611 M 299.892 387.030 L 299.892 292.611 M 317.892 283.611 L 335.892 292.611 L 317.892 301.611 L 299.892 292.611 L 317.892 283.611 M 317.892 378.030 L 335.892 387.030 M 335.892 387.030 L 317.892 396.030 M 317.892 396.030 L 299.892 387.030 M 299.892 387.030 L 317.892 378.030 M 350.800 398.318 L 350.800 160.907 M 368.800 407.318 L 368.800 169.907 M 350.800 416.318 L 350.800 178.907 M 332.800 407.318 L 332.800 169.907 M 350.800 160.907 L 368.800 169.907 L 350.800 178.907 L 332.800 169.907 L 350.800 160.907 M 350.800 398.318 L 368.800 407.318 M 368.800 407.318 L 350.800 416.318 M 350.800 416.318 L 332.800 407.318 M 332.800 407.318 L 350.800 398.318 M 372.499 405.861 L 372.499 119.220 M 390.499 414.861 L 390.499 128.220 M 372.499 423.861 L 372.499 137.220 M 354.499 414.861 L 354.499 128.220 M 372.499 119.220 L 390.499 128.220 L 372.499 137.220 L 354.499 128.220 L 372.499 119.220 M 372.499 405.861 L 390.499 414.861 M 390.499 414.861 L 372.499 423.861 M 372.499 423.861 L 354.499 414.861 M 354.499 414.861 L 372.499 405.861 M 389.422 416.395 L 389.422 130.046 M 407.422 425.395 L 407.422 139.046 M 389.422 434.395 L 389.422 148.046 M 371.422 425.395 L 371.422 139.046 M 389.422 130.046 L 407.422 139.046 L 389.422 148.046 L 371.422 139.046 L 389.422 130.046 M 389.422 416.395 L 407.422 425.395 M 407.422 425.395 L 389.422 434.395 M 389.422 434.395 L 371.422 425.395 M 371.422 425.395 L 389.422 416.395 M 411.394 424.814 L 411.394 238.140 M 429.394 433.814 L 429.394 247.140 M 411.394 442.814 L 411.394 256.140 M 393.394 433.814 L 393.394 247.140 M 411.394 238.140 L 429.394 247.140 L 411.394 256.140 L 393.394 247.140 L 411.394 238.140 M 411.394 424.814 L 429.394 433.814 M 429.394 433.814 L 411.394 442.814 M 411.394 442.814 L 393.394 433.814 M 393.394 433.814 L 411.394 424.814 M 172.379 325.274 L 172.379 150.163 M 190.379 334.274 L 190.379 159.163 M 172.379 343.274 L 172.379 168.163 M 154.379 334.274 L 154.379 159.163 M 172.379 150.163 L 190.379 159.163 L 172.379 168.163 L 154.379 159.163 L 172.379 150.163 M 172.379 325.274 L 190.379 334.274 M 190.379 334.274 L 172.379 343.274 M 172.379 343.274 L 154.379 334.274 M 154.379 334.274 L 172.379 325.274 M 211.803 343.082 L 211.803 143.841 M 229.803 352.082 L 229.803 152.841 M 211.803 361.082 L 211.803 161.841 M 193.803 352.082 L 193.803 152.841 M 211.803 143.841 L 229.803 152.841 L 211.803 161.841 L 193.803 152.841 L 211.803 143.841 M 211.803 343.082 L 229.803 352.082 M 229.803 352.082 L 211.803 361.082 M 211.803 361.082 L 193.803 352.082 M 193.803 352.082 L 211.803 343.082 M 226.454 353.845 L 226.454 115.827 M 244.454 362.845 L 244.454 124.827 M 226.454 371.845 L 226.454 133.827 M 208.454 362.845 L 208.454 124.827 M 226.454 115.827 L 244.454 124.827 L 226.454 133.827 L 208.454 124.827 L 226.454 115.827 M 226.454 353.845 L 244.454 362.845 M 244.454 362.845 L 226.454 371.845 M 226.454 371.845 L 208.454 362.845 M 208.454 362.845 L 226.454 353.845 M 299.686 390.678 L 299.686 215.439 M 317.686 399.678 L 317.686 224.439 M 299.686 408.678 L 299.686 233.439 M 281.686 399.678 L 281.686 224.439 M 299.686 215.439 L 317.686 224.439 L 299.686 233.439 L 281.686 224.439 L 299.686 215.439 M 299.686 390.678 L 317.686 399.678 M 317.686 399.678 L 299.686 408.678 M 299.686 408.678 L 281.686 399.678 M 281.686 399.678 L 299.686 390.678 M 317.277 397.236 L 317.277 302.864 M 335.277 406.236 L 335.277 311.864 M 317.277 415.236 L 317.277 320.864 M 299.277 406.236 L 299.277 311.864 M 317.277 302.864 L 335.277 311.864 L 317.277 320.864 L 299.277 311.864 L 317.277 302.864 M 317.277 397.236 L 335.277 406.236 M 335.277 406.236 L 317.277 415.236 M 317.277 415.236 L 299.277 406.236 M 299.277 406.236 L 317.277 397.236 M 337.904 406.332 L 337.904 246.154 M 355.904 415.332 L 355.904 255.154 M 337.904 424.332 L 337.904 264.154 M 319.904 415.332 L 319.904 255.154 M 337.904 246.154 L 355.904 255.154 L 337.904 264.154 L 319.904 255.154 L 337.904 246.154 M 337.904 406.332 L 355.904 415.332 M 355.904 415.332 L 337.904 424.332 M 337.904 424.332 L 319.904 415.332 M 319.904 415.332 L 337.904 406.332 M 351.818 415.646 L 351.818 303.695 M 369.818 424.646 L 369.818 312.695 M 351.818 433.646 L 351.818 321.695 M 333.818 424.646 L 333.818 312.695 M 351.818 303.695 L 369.818 312.695 L 351.818 321.695 L 333.818 312.695 L 351.818 303.695 M 351.818 415.646 L 369.818 424.646 M 369.818 424.646 L 351.818 433.646 M 351.818 433.646 L 333.818 424.646 M 333.818 424.646 L 351.818 415.646 M 368.519 425.394 L 368.519 159.228 M 386.519 434.394 L 386.519 168.228 M 368.519 443.394 L 368.519 177.228 M 350.519 434.394 L 350.519 168.228 M 368.519 159.228 L 386.519 168.228 L 368.519 177.228 L 350.519 168.228 L 368.519 159.228 M 368.519 425.394 L 386.519 434.394 M 386.519 434.394 L 368.519 443.394 M 368.519 443.394 L 350.519 434.394 M 350.519 434.394 L 368.519 425.394 M 408.700 441.442 L 408.700 300.459 M 426.700 450.442 L 426.700 309.459 M 408.700 459.442 L 408.700 318.459 M 390.700 450.442 L 390.700 309.459 M 408.700 300.459 L 426.700 309.459 L 408.700 318.459 L 390.700 309.459 L 408.700 300.459 M 408.700 441.442 L 426.700 450.442 M 426.700 450.442 L 408.700 459.442 M 408.700 459.442 L 390.700 450.442 M 390.700 450.442 L 408.700 441.442 M 156.937 336.371 L 156.937 215.426 M 174.937 345.371 L 174.937 224.426 M 156.937 354.371 L 156.937 233.426 M 138.937 345.371 L 138.937 224.426 M 156.937 215.426 L 174.937 224.426 L 156.937 233.426 L 138.937 224.426 L 156.937 215.426 M 156.937 336.371 L 174.937 345.371 M 174.937 345.371 L 156.937 354.371 M 156.937 354.371 L 138.937 345.371 M 138.937 345.371 L 156.937 336.371 M 173.198 343.937 L 173.198 212.853 M 191.198 352.937 L 191.198 221.853 M 173.198 361.937 L 173.198 230.853 M 155.198 352.937 L 155.198 221.853 M 173.198 212.853 L 191.198 221.853 L 173.198 230.853 L 155.198 221.853 L 173.198 212.853 M 173.198 343.937 L 191.198 352.937 M 191.198 352.937 L 173.198 361.937 M 173.198 361.937 L 155.198 352.937 M 155.198 352.937 L 173.198 343.937 M 189.769 352.207 L 189.769 64.435 M 207.769 361.207 L 207.769 73.435 M 189.769 370.207 L 189.769 82.435 M 171.769 361.207 L 171.769 73.435 M 189.769 64.435 L 207.769 73.435 L 189.769 82.435 L 171.769 73.435 L 189.769 64.435 M 189.769 352.207 L 207.769 361.207 M 207.769 361.207 L 189.769 370.207 M 189.769 370.207 L 171.769 361.207 M 171.769 361.207 L 189.769 352.207 M 228.395 371.103 L 228.395 276.123 M 246.395 380.103 L 246.395 285.123 M 228.395 389.103 L 228.395 294.123 M 210.395 380.103 L 210.395 285.123 M 228.395 276.123 L 246.395 285.123 L 228.395 294.123 L 210.395 285.123 L 228.395 276.123 M 228.395 371.103 L 246.395 380.103 M 246.395 380.103 L 228.395 389.103 M 228.395 389.103 L 210.395 380.103 M 210.395 380.103 L 228.395 371.103 M 248.855 379.283 L 248.855 213.634 M 266.855 388.283 L 266.855 222.634 M 248.855 397.283 L 248.855 231.634 M 230.855 388.283 L 230.855 222.634 M 248.855 213.634 L 266.855 222.634 L 248.855 231.634 L 230.855 222.634 L 248.855 213.634 M 248.855 379.283 L 266.855 388.283 M 266.855 388.283 L 248.855 397.283 M 248.855 397.283 L 230.855 388.283 M 230.855 388.283 L 248.855 379.283 M 267.702 389.308 L 267.702 263.116 M 285.702 398.308 L 285.702 272.116 M 267.702 407.308 L 267.702 281.116 M 249.702 398.308 L 249.702 272.116 M 267.702 263.116 L 285.702 272.116 L 267.702 281.116 L 249.702 272.116 L 267.702 263.116 M 267.702 389.308 L 285.702 398.308 M 285.702 398.308 L 267.702 407.308 M 267.702 407.308 L 249.702 398.308 M 249.702 398.308 L 267.702 389.308 M 280.629 398.426 L 280.629 231.162 M 298.629 407.426 L 298.629 240.162 M 280.629 416.426 L 280.629 249.162 M 262.629 407.426 L 262.629 240.162 M 280.629 231.162 L 298.629 240.162 L 280.629 249.162 L 262.629 240.162 L 280.629 231.162 M 280.629 398.426 L 298.629 407.426 M 298.629 407.426 L 280.629 416.426 M 280.629 416.426 L 262.629 407.426 M 262.629 407.426 L 280.629 398.426 M 299.779 405.807 L 299.779 205.264 M 317.779 414.807 L 317.779 214.264 M 299.779 423.807 L 299.779 223.264 M 281.779 414.807 L 281.779 214.264 M 299.779 205.264 L 317.779 214.264 L 299.779 223.264 L 281.779 214.264 L 299.779 205.264 M 299.779 405.807 L 317.779 414.807 M 317.779 414.807 L 299.779 423.807 M 299.779 423.807 L 281.779 414.807 M 281.779 414.807 L 299.779 405.807 M 334.376 423.963 L 334.376 136.655 M 352.376 432.963 L 352.376 145.655 M 334.376 441.963 L 334.376 154.655 M 316.376 432.963 L 316.376 145.655 M 334.376 136.655 L 352.376 145.655 L 334.376 154.655 L 316.376 145.655 L 334.376 136.655 M 334.376 423.963 L 352.376 432.963 M 352.376 432.963 L 334.376 441.963 M 334.376 441.963 L 316.376 432.963 M 316.376 432.963 L 334.376 423.963 M 353.525 434.732 L 353.525 238.495 M 371.525 443.732 L 371.525 247.495 M 353.525 452.732 L 353.525 256.495 M 335.525 443.732 L 335.525 247.495 M 353.525 238.495 L 371.525 247.495 L 353.525 256.495 L 335.525 247.495 L 353.525 238.495 M 353.525 434.732 L 371.525 443.732 M 371.525 443.732 L 353.525 452.732 M 353.525 452.732 L 335.525 443.732 M 335.525 443.732 L 353.525 434.732 M 135.723 343.287 L 135.723 199.604 M 153.723 352.287 L 153.723 208.604 M 135.723 361.287 L 135.723 217.604 M 117.723 352.287 L 117.723 208.604 M 135.723 199.604 L 153.723 208.604 L 135.723 217.604 L 117.723 208.604 L 135.723 199.604 M 135.723 343.287 L 153.723 352.287 M 153.723 352.287 L 135.723 361.287 M 135.723 361.287 L 117.723 352.287 M 117.723 352.287 L 135.723 343.287 M 192.851 371.674 L 192.851 301.969 M 210.851 380.674 L 210.851 310.969 M 192.851 389.674 L 192.851 319.969 M 174.851 380.674 L 174.851 310.969 M 192.851 301.969 L 210.851 310.969 L 192.851 319.969 L 174.851 310.969 L 192.851 301.969 M 192.851 371.674 L 210.851 380.674 M 210.851 380.674 L 192.851 389.674 M 192.851 389.674 L 174.851 380.674 M 174.851 380.674 L 192.851 371.674 M 229.865 388.105 L 229.865 229.460 M 247.865 397.105 L 247.865 238.460 M 229.865 406.105 L 229.865 247.460 M 211.865 397.105 L 211.865 238.460 M 229.865 229.460 L 247.865 238.460 L 229.865 247.460 L 211.865 238.460 L 229.865 229.460 M 229.865 388.105 L 247.865 397.105 M 247.865 397.105 L 229.865 406.105 M 229.865 406.105 L 211.865 397.105 M 211.865 397.105 L 229.865 388.105 M 247.106 398.434 L 247.106 112.817 M 265.106 407.434 L 265.106 121.817 M 247.106 416.434 L 247.106 130.817 M 229.106 407.434 L 229.106 121.817 M 247.106 112.817 L 265.106 121.817 L 247.106 130.817 L 229.106 121.817 L 247.106 112.817 M 247.106 398.434 L 265.106 407.434 M 265.106 407.434 L 247.106 416.434 M 247.106 416.434 L 229.106 407.434 M 229.106 407.434 L 247.106 398.434 M 264.418 406.734 L 264.418 324.107 M 282.418 415.734 L 282.418 333.107 M 264.418 424.734 L 264.418 342.107 M 246.418 415.734 L 246.418 333.107 M 264.418 324.107 L 282.418 333.107 L 264.418 342.107 L 246.418 333.107 L 264.418 324.107 M 264.418 406.734 L 282.418 415.734 M 282.418 415.734 L 264.418 424.734 M 264.418 424.734 L 246.418 415.734 M 246.418 415.734 L 264.418 406.734 M 283.317 417.361 L 283.317 235.195 M 301.317 426.361 L 301.317 244.195 M 283.317 435.361 L 283.317 253.195 M 265.317 426.361 L 265.317 244.195 M 283.317 235.195 L 301.317 244.195 L 283.317 253.195 L 265.317 244.195 L 283.317 235.195 M 283.317 417.361 L 301.317 426.361 M 301.317 426.361 L 283.317 435.361 M 283.317 435.361 L 265.317 426.361 M 265.317 426.361 L 283.317 417.361 M 302.877 424.982 L 302.877 277.133 M 320.877 433.982 L 320.877 286.133 M 302.877 442.982 L 302.877 295.133 M 284.877 433.982 L 284.877 286.133 M 302.877 277.133 L 320.877 286.133 L 302.877 295.133 L 284.877 286.133 L 302.877 277.133 M 302.877 424.982 L 320.877 433.982 M 320.877 433.982 L 302.877 442.982 M 302.877 442.982 L 284.877 433.982 M 284.877 433.982 L 302.877 424.982 M 338.162 442.379 L 338.162 200.203 M 356.162 451.379 L 356.162 209.203 M 338.162 460.379 L 338.162 218.203 M 320.162 451.379 L 320.162 209.203 M 338.162 200.203 L 356.162 209.203 L 338.162 218.203 L 320.162 209.203 L 338.162 200.203 M 338.162 442.379 L 356.162 451.379 M 356.162 451.379 L 338.162 460.379 M 338.162 460.379 L 320.162 451.379 M 320.162 451.379 L 338.162 442.379 M 354.130 453.964 L 354.130 256.762 M 372.130 462.964 L 372.130 265.762 M 354.130 471.964 L 354.130 274.762 M 336.130 462.964 L 336.130 265.762 M 354.130 256.762 L 372.130 265.762 L 354.130 274.762 L 336.130 265.762 L 354.130 256.762 M 354.130 453.964 L 372.130 462.964 M 372.130 462.964 L 354.130 471.964 M 354.130 471.964 L 336.130 462.964 M 336.130 462.964 L 354.130 453.964 M 372.017 460.732 L 372.017 378.132 M 390.017 469.732 L 390.017 387.132 M 372.017 478.732 L 372.017 396.132 M 354.017 469.732 L 354.017 387.132 M 372.017 378.132 L 390.017 387.132 L 372.017 396.132 L 354.017 387.132 L 372.017 378.132 M 372.017 460.732 L 390.017 469.732 M 390.017 469.732 L 372.017 478.732 M 372.017 478.732 L 354.017 469.732 M 354.017 469.732 L 372.017 460.732 M 137.775 363.636 L 137.775 101.378 M 155.775 372.636 L 155.775 110.378 M 137.775 381.636 L 137.775 119.378 M 119.775 372.636 L 119.775 110.378 M 137.775 101.378 L 155.775 110.378 L 137.775 119.378 L 119.775 110.378 L 137.775 101.378 M 137.775 363.636 L 155.775 372.636 M 155.775 372.636 L 137.775 381.636 M 137.775 381.636 L 119.775 372.636 M 119.775 372.636 L 137.775 363.636 M 176.349 379.931 L 176.349 261.703 M 194.349 388.931 L 194.349 270.703 M 176.349 397.931 L 176.349 279.703 M 158.349 388.931 L 158.349 270.703 M 176.349 261.703 L 194.349 270.703 L 176.349 279.703 L 158.349 270.703 L 176.349 261.703 M 176.349 379.931 L 194.349 388.931 M 194.349 388.931 L 176.349 397.931 M 176.349 397.931 L 158.349 388.931 M 158.349 388.931 L 176.349 379.931 M 208.701 397.557 L 208.701 139.589 M 226.701 406.557 L 226.701 148.589 M 208.701 415.557 L 208.701 157.589 M 190.701 406.557 L 190.701 148.589 M 208.701 139.589 L 226.701 148.589 L 208.701 157.589 L 190.701 148.589 L 208.701 139.589 M 208.701 397.557 L 226.701 406.557 M 226.701 406.557 L 208.701 415.557 M 208.701 415.557 L 190.701 406.557 M 190.701 406.557 L 208.701 397.557 M 245.951 416.418 L 245.951 270.100 M 263.951 425.418 L 263.951 279.100 M 245.951 434.418 L 245.951 288.100 M 227.951 425.418 L 227.951 279.100 M 245.951 270.100 L 263.951 279.100 L 245.951 288.100 L 227.951 279.100 L 245.951 270.100 M 245.951 416.418 L 263.951 425.418 M 263.951 425.418 L 245.951 434.418 M 245.951 434.418 L 227.951 425.418 M 227.951 425.418 L 245.951 416.418 M 263.602 426.193 L 263.602 193.996 M 281.602 435.193 L 281.602 202.996 M 263.602 444.193 L 263.602 211.996 M 245.602 435.193 L 245.602 202.996 M 263.602 193.996 L 281.602 202.996 L 263.602 211.996 L 245.602 202.996 L 263.602 193.996 M 263.602 426.193 L 281.602 435.193 M 281.602 435.193 L 263.602 444.193 M 263.602 444.193 L 245.602 435.193 M 245.602 435.193 L 263.602 426.193 M 279.099 433.391 L 279.099 151.170 M 297.099 442.391 L 297.099 160.170 M 279.099 451.391 L 279.099 169.170 M 261.099 442.391 L 261.099 160.170 M 279.099 151.170 L 297.099 160.170 L 279.099 169.170 L 261.099 160.170 L 279.099 151.170 M 279.099 433.391 L 297.099 442.391 M 297.099 442.391 L 279.099 451.391 M 279.099 451.391 L 261.099 442.391 M 261.099 442.391 L 279.099 433.391 M 301.774 443.650 L 301.774 174.030 M 319.774 452.650 L 319.774 183.030 M 301.774 461.650 L 301.774 192.030 M 283.774 452.650 L 283.774 183.030 M 301.774 174.030 L 319.774 183.030 L 301.774 192.030 L 283.774 183.030 L 301.774 174.030 M 301.774 443.650 L 319.774 452.650 M 319.774 452.650 L 301.774 461.650 M 301.774 461.650 L 283.774 452.650 M 283.774 452.650 L 301.774 443.650 M 316.446 452.620 L 316.446 314.426 M 334.446 461.620 L 334.446 323.426 M 316.446 470.620 L 316.446 332.426 M 298.446 461.620 L 298.446 323.426 M 316.446 314.426 L 334.446 323.426 L 316.446 332.426 L 298.446 323.426 L 316.446 314.426 M 316.446 452.620 L 334.446 461.620 M 334.446 461.620 L 316.446 470.620 M 316.446 470.620 L 298.446 461.620 M 298.446 461.620 L 316.446 452.620 M 336.244 460.871 L 336.244 267.298 M 354.244 469.871 L 354.244 276.298 M 336.244 478.871 L 336.244 285.298 M 318.244 469.871 L 318.244 276.298 M 336.244 267.298 L 354.244 276.298 L 336.244 285.298 L 318.244 276.298 L 336.244 267.298 M 336.244 460.871 L 354.244 469.871 M 354.244 469.871 L 336.244 478.871 M 336.244 478.871 L 318.244 469.871 M 318.244 469.871 L 336.244 460.871 M 351.971 469.667 L 351.971 369.284 M 369.971 478.667 L 369.971 378.284 M 351.971 487.667 L 351.971 387.284 M 333.971 478.667 L 333.971 378.284 M 351.971 369.284 L 369.971 378.284 L 351.971 387.284 L 333.971 378.284 L 351.971 369.284 M 351.971 469.667 L 369.971 478.667 M 369.971 478.667 L 351.971 487.667 M 351.971 487.667 L 333.971 478.667 M 333.971 478.667 L 351.971 469.667 M 97.884 362.060 L 97.884 111.282 M 115.884 371.060 L 115.884 120.282 M 97.884 380.060 L 97.884 129.282 M 79.884 371.060 L 79.884 120.282 M 97.884 111.282 L 115.884 120.282 L 97.884 129.282 L 79.884 120.282 L 97.884 111.282 M 97.884 362.060 L 115.884 371.060 M 115.884 371.060 L 97.884 380.060 M 97.884 380.060 L 79.884 371.060 M 79.884 371.060 L 97.884 362.060 M 118.639 369.556 L 118.639 221.596 M 136.639 378.556 L 136.639 230.596 M 118.639 387.556 L 118.639 239.596 M 100.639 378.556 L 100.639 230.596 M 118.639 221.596 L 136.639 230.596 L 118.639 239.596 L 100.639 230.596 L 118.639 221.596 M 118.639 369.556 L 136.639 378.556 M 136.639 378.556 L 118.639 387.556 M 118.639 387.556 L 100.639 378.556 M 100.639 378.556 L 118.639 369.556 M 138.468 378.313 L 138.468 256.856 M 156.468 387.313 L 156.468 265.856 M 138.468 396.313 L 138.468 274.856 M 120.468 387.313 L 120.468 265.856 M 138.468 256.856 L 156.468 265.856 L 138.468 274.856 L 120.468 265.856 L 138.468 256.856 M 138.468 378.313 L 156.468 387.313 M 156.468 387.313 L 138.468 396.313 M 138.468 396.313 L 120.468 387.313 M 120.468 387.313 L 138.468 378.313 M 156.457 387.611 L 156.457 290.570 M 174.457 396.611 L 174.457 299.570 M 156.457 405.611 L 156.457 308.570 M 138.457 396.611 L 138.457 299.570 M 156.457 290.570 L 174.457 299.570 L 156.457 308.570 L 138.457 299.570 L 156.457 290.570 M 156.457 387.611 L 174.457 396.611 M 174.457 396.611 L 156.457 405.611 M 156.457 405.611 L 138.457 396.611 M 138.457 396.611 L 156.457 387.611 M 191.611 408.921 L 191.611 311.915 M 209.611 417.921 L 209.611 320.915 M 191.611 426.921 L 191.611 329.915 M 173.611 417.921 L 173.611 320.915 M 191.611 311.915 L 209.611 320.915 L 191.611 329.915 L 173.611 320.915 L 191.611 311.915 M 191.611 408.921 L 209.611 417.921 M 209.611 417.921 L 191.611 426.921 M 191.611 426.921 L 173.611 417.921 M 173.611 417.921 L 191.611 408.921 M 227.222 425.521 L 227.222 249.550 M 245.222 434.521 L 245.222 258.550 M 227.222 443.521 L 227.222 267.550 M 209.222 434.521 L 209.222 258.550 M 227.222 249.550 L 245.222 258.550 L 227.222 267.550 L 209.222 258.550 L 227.222 249.550 M 227.222 425.521 L 245.222 434.521 M 245.222 434.521 L 227.222 443.521 M 227.222 443.521 L 209.222 434.521 M 209.222 434.521 L 227.222 425.521 M 247.065 433.177 L 247.065 319.084 M 265.065 442.177 L 265.065 328.084 M 247.065 451.177 L 247.065 337.084 M 229.065 442.177 L 229.065 328.084 M 247.065 319.084 L 265.065 328.084 L 247.065 337.084 L 229.065 328.084 L 247.065 319.084 M 247.065 433.177 L 265.065 442.177 M 265.065 442.177 L 247.065 451.177 M 247.065 451.177 L 229.065 442.177 M 229.065 442.177 L 247.065 433.177 M 262.372 442.144 L 262.372 238.352 M 280.372 451.144 L 280.372 247.352 M 262.372 460.144 L 262.372 256.352 M 244.372 451.144 L 244.372 247.352 M 262.372 238.352 L 280.372 247.352 L 262.372 256.352 L 244.372 247.352 L 262.372 238.352 M 262.372 442.144 L 280.372 451.144 M 280.372 451.144 L 262.372 460.144 M 262.372 460.144 L 244.372 451.144 M 244.372 451.144 L 262.372 442.144 M 280.673 450.534 L 280.673 302.612 M 298.673 459.534 L 298.673 311.612 M 280.673 468.534 L 280.673 320.612 M 262.673 459.534 L 262.673 311.612 M 280.673 302.612 L 298.673 311.612 L 280.673 320.612 L 262.673 311.612 L 280.673 302.612 M 280.673 450.534 L 298.673 459.534 M 298.673 459.534 L 280.673 468.534 M 280.673 468.534 L 262.673 459.534 M 262.673 459.534 L 280.673 450.534 M 297.549 460.239 L 297.549 249.522 M 315.549 469.239 L 315.549 258.522 M 297.549 478.239 L 297.549 267.522 M 279.549 469.239 L 279.549 258.522 M 297.549 249.522 L 315.549 258.522 L 297.549 267.522 L 279.549 258.522 L 297.549 249.522 M 297.549 460.239 L 315.549 469.239 M 315.549 469.239 L 297.549 478.239 M 297.549 478.239 L 279.549 469.239 M 279.549 469.239 L 297.549 460.239 M 319.682 471.167 L 319.682 271.816 M 337.682 480.167 L 337.682 280.816 M 319.682 489.167 L 319.682 289.816 M 301.682 480.167 L 301.682 280.816 M 319.682 271.816 L 337.682 280.816 L 319.682 289.816 L 301.682 280.816 L 319.682 271.816 M 319.682 471.167 L 337.682 480.167 M 337.682 480.167 L 319.682 489.167 M 319.682 489.167 L 301.682 480.167 M 301.682 480.167 L 319.682 471.167 M 335.365 480.639 L 335.365 306.601 M 353.365 489.639 L 353.365 315.601 M 335.365 498.639 L 335.365 324.601 M 317.365 489.639 L 317.365 315.601 M 335.365 306.601 L 353.365 315.601 L 335.365 324.601 L 317.365 315.601 L 335.365 306.601 M 335.365 480.639 L 353.365 489.639 M 353.365 489.639 L 335.365 498.639 M 335.365 498.639 L 317.365 489.639 M 317.365 489.639 L 335.365 480.639 M 104.168 379.800 L 104.168 171.964 M 122.168 388.800 L 122.168 180.964 M 104.168 397.800 L 104.168 189.964 M 86.168 388.800 L 86.168 180.964 M 104.168 171.964 L 122.168 180.964 L 104.168 189.964 L 86.168 180.964 L 104.168 171.964 M 104.168 379.800 L 122.168 388.800 M 122.168 388.800 L 104.168 397.800 M 104.168 397.800 L 86.168 388.800 M 86.168 388.800 L 104.168 379.800 M 134.749 398.327 L 134.749 102.267 M 152.749 407.327 L 152.749 111.267 M 134.749 416.327 L 134.749 120.267 M 116.749 407.327 L 116.749 111.267 M 134.749 102.267 L 152.749 111.267 L 134.749 120.267 L 116.749 111.267 L 134.749 102.267 M 134.749 398.327 L 152.749 407.327 M 152.749 407.327 L 134.749 416.327 M 134.749 416.327 L 116.749 407.327 M 116.749 407.327 L 134.749 398.327 M 154.258 407.504 L 154.258 165.229 M 172.258 416.504 L 172.258 174.229 M 154.258 425.504 L 154.258 183.229 M 136.258 416.504 L 136.258 174.229 M 154.258 165.229 L 172.258 174.229 L 154.258 183.229 L 136.258 174.229 L 154.258 165.229 M 154.258 407.504 L 172.258 416.504 M 172.258 416.504 L 154.258 425.504 M 154.258 425.504 L 136.258 416.504 M 136.258 416.504 L 154.258 407.504 M 177.219 415.974 L 177.219 269.192 M 195.219 424.974 L 195.219 278.192 M 177.219 433.974 L 177.219 287.192 M 159.219 424.974 L 159.219 278.192 M 177.219 269.192 L 195.219 278.192 L 177.219 287.192 L 159.219 278.192 L 177.219 269.192 M 177.219 415.974 L 195.219 424.974 M 195.219 424.974 L 177.219 433.974 M 177.219 433.974 L 159.219 424.974 M 159.219 424.974 L 177.219 415.974 M 192.494 426.665 L 192.494 210.118 M 210.494 435.665 L 210.494 219.118 M 192.494 444.665 L 192.494 228.118 M 174.494 435.665 L 174.494 219.118 M 192.494 210.118 L 210.494 219.118 L 192.494 228.118 L 174.494 219.118 L 192.494 210.118 M 192.494 426.665 L 210.494 435.665 M 210.494 435.665 L 192.494 444.665 M 192.494 444.665 L 174.494 435.665 M 174.494 435.665 L 192.494 426.665 M 243.626 452.301 L 243.626 253.758 M 261.626 461.301 L 261.626 262.758 M 243.626 470.301 L 243.626 271.758 M 225.626 461.301 L 225.626 262.758 M 243.626 253.758 L 261.626 262.758 L 243.626 271.758 L 225.626 262.758 L 243.626 253.758 M 243.626 452.301 L 261.626 461.301 M 261.626 461.301 L 243.626 470.301 M 243.626 470.301 L 225.626 461.301 M 225.626 461.301 L 243.626 452.301 M 261.758 460.627 L 261.758 282.447 M 279.758 469.627 L 279.758 291.447 M 261.758 478.627 L 261.758 300.447 M 243.758 469.627 L 243.758 291.447 M 261.758 282.447 L 279.758 291.447 L 261.758 300.447 L 243.758 291.447 L 261.758 282.447 M 261.758 460.627 L 279.758 469.627 M 279.758 469.627 L 261.758 478.627 M 261.758 478.627 L 243.758 469.627 M 243.758 469.627 L 261.758 460.627 M 301.393 478.410 L 301.393 294.646 M 319.393 487.410 L 319.393 303.646 M 301.393 496.410 L 301.393 312.646 M 283.393 487.410 L 283.393 303.646 M 301.393 294.646 L 319.393 303.646 L 301.393 312.646 L 283.393 303.646 L 301.393 294.646 M 301.393 478.410 L 319.393 487.410 M 319.393 487.410 L 301.393 496.410 M 301.393 496.410 L 283.393 487.410 M 283.393 487.410 L 301.393 478.410 M 320.913 487.631 L 320.913 271.270 M 338.913 496.631 L 338.913 280.270 M 320.913 505.631 L 320.913 289.270 M 302.913 496.631 L 302.913 280.270 M 320.913 271.270 L 338.913 280.270 L 320.913 289.270 L 302.913 280.270 L 320.913 271.270 M 320.913 487.631 L 338.913 496.631 M 338.913 496.631 L 320.913 505.631 M 320.913 505.631 L 302.913 496.631 M 302.913 496.631 L 320.913 487.631 M 68.793 379.357 L 68.793 234.478 M 86.793 388.357 L 86.793 243.478 M 68.793 397.357 L 68.793 252.478 M 50.793 388.357 L 50.793 243.478 M 68.793 234.478 L 86.793 243.478 L 68.793 252.478 L 50.793 243.478 L 68.793 234.478 M 68.793 379.357 L 86.793 388.357 M 86.793 388.357 L 68.793 397.357 M 68.793 397.357 L 50.793 388.357 M 50.793 388.357 L 68.793 379.357 M 86.056 389.153 L 86.056 217.542 M 104.056 398.153 L 104.056 226.542 M 86.056 407.153 L 86.056 235.542 M 68.056 398.153 L 68.056 226.542 M 86.056 217.542 L 104.056 226.542 L 86.056 235.542 L 68.056 226.542 L 86.056 217.542 M 86.056 389.153 L 104.056 398.153 M 104.056 398.153 L 86.056 407.153 M 86.056 407.153 L 68.056 398.153 M 68.056 398.153 L 86.056 389.153 M 101.545 397.919 L 101.545 255.557 M 119.545 406.919 L 119.545 264.557 M 101.545 415.919 L 101.545 273.557 M 83.545 406.919 L 83.545 264.557 M 101.545 255.557 L 119.545 264.557 L 101.545 273.557 L 83.545 264.557 L 101.545 255.557 M 101.545 397.919 L 119.545 406.919 M 119.545 406.919 L 101.545 415.919 M 101.545 415.919 L 83.545 406.919 M 83.545 406.919 L 101.545 397.919 M 121.968 407.993 L 121.968 149.469 M 139.968 416.993 L 139.968 158.469 M 121.968 425.993 L 121.968 167.469 M 103.968 416.993 L 103.968 158.469 M 121.968 149.469 L 139.968 158.469 L 121.968 167.469 L 103.968 158.469 L 121.968 149.469 M 121.968 407.993 L 139.968 416.993 M 139.968 416.993 L 121.968 425.993 M 121.968 425.993 L 103.968 416.993 M 103.968 416.993 L 121.968 407.993 M 136.906 414.470 L 136.906 312.738 M 154.906 423.470 L 154.906 321.738 M 136.906 432.470 L 136.906 330.738 M 118.906 423.470 L 118.906 321.738 M 136.906 312.738 L 154.906 321.738 L 136.906 330.738 L 118.906 321.738 L 136.906 312.738 M 136.906 414.470 L 154.906 423.470 M 154.906 423.470 L 136.906 432.470 M 136.906 432.470 L 118.906 423.470 M 118.906 423.470 L 136.906 414.470 M 155.018 424.897 L 155.018 138.184 M 173.018 433.897 L 173.018 147.184 M 155.018 442.897 L 155.018 156.184 M 137.018 433.897 L 137.018 147.184 M 155.018 138.184 L 173.018 147.184 L 155.018 156.184 L 137.018 147.184 L 155.018 138.184 M 155.018 424.897 L 173.018 433.897 M 173.018 433.897 L 155.018 442.897 M 155.018 442.897 L 137.018 433.897 M 137.018 433.897 L 155.018 424.897 M 172.424 434.200 L 172.424 317.684 M 190.424 443.200 L 190.424 326.684 M 172.424 452.200 L 172.424 335.684 M 154.424 443.200 L 154.424 326.684 M 172.424 317.684 L 190.424 326.684 L 172.424 335.684 L 154.424 326.684 L 172.424 317.684 M 172.424 434.200 L 190.424 443.200 M 190.424 443.200 L 172.424 452.200 M 172.424 452.200 L 154.424 443.200 M 154.424 443.200 L 172.424 434.200 M 190.600 444.122 L 190.600 350.539 M 208.600 453.122 L 208.600 359.539 M 190.600 462.122 L 190.600 368.539 M 172.600 453.122 L 172.600 359.539 M 190.600 350.539 L 208.600 359.539 L 190.600 368.539 L 172.600 359.539 L 190.600 350.539 M 190.600 444.122 L 208.600 453.122 M 208.600 453.122 L 190.600 462.122 M 190.600 462.122 L 172.600 453.122 M 172.600 453.122 L 190.600 444.122 M 227.593 461.420 L 227.593 317.021 M 245.593 470.420 L 245.593 326.021 M 227.593 479.420 L 227.593 335.021 M 209.593 470.420 L 209.593 326.021 M 227.593 317.021 L 245.593 326.021 L 227.593 335.021 L 209.593 326.021 L 227.593 317.021 M 227.593 461.420 L 245.593 470.420 M 245.593 470.420 L 227.593 479.420 M 227.593 479.420 L 209.593 470.420 M 209.593 470.420 L 227.593 461.420 M 246.660 469.681 L 246.660 247.586 M 264.660 478.681 L 264.660 256.586 M 246.660 487.681 L 246.660 265.586 M 228.660 478.681 L 228.660 256.586 M 246.660 247.586 L 264.660 256.586 L 246.660 265.586 L 228.660 256.586 L 246.660 247.586 M 246.660 469.681 L 264.660 478.681 M 264.660 478.681 L 246.660 487.681 M 246.660 487.681 L 228.660 478.681 M 228.660 478.681 L 246.660 469.681 M 280.967 486.505 L 280.967 345.384 M 298.967 495.505 L 298.967 354.384 M 280.967 504.505 L 280.967 363.384 M 262.967 495.505 L 262.967 354.384 M 280.967 345.384 L 298.967 354.384 L 280.967 363.384 L 262.967 354.384 L 280.967 345.384 M 280.967 486.505 L 298.967 495.505 M 298.967 495.505 L 280.967 504.505 M 280.967 504.505 L 262.967 495.505 M 262.967 495.505 L 280.967 486.505 M 302.871 496.621 L 302.871 295.717 M 320.871 505.621 L 320.871 304.717 M 302.871 514.621 L 302.871 313.717 M 284.871 505.621 L 284.871 304.717 M 302.871 295.717 L 320.871 304.717 L 302.871 313.717 L 284.871 304.717 L 302.871 295.717 M 302.871 496.621 L 320.871 505.621 M 320.871 505.621 L 302.871 514.621 M 302.871 514.621 L 284.871 505.621 M 284.871 505.621 L 302.871 496.621 M 49.965 389.766 L 49.965 181.572 M 67.965 398.766 L 67.965 190.572 M 49.965 407.766 L 49.965 199.572 M 31.965 398.766 L 31.965 190.572 M 49.965 181.572 L 67.965 190.572 L 49.965 199.572 L 31.965 190.572 L 49.965 181.572 M 49.965 389.766 L 67.965 398.766 M 67.965 398.766 L 49.965 407.766 M 49.965 407.766 L 31.965 398.766 M 31.965 398.766 L 49.965 389.766 M 65.995 398.158 L 65.995 304.789 M 83.995 407.158 L 83.995 313.789 M 65.995 416.158 L 65.995 322.789 M 47.995 407.158 L 47.995 313.789 M 65.995 304.789 L 83.995 313.789 L 65.995 322.789 L 47.995 313.789 L 65.995 304.789 M 65.995 398.158 L 83.995 407.158 M 83.995 407.158 L 65.995 416.158 M 65.995 416.158 L 47.995 407.158 M 47.995 407.158 L 65.995 398.158 M 84.714 408.191 L 84.714 141.682 M 102.714 417.191 L 102.714 150.682 M 84.714 426.191 L 84.714 159.682 M 66.714 417.191 L 66.714 150.682 M 84.714 141.682 L 102.714 150.682 L 84.714 159.682 L 66.714 150.682 L 84.714 141.682 M 84.714 408.191 L 102.714 417.191 M 102.714 417.191 L 84.714 426.191 M 84.714 426.191 L 66.714 417.191 M 66.714 417.191 L 84.714 408.191 M 100.285 415.618 L 100.285 306.549 M 118.285 424.618 L 118.285 315.549 M 100.285 433.618 L 100.285 324.549 M 82.285 424.618 L 82.285 315.549 M 100.285 306.549 L 118.285 315.549 L 100.285 324.549 L 82.285 315.549 L 100.285 306.549 M 100.285 415.618 L 118.285 424.618 M 118.285 424.618 L 100.285 433.618 M 100.285 433.618 L 82.285 424.618 M 82.285 424.618 L 100.285 415.618 M 138.708 432.634 L 138.708 316.453 M 156.708 441.634 L 156.708 325.453 M 138.708 450.634 L 138.708 334.453 M 120.708 441.634 L 120.708 325.453 M 138.708 316.453 L 156.708 325.453 L 138.708 334.453 L 120.708 325.453 L 138.708 316.453 M 138.708 432.634 L 156.708 441.634 M 156.708 441.634 L 138.708 450.634 M 138.708 450.634 L 120.708 441.634 M 120.708 441.634 L 138.708 432.634 M 153.324 443.263 L 153.324 156.996 M 171.324 452.263 L 171.324 165.996 M 153.324 461.263 L 153.324 174.996 M 135.324 452.263 L 135.324 165.996 M 153.324 156.996 L 171.324 165.996 L 153.324 174.996 L 135.324 165.996 L 153.324 156.996 M 153.324 443.263 L 171.324 452.263 M 171.324 452.263 L 153.324 461.263 M 153.324 461.263 L 135.324 452.263 M 135.324 452.263 L 153.324 443.263 M 173.564 453.095 L 173.564 289.345 M 191.564 462.095 L 191.564 298.345 M 173.564 471.095 L 173.564 307.345 M 155.564 462.095 L 155.564 298.345 M 173.564 289.345 L 191.564 298.345 L 173.564 307.345 L 155.564 298.345 L 173.564 289.345 M 173.564 453.095 L 191.564 462.095 M 191.564 462.095 L 173.564 471.095 M 173.564 471.095 L 155.564 462.095 M 155.564 462.095 L 173.564 453.095 M 188.486 461.221 L 188.486 239.686 M 206.486 470.221 L 206.486 248.686 M 188.486 479.221 L 188.486 257.686 M 170.486 470.221 L 170.486 248.686 M 188.486 239.686 L 206.486 248.686 L 188.486 257.686 L 170.486 248.686 L 188.486 239.686 M 188.486 461.221 L 206.486 470.221 M 206.486 470.221 L 188.486 479.221 M 188.486 479.221 L 170.486 470.221 M 170.486 470.221 L 188.486 461.221 M 230.404 478.853 L 230.404 194.288 M 248.404 487.853 L 248.404 203.288 M 230.404 496.853 L 230.404 212.288 M 212.404 487.853 L 212.404 203.288 M 230.404 194.288 L 248.404 203.288 L 230.404 212.288 L 212.404 203.288 L 230.404 194.288 M 230.404 478.853 L 248.404 487.853 M 248.404 487.853 L 230.404 496.853 M 230.404 496.853 L 212.404 487.853 M 212.404 487.853 L 230.404 478.853 M 247.739 488.630 L 247.739 222.579 M 265.739 497.630 L 265.739 231.579 M 247.739 506.630 L 247.739 240.579 M 229.739 497.630 L 229.739 231.579 M 247.739 222.579 L 265.739 231.579 L 247.739 240.579 L 229.739 231.579 L 247.739 222.579 M 247.739 488.630 L 265.739 497.630 M 265.739 497.630 L 247.739 506.630 M 247.739 506.630 L 229.739 497.630 M 229.739 497.630 L 247.739 488.630 M 263.769 497.474 L 263.769 263.515 M 281.769 506.474 L 281.769 272.515 M 263.769 515.474 L 263.769 281.515 M 245.769 506.474 L 245.769 272.515 M 263.769 263.515 L 281.769 272.515 L 263.769 281.515 L 245.769 272.515 L 263.769 263.515 M 263.769 497.474 L 281.769 506.474 M 281.769 506.474 L 263.769 515.474 M 263.769 515.474 L 245.769 506.474 M 245.769 506.474 L 263.769 497.474 M 283.854 506.926 L 283.854 260.789 M 301.854 515.926 L 301.854 269.789 M 283.854 524.926 L 283.854 278.789 M 265.854 515.926 L 265.854 269.789 M 283.854 260.789 L 301.854 269.789 L 283.854 278.789 L 265.854 269.789 L 283.854 260.789 M 283.854 506.926 L 301.854 515.926 M 301.854 515.926 L 283.854 524.926 M 283.854 524.926 L 265.854 515.926 M 265.854 515.926 L 283.854 506.926 M 32.626 397.385 L 32.626 197.080 M 50.626 406.385 L 50.626 206.080 M 32.626 415.385 L 32.626 215.080 M 14.626 406.385 L 14.626 206.080 M 32.626 197.080 L 50.626 206.080 L 32.626 215.080 L 14.626 206.080 L 32.626 197.080 M 32.626 397.385 L 50.626 406.385 M 50.626 406.385 L 32.626 415.385 M 32.626 415.385 L 14.626 406.385 M 14.626 406.385 L 32.626 397.385 M 67.164 417.350 L 67.164 159.966 M 85.164 426.350 L 85.164 168.966 M 67.164 435.350 L 67.164 177.966 M 49.164 426.350 L 49.164 168.966 M 67.164 159.966 L 85.164 168.966 L 67.164 177.966 L 49.164 168.966 L 67.164 159.966 M 67.164 417.350 L 85.164 426.350 M 85.164 426.350 L 67.164 435.350 M 67.164 435.350 L 49.164 426.350 M 49.164 426.350 L 67.164 417.350 M 86.270 424.612 L 86.270 152.773 M 104.270 433.612 L 104.270 161.773 M 86.270 442.612 L 86.270 170.773 M 68.270 433.612 L 68.270 161.773 M 86.270 152.773 L 104.270 161.773 L 86.270 170.773 L 68.270 161.773 L 86.270 152.773 M 86.270 424.612 L 104.270 433.612 M 104.270 433.612 L 86.270 442.612 M 86.270 442.612 L 68.270 433.612 M 68.270 433.612 L 86.270 424.612 M 102.376 433.838 L 102.376 194.770 M 120.376 442.838 L 120.376 203.770 M 102.376 451.838 L 102.376 212.770 M 84.376 442.838 L 84.376 203.770 M 102.376 194.770 L 120.376 203.770 L 102.376 212.770 L 84.376 203.770 L 102.376 194.770 M 102.376 433.838 L 120.376 442.838 M 120.376 442.838 L 102.376 451.838 M 102.376 451.838 L 84.376 442.838 M 84.376 442.838 L 102.376 433.838 M 121.902 443.799 L 121.902 309.032 M 139.902 452.799 L 139.902 318.032 M 121.902 461.799 L 121.902 327.032 M 103.902 452.799 L 103.902 318.032 M 121.902 309.032 L 139.902 318.032 L 121.902 327.032 L 103.902 318.032 L 121.902 309.032 M 121.902 443.799 L 139.902 452.799 M 139.902 452.799 L 121.902 461.799 M 121.902 461.799 L 103.902 452.799 M 103.902 452.799 L 121.902 443.799 M 138.559 451.406 L 138.559 331.690 M 156.559 460.406 L 156.559 340.690 M 138.559 469.406 L 138.559 349.690 M 120.559 460.406 L 120.559 340.690 M 138.559 331.690 L 156.559 340.690 L 138.559 349.690 L 120.559 340.690 L 138.559 331.690 M 138.559 451.406 L 156.559 460.406 M 156.559 460.406 L 138.559 469.406 M 138.559 469.406 L 120.559 460.406 M 120.559 460.406 L 138.559 451.406 M 157.019 459.808 L 157.019 211.649 M 175.019 468.808 L 175.019 220.649 M 157.019 477.808 L 157.019 229.649 M 139.019 468.808 L 139.019 220.649 M 157.019 211.649 L 175.019 220.649 L 157.019 229.649 L 139.019 220.649 L 157.019 211.649 M 157.019 459.808 L 175.019 468.808 M 175.019 468.808 L 157.019 477.808 M 157.019 477.808 L 139.019 468.808 M 139.019 468.808 L 157.019 459.808 M 192.014 480.525 L 192.014 325.249 M 210.014 489.525 L 210.014 334.249 M 192.014 498.525 L 192.014 343.249 M 174.014 489.525 L 174.014 334.249 M 192.014 325.249 L 210.014 334.249 L 192.014 343.249 L 174.014 334.249 L 192.014 325.249 M 192.014 480.525 L 210.014 489.525 M 210.014 489.525 L 192.014 498.525 M 192.014 498.525 L 174.014 489.525 M 174.014 489.525 L 192.014 480.525 M 209.142 487.325 L 209.142 219.850 M 227.142 496.325 L 227.142 228.850 M 209.142 505.325 L 209.142 237.850 M 191.142 496.325 L 191.142 228.850 M 209.142 219.850 L 227.142 228.850 L 209.142 237.850 L 191.142 228.850 L 209.142 219.850 M 209.142 487.325 L 227.142 496.325 M 227.142 496.325 L 209.142 505.325 M 209.142 505.325 L 191.142 496.325 M 191.142 496.325 L 209.142 487.325 M 226.518 496.095 L 226.518 288.209 M 244.518 505.095 L 244.518 297.209 M 226.518 514.095 L 226.518 306.209 M 208.518 505.095 L 208.518 297.209 M 226.518 288.209 L 244.518 297.209 L 226.518 306.209 L 208.518 297.209 L 226.518 288.209 M 226.518 496.095 L 244.518 505.095 M 244.518 505.095 L 226.518 514.095 M 226.518 514.095 L 208.518 505.095 M 208.518 505.095 L 226.518 496.095 M 246.517 505.821 L 246.517 386.219 M 264.517 514.821 L 264.517 395.219 M 246.517 523.821 L 246.517 404.219 M 228.517 514.821 L 228.517 395.219 M 246.517 386.219 L 264.517 395.219 L 246.517 404.219 L 228.517 395.219 L 246.517 386.219 M 246.517 505.821 L 264.517 514.821 M 264.517 514.821 L 246.517 523.821 M 246.517 523.821 L 228.517 514.821 M 228.517 514.821 L 246.517 505.821 M 267.289 514.859 L 267.289 435.672 M 285.289 523.859 L 285.289 444.672 M 267.289 532.859 L 267.289 453.672 M 249.289 523.859 L 249.289 444.672 M 267.289 435.672 L 285.289 444.672 L 267.289 453.672 L 249.289 444.672 L 267.289 435.672 M 267.289 514.859 L 285.289 523.859 M 285.289 523.859 L 267.289 532.859 M 267.289 532.859 L 249.289 523.859 M 249.289 523.859 L 267.289 514.859 M 9.254 407.553 L 9.254 265.175 M 27.254 416.553 L 27.254 274.175 M 9.254 425.553 L 9.254 283.175 M -8.746 416.553 L -8.746 274.175 M 9.254 265.175 L 27.254 274.175 L 9.254 283.175 L -8.746 274.175 L 9.254 265.175 M 9.254 407.553 L 27.254 416.553 M 27.254 416.553 L 9.254 425.553 M 9.254 425.553 L -8.746 416.553 M -8.746 416.553 L 9.254 407.553 M 32.836 416.003 L 32.836 230.435 M 50.836 425.003 L 50.836 239.435 M 32.836 434.003 L 32.836 248.435 M 14.836 425.003 L 14.836 239.435 M 32.836 230.435 L 50.836 239.435 L 32.836 248.435 L 14.836 239.435 L 32.836 230.435 M 32.836 416.003 L 50.836 425.003 M 50.836 425.003 L 32.836 434.003 M 32.836 434.003 L 14.836 425.003 M 14.836 425.003 L 32.836 416.003 M 48.972 424.597 L 48.972 267.047 M 66.972 433.597 L 66.972 276.047 M 48.972 442.597 L 48.972 285.047 M 30.972 433.597 L 30.972 276.047 M 48.972 267.047 L 66.972 276.047 L 48.972 285.047 L 30.972 276.047 L 48.972 267.047 M 48.972 424.597 L 66.972 433.597 M 66.972 433.597 L 48.972 442.597 M 48.972 442.597 L 30.972 433.597 M 30.972 433.597 L 48.972 424.597 M 64.835 434.818 L 64.835 174.761 M 82.835 443.818 L 82.835 183.761 M 64.835 452.818 L 64.835 192.761 M 46.835 443.818 L 46.835 183.761 M 64.835 174.761 L 82.835 183.761 L 64.835 192.761 L 46.835 183.761 L 64.835 174.761 M 64.835 434.818 L 82.835 443.818 M 82.835 443.818 L 64.835 452.818 M 64.835 452.818 L 46.835 443.818 M 46.835 443.818 L 64.835 434.818 M 86.681 443.256 L 86.681 175.785 M 104.681 452.256 L 104.681 184.785 M 86.681 461.256 L 86.681 193.785 M 68.681 452.256 L 68.681 184.785 M 86.681 175.785 L 104.681 184.785 L 86.681 193.785 L 68.681 184.785 L 86.681 175.785 M 86.681 443.256 L 104.681 452.256 M 104.681 452.256 L 86.681 461.256 M 86.681 461.256 L 68.681 452.256 M 68.681 452.256 L 86.681 443.256 M 104.546 452.269 L 104.546 235.201 M 122.546 461.269 L 122.546 244.201 M 104.546 470.269 L 104.546 253.201 M 86.546 461.269 L 86.546 244.201 M 104.546 235.201 L 122.546 244.201 L 104.546 253.201 L 86.546 244.201 L 104.546 235.201 M 104.546 452.269 L 122.546 461.269 M 122.546 461.269 L 104.546 470.269 M 104.546 470.269 L 86.546 461.269 M 86.546 461.269 L 104.546 452.269 M 121.944 461.432 L 121.944 373.064 M 139.944 470.432 L 139.944 382.064 M 121.944 479.432 L 121.944 391.064 M 103.944 470.432 L 103.944 382.064 M 121.944 373.064 L 139.944 382.064 L 121.944 391.064 L 103.944 382.064 L 121.944 373.064 M 121.944 461.432 L 139.944 470.432 M 139.944 470.432 L 121.944 479.432 M 121.944 479.432 L 103.944 470.432 M 103.944 470.432 L 121.944 461.432 M 140.716 470.236 L 140.716 278.572 M 158.716 479.236 L 158.716 287.572 M 140.716 488.236 L 140.716 296.572 M 122.716 479.236 L 122.716 287.572 M 140.716 278.572 L 158.716 287.572 L 140.716 296.572 L 122.716 287.572 L 140.716 278.572 M 140.716 470.236 L 158.716 479.236 M 158.716 479.236 L 140.716 488.236 M 140.716 488.236 L 122.716 479.236 M 122.716 479.236 L 140.716 470.236 M 156.301 480.231 L 156.301 196.928 M 174.301 489.231 L 174.301 205.928 M 156.301 498.231 L 156.301 214.928 M 138.301 489.231 L 138.301 205.928 M 156.301 196.928 L 174.301 205.928 L 156.301 214.928 L 138.301 205.928 L 156.301 196.928 M 156.301 480.231 L 174.301 489.231 M 174.301 489.231 L 156.301 498.231 M 156.301 498.231 L 138.301 489.231 M 138.301 489.231 L 156.301 480.231 M 173.464 488.557 L 173.464 191.962 M 191.464 497.557 L 191.464 200.962 M 173.464 506.557 L 173.464 209.962 M 155.464 497.557 L 155.464 200.962 M 173.464 191.962 L 191.464 200.962 L 173.464 209.962 L 155.464 200.962 L 173.464 191.962 M 173.464 488.557 L 191.464 497.557 M 191.464 497.557 L 173.464 506.557 M 173.464 506.557 L 155.464 497.557 M 155.464 497.557 L 173.464 488.557 M 191.326 497.881 L 191.326 221.465 M 209.326 506.881 L 209.326 230.465 M 191.326 515.881 L 191.326 239.465 M 173.326 506.881 L 173.326 230.465 M 191.326 221.465 L 209.326 230.465 L 191.326 239.465 L 173.326 230.465 L 191.326 221.465 M 191.326 497.881 L 209.326 506.881 M 209.326 506.881 L 191.326 515.881 M 191.326 515.881 L 173.326 506.881 M 173.326 506.881 L 191.326 497.881 M 229.116 515.785 L 229.116 424.306 M 247.116 524.785 L 247.116 433.306 M 229.116 533.785 L 229.116 442.306 M 211.116 524.785 L 211.116 433.306 M 229.116 424.306 L 247.116 433.306 L 229.116 442.306 L 211.116 433.306 L 229.116 424.306 M 229.116 515.785 L 247.116 524.785 M 247.116 524.785 L 229.116 533.785 M 229.116 533.785 L 211.116 524.785 M 211.116 524.785 L 229.116 515.785 M 243.406 523.926 L 243.406 355.850 M 261.406 532.926 L 261.406 364.850 M 243.406 541.926 L 243.406 373.850 M 225.406 532.926 L 225.406 364.850 M 243.406 355.850 L 261.406 364.850 L 243.406 373.850 L 225.406 364.850 L 243.406 355.850 M 243.406 523.926 L 261.406 532.926 M 261.406 532.926 L 243.406 541.926 M 243.406 541.926 L 225.406 532.926 M 225.406 532.926 L 243.406 523.926 M -2.621 416.279 L -2.621 142.256 M 15.379 425.279 L 15.379 151.256 M -2.621 434.279 L -2.621 160.256 M -20.621 425.279 L -20.621 151.256 M -2.621 142.256 L 15.379 151.256 L -2.621 160.256 L -20.621 151.256 L -2.621 142.256 M -2.621 416.279 L 15.379 425.279 M 15.379 425.279 L -2.621 434.279 M -2.621 434.279 L -20.621 425.279 M -20.621 425.279 L -2.621 416.279 M 10.304 425.519 L 10.304 264.992 M 28.304 434.519 L 28.304 273.992 M 10.304 443.519 L 10.304 282.992 M -7.696 434.519 L -7.696 273.992 M 10.304 264.992 L 28.304 273.992 L 10.304 282.992 L -7.696 273.992 L 10.304 264.992 M 10.304 425.519 L 28.304 434.519 M 28.304 434.519 L 10.304 443.519 M 10.304 443.519 L -7.696 434.519 M -7.696 434.519 L 10.304 425.519 M 30.694 435.560 L 30.694 177.753 M 48.694 444.560 L 48.694 186.753 M 30.694 453.560 L 30.694 195.753 M 12.694 444.560 L 12.694 186.753 M 30.694 177.753 L 48.694 186.753 L 30.694 195.753 L 12.694 186.753 L 30.694 177.753 M 30.694 435.560 L 48.694 444.560 M 48.694 444.560 L 30.694 453.560 M 30.694 453.560 L 12.694 444.560 M 12.694 444.560 L 30.694 435.560 M 50.381 443.403 L 50.381 233.709 M 68.381 452.403 L 68.381 242.709 M 50.381 461.403 L 50.381 251.709 M 32.381 452.403 L 32.381 242.709 M 50.381 233.709 L 68.381 242.709 L 50.381 251.709 L 32.381 242.709 L 50.381 233.709 M 50.381 443.403 L 68.381 452.403 M 68.381 452.403 L 50.381 461.403 M 50.381 461.403 L 32.381 452.403 M 32.381 452.403 L 50.381 443.403 M 81.158 460.502 L 81.158 386.351 M 99.158 469.502 L 99.158 395.351 M 81.158 478.502 L 81.158 404.351 M 63.158 469.502 L 63.158 395.351 M 81.158 386.351 L 99.158 395.351 L 81.158 404.351 L 63.158 395.351 L 81.158 386.351 M 81.158 460.502 L 99.158 469.502 M 99.158 469.502 L 81.158 478.502 M 81.158 478.502 L 63.158 469.502 M 63.158 469.502 L 81.158 460.502 M 103.504 469.070 L 103.504 194.116 M 121.504 478.070 L 121.504 203.116 M 103.504 487.070 L 103.504 212.116 M 85.504 478.070 L 85.504 203.116 M 103.504 194.116 L 121.504 203.116 L 103.504 212.116 L 85.504 203.116 L 103.504 194.116 M 103.504 469.070 L 121.504 478.070 M 121.504 478.070 L 103.504 487.070 M 103.504 487.070 L 85.504 478.070 M 85.504 478.070 L 103.504 469.070 M 122.189 479.676 L 122.189 256.047 M 140.189 488.676 L 140.189 265.047 M 122.189 497.676 L 122.189 274.047 M 104.189 488.676 L 104.189 265.047 M 122.189 256.047 L 140.189 265.047 L 122.189 274.047 L 104.189 265.047 L 122.189 256.047 M 122.189 479.676 L 140.189 488.676 M 140.189 488.676 L 122.189 497.676 M 122.189 497.676 L 104.189 488.676 M 104.189 488.676 L 122.189 479.676 M 139.398 488.610 L 139.398 205.964 M 157.398 497.610 L 157.398 214.964 M 139.398 506.610 L 139.398 223.964 M 121.398 497.610 L 121.398 214.964 M 139.398 205.964 L 157.398 214.964 L 139.398 223.964 L 121.398 214.964 L 139.398 205.964 M 139.398 488.610 L 157.398 497.610 M 157.398 497.610 L 139.398 506.610 M 139.398 506.610 L 121.398 497.610 M 121.398 497.610 L 139.398 488.610 M 154.446 496.835 L 154.446 338.046 M 172.446 505.835 L 172.446 347.046 M 154.446 514.835 L 154.446 356.046 M 136.446 505.835 L 136.446 347.046 M 154.446 338.046 L 172.446 347.046 L 154.446 356.046 L 136.446 347.046 L 154.446 338.046 M 154.446 496.835 L 172.446 505.835 M 172.446 505.835 L 154.446 514.835 M 154.446 514.835 L 136.446 505.835 M 136.446 505.835 L 154.446 496.835 M 173.313 507.505 L 173.313 438.836 M 191.313 516.505 L 191.313 447.836 M 173.313 525.505 L 173.313 456.836 M 155.313 516.505 L 155.313 447.836 M 173.313 438.836 L 191.313 447.836 L 173.313 456.836 L 155.313 447.836 L 173.313 438.836 M 173.313 507.505 L 191.313 516.505 M 191.313 516.505 L 173.313 525.505 M 173.313 525.505 L 155.313 516.505 M 155.313 516.505 L 173.313 507.505" fill="none" stroke="#e5e7eb" stroke-width="1" vector-effect="non-scaling-stroke"/></svg>