<svg xmlns="http://www.w3.org/2000/svg" viewBox="10.085931279764687 220.95570010103435 74.20698955496817 81.38250860707714" width="74.20698955496817" height="81.38250860707714" shape-rendering="geometricPrecision"><rect x="10.085931279764687" y="220.95570010103435" width="74.20698955496817" height="81.38250860707714" fill="#0b0f14"/><path d="M 20.000 277.000 L 26.000 277.000 L 29.000 282.196 L 32.000 277.000 L 38.000 277.000 L 41.000 282.196 L 38.000 287.392 L 44.000 287.392 L 47.000 292.588 L 50.000 287.392 L 56.000 287.392 L 53.000 282.196 L 56.000 277.000 L 62.000 277.000 L 65.000 282.196 L 68.000 277.000 L 74.000 277.000 L 71.000 271.804 L 74.000 266.608 L 68.000 266.608 L 65.000 261.412 L 68.000 256.215 L 74.000 256.215 L 71.000 251.019 L 74.000 245.823 L 68.000 245.823 L 65.000 240.627 L 62.000 245.823 L 56.000 245.823 L 53.000 240.627 L 56.000 235.431 L 50.000 235.431 L 47.000 230.235 L 44.000 235.431 L 38.000 235.431 L 41.000 240.627 L 38.000 245.823 L 32.000 245.823 L 29.000 240.627 L 26.000 245.823 L 20.000 245.823 L 23.000 251.019 L 20.000 256.215 L 26.000 256.215 L 29.000 261.412 L 26.000 266.608 L 20.000 266.608 L 23.000 271.804 L 20.000 277.000" fill="none" stroke="#2dd4bf" stroke-width="1" vector-effect="non-scaling-stroke"/><path d="M 19.201 273.593 L 21.200 278.431 L 22.400 278.427 L 23.600 278.415 L 24.800 278.403 L 26.000 278.401 L 24.414 278.741 L 24.978 279.782 L 25.523 280.825 L 26.048 281.874 L 26.556 282.930 L 32.166 281.924 L 32.885 280.931 L 33.594 279.950 L 34.285 278.979 L 34.954 278.013 L 33.200 279.309 L 34.400 279.605 L 35.600 279.886 L 36.800 280.123 L 38.000 280.300 L 36.069 279.733 L 36.801 280.804 L 37.532 281.861 L 38.254 282.907 L 38.961 283.944 L 38.285 281.485 L 37.588 282.527 L 36.875 283.577 L 36.153 284.638 L 35.427 285.712 L 39.200 290.854 L 40.400 290.890 L 41.600 290.886 L 42.800 290.862 L 44.000 290.836 L 42.746 290.158 L 43.299 291.205 L 43.833 292.252 L 44.349 293.298 L 44.850 294.338 L 49.671 293.298 L 50.212 292.256 L 50.773 291.214 L 51.350 290.172 L 51.942 289.132 L 51.200 290.888 L 52.400 290.892 L 53.600 290.876 L 54.800 290.837 L 56.000 290.773 L 57.854 284.639 L 57.145 283.580 L 56.426 282.528 L 55.704 281.485 L 54.991 280.452 L 55.594 282.902 L 56.188 281.862 L 56.772 280.821 L 57.344 279.779 L 57.904 278.735 L 57.200 280.483 L 58.400 280.494 L 59.600 280.500 L 60.800 280.496 L 62.000 280.475 L 60.044 279.726 L 60.430 280.672 L 60.871 281.585 L 61.386 282.482 L 61.971 283.383 L 68.630 282.362 L 69.231 281.357 L 69.825 280.364 L 70.409 279.380 L 70.979 278.399 L 69.200 279.505 L 70.400 279.187 L 71.600 278.883 L 72.800 278.635 L 74.000 278.471 L 76.161 275.109 L 75.774 273.880 L 75.227 272.610 L 74.504 271.350 L 73.636 270.146 L 74.149 272.453 L 74.667 271.436 L 75.194 270.412 L 75.735 269.382 L 76.293 268.348 L 72.800 263.113 L 71.600 263.178 L 70.400 263.300 L 69.200 263.447 L 68.000 263.594 L 68.687 264.136 L 68.054 263.147 L 67.441 262.134 L 66.840 261.097 L 66.249 260.039 L 66.873 261.785 L 67.511 260.796 L 68.165 259.810 L 68.835 258.823 L 69.515 257.832 L 69.200 259.479 L 70.400 259.512 L 71.600 259.546 L 72.800 259.580 L 74.000 259.613 L 75.127 253.478 L 74.546 252.434 L 73.985 251.385 L 73.439 250.335 L 72.901 249.285 L 73.548 251.720 L 74.182 250.685 L 74.808 249.647 L 75.427 248.609 L 76.045 247.571 L 72.800 242.323 L 71.600 242.324 L 70.400 242.325 L 69.200 242.326 L 68.000 242.325 L 69.606 243.036 L 69.026 241.998 L 68.441 240.960 L 67.855 239.922 L 67.274 238.884 L 62.231 239.917 L 61.719 240.956 L 61.194 241.999 L 60.656 243.044 L 60.108 244.090 L 60.800 242.380 L 59.600 242.405 L 58.400 242.425 L 57.200 242.436 L 56.000 242.433 L 57.121 243.088 L 56.542 242.043 L 55.985 240.993 L 55.450 239.940 L 54.936 238.888 L 55.535 241.327 L 56.160 240.290 L 56.811 239.255 L 57.492 238.220 L 58.204 237.179 L 54.800 231.937 L 53.600 231.944 L 52.400 231.962 L 51.200 232.001 L 50.000 232.072 L 52.112 232.767 L 51.631 231.799 L 51.127 230.844 L 50.593 229.898 L 50.026 228.956 L 43.379 229.971 L 42.779 231.009 L 42.175 232.069 L 41.569 233.149 L 40.972 234.246 L 42.800 233.316 L 41.600 233.541 L 40.400 233.721 L 39.200 233.849 L 38.000 233.930 L 36.095 237.219 L 36.670 238.265 L 37.221 239.320 L 37.754 240.384 L 38.276 241.459 L 37.792 240.885 L 37.313 241.961 L 36.831 243.025 L 36.339 244.078 L 35.830 245.122 L 36.800 244.413 L 35.600 244.379 L 34.400 244.338 L 33.200 244.301 L 32.000 244.275 L 33.050 244.008 L 32.469 242.975 L 31.916 241.950 L 31.395 240.931 L 30.909 239.912 L 26.553 240.942 L 26.005 241.970 L 25.448 242.999 L 24.884 244.029 L 24.314 245.059 L 24.800 244.315 L 23.600 244.335 L 22.400 244.355 L 21.200 244.373 L 20.000 244.389 L 18.810 247.598 L 19.487 248.658 L 20.139 249.713 L 20.766 250.762 L 21.370 251.803 L 20.765 251.277 L 20.155 252.320 L 19.540 253.364 L 18.921 254.410 L 18.298 255.456 L 21.200 257.715 L 22.400 257.693 L 23.600 257.670 L 24.800 257.650 L 26.000 257.633 L 24.524 257.955 L 24.995 258.996 L 25.464 260.048 L 25.937 261.111 L 26.420 262.183 L 25.797 261.671 L 25.189 262.708 L 24.598 263.750 L 24.023 264.798 L 23.464 265.850 L 24.800 265.146 L 23.600 265.181 L 22.400 265.199 L 21.200 265.207 L 20.000 265.208 L 18.455 268.347 L 19.034 269.387 L 19.621 270.426 L 20.216 271.466 L 20.817 272.505 L 20.288 272.143 L 19.751 273.181 L 19.203 274.217 L 18.648 275.252 L 18.086 276.286" fill="none" stroke="#f472b6" stroke-width="1" vector-effect="non-scaling-stroke"/></svg>