<svg xmlns="http://www.w3.org/2000/svg" viewBox="12 185.8615612366939 196 239.43455417638518" width="196" height="239.43455417638518" shape-rendering="geometricPrecision"><rect x="12" y="185.8615612366939" width="196" height="239.43455417638518" fill="#0b0f14"/><path d="M 20.000 277.000 L 26.000 277.000 L 32.000 277.000 L 38.000 277.000 L 44.000 277.000 L 50.000 277.000 L 56.000 277.000 L 62.000 277.000 L 68.000 277.000 L 71.000 271.804 L 74.000 266.608 L 77.000 261.412 L 80.000 256.215 L 77.000 251.019 L 74.000 245.823 L 68.000 245.823 M 68.000 245.823 L 62.000 245.823 L 59.000 240.627 M 74.000 245.823 L 71.000 240.627 M 71.000 240.627 L 68.000 235.431 L 71.000 230.235 M 74.000 245.823 L 71.000 240.627 L 68.000 235.431 L 71.000 230.235 L 74.000 225.038 L 77.000 219.842 M 77.000 219.842 L 80.000 214.646 L 86.000 214.646 M 68.000 235.431 L 62.000 235.431 M 62.000 235.431 L 56.000 235.431 L 53.000 230.235 M 80.000 256.215 L 83.000 251.019 L 86.000 245.823 L 83.000 240.627 M 83.000 240.627 L 80.000 235.431 L 83.000 230.235 M 86.000 245.823 L 89.000 240.627 M 89.000 240.627 L 92.000 235.431 L 98.000 235.431 M 86.000 245.823 L 89.000 240.627 L 92.000 235.431 L 98.000 235.431 L 104.000 235.431 L 110.000 235.431 M 110.000 235.431 L 116.000 235.431 L 119.000 240.627 M 92.000 235.431 L 89.000 230.235 M 89.000 230.235 L 86.000 225.038 L 89.000 219.842 M 80.000 256.215 L 83.000 251.019 L 86.000 245.823 L 89.000 240.627 L 92.000 235.431 L 98.000 235.431 L 104.000 235.431 L 110.000 235.431 L 116.000 235.431 L 122.000 235.431 L 128.000 235.431 L 131.000 230.235 M 131.000 230.235 L 134.000 225.038 L 140.000 225.038 M 128.000 235.431 L 134.000 235.431 M 134.000 235.431 L 140.000 235.431 L 143.000 240.627 M 128.000 235.431 L 134.000 235.431 L 140.000 235.431 L 143.000 240.627 L 146.000 245.823 L 149.000 251.019 M 149.000 251.019 L 152.000 256.215 L 149.000 261.412 M 140.000 235.431 L 143.000 230.235 M 143.000 230.235 L 146.000 225.038 L 152.000 225.038 M 92.000 235.431 L 89.000 230.235 L 86.000 225.038 L 80.000 225.038 M 80.000 225.038 L 74.000 225.038 L 71.000 219.842 M 86.000 225.038 L 83.000 219.842 M 83.000 219.842 L 80.000 214.646 L 83.000 209.450 M 86.000 225.038 L 83.000 219.842 L 80.000 214.646 L 83.000 209.450 L 86.000 204.254 L 89.000 199.058 M 89.000 199.058 L 92.000 193.862 L 98.000 193.862 M 80.000 214.646 L 74.000 214.646 M 74.000 214.646 L 68.000 214.646 L 65.000 209.450 M 68.000 277.000 L 74.000 277.000 L 80.000 277.000 L 86.000 277.000 L 92.000 277.000 L 95.000 271.804 L 98.000 266.608 L 95.000 261.412 M 95.000 261.412 L 92.000 256.215 L 95.000 251.019 M 98.000 266.608 L 101.000 261.412 M 101.000 261.412 L 104.000 256.215 L 110.000 256.215 M 98.000 266.608 L 101.000 261.412 L 104.000 256.215 L 110.000 256.215 L 116.000 256.215 L 122.000 256.215 M 122.000 256.215 L 128.000 256.215 L 131.000 261.412 M 104.000 256.215 L 101.000 251.019 M 101.000 251.019 L 98.000 245.823 L 101.000 240.627 M 92.000 277.000 L 98.000 277.000 L 104.000 277.000 L 107.000 271.804 M 107.000 271.804 L 110.000 266.608 L 116.000 266.608 M 104.000 277.000 L 110.000 277.000 M 110.000 277.000 L 116.000 277.000 L 119.000 282.196 M 104.000 277.000 L 110.000 277.000 L 116.000 277.000 L 119.000 282.196 L 122.000 287.392 L 125.000 292.588 M 125.000 292.588 L 128.000 297.785 L 125.000 302.981 M 116.000 277.000 L 119.000 271.804 M 119.000 271.804 L 122.000 266.608 L 128.000 266.608 M 92.000 277.000 L 98.000 277.000 L 104.000 277.000 L 110.000 277.000 L 116.000 277.000 L 119.000 282.196 L 122.000 287.392 L 125.000 292.588 L 128.000 297.785 L 131.000 302.981 L 134.000 308.177 L 140.000 308.177 M 140.000 308.177 L 146.000 308.177 L 149.000 313.373 M 134.000 308.177 L 137.000 313.373 M 137.000 313.373 L 140.000 318.569 L 137.000 323.765 M 134.000 308.177 L 137.000 313.373 L 140.000 318.569 L 137.000 323.765 L 134.000 328.962 L 131.000 334.158 M 131.000 334.158 L 128.000 339.354 L 122.000 339.354 M 140.000 318.569 L 146.000 318.569 M 146.000 318.569 L 152.000 318.569 L 155.000 323.765 M 116.000 277.000 L 119.000 271.804 L 122.000 266.608 L 119.000 261.412 M 119.000 261.412 L 116.000 256.215 L 119.000 251.019 M 122.000 266.608 L 125.000 261.412 M 125.000 261.412 L 128.000 256.215 L 134.000 256.215 M 122.000 266.608 L 125.000 261.412 L 128.000 256.215 L 134.000 256.215 L 140.000 256.215 L 146.000 256.215 M 146.000 256.215 L 152.000 256.215 L 155.000 261.412 M 128.000 256.215 L 125.000 251.019 M 125.000 251.019 L 122.000 245.823 L 125.000 240.627 M 68.000 277.000 L 74.000 277.000 L 80.000 277.000 L 86.000 277.000 L 92.000 277.000 L 98.000 277.000 L 104.000 277.000 L 110.000 277.000 L 116.000 277.000 L 119.000 282.196 L 122.000 287.392 L 125.000 292.588 L 128.000 297.785 L 131.000 302.981 L 134.000 308.177 L 137.000 313.373 L 140.000 318.569 L 143.000 323.765 L 146.000 328.962 L 149.000 334.158 L 152.000 339.354 L 158.000 339.354 L 164.000 339.354 L 167.000 334.158 M 167.000 334.158 L 170.000 328.962 L 176.000 328.962 M 164.000 339.354 L 170.000 339.354 M 170.000 339.354 L 176.000 339.354 L 179.000 344.550 M 164.000 339.354 L 170.000 339.354 L 176.000 339.354 L 179.000 344.550 L 182.000 349.746 L 185.000 354.942 M 185.000 354.942 L 188.000 360.138 L 185.000 365.335 M 176.000 339.354 L 179.000 334.158 M 179.000 334.158 L 182.000 328.962 L 188.000 328.962 M 152.000 339.354 L 155.000 344.550 L 158.000 349.746 L 164.000 349.746 M 164.000 349.746 L 170.000 349.746 L 173.000 354.942 M 158.000 349.746 L 161.000 354.942 M 161.000 354.942 L 164.000 360.138 L 161.000 365.335 M 158.000 349.746 L 161.000 354.942 L 164.000 360.138 L 161.000 365.335 L 158.000 370.531 L 155.000 375.727 M 155.000 375.727 L 152.000 380.923 L 146.000 380.923 M 164.000 360.138 L 170.000 360.138 M 170.000 360.138 L 176.000 360.138 L 179.000 365.335 M 152.000 339.354 L 155.000 344.550 L 158.000 349.746 L 161.000 354.942 L 164.000 360.138 L 161.000 365.335 L 158.000 370.531 L 155.000 375.727 L 152.000 380.923 L 149.000 386.119 L 146.000 391.315 L 149.000 396.512 M 149.000 396.512 L 152.000 401.708 L 149.000 406.904 M 146.000 391.315 L 143.000 396.512 M 143.000 396.512 L 140.000 401.708 L 134.000 401.708 M 146.000 391.315 L 143.000 396.512 L 140.000 401.708 L 134.000 401.708 L 128.000 401.708 L 122.000 401.708 M 122.000 401.708 L 116.000 401.708 L 113.000 396.512 M 140.000 401.708 L 143.000 406.904 M 143.000 406.904 L 146.000 412.100 L 143.000 417.296 M 164.000 360.138 L 170.000 360.138 L 176.000 360.138 L 179.000 354.942 M 179.000 354.942 L 182.000 349.746 L 188.000 349.746 M 176.000 360.138 L 182.000 360.138 M 182.000 360.138 L 188.000 360.138 L 191.000 365.335 M 176.000 360.138 L 182.000 360.138 L 188.000 360.138 L 191.000 365.335 L 194.000 370.531 L 197.000 375.727 M 197.000 375.727 L 200.000 380.923 L 197.000 386.119 M 188.000 360.138 L 191.000 354.942 M 191.000 354.942 L 194.000 349.746 L 200.000 349.746 M 116.000 277.000 L 119.000 271.804 L 122.000 266.608 L 125.000 261.412 L 128.000 256.215 L 125.000 251.019 L 122.000 245.823 L 116.000 245.823 M 116.000 245.823 L 110.000 245.823 L 107.000 240.627 M 122.000 245.823 L 119.000 240.627 M 119.000 240.627 L 116.000 235.431 L 119.000 230.235 M 122.000 245.823 L 119.000 240.627 L 116.000 235.431 L 119.000 230.235 L 122.000 225.038 L 125.000 219.842 M 125.000 219.842 L 128.000 214.646 L 134.000 214.646 M 116.000 235.431 L 110.000 235.431 M 110.000 235.431 L 104.000 235.431 L 101.000 230.235 M 128.000 256.215 L 131.000 251.019 L 134.000 245.823 L 131.000 240.627 M 131.000 240.627 L 128.000 235.431 L 131.000 230.235 M 134.000 245.823 L 137.000 240.627 M 137.000 240.627 L 140.000 235.431 L 146.000 235.431 M 134.000 245.823 L 137.000 240.627 L 140.000 235.431 L 146.000 235.431 L 152.000 235.431 L 158.000 235.431 M 158.000 235.431 L 164.000 235.431 L 167.000 240.627 M 140.000 235.431 L 137.000 230.235 M 137.000 230.235 L 134.000 225.038 L 137.000 219.842 M 128.000 256.215 L 131.000 251.019 L 134.000 245.823 L 137.000 240.627 L 140.000 235.431 L 146.000 235.431 L 152.000 235.431 L 158.000 235.431 L 164.000 235.431 L 170.000 235.431 L 176.000 235.431 L 179.000 230.235 M 179.000 230.235 L 182.000 225.038 L 188.000 225.038 M 176.000 235.431 L 182.000 235.431 M 182.000 235.431 L 188.000 235.431 L 191.000 240.627 M 176.000 235.431 L 182.000 235.431 L 188.000 235.431 L 191.000 240.627 L 194.000 245.823 L 197.000 251.019 M 197.000 251.019 L 200.000 256.215 L 197.000 261.412 M 188.000 235.431 L 191.000 230.235 M 191.000 230.235 L 194.000 225.038 L 200.000 225.038 M 140.000 235.431 L 137.000 230.235 L 134.000 225.038 L 128.000 225.038 M 128.000 225.038 L 122.000 225.038 L 119.000 219.842 M 134.000 225.038 L 131.000 219.842 M 131.000 219.842 L 128.000 214.646 L 131.000 209.450 M 134.000 225.038 L 131.000 219.842 L 128.000 214.646 L 131.000 209.450 L 134.000 204.254 L 137.000 199.058 M 137.000 199.058 L 140.000 193.862 L 146.000 193.862 M 128.000 214.646 L 122.000 214.646 M 122.000 214.646 L 116.000 214.646 L 113.000 209.450" fill="none" stroke="#00AEEF" stroke-width="1" vector-effect="non-scaling-stroke"/></svg>