<svg xmlns="http://www.w3.org/2000/svg" viewBox="12 263.8378296815685 65.84169768644757 36.05409370393215" width="65.84169768644757" height="36.05409370393215" shape-rendering="geometricPrecision"><rect x="12" y="263.8378296815685" width="65.84169768644757" height="36.05409370393215" fill="#0b0f14"/><path d="M 20.000 277.000 L 26.184 277.000 L 32.114 277.000 L 37.716 274.388 M 37.716 274.388 L 42.962 271.941 L 49.130 271.941 M 32.114 277.000 L 38.123 277.000 M 38.123 277.000 L 44.236 277.000 L 49.790 279.590 M 32.114 277.000 L 37.848 277.000 L 44.111 277.000 L 49.696 279.604 L 55.171 282.157 L 60.670 284.721 M 60.670 284.721 L 65.853 287.138 L 69.842 291.892 M 44.111 277.000 L 49.482 274.496 M 49.482 274.496 L 55.182 271.838 L 61.023 271.838" fill="none" stroke="#e5e7eb" stroke-width="1" vector-effect="non-scaling-stroke"/><path d="M 51.612 273.502 L 51.987 273.919 M 52.775 273.737 L 52.425 273.123 M 40.654 273.017 L 40.368 273.819 M 33.727 276.248 L 29.980 276.710 M 29.980 276.710 L 29.978 275.529" fill="none" stroke="#e5e7eb" stroke-width="1" vector-effect="non-scaling-stroke"/></svg>