<svg xmlns="http://www.w3.org/2000/svg" viewBox="12 214.46356137067616 250.04365290198533 176.92206567036138" width="250.04365290198533" height="176.92206567036138" shape-rendering="geometricPrecision"><rect x="12" y="214.46356137067616" width="250.04365290198533" height="176.92206567036138" fill="#0b0f14"/><path d="M 20.000 277.000 L 26.184 277.000 L 32.114 277.000 L 38.295 277.000 L 44.083 277.000 L 50.252 277.000 L 56.261 277.000 L 62.374 277.000 L 68.502 277.000 L 73.699 274.577 L 79.375 271.930 L 84.960 269.326 L 90.435 266.772 L 94.335 262.124 L 98.011 257.744 L 99.617 251.750 M 99.617 251.750 L 101.151 246.026 L 105.193 241.208 M 98.011 257.744 L 101.766 253.269 M 101.766 253.269 L 105.561 248.746 L 111.036 246.193 M 98.011 257.744 L 101.717 253.327 L 105.739 248.534 L 111.061 246.052 L 116.307 243.606 L 121.490 241.189 M 121.490 241.189 L 126.686 238.766 L 132.958 238.766 M 105.739 248.534 L 107.277 242.792 M 107.277 242.792 L 108.869 236.852 L 112.611 232.392 M 90.435 266.772 L 96.114 264.124 L 101.390 261.664 L 105.423 256.858 M 105.423 256.858 L 109.200 252.356 L 114.463 249.902 M 101.390 261.664 L 106.864 259.112 M 106.864 259.112 L 112.549 256.460 L 118.564 256.460 M 101.390 261.664 L 106.914 259.088 L 112.432 256.515 L 118.453 256.515 L 124.663 256.515 L 130.402 256.515 M 130.402 256.515 L 136.642 256.515 L 142.223 259.117 M 112.432 256.515 L 116.284 251.925 M 116.284 251.925 L 120.003 247.492 L 125.452 244.951 M 90.435 266.772 L 96.104 264.129 L 101.312 261.700 L 106.798 259.142 L 112.234 256.607 L 117.981 256.607 L 124.022 256.607 L 130.173 256.607 L 136.183 256.607 L 142.408 256.607 L 148.706 256.607 L 154.414 253.946 M 154.414 253.946 L 160.122 251.284 L 166.048 251.284 M 148.706 256.607 L 154.699 256.607 M 154.699 256.607 L 160.910 256.607 L 166.579 259.251 M 148.706 256.607 L 154.487 256.607 L 160.275 256.607 L 165.571 259.077 L 170.958 261.589 L 176.183 264.026 M 176.183 264.026 L 181.580 266.542 L 185.462 271.168 M 160.275 256.607 L 165.509 254.167 M 165.509 254.167 L 170.717 251.738 L 176.550 251.738 M 112.234 256.607 L 115.962 252.165 L 119.884 247.490 L 121.394 241.855 M 121.394 241.855 L 123.004 235.845 L 126.741 231.392 M 119.884 247.490 L 123.931 242.667 M 123.931 242.667 L 127.935 237.895 L 133.472 235.313 M 119.884 247.490 L 123.680 242.966 L 127.429 238.498 L 132.627 236.075 L 138.184 233.483 L 143.491 231.008 M 143.491 231.008 L 149.160 228.365 L 155.286 228.365 M 127.429 238.498 L 128.985 232.691 M 128.985 232.691 L 130.507 227.010 L 134.323 222.464 M 68.502 277.000 L 74.549 277.000 L 80.576 277.000 L 86.853 277.000 L 92.588 277.000 L 98.066 274.445 L 103.772 271.785 L 107.494 267.349 M 107.494 267.349 L 111.216 262.914 L 116.691 260.360 M 103.772 271.785 L 109.198 269.255 M 109.198 269.255 L 114.611 266.731 L 120.579 266.731 M 103.772 271.785 L 109.300 269.207 L 114.467 266.797 L 120.636 266.797 L 126.504 266.797 L 132.804 266.797 M 132.804 266.797 L 138.590 266.797 L 144.167 269.398 M 114.467 266.797 L 118.306 262.222 M 118.306 262.222 L 122.140 257.654 L 127.718 255.053 M 92.588 277.000 L 98.651 277.000 L 104.708 277.000 L 109.981 274.541 M 109.981 274.541 L 115.283 272.069 L 121.555 272.069 M 104.708 277.000 L 110.736 277.000 M 110.736 277.000 L 117.011 277.000 L 122.216 279.427 M 104.708 277.000 L 110.676 277.000 L 116.705 277.000 L 122.184 279.555 L 127.684 282.120 L 133.244 284.712 M 133.244 284.712 L 138.865 287.333 L 142.912 292.157 M 116.705 277.000 L 122.260 274.410 M 122.260 274.410 L 127.618 271.911 L 133.361 271.911 M 92.588 277.000 L 98.647 277.000 L 104.882 277.000 L 111.125 277.000 L 116.843 277.000 L 122.032 279.420 L 127.608 282.020 L 133.078 284.570 L 138.770 287.225 L 144.170 289.743 L 149.563 292.258 L 155.568 292.258 M 155.568 292.258 L 161.315 292.258 L 166.520 294.685 M 149.563 292.258 L 155.247 294.908 M 155.247 294.908 L 160.809 297.502 L 164.655 302.085 M 149.563 292.258 L 154.767 294.684 L 159.986 297.118 L 163.838 301.708 L 167.652 306.254 L 171.477 310.812 M 171.477 310.812 L 175.340 315.416 L 176.966 321.483 M 159.986 297.118 L 166.084 297.118 M 166.084 297.118 L 171.839 297.118 L 177.207 299.621 M 116.843 277.000 L 122.459 274.381 L 127.714 271.931 L 131.759 267.110 M 131.759 267.110 L 135.534 262.612 L 141.118 260.008 M 127.714 271.931 L 133.210 269.368 M 133.210 269.368 L 138.433 266.932 L 144.382 266.932 M 127.714 271.931 L 133.195 269.375 L 138.888 266.720 L 145.152 266.720 L 150.893 266.720 L 156.651 266.720 M 156.651 266.720 L 162.615 266.720 L 168.018 269.239 M 138.888 266.720 L 142.870 261.975 M 142.870 261.975 L 146.775 257.321 L 152.405 254.696 M 68.502 277.000 L 74.714 277.000 L 80.956 277.000 L 87.217 277.000 L 93.126 277.000 L 98.975 277.000 L 105.128 277.000 L 110.955 277.000 L 117.241 277.000 L 122.626 279.511 L 128.246 282.132 L 133.547 284.604 L 139.010 287.151 L 144.683 289.796 L 149.900 292.229 L 155.265 294.731 L 160.752 297.290 L 166.246 299.851 L 171.631 302.363 L 177.193 304.956 L 182.756 307.550 L 188.949 307.550 L 195.058 307.550 L 200.734 304.903 M 200.734 304.903 L 205.913 302.488 L 212.030 302.488 M 195.058 307.550 L 200.971 307.550 M 200.971 307.550 L 207.202 307.550 L 212.833 310.176 M 195.058 307.550 L 201.026 307.550 L 206.761 307.550 L 212.108 310.043 L 217.526 312.570 L 223.139 315.187 M 223.139 315.187 L 228.575 317.722 L 232.457 322.348 M 206.761 307.550 L 212.198 305.015 M 212.198 305.015 L 217.604 302.494 L 223.336 302.494 M 182.756 307.550 L 188.015 310.003 L 193.284 312.459 L 199.378 312.459 M 199.378 312.459 L 205.476 312.459 L 211.080 315.072 M 193.284 312.459 L 198.470 314.878 M 198.470 314.878 L 204.174 317.538 L 208.101 322.217 M 193.284 312.459 L 198.652 314.963 L 203.823 317.374 L 207.611 321.889 L 211.575 326.613 L 215.340 331.099 M 215.340 331.099 L 219.067 335.541 L 220.550 341.079 M 203.823 317.374 L 209.838 317.374 M 209.838 317.374 L 215.633 317.374 L 220.925 319.841 M 182.756 307.550 L 187.990 309.991 L 193.692 312.650 L 198.901 315.079 L 204.153 317.528 L 208.164 322.308 L 212.210 327.129 L 216.243 331.936 L 219.934 336.335 L 223.787 340.927 L 227.656 345.537 L 233.208 348.127 M 233.208 348.127 L 238.595 350.639 L 242.348 355.111 M 227.656 345.537 L 231.487 350.103 M 231.487 350.103 L 235.222 354.555 L 236.799 360.438 M 227.656 345.537 L 231.554 350.183 L 235.262 354.602 L 236.813 360.392 L 238.411 366.355 L 239.944 372.077 M 239.944 372.077 L 241.421 377.586 L 240.398 383.386 M 235.262 354.602 L 240.709 357.142 M 240.709 357.142 L 246.221 359.712 L 249.900 364.097 M 204.153 317.528 L 210.218 317.528 L 215.958 317.528 L 221.444 314.970 M 221.444 314.970 L 227.134 312.316 L 233.180 312.316 M 215.958 317.528 L 221.699 317.528 M 221.699 317.528 L 227.689 317.528 L 233.293 320.141 M 215.958 317.528 L 222.229 317.528 L 228.427 317.528 L 233.698 319.986 L 239.204 322.553 L 244.753 325.141 M 244.753 325.141 L 250.029 327.601 L 254.044 332.385 M 228.427 317.528 L 233.678 315.079 M 233.678 315.079 L 239.386 312.418 L 245.206 312.418 M 117.241 277.000 L 122.925 274.350 L 128.459 271.769 L 134.043 269.165 L 139.435 266.651 L 143.414 261.908 L 147.176 257.425 L 148.708 251.706 M 148.708 251.706 L 150.318 245.698 L 154.029 241.276 M 147.176 257.425 L 151.028 252.835 M 151.028 252.835 L 154.947 248.164 L 160.625 245.516 M 147.176 257.425 L 151.159 252.678 L 155.149 247.923 L 160.771 245.302 L 166.140 242.798 L 171.625 240.240 M 171.625 240.240 L 176.951 237.757 L 183.158 237.757 M 155.149 247.923 L 156.667 242.259 M 156.667 242.259 L 158.220 236.464 L 161.943 232.026 M 139.435 266.651 L 144.967 264.071 L 150.648 261.422 L 154.612 256.699 M 154.612 256.699 L 158.477 252.091 L 163.929 249.550 M 150.648 261.422 L 155.924 258.962 M 155.924 258.962 L 161.333 256.439 L 167.430 256.439 M 150.648 261.422 L 156.223 258.822 L 161.431 256.394 L 167.442 256.394 L 173.358 256.394 L 179.462 256.394 M 179.462 256.394 L 185.179 256.394 L 190.768 259.000 M 161.431 256.394 L 165.277 251.810 M 165.277 251.810 L 169.239 247.088 L 174.567 244.604 M 139.435 266.651 L 144.642 264.223 L 149.997 261.725 L 155.396 259.208 L 160.853 256.663 L 166.895 256.663 L 173.098 256.663 L 179.373 256.663 L 185.374 256.663 L 191.096 256.663 L 196.903 256.663 L 202.080 254.250 M 202.080 254.250 L 207.394 251.772 L 213.271 251.772 M 196.903 256.663 L 203.177 256.663 M 203.177 256.663 L 209.095 256.663 L 214.582 259.222 M 196.903 256.663 L 202.930 256.663 L 208.774 256.663 L 214.138 259.165 L 219.700 261.758 L 225.122 264.287 M 225.122 264.287 L 230.367 266.732 L 234.261 271.373 M 208.774 256.663 L 214.441 254.021 M 214.441 254.021 L 220.140 251.364 L 226.243 251.364 M 160.853 256.663 L 164.655 252.133 L 168.531 247.513 L 170.106 241.634 M 170.106 241.634 L 171.619 235.986 L 175.547 231.305 M 168.531 247.513 L 172.388 242.916 M 172.388 242.916 L 176.187 238.389 L 181.810 235.767 M 168.531 247.513 L 172.221 243.115 L 176.018 238.590 L 181.203 236.173 L 186.517 233.695 L 192.039 231.120 M 192.039 231.120 L 197.528 228.560 L 203.675 228.560 M 176.018 238.590 L 177.505 233.038 M 177.505 233.038 L 179.033 227.336 L 182.939 222.682" fill="none" stroke="#e5e7eb" stroke-width="1" vector-effect="non-scaling-stroke"/><path d="M 232.055 268.745 L 231.831 268.732 M 231.831 268.732 L 231.530 269.255 M 204.529 258.723 L 203.445 256.723 M 203.445 256.723 L 203.412 256.663 M 202.101 254.245 L 202.099 254.241 M 200.101 254.641 L 197.017 256.119 M 197.017 256.119 L 196.164 256.663 M 182.460 258.133 L 181.847 256.943 M 181.847 256.943 L 181.703 256.663 M 181.703 256.663 L 181.564 256.394 M 193.674 230.760 L 193.787 230.305 M 197.339 228.648 L 199.140 229.558 M 218.127 261.025 L 212.350 260.836 M 184.700 270.582 L 184.608 270.152 M 182.282 267.379 L 178.262 265.626 M 134.117 270.778 L 133.554 269.393 M 133.554 269.393 L 133.517 269.301 M 133.517 269.301 L 133.490 269.237 M 133.490 269.237 L 132.518 266.847 M 132.518 266.847 L 132.498 266.797 M 132.498 266.797 L 132.420 266.608 M 132.420 266.608 L 132.342 266.415 M 132.342 266.415 L 132.122 265.873 M 132.122 265.873 L 133.253 265.330 M 133.253 265.330 L 135.575 264.214 M 135.575 264.214 L 137.905 263.094 M 137.905 263.094 L 137.620 262.662 M 137.620 262.662 L 137.103 261.880 M 137.103 261.880 L 136.739 261.328 M 134.806 257.877 L 134.704 257.462 M 134.704 257.462 L 134.493 256.607 M 134.493 256.607 L 134.470 256.515 M 145.620 254.189 L 145.780 254.239 M 145.780 254.239 L 144.818 255.870 M 144.818 255.870 L 144.383 256.607 M 144.383 256.607 L 142.780 259.326 M 142.780 259.326 L 143.863 260.792 M 143.863 260.792 L 144.064 261.064 M 144.064 261.064 L 144.091 261.101 M 145.334 262.783 L 145.948 263.614 M 145.948 263.614 L 146.500 264.361 M 146.500 264.361 L 152.710 261.760 M 152.710 261.760 L 154.800 260.697 M 154.800 260.697 L 157.788 259.179 M 157.788 259.179 L 157.637 259.019 M 157.637 259.019 L 157.299 258.660 M 157.299 258.660 L 157.076 258.425 M 157.076 258.425 L 155.536 256.794 M 155.536 256.794 L 155.360 256.607 M 155.096 256.327 L 155.004 256.230 M 153.502 254.371 L 153.392 254.151 M 152.988 253.340 L 152.267 251.890 M 152.267 251.890 L 152.100 251.556 M 160.314 235.187 L 160.423 233.838 M 161.864 232.121 L 161.890 232.129 M 172.700 234.698 L 173.182 234.781 M 173.182 234.781 L 172.859 236.409 M 172.147 239.997 L 172.119 240.134 M 170.311 241.246 L 170.207 241.258 M 170.172 241.262 L 169.192 241.375 M 165.995 242.866 L 165.380 244.630 M 164.924 250.050 L 165.068 251.284 M 165.068 251.284 L 165.094 251.502 M 165.094 251.502 L 165.105 251.596 M 165.665 256.394 L 165.670 256.439 M 165.670 256.439 L 165.682 256.541 M 165.682 256.541 L 165.934 256.439 M 165.934 256.439 L 166.048 256.394 M 174.179 252.260 L 174.450 251.738 M 177.451 241.293 L 177.502 240.829 M 177.502 240.829 L 178.634 238.731 M 178.634 238.731 L 179.140 237.793 M 179.140 237.793 L 179.159 237.757 M 179.159 237.757 L 179.614 236.913 M 179.614 236.913 L 179.703 236.749 M 146.712 229.507 L 146.100 230.424 M 140.113 233.367 L 138.227 233.463 M 132.603 225.758 L 132.532 224.598 M 81.503 257.495 L 77.909 261.139 M 77.909 261.139 L 77.428 266.847 M 77.428 266.847 L 72.369 269.255 M 72.369 269.255 L 67.721 273.288 M 67.721 273.288 L 63.895 267.556 M 63.895 267.556 L 57.330 267.454 M 57.330 267.454 L 49.791 271.483 M 49.791 271.483 L 45.292 274.626 M 45.292 274.626 L 39.766 275.503 M 39.766 275.503 L 41.690 270.121 M 69.590 261.273 L 70.190 263.461 M 70.190 263.461 L 67.375 261.975 M 29.975 273.836 L 29.980 276.710 M 29.980 276.710 L 28.266 274.379 M 50.242 267.409 L 54.398 276.592 M 54.398 276.592 L 73.713 274.570 M 79.864 274.188 L 85.739 275.574 M 85.739 275.574 L 91.585 275.509 M 91.585 275.509 L 88.903 271.951 M 86.472 268.620 L 84.194 264.385 M 84.194 264.385 L 92.548 258.591 M 92.548 258.591 L 88.746 255.197 M 100.317 249.137 L 100.372 249.116 M 100.372 249.116 L 100.824 249.469 M 103.319 251.418 L 103.750 251.754 M 103.750 251.754 L 104.598 252.416 M 104.598 252.416 L 104.366 253.263 M 102.717 258.648 L 101.427 261.621 M 101.412 261.654 L 101.409 261.661 M 101.409 261.661 L 100.778 263.114 M 100.778 263.114 L 94.898 265.719 M 94.898 265.719 L 95.044 265.848 M 99.101 269.426 L 100.628 270.774 M 100.628 270.774 L 104.349 271.097 M 105.107 271.162 L 106.291 271.265 M 106.291 271.265 L 106.342 271.343 M 108.581 274.739 L 108.810 275.087 M 112.910 273.915 L 114.410 272.826 M 114.410 272.826 L 117.956 272.069 M 120.316 268.943 L 120.907 266.797 M 123.034 260.237 L 121.757 259.593 M 121.757 259.593 L 120.882 259.153 M 120.882 259.153 L 119.491 258.451 M 119.491 258.451 L 118.429 257.916 M 118.429 257.916 L 118.107 256.607 M 118.107 256.607 L 118.097 256.566 M 118.097 256.566 L 118.084 256.515 M 118.084 256.515 L 118.071 256.460 M 113.691 254.871 L 112.802 255.692 M 111.874 256.775 L 111.346 258.096 M 111.346 258.096 L 110.570 260.035 M 110.570 260.035 L 109.396 262.971 M 110.140 264.196 L 110.944 264.728 M 114.238 266.905 L 116.072 267.730 M 116.072 267.730 L 119.195 269.135 M 124.215 271.394 L 124.860 271.684 M 124.860 271.684 L 126.511 272.427 M 126.511 272.427 L 126.581 272.459 M 126.581 272.459 L 126.784 272.550 M 126.784 272.550 L 127.014 272.654 M 127.014 272.654 L 126.995 272.451 M 126.995 272.451 L 126.979 272.274 M 126.979 272.274 L 126.973 272.212 M 126.973 272.212 L 126.802 270.396 M 126.802 270.396 L 126.708 269.390 M 126.565 267.869 L 126.464 266.797 M 125.796 259.683 L 125.579 257.371 M 125.579 257.371 L 125.519 256.728 M 125.519 256.728 L 125.508 256.607 M 125.508 256.607 L 125.499 256.515 M 125.499 256.515 L 125.460 256.105 M 130.409 240.142 L 129.249 239.550 M 129.249 239.550 L 128.483 239.159 M 128.483 239.159 L 127.715 238.766 M 127.715 238.766 L 127.358 238.583 M 122.548 239.596 L 121.660 240.864 M 121.403 241.230 L 121.375 241.270 M 115.887 245.140 L 111.286 246.284 M 111.286 246.284 L 110.909 246.123 M 115.821 243.833 L 117.695 243.865 M 120.120 243.906 L 120.841 243.919 M 122.852 243.953 L 124.900 243.988 M 155.115 228.403 L 155.126 228.365 M 179.738 256.394 L 179.682 256.444 M 179.437 256.663 L 176.467 259.320 M 173.691 262.864 L 173.414 263.278 M 161.521 262.279 L 162.098 260.223 M 162.098 260.223 L 162.334 259.383 M 162.334 259.383 L 162.619 258.370 M 162.619 258.370 L 162.785 257.778 M 162.785 257.778 L 162.859 257.516 M 162.859 257.516 L 162.881 257.437 M 162.881 257.437 L 163.098 256.663 M 163.098 256.663 L 163.161 256.439 M 163.161 256.439 L 163.174 256.394 M 164.229 252.640 L 164.511 251.636 M 164.511 251.636 L 164.610 251.284 M 164.610 251.284 L 164.983 249.955 M 166.750 243.667 L 167.122 242.340" fill="none" stroke="#e5e7eb" stroke-width="1" vector-effect="non-scaling-stroke"/></svg>