<svg xmlns="http://www.w3.org/2000/svg" viewBox="8.976784234344041 -153.63280668588953 508.0437293800805 579.6490564795931" width="508.0437293800805" height="579.6490564795931" shape-rendering="geometricPrecision"><rect x="8.976784234344041" y="-153.63280668588953" width="508.0437293800805" height="579.6490564795931" fill="#0b0f14"/><path d="M 20.000 277.000 L 26.000 277.000 L 29.000 282.196 L 32.000 277.000 L 38.000 277.000 L 41.000 282.196 L 38.000 287.392 L 44.000 287.392 L 47.000 292.588 L 50.000 287.392 L 56.000 287.392 L 53.000 282.196 L 56.000 277.000 L 62.000 277.000 L 65.000 282.196 L 68.000 277.000 L 74.000 277.000 L 77.000 282.196 L 74.000 287.392 L 80.000 287.392 L 83.000 292.588 L 80.000 297.785 L 74.000 297.785 L 77.000 302.981 L 74.000 308.177 L 80.000 308.177 L 83.000 313.373 L 86.000 308.177 L 92.000 308.177 L 95.000 313.373 L 92.000 318.569 L 98.000 318.569 L 101.000 323.765 L 104.000 318.569 L 110.000 318.569 L 107.000 313.373 L 110.000 308.177 L 116.000 308.177 L 119.000 313.373 L 122.000 308.177 L 128.000 308.177 L 125.000 302.981 L 128.000 297.785 L 122.000 297.785 L 119.000 292.588 L 122.000 287.392 L 128.000 287.392 L 125.000 282.196 L 128.000 277.000 L 134.000 277.000 L 137.000 282.196 L 140.000 277.000 L 146.000 277.000 L 149.000 282.196 L 146.000 287.392 L 152.000 287.392 L 155.000 292.588 L 158.000 287.392 L 164.000 287.392 L 161.000 282.196 L 164.000 277.000 L 170.000 277.000 L 173.000 282.196 L 176.000 277.000 L 182.000 277.000 L 185.000 282.196 L 182.000 287.392 L 188.000 287.392 L 191.000 292.588 L 188.000 297.785 L 182.000 297.785 L 185.000 302.981 L 182.000 308.177 L 188.000 308.177 L 191.000 313.373 L 194.000 308.177 L 200.000 308.177 L 203.000 313.373 L 200.000 318.569 L 206.000 318.569 L 209.000 323.765 L 206.000 328.962 L 200.000 328.962 L 203.000 334.158 L 200.000 339.354 L 194.000 339.354 L 191.000 334.158 L 188.000 339.354 L 182.000 339.354 L 185.000 344.550 L 182.000 349.746 L 188.000 349.746 L 191.000 354.942 L 188.000 360.138 L 182.000 360.138 L 185.000 365.335 L 182.000 370.531 L 188.000 370.531 L 191.000 375.727 L 194.000 370.531 L 200.000 370.531 L 203.000 375.727 L 200.000 380.923 L 206.000 380.923 L 209.000 386.119 L 212.000 380.923 L 218.000 380.923 L 215.000 375.727 L 218.000 370.531 L 224.000 370.531 L 227.000 375.727 L 230.000 370.531 L 236.000 370.531 L 239.000 375.727 L 236.000 380.923 L 242.000 380.923 L 245.000 386.119 L 242.000 391.315 L 236.000 391.315 L 239.000 396.512 L 236.000 401.708 L 242.000 401.708 L 245.000 406.904 L 248.000 401.708 L 254.000 401.708 L 257.000 406.904 L 254.000 412.100 L 260.000 412.100 L 263.000 417.296 L 266.000 412.100 L 272.000 412.100 L 269.000 406.904 L 272.000 401.708 L 278.000 401.708 L 281.000 406.904 L 284.000 401.708 L 290.000 401.708 L 287.000 396.512 L 290.000 391.315 L 284.000 391.315 L 281.000 386.119 L 284.000 380.923 L 290.000 380.923 L 287.000 375.727 L 290.000 370.531 L 296.000 370.531 L 299.000 375.727 L 302.000 370.531 L 308.000 370.531 L 311.000 375.727 L 308.000 380.923 L 314.000 380.923 L 317.000 386.119 L 320.000 380.923 L 326.000 380.923 L 323.000 375.727 L 326.000 370.531 L 332.000 370.531 L 335.000 375.727 L 338.000 370.531 L 344.000 370.531 L 341.000 365.335 L 344.000 360.138 L 338.000 360.138 L 335.000 354.942 L 338.000 349.746 L 344.000 349.746 L 341.000 344.550 L 344.000 339.354 L 338.000 339.354 L 335.000 334.158 L 332.000 339.354 L 326.000 339.354 L 323.000 334.158 L 326.000 328.962 L 320.000 328.962 L 317.000 323.765 L 320.000 318.569 L 326.000 318.569 L 323.000 313.373 L 326.000 308.177 L 332.000 308.177 L 335.000 313.373 L 338.000 308.177 L 344.000 308.177 L 341.000 302.981 L 344.000 297.785 L 338.000 297.785 L 335.000 292.588 L 338.000 287.392 L 344.000 287.392 L 341.000 282.196 L 344.000 277.000 L 350.000 277.000 L 353.000 282.196 L 356.000 277.000 L 362.000 277.000 L 365.000 282.196 L 362.000 287.392 L 368.000 287.392 L 371.000 292.588 L 374.000 287.392 L 380.000 287.392 L 377.000 282.196 L 380.000 277.000 L 386.000 277.000 L 389.000 282.196 L 392.000 277.000 L 398.000 277.000 L 401.000 282.196 L 398.000 287.392 L 404.000 287.392 L 407.000 292.588 L 404.000 297.785 L 398.000 297.785 L 401.000 302.981 L 398.000 308.177 L 404.000 308.177 L 407.000 313.373 L 410.000 308.177 L 416.000 308.177 L 419.000 313.373 L 416.000 318.569 L 422.000 318.569 L 425.000 323.765 L 428.000 318.569 L 434.000 318.569 L 431.000 313.373 L 434.000 308.177 L 440.000 308.177 L 443.000 313.373 L 446.000 308.177 L 452.000 308.177 L 449.000 302.981 L 452.000 297.785 L 446.000 297.785 L 443.000 292.588 L 446.000 287.392 L 452.000 287.392 L 449.000 282.196 L 452.000 277.000 L 458.000 277.000 L 461.000 282.196 L 464.000 277.000 L 470.000 277.000 L 473.000 282.196 L 470.000 287.392 L 476.000 287.392 L 479.000 292.588 L 482.000 287.392 L 488.000 287.392 L 485.000 282.196 L 488.000 277.000 L 494.000 277.000 L 497.000 282.196 L 500.000 277.000 L 506.000 277.000 L 503.000 271.804 L 506.000 266.608 L 500.000 266.608 L 497.000 261.412 L 500.000 256.215 L 506.000 256.215 L 503.000 251.019 L 506.000 245.823 L 500.000 245.823 L 497.000 240.627 L 494.000 245.823 L 488.000 245.823 L 485.000 240.627 L 488.000 235.431 L 482.000 235.431 L 479.000 230.235 L 482.000 225.038 L 488.000 225.038 L 485.000 219.842 L 488.000 214.646 L 494.000 214.646 L 497.000 219.842 L 500.000 214.646 L 506.000 214.646 L 503.000 209.450 L 506.000 204.254 L 500.000 204.254 L 497.000 199.058 L 500.000 193.862 L 506.000 193.862 L 503.000 188.665 L 506.000 183.469 L 500.000 183.469 L 497.000 178.273 L 494.000 183.469 L 488.000 183.469 L 485.000 178.273 L 488.000 173.077 L 482.000 173.077 L 479.000 167.881 L 476.000 173.077 L 470.000 173.077 L 473.000 178.273 L 470.000 183.469 L 464.000 183.469 L 461.000 178.273 L 458.000 183.469 L 452.000 183.469 L 449.000 178.273 L 452.000 173.077 L 446.000 173.077 L 443.000 167.881 L 446.000 162.685 L 452.000 162.685 L 449.000 157.488 L 452.000 152.292 L 446.000 152.292 L 443.000 147.096 L 440.000 152.292 L 434.000 152.292 L 431.000 147.096 L 434.000 141.900 L 428.000 141.900 L 425.000 136.704 L 428.000 131.508 L 434.000 131.508 L 431.000 126.312 L 434.000 121.115 L 440.000 121.115 L 443.000 126.312 L 446.000 121.115 L 452.000 121.115 L 449.000 115.919 L 452.000 110.723 L 446.000 110.723 L 443.000 105.527 L 446.000 100.331 L 452.000 100.331 L 449.000 95.135 L 452.000 89.939 L 458.000 89.939 L 461.000 95.135 L 464.000 89.939 L 470.000 89.939 L 473.000 95.135 L 470.000 100.331 L 476.000 100.331 L 479.000 105.527 L 482.000 100.331 L 488.000 100.331 L 485.000 95.135 L 488.000 89.939 L 494.000 89.939 L 497.000 95.135 L 500.000 89.939 L 506.000 89.939 L 503.000 84.742 L 506.000 79.546 L 500.000 79.546 L 497.000 74.350 L 500.000 69.154 L 506.000 69.154 L 503.000 63.958 L 506.000 58.762 L 500.000 58.762 L 497.000 53.565 L 494.000 58.762 L 488.000 58.762 L 485.000 53.565 L 488.000 48.369 L 482.000 48.369 L 479.000 43.173 L 482.000 37.977 L 488.000 37.977 L 485.000 32.781 L 488.000 27.585 L 494.000 27.585 L 497.000 32.781 L 500.000 27.585 L 506.000 27.585 L 503.000 22.389 L 506.000 17.192 L 500.000 17.192 L 497.000 11.996 L 500.000 6.800 L 506.000 6.800 L 503.000 1.604 L 506.000 -3.592 L 500.000 -3.592 L 497.000 -8.788 L 494.000 -3.592 L 488.000 -3.592 L 485.000 -8.788 L 488.000 -13.985 L 482.000 -13.985 L 479.000 -19.181 L 476.000 -13.985 L 470.000 -13.985 L 473.000 -8.788 L 470.000 -3.592 L 464.000 -3.592 L 461.000 -8.788 L 458.000 -3.592 L 452.000 -3.592 L 449.000 -8.788 L 452.000 -13.985 L 446.000 -13.985 L 443.000 -19.181 L 446.000 -24.377 L 452.000 -24.377 L 449.000 -29.573 L 452.000 -34.769 L 446.000 -34.769 L 443.000 -39.965 L 440.000 -34.769 L 434.000 -34.769 L 431.000 -39.965 L 434.000 -45.161 L 428.000 -45.161 L 425.000 -50.358 L 422.000 -45.161 L 416.000 -45.161 L 419.000 -39.965 L 416.000 -34.769 L 410.000 -34.769 L 407.000 -39.965 L 404.000 -34.769 L 398.000 -34.769 L 401.000 -29.573 L 398.000 -24.377 L 404.000 -24.377 L 407.000 -19.181 L 404.000 -13.985 L 398.000 -13.985 L 401.000 -8.788 L 398.000 -3.592 L 392.000 -3.592 L 389.000 -8.788 L 386.000 -3.592 L 380.000 -3.592 L 377.000 -8.788 L 380.000 -13.985 L 374.000 -13.985 L 371.000 -19.181 L 368.000 -13.985 L 362.000 -13.985 L 365.000 -8.788 L 362.000 -3.592 L 356.000 -3.592 L 353.000 -8.788 L 350.000 -3.592 L 344.000 -3.592 L 341.000 -8.788 L 344.000 -13.985 L 338.000 -13.985 L 335.000 -19.181 L 338.000 -24.377 L 344.000 -24.377 L 341.000 -29.573 L 344.000 -34.769 L 338.000 -34.769 L 335.000 -39.965 L 332.000 -34.769 L 326.000 -34.769 L 323.000 -39.965 L 326.000 -45.161 L 320.000 -45.161 L 317.000 -50.358 L 320.000 -55.554 L 326.000 -55.554 L 323.000 -60.750 L 326.000 -65.946 L 332.000 -65.946 L 335.000 -60.750 L 338.000 -65.946 L 344.000 -65.946 L 341.000 -71.142 L 344.000 -76.338 L 338.000 -76.338 L 335.000 -81.535 L 338.000 -86.731 L 344.000 -86.731 L 341.000 -91.927 L 344.000 -97.123 L 338.000 -97.123 L 335.000 -102.319 L 332.000 -97.123 L 326.000 -97.123 L 323.000 -102.319 L 326.000 -107.515 L 320.000 -107.515 L 317.000 -112.711 L 314.000 -107.515 L 308.000 -107.515 L 311.000 -102.319 L 308.000 -97.123 L 302.000 -97.123 L 299.000 -102.319 L 296.000 -97.123 L 290.000 -97.123 L 287.000 -102.319 L 290.000 -107.515 L 284.000 -107.515 L 281.000 -112.711 L 284.000 -117.908 L 290.000 -117.908 L 287.000 -123.104 L 290.000 -128.300 L 284.000 -128.300 L 281.000 -133.496 L 278.000 -128.300 L 272.000 -128.300 L 269.000 -133.496 L 272.000 -138.692 L 266.000 -138.692 L 263.000 -143.888 L 260.000 -138.692 L 254.000 -138.692 L 257.000 -133.496 L 254.000 -128.300 L 248.000 -128.300 L 245.000 -133.496 L 242.000 -128.300 L 236.000 -128.300 L 239.000 -123.104 L 236.000 -117.908 L 242.000 -117.908 L 245.000 -112.711 L 242.000 -107.515 L 236.000 -107.515 L 239.000 -102.319 L 236.000 -97.123 L 230.000 -97.123 L 227.000 -102.319 L 224.000 -97.123 L 218.000 -97.123 L 215.000 -102.319 L 218.000 -107.515 L 212.000 -107.515 L 209.000 -112.711 L 206.000 -107.515 L 200.000 -107.515 L 203.000 -102.319 L 200.000 -97.123 L 194.000 -97.123 L 191.000 -102.319 L 188.000 -97.123 L 182.000 -97.123 L 185.000 -91.927 L 182.000 -86.731 L 188.000 -86.731 L 191.000 -81.535 L 188.000 -76.338 L 182.000 -76.338 L 185.000 -71.142 L 182.000 -65.946 L 188.000 -65.946 L 191.000 -60.750 L 194.000 -65.946 L 200.000 -65.946 L 203.000 -60.750 L 200.000 -55.554 L 206.000 -55.554 L 209.000 -50.358 L 206.000 -45.161 L 200.000 -45.161 L 203.000 -39.965 L 200.000 -34.769 L 194.000 -34.769 L 191.000 -39.965 L 188.000 -34.769 L 182.000 -34.769 L 185.000 -29.573 L 182.000 -24.377 L 188.000 -24.377 L 191.000 -19.181 L 188.000 -13.985 L 182.000 -13.985 L 185.000 -8.788 L 182.000 -3.592 L 176.000 -3.592 L 173.000 -8.788 L 170.000 -3.592 L 164.000 -3.592 L 161.000 -8.788 L 164.000 -13.985 L 158.000 -13.985 L 155.000 -19.181 L 152.000 -13.985 L 146.000 -13.985 L 149.000 -8.788 L 146.000 -3.592 L 140.000 -3.592 L 137.000 -8.788 L 134.000 -3.592 L 128.000 -3.592 L 125.000 -8.788 L 128.000 -13.985 L 122.000 -13.985 L 119.000 -19.181 L 122.000 -24.377 L 128.000 -24.377 L 125.000 -29.573 L 128.000 -34.769 L 122.000 -34.769 L 119.000 -39.965 L 116.000 -34.769 L 110.000 -34.769 L 107.000 -39.965 L 110.000 -45.161 L 104.000 -45.161 L 101.000 -50.358 L 98.000 -45.161 L 92.000 -45.161 L 95.000 -39.965 L 92.000 -34.769 L 86.000 -34.769 L 83.000 -39.965 L 80.000 -34.769 L 74.000 -34.769 L 77.000 -29.573 L 74.000 -24.377 L 80.000 -24.377 L 83.000 -19.181 L 80.000 -13.985 L 74.000 -13.985 L 77.000 -8.788 L 74.000 -3.592 L 68.000 -3.592 L 65.000 -8.788 L 62.000 -3.592 L 56.000 -3.592 L 53.000 -8.788 L 56.000 -13.985 L 50.000 -13.985 L 47.000 -19.181 L 44.000 -13.985 L 38.000 -13.985 L 41.000 -8.788 L 38.000 -3.592 L 32.000 -3.592 L 29.000 -8.788 L 26.000 -3.592 L 20.000 -3.592 L 23.000 1.604 L 20.000 6.800 L 26.000 6.800 L 29.000 11.996 L 26.000 17.192 L 20.000 17.192 L 23.000 22.389 L 20.000 27.585 L 26.000 27.585 L 29.000 32.781 L 32.000 27.585 L 38.000 27.585 L 41.000 32.781 L 38.000 37.977 L 44.000 37.977 L 47.000 43.173 L 44.000 48.369 L 38.000 48.369 L 41.000 53.565 L 38.000 58.762 L 32.000 58.762 L 29.000 53.565 L 26.000 58.762 L 20.000 58.762 L 23.000 63.958 L 20.000 69.154 L 26.000 69.154 L 29.000 74.350 L 26.000 79.546 L 20.000 79.546 L 23.000 84.742 L 20.000 89.939 L 26.000 89.939 L 29.000 95.135 L 32.000 89.939 L 38.000 89.939 L 41.000 95.135 L 38.000 100.331 L 44.000 100.331 L 47.000 105.527 L 50.000 100.331 L 56.000 100.331 L 53.000 95.135 L 56.000 89.939 L 62.000 89.939 L 65.000 95.135 L 68.000 89.939 L 74.000 89.939 L 77.000 95.135 L 74.000 100.331 L 80.000 100.331 L 83.000 105.527 L 80.000 110.723 L 74.000 110.723 L 77.000 115.919 L 74.000 121.115 L 80.000 121.115 L 83.000 126.312 L 86.000 121.115 L 92.000 121.115 L 95.000 126.312 L 92.000 131.508 L 98.000 131.508 L 101.000 136.704 L 98.000 141.900 L 92.000 141.900 L 95.000 147.096 L 92.000 152.292 L 86.000 152.292 L 83.000 147.096 L 80.000 152.292 L 74.000 152.292 L 77.000 157.488 L 74.000 162.685 L 80.000 162.685 L 83.000 167.881 L 80.000 173.077 L 74.000 173.077 L 77.000 178.273 L 74.000 183.469 L 68.000 183.469 L 65.000 178.273 L 62.000 183.469 L 56.000 183.469 L 53.000 178.273 L 56.000 173.077 L 50.000 173.077 L 47.000 167.881 L 44.000 173.077 L 38.000 173.077 L 41.000 178.273 L 38.000 183.469 L 32.000 183.469 L 29.000 178.273 L 26.000 183.469 L 20.000 183.469 L 23.000 188.665 L 20.000 193.862 L 26.000 193.862 L 29.000 199.058 L 26.000 204.254 L 20.000 204.254 L 23.000 209.450 L 20.000 214.646 L 26.000 214.646 L 29.000 219.842 L 32.000 214.646 L 38.000 214.646 L 41.000 219.842 L 38.000 225.038 L 44.000 225.038 L 47.000 230.235 L 44.000 235.431 L 38.000 235.431 L 41.000 240.627 L 38.000 245.823 L 32.000 245.823 L 29.000 240.627 L 26.000 245.823 L 20.000 245.823 L 23.000 251.019 L 20.000 256.215 L 26.000 256.215 L 29.000 261.412 L 26.000 266.608 L 20.000 266.608 L 23.000 271.804 L 20.000 277.000" fill="none" stroke="#2dd4bf" stroke-width="1" vector-effect="non-scaling-stroke"/><path d="M 19.201 273.593 L 21.200 278.431 L 22.400 278.427 L 23.600 278.415 L 24.800 278.403 L 26.000 278.401 L 24.414 278.741 L 24.978 279.782 L 25.523 280.825 L 26.048 281.874 L 26.556 282.930 L 32.166 281.924 L 32.885 280.931 L 33.594 279.950 L 34.285 278.979 L 34.954 278.013 L 33.200 279.309 L 34.400 279.605 L 35.600 279.886 L 36.800 280.123 L 38.000 280.300 L 36.069 279.733 L 36.801 280.804 L 37.532 281.861 L 38.254 282.907 L 38.961 283.944 L 38.285 281.485 L 37.588 282.527 L 36.875 283.577 L 36.153 284.638 L 35.427 285.712 L 39.200 290.854 L 40.400 290.890 L 41.600 290.886 L 42.800 290.862 L 44.000 290.836 L 42.746 290.158 L 43.299 291.205 L 43.833 292.252 L 44.349 293.298 L 44.850 294.338 L 49.671 293.298 L 50.212 292.256 L 50.773 291.214 L 51.350 290.172 L 51.942 289.132 L 51.200 290.888 L 52.400 290.892 L 53.600 290.876 L 54.800 290.837 L 56.000 290.773 L 57.854 284.639 L 57.145 283.580 L 56.426 282.528 L 55.704 281.485 L 54.991 280.452 L 55.594 282.902 L 56.188 281.862 L 56.772 280.821 L 57.344 279.779 L 57.904 278.735 L 57.200 280.483 L 58.400 280.494 L 59.600 280.500 L 60.800 280.496 L 62.000 280.475 L 60.044 279.726 L 60.430 280.672 L 60.871 281.585 L 61.386 282.482 L 61.971 283.383 L 68.630 282.362 L 69.231 281.357 L 69.825 280.364 L 70.409 279.380 L 70.979 278.399 L 69.200 279.505 L 70.400 279.187 L 71.600 278.883 L 72.800 278.635 L 74.000 278.471 L 72.485 278.739 L 73.380 279.808 L 74.203 280.914 L 74.951 282.029 L 75.634 283.129 L 75.002 282.328 L 74.343 283.408 L 73.646 284.499 L 72.896 285.595 L 72.084 286.679 L 75.200 288.871 L 76.400 288.925 L 77.600 288.962 L 78.800 288.970 L 80.000 288.946 L 78.695 289.147 L 78.968 290.175 L 79.223 291.281 L 79.537 292.470 L 79.984 293.719 L 79.373 292.354 L 78.836 293.244 L 78.380 294.145 L 77.995 295.076 L 77.657 296.050 L 78.800 294.316 L 77.600 294.310 L 76.400 294.299 L 75.200 294.289 L 74.000 294.285 L 72.722 300.555 L 73.526 301.545 L 74.279 302.522 L 74.981 303.500 L 75.643 304.490 L 75.101 302.571 L 74.530 303.650 L 73.939 304.704 L 73.333 305.733 L 72.708 306.737 L 75.200 311.067 L 76.400 311.096 L 77.600 311.138 L 78.800 311.188 L 80.000 311.241 L 79.155 310.792 L 79.669 311.879 L 80.157 312.966 L 80.617 314.046 L 81.052 315.113 L 85.437 314.058 L 85.948 312.998 L 86.479 311.939 L 87.029 310.882 L 87.595 309.830 L 87.200 311.521 L 88.400 311.556 L 89.600 311.590 L 90.800 311.621 L 92.000 311.650 L 90.564 310.964 L 91.033 312.005 L 91.498 313.034 L 91.966 314.052 L 92.445 315.060 L 91.817 312.735 L 91.175 313.789 L 90.523 314.850 L 89.862 315.919 L 89.198 316.996 L 93.200 321.713 L 94.400 321.701 L 95.600 321.676 L 96.800 321.632 L 98.000 321.568 L 95.684 321.089 L 96.277 322.121 L 96.882 323.166 L 97.500 324.223 L 98.133 325.292 L 104.518 324.205 L 105.164 323.110 L 105.801 322.008 L 106.424 320.899 L 107.031 319.785 L 105.200 320.885 L 106.400 320.786 L 107.600 320.707 L 108.800 320.649 L 110.000 320.610 L 112.303 316.574 L 111.648 315.582 L 111.002 314.575 L 110.373 313.554 L 109.762 312.521 L 110.251 313.132 L 110.726 312.049 L 111.193 310.979 L 111.659 309.922 L 112.130 308.877 L 111.200 309.583 L 112.400 309.594 L 113.600 309.602 L 114.800 309.604 L 116.000 309.600 L 114.573 309.919 L 115.071 310.955 L 115.563 311.999 L 116.054 313.050 L 116.549 314.109 L 121.967 313.053 L 122.496 312.004 L 123.037 310.960 L 123.589 309.918 L 124.147 308.877 L 123.200 309.579 L 124.400 309.582 L 125.600 309.583 L 126.800 309.584 L 128.000 309.584 L 129.619 306.435 L 128.982 305.397 L 128.324 304.359 L 127.649 303.318 L 126.963 302.273 L 127.521 302.654 L 128.077 301.622 L 128.633 300.590 L 129.191 299.560 L 129.754 298.529 L 126.800 296.275 L 125.600 296.258 L 124.400 296.244 L 123.200 296.233 L 122.000 296.224 L 123.031 295.962 L 122.448 294.929 L 121.891 293.904 L 121.363 292.885 L 120.868 291.868 L 121.543 292.260 L 122.226 291.213 L 122.917 290.171 L 123.610 289.134 L 124.301 288.103 L 123.200 288.795 L 124.400 288.794 L 125.600 288.806 L 126.800 288.824 L 128.000 288.841 L 129.361 285.645 L 128.902 284.614 L 128.468 283.568 L 128.046 282.501 L 127.621 281.410 L 128.252 281.955 L 128.874 280.926 L 129.490 279.894 L 130.101 278.860 L 130.709 277.824 L 129.200 278.597 L 130.400 278.573 L 131.600 278.573 L 132.800 278.596 L 134.000 278.643 L 131.912 278.854 L 132.522 279.888 L 133.124 280.927 L 133.714 281.970 L 134.291 283.020 L 140.409 282.038 L 141.091 281.063 L 141.754 280.092 L 142.398 279.124 L 143.024 278.158 L 141.200 279.516 L 142.400 279.717 L 143.600 279.906 L 144.800 280.072 L 146.000 280.208 L 143.901 279.670 L 144.565 280.737 L 145.243 281.804 L 145.935 282.868 L 146.640 283.928 L 146.035 281.505 L 145.417 282.547 L 144.783 283.592 L 144.131 284.643 L 143.462 285.701 L 147.200 290.863 L 148.400 290.892 L 149.600 290.884 L 150.800 290.861 L 152.000 290.838 L 150.830 290.141 L 151.472 291.169 L 152.093 292.202 L 152.692 293.242 L 153.266 294.288 L 157.337 293.250 L 157.960 292.217 L 158.606 291.188 L 159.275 290.162 L 159.967 289.135 L 159.200 290.890 L 160.400 290.891 L 161.600 290.881 L 162.800 290.859 L 164.000 290.832 L 165.869 284.643 L 165.319 283.617 L 164.774 282.594 L 164.226 281.574 L 163.672 280.553 L 164.398 282.733 L 165.098 281.616 L 165.768 280.495 L 166.410 279.377 L 167.028 278.267 L 165.200 279.350 L 166.400 279.183 L 167.600 279.040 L 168.800 278.922 L 170.000 278.828 L 167.689 279.004 L 168.227 280.119 L 168.781 281.256 L 169.370 282.409 L 170.005 283.567 L 176.630 282.408 L 177.214 281.241 L 177.742 280.076 L 178.216 278.925 L 178.650 277.798 L 177.200 278.575 L 178.400 278.561 L 179.600 278.553 L 180.800 278.550 L 182.000 278.552 L 179.825 278.899 L 180.279 280.053 L 180.791 281.228 L 181.370 282.412 L 182.017 283.589 L 181.526 281.715 L 181.086 282.651 L 180.675 283.618 L 180.271 284.617 L 179.853 285.643 L 183.200 290.891 L 184.400 290.889 L 185.600 290.883 L 186.800 290.873 L 188.000 290.856 L 186.324 290.174 L 186.972 291.217 L 187.586 292.257 L 188.170 293.296 L 188.728 294.331 L 188.193 291.880 L 187.640 292.917 L 187.070 293.956 L 186.484 294.995 L 185.885 296.035 L 186.800 294.289 L 185.600 294.297 L 184.400 294.307 L 183.200 294.316 L 182.000 294.323 L 180.646 300.565 L 181.170 301.610 L 181.701 302.652 L 182.245 303.691 L 182.809 304.729 L 182.196 302.272 L 181.588 303.312 L 180.987 304.351 L 180.394 305.390 L 179.806 306.429 L 183.200 311.677 L 184.400 311.677 L 185.600 311.675 L 186.800 311.671 L 188.000 311.666 L 186.718 310.948 L 187.435 311.963 L 188.149 312.969 L 188.851 313.967 L 189.534 314.962 L 193.106 313.945 L 193.765 312.935 L 194.445 311.928 L 195.147 310.920 L 195.870 309.906 L 195.200 311.636 L 196.400 311.641 L 197.600 311.651 L 198.800 311.664 L 200.000 311.675 L 198.679 310.953 L 199.418 311.967 L 200.139 312.972 L 200.839 313.972 L 201.518 314.971 L 201.045 312.905 L 200.514 314.020 L 199.946 315.109 L 199.355 316.167 L 198.748 317.190 L 201.200 321.320 L 202.400 321.342 L 203.600 321.399 L 204.800 321.493 L 206.000 321.618 L 205.191 321.159 L 205.731 322.238 L 206.239 323.325 L 206.711 324.413 L 207.146 325.492 L 206.429 323.062 L 205.641 324.094 L 204.799 325.158 L 203.937 326.275 L 203.112 327.454 L 204.800 326.006 L 203.600 326.081 L 202.400 326.169 L 201.200 326.263 L 200.000 326.354 L 197.584 331.129 L 198.281 332.012 L 199.041 332.930 L 199.826 333.888 L 200.607 334.882 L 200.242 334.496 L 199.824 335.529 L 199.343 336.553 L 198.799 337.581 L 198.199 338.620 L 198.800 337.883 L 197.600 337.887 L 196.400 337.899 L 195.200 337.918 L 194.000 337.937 L 195.396 337.610 L 194.884 336.575 L 194.425 335.533 L 194.010 334.470 L 193.619 333.372 L 187.833 334.430 L 187.256 335.476 L 186.655 336.515 L 186.033 337.547 L 185.394 338.573 L 186.800 337.678 L 185.600 337.540 L 184.400 337.390 L 183.200 337.244 L 182.000 337.113 L 179.622 341.442 L 180.261 342.427 L 180.893 343.432 L 181.509 344.456 L 182.104 345.500 L 181.460 344.594 L 180.828 345.589 L 180.205 346.588 L 179.589 347.593 L 178.980 348.604 L 183.200 352.102 L 184.400 352.161 L 185.600 352.209 L 186.800 352.245 L 188.000 352.273 L 185.603 352.153 L 186.274 353.295 L 186.983 354.428 L 187.723 355.544 L 188.481 356.640 L 187.964 354.264 L 187.417 355.293 L 186.838 356.329 L 186.230 357.369 L 185.596 358.414 L 186.800 356.741 L 185.600 356.808 L 184.400 356.889 L 183.200 356.979 L 182.000 357.075 L 179.790 362.746 L 180.434 363.812 L 181.067 364.870 L 181.686 365.919 L 182.290 366.960 L 181.647 364.771 L 181.020 365.826 L 180.410 366.871 L 179.817 367.906 L 179.243 368.930 L 183.200 373.685 L 184.400 373.641 L 185.600 373.600 L 186.800 373.565 L 188.000 373.534 L 185.653 373.015 L 186.208 373.987 L 186.778 374.948 L 187.369 375.902 L 187.986 376.851 L 194.622 375.838 L 195.230 374.848 L 195.828 373.880 L 196.401 372.929 L 196.937 371.988 L 195.200 373.440 L 196.400 373.441 L 197.600 373.453 L 198.800 373.479 L 200.000 373.524 L 197.617 372.964 L 198.177 373.902 L 198.770 374.849 L 199.386 375.811 L 200.012 376.792 L 199.525 375.835 L 199.084 376.978 L 198.664 378.087 L 198.238 379.165 L 197.791 380.221 L 201.200 382.343 L 202.400 382.389 L 203.600 382.493 L 204.800 382.677 L 206.000 382.949 L 203.629 382.999 L 204.212 384.067 L 204.796 385.138 L 205.383 386.211 L 205.975 387.285 L 212.618 386.395 L 213.138 385.498 L 213.596 384.579 L 214.016 383.628 L 214.422 382.644 L 213.200 384.419 L 214.400 384.417 L 215.600 384.392 L 216.800 384.373 L 218.000 384.372 L 219.199 378.168 L 218.576 377.134 L 217.975 376.095 L 217.391 375.052 L 216.820 374.007 L 217.403 376.404 L 218.015 375.368 L 218.655 374.336 L 219.318 373.307 L 220.002 372.276 L 219.200 374.030 L 220.400 374.025 L 221.600 373.993 L 222.800 373.920 L 224.000 373.794 L 221.849 373.174 L 222.386 374.174 L 222.920 375.163 L 223.459 376.140 L 224.009 377.106 L 230.623 375.983 L 231.231 374.861 L 231.818 373.744 L 232.389 372.636 L 232.950 371.539 L 231.200 372.320 L 232.400 372.147 L 233.600 372.032 L 234.800 371.966 L 236.000 371.937 L 234.512 372.270 L 235.232 373.317 L 235.935 374.370 L 236.619 375.426 L 237.280 376.481 L 236.661 376.017 L 236.027 377.065 L 235.375 378.116 L 234.704 379.167 L 234.014 380.217 L 237.200 382.363 L 238.400 382.390 L 239.600 382.406 L 240.800 382.407 L 242.000 382.394 L 240.688 382.676 L 241.125 383.702 L 241.521 384.749 L 241.892 385.830 L 242.269 386.955 L 241.592 386.278 L 240.929 387.270 L 240.277 388.261 L 239.638 389.251 L 239.008 390.243 L 240.800 389.333 L 239.600 389.454 L 238.400 389.534 L 237.200 389.576 L 236.000 389.583 L 233.733 393.279 L 234.259 394.391 L 234.803 395.516 L 235.373 396.647 L 235.972 397.777 L 235.378 396.252 L 234.789 397.255 L 234.206 398.255 L 233.632 399.252 L 233.068 400.244 L 237.200 404.617 L 238.400 404.616 L 239.600 404.632 L 240.800 404.667 L 242.000 404.717 L 239.700 404.244 L 240.273 405.255 L 240.834 406.246 L 241.396 407.217 L 241.972 408.170 L 248.607 407.210 L 249.157 406.258 L 249.674 405.306 L 250.159 404.347 L 250.620 403.372 L 249.200 405.080 L 250.400 405.113 L 251.600 405.137 L 252.800 405.154 L 254.000 405.165 L 252.048 404.434 L 252.471 405.402 L 252.918 406.338 L 253.411 407.247 L 253.969 408.139 L 253.401 406.855 L 252.899 408.028 L 252.447 409.175 L 252.022 410.290 L 251.597 411.374 L 255.200 413.544 L 256.400 413.540 L 257.600 413.540 L 258.800 413.544 L 260.000 413.552 L 258.354 413.844 L 259.085 414.878 L 259.788 415.921 L 260.467 416.968 L 261.128 418.016 L 265.574 416.964 L 266.305 415.918 L 267.061 414.885 L 267.830 413.870 L 268.599 412.878 L 267.200 413.683 L 268.400 413.706 L 269.600 413.718 L 270.800 413.715 L 272.000 413.695 L 274.167 410.205 L 273.665 409.099 L 273.142 407.984 L 272.598 406.859 L 272.028 405.724 L 272.631 407.100 L 273.227 406.097 L 273.825 405.074 L 274.425 404.031 L 275.029 402.970 L 273.200 403.952 L 274.400 403.666 L 275.600 403.412 L 276.800 403.223 L 278.000 403.122 L 276.472 403.447 L 277.200 404.491 L 277.908 405.542 L 278.598 406.598 L 279.273 407.656 L 283.208 406.656 L 283.708 405.663 L 284.232 404.669 L 284.784 403.665 L 285.363 402.644 L 285.200 403.676 L 286.400 403.727 L 287.600 403.728 L 288.800 403.678 L 290.000 403.583 L 290.803 399.765 L 290.266 398.768 L 289.751 397.773 L 289.259 396.778 L 288.789 395.775 L 289.633 396.175 L 290.517 395.145 L 291.404 394.174 L 292.244 393.261 L 292.994 392.392 L 288.800 389.384 L 287.600 389.548 L 286.400 389.659 L 285.200 389.726 L 284.000 389.757 L 286.149 389.431 L 285.672 388.309 L 285.163 387.171 L 284.617 386.025 L 284.031 384.876 L 284.607 386.424 L 285.150 385.483 L 285.664 384.530 L 286.161 383.561 L 286.654 382.574 L 285.200 384.230 L 286.400 384.243 L 287.600 384.265 L 288.800 384.295 L 290.000 384.329 L 291.902 378.182 L 291.293 377.140 L 290.668 376.095 L 290.027 375.047 L 289.371 373.997 L 289.984 376.415 L 290.615 375.370 L 291.259 374.322 L 291.908 373.270 L 292.557 372.217 L 291.200 373.806 L 292.400 373.683 L 293.600 373.538 L 294.800 373.373 L 296.000 373.193 L 293.583 372.886 L 294.187 373.937 L 294.803 375.016 L 295.441 376.118 L 296.115 377.237 L 302.597 376.055 L 303.231 374.860 L 303.787 373.672 L 304.282 372.507 L 304.746 371.374 L 303.200 372.070 L 304.400 371.973 L 305.600 371.932 L 306.800 371.946 L 308.000 371.998 L 306.703 372.286 L 307.137 373.310 L 307.505 374.358 L 307.834 375.454 L 308.179 376.616 L 307.410 375.698 L 306.774 376.522 L 306.295 377.352 L 305.953 378.230 L 305.688 379.185 L 309.200 384.381 L 310.400 384.366 L 311.600 384.361 L 312.800 384.369 L 314.000 384.386 L 312.524 383.712 L 313.354 384.727 L 314.113 385.727 L 314.806 386.733 L 315.442 387.756 L 319.189 386.731 L 319.823 385.705 L 320.457 384.678 L 321.091 383.650 L 321.725 382.620 L 321.200 384.223 L 322.400 384.112 L 323.600 384.003 L 324.800 383.915 L 326.000 383.865 L 326.717 378.414 L 326.159 377.334 L 325.663 376.219 L 325.258 375.089 L 324.962 373.985 L 325.646 376.436 L 326.350 375.398 L 327.067 374.352 L 327.790 373.297 L 328.506 372.231 L 327.200 374.022 L 328.400 374.021 L 329.600 373.966 L 330.800 373.894 L 332.000 373.832 L 331.097 373.179 L 331.735 374.197 L 332.330 375.240 L 332.880 376.306 L 333.380 377.390 L 337.252 376.362 L 337.886 375.334 L 338.513 374.303 L 339.130 373.269 L 339.733 372.230 L 339.200 373.982 L 340.400 374.018 L 341.600 374.031 L 342.800 374.015 L 344.000 373.965 L 345.622 367.745 L 344.818 366.706 L 344.036 365.690 L 343.283 364.689 L 342.561 363.696 L 343.116 365.912 L 343.679 364.852 L 344.253 363.798 L 344.842 362.751 L 345.448 361.716 L 342.800 357.094 L 341.600 357.185 L 340.400 357.244 L 339.200 357.262 L 338.000 357.229 L 338.696 357.654 L 338.096 356.615 L 337.504 355.566 L 336.920 354.509 L 336.346 353.444 L 336.903 355.356 L 337.488 354.298 L 338.097 353.270 L 338.736 352.274 L 339.419 351.304 L 339.200 352.940 L 340.400 353.044 L 341.600 353.149 L 342.800 353.226 L 344.000 353.243 L 345.683 346.965 L 345.185 345.940 L 344.694 344.924 L 344.201 343.918 L 343.703 342.921 L 344.531 344.975 L 345.229 343.732 L 345.781 342.486 L 346.209 341.275 L 346.563 340.120 L 342.800 337.636 L 341.600 337.397 L 340.400 337.140 L 339.200 336.894 L 338.000 336.684 L 340.428 337.048 L 339.830 336.078 L 339.215 335.111 L 338.581 334.143 L 337.929 333.174 L 331.401 334.109 L 330.770 335.032 L 330.185 335.951 L 329.647 336.877 L 329.143 337.820 L 330.800 336.310 L 329.600 336.357 L 328.400 336.423 L 327.200 336.499 L 326.000 336.576 L 328.420 337.008 L 327.831 336.047 L 327.224 335.077 L 326.605 334.097 L 325.981 333.105 L 326.527 334.099 L 327.051 332.991 L 327.555 331.888 L 328.041 330.795 L 328.516 329.713 L 324.800 327.414 L 323.600 327.345 L 322.400 327.244 L 321.200 327.105 L 320.000 326.929 L 322.378 326.874 L 321.802 325.790 L 321.222 324.693 L 320.631 323.586 L 320.023 322.472 L 320.631 323.944 L 321.218 322.823 L 321.781 321.701 L 322.321 320.583 L 322.840 319.472 L 321.200 320.159 L 322.400 320.029 L 323.600 319.974 L 324.800 319.975 L 326.000 320.005 L 327.346 316.820 L 326.828 315.788 L 326.330 314.752 L 325.848 313.707 L 325.377 312.652 L 325.920 313.047 L 326.484 312.003 L 327.069 310.962 L 327.675 309.924 L 328.298 308.887 L 327.200 309.581 L 328.400 309.577 L 329.600 309.579 L 330.800 309.587 L 332.000 309.597 L 330.767 309.943 L 331.455 311.003 L 332.118 312.060 L 332.757 313.113 L 333.372 314.157 L 337.234 313.116 L 337.846 312.072 L 338.464 311.027 L 339.087 309.980 L 339.717 308.932 L 339.200 309.707 L 340.400 309.725 L 341.600 309.737 L 342.800 309.741 L 344.000 309.734 L 345.050 306.362 L 344.484 305.334 L 343.947 304.313 L 343.444 303.295 L 342.975 302.274 L 343.653 302.643 L 344.339 301.602 L 345.036 300.567 L 345.741 299.539 L 346.453 298.521 L 342.800 296.270 L 341.600 296.207 L 340.400 296.125 L 339.200 296.031 L 338.000 295.932 L 340.376 295.701 L 339.826 294.537 L 339.225 293.379 L 338.585 292.237 L 337.924 291.117 L 338.444 293.093 L 338.944 292.118 L 339.428 291.132 L 339.900 290.134 L 340.367 289.123 L 339.200 290.849 L 340.400 290.831 L 341.600 290.797 L 342.800 290.743 L 344.000 290.668 L 345.889 284.648 L 345.093 283.573 L 344.316 282.525 L 343.570 281.493 L 342.859 280.469 L 343.411 282.875 L 343.983 281.830 L 344.576 280.789 L 345.189 279.753 L 345.824 278.721 L 345.200 280.469 L 346.400 280.490 L 347.600 280.499 L 348.800 280.498 L 350.000 280.488 L 348.313 279.780 L 348.867 280.814 L 349.407 281.844 L 349.936 282.868 L 350.459 283.887 L 356.061 282.869 L 356.596 281.843 L 357.151 280.812 L 357.729 279.775 L 358.331 278.736 L 357.200 280.484 L 358.400 280.495 L 359.600 280.500 L 360.800 280.496 L 362.000 280.485 L 360.722 279.770 L 361.383 280.798 L 362.017 281.830 L 362.625 282.867 L 363.210 283.910 L 362.535 281.507 L 361.837 282.533 L 361.120 283.564 L 360.390 284.606 L 359.653 285.659 L 363.200 290.881 L 364.400 290.890 L 365.600 290.892 L 366.800 290.892 L 368.000 290.892 L 366.426 290.181 L 366.955 291.216 L 367.492 292.249 L 368.038 293.281 L 368.595 294.312 L 374.010 293.272 L 374.598 292.235 L 375.172 291.201 L 375.731 290.167 L 376.281 289.134 L 375.200 290.865 L 376.400 290.853 L 377.600 290.842 L 378.800 290.836 L 380.000 290.834 L 381.734 284.618 L 381.051 283.569 L 380.375 282.526 L 379.706 281.485 L 379.048 280.448 L 379.645 282.905 L 380.268 281.867 L 380.918 280.828 L 381.595 279.788 L 382.295 278.740 L 381.200 280.470 L 382.400 280.461 L 383.600 280.456 L 384.800 280.455 L 386.000 280.460 L 384.327 279.782 L 385.021 280.827 L 385.708 281.867 L 386.384 282.903 L 387.046 283.937 L 391.564 282.899 L 392.187 281.862 L 392.818 280.825 L 393.452 279.788 L 394.085 278.750 L 393.200 280.490 L 394.400 280.472 L 395.600 280.446 L 396.800 280.415 L 398.000 280.384 L 396.939 279.717 L 397.566 280.747 L 398.174 281.783 L 398.764 282.826 L 399.335 283.875 L 398.728 281.554 L 398.111 282.588 L 397.482 283.618 L 396.834 284.645 L 396.164 285.669 L 399.200 290.848 L 400.400 290.861 L 401.600 290.875 L 402.800 290.887 L 404.000 290.892 L 402.329 290.174 L 402.769 291.190 L 403.209 292.185 L 403.659 293.159 L 404.132 294.113 L 403.475 292.156 L 402.818 293.271 L 402.178 294.408 L 401.572 295.561 L 401.013 296.720 L 402.800 295.674 L 401.600 295.689 L 400.400 295.701 L 399.200 295.711 L 398.000 295.717 L 395.750 299.735 L 396.506 300.680 L 397.277 301.656 L 398.041 302.660 L 398.778 303.684 L 398.338 303.319 L 397.869 304.348 L 397.367 305.371 L 396.834 306.396 L 396.273 307.425 L 399.200 309.657 L 400.400 309.627 L 401.600 309.598 L 402.800 309.579 L 404.000 309.581 L 402.252 309.933 L 402.673 311.010 L 403.083 312.123 L 403.513 313.276 L 403.999 314.463 L 410.581 313.387 L 411.160 312.316 L 411.741 311.253 L 412.326 310.196 L 412.918 309.148 L 411.200 310.300 L 412.400 310.470 L 413.600 310.615 L 414.800 310.723 L 416.000 310.787 L 413.617 310.609 L 414.275 311.726 L 414.944 312.829 L 415.611 313.916 L 416.267 314.987 L 415.781 312.748 L 415.305 313.748 L 414.837 314.760 L 414.368 315.784 L 413.894 316.819 L 417.200 322.067 L 418.400 322.049 L 419.600 321.999 L 420.800 321.898 L 422.000 321.735 L 419.753 321.150 L 420.292 322.136 L 420.836 323.110 L 421.394 324.074 L 421.972 325.030 L 428.628 323.906 L 429.204 322.786 L 429.764 321.674 L 430.312 320.574 L 430.856 319.484 L 429.200 320.206 L 430.400 320.076 L 431.600 320.003 L 432.800 319.973 L 434.000 319.971 L 435.597 316.828 L 435.116 315.779 L 434.624 314.722 L 434.114 313.661 L 433.583 312.600 L 434.121 313.087 L 434.652 312.031 L 435.178 310.977 L 435.698 309.926 L 436.218 308.880 L 435.200 309.581 L 436.400 309.580 L 437.600 309.580 L 438.800 309.579 L 440.000 309.577 L 438.480 309.916 L 439.127 310.956 L 439.785 311.998 L 440.447 313.043 L 441.108 314.090 L 445.482 313.052 L 446.063 312.016 L 446.636 310.982 L 447.207 309.949 L 447.778 308.916 L 447.200 309.718 L 448.400 309.803 L 449.600 309.905 L 450.800 310.016 L 452.000 310.124 L 452.757 306.196 L 452.218 305.206 L 451.715 304.225 L 451.250 303.244 L 450.822 302.251 L 451.502 302.657 L 452.214 301.606 L 452.957 300.563 L 453.725 299.537 L 454.505 298.533 L 450.800 296.226 L 449.600 296.162 L 448.400 296.109 L 447.200 296.075 L 446.000 296.067 L 448.286 295.805 L 447.762 294.682 L 447.207 293.562 L 446.628 292.447 L 446.030 291.339 L 446.563 292.973 L 446.999 292.085 L 447.364 291.155 L 447.696 290.172 L 448.035 289.140 L 447.200 290.877 L 448.400 290.872 L 449.600 290.874 L 450.800 290.883 L 452.000 290.891 L 453.261 284.625 L 452.483 283.629 L 451.742 282.645 L 451.034 281.667 L 450.357 280.687 L 450.928 282.638 L 451.518 281.589 L 452.123 280.554 L 452.741 279.533 L 453.372 278.522 L 453.200 280.110 L 454.400 280.172 L 455.600 280.227 L 456.800 280.275 L 458.000 280.318 L 456.900 279.729 L 457.371 280.801 L 457.804 281.863 L 458.206 282.905 L 458.592 283.919 L 463.939 282.892 L 464.458 281.862 L 464.962 280.828 L 465.454 279.788 L 465.935 278.739 L 465.200 280.496 L 466.400 280.498 L 467.600 280.472 L 468.800 280.399 L 470.000 280.262 L 467.671 279.506 L 468.171 280.340 L 468.819 281.171 L 469.593 282.037 L 470.444 282.960 L 469.872 282.480 L 469.289 283.524 L 468.699 284.566 L 468.105 285.607 L 467.512 286.648 L 471.200 288.814 L 472.400 288.792 L 473.600 288.818 L 474.800 288.883 L 476.000 288.976 L 475.030 289.239 L 475.623 290.275 L 476.169 291.293 L 476.664 292.299 L 477.104 293.305 L 481.342 292.297 L 481.803 291.304 L 482.286 290.320 L 482.795 289.341 L 483.330 288.359 L 483.200 289.308 L 484.400 289.257 L 485.600 289.182 L 486.800 289.093 L 488.000 289.002 L 488.831 285.469 L 488.137 284.354 L 487.484 283.254 L 486.861 282.179 L 486.257 281.133 L 486.875 282.191 L 487.506 281.110 L 488.154 280.022 L 488.818 278.932 L 489.498 277.843 L 489.200 278.662 L 490.400 278.626 L 491.600 278.583 L 492.800 278.540 L 494.000 278.500 L 492.828 278.780 L 493.374 279.807 L 493.909 280.835 L 494.439 281.865 L 494.971 282.899 L 499.640 281.859 L 500.251 280.819 L 500.858 279.780 L 501.459 278.740 L 502.051 277.702 L 501.200 278.400 L 502.400 278.401 L 503.600 278.405 L 504.800 278.414 L 506.000 278.431 L 507.677 275.253 L 506.992 274.220 L 506.295 273.182 L 505.594 272.138 L 504.898 271.088 L 505.466 271.486 L 506.044 270.451 L 506.636 269.413 L 507.245 268.372 L 507.873 267.328 L 504.800 265.129 L 503.600 265.098 L 502.400 265.080 L 501.200 265.078 L 500.000 265.091 L 501.141 264.820 L 500.607 263.797 L 500.104 262.775 L 499.636 261.748 L 499.198 260.710 L 499.820 261.075 L 500.448 260.038 L 501.081 259.002 L 501.718 257.967 L 502.360 256.934 L 501.200 257.627 L 502.400 257.618 L 503.600 257.617 L 504.800 257.617 L 506.000 257.624 L 507.687 254.467 L 507.154 253.419 L 506.631 252.366 L 506.112 251.308 L 505.591 250.244 L 506.230 250.770 L 506.862 249.744 L 507.485 248.714 L 508.096 247.680 L 508.695 246.640 L 504.800 244.200 L 503.600 244.198 L 502.400 244.180 L 501.200 244.141 L 500.000 244.076 L 502.189 243.916 L 501.560 242.893 L 500.910 241.881 L 500.236 240.874 L 499.537 239.869 L 493.671 240.832 L 492.916 241.767 L 492.214 242.682 L 491.571 243.591 L 490.983 244.507 L 492.800 242.935 L 491.600 242.698 L 490.400 242.505 L 489.200 242.377 L 488.000 242.324 L 489.543 243.034 L 488.940 241.995 L 488.356 240.956 L 487.792 239.918 L 487.246 238.882 L 488.176 241.267 L 489.056 240.083 L 489.814 238.835 L 490.402 237.563 L 490.820 236.319 L 486.800 233.365 L 485.600 233.030 L 484.400 232.689 L 483.200 232.389 L 482.000 232.159 L 484.177 232.802 L 483.655 231.817 L 483.119 230.835 L 482.567 229.855 L 482.000 228.873 L 482.628 230.376 L 483.153 229.169 L 483.603 227.994 L 484.015 226.862 L 484.427 225.769 L 483.200 226.443 L 484.400 226.449 L 485.600 226.510 L 486.800 226.609 L 488.000 226.727 L 488.979 223.195 L 488.491 222.197 L 488.030 221.193 L 487.589 220.176 L 487.158 219.142 L 487.868 219.510 L 488.621 218.493 L 489.400 217.503 L 490.177 216.546 L 490.922 215.622 L 489.200 216.708 L 490.400 216.844 L 491.600 217.006 L 492.800 217.187 L 494.000 217.378 L 491.569 216.926 L 492.195 217.826 L 492.889 218.728 L 493.646 219.651 L 494.447 220.605 L 500.461 219.723 L 501.221 218.910 L 501.785 218.115 L 502.172 217.278 L 502.449 216.361 L 501.200 218.122 L 502.400 218.143 L 503.600 218.146 L 504.800 218.139 L 506.000 218.129 L 507.164 211.899 L 506.398 210.913 L 505.670 209.937 L 504.979 208.961 L 504.323 207.974 L 504.872 209.822 L 505.446 208.737 L 506.034 207.671 L 506.631 206.623 L 507.234 205.592 L 504.800 201.563 L 503.600 201.510 L 502.400 201.417 L 501.200 201.291 L 500.000 201.143 L 500.952 201.580 L 500.564 200.468 L 500.251 199.388 L 499.985 198.369 L 499.709 197.432 L 500.381 199.605 L 501.051 198.518 L 501.712 197.425 L 502.362 196.327 L 502.998 195.226 L 501.200 196.869 L 502.400 197.082 L 503.600 197.224 L 504.800 197.304 L 506.000 197.342 L 507.956 191.136 L 507.586 190.200 L 507.151 189.304 L 506.627 188.430 L 506.010 187.554 L 506.600 188.715 L 507.196 187.667 L 507.799 186.633 L 508.408 185.616 L 509.021 184.614 L 504.800 181.331 L 503.600 181.514 L 502.400 181.704 L 501.200 181.872 L 500.000 181.995 L 501.828 181.699 L 501.247 180.656 L 500.708 179.602 L 500.200 178.534 L 499.707 177.450 L 493.966 178.580 L 493.652 179.651 L 493.312 180.673 L 492.920 181.664 L 492.473 182.641 L 492.800 181.696 L 491.600 181.586 L 490.400 181.495 L 489.200 181.431 L 488.000 181.398 L 488.708 181.440 L 488.159 180.451 L 487.624 179.463 L 487.099 178.470 L 486.578 177.469 L 487.283 177.999 L 488.023 176.924 L 488.798 175.860 L 489.600 174.818 L 490.416 173.805 L 486.800 171.668 L 485.600 171.676 L 484.400 171.660 L 483.200 171.635 L 482.000 171.612 L 483.201 171.304 L 482.585 170.261 L 481.965 169.217 L 481.347 168.173 L 480.741 167.132 L 476.648 168.175 L 476.013 169.222 L 475.356 170.273 L 474.679 171.325 L 473.984 172.373 L 474.800 171.676 L 473.600 171.649 L 472.400 171.572 L 471.200 171.430 L 470.000 171.220 L 467.787 175.000 L 468.444 176.004 L 469.095 177.017 L 469.744 178.034 L 470.395 179.053 L 469.700 178.493 L 469.029 179.494 L 468.384 180.505 L 467.765 181.531 L 467.173 182.575 L 468.800 181.587 L 467.600 181.499 L 466.400 181.416 L 465.200 181.338 L 464.000 181.261 L 466.431 181.196 L 465.800 180.029 L 465.119 178.874 L 464.399 177.737 L 463.655 176.623 L 457.672 177.696 L 456.981 178.789 L 456.287 179.907 L 455.610 181.049 L 454.971 182.210 L 456.800 180.923 L 455.600 180.911 L 454.400 180.918 L 453.200 180.943 L 452.000 180.985 L 454.410 181.094 L 453.767 179.972 L 453.109 178.864 L 452.443 177.768 L 451.775 176.683 L 452.219 178.898 L 452.650 177.909 L 453.085 176.897 L 453.533 175.866 L 454.002 174.822 L 450.800 169.578 L 449.600 169.579 L 448.400 169.594 L 447.200 169.623 L 446.000 169.661 L 447.831 170.319 L 447.191 169.272 L 446.555 168.227 L 445.921 167.183 L 445.284 166.139 L 445.835 168.587 L 446.391 167.551 L 446.952 166.513 L 447.515 165.474 L 448.080 164.434 L 447.200 166.181 L 448.400 166.175 L 449.600 166.165 L 450.800 166.151 L 452.000 166.136 L 453.287 159.913 L 452.719 158.869 L 452.142 157.827 L 451.555 156.787 L 450.957 155.747 L 451.555 158.190 L 452.166 157.152 L 452.794 156.116 L 453.442 155.080 L 454.110 154.042 L 450.800 148.795 L 449.600 148.801 L 448.400 148.809 L 447.200 148.819 L 446.000 148.831 L 447.266 149.524 L 446.665 148.485 L 446.080 147.444 L 445.517 146.399 L 444.980 145.353 L 440.531 146.406 L 440.012 147.461 L 439.468 148.515 L 438.903 149.564 L 438.323 150.609 L 438.800 148.944 L 437.600 148.954 L 436.400 148.955 L 435.200 148.945 L 434.000 148.924 L 435.139 149.552 L 434.617 148.494 L 434.115 147.438 L 433.631 146.388 L 433.162 145.347 L 433.837 147.803 L 434.537 146.753 L 435.262 145.690 L 436.006 144.609 L 436.756 143.501 L 432.800 138.722 L 431.600 138.750 L 430.400 138.778 L 429.200 138.800 L 428.000 138.808 L 430.330 139.395 L 429.790 138.440 L 429.222 137.484 L 428.631 136.523 L 428.022 135.554 L 428.569 136.698 L 429.078 135.559 L 429.562 134.438 L 430.035 133.339 L 430.508 132.257 L 429.200 132.969 L 430.400 132.941 L 431.600 132.922 L 432.800 132.912 L 434.000 132.908 L 435.457 129.767 L 434.811 128.725 L 434.206 127.686 L 433.640 126.649 L 433.114 125.612 L 433.704 125.972 L 434.312 124.933 L 434.931 123.894 L 435.557 122.855 L 436.183 121.817 L 435.200 122.520 L 436.400 122.544 L 437.600 122.580 L 438.800 122.618 L 440.000 122.651 L 438.961 122.935 L 439.575 123.979 L 440.168 125.016 L 440.740 126.045 L 441.291 127.069 L 445.296 126.033 L 445.892 124.995 L 446.492 123.956 L 447.094 122.916 L 447.695 121.877 L 447.200 122.609 L 448.400 122.582 L 449.600 122.561 L 450.800 122.547 L 452.000 122.539 L 453.275 119.356 L 452.619 118.307 L 451.964 117.255 L 451.315 116.203 L 450.673 115.151 L 451.268 115.650 L 451.868 114.611 L 452.476 113.569 L 453.096 112.523 L 453.732 111.474 L 450.800 109.207 L 449.600 109.196 L 448.400 109.191 L 447.200 109.196 L 446.000 109.210 L 447.186 108.947 L 446.688 107.927 L 446.215 106.902 L 445.767 105.866 L 445.336 104.812 L 446.062 105.226 L 446.809 104.230 L 447.561 103.261 L 448.297 102.321 L 448.994 101.406 L 447.200 102.476 L 448.400 102.473 L 449.600 102.472 L 450.800 102.475 L 452.000 102.479 L 454.431 98.074 L 453.798 96.888 L 453.098 95.714 L 452.344 94.566 L 451.559 93.449 L 451.967 95.826 L 452.389 94.805 L 452.841 93.765 L 453.335 92.717 L 453.877 91.669 L 453.200 93.414 L 454.400 93.428 L 455.600 93.437 L 456.800 93.437 L 458.000 93.425 L 456.242 92.710 L 456.724 93.725 L 457.192 94.725 L 457.662 95.706 L 458.147 96.672 L 464.401 95.669 L 464.964 94.653 L 465.546 93.624 L 466.147 92.584 L 466.767 91.533 L 465.200 93.027 L 466.400 92.920 L 467.600 92.810 L 468.800 92.702 L 470.000 92.598 L 467.571 92.241 L 468.171 93.204 L 468.792 94.164 L 469.434 95.126 L 470.095 96.093 L 469.503 95.223 L 468.908 96.267 L 468.313 97.311 L 467.722 98.358 L 467.139 99.412 L 471.200 102.074 L 472.400 101.983 L 473.600 101.900 L 474.800 101.831 L 476.000 101.780 L 474.325 102.078 L 475.042 103.110 L 475.750 104.150 L 476.443 105.196 L 477.117 106.245 L 481.488 105.205 L 482.085 104.167 L 482.679 103.128 L 483.275 102.090 L 483.879 101.050 L 483.200 101.794 L 484.400 101.819 L 485.600 101.838 L 486.800 101.851 L 488.000 101.854 L 489.131 98.541 L 488.600 97.518 L 488.102 96.498 L 487.638 95.472 L 487.202 94.433 L 487.953 94.813 L 488.726 93.811 L 489.504 92.839 L 490.262 91.898 L 490.978 90.986 L 489.200 92.033 L 490.400 92.036 L 491.600 92.042 L 492.800 92.051 L 494.000 92.063 L 491.705 91.926 L 492.426 92.876 L 493.154 93.852 L 493.874 94.850 L 494.571 95.866 L 500.184 94.868 L 500.931 93.891 L 501.655 92.932 L 502.348 91.983 L 503.005 91.039 L 501.200 92.145 L 502.400 92.139 L 503.600 92.120 L 504.800 92.086 L 506.000 92.036 L 508.411 87.784 L 507.829 86.671 L 507.228 85.552 L 506.604 84.429 L 505.954 83.306 L 506.531 85.168 L 507.115 84.145 L 507.707 83.115 L 508.304 82.078 L 508.906 81.037 L 504.800 76.453 L 503.600 76.349 L 502.400 76.257 L 501.200 76.181 L 500.000 76.122 L 501.769 76.777 L 501.098 75.728 L 500.453 74.684 L 499.837 73.644 L 499.252 72.605 L 499.978 75.040 L 500.705 73.973 L 501.423 72.895 L 502.123 71.812 L 502.801 70.728 L 501.200 72.296 L 502.400 72.296 L 503.600 72.302 L 504.800 72.315 L 506.000 72.336 L 508.179 66.527 L 507.593 65.496 L 507.014 64.470 L 506.440 63.450 L 505.870 62.434 L 506.425 64.476 L 506.958 63.479 L 507.468 62.485 L 507.958 61.487 L 508.435 60.480 L 504.800 55.405 L 503.600 55.527 L 502.400 55.695 L 501.200 55.903 L 500.000 56.141 L 502.430 56.478 L 501.827 55.511 L 501.203 54.549 L 500.557 53.588 L 499.887 52.624 L 493.579 53.715 L 493.042 54.794 L 492.494 55.860 L 491.927 56.915 L 491.335 57.957 L 492.800 57.241 L 491.600 57.292 L 490.400 57.316 L 489.200 57.321 L 488.000 57.307 L 489.731 57.008 L 489.080 55.975 L 488.454 54.938 L 487.853 53.899 L 487.273 52.858 L 487.703 53.226 L 488.164 52.195 L 488.663 51.170 L 489.200 50.142 L 489.775 49.109 L 486.800 46.910 L 485.600 46.946 L 484.400 46.969 L 483.200 46.935 L 482.000 46.796 L 484.124 46.498 L 483.626 45.398 L 483.116 44.282 L 482.586 43.151 L 482.025 42.008 L 482.598 43.218 L 483.161 42.117 L 483.726 41.035 L 484.298 39.967 L 484.878 38.910 L 483.200 39.669 L 484.400 39.553 L 485.600 39.484 L 486.800 39.447 L 488.000 39.431 L 489.904 36.189 L 489.396 35.121 L 488.878 34.049 L 488.346 32.977 L 487.797 31.907 L 488.368 32.597 L 488.932 31.538 L 489.488 30.477 L 490.036 29.416 L 490.576 28.355 L 489.200 29.130 L 490.400 29.141 L 491.600 29.156 L 492.800 29.173 L 494.000 29.188 L 491.883 29.452 L 492.429 30.521 L 492.979 31.592 L 493.531 32.667 L 494.087 33.748 L 500.499 32.694 L 501.065 31.625 L 501.609 30.545 L 502.130 29.459 L 502.628 28.373 L 501.200 29.138 L 502.400 29.112 L 503.600 29.089 L 504.800 29.069 L 506.000 29.053 L 507.699 25.835 L 506.982 24.805 L 506.298 23.767 L 505.649 22.726 L 505.036 21.686 L 505.571 22.057 L 506.140 21.021 L 506.747 19.981 L 507.393 18.937 L 508.080 17.893 L 504.800 15.792 L 503.600 15.789 L 502.400 15.780 L 501.200 15.765 L 500.000 15.748 L 501.903 15.405 L 501.422 14.327 L 500.932 13.239 L 500.428 12.141 L 499.906 11.037 L 500.586 12.018 L 501.227 11.092 L 501.824 10.170 L 502.376 9.245 L 502.887 8.309 L 501.200 9.864 L 502.400 9.902 L 503.600 9.933 L 504.800 9.958 L 506.000 9.978 L 508.020 4.097 L 507.265 3.011 L 506.531 1.947 L 505.833 0.897 L 505.178 -0.145 L 505.664 2.314 L 506.180 1.269 L 506.732 0.225 L 507.327 -0.815 L 507.974 -1.849 L 504.800 -7.089 L 503.600 -7.091 L 502.400 -7.070 L 501.200 -7.014 L 500.000 -6.914 L 502.203 -6.205 L 501.745 -7.118 L 501.224 -8.002 L 500.614 -8.873 L 499.913 -9.755 L 493.441 -8.770 L 492.809 -7.781 L 492.188 -6.789 L 491.576 -5.792 L 490.970 -4.791 L 492.800 -5.825 L 491.600 -5.691 L 490.400 -5.589 L 489.200 -5.518 L 488.000 -5.474 L 490.246 -5.539 L 489.613 -6.554 L 488.992 -7.580 L 488.387 -8.616 L 487.799 -9.663 L 488.299 -9.008 L 488.780 -10.095 L 489.248 -11.171 L 489.712 -12.234 L 490.180 -13.283 L 486.800 -15.417 L 485.600 -15.500 L 484.400 -15.652 L 483.200 -15.875 L 482.000 -16.157 L 484.425 -16.186 L 483.830 -17.308 L 483.213 -18.432 L 482.571 -19.554 L 481.908 -20.670 L 475.572 -19.697 L 475.062 -18.713 L 474.553 -17.716 L 474.037 -16.708 L 473.509 -15.689 L 474.800 -17.464 L 473.600 -17.484 L 472.400 -17.474 L 471.200 -17.448 L 470.000 -17.414 L 468.703 -11.212 L 469.179 -10.159 L 469.636 -9.117 L 470.078 -8.091 L 470.510 -7.083 L 469.822 -9.428 L 469.113 -8.346 L 468.397 -7.243 L 467.690 -6.118 L 467.010 -4.973 L 468.800 -6.429 L 467.600 -6.507 L 466.400 -6.587 L 465.200 -6.668 L 464.000 -6.745 L 466.004 -6.302 L 465.185 -7.398 L 464.365 -8.459 L 463.560 -9.491 L 462.782 -10.500 L 458.501 -9.483 L 457.762 -8.458 L 457.008 -7.419 L 456.246 -6.364 L 455.487 -5.291 L 456.800 -7.003 L 455.600 -7.005 L 454.400 -6.993 L 453.200 -6.964 L 452.000 -6.909 L 453.905 -6.332 L 453.164 -7.402 L 452.417 -8.457 L 451.671 -9.498 L 450.931 -10.527 L 451.278 -8.144 L 451.692 -9.263 L 452.170 -10.386 L 452.700 -11.496 L 453.264 -12.585 L 450.800 -16.805 L 449.600 -16.857 L 448.400 -16.943 L 447.200 -17.060 L 446.000 -17.197 L 446.870 -16.615 L 446.262 -17.649 L 445.675 -18.696 L 445.110 -19.755 L 444.572 -20.824 L 445.145 -18.589 L 445.779 -19.613 L 446.477 -20.615 L 447.250 -21.612 L 448.098 -22.627 L 447.200 -20.877 L 448.400 -20.878 L 449.600 -20.884 L 450.800 -20.897 L 452.000 -20.917 L 454.038 -27.073 L 453.657 -27.989 L 453.193 -28.869 L 452.630 -29.735 L 451.972 -30.612 L 452.385 -29.746 L 452.730 -30.896 L 453.071 -31.984 L 453.452 -33.028 L 453.897 -34.053 L 450.800 -36.192 L 449.600 -36.180 L 448.400 -36.171 L 447.200 -36.170 L 446.000 -36.178 L 447.574 -36.509 L 446.955 -37.548 L 446.381 -38.588 L 445.848 -39.631 L 445.347 -40.682 L 440.053 -39.642 L 439.408 -38.611 L 438.720 -37.590 L 438.000 -36.587 L 437.263 -35.608 L 438.800 -36.543 L 437.600 -36.649 L 436.400 -36.760 L 435.200 -36.875 L 434.000 -36.988 L 436.394 -36.886 L 435.780 -37.899 L 435.166 -38.917 L 434.551 -39.935 L 433.933 -40.953 L 434.504 -40.047 L 435.088 -41.102 L 435.687 -42.141 L 436.303 -43.166 L 436.932 -44.175 L 432.800 -47.102 L 431.600 -47.058 L 430.400 -47.004 L 429.200 -46.942 L 428.000 -46.876 L 430.135 -47.038 L 429.511 -48.065 L 428.904 -49.101 L 428.318 -50.147 L 427.755 -51.206 L 421.782 -50.103 L 421.300 -49.027 L 420.784 -47.968 L 420.225 -46.922 L 419.621 -45.883 L 420.800 -46.580 L 419.600 -46.566 L 418.400 -46.562 L 417.200 -46.563 L 416.000 -46.568 L 414.430 -43.421 L 414.853 -42.367 L 415.265 -41.286 L 415.685 -40.178 L 416.135 -39.043 L 415.435 -39.955 L 414.777 -39.043 L 414.177 -38.142 L 413.642 -37.239 L 413.167 -36.321 L 414.800 -37.885 L 413.600 -37.892 L 412.400 -37.893 L 411.200 -37.890 L 410.000 -37.881 L 412.356 -37.242 L 411.823 -38.143 L 411.223 -39.041 L 410.562 -39.950 L 409.856 -40.880 L 403.432 -39.958 L 402.776 -39.047 L 402.175 -38.134 L 401.622 -37.210 L 401.102 -36.267 L 402.800 -37.734 L 401.600 -37.704 L 400.400 -37.679 L 399.200 -37.660 L 398.000 -37.650 L 395.704 -32.229 L 396.377 -31.132 L 397.064 -30.039 L 397.764 -28.954 L 398.475 -27.878 L 397.892 -30.234 L 397.292 -29.195 L 396.679 -28.152 L 396.059 -27.107 L 395.436 -26.061 L 399.200 -20.941 L 400.400 -20.898 L 401.600 -20.879 L 402.800 -20.879 L 404.000 -20.893 L 402.717 -21.606 L 403.376 -20.577 L 404.010 -19.545 L 404.618 -18.508 L 405.199 -17.464 L 404.577 -19.862 L 403.964 -18.826 L 403.362 -17.787 L 402.774 -16.745 L 402.198 -15.701 L 402.800 -17.379 L 401.600 -17.344 L 400.400 -17.319 L 399.200 -17.311 L 398.000 -17.323 L 397.057 -11.316 L 397.710 -10.303 L 398.324 -9.272 L 398.898 -8.219 L 399.429 -7.146 L 398.868 -9.374 L 398.294 -8.321 L 397.705 -7.276 L 397.098 -6.241 L 396.473 -5.215 L 396.800 -6.696 L 395.600 -6.576 L 394.400 -6.493 L 393.200 -6.460 L 392.000 -6.482 L 392.704 -6.086 L 392.147 -7.170 L 391.640 -8.283 L 391.205 -9.406 L 390.849 -10.514 L 386.580 -9.469 L 385.988 -8.429 L 385.372 -7.393 L 384.729 -6.361 L 384.059 -5.332 L 384.800 -7.084 L 383.600 -6.975 L 382.400 -6.739 L 381.200 -6.401 L 380.000 -6.016 L 382.387 -5.695 L 381.669 -6.597 L 380.890 -7.525 L 380.076 -8.491 L 379.258 -9.494 L 379.858 -9.122 L 380.455 -10.161 L 381.051 -11.201 L 381.652 -12.240 L 382.262 -13.278 L 378.800 -15.386 L 377.600 -15.409 L 376.400 -15.448 L 375.200 -15.487 L 374.000 -15.517 L 375.080 -15.790 L 374.512 -16.819 L 373.976 -17.842 L 373.471 -18.862 L 372.999 -19.885 L 368.503 -18.858 L 367.976 -17.831 L 367.426 -16.803 L 366.856 -15.771 L 366.273 -14.736 L 366.800 -15.457 L 365.600 -15.426 L 364.400 -15.400 L 363.200 -15.385 L 362.000 -15.390 L 360.504 -12.245 L 361.214 -11.200 L 361.914 -10.149 L 362.601 -9.094 L 363.270 -8.037 L 362.669 -8.500 L 362.069 -7.461 L 361.472 -6.422 L 360.875 -5.384 L 360.278 -4.346 L 360.800 -5.062 L 359.600 -5.025 L 358.400 -4.999 L 357.200 -4.993 L 356.000 -5.020 L 357.904 -5.380 L 357.469 -6.476 L 357.010 -7.592 L 356.515 -8.717 L 355.982 -9.843 L 349.406 -8.826 L 348.798 -7.804 L 348.192 -6.778 L 347.588 -5.749 L 346.985 -4.718 L 348.800 -6.109 L 347.600 -6.371 L 346.400 -6.608 L 345.200 -6.803 L 344.000 -6.946 L 345.846 -6.347 L 345.137 -7.406 L 344.469 -8.453 L 343.848 -9.494 L 343.276 -10.531 L 344.026 -8.108 L 344.782 -9.189 L 345.529 -10.291 L 346.256 -11.411 L 346.953 -12.546 L 342.800 -16.901 L 341.600 -16.934 L 340.400 -16.961 L 339.200 -16.985 L 338.000 -17.004 L 340.386 -16.412 L 339.830 -17.311 L 339.206 -18.205 L 338.514 -19.108 L 337.765 -20.035 L 338.189 -19.445 L 338.609 -20.532 L 339.044 -21.594 L 339.507 -22.638 L 340.001 -23.672 L 339.200 -22.974 L 340.400 -22.977 L 341.600 -22.972 L 342.800 -22.957 L 344.000 -22.929 L 345.662 -26.122 L 344.936 -27.155 L 344.218 -28.198 L 343.511 -29.248 L 342.820 -30.303 L 343.422 -29.883 L 344.027 -30.923 L 344.634 -31.964 L 345.240 -33.004 L 345.845 -34.044 L 342.800 -36.256 L 341.600 -36.290 L 340.400 -36.317 L 339.200 -36.333 L 338.000 -36.336 L 339.046 -36.586 L 338.478 -37.614 L 337.924 -38.640 L 337.384 -39.664 L 336.854 -40.689 L 332.550 -39.650 L 331.956 -38.612 L 331.366 -37.575 L 330.778 -36.538 L 330.193 -35.502 L 330.800 -36.216 L 329.600 -36.203 L 328.400 -36.195 L 327.200 -36.189 L 326.000 -36.187 L 327.378 -36.515 L 326.790 -37.553 L 326.190 -38.592 L 325.577 -39.633 L 324.953 -40.674 L 325.578 -40.298 L 326.209 -41.340 L 326.848 -42.381 L 327.494 -43.422 L 328.150 -44.461 L 324.800 -46.563 L 323.600 -46.572 L 322.400 -46.591 L 321.200 -46.616 L 320.000 -46.644 L 321.151 -46.946 L 320.550 -47.986 L 319.969 -49.020 L 319.408 -50.051 L 318.866 -51.079 L 319.545 -50.687 L 320.248 -51.734 L 320.972 -52.774 L 321.711 -53.803 L 322.457 -54.817 L 321.200 -54.036 L 322.400 -53.972 L 323.600 -53.888 L 324.800 -53.786 L 326.000 -53.674 L 328.319 -57.565 L 327.743 -58.632 L 327.159 -59.691 L 326.568 -60.744 L 325.973 -61.790 L 326.606 -60.687 L 327.222 -61.676 L 327.829 -62.679 L 328.431 -63.698 L 329.031 -64.733 L 327.200 -63.367 L 328.400 -63.202 L 329.600 -63.032 L 330.800 -62.870 L 332.000 -62.724 L 329.950 -63.255 L 330.607 -62.194 L 331.225 -61.148 L 331.802 -60.117 L 332.341 -59.101 L 338.115 -60.091 L 338.572 -61.099 L 339.040 -62.122 L 339.529 -63.157 L 340.044 -64.198 L 339.200 -62.467 L 340.400 -62.488 L 341.600 -62.507 L 342.800 -62.520 L 344.000 -62.523 L 345.177 -68.696 L 344.621 -69.745 L 344.115 -70.800 L 343.663 -71.852 L 343.261 -72.886 L 344.060 -70.469 L 344.885 -71.584 L 345.691 -72.755 L 346.416 -73.979 L 347.008 -75.231 L 342.800 -78.614 L 341.600 -78.649 L 340.400 -78.653 L 339.200 -78.623 L 338.000 -78.559 L 340.280 -78.313 L 339.464 -79.220 L 338.605 -80.182 L 337.748 -81.196 L 336.927 -82.247 L 337.363 -81.831 L 337.821 -82.826 L 338.306 -83.814 L 338.821 -84.801 L 339.363 -85.795 L 339.200 -84.804 L 340.400 -84.746 L 341.600 -84.688 L 342.800 -84.635 L 344.000 -84.594 L 344.651 -88.844 L 344.059 -89.869 L 343.477 -90.878 L 342.911 -91.875 L 342.363 -92.862 L 343.025 -92.079 L 343.722 -93.175 L 344.462 -94.272 L 345.246 -95.359 L 346.072 -96.422 L 342.800 -98.530 L 341.600 -98.534 L 340.400 -98.535 L 339.200 -98.531 L 338.000 -98.526 L 339.677 -98.870 L 339.314 -99.953 L 338.934 -101.078 L 338.510 -102.243 L 338.012 -103.437 L 331.451 -102.287 L 330.957 -101.146 L 330.498 -100.022 L 330.059 -98.921 L 329.627 -97.843 L 330.800 -98.589 L 329.600 -98.618 L 328.400 -98.649 L 327.200 -98.684 L 326.000 -98.722 L 328.223 -99.053 L 327.750 -100.209 L 327.220 -101.382 L 326.626 -102.560 L 325.972 -103.730 L 326.468 -101.833 L 326.916 -102.775 L 327.333 -103.743 L 327.739 -104.741 L 328.158 -105.766 L 324.800 -111.014 L 323.600 -111.012 L 322.400 -111.008 L 321.200 -111.000 L 320.000 -110.988 L 321.635 -110.300 L 320.973 -111.343 L 320.342 -112.383 L 319.741 -113.422 L 319.166 -114.461 L 314.181 -113.419 L 313.506 -112.373 L 312.817 -111.322 L 312.123 -110.263 L 311.430 -109.197 L 312.800 -110.867 L 311.600 -110.863 L 310.400 -110.867 L 309.200 -110.877 L 308.000 -110.891 L 305.980 -104.812 L 306.521 -103.797 L 307.070 -102.782 L 307.625 -101.768 L 308.184 -100.755 L 307.589 -102.847 L 307.012 -101.823 L 306.455 -100.809 L 305.918 -99.801 L 305.400 -98.795 L 306.800 -100.505 L 305.600 -100.523 L 304.400 -100.524 L 303.200 -100.505 L 302.000 -100.462 L 304.107 -99.789 L 303.590 -100.782 L 303.053 -101.777 L 302.497 -102.779 L 301.924 -103.791 L 295.432 -102.697 L 294.803 -101.607 L 294.185 -100.525 L 293.577 -99.457 L 292.975 -98.406 L 294.800 -99.455 L 293.600 -99.232 L 292.400 -99.036 L 291.200 -98.877 L 290.000 -98.757 L 291.887 -98.906 L 291.082 -99.910 L 290.299 -100.941 L 289.550 -101.989 L 288.836 -103.046 L 289.559 -102.650 L 290.352 -103.697 L 291.196 -104.712 L 292.055 -105.676 L 292.879 -106.581 L 288.800 -109.149 L 287.600 -108.988 L 286.400 -108.918 L 285.200 -108.938 L 284.000 -109.028 L 285.158 -109.298 L 284.624 -110.323 L 284.111 -111.347 L 283.614 -112.376 L 283.132 -113.411 L 284.070 -113.011 L 284.973 -113.931 L 285.775 -114.786 L 286.429 -115.607 L 286.928 -116.440 L 285.200 -114.708 L 286.400 -114.518 L 287.600 -114.421 L 288.800 -114.416 L 290.000 -114.486 L 291.124 -120.644 L 290.491 -121.674 L 289.879 -122.709 L 289.286 -123.750 L 288.711 -124.797 L 289.179 -122.497 L 289.694 -123.577 L 290.246 -124.645 L 290.824 -125.699 L 291.423 -126.739 L 288.800 -131.524 L 287.600 -131.626 L 286.400 -131.715 L 285.200 -131.775 L 284.000 -131.800 L 285.610 -131.087 L 285.121 -132.116 L 284.624 -133.138 L 284.115 -134.155 L 283.590 -135.171 L 277.811 -134.132 L 277.187 -133.084 L 276.539 -132.026 L 275.871 -130.955 L 275.191 -129.868 L 276.800 -131.313 L 275.600 -131.184 L 274.400 -131.053 L 273.200 -130.920 L 272.000 -130.784 L 274.428 -130.607 L 273.823 -131.675 L 273.213 -132.747 L 272.597 -133.824 L 271.973 -134.906 L 272.474 -133.015 L 272.939 -133.964 L 273.387 -134.938 L 273.836 -135.935 L 274.306 -136.953 L 270.800 -142.173 L 269.600 -142.166 L 268.400 -142.146 L 267.200 -142.101 L 266.000 -142.018 L 267.903 -141.433 L 267.173 -142.500 L 266.440 -143.555 L 265.710 -144.599 L 264.990 -145.633 L 260.073 -144.586 L 259.142 -143.459 L 258.288 -142.255 L 257.572 -141.002 L 257.021 -139.742 L 258.800 -140.499 L 257.600 -140.271 L 256.400 -140.134 L 255.200 -140.092 L 254.000 -140.131 L 252.794 -136.920 L 253.445 -135.869 L 254.076 -134.822 L 254.686 -133.780 L 255.274 -132.744 L 254.815 -133.258 L 254.297 -132.258 L 253.728 -131.236 L 253.117 -130.190 L 252.462 -129.122 L 252.800 -129.991 L 251.600 -130.016 L 250.400 -130.014 L 249.200 -129.985 L 248.000 -129.933 L 248.871 -130.198 L 248.217 -131.271 L 247.585 -132.335 L 246.970 -133.387 L 246.368 -134.427 L 242.936 -133.319 L 242.191 -132.209 L 241.397 -131.112 L 240.569 -130.042 L 239.727 -129.007 L 240.800 -129.782 L 239.600 -129.906 L 238.400 -130.077 L 237.200 -130.279 L 236.000 -130.493 L 233.594 -126.158 L 234.196 -125.124 L 234.802 -124.098 L 235.413 -123.080 L 236.029 -122.067 L 235.403 -123.147 L 234.793 -122.130 L 234.193 -121.090 L 233.602 -120.031 L 233.021 -118.957 L 237.200 -115.917 L 238.400 -115.992 L 239.600 -116.038 L 240.800 -116.058 L 242.000 -116.054 L 239.734 -115.945 L 240.328 -114.901 L 240.911 -113.847 L 241.485 -112.782 L 242.052 -111.706 L 241.514 -112.613 L 241.000 -111.508 L 240.506 -110.411 L 240.028 -109.323 L 239.559 -108.249 L 240.800 -108.927 L 239.600 -108.916 L 238.400 -108.927 L 237.200 -108.942 L 236.000 -108.949 L 234.766 -105.749 L 235.389 -104.705 L 235.982 -103.668 L 236.547 -102.635 L 237.088 -101.605 L 236.539 -102.002 L 235.969 -100.968 L 235.381 -99.931 L 234.776 -98.891 L 234.155 -97.848 L 234.800 -98.592 L 233.600 -98.605 L 232.400 -98.611 L 231.200 -98.609 L 230.000 -98.601 L 231.197 -98.897 L 230.646 -99.926 L 230.127 -100.953 L 229.641 -101.982 L 229.191 -103.021 L 224.227 -101.981 L 223.647 -100.941 L 223.074 -99.901 L 222.510 -98.863 L 221.958 -97.825 L 222.800 -98.523 L 221.600 -98.531 L 220.400 -98.555 L 219.200 -98.601 L 218.000 -98.678 L 220.207 -99.042 L 219.757 -100.219 L 219.227 -101.417 L 218.610 -102.617 L 217.915 -103.801 L 218.486 -101.849 L 219.054 -102.861 L 219.616 -103.873 L 220.171 -104.884 L 220.719 -105.894 L 216.800 -110.865 L 215.600 -110.941 L 214.400 -110.990 L 213.200 -111.013 L 212.000 -111.012 L 213.333 -110.293 L 212.653 -111.320 L 212.009 -112.351 L 211.401 -113.388 L 210.826 -114.433 L 206.595 -113.389 L 206.030 -112.342 L 205.480 -111.290 L 204.942 -110.231 L 204.411 -109.166 L 204.800 -110.791 L 203.600 -110.786 L 202.400 -110.802 L 201.200 -110.835 L 200.000 -110.879 L 199.097 -104.866 L 199.807 -103.898 L 200.469 -102.913 L 201.094 -101.902 L 201.691 -100.859 L 201.111 -102.716 L 200.518 -101.667 L 199.915 -100.632 L 199.299 -99.613 L 198.670 -98.606 L 198.800 -100.034 L 197.600 -100.021 L 196.400 -100.046 L 195.200 -100.099 L 194.000 -100.169 L 194.792 -99.700 L 194.236 -100.771 L 193.709 -101.853 L 193.211 -102.939 L 192.743 -104.021 L 188.688 -102.974 L 188.111 -101.927 L 187.532 -100.881 L 186.956 -99.834 L 186.385 -98.784 L 186.800 -100.457 L 185.600 -100.453 L 184.400 -100.433 L 183.200 -100.396 L 182.000 -100.342 L 181.123 -94.489 L 181.750 -93.466 L 182.373 -92.441 L 182.989 -91.414 L 183.596 -90.380 L 183.034 -92.405 L 182.463 -91.339 L 181.882 -90.280 L 181.289 -89.232 L 180.683 -88.200 L 183.200 -83.721 L 184.400 -83.638 L 185.600 -83.551 L 186.800 -83.465 L 188.000 -83.387 L 186.819 -83.980 L 187.249 -82.912 L 187.649 -81.863 L 188.029 -80.844 L 188.408 -79.860 L 187.743 -82.145 L 187.073 -81.073 L 186.400 -79.992 L 185.729 -78.900 L 185.064 -77.797 L 186.800 -79.396 L 185.600 -79.504 L 184.400 -79.581 L 183.200 -79.627 L 182.000 -79.648 L 179.790 -73.731 L 180.262 -72.804 L 180.786 -71.895 L 181.371 -70.994 L 182.019 -70.089 L 181.471 -71.086 L 180.933 -69.988 L 180.394 -68.903 L 179.848 -67.832 L 179.289 -66.771 L 183.200 -64.339 L 184.400 -64.392 L 185.600 -64.446 L 186.800 -64.493 L 188.000 -64.527 L 186.412 -64.205 L 187.083 -63.168 L 187.716 -62.128 L 188.309 -61.089 L 188.863 -60.050 L 193.611 -61.085 L 194.115 -62.115 L 194.650 -63.144 L 195.212 -64.175 L 195.801 -65.212 L 195.200 -64.452 L 196.400 -64.431 L 197.600 -64.418 L 198.800 -64.415 L 200.000 -64.421 L 198.881 -64.152 L 199.426 -63.128 L 199.942 -62.106 L 200.430 -61.082 L 200.892 -60.050 L 200.196 -60.413 L 199.469 -59.386 L 198.716 -58.376 L 197.950 -57.391 L 197.190 -56.436 L 201.200 -53.775 L 202.400 -53.755 L 203.600 -53.729 L 204.800 -53.697 L 206.000 -53.656 L 203.617 -53.459 L 204.175 -52.309 L 204.773 -51.163 L 205.403 -50.029 L 206.055 -48.909 L 205.541 -50.851 L 205.059 -49.888 L 204.600 -48.912 L 204.155 -47.916 L 203.709 -46.902 L 204.800 -48.655 L 203.600 -48.661 L 202.400 -48.661 L 201.200 -48.658 L 200.000 -48.654 L 198.680 -42.385 L 199.337 -41.355 L 199.964 -40.320 L 200.568 -39.282 L 201.152 -38.240 L 200.545 -40.653 L 199.900 -39.621 L 199.218 -38.591 L 198.500 -37.558 L 197.750 -36.514 L 198.800 -38.245 L 197.600 -38.224 L 196.400 -38.191 L 195.200 -38.143 L 194.000 -38.073 L 195.927 -37.503 L 195.203 -38.572 L 194.491 -39.628 L 193.802 -40.674 L 193.144 -41.715 L 188.077 -40.663 L 187.263 -39.579 L 186.446 -38.450 L 185.668 -37.271 L 184.975 -36.054 L 186.800 -37.138 L 185.600 -36.939 L 184.400 -36.751 L 183.200 -36.586 L 182.000 -36.451 L 179.972 -32.941 L 180.712 -31.946 L 181.467 -30.937 L 182.220 -29.911 L 182.954 -28.871 L 182.603 -29.268 L 182.197 -28.288 L 181.735 -27.317 L 181.225 -26.342 L 180.680 -25.354 L 183.200 -22.536 L 184.400 -22.668 L 185.600 -22.800 L 186.800 -22.908 L 188.000 -22.969 L 186.432 -22.637 L 186.825 -21.578 L 187.191 -20.478 L 187.571 -19.325 L 188.015 -18.121 L 187.393 -19.246 L 186.776 -18.260 L 186.169 -17.279 L 185.573 -16.301 L 184.991 -15.325 L 186.800 -16.322 L 185.600 -15.992 L 184.400 -15.716 L 183.200 -15.521 L 182.000 -15.415 L 179.932 -12.140 L 180.281 -10.934 L 180.771 -9.679 L 181.426 -8.420 L 182.222 -7.200 L 181.672 -9.365 L 181.112 -8.346 L 180.538 -7.318 L 179.945 -6.282 L 179.328 -5.235 L 180.800 -6.685 L 179.600 -6.460 L 178.400 -6.221 L 177.200 -5.984 L 176.000 -5.761 L 178.320 -5.605 L 177.586 -6.537 L 176.802 -7.489 L 175.986 -8.472 L 175.165 -9.489 L 170.157 -8.454 L 169.494 -7.421 L 168.845 -6.388 L 168.210 -5.355 L 167.587 -4.320 L 168.800 -5.005 L 167.600 -4.992 L 166.400 -5.005 L 165.200 -5.037 L 164.000 -5.079 L 165.014 -5.421 L 164.293 -6.516 L 163.603 -7.614 L 162.940 -8.706 L 162.301 -9.788 L 162.908 -8.837 L 163.531 -9.901 L 164.173 -10.979 L 164.836 -12.065 L 165.521 -13.153 L 162.800 -15.674 L 161.600 -15.710 L 160.400 -15.752 L 159.200 -15.797 L 158.000 -15.843 L 158.871 -15.882 L 158.426 -16.848 L 158.044 -17.827 L 157.718 -18.841 L 157.422 -19.910 L 152.319 -18.842 L 152.015 -17.840 L 151.631 -16.871 L 151.163 -15.903 L 150.628 -14.913 L 150.800 -15.761 L 149.600 -15.662 L 148.400 -15.557 L 147.200 -15.464 L 146.000 -15.401 L 144.720 -12.226 L 145.368 -11.179 L 145.990 -10.135 L 146.587 -9.096 L 147.161 -8.062 L 146.264 -8.449 L 145.332 -7.450 L 144.425 -6.531 L 143.619 -5.684 L 142.975 -4.876 L 144.800 -6.483 L 143.600 -6.750 L 142.400 -6.938 L 141.200 -7.046 L 140.000 -7.088 L 141.738 -6.366 L 141.272 -7.380 L 140.795 -8.383 L 140.298 -9.380 L 139.778 -10.377 L 133.807 -9.423 L 133.407 -8.436 L 132.996 -7.419 L 132.551 -6.380 L 132.061 -5.331 L 132.800 -7.089 L 131.600 -7.087 L 130.400 -7.038 L 129.200 -6.916 L 128.000 -6.711 L 130.293 -6.135 L 129.741 -7.123 L 129.173 -8.119 L 128.592 -9.126 L 128.003 -10.142 L 128.560 -8.399 L 129.107 -9.377 L 129.652 -10.368 L 130.199 -11.370 L 130.752 -12.381 L 126.800 -17.138 L 125.600 -17.056 L 124.400 -16.946 L 123.200 -16.812 L 122.000 -16.663 L 124.409 -16.363 L 123.811 -17.397 L 123.215 -18.424 L 122.622 -19.442 L 122.028 -20.449 L 122.610 -18.884 L 123.175 -19.853 L 123.719 -20.821 L 124.243 -21.793 L 124.745 -22.770 L 123.200 -21.020 L 124.400 -20.934 L 125.600 -20.892 L 126.800 -20.878 L 128.000 -20.877 L 129.448 -27.164 L 128.829 -28.203 L 128.236 -29.242 L 127.668 -30.283 L 127.125 -31.323 L 127.623 -28.865 L 128.141 -29.912 L 128.678 -30.960 L 129.233 -32.007 L 129.806 -33.052 L 126.800 -38.242 L 125.600 -38.267 L 124.400 -38.260 L 123.200 -38.201 L 122.000 -38.069 L 124.167 -37.403 L 123.663 -38.377 L 123.138 -39.343 L 122.591 -40.306 L 122.021 -41.269 L 115.369 -40.163 L 114.776 -39.048 L 114.204 -37.929 L 113.655 -36.810 L 113.129 -35.696 L 114.800 -36.398 L 113.600 -36.254 L 112.400 -36.184 L 111.200 -36.170 L 110.000 -36.188 L 111.334 -36.520 L 110.742 -37.558 L 110.173 -38.594 L 109.626 -39.629 L 109.100 -40.665 L 109.812 -40.302 L 110.536 -41.329 L 111.266 -42.344 L 111.994 -43.346 L 112.711 -44.336 L 108.800 -46.784 L 107.600 -46.769 L 106.400 -46.763 L 105.200 -46.763 L 104.000 -46.765 L 106.173 -47.059 L 105.670 -48.166 L 105.147 -49.283 L 104.599 -50.406 L 104.027 -51.532 L 97.417 -50.374 L 96.900 -49.233 L 96.405 -48.112 L 95.921 -47.011 L 95.439 -45.927 L 96.800 -46.648 L 95.600 -46.603 L 94.400 -46.571 L 93.200 -46.562 L 92.000 -46.590 L 90.648 -43.413 L 91.222 -42.376 L 91.811 -41.338 L 92.418 -40.298 L 93.042 -39.257 L 92.566 -39.653 L 92.086 -38.643 L 91.600 -37.642 L 91.101 -36.651 L 90.587 -35.665 L 90.800 -36.646 L 89.600 -36.731 L 88.400 -36.807 L 87.200 -36.864 L 86.000 -36.891 L 86.666 -36.855 L 86.076 -37.880 L 85.485 -38.906 L 84.894 -39.933 L 84.304 -40.961 L 81.082 -39.906 L 80.460 -38.844 L 79.829 -37.777 L 79.185 -36.703 L 78.524 -35.624 L 78.800 -36.344 L 77.600 -36.235 L 76.400 -36.175 L 75.200 -36.184 L 74.000 -36.274 L 72.173 -33.000 L 72.846 -31.973 L 73.497 -30.941 L 74.126 -29.905 L 74.736 -28.866 L 73.874 -29.288 L 73.025 -28.354 L 72.240 -27.477 L 71.569 -26.639 L 71.040 -25.806 L 75.200 -21.814 L 76.400 -22.138 L 77.600 -22.451 L 78.800 -22.712 L 80.000 -22.889 L 78.030 -22.569 L 78.543 -21.498 L 79.057 -20.417 L 79.577 -19.329 L 80.108 -18.235 L 79.378 -19.294 L 78.804 -18.472 L 78.371 -17.618 L 78.030 -16.705 L 77.718 -15.726 L 78.800 -17.478 L 77.600 -17.411 L 76.400 -17.289 L 75.200 -17.142 L 74.000 -16.996 L 73.243 -11.437 L 73.822 -10.379 L 74.377 -9.306 L 74.905 -8.222 L 75.397 -7.132 L 74.739 -9.427 L 74.011 -8.424 L 73.207 -7.415 L 72.338 -6.375 L 71.438 -5.276 L 72.800 -6.929 L 71.600 -6.880 L 70.400 -6.810 L 69.200 -6.712 L 68.000 -6.579 L 70.157 -6.232 L 69.394 -7.344 L 68.645 -8.426 L 67.927 -9.486 L 67.252 -10.533 L 61.814 -9.426 L 60.941 -8.242 L 60.189 -7.006 L 59.585 -5.758 L 59.108 -4.538 L 60.800 -5.285 L 59.600 -5.137 L 58.400 -5.044 L 57.200 -5.001 L 56.000 -4.993 L 57.472 -5.332 L 56.835 -6.373 L 56.190 -7.415 L 55.541 -8.460 L 54.895 -9.505 L 55.591 -9.122 L 56.327 -10.167 L 57.097 -11.196 L 57.890 -12.200 L 58.684 -13.172 L 54.800 -15.446 L 53.600 -15.388 L 52.400 -15.391 L 51.200 -15.412 L 50.000 -15.424 L 51.334 -15.735 L 50.813 -16.767 L 50.311 -17.802 L 49.822 -18.845 L 49.343 -19.896 L 44.070 -18.855 L 43.459 -17.818 L 42.823 -16.784 L 42.166 -15.756 L 41.490 -14.735 L 42.800 -15.639 L 41.600 -15.872 L 40.400 -16.170 L 39.200 -16.499 L 38.000 -16.821 L 35.592 -11.603 L 36.171 -10.648 L 36.774 -9.695 L 37.400 -8.740 L 38.049 -7.779 L 37.399 -8.840 L 36.773 -7.885 L 36.171 -6.927 L 35.588 -5.963 L 35.019 -4.989 L 36.800 -6.638 L 35.600 -6.835 L 34.400 -6.970 L 33.200 -7.049 L 32.000 -7.084 L 33.509 -6.381 L 32.793 -7.415 L 32.095 -8.443 L 31.416 -9.469 L 30.758 -10.495 L 26.637 -9.457 L 26.009 -8.424 L 25.357 -7.395 L 24.681 -6.368 L 23.981 -5.339 L 24.800 -7.091 L 23.600 -7.092 L 22.400 -7.083 L 21.200 -7.061 L 20.000 -7.023 L 18.100 -0.850 L 18.645 0.173 L 19.191 1.194 L 19.740 2.213 L 20.292 3.230 L 19.579 1.083 L 18.891 2.194 L 18.231 3.306 L 17.595 4.411 L 16.977 5.506 L 21.200 9.520 L 22.400 9.631 L 23.600 9.718 L 24.800 9.780 L 26.000 9.818 L 23.684 9.319 L 24.254 10.326 L 24.827 11.327 L 25.402 12.321 L 25.982 13.309 L 25.383 11.718 L 24.789 12.739 L 24.203 13.746 L 23.630 14.740 L 23.073 15.724 L 24.800 14.110 L 23.600 14.003 L 22.400 13.932 L 21.200 13.892 L 20.000 13.880 L 18.059 19.923 L 18.737 20.983 L 19.386 22.032 L 20.003 23.075 L 20.589 24.111 L 20.124 21.685 L 19.654 22.717 L 19.170 23.759 L 18.668 24.807 L 18.146 25.858 L 21.200 31.072 L 22.400 31.084 L 23.600 31.051 L 24.800 30.948 L 26.000 30.761 L 23.734 30.151 L 24.261 31.118 L 24.807 32.077 L 25.376 33.032 L 25.969 33.988 L 32.614 32.864 L 33.173 31.742 L 33.709 30.626 L 34.228 29.518 L 34.735 28.422 L 33.200 29.092 L 34.400 29.006 L 35.600 28.985 L 36.800 29.004 L 38.000 29.038 L 36.812 29.360 L 37.436 30.405 L 38.032 31.444 L 38.593 32.474 L 39.111 33.498 L 38.441 33.112 L 37.743 34.158 L 37.023 35.198 L 36.289 36.226 L 35.549 37.241 L 39.200 39.463 L 40.400 39.503 L 41.600 39.579 L 42.800 39.704 L 44.000 39.885 L 41.579 40.164 L 42.203 41.422 L 42.984 42.659 L 43.887 43.833 L 44.840 44.923 L 44.377 42.465 L 43.895 43.517 L 43.388 44.572 L 42.856 45.627 L 42.295 46.678 L 42.800 44.895 L 41.600 44.871 L 40.400 44.929 L 39.200 45.067 L 38.000 45.265 L 35.929 51.052 L 36.712 52.153 L 37.492 53.226 L 38.250 54.276 L 38.972 55.313 L 38.188 52.857 L 37.376 53.924 L 36.558 55.027 L 35.765 56.172 L 35.027 57.352 L 36.800 56.275 L 35.600 56.604 L 34.400 56.884 L 33.200 57.091 L 32.000 57.222 L 34.005 56.942 L 33.441 55.889 L 32.882 54.832 L 32.330 53.770 L 31.782 52.701 L 25.703 53.786 L 25.190 54.862 L 24.673 55.928 L 24.142 56.985 L 23.593 58.035 L 24.800 57.261 L 23.600 57.177 L 22.400 57.049 L 21.200 56.874 L 20.000 56.658 L 17.675 60.780 L 18.352 61.749 L 19.049 62.725 L 19.765 63.710 L 20.491 64.708 L 19.810 64.222 L 19.120 65.226 L 18.427 66.217 L 17.739 67.195 L 17.064 68.163 L 21.200 70.870 L 22.400 70.685 L 23.600 70.585 L 24.800 70.554 L 26.000 70.569 L 24.681 70.906 L 25.307 71.949 L 25.904 72.988 L 26.469 74.023 L 26.999 75.055 L 26.290 74.689 L 25.564 75.724 L 24.830 76.748 L 24.095 77.758 L 23.367 78.755 L 24.800 77.924 L 23.600 77.852 L 22.400 77.745 L 21.200 77.599 L 20.000 77.419 L 17.633 81.617 L 18.246 82.638 L 18.846 83.677 L 19.434 84.733 L 20.012 85.808 L 19.394 84.679 L 18.784 85.692 L 18.180 86.718 L 17.580 87.755 L 16.982 88.801 L 21.200 92.332 L 22.400 92.465 L 23.600 92.609 L 24.800 92.761 L 26.000 92.913 L 23.809 92.558 L 24.562 93.674 L 25.334 94.767 L 26.110 95.836 L 26.873 96.885 L 31.745 95.845 L 32.374 94.805 L 33.018 93.764 L 33.677 92.720 L 34.352 91.671 L 33.200 93.428 L 34.400 93.437 L 35.600 93.438 L 36.800 93.439 L 38.000 93.438 L 36.500 92.728 L 37.118 93.766 L 37.705 94.806 L 38.262 95.845 L 38.794 96.882 L 38.302 94.424 L 37.792 95.467 L 37.261 96.513 L 36.709 97.559 L 36.137 98.602 L 39.200 103.819 L 40.400 103.831 L 41.600 103.803 L 42.800 103.713 L 44.000 103.546 L 41.756 102.914 L 42.275 103.881 L 42.818 104.843 L 43.383 105.805 L 43.969 106.771 L 50.627 105.661 L 51.203 104.544 L 51.757 103.427 L 52.287 102.312 L 52.797 101.204 L 51.200 101.887 L 52.400 101.777 L 53.600 101.734 L 54.800 101.737 L 56.000 101.762 L 57.330 98.580 L 56.781 97.546 L 56.255 96.512 L 55.750 95.474 L 55.262 94.428 L 55.789 94.797 L 56.339 93.756 L 56.916 92.717 L 57.520 91.678 L 58.149 90.639 L 57.200 91.339 L 58.400 91.339 L 59.600 91.345 L 60.800 91.376 L 62.000 91.460 L 60.038 91.743 L 60.613 92.791 L 61.180 93.842 L 61.738 94.898 L 62.293 95.958 L 68.468 95.020 L 69.182 94.112 L 69.830 93.221 L 70.403 92.333 L 70.905 91.430 L 69.200 93.188 L 70.400 93.354 L 71.600 93.428 L 72.800 93.437 L 74.000 93.417 L 72.639 92.720 L 73.196 93.763 L 73.733 94.805 L 74.248 95.845 L 74.740 96.879 L 74.021 94.445 L 73.274 95.518 L 72.511 96.617 L 71.756 97.748 L 71.034 98.910 L 75.200 103.270 L 76.400 103.324 L 77.600 103.339 L 78.800 103.319 L 80.000 103.268 L 77.598 102.726 L 78.169 103.645 L 78.788 104.566 L 79.448 105.499 L 80.136 106.448 L 79.654 105.723 L 79.204 106.828 L 78.775 107.915 L 78.350 108.979 L 77.914 110.023 L 78.800 109.319 L 77.600 109.315 L 76.400 109.311 L 75.200 109.308 L 74.000 109.306 L 72.740 112.485 L 73.411 113.538 L 74.050 114.587 L 74.656 115.627 L 75.224 116.659 L 74.569 116.231 L 73.873 117.286 L 73.137 118.336 L 72.369 119.372 L 71.578 120.386 L 75.200 122.570 L 76.400 122.569 L 77.600 122.572 L 78.800 122.579 L 80.000 122.591 L 77.949 122.953 L 78.382 124.081 L 78.856 125.234 L 79.384 126.401 L 79.971 127.571 L 86.618 126.407 L 87.164 125.260 L 87.686 124.134 L 88.204 123.032 L 88.733 121.952 L 87.200 122.891 L 88.400 123.035 L 89.600 123.225 L 90.800 123.460 L 92.000 123.730 L 89.624 123.559 L 90.292 124.683 L 90.974 125.791 L 91.657 126.881 L 92.327 127.954 L 91.646 125.748 L 90.988 126.823 L 90.349 127.890 L 89.728 128.947 L 89.120 129.993 L 93.200 134.533 L 94.400 134.557 L 95.600 134.609 L 96.800 134.682 L 98.000 134.769 L 95.833 134.142 L 96.361 135.134 L 96.895 136.117 L 97.441 137.095 L 98.003 138.072 L 97.369 136.501 L 96.785 137.657 L 96.238 138.797 L 95.715 139.921 L 95.207 141.030 L 96.800 140.185 L 95.600 140.177 L 94.400 140.133 L 93.200 140.050 L 92.000 139.925 L 89.797 143.817 L 90.556 144.774 L 91.323 145.759 L 92.076 146.770 L 92.800 147.798 L 92.316 147.435 L 91.815 148.469 L 91.293 149.499 L 90.745 150.530 L 90.170 151.564 L 90.800 150.866 L 89.600 150.890 L 88.400 150.882 L 87.200 150.815 L 86.000 150.667 L 88.231 150.356 L 87.752 149.204 L 87.221 148.026 L 86.622 146.836 L 85.946 145.649 L 79.459 146.682 L 78.872 147.707 L 78.294 148.723 L 77.725 149.734 L 77.165 150.741 L 78.800 148.987 L 77.600 148.862 L 76.400 148.803 L 75.200 148.793 L 74.000 148.812 L 72.534 155.081 L 72.999 156.119 L 73.456 157.144 L 73.910 158.154 L 74.369 159.148 L 73.767 156.869 L 73.138 157.920 L 72.482 158.985 L 71.804 160.068 L 71.116 161.174 L 75.200 165.651 L 76.400 165.576 L 77.600 165.477 L 78.800 165.350 L 80.000 165.198 L 77.574 164.896 L 78.196 165.862 L 78.827 166.843 L 79.456 167.842 L 80.077 168.858 L 79.474 167.940 L 78.879 168.985 L 78.292 170.038 L 77.712 171.096 L 77.137 172.156 L 78.800 171.342 L 77.600 171.442 L 76.400 171.527 L 75.200 171.593 L 74.000 171.637 L 72.227 174.837 L 72.776 175.885 L 73.281 176.947 L 73.752 178.031 L 74.209 179.143 L 73.594 178.433 L 72.967 179.453 L 72.329 180.463 L 71.683 181.460 L 71.036 182.442 L 72.800 181.588 L 71.600 181.720 L 70.400 181.812 L 69.200 181.868 L 68.000 181.895 L 69.814 181.702 L 69.014 180.688 L 68.245 179.650 L 67.518 178.599 L 66.835 177.546 L 62.448 178.603 L 61.674 179.652 L 60.851 180.674 L 60.004 181.653 L 59.177 182.578 L 60.800 181.583 L 59.600 181.465 L 58.400 181.337 L 57.200 181.204 L 56.000 181.070 L 58.400 181.340 L 57.741 180.393 L 57.069 179.425 L 56.401 178.437 L 55.747 177.430 L 56.214 178.017 L 56.702 176.943 L 57.225 175.885 L 57.791 174.840 L 58.401 173.802 L 54.800 171.588 L 53.600 171.539 L 52.400 171.482 L 51.200 171.419 L 50.000 171.354 L 52.218 171.150 L 51.656 170.083 L 51.089 169.016 L 50.515 167.951 L 49.935 166.890 L 43.494 167.961 L 42.912 169.017 L 42.314 170.058 L 41.700 171.084 L 41.072 172.095 L 42.800 171.097 L 41.600 171.093 L 40.400 171.101 L 39.200 171.119 L 38.000 171.145 L 35.622 175.164 L 36.184 176.285 L 36.769 177.402 L 37.374 178.514 L 37.994 179.621 L 37.452 177.869 L 36.942 178.819 L 36.458 179.782 L 35.992 180.761 L 35.531 181.759 L 36.800 180.025 L 35.600 180.004 L 34.400 179.987 L 33.200 179.976 L 32.000 179.970 L 33.676 180.688 L 33.213 179.668 L 32.770 178.670 L 32.332 177.698 L 31.878 176.757 L 25.681 177.691 L 25.271 178.657 L 24.866 179.655 L 24.448 180.680 L 24.000 181.724 L 24.800 179.978 L 23.600 179.975 L 22.400 179.971 L 21.200 179.969 L 20.000 179.971 L 18.562 186.256 L 19.277 187.285 L 19.962 188.311 L 20.618 189.338 L 21.246 190.371 L 20.603 187.989 L 19.933 189.015 L 19.237 190.041 L 18.518 191.073 L 17.782 192.114 L 21.200 197.362 L 22.400 197.357 L 23.600 197.350 L 24.800 197.344 L 26.000 197.341 L 24.576 196.648 L 25.093 197.690 L 25.612 198.728 L 26.136 199.762 L 26.668 200.794 L 26.052 198.363 L 25.450 199.403 L 24.860 200.441 L 24.282 201.477 L 23.712 202.513 L 24.800 200.779 L 23.600 200.799 L 22.400 200.839 L 21.200 200.907 L 20.000 201.013 L 17.962 206.950 L 18.663 208.024 L 19.379 209.092 L 20.105 210.151 L 20.832 211.199 L 20.212 208.741 L 19.569 209.782 L 18.903 210.828 L 18.218 211.879 L 17.518 212.939 L 21.200 218.133 L 22.400 218.145 L 23.600 218.120 L 24.800 218.085 L 26.000 218.059 L 24.857 217.388 L 25.448 218.429 L 26.013 219.477 L 26.547 220.530 L 27.048 221.583 L 31.538 220.542 L 32.155 219.505 L 32.802 218.470 L 33.476 217.435 L 34.174 216.395 L 33.200 218.102 L 34.400 217.990 L 35.600 217.798 L 36.800 217.538 L 38.000 217.235 L 35.569 216.898 L 36.183 217.857 L 36.815 218.824 L 37.458 219.801 L 38.104 220.792 L 37.447 219.869 L 36.809 220.850 L 36.188 221.842 L 35.578 222.849 L 34.975 223.875 L 39.200 227.221 L 40.400 227.101 L 41.600 227.007 L 42.800 226.938 L 44.000 226.890 L 41.686 227.045 L 42.238 228.141 L 42.796 229.254 L 43.372 230.380 L 43.974 231.514 L 43.379 229.971 L 42.779 231.009 L 42.175 232.069 L 41.569 233.149 L 40.972 234.246 L 42.800 233.316 L 41.600 233.541 L 40.400 233.721 L 39.200 233.849 L 38.000 233.930 L 36.095 237.219 L 36.670 238.265 L 37.221 239.320 L 37.754 240.384 L 38.276 241.459 L 37.792 240.885 L 37.313 241.961 L 36.831 243.025 L 36.339 244.078 L 35.830 245.122 L 36.800 244.413 L 35.600 244.379 L 34.400 244.338 L 33.200 244.301 L 32.000 244.275 L 33.050 244.008 L 32.469 242.975 L 31.916 241.950 L 31.395 240.931 L 30.909 239.912 L 26.553 240.942 L 26.005 241.970 L 25.448 242.999 L 24.884 244.029 L 24.314 245.059 L 24.800 244.315 L 23.600 244.335 L 22.400 244.355 L 21.200 244.373 L 20.000 244.389 L 18.810 247.598 L 19.487 248.658 L 20.139 249.713 L 20.766 250.762 L 21.370 251.803 L 20.765 251.277 L 20.155 252.320 L 19.540 253.364 L 18.921 254.410 L 18.298 255.456 L 21.200 257.715 L 22.400 257.693 L 23.600 257.670 L 24.800 257.650 L 26.000 257.633 L 24.524 257.955 L 24.995 258.996 L 25.464 260.048 L 25.937 261.111 L 26.420 262.183 L 25.797 261.671 L 25.189 262.708 L 24.598 263.750 L 24.023 264.798 L 23.464 265.850 L 24.800 265.146 L 23.600 265.181 L 22.400 265.199 L 21.200 265.207 L 20.000 265.208 L 18.455 268.347 L 19.034 269.387 L 19.621 270.426 L 20.216 271.466 L 20.817 272.505 L 20.288 272.143 L 19.751 273.181 L 19.203 274.217 L 18.648 275.252 L 18.086 276.286" fill="none" stroke="#f472b6" stroke-width="1" vector-effect="non-scaling-stroke"/></svg>