<svg xmlns="http://www.w3.org/2000/svg" viewBox="12 12 396 273" width="396" height="273" shape-rendering="geometricPrecision"><rect x="12" y="12" width="396" height="273" fill="#0b0f14"/><path d="M 20.000 20.000 L 35.833 20.000 M 35.833 20.000 L 35.833 36.063 M 20.000 36.063 L 20.000 20.000 M 35.833 20.000 L 51.667 20.000 M 35.833 36.063 L 35.833 20.000 M 51.667 20.000 L 67.500 20.000 M 67.500 20.000 L 67.500 36.063 M 67.500 36.063 L 51.667 36.063 M 67.500 20.000 L 83.333 20.000 M 67.500 36.063 L 67.500 20.000 M 83.333 20.000 L 99.167 20.000 M 99.167 36.063 L 83.333 36.063 M 99.167 20.000 L 115.000 20.000 M 115.000 36.063 L 99.167 36.063 M 115.000 20.000 L 130.833 20.000 M 130.833 36.063 L 115.000 36.063 M 130.833 20.000 L 146.667 20.000 M 146.667 36.063 L 130.833 36.063 M 146.667 20.000 L 162.500 20.000 M 162.500 36.063 L 146.667 36.063 M 162.500 20.000 L 178.333 20.000 M 178.333 20.000 L 194.167 20.000 M 194.167 36.063 L 178.333 36.063 M 194.167 20.000 L 210.000 20.000 M 210.000 36.063 L 194.167 36.063 M 210.000 20.000 L 225.833 20.000 M 225.833 36.063 L 210.000 36.063 M 225.833 20.000 L 241.667 20.000 M 241.667 36.063 L 225.833 36.063 M 241.667 20.000 L 257.500 20.000 M 257.500 36.063 L 241.667 36.063 M 257.500 20.000 L 273.333 20.000 M 273.333 36.063 L 257.500 36.063 M 273.333 20.000 L 289.167 20.000 M 289.167 36.063 L 273.333 36.063 M 289.167 20.000 L 305.000 20.000 M 305.000 20.000 L 305.000 36.063 M 305.000 20.000 L 320.833 20.000 M 320.833 36.063 L 305.000 36.063 M 305.000 36.063 L 305.000 20.000 M 320.833 20.000 L 336.667 20.000 M 336.667 20.000 L 352.500 20.000 M 352.500 20.000 L 352.500 36.063 M 352.500 20.000 L 368.333 20.000 M 368.333 36.063 L 352.500 36.063 M 352.500 36.063 L 352.500 20.000 M 368.333 20.000 L 384.167 20.000 M 384.167 36.063 L 368.333 36.063 M 384.167 20.000 L 400.000 20.000 M 400.000 20.000 L 400.000 36.063 M 35.833 36.063 L 35.833 52.125 M 20.000 52.125 L 20.000 36.063 M 35.833 52.125 L 35.833 36.063 M 51.667 36.063 L 67.500 36.063 M 67.500 52.125 L 51.667 52.125 M 83.333 36.063 L 83.333 52.125 M 83.333 52.125 L 67.500 52.125 M 83.333 36.063 L 99.167 36.063 M 99.167 52.125 L 83.333 52.125 M 83.333 52.125 L 83.333 36.063 M 99.167 36.063 L 115.000 36.063 M 115.000 36.063 L 130.833 36.063 M 130.833 36.063 L 130.833 52.125 M 130.833 36.063 L 146.667 36.063 M 130.833 52.125 L 130.833 36.063 M 146.667 36.063 L 162.500 36.063 M 162.500 36.063 L 162.500 52.125 M 162.500 52.125 L 162.500 36.063 M 178.333 36.063 L 194.167 36.063 M 194.167 52.125 L 178.333 52.125 M 194.167 36.063 L 210.000 36.063 M 210.000 36.063 L 210.000 52.125 M 210.000 36.063 L 225.833 36.063 M 225.833 52.125 L 210.000 52.125 M 210.000 52.125 L 210.000 36.063 M 225.833 36.063 L 241.667 36.063 M 241.667 52.125 L 225.833 52.125 M 241.667 36.063 L 257.500 36.063 M 257.500 52.125 L 241.667 52.125 M 257.500 36.063 L 273.333 36.063 M 273.333 52.125 L 257.500 52.125 M 273.333 36.063 L 289.167 36.063 M 289.167 52.125 L 273.333 52.125 M 305.000 52.125 L 289.167 52.125 M 305.000 36.063 L 320.833 36.063 M 320.833 36.063 L 320.833 52.125 M 336.667 36.063 L 336.667 52.125 M 320.833 52.125 L 320.833 36.063 M 352.500 52.125 L 336.667 52.125 M 336.667 52.125 L 336.667 36.063 M 352.500 36.063 L 368.333 36.063 M 368.333 52.125 L 352.500 52.125 M 368.333 36.063 L 384.167 36.063 M 384.167 36.063 L 384.167 52.125 M 400.000 36.063 L 400.000 52.125 M 384.167 52.125 L 384.167 36.063 M 35.833 52.125 L 35.833 68.188 M 20.000 68.188 L 20.000 52.125 M 51.667 52.125 L 51.667 68.188 M 35.833 68.188 L 35.833 52.125 M 51.667 52.125 L 67.500 52.125 M 51.667 68.188 L 51.667 52.125 M 67.500 52.125 L 83.333 52.125 M 83.333 68.188 L 67.500 68.188 M 83.333 52.125 L 99.167 52.125 M 99.167 68.188 L 83.333 68.188 M 115.000 52.125 L 115.000 68.188 M 115.000 68.188 L 99.167 68.188 M 130.833 52.125 L 130.833 68.188 M 130.833 68.188 L 115.000 68.188 M 115.000 68.188 L 115.000 52.125 M 146.667 52.125 L 146.667 68.188 M 130.833 68.188 L 130.833 52.125 M 162.500 52.125 L 162.500 68.188 M 146.667 68.188 L 146.667 52.125 M 178.333 52.125 L 178.333 68.188 M 162.500 68.188 L 162.500 52.125 M 178.333 52.125 L 194.167 52.125 M 194.167 52.125 L 194.167 68.188 M 178.333 68.188 L 178.333 52.125 M 210.000 68.188 L 194.167 68.188 M 194.167 68.188 L 194.167 52.125 M 210.000 52.125 L 225.833 52.125 M 225.833 68.188 L 210.000 68.188 M 225.833 52.125 L 241.667 52.125 M 241.667 52.125 L 241.667 68.188 M 241.667 52.125 L 257.500 52.125 M 241.667 68.188 L 241.667 52.125 M 257.500 52.125 L 273.333 52.125 M 273.333 68.188 L 257.500 68.188 M 273.333 52.125 L 289.167 52.125 M 289.167 68.188 L 273.333 68.188 M 289.167 52.125 L 305.000 52.125 M 305.000 52.125 L 305.000 68.188 M 320.833 52.125 L 320.833 68.188 M 305.000 68.188 L 305.000 52.125 M 336.667 52.125 L 336.667 68.188 M 320.833 68.188 L 320.833 52.125 M 336.667 52.125 L 352.500 52.125 M 336.667 68.188 L 336.667 52.125 M 352.500 52.125 L 368.333 52.125 M 368.333 52.125 L 368.333 68.188 M 384.167 68.188 L 368.333 68.188 M 368.333 68.188 L 368.333 52.125 M 400.000 52.125 L 400.000 68.188 M 35.833 68.188 L 35.833 84.250 M 20.000 84.250 L 20.000 68.188 M 51.667 84.250 L 35.833 84.250 M 35.833 84.250 L 35.833 68.188 M 67.500 68.188 L 67.500 84.250 M 67.500 68.188 L 83.333 68.188 M 67.500 84.250 L 67.500 68.188 M 83.333 68.188 L 99.167 68.188 M 99.167 84.250 L 83.333 84.250 M 99.167 68.188 L 115.000 68.188 M 115.000 84.250 L 99.167 84.250 M 115.000 68.188 L 130.833 68.188 M 130.833 84.250 L 115.000 84.250 M 146.667 68.188 L 146.667 84.250 M 146.667 84.250 L 130.833 84.250 M 162.500 68.188 L 162.500 84.250 M 146.667 84.250 L 146.667 68.188 M 178.333 68.188 L 178.333 84.250 M 162.500 84.250 L 162.500 68.188 M 178.333 84.250 L 178.333 68.188 M 194.167 68.188 L 210.000 68.188 M 210.000 84.250 L 194.167 84.250 M 210.000 68.188 L 225.833 68.188 M 225.833 68.188 L 225.833 84.250 M 225.833 84.250 L 210.000 84.250 M 241.667 84.250 L 225.833 84.250 M 225.833 84.250 L 225.833 68.188 M 257.500 84.250 L 241.667 84.250 M 257.500 68.188 L 273.333 68.188 M 273.333 84.250 L 257.500 84.250 M 273.333 68.188 L 289.167 68.188 M 289.167 68.188 L 289.167 84.250 M 305.000 68.188 L 305.000 84.250 M 289.167 84.250 L 289.167 68.188 M 305.000 84.250 L 305.000 68.188 M 336.667 68.188 L 336.667 84.250 M 336.667 84.250 L 320.833 84.250 M 352.500 68.188 L 352.500 84.250 M 352.500 84.250 L 336.667 84.250 M 336.667 84.250 L 336.667 68.188 M 368.333 84.250 L 352.500 84.250 M 352.500 84.250 L 352.500 68.188 M 368.333 68.188 L 384.167 68.188 M 384.167 84.250 L 368.333 84.250 M 400.000 68.188 L 400.000 84.250 M 400.000 84.250 L 384.167 84.250 M 35.833 84.250 L 35.833 100.313 M 20.000 100.313 L 20.000 84.250 M 35.833 84.250 L 51.667 84.250 M 51.667 84.250 L 51.667 100.313 M 35.833 100.313 L 35.833 84.250 M 67.500 84.250 L 67.500 100.313 M 51.667 100.313 L 51.667 84.250 M 83.333 100.313 L 67.500 100.313 M 67.500 100.313 L 67.500 84.250 M 83.333 84.250 L 99.167 84.250 M 99.167 84.250 L 99.167 100.313 M 99.167 84.250 L 115.000 84.250 M 115.000 100.313 L 99.167 100.313 M 99.167 100.313 L 99.167 84.250 M 115.000 84.250 L 130.833 84.250 M 130.833 100.313 L 115.000 100.313 M 130.833 84.250 L 146.667 84.250 M 146.667 100.313 L 130.833 100.313 M 162.500 84.250 L 162.500 100.313 M 178.333 100.313 L 162.500 100.313 M 162.500 100.313 L 162.500 84.250 M 194.167 84.250 L 194.167 100.313 M 194.167 100.313 L 178.333 100.313 M 194.167 84.250 L 210.000 84.250 M 194.167 100.313 L 194.167 84.250 M 210.000 84.250 L 225.833 84.250 M 225.833 84.250 L 225.833 100.313 M 225.833 84.250 L 241.667 84.250 M 225.833 100.313 L 225.833 84.250 M 241.667 84.250 L 257.500 84.250 M 257.500 100.313 L 241.667 100.313 M 257.500 84.250 L 273.333 84.250 M 273.333 84.250 L 273.333 100.313 M 289.167 84.250 L 289.167 100.313 M 289.167 100.313 L 273.333 100.313 M 273.333 100.313 L 273.333 84.250 M 305.000 84.250 L 305.000 100.313 M 289.167 100.313 L 289.167 84.250 M 320.833 84.250 L 320.833 100.313 M 320.833 100.313 L 305.000 100.313 M 305.000 100.313 L 305.000 84.250 M 320.833 84.250 L 336.667 84.250 M 320.833 100.313 L 320.833 84.250 M 336.667 84.250 L 352.500 84.250 M 352.500 100.313 L 336.667 100.313 M 352.500 84.250 L 368.333 84.250 M 368.333 100.313 L 352.500 100.313 M 368.333 84.250 L 384.167 84.250 M 384.167 100.313 L 368.333 100.313 M 384.167 84.250 L 400.000 84.250 M 400.000 84.250 L 400.000 100.313 M 35.833 100.313 L 35.833 116.375 M 20.000 116.375 L 20.000 100.313 M 51.667 100.313 L 51.667 116.375 M 35.833 116.375 L 35.833 100.313 M 67.500 116.375 L 51.667 116.375 M 51.667 116.375 L 51.667 100.313 M 67.500 100.313 L 83.333 100.313 M 83.333 100.313 L 83.333 116.375 M 99.167 116.375 L 83.333 116.375 M 83.333 116.375 L 83.333 100.313 M 99.167 100.313 L 115.000 100.313 M 115.000 116.375 L 99.167 116.375 M 115.000 100.313 L 130.833 100.313 M 130.833 116.375 L 115.000 116.375 M 130.833 100.313 L 146.667 100.313 M 146.667 100.313 L 146.667 116.375 M 162.500 116.375 L 146.667 116.375 M 146.667 116.375 L 146.667 100.313 M 162.500 100.313 L 178.333 100.313 M 178.333 116.375 L 162.500 116.375 M 178.333 100.313 L 194.167 100.313 M 194.167 116.375 L 178.333 116.375 M 210.000 100.313 L 210.000 116.375 M 210.000 116.375 L 194.167 116.375 M 225.833 116.375 L 210.000 116.375 M 210.000 116.375 L 210.000 100.313 M 241.667 100.313 L 241.667 116.375 M 241.667 116.375 L 225.833 116.375 M 241.667 100.313 L 257.500 100.313 M 241.667 116.375 L 241.667 100.313 M 273.333 100.313 L 273.333 116.375 M 273.333 116.375 L 257.500 116.375 M 273.333 100.313 L 289.167 100.313 M 273.333 116.375 L 273.333 100.313 M 305.000 100.313 L 305.000 116.375 M 305.000 116.375 L 289.167 116.375 M 305.000 100.313 L 320.833 100.313 M 305.000 116.375 L 305.000 100.313 M 336.667 116.375 L 320.833 116.375 M 336.667 100.313 L 352.500 100.313 M 352.500 116.375 L 336.667 116.375 M 352.500 100.313 L 368.333 100.313 M 368.333 116.375 L 352.500 116.375 M 368.333 100.313 L 384.167 100.313 M 384.167 100.313 L 384.167 116.375 M 400.000 100.313 L 400.000 116.375 M 384.167 116.375 L 384.167 100.313 M 35.833 116.375 L 35.833 132.438 M 20.000 132.438 L 20.000 116.375 M 35.833 132.438 L 35.833 116.375 M 51.667 116.375 L 67.500 116.375 M 67.500 116.375 L 67.500 132.438 M 83.333 116.375 L 83.333 132.438 M 67.500 132.438 L 67.500 116.375 M 83.333 116.375 L 99.167 116.375 M 83.333 132.438 L 83.333 116.375 M 99.167 116.375 L 115.000 116.375 M 115.000 132.438 L 99.167 132.438 M 115.000 116.375 L 130.833 116.375 M 130.833 116.375 L 130.833 132.438 M 146.667 132.438 L 130.833 132.438 M 130.833 132.438 L 130.833 116.375 M 146.667 116.375 L 162.500 116.375 M 162.500 132.438 L 146.667 132.438 M 162.500 116.375 L 178.333 116.375 M 178.333 116.375 L 178.333 132.438 M 178.333 116.375 L 194.167 116.375 M 178.333 132.438 L 178.333 116.375 M 194.167 116.375 L 210.000 116.375 M 210.000 132.438 L 194.167 132.438 M 210.000 116.375 L 225.833 116.375 M 225.833 132.438 L 210.000 132.438 M 225.833 116.375 L 241.667 116.375 M 241.667 116.375 L 241.667 132.438 M 241.667 132.438 L 225.833 132.438 M 257.500 116.375 L 257.500 132.438 M 241.667 132.438 L 241.667 116.375 M 257.500 116.375 L 273.333 116.375 M 273.333 132.438 L 257.500 132.438 M 257.500 132.438 L 257.500 116.375 M 289.167 132.438 L 273.333 132.438 M 289.167 116.375 L 305.000 116.375 M 305.000 132.438 L 289.167 132.438 M 320.833 132.438 L 305.000 132.438 M 320.833 116.375 L 336.667 116.375 M 336.667 116.375 L 336.667 132.438 M 336.667 116.375 L 352.500 116.375 M 336.667 132.438 L 336.667 116.375 M 352.500 116.375 L 368.333 116.375 M 368.333 116.375 L 368.333 132.438 M 384.167 116.375 L 384.167 132.438 M 368.333 132.438 L 368.333 116.375 M 400.000 116.375 L 400.000 132.438 M 384.167 132.438 L 384.167 116.375 M 35.833 132.438 L 35.833 148.500 M 20.000 148.500 L 20.000 132.438 M 51.667 132.438 L 51.667 148.500 M 51.667 148.500 L 35.833 148.500 M 35.833 148.500 L 35.833 132.438 M 51.667 148.500 L 51.667 132.438 M 83.333 132.438 L 83.333 148.500 M 83.333 148.500 L 67.500 148.500 M 99.167 148.500 L 83.333 148.500 M 83.333 148.500 L 83.333 132.438 M 99.167 132.438 L 115.000 132.438 M 115.000 132.438 L 115.000 148.500 M 130.833 148.500 L 115.000 148.500 M 115.000 148.500 L 115.000 132.438 M 130.833 132.438 L 146.667 132.438 M 146.667 148.500 L 130.833 148.500 M 146.667 132.438 L 162.500 132.438 M 162.500 132.438 L 162.500 148.500 M 178.333 132.438 L 178.333 148.500 M 162.500 148.500 L 162.500 132.438 M 178.333 148.500 L 178.333 132.438 M 194.167 132.438 L 210.000 132.438 M 210.000 148.500 L 194.167 148.500 M 210.000 132.438 L 225.833 132.438 M 225.833 148.500 L 210.000 148.500 M 225.833 132.438 L 241.667 132.438 M 241.667 132.438 L 241.667 148.500 M 257.500 148.500 L 241.667 148.500 M 241.667 148.500 L 241.667 132.438 M 257.500 132.438 L 273.333 132.438 M 273.333 132.438 L 273.333 148.500 M 273.333 132.438 L 289.167 132.438 M 273.333 148.500 L 273.333 132.438 M 289.167 132.438 L 305.000 132.438 M 305.000 132.438 L 305.000 148.500 M 305.000 132.438 L 320.833 132.438 M 320.833 148.500 L 305.000 148.500 M 305.000 148.500 L 305.000 132.438 M 336.667 132.438 L 336.667 148.500 M 352.500 132.438 L 352.500 148.500 M 336.667 148.500 L 336.667 132.438 M 368.333 132.438 L 368.333 148.500 M 352.500 148.500 L 352.500 132.438 M 384.167 132.438 L 384.167 148.500 M 368.333 148.500 L 368.333 132.438 M 400.000 132.438 L 400.000 148.500 M 384.167 148.500 L 384.167 132.438 M 35.833 164.563 L 20.000 164.563 M 20.000 164.563 L 20.000 148.500 M 35.833 148.500 L 51.667 148.500 M 51.667 148.500 L 51.667 164.563 M 67.500 164.563 L 51.667 164.563 M 51.667 164.563 L 51.667 148.500 M 67.500 148.500 L 83.333 148.500 M 83.333 164.563 L 67.500 164.563 M 83.333 148.500 L 99.167 148.500 M 99.167 148.500 L 99.167 164.563 M 115.000 164.563 L 99.167 164.563 M 99.167 164.563 L 99.167 148.500 M 115.000 148.500 L 130.833 148.500 M 130.833 148.500 L 130.833 164.563 M 130.833 164.563 L 115.000 164.563 M 130.833 148.500 L 146.667 148.500 M 130.833 164.563 L 130.833 148.500 M 162.500 148.500 L 162.500 164.563 M 178.333 148.500 L 178.333 164.563 M 162.500 164.563 L 162.500 148.500 M 194.167 148.500 L 194.167 164.563 M 194.167 164.563 L 178.333 164.563 M 178.333 164.563 L 178.333 148.500 M 194.167 148.500 L 210.000 148.500 M 194.167 164.563 L 194.167 148.500 M 210.000 148.500 L 225.833 148.500 M 225.833 148.500 L 225.833 164.563 M 241.667 164.563 L 225.833 164.563 M 225.833 164.563 L 225.833 148.500 M 241.667 148.500 L 257.500 148.500 M 257.500 164.563 L 241.667 164.563 M 273.333 164.563 L 257.500 164.563 M 289.167 148.500 L 289.167 164.563 M 289.167 164.563 L 273.333 164.563 M 305.000 164.563 L 289.167 164.563 M 289.167 164.563 L 289.167 148.500 M 305.000 148.500 L 320.833 148.500 M 320.833 148.500 L 320.833 164.563 M 336.667 148.500 L 336.667 164.563 M 336.667 164.563 L 320.833 164.563 M 320.833 164.563 L 320.833 148.500 M 352.500 148.500 L 352.500 164.563 M 336.667 164.563 L 336.667 148.500 M 368.333 148.500 L 368.333 164.563 M 352.500 164.563 L 352.500 148.500 M 384.167 148.500 L 384.167 164.563 M 384.167 164.563 L 368.333 164.563 M 368.333 164.563 L 368.333 148.500 M 400.000 148.500 L 400.000 164.563 M 384.167 164.563 L 384.167 148.500 M 20.000 164.563 L 35.833 164.563 M 20.000 180.625 L 20.000 164.563 M 51.667 164.563 L 51.667 180.625 M 51.667 180.625 L 35.833 180.625 M 51.667 164.563 L 67.500 164.563 M 67.500 180.625 L 51.667 180.625 M 51.667 180.625 L 51.667 164.563 M 67.500 164.563 L 83.333 164.563 M 83.333 180.625 L 67.500 180.625 M 99.167 180.625 L 83.333 180.625 M 99.167 164.563 L 115.000 164.563 M 115.000 180.625 L 99.167 180.625 M 115.000 164.563 L 130.833 164.563 M 130.833 164.563 L 130.833 180.625 M 146.667 164.563 L 146.667 180.625 M 130.833 180.625 L 130.833 164.563 M 162.500 164.563 L 162.500 180.625 M 146.667 180.625 L 146.667 164.563 M 178.333 180.625 L 162.500 180.625 M 162.500 180.625 L 162.500 164.563 M 178.333 164.563 L 194.167 164.563 M 194.167 164.563 L 194.167 180.625 M 210.000 164.563 L 210.000 180.625 M 194.167 180.625 L 194.167 164.563 M 225.833 180.625 L 210.000 180.625 M 210.000 180.625 L 210.000 164.563 M 225.833 164.563 L 241.667 164.563 M 241.667 164.563 L 241.667 180.625 M 241.667 164.563 L 257.500 164.563 M 241.667 180.625 L 241.667 164.563 M 257.500 164.563 L 273.333 164.563 M 273.333 164.563 L 273.333 180.625 M 273.333 164.563 L 289.167 164.563 M 273.333 180.625 L 273.333 164.563 M 289.167 164.563 L 305.000 164.563 M 305.000 164.563 L 305.000 180.625 M 320.833 180.625 L 305.000 180.625 M 305.000 180.625 L 305.000 164.563 M 320.833 164.563 L 336.667 164.563 M 336.667 180.625 L 320.833 180.625 M 352.500 164.563 L 352.500 180.625 M 352.500 180.625 L 336.667 180.625 M 368.333 180.625 L 352.500 180.625 M 352.500 180.625 L 352.500 164.563 M 368.333 164.563 L 384.167 164.563 M 384.167 180.625 L 368.333 180.625 M 400.000 164.563 L 400.000 180.625 M 35.833 196.688 L 20.000 196.688 M 20.000 196.688 L 20.000 180.625 M 35.833 180.625 L 51.667 180.625 M 51.667 196.688 L 35.833 196.688 M 51.667 180.625 L 67.500 180.625 M 67.500 196.688 L 51.667 196.688 M 67.500 180.625 L 83.333 180.625 M 83.333 180.625 L 83.333 196.688 M 83.333 180.625 L 99.167 180.625 M 99.167 196.688 L 83.333 196.688 M 83.333 196.688 L 83.333 180.625 M 99.167 180.625 L 115.000 180.625 M 115.000 180.625 L 115.000 196.688 M 130.833 180.625 L 130.833 196.688 M 115.000 196.688 L 115.000 180.625 M 146.667 180.625 L 146.667 196.688 M 130.833 196.688 L 130.833 180.625 M 162.500 180.625 L 162.500 196.688 M 146.667 196.688 L 146.667 180.625 M 162.500 180.625 L 178.333 180.625 M 178.333 180.625 L 178.333 196.688 M 162.500 196.688 L 162.500 180.625 M 194.167 196.688 L 178.333 196.688 M 178.333 196.688 L 178.333 180.625 M 210.000 180.625 L 210.000 196.688 M 210.000 196.688 L 194.167 196.688 M 210.000 180.625 L 225.833 180.625 M 225.833 180.625 L 225.833 196.688 M 210.000 196.688 L 210.000 180.625 M 241.667 196.688 L 225.833 196.688 M 225.833 196.688 L 225.833 180.625 M 257.500 180.625 L 257.500 196.688 M 257.500 196.688 L 241.667 196.688 M 273.333 180.625 L 273.333 196.688 M 257.500 196.688 L 257.500 180.625 M 289.167 180.625 L 289.167 196.688 M 289.167 196.688 L 273.333 196.688 M 273.333 196.688 L 273.333 180.625 M 305.000 196.688 L 289.167 196.688 M 289.167 196.688 L 289.167 180.625 M 305.000 180.625 L 320.833 180.625 M 320.833 180.625 L 336.667 180.625 M 336.667 180.625 L 352.500 180.625 M 352.500 180.625 L 352.500 196.688 M 352.500 196.688 L 336.667 196.688 M 352.500 180.625 L 368.333 180.625 M 352.500 196.688 L 352.500 180.625 M 368.333 180.625 L 384.167 180.625 M 384.167 196.688 L 368.333 196.688 M 400.000 180.625 L 400.000 196.688 M 400.000 196.688 L 384.167 196.688 M 20.000 196.688 L 35.833 196.688 M 20.000 212.750 L 20.000 196.688 M 35.833 196.688 L 51.667 196.688 M 51.667 196.688 L 51.667 212.750 M 51.667 212.750 L 35.833 212.750 M 51.667 196.688 L 67.500 196.688 M 51.667 212.750 L 51.667 196.688 M 83.333 196.688 L 83.333 212.750 M 83.333 212.750 L 67.500 212.750 M 83.333 196.688 L 99.167 196.688 M 83.333 212.750 L 83.333 196.688 M 115.000 196.688 L 115.000 212.750 M 115.000 212.750 L 99.167 212.750 M 130.833 196.688 L 130.833 212.750 M 115.000 212.750 L 115.000 196.688 M 146.667 196.688 L 146.667 212.750 M 130.833 212.750 L 130.833 196.688 M 162.500 196.688 L 162.500 212.750 M 146.667 212.750 L 146.667 196.688 M 162.500 212.750 L 162.500 196.688 M 178.333 196.688 L 194.167 196.688 M 194.167 212.750 L 178.333 212.750 M 194.167 196.688 L 210.000 196.688 M 210.000 196.688 L 210.000 212.750 M 210.000 212.750 L 210.000 196.688 M 225.833 196.688 L 241.667 196.688 M 241.667 196.688 L 257.500 196.688 M 257.500 196.688 L 257.500 212.750 M 257.500 212.750 L 241.667 212.750 M 273.333 196.688 L 273.333 212.750 M 257.500 212.750 L 257.500 196.688 M 273.333 196.688 L 289.167 196.688 M 273.333 212.750 L 273.333 196.688 M 289.167 196.688 L 305.000 196.688 M 305.000 212.750 L 289.167 212.750 M 320.833 196.688 L 320.833 212.750 M 320.833 212.750 L 305.000 212.750 M 336.667 196.688 L 336.667 212.750 M 320.833 212.750 L 320.833 196.688 M 336.667 196.688 L 352.500 196.688 M 336.667 212.750 L 336.667 196.688 M 368.333 196.688 L 368.333 212.750 M 368.333 212.750 L 352.500 212.750 M 368.333 196.688 L 384.167 196.688 M 368.333 212.750 L 368.333 196.688 M 384.167 196.688 L 400.000 196.688 M 400.000 196.688 L 400.000 212.750 M 35.833 212.750 L 35.833 228.813 M 20.000 228.813 L 20.000 212.750 M 35.833 212.750 L 51.667 212.750 M 35.833 228.813 L 35.833 212.750 M 67.500 212.750 L 67.500 228.813 M 67.500 228.813 L 51.667 228.813 M 67.500 212.750 L 83.333 212.750 M 83.333 228.813 L 67.500 228.813 M 67.500 228.813 L 67.500 212.750 M 99.167 228.813 L 83.333 228.813 M 99.167 212.750 L 115.000 212.750 M 115.000 228.813 L 99.167 228.813 M 130.833 228.813 L 115.000 228.813 M 146.667 212.750 L 146.667 228.813 M 146.667 228.813 L 130.833 228.813 M 162.500 212.750 L 162.500 228.813 M 146.667 228.813 L 146.667 212.750 M 178.333 212.750 L 178.333 228.813 M 162.500 228.813 L 162.500 212.750 M 178.333 212.750 L 194.167 212.750 M 194.167 212.750 L 194.167 228.813 M 178.333 228.813 L 178.333 212.750 M 210.000 228.813 L 194.167 228.813 M 194.167 228.813 L 194.167 212.750 M 225.833 212.750 L 225.833 228.813 M 225.833 228.813 L 210.000 228.813 M 241.667 212.750 L 241.667 228.813 M 225.833 228.813 L 225.833 212.750 M 241.667 212.750 L 257.500 212.750 M 241.667 228.813 L 241.667 212.750 M 273.333 212.750 L 273.333 228.813 M 273.333 228.813 L 257.500 228.813 M 289.167 228.813 L 273.333 228.813 M 273.333 228.813 L 273.333 212.750 M 289.167 212.750 L 305.000 212.750 M 305.000 212.750 L 305.000 228.813 M 305.000 212.750 L 320.833 212.750 M 305.000 228.813 L 305.000 212.750 M 336.667 212.750 L 336.667 228.813 M 336.667 228.813 L 320.833 228.813 M 352.500 212.750 L 352.500 228.813 M 336.667 228.813 L 336.667 212.750 M 352.500 212.750 L 368.333 212.750 M 352.500 228.813 L 352.500 212.750 M 384.167 212.750 L 384.167 228.813 M 384.167 228.813 L 368.333 228.813 M 400.000 212.750 L 400.000 228.813 M 384.167 228.813 L 384.167 212.750 M 35.833 228.813 L 35.833 244.875 M 20.000 244.875 L 20.000 228.813 M 51.667 244.875 L 35.833 244.875 M 35.833 244.875 L 35.833 228.813 M 51.667 228.813 L 67.500 228.813 M 67.500 228.813 L 67.500 244.875 M 67.500 228.813 L 83.333 228.813 M 67.500 244.875 L 67.500 228.813 M 83.333 228.813 L 99.167 228.813 M 99.167 244.875 L 83.333 244.875 M 99.167 228.813 L 115.000 228.813 M 115.000 228.813 L 115.000 244.875 M 115.000 228.813 L 130.833 228.813 M 115.000 244.875 L 115.000 228.813 M 130.833 228.813 L 146.667 228.813 M 146.667 244.875 L 130.833 244.875 M 162.500 244.875 L 146.667 244.875 M 178.333 228.813 L 178.333 244.875 M 178.333 244.875 L 162.500 244.875 M 194.167 228.813 L 194.167 244.875 M 178.333 244.875 L 178.333 228.813 M 194.167 228.813 L 210.000 228.813 M 194.167 244.875 L 194.167 228.813 M 210.000 228.813 L 225.833 228.813 M 225.833 244.875 L 210.000 244.875 M 241.667 228.813 L 241.667 244.875 M 241.667 244.875 L 225.833 244.875 M 257.500 228.813 L 257.500 244.875 M 241.667 244.875 L 241.667 228.813 M 257.500 228.813 L 273.333 228.813 M 257.500 244.875 L 257.500 228.813 M 273.333 228.813 L 289.167 228.813 M 289.167 244.875 L 273.333 244.875 M 305.000 228.813 L 305.000 244.875 M 305.000 244.875 L 289.167 244.875 M 320.833 228.813 L 320.833 244.875 M 320.833 244.875 L 305.000 244.875 M 305.000 244.875 L 305.000 228.813 M 320.833 228.813 L 336.667 228.813 M 320.833 244.875 L 320.833 228.813 M 352.500 228.813 L 352.500 244.875 M 352.500 244.875 L 336.667 244.875 M 368.333 244.875 L 352.500 244.875 M 352.500 244.875 L 352.500 228.813 M 368.333 228.813 L 384.167 228.813 M 384.167 228.813 L 384.167 244.875 M 384.167 244.875 L 368.333 244.875 M 400.000 228.813 L 400.000 244.875 M 384.167 244.875 L 384.167 228.813 M 35.833 244.875 L 35.833 260.938 M 20.000 260.938 L 20.000 244.875 M 35.833 244.875 L 51.667 244.875 M 35.833 260.938 L 35.833 244.875 M 67.500 244.875 L 67.500 260.938 M 67.500 260.938 L 51.667 260.938 M 83.333 260.938 L 67.500 260.938 M 67.500 260.938 L 67.500 244.875 M 83.333 244.875 L 99.167 244.875 M 99.167 244.875 L 99.167 260.938 M 115.000 244.875 L 115.000 260.938 M 99.167 260.938 L 99.167 244.875 M 130.833 260.938 L 115.000 260.938 M 115.000 260.938 L 115.000 244.875 M 130.833 244.875 L 146.667 244.875 M 146.667 244.875 L 146.667 260.938 M 146.667 260.938 L 130.833 260.938 M 146.667 244.875 L 162.500 244.875 M 146.667 260.938 L 146.667 244.875 M 162.500 244.875 L 178.333 244.875 M 178.333 244.875 L 178.333 260.938 M 194.167 260.938 L 178.333 260.938 M 178.333 260.938 L 178.333 244.875 M 210.000 260.938 L 194.167 260.938 M 210.000 244.875 L 225.833 244.875 M 225.833 260.938 L 210.000 260.938 M 225.833 244.875 L 241.667 244.875 M 241.667 244.875 L 241.667 260.938 M 241.667 260.938 L 225.833 260.938 M 257.500 244.875 L 257.500 260.938 M 241.667 260.938 L 241.667 244.875 M 273.333 244.875 L 273.333 260.938 M 257.500 260.938 L 257.500 244.875 M 273.333 244.875 L 289.167 244.875 M 273.333 260.938 L 273.333 244.875 M 289.167 244.875 L 305.000 244.875 M 305.000 260.938 L 289.167 260.938 M 305.000 244.875 L 320.833 244.875 M 320.833 244.875 L 320.833 260.938 M 336.667 260.938 L 320.833 260.938 M 320.833 260.938 L 320.833 244.875 M 336.667 244.875 L 352.500 244.875 M 352.500 260.938 L 336.667 260.938 M 352.500 244.875 L 368.333 244.875 M 368.333 260.938 L 352.500 260.938 M 368.333 244.875 L 384.167 244.875 M 384.167 244.875 L 384.167 260.938 M 400.000 244.875 L 400.000 260.938 M 384.167 260.938 L 384.167 244.875 M 35.833 277.000 L 20.000 277.000 M 20.000 277.000 L 20.000 260.938 M 51.667 277.000 L 35.833 277.000 M 51.667 260.938 L 67.500 260.938 M 67.500 277.000 L 51.667 277.000 M 67.500 260.938 L 83.333 260.938 M 83.333 277.000 L 67.500 277.000 M 99.167 260.938 L 99.167 277.000 M 99.167 277.000 L 83.333 277.000 M 115.000 277.000 L 99.167 277.000 M 99.167 277.000 L 99.167 260.938 M 115.000 260.938 L 130.833 260.938 M 130.833 277.000 L 115.000 277.000 M 130.833 260.938 L 146.667 260.938 M 146.667 277.000 L 130.833 277.000 M 162.500 260.938 L 162.500 277.000 M 162.500 277.000 L 146.667 277.000 M 178.333 277.000 L 162.500 277.000 M 162.500 277.000 L 162.500 260.938 M 178.333 260.938 L 194.167 260.938 M 194.167 277.000 L 178.333 277.000 M 194.167 260.938 L 210.000 260.938 M 210.000 277.000 L 194.167 277.000 M 210.000 260.938 L 225.833 260.938 M 225.833 277.000 L 210.000 277.000 M 225.833 260.938 L 241.667 260.938 M 241.667 277.000 L 225.833 277.000 M 257.500 260.938 L 257.500 277.000 M 257.500 277.000 L 241.667 277.000 M 273.333 277.000 L 257.500 277.000 M 257.500 277.000 L 257.500 260.938 M 289.167 277.000 L 273.333 277.000 M 289.167 260.938 L 305.000 260.938 M 305.000 260.938 L 305.000 277.000 M 305.000 277.000 L 289.167 277.000 M 320.833 277.000 L 305.000 277.000 M 305.000 277.000 L 305.000 260.938 M 320.833 260.938 L 336.667 260.938 M 336.667 277.000 L 320.833 277.000 M 336.667 260.938 L 352.500 260.938 M 352.500 277.000 L 336.667 277.000 M 352.500 260.938 L 368.333 260.938 M 368.333 277.000 L 352.500 277.000 M 384.167 277.000 L 368.333 277.000 M 400.000 260.938 L 400.000 277.000 M 400.000 277.000 L 384.167 277.000" fill="none" stroke="#e5e7eb" stroke-width="1" vector-effect="non-scaling-stroke"/></svg>