<svg xmlns="http://www.w3.org/2000/svg" viewBox="12 12 396 273" width="396" height="273" shape-rendering="geometricPrecision"><rect x="12" y="12" width="396" height="273" fill="#0b0f14"/><path d="M 20.000 20.000 L 33.571 20.000 M 33.571 20.000 L 33.571 32.850 M 20.000 32.850 L 20.000 20.000 M 33.571 20.000 L 47.143 20.000 M 47.143 32.850 L 33.571 32.850 M 33.571 32.850 L 33.571 20.000 M 47.143 20.000 L 60.714 20.000 M 60.714 20.000 L 74.286 20.000 M 74.286 32.850 L 60.714 32.850 M 74.286 20.000 L 87.857 20.000 M 87.857 20.000 L 87.857 32.850 M 87.857 20.000 L 101.429 20.000 M 87.857 32.850 L 87.857 20.000 M 101.429 20.000 L 115.000 20.000 M 115.000 20.000 L 115.000 32.850 M 115.000 20.000 L 128.571 20.000 M 128.571 32.850 L 115.000 32.850 M 115.000 32.850 L 115.000 20.000 M 128.571 20.000 L 142.143 20.000 M 142.143 32.850 L 128.571 32.850 M 142.143 20.000 L 155.714 20.000 M 155.714 20.000 L 169.286 20.000 M 169.286 20.000 L 169.286 32.850 M 169.286 20.000 L 182.857 20.000 M 169.286 32.850 L 169.286 20.000 M 182.857 20.000 L 196.429 20.000 M 196.429 20.000 L 196.429 32.850 M 196.429 20.000 L 210.000 20.000 M 196.429 32.850 L 196.429 20.000 M 210.000 20.000 L 223.571 20.000 M 223.571 32.850 L 210.000 32.850 M 223.571 20.000 L 237.143 20.000 M 237.143 20.000 L 250.714 20.000 M 250.714 20.000 L 250.714 32.850 M 250.714 20.000 L 264.286 20.000 M 264.286 32.850 L 250.714 32.850 M 250.714 32.850 L 250.714 20.000 M 264.286 20.000 L 277.857 20.000 M 277.857 20.000 L 291.429 20.000 M 291.429 32.850 L 277.857 32.850 M 291.429 20.000 L 305.000 20.000 M 305.000 32.850 L 291.429 32.850 M 305.000 20.000 L 318.571 20.000 M 318.571 20.000 L 318.571 32.850 M 318.571 20.000 L 332.143 20.000 M 332.143 32.850 L 318.571 32.850 M 318.571 32.850 L 318.571 20.000 M 332.143 20.000 L 345.714 20.000 M 345.714 32.850 L 332.143 32.850 M 345.714 20.000 L 359.286 20.000 M 359.286 32.850 L 345.714 32.850 M 359.286 20.000 L 372.857 20.000 M 372.857 20.000 L 386.429 20.000 M 386.429 32.850 L 372.857 32.850 M 386.429 20.000 L 400.000 20.000 M 400.000 20.000 L 400.000 32.850 M 33.571 45.700 L 20.000 45.700 M 20.000 45.700 L 20.000 32.850 M 33.571 32.850 L 47.143 32.850 M 47.143 32.850 L 47.143 45.700 M 60.714 32.850 L 60.714 45.700 M 47.143 45.700 L 47.143 32.850 M 60.714 32.850 L 74.286 32.850 M 74.286 32.850 L 74.286 45.700 M 60.714 45.700 L 60.714 32.850 M 87.857 32.850 L 87.857 45.700 M 74.286 45.700 L 74.286 32.850 M 101.429 32.850 L 101.429 45.700 M 87.857 45.700 L 87.857 32.850 M 115.000 45.700 L 101.429 45.700 M 101.429 45.700 L 101.429 32.850 M 115.000 32.850 L 128.571 32.850 M 128.571 32.850 L 142.143 32.850 M 142.143 45.700 L 128.571 45.700 M 155.714 32.850 L 155.714 45.700 M 155.714 45.700 L 142.143 45.700 M 169.286 32.850 L 169.286 45.700 M 155.714 45.700 L 155.714 32.850 M 182.857 32.850 L 182.857 45.700 M 169.286 45.700 L 169.286 32.850 M 196.429 32.850 L 196.429 45.700 M 182.857 45.700 L 182.857 32.850 M 210.000 32.850 L 210.000 45.700 M 196.429 45.700 L 196.429 32.850 M 210.000 32.850 L 223.571 32.850 M 210.000 45.700 L 210.000 32.850 M 237.143 32.850 L 237.143 45.700 M 237.143 45.700 L 223.571 45.700 M 250.714 45.700 L 237.143 45.700 M 237.143 45.700 L 237.143 32.850 M 250.714 32.850 L 264.286 32.850 M 264.286 45.700 L 250.714 45.700 M 277.857 32.850 L 277.857 45.700 M 277.857 45.700 L 264.286 45.700 M 277.857 32.850 L 291.429 32.850 M 291.429 45.700 L 277.857 45.700 M 277.857 45.700 L 277.857 32.850 M 291.429 32.850 L 305.000 32.850 M 305.000 32.850 L 305.000 45.700 M 318.571 45.700 L 305.000 45.700 M 305.000 45.700 L 305.000 32.850 M 318.571 32.850 L 332.143 32.850 M 332.143 45.700 L 318.571 45.700 M 332.143 32.850 L 345.714 32.850 M 345.714 45.700 L 332.143 45.700 M 345.714 32.850 L 359.286 32.850 M 359.286 45.700 L 345.714 45.700 M 372.857 32.850 L 372.857 45.700 M 372.857 45.700 L 359.286 45.700 M 372.857 32.850 L 386.429 32.850 M 386.429 32.850 L 386.429 45.700 M 372.857 45.700 L 372.857 32.850 M 400.000 32.850 L 400.000 45.700 M 386.429 45.700 L 386.429 32.850 M 20.000 45.700 L 33.571 45.700 M 20.000 58.550 L 20.000 45.700 M 47.143 45.700 L 47.143 58.550 M 47.143 58.550 L 33.571 58.550 M 60.714 45.700 L 60.714 58.550 M 47.143 58.550 L 47.143 45.700 M 74.286 45.700 L 74.286 58.550 M 60.714 58.550 L 60.714 45.700 M 87.857 45.700 L 87.857 58.550 M 74.286 58.550 L 74.286 45.700 M 101.429 58.550 L 87.857 58.550 M 87.857 58.550 L 87.857 45.700 M 101.429 45.700 L 115.000 45.700 M 115.000 45.700 L 115.000 58.550 M 128.571 45.700 L 128.571 58.550 M 115.000 58.550 L 115.000 45.700 M 128.571 45.700 L 142.143 45.700 M 128.571 58.550 L 128.571 45.700 M 142.143 45.700 L 155.714 45.700 M 155.714 45.700 L 155.714 58.550 M 169.286 45.700 L 169.286 58.550 M 155.714 58.550 L 155.714 45.700 M 182.857 45.700 L 182.857 58.550 M 169.286 58.550 L 169.286 45.700 M 196.429 58.550 L 182.857 58.550 M 182.857 58.550 L 182.857 45.700 M 210.000 45.700 L 210.000 58.550 M 210.000 58.550 L 196.429 58.550 M 223.571 58.550 L 210.000 58.550 M 210.000 58.550 L 210.000 45.700 M 223.571 45.700 L 237.143 45.700 M 237.143 58.550 L 223.571 58.550 M 237.143 45.700 L 250.714 45.700 M 250.714 45.700 L 250.714 58.550 M 250.714 45.700 L 264.286 45.700 M 264.286 58.550 L 250.714 58.550 M 250.714 58.550 L 250.714 45.700 M 264.286 45.700 L 277.857 45.700 M 277.857 45.700 L 291.429 45.700 M 305.000 45.700 L 318.571 45.700 M 318.571 58.550 L 305.000 58.550 M 318.571 45.700 L 332.143 45.700 M 332.143 58.550 L 318.571 58.550 M 332.143 45.700 L 345.714 45.700 M 345.714 45.700 L 345.714 58.550 M 345.714 58.550 L 332.143 58.550 M 345.714 45.700 L 359.286 45.700 M 345.714 58.550 L 345.714 45.700 M 359.286 45.700 L 372.857 45.700 M 372.857 58.550 L 359.286 58.550 M 386.429 58.550 L 372.857 58.550 M 400.000 45.700 L 400.000 58.550 M 400.000 58.550 L 386.429 58.550 M 33.571 71.400 L 20.000 71.400 M 20.000 71.400 L 20.000 58.550 M 33.571 58.550 L 47.143 58.550 M 47.143 58.550 L 47.143 71.400 M 60.714 58.550 L 60.714 71.400 M 47.143 71.400 L 47.143 58.550 M 74.286 71.400 L 60.714 71.400 M 60.714 71.400 L 60.714 58.550 M 87.857 71.400 L 74.286 71.400 M 87.857 58.550 L 101.429 58.550 M 101.429 71.400 L 87.857 71.400 M 115.000 58.550 L 115.000 71.400 M 115.000 71.400 L 101.429 71.400 M 128.571 58.550 L 128.571 71.400 M 128.571 71.400 L 115.000 71.400 M 115.000 71.400 L 115.000 58.550 M 142.143 58.550 L 142.143 71.400 M 128.571 71.400 L 128.571 58.550 M 155.714 58.550 L 155.714 71.400 M 142.143 71.400 L 142.143 58.550 M 169.286 58.550 L 169.286 71.400 M 169.286 71.400 L 155.714 71.400 M 155.714 71.400 L 155.714 58.550 M 182.857 71.400 L 169.286 71.400 M 169.286 71.400 L 169.286 58.550 M 182.857 58.550 L 196.429 58.550 M 196.429 58.550 L 196.429 71.400 M 196.429 58.550 L 210.000 58.550 M 196.429 71.400 L 196.429 58.550 M 210.000 58.550 L 223.571 58.550 M 223.571 71.400 L 210.000 71.400 M 223.571 58.550 L 237.143 58.550 M 237.143 58.550 L 237.143 71.400 M 250.714 71.400 L 237.143 71.400 M 237.143 71.400 L 237.143 58.550 M 250.714 58.550 L 264.286 58.550 M 264.286 58.550 L 264.286 71.400 M 277.857 58.550 L 277.857 71.400 M 277.857 71.400 L 264.286 71.400 M 264.286 71.400 L 264.286 58.550 M 291.429 58.550 L 291.429 71.400 M 277.857 71.400 L 277.857 58.550 M 305.000 58.550 L 305.000 71.400 M 305.000 71.400 L 291.429 71.400 M 291.429 71.400 L 291.429 58.550 M 305.000 58.550 L 318.571 58.550 M 305.000 71.400 L 305.000 58.550 M 318.571 58.550 L 332.143 58.550 M 332.143 58.550 L 332.143 71.400 M 332.143 58.550 L 345.714 58.550 M 332.143 71.400 L 332.143 58.550 M 359.286 58.550 L 359.286 71.400 M 359.286 71.400 L 345.714 71.400 M 359.286 58.550 L 372.857 58.550 M 372.857 71.400 L 359.286 71.400 M 359.286 71.400 L 359.286 58.550 M 372.857 58.550 L 386.429 58.550 M 386.429 71.400 L 372.857 71.400 M 386.429 58.550 L 400.000 58.550 M 400.000 58.550 L 400.000 71.400 M 20.000 71.400 L 33.571 71.400 M 33.571 71.400 L 33.571 84.250 M 20.000 84.250 L 20.000 71.400 M 47.143 71.400 L 47.143 84.250 M 33.571 84.250 L 33.571 71.400 M 60.714 84.250 L 47.143 84.250 M 47.143 84.250 L 47.143 71.400 M 60.714 71.400 L 74.286 71.400 M 74.286 84.250 L 60.714 84.250 M 74.286 71.400 L 87.857 71.400 M 87.857 84.250 L 74.286 84.250 M 87.857 71.400 L 101.429 71.400 M 101.429 84.250 L 87.857 84.250 M 101.429 71.400 L 115.000 71.400 M 115.000 71.400 L 128.571 71.400 M 128.571 84.250 L 115.000 84.250 M 142.143 71.400 L 142.143 84.250 M 142.143 84.250 L 128.571 84.250 M 155.714 84.250 L 142.143 84.250 M 142.143 84.250 L 142.143 71.400 M 155.714 71.400 L 169.286 71.400 M 169.286 84.250 L 155.714 84.250 M 169.286 71.400 L 182.857 71.400 M 182.857 84.250 L 169.286 84.250 M 196.429 71.400 L 196.429 84.250 M 210.000 84.250 L 196.429 84.250 M 196.429 84.250 L 196.429 71.400 M 210.000 71.400 L 223.571 71.400 M 223.571 71.400 L 223.571 84.250 M 223.571 84.250 L 210.000 84.250 M 223.571 84.250 L 223.571 71.400 M 237.143 71.400 L 250.714 71.400 M 250.714 71.400 L 250.714 84.250 M 264.286 84.250 L 250.714 84.250 M 250.714 84.250 L 250.714 71.400 M 264.286 71.400 L 277.857 71.400 M 277.857 71.400 L 277.857 84.250 M 291.429 71.400 L 291.429 84.250 M 277.857 84.250 L 277.857 71.400 M 291.429 71.400 L 305.000 71.400 M 291.429 84.250 L 291.429 71.400 M 318.571 71.400 L 318.571 84.250 M 318.571 84.250 L 305.000 84.250 M 332.143 71.400 L 332.143 84.250 M 318.571 84.250 L 318.571 71.400 M 345.714 84.250 L 332.143 84.250 M 332.143 84.250 L 332.143 71.400 M 345.714 71.400 L 359.286 71.400 M 359.286 84.250 L 345.714 84.250 M 359.286 71.400 L 372.857 71.400 M 372.857 84.250 L 359.286 84.250 M 372.857 71.400 L 386.429 71.400 M 386.429 84.250 L 372.857 84.250 M 400.000 71.400 L 400.000 84.250 M 33.571 84.250 L 33.571 97.100 M 20.000 97.100 L 20.000 84.250 M 47.143 97.100 L 33.571 97.100 M 33.571 97.100 L 33.571 84.250 M 47.143 84.250 L 60.714 84.250 M 60.714 97.100 L 47.143 97.100 M 60.714 84.250 L 74.286 84.250 M 74.286 84.250 L 74.286 97.100 M 74.286 84.250 L 87.857 84.250 M 74.286 97.100 L 74.286 84.250 M 87.857 84.250 L 101.429 84.250 M 101.429 84.250 L 101.429 97.100 M 115.000 84.250 L 115.000 97.100 M 101.429 97.100 L 101.429 84.250 M 115.000 84.250 L 128.571 84.250 M 115.000 97.100 L 115.000 84.250 M 128.571 84.250 L 142.143 84.250 M 142.143 84.250 L 155.714 84.250 M 155.714 84.250 L 155.714 97.100 M 155.714 84.250 L 169.286 84.250 M 155.714 97.100 L 155.714 84.250 M 169.286 84.250 L 182.857 84.250 M 182.857 84.250 L 182.857 97.100 M 196.429 97.100 L 182.857 97.100 M 182.857 97.100 L 182.857 84.250 M 196.429 84.250 L 210.000 84.250 M 210.000 97.100 L 196.429 97.100 M 210.000 84.250 L 223.571 84.250 M 223.571 97.100 L 210.000 97.100 M 237.143 84.250 L 237.143 97.100 M 237.143 97.100 L 223.571 97.100 M 250.714 97.100 L 237.143 97.100 M 237.143 97.100 L 237.143 84.250 M 250.714 84.250 L 264.286 84.250 M 264.286 84.250 L 264.286 97.100 M 277.857 84.250 L 277.857 97.100 M 264.286 97.100 L 264.286 84.250 M 291.429 84.250 L 291.429 97.100 M 277.857 97.100 L 277.857 84.250 M 305.000 97.100 L 291.429 97.100 M 291.429 97.100 L 291.429 84.250 M 305.000 84.250 L 318.571 84.250 M 318.571 84.250 L 318.571 97.100 M 332.143 84.250 L 332.143 97.100 M 318.571 97.100 L 318.571 84.250 M 332.143 84.250 L 345.714 84.250 M 332.143 97.100 L 332.143 84.250 M 345.714 84.250 L 359.286 84.250 M 359.286 97.100 L 345.714 97.100 M 359.286 84.250 L 372.857 84.250 M 372.857 97.100 L 359.286 97.100 M 372.857 84.250 L 386.429 84.250 M 386.429 84.250 L 386.429 97.100 M 400.000 84.250 L 400.000 97.100 M 386.429 97.100 L 386.429 84.250 M 33.571 109.950 L 20.000 109.950 M 20.000 109.950 L 20.000 97.100 M 33.571 97.100 L 47.143 97.100 M 47.143 109.950 L 33.571 109.950 M 47.143 97.100 L 60.714 97.100 M 60.714 97.100 L 60.714 109.950 M 74.286 109.950 L 60.714 109.950 M 60.714 109.950 L 60.714 97.100 M 87.857 97.100 L 87.857 109.950 M 87.857 109.950 L 74.286 109.950 M 101.429 97.100 L 101.429 109.950 M 87.857 109.950 L 87.857 97.100 M 115.000 97.100 L 115.000 109.950 M 101.429 109.950 L 101.429 97.100 M 128.571 97.100 L 128.571 109.950 M 128.571 109.950 L 115.000 109.950 M 115.000 109.950 L 115.000 97.100 M 142.143 97.100 L 142.143 109.950 M 128.571 109.950 L 128.571 97.100 M 155.714 97.100 L 155.714 109.950 M 155.714 109.950 L 142.143 109.950 M 142.143 109.950 L 142.143 97.100 M 169.286 97.100 L 169.286 109.950 M 155.714 109.950 L 155.714 97.100 M 182.857 97.100 L 182.857 109.950 M 169.286 109.950 L 169.286 97.100 M 182.857 97.100 L 196.429 97.100 M 196.429 109.950 L 182.857 109.950 M 182.857 109.950 L 182.857 97.100 M 196.429 97.100 L 210.000 97.100 M 210.000 97.100 L 223.571 97.100 M 223.571 97.100 L 223.571 109.950 M 223.571 97.100 L 237.143 97.100 M 223.571 109.950 L 223.571 97.100 M 237.143 97.100 L 250.714 97.100 M 250.714 109.950 L 237.143 109.950 M 264.286 97.100 L 264.286 109.950 M 264.286 109.950 L 250.714 109.950 M 277.857 97.100 L 277.857 109.950 M 264.286 109.950 L 264.286 97.100 M 277.857 109.950 L 277.857 97.100 M 291.429 97.100 L 305.000 97.100 M 305.000 109.950 L 291.429 109.950 M 318.571 97.100 L 318.571 109.950 M 318.571 109.950 L 305.000 109.950 M 332.143 97.100 L 332.143 109.950 M 318.571 109.950 L 318.571 97.100 M 345.714 97.100 L 345.714 109.950 M 332.143 109.950 L 332.143 97.100 M 345.714 97.100 L 359.286 97.100 M 345.714 109.950 L 345.714 97.100 M 359.286 97.100 L 372.857 97.100 M 372.857 109.950 L 359.286 109.950 M 386.429 97.100 L 386.429 109.950 M 400.000 97.100 L 400.000 109.950 M 386.429 109.950 L 386.429 97.100 M 20.000 109.950 L 33.571 109.950 M 20.000 122.800 L 20.000 109.950 M 33.571 109.950 L 47.143 109.950 M 47.143 122.800 L 33.571 122.800 M 60.714 109.950 L 60.714 122.800 M 60.714 109.950 L 74.286 109.950 M 60.714 122.800 L 60.714 109.950 M 74.286 109.950 L 87.857 109.950 M 87.857 122.800 L 74.286 122.800 M 101.429 109.950 L 101.429 122.800 M 101.429 122.800 L 87.857 122.800 M 115.000 122.800 L 101.429 122.800 M 101.429 122.800 L 101.429 109.950 M 115.000 109.950 L 128.571 109.950 M 128.571 122.800 L 115.000 122.800 M 142.143 109.950 L 142.143 122.800 M 142.143 109.950 L 155.714 109.950 M 142.143 122.800 L 142.143 109.950 M 169.286 109.950 L 169.286 122.800 M 169.286 122.800 L 155.714 122.800 M 182.857 122.800 L 169.286 122.800 M 169.286 122.800 L 169.286 109.950 M 182.857 109.950 L 196.429 109.950 M 196.429 109.950 L 196.429 122.800 M 210.000 109.950 L 210.000 122.800 M 210.000 122.800 L 196.429 122.800 M 196.429 122.800 L 196.429 109.950 M 210.000 122.800 L 210.000 109.950 M 237.143 109.950 L 237.143 122.800 M 237.143 122.800 L 223.571 122.800 M 237.143 109.950 L 250.714 109.950 M 237.143 122.800 L 237.143 109.950 M 250.714 109.950 L 264.286 109.950 M 264.286 122.800 L 250.714 122.800 M 277.857 109.950 L 277.857 122.800 M 277.857 122.800 L 264.286 122.800 M 291.429 109.950 L 291.429 122.800 M 277.857 122.800 L 277.857 109.950 M 291.429 109.950 L 305.000 109.950 M 305.000 122.800 L 291.429 122.800 M 291.429 122.800 L 291.429 109.950 M 305.000 109.950 L 318.571 109.950 M 318.571 109.950 L 318.571 122.800 M 332.143 122.800 L 318.571 122.800 M 318.571 122.800 L 318.571 109.950 M 345.714 109.950 L 345.714 122.800 M 345.714 122.800 L 332.143 122.800 M 359.286 122.800 L 345.714 122.800 M 345.714 122.800 L 345.714 109.950 M 359.286 109.950 L 372.857 109.950 M 372.857 109.950 L 372.857 122.800 M 386.429 109.950 L 386.429 122.800 M 372.857 122.800 L 372.857 109.950 M 400.000 109.950 L 400.000 122.800 M 386.429 122.800 L 386.429 109.950 M 33.571 135.650 L 20.000 135.650 M 20.000 135.650 L 20.000 122.800 M 33.571 122.800 L 47.143 122.800 M 47.143 122.800 L 47.143 135.650 M 60.714 122.800 L 60.714 135.650 M 47.143 135.650 L 47.143 122.800 M 74.286 122.800 L 74.286 135.650 M 60.714 135.650 L 60.714 122.800 M 74.286 122.800 L 87.857 122.800 M 87.857 135.650 L 74.286 135.650 M 74.286 135.650 L 74.286 122.800 M 87.857 122.800 L 101.429 122.800 M 101.429 122.800 L 115.000 122.800 M 115.000 122.800 L 128.571 122.800 M 128.571 122.800 L 128.571 135.650 M 128.571 135.650 L 115.000 135.650 M 142.143 122.800 L 142.143 135.650 M 128.571 135.650 L 128.571 122.800 M 155.714 122.800 L 155.714 135.650 M 142.143 135.650 L 142.143 122.800 M 155.714 122.800 L 169.286 122.800 M 155.714 135.650 L 155.714 122.800 M 169.286 122.800 L 182.857 122.800 M 182.857 122.800 L 182.857 135.650 M 196.429 135.650 L 182.857 135.650 M 182.857 135.650 L 182.857 122.800 M 196.429 122.800 L 210.000 122.800 M 210.000 122.800 L 210.000 135.650 M 223.571 122.800 L 223.571 135.650 M 210.000 135.650 L 210.000 122.800 M 223.571 122.800 L 237.143 122.800 M 237.143 122.800 L 237.143 135.650 M 223.571 135.650 L 223.571 122.800 M 250.714 135.650 L 237.143 135.650 M 237.143 135.650 L 237.143 122.800 M 250.714 122.800 L 264.286 122.800 M 264.286 122.800 L 264.286 135.650 M 264.286 122.800 L 277.857 122.800 M 277.857 135.650 L 264.286 135.650 M 264.286 135.650 L 264.286 122.800 M 291.429 135.650 L 277.857 135.650 M 291.429 122.800 L 305.000 122.800 M 305.000 135.650 L 291.429 135.650 M 318.571 122.800 L 318.571 135.650 M 318.571 135.650 L 305.000 135.650 M 318.571 122.800 L 332.143 122.800 M 318.571 135.650 L 318.571 122.800 M 332.143 122.800 L 345.714 122.800 M 345.714 122.800 L 345.714 135.650 M 345.714 122.800 L 359.286 122.800 M 345.714 135.650 L 345.714 122.800 M 372.857 122.800 L 372.857 135.650 M 386.429 122.800 L 386.429 135.650 M 386.429 135.650 L 372.857 135.650 M 372.857 135.650 L 372.857 122.800 M 400.000 122.800 L 400.000 135.650 M 386.429 135.650 L 386.429 122.800 M 20.000 135.650 L 33.571 135.650 M 20.000 148.500 L 20.000 135.650 M 47.143 135.650 L 47.143 148.500 M 47.143 148.500 L 33.571 148.500 M 60.714 135.650 L 60.714 148.500 M 47.143 148.500 L 47.143 135.650 M 74.286 148.500 L 60.714 148.500 M 60.714 148.500 L 60.714 135.650 M 74.286 135.650 L 87.857 135.650 M 87.857 135.650 L 87.857 148.500 M 101.429 135.650 L 101.429 148.500 M 87.857 148.500 L 87.857 135.650 M 115.000 148.500 L 101.429 148.500 M 101.429 148.500 L 101.429 135.650 M 115.000 135.650 L 128.571 135.650 M 128.571 148.500 L 115.000 148.500 M 142.143 135.650 L 142.143 148.500 M 142.143 148.500 L 128.571 148.500 M 155.714 135.650 L 155.714 148.500 M 142.143 148.500 L 142.143 135.650 M 169.286 135.650 L 169.286 148.500 M 155.714 148.500 L 155.714 135.650 M 182.857 148.500 L 169.286 148.500 M 169.286 148.500 L 169.286 135.650 M 182.857 135.650 L 196.429 135.650 M 196.429 135.650 L 196.429 148.500 M 210.000 135.650 L 210.000 148.500 M 196.429 148.500 L 196.429 135.650 M 223.571 148.500 L 210.000 148.500 M 210.000 148.500 L 210.000 135.650 M 237.143 148.500 L 223.571 148.500 M 237.143 135.650 L 250.714 135.650 M 250.714 135.650 L 250.714 148.500 M 264.286 148.500 L 250.714 148.500 M 250.714 148.500 L 250.714 135.650 M 264.286 135.650 L 277.857 135.650 M 277.857 148.500 L 264.286 148.500 M 277.857 135.650 L 291.429 135.650 M 291.429 148.500 L 277.857 148.500 M 291.429 135.650 L 305.000 135.650 M 305.000 135.650 L 305.000 148.500 M 305.000 135.650 L 318.571 135.650 M 305.000 148.500 L 305.000 135.650 M 332.143 135.650 L 332.143 148.500 M 332.143 148.500 L 318.571 148.500 M 345.714 135.650 L 345.714 148.500 M 332.143 148.500 L 332.143 135.650 M 359.286 135.650 L 359.286 148.500 M 345.714 148.500 L 345.714 135.650 M 372.857 135.650 L 372.857 148.500 M 372.857 148.500 L 359.286 148.500 M 359.286 148.500 L 359.286 135.650 M 372.857 135.650 L 386.429 135.650 M 372.857 148.500 L 372.857 135.650 M 400.000 135.650 L 400.000 148.500 M 400.000 148.500 L 386.429 148.500 M 33.571 148.500 L 33.571 161.350 M 20.000 161.350 L 20.000 148.500 M 33.571 148.500 L 47.143 148.500 M 47.143 161.350 L 33.571 161.350 M 33.571 161.350 L 33.571 148.500 M 60.714 148.500 L 60.714 161.350 M 60.714 148.500 L 74.286 148.500 M 60.714 161.350 L 60.714 148.500 M 87.857 148.500 L 87.857 161.350 M 87.857 161.350 L 74.286 161.350 M 101.429 148.500 L 101.429 161.350 M 87.857 161.350 L 87.857 148.500 M 101.429 148.500 L 115.000 148.500 M 101.429 161.350 L 101.429 148.500 M 115.000 148.500 L 128.571 148.500 M 128.571 161.350 L 115.000 161.350 M 128.571 148.500 L 142.143 148.500 M 142.143 161.350 L 128.571 161.350 M 155.714 148.500 L 155.714 161.350 M 155.714 161.350 L 142.143 161.350 M 169.286 148.500 L 169.286 161.350 M 155.714 161.350 L 155.714 148.500 M 169.286 148.500 L 182.857 148.500 M 169.286 161.350 L 169.286 148.500 M 196.429 148.500 L 196.429 161.350 M 196.429 161.350 L 182.857 161.350 M 210.000 161.350 L 196.429 161.350 M 196.429 161.350 L 196.429 148.500 M 210.000 148.500 L 223.571 148.500 M 223.571 148.500 L 223.571 161.350 M 223.571 148.500 L 237.143 148.500 M 223.571 161.350 L 223.571 148.500 M 250.714 161.350 L 237.143 161.350 M 250.714 148.500 L 264.286 148.500 M 264.286 148.500 L 264.286 161.350 M 264.286 161.350 L 250.714 161.350 M 264.286 148.500 L 277.857 148.500 M 264.286 161.350 L 264.286 148.500 M 277.857 148.500 L 291.429 148.500 M 291.429 161.350 L 277.857 161.350 M 305.000 148.500 L 305.000 161.350 M 305.000 161.350 L 291.429 161.350 M 318.571 148.500 L 318.571 161.350 M 305.000 161.350 L 305.000 148.500 M 318.571 148.500 L 332.143 148.500 M 318.571 161.350 L 318.571 148.500 M 345.714 148.500 L 345.714 161.350 M 345.714 161.350 L 332.143 161.350 M 345.714 161.350 L 345.714 148.500 M 359.286 148.500 L 372.857 148.500 M 372.857 161.350 L 359.286 161.350 M 386.429 148.500 L 386.429 161.350 M 386.429 161.350 L 372.857 161.350 M 386.429 148.500 L 400.000 148.500 M 400.000 148.500 L 400.000 161.350 M 386.429 161.350 L 386.429 148.500 M 20.000 174.200 L 20.000 161.350 M 33.571 161.350 L 47.143 161.350 M 47.143 161.350 L 47.143 174.200 M 60.714 161.350 L 60.714 174.200 M 47.143 174.200 L 47.143 161.350 M 74.286 161.350 L 74.286 174.200 M 60.714 174.200 L 60.714 161.350 M 74.286 161.350 L 87.857 161.350 M 87.857 174.200 L 74.286 174.200 M 74.286 174.200 L 74.286 161.350 M 101.429 161.350 L 101.429 174.200 M 101.429 174.200 L 87.857 174.200 M 115.000 161.350 L 115.000 174.200 M 101.429 174.200 L 101.429 161.350 M 115.000 161.350 L 128.571 161.350 M 115.000 174.200 L 115.000 161.350 M 128.571 161.350 L 142.143 161.350 M 142.143 161.350 L 142.143 174.200 M 142.143 161.350 L 155.714 161.350 M 142.143 174.200 L 142.143 161.350 M 169.286 161.350 L 169.286 174.200 M 169.286 174.200 L 155.714 174.200 M 182.857 174.200 L 169.286 174.200 M 169.286 174.200 L 169.286 161.350 M 182.857 161.350 L 196.429 161.350 M 196.429 174.200 L 182.857 174.200 M 196.429 161.350 L 210.000 161.350 M 210.000 174.200 L 196.429 174.200 M 223.571 161.350 L 223.571 174.200 M 223.571 174.200 L 210.000 174.200 M 237.143 161.350 L 237.143 174.200 M 237.143 174.200 L 223.571 174.200 M 223.571 174.200 L 223.571 161.350 M 237.143 161.350 L 250.714 161.350 M 237.143 174.200 L 237.143 161.350 M 250.714 161.350 L 264.286 161.350 M 264.286 161.350 L 264.286 174.200 M 277.857 161.350 L 277.857 174.200 M 264.286 174.200 L 264.286 161.350 M 277.857 161.350 L 291.429 161.350 M 277.857 174.200 L 277.857 161.350 M 291.429 161.350 L 305.000 161.350 M 305.000 161.350 L 305.000 174.200 M 318.571 161.350 L 318.571 174.200 M 305.000 174.200 L 305.000 161.350 M 332.143 161.350 L 332.143 174.200 M 318.571 174.200 L 318.571 161.350 M 332.143 161.350 L 345.714 161.350 M 332.143 174.200 L 332.143 161.350 M 359.286 161.350 L 359.286 174.200 M 359.286 174.200 L 345.714 174.200 M 359.286 161.350 L 372.857 161.350 M 359.286 174.200 L 359.286 161.350 M 372.857 161.350 L 386.429 161.350 M 386.429 161.350 L 386.429 174.200 M 400.000 161.350 L 400.000 174.200 M 386.429 174.200 L 386.429 161.350 M 33.571 174.200 L 33.571 187.050 M 20.000 187.050 L 20.000 174.200 M 47.143 174.200 L 47.143 187.050 M 33.571 187.050 L 33.571 174.200 M 60.714 174.200 L 60.714 187.050 M 60.714 187.050 L 47.143 187.050 M 47.143 187.050 L 47.143 174.200 M 74.286 174.200 L 74.286 187.050 M 60.714 187.050 L 60.714 174.200 M 74.286 174.200 L 87.857 174.200 M 74.286 187.050 L 74.286 174.200 M 87.857 174.200 L 101.429 174.200 M 101.429 187.050 L 87.857 187.050 M 115.000 174.200 L 115.000 187.050 M 115.000 187.050 L 101.429 187.050 M 128.571 174.200 L 128.571 187.050 M 115.000 187.050 L 115.000 174.200 M 142.143 174.200 L 142.143 187.050 M 142.143 187.050 L 128.571 187.050 M 128.571 187.050 L 128.571 174.200 M 155.714 187.050 L 142.143 187.050 M 142.143 187.050 L 142.143 174.200 M 155.714 174.200 L 169.286 174.200 M 169.286 174.200 L 169.286 187.050 M 169.286 174.200 L 182.857 174.200 M 182.857 174.200 L 182.857 187.050 M 169.286 187.050 L 169.286 174.200 M 182.857 174.200 L 196.429 174.200 M 182.857 187.050 L 182.857 174.200 M 196.429 174.200 L 210.000 174.200 M 210.000 187.050 L 196.429 187.050 M 210.000 174.200 L 223.571 174.200 M 223.571 174.200 L 237.143 174.200 M 237.143 187.050 L 223.571 187.050 M 250.714 174.200 L 250.714 187.050 M 250.714 187.050 L 237.143 187.050 M 264.286 174.200 L 264.286 187.050 M 250.714 187.050 L 250.714 174.200 M 264.286 187.050 L 264.286 174.200 M 291.429 174.200 L 291.429 187.050 M 291.429 187.050 L 277.857 187.050 M 305.000 174.200 L 305.000 187.050 M 291.429 187.050 L 291.429 174.200 M 318.571 174.200 L 318.571 187.050 M 305.000 187.050 L 305.000 174.200 M 332.143 174.200 L 332.143 187.050 M 318.571 187.050 L 318.571 174.200 M 345.714 174.200 L 345.714 187.050 M 332.143 187.050 L 332.143 174.200 M 345.714 174.200 L 359.286 174.200 M 345.714 187.050 L 345.714 174.200 M 372.857 174.200 L 372.857 187.050 M 372.857 187.050 L 359.286 187.050 M 386.429 174.200 L 386.429 187.050 M 372.857 187.050 L 372.857 174.200 M 400.000 174.200 L 400.000 187.050 M 386.429 187.050 L 386.429 174.200 M 33.571 187.050 L 33.571 199.900 M 20.000 199.900 L 20.000 187.050 M 47.143 199.900 L 33.571 199.900 M 33.571 199.900 L 33.571 187.050 M 47.143 187.050 L 60.714 187.050 M 60.714 199.900 L 47.143 199.900 M 74.286 187.050 L 74.286 199.900 M 74.286 199.900 L 60.714 199.900 M 87.857 187.050 L 87.857 199.900 M 74.286 199.900 L 74.286 187.050 M 87.857 187.050 L 101.429 187.050 M 87.857 199.900 L 87.857 187.050 M 101.429 187.050 L 115.000 187.050 M 115.000 199.900 L 101.429 199.900 M 128.571 199.900 L 115.000 199.900 M 128.571 187.050 L 142.143 187.050 M 142.143 199.900 L 128.571 199.900 M 142.143 187.050 L 155.714 187.050 M 155.714 199.900 L 142.143 199.900 M 169.286 187.050 L 169.286 199.900 M 169.286 199.900 L 155.714 199.900 M 169.286 199.900 L 169.286 187.050 M 196.429 187.050 L 196.429 199.900 M 196.429 199.900 L 182.857 199.900 M 196.429 187.050 L 210.000 187.050 M 196.429 199.900 L 196.429 187.050 M 223.571 187.050 L 223.571 199.900 M 223.571 199.900 L 210.000 199.900 M 223.571 187.050 L 237.143 187.050 M 237.143 187.050 L 237.143 199.900 M 223.571 199.900 L 223.571 187.050 M 237.143 187.050 L 250.714 187.050 M 237.143 199.900 L 237.143 187.050 M 264.286 187.050 L 264.286 199.900 M 264.286 199.900 L 250.714 199.900 M 277.857 187.050 L 277.857 199.900 M 264.286 199.900 L 264.286 187.050 M 277.857 187.050 L 291.429 187.050 M 277.857 199.900 L 277.857 187.050 M 305.000 187.050 L 305.000 199.900 M 305.000 199.900 L 291.429 199.900 M 318.571 187.050 L 318.571 199.900 M 305.000 199.900 L 305.000 187.050 M 332.143 187.050 L 332.143 199.900 M 318.571 199.900 L 318.571 187.050 M 345.714 199.900 L 332.143 199.900 M 332.143 199.900 L 332.143 187.050 M 359.286 187.050 L 359.286 199.900 M 359.286 199.900 L 345.714 199.900 M 359.286 187.050 L 372.857 187.050 M 372.857 199.900 L 359.286 199.900 M 359.286 199.900 L 359.286 187.050 M 386.429 199.900 L 372.857 199.900 M 400.000 187.050 L 400.000 199.900 M 400.000 199.900 L 386.429 199.900 M 33.571 212.750 L 20.000 212.750 M 20.000 212.750 L 20.000 199.900 M 33.571 199.900 L 47.143 199.900 M 47.143 199.900 L 47.143 212.750 M 47.143 199.900 L 60.714 199.900 M 47.143 212.750 L 47.143 199.900 M 60.714 199.900 L 74.286 199.900 M 74.286 199.900 L 74.286 212.750 M 87.857 199.900 L 87.857 212.750 M 74.286 212.750 L 74.286 199.900 M 101.429 212.750 L 87.857 212.750 M 87.857 212.750 L 87.857 199.900 M 101.429 199.900 L 115.000 199.900 M 115.000 199.900 L 115.000 212.750 M 115.000 199.900 L 128.571 199.900 M 128.571 212.750 L 115.000 212.750 M 115.000 212.750 L 115.000 199.900 M 128.571 199.900 L 142.143 199.900 M 142.143 212.750 L 128.571 212.750 M 142.143 199.900 L 155.714 199.900 M 155.714 212.750 L 142.143 212.750 M 155.714 199.900 L 169.286 199.900 M 169.286 212.750 L 155.714 212.750 M 182.857 199.900 L 182.857 212.750 M 182.857 212.750 L 169.286 212.750 M 182.857 199.900 L 196.429 199.900 M 182.857 212.750 L 182.857 199.900 M 210.000 199.900 L 210.000 212.750 M 210.000 212.750 L 196.429 212.750 M 210.000 199.900 L 223.571 199.900 M 210.000 212.750 L 210.000 199.900 M 237.143 212.750 L 223.571 212.750 M 250.714 199.900 L 250.714 212.750 M 250.714 212.750 L 237.143 212.750 M 250.714 199.900 L 264.286 199.900 M 264.286 212.750 L 250.714 212.750 M 250.714 212.750 L 250.714 199.900 M 277.857 199.900 L 277.857 212.750 M 277.857 212.750 L 264.286 212.750 M 291.429 199.900 L 291.429 212.750 M 277.857 212.750 L 277.857 199.900 M 291.429 199.900 L 305.000 199.900 M 291.429 212.750 L 291.429 199.900 M 318.571 199.900 L 318.571 212.750 M 318.571 212.750 L 305.000 212.750 M 332.143 212.750 L 318.571 212.750 M 318.571 212.750 L 318.571 199.900 M 332.143 199.900 L 345.714 199.900 M 345.714 212.750 L 332.143 212.750 M 345.714 199.900 L 359.286 199.900 M 359.286 212.750 L 345.714 212.750 M 359.286 199.900 L 372.857 199.900 M 372.857 212.750 L 359.286 212.750 M 372.857 199.900 L 386.429 199.900 M 386.429 212.750 L 372.857 212.750 M 386.429 199.900 L 400.000 199.900 M 400.000 199.900 L 400.000 212.750 M 20.000 212.750 L 33.571 212.750 M 33.571 212.750 L 33.571 225.600 M 20.000 225.600 L 20.000 212.750 M 47.143 212.750 L 47.143 225.600 M 33.571 225.600 L 33.571 212.750 M 60.714 212.750 L 60.714 225.600 M 47.143 225.600 L 47.143 212.750 M 74.286 225.600 L 60.714 225.600 M 60.714 225.600 L 60.714 212.750 M 87.857 212.750 L 87.857 225.600 M 87.857 225.600 L 74.286 225.600 M 87.857 212.750 L 101.429 212.750 M 101.429 212.750 L 101.429 225.600 M 87.857 225.600 L 87.857 212.750 M 115.000 212.750 L 115.000 225.600 M 101.429 225.600 L 101.429 212.750 M 115.000 212.750 L 128.571 212.750 M 115.000 225.600 L 115.000 212.750 M 128.571 212.750 L 142.143 212.750 M 142.143 225.600 L 128.571 225.600 M 142.143 212.750 L 155.714 212.750 M 155.714 225.600 L 142.143 225.600 M 155.714 212.750 L 169.286 212.750 M 169.286 225.600 L 155.714 225.600 M 169.286 212.750 L 182.857 212.750 M 182.857 225.600 L 169.286 225.600 M 196.429 212.750 L 196.429 225.600 M 196.429 225.600 L 182.857 225.600 M 196.429 212.750 L 210.000 212.750 M 196.429 225.600 L 196.429 212.750 M 223.571 212.750 L 223.571 225.600 M 223.571 225.600 L 210.000 225.600 M 223.571 212.750 L 237.143 212.750 M 223.571 225.600 L 223.571 212.750 M 237.143 212.750 L 250.714 212.750 M 250.714 225.600 L 237.143 225.600 M 250.714 212.750 L 264.286 212.750 M 264.286 225.600 L 250.714 225.600 M 264.286 212.750 L 277.857 212.750 M 277.857 212.750 L 277.857 225.600 M 277.857 225.600 L 277.857 212.750 M 305.000 212.750 L 305.000 225.600 M 305.000 225.600 L 291.429 225.600 M 305.000 212.750 L 318.571 212.750 M 305.000 225.600 L 305.000 212.750 M 318.571 212.750 L 332.143 212.750 M 332.143 212.750 L 345.714 212.750 M 345.714 225.600 L 332.143 225.600 M 345.714 212.750 L 359.286 212.750 M 359.286 225.600 L 345.714 225.600 M 359.286 212.750 L 372.857 212.750 M 372.857 225.600 L 359.286 225.600 M 372.857 212.750 L 386.429 212.750 M 386.429 212.750 L 386.429 225.600 M 386.429 225.600 L 372.857 225.600 M 400.000 212.750 L 400.000 225.600 M 386.429 225.600 L 386.429 212.750 M 20.000 238.450 L 20.000 225.600 M 47.143 225.600 L 47.143 238.450 M 47.143 238.450 L 33.571 238.450 M 47.143 238.450 L 47.143 225.600 M 60.714 225.600 L 74.286 225.600 M 74.286 225.600 L 74.286 238.450 M 74.286 225.600 L 87.857 225.600 M 87.857 238.450 L 74.286 238.450 M 74.286 238.450 L 74.286 225.600 M 101.429 225.600 L 101.429 238.450 M 115.000 238.450 L 101.429 238.450 M 101.429 238.450 L 101.429 225.600 M 128.571 225.600 L 128.571 238.450 M 128.571 238.450 L 115.000 238.450 M 128.571 225.600 L 142.143 225.600 M 128.571 238.450 L 128.571 225.600 M 142.143 225.600 L 155.714 225.600 M 155.714 238.450 L 142.143 238.450 M 155.714 225.600 L 169.286 225.600 M 169.286 238.450 L 155.714 238.450 M 169.286 225.600 L 182.857 225.600 M 182.857 238.450 L 169.286 238.450 M 182.857 225.600 L 196.429 225.600 M 196.429 225.600 L 196.429 238.450 M 210.000 225.600 L 210.000 238.450 M 196.429 238.450 L 196.429 225.600 M 210.000 225.600 L 223.571 225.600 M 210.000 238.450 L 210.000 225.600 M 237.143 225.600 L 237.143 238.450 M 237.143 238.450 L 223.571 238.450 M 237.143 225.600 L 250.714 225.600 M 237.143 238.450 L 237.143 225.600 M 250.714 225.600 L 264.286 225.600 M 264.286 225.600 L 264.286 238.450 M 277.857 225.600 L 277.857 238.450 M 264.286 238.450 L 264.286 225.600 M 291.429 238.450 L 277.857 238.450 M 277.857 238.450 L 277.857 225.600 M 291.429 225.600 L 305.000 225.600 M 305.000 238.450 L 291.429 238.450 M 318.571 225.600 L 318.571 238.450 M 318.571 238.450 L 305.000 238.450 M 332.143 225.600 L 332.143 238.450 M 318.571 238.450 L 318.571 225.600 M 332.143 225.600 L 345.714 225.600 M 332.143 238.450 L 332.143 225.600 M 345.714 225.600 L 359.286 225.600 M 359.286 238.450 L 345.714 238.450 M 359.286 225.600 L 372.857 225.600 M 372.857 238.450 L 359.286 238.450 M 372.857 225.600 L 386.429 225.600 M 386.429 225.600 L 386.429 238.450 M 400.000 225.600 L 400.000 238.450 M 386.429 238.450 L 386.429 225.600 M 33.571 238.450 L 33.571 251.300 M 20.000 251.300 L 20.000 238.450 M 33.571 238.450 L 47.143 238.450 M 33.571 251.300 L 33.571 238.450 M 60.714 238.450 L 60.714 251.300 M 60.714 251.300 L 47.143 251.300 M 74.286 251.300 L 60.714 251.300 M 60.714 251.300 L 60.714 238.450 M 74.286 238.450 L 87.857 238.450 M 87.857 238.450 L 87.857 251.300 M 87.857 251.300 L 87.857 238.450 M 101.429 238.450 L 115.000 238.450 M 115.000 238.450 L 115.000 251.300 M 115.000 251.300 L 101.429 251.300 M 115.000 238.450 L 128.571 238.450 M 115.000 251.300 L 115.000 238.450 M 142.143 238.450 L 142.143 251.300 M 142.143 251.300 L 128.571 251.300 M 142.143 238.450 L 155.714 238.450 M 142.143 251.300 L 142.143 238.450 M 155.714 238.450 L 169.286 238.450 M 169.286 238.450 L 169.286 251.300 M 169.286 251.300 L 155.714 251.300 M 169.286 238.450 L 182.857 238.450 M 169.286 251.300 L 169.286 238.450 M 196.429 238.450 L 196.429 251.300 M 210.000 238.450 L 210.000 251.300 M 196.429 251.300 L 196.429 238.450 M 223.571 251.300 L 210.000 251.300 M 210.000 251.300 L 210.000 238.450 M 223.571 238.450 L 237.143 238.450 M 237.143 238.450 L 237.143 251.300 M 250.714 238.450 L 250.714 251.300 M 237.143 251.300 L 237.143 238.450 M 264.286 238.450 L 264.286 251.300 M 250.714 251.300 L 250.714 238.450 M 277.857 251.300 L 264.286 251.300 M 264.286 251.300 L 264.286 238.450 M 277.857 238.450 L 291.429 238.450 M 291.429 238.450 L 291.429 251.300 M 291.429 238.450 L 305.000 238.450 M 305.000 251.300 L 291.429 251.300 M 291.429 251.300 L 291.429 238.450 M 305.000 238.450 L 318.571 238.450 M 318.571 251.300 L 305.000 251.300 M 332.143 238.450 L 332.143 251.300 M 332.143 251.300 L 318.571 251.300 M 345.714 238.450 L 345.714 251.300 M 332.143 251.300 L 332.143 238.450 M 345.714 238.450 L 359.286 238.450 M 345.714 251.300 L 345.714 238.450 M 359.286 238.450 L 372.857 238.450 M 372.857 238.450 L 372.857 251.300 M 386.429 238.450 L 386.429 251.300 M 372.857 251.300 L 372.857 238.450 M 400.000 238.450 L 400.000 251.300 M 386.429 251.300 L 386.429 238.450 M 33.571 251.300 L 33.571 264.150 M 20.000 264.150 L 20.000 251.300 M 47.143 264.150 L 33.571 264.150 M 33.571 264.150 L 33.571 251.300 M 47.143 251.300 L 60.714 251.300 M 60.714 251.300 L 60.714 264.150 M 60.714 264.150 L 47.143 264.150 M 60.714 251.300 L 74.286 251.300 M 60.714 264.150 L 60.714 251.300 M 87.857 251.300 L 87.857 264.150 M 87.857 264.150 L 74.286 264.150 M 101.429 251.300 L 101.429 264.150 M 87.857 264.150 L 87.857 251.300 M 101.429 251.300 L 115.000 251.300 M 101.429 264.150 L 101.429 251.300 M 128.571 251.300 L 128.571 264.150 M 128.571 264.150 L 115.000 264.150 M 128.571 251.300 L 142.143 251.300 M 142.143 264.150 L 128.571 264.150 M 128.571 264.150 L 128.571 251.300 M 155.714 264.150 L 142.143 264.150 M 155.714 251.300 L 169.286 251.300 M 169.286 251.300 L 169.286 264.150 M 182.857 251.300 L 182.857 264.150 M 169.286 264.150 L 169.286 251.300 M 196.429 251.300 L 196.429 264.150 M 196.429 264.150 L 182.857 264.150 M 182.857 264.150 L 182.857 251.300 M 210.000 264.150 L 196.429 264.150 M 196.429 264.150 L 196.429 251.300 M 210.000 251.300 L 223.571 251.300 M 223.571 251.300 L 223.571 264.150 M 237.143 251.300 L 237.143 264.150 M 223.571 264.150 L 223.571 251.300 M 250.714 251.300 L 250.714 264.150 M 237.143 264.150 L 237.143 251.300 M 264.286 264.150 L 250.714 264.150 M 250.714 264.150 L 250.714 251.300 M 264.286 251.300 L 277.857 251.300 M 277.857 251.300 L 277.857 264.150 M 277.857 264.150 L 264.286 264.150 M 291.429 251.300 L 291.429 264.150 M 277.857 264.150 L 277.857 251.300 M 291.429 251.300 L 305.000 251.300 M 291.429 264.150 L 291.429 251.300 M 305.000 251.300 L 318.571 251.300 M 318.571 251.300 L 318.571 264.150 M 318.571 251.300 L 332.143 251.300 M 318.571 264.150 L 318.571 251.300 M 345.714 251.300 L 345.714 264.150 M 345.714 264.150 L 332.143 264.150 M 359.286 251.300 L 359.286 264.150 M 345.714 264.150 L 345.714 251.300 M 372.857 251.300 L 372.857 264.150 M 359.286 264.150 L 359.286 251.300 M 386.429 264.150 L 372.857 264.150 M 372.857 264.150 L 372.857 251.300 M 400.000 251.300 L 400.000 264.150 M 33.571 277.000 L 20.000 277.000 M 20.000 277.000 L 20.000 264.150 M 33.571 264.150 L 47.143 264.150 M 47.143 277.000 L 33.571 277.000 M 47.143 264.150 L 60.714 264.150 M 60.714 277.000 L 47.143 277.000 M 74.286 264.150 L 74.286 277.000 M 74.286 277.000 L 60.714 277.000 M 74.286 264.150 L 87.857 264.150 M 87.857 277.000 L 74.286 277.000 M 74.286 277.000 L 74.286 264.150 M 101.429 277.000 L 87.857 277.000 M 115.000 277.000 L 101.429 277.000 M 115.000 264.150 L 128.571 264.150 M 128.571 277.000 L 115.000 277.000 M 128.571 264.150 L 142.143 264.150 M 142.143 277.000 L 128.571 277.000 M 142.143 264.150 L 155.714 264.150 M 155.714 277.000 L 142.143 277.000 M 169.286 264.150 L 169.286 277.000 M 169.286 277.000 L 155.714 277.000 M 182.857 277.000 L 169.286 277.000 M 169.286 277.000 L 169.286 264.150 M 182.857 264.150 L 196.429 264.150 M 196.429 277.000 L 182.857 277.000 M 196.429 264.150 L 210.000 264.150 M 210.000 277.000 L 196.429 277.000 M 223.571 277.000 L 210.000 277.000 M 237.143 264.150 L 237.143 277.000 M 237.143 277.000 L 223.571 277.000 M 250.714 277.000 L 237.143 277.000 M 237.143 277.000 L 237.143 264.150 M 250.714 264.150 L 264.286 264.150 M 264.286 277.000 L 250.714 277.000 M 264.286 264.150 L 277.857 264.150 M 277.857 277.000 L 264.286 277.000 M 291.429 277.000 L 277.857 277.000 M 305.000 264.150 L 305.000 277.000 M 305.000 277.000 L 291.429 277.000 M 318.571 277.000 L 305.000 277.000 M 305.000 277.000 L 305.000 264.150 M 332.143 264.150 L 332.143 277.000 M 332.143 277.000 L 318.571 277.000 M 332.143 264.150 L 345.714 264.150 M 345.714 277.000 L 332.143 277.000 M 332.143 277.000 L 332.143 264.150 M 359.286 264.150 L 359.286 277.000 M 359.286 277.000 L 345.714 277.000 M 372.857 277.000 L 359.286 277.000 M 359.286 277.000 L 359.286 264.150 M 372.857 264.150 L 386.429 264.150 M 386.429 277.000 L 372.857 277.000 M 400.000 264.150 L 400.000 277.000 M 400.000 277.000 L 386.429 277.000" fill="none" stroke="#e5e7eb" stroke-width="1" vector-effect="non-scaling-stroke"/></svg>