<svg xmlns="http://www.w3.org/2000/svg" viewBox="12 12 396 273" width="396" height="273" shape-rendering="geometricPrecision"><rect x="12" y="12" width="396" height="273" fill="#0b0f14"/><path d="M 20.000 20.000 L 29.500 20.000 M 29.500 29.179 L 20.000 29.179 M 20.000 29.179 L 20.000 20.000 M 29.500 20.000 L 39.000 20.000 M 39.000 20.000 L 39.000 29.179 M 39.000 20.000 L 48.500 20.000 M 39.000 29.179 L 39.000 20.000 M 48.500 20.000 L 58.000 20.000 M 58.000 20.000 L 67.500 20.000 M 67.500 20.000 L 67.500 29.179 M 67.500 20.000 L 77.000 20.000 M 67.500 29.179 L 67.500 20.000 M 77.000 20.000 L 86.500 20.000 M 86.500 29.179 L 77.000 29.179 M 86.500 20.000 L 96.000 20.000 M 96.000 29.179 L 86.500 29.179 M 96.000 20.000 L 105.500 20.000 M 105.500 29.179 L 96.000 29.179 M 105.500 20.000 L 115.000 20.000 M 115.000 29.179 L 105.500 29.179 M 115.000 20.000 L 124.500 20.000 M 124.500 20.000 L 134.000 20.000 M 134.000 20.000 L 134.000 29.179 M 134.000 20.000 L 143.500 20.000 M 134.000 29.179 L 134.000 20.000 M 143.500 20.000 L 153.000 20.000 M 153.000 29.179 L 143.500 29.179 M 153.000 20.000 L 162.500 20.000 M 162.500 29.179 L 153.000 29.179 M 162.500 20.000 L 172.000 20.000 M 172.000 29.179 L 162.500 29.179 M 172.000 20.000 L 181.500 20.000 M 181.500 20.000 L 181.500 29.179 M 181.500 20.000 L 191.000 20.000 M 181.500 29.179 L 181.500 20.000 M 191.000 20.000 L 200.500 20.000 M 200.500 29.179 L 191.000 29.179 M 200.500 20.000 L 210.000 20.000 M 210.000 29.179 L 200.500 29.179 M 210.000 20.000 L 219.500 20.000 M 219.500 20.000 L 229.000 20.000 M 229.000 20.000 L 229.000 29.179 M 229.000 20.000 L 238.500 20.000 M 229.000 29.179 L 229.000 20.000 M 238.500 20.000 L 248.000 20.000 M 248.000 20.000 L 248.000 29.179 M 248.000 20.000 L 257.500 20.000 M 257.500 29.179 L 248.000 29.179 M 248.000 29.179 L 248.000 20.000 M 257.500 20.000 L 267.000 20.000 M 267.000 20.000 L 276.500 20.000 M 276.500 20.000 L 276.500 29.179 M 276.500 29.179 L 267.000 29.179 M 276.500 20.000 L 286.000 20.000 M 276.500 29.179 L 276.500 20.000 M 286.000 20.000 L 295.500 20.000 M 295.500 20.000 L 295.500 29.179 M 295.500 20.000 L 305.000 20.000 M 295.500 29.179 L 295.500 20.000 M 305.000 20.000 L 314.500 20.000 M 314.500 29.179 L 305.000 29.179 M 314.500 20.000 L 324.000 20.000 M 324.000 20.000 L 333.500 20.000 M 333.500 29.179 L 324.000 29.179 M 333.500 20.000 L 343.000 20.000 M 343.000 20.000 L 352.500 20.000 M 352.500 20.000 L 352.500 29.179 M 352.500 29.179 L 343.000 29.179 M 352.500 20.000 L 362.000 20.000 M 352.500 29.179 L 352.500 20.000 M 362.000 20.000 L 371.500 20.000 M 371.500 20.000 L 381.000 20.000 M 381.000 29.179 L 371.500 29.179 M 381.000 20.000 L 390.500 20.000 M 390.500 20.000 L 390.500 29.179 M 390.500 20.000 L 400.000 20.000 M 400.000 20.000 L 400.000 29.179 M 390.500 29.179 L 390.500 20.000 M 20.000 29.179 L 29.500 29.179 M 29.500 29.179 L 29.500 38.357 M 20.000 38.357 L 20.000 29.179 M 39.000 29.179 L 39.000 38.357 M 29.500 38.357 L 29.500 29.179 M 48.500 29.179 L 48.500 38.357 M 48.500 38.357 L 39.000 38.357 M 39.000 38.357 L 39.000 29.179 M 58.000 29.179 L 58.000 38.357 M 48.500 38.357 L 48.500 29.179 M 67.500 29.179 L 67.500 38.357 M 67.500 38.357 L 58.000 38.357 M 58.000 38.357 L 58.000 29.179 M 77.000 29.179 L 77.000 38.357 M 67.500 38.357 L 67.500 29.179 M 77.000 29.179 L 86.500 29.179 M 77.000 38.357 L 77.000 29.179 M 86.500 29.179 L 96.000 29.179 M 96.000 38.357 L 86.500 38.357 M 96.000 29.179 L 105.500 29.179 M 105.500 38.357 L 96.000 38.357 M 105.500 29.179 L 115.000 29.179 M 115.000 29.179 L 115.000 38.357 M 124.500 29.179 L 124.500 38.357 M 115.000 38.357 L 115.000 29.179 M 134.000 38.357 L 124.500 38.357 M 124.500 38.357 L 124.500 29.179 M 143.500 29.179 L 143.500 38.357 M 143.500 38.357 L 134.000 38.357 M 143.500 29.179 L 153.000 29.179 M 143.500 38.357 L 143.500 29.179 M 153.000 29.179 L 162.500 29.179 M 162.500 38.357 L 153.000 38.357 M 162.500 29.179 L 172.000 29.179 M 172.000 29.179 L 172.000 38.357 M 181.500 29.179 L 181.500 38.357 M 172.000 38.357 L 172.000 29.179 M 191.000 29.179 L 191.000 38.357 M 191.000 38.357 L 181.500 38.357 M 181.500 38.357 L 181.500 29.179 M 191.000 29.179 L 200.500 29.179 M 191.000 38.357 L 191.000 29.179 M 200.500 29.179 L 210.000 29.179 M 210.000 29.179 L 210.000 38.357 M 219.500 29.179 L 219.500 38.357 M 210.000 38.357 L 210.000 29.179 M 229.000 38.357 L 219.500 38.357 M 219.500 38.357 L 219.500 29.179 M 238.500 29.179 L 238.500 38.357 M 238.500 38.357 L 229.000 38.357 M 248.000 38.357 L 238.500 38.357 M 238.500 38.357 L 238.500 29.179 M 248.000 29.179 L 257.500 29.179 M 257.500 29.179 L 257.500 38.357 M 267.000 38.357 L 257.500 38.357 M 257.500 38.357 L 257.500 29.179 M 267.000 29.179 L 276.500 29.179 M 276.500 29.179 L 276.500 38.357 M 286.000 29.179 L 286.000 38.357 M 276.500 38.357 L 276.500 29.179 M 295.500 38.357 L 286.000 38.357 M 286.000 38.357 L 286.000 29.179 M 305.000 29.179 L 305.000 38.357 M 305.000 38.357 L 295.500 38.357 M 305.000 29.179 L 314.500 29.179 M 314.500 29.179 L 314.500 38.357 M 305.000 38.357 L 305.000 29.179 M 324.000 38.357 L 314.500 38.357 M 314.500 38.357 L 314.500 29.179 M 324.000 29.179 L 333.500 29.179 M 333.500 29.179 L 333.500 38.357 M 343.000 29.179 L 343.000 38.357 M 343.000 38.357 L 333.500 38.357 M 333.500 38.357 L 333.500 29.179 M 343.000 29.179 L 352.500 29.179 M 343.000 38.357 L 343.000 29.179 M 362.000 29.179 L 362.000 38.357 M 362.000 38.357 L 352.500 38.357 M 371.500 38.357 L 362.000 38.357 M 362.000 38.357 L 362.000 29.179 M 371.500 29.179 L 381.000 29.179 M 381.000 29.179 L 381.000 38.357 M 390.500 38.357 L 381.000 38.357 M 381.000 38.357 L 381.000 29.179 M 400.000 29.179 L 400.000 38.357 M 29.500 38.357 L 29.500 47.536 M 20.000 47.536 L 20.000 38.357 M 39.000 47.536 L 29.500 47.536 M 29.500 47.536 L 29.500 38.357 M 39.000 38.357 L 48.500 38.357 M 48.500 38.357 L 48.500 47.536 M 58.000 47.536 L 48.500 47.536 M 48.500 47.536 L 48.500 38.357 M 58.000 38.357 L 67.500 38.357 M 67.500 47.536 L 58.000 47.536 M 77.000 38.357 L 77.000 47.536 M 86.500 38.357 L 86.500 47.536 M 77.000 47.536 L 77.000 38.357 M 86.500 38.357 L 96.000 38.357 M 86.500 47.536 L 86.500 38.357 M 96.000 38.357 L 105.500 38.357 M 105.500 47.536 L 96.000 47.536 M 115.000 47.536 L 105.500 47.536 M 124.500 38.357 L 124.500 47.536 M 124.500 47.536 L 115.000 47.536 M 124.500 38.357 L 134.000 38.357 M 134.000 47.536 L 124.500 47.536 M 124.500 47.536 L 124.500 38.357 M 134.000 38.357 L 143.500 38.357 M 153.000 47.536 L 143.500 47.536 M 153.000 38.357 L 162.500 38.357 M 162.500 38.357 L 162.500 47.536 M 162.500 47.536 L 153.000 47.536 M 172.000 38.357 L 172.000 47.536 M 162.500 47.536 L 162.500 38.357 M 181.500 47.536 L 172.000 47.536 M 172.000 47.536 L 172.000 38.357 M 181.500 38.357 L 191.000 38.357 M 191.000 47.536 L 181.500 47.536 M 200.500 38.357 L 200.500 47.536 M 200.500 47.536 L 191.000 47.536 M 210.000 47.536 L 200.500 47.536 M 200.500 47.536 L 200.500 38.357 M 219.500 38.357 L 219.500 47.536 M 219.500 47.536 L 210.000 47.536 M 219.500 38.357 L 229.000 38.357 M 219.500 47.536 L 219.500 38.357 M 229.000 38.357 L 238.500 38.357 M 238.500 38.357 L 238.500 47.536 M 238.500 38.357 L 248.000 38.357 M 238.500 47.536 L 238.500 38.357 M 257.500 38.357 L 257.500 47.536 M 257.500 47.536 L 248.000 47.536 M 257.500 38.357 L 267.000 38.357 M 257.500 47.536 L 257.500 38.357 M 276.500 38.357 L 276.500 47.536 M 276.500 47.536 L 267.000 47.536 M 286.000 38.357 L 286.000 47.536 M 276.500 47.536 L 276.500 38.357 M 286.000 38.357 L 295.500 38.357 M 295.500 47.536 L 286.000 47.536 M 286.000 47.536 L 286.000 38.357 M 295.500 38.357 L 305.000 38.357 M 305.000 47.536 L 295.500 47.536 M 314.500 38.357 L 324.000 38.357 M 324.000 38.357 L 324.000 47.536 M 333.500 47.536 L 324.000 47.536 M 324.000 47.536 L 324.000 38.357 M 333.500 38.357 L 343.000 38.357 M 343.000 38.357 L 343.000 47.536 M 352.500 47.536 L 343.000 47.536 M 343.000 47.536 L 343.000 38.357 M 352.500 38.357 L 362.000 38.357 M 362.000 38.357 L 362.000 47.536 M 362.000 38.357 L 371.500 38.357 M 362.000 47.536 L 362.000 38.357 M 381.000 38.357 L 381.000 47.536 M 381.000 47.536 L 371.500 47.536 M 381.000 38.357 L 390.500 38.357 M 381.000 47.536 L 381.000 38.357 M 400.000 38.357 L 400.000 47.536 M 400.000 47.536 L 390.500 47.536 M 29.500 56.714 L 20.000 56.714 M 20.000 56.714 L 20.000 47.536 M 29.500 47.536 L 39.000 47.536 M 39.000 47.536 L 39.000 56.714 M 48.500 56.714 L 39.000 56.714 M 39.000 56.714 L 39.000 47.536 M 48.500 47.536 L 58.000 47.536 M 58.000 56.714 L 48.500 56.714 M 58.000 47.536 L 67.500 47.536 M 67.500 47.536 L 67.500 56.714 M 77.000 47.536 L 77.000 56.714 M 67.500 56.714 L 67.500 47.536 M 86.500 47.536 L 86.500 56.714 M 77.000 56.714 L 77.000 47.536 M 96.000 47.536 L 96.000 56.714 M 86.500 56.714 L 86.500 47.536 M 96.000 47.536 L 105.500 47.536 M 96.000 56.714 L 96.000 47.536 M 105.500 47.536 L 115.000 47.536 M 115.000 56.714 L 105.500 56.714 M 115.000 47.536 L 124.500 47.536 M 124.500 56.714 L 115.000 56.714 M 124.500 47.536 L 134.000 47.536 M 134.000 47.536 L 134.000 56.714 M 134.000 56.714 L 134.000 47.536 M 143.500 47.536 L 153.000 47.536 M 153.000 47.536 L 153.000 56.714 M 153.000 56.714 L 143.500 56.714 M 153.000 47.536 L 162.500 47.536 M 153.000 56.714 L 153.000 47.536 M 172.000 47.536 L 172.000 56.714 M 172.000 47.536 L 181.500 47.536 M 172.000 56.714 L 172.000 47.536 M 181.500 47.536 L 191.000 47.536 M 191.000 56.714 L 181.500 56.714 M 191.000 47.536 L 200.500 47.536 M 200.500 47.536 L 200.500 56.714 M 200.500 47.536 L 210.000 47.536 M 200.500 56.714 L 200.500 47.536 M 210.000 47.536 L 219.500 47.536 M 229.000 47.536 L 229.000 56.714 M 229.000 56.714 L 219.500 56.714 M 238.500 47.536 L 238.500 56.714 M 238.500 56.714 L 229.000 56.714 M 229.000 56.714 L 229.000 47.536 M 248.000 56.714 L 238.500 56.714 M 238.500 56.714 L 238.500 47.536 M 248.000 47.536 L 257.500 47.536 M 257.500 47.536 L 257.500 56.714 M 267.000 56.714 L 257.500 56.714 M 257.500 56.714 L 257.500 47.536 M 267.000 47.536 L 276.500 47.536 M 276.500 47.536 L 276.500 56.714 M 286.000 56.714 L 276.500 56.714 M 276.500 56.714 L 276.500 47.536 M 286.000 47.536 L 295.500 47.536 M 295.500 56.714 L 286.000 56.714 M 295.500 47.536 L 305.000 47.536 M 305.000 56.714 L 295.500 56.714 M 314.500 47.536 L 314.500 56.714 M 314.500 56.714 L 305.000 56.714 M 324.000 56.714 L 314.500 56.714 M 314.500 56.714 L 314.500 47.536 M 324.000 47.536 L 333.500 47.536 M 333.500 47.536 L 333.500 56.714 M 343.000 56.714 L 333.500 56.714 M 333.500 56.714 L 333.500 47.536 M 343.000 47.536 L 352.500 47.536 M 352.500 56.714 L 343.000 56.714 M 362.000 47.536 L 362.000 56.714 M 362.000 56.714 L 352.500 56.714 M 371.500 47.536 L 371.500 56.714 M 362.000 56.714 L 362.000 47.536 M 371.500 47.536 L 381.000 47.536 M 381.000 47.536 L 381.000 56.714 M 371.500 56.714 L 371.500 47.536 M 390.500 47.536 L 390.500 56.714 M 381.000 56.714 L 381.000 47.536 M 390.500 47.536 L 400.000 47.536 M 400.000 47.536 L 400.000 56.714 M 390.500 56.714 L 390.500 47.536 M 20.000 56.714 L 29.500 56.714 M 20.000 65.893 L 20.000 56.714 M 39.000 56.714 L 39.000 65.893 M 39.000 65.893 L 29.500 65.893 M 39.000 56.714 L 48.500 56.714 M 39.000 65.893 L 39.000 56.714 M 48.500 56.714 L 58.000 56.714 M 58.000 56.714 L 58.000 65.893 M 67.500 56.714 L 67.500 65.893 M 58.000 65.893 L 58.000 56.714 M 77.000 56.714 L 77.000 65.893 M 77.000 65.893 L 67.500 65.893 M 67.500 65.893 L 67.500 56.714 M 86.500 56.714 L 86.500 65.893 M 77.000 65.893 L 77.000 56.714 M 96.000 56.714 L 96.000 65.893 M 86.500 65.893 L 86.500 56.714 M 105.500 56.714 L 105.500 65.893 M 96.000 65.893 L 96.000 56.714 M 105.500 56.714 L 115.000 56.714 M 115.000 65.893 L 105.500 65.893 M 105.500 65.893 L 105.500 56.714 M 115.000 56.714 L 124.500 56.714 M 124.500 56.714 L 124.500 65.893 M 134.000 56.714 L 134.000 65.893 M 124.500 65.893 L 124.500 56.714 M 143.500 56.714 L 143.500 65.893 M 143.500 65.893 L 134.000 65.893 M 134.000 65.893 L 134.000 56.714 M 143.500 56.714 L 153.000 56.714 M 143.500 65.893 L 143.500 56.714 M 162.500 56.714 L 162.500 65.893 M 162.500 65.893 L 153.000 65.893 M 172.000 56.714 L 172.000 65.893 M 162.500 65.893 L 162.500 56.714 M 181.500 65.893 L 172.000 65.893 M 172.000 65.893 L 172.000 56.714 M 181.500 56.714 L 191.000 56.714 M 191.000 56.714 L 191.000 65.893 M 191.000 65.893 L 181.500 65.893 M 200.500 56.714 L 200.500 65.893 M 191.000 65.893 L 191.000 56.714 M 210.000 56.714 L 210.000 65.893 M 200.500 65.893 L 200.500 56.714 M 219.500 65.893 L 210.000 65.893 M 210.000 65.893 L 210.000 56.714 M 219.500 56.714 L 229.000 56.714 M 229.000 65.893 L 219.500 65.893 M 229.000 56.714 L 238.500 56.714 M 238.500 65.893 L 229.000 65.893 M 238.500 56.714 L 248.000 56.714 M 248.000 56.714 L 248.000 65.893 M 257.500 65.893 L 248.000 65.893 M 248.000 65.893 L 248.000 56.714 M 257.500 56.714 L 267.000 56.714 M 267.000 56.714 L 267.000 65.893 M 267.000 65.893 L 267.000 56.714 M 276.500 56.714 L 286.000 56.714 M 286.000 65.893 L 276.500 65.893 M 286.000 56.714 L 295.500 56.714 M 295.500 65.893 L 286.000 65.893 M 295.500 56.714 L 305.000 56.714 M 305.000 56.714 L 305.000 65.893 M 305.000 65.893 L 295.500 65.893 M 305.000 56.714 L 314.500 56.714 M 305.000 65.893 L 305.000 56.714 M 314.500 56.714 L 324.000 56.714 M 324.000 56.714 L 324.000 65.893 M 333.500 65.893 L 324.000 65.893 M 324.000 65.893 L 324.000 56.714 M 333.500 56.714 L 343.000 56.714 M 343.000 65.893 L 333.500 65.893 M 343.000 56.714 L 352.500 56.714 M 352.500 56.714 L 352.500 65.893 M 352.500 56.714 L 362.000 56.714 M 352.500 65.893 L 352.500 56.714 M 371.500 56.714 L 371.500 65.893 M 371.500 65.893 L 362.000 65.893 M 371.500 65.893 L 371.500 56.714 M 390.500 56.714 L 390.500 65.893 M 390.500 65.893 L 381.000 65.893 M 400.000 56.714 L 400.000 65.893 M 390.500 65.893 L 390.500 56.714 M 20.000 75.071 L 20.000 65.893 M 29.500 65.893 L 39.000 65.893 M 39.000 65.893 L 39.000 75.071 M 48.500 65.893 L 48.500 75.071 M 39.000 75.071 L 39.000 65.893 M 58.000 65.893 L 58.000 75.071 M 48.500 75.071 L 48.500 65.893 M 67.500 65.893 L 67.500 75.071 M 58.000 75.071 L 58.000 65.893 M 67.500 65.893 L 77.000 65.893 M 67.500 75.071 L 67.500 65.893 M 86.500 65.893 L 86.500 75.071 M 86.500 75.071 L 77.000 75.071 M 96.000 65.893 L 96.000 75.071 M 96.000 75.071 L 86.500 75.071 M 86.500 75.071 L 86.500 65.893 M 105.500 75.071 L 96.000 75.071 M 96.000 75.071 L 96.000 65.893 M 105.500 65.893 L 115.000 65.893 M 124.500 65.893 L 124.500 75.071 M 124.500 75.071 L 115.000 75.071 M 134.000 65.893 L 134.000 75.071 M 124.500 75.071 L 124.500 65.893 M 134.000 65.893 L 143.500 65.893 M 134.000 75.071 L 134.000 65.893 M 153.000 65.893 L 153.000 75.071 M 153.000 75.071 L 143.500 75.071 M 153.000 65.893 L 162.500 65.893 M 162.500 75.071 L 153.000 75.071 M 153.000 75.071 L 153.000 65.893 M 172.000 75.071 L 162.500 75.071 M 172.000 65.893 L 181.500 65.893 M 181.500 75.071 L 172.000 75.071 M 181.500 65.893 L 191.000 65.893 M 191.000 75.071 L 181.500 75.071 M 200.500 65.893 L 200.500 75.071 M 200.500 75.071 L 191.000 75.071 M 210.000 65.893 L 210.000 75.071 M 200.500 75.071 L 200.500 65.893 M 210.000 65.893 L 219.500 65.893 M 210.000 75.071 L 210.000 65.893 M 219.500 65.893 L 229.000 65.893 M 229.000 65.893 L 229.000 75.071 M 229.000 65.893 L 238.500 65.893 M 238.500 65.893 L 238.500 75.071 M 229.000 75.071 L 229.000 65.893 M 248.000 75.071 L 238.500 75.071 M 238.500 75.071 L 238.500 65.893 M 248.000 65.893 L 257.500 65.893 M 257.500 75.071 L 248.000 75.071 M 267.000 65.893 L 267.000 75.071 M 267.000 75.071 L 257.500 75.071 M 276.500 65.893 L 276.500 75.071 M 267.000 75.071 L 267.000 65.893 M 276.500 65.893 L 286.000 65.893 M 276.500 75.071 L 276.500 65.893 M 286.000 65.893 L 295.500 65.893 M 295.500 75.071 L 286.000 75.071 M 295.500 65.893 L 305.000 65.893 M 305.000 75.071 L 295.500 75.071 M 314.500 65.893 L 314.500 75.071 M 314.500 75.071 L 305.000 75.071 M 324.000 75.071 L 314.500 75.071 M 314.500 75.071 L 314.500 65.893 M 324.000 65.893 L 333.500 65.893 M 333.500 65.893 L 343.000 65.893 M 343.000 65.893 L 343.000 75.071 M 343.000 75.071 L 333.500 75.071 M 352.500 65.893 L 352.500 75.071 M 343.000 75.071 L 343.000 65.893 M 362.000 65.893 L 362.000 75.071 M 352.500 75.071 L 352.500 65.893 M 362.000 65.893 L 371.500 65.893 M 371.500 75.071 L 362.000 75.071 M 362.000 75.071 L 362.000 65.893 M 381.000 65.893 L 381.000 75.071 M 381.000 65.893 L 390.500 65.893 M 390.500 75.071 L 381.000 75.071 M 381.000 75.071 L 381.000 65.893 M 400.000 65.893 L 400.000 75.071 M 29.500 75.071 L 29.500 84.250 M 20.000 84.250 L 20.000 75.071 M 39.000 84.250 L 29.500 84.250 M 29.500 84.250 L 29.500 75.071 M 48.500 75.071 L 48.500 84.250 M 48.500 84.250 L 39.000 84.250 M 58.000 84.250 L 48.500 84.250 M 48.500 84.250 L 48.500 75.071 M 67.500 75.071 L 67.500 84.250 M 67.500 84.250 L 58.000 84.250 M 67.500 84.250 L 67.500 75.071 M 77.000 75.071 L 86.500 75.071 M 86.500 75.071 L 86.500 84.250 M 86.500 75.071 L 96.000 75.071 M 86.500 84.250 L 86.500 75.071 M 96.000 75.071 L 105.500 75.071 M 105.500 84.250 L 96.000 84.250 M 115.000 75.071 L 115.000 84.250 M 115.000 84.250 L 105.500 84.250 M 115.000 75.071 L 124.500 75.071 M 115.000 84.250 L 115.000 75.071 M 134.000 75.071 L 134.000 84.250 M 134.000 84.250 L 124.500 84.250 M 143.500 75.071 L 143.500 84.250 M 134.000 84.250 L 134.000 75.071 M 143.500 75.071 L 153.000 75.071 M 143.500 84.250 L 143.500 75.071 M 153.000 75.071 L 162.500 75.071 M 162.500 75.071 L 162.500 84.250 M 162.500 75.071 L 172.000 75.071 M 162.500 84.250 L 162.500 75.071 M 172.000 75.071 L 181.500 75.071 M 181.500 84.250 L 172.000 84.250 M 181.500 75.071 L 191.000 75.071 M 191.000 75.071 L 191.000 84.250 M 191.000 75.071 L 200.500 75.071 M 191.000 84.250 L 191.000 75.071 M 210.000 75.071 L 210.000 84.250 M 210.000 84.250 L 200.500 84.250 M 219.500 75.071 L 219.500 84.250 M 210.000 84.250 L 210.000 75.071 M 229.000 75.071 L 229.000 84.250 M 219.500 84.250 L 219.500 75.071 M 229.000 84.250 L 229.000 75.071 M 238.500 75.071 L 248.000 75.071 M 248.000 75.071 L 248.000 84.250 M 248.000 75.071 L 257.500 75.071 M 257.500 75.071 L 257.500 84.250 M 248.000 84.250 L 248.000 75.071 M 257.500 75.071 L 267.000 75.071 M 257.500 84.250 L 257.500 75.071 M 276.500 75.071 L 276.500 84.250 M 286.000 75.071 L 286.000 84.250 M 276.500 84.250 L 276.500 75.071 M 286.000 75.071 L 295.500 75.071 M 295.500 84.250 L 286.000 84.250 M 286.000 84.250 L 286.000 75.071 M 295.500 75.071 L 305.000 75.071 M 305.000 75.071 L 314.500 75.071 M 314.500 84.250 L 305.000 84.250 M 314.500 75.071 L 324.000 75.071 M 324.000 75.071 L 324.000 84.250 M 333.500 84.250 L 324.000 84.250 M 324.000 84.250 L 324.000 75.071 M 333.500 75.071 L 343.000 75.071 M 343.000 84.250 L 333.500 84.250 M 352.500 75.071 L 352.500 84.250 M 352.500 84.250 L 343.000 84.250 M 362.000 84.250 L 352.500 84.250 M 352.500 84.250 L 352.500 75.071 M 362.000 75.071 L 371.500 75.071 M 371.500 75.071 L 371.500 84.250 M 381.000 84.250 L 371.500 84.250 M 371.500 84.250 L 371.500 75.071 M 381.000 75.071 L 390.500 75.071 M 390.500 84.250 L 381.000 84.250 M 400.000 75.071 L 400.000 84.250 M 29.500 84.250 L 29.500 93.429 M 20.000 93.429 L 20.000 84.250 M 29.500 84.250 L 39.000 84.250 M 39.000 93.429 L 29.500 93.429 M 29.500 93.429 L 29.500 84.250 M 39.000 84.250 L 48.500 84.250 M 48.500 84.250 L 58.000 84.250 M 58.000 93.429 L 48.500 93.429 M 58.000 84.250 L 67.500 84.250 M 67.500 84.250 L 67.500 93.429 M 77.000 84.250 L 77.000 93.429 M 67.500 93.429 L 67.500 84.250 M 86.500 84.250 L 86.500 93.429 M 77.000 93.429 L 77.000 84.250 M 96.000 84.250 L 96.000 93.429 M 86.500 93.429 L 86.500 84.250 M 96.000 84.250 L 105.500 84.250 M 105.500 84.250 L 105.500 93.429 M 96.000 93.429 L 96.000 84.250 M 105.500 84.250 L 115.000 84.250 M 105.500 93.429 L 105.500 84.250 M 124.500 84.250 L 124.500 93.429 M 124.500 93.429 L 115.000 93.429 M 124.500 84.250 L 134.000 84.250 M 134.000 84.250 L 134.000 93.429 M 124.500 93.429 L 124.500 84.250 M 134.000 93.429 L 134.000 84.250 M 153.000 84.250 L 153.000 93.429 M 153.000 93.429 L 143.500 93.429 M 162.500 93.429 L 153.000 93.429 M 153.000 93.429 L 153.000 84.250 M 172.000 84.250 L 172.000 93.429 M 172.000 93.429 L 162.500 93.429 M 172.000 84.250 L 181.500 84.250 M 181.500 84.250 L 181.500 93.429 M 172.000 93.429 L 172.000 84.250 M 191.000 93.429 L 181.500 93.429 M 181.500 93.429 L 181.500 84.250 M 200.500 84.250 L 200.500 93.429 M 200.500 93.429 L 191.000 93.429 M 200.500 84.250 L 210.000 84.250 M 210.000 93.429 L 200.500 93.429 M 200.500 93.429 L 200.500 84.250 M 219.500 84.250 L 219.500 93.429 M 229.000 93.429 L 219.500 93.429 M 219.500 93.429 L 219.500 84.250 M 238.500 84.250 L 238.500 93.429 M 238.500 93.429 L 229.000 93.429 M 248.000 84.250 L 248.000 93.429 M 238.500 93.429 L 238.500 84.250 M 257.500 93.429 L 248.000 93.429 M 248.000 93.429 L 248.000 84.250 M 267.000 84.250 L 267.000 93.429 M 276.500 84.250 L 276.500 93.429 M 267.000 93.429 L 267.000 84.250 M 286.000 93.429 L 276.500 93.429 M 276.500 93.429 L 276.500 84.250 M 286.000 84.250 L 295.500 84.250 M 295.500 84.250 L 295.500 93.429 M 305.000 93.429 L 295.500 93.429 M 295.500 93.429 L 295.500 84.250 M 305.000 84.250 L 314.500 84.250 M 314.500 84.250 L 314.500 93.429 M 314.500 93.429 L 305.000 93.429 M 314.500 93.429 L 314.500 84.250 M 324.000 84.250 L 333.500 84.250 M 333.500 93.429 L 324.000 93.429 M 333.500 84.250 L 343.000 84.250 M 343.000 84.250 L 343.000 93.429 M 343.000 84.250 L 352.500 84.250 M 343.000 93.429 L 343.000 84.250 M 352.500 84.250 L 362.000 84.250 M 362.000 84.250 L 362.000 93.429 M 371.500 93.429 L 362.000 93.429 M 362.000 93.429 L 362.000 84.250 M 371.500 84.250 L 381.000 84.250 M 381.000 84.250 L 381.000 93.429 M 381.000 84.250 L 390.500 84.250 M 390.500 93.429 L 381.000 93.429 M 381.000 93.429 L 381.000 84.250 M 400.000 84.250 L 400.000 93.429 M 29.500 93.429 L 29.500 102.607 M 20.000 102.607 L 20.000 93.429 M 29.500 93.429 L 39.000 93.429 M 29.500 102.607 L 29.500 93.429 M 48.500 93.429 L 48.500 102.607 M 48.500 102.607 L 39.000 102.607 M 48.500 93.429 L 58.000 93.429 M 48.500 102.607 L 48.500 93.429 M 67.500 93.429 L 67.500 102.607 M 67.500 102.607 L 58.000 102.607 M 77.000 93.429 L 77.000 102.607 M 67.500 102.607 L 67.500 93.429 M 86.500 102.607 L 77.000 102.607 M 77.000 102.607 L 77.000 93.429 M 96.000 93.429 L 96.000 102.607 M 96.000 102.607 L 86.500 102.607 M 105.500 93.429 L 105.500 102.607 M 96.000 102.607 L 96.000 93.429 M 115.000 93.429 L 115.000 102.607 M 105.500 102.607 L 105.500 93.429 M 115.000 93.429 L 124.500 93.429 M 115.000 102.607 L 115.000 93.429 M 134.000 93.429 L 134.000 102.607 M 143.500 102.607 L 134.000 102.607 M 134.000 102.607 L 134.000 93.429 M 143.500 93.429 L 153.000 93.429 M 153.000 93.429 L 153.000 102.607 M 153.000 93.429 L 162.500 93.429 M 153.000 102.607 L 153.000 93.429 M 162.500 93.429 L 172.000 93.429 M 181.500 102.607 L 172.000 102.607 M 181.500 93.429 L 191.000 93.429 M 191.000 102.607 L 181.500 102.607 M 191.000 93.429 L 200.500 93.429 M 200.500 102.607 L 191.000 102.607 M 200.500 93.429 L 210.000 93.429 M 210.000 102.607 L 200.500 102.607 M 219.500 93.429 L 219.500 102.607 M 219.500 102.607 L 210.000 102.607 M 219.500 93.429 L 229.000 93.429 M 219.500 102.607 L 219.500 93.429 M 229.000 93.429 L 238.500 93.429 M 238.500 93.429 L 238.500 102.607 M 238.500 102.607 L 229.000 102.607 M 248.000 102.607 L 238.500 102.607 M 238.500 102.607 L 238.500 93.429 M 248.000 93.429 L 257.500 93.429 M 257.500 93.429 L 257.500 102.607 M 267.000 93.429 L 267.000 102.607 M 257.500 102.607 L 257.500 93.429 M 267.000 102.607 L 267.000 93.429 M 276.500 93.429 L 286.000 93.429 M 286.000 93.429 L 286.000 102.607 M 286.000 102.607 L 276.500 102.607 M 295.500 102.607 L 286.000 102.607 M 286.000 102.607 L 286.000 93.429 M 295.500 93.429 L 305.000 93.429 M 305.000 102.607 L 295.500 102.607 M 305.000 93.429 L 314.500 93.429 M 314.500 102.607 L 305.000 102.607 M 324.000 93.429 L 324.000 102.607 M 324.000 102.607 L 314.500 102.607 M 324.000 93.429 L 333.500 93.429 M 324.000 102.607 L 324.000 93.429 M 343.000 102.607 L 333.500 102.607 M 352.500 93.429 L 352.500 102.607 M 352.500 102.607 L 343.000 102.607 M 362.000 102.607 L 352.500 102.607 M 352.500 102.607 L 352.500 93.429 M 362.000 93.429 L 371.500 93.429 M 371.500 93.429 L 371.500 102.607 M 371.500 102.607 L 362.000 102.607 M 381.000 102.607 L 371.500 102.607 M 371.500 102.607 L 371.500 93.429 M 381.000 93.429 L 390.500 93.429 M 390.500 93.429 L 390.500 102.607 M 400.000 93.429 L 400.000 102.607 M 400.000 102.607 L 390.500 102.607 M 390.500 102.607 L 390.500 93.429 M 29.500 102.607 L 29.500 111.786 M 20.000 111.786 L 20.000 102.607 M 39.000 111.786 L 29.500 111.786 M 29.500 111.786 L 29.500 102.607 M 39.000 102.607 L 48.500 102.607 M 48.500 102.607 L 48.500 111.786 M 58.000 102.607 L 58.000 111.786 M 48.500 111.786 L 48.500 102.607 M 58.000 102.607 L 67.500 102.607 M 58.000 111.786 L 58.000 102.607 M 77.000 111.786 L 67.500 111.786 M 77.000 102.607 L 86.500 102.607 M 86.500 111.786 L 77.000 111.786 M 86.500 102.607 L 96.000 102.607 M 105.500 102.607 L 105.500 111.786 M 105.500 111.786 L 96.000 111.786 M 115.000 102.607 L 115.000 111.786 M 105.500 111.786 L 105.500 102.607 M 124.500 102.607 L 124.500 111.786 M 115.000 111.786 L 115.000 102.607 M 134.000 111.786 L 124.500 111.786 M 124.500 111.786 L 124.500 102.607 M 134.000 102.607 L 143.500 102.607 M 143.500 111.786 L 134.000 111.786 M 153.000 102.607 L 153.000 111.786 M 153.000 111.786 L 143.500 111.786 M 162.500 102.607 L 162.500 111.786 M 153.000 111.786 L 153.000 102.607 M 172.000 111.786 L 162.500 111.786 M 162.500 111.786 L 162.500 102.607 M 172.000 102.607 L 181.500 102.607 M 181.500 111.786 L 172.000 111.786 M 181.500 102.607 L 191.000 102.607 M 191.000 111.786 L 181.500 111.786 M 191.000 102.607 L 200.500 102.607 M 200.500 111.786 L 191.000 111.786 M 200.500 102.607 L 210.000 102.607 M 210.000 111.786 L 200.500 111.786 M 210.000 102.607 L 219.500 102.607 M 219.500 102.607 L 219.500 111.786 M 219.500 111.786 L 219.500 102.607 M 229.000 102.607 L 238.500 102.607 M 238.500 102.607 L 238.500 111.786 M 238.500 102.607 L 248.000 102.607 M 238.500 111.786 L 238.500 102.607 M 257.500 102.607 L 257.500 111.786 M 257.500 111.786 L 248.000 111.786 M 267.000 102.607 L 267.000 111.786 M 267.000 111.786 L 257.500 111.786 M 257.500 111.786 L 257.500 102.607 M 276.500 111.786 L 267.000 111.786 M 267.000 111.786 L 267.000 102.607 M 276.500 102.607 L 286.000 102.607 M 286.000 111.786 L 276.500 111.786 M 286.000 102.607 L 295.500 102.607 M 295.500 102.607 L 305.000 102.607 M 305.000 102.607 L 305.000 111.786 M 305.000 102.607 L 314.500 102.607 M 305.000 111.786 L 305.000 102.607 M 314.500 102.607 L 324.000 102.607 M 324.000 111.786 L 314.500 111.786 M 333.500 102.607 L 333.500 111.786 M 333.500 111.786 L 324.000 111.786 M 333.500 102.607 L 343.000 102.607 M 333.500 111.786 L 333.500 102.607 M 343.000 102.607 L 352.500 102.607 M 352.500 111.786 L 343.000 111.786 M 352.500 102.607 L 362.000 102.607 M 362.000 102.607 L 362.000 111.786 M 362.000 102.607 L 371.500 102.607 M 362.000 111.786 L 362.000 102.607 M 371.500 102.607 L 381.000 102.607 M 381.000 102.607 L 381.000 111.786 M 390.500 111.786 L 381.000 111.786 M 381.000 111.786 L 381.000 102.607 M 390.500 102.607 L 400.000 102.607 M 400.000 102.607 L 400.000 111.786 M 29.500 120.964 L 20.000 120.964 M 20.000 120.964 L 20.000 111.786 M 29.500 111.786 L 39.000 111.786 M 39.000 120.964 L 29.500 120.964 M 48.500 111.786 L 48.500 120.964 M 48.500 120.964 L 39.000 120.964 M 58.000 111.786 L 58.000 120.964 M 48.500 120.964 L 48.500 111.786 M 67.500 111.786 L 67.500 120.964 M 67.500 120.964 L 58.000 120.964 M 58.000 120.964 L 58.000 111.786 M 67.500 111.786 L 77.000 111.786 M 67.500 120.964 L 67.500 111.786 M 77.000 111.786 L 86.500 111.786 M 86.500 111.786 L 86.500 120.964 M 96.000 111.786 L 96.000 120.964 M 86.500 120.964 L 86.500 111.786 M 96.000 111.786 L 105.500 111.786 M 96.000 120.964 L 96.000 111.786 M 115.000 111.786 L 115.000 120.964 M 115.000 120.964 L 105.500 120.964 M 124.500 111.786 L 124.500 120.964 M 115.000 120.964 L 115.000 111.786 M 124.500 111.786 L 134.000 111.786 M 124.500 120.964 L 124.500 111.786 M 134.000 111.786 L 143.500 111.786 M 143.500 120.964 L 134.000 120.964 M 143.500 111.786 L 153.000 111.786 M 153.000 111.786 L 153.000 120.964 M 153.000 120.964 L 143.500 120.964 M 162.500 120.964 L 153.000 120.964 M 153.000 120.964 L 153.000 111.786 M 162.500 111.786 L 172.000 111.786 M 172.000 111.786 L 181.500 111.786 M 181.500 120.964 L 172.000 120.964 M 181.500 111.786 L 191.000 111.786 M 191.000 120.964 L 181.500 120.964 M 191.000 111.786 L 200.500 111.786 M 200.500 120.964 L 191.000 120.964 M 200.500 111.786 L 210.000 111.786 M 210.000 111.786 L 210.000 120.964 M 210.000 120.964 L 200.500 120.964 M 219.500 111.786 L 219.500 120.964 M 210.000 120.964 L 210.000 111.786 M 229.000 111.786 L 229.000 120.964 M 229.000 120.964 L 219.500 120.964 M 219.500 120.964 L 219.500 111.786 M 238.500 111.786 L 238.500 120.964 M 229.000 120.964 L 229.000 111.786 M 248.000 120.964 L 238.500 120.964 M 238.500 120.964 L 238.500 111.786 M 248.000 111.786 L 257.500 111.786 M 257.500 111.786 L 257.500 120.964 M 257.500 111.786 L 267.000 111.786 M 257.500 120.964 L 257.500 111.786 M 267.000 111.786 L 276.500 111.786 M 276.500 120.964 L 267.000 120.964 M 276.500 111.786 L 286.000 111.786 M 286.000 111.786 L 286.000 120.964 M 295.500 111.786 L 295.500 120.964 M 295.500 120.964 L 286.000 120.964 M 286.000 120.964 L 286.000 111.786 M 305.000 120.964 L 295.500 120.964 M 295.500 120.964 L 295.500 111.786 M 314.500 111.786 L 314.500 120.964 M 314.500 120.964 L 305.000 120.964 M 314.500 111.786 L 324.000 111.786 M 314.500 120.964 L 314.500 111.786 M 324.000 111.786 L 333.500 111.786 M 333.500 120.964 L 324.000 120.964 M 343.000 111.786 L 343.000 120.964 M 343.000 120.964 L 333.500 120.964 M 343.000 111.786 L 352.500 111.786 M 352.500 111.786 L 352.500 120.964 M 343.000 120.964 L 343.000 111.786 M 362.000 120.964 L 352.500 120.964 M 352.500 120.964 L 352.500 111.786 M 371.500 111.786 L 371.500 120.964 M 371.500 120.964 L 362.000 120.964 M 381.000 120.964 L 371.500 120.964 M 371.500 120.964 L 371.500 111.786 M 381.000 111.786 L 390.500 111.786 M 390.500 111.786 L 390.500 120.964 M 400.000 111.786 L 400.000 120.964 M 390.500 120.964 L 390.500 111.786 M 20.000 120.964 L 29.500 120.964 M 20.000 130.143 L 20.000 120.964 M 29.500 120.964 L 39.000 120.964 M 39.000 130.143 L 29.500 130.143 M 39.000 120.964 L 48.500 120.964 M 48.500 120.964 L 48.500 130.143 M 58.000 130.143 L 48.500 130.143 M 48.500 130.143 L 48.500 120.964 M 58.000 120.964 L 67.500 120.964 M 67.500 130.143 L 58.000 130.143 M 77.000 120.964 L 77.000 130.143 M 77.000 130.143 L 67.500 130.143 M 86.500 120.964 L 86.500 130.143 M 77.000 130.143 L 77.000 120.964 M 96.000 120.964 L 96.000 130.143 M 86.500 130.143 L 86.500 120.964 M 105.500 130.143 L 96.000 130.143 M 96.000 130.143 L 96.000 120.964 M 105.500 120.964 L 115.000 120.964 M 115.000 120.964 L 115.000 130.143 M 124.500 120.964 L 124.500 130.143 M 115.000 130.143 L 115.000 120.964 M 124.500 130.143 L 124.500 120.964 M 134.000 120.964 L 143.500 120.964 M 143.500 130.143 L 134.000 130.143 M 143.500 120.964 L 153.000 120.964 M 153.000 130.143 L 143.500 130.143 M 153.000 120.964 L 162.500 120.964 M 162.500 130.143 L 153.000 130.143 M 172.000 120.964 L 172.000 130.143 M 172.000 130.143 L 162.500 130.143 M 172.000 120.964 L 181.500 120.964 M 172.000 130.143 L 172.000 120.964 M 181.500 120.964 L 191.000 120.964 M 191.000 120.964 L 191.000 130.143 M 191.000 120.964 L 200.500 120.964 M 191.000 130.143 L 191.000 120.964 M 200.500 120.964 L 210.000 120.964 M 210.000 120.964 L 210.000 130.143 M 219.500 130.143 L 210.000 130.143 M 210.000 130.143 L 210.000 120.964 M 219.500 120.964 L 229.000 120.964 M 229.000 120.964 L 229.000 130.143 M 238.500 130.143 L 229.000 130.143 M 229.000 130.143 L 229.000 120.964 M 238.500 120.964 L 248.000 120.964 M 248.000 120.964 L 248.000 130.143 M 257.500 120.964 L 257.500 130.143 M 248.000 130.143 L 248.000 120.964 M 267.000 120.964 L 267.000 130.143 M 257.500 130.143 L 257.500 120.964 M 267.000 120.964 L 276.500 120.964 M 276.500 120.964 L 276.500 130.143 M 267.000 130.143 L 267.000 120.964 M 286.000 130.143 L 276.500 130.143 M 276.500 130.143 L 276.500 120.964 M 286.000 120.964 L 295.500 120.964 M 295.500 130.143 L 286.000 130.143 M 295.500 120.964 L 305.000 120.964 M 305.000 130.143 L 295.500 130.143 M 305.000 120.964 L 314.500 120.964 M 314.500 130.143 L 305.000 130.143 M 324.000 120.964 L 324.000 130.143 M 324.000 130.143 L 314.500 130.143 M 324.000 120.964 L 333.500 120.964 M 324.000 130.143 L 324.000 120.964 M 333.500 120.964 L 343.000 120.964 M 343.000 130.143 L 333.500 130.143 M 352.500 130.143 L 343.000 130.143 M 352.500 120.964 L 362.000 120.964 M 362.000 130.143 L 352.500 130.143 M 362.000 120.964 L 371.500 120.964 M 371.500 120.964 L 371.500 130.143 M 371.500 120.964 L 381.000 120.964 M 371.500 130.143 L 371.500 120.964 M 390.500 120.964 L 390.500 130.143 M 390.500 130.143 L 381.000 130.143 M 400.000 120.964 L 400.000 130.143 M 390.500 130.143 L 390.500 120.964 M 29.500 130.143 L 29.500 139.321 M 20.000 139.321 L 20.000 130.143 M 29.500 130.143 L 39.000 130.143 M 29.500 139.321 L 29.500 130.143 M 48.500 130.143 L 48.500 139.321 M 48.500 139.321 L 39.000 139.321 M 48.500 130.143 L 58.000 130.143 M 48.500 139.321 L 48.500 130.143 M 58.000 130.143 L 67.500 130.143 M 67.500 139.321 L 58.000 139.321 M 67.500 130.143 L 77.000 130.143 M 77.000 139.321 L 67.500 139.321 M 86.500 130.143 L 86.500 139.321 M 86.500 139.321 L 77.000 139.321 M 96.000 139.321 L 86.500 139.321 M 86.500 139.321 L 86.500 130.143 M 96.000 130.143 L 105.500 130.143 M 105.500 130.143 L 105.500 139.321 M 105.500 139.321 L 96.000 139.321 M 115.000 130.143 L 115.000 139.321 M 105.500 139.321 L 105.500 130.143 M 124.500 130.143 L 124.500 139.321 M 115.000 139.321 L 115.000 130.143 M 134.000 130.143 L 134.000 139.321 M 124.500 139.321 L 124.500 130.143 M 134.000 130.143 L 143.500 130.143 M 134.000 139.321 L 134.000 130.143 M 143.500 130.143 L 153.000 130.143 M 153.000 130.143 L 153.000 139.321 M 153.000 130.143 L 162.500 130.143 M 153.000 139.321 L 153.000 130.143 M 162.500 130.143 L 172.000 130.143 M 172.000 130.143 L 172.000 139.321 M 172.000 139.321 L 162.500 139.321 M 181.500 130.143 L 181.500 139.321 M 172.000 139.321 L 172.000 130.143 M 191.000 139.321 L 181.500 139.321 M 181.500 139.321 L 181.500 130.143 M 200.500 130.143 L 200.500 139.321 M 200.500 139.321 L 191.000 139.321 M 210.000 139.321 L 200.500 139.321 M 200.500 139.321 L 200.500 130.143 M 210.000 130.143 L 219.500 130.143 M 219.500 139.321 L 210.000 139.321 M 229.000 130.143 L 229.000 139.321 M 229.000 139.321 L 219.500 139.321 M 229.000 130.143 L 238.500 130.143 M 229.000 139.321 L 229.000 130.143 M 248.000 130.143 L 248.000 139.321 M 248.000 139.321 L 238.500 139.321 M 257.500 130.143 L 257.500 139.321 M 248.000 139.321 L 248.000 130.143 M 267.000 130.143 L 267.000 139.321 M 257.500 139.321 L 257.500 130.143 M 276.500 139.321 L 267.000 139.321 M 267.000 139.321 L 267.000 130.143 M 276.500 130.143 L 286.000 130.143 M 286.000 130.143 L 295.500 130.143 M 295.500 130.143 L 305.000 130.143 M 305.000 139.321 L 295.500 139.321 M 305.000 130.143 L 314.500 130.143 M 314.500 139.321 L 305.000 139.321 M 314.500 130.143 L 324.000 130.143 M 324.000 130.143 L 324.000 139.321 M 333.500 130.143 L 333.500 139.321 M 324.000 139.321 L 324.000 130.143 M 333.500 130.143 L 343.000 130.143 M 343.000 139.321 L 333.500 139.321 M 333.500 139.321 L 333.500 130.143 M 343.000 130.143 L 352.500 130.143 M 352.500 130.143 L 362.000 130.143 M 362.000 130.143 L 362.000 139.321 M 362.000 139.321 L 352.500 139.321 M 371.500 130.143 L 371.500 139.321 M 362.000 139.321 L 362.000 130.143 M 381.000 139.321 L 371.500 139.321 M 371.500 139.321 L 371.500 130.143 M 381.000 130.143 L 390.500 130.143 M 390.500 139.321 L 381.000 139.321 M 400.000 130.143 L 400.000 139.321 M 29.500 139.321 L 29.500 148.500 M 20.000 148.500 L 20.000 139.321 M 39.000 148.500 L 29.500 148.500 M 29.500 148.500 L 29.500 139.321 M 39.000 139.321 L 48.500 139.321 M 48.500 139.321 L 48.500 148.500 M 48.500 148.500 L 39.000 148.500 M 58.000 139.321 L 58.000 148.500 M 48.500 148.500 L 48.500 139.321 M 58.000 139.321 L 67.500 139.321 M 67.500 148.500 L 58.000 148.500 M 58.000 148.500 L 58.000 139.321 M 67.500 139.321 L 77.000 139.321 M 77.000 148.500 L 67.500 148.500 M 77.000 139.321 L 86.500 139.321 M 86.500 139.321 L 96.000 139.321 M 96.000 148.500 L 86.500 148.500 M 96.000 139.321 L 105.500 139.321 M 105.500 148.500 L 96.000 148.500 M 115.000 139.321 L 115.000 148.500 M 115.000 148.500 L 105.500 148.500 M 124.500 139.321 L 124.500 148.500 M 115.000 148.500 L 115.000 139.321 M 134.000 148.500 L 124.500 148.500 M 124.500 148.500 L 124.500 139.321 M 143.500 139.321 L 143.500 148.500 M 143.500 148.500 L 134.000 148.500 M 153.000 148.500 L 143.500 148.500 M 143.500 148.500 L 143.500 139.321 M 162.500 139.321 L 162.500 148.500 M 162.500 139.321 L 172.000 139.321 M 162.500 148.500 L 162.500 139.321 M 181.500 139.321 L 181.500 148.500 M 181.500 148.500 L 172.000 148.500 M 181.500 139.321 L 191.000 139.321 M 191.000 148.500 L 181.500 148.500 M 181.500 148.500 L 181.500 139.321 M 191.000 139.321 L 200.500 139.321 M 200.500 139.321 L 200.500 148.500 M 200.500 139.321 L 210.000 139.321 M 200.500 148.500 L 200.500 139.321 M 210.000 139.321 L 219.500 139.321 M 219.500 148.500 L 210.000 148.500 M 219.500 139.321 L 229.000 139.321 M 229.000 148.500 L 219.500 148.500 M 238.500 148.500 L 229.000 148.500 M 238.500 139.321 L 248.000 139.321 M 248.000 148.500 L 238.500 148.500 M 257.500 139.321 L 257.500 148.500 M 267.000 148.500 L 257.500 148.500 M 257.500 148.500 L 257.500 139.321 M 267.000 139.321 L 276.500 139.321 M 276.500 139.321 L 276.500 148.500 M 286.000 139.321 L 286.000 148.500 M 276.500 148.500 L 276.500 139.321 M 295.500 139.321 L 295.500 148.500 M 286.000 148.500 L 286.000 139.321 M 295.500 139.321 L 305.000 139.321 M 305.000 148.500 L 295.500 148.500 M 295.500 148.500 L 295.500 139.321 M 305.000 139.321 L 314.500 139.321 M 314.500 148.500 L 305.000 148.500 M 324.000 139.321 L 324.000 148.500 M 333.500 139.321 L 333.500 148.500 M 324.000 148.500 L 324.000 139.321 M 333.500 139.321 L 343.000 139.321 M 333.500 148.500 L 333.500 139.321 M 352.500 139.321 L 352.500 148.500 M 352.500 148.500 L 343.000 148.500 M 352.500 139.321 L 362.000 139.321 M 352.500 148.500 L 352.500 139.321 M 371.500 139.321 L 371.500 148.500 M 371.500 139.321 L 381.000 139.321 M 371.500 148.500 L 371.500 139.321 M 381.000 139.321 L 390.500 139.321 M 390.500 148.500 L 381.000 148.500 M 400.000 139.321 L 400.000 148.500 M 400.000 148.500 L 390.500 148.500 M 20.000 157.679 L 20.000 148.500 M 29.500 148.500 L 39.000 148.500 M 39.000 148.500 L 39.000 157.679 M 39.000 148.500 L 48.500 148.500 M 39.000 157.679 L 39.000 148.500 M 58.000 148.500 L 58.000 157.679 M 58.000 157.679 L 48.500 157.679 M 58.000 148.500 L 67.500 148.500 M 58.000 157.679 L 58.000 148.500 M 67.500 148.500 L 77.000 148.500 M 77.000 148.500 L 77.000 157.679 M 86.500 157.679 L 77.000 157.679 M 77.000 157.679 L 77.000 148.500 M 86.500 148.500 L 96.000 148.500 M 96.000 157.679 L 86.500 157.679 M 96.000 148.500 L 105.500 148.500 M 105.500 148.500 L 105.500 157.679 M 105.500 148.500 L 115.000 148.500 M 115.000 148.500 L 115.000 157.679 M 105.500 157.679 L 105.500 148.500 M 124.500 148.500 L 124.500 157.679 M 115.000 157.679 L 115.000 148.500 M 124.500 148.500 L 134.000 148.500 M 134.000 157.679 L 124.500 157.679 M 124.500 157.679 L 124.500 148.500 M 134.000 148.500 L 143.500 148.500 M 143.500 157.679 L 134.000 157.679 M 143.500 148.500 L 153.000 148.500 M 162.500 148.500 L 162.500 157.679 M 162.500 157.679 L 153.000 157.679 M 172.000 157.679 L 162.500 157.679 M 162.500 157.679 L 162.500 148.500 M 172.000 148.500 L 181.500 148.500 M 181.500 157.679 L 172.000 157.679 M 181.500 148.500 L 191.000 148.500 M 191.000 148.500 L 191.000 157.679 M 191.000 157.679 L 191.000 148.500 M 210.000 157.679 L 200.500 157.679 M 210.000 148.500 L 219.500 148.500 M 219.500 157.679 L 210.000 157.679 M 219.500 148.500 L 229.000 148.500 M 229.000 148.500 L 229.000 157.679 M 229.000 157.679 L 219.500 157.679 M 229.000 148.500 L 238.500 148.500 M 229.000 157.679 L 229.000 148.500 M 238.500 148.500 L 248.000 148.500 M 248.000 148.500 L 248.000 157.679 M 257.500 157.679 L 248.000 157.679 M 248.000 157.679 L 248.000 148.500 M 257.500 148.500 L 267.000 148.500 M 267.000 157.679 L 257.500 157.679 M 276.500 148.500 L 276.500 157.679 M 276.500 157.679 L 267.000 157.679 M 286.000 148.500 L 286.000 157.679 M 286.000 157.679 L 276.500 157.679 M 276.500 157.679 L 276.500 148.500 M 295.500 157.679 L 286.000 157.679 M 286.000 157.679 L 286.000 148.500 M 295.500 148.500 L 305.000 148.500 M 305.000 148.500 L 314.500 148.500 M 314.500 148.500 L 314.500 157.679 M 324.000 148.500 L 324.000 157.679 M 324.000 157.679 L 314.500 157.679 M 314.500 157.679 L 314.500 148.500 M 333.500 157.679 L 324.000 157.679 M 324.000 157.679 L 324.000 148.500 M 343.000 148.500 L 343.000 157.679 M 343.000 148.500 L 352.500 148.500 M 343.000 157.679 L 343.000 148.500 M 362.000 148.500 L 362.000 157.679 M 362.000 157.679 L 352.500 157.679 M 371.500 148.500 L 371.500 157.679 M 362.000 157.679 L 362.000 148.500 M 381.000 148.500 L 381.000 157.679 M 371.500 157.679 L 371.500 148.500 M 381.000 148.500 L 390.500 148.500 M 381.000 157.679 L 381.000 148.500 M 390.500 148.500 L 400.000 148.500 M 400.000 148.500 L 400.000 157.679 M 29.500 157.679 L 29.500 166.857 M 20.000 166.857 L 20.000 157.679 M 39.000 157.679 L 39.000 166.857 M 29.500 166.857 L 29.500 157.679 M 48.500 166.857 L 39.000 166.857 M 39.000 166.857 L 39.000 157.679 M 48.500 157.679 L 58.000 157.679 M 58.000 166.857 L 48.500 166.857 M 67.500 157.679 L 67.500 166.857 M 67.500 166.857 L 58.000 166.857 M 77.000 166.857 L 67.500 166.857 M 67.500 166.857 L 67.500 157.679 M 77.000 157.679 L 86.500 157.679 M 86.500 166.857 L 77.000 166.857 M 86.500 157.679 L 96.000 157.679 M 96.000 166.857 L 86.500 166.857 M 105.500 157.679 L 105.500 166.857 M 105.500 166.857 L 96.000 166.857 M 115.000 157.679 L 115.000 166.857 M 105.500 166.857 L 105.500 157.679 M 124.500 166.857 L 115.000 166.857 M 115.000 166.857 L 115.000 157.679 M 124.500 157.679 L 134.000 157.679 M 134.000 166.857 L 124.500 166.857 M 134.000 157.679 L 143.500 157.679 M 143.500 157.679 L 143.500 166.857 M 153.000 166.857 L 143.500 166.857 M 143.500 166.857 L 143.500 157.679 M 153.000 157.679 L 162.500 157.679 M 162.500 157.679 L 162.500 166.857 M 162.500 157.679 L 172.000 157.679 M 172.000 157.679 L 172.000 166.857 M 162.500 166.857 L 162.500 157.679 M 172.000 157.679 L 181.500 157.679 M 172.000 166.857 L 172.000 157.679 M 191.000 157.679 L 191.000 166.857 M 191.000 166.857 L 181.500 166.857 M 200.500 166.857 L 191.000 166.857 M 191.000 166.857 L 191.000 157.679 M 200.500 157.679 L 210.000 157.679 M 210.000 157.679 L 210.000 166.857 M 210.000 166.857 L 200.500 166.857 M 210.000 157.679 L 219.500 157.679 M 210.000 166.857 L 210.000 157.679 M 219.500 157.679 L 229.000 157.679 M 229.000 166.857 L 219.500 166.857 M 238.500 157.679 L 238.500 166.857 M 238.500 166.857 L 229.000 166.857 M 248.000 157.679 L 248.000 166.857 M 238.500 166.857 L 238.500 157.679 M 248.000 157.679 L 257.500 157.679 M 257.500 166.857 L 248.000 166.857 M 248.000 166.857 L 248.000 157.679 M 257.500 157.679 L 267.000 157.679 M 267.000 166.857 L 257.500 166.857 M 267.000 157.679 L 276.500 157.679 M 276.500 157.679 L 286.000 157.679 M 286.000 166.857 L 276.500 166.857 M 286.000 157.679 L 295.500 157.679 M 295.500 157.679 L 295.500 166.857 M 305.000 157.679 L 305.000 166.857 M 305.000 166.857 L 295.500 166.857 M 295.500 166.857 L 295.500 157.679 M 314.500 157.679 L 314.500 166.857 M 305.000 166.857 L 305.000 157.679 M 314.500 157.679 L 324.000 157.679 M 314.500 166.857 L 314.500 157.679 M 324.000 157.679 L 333.500 157.679 M 333.500 166.857 L 324.000 166.857 M 343.000 157.679 L 343.000 166.857 M 343.000 166.857 L 333.500 166.857 M 352.500 166.857 L 343.000 166.857 M 343.000 166.857 L 343.000 157.679 M 352.500 157.679 L 362.000 157.679 M 362.000 157.679 L 362.000 166.857 M 371.500 157.679 L 371.500 166.857 M 371.500 166.857 L 362.000 166.857 M 362.000 166.857 L 362.000 157.679 M 381.000 166.857 L 371.500 166.857 M 371.500 166.857 L 371.500 157.679 M 390.500 157.679 L 390.500 166.857 M 390.500 166.857 L 381.000 166.857 M 400.000 157.679 L 400.000 166.857 M 390.500 166.857 L 390.500 157.679 M 29.500 166.857 L 29.500 176.036 M 20.000 176.036 L 20.000 166.857 M 39.000 176.036 L 29.500 176.036 M 29.500 176.036 L 29.500 166.857 M 39.000 166.857 L 48.500 166.857 M 48.500 166.857 L 58.000 166.857 M 58.000 176.036 L 48.500 176.036 M 58.000 166.857 L 67.500 166.857 M 67.500 166.857 L 67.500 176.036 M 67.500 166.857 L 77.000 166.857 M 77.000 176.036 L 67.500 176.036 M 67.500 176.036 L 67.500 166.857 M 77.000 166.857 L 86.500 166.857 M 86.500 176.036 L 77.000 176.036 M 86.500 166.857 L 96.000 166.857 M 96.000 166.857 L 105.500 166.857 M 105.500 176.036 L 96.000 176.036 M 115.000 166.857 L 115.000 176.036 M 115.000 166.857 L 124.500 166.857 M 115.000 176.036 L 115.000 166.857 M 124.500 166.857 L 134.000 166.857 M 134.000 166.857 L 134.000 176.036 M 143.500 176.036 L 134.000 176.036 M 134.000 176.036 L 134.000 166.857 M 143.500 166.857 L 153.000 166.857 M 153.000 166.857 L 153.000 176.036 M 162.500 176.036 L 153.000 176.036 M 153.000 176.036 L 153.000 166.857 M 172.000 166.857 L 172.000 176.036 M 172.000 176.036 L 162.500 176.036 M 181.500 166.857 L 181.500 176.036 M 172.000 176.036 L 172.000 166.857 M 181.500 166.857 L 191.000 166.857 M 181.500 176.036 L 181.500 166.857 M 191.000 166.857 L 200.500 166.857 M 200.500 176.036 L 191.000 176.036 M 200.500 166.857 L 210.000 166.857 M 210.000 176.036 L 200.500 176.036 M 219.500 176.036 L 210.000 176.036 M 219.500 166.857 L 229.000 166.857 M 229.000 176.036 L 219.500 176.036 M 229.000 166.857 L 238.500 166.857 M 238.500 166.857 L 238.500 176.036 M 238.500 176.036 L 229.000 176.036 M 248.000 166.857 L 248.000 176.036 M 238.500 176.036 L 238.500 166.857 M 248.000 166.857 L 257.500 166.857 M 248.000 176.036 L 248.000 166.857 M 257.500 166.857 L 267.000 166.857 M 267.000 176.036 L 257.500 176.036 M 276.500 166.857 L 276.500 176.036 M 276.500 166.857 L 286.000 166.857 M 286.000 176.036 L 276.500 176.036 M 276.500 176.036 L 276.500 166.857 M 295.500 176.036 L 286.000 176.036 M 295.500 166.857 L 305.000 166.857 M 305.000 176.036 L 295.500 176.036 M 314.500 166.857 L 314.500 176.036 M 324.000 176.036 L 314.500 176.036 M 314.500 176.036 L 314.500 166.857 M 324.000 166.857 L 333.500 166.857 M 333.500 166.857 L 333.500 176.036 M 333.500 166.857 L 343.000 166.857 M 343.000 176.036 L 333.500 176.036 M 333.500 176.036 L 333.500 166.857 M 343.000 166.857 L 352.500 166.857 M 352.500 166.857 L 352.500 176.036 M 362.000 176.036 L 352.500 176.036 M 352.500 176.036 L 352.500 166.857 M 362.000 166.857 L 371.500 166.857 M 371.500 176.036 L 362.000 176.036 M 371.500 166.857 L 381.000 166.857 M 381.000 166.857 L 381.000 176.036 M 381.000 166.857 L 390.500 166.857 M 381.000 176.036 L 381.000 166.857 M 400.000 166.857 L 400.000 176.036 M 400.000 176.036 L 390.500 176.036 M 29.500 176.036 L 29.500 185.214 M 29.500 185.214 L 20.000 185.214 M 20.000 185.214 L 20.000 176.036 M 29.500 176.036 L 39.000 176.036 M 29.500 185.214 L 29.500 176.036 M 48.500 176.036 L 48.500 185.214 M 48.500 185.214 L 39.000 185.214 M 48.500 176.036 L 58.000 176.036 M 58.000 185.214 L 48.500 185.214 M 48.500 185.214 L 48.500 176.036 M 67.500 185.214 L 58.000 185.214 M 67.500 176.036 L 77.000 176.036 M 77.000 185.214 L 67.500 185.214 M 77.000 176.036 L 86.500 176.036 M 86.500 185.214 L 77.000 185.214 M 96.000 176.036 L 96.000 185.214 M 96.000 185.214 L 86.500 185.214 M 96.000 176.036 L 105.500 176.036 M 96.000 185.214 L 96.000 176.036 M 115.000 176.036 L 115.000 185.214 M 115.000 185.214 L 105.500 185.214 M 124.500 176.036 L 124.500 185.214 M 115.000 185.214 L 115.000 176.036 M 134.000 185.214 L 124.500 185.214 M 124.500 185.214 L 124.500 176.036 M 134.000 176.036 L 143.500 176.036 M 143.500 176.036 L 143.500 185.214 M 153.000 185.214 L 143.500 185.214 M 143.500 185.214 L 143.500 176.036 M 153.000 176.036 L 162.500 176.036 M 162.500 185.214 L 153.000 185.214 M 162.500 176.036 L 172.000 176.036 M 172.000 176.036 L 172.000 185.214 M 172.000 185.214 L 172.000 176.036 M 191.000 176.036 L 191.000 185.214 M 191.000 185.214 L 181.500 185.214 M 191.000 176.036 L 200.500 176.036 M 191.000 185.214 L 191.000 176.036 M 200.500 176.036 L 210.000 176.036 M 210.000 176.036 L 210.000 185.214 M 210.000 185.214 L 200.500 185.214 M 210.000 176.036 L 219.500 176.036 M 210.000 185.214 L 210.000 176.036 M 219.500 176.036 L 229.000 176.036 M 229.000 185.214 L 219.500 185.214 M 229.000 176.036 L 238.500 176.036 M 238.500 185.214 L 229.000 185.214 M 248.000 176.036 L 248.000 185.214 M 248.000 185.214 L 238.500 185.214 M 257.500 176.036 L 257.500 185.214 M 248.000 185.214 L 248.000 176.036 M 257.500 176.036 L 267.000 176.036 M 267.000 185.214 L 257.500 185.214 M 257.500 185.214 L 257.500 176.036 M 276.500 176.036 L 276.500 185.214 M 276.500 185.214 L 267.000 185.214 M 276.500 176.036 L 286.000 176.036 M 276.500 185.214 L 276.500 176.036 M 286.000 176.036 L 295.500 176.036 M 295.500 176.036 L 295.500 185.214 M 295.500 176.036 L 305.000 176.036 M 305.000 185.214 L 295.500 185.214 M 295.500 185.214 L 295.500 176.036 M 314.500 185.214 L 305.000 185.214 M 314.500 176.036 L 324.000 176.036 M 324.000 176.036 L 324.000 185.214 M 333.500 185.214 L 324.000 185.214 M 324.000 185.214 L 324.000 176.036 M 333.500 176.036 L 343.000 176.036 M 343.000 176.036 L 343.000 185.214 M 343.000 185.214 L 343.000 176.036 M 352.500 176.036 L 362.000 176.036 M 362.000 176.036 L 362.000 185.214 M 362.000 176.036 L 371.500 176.036 M 371.500 176.036 L 371.500 185.214 M 362.000 185.214 L 362.000 176.036 M 381.000 176.036 L 381.000 185.214 M 371.500 185.214 L 371.500 176.036 M 390.500 185.214 L 381.000 185.214 M 381.000 185.214 L 381.000 176.036 M 390.500 176.036 L 400.000 176.036 M 400.000 176.036 L 400.000 185.214 M 20.000 185.214 L 29.500 185.214 M 20.000 194.393 L 20.000 185.214 M 39.000 185.214 L 39.000 194.393 M 39.000 185.214 L 48.500 185.214 M 39.000 194.393 L 39.000 185.214 M 48.500 185.214 L 58.000 185.214 M 58.000 194.393 L 48.500 194.393 M 58.000 185.214 L 67.500 185.214 M 67.500 194.393 L 58.000 194.393 M 67.500 185.214 L 77.000 185.214 M 77.000 185.214 L 77.000 194.393 M 77.000 185.214 L 86.500 185.214 M 86.500 194.393 L 77.000 194.393 M 77.000 194.393 L 77.000 185.214 M 86.500 185.214 L 96.000 185.214 M 96.000 194.393 L 86.500 194.393 M 105.500 185.214 L 105.500 194.393 M 105.500 194.393 L 96.000 194.393 M 105.500 185.214 L 115.000 185.214 M 105.500 194.393 L 105.500 185.214 M 124.500 194.393 L 115.000 194.393 M 124.500 185.214 L 134.000 185.214 M 134.000 185.214 L 134.000 194.393 M 134.000 194.393 L 124.500 194.393 M 134.000 194.393 L 134.000 185.214 M 143.500 185.214 L 153.000 185.214 M 153.000 194.393 L 143.500 194.393 M 153.000 185.214 L 162.500 185.214 M 162.500 185.214 L 162.500 194.393 M 162.500 194.393 L 153.000 194.393 M 172.000 185.214 L 172.000 194.393 M 162.500 194.393 L 162.500 185.214 M 172.000 194.393 L 172.000 185.214 M 181.500 185.214 L 191.000 185.214 M 191.000 194.393 L 181.500 194.393 M 200.500 185.214 L 200.500 194.393 M 200.500 194.393 L 191.000 194.393 M 200.500 185.214 L 210.000 185.214 M 200.500 194.393 L 200.500 185.214 M 219.500 185.214 L 219.500 194.393 M 219.500 194.393 L 210.000 194.393 M 219.500 185.214 L 229.000 185.214 M 219.500 194.393 L 219.500 185.214 M 229.000 185.214 L 238.500 185.214 M 238.500 185.214 L 238.500 194.393 M 238.500 194.393 L 229.000 194.393 M 238.500 185.214 L 248.000 185.214 M 238.500 194.393 L 238.500 185.214 M 257.500 194.393 L 248.000 194.393 M 257.500 185.214 L 267.000 185.214 M 267.000 194.393 L 257.500 194.393 M 267.000 185.214 L 276.500 185.214 M 276.500 185.214 L 276.500 194.393 M 286.000 185.214 L 286.000 194.393 M 276.500 194.393 L 276.500 185.214 M 295.500 194.393 L 286.000 194.393 M 286.000 194.393 L 286.000 185.214 M 295.500 185.214 L 305.000 185.214 M 305.000 194.393 L 295.500 194.393 M 305.000 185.214 L 314.500 185.214 M 314.500 185.214 L 314.500 194.393 M 324.000 185.214 L 324.000 194.393 M 314.500 194.393 L 314.500 185.214 M 324.000 185.214 L 333.500 185.214 M 324.000 194.393 L 324.000 185.214 M 343.000 185.214 L 343.000 194.393 M 343.000 194.393 L 333.500 194.393 M 352.500 185.214 L 352.500 194.393 M 343.000 194.393 L 343.000 185.214 M 362.000 185.214 L 362.000 194.393 M 352.500 194.393 L 352.500 185.214 M 371.500 185.214 L 371.500 194.393 M 362.000 194.393 L 362.000 185.214 M 381.000 194.393 L 371.500 194.393 M 371.500 194.393 L 371.500 185.214 M 381.000 185.214 L 390.500 185.214 M 390.500 194.393 L 381.000 194.393 M 400.000 185.214 L 400.000 194.393 M 400.000 194.393 L 390.500 194.393 M 29.500 194.393 L 29.500 203.571 M 20.000 203.571 L 20.000 194.393 M 39.000 194.393 L 39.000 203.571 M 29.500 203.571 L 29.500 194.393 M 48.500 203.571 L 39.000 203.571 M 39.000 203.571 L 39.000 194.393 M 48.500 194.393 L 58.000 194.393 M 58.000 194.393 L 58.000 203.571 M 58.000 194.393 L 67.500 194.393 M 67.500 194.393 L 67.500 203.571 M 58.000 203.571 L 58.000 194.393 M 77.000 203.571 L 67.500 203.571 M 67.500 203.571 L 67.500 194.393 M 77.000 194.393 L 86.500 194.393 M 86.500 203.571 L 77.000 203.571 M 86.500 194.393 L 96.000 194.393 M 96.000 194.393 L 96.000 203.571 M 96.000 194.393 L 105.500 194.393 M 96.000 203.571 L 96.000 194.393 M 115.000 203.571 L 105.500 203.571 M 115.000 194.393 L 124.500 194.393 M 124.500 194.393 L 124.500 203.571 M 124.500 203.571 L 115.000 203.571 M 124.500 194.393 L 134.000 194.393 M 124.500 203.571 L 124.500 194.393 M 143.500 194.393 L 143.500 203.571 M 143.500 203.571 L 134.000 203.571 M 143.500 194.393 L 153.000 194.393 M 143.500 203.571 L 143.500 194.393 M 153.000 194.393 L 162.500 194.393 M 162.500 203.571 L 153.000 203.571 M 172.000 194.393 L 172.000 203.571 M 172.000 203.571 L 162.500 203.571 M 181.500 194.393 L 181.500 203.571 M 181.500 203.571 L 172.000 203.571 M 172.000 203.571 L 172.000 194.393 M 181.500 194.393 L 191.000 194.393 M 181.500 203.571 L 181.500 194.393 M 191.000 194.393 L 200.500 194.393 M 200.500 203.571 L 191.000 203.571 M 210.000 194.393 L 210.000 203.571 M 210.000 203.571 L 200.500 203.571 M 210.000 194.393 L 219.500 194.393 M 210.000 203.571 L 210.000 194.393 M 229.000 194.393 L 229.000 203.571 M 229.000 194.393 L 238.500 194.393 M 229.000 203.571 L 229.000 194.393 M 248.000 194.393 L 248.000 203.571 M 248.000 203.571 L 238.500 203.571 M 248.000 194.393 L 257.500 194.393 M 248.000 203.571 L 248.000 194.393 M 257.500 194.393 L 267.000 194.393 M 267.000 194.393 L 267.000 203.571 M 267.000 203.571 L 257.500 203.571 M 276.500 203.571 L 267.000 203.571 M 267.000 203.571 L 267.000 194.393 M 286.000 194.393 L 286.000 203.571 M 286.000 203.571 L 276.500 203.571 M 286.000 194.393 L 295.500 194.393 M 286.000 203.571 L 286.000 194.393 M 295.500 194.393 L 305.000 194.393 M 305.000 203.571 L 295.500 203.571 M 314.500 194.393 L 314.500 203.571 M 314.500 203.571 L 305.000 203.571 M 324.000 194.393 L 324.000 203.571 M 314.500 203.571 L 314.500 194.393 M 333.500 194.393 L 333.500 203.571 M 324.000 203.571 L 324.000 194.393 M 333.500 194.393 L 343.000 194.393 M 333.500 203.571 L 333.500 194.393 M 352.500 194.393 L 352.500 203.571 M 352.500 203.571 L 343.000 203.571 M 362.000 194.393 L 362.000 203.571 M 352.500 203.571 L 352.500 194.393 M 362.000 203.571 L 362.000 194.393 M 371.500 194.393 L 381.000 194.393 M 381.000 203.571 L 371.500 203.571 M 381.000 194.393 L 390.500 194.393 M 390.500 203.571 L 381.000 203.571 M 390.500 194.393 L 400.000 194.393 M 400.000 194.393 L 400.000 203.571 M 400.000 203.571 L 390.500 203.571 M 29.500 203.571 L 29.500 212.750 M 20.000 212.750 L 20.000 203.571 M 39.000 212.750 L 29.500 212.750 M 29.500 212.750 L 29.500 203.571 M 39.000 203.571 L 48.500 203.571 M 48.500 203.571 L 48.500 212.750 M 48.500 212.750 L 39.000 212.750 M 58.000 203.571 L 58.000 212.750 M 48.500 212.750 L 48.500 203.571 M 58.000 212.750 L 58.000 203.571 M 67.500 203.571 L 77.000 203.571 M 77.000 212.750 L 67.500 212.750 M 77.000 203.571 L 86.500 203.571 M 86.500 203.571 L 86.500 212.750 M 86.500 212.750 L 77.000 212.750 M 96.000 212.750 L 86.500 212.750 M 86.500 212.750 L 86.500 203.571 M 105.500 203.571 L 105.500 212.750 M 105.500 212.750 L 96.000 212.750 M 105.500 203.571 L 115.000 203.571 M 105.500 212.750 L 105.500 203.571 M 115.000 203.571 L 124.500 203.571 M 124.500 212.750 L 115.000 212.750 M 134.000 203.571 L 134.000 212.750 M 134.000 212.750 L 124.500 212.750 M 134.000 203.571 L 143.500 203.571 M 134.000 212.750 L 134.000 203.571 M 153.000 203.571 L 153.000 212.750 M 153.000 212.750 L 143.500 212.750 M 153.000 203.571 L 162.500 203.571 M 153.000 212.750 L 153.000 203.571 M 162.500 203.571 L 172.000 203.571 M 172.000 212.750 L 162.500 212.750 M 172.000 203.571 L 181.500 203.571 M 181.500 203.571 L 181.500 212.750 M 181.500 212.750 L 181.500 203.571 M 191.000 203.571 L 200.500 203.571 M 200.500 203.571 L 200.500 212.750 M 200.500 203.571 L 210.000 203.571 M 200.500 212.750 L 200.500 203.571 M 219.500 203.571 L 219.500 212.750 M 219.500 212.750 L 210.000 212.750 M 229.000 212.750 L 219.500 212.750 M 219.500 212.750 L 219.500 203.571 M 238.500 203.571 L 238.500 212.750 M 238.500 212.750 L 229.000 212.750 M 238.500 203.571 L 248.000 203.571 M 248.000 212.750 L 238.500 212.750 M 238.500 212.750 L 238.500 203.571 M 257.500 212.750 L 248.000 212.750 M 257.500 203.571 L 267.000 203.571 M 267.000 212.750 L 257.500 212.750 M 267.000 203.571 L 276.500 203.571 M 276.500 212.750 L 267.000 212.750 M 276.500 203.571 L 286.000 203.571 M 286.000 203.571 L 286.000 212.750 M 295.500 203.571 L 295.500 212.750 M 286.000 212.750 L 286.000 203.571 M 295.500 203.571 L 305.000 203.571 M 295.500 212.750 L 295.500 203.571 M 305.000 203.571 L 314.500 203.571 M 314.500 212.750 L 305.000 212.750 M 324.000 203.571 L 324.000 212.750 M 324.000 212.750 L 314.500 212.750 M 333.500 212.750 L 324.000 212.750 M 324.000 212.750 L 324.000 203.571 M 343.000 203.571 L 343.000 212.750 M 343.000 212.750 L 333.500 212.750 M 343.000 203.571 L 352.500 203.571 M 343.000 212.750 L 343.000 203.571 M 362.000 203.571 L 362.000 212.750 M 362.000 212.750 L 352.500 212.750 M 362.000 212.750 L 362.000 203.571 M 371.500 203.571 L 381.000 203.571 M 381.000 212.750 L 371.500 212.750 M 381.000 203.571 L 390.500 203.571 M 390.500 212.750 L 381.000 212.750 M 390.500 203.571 L 400.000 203.571 M 400.000 203.571 L 400.000 212.750 M 20.000 221.929 L 20.000 212.750 M 29.500 212.750 L 39.000 212.750 M 39.000 221.929 L 29.500 221.929 M 39.000 212.750 L 48.500 212.750 M 48.500 221.929 L 39.000 221.929 M 58.000 212.750 L 58.000 221.929 M 58.000 221.929 L 48.500 221.929 M 67.500 212.750 L 67.500 221.929 M 58.000 221.929 L 58.000 212.750 M 67.500 212.750 L 77.000 212.750 M 67.500 221.929 L 67.500 212.750 M 77.000 212.750 L 86.500 212.750 M 86.500 221.929 L 77.000 221.929 M 86.500 212.750 L 96.000 212.750 M 96.000 221.929 L 86.500 221.929 M 96.000 212.750 L 105.500 212.750 M 105.500 221.929 L 96.000 221.929 M 115.000 212.750 L 115.000 221.929 M 115.000 212.750 L 124.500 212.750 M 115.000 221.929 L 115.000 212.750 M 124.500 212.750 L 134.000 212.750 M 134.000 212.750 L 134.000 221.929 M 143.500 221.929 L 134.000 221.929 M 134.000 221.929 L 134.000 212.750 M 143.500 212.750 L 153.000 212.750 M 153.000 221.929 L 143.500 221.929 M 162.500 212.750 L 162.500 221.929 M 162.500 221.929 L 153.000 221.929 M 162.500 212.750 L 172.000 212.750 M 172.000 212.750 L 172.000 221.929 M 162.500 221.929 L 162.500 212.750 M 181.500 212.750 L 181.500 221.929 M 172.000 221.929 L 172.000 212.750 M 191.000 212.750 L 191.000 221.929 M 191.000 221.929 L 181.500 221.929 M 181.500 221.929 L 181.500 212.750 M 200.500 212.750 L 200.500 221.929 M 191.000 221.929 L 191.000 212.750 M 210.000 212.750 L 210.000 221.929 M 200.500 221.929 L 200.500 212.750 M 210.000 212.750 L 219.500 212.750 M 210.000 221.929 L 210.000 212.750 M 219.500 212.750 L 229.000 212.750 M 229.000 221.929 L 219.500 221.929 M 229.000 212.750 L 238.500 212.750 M 238.500 212.750 L 248.000 212.750 M 248.000 221.929 L 238.500 221.929 M 248.000 212.750 L 257.500 212.750 M 257.500 221.929 L 248.000 221.929 M 257.500 212.750 L 267.000 212.750 M 267.000 221.929 L 257.500 221.929 M 267.000 212.750 L 276.500 212.750 M 276.500 212.750 L 276.500 221.929 M 286.000 212.750 L 286.000 221.929 M 276.500 221.929 L 276.500 212.750 M 295.500 212.750 L 295.500 221.929 M 286.000 221.929 L 286.000 212.750 M 305.000 221.929 L 295.500 221.929 M 295.500 221.929 L 295.500 212.750 M 305.000 212.750 L 314.500 212.750 M 314.500 221.929 L 305.000 221.929 M 314.500 212.750 L 324.000 212.750 M 324.000 221.929 L 314.500 221.929 M 324.000 212.750 L 333.500 212.750 M 333.500 212.750 L 333.500 221.929 M 333.500 212.750 L 343.000 212.750 M 343.000 212.750 L 343.000 221.929 M 333.500 221.929 L 333.500 212.750 M 352.500 221.929 L 343.000 221.929 M 343.000 221.929 L 343.000 212.750 M 352.500 212.750 L 362.000 212.750 M 362.000 212.750 L 362.000 221.929 M 371.500 221.929 L 362.000 221.929 M 362.000 221.929 L 362.000 212.750 M 371.500 212.750 L 381.000 212.750 M 381.000 221.929 L 371.500 221.929 M 381.000 212.750 L 390.500 212.750 M 390.500 212.750 L 390.500 221.929 M 390.500 221.929 L 381.000 221.929 M 400.000 212.750 L 400.000 221.929 M 390.500 221.929 L 390.500 212.750 M 29.500 221.929 L 29.500 231.107 M 20.000 231.107 L 20.000 221.929 M 29.500 221.929 L 39.000 221.929 M 39.000 231.107 L 29.500 231.107 M 29.500 231.107 L 29.500 221.929 M 39.000 221.929 L 48.500 221.929 M 48.500 231.107 L 39.000 231.107 M 48.500 221.929 L 58.000 221.929 M 67.500 221.929 L 67.500 231.107 M 77.000 221.929 L 77.000 231.107 M 67.500 231.107 L 67.500 221.929 M 77.000 221.929 L 86.500 221.929 M 77.000 231.107 L 77.000 221.929 M 86.500 221.929 L 96.000 221.929 M 96.000 221.929 L 96.000 231.107 M 96.000 221.929 L 105.500 221.929 M 105.500 231.107 L 96.000 231.107 M 96.000 231.107 L 96.000 221.929 M 115.000 221.929 L 115.000 231.107 M 124.500 221.929 L 124.500 231.107 M 115.000 231.107 L 115.000 221.929 M 134.000 231.107 L 124.500 231.107 M 124.500 231.107 L 124.500 221.929 M 134.000 221.929 L 143.500 221.929 M 143.500 231.107 L 134.000 231.107 M 143.500 221.929 L 153.000 221.929 M 153.000 231.107 L 143.500 231.107 M 153.000 221.929 L 162.500 221.929 M 162.500 231.107 L 153.000 231.107 M 172.000 221.929 L 172.000 231.107 M 181.500 231.107 L 172.000 231.107 M 172.000 231.107 L 172.000 221.929 M 181.500 221.929 L 191.000 221.929 M 191.000 231.107 L 181.500 231.107 M 200.500 221.929 L 200.500 231.107 M 200.500 231.107 L 191.000 231.107 M 210.000 221.929 L 210.000 231.107 M 200.500 231.107 L 200.500 221.929 M 219.500 231.107 L 210.000 231.107 M 210.000 231.107 L 210.000 221.929 M 219.500 221.929 L 229.000 221.929 M 229.000 221.929 L 229.000 231.107 M 229.000 231.107 L 219.500 231.107 M 238.500 221.929 L 238.500 231.107 M 229.000 231.107 L 229.000 221.929 M 238.500 221.929 L 248.000 221.929 M 238.500 231.107 L 238.500 221.929 M 248.000 221.929 L 257.500 221.929 M 257.500 231.107 L 248.000 231.107 M 257.500 221.929 L 267.000 221.929 M 267.000 221.929 L 267.000 231.107 M 276.500 221.929 L 276.500 231.107 M 267.000 231.107 L 267.000 221.929 M 286.000 221.929 L 286.000 231.107 M 276.500 231.107 L 276.500 221.929 M 295.500 231.107 L 286.000 231.107 M 286.000 231.107 L 286.000 221.929 M 295.500 221.929 L 305.000 221.929 M 305.000 221.929 L 305.000 231.107 M 305.000 221.929 L 314.500 221.929 M 305.000 231.107 L 305.000 221.929 M 314.500 221.929 L 324.000 221.929 M 324.000 221.929 L 324.000 231.107 M 333.500 221.929 L 333.500 231.107 M 324.000 231.107 L 324.000 221.929 M 333.500 231.107 L 333.500 221.929 M 343.000 221.929 L 352.500 221.929 M 352.500 221.929 L 352.500 231.107 M 352.500 231.107 L 343.000 231.107 M 362.000 231.107 L 352.500 231.107 M 352.500 231.107 L 352.500 221.929 M 362.000 221.929 L 371.500 221.929 M 371.500 221.929 L 371.500 231.107 M 371.500 221.929 L 381.000 221.929 M 371.500 231.107 L 371.500 221.929 M 381.000 221.929 L 390.500 221.929 M 390.500 221.929 L 390.500 231.107 M 400.000 221.929 L 400.000 231.107 M 390.500 231.107 L 390.500 221.929 M 29.500 240.286 L 20.000 240.286 M 20.000 240.286 L 20.000 231.107 M 29.500 231.107 L 39.000 231.107 M 39.000 240.286 L 29.500 240.286 M 39.000 231.107 L 48.500 231.107 M 48.500 231.107 L 48.500 240.286 M 58.000 231.107 L 58.000 240.286 M 48.500 240.286 L 48.500 231.107 M 67.500 231.107 L 67.500 240.286 M 58.000 240.286 L 58.000 231.107 M 77.000 231.107 L 77.000 240.286 M 67.500 240.286 L 67.500 231.107 M 86.500 231.107 L 86.500 240.286 M 77.000 240.286 L 77.000 231.107 M 96.000 240.286 L 86.500 240.286 M 86.500 240.286 L 86.500 231.107 M 96.000 231.107 L 105.500 231.107 M 105.500 231.107 L 105.500 240.286 M 115.000 231.107 L 115.000 240.286 M 105.500 240.286 L 105.500 231.107 M 124.500 231.107 L 124.500 240.286 M 115.000 240.286 L 115.000 231.107 M 124.500 231.107 L 134.000 231.107 M 124.500 240.286 L 124.500 231.107 M 134.000 231.107 L 143.500 231.107 M 143.500 240.286 L 134.000 240.286 M 143.500 231.107 L 153.000 231.107 M 153.000 240.286 L 143.500 240.286 M 153.000 231.107 L 162.500 231.107 M 162.500 231.107 L 162.500 240.286 M 162.500 240.286 L 153.000 240.286 M 172.000 240.286 L 162.500 240.286 M 162.500 240.286 L 162.500 231.107 M 172.000 231.107 L 181.500 231.107 M 181.500 240.286 L 172.000 240.286 M 181.500 231.107 L 191.000 231.107 M 191.000 240.286 L 181.500 240.286 M 191.000 231.107 L 200.500 231.107 M 200.500 231.107 L 200.500 240.286 M 210.000 240.286 L 200.500 240.286 M 200.500 240.286 L 200.500 231.107 M 210.000 231.107 L 219.500 231.107 M 219.500 240.286 L 210.000 240.286 M 219.500 231.107 L 229.000 231.107 M 229.000 231.107 L 229.000 240.286 M 238.500 231.107 L 238.500 240.286 M 229.000 240.286 L 229.000 231.107 M 248.000 231.107 L 248.000 240.286 M 238.500 240.286 L 238.500 231.107 M 248.000 231.107 L 257.500 231.107 M 248.000 240.286 L 248.000 231.107 M 267.000 231.107 L 267.000 240.286 M 267.000 240.286 L 257.500 240.286 M 276.500 231.107 L 276.500 240.286 M 267.000 240.286 L 267.000 231.107 M 286.000 240.286 L 276.500 240.286 M 276.500 240.286 L 276.500 231.107 M 286.000 231.107 L 295.500 231.107 M 295.500 231.107 L 295.500 240.286 M 305.000 231.107 L 305.000 240.286 M 295.500 240.286 L 295.500 231.107 M 314.500 231.107 L 314.500 240.286 M 305.000 240.286 L 305.000 231.107 M 324.000 231.107 L 324.000 240.286 M 314.500 240.286 L 314.500 231.107 M 333.500 240.286 L 324.000 240.286 M 324.000 240.286 L 324.000 231.107 M 343.000 231.107 L 343.000 240.286 M 343.000 240.286 L 333.500 240.286 M 343.000 231.107 L 352.500 231.107 M 343.000 240.286 L 343.000 231.107 M 352.500 231.107 L 362.000 231.107 M 362.000 231.107 L 362.000 240.286 M 371.500 240.286 L 362.000 240.286 M 362.000 240.286 L 362.000 231.107 M 381.000 231.107 L 381.000 240.286 M 381.000 240.286 L 371.500 240.286 M 390.500 240.286 L 381.000 240.286 M 381.000 240.286 L 381.000 231.107 M 400.000 231.107 L 400.000 240.286 M 20.000 240.286 L 29.500 240.286 M 20.000 249.464 L 20.000 240.286 M 29.500 240.286 L 39.000 240.286 M 39.000 240.286 L 39.000 249.464 M 48.500 249.464 L 39.000 249.464 M 39.000 249.464 L 39.000 240.286 M 58.000 240.286 L 58.000 249.464 M 58.000 249.464 L 48.500 249.464 M 67.500 240.286 L 67.500 249.464 M 58.000 249.464 L 58.000 240.286 M 77.000 249.464 L 67.500 249.464 M 67.500 249.464 L 67.500 240.286 M 86.500 240.286 L 86.500 249.464 M 86.500 249.464 L 77.000 249.464 M 86.500 240.286 L 96.000 240.286 M 96.000 240.286 L 96.000 249.464 M 86.500 249.464 L 86.500 240.286 M 105.500 240.286 L 105.500 249.464 M 96.000 249.464 L 96.000 240.286 M 115.000 240.286 L 115.000 249.464 M 105.500 249.464 L 105.500 240.286 M 124.500 240.286 L 124.500 249.464 M 115.000 249.464 L 115.000 240.286 M 134.000 249.464 L 124.500 249.464 M 124.500 249.464 L 124.500 240.286 M 134.000 240.286 L 143.500 240.286 M 143.500 240.286 L 153.000 240.286 M 153.000 249.464 L 143.500 249.464 M 153.000 240.286 L 162.500 240.286 M 162.500 249.464 L 153.000 249.464 M 162.500 240.286 L 172.000 240.286 M 172.000 249.464 L 162.500 249.464 M 172.000 240.286 L 181.500 240.286 M 181.500 240.286 L 191.000 240.286 M 191.000 240.286 L 191.000 249.464 M 200.500 240.286 L 200.500 249.464 M 191.000 249.464 L 191.000 240.286 M 200.500 240.286 L 210.000 240.286 M 200.500 249.464 L 200.500 240.286 M 210.000 240.286 L 219.500 240.286 M 219.500 249.464 L 210.000 249.464 M 229.000 240.286 L 229.000 249.464 M 229.000 249.464 L 219.500 249.464 M 238.500 240.286 L 238.500 249.464 M 229.000 249.464 L 229.000 240.286 M 248.000 240.286 L 248.000 249.464 M 238.500 249.464 L 238.500 240.286 M 257.500 249.464 L 248.000 249.464 M 248.000 249.464 L 248.000 240.286 M 257.500 240.286 L 267.000 240.286 M 267.000 240.286 L 267.000 249.464 M 267.000 249.464 L 257.500 249.464 M 276.500 240.286 L 276.500 249.464 M 267.000 249.464 L 267.000 240.286 M 276.500 240.286 L 286.000 240.286 M 276.500 249.464 L 276.500 240.286 M 295.500 240.286 L 295.500 249.464 M 305.000 240.286 L 305.000 249.464 M 295.500 249.464 L 295.500 240.286 M 314.500 240.286 L 314.500 249.464 M 305.000 249.464 L 305.000 240.286 M 324.000 249.464 L 314.500 249.464 M 314.500 249.464 L 314.500 240.286 M 324.000 240.286 L 333.500 240.286 M 333.500 240.286 L 333.500 249.464 M 333.500 240.286 L 343.000 240.286 M 333.500 249.464 L 333.500 240.286 M 352.500 240.286 L 352.500 249.464 M 352.500 249.464 L 343.000 249.464 M 362.000 249.464 L 352.500 249.464 M 352.500 249.464 L 352.500 240.286 M 362.000 240.286 L 371.500 240.286 M 371.500 249.464 L 362.000 249.464 M 371.500 240.286 L 381.000 240.286 M 381.000 240.286 L 390.500 240.286 M 390.500 240.286 L 390.500 249.464 M 390.500 249.464 L 381.000 249.464 M 400.000 240.286 L 400.000 249.464 M 390.500 249.464 L 390.500 240.286 M 29.500 249.464 L 29.500 258.643 M 29.500 258.643 L 20.000 258.643 M 20.000 258.643 L 20.000 249.464 M 29.500 258.643 L 29.500 249.464 M 39.000 249.464 L 48.500 249.464 M 48.500 249.464 L 48.500 258.643 M 48.500 249.464 L 58.000 249.464 M 48.500 258.643 L 48.500 249.464 M 67.500 249.464 L 67.500 258.643 M 67.500 258.643 L 58.000 258.643 M 67.500 249.464 L 77.000 249.464 M 67.500 258.643 L 67.500 249.464 M 77.000 249.464 L 86.500 249.464 M 86.500 258.643 L 77.000 258.643 M 96.000 249.464 L 96.000 258.643 M 105.500 249.464 L 105.500 258.643 M 96.000 258.643 L 96.000 249.464 M 115.000 249.464 L 115.000 258.643 M 105.500 258.643 L 105.500 249.464 M 124.500 258.643 L 115.000 258.643 M 115.000 258.643 L 115.000 249.464 M 124.500 249.464 L 134.000 249.464 M 134.000 249.464 L 134.000 258.643 M 143.500 258.643 L 134.000 258.643 M 134.000 258.643 L 134.000 249.464 M 143.500 249.464 L 153.000 249.464 M 153.000 258.643 L 143.500 258.643 M 153.000 249.464 L 162.500 249.464 M 162.500 249.464 L 162.500 258.643 M 162.500 249.464 L 172.000 249.464 M 162.500 258.643 L 162.500 249.464 M 181.500 249.464 L 181.500 258.643 M 181.500 258.643 L 172.000 258.643 M 191.000 249.464 L 191.000 258.643 M 181.500 258.643 L 181.500 249.464 M 200.500 258.643 L 191.000 258.643 M 191.000 258.643 L 191.000 249.464 M 210.000 249.464 L 210.000 258.643 M 210.000 258.643 L 200.500 258.643 M 210.000 249.464 L 219.500 249.464 M 210.000 258.643 L 210.000 249.464 M 219.500 249.464 L 229.000 249.464 M 229.000 258.643 L 219.500 258.643 M 238.500 249.464 L 238.500 258.643 M 238.500 258.643 L 229.000 258.643 M 248.000 258.643 L 238.500 258.643 M 238.500 258.643 L 238.500 249.464 M 248.000 249.464 L 257.500 249.464 M 257.500 249.464 L 257.500 258.643 M 257.500 249.464 L 267.000 249.464 M 257.500 258.643 L 257.500 249.464 M 276.500 258.643 L 267.000 258.643 M 286.000 249.464 L 286.000 258.643 M 286.000 258.643 L 276.500 258.643 M 295.500 249.464 L 295.500 258.643 M 295.500 258.643 L 286.000 258.643 M 286.000 258.643 L 286.000 249.464 M 305.000 249.464 L 305.000 258.643 M 295.500 258.643 L 295.500 249.464 M 314.500 249.464 L 314.500 258.643 M 305.000 258.643 L 305.000 249.464 M 314.500 249.464 L 324.000 249.464 M 324.000 249.464 L 324.000 258.643 M 314.500 258.643 L 314.500 249.464 M 333.500 249.464 L 333.500 258.643 M 324.000 258.643 L 324.000 249.464 M 343.000 258.643 L 333.500 258.643 M 333.500 258.643 L 333.500 249.464 M 343.000 249.464 L 352.500 249.464 M 352.500 249.464 L 352.500 258.643 M 352.500 249.464 L 362.000 249.464 M 362.000 258.643 L 352.500 258.643 M 352.500 258.643 L 352.500 249.464 M 362.000 249.464 L 371.500 249.464 M 371.500 249.464 L 371.500 258.643 M 381.000 258.643 L 371.500 258.643 M 371.500 258.643 L 371.500 249.464 M 381.000 249.464 L 390.500 249.464 M 390.500 258.643 L 381.000 258.643 M 400.000 249.464 L 400.000 258.643 M 400.000 258.643 L 390.500 258.643 M 20.000 258.643 L 29.500 258.643 M 20.000 267.821 L 20.000 258.643 M 39.000 258.643 L 39.000 267.821 M 39.000 267.821 L 29.500 267.821 M 48.500 258.643 L 48.500 267.821 M 48.500 267.821 L 39.000 267.821 M 39.000 267.821 L 39.000 258.643 M 58.000 267.821 L 48.500 267.821 M 48.500 267.821 L 48.500 258.643 M 58.000 258.643 L 67.500 258.643 M 67.500 267.821 L 58.000 267.821 M 77.000 258.643 L 77.000 267.821 M 77.000 267.821 L 67.500 267.821 M 77.000 258.643 L 86.500 258.643 M 86.500 258.643 L 86.500 267.821 M 77.000 267.821 L 77.000 258.643 M 96.000 258.643 L 96.000 267.821 M 86.500 267.821 L 86.500 258.643 M 105.500 258.643 L 105.500 267.821 M 96.000 267.821 L 96.000 258.643 M 115.000 267.821 L 105.500 267.821 M 105.500 267.821 L 105.500 258.643 M 115.000 258.643 L 124.500 258.643 M 124.500 258.643 L 124.500 267.821 M 124.500 267.821 L 115.000 267.821 M 134.000 258.643 L 134.000 267.821 M 124.500 267.821 L 124.500 258.643 M 134.000 258.643 L 143.500 258.643 M 143.500 267.821 L 134.000 267.821 M 134.000 267.821 L 134.000 258.643 M 143.500 258.643 L 153.000 258.643 M 153.000 267.821 L 143.500 267.821 M 162.500 258.643 L 162.500 267.821 M 162.500 267.821 L 153.000 267.821 M 172.000 267.821 L 162.500 267.821 M 162.500 267.821 L 162.500 258.643 M 172.000 258.643 L 181.500 258.643 M 181.500 258.643 L 181.500 267.821 M 191.000 267.821 L 181.500 267.821 M 181.500 267.821 L 181.500 258.643 M 191.000 258.643 L 200.500 258.643 M 200.500 258.643 L 200.500 267.821 M 200.500 258.643 L 210.000 258.643 M 200.500 267.821 L 200.500 258.643 M 219.500 258.643 L 219.500 267.821 M 219.500 267.821 L 210.000 267.821 M 219.500 258.643 L 229.000 258.643 M 219.500 267.821 L 219.500 258.643 M 229.000 258.643 L 238.500 258.643 M 238.500 267.821 L 229.000 267.821 M 238.500 258.643 L 248.000 258.643 M 248.000 267.821 L 238.500 267.821 M 257.500 258.643 L 257.500 267.821 M 257.500 267.821 L 248.000 267.821 M 267.000 258.643 L 267.000 267.821 M 257.500 267.821 L 257.500 258.643 M 267.000 258.643 L 276.500 258.643 M 276.500 258.643 L 276.500 267.821 M 267.000 267.821 L 267.000 258.643 M 276.500 258.643 L 286.000 258.643 M 276.500 267.821 L 276.500 258.643 M 286.000 258.643 L 295.500 258.643 M 295.500 267.821 L 286.000 267.821 M 305.000 258.643 L 305.000 267.821 M 305.000 267.821 L 295.500 267.821 M 314.500 258.643 L 314.500 267.821 M 305.000 267.821 L 305.000 258.643 M 324.000 258.643 L 324.000 267.821 M 314.500 267.821 L 314.500 258.643 M 333.500 267.821 L 324.000 267.821 M 324.000 267.821 L 324.000 258.643 M 333.500 258.643 L 343.000 258.643 M 343.000 258.643 L 343.000 267.821 M 352.500 267.821 L 343.000 267.821 M 343.000 267.821 L 343.000 258.643 M 352.500 258.643 L 362.000 258.643 M 362.000 258.643 L 362.000 267.821 M 362.000 267.821 L 362.000 258.643 M 371.500 258.643 L 381.000 258.643 M 381.000 258.643 L 381.000 267.821 M 381.000 258.643 L 390.500 258.643 M 390.500 267.821 L 381.000 267.821 M 381.000 267.821 L 381.000 258.643 M 390.500 258.643 L 400.000 258.643 M 400.000 258.643 L 400.000 267.821 M 29.500 277.000 L 20.000 277.000 M 20.000 277.000 L 20.000 267.821 M 29.500 267.821 L 39.000 267.821 M 39.000 277.000 L 29.500 277.000 M 39.000 267.821 L 48.500 267.821 M 48.500 277.000 L 39.000 277.000 M 48.500 267.821 L 58.000 267.821 M 58.000 277.000 L 48.500 277.000 M 58.000 267.821 L 67.500 267.821 M 67.500 277.000 L 58.000 277.000 M 67.500 267.821 L 77.000 267.821 M 77.000 277.000 L 67.500 277.000 M 86.500 277.000 L 77.000 277.000 M 96.000 267.821 L 96.000 277.000 M 96.000 277.000 L 86.500 277.000 M 105.500 277.000 L 96.000 277.000 M 96.000 277.000 L 96.000 267.821 M 105.500 267.821 L 115.000 267.821 M 115.000 277.000 L 105.500 277.000 M 115.000 267.821 L 124.500 267.821 M 124.500 277.000 L 115.000 277.000 M 134.000 277.000 L 124.500 277.000 M 134.000 267.821 L 143.500 267.821 M 143.500 277.000 L 134.000 277.000 M 143.500 267.821 L 153.000 267.821 M 153.000 277.000 L 143.500 277.000 M 153.000 267.821 L 162.500 267.821 M 162.500 277.000 L 153.000 277.000 M 162.500 267.821 L 172.000 267.821 M 172.000 277.000 L 162.500 277.000 M 181.500 267.821 L 181.500 277.000 M 181.500 277.000 L 172.000 277.000 M 181.500 267.821 L 191.000 267.821 M 191.000 277.000 L 181.500 277.000 M 181.500 277.000 L 181.500 267.821 M 200.500 277.000 L 191.000 277.000 M 210.000 267.821 L 210.000 277.000 M 210.000 277.000 L 200.500 277.000 M 210.000 267.821 L 219.500 267.821 M 219.500 277.000 L 210.000 277.000 M 210.000 277.000 L 210.000 267.821 M 229.000 277.000 L 219.500 277.000 M 229.000 267.821 L 238.500 267.821 M 238.500 277.000 L 229.000 277.000 M 238.500 267.821 L 248.000 267.821 M 248.000 277.000 L 238.500 277.000 M 248.000 267.821 L 257.500 267.821 M 257.500 277.000 L 248.000 277.000 M 267.000 277.000 L 257.500 277.000 M 276.500 267.821 L 276.500 277.000 M 276.500 277.000 L 267.000 277.000 M 286.000 277.000 L 276.500 277.000 M 276.500 277.000 L 276.500 267.821 M 286.000 267.821 L 295.500 267.821 M 295.500 277.000 L 286.000 277.000 M 295.500 267.821 L 305.000 267.821 M 305.000 277.000 L 295.500 277.000 M 314.500 277.000 L 305.000 277.000 M 324.000 277.000 L 314.500 277.000 M 324.000 267.821 L 333.500 267.821 M 333.500 267.821 L 333.500 277.000 M 333.500 277.000 L 324.000 277.000 M 343.000 277.000 L 333.500 277.000 M 333.500 277.000 L 333.500 267.821 M 343.000 267.821 L 352.500 267.821 M 352.500 277.000 L 343.000 277.000 M 362.000 277.000 L 352.500 277.000 M 371.500 267.821 L 371.500 277.000 M 371.500 277.000 L 362.000 277.000 M 381.000 277.000 L 371.500 277.000 M 371.500 277.000 L 371.500 267.821 M 381.000 267.821 L 390.500 267.821 M 390.500 277.000 L 381.000 277.000 M 400.000 267.821 L 400.000 277.000 M 400.000 277.000 L 390.500 277.000" fill="none" stroke="#e5e7eb" stroke-width="1" vector-effect="non-scaling-stroke"/></svg>