<svg xmlns="http://www.w3.org/2000/svg" viewBox="12 12 396 273" width="396" height="273" shape-rendering="geometricPrecision"><rect x="12" y="12" width="396" height="273" fill="#0b0f14"/><path d="M 20.000 20.000 L 47.143 20.000 M 47.143 20.000 L 47.143 48.556 M 20.000 48.556 L 20.000 20.000 M 47.143 20.000 L 74.286 20.000 M 74.286 48.556 L 47.143 48.556 M 47.143 48.556 L 47.143 20.000 M 74.286 20.000 L 101.429 20.000 M 101.429 48.556 L 74.286 48.556 M 101.429 20.000 L 128.571 20.000 M 128.571 48.556 L 101.429 48.556 M 128.571 20.000 L 155.714 20.000 M 155.714 48.556 L 128.571 48.556 M 155.714 20.000 L 182.857 20.000 M 182.857 48.556 L 155.714 48.556 M 182.857 20.000 L 210.000 20.000 M 210.000 48.556 L 182.857 48.556 M 210.000 20.000 L 237.143 20.000 M 237.143 48.556 L 210.000 48.556 M 237.143 20.000 L 264.286 20.000 M 264.286 48.556 L 237.143 48.556 M 264.286 20.000 L 291.429 20.000 M 291.429 20.000 L 318.571 20.000 M 318.571 20.000 L 318.571 48.556 M 318.571 20.000 L 345.714 20.000 M 345.714 48.556 L 318.571 48.556 M 318.571 48.556 L 318.571 20.000 M 345.714 20.000 L 372.857 20.000 M 372.857 48.556 L 345.714 48.556 M 372.857 20.000 L 400.000 20.000 M 400.000 20.000 L 400.000 48.556 M 47.143 77.111 L 20.000 77.111 M 20.000 77.111 L 20.000 48.556 M 47.143 48.556 L 74.286 48.556 M 74.286 77.111 L 47.143 77.111 M 74.286 48.556 L 101.429 48.556 M 101.429 77.111 L 74.286 77.111 M 101.429 48.556 L 128.571 48.556 M 128.571 77.111 L 101.429 77.111 M 128.571 48.556 L 155.714 48.556 M 155.714 77.111 L 128.571 77.111 M 155.714 48.556 L 182.857 48.556 M 182.857 77.111 L 155.714 77.111 M 182.857 48.556 L 210.000 48.556 M 210.000 77.111 L 182.857 77.111 M 210.000 48.556 L 237.143 48.556 M 237.143 48.556 L 237.143 77.111 M 237.143 48.556 L 264.286 48.556 M 237.143 77.111 L 237.143 48.556 M 291.429 48.556 L 291.429 77.111 M 291.429 77.111 L 264.286 77.111 M 318.571 77.111 L 291.429 77.111 M 291.429 77.111 L 291.429 48.556 M 318.571 48.556 L 345.714 48.556 M 345.714 77.111 L 318.571 77.111 M 345.714 48.556 L 372.857 48.556 M 372.857 48.556 L 372.857 77.111 M 400.000 48.556 L 400.000 77.111 M 372.857 77.111 L 372.857 48.556 M 20.000 77.111 L 47.143 77.111 M 20.000 105.667 L 20.000 77.111 M 47.143 77.111 L 74.286 77.111 M 74.286 77.111 L 74.286 105.667 M 74.286 105.667 L 47.143 105.667 M 74.286 77.111 L 101.429 77.111 M 74.286 105.667 L 74.286 77.111 M 101.429 77.111 L 128.571 77.111 M 128.571 77.111 L 155.714 77.111 M 155.714 77.111 L 155.714 105.667 M 155.714 105.667 L 128.571 105.667 M 155.714 77.111 L 182.857 77.111 M 155.714 105.667 L 155.714 77.111 M 182.857 77.111 L 210.000 77.111 M 210.000 105.667 L 182.857 105.667 M 237.143 77.111 L 237.143 105.667 M 237.143 105.667 L 210.000 105.667 M 237.143 105.667 L 237.143 77.111 M 264.286 77.111 L 291.429 77.111 M 291.429 105.667 L 264.286 105.667 M 291.429 77.111 L 318.571 77.111 M 318.571 77.111 L 318.571 105.667 M 318.571 77.111 L 345.714 77.111 M 345.714 105.667 L 318.571 105.667 M 318.571 105.667 L 318.571 77.111 M 372.857 105.667 L 345.714 105.667 M 400.000 77.111 L 400.000 105.667 M 20.000 134.222 L 20.000 105.667 M 47.143 105.667 L 74.286 105.667 M 74.286 134.222 L 47.143 134.222 M 101.429 105.667 L 101.429 134.222 M 101.429 134.222 L 74.286 134.222 M 128.571 134.222 L 101.429 134.222 M 101.429 134.222 L 101.429 105.667 M 128.571 105.667 L 155.714 105.667 M 155.714 134.222 L 128.571 134.222 M 182.857 105.667 L 182.857 134.222 M 182.857 134.222 L 155.714 134.222 M 182.857 105.667 L 210.000 105.667 M 210.000 134.222 L 182.857 134.222 M 182.857 134.222 L 182.857 105.667 M 210.000 105.667 L 237.143 105.667 M 237.143 134.222 L 210.000 134.222 M 264.286 134.222 L 237.143 134.222 M 264.286 105.667 L 291.429 105.667 M 291.429 105.667 L 291.429 134.222 M 291.429 134.222 L 264.286 134.222 M 318.571 134.222 L 291.429 134.222 M 291.429 134.222 L 291.429 105.667 M 318.571 105.667 L 345.714 105.667 M 345.714 105.667 L 345.714 134.222 M 345.714 105.667 L 372.857 105.667 M 345.714 134.222 L 345.714 105.667 M 400.000 105.667 L 400.000 134.222 M 400.000 134.222 L 372.857 134.222 M 47.143 134.222 L 47.143 162.778 M 20.000 162.778 L 20.000 134.222 M 47.143 134.222 L 74.286 134.222 M 74.286 162.778 L 47.143 162.778 M 47.143 162.778 L 47.143 134.222 M 74.286 134.222 L 101.429 134.222 M 101.429 162.778 L 74.286 162.778 M 101.429 134.222 L 128.571 134.222 M 128.571 162.778 L 101.429 162.778 M 128.571 134.222 L 155.714 134.222 M 155.714 134.222 L 182.857 134.222 M 182.857 162.778 L 155.714 162.778 M 182.857 134.222 L 210.000 134.222 M 210.000 134.222 L 237.143 134.222 M 237.143 162.778 L 210.000 162.778 M 237.143 134.222 L 264.286 134.222 M 264.286 134.222 L 264.286 162.778 M 264.286 134.222 L 291.429 134.222 M 264.286 162.778 L 264.286 134.222 M 291.429 134.222 L 318.571 134.222 M 318.571 162.778 L 291.429 162.778 M 345.714 134.222 L 345.714 162.778 M 345.714 162.778 L 318.571 162.778 M 372.857 162.778 L 345.714 162.778 M 345.714 162.778 L 345.714 134.222 M 372.857 134.222 L 400.000 134.222 M 400.000 134.222 L 400.000 162.778 M 400.000 162.778 L 372.857 162.778 M 47.143 162.778 L 47.143 191.333 M 20.000 191.333 L 20.000 162.778 M 47.143 162.778 L 74.286 162.778 M 47.143 191.333 L 47.143 162.778 M 74.286 162.778 L 101.429 162.778 M 101.429 191.333 L 74.286 191.333 M 101.429 162.778 L 128.571 162.778 M 128.571 162.778 L 128.571 191.333 M 155.714 191.333 L 128.571 191.333 M 128.571 191.333 L 128.571 162.778 M 155.714 162.778 L 182.857 162.778 M 182.857 162.778 L 182.857 191.333 M 210.000 162.778 L 210.000 191.333 M 182.857 191.333 L 182.857 162.778 M 210.000 162.778 L 237.143 162.778 M 237.143 162.778 L 237.143 191.333 M 210.000 191.333 L 210.000 162.778 M 264.286 162.778 L 264.286 191.333 M 237.143 191.333 L 237.143 162.778 M 291.429 191.333 L 264.286 191.333 M 264.286 191.333 L 264.286 162.778 M 291.429 162.778 L 318.571 162.778 M 318.571 191.333 L 291.429 191.333 M 318.571 162.778 L 345.714 162.778 M 345.714 191.333 L 318.571 191.333 M 345.714 162.778 L 372.857 162.778 M 372.857 191.333 L 345.714 191.333 M 372.857 162.778 L 400.000 162.778 M 400.000 162.778 L 400.000 191.333 M 47.143 219.889 L 20.000 219.889 M 20.000 219.889 L 20.000 191.333 M 74.286 191.333 L 74.286 219.889 M 74.286 219.889 L 47.143 219.889 M 74.286 191.333 L 101.429 191.333 M 74.286 219.889 L 74.286 191.333 M 128.571 191.333 L 128.571 219.889 M 128.571 219.889 L 101.429 219.889 M 128.571 191.333 L 155.714 191.333 M 155.714 219.889 L 128.571 219.889 M 128.571 219.889 L 128.571 191.333 M 182.857 191.333 L 182.857 219.889 M 210.000 191.333 L 210.000 219.889 M 182.857 219.889 L 182.857 191.333 M 237.143 191.333 L 237.143 219.889 M 210.000 219.889 L 210.000 191.333 M 264.286 191.333 L 264.286 219.889 M 237.143 219.889 L 237.143 191.333 M 264.286 191.333 L 291.429 191.333 M 264.286 219.889 L 264.286 191.333 M 291.429 191.333 L 318.571 191.333 M 318.571 219.889 L 291.429 219.889 M 318.571 191.333 L 345.714 191.333 M 345.714 219.889 L 318.571 219.889 M 345.714 191.333 L 372.857 191.333 M 372.857 191.333 L 372.857 219.889 M 400.000 191.333 L 400.000 219.889 M 372.857 219.889 L 372.857 191.333 M 20.000 219.889 L 47.143 219.889 M 20.000 248.444 L 20.000 219.889 M 47.143 219.889 L 74.286 219.889 M 74.286 248.444 L 47.143 248.444 M 101.429 219.889 L 101.429 248.444 M 101.429 248.444 L 74.286 248.444 M 101.429 219.889 L 128.571 219.889 M 101.429 248.444 L 101.429 219.889 M 128.571 219.889 L 155.714 219.889 M 155.714 219.889 L 155.714 248.444 M 182.857 219.889 L 182.857 248.444 M 182.857 248.444 L 155.714 248.444 M 155.714 248.444 L 155.714 219.889 M 210.000 219.889 L 210.000 248.444 M 182.857 248.444 L 182.857 219.889 M 237.143 219.889 L 237.143 248.444 M 210.000 248.444 L 210.000 219.889 M 264.286 219.889 L 264.286 248.444 M 237.143 248.444 L 237.143 219.889 M 291.429 219.889 L 291.429 248.444 M 264.286 248.444 L 264.286 219.889 M 291.429 219.889 L 318.571 219.889 M 291.429 248.444 L 291.429 219.889 M 318.571 219.889 L 345.714 219.889 M 345.714 248.444 L 318.571 248.444 M 372.857 219.889 L 372.857 248.444 M 372.857 248.444 L 345.714 248.444 M 400.000 219.889 L 400.000 248.444 M 372.857 248.444 L 372.857 219.889 M 47.143 277.000 L 20.000 277.000 M 20.000 277.000 L 20.000 248.444 M 47.143 248.444 L 74.286 248.444 M 74.286 277.000 L 47.143 277.000 M 74.286 248.444 L 101.429 248.444 M 101.429 277.000 L 74.286 277.000 M 128.571 248.444 L 128.571 277.000 M 128.571 277.000 L 101.429 277.000 M 155.714 277.000 L 128.571 277.000 M 128.571 277.000 L 128.571 248.444 M 155.714 248.444 L 182.857 248.444 M 182.857 277.000 L 155.714 277.000 M 210.000 248.444 L 210.000 277.000 M 210.000 277.000 L 182.857 277.000 M 237.143 277.000 L 210.000 277.000 M 210.000 277.000 L 210.000 248.444 M 264.286 277.000 L 237.143 277.000 M 291.429 248.444 L 291.429 277.000 M 291.429 277.000 L 264.286 277.000 M 318.571 277.000 L 291.429 277.000 M 291.429 277.000 L 291.429 248.444 M 318.571 248.444 L 345.714 248.444 M 345.714 277.000 L 318.571 277.000 M 345.714 248.444 L 372.857 248.444 M 372.857 277.000 L 345.714 277.000 M 400.000 248.444 L 400.000 277.000 M 400.000 277.000 L 372.857 277.000" fill="none" stroke="#111111" stroke-width="1" vector-effect="non-scaling-stroke"/></svg>