<svg xmlns="http://www.w3.org/2000/svg" viewBox="12 12 396 273" width="396" height="273" shape-rendering="geometricPrecision"><rect x="12" y="12" width="396" height="273" fill="#0b0f14"/><path d="M 20.000 20.000 L 43.750 20.000 M 43.750 20.000 L 43.750 41.417 M 20.000 41.417 L 20.000 20.000 M 43.750 20.000 L 67.500 20.000 M 43.750 41.417 L 43.750 20.000 M 67.500 20.000 L 91.250 20.000 M 91.250 20.000 L 91.250 41.417 M 91.250 20.000 L 115.000 20.000 M 115.000 41.417 L 91.250 41.417 M 91.250 41.417 L 91.250 20.000 M 115.000 20.000 L 138.750 20.000 M 138.750 41.417 L 115.000 41.417 M 138.750 20.000 L 162.500 20.000 M 162.500 41.417 L 138.750 41.417 M 162.500 20.000 L 186.250 20.000 M 186.250 41.417 L 162.500 41.417 M 186.250 20.000 L 210.000 20.000 M 210.000 20.000 L 233.750 20.000 M 233.750 20.000 L 233.750 41.417 M 233.750 20.000 L 257.500 20.000 M 233.750 41.417 L 233.750 20.000 M 257.500 20.000 L 281.250 20.000 M 281.250 41.417 L 257.500 41.417 M 281.250 20.000 L 305.000 20.000 M 305.000 41.417 L 281.250 41.417 M 305.000 20.000 L 328.750 20.000 M 328.750 20.000 L 328.750 41.417 M 328.750 20.000 L 352.500 20.000 M 328.750 41.417 L 328.750 20.000 M 352.500 20.000 L 376.250 20.000 M 376.250 20.000 L 400.000 20.000 M 400.000 20.000 L 400.000 41.417 M 400.000 41.417 L 376.250 41.417 M 43.750 62.833 L 20.000 62.833 M 20.000 62.833 L 20.000 41.417 M 67.500 41.417 L 67.500 62.833 M 67.500 62.833 L 43.750 62.833 M 91.250 62.833 L 67.500 62.833 M 67.500 62.833 L 67.500 41.417 M 91.250 41.417 L 115.000 41.417 M 115.000 62.833 L 91.250 62.833 M 115.000 41.417 L 138.750 41.417 M 138.750 62.833 L 115.000 62.833 M 138.750 41.417 L 162.500 41.417 M 162.500 62.833 L 138.750 62.833 M 162.500 41.417 L 186.250 41.417 M 186.250 62.833 L 162.500 62.833 M 210.000 41.417 L 210.000 62.833 M 210.000 62.833 L 186.250 62.833 M 233.750 41.417 L 233.750 62.833 M 210.000 62.833 L 210.000 41.417 M 257.500 41.417 L 257.500 62.833 M 233.750 62.833 L 233.750 41.417 M 257.500 41.417 L 281.250 41.417 M 257.500 62.833 L 257.500 41.417 M 281.250 41.417 L 305.000 41.417 M 305.000 41.417 L 305.000 62.833 M 328.750 62.833 L 305.000 62.833 M 305.000 62.833 L 305.000 41.417 M 352.500 41.417 L 352.500 62.833 M 352.500 62.833 L 328.750 62.833 M 376.250 62.833 L 352.500 62.833 M 352.500 62.833 L 352.500 41.417 M 376.250 41.417 L 400.000 41.417 M 400.000 41.417 L 400.000 62.833 M 20.000 62.833 L 43.750 62.833 M 20.000 84.250 L 20.000 62.833 M 43.750 62.833 L 67.500 62.833 M 67.500 84.250 L 43.750 84.250 M 67.500 62.833 L 91.250 62.833 M 91.250 62.833 L 115.000 62.833 M 115.000 84.250 L 91.250 84.250 M 115.000 62.833 L 138.750 62.833 M 138.750 62.833 L 138.750 84.250 M 138.750 62.833 L 162.500 62.833 M 138.750 84.250 L 138.750 62.833 M 162.500 62.833 L 186.250 62.833 M 186.250 62.833 L 210.000 62.833 M 210.000 62.833 L 210.000 84.250 M 233.750 62.833 L 233.750 84.250 M 210.000 84.250 L 210.000 62.833 M 257.500 62.833 L 257.500 84.250 M 233.750 84.250 L 233.750 62.833 M 281.250 62.833 L 281.250 84.250 M 281.250 84.250 L 257.500 84.250 M 257.500 84.250 L 257.500 62.833 M 305.000 84.250 L 281.250 84.250 M 281.250 84.250 L 281.250 62.833 M 305.000 62.833 L 328.750 62.833 M 328.750 62.833 L 328.750 84.250 M 328.750 62.833 L 352.500 62.833 M 328.750 84.250 L 328.750 62.833 M 352.500 62.833 L 376.250 62.833 M 376.250 62.833 L 376.250 84.250 M 400.000 62.833 L 400.000 84.250 M 376.250 84.250 L 376.250 62.833 M 43.750 84.250 L 43.750 105.667 M 20.000 105.667 L 20.000 84.250 M 43.750 84.250 L 67.500 84.250 M 43.750 105.667 L 43.750 84.250 M 91.250 84.250 L 91.250 105.667 M 91.250 105.667 L 67.500 105.667 M 91.250 84.250 L 115.000 84.250 M 91.250 105.667 L 91.250 84.250 M 138.750 84.250 L 138.750 105.667 M 138.750 105.667 L 115.000 105.667 M 162.500 84.250 L 162.500 105.667 M 138.750 105.667 L 138.750 84.250 M 186.250 84.250 L 186.250 105.667 M 162.500 105.667 L 162.500 84.250 M 210.000 84.250 L 210.000 105.667 M 210.000 105.667 L 186.250 105.667 M 186.250 105.667 L 186.250 84.250 M 233.750 84.250 L 233.750 105.667 M 210.000 105.667 L 210.000 84.250 M 257.500 105.667 L 233.750 105.667 M 233.750 105.667 L 233.750 84.250 M 257.500 84.250 L 281.250 84.250 M 281.250 105.667 L 257.500 105.667 M 281.250 84.250 L 305.000 84.250 M 328.750 84.250 L 328.750 105.667 M 328.750 105.667 L 305.000 105.667 M 352.500 84.250 L 352.500 105.667 M 328.750 105.667 L 328.750 84.250 M 376.250 84.250 L 376.250 105.667 M 352.500 105.667 L 352.500 84.250 M 400.000 84.250 L 400.000 105.667 M 376.250 105.667 L 376.250 84.250 M 43.750 105.667 L 43.750 127.083 M 43.750 127.083 L 20.000 127.083 M 20.000 127.083 L 20.000 105.667 M 67.500 127.083 L 43.750 127.083 M 43.750 127.083 L 43.750 105.667 M 67.500 105.667 L 91.250 105.667 M 91.250 105.667 L 91.250 127.083 M 115.000 105.667 L 115.000 127.083 M 91.250 127.083 L 91.250 105.667 M 115.000 105.667 L 138.750 105.667 M 115.000 127.083 L 115.000 105.667 M 162.500 105.667 L 162.500 127.083 M 162.500 127.083 L 138.750 127.083 M 186.250 105.667 L 186.250 127.083 M 162.500 127.083 L 162.500 105.667 M 186.250 105.667 L 210.000 105.667 M 186.250 127.083 L 186.250 105.667 M 233.750 105.667 L 233.750 127.083 M 233.750 127.083 L 210.000 127.083 M 233.750 105.667 L 257.500 105.667 M 233.750 127.083 L 233.750 105.667 M 257.500 105.667 L 281.250 105.667 M 281.250 105.667 L 281.250 127.083 M 281.250 127.083 L 257.500 127.083 M 305.000 105.667 L 305.000 127.083 M 281.250 127.083 L 281.250 105.667 M 305.000 105.667 L 328.750 105.667 M 305.000 127.083 L 305.000 105.667 M 352.500 105.667 L 352.500 127.083 M 352.500 127.083 L 328.750 127.083 M 376.250 127.083 L 352.500 127.083 M 352.500 127.083 L 352.500 105.667 M 400.000 105.667 L 400.000 127.083 M 20.000 127.083 L 43.750 127.083 M 20.000 148.500 L 20.000 127.083 M 43.750 127.083 L 67.500 127.083 M 67.500 148.500 L 43.750 148.500 M 91.250 127.083 L 91.250 148.500 M 91.250 148.500 L 67.500 148.500 M 115.000 127.083 L 115.000 148.500 M 91.250 148.500 L 91.250 127.083 M 138.750 148.500 L 115.000 148.500 M 115.000 148.500 L 115.000 127.083 M 138.750 127.083 L 162.500 127.083 M 162.500 127.083 L 162.500 148.500 M 186.250 127.083 L 186.250 148.500 M 162.500 148.500 L 162.500 127.083 M 210.000 148.500 L 186.250 148.500 M 186.250 148.500 L 186.250 127.083 M 210.000 127.083 L 233.750 127.083 M 233.750 127.083 L 233.750 148.500 M 257.500 127.083 L 257.500 148.500 M 233.750 148.500 L 233.750 127.083 M 257.500 127.083 L 281.250 127.083 M 257.500 148.500 L 257.500 127.083 M 305.000 127.083 L 305.000 148.500 M 305.000 148.500 L 281.250 148.500 M 328.750 127.083 L 328.750 148.500 M 305.000 148.500 L 305.000 127.083 M 328.750 127.083 L 352.500 127.083 M 328.750 148.500 L 328.750 127.083 M 352.500 127.083 L 376.250 127.083 M 376.250 127.083 L 376.250 148.500 M 400.000 127.083 L 400.000 148.500 M 376.250 148.500 L 376.250 127.083 M 43.750 148.500 L 43.750 169.917 M 20.000 169.917 L 20.000 148.500 M 43.750 148.500 L 67.500 148.500 M 67.500 148.500 L 67.500 169.917 M 43.750 169.917 L 43.750 148.500 M 67.500 148.500 L 91.250 148.500 M 67.500 169.917 L 67.500 148.500 M 115.000 148.500 L 115.000 169.917 M 115.000 169.917 L 91.250 169.917 M 115.000 148.500 L 138.750 148.500 M 115.000 169.917 L 115.000 148.500 M 162.500 148.500 L 162.500 169.917 M 162.500 169.917 L 138.750 169.917 M 186.250 148.500 L 186.250 169.917 M 162.500 169.917 L 162.500 148.500 M 186.250 148.500 L 210.000 148.500 M 186.250 169.917 L 186.250 148.500 M 233.750 148.500 L 233.750 169.917 M 233.750 169.917 L 210.000 169.917 M 233.750 169.917 L 233.750 148.500 M 281.250 169.917 L 257.500 169.917 M 281.250 148.500 L 305.000 148.500 M 305.000 148.500 L 305.000 169.917 M 305.000 169.917 L 281.250 169.917 M 328.750 148.500 L 328.750 169.917 M 305.000 169.917 L 305.000 148.500 M 352.500 148.500 L 352.500 169.917 M 352.500 169.917 L 328.750 169.917 M 328.750 169.917 L 328.750 148.500 M 376.250 169.917 L 352.500 169.917 M 352.500 169.917 L 352.500 148.500 M 400.000 148.500 L 400.000 169.917 M 43.750 169.917 L 43.750 191.333 M 20.000 191.333 L 20.000 169.917 M 67.500 191.333 L 43.750 191.333 M 43.750 191.333 L 43.750 169.917 M 91.250 169.917 L 91.250 191.333 M 91.250 169.917 L 115.000 169.917 M 115.000 169.917 L 115.000 191.333 M 91.250 191.333 L 91.250 169.917 M 138.750 191.333 L 115.000 191.333 M 115.000 191.333 L 115.000 169.917 M 138.750 169.917 L 162.500 169.917 M 162.500 169.917 L 162.500 191.333 M 186.250 191.333 L 162.500 191.333 M 162.500 191.333 L 162.500 169.917 M 210.000 169.917 L 210.000 191.333 M 210.000 191.333 L 186.250 191.333 M 210.000 169.917 L 233.750 169.917 M 233.750 191.333 L 210.000 191.333 M 210.000 191.333 L 210.000 169.917 M 257.500 191.333 L 233.750 191.333 M 257.500 169.917 L 281.250 169.917 M 281.250 169.917 L 281.250 191.333 M 281.250 169.917 L 305.000 169.917 M 281.250 191.333 L 281.250 169.917 M 328.750 169.917 L 328.750 191.333 M 328.750 191.333 L 305.000 191.333 M 328.750 169.917 L 352.500 169.917 M 328.750 191.333 L 328.750 169.917 M 352.500 169.917 L 376.250 169.917 M 376.250 169.917 L 376.250 191.333 M 400.000 169.917 L 400.000 191.333 M 400.000 191.333 L 376.250 191.333 M 376.250 191.333 L 376.250 169.917 M 43.750 212.750 L 20.000 212.750 M 20.000 212.750 L 20.000 191.333 M 43.750 191.333 L 67.500 191.333 M 67.500 191.333 L 67.500 212.750 M 91.250 191.333 L 91.250 212.750 M 67.500 212.750 L 67.500 191.333 M 115.000 212.750 L 91.250 212.750 M 91.250 212.750 L 91.250 191.333 M 115.000 191.333 L 138.750 191.333 M 138.750 191.333 L 138.750 212.750 M 162.500 212.750 L 138.750 212.750 M 138.750 212.750 L 138.750 191.333 M 162.500 191.333 L 186.250 191.333 M 186.250 191.333 L 186.250 212.750 M 186.250 191.333 L 210.000 191.333 M 210.000 212.750 L 186.250 212.750 M 186.250 212.750 L 186.250 191.333 M 210.000 191.333 L 233.750 191.333 M 233.750 191.333 L 257.500 191.333 M 257.500 191.333 L 257.500 212.750 M 281.250 191.333 L 281.250 212.750 M 281.250 212.750 L 257.500 212.750 M 257.500 212.750 L 257.500 191.333 M 305.000 212.750 L 281.250 212.750 M 281.250 212.750 L 281.250 191.333 M 305.000 191.333 L 328.750 191.333 M 328.750 212.750 L 305.000 212.750 M 352.500 191.333 L 352.500 212.750 M 376.250 212.750 L 352.500 212.750 M 352.500 212.750 L 352.500 191.333 M 376.250 191.333 L 400.000 191.333 M 400.000 191.333 L 400.000 212.750 M 20.000 212.750 L 43.750 212.750 M 20.000 234.167 L 20.000 212.750 M 67.500 212.750 L 67.500 234.167 M 67.500 234.167 L 43.750 234.167 M 91.250 212.750 L 91.250 234.167 M 67.500 234.167 L 67.500 212.750 M 91.250 212.750 L 115.000 212.750 M 91.250 234.167 L 91.250 212.750 M 138.750 212.750 L 162.500 212.750 M 162.500 212.750 L 162.500 234.167 M 162.500 234.167 L 138.750 234.167 M 186.250 212.750 L 186.250 234.167 M 162.500 234.167 L 162.500 212.750 M 186.250 212.750 L 210.000 212.750 M 186.250 234.167 L 186.250 212.750 M 233.750 212.750 L 233.750 234.167 M 233.750 234.167 L 210.000 234.167 M 257.500 234.167 L 233.750 234.167 M 233.750 234.167 L 233.750 212.750 M 257.500 212.750 L 281.250 212.750 M 281.250 212.750 L 281.250 234.167 M 281.250 212.750 L 305.000 212.750 M 281.250 234.167 L 281.250 212.750 M 305.000 212.750 L 328.750 212.750 M 328.750 212.750 L 328.750 234.167 M 352.500 234.167 L 328.750 234.167 M 328.750 234.167 L 328.750 212.750 M 352.500 212.750 L 376.250 212.750 M 376.250 212.750 L 376.250 234.167 M 376.250 234.167 L 352.500 234.167 M 400.000 212.750 L 400.000 234.167 M 376.250 234.167 L 376.250 212.750 M 20.000 255.583 L 20.000 234.167 M 43.750 234.167 L 67.500 234.167 M 67.500 234.167 L 67.500 255.583 M 91.250 255.583 L 67.500 255.583 M 67.500 255.583 L 67.500 234.167 M 115.000 234.167 L 115.000 255.583 M 115.000 255.583 L 91.250 255.583 M 138.750 234.167 L 138.750 255.583 M 138.750 255.583 L 115.000 255.583 M 115.000 255.583 L 115.000 234.167 M 138.750 234.167 L 162.500 234.167 M 138.750 255.583 L 138.750 234.167 M 186.250 234.167 L 186.250 255.583 M 186.250 255.583 L 162.500 255.583 M 210.000 255.583 L 186.250 255.583 M 186.250 255.583 L 186.250 234.167 M 210.000 234.167 L 233.750 234.167 M 233.750 234.167 L 233.750 255.583 M 233.750 234.167 L 257.500 234.167 M 257.500 234.167 L 257.500 255.583 M 233.750 255.583 L 233.750 234.167 M 281.250 255.583 L 257.500 255.583 M 257.500 255.583 L 257.500 234.167 M 305.000 234.167 L 305.000 255.583 M 305.000 255.583 L 281.250 255.583 M 328.750 255.583 L 305.000 255.583 M 305.000 255.583 L 305.000 234.167 M 328.750 234.167 L 352.500 234.167 M 352.500 255.583 L 328.750 255.583 M 352.500 234.167 L 376.250 234.167 M 376.250 255.583 L 352.500 255.583 M 400.000 234.167 L 400.000 255.583 M 43.750 255.583 L 43.750 277.000 M 43.750 277.000 L 20.000 277.000 M 20.000 277.000 L 20.000 255.583 M 67.500 277.000 L 43.750 277.000 M 43.750 277.000 L 43.750 255.583 M 67.500 255.583 L 91.250 255.583 M 91.250 277.000 L 67.500 277.000 M 91.250 255.583 L 115.000 255.583 M 115.000 277.000 L 91.250 277.000 M 115.000 255.583 L 138.750 255.583 M 138.750 277.000 L 115.000 277.000 M 162.500 277.000 L 138.750 277.000 M 162.500 255.583 L 186.250 255.583 M 186.250 277.000 L 162.500 277.000 M 186.250 255.583 L 210.000 255.583 M 210.000 277.000 L 186.250 277.000 M 233.750 255.583 L 233.750 277.000 M 233.750 277.000 L 210.000 277.000 M 257.500 277.000 L 233.750 277.000 M 233.750 277.000 L 233.750 255.583 M 257.500 255.583 L 281.250 255.583 M 281.250 277.000 L 257.500 277.000 M 281.250 255.583 L 305.000 255.583 M 305.000 277.000 L 281.250 277.000 M 305.000 255.583 L 328.750 255.583 M 328.750 277.000 L 305.000 277.000 M 328.750 255.583 L 352.500 255.583 M 352.500 277.000 L 328.750 277.000 M 352.500 255.583 L 376.250 255.583 M 376.250 277.000 L 352.500 277.000 M 400.000 255.583 L 400.000 277.000 M 400.000 277.000 L 376.250 277.000" fill="none" stroke="#e5e7eb" stroke-width="1" vector-effect="non-scaling-stroke"/></svg>