<svg xmlns="http://www.w3.org/2000/svg" viewBox="-23.301061304440836 -35.77994764250061 326.98481761361626 305.7174604547686" width="326.98481761361626" height="305.7174604547686" shape-rendering="geometricPrecision"><rect x="-23.301061304440836" y="-35.77994764250061" width="326.98481761361626" height="305.7174604547686" fill="#0b0f14"/><path d="M -13.000 42.960 L -13.006 47.948 L -12.553 52.915 L -11.643 57.820 L -10.284 62.619 L -8.489 67.272 L -6.272 71.740 L -3.652 75.984 L -0.651 79.969 L 2.704 83.659 L 6.386 87.025 L 10.362 90.036 L 14.599 92.667 L 19.061 94.897 L 23.710 96.705 L 28.505 98.076 L 33.407 98.999 L 38.373 99.466 L 38.358 93.909 L 37.796 88.493 L 36.714 83.245 L 35.136 78.194 L 33.089 73.368 L 30.599 68.792 L 27.691 64.496 L 24.391 60.507 L 20.726 56.853 L 16.721 53.561 L 12.401 50.658 L 7.794 48.173 L 2.924 46.134 L -2.182 44.566 L -7.498 43.499 L -13.000 42.960 M 43.078 0.578 L 46.932 1.273 L 50.474 2.942 L 53.464 5.471 L 55.698 8.687 L 57.022 12.372 L 57.348 16.274 L 56.653 20.128 L 54.985 23.670 L 52.456 26.660 L 49.239 28.893 L 45.555 30.218 L 41.652 30.544 L 37.799 29.849 L 34.256 28.180 L 31.267 25.652 L 29.033 22.435 L 27.708 18.750 L 27.382 14.848 L 28.077 10.994 L 29.746 7.452 L 32.275 4.462 L 35.491 2.229 L 39.176 0.904 L 43.078 0.578 M 3.367 27.221 L 3.693 31.123 L 5.018 34.808 L 7.251 38.024 L 10.241 40.553 L 13.784 42.222 L 17.637 42.917 L 22.203 42.421 L 26.153 40.679 L 26.099 41.818 L 26.425 45.720 L 27.750 49.405 L 29.983 52.621 L 32.973 55.150 L 36.515 56.818 L 40.369 57.514 L 44.271 57.188 L 47.956 55.863 L 51.172 53.629 L 53.701 50.639 L 55.370 47.097 L 56.065 43.243 L 56.119 42.105 L 59.886 44.214 L 64.384 45.141 L 69.155 44.602 L 73.369 42.670 L 76.767 39.580 L 79.091 35.569 L 80.080 30.871 L 79.245 25.192 L 76.457 20.420 L 72.152 16.978 L 76.765 13.948 L 79.994 9.449 L 81.364 3.901 L 80.825 -0.869 L 78.893 -5.083 L 75.803 -8.481 L 71.791 -10.805 L 67.094 -11.795 L 62.528 -11.321 L 58.578 -9.557 L 58.632 -10.695 L 58.306 -14.598 L 56.981 -18.283 L 54.747 -21.499 L 51.758 -24.028 L 48.215 -25.696 L 44.362 -26.391 L 40.459 -26.065 L 36.775 -24.741 L 33.558 -22.507 L 31.029 -19.517 L 29.361 -15.975 L 28.666 -12.121 L 28.611 -10.983 L 24.846 -13.114 L 20.346 -14.019 L 16.444 -13.693 L 12.759 -12.368 L 9.543 -10.135 L 7.014 -7.145 L 5.345 -3.603 L 4.650 0.251 L 5.487 5.904 L 8.274 10.688 L 12.579 14.144 L 7.966 17.161 L 4.738 21.646 L 3.367 27.221 M 38.373 99.466 L 43.361 99.473 L 48.328 99.019 L 53.232 98.109 L 58.031 96.751 L 62.684 94.955 L 67.152 92.738 L 71.397 90.118 L 75.381 87.118 L 79.072 83.762 L 82.437 80.081 L 85.448 76.105 L 88.080 71.867 L 90.309 67.405 L 92.117 62.757 L 93.488 57.961 L 94.411 53.060 L 94.878 48.094 L 89.321 48.107 L 83.905 48.663 L 78.658 49.737 L 73.608 51.305 L 68.782 53.341 L 64.207 55.820 L 59.912 58.718 L 55.923 62.008 L 52.269 65.666 L 48.977 69.667 L 46.074 73.985 L 43.589 78.597 L 41.549 83.475 L 39.981 88.597 L 38.913 93.935 L 38.373 99.466 M 24.571 46.990 L 24.789 51.973 L 25.466 56.914 L 26.596 61.772 L 28.169 66.506 L 30.173 71.073 L 32.589 75.437 L 35.398 79.559 L 38.575 83.404 L 42.093 86.939 L 45.922 90.135 L 50.030 92.964 L 54.382 95.402 L 58.940 97.428 L 63.665 99.025 L 68.517 100.179 L 73.456 100.880 L 78.438 101.123 L 78.172 95.572 L 77.367 90.187 L 76.049 84.993 L 74.246 80.019 L 71.983 75.289 L 69.289 70.831 L 66.191 66.670 L 62.715 62.834 L 58.888 59.348 L 54.739 56.240 L 50.293 53.535 L 45.578 51.260 L 40.622 49.442 L 35.450 48.106 L 30.091 47.280 L 24.571 46.990 M 78.682 2.123 L 82.563 2.644 L 86.177 4.151 L 89.278 6.543 L 91.654 9.655 L 93.144 13.277 L 93.645 17.160 L 93.124 21.041 L 91.617 24.655 L 89.225 27.756 L 86.113 30.132 L 82.492 31.621 L 78.608 32.123 L 74.727 31.602 L 71.113 30.095 L 68.012 27.703 L 65.636 24.591 L 64.147 20.970 L 63.645 17.086 L 64.166 13.205 L 65.673 9.591 L 68.065 6.490 L 71.177 4.114 L 74.799 2.625 L 78.682 2.123 M 40.212 30.528 L 40.713 34.412 L 42.203 38.033 L 44.579 41.146 L 47.680 43.537 L 51.294 45.044 L 55.175 45.565 L 59.714 44.864 L 63.581 42.946 L 63.578 44.086 L 64.080 47.969 L 65.569 51.591 L 67.946 54.703 L 71.046 57.095 L 74.660 58.602 L 78.541 59.123 L 82.425 58.621 L 86.046 57.132 L 89.159 54.756 L 91.550 51.655 L 93.058 48.041 L 93.578 44.160 L 93.581 43.020 L 97.439 44.957 L 101.975 45.681 L 106.716 44.927 L 110.839 42.807 L 114.094 39.568 L 116.235 35.456 L 117.012 30.718 L 115.921 25.082 L 112.921 20.441 L 108.465 17.197 L 112.937 13.961 L 115.960 9.322 L 117.078 3.718 L 116.325 -1.023 L 114.205 -5.146 L 110.965 -8.402 L 106.853 -10.542 L 102.115 -11.319 L 97.576 -10.640 L 93.709 -8.700 L 93.712 -9.840 L 93.210 -13.723 L 91.721 -17.345 L 89.345 -20.457 L 86.244 -22.849 L 82.630 -24.356 L 78.749 -24.877 L 74.865 -24.375 L 71.244 -22.886 L 68.131 -20.510 L 65.740 -17.409 L 64.233 -13.795 L 63.712 -9.914 L 63.709 -8.774 L 59.851 -10.733 L 55.316 -11.435 L 51.432 -10.933 L 47.811 -9.444 L 44.698 -7.067 L 42.307 -3.967 L 40.799 -0.353 L 40.279 3.528 L 41.369 9.138 L 44.369 13.792 L 48.825 17.049 L 44.353 20.272 L 41.330 24.898 L 40.212 30.528 M 78.438 101.123 L 83.421 100.905 L 88.362 100.228 L 93.220 99.098 L 97.954 97.525 L 102.521 95.521 L 106.885 93.105 L 111.007 90.296 L 114.852 87.119 L 118.387 83.601 L 121.583 79.772 L 124.412 75.664 L 126.850 71.312 L 128.876 66.754 L 130.473 62.029 L 131.627 57.177 L 132.328 52.238 L 132.571 47.256 L 127.020 47.520 L 121.635 48.319 L 116.441 49.629 L 111.467 51.423 L 106.737 53.675 L 102.279 56.357 L 98.118 59.445 L 94.282 62.912 L 90.796 66.731 L 87.688 70.876 L 84.983 75.321 L 82.708 80.040 L 80.890 85.005 L 79.554 90.192 L 78.728 95.573 L 78.438 101.123 M 67.300 50.589 L 67.876 55.544 L 68.906 60.424 L 70.383 65.188 L 72.292 69.796 L 74.619 74.208 L 77.343 78.386 L 80.441 82.295 L 83.886 85.902 L 87.649 89.175 L 91.699 92.087 L 96.000 94.614 L 100.515 96.732 L 105.207 98.425 L 110.035 99.678 L 114.958 100.480 L 119.934 100.824 L 124.920 100.708 L 124.256 95.190 L 123.066 89.877 L 121.378 84.792 L 119.221 79.960 L 116.624 75.405 L 113.617 71.152 L 110.227 67.225 L 106.484 63.649 L 102.417 60.448 L 98.055 57.646 L 93.426 55.268 L 88.560 53.338 L 83.485 51.881 L 78.231 50.920 L 72.826 50.482 L 67.300 50.589 M 118.044 1.947 L 121.952 2.187 L 125.665 3.431 L 128.930 5.593 L 131.524 8.526 L 133.270 12.031 L 134.049 15.869 L 133.809 19.777 L 132.565 23.490 L 130.403 26.755 L 127.470 29.349 L 123.965 31.095 L 120.127 31.874 L 116.219 31.634 L 112.506 30.391 L 109.241 28.228 L 106.647 25.295 L 104.901 21.790 L 104.122 17.953 L 104.362 14.044 L 105.605 10.331 L 107.768 7.066 L 110.701 4.473 L 114.206 2.726 L 118.044 1.947 M 81.716 33.045 L 82.495 36.883 L 84.242 40.388 L 86.835 43.321 L 90.100 45.483 L 93.813 46.727 L 97.722 46.967 L 102.199 45.941 L 105.918 43.750 L 105.997 44.887 L 106.777 48.725 L 108.523 52.230 L 111.117 55.163 L 114.381 57.325 L 118.094 58.569 L 122.003 58.809 L 125.840 58.030 L 129.345 56.284 L 132.279 53.690 L 134.441 50.425 L 135.684 46.712 L 135.925 42.804 L 135.845 41.666 L 139.833 43.321 L 144.409 43.716 L 149.083 42.624 L 153.043 40.213 L 156.057 36.747 L 157.896 32.492 L 158.330 27.711 L 156.837 22.168 L 153.512 17.755 L 148.833 14.839 L 153.062 11.290 L 155.743 6.446 L 156.455 0.776 L 155.363 -3.899 L 152.951 -7.858 L 149.486 -10.873 L 145.231 -12.712 L 140.449 -13.146 L 135.971 -12.142 L 132.253 -9.929 L 132.174 -11.066 L 131.394 -14.903 L 129.648 -18.408 L 127.054 -21.342 L 123.790 -23.504 L 120.077 -24.748 L 116.168 -24.988 L 112.331 -24.208 L 108.826 -22.462 L 105.892 -19.868 L 103.730 -16.604 L 102.486 -12.891 L 102.246 -8.982 L 102.325 -7.845 L 98.337 -9.522 L 93.762 -9.895 L 89.925 -9.116 L 86.420 -7.369 L 83.487 -4.776 L 81.324 -1.511 L 80.081 2.202 L 79.840 6.111 L 81.332 11.627 L 84.658 16.053 L 89.337 18.982 L 85.108 22.518 L 82.426 27.349 L 81.716 33.045 M 124.920 100.708 L 129.875 100.132 L 134.755 99.101 L 139.519 97.625 L 144.127 95.715 L 148.539 93.388 L 152.717 90.664 L 156.626 87.567 L 160.233 84.121 L 163.506 80.358 L 166.418 76.309 L 168.945 72.008 L 171.063 67.492 L 172.756 62.801 L 174.009 57.973 L 174.811 53.050 L 175.155 48.074 L 175.039 43.087 L 169.521 43.749 L 164.207 44.934 L 159.122 46.614 L 154.289 48.761 L 149.734 51.347 L 145.480 54.343 L 141.552 57.723 L 137.975 61.456 L 134.773 65.516 L 131.971 69.874 L 129.593 74.502 L 127.663 79.372 L 126.207 84.456 L 125.248 89.725 L 124.811 95.152 L 124.920 100.708 M 107.692 46.492 L 107.869 51.476 L 108.504 56.423 L 109.594 61.291 L 111.127 66.037 L 113.092 70.621 L 115.472 75.005 L 118.246 79.150 L 121.391 83.022 L 124.879 86.587 L 128.682 89.814 L 132.766 92.678 L 137.097 95.152 L 141.638 97.216 L 146.349 98.852 L 151.192 100.047 L 156.124 100.789 L 161.104 101.073 L 160.885 95.520 L 160.125 90.129 L 158.851 84.925 L 157.089 79.935 L 154.866 75.187 L 152.209 70.706 L 149.146 66.520 L 145.702 62.654 L 141.905 59.137 L 137.782 55.994 L 133.359 53.252 L 128.663 50.938 L 123.722 49.078 L 118.562 47.699 L 113.210 46.828 L 107.692 46.492 M 162.177 2.079 L 166.053 2.632 L 169.655 4.170 L 172.735 6.587 L 175.085 9.720 L 176.544 13.353 L 177.013 17.241 L 176.460 21.117 L 174.923 24.719 L 172.505 27.799 L 169.373 30.149 L 165.739 31.609 L 161.852 32.078 L 157.975 31.524 L 154.374 29.987 L 151.293 27.569 L 148.943 24.437 L 147.484 20.803 L 147.015 16.916 L 147.568 13.039 L 149.106 9.438 L 151.523 6.358 L 154.655 4.008 L 158.289 2.548 L 162.177 2.079 M 123.470 30.162 L 123.939 34.049 L 125.398 37.683 L 127.748 40.815 L 130.829 43.232 L 134.430 44.770 L 138.307 45.323 L 142.852 44.660 L 146.735 42.774 L 146.723 43.914 L 147.192 47.802 L 148.651 51.436 L 151.001 54.568 L 154.081 56.985 L 157.683 58.523 L 161.559 59.076 L 165.447 58.607 L 169.080 57.148 L 172.213 54.798 L 174.630 51.717 L 176.168 48.116 L 176.721 44.239 L 176.733 43.099 L 180.575 45.069 L 185.104 45.830 L 189.852 45.117 L 193.992 43.031 L 197.275 39.819 L 199.449 35.725 L 200.266 30.994 L 199.222 25.349 L 196.262 20.683 L 191.832 17.402 L 196.332 14.203 L 199.393 9.590 L 200.558 3.995 L 199.845 -0.752 L 197.759 -4.893 L 194.547 -8.175 L 190.453 -10.350 L 185.722 -11.166 L 181.177 -10.526 L 177.294 -8.618 L 177.306 -9.757 L 176.837 -13.645 L 175.378 -17.279 L 173.028 -20.411 L 169.947 -22.828 L 166.346 -24.366 L 162.469 -24.919 L 158.582 -24.450 L 154.948 -22.991 L 151.816 -20.641 L 149.398 -17.560 L 147.861 -13.959 L 147.308 -10.083 L 147.295 -8.943 L 143.454 -10.934 L 138.924 -11.673 L 135.037 -11.204 L 131.403 -9.745 L 128.271 -7.395 L 125.854 -4.315 L 124.316 -0.713 L 123.763 3.163 L 124.806 8.781 L 127.767 13.460 L 132.196 16.755 L 127.697 19.940 L 124.636 24.541 L 123.470 30.162 M 161.104 101.073 L 166.089 100.897 L 171.036 100.262 L 175.903 99.172 L 180.649 97.639 L 185.234 95.673 L 189.617 93.294 L 193.763 90.520 L 197.634 87.375 L 201.199 83.886 L 204.427 80.084 L 207.290 76.000 L 209.764 71.669 L 211.828 67.128 L 213.465 62.416 L 214.659 57.574 L 215.402 52.641 L 215.686 47.662 L 210.133 47.878 L 204.741 48.633 L 199.537 49.900 L 194.548 51.652 L 189.799 53.864 L 185.319 56.509 L 181.133 59.562 L 177.268 62.996 L 173.750 66.786 L 170.607 70.905 L 167.865 75.327 L 165.551 80.027 L 163.691 84.977 L 162.312 90.152 L 161.441 95.527 L 161.104 101.073 M 146.205 41.212 L 146.167 46.200 L 146.590 51.170 L 147.469 56.079 L 148.798 60.887 L 150.564 65.552 L 152.753 70.033 L 155.347 74.294 L 158.322 78.297 L 161.654 82.008 L 165.315 85.396 L 169.272 88.432 L 173.493 91.090 L 177.941 93.348 L 182.578 95.185 L 187.365 96.586 L 192.260 97.540 L 197.223 98.038 L 197.243 92.480 L 196.716 87.061 L 195.666 81.807 L 194.120 76.746 L 192.103 71.907 L 189.641 67.316 L 186.760 63.002 L 183.486 58.993 L 179.843 55.315 L 175.859 51.998 L 171.558 49.069 L 166.966 46.555 L 162.109 44.485 L 157.013 42.885 L 151.703 41.785 L 146.205 41.212 M 202.547 -0.819 L 206.396 -0.100 L 209.928 1.591 L 212.902 4.138 L 215.115 7.369 L 216.417 11.062 L 216.719 14.966 L 216.000 18.815 L 214.309 22.347 L 211.761 25.321 L 208.531 27.534 L 204.838 28.836 L 200.934 29.138 L 197.085 28.418 L 193.553 26.728 L 190.579 24.180 L 188.366 20.950 L 187.064 17.257 L 186.762 13.353 L 187.481 9.503 L 189.172 5.972 L 191.720 2.998 L 194.950 0.784 L 198.643 -0.517 L 202.547 -0.819 M 162.670 25.575 L 162.972 29.479 L 164.273 33.172 L 166.487 36.402 L 169.461 38.950 L 172.993 40.641 L 176.842 41.360 L 181.411 40.892 L 185.372 39.175 L 185.310 40.314 L 185.612 44.218 L 186.914 47.911 L 189.127 51.141 L 192.101 53.688 L 195.633 55.379 L 199.482 56.099 L 203.386 55.797 L 207.079 54.495 L 210.309 52.282 L 212.857 49.308 L 214.548 45.776 L 215.267 41.927 L 215.328 40.788 L 219.081 42.921 L 223.574 43.876 L 228.348 43.367 L 232.574 41.461 L 235.991 38.393 L 238.340 34.396 L 239.359 29.705 L 238.559 24.020 L 235.801 19.232 L 231.517 15.763 L 236.150 12.761 L 239.406 8.283 L 240.811 2.744 L 240.302 -2.030 L 238.396 -6.256 L 235.328 -9.674 L 231.331 -12.022 L 226.639 -13.041 L 222.071 -12.596 L 218.109 -10.857 L 218.171 -11.995 L 217.869 -15.899 L 216.567 -19.592 L 214.354 -22.823 L 211.380 -25.370 L 207.848 -27.061 L 203.999 -27.780 L 200.095 -27.478 L 196.402 -26.177 L 193.171 -23.963 L 190.624 -20.989 L 188.933 -17.457 L 188.214 -13.608 L 188.153 -12.470 L 184.401 -14.625 L 179.907 -15.558 L 176.003 -15.256 L 172.310 -13.954 L 169.079 -11.741 L 166.532 -8.767 L 164.841 -5.235 L 164.122 -1.386 L 164.923 4.272 L 167.680 9.074 L 171.964 12.556 L 167.332 15.544 L 164.076 20.009 L 162.670 25.575 M 197.223 98.038 L 202.211 98.076 L 207.181 97.653 L 212.091 96.774 L 216.898 95.446 L 221.563 93.679 L 226.044 91.490 L 230.305 88.896 L 234.308 85.921 L 238.020 82.589 L 241.408 78.928 L 244.444 74.971 L 247.102 70.750 L 249.359 66.302 L 251.196 61.665 L 252.597 56.878 L 253.551 51.983 L 254.049 47.020 L 248.492 46.998 L 243.073 47.520 L 237.819 48.562 L 232.759 50.098 L 227.920 52.104 L 223.330 54.554 L 219.016 57.425 L 215.007 60.690 L 211.331 64.325 L 208.014 68.305 L 205.084 72.606 L 202.570 77.201 L 200.499 82.067 L 198.900 87.179 L 197.798 92.510 L 197.223 98.038 M 185.799 50.164 L 186.236 55.132 L 187.129 60.039 L 188.472 64.843 L 190.252 69.502 L 192.454 73.978 L 195.060 78.231 L 198.047 82.225 L 201.390 85.927 L 205.060 89.305 L 209.026 92.329 L 213.254 94.975 L 217.709 97.219 L 222.351 99.043 L 227.142 100.430 L 232.041 101.370 L 237.005 101.853 L 241.993 101.877 L 241.484 96.343 L 240.443 90.998 L 238.898 85.868 L 236.877 80.977 L 234.409 76.351 L 231.522 72.016 L 228.243 67.995 L 224.602 64.316 L 220.626 61.002 L 216.344 58.079 L 211.784 55.572 L 206.974 53.507 L 201.942 51.908 L 196.717 50.801 L 191.326 50.211 L 185.799 50.164 M 237.885 2.962 L 241.785 3.311 L 245.462 4.658 L 248.665 6.911 L 251.176 9.916 L 252.823 13.469 L 253.495 17.326 L 253.145 21.227 L 251.798 24.903 L 249.545 28.106 L 246.540 30.617 L 242.988 32.264 L 239.130 32.936 L 235.230 32.586 L 231.553 31.239 L 228.350 28.986 L 225.840 25.981 L 224.192 22.429 L 223.521 18.571 L 223.870 14.671 L 225.217 10.994 L 227.470 7.791 L 230.475 5.281 L 234.028 3.634 L 237.885 2.962 M 200.701 33.030 L 201.373 36.888 L 203.020 40.441 L 205.530 43.446 L 208.733 45.698 L 212.410 47.046 L 216.310 47.395 L 220.814 46.495 L 224.593 44.409 L 224.641 45.548 L 225.313 49.406 L 226.960 52.958 L 229.470 55.963 L 232.673 58.216 L 236.350 59.563 L 240.250 59.913 L 244.108 59.241 L 247.660 57.594 L 250.665 55.083 L 252.918 51.880 L 254.265 48.203 L 254.615 44.303 L 254.568 43.164 L 258.507 44.930 L 263.070 45.453 L 267.774 44.492 L 271.799 42.193 L 274.909 38.813 L 276.867 34.611 L 277.435 29.844 L 276.097 24.261 L 272.897 19.757 L 268.302 16.712 L 272.628 13.283 L 275.444 8.515 L 276.314 2.867 L 275.353 -1.836 L 273.054 -5.862 L 269.674 -8.972 L 265.472 -10.930 L 260.705 -11.497 L 256.200 -10.620 L 252.422 -8.511 L 252.374 -9.650 L 251.703 -13.508 L 250.055 -17.060 L 247.545 -20.065 L 244.342 -22.318 L 240.665 -23.665 L 236.765 -24.015 L 232.907 -23.343 L 229.355 -21.696 L 226.350 -19.185 L 224.097 -15.982 L 222.750 -12.306 L 222.400 -8.406 L 222.448 -7.267 L 218.508 -9.055 L 213.945 -9.556 L 210.088 -8.884 L 206.535 -7.237 L 203.530 -4.726 L 201.277 -1.523 L 199.930 2.154 L 199.581 6.054 L 200.917 11.610 L 204.118 16.127 L 208.713 19.186 L 204.387 22.602 L 201.571 27.356 L 200.701 33.030 M 241.993 101.877 L 246.961 101.440 L 251.869 100.546 L 256.672 99.204 L 261.332 97.424 L 265.807 95.222 L 270.060 92.616 L 274.055 89.629 L 277.756 86.286 L 281.134 82.616 L 284.158 78.649 L 286.804 74.421 L 289.048 69.967 L 290.872 65.324 L 292.259 60.533 L 293.199 55.635 L 293.682 50.670 L 293.706 45.683 L 288.172 46.189 L 282.827 47.225 L 277.696 48.762 L 272.805 50.773 L 268.179 53.230 L 263.843 56.106 L 259.822 59.374 L 256.142 63.006 L 252.828 66.975 L 249.905 71.252 L 247.398 75.812 L 245.333 80.626 L 243.734 85.667 L 242.628 90.907 L 242.039 96.320 L 241.993 101.877 M -14.169 89.585 L -13.633 94.544 L -12.641 99.432 L -11.203 104.208 L -9.330 108.831 L -7.039 113.261 L -4.349 117.461 L -1.282 121.395 L 2.134 125.029 L 5.871 128.333 L 9.897 131.277 L 14.178 133.838 L 18.676 135.992 L 23.354 137.723 L 28.172 139.014 L 33.088 139.855 L 38.061 140.239 L 43.049 140.163 L 42.429 134.640 L 41.281 129.317 L 39.634 124.219 L 37.516 119.370 L 34.955 114.795 L 31.982 110.518 L 28.624 106.564 L 24.909 102.958 L 20.868 99.724 L 16.528 96.887 L 11.919 94.472 L 7.068 92.504 L 2.005 91.006 L -3.241 90.004 L -8.642 89.522 L -14.169 89.585 M 36.962 41.350 L 40.868 41.622 L 44.571 42.895 L 47.819 45.083 L 50.389 48.037 L 52.107 51.556 L 52.856 55.400 L 52.584 59.306 L 51.311 63.009 L 49.123 66.256 L 46.169 68.826 L 42.650 70.545 L 38.806 71.293 L 34.900 71.022 L 31.197 69.749 L 27.950 67.560 L 25.380 64.606 L 23.661 61.087 L 22.913 57.244 L 23.184 53.338 L 24.457 49.635 L 26.646 46.387 L 29.600 43.817 L 33.119 42.099 L 36.962 41.350 M 0.387 72.157 L 1.136 76.001 L 2.854 79.519 L 5.424 82.473 L 8.671 84.662 L 12.374 85.935 L 16.281 86.206 L 20.766 85.216 L 24.502 83.055 L 24.573 84.193 L 25.321 88.036 L 27.039 91.555 L 29.610 94.509 L 32.857 96.698 L 36.560 97.971 L 40.466 98.242 L 44.310 97.494 L 47.829 95.775 L 50.783 93.205 L 52.971 89.958 L 54.244 86.255 L 54.516 82.349 L 54.446 81.211 L 58.419 82.897 L 62.992 83.329 L 67.676 82.274 L 71.654 79.895 L 74.696 76.454 L 76.569 72.213 L 77.042 67.435 L 75.593 61.881 L 72.303 57.441 L 67.648 54.488 L 71.904 50.973 L 74.624 46.150 L 75.382 40.487 L 74.327 35.803 L 71.947 31.824 L 68.506 28.782 L 64.265 26.909 L 59.488 26.437 L 55.001 27.405 L 51.266 29.589 L 51.196 28.451 L 50.447 24.607 L 48.729 21.088 L 46.159 18.134 L 42.911 15.946 L 39.208 14.673 L 35.302 14.401 L 31.459 15.150 L 27.940 16.868 L 24.986 19.438 L 22.797 22.686 L 21.524 26.389 L 21.253 30.295 L 21.323 31.433 L 17.348 29.724 L 12.776 29.314 L 8.933 30.063 L 5.414 31.781 L 2.460 34.351 L 0.272 37.599 L -1.002 41.302 L -1.273 45.208 L 0.174 50.736 L 3.465 55.189 L 8.121 58.155 L 3.863 61.657 L 1.143 66.466 L 0.387 72.157 M 43.049 140.163 L 48.007 139.627 L 52.896 138.635 L 57.672 137.197 L 62.294 135.324 L 66.725 133.033 L 70.925 130.342 L 74.859 127.276 L 78.493 123.859 L 81.796 120.122 L 84.741 116.096 L 87.301 111.816 L 89.456 107.318 L 91.186 102.639 L 92.477 97.822 L 93.319 92.905 L 93.703 87.932 L 93.626 82.945 L 88.104 83.563 L 82.781 84.705 L 77.682 86.344 L 72.832 88.453 L 68.256 91.002 L 63.978 93.965 L 60.024 97.312 L 56.417 101.017 L 53.183 105.051 L 50.346 109.386 L 47.931 113.995 L 45.962 118.850 L 44.465 123.922 L 43.464 129.183 L 42.984 134.606 L 43.049 140.163 M 28.130 88.127 L 28.636 93.089 L 29.598 97.983 L 31.007 102.768 L 32.851 107.402 L 35.115 111.847 L 37.780 116.063 L 40.822 120.016 L 44.216 123.671 L 47.933 126.997 L 51.941 129.966 L 56.205 132.553 L 60.691 134.735 L 65.358 136.494 L 70.168 137.815 L 75.079 138.686 L 80.049 139.101 L 85.037 139.055 L 84.451 133.528 L 83.336 128.199 L 81.720 123.090 L 79.632 118.228 L 77.099 113.637 L 74.152 109.342 L 70.818 105.368 L 67.126 101.739 L 63.105 98.481 L 58.782 95.617 L 54.188 93.174 L 49.349 91.176 L 44.296 89.647 L 39.056 88.613 L 33.658 88.098 L 28.130 88.127 M 79.556 40.207 L 83.461 40.502 L 87.156 41.798 L 90.390 44.006 L 92.942 46.976 L 94.638 50.505 L 95.364 54.353 L 95.068 58.258 L 93.772 61.953 L 91.564 65.187 L 88.594 67.739 L 85.065 69.435 L 81.217 70.161 L 77.312 69.865 L 73.617 68.569 L 70.383 66.361 L 67.831 63.391 L 66.135 59.862 L 65.410 56.014 L 65.705 52.109 L 67.001 48.414 L 69.209 45.180 L 72.179 42.628 L 75.708 40.932 L 79.556 40.207 M 42.793 70.789 L 43.518 74.637 L 45.215 78.166 L 47.767 81.136 L 51.001 83.344 L 54.696 84.640 L 58.600 84.935 L 63.091 83.973 L 66.841 81.834 L 66.904 82.973 L 67.630 86.821 L 69.326 90.350 L 71.878 93.320 L 75.112 95.528 L 78.807 96.824 L 82.712 97.119 L 86.560 96.394 L 90.089 94.697 L 93.059 92.145 L 95.267 88.912 L 96.563 85.216 L 96.858 81.312 L 96.795 80.174 L 100.759 81.884 L 105.328 82.345 L 110.018 81.318 L 114.012 78.963 L 117.074 75.541 L 118.974 71.312 L 119.475 66.537 L 118.060 60.974 L 114.797 56.514 L 110.161 53.533 L 114.439 50.044 L 117.188 45.238 L 117.980 39.579 L 116.954 34.889 L 114.599 30.895 L 111.177 27.833 L 106.948 25.933 L 102.173 25.432 L 97.681 26.372 L 93.932 28.533 L 93.869 27.395 L 93.144 23.547 L 91.447 20.017 L 88.895 17.048 L 85.661 14.839 L 81.966 13.543 L 78.061 13.248 L 74.213 13.973 L 70.684 15.670 L 67.714 18.222 L 65.506 21.456 L 64.210 25.151 L 63.915 29.055 L 63.978 30.194 L 60.013 28.461 L 55.445 28.023 L 51.597 28.748 L 48.067 30.445 L 45.098 32.997 L 42.889 36.230 L 41.594 39.926 L 41.298 43.830 L 42.711 49.367 L 45.975 53.840 L 50.612 56.834 L 46.334 60.310 L 43.584 65.103 L 42.793 70.789 M 85.037 139.055 L 89.999 138.549 L 94.893 137.587 L 99.678 136.178 L 104.312 134.334 L 108.756 132.070 L 112.973 129.405 L 116.925 126.363 L 120.580 122.969 L 123.907 119.252 L 126.876 115.244 L 129.462 110.980 L 131.645 106.495 L 133.404 101.827 L 134.724 97.017 L 135.596 92.106 L 136.010 87.136 L 135.965 82.148 L 130.438 82.732 L 125.108 83.842 L 119.999 85.450 L 115.137 87.528 L 110.545 90.049 L 106.249 92.986 L 102.275 96.309 L 98.645 99.992 L 95.386 104.006 L 92.523 108.324 L 90.080 112.918 L 88.081 117.760 L 86.553 122.822 L 85.520 128.078 L 85.006 133.498 L 85.037 139.055 M 63.836 80.370 L 63.711 85.357 L 64.047 90.333 L 64.841 95.257 L 66.086 100.087 L 67.771 104.782 L 69.882 109.301 L 72.401 113.606 L 75.307 117.660 L 78.574 121.429 L 82.175 124.880 L 86.079 127.984 L 90.253 130.715 L 94.661 133.049 L 99.265 134.967 L 104.027 136.451 L 108.905 137.490 L 113.859 138.074 L 113.976 132.518 L 113.542 127.090 L 112.584 121.818 L 111.126 116.731 L 109.193 111.858 L 106.812 107.225 L 104.006 102.861 L 100.802 98.796 L 97.224 95.056 L 93.297 91.670 L 89.048 88.666 L 84.500 86.073 L 79.680 83.919 L 74.613 82.231 L 69.323 81.039 L 63.836 80.370 M 120.899 39.324 L 124.735 40.110 L 128.237 41.862 L 131.166 44.461 L 133.323 47.729 L 134.561 51.444 L 134.794 55.353 L 134.008 59.189 L 132.256 62.691 L 129.658 65.620 L 126.390 67.777 L 122.674 69.015 L 118.766 69.248 L 114.930 68.462 L 111.428 66.710 L 108.498 64.112 L 106.341 60.844 L 105.104 57.128 L 104.870 53.220 L 105.656 49.383 L 107.408 45.881 L 110.007 42.952 L 113.275 40.795 L 116.990 39.558 L 120.899 39.324 M 80.570 65.021 L 80.803 68.930 L 82.041 72.645 L 84.198 75.914 L 87.127 78.512 L 90.629 80.264 L 94.465 81.050 L 99.042 80.662 L 103.031 79.014 L 102.950 80.151 L 103.184 84.060 L 104.421 87.775 L 106.578 91.043 L 109.508 93.642 L 113.010 95.394 L 116.846 96.180 L 120.754 95.946 L 124.470 94.709 L 127.738 92.552 L 130.336 89.623 L 132.088 86.121 L 132.874 82.285 L 132.955 81.147 L 136.671 83.345 L 141.146 84.378 L 145.928 83.952 L 150.187 82.120 L 153.657 79.111 L 156.075 75.156 L 157.175 70.483 L 156.474 64.785 L 153.800 59.949 L 149.577 56.407 L 154.261 53.486 L 157.595 49.065 L 159.095 43.551 L 158.669 38.769 L 156.837 34.511 L 153.828 31.040 L 149.873 28.623 L 145.200 27.522 L 140.625 27.888 L 136.633 29.558 L 136.714 28.421 L 136.481 24.512 L 135.243 20.797 L 133.086 17.529 L 130.157 14.930 L 126.655 13.178 L 122.819 12.393 L 118.910 12.626 L 115.195 13.864 L 111.927 16.021 L 109.328 18.950 L 107.576 22.452 L 106.790 26.288 L 106.709 27.425 L 102.995 25.205 L 98.518 24.194 L 94.609 24.428 L 90.894 25.666 L 87.626 27.822 L 85.027 30.752 L 83.275 34.254 L 82.490 38.090 L 83.192 43.761 L 85.866 48.610 L 90.088 52.166 L 85.405 55.073 L 82.072 59.481 L 80.570 65.021 M 113.859 138.074 L 118.845 138.198 L 123.822 137.862 L 128.746 137.068 L 133.576 135.824 L 138.270 134.138 L 142.789 132.027 L 147.094 129.508 L 151.149 126.603 L 154.917 123.336 L 158.369 119.735 L 161.473 115.831 L 164.204 111.657 L 166.538 107.249 L 168.455 102.644 L 169.940 97.882 L 170.978 93.004 L 171.562 88.050 L 166.006 87.932 L 160.579 88.360 L 155.308 89.310 L 150.222 90.758 L 145.349 92.680 L 140.717 95.050 L 136.354 97.845 L 132.289 101.040 L 128.550 104.611 L 125.164 108.533 L 122.160 112.782 L 119.567 117.333 L 117.412 122.162 L 115.724 127.245 L 114.530 132.557 L 113.859 138.074 M 105.971 89.506 L 106.433 94.472 L 107.351 99.375 L 108.718 104.172 L 110.522 108.822 L 112.747 113.286 L 115.374 117.526 L 118.382 121.505 L 121.744 125.189 L 125.431 128.548 L 129.413 131.552 L 133.654 134.177 L 138.120 136.398 L 142.772 138.198 L 147.570 139.561 L 152.473 140.475 L 157.440 140.934 L 162.428 140.932 L 161.891 135.400 L 160.822 130.061 L 159.251 124.939 L 157.205 120.059 L 154.714 115.445 L 151.804 111.125 L 148.505 107.121 L 144.845 103.460 L 140.853 100.166 L 136.556 97.265 L 131.983 94.782 L 127.162 92.741 L 122.122 91.168 L 116.891 90.088 L 111.498 89.525 L 105.971 89.506 M 157.816 42.039 L 161.717 42.369 L 165.401 43.697 L 168.615 45.934 L 171.141 48.926 L 172.807 52.470 L 173.498 56.324 L 173.168 60.226 L 171.840 63.910 L 169.604 67.124 L 166.611 69.650 L 163.067 71.315 L 159.213 72.007 L 155.311 71.677 L 151.628 70.349 L 148.413 68.112 L 145.887 65.120 L 144.222 61.576 L 143.531 57.722 L 143.860 53.820 L 145.189 50.136 L 147.425 46.922 L 150.417 44.396 L 153.961 42.731 L 157.816 42.039 M 120.785 72.297 L 121.476 76.151 L 123.142 79.695 L 125.668 82.688 L 128.882 84.924 L 132.566 86.252 L 136.467 86.582 L 140.967 85.659 L 144.735 83.554 L 144.788 84.692 L 145.480 88.547 L 147.145 92.091 L 149.671 95.083 L 152.885 97.319 L 156.569 98.648 L 160.471 98.977 L 164.325 98.286 L 167.869 96.620 L 170.861 94.095 L 173.098 90.880 L 174.426 87.197 L 174.756 83.295 L 174.703 82.156 L 178.651 83.901 L 183.217 84.402 L 187.915 83.417 L 191.929 81.097 L 195.022 77.702 L 196.958 73.489 L 197.502 68.719 L 196.136 63.144 L 192.912 58.655 L 188.302 55.634 L 192.610 52.183 L 195.402 47.401 L 196.244 41.749 L 195.259 37.050 L 192.939 33.036 L 189.543 29.943 L 185.331 28.007 L 180.561 27.464 L 176.061 28.364 L 172.293 30.492 L 172.240 29.353 L 171.549 25.499 L 169.883 21.955 L 167.357 18.963 L 164.143 16.727 L 160.460 15.398 L 156.558 15.068 L 152.703 15.760 L 149.159 17.425 L 146.167 19.951 L 143.931 23.166 L 142.602 26.849 L 142.273 30.751 L 142.326 31.890 L 138.377 30.122 L 133.812 29.644 L 129.958 30.335 L 126.414 32.001 L 123.422 34.527 L 121.185 37.741 L 119.857 41.425 L 119.527 45.326 L 120.892 50.876 L 124.116 55.377 L 128.727 58.412 L 124.418 61.850 L 121.626 66.618 L 120.785 72.297 M 162.428 140.932 L 167.394 140.469 L 172.296 139.551 L 177.093 138.184 L 181.744 136.380 L 186.208 134.155 L 190.447 131.528 L 194.426 128.520 L 198.111 125.159 L 201.470 121.471 L 204.474 117.490 L 207.098 113.248 L 209.320 108.782 L 211.120 104.130 L 212.483 99.332 L 213.397 94.429 L 213.855 89.462 L 213.853 84.475 L 208.322 85.010 L 202.982 86.073 L 197.860 87.636 L 192.979 89.671 L 188.365 92.152 L 184.044 95.051 L 180.040 98.339 L 176.379 101.989 L 173.085 105.975 L 170.183 110.268 L 167.700 114.840 L 165.659 119.664 L 164.086 124.713 L 163.007 129.959 L 162.446 135.375 L 162.428 140.932 M 147.485 80.924 L 147.358 85.911 L 147.692 90.887 L 148.483 95.812 L 149.725 100.643 L 151.408 105.338 L 153.517 109.858 L 156.033 114.164 L 158.937 118.220 L 162.202 121.991 L 165.801 125.444 L 169.704 128.550 L 173.876 131.283 L 178.283 133.619 L 182.887 135.539 L 187.648 137.026 L 192.526 138.067 L 197.479 138.654 L 197.598 133.098 L 197.167 127.670 L 196.212 122.398 L 194.757 117.310 L 192.827 112.435 L 190.447 107.801 L 187.644 103.436 L 184.442 99.369 L 180.866 95.627 L 176.941 92.239 L 172.693 89.233 L 168.147 86.638 L 163.328 84.481 L 158.261 82.791 L 152.972 81.596 L 147.485 80.924 M 204.570 39.908 L 208.406 40.696 L 211.907 42.450 L 214.835 45.050 L 216.990 48.319 L 218.225 52.035 L 218.457 55.944 L 217.669 59.780 L 215.915 63.281 L 213.315 66.209 L 210.046 68.364 L 206.330 69.599 L 202.421 69.831 L 198.585 69.043 L 195.084 67.289 L 192.157 64.689 L 190.001 61.420 L 188.766 57.704 L 188.534 53.795 L 189.322 49.959 L 191.076 46.458 L 193.676 43.530 L 196.945 41.375 L 200.661 40.140 L 204.570 39.908 M 164.227 65.584 L 164.459 69.493 L 165.694 73.209 L 167.850 76.478 L 170.777 79.078 L 174.279 80.832 L 178.114 81.620 L 182.691 81.234 L 186.682 79.589 L 186.600 80.726 L 186.832 84.635 L 188.067 88.350 L 190.223 91.620 L 193.150 94.220 L 196.651 95.974 L 200.487 96.762 L 204.396 96.530 L 208.112 95.294 L 211.381 93.139 L 213.981 90.211 L 215.735 86.710 L 216.523 82.875 L 216.605 81.737 L 220.319 83.937 L 224.794 84.972 L 229.576 84.549 L 233.836 82.719 L 237.308 79.712 L 239.727 75.758 L 240.830 71.085 L 240.132 65.387 L 237.460 60.550 L 233.239 57.005 L 237.925 54.087 L 241.261 49.668 L 242.764 44.155 L 242.340 39.373 L 240.510 35.113 L 237.504 31.641 L 233.549 29.221 L 228.877 28.119 L 224.302 28.482 L 220.309 30.150 L 220.391 29.013 L 220.159 25.104 L 218.924 21.389 L 216.769 18.119 L 213.841 15.519 L 210.340 13.765 L 206.504 12.977 L 202.595 13.209 L 198.879 14.445 L 195.610 16.600 L 193.010 19.528 L 191.256 23.029 L 190.468 26.864 L 190.386 28.001 L 186.674 25.780 L 182.197 24.767 L 178.288 24.998 L 174.572 26.234 L 171.303 28.389 L 168.703 31.317 L 166.949 34.818 L 166.161 38.654 L 166.861 44.325 L 169.532 49.175 L 173.752 52.733 L 169.068 55.639 L 165.732 60.044 L 164.227 65.584 M 197.479 138.654 L 202.465 138.781 L 207.442 138.447 L 212.366 137.656 L 217.197 136.414 L 221.892 134.731 L 226.412 132.622 L 230.719 130.106 L 234.774 127.202 L 238.545 123.937 L 241.998 120.338 L 245.104 116.435 L 247.837 112.263 L 250.174 107.856 L 252.093 103.253 L 253.580 98.492 L 254.621 93.614 L 255.208 88.660 L 249.652 88.539 L 244.224 88.964 L 238.953 89.912 L 233.866 91.357 L 228.992 93.276 L 224.359 95.644 L 219.995 98.437 L 215.928 101.630 L 212.187 105.199 L 208.799 109.119 L 205.793 113.366 L 203.198 117.916 L 201.040 122.744 L 199.349 127.826 L 198.152 133.137 L 197.479 138.654 M 185.117 84.156 L 185.296 89.141 L 185.934 94.088 L 187.026 98.955 L 188.562 103.700 L 190.529 108.283 L 192.911 112.666 L 195.687 116.810 L 198.834 120.680 L 202.324 124.243 L 206.129 127.469 L 210.214 130.330 L 214.546 132.802 L 219.088 134.863 L 223.801 136.497 L 228.644 137.689 L 233.577 138.429 L 238.557 138.711 L 238.335 133.158 L 237.572 127.767 L 236.295 122.563 L 234.530 117.575 L 232.305 112.827 L 229.646 108.348 L 226.580 104.163 L 223.135 100.300 L 219.336 96.784 L 215.211 93.643 L 210.787 90.904 L 206.090 88.592 L 201.148 86.735 L 195.987 85.359 L 190.634 84.490 L 185.117 84.156 M 239.579 39.716 L 243.455 40.267 L 247.057 41.803 L 250.139 44.219 L 252.491 47.350 L 253.952 50.983 L 254.423 54.870 L 253.872 58.747 L 252.336 62.349 L 249.920 65.431 L 246.789 67.783 L 243.156 69.244 L 239.269 69.715 L 235.392 69.164 L 231.790 67.628 L 228.708 65.212 L 226.357 62.081 L 224.896 58.448 L 224.424 54.561 L 224.976 50.684 L 226.511 47.082 L 228.927 44.000 L 232.058 41.648 L 235.691 40.187 L 239.579 39.716 M 200.886 67.818 L 201.357 71.706 L 202.818 75.339 L 205.170 78.470 L 208.252 80.885 L 211.854 82.421 L 215.731 82.972 L 220.275 82.307 L 224.158 80.419 L 224.146 81.559 L 224.617 85.447 L 226.078 89.080 L 228.429 92.211 L 231.511 94.626 L 235.113 96.162 L 238.990 96.713 L 242.877 96.242 L 246.510 94.781 L 249.641 92.430 L 252.057 89.348 L 253.593 85.746 L 254.144 81.869 L 254.156 80.729 L 257.998 82.696 L 262.528 83.456 L 267.275 82.739 L 271.415 80.652 L 274.696 77.438 L 276.868 73.343 L 277.682 68.611 L 276.636 62.967 L 273.673 58.303 L 269.242 55.023 L 273.740 51.823 L 276.799 47.208 L 277.961 41.613 L 277.245 36.865 L 275.157 32.726 L 271.943 29.445 L 267.848 27.273 L 263.117 26.459 L 258.572 27.102 L 254.690 29.012 L 254.702 27.872 L 254.231 23.984 L 252.770 20.351 L 250.418 17.220 L 247.336 14.805 L 243.734 13.269 L 239.857 12.718 L 235.970 13.189 L 232.337 14.650 L 229.206 17.001 L 226.790 20.083 L 225.254 23.685 L 224.703 27.562 L 224.691 28.702 L 220.849 26.712 L 216.319 25.975 L 212.432 26.446 L 208.799 27.907 L 205.668 30.259 L 203.252 33.341 L 201.716 36.943 L 201.165 40.820 L 202.212 46.438 L 205.175 51.115 L 209.605 54.408 L 205.108 57.595 L 202.049 62.197 L 200.886 67.818 M 238.557 138.711 L 243.541 138.532 L 248.488 137.894 L 253.355 136.802 L 258.100 135.266 L 262.684 133.299 L 267.066 130.917 L 271.210 128.140 L 275.080 124.994 L 278.643 121.503 L 281.869 117.699 L 284.730 113.614 L 287.202 109.281 L 289.263 104.740 L 290.897 100.027 L 292.089 95.184 L 292.829 90.251 L 293.111 85.271 L 287.558 85.491 L 282.167 86.248 L 276.964 87.517 L 271.975 89.272 L 267.228 91.486 L 262.748 94.134 L 258.564 97.189 L 254.701 100.626 L 251.185 104.417 L 248.044 108.538 L 245.305 112.961 L 242.993 117.662 L 241.135 122.613 L 239.759 127.789 L 238.891 133.164 L 238.557 138.711 M -12.312 124.754 L -12.205 129.741 L -11.639 134.696 L -10.618 139.579 L -9.151 144.346 L -7.250 148.957 L -4.932 153.374 L -2.217 157.557 L 0.873 161.473 L 4.312 165.086 L 8.069 168.367 L 12.112 171.287 L 16.408 173.822 L 20.919 175.949 L 25.608 177.651 L 30.433 178.914 L 35.354 179.725 L 40.330 180.079 L 40.189 174.524 L 39.505 169.122 L 38.303 163.900 L 36.611 158.887 L 34.455 154.107 L 31.861 149.590 L 28.857 145.361 L 25.468 141.448 L 21.720 137.878 L 17.641 134.677 L 13.257 131.874 L 8.595 129.494 L 3.680 127.565 L -1.460 126.114 L -6.800 125.168 L -12.312 124.754 M 42.790 81.110 L 46.658 81.717 L 50.238 83.305 L 53.284 85.765 L 55.590 88.930 L 56.998 92.584 L 57.412 96.478 L 56.805 100.346 L 55.217 103.926 L 52.757 106.972 L 49.592 109.278 L 45.938 110.686 L 42.044 111.101 L 38.176 110.493 L 34.597 108.905 L 31.550 106.445 L 29.244 103.280 L 27.836 99.626 L 27.422 95.732 L 28.029 91.864 L 29.617 88.285 L 32.077 85.238 L 35.242 82.932 L 38.896 81.524 L 42.790 81.110 M 3.693 108.647 L 4.108 112.541 L 5.516 116.194 L 7.822 119.359 L 10.868 121.820 L 14.448 123.408 L 18.316 124.015 L 22.870 123.415 L 26.779 121.584 L 26.751 122.724 L 27.165 126.618 L 28.573 130.272 L 30.879 133.437 L 33.926 135.897 L 37.505 137.485 L 41.373 138.092 L 45.267 137.678 L 48.921 136.270 L 52.086 133.964 L 54.546 130.917 L 56.134 127.338 L 56.741 123.470 L 56.770 122.330 L 60.583 124.353 L 65.102 125.178 L 69.859 124.531 L 74.028 122.504 L 77.355 119.338 L 79.587 115.274 L 80.470 110.555 L 79.506 104.896 L 76.611 100.190 L 72.228 96.846 L 76.772 93.712 L 79.897 89.141 L 81.141 83.564 L 80.494 78.807 L 78.466 74.637 L 75.300 71.310 L 71.237 69.078 L 66.518 68.196 L 61.965 68.773 L 58.055 70.626 L 58.083 69.486 L 57.669 65.593 L 56.261 61.939 L 53.955 58.774 L 50.909 56.314 L 47.329 54.726 L 43.461 54.118 L 39.567 54.533 L 35.913 55.941 L 32.748 58.247 L 30.288 61.293 L 28.700 64.872 L 28.093 68.741 L 28.064 69.880 L 24.251 67.835 L 19.733 67.033 L 15.839 67.447 L 12.185 68.855 L 9.020 71.161 L 6.560 74.207 L 4.972 77.787 L 4.364 81.655 L 5.329 87.288 L 8.224 92.008 L 12.606 95.364 L 8.063 98.486 L 4.938 103.043 L 3.693 108.647 M 40.330 180.079 L 45.316 179.973 L 50.272 179.407 L 55.154 178.386 L 59.921 176.919 L 64.533 175.018 L 68.949 172.700 L 73.133 169.984 L 77.048 166.894 L 80.662 163.456 L 83.943 159.699 L 86.863 155.655 L 89.397 151.360 L 91.525 146.848 L 93.227 142.160 L 94.489 137.334 L 95.301 132.413 L 95.655 127.438 L 90.099 127.577 L 84.698 128.256 L 79.476 129.449 L 74.463 131.131 L 69.684 133.276 L 65.167 135.859 L 60.938 138.853 L 57.025 142.232 L 53.455 145.973 L 50.255 150.047 L 47.451 154.430 L 45.071 159.097 L 43.142 164.021 L 41.691 169.176 L 40.744 174.538 L 40.330 180.079 M 26.341 123.168 L 26.297 128.155 L 26.714 133.126 L 27.587 138.036 L 28.910 142.846 L 30.671 147.512 L 32.855 151.996 L 35.444 156.260 L 38.415 160.266 L 41.743 163.982 L 45.399 167.374 L 49.353 170.415 L 53.571 173.077 L 58.016 175.340 L 62.651 177.182 L 67.436 178.589 L 72.331 179.548 L 77.293 180.052 L 77.320 174.495 L 76.798 169.075 L 75.754 163.820 L 74.214 158.757 L 72.203 153.915 L 69.746 149.322 L 66.870 145.004 L 63.600 140.991 L 59.962 137.310 L 55.981 133.988 L 51.684 131.054 L 47.095 128.534 L 42.240 126.459 L 37.146 124.854 L 31.838 123.747 L 26.341 123.168 M 82.731 81.202 L 86.579 81.925 L 90.109 83.620 L 93.080 86.171 L 95.289 89.404 L 96.587 93.098 L 96.884 97.003 L 96.161 100.851 L 94.466 104.381 L 91.915 107.352 L 88.682 109.562 L 84.987 110.859 L 81.083 111.156 L 77.235 110.433 L 73.705 108.738 L 70.734 106.187 L 68.524 102.954 L 67.226 99.260 L 66.929 95.355 L 67.653 91.507 L 69.348 87.977 L 71.899 85.006 L 75.132 82.796 L 78.826 81.499 L 82.731 81.202 M 42.823 107.549 L 43.120 111.454 L 44.418 115.148 L 46.627 118.381 L 49.598 120.932 L 53.128 122.627 L 56.977 123.351 L 61.547 122.888 L 65.509 121.176 L 65.446 122.314 L 65.744 126.219 L 67.041 129.913 L 69.251 133.146 L 72.222 135.697 L 75.752 137.392 L 79.600 138.115 L 83.504 137.818 L 87.199 136.521 L 90.432 134.311 L 92.983 131.340 L 94.678 127.810 L 95.401 123.962 L 95.464 122.824 L 99.215 124.960 L 103.706 125.921 L 108.480 125.417 L 112.709 123.517 L 116.130 120.452 L 118.483 116.458 L 119.507 111.768 L 118.714 106.082 L 115.962 101.290 L 111.682 97.817 L 116.318 94.820 L 119.580 90.346 L 120.990 84.808 L 120.487 80.034 L 118.586 75.806 L 115.521 72.385 L 111.527 70.031 L 106.837 69.007 L 102.268 69.447 L 98.304 71.182 L 98.367 70.044 L 98.070 66.139 L 96.772 62.444 L 94.563 59.212 L 91.592 56.661 L 88.062 54.966 L 84.214 54.242 L 80.309 54.539 L 76.614 55.837 L 73.382 58.047 L 70.831 61.017 L 69.136 64.547 L 68.412 68.396 L 68.350 69.534 L 64.600 67.375 L 60.107 66.437 L 56.203 66.734 L 52.508 68.031 L 49.276 70.241 L 46.725 73.212 L 45.030 76.742 L 44.306 80.590 L 45.101 86.249 L 47.852 91.054 L 52.132 94.541 L 47.496 97.524 L 44.235 101.985 L 42.823 107.549 M 77.293 180.052 L 82.281 180.096 L 87.251 179.679 L 92.162 178.805 L 96.971 177.483 L 101.638 175.721 L 106.122 173.537 L 110.385 170.949 L 114.392 167.978 L 118.107 164.650 L 121.500 160.994 L 124.540 157.040 L 127.203 152.822 L 129.465 148.377 L 131.308 143.742 L 132.714 138.957 L 133.674 134.062 L 134.178 129.100 L 128.620 129.071 L 123.201 129.587 L 117.946 130.623 L 112.884 132.153 L 108.043 134.154 L 103.450 136.599 L 99.133 139.464 L 95.120 142.725 L 91.439 146.356 L 88.118 150.332 L 85.183 154.629 L 82.664 159.222 L 80.588 164.085 L 78.982 169.195 L 77.874 174.525 L 77.293 180.052 M 64.055 125.367 L 64.080 130.355 L 64.565 135.319 L 65.505 140.217 L 66.894 145.008 L 68.718 149.650 L 70.964 154.104 L 73.610 158.332 L 76.635 162.297 L 80.014 165.967 L 83.716 169.309 L 87.711 172.295 L 91.965 174.900 L 96.441 177.101 L 101.101 178.880 L 105.905 180.222 L 110.812 181.114 L 115.781 181.550 L 115.731 175.993 L 115.136 170.580 L 114.020 165.340 L 112.411 160.299 L 110.334 155.485 L 107.815 150.925 L 104.880 146.648 L 101.555 142.679 L 97.867 139.048 L 93.841 135.781 L 89.504 132.906 L 84.881 130.450 L 79.999 128.440 L 74.883 126.905 L 69.560 125.871 L 64.055 125.367 M 119.867 82.634 L 123.725 83.305 L 127.277 84.952 L 130.283 87.462 L 132.537 90.664 L 133.884 94.340 L 134.235 98.240 L 133.564 102.098 L 131.917 105.651 L 129.407 108.657 L 126.205 110.910 L 122.529 112.258 L 118.629 112.609 L 114.771 111.938 L 111.218 110.291 L 108.212 107.781 L 105.959 104.579 L 104.611 100.902 L 104.260 97.002 L 104.931 93.144 L 106.578 89.592 L 109.088 86.586 L 112.290 84.332 L 115.967 82.985 L 119.867 82.634 M 80.323 109.525 L 80.674 113.425 L 82.022 117.101 L 84.275 120.304 L 87.281 122.814 L 90.833 124.460 L 94.691 125.131 L 99.254 124.607 L 103.193 122.840 L 103.146 123.979 L 103.496 127.879 L 104.844 131.556 L 107.098 134.758 L 110.103 137.268 L 113.656 138.915 L 117.514 139.586 L 121.414 139.235 L 125.091 137.887 L 128.293 135.634 L 130.803 132.628 L 132.450 129.075 L 133.120 125.217 L 133.168 124.078 L 136.947 126.164 L 141.451 127.063 L 146.218 126.494 L 150.420 124.536 L 153.799 121.425 L 156.098 117.399 L 157.058 112.695 L 156.187 107.021 L 153.369 102.267 L 149.042 98.852 L 153.637 95.792 L 156.837 91.274 L 158.172 85.718 L 157.603 80.951 L 155.645 76.749 L 152.534 73.370 L 148.508 71.071 L 143.804 70.111 L 139.242 70.614 L 135.302 72.402 L 135.349 71.263 L 134.999 67.363 L 133.651 63.687 L 131.397 60.485 L 128.392 57.975 L 124.839 56.328 L 120.981 55.657 L 117.081 56.008 L 113.405 57.355 L 110.202 59.609 L 107.692 62.615 L 106.046 66.167 L 105.375 70.025 L 105.328 71.164 L 101.549 69.056 L 97.044 68.180 L 93.144 68.530 L 89.467 69.878 L 86.265 72.132 L 83.755 75.137 L 82.108 78.690 L 81.438 82.548 L 82.310 88.195 L 85.126 92.962 L 89.453 96.391 L 84.859 99.437 L 81.659 103.942 L 80.323 109.525 M 115.781 181.550 L 120.768 181.525 L 125.733 181.041 L 130.631 180.100 L 135.422 178.711 L 140.064 176.887 L 144.518 174.642 L 148.745 171.995 L 152.711 168.970 L 156.380 165.591 L 159.722 161.889 L 162.709 157.894 L 165.314 153.640 L 167.515 149.164 L 169.294 144.505 L 170.635 139.701 L 171.528 134.793 L 171.963 129.825 L 166.406 129.872 L 160.994 130.462 L 155.754 131.570 L 150.714 133.169 L 145.900 135.235 L 141.341 137.743 L 137.064 140.667 L 133.096 143.982 L 129.465 147.663 L 126.198 151.685 L 123.323 156.021 L 120.866 160.648 L 118.857 165.540 L 117.321 170.670 L 116.286 176.016 L 115.781 181.550 M 105.930 124.411 L 106.145 129.395 L 106.819 134.337 L 107.946 139.195 L 109.516 143.930 L 111.517 148.498 L 113.931 152.863 L 116.737 156.987 L 119.912 160.834 L 123.428 164.372 L 127.255 167.570 L 131.361 170.401 L 135.711 172.842 L 140.268 174.870 L 144.992 176.470 L 149.844 177.627 L 154.782 178.331 L 159.764 178.577 L 159.502 173.026 L 158.700 167.640 L 157.385 162.446 L 155.585 157.470 L 153.325 152.739 L 150.634 148.279 L 147.537 144.117 L 144.064 140.278 L 140.240 136.791 L 136.092 133.680 L 131.648 130.972 L 126.935 128.695 L 121.979 126.873 L 116.808 125.535 L 111.450 124.705 L 105.930 124.411 M 160.068 79.577 L 163.948 80.100 L 167.561 81.610 L 170.661 84.003 L 173.035 87.117 L 174.522 90.739 L 175.022 94.623 L 174.499 98.504 L 172.989 102.117 L 170.596 105.216 L 167.482 107.591 L 163.859 109.078 L 159.976 109.577 L 156.095 109.054 L 152.482 107.545 L 149.383 105.151 L 147.008 102.037 L 145.521 98.415 L 145.022 94.531 L 145.545 90.650 L 147.054 87.037 L 149.448 83.938 L 152.562 81.564 L 156.184 80.076 L 160.068 79.577 M 121.580 107.959 L 122.080 111.843 L 123.567 115.465 L 125.941 118.579 L 129.040 120.973 L 132.654 122.482 L 136.534 123.005 L 141.074 122.307 L 144.942 120.391 L 144.939 121.531 L 145.438 125.415 L 146.925 129.037 L 149.300 132.151 L 152.399 134.544 L 156.012 136.054 L 159.893 136.577 L 163.777 136.078 L 167.399 134.590 L 170.513 132.216 L 172.906 129.117 L 174.416 125.504 L 174.939 121.623 L 174.942 120.483 L 178.799 122.422 L 183.334 123.149 L 188.076 122.398 L 192.200 120.281 L 195.458 117.043 L 197.600 112.932 L 198.380 108.195 L 197.293 102.558 L 194.296 97.916 L 189.841 94.669 L 194.316 91.436 L 197.341 86.798 L 198.463 81.195 L 197.712 76.453 L 195.595 72.329 L 192.357 69.072 L 188.246 66.929 L 183.509 66.149 L 178.969 66.825 L 175.101 68.763 L 175.104 67.623 L 174.605 63.740 L 173.118 60.117 L 170.744 57.003 L 167.644 54.610 L 164.031 53.100 L 160.151 52.577 L 156.267 53.077 L 152.644 54.564 L 149.530 56.938 L 147.137 60.038 L 145.628 63.651 L 145.105 67.531 L 145.101 68.671 L 141.245 66.709 L 136.709 66.006 L 132.825 66.505 L 129.203 67.992 L 126.089 70.366 L 123.696 73.466 L 122.186 77.079 L 121.663 80.959 L 122.750 86.569 L 125.747 91.225 L 130.202 94.486 L 125.727 97.705 L 122.702 102.329 L 121.580 107.959 M 159.764 178.577 L 164.747 178.362 L 169.689 177.688 L 174.548 176.561 L 179.282 174.990 L 183.851 172.990 L 188.216 170.576 L 192.339 167.770 L 196.187 164.595 L 199.724 161.079 L 202.922 157.251 L 205.754 153.145 L 208.194 148.795 L 210.223 144.239 L 211.823 139.514 L 212.979 134.662 L 213.684 129.725 L 213.929 124.743 L 208.378 125.003 L 202.992 125.799 L 197.798 127.106 L 192.823 128.897 L 188.092 131.145 L 183.632 133.826 L 179.469 136.911 L 175.631 140.375 L 172.143 144.192 L 169.032 148.336 L 166.325 152.779 L 164.047 157.496 L 162.226 162.461 L 160.887 167.647 L 160.058 173.027 L 159.764 178.577 M 147.620 123.559 L 147.781 128.544 L 148.402 133.493 L 149.476 138.364 L 150.995 143.115 L 152.946 147.705 L 155.312 152.096 L 158.074 156.250 L 161.206 160.131 L 164.684 163.707 L 168.477 166.946 L 172.552 169.822 L 176.875 172.309 L 181.409 174.387 L 186.116 176.038 L 190.955 177.248 L 195.885 178.005 L 200.864 178.305 L 200.662 172.751 L 199.919 167.357 L 198.660 162.149 L 196.914 157.154 L 194.706 152.399 L 192.063 147.910 L 189.012 143.714 L 185.580 139.839 L 181.794 136.309 L 177.680 133.154 L 173.266 130.398 L 168.577 128.070 L 163.642 126.195 L 158.486 124.800 L 153.137 123.913 L 147.620 123.559 M 202.241 79.314 L 206.116 79.880 L 209.712 81.428 L 212.786 83.855 L 215.126 86.994 L 216.574 90.633 L 217.031 94.522 L 216.466 98.396 L 214.917 101.993 L 212.490 105.066 L 209.351 107.406 L 205.713 108.855 L 201.824 109.312 L 197.949 108.747 L 194.352 107.198 L 191.279 104.771 L 188.939 101.632 L 187.491 97.993 L 187.034 94.104 L 187.599 90.230 L 189.148 86.633 L 191.574 83.560 L 194.714 81.220 L 198.352 79.772 L 202.241 79.314 M 163.448 107.278 L 163.905 111.167 L 165.353 114.805 L 167.694 117.944 L 170.767 120.371 L 174.363 121.920 L 178.238 122.485 L 182.785 121.835 L 186.674 119.962 L 186.658 121.102 L 187.115 124.991 L 188.563 128.629 L 190.904 131.768 L 193.977 134.195 L 197.573 135.744 L 201.448 136.309 L 205.337 135.852 L 208.975 134.404 L 212.115 132.064 L 214.542 128.990 L 216.090 125.394 L 216.655 121.519 L 216.671 120.379 L 220.507 122.360 L 225.034 123.136 L 229.783 122.437 L 233.930 120.364 L 237.223 117.162 L 239.410 113.074 L 240.241 108.346 L 239.215 102.698 L 236.269 98.023 L 231.850 94.728 L 236.359 91.544 L 239.434 86.939 L 240.616 81.348 L 239.917 76.599 L 237.845 72.452 L 234.642 69.160 L 230.555 66.972 L 225.827 66.141 L 221.280 66.768 L 217.391 68.664 L 217.407 67.524 L 216.949 63.635 L 215.501 59.997 L 213.161 56.858 L 210.088 54.431 L 206.491 52.882 L 202.617 52.317 L 198.728 52.774 L 195.089 54.222 L 191.950 56.563 L 189.523 59.636 L 187.974 63.232 L 187.409 67.107 L 187.394 68.247 L 183.559 66.243 L 179.031 65.490 L 175.142 65.947 L 171.504 67.395 L 168.364 69.736 L 165.938 72.809 L 164.389 76.405 L 163.824 80.280 L 164.850 85.902 L 167.796 90.590 L 172.215 93.898 L 167.706 97.069 L 164.631 101.660 L 163.448 107.278 M 200.864 178.305 L 205.849 178.144 L 210.798 177.524 L 215.669 176.449 L 220.420 174.930 L 225.010 172.979 L 229.401 170.613 L 233.555 167.852 L 237.436 164.719 L 241.012 161.241 L 244.251 157.449 L 247.127 153.373 L 249.614 149.050 L 251.692 144.516 L 253.343 139.809 L 254.552 134.970 L 255.310 130.040 L 255.610 125.061 L 250.056 125.261 L 244.662 125.999 L 239.454 127.249 L 234.459 128.986 L 229.704 131.183 L 225.216 133.815 L 221.020 136.855 L 217.144 140.278 L 213.616 144.057 L 210.460 148.166 L 207.704 152.580 L 205.376 157.272 L 203.501 162.216 L 202.106 167.388 L 201.218 172.759 L 200.864 178.305 M 185.923 123.732 L 186.100 128.717 L 186.736 133.664 L 187.825 138.532 L 189.359 143.278 L 191.325 147.862 L 193.705 152.245 L 196.479 156.390 L 199.624 160.262 L 203.112 163.827 L 206.915 167.054 L 210.999 169.917 L 215.330 172.391 L 219.871 174.455 L 224.583 176.091 L 229.426 177.285 L 234.358 178.028 L 239.338 178.312 L 239.119 172.759 L 238.359 167.367 L 237.084 162.163 L 235.322 157.173 L 233.098 152.425 L 230.442 147.944 L 227.378 143.758 L 223.934 139.893 L 220.137 136.376 L 216.013 133.233 L 211.590 130.492 L 206.894 128.178 L 201.953 126.318 L 196.793 124.940 L 191.441 124.069 L 185.923 123.732 M 240.406 79.317 L 244.282 79.870 L 247.883 81.408 L 250.964 83.825 L 253.314 86.957 L 254.774 90.591 L 255.243 94.478 L 254.690 98.355 L 253.153 101.956 L 250.735 105.037 L 247.603 107.387 L 243.970 108.846 L 240.082 109.316 L 236.205 108.763 L 232.604 107.225 L 229.523 104.808 L 227.173 101.676 L 225.714 98.042 L 225.245 94.155 L 225.798 90.278 L 227.335 86.677 L 229.752 83.596 L 232.884 81.246 L 236.518 79.787 L 240.406 79.317 M 201.700 107.402 L 202.170 111.289 L 203.629 114.923 L 205.979 118.055 L 209.060 120.472 L 212.661 122.010 L 216.538 122.563 L 221.083 121.899 L 224.966 120.013 L 224.953 121.153 L 225.423 125.041 L 226.882 128.674 L 229.232 131.807 L 232.313 134.224 L 235.914 135.761 L 239.791 136.314 L 243.678 135.845 L 247.312 134.386 L 250.444 132.035 L 252.861 128.955 L 254.399 125.353 L 254.952 121.477 L 254.964 120.337 L 258.806 122.306 L 263.335 123.067 L 268.083 122.353 L 272.223 120.268 L 275.505 117.055 L 277.680 112.961 L 278.496 108.230 L 277.452 102.585 L 274.491 97.919 L 270.062 94.638 L 274.561 91.440 L 277.622 86.826 L 278.787 81.231 L 278.073 76.484 L 275.987 72.344 L 272.775 69.061 L 268.681 66.887 L 263.950 66.071 L 259.405 66.712 L 255.522 68.620 L 255.534 67.480 L 255.065 63.592 L 253.605 59.959 L 251.255 56.827 L 248.175 54.409 L 244.573 52.872 L 240.697 52.319 L 236.809 52.788 L 233.176 54.248 L 230.043 56.598 L 227.626 59.678 L 226.089 63.280 L 225.536 67.156 L 225.524 68.296 L 221.682 66.305 L 217.153 65.566 L 213.265 66.035 L 209.631 67.494 L 206.499 69.845 L 204.082 72.925 L 202.545 76.527 L 201.992 80.403 L 203.036 86.021 L 205.996 90.700 L 210.426 93.995 L 205.926 97.180 L 202.866 101.781 L 201.700 107.402 M 239.338 178.312 L 244.323 178.135 L 249.270 177.499 L 254.137 176.410 L 258.883 174.876 L 263.467 172.910 L 267.851 170.530 L 271.996 167.756 L 275.867 164.611 L 279.432 161.123 L 282.660 157.320 L 285.523 153.236 L 287.997 148.905 L 290.060 144.364 L 291.696 139.652 L 292.891 134.809 L 293.633 129.877 L 293.917 124.897 L 288.364 125.114 L 282.972 125.869 L 277.768 127.136 L 272.779 128.888 L 268.031 131.100 L 263.550 133.746 L 259.364 136.799 L 255.499 140.234 L 251.982 144.024 L 248.840 148.143 L 246.098 152.565 L 243.784 157.265 L 241.924 162.215 L 240.546 167.390 L 239.675 172.765 L 239.338 178.312 M -13.252 162.882 L -13.315 167.869 L -12.918 172.841 L -12.063 177.755 L -10.759 182.569 L -9.016 187.243 L -6.850 191.735 L -4.278 196.009 L -1.322 200.027 L 1.991 203.755 L 5.634 207.162 L 9.577 210.218 L 13.784 212.897 L 18.220 215.176 L 22.848 217.037 L 27.628 218.462 L 32.519 219.440 L 37.479 219.963 L 37.527 214.406 L 37.027 208.984 L 36.003 203.725 L 34.483 198.656 L 32.490 193.807 L 30.052 189.204 L 27.192 184.875 L 23.938 180.849 L 20.314 177.154 L 16.346 173.817 L 12.060 170.866 L 7.481 168.329 L 2.635 166.234 L -2.453 164.609 L -7.758 163.483 L -13.252 162.882 M 43.300 121.135 L 47.146 121.873 L 50.669 123.582 L 53.630 126.144 L 55.827 129.385 L 57.110 133.085 L 57.392 136.991 L 56.654 140.836 L 54.945 144.359 L 52.383 147.321 L 49.141 149.518 L 45.442 150.801 L 41.536 151.083 L 37.691 150.344 L 34.167 148.636 L 31.206 146.073 L 29.009 142.832 L 27.726 139.132 L 27.444 135.227 L 28.183 131.381 L 29.891 127.858 L 32.454 124.897 L 35.695 122.700 L 39.395 121.417 L 43.300 121.135 M 3.291 147.327 L 3.573 151.233 L 4.856 154.933 L 7.053 158.174 L 10.014 160.736 L 13.537 162.445 L 17.383 163.183 L 21.954 162.739 L 25.924 161.042 L 25.857 162.180 L 26.139 166.086 L 27.422 169.785 L 29.619 173.027 L 32.580 175.589 L 36.103 177.297 L 39.949 178.036 L 43.854 177.754 L 47.554 176.471 L 50.795 174.274 L 53.358 171.313 L 55.066 167.789 L 55.805 163.944 L 55.872 162.806 L 59.614 164.957 L 64.102 165.935 L 68.878 165.450 L 73.114 163.566 L 76.547 160.515 L 78.916 156.529 L 79.958 151.843 L 79.187 146.155 L 76.453 141.352 L 72.187 137.862 L 76.834 134.883 L 80.113 130.422 L 81.546 124.890 L 81.060 120.114 L 79.176 115.878 L 76.125 112.445 L 72.140 110.076 L 67.453 109.034 L 62.883 109.456 L 58.913 111.175 L 58.980 110.037 L 58.698 106.132 L 57.415 102.432 L 55.218 99.191 L 52.257 96.628 L 48.733 94.920 L 44.888 94.181 L 40.982 94.463 L 37.283 95.746 L 34.041 97.943 L 31.479 100.904 L 29.770 104.428 L 29.032 108.273 L 28.965 109.411 L 25.223 107.238 L 20.734 106.282 L 16.829 106.564 L 13.129 107.847 L 9.888 110.044 L 7.326 113.005 L 5.617 116.529 L 4.878 120.374 L 5.651 126.036 L 8.384 130.852 L 12.650 134.355 L 8.003 137.320 L 4.725 141.769 L 3.291 147.327 M 37.479 219.963 L 42.467 220.026 L 47.439 219.629 L 52.353 218.774 L 57.167 217.470 L 61.840 215.727 L 66.333 213.560 L 70.606 210.989 L 74.624 208.033 L 78.353 204.720 L 81.759 201.076 L 84.815 197.134 L 87.494 192.927 L 89.774 188.491 L 91.634 183.863 L 93.060 179.083 L 94.038 174.192 L 94.561 169.232 L 89.004 169.182 L 83.582 169.677 L 78.323 170.692 L 73.256 172.203 L 68.406 174.184 L 63.804 176.612 L 59.476 179.461 L 55.451 182.706 L 51.756 186.322 L 48.419 190.286 L 45.468 194.571 L 42.931 199.154 L 40.836 204.010 L 39.210 209.113 L 38.082 214.439 L 37.479 219.963 M 27.685 163.748 L 27.525 168.734 L 27.826 173.712 L 28.586 178.642 L 29.796 183.481 L 31.449 188.187 L 33.528 192.720 L 36.017 197.043 L 38.894 201.117 L 42.135 204.909 L 45.711 208.385 L 49.593 211.517 L 53.748 214.277 L 58.140 216.642 L 62.731 218.591 L 67.482 220.109 L 72.353 221.182 L 77.302 221.801 L 77.458 216.246 L 77.062 210.815 L 76.141 205.537 L 74.719 200.440 L 72.820 195.553 L 70.471 190.903 L 67.696 186.520 L 64.520 182.432 L 60.969 178.667 L 57.066 175.254 L 52.838 172.220 L 48.309 169.596 L 43.504 167.407 L 38.448 165.685 L 33.167 164.455 L 27.685 163.748 M 85.034 123.103 L 88.865 123.916 L 92.354 125.692 L 95.265 128.311 L 97.399 131.595 L 98.610 135.318 L 98.817 139.229 L 98.004 143.059 L 96.227 146.549 L 93.608 149.460 L 90.325 151.594 L 86.601 152.805 L 82.691 153.011 L 78.861 152.199 L 75.371 150.422 L 72.460 147.803 L 70.326 144.520 L 69.115 140.796 L 68.908 136.886 L 69.721 133.055 L 71.498 129.566 L 74.117 126.655 L 77.400 124.521 L 81.124 123.309 L 85.034 123.103 M 44.525 148.517 L 44.732 152.427 L 45.943 156.151 L 48.077 159.434 L 50.988 162.053 L 54.478 163.830 L 58.308 164.643 L 62.887 164.287 L 66.889 162.667 L 66.800 163.803 L 67.006 167.714 L 68.217 171.437 L 70.351 174.721 L 73.262 177.340 L 76.752 179.116 L 80.582 179.929 L 84.493 179.723 L 88.216 178.511 L 91.500 176.377 L 94.119 173.466 L 95.895 169.977 L 96.708 166.146 L 96.797 165.010 L 100.497 167.233 L 104.965 168.298 L 109.750 167.905 L 114.021 166.103 L 117.513 163.119 L 119.958 159.180 L 121.091 154.515 L 120.430 148.813 L 117.790 143.958 L 113.591 140.386 L 118.296 137.498 L 121.661 133.101 L 123.200 127.597 L 122.807 122.813 L 121.005 118.541 L 118.021 115.050 L 114.082 112.605 L 109.417 111.472 L 104.839 111.805 L 100.836 113.448 L 100.925 112.311 L 100.719 108.401 L 99.508 104.677 L 97.374 101.394 L 94.463 98.775 L 90.973 96.998 L 87.143 96.185 L 83.232 96.392 L 79.509 97.603 L 76.225 99.737 L 73.606 102.648 L 71.830 106.138 L 71.017 109.968 L 70.928 111.105 L 67.230 108.859 L 62.760 107.817 L 58.849 108.023 L 55.126 109.234 L 51.842 111.368 L 49.223 114.279 L 47.447 117.769 L 46.634 121.599 L 47.297 127.275 L 49.936 132.143 L 54.134 135.728 L 49.430 138.603 L 46.067 142.987 L 44.525 148.517 M 77.302 221.801 L 82.288 221.960 L 87.266 221.659 L 92.196 220.900 L 97.035 219.689 L 101.741 218.037 L 106.274 215.957 L 110.597 213.468 L 114.671 210.591 L 118.463 207.351 L 121.939 203.774 L 125.071 199.892 L 127.831 195.737 L 130.196 191.346 L 132.145 186.755 L 133.663 182.003 L 134.736 177.132 L 135.355 172.183 L 129.800 172.025 L 124.369 172.415 L 119.092 173.329 L 113.996 174.741 L 109.109 176.629 L 104.461 178.967 L 100.079 181.731 L 95.991 184.897 L 92.227 188.442 L 88.814 192.340 L 85.781 196.568 L 83.156 201.101 L 80.967 205.915 L 79.243 210.986 L 78.012 216.289 L 77.302 221.801 M 65.257 162.957 L 65.212 167.944 L 65.627 172.915 L 66.499 177.826 L 67.820 182.636 L 69.579 187.303 L 71.762 191.788 L 74.349 196.052 L 77.319 200.060 L 80.645 203.776 L 84.301 207.170 L 88.253 210.212 L 92.470 212.876 L 96.915 215.140 L 101.549 216.984 L 106.334 218.392 L 111.228 219.353 L 116.190 219.858 L 116.219 214.301 L 115.699 208.881 L 114.657 203.625 L 113.118 198.562 L 111.109 193.720 L 108.654 189.125 L 105.779 184.807 L 102.511 180.793 L 98.874 177.110 L 94.894 173.787 L 90.598 170.851 L 86.010 168.331 L 81.156 166.253 L 76.062 164.646 L 70.754 163.538 L 65.257 162.957 M 121.661 121.010 L 125.509 121.735 L 129.039 123.431 L 132.009 125.983 L 134.217 129.216 L 135.514 132.911 L 135.810 136.816 L 135.085 140.664 L 133.388 144.193 L 130.837 147.163 L 127.603 149.372 L 123.908 150.668 L 120.003 150.964 L 116.155 150.239 L 112.626 148.543 L 109.656 145.991 L 107.447 142.757 L 106.151 139.062 L 105.855 135.158 L 106.580 131.310 L 108.276 127.780 L 110.828 124.810 L 114.062 122.602 L 117.757 121.306 L 121.661 121.010 M 81.745 147.344 L 82.041 151.249 L 83.337 154.944 L 85.546 158.177 L 88.516 160.729 L 92.045 162.425 L 95.893 163.150 L 100.463 162.689 L 104.426 160.978 L 104.363 162.117 L 104.659 166.021 L 105.955 169.716 L 108.164 172.950 L 111.134 175.502 L 114.663 177.198 L 118.511 177.923 L 122.416 177.627 L 126.111 176.331 L 129.345 174.122 L 131.896 171.152 L 133.593 167.623 L 134.317 163.775 L 134.380 162.636 L 138.130 164.774 L 142.622 165.736 L 147.396 165.234 L 151.625 163.335 L 155.047 160.272 L 157.402 156.278 L 158.428 151.588 L 157.636 145.903 L 154.886 141.110 L 150.607 137.635 L 155.244 134.640 L 158.507 130.167 L 159.920 124.630 L 159.418 119.855 L 157.518 115.626 L 154.455 112.204 L 150.462 109.849 L 145.772 108.824 L 141.203 109.262 L 137.239 110.995 L 137.302 109.857 L 137.006 105.952 L 135.710 102.257 L 133.501 99.024 L 130.531 96.472 L 127.002 94.776 L 123.153 94.051 L 119.249 94.347 L 115.554 95.643 L 112.320 97.852 L 109.768 100.822 L 108.072 104.351 L 107.347 108.199 L 107.284 109.337 L 103.536 107.177 L 99.043 106.237 L 95.139 106.533 L 91.444 107.829 L 88.210 110.038 L 85.658 113.008 L 83.962 116.537 L 83.237 120.385 L 84.030 126.044 L 86.780 130.850 L 91.058 134.339 L 86.422 137.321 L 83.159 141.780 L 81.745 147.344 M 116.190 219.858 L 121.178 219.904 L 126.148 219.489 L 131.059 218.617 L 135.869 217.296 L 140.536 215.536 L 145.021 213.354 L 149.286 210.766 L 153.293 207.797 L 157.010 204.470 L 160.403 200.815 L 163.445 196.862 L 166.109 192.645 L 168.373 188.201 L 170.217 183.566 L 171.626 178.782 L 172.587 173.887 L 173.092 168.925 L 167.535 168.895 L 162.115 169.409 L 156.860 170.443 L 151.797 171.972 L 146.955 173.970 L 142.362 176.414 L 138.044 179.278 L 134.030 182.537 L 130.348 186.167 L 127.025 190.142 L 124.089 194.438 L 121.568 199.030 L 119.490 203.893 L 117.883 209.002 L 116.774 214.332 L 116.190 219.858 M 108.114 167.517 L 108.620 172.480 L 109.582 177.374 L 110.991 182.158 L 112.836 186.793 L 115.100 191.237 L 117.765 195.453 L 120.807 199.406 L 124.201 203.061 L 127.918 206.387 L 131.926 209.356 L 136.191 211.942 L 140.676 214.124 L 145.343 215.883 L 150.153 217.204 L 155.064 218.075 L 160.035 218.489 L 165.022 218.443 L 164.437 212.917 L 163.321 207.587 L 161.705 202.479 L 159.616 197.617 L 157.084 193.026 L 154.137 188.731 L 150.803 184.757 L 147.110 181.128 L 143.089 177.870 L 138.767 175.007 L 134.172 172.564 L 129.333 170.566 L 124.280 169.037 L 119.040 168.003 L 113.642 167.488 L 108.114 167.517 M 159.539 119.595 L 163.443 119.891 L 167.138 121.187 L 170.372 123.395 L 172.925 126.364 L 174.621 129.894 L 175.347 133.742 L 175.051 137.646 L 173.755 141.341 L 171.547 144.575 L 168.578 147.127 L 165.048 148.824 L 161.200 149.549 L 157.296 149.254 L 153.601 147.958 L 150.367 145.750 L 147.815 142.780 L 146.118 139.251 L 145.393 135.403 L 145.688 131.499 L 146.984 127.804 L 149.192 124.570 L 152.162 122.017 L 155.691 120.321 L 159.539 119.595 M 122.776 150.179 L 123.502 154.027 L 125.198 157.556 L 127.750 160.526 L 130.984 162.734 L 134.679 164.030 L 138.584 164.325 L 143.075 163.362 L 146.825 161.224 L 146.888 162.362 L 147.614 166.210 L 149.310 169.739 L 151.862 172.709 L 155.096 174.917 L 158.791 176.213 L 162.696 176.508 L 166.544 175.783 L 170.073 174.086 L 173.043 171.534 L 175.251 168.300 L 176.547 164.605 L 176.842 160.700 L 176.779 159.562 L 180.742 161.272 L 185.312 161.733 L 190.002 160.706 L 193.995 158.351 L 197.058 154.928 L 198.957 150.699 L 199.458 145.925 L 198.044 140.361 L 194.780 135.902 L 190.144 132.921 L 194.422 129.432 L 197.171 124.625 L 197.963 118.966 L 196.936 114.276 L 194.581 110.283 L 191.159 107.220 L 186.930 105.321 L 182.155 104.820 L 177.663 105.760 L 173.914 107.921 L 173.851 106.783 L 173.126 102.935 L 171.429 99.406 L 168.877 96.436 L 165.643 94.228 L 161.948 92.932 L 158.043 92.637 L 154.195 93.362 L 150.666 95.059 L 147.696 97.611 L 145.488 100.845 L 144.192 104.540 L 143.897 108.445 L 143.960 109.583 L 139.996 107.850 L 135.427 107.412 L 131.579 108.138 L 128.050 109.834 L 125.080 112.387 L 122.872 115.620 L 121.576 119.316 L 121.281 123.220 L 122.694 128.757 L 125.958 133.230 L 130.595 136.224 L 126.317 139.700 L 123.567 144.493 L 122.776 150.179 M 165.022 218.443 L 169.984 217.937 L 174.879 216.976 L 179.663 215.567 L 184.297 213.722 L 188.742 211.458 L 192.958 208.793 L 196.911 205.751 L 200.565 202.357 L 203.892 198.640 L 206.861 194.632 L 209.447 190.367 L 211.629 185.882 L 213.388 181.214 L 214.709 176.405 L 215.580 171.493 L 215.994 166.523 L 215.948 161.535 L 210.422 162.119 L 205.092 163.229 L 199.983 164.837 L 195.121 166.916 L 190.529 169.437 L 186.234 172.374 L 182.259 175.697 L 178.630 179.380 L 175.371 183.394 L 172.507 187.712 L 170.064 192.306 L 168.066 197.148 L 166.538 202.211 L 165.505 207.466 L 164.991 212.886 L 165.022 218.443 M 145.430 168.940 L 145.966 173.899 L 146.958 178.787 L 148.397 183.563 L 150.270 188.186 L 152.562 192.616 L 155.252 196.816 L 158.319 200.749 L 161.736 204.383 L 165.473 207.686 L 169.499 210.630 L 173.780 213.191 L 178.278 215.345 L 182.957 217.075 L 187.775 218.366 L 192.691 219.207 L 197.664 219.590 L 202.651 219.514 L 202.031 213.991 L 200.883 208.668 L 199.235 203.570 L 197.117 198.721 L 194.556 194.146 L 191.582 189.869 L 188.224 185.916 L 184.509 182.310 L 180.468 179.076 L 176.128 176.240 L 171.518 173.825 L 166.667 171.857 L 161.604 170.360 L 156.358 169.358 L 150.957 168.876 L 145.430 168.940 M 196.557 120.701 L 200.464 120.973 L 204.167 122.246 L 207.414 124.434 L 209.985 127.388 L 211.703 130.906 L 212.452 134.750 L 212.181 138.656 L 210.908 142.359 L 208.720 145.607 L 205.766 148.177 L 202.247 149.895 L 198.404 150.645 L 194.498 150.373 L 190.795 149.100 L 187.547 146.912 L 184.977 143.958 L 183.258 140.440 L 182.509 136.596 L 182.780 132.690 L 184.053 128.987 L 186.241 125.739 L 189.195 123.169 L 192.714 121.451 L 196.557 120.701 M 159.984 151.511 L 160.734 155.354 L 162.452 158.873 L 165.022 161.827 L 168.270 164.015 L 171.973 165.288 L 175.879 165.559 L 180.364 164.569 L 184.101 162.407 L 184.171 163.545 L 184.920 167.389 L 186.639 170.907 L 189.209 173.861 L 192.456 176.049 L 196.160 177.322 L 200.066 177.593 L 203.909 176.844 L 207.428 175.126 L 210.382 172.555 L 212.570 169.308 L 213.843 165.605 L 214.114 161.698 L 214.044 160.561 L 218.018 162.247 L 222.591 162.679 L 227.274 161.623 L 231.253 159.244 L 234.294 155.802 L 236.167 151.561 L 236.639 146.784 L 235.190 141.229 L 231.899 136.790 L 227.244 133.837 L 231.500 130.322 L 234.220 125.499 L 234.977 119.835 L 233.922 115.151 L 231.542 111.173 L 228.100 108.131 L 223.860 106.259 L 219.082 105.787 L 214.596 106.755 L 210.860 108.939 L 210.790 107.801 L 210.041 103.957 L 208.323 100.439 L 205.752 97.485 L 202.505 95.297 L 198.802 94.024 L 194.895 93.753 L 191.052 94.502 L 187.533 96.220 L 184.579 98.791 L 182.391 102.038 L 181.118 105.741 L 180.847 109.647 L 180.917 110.785 L 176.942 109.077 L 172.371 108.667 L 168.527 109.416 L 165.009 111.135 L 162.055 113.705 L 159.867 116.953 L 158.594 120.656 L 158.323 124.562 L 159.770 130.090 L 163.061 134.543 L 167.717 137.508 L 163.460 141.010 L 160.740 145.820 L 159.984 151.511 M 202.651 219.514 L 207.610 218.977 L 212.498 217.985 L 217.274 216.547 L 221.897 214.673 L 226.327 212.382 L 230.527 209.691 L 234.460 206.624 L 238.094 203.208 L 241.397 199.470 L 244.342 195.444 L 246.902 191.163 L 249.056 186.665 L 250.786 181.987 L 252.077 177.169 L 252.918 172.252 L 253.302 167.279 L 253.225 162.292 L 247.702 162.910 L 242.379 164.053 L 237.280 165.693 L 232.431 167.801 L 227.855 170.351 L 223.578 173.314 L 219.623 176.662 L 216.017 180.367 L 212.783 184.401 L 209.946 188.737 L 207.532 193.346 L 205.564 198.200 L 204.067 203.272 L 203.066 208.534 L 202.586 213.957 L 202.651 219.514 M 186.144 169.432 L 186.667 174.392 L 187.646 179.283 L 189.071 184.063 L 190.932 188.691 L 193.212 193.127 L 195.891 197.334 L 198.948 201.276 L 202.354 204.919 L 206.083 208.232 L 210.101 211.187 L 214.375 213.758 L 218.868 215.925 L 223.541 217.667 L 228.356 218.971 L 233.270 219.825 L 238.242 220.222 L 243.229 220.159 L 242.624 214.635 L 241.490 209.309 L 239.856 204.206 L 237.750 199.352 L 235.202 194.770 L 232.240 190.485 L 228.892 186.522 L 225.187 182.907 L 221.154 179.662 L 216.822 176.814 L 212.219 174.387 L 207.373 172.406 L 202.314 170.895 L 197.071 169.879 L 191.671 169.383 L 186.144 169.432 M 237.400 121.331 L 241.306 121.612 L 245.006 122.895 L 248.247 125.092 L 250.810 128.053 L 252.519 131.576 L 253.258 135.422 L 252.976 139.327 L 251.693 143.027 L 249.496 146.269 L 246.535 148.831 L 243.012 150.540 L 239.167 151.279 L 235.261 150.997 L 231.561 149.714 L 228.320 147.517 L 225.757 144.557 L 224.048 141.033 L 223.310 137.188 L 223.591 133.282 L 224.874 129.583 L 227.071 126.341 L 230.032 123.778 L 233.555 122.070 L 237.400 121.331 M 200.745 152.042 L 201.484 155.888 L 203.193 159.411 L 205.755 162.372 L 208.997 164.568 L 212.696 165.851 L 216.602 166.133 L 221.090 165.155 L 224.832 163.003 L 224.899 164.141 L 225.638 167.987 L 227.347 171.510 L 229.909 174.471 L 233.151 176.667 L 236.851 177.950 L 240.756 178.232 L 244.602 177.493 L 248.125 175.784 L 251.086 173.222 L 253.283 169.980 L 254.566 166.280 L 254.847 162.375 L 254.780 161.237 L 258.749 162.934 L 263.321 163.378 L 268.007 162.335 L 271.992 159.966 L 275.043 156.533 L 276.927 152.297 L 277.412 147.521 L 275.978 141.962 L 272.699 137.514 L 268.052 134.549 L 272.317 131.045 L 275.050 126.229 L 275.822 120.567 L 274.779 115.881 L 272.410 111.896 L 268.977 108.845 L 264.741 106.961 L 259.965 106.477 L 255.476 107.432 L 251.735 109.607 L 251.668 108.468 L 250.929 104.623 L 249.220 101.100 L 246.658 98.139 L 243.416 95.942 L 239.717 94.659 L 235.811 94.378 L 231.965 95.116 L 228.442 96.825 L 225.481 99.388 L 223.285 102.629 L 222.002 106.329 L 221.720 110.235 L 221.787 111.373 L 217.817 109.654 L 213.246 109.232 L 209.401 109.971 L 205.878 111.680 L 202.917 114.242 L 200.720 117.484 L 199.437 121.183 L 199.155 125.089 L 200.588 130.621 L 203.867 135.082 L 208.515 138.060 L 204.249 141.551 L 201.516 146.354 L 200.745 152.042 M 243.229 220.159 L 248.189 219.636 L 253.080 218.657 L 257.860 217.231 L 262.488 215.370 L 266.924 213.091 L 271.131 210.411 L 275.073 207.355 L 278.716 203.948 L 282.029 200.220 L 284.984 196.201 L 287.556 191.928 L 289.722 187.435 L 291.464 182.761 L 292.768 177.947 L 293.622 173.033 L 294.020 168.061 L 293.956 163.074 L 288.432 163.677 L 283.106 164.805 L 278.003 166.431 L 273.147 168.527 L 268.565 171.064 L 264.279 174.015 L 260.316 177.353 L 256.700 181.048 L 253.455 185.074 L 250.607 189.402 L 248.180 194.004 L 246.199 198.854 L 244.688 203.921 L 243.673 209.180 L 243.179 214.602 L 243.229 220.159 M -15.301 207.713 L -14.809 212.676 L -13.862 217.573 L -12.466 222.362 L -10.635 227.001 L -8.383 231.452 L -5.731 235.676 L -2.700 239.637 L 0.684 243.302 L 4.391 246.639 L 8.390 249.619 L 12.648 252.218 L 17.127 254.413 L 21.789 256.185 L 26.595 257.519 L 31.504 258.405 L 36.473 258.834 L 41.461 258.802 L 40.891 253.274 L 39.791 247.941 L 38.189 242.828 L 36.115 237.960 L 33.595 233.362 L 30.660 229.059 L 27.338 225.075 L 23.656 221.435 L 19.644 218.166 L 15.330 215.290 L 10.742 212.834 L 5.909 210.822 L 0.860 209.279 L -4.377 208.229 L -9.774 207.699 L -15.301 207.713 M 36.261 159.939 L 40.165 160.245 L 43.856 161.551 L 47.084 163.769 L 49.627 166.746 L 51.314 170.280 L 52.028 174.130 L 51.721 178.034 L 50.415 181.725 L 48.198 184.953 L 45.221 187.496 L 41.687 189.183 L 37.837 189.897 L 33.933 189.591 L 30.241 188.284 L 27.014 186.067 L 24.470 183.090 L 22.784 179.556 L 22.069 175.706 L 22.376 171.802 L 23.682 168.110 L 25.900 164.883 L 28.877 162.339 L 32.411 160.653 L 36.261 159.939 M -0.589 190.416 L 0.125 194.266 L 1.812 197.800 L 4.355 200.777 L 7.583 202.995 L 11.274 204.301 L 15.178 204.608 L 19.672 203.658 L 23.428 201.530 L 23.488 202.668 L 24.202 206.518 L 25.888 210.053 L 28.432 213.030 L 31.659 215.247 L 35.351 216.553 L 39.255 216.860 L 43.105 216.146 L 46.639 214.459 L 49.616 211.915 L 51.833 208.688 L 53.140 204.996 L 53.446 201.093 L 53.386 199.954 L 57.345 201.676 L 61.913 202.149 L 66.606 201.136 L 70.606 198.793 L 73.679 195.379 L 75.590 191.155 L 76.105 186.382 L 74.706 180.815 L 71.456 176.346 L 66.828 173.352 L 71.115 169.875 L 73.878 165.076 L 74.687 159.420 L 73.674 154.727 L 71.330 150.727 L 67.916 147.654 L 63.693 145.743 L 58.919 145.228 L 54.424 146.155 L 50.670 148.306 L 50.610 147.167 L 49.895 143.317 L 48.209 139.783 L 45.665 136.806 L 42.438 134.589 L 38.746 133.282 L 34.843 132.976 L 30.993 133.690 L 27.459 135.377 L 24.481 137.920 L 22.264 141.148 L 20.958 144.839 L 20.651 148.743 L 20.711 149.881 L 16.751 148.137 L 12.184 147.686 L 8.334 148.401 L 4.800 150.087 L 1.823 152.631 L -0.394 155.858 L -1.701 159.550 L -2.007 163.453 L -0.610 168.994 L 2.641 173.476 L 7.270 176.484 L 2.981 179.947 L 0.218 184.733 L -0.589 190.416 M 41.461 258.802 L 46.424 258.310 L 51.321 257.363 L 56.110 255.967 L 60.749 254.136 L 65.200 251.884 L 69.424 249.232 L 73.385 246.201 L 77.050 242.817 L 80.387 239.110 L 83.367 235.110 L 85.966 230.853 L 88.161 226.374 L 89.933 221.712 L 91.267 216.906 L 92.153 211.997 L 92.582 207.028 L 92.550 202.040 L 87.022 202.608 L 81.689 203.703 L 76.575 205.296 L 71.707 207.361 L 67.108 209.869 L 62.804 212.793 L 58.820 216.105 L 55.180 219.777 L 51.910 223.782 L 49.034 228.092 L 46.578 232.679 L 44.566 237.516 L 43.023 242.574 L 41.975 247.826 L 41.446 253.245 L 41.461 258.802 M 26.425 201.747 L 26.365 206.735 L 26.766 211.706 L 27.624 216.620 L 28.931 221.433 L 30.677 226.105 L 32.847 230.596 L 35.422 234.868 L 38.380 238.884 L 41.696 242.610 L 45.342 246.014 L 49.286 249.068 L 53.495 251.744 L 57.933 254.020 L 62.562 255.878 L 67.343 257.300 L 72.234 258.275 L 77.195 258.794 L 77.239 253.237 L 76.735 247.816 L 75.708 242.557 L 74.184 237.490 L 72.188 232.641 L 69.747 228.040 L 66.884 223.713 L 63.627 219.690 L 60.001 215.997 L 56.031 212.662 L 51.743 209.714 L 47.162 207.180 L 42.314 205.089 L 37.225 203.468 L 31.920 202.344 L 26.425 201.747 M 82.949 159.962 L 86.795 160.698 L 90.320 162.404 L 93.282 164.964 L 95.482 168.204 L 96.767 171.903 L 97.052 175.808 L 96.316 179.654 L 94.610 183.179 L 92.049 186.142 L 88.810 188.341 L 85.111 189.626 L 81.205 189.911 L 77.359 189.175 L 73.835 187.469 L 70.872 184.909 L 68.673 181.669 L 67.387 177.970 L 67.103 174.065 L 67.839 170.219 L 69.545 166.694 L 72.105 163.731 L 75.345 161.532 L 79.044 160.246 L 82.949 159.962 M 42.958 186.182 L 43.242 190.087 L 44.528 193.786 L 46.727 197.026 L 49.690 199.586 L 53.214 201.292 L 57.060 202.028 L 61.632 201.581 L 65.600 199.881 L 65.533 201.019 L 65.818 204.924 L 67.104 208.623 L 69.303 211.863 L 72.266 214.423 L 75.790 216.130 L 79.636 216.865 L 83.542 216.581 L 87.240 215.295 L 90.480 213.096 L 93.040 210.133 L 94.747 206.609 L 95.483 202.763 L 95.549 201.625 L 99.293 203.773 L 103.781 204.748 L 108.557 204.260 L 112.791 202.373 L 116.222 199.319 L 118.588 195.333 L 119.628 190.646 L 118.853 184.958 L 116.116 180.157 L 111.847 176.670 L 116.492 173.688 L 119.769 169.224 L 121.197 163.691 L 120.709 158.915 L 118.821 154.681 L 115.768 151.250 L 111.781 148.884 L 107.094 147.845 L 102.524 148.270 L 98.555 149.992 L 98.621 148.854 L 98.337 144.948 L 97.051 141.250 L 94.852 138.010 L 91.889 135.450 L 88.364 133.743 L 84.518 133.007 L 80.613 133.292 L 76.914 134.578 L 73.674 136.777 L 71.114 139.740 L 69.408 143.264 L 68.672 147.110 L 68.606 148.248 L 64.863 146.077 L 60.373 145.125 L 56.468 145.409 L 52.769 146.695 L 49.529 148.894 L 46.969 151.857 L 45.263 155.381 L 44.527 159.227 L 45.304 164.889 L 48.039 169.703 L 52.308 173.203 L 47.663 176.172 L 44.388 180.622 L 42.958 186.182 M 77.195 258.794 L 82.182 258.854 L 87.154 258.453 L 92.068 257.595 L 96.881 256.288 L 101.553 254.542 L 106.044 252.372 L 110.316 249.797 L 114.332 246.839 L 118.058 243.523 L 121.462 239.878 L 124.515 235.933 L 127.192 231.724 L 129.468 227.286 L 131.325 222.657 L 132.748 217.877 L 133.723 212.985 L 134.242 208.024 L 128.685 207.978 L 123.264 208.477 L 118.006 209.496 L 112.939 211.010 L 108.091 212.995 L 103.491 215.425 L 99.165 218.277 L 95.142 221.525 L 91.449 225.144 L 88.115 229.109 L 85.167 233.397 L 82.633 237.982 L 80.541 242.838 L 78.918 247.943 L 77.794 253.270 L 77.195 258.794 M 64.491 204.734 L 64.423 209.721 L 64.815 214.693 L 65.664 219.608 L 66.963 224.424 L 68.701 229.099 L 70.863 233.594 L 73.431 237.870 L 76.382 241.892 L 79.691 245.623 L 83.331 249.034 L 87.270 252.094 L 91.474 254.777 L 95.908 257.062 L 100.534 258.927 L 105.312 260.357 L 110.202 261.341 L 115.162 261.869 L 115.216 256.312 L 114.721 250.890 L 113.703 245.629 L 112.188 240.559 L 110.201 235.707 L 107.767 231.102 L 104.912 226.770 L 101.662 222.741 L 98.043 219.042 L 94.078 215.700 L 89.795 212.745 L 85.219 210.203 L 80.375 208.103 L 75.288 206.473 L 69.985 205.340 L 64.491 204.734 M 121.088 163.047 L 124.933 163.789 L 128.454 165.502 L 131.413 168.067 L 133.606 171.311 L 134.885 175.012 L 135.163 178.918 L 134.421 182.762 L 132.708 186.284 L 130.143 189.242 L 126.899 191.436 L 123.198 192.715 L 119.292 192.993 L 115.448 192.250 L 111.926 190.538 L 108.968 187.973 L 106.774 184.729 L 105.495 181.028 L 105.217 177.122 L 105.960 173.277 L 107.672 169.756 L 110.237 166.797 L 113.481 164.604 L 117.182 163.325 L 121.088 163.047 M 81.051 189.197 L 81.329 193.103 L 82.608 196.804 L 84.802 200.048 L 87.760 202.613 L 91.281 204.325 L 95.126 205.068 L 99.698 204.628 L 103.669 202.936 L 103.601 204.074 L 103.879 207.979 L 105.158 211.680 L 107.351 214.924 L 110.310 217.490 L 113.831 219.202 L 117.676 219.945 L 121.582 219.667 L 125.283 218.387 L 128.527 216.194 L 131.092 213.236 L 132.804 209.714 L 133.547 205.869 L 133.615 204.731 L 137.355 206.887 L 141.842 207.869 L 146.619 207.389 L 150.857 205.509 L 154.293 202.462 L 156.666 198.479 L 157.713 193.794 L 156.948 188.105 L 154.220 183.300 L 149.957 179.805 L 154.607 176.831 L 157.891 172.373 L 159.329 166.843 L 158.849 162.066 L 156.969 157.828 L 153.922 154.392 L 149.939 152.019 L 145.254 150.972 L 140.684 151.389 L 136.711 153.104 L 136.779 151.966 L 136.502 148.060 L 135.222 144.359 L 133.029 141.116 L 130.071 138.550 L 126.549 136.838 L 122.704 136.095 L 118.798 136.373 L 115.097 137.652 L 111.854 139.846 L 109.288 142.804 L 107.576 146.326 L 106.833 150.170 L 106.765 151.308 L 103.026 149.131 L 98.538 148.170 L 94.632 148.448 L 90.931 149.727 L 87.688 151.921 L 85.122 154.879 L 83.410 158.401 L 82.667 162.245 L 83.434 167.908 L 86.162 172.727 L 90.424 176.235 L 85.774 179.195 L 82.491 183.640 L 81.051 189.197 M 115.162 261.869 L 120.149 261.938 L 125.122 261.545 L 130.037 260.696 L 134.852 259.397 L 139.528 257.659 L 144.022 255.497 L 148.299 252.930 L 152.320 249.979 L 156.052 246.669 L 159.462 243.029 L 162.522 239.091 L 165.206 234.886 L 167.490 230.452 L 169.355 225.826 L 170.786 221.048 L 171.769 216.158 L 172.298 211.198 L 166.741 211.143 L 161.318 211.632 L 156.058 212.642 L 150.989 214.147 L 146.138 216.123 L 141.533 218.546 L 137.202 221.390 L 133.173 224.631 L 129.474 228.243 L 126.133 232.203 L 123.178 236.486 L 120.636 241.066 L 118.535 245.919 L 116.904 251.020 L 115.771 256.345 L 115.162 261.869 M 107.045 207.738 L 107.494 212.706 L 108.399 217.611 L 109.753 222.411 L 111.544 227.066 L 113.757 231.536 L 116.373 235.783 L 119.370 239.770 L 122.722 243.464 L 126.400 246.833 L 130.374 249.848 L 134.608 252.483 L 139.068 254.716 L 143.715 256.529 L 148.509 257.905 L 153.410 258.833 L 158.376 259.304 L 163.363 259.316 L 162.841 253.783 L 161.787 248.441 L 160.230 243.314 L 158.198 238.429 L 155.718 233.809 L 152.820 229.480 L 149.532 225.468 L 145.882 221.797 L 141.898 218.492 L 137.609 215.580 L 133.043 213.084 L 128.228 211.030 L 123.192 209.443 L 117.964 208.349 L 112.573 207.772 L 107.045 207.738 M 159.018 160.411 L 162.919 160.751 L 166.599 162.090 L 169.807 164.335 L 172.325 167.334 L 173.981 170.882 L 174.662 174.738 L 174.322 178.639 L 172.983 182.319 L 170.738 185.527 L 167.739 188.045 L 164.191 189.701 L 160.335 190.382 L 156.434 190.042 L 152.754 188.704 L 149.546 186.459 L 147.028 183.460 L 145.372 179.911 L 144.691 176.055 L 145.031 172.154 L 146.369 168.474 L 148.614 165.266 L 151.613 162.748 L 155.162 161.092 L 159.018 160.411 M 121.906 190.569 L 122.587 194.425 L 124.243 197.974 L 126.761 200.973 L 129.969 203.218 L 133.649 204.556 L 137.550 204.896 L 142.052 203.985 L 145.826 201.890 L 145.876 203.029 L 146.557 206.885 L 148.213 210.434 L 150.731 213.433 L 153.939 215.678 L 157.619 217.016 L 161.520 217.356 L 165.376 216.675 L 168.924 215.019 L 171.923 212.501 L 174.169 209.293 L 175.507 205.613 L 175.847 201.712 L 175.797 200.573 L 179.740 202.329 L 184.305 202.842 L 189.006 201.870 L 193.026 199.561 L 196.128 196.174 L 198.076 191.967 L 198.632 187.198 L 197.281 181.619 L 194.070 177.122 L 189.468 174.088 L 193.785 170.648 L 196.589 165.874 L 197.447 160.224 L 196.474 155.523 L 194.165 151.503 L 190.778 148.401 L 186.571 146.453 L 181.803 145.897 L 177.300 146.785 L 173.527 148.903 L 173.477 147.764 L 172.796 143.908 L 171.140 140.360 L 168.622 137.361 L 165.414 135.116 L 161.734 133.777 L 157.833 133.437 L 153.977 134.118 L 150.428 135.774 L 147.429 138.292 L 145.184 141.500 L 143.846 145.180 L 143.506 149.081 L 143.556 150.220 L 139.611 148.441 L 135.048 147.951 L 131.192 148.632 L 127.643 150.288 L 124.644 152.806 L 122.399 156.014 L 121.061 159.694 L 120.721 163.595 L 122.070 169.148 L 125.282 173.658 L 129.885 176.706 L 125.567 180.132 L 122.762 184.893 L 121.906 190.569 M 163.363 259.316 L 168.331 258.867 L 173.236 257.962 L 178.037 256.608 L 182.692 254.816 L 187.162 252.603 L 191.408 249.987 L 195.396 246.991 L 199.089 243.639 L 202.458 239.960 L 205.473 235.987 L 208.108 231.752 L 210.342 227.293 L 212.154 222.646 L 213.530 217.851 L 214.458 212.951 L 214.930 207.985 L 214.941 202.997 L 209.408 203.518 L 204.066 204.566 L 198.939 206.115 L 194.053 208.138 L 189.433 210.606 L 185.104 213.493 L 181.091 216.770 L 177.419 220.411 L 174.115 224.388 L 171.202 228.673 L 168.706 233.238 L 166.652 238.057 L 165.066 243.102 L 163.972 248.345 L 163.396 253.759 L 163.363 259.316 M 144.499 208.918 L 144.918 213.888 L 145.794 218.799 L 147.119 223.607 L 148.881 228.273 L 151.067 232.756 L 153.658 237.019 L 156.630 241.024 L 159.960 244.738 L 163.617 248.129 L 167.572 251.168 L 171.791 253.829 L 176.237 256.090 L 180.873 257.930 L 185.659 259.335 L 190.554 260.292 L 195.517 260.794 L 200.504 260.836 L 200.016 255.300 L 198.994 249.952 L 197.468 244.816 L 195.465 239.918 L 193.014 235.283 L 190.142 230.937 L 186.878 226.905 L 183.251 223.212 L 179.287 219.883 L 175.015 216.945 L 170.464 214.421 L 165.662 212.338 L 160.636 210.721 L 155.415 209.595 L 150.027 208.986 L 144.499 208.918 M 196.758 161.907 L 200.657 162.271 L 204.328 163.631 L 207.523 165.896 L 210.023 168.910 L 211.657 172.468 L 212.315 176.328 L 211.951 180.227 L 210.590 183.899 L 208.326 187.094 L 205.312 189.593 L 201.753 191.228 L 197.893 191.885 L 193.994 191.521 L 190.322 190.161 L 187.128 187.896 L 184.628 184.882 L 182.994 181.324 L 182.336 177.464 L 182.700 173.565 L 184.060 169.893 L 186.325 166.698 L 189.339 164.199 L 192.898 162.564 L 196.758 161.907 M 159.464 191.839 L 160.121 195.700 L 161.756 199.258 L 164.255 202.272 L 167.450 204.537 L 171.122 205.897 L 175.021 206.261 L 179.528 205.377 L 183.315 203.305 L 183.358 204.444 L 184.016 208.304 L 185.650 211.863 L 188.150 214.877 L 191.344 217.141 L 195.016 218.502 L 198.915 218.866 L 202.775 218.208 L 206.333 216.574 L 209.348 214.074 L 211.612 210.880 L 212.973 207.208 L 213.336 203.309 L 213.293 202.170 L 217.226 203.950 L 221.787 204.490 L 226.494 203.546 L 230.528 201.262 L 233.651 197.893 L 235.624 193.698 L 236.209 188.933 L 234.892 183.346 L 231.708 178.830 L 227.124 175.767 L 231.462 172.354 L 234.296 167.597 L 235.187 161.952 L 234.243 157.245 L 231.959 153.211 L 228.590 150.089 L 224.395 148.116 L 219.630 147.531 L 215.122 148.392 L 211.336 150.487 L 211.293 149.348 L 210.635 145.487 L 209.001 141.929 L 206.501 138.915 L 203.307 136.650 L 199.635 135.290 L 195.736 134.926 L 191.876 135.584 L 188.317 137.218 L 185.303 139.718 L 183.039 142.912 L 181.678 146.584 L 181.314 150.483 L 181.357 151.622 L 177.424 149.820 L 172.864 149.302 L 169.003 149.960 L 165.445 151.594 L 162.431 154.094 L 160.166 157.288 L 158.806 160.960 L 158.442 164.859 L 159.758 170.420 L 162.943 174.949 L 167.527 178.024 L 163.188 181.424 L 160.354 186.168 L 159.464 191.839 M 200.504 260.836 L 205.474 260.417 L 210.385 259.541 L 215.193 258.217 L 219.859 256.454 L 224.343 254.268 L 228.605 251.677 L 232.610 248.705 L 236.324 245.376 L 239.715 241.718 L 242.754 237.763 L 245.415 233.544 L 247.676 229.098 L 249.516 224.462 L 250.921 219.676 L 251.879 214.781 L 252.380 209.819 L 252.422 204.831 L 246.886 205.318 L 241.537 206.334 L 236.401 207.852 L 231.503 209.845 L 226.868 212.285 L 222.521 215.146 L 218.489 218.399 L 214.795 222.017 L 211.467 225.974 L 208.528 230.241 L 206.004 234.791 L 203.922 239.597 L 202.305 244.632 L 201.180 249.869 L 200.571 255.279 L 200.504 260.836 M 187.684 206.665 L 187.899 211.648 L 188.572 216.590 L 189.699 221.449 L 191.269 226.183 L 193.269 230.752 L 195.683 235.117 L 198.489 239.241 L 201.663 243.088 L 205.179 246.627 L 209.006 249.825 L 213.112 252.657 L 217.462 255.098 L 222.018 257.127 L 226.742 258.727 L 231.594 259.884 L 236.532 260.589 L 241.513 260.835 L 241.252 255.284 L 240.451 249.898 L 239.136 244.704 L 237.336 239.728 L 235.077 234.997 L 232.386 230.536 L 229.290 226.374 L 225.817 222.535 L 221.993 219.047 L 217.846 215.936 L 213.402 213.228 L 208.689 210.950 L 203.733 209.128 L 198.563 207.789 L 193.204 206.959 L 187.684 206.665 M 241.826 161.835 L 245.707 162.359 L 249.320 163.869 L 252.419 166.262 L 254.793 169.376 L 256.280 172.999 L 256.779 176.883 L 256.255 180.763 L 254.745 184.376 L 252.352 187.475 L 249.238 189.849 L 245.615 191.336 L 241.731 191.835 L 237.851 191.312 L 234.238 189.802 L 231.139 187.408 L 228.765 184.294 L 227.278 180.672 L 226.779 176.788 L 227.302 172.907 L 228.812 169.294 L 231.206 166.195 L 234.320 163.821 L 237.942 162.334 L 241.826 161.835 M 203.336 190.214 L 203.835 194.098 L 205.322 197.720 L 207.696 200.834 L 210.795 203.228 L 214.408 204.738 L 218.289 205.261 L 222.829 204.563 L 226.697 202.648 L 226.694 203.788 L 227.192 207.672 L 228.679 211.294 L 231.053 214.408 L 234.153 216.802 L 237.765 218.312 L 241.646 218.835 L 245.530 218.336 L 249.152 216.849 L 252.267 214.475 L 254.660 211.376 L 256.170 207.763 L 256.693 203.883 L 256.697 202.743 L 260.553 204.682 L 265.089 205.409 L 269.831 204.659 L 273.955 202.542 L 277.213 199.304 L 279.356 195.194 L 280.136 190.457 L 279.049 184.820 L 276.053 180.177 L 271.599 176.930 L 276.073 173.697 L 279.099 169.060 L 280.221 163.457 L 279.471 158.715 L 277.354 154.591 L 274.116 151.333 L 270.006 149.189 L 265.269 148.409 L 260.729 149.085 L 256.860 151.023 L 256.864 149.883 L 256.365 145.999 L 254.878 142.377 L 252.504 139.262 L 249.405 136.869 L 245.792 135.359 L 241.911 134.836 L 238.028 135.334 L 234.405 136.821 L 231.291 139.195 L 228.897 142.294 L 227.388 145.907 L 226.864 149.788 L 226.861 150.928 L 223.004 148.966 L 218.469 148.262 L 214.585 148.760 L 210.963 150.247 L 207.849 152.621 L 205.455 155.720 L 203.945 159.333 L 203.422 163.214 L 204.508 168.824 L 207.505 173.480 L 211.959 176.741 L 207.484 179.960 L 204.459 184.584 L 203.336 190.214 M 241.513 260.835 L 246.497 260.620 L 251.439 259.947 L 256.298 258.820 L 261.032 257.250 L 265.601 255.250 L 269.966 252.836 L 274.090 250.031 L 277.937 246.856 L 281.475 243.341 L 284.674 239.513 L 287.506 235.407 L 289.947 231.058 L 291.976 226.501 L 293.576 221.777 L 294.733 216.925 L 295.438 211.987 L 295.684 207.006 L 290.133 207.265 L 284.747 208.061 L 279.553 209.367 L 274.577 211.158 L 269.846 213.406 L 265.385 216.086 L 261.223 219.171 L 257.384 222.635 L 253.896 226.451 L 250.785 230.595 L 248.077 235.038 L 245.799 239.755 L 243.977 244.719 L 242.638 249.905 L 241.808 255.286 L 241.513 260.835" fill="none" stroke="#EC008C" stroke-width="1" vector-effect="non-scaling-stroke"/></svg>