<svg xmlns="http://www.w3.org/2000/svg" viewBox="84.66450990961215 40.18847050622878 250.6709801807757 239.18536488629758" width="250.6709801807757" height="239.18536488629758" shape-rendering="geometricPrecision"><rect x="84.66450990961215" y="40.18847050622878" width="250.6709801807757" height="239.18536488629758" fill="#0b0f14"/><path d="M 227.119 153.562 L 216.539 157.000 L 210.000 166.000 L 203.461 157.000 L 192.881 153.562 L 199.420 144.562 L 199.420 133.438 L 210.000 136.875 L 220.580 133.438 L 220.580 144.562 L 227.119 153.562 M 212.054 148.667 L 227.119 153.562 M 210.000 150.160 L 210.000 166.000 M 207.946 148.667 L 192.881 153.562 M 208.730 146.253 L 199.420 133.438 M 211.270 146.253 L 220.580 133.438 M 227.119 171.562 L 210.000 166.000 L 192.881 171.562 L 192.881 153.562 L 182.301 139.000 L 199.420 133.438 L 210.000 118.875 L 220.580 133.438 L 237.699 139.000 L 227.119 153.562 L 227.119 171.562 M 212.054 150.827 L 227.119 171.562 M 207.946 150.827 L 192.881 171.562 M 206.676 146.920 L 182.301 139.000 M 210.000 144.505 L 210.000 118.875 M 213.324 146.920 L 237.699 139.000 M 210.000 195.125 L 192.881 171.562 L 165.182 162.562 L 182.301 139.000 L 182.301 109.875 L 210.000 118.875 L 237.699 109.875 L 237.699 139.000 L 254.818 162.562 L 227.119 171.562 L 210.000 195.125 M 210.000 153.655 L 210.000 195.125 M 204.622 149.747 L 165.182 162.562 M 206.676 143.425 L 182.301 109.875 M 213.324 143.425 L 237.699 109.875 M 215.378 149.747 L 254.818 162.562 M 165.182 209.687 L 165.182 162.562 L 137.483 124.438 L 182.301 109.875 L 210.000 71.751 L 237.699 109.875 L 282.517 124.438 L 254.818 162.562 L 254.818 209.687 L 210.000 195.125 L 165.182 209.687 M 204.622 155.402 L 165.182 209.687 M 201.298 145.173 L 137.483 124.438 M 210.000 138.850 L 210.000 71.751 M 218.702 145.173 L 282.517 124.438 M 215.378 155.402 L 254.818 209.687 M 92.665 186.125 L 137.483 124.438 L 137.483 48.188 L 210.000 71.751 L 282.517 48.188 L 282.517 124.438 L 327.335 186.125 L 254.818 209.687 L 210.000 271.374 L 165.182 209.687 L 92.665 186.125 M 195.920 152.575 L 92.665 186.125 M 201.298 136.023 L 137.483 48.188 M 218.702 136.023 L 282.517 48.188 M 224.080 152.575 L 327.335 186.125 M 210.000 162.805 L 210.000 271.374" fill="none" stroke="#FFF200" stroke-width="1" vector-effect="non-scaling-stroke"/></svg>