<svg xmlns="http://www.w3.org/2000/svg" viewBox="92.93512834361896 32.73082570442031 234.12974331276212 232.9348057556031" width="234.12974331276212" height="232.9348057556031" shape-rendering="geometricPrecision"><rect x="92.93512834361896" y="32.73082570442031" width="234.12974331276212" height="232.9348057556031" fill="#0b0f14"/><path d="M 225.912 149.672 L 217.349 154.617 L 213.327 163.650 L 205.978 157.034 L 196.144 156.000 L 200.166 146.966 L 198.110 137.294 L 207.944 138.328 L 216.508 133.383 L 218.564 143.056 L 225.912 149.672 M 211.909 148.201 L 225.912 149.672 M 210.399 149.878 L 213.327 163.650 M 208.337 148.960 L 196.144 156.000 M 208.573 146.715 L 198.110 137.294 M 210.781 146.246 L 216.508 133.383 M 229.239 165.323 L 213.327 163.650 L 199.470 171.650 L 196.144 156.000 L 184.253 145.294 L 198.110 137.294 L 204.617 122.677 L 216.508 133.383 L 232.420 135.056 L 225.912 149.672 L 229.239 165.323 M 212.309 150.079 L 229.239 165.323 M 208.736 150.838 L 199.470 171.650 M 206.910 147.675 L 184.253 145.294 M 209.354 144.961 L 204.617 122.677 M 212.690 146.447 L 232.420 135.056 M 218.709 188.973 L 199.470 171.650 L 173.723 168.944 L 184.253 145.294 L 178.871 119.971 L 204.617 122.677 L 227.038 109.733 L 232.420 135.056 L 251.659 152.379 L 229.239 165.323 L 218.709 188.973 M 211.045 152.917 L 218.709 188.973 M 205.647 150.513 L 173.723 168.944 M 206.264 144.637 L 178.871 119.971 M 212.045 143.408 L 227.038 109.733 M 214.999 148.525 L 251.659 152.379 M 182.433 209.917 L 173.723 168.944 L 142.594 140.915 L 178.871 119.971 L 195.908 81.704 L 227.038 109.733 L 268.697 114.111 L 251.659 152.379 L 260.368 193.352 L 218.709 188.973 L 182.433 209.917 M 206.692 155.430 L 182.433 209.917 M 201.911 147.150 L 142.594 140.915 M 208.309 140.044 L 195.908 81.704 M 217.044 143.933 L 268.697 114.111 M 216.044 153.442 L 260.368 193.352 M 115.027 202.833 L 142.594 140.915 L 128.503 74.619 L 195.908 81.704 L 254.605 47.815 L 268.697 114.111 L 319.065 159.463 L 260.368 193.352 L 232.801 255.269 L 182.433 209.917 L 115.027 202.833 M 198.603 154.580 L 115.027 202.833 M 200.220 139.194 L 128.503 74.619 M 215.353 135.978 L 254.605 47.815 M 223.088 149.376 L 319.065 159.463 M 212.736 160.872 L 232.801 255.269" fill="none" stroke="#00AEEF" stroke-width="1" vector-effect="non-scaling-stroke"/><path d="M 225.217 152.944 L 215.812 156.000 L 210.000 164.000 L 204.188 156.000 L 194.783 152.944 L 200.595 144.944 L 200.595 135.056 L 210.000 138.111 L 219.405 135.056 L 219.405 144.944 L 225.217 152.944 M 211.826 148.593 L 225.217 152.944 M 210.000 149.920 L 210.000 164.000 M 208.174 148.593 L 194.783 152.944 M 208.871 146.447 L 200.595 135.056 M 211.129 146.447 L 219.405 135.056 M 225.217 168.944 L 210.000 164.000 L 194.783 168.944 L 194.783 152.944 L 185.379 140.000 L 200.595 135.056 L 210.000 122.111 L 219.405 135.056 L 234.621 140.000 L 225.217 152.944 L 225.217 168.944 M 211.826 150.513 L 225.217 168.944 M 208.174 150.513 L 194.783 168.944 M 207.045 147.040 L 185.379 140.000 M 210.000 144.893 L 210.000 122.111 M 212.955 147.040 L 234.621 140.000 M 210.000 189.889 L 194.783 168.944 L 170.162 160.944 L 185.379 140.000 L 185.379 114.111 L 210.000 122.111 L 234.621 114.111 L 234.621 140.000 L 249.838 160.944 L 225.217 168.944 L 210.000 189.889 M 210.000 153.027 L 210.000 189.889 M 205.219 149.553 L 170.162 160.944 M 207.045 143.933 L 185.379 114.111 M 212.955 143.933 L 234.621 114.111 M 214.781 149.553 L 249.838 160.944 M 170.162 202.833 L 170.162 160.944 L 145.540 127.056 L 185.379 114.111 L 210.000 80.223 L 234.621 114.111 L 274.460 127.056 L 249.838 160.944 L 249.838 202.833 L 210.000 189.889 L 170.162 202.833 M 205.219 154.580 L 170.162 202.833 M 202.265 145.487 L 145.540 127.056 M 210.000 139.867 L 210.000 80.223 M 217.735 145.487 L 274.460 127.056 M 214.781 154.580 L 249.838 202.833 M 105.702 181.889 L 145.540 127.056 L 145.540 59.279 L 210.000 80.223 L 274.460 59.279 L 274.460 127.056 L 314.298 181.889 L 249.838 202.833 L 210.000 257.666 L 170.162 202.833 L 105.702 181.889 M 197.484 152.067 L 105.702 181.889 M 202.265 137.353 L 145.540 59.279 M 217.735 137.353 L 274.460 59.279 M 222.516 152.067 L 314.298 181.889 M 210.000 161.160 L 210.000 257.666" fill="none" stroke="#EC008C" stroke-width="1" vector-effect="non-scaling-stroke"/><path d="M 223.856 156.000 L 214.022 157.034 L 206.673 163.650 L 202.651 154.617 L 194.088 149.672 L 201.436 143.056 L 203.492 133.383 L 212.056 138.328 L 221.890 137.294 L 219.834 146.966 L 223.856 156.000 M 211.663 148.960 L 223.856 156.000 M 209.601 149.878 L 206.673 163.650 M 208.091 148.201 L 194.088 149.672 M 209.219 146.246 L 203.492 133.383 M 211.427 146.715 L 221.890 137.294 M 220.530 171.650 L 206.673 163.650 L 190.761 165.323 L 194.088 149.672 L 187.580 135.056 L 203.492 133.383 L 215.383 122.677 L 221.890 137.294 L 235.747 145.294 L 223.856 156.000 L 220.530 171.650 M 211.264 150.838 L 220.530 171.650 M 207.691 150.079 L 190.761 165.323 M 207.310 146.447 L 187.580 135.056 M 210.646 144.961 L 215.383 122.677 M 213.090 147.675 L 235.747 145.294 M 201.291 188.973 L 190.761 165.323 L 168.341 152.379 L 187.580 135.056 L 192.962 109.733 L 215.383 122.677 L 241.129 119.971 L 235.747 145.294 L 246.277 168.944 L 220.530 171.650 L 201.291 188.973 M 208.955 152.917 L 201.291 188.973 M 205.001 148.525 L 168.341 152.379 M 207.955 143.408 L 192.962 109.733 M 213.736 144.637 L 241.129 119.971 M 214.353 150.513 L 246.277 168.944 M 159.632 193.352 L 168.341 152.379 L 151.303 114.111 L 192.962 109.733 L 224.092 81.704 L 241.129 119.971 L 277.406 140.915 L 246.277 168.944 L 237.567 209.917 L 201.291 188.973 L 159.632 193.352 M 203.956 153.442 L 159.632 193.352 M 202.956 143.933 L 151.303 114.111 M 211.691 140.044 L 224.092 81.704 M 218.089 147.150 L 277.406 140.915 M 213.308 155.430 L 237.567 209.917 M 100.935 159.463 L 151.303 114.111 L 165.395 47.815 L 224.092 81.704 L 291.497 74.619 L 277.406 140.915 L 304.973 202.833 L 237.567 209.917 L 187.199 255.269 L 159.632 193.352 L 100.935 159.463 M 196.912 149.376 L 100.935 159.463 M 204.647 135.978 L 165.395 47.815 M 219.780 139.194 L 291.497 74.619 M 221.397 154.580 L 304.973 202.833 M 207.264 160.872 L 187.199 255.269" fill="none" stroke="#FFF200" stroke-width="1" vector-effect="non-scaling-stroke"/><path d="M 221.890 158.706 L 212.056 157.672 L 203.492 162.617 L 201.436 152.944 L 194.088 146.328 L 202.651 141.383 L 206.673 132.350 L 214.022 138.966 L 223.856 140.000 L 219.834 149.034 L 221.890 158.706 M 215.383 173.323 L 203.492 162.617 L 187.580 160.944 L 194.088 146.328 L 190.761 130.677 L 206.673 132.350 L 220.530 124.350 L 223.856 140.000 L 235.747 150.706 L 221.890 158.706 L 215.383 173.323 M 192.962 186.267 L 187.580 160.944 L 168.341 143.621 L 190.761 130.677 L 201.291 107.027 L 220.530 124.350 L 246.277 127.056 L 235.747 150.706 L 241.129 176.029 L 215.383 173.323 L 192.962 186.267 M 151.303 181.889 L 168.341 143.621 L 159.632 102.648 L 201.291 107.027 L 237.567 86.083 L 246.277 127.056 L 277.406 155.085 L 241.129 176.029 L 224.092 214.296 L 192.962 186.267 L 151.303 181.889 M 100.935 136.537 L 159.632 102.648 L 187.199 40.731 L 237.567 86.083 L 304.973 93.167 L 277.406 155.085 L 291.497 221.381 L 224.092 214.296 L 165.395 248.185 L 151.303 181.889 L 100.935 136.537" fill="none" stroke="#111111" stroke-width="1" vector-effect="non-scaling-stroke"/></svg>