<svg xmlns="http://www.w3.org/2000/svg" viewBox="82.84569831892706 20.978554660097643 255.04156302613 254.85641216441434" width="255.04156302613" height="254.85641216441434" shape-rendering="geometricPrecision"><rect x="82.84569831892706" y="20.978554660097643" width="255.04156302613" height="254.85641216441434" fill="#0b0f14"/><path d="M 210.000 148.500 L 207.788 150.526 L 210.371 144.274 L 213.162 152.624 L 204.092 147.455 L 215.660 144.900 L 208.092 155.597 L 206.342 141.456 L 217.970 151.411 L 201.681 151.934 L 214.021 139.907 L 212.978 157.994 L 201.008 143.289 L 220.564 146.177 L 203.544 157.683 L 208.507 136.977 L 219.176 156.233 L 197.641 149.011 L 219.022 139.522 L 209.396 161.563 L 201.404 138.199 L 223.625 150.333 L 198.449 156.537 L 213.158 134.463 L 217.307 161.252 L 195.710 143.941 L 223.887 142.084 L 203.982 162.880 L 204.627 133.562 L 224.301 156.016 L 194.111 152.688 L 219.034 134.450 L 212.874 165.225 L 196.375 137.948 L 227.433 147.056 L 197.948 161.528 L 210.088 130.500 L 222.261 162.016 L 191.586 146.793 L 224.924 137.174 L 206.604 167.167 L 199.769 132.242 L 228.751 153.639 L 192.498 157.482 L 216.917 129.841 L 217.588 167.139 L 191.613 139.786 L 229.654 142.440 L 199.491 166.432 L 205.591 127.968 L 227.294 160.785 L 188.740 151.150 L 224.022 132.026 L 210.796 170.326 L 194.526 132.798 L 232.220 149.636 L 192.693 162.800 L 213.130 126.068 L 222.957 167.318 L 187.543 143.333 L 230.218 137.045 L 202.770 170.787 L 200.197 127.008 L 231.921 157.800 L 187.377 156.513 L 221.357 127.145 L 216.097 172.097 L 189.410 135.119 L 234.401 144.429 L 194.646 168.128 L 208.050 123.476 L 228.472 165.756 L 184.545 148.252 L 229.068 131.371 L 207.493 174.185 L 194.394 127.728 L 235.708 153.306 L 187.651 162.412 L 217.128 122.981 L 222.058 172.282 L 184.886 139.050 L 235.057 138.442 L 198.246 172.992 L 202.075 122.343 L 233.654 162.518 L 182.930 154.175 L 226.222 125.898 L 213.325 176.284 L 188.659 130.155 L 238.288 147.607 L 189.631 168.378 L 211.601 119.927 L 228.220 170.772 L 181.366 144.363 L 234.036 132.122 L 203.304 176.963 L 195.635 122.855 L 238.060 157.754 L 182.920 160.693 L 221.792 121.078 L 219.878 176.827 L 183.450 134.214 L 239.372 141.063 L 193.284 173.948 L 205.113 118.299 L 234.120 167.559 L 179.195 150.750 L 231.295 125.927 L 209.544 179.674 L 189.183 125.098 L 241.300 151.709 L 184.638 167.362 L 215.987 117.321 L 226.721 175.655 L 179.192 139.733 L 238.764 134.091 L 198.473 178.685 L 198.059 118.327 L 239.311 162.743 L 178.634 157.836 L 226.892 120.310 L 216.613 180.831 L 183.174 129.048 L 243.055 144.708 L 188.100 173.727 L 209.105 114.971 L 233.402 172.715 L 176.254 146.444 L 236.375 127.137 L 204.963 182.199 L 190.877 120.139 L 243.385 156.526 L 179.847 165.197 L 220.997 115.696 L 224.103 180.235 L 178.046 134.574 L 243.091 137.142 L 193.211 179.340 L 201.517 114.294 L 239.467 168.062 L 174.932 154.000 L 232.222 120.658 L 212.430 184.166 L 184.025 123.755 L 245.993 149.202 L 182.892 172.378 L 213.873 112.458 L 231.563 177.792 L 174.192 141.443 L 241.276 129.452 L 199.771 183.790 L 193.650 115.459 L 244.488 161.863 L 175.430 161.987 L 226.434 115.095 L 220.481 184.349 L 177.953 129.083 L 246.864 141.147 L 187.714 178.920 L 205.872 110.897 L 238.534 173.517 L 171.943 149.330 L 237.586 122.099 L 207.485 186.719 L 185.965 118.528 L 248.084 154.383 L 177.847 169.952 L 219.245 110.850 L 228.671 182.609 L 173.083 135.924 L 245.822 132.790 L 194.152 184.386 L 197.409 111.225 L 244.564 167.535 L 171.545 157.838 L 232.111 115.544 L 215.974 187.849 L 178.927 123.450 L 249.945 145.974 L 182.174 177.426 L 210.982 108.263 L 236.529 178.917 L 169.781 143.979 L 242.800 124.600 L 201.937 188.387 L 188.945 113.547 L 249.241 160.082 L 173.143 166.515 L 225.049 110.218 L 224.802 186.995 L 172.985 130.065 L 249.851 137.060 L 188.286 183.947 L 202.046 107.589 L 243.587 173.358 L 168.336 152.869 L 237.842 117.054 L 210.713 190.601 L 180.962 117.860 L 252.215 151.485 L 176.772 174.880 L 216.698 106.498 L 233.491 184.083 L 168.540 138.104 L 247.686 128.110 L 195.951 189.091 L 192.899 108.983 L 249.398 166.129 L 168.942 162.146 L 231.108 110.612 L 220.053 190.796 L 173.931 124.045 L 253.217 142.154 L 182.355 182.452 L 207.444 104.688 L 241.552 179.150 L 165.928 147.210 L 243.446 119.615 L 204.838 192.493 L 184.030 112.492 L 253.571 157.530 L 171.686 171.326 L 222.862 105.692 L 229.476 188.845 L 168.293 131.870 L 252.080 132.555 L 189.697 188.772 L 197.740 104.995 L 248.512 172.351 L 165.394 156.946 L 237.245 112.062 L 214.534 193.870 L 175.936 118.042 L 255.790 147.948 L 176.538 179.905 L 213.468 102.642 L 238.480 184.734 L 164.428 141.005 L 248.748 123.190 L 198.501 193.431 L 188.083 107.516 L 253.936 163.947 L 167.080 166.826 L 229.309 105.907 L 224.563 193.041 L 169.091 125.447 L 255.830 137.843 L 183.351 187.395 L 203.364 101.724 L 246.563 178.569 L 162.633 151.031 L 243.283 114.570 L 208.374 196.096 L 178.987 112.234 L 257.459 154.304 L 171.009 176.333 L 219.970 101.547 L 234.413 189.937 L 163.919 134.409 L 253.581 127.723 L 191.864 193.345 L 193.048 103.095 L 253.253 170.571 L 163.108 161.467 L 235.866 107.185 L 218.852 196.528 L 170.957 119.010 L 258.801 143.864 L 177.086 184.951 L 209.647 99.298 L 243.559 184.609 L 160.773 144.536 L 249.048 118.115 L 201.717 197.371 L 183.046 106.793 L 258.135 161.070 L 165.936 171.789 L 226.791 101.478 L 229.417 194.598 L 164.462 127.588 L 257.790 133.132 L 185.098 192.191 L 198.830 99.375 L 251.493 177.228 L 159.910 155.357 L 242.360 109.540 L 212.460 199.175 L 173.893 112.733 L 260.873 150.486 L 171.079 181.457 L 216.449 97.820 L 239.529 190.297 L 159.906 137.608 L 254.371 122.650 L 194.718 197.617 L 188.053 101.881 L 257.754 168.084 L 161.477 166.347 L 233.764 102.486 L 223.582 198.565 L 166.093 120.712 L 261.231 139.316 L 178.375 189.947 L 205.315 96.490 L 248.651 183.744 L 157.607 148.621 L 248.614 112.962 L 205.525 200.873 L 177.870 106.791 L 261.950 157.566 L 165.498 176.953 L 223.617 97.377 L 234.532 195.470 L 160.103 130.408 L 259.091 128.103 L 187.544 196.777 L 193.922 97.652 L 256.276 175.175 L 157.777 160.107 L 240.715 104.596 L 217.019 201.705 L 168.821 113.956 L 263.782 146.152 L 171.870 186.620 L 212.370 94.552 L 244.747 189.944 L 156.301 141.401 L 254.460 117.414 L 198.197 201.535 L 182.837 101.349 L 261.958 164.944 L 160.505 171.506 L 230.987 98.027 L 228.647 199.971 L 161.409 123.105 L 263.063 134.382 L 180.365 194.823 L 200.547 94.245 L 253.684 182.171 L 154.963 153.187 L 247.471 107.807 L 209.857 203.898 L 172.629 107.495 L 265.335 153.500 L 165.756 182.241 L 219.847 93.654 L 239.830 195.661 L 156.070 133.853 L 259.732 122.834 L 190.639 201.094 L 188.719 96.566 L 260.845 172.453 L 156.252 165.207 L 238.387 99.805 L 221.978 203.659 L 163.843 115.872 L 266.153 141.370 L 173.359 191.749 L 207.801 91.780 L 249.991 188.894 L 153.147 145.724 L 253.858 112.092 L 202.243 205.049 L 177.476 101.498 L 265.808 161.206 L 160.198 176.868 L 227.585 93.867 L 233.971 200.734 L 156.969 126.146 L 264.277 129.135 L 183.022 199.512 L 195.415 92.587 L 258.588 179.919 L 152.872 158.167 L 245.642 102.722 L 214.648 206.409 L 167.400 108.887 L 268.248 148.934 L 166.699 187.577 L 215.539 90.360 L 245.235 195.174 L 152.415 137.871 L 259.706 117.399 L 194.336 205.083 L 183.294 96.128 L 265.140 169.104 L 155.352 170.583 L 235.412 95.234 L 227.265 205.015 L 159.029 118.451 L 267.957 136.211 L 175.522 196.773 L 202.806 89.540 L 255.189 187.165 L 150.486 150.517 L 252.575 106.759 L 206.798 208.113 L 172.045 102.322 L 269.254 156.923 L 160.556 182.357 L 223.605 90.063 L 239.479 200.845 L 152.834 129.792 L 264.858 123.649 L 186.307 203.949 L 189.990 91.539 L 263.297 177.020 L 151.363 163.490 L 243.152 97.776 L 219.830 208.370 L 162.252 110.949 L 270.647 143.930 L 168.317 192.890 L 210.752 87.537 L 250.674 194.015 L 149.190 142.407 L 259.014 111.872 L 198.586 208.689 L 177.720 96.346 L 269.102 165.172 L 155.093 176.162 L 231.827 90.945 L 232.810 205.751 L 154.442 121.661 L 269.166 130.740 L 178.332 201.624 L 197.451 87.866 L 260.270 184.776 L 148.356 155.716 L 250.627 101.484 L 211.804 210.683 L 166.616 103.815 L 272.247 152.148 L 161.581 187.903 L 219.097 86.668 L 245.100 200.298 L 149.060 133.999 L 264.794 117.993 L 190.181 208.075 L 184.342 91.118 L 267.746 173.508 L 150.460 169.090 L 240.029 93.036 L 225.340 209.751 L 157.255 113.658 L 272.498 138.551 L 170.592 198.109 L 205.543 85.230 L 256.076 192.192 L 146.441 147.406 L 257.659 106.326 L 203.339 211.861 L 172.070 97.223 L 272.675 160.702 L 155.483 181.875 L 227.674 86.997 L 238.544 205.852 L 150.146 125.467 L 269.758 125.028 L 181.760 206.237 L 191.803 86.784 L 265.167 181.751 L 146.793 161.260 L 248.029 96.339 L 217.201 212.720 L 161.258 105.965 L 274.742 146.938 L 163.266 193.433 L 214.113 83.731 L 250.762 199.091 L 145.701 138.719 L 264.076 112.240 L 194.603 211.832 L 178.540 91.340 L 271.874 169.419 L 150.182 174.898 L 236.304 88.566 L 231.111 210.527 L 152.474 116.991 L 273.768 132.859 L 173.506 203.165 L 199.973 83.473 L 261.371 189.719 L 144.209 152.812 L 255.646 100.830 L 208.541 214.552 L 166.414 98.758 L 275.807 155.743 L 156.529 187.651 L 222.995 83.445 L 244.397 205.306 L 146.200 129.829 L 269.717 119.142 L 185.774 210.549 L 185.926 86.319 L 269.814 178.118 L 145.823 167.083 L 244.804 91.389 L 222.927 214.188 L 156.042 108.756 L 276.700 141.351 L 165.603 198.877 L 208.707 81.296 L 256.395 197.229 L 142.807 143.904 L 262.703 106.459 L 199.526 215.166 L 172.654 92.212 L 275.624 164.794 L 150.546 180.846 L 232.012 84.426 L 237.077 210.676 L 147.975 120.917 L 274.431 126.920 L 177.035 207.992 L 194.105 82.301 L 266.492 186.613 L 142.534 158.566 L 252.989 95.454 L 214.137 216.719 L 160.821 100.946 L 278.451 150.346 L 158.229 193.420 L 217.839 80.342 L 250.299 204.106 L 142.660 134.706 L 269.028 113.150 L 190.334 214.502 L 179.889 86.490 L 274.151 173.909 L 145.473 173.121 L 240.978 86.699 L 228.921 215.058 L 151.033 112.169 L 278.085 135.446 L 168.576 204.169 L 202.935 79.405 L 261.931 194.719 L 140.423 149.499 L 260.676 100.720 L 204.903 218.027 L 166.753 93.739 L 278.943 159.676 L 151.561 186.864 L 227.192 80.674 L 243.169 210.183 L 143.815 125.401 L 274.465 120.800 L 181.151 212.529 L 188.002 81.739 L 271.373 182.899 L 141.447 164.607 L 249.705 90.263 L 220.070 218.325 L 155.359 103.775 L 280.566 144.566 L 160.580 199.113 L 212.254 77.733 L 256.181 202.252 L 139.575 140.052 L 267.687 107.121 L 195.402 218.041 L 173.758 87.308 L 278.119 169.159 L 145.759 179.308 L 236.582 82.331 L 235.118 215.306 L 146.295 116.178 L 278.868 129.285 L 172.166 209.242 L 196.856 78.092 L 267.302 191.575 L 138.588 155.450 L 258.004 95.090 L 210.682 220.372 L 160.906 95.919 L 281.781 154.114 L 153.230 192.886 L 221.889 77.362 L 249.321 209.038 L 140.053 130.406 L 273.854 114.564 L 185.819 216.715 L 181.728 81.809 L 275.953 178.604 L 140.975 170.872 L 245.816 85.324 L 226.279 219.338 L 150.095 107.228 L 282.112 138.459 L 163.570 204.663 L 206.296 75.663 L 261.976 199.749 L 136.994 145.818 L 265.691 101.123 L 200.930 221.114 L 167.602 88.780 L 281.663 163.909 L 146.696 185.576 L 231.651 78.342 L 241.452 214.913 L 141.890 120.752 L 279.024 122.932 L 176.347 214.032 L 190.532 77.388 L 272.443 187.818 L 137.338 161.698 L 254.700 89.637 L 216.807 222.159 L 155.180 98.743 L 284.094 148.159 L 155.552 198.843 L 216.148 74.539 L 255.464 207.237 L 136.740 135.889 L 272.589 108.280 L 191.002 220.494 L 175.350 82.528 L 280.171 173.760 L 141.140 177.297 L 241.349 80.697 L 232.703 219.729 L 145.093 111.283 L 283.059 132.085 L 167.183 210.003 L 200.019 74.167 L 267.617 196.607 L 134.959 151.950 L 263.045 95.225 L 206.871 223.675 L 161.489 90.909 L 284.732 158.205 L 148.291 191.859 L 226.227 74.786 L 247.858 213.867 L 137.874 125.855 L 278.534 116.452 L 181.091 218.480 L 184.025 77.315 L 277.290 183.471 L 136.702 168.183 L 250.784 84.425 L 223.220 223.355 L 149.641 102.198 L 285.842 141.865 L 158.519 204.667 L 210.021 72.250 L 261.530 204.782 L 133.927 141.803 L 270.665 102.016 L 196.657 223.812 L 168.934 83.904 L 283.971 168.407 L 141.957 183.815 L 236.338 76.442 L 239.276 219.478 L 140.414 115.914 L 283.378 125.506 L 171.396 215.071 L 193.484 73.279 L 273.037 192.843 L 133.507 158.391 L 259.760 89.492 L 213.171 225.681 L 155.486 93.689 L 287.279 152.094 L 150.544 198.088 L 220.352 71.716 L 254.267 212.159 L 134.302 131.449 L 277.386 109.911 L 186.361 222.528 L 177.401 77.893 L 281.785 178.565 L 136.705 174.840 L 246.280 79.516 L 229.861 223.929 L 144.355 106.266 L 286.990 135.290 L 162.118 210.292 L 203.562 70.535 L 267.454 201.679 L 131.656 148.097 L 268.084 95.838 L 202.738 226.623 L 162.548 85.943 L 287.302 162.585 L 143.437 190.362 L 230.819 72.615 L 245.934 218.569 L 136.118 121.087 L 283.048 118.786 L 176.183 219.805 L 186.753 73.024 L 278.174 188.479 L 132.670 165.084 L 255.852 83.989 L 219.774 227.097 L 149.658 97.110 L 289.264 145.631 L 153.451 204.197 L 214.077 69.176 L 260.612 209.789 L 131.224 137.487 L 275.573 103.376 L 192.117 226.122 L 170.725 79.135 L 285.869 173.135 L 137.364 181.607 L 241.218 74.972 L 236.667 223.858 L 139.383 110.920 L 287.510 128.495 L 166.329 215.655 L 196.829 69.427 L 273.169 197.944 L 129.966 154.716 L 264.854 89.814 L 209.194 228.883 L 156.259 88.642 L 290.116 156.341 L 145.584 196.869 L 224.836 69.267 L 252.611 216.993 L 132.260 126.764 L 282.056 111.990 L 181.511 224.146 L 179.888 73.425 L 282.966 183.541 L 132.474 171.966 L 251.343 78.781 L 226.621 227.890 L 144.072 101.155 L 290.649 138.870 L 157.001 210.120 L 207.455 67.207 L 266.828 206.763 L 128.686 143.922 L 273.094 96.913 L 198.315 229.212 L 164.065 81.047 L 289.489 167.222 L 138.693 188.416 L 235.634 70.848 L 243.574 223.124 L 134.785 116.132 L 287.377 121.542 L 171.128 220.694 L 189.883 68.956 L 278.611 193.595 L 128.893 161.603 L 260.989 84.008 L 215.970 230.551 L 150.134 91.993 L 292.368 149.728 L 148.394 203.270 L 218.435 66.446 L 259.239 214.746 L 128.891 132.903 L 280.390 105.184 L 187.342 228.040 L 172.955 74.496 L 287.356 178.064 L 132.939 178.973 L 246.262 73.927 L 233.650 228.034 L 138.790 105.802 L 291.403 131.872 L 161.176 215.792 L 200.540 65.847 L 272.848 203.091 L 126.728 150.701 L 269.954 90.591 L 204.906 231.753 L 157.486 83.629 L 292.595 160.869 L 140.697 195.202 L 229.568 67.198 L 250.516 221.715 L 130.618 121.865 L 286.575 114.496 L 176.484 225.348 L 182.786 69.144 L 283.718 188.658 L 128.464 168.698 L 256.508 78.486 L 223.009 231.595 L 144.236 95.982 L 294.021 142.799 L 151.860 209.498 L 211.668 64.196 L 265.752 211.830 L 126.058 139.456 L 278.048 98.435 L 193.632 231.434 L 166.020 76.245 L 291.288 172.086 L 134.081 186.041 L 240.641 69.486 L 240.799 227.509 L 133.872 111.022 L 291.501 124.697 L 165.955 221.150 L 193.392 65.126 L 278.607 198.790 L 125.388 157.766 L 266.165 84.473 L 211.836 233.703 L 151.056 86.876 L 295.143 154.127 L 143.376 201.897 L 223.065 64.071 L 257.426 219.625 L 126.934 128.078 L 285.091 107.423 L 182.361 229.562 L 175.603 70.009 L 288.431 183.163 L 128.703 175.937 L 251.438 73.308 L 230.249 231.986 L 138.631 100.589 L 295.041 135.612 L 155.967 215.488 L 204.589 62.554 L 272.083 208.255 L 123.806 146.374 L 275.033 91.810 L 200.335 234.282 L 159.151 78.676 L 294.711 165.649 L 135.909 193.103 L 234.518 65.513 L 248.001 226.301 L 129.378 116.782 L 290.922 117.409 L 171.309 226.134 L 186.074 65.070 L 284.042 193.884 L 124.696 165.060 L 261.745 78.626 L 219.049 235.028 L 144.840 90.775 L 297.091 147.048 L 146.725 208.435 L 216.175 61.512 L 264.238 216.854 L 123.783 134.727 L 282.920 100.389 L 188.717 233.282 L 168.399 71.563 L 292.694 177.147 L 129.626 183.256 L 245.809 68.533 L 237.629 231.703 L 133.380 105.787 L 295.399 128.227 L 160.694 221.177 L 197.256 61.554 L 278.168 204.035 L 122.171 153.600 L 271.354 85.375 L 207.398 236.541 L 152.414 81.785 L 297.578 158.801 L 138.423 200.093 L 227.938 62.058 L 255.190 224.401 L 125.360 123.044 L 289.652 110.075 L 177.204 230.685 L 178.650 65.698 L 289.094 188.402 L 124.677 172.519 L 256.717 73.111 L 226.486 235.696 L 138.903 95.310 L 298.405 139.690 L 150.730 214.750 L 208.951 59.562 L 270.884 213.408 L 121.210 141.761 L 280.062 93.461 L 195.508 236.460 L 161.242 73.810 L 296.454 170.651 L 131.244 190.589 L 239.658 64.218 L 245.082 230.727 L 128.542 111.545 L 295.075 120.710 L 166.016 226.503 L 189.731 61.224 L 283.941 199.192 L 121.186 161.075 L 267.026 79.196 L 214.768 238.173 L 145.875 85.563 L 299.847 151.594 L 141.622 206.942 L 220.949 59.168 L 262.298 221.807 L 121.870 129.762 L 287.684 102.760 L 183.600 234.750 L 171.184 67.024 L 293.704 182.377 L 125.349 180.079 L 251.110 67.989 L 234.084 235.683 L 133.307 100.456 L 299.053 132.112 L 155.375 220.778 L 201.451 58.256 L 277.299 209.302 L 119.255 149.127 L 276.525 86.707 L 202.683 239.051 L 154.198 76.749 L 299.662 163.722 L 133.562 197.869 L 233.027 60.416 L 252.543 229.049 L 124.174 117.827 L 294.051 113.123 L 171.900 231.406 L 182.077 61.585 L 289.343 193.751 L 120.880 168.739 L 262.071 73.336 L 222.384 239.146 L 139.600 89.994 L 301.479 144.084 L 145.495 213.585 L 213.602 56.887 L 269.260 218.524 L 118.955 136.890 L 285.016 95.533 L 190.454 238.277 L 163.744 69.056 L 297.818 175.849 L 126.727 187.675 L 244.959 63.319 L 241.778 234.970 L 128.114 106.183 L 299.012 124.378 L 160.634 226.455 L 193.735 57.624 L 283.418 204.552 L 117.953 156.767 L 272.321 80.192 L 210.188 241.015 L 147.336 80.374 L 302.274 156.409 L 136.579 205.028 L 225.963 57.175 L 259.945 226.664 L 120.327 124.589 L 292.317 105.535 L 178.308 235.831 L 174.359 62.653 L 294.313 187.746 L 121.273 176.528 L 256.516 67.857 L 230.185 239.432 L 133.653 95.057 L 302.444 136.330 L 150.025 219.956 L 205.954 55.250 L 276.007 214.561 L 116.657 144.374 L 281.653 88.459 L 197.716 241.221 L 156.398 71.794 L 301.386 168.864 L 128.818 195.238 L 238.304 59.153 L 249.503 233.544 L 123.381 112.456 L 298.262 116.551 L 166.477 231.721 L 185.865 57.690 L 289.178 199.184 L 117.333 164.620 L 267.470 73.980 L 217.965 242.317 L 140.720 84.670 L 304.249 148.768 L 140.287 211.999 L 218.516 54.540 L 267.219 223.573 L 117.050 131.786 L 289.869 98.013 L 185.198 239.724 L 166.645 64.438 L 298.796 181.215 L 122.382 184.376 L 250.393 62.818 L 238.107 239.010 L 128.096 100.723 L 302.713 128.394 L 155.190 225.991 L 198.064 54.290 L 282.475 209.936 L 115.013 152.157 L 277.604 81.607 L 205.334 243.538 L 149.213 75.234 L 304.360 161.470 L 131.622 202.703 L 231.190 55.543 L 257.190 231.398 L 119.162 119.235 L 296.792 108.699 L 172.869 236.519 L 177.908 58.472 L 294.519 193.228 L 117.420 172.622 L 261.997 68.136 L 225.952 242.927 L 134.416 89.618 L 305.554 140.857 L 144.672 218.716 L 210.741 52.550 L 274.298 219.786 L 114.389 139.364 L 286.709 90.624 L 192.523 243.039 L 159.002 66.945 L 302.739 174.200 L 124.215 192.215 L 243.742 58.275 L 246.083 237.865 L 122.987 106.959 L 302.266 120.341 L 160.963 231.629 L 189.996 54.034 L 288.599 204.671 L 114.054 160.180 L 272.888 75.042 L 213.251 245.192 L 142.256 79.365 L 306.699 153.720 L 135.135 210.000 L 223.667 52.535 L 264.771 228.532 L 115.507 126.474 L 294.595 100.890 L 179.768 240.793 L 169.929 59.982 L 299.382 186.721 L 118.231 180.709 L 255.933 62.720 L 234.086 242.823 L 128.487 95.193 L 306.159 132.738 L 149.714 225.113 L 202.698 51.239 L 281.117 215.316 L 112.381 147.270 L 282.847 83.436 L 200.231 245.729 L 151.498 70.170 L 306.093 166.749 L 126.777 199.978 L 236.606 54.281 L 254.046 235.987 L 118.382 113.727 L 301.088 112.237 L 167.310 236.810 L 181.813 54.503 L 294.318 198.794 L 113.809 168.380 L 267.527 68.828 L 221.405 246.152 L 135.593 84.168 L 308.367 145.673 L 139.344 217.062 L 215.789 50.172 L 272.180 224.950 L 112.464 134.123 L 291.669 93.191 L 187.130 244.495 L 161.998 62.228 L 303.714 179.704 L 119.779 188.813 L 249.314 57.789 L 242.300 241.986 L 122.994 101.363 L 306.040 124.474 L 155.387 231.128 L 194.448 50.637 L 287.608 210.184 L 111.062 155.443 L 278.296 76.516 L 208.265 247.757 L 144.202 74.105 L 308.816 158.916 L 130.064 207.596 L 229.032 50.885 L 261.928 233.373 L 114.335 120.982 L 299.169 104.151 L 174.191 241.477 L 173.583 55.711 L 299.571 192.340 L 114.296 176.691 L 261.550 63.027 L 229.734 246.391 L 129.288 89.622 L 309.331 137.390 L 144.232 223.823 L 207.614 48.488 L 279.347 220.666 L 110.073 142.127 L 288.023 85.671 L 194.902 247.576 L 154.183 65.209 L 307.464 172.223 L 122.069 196.865 L 242.182 53.398 L 250.528 240.405 L 117.994 108.091 L 305.181 116.133 L 161.659 236.699 L 186.057 50.767 L 293.710 204.417 L 110.460 163.821 L 273.077 69.930 L 216.565 249.088 L 137.181 78.734 L 310.866 150.756 L 134.067 215.000 L 221.075 48.129 L 269.660 230.028 L 110.894 128.675 L 296.507 96.150 L 181.561 245.579 L 165.375 57.667 L 304.303 185.349 L 115.531 185.046 L 254.992 57.700 L 238.171 245.888 L 123.405 95.696 L 309.565 128.934 L 149.775 230.218 L 199.204 47.518 L 286.207 215.698 L 108.372 150.428 L 283.667 78.399 L 203.030 249.996 L 146.553 68.917 L 310.585 164.331 L 125.101 204.796 L 234.585 49.598 L 258.700 238.073 L 113.543 115.334 L 303.568 107.782 L 168.492 241.769 L 177.590 51.646 L 299.360 198.046 L 110.598 172.339 L 267.218 63.741 L 225.070 249.692 L 130.499 84.036 L 312.210 142.329 L 138.771 222.124 L 212.791 46.054 L 277.172 225.959 L 108.103 136.753 L 293.106 88.306 L 189.372 249.066 L 157.257 60.374 L 308.461 177.866 L 117.522 193.375 L 247.894 52.902 L 246.650 244.629 L 118.002 102.354 L 309.049 120.371 L 155.942 236.185 L 190.622 47.285 L 292.694 210.069 L 107.392 158.964 L 278.621 71.440 L 211.455 251.718 L 139.175 73.341 L 313.037 156.081 L 128.869 212.537 L 226.574 46.435 L 266.747 234.992 L 109.690 123.045 L 301.198 99.491 L 175.844 246.282 L 169.118 53.286 L 304.501 191.110 L 111.494 180.929 L 260.751 58.010 L 233.713 249.548 L 124.222 89.984 L 312.820 133.700 L 144.154 228.901 L 204.241 44.693 L 284.398 221.184 L 106.001 145.159 L 288.976 80.685 L 197.569 251.895 L 149.299 63.828 L 311.997 169.940 L 120.271 201.610 L 240.301 48.686 L 255.100 242.607 L 113.137 109.557 L 307.770 111.770 L 162.699 241.664 L 181.935 47.811 L 298.745 203.811 L 107.158 167.670 L 272.909 64.861 L 220.114 252.710 L 132.117 78.462 L 314.781 147.535 L 133.358 220.020 L 218.205 43.950 L 274.598 231.168 L 106.483 131.171 L 298.071 91.330 L 183.666 250.188 L 160.708 55.692 L 309.078 183.652 L 113.159 189.523 L 253.715 52.797 L 242.426 248.638 L 118.411 96.544 L 312.672 124.934 L 150.187 235.266 L 195.489 44.076 L 291.271 215.724 L 104.622 153.831 L 284.132 73.357 L 206.094 254.026 L 141.570 68.018 L 314.865 161.627 L 123.774 209.681 L 232.262 45.101 L 263.451 239.818 L 108.862 117.258 L 305.718 103.201 L 170.003 246.598 L 173.213 49.108 L 304.301 196.959 L 107.691 176.479 L 266.563 58.724 L 228.943 252.947 L 125.446 84.254 L 315.788 138.754 L 138.551 227.177 L 209.539 42.181 L 282.186 226.616 L 103.963 139.657 L 294.195 83.368 L 191.906 253.441 L 152.432 58.862 L 313.039 175.721 L 115.598 198.050 L 246.153 48.156 L 251.140 246.951 L 113.124 103.677 L 311.751 116.100 L 156.837 241.159 L 186.601 44.224 L 297.726 209.608 L 103.994 162.704 L 278.597 66.388 L 214.886 255.426 L 134.140 72.927 L 317.028 152.984 L 128.020 217.517 L 223.835 42.191 L 271.634 236.269 L 105.226 125.406 L 302.893 94.734 L 177.809 250.934 L 164.525 51.186 L 309.305 189.555 L 109.004 185.321 L 259.618 53.090 L 237.873 252.409 L 119.223 90.686 L 316.030 129.804 L 144.420 233.942 L 200.638 41.158 L 289.443 221.355 L 102.167 148.441 L 289.583 75.675 L 200.507 255.998 L 144.360 62.789 L 316.339 167.369 L 118.808 206.440 L 238.116 44.138 L 259.783 244.482 L 108.417 111.340 L 310.044 107.267 L 164.066 246.521 L 177.646 45.155 L 303.701 202.870 L 104.141 171.713 L 272.401 59.843 L 223.880 256.066 L 127.074 78.533 L 318.450 144.074 L 132.993 225.050 L 215.076 39.995 L 279.577 231.969 L 102.273 133.946 L 299.300 86.439 L 186.065 254.623 L 155.943 54.045 L 313.703 181.646 L 111.105 194.127 L 252.117 48.016 L 246.834 251.083 L 113.509 97.720 L 315.490 120.754 L 150.934 240.251 L 191.569 40.907 L 296.301 215.411 L 101.125 157.461 L 284.256 68.319 L 209.407 257.824 L 136.562 67.457 L 318.935 158.656 L 122.782 214.621 L 229.655 40.789 L 268.286 241.235 L 104.341 119.481 L 307.548 98.507 L 171.827 251.295 L 168.695 46.878 L 309.138 195.549 L 105.078 180.786 L 265.578 53.784 L 233.007 255.923 L 120.439 84.807 L 319.104 134.963 L 138.668 232.212 L 206.050 38.548 L 287.213 226.936 L 100.042 142.818 L 294.949 78.388 L 194.715 257.621 L 147.537 57.679 L 317.446 173.285 L 113.995 202.824 L 244.108 43.554 L 255.756 248.961 L 108.363 105.315 L 314.153 111.675 L 158.057 246.044 L 182.401 41.447 L 302.698 208.817 L 100.864 166.648 L 278.240 61.366 L 218.543 258.886 L 129.106 72.848 L 320.791 149.641 L 127.505 222.524 L 220.831 38.152 L 276.577 237.216 L 100.942 128.049 L 304.265 89.891 L 180.071 255.431 L 159.820 49.399 L 313.981 187.692 L 106.816 189.854 L 258.168 48.271 L 242.198 254.981 L 114.296 91.713 L 318.968 125.718 L 145.016 238.938 L 196.822 37.877 L 294.472 221.194 L 98.568 151.959 L 289.859 70.650 L 203.699 259.888 L 139.379 62.078 L 320.490 164.527 L 117.669 211.340 L 235.643 39.755 L 264.567 246.042 L 103.837 113.422 L 312.012 102.637 L 165.744 251.264 L 173.204 42.793 L 308.572 201.609 L 101.402 175.933 L 271.568 54.882 L 227.847 259.159 L 122.060 78.933 L 321.876 140.390 L 132.956 230.080 L 211.704 36.263 L 284.585 232.441 L 98.262 136.982 L 300.204 81.491 L 188.743 258.882 L 151.092 52.715 L 318.178 179.348 L 109.360 198.844 L 250.216 43.359 L 251.382 253.231 L 108.706 99.211 L 318.024 116.410 L 152.003 245.166 L 187.461 38.006 L 301.290 214.773 L 97.879 161.302 L 284.053 63.293 L 212.953 261.391 L 131.538 67.224 L 322.796 155.433 L 122.114 219.606 L 226.779 36.663 L 273.194 242.332 L 99.981 121.989 L 309.067 93.712 L 173.947 255.855 L 164.051 44.950 L 313.865 193.833 L 102.754 185.246 L 264.278 48.926 L 237.248 258.625 L 115.487 85.681 L 322.164 130.972 L 139.109 237.221 L 202.340 35.154 L 292.241 226.931 L 96.339 146.220 L 295.380 73.378 L 197.783 261.605 L 142.583 56.816 L 321.682 170.573 L 112.705 207.684 L 241.775 39.100 L 260.486 250.667 L 103.723 107.254 L 316.263 107.110 L 159.586 250.835 L 178.037 38.949 L 307.603 207.709 L 97.997 170.779 L 277.562 56.384 L 222.410 262.100 L 124.084 73.092 L 324.329 146.067 L 127.312 227.549 L 217.577 34.318 L 281.566 237.843 L 96.840 130.957 L 305.324 84.975 L 182.613 259.770 L 155.014 47.919 L 318.524 185.536 L 104.925 194.513 L 256.413 43.558 L 246.676 257.270 L 109.449 93.052 L 321.636 121.455 L 145.930 243.883 L 192.807 34.850 L 299.478 220.713 L 95.204 155.696 L 289.814 65.622 L 207.130 263.564 L 134.366 61.687 L 324.450 161.427 L 116.844 216.301 L 232.899 35.541 L 269.438 247.294 L 99.401 115.791 L 313.682 97.893 L 167.719 255.888 L 168.623 40.718 L 313.351 200.043 L 98.938 180.317 L 270.422 49.985 L 232.000 261.994 L 117.082 79.651 L 325.061 136.498 L 133.239 235.101 L 208.102 32.753 L 289.612 232.595 L 94.453 140.266 L 300.794 76.496 L 191.683 262.962 L 146.167 51.694 L 322.497 176.772 L 107.916 203.662 L 248.025 38.832 L 256.057 255.087 L 104.005 101.001 L 320.279 111.913 L 153.379 250.004 L 183.177 35.369 L 306.229 213.822 L 94.881 165.341 L 283.534 58.290 L 216.717 264.728 L 126.509 67.307 L 326.447 151.973 L 121.761 224.624 L 223.649 32.726 L 278.163 243.119 L 95.787 124.766 L 310.283 88.831 L 176.350 260.275 L 159.293 43.315 L 318.477 191.822 L 100.713 189.844 L 262.675 44.157 L 241.652 261.057 L 110.597 86.864 L 324.969 126.795 L 139.864 242.196 L 198.422 31.997 L 297.263 226.610 L 92.854 149.849 L 295.496 68.348 L 201.097 265.392 L 137.582 56.263 L 325.742 167.601 L 111.721 212.619 L 239.166 34.797 L 265.317 252.076 L 99.210 109.480 L 318.086 102.420 L 161.412 255.524 L 173.522 36.726 L 312.433 206.297 L 95.391 175.084 L 276.574 51.449 L 226.473 265.070 L 119.082 73.648 L 327.640 142.277 L 127.432 232.581 L 214.089 30.690 L 286.590 238.160 L 92.922 134.118 L 306.075 79.998 L 185.422 263.947 L 150.121 46.738 L 322.929 183.099 L 103.324 199.286 L 254.368 38.958 L 251.292 259.279 L 104.689 94.690 L 324.038 117.031 L 147.149 248.768 L 188.608 32.073 L 304.450 219.923 L 92.072 159.639 L 289.457 60.599 L 210.787 267.026 L 129.331 61.606 L 328.216 158.084 L 116.327 221.310 L 229.896 31.499 L 274.383 248.244 L 95.113 118.433 L 315.058 93.048 L 169.978 260.389 L 163.916 38.927 L 318.031 198.182 L 96.745 184.851 L 268.974 45.161 L 236.327 264.573 L 112.150 80.674 L 328.005 132.411 L 133.831 240.104 L 204.286 29.465 L 294.647 232.439 L 90.846 143.783 L 301.076 71.466 L 194.874 266.860 L 141.180 50.976 L 326.659 173.932 L 106.768 208.568 L 245.556 34.440 L 260.845 256.656 L 99.415 103.080 L 322.258 107.279 L 155.051 254.757 L 178.732 32.995 L 311.110 212.568 L 92.130 169.564 L 282.708 53.318 L 220.685 267.835 L 121.484 67.698 L 329.887 148.289 L 121.714 229.664 L 220.277 28.979" fill="none" stroke="#e5e7eb" stroke-width="1" vector-effect="non-scaling-stroke"/></svg>