<svg xmlns="http://www.w3.org/2000/svg" viewBox="12.117990894341254 12.005687227994724 395.8172290297787 272.9211040299832" width="395.8172290297787" height="272.9211040299832" shape-rendering="geometricPrecision"><rect x="12.117990894341254" y="12.005687227994724" width="395.8172290297787" height="272.9211040299832" fill="#0b0f14"/><path d="M 326.336 118.553 L 324.290 122.942 L 329.085 126.041 L 329.038 131.086 L 334.459 130.181 L 339.310 129.495 L 341.897 134.222 L 339.607 139.237 L 341.750 143.673 L 346.529 144.374 L 346.909 139.148 L 355.065 140.896 L 361.282 143.084 L 366.905 140.418 L 371.721 137.494 L 373.700 142.656 L 372.981 148.412 L 372.600 154.873 L 369.407 159.115 L 374.664 159.864 L 370.871 164.235 L 371.747 169.169 L 376.796 167.184 L 380.825 172.674 L 375.125 177.581 L 374.442 183.984 L 370.764 187.950 L 366.364 191.997 L 359.760 192.924 L 354.897 195.389 L 351.762 199.805 L 354.563 204.651 L 355.966 210.430 L 354.727 215.454 L 351.821 221.187 L 347.103 222.105 L 345.136 215.857 L 346.221 210.867 L 345.355 203.563 L 340.494 205.176 L 335.729 209.800 L 331.503 212.754 L 324.187 214.665 L 327.204 219.496 L 335.350 221.054 L 335.459 226.047 L 340.471 222.357 L 338.929 214.443 L 328.066 204.542 L 324.020 207.270 L 319.231 204.467 L 315.148 207.458 L 310.203 208.348 L 311.674 214.112 L 317.620 213.453 L 316.251 221.984 L 311.723 226.542 L 306.299 226.931 L 306.917 232.179 L 311.891 232.412 L 315.635 237.253 L 320.937 236.315 L 322.787 241.466 L 322.475 247.475 L 326.315 251.931 L 325.392 258.667 L 320.438 263.272 L 315.660 264.075 L 316.619 270.077 L 312.490 273.553 L 307.139 274.363 L 302.326 276.927 L 295.469 270.836 L 298.329 263.974 L 302.357 266.879 L 308.744 262.176 L 312.196 258.483 L 315.984 253.761 L 316.213 246.100 L 310.315 238.378 L 303.359 239.271 L 301.972 233.097 L 295.300 234.908 L 291.463 230.589 L 289.799 225.452 L 283.771 228.188 L 283.006 221.847 L 287.303 218.408 L 294.266 218.892 L 300.927 222.352 L 304.251 217.719 L 309.120 221.438 L 297.234 226.726 L 293.401 241.442 L 285.491 243.630 L 280.706 245.060 L 282.353 250.097 L 275.576 249.409 L 270.419 249.822 L 266.660 253.479 L 264.516 249.059 L 260.443 244.368 L 257.939 239.422 L 260.908 234.892 L 263.530 239.261 L 269.711 237.529 L 274.384 241.104 L 283.341 238.474 L 278.678 232.607 L 278.069 224.389 L 272.241 226.034 L 267.404 228.590 L 266.278 223.443 L 273.719 219.555 L 278.961 217.212 L 281.920 210.801 L 281.487 203.286 L 282.239 196.311 L 277.473 191.296 L 282.109 187.080 L 288.173 190.636 L 294.819 187.450 L 298.447 191.741 L 301.389 187.739 L 303.749 181.486 L 299.288 179.083 L 295.894 173.448 L 296.625 168.688 L 298.206 163.821 L 303.114 164.741 L 306.728 158.624 L 305.668 152.811 L 301.614 148.291 L 296.562 148.040 L 297.002 153.662 L 294.948 159.387 L 290.142 163.341 L 290.323 168.308 L 287.931 173.340 L 291.746 177.501 L 283.292 177.607 L 274.792 181.903 L 269.080 179.730 L 264.262 180.914 L 263.060 175.084 L 268.378 173.057 L 272.396 170.108 L 277.642 165.530 L 282.984 167.493 L 282.398 161.903 L 278.045 159.654 L 282.452 153.398 L 280.203 149.135 L 280.607 143.843 L 283.647 139.110 L 286.374 144.461 L 290.115 148.906 L 289.345 153.668 L 292.118 139.623 L 296.847 141.415 L 303.743 142.803 L 302.807 136.417 L 307.618 136.671 L 309.876 145.158 L 315.444 141.373 L 316.745 133.390 L 312.476 126.672 L 316.638 123.338 L 319.115 118.550 L 322.921 112.896 L 321.887 107.924 L 326.629 104.951 L 328.028 109.750 L 330.572 101.864 L 335.686 100.593 L 340.013 95.730 L 335.846 92.277 L 340.915 90.220 L 345.635 88.756 L 349.691 93.081 L 344.890 98.165 L 349.315 101.910 L 347.507 107.586 L 342.987 105.530 L 338.151 107.534 L 337.474 112.436 L 340.153 116.592 L 341.266 121.602 L 347.253 122.738 L 352.550 126.387 L 352.563 132.091 L 363.817 135.651 L 367.043 129.115 L 365.719 123.564 L 360.267 122.279 L 354.954 116.607 L 348.217 116.040 L 353.277 109.914 L 358.878 110.030 L 362.116 114.067 L 366.457 116.846 L 372.310 120.129 L 374.705 115.530 L 374.982 109.532 L 370.736 106.524 L 367.917 101.781 L 370.496 97.350 L 373.986 101.747 L 378.155 96.338 L 383.432 95.554 L 388.545 92.038 L 389.709 96.957 L 388.861 102.938 L 393.473 106.401 L 392.183 111.319 L 397.545 112.033 L 399.611 120.650 L 392.686 122.311 L 389.394 116.131 L 384.133 116.784 L 379.722 119.781 L 382.175 124.882 L 386.817 128.203 L 386.586 137.131 L 394.897 138.638 L 397.016 143.023 L 392.937 146.028 L 389.552 151.482 L 383.902 149.018 L 382.964 154.784 L 377.853 153.939 L 382.578 160.466 L 385.075 166.363 L 388.791 169.939 L 393.912 169.379 L 398.486 170.918 L 396.010 176.211 L 396.324 186.436 L 391.950 192.594 L 387.674 190.316 L 386.460 184.091 L 379.337 188.856 L 381.794 193.985 L 387.290 198.344 L 388.012 203.840 L 388.798 209.598 L 383.654 208.609 L 383.163 214.574 L 388.802 215.505 L 387.228 222.350 L 392.562 223.870 L 395.254 219.748 L 399.837 218.059 L 395.409 210.749 L 397.950 203.725 L 393.769 199.818 L 396.318 194.766 L 377.691 200.311 L 374.190 194.129 L 368.358 198.967 L 362.405 202.089 L 366.797 206.919 L 372.288 208.551 L 371.081 213.573 L 369.447 218.207 L 371.708 222.834 L 368.935 227.954 L 364.318 230.213 L 364.361 235.084 L 370.289 241.937 L 373.762 246.481 L 369.707 249.517 L 364.325 249.793 L 363.916 244.473 L 357.133 246.036 L 356.211 239.945 L 350.552 241.103 L 344.819 238.820 L 342.874 245.834 L 337.288 245.101 L 338.759 250.602 L 338.963 255.753 L 343.758 257.656 L 344.052 252.541 L 348.663 250.930 L 351.765 260.574 L 356.424 258.977 L 363.050 260.285 L 363.253 265.601 L 368.904 262.051 L 370.774 255.517 L 375.030 257.974 L 377.194 252.245 L 382.522 252.700 L 384.012 258.477 L 391.319 253.793 L 396.023 252.331 L 396.724 247.430 L 385.831 247.708 L 378.512 242.905 L 378.202 237.538 L 382.122 233.334 L 385.602 238.859 L 391.801 235.977 L 395.143 230.654 L 399.583 235.692 L 388.541 229.051 L 378.377 222.970 L 375.281 217.164 L 363.176 221.955 L 359.380 226.842 L 353.231 227.198 L 354.585 233.443 L 344.942 229.843 L 339.262 232.360 L 334.678 237.328 L 332.166 232.298 L 325.178 228.935 L 318.556 230.909 L 330.347 245.152 L 332.157 257.884 L 331.164 263.947 L 336.641 263.446 L 343.134 264.002 L 344.140 270.846 L 339.555 272.630 L 334.192 271.616 L 326.752 270.172 L 325.439 275.931 L 351.376 269.253 L 352.324 276.240 L 358.373 270.804 L 361.873 274.344 L 370.733 271.136 L 377.101 269.830 L 386.836 270.977 L 390.411 266.794 L 397.742 266.574 L 399.664 261.764 L 393.315 259.906 L 398.469 276.408 L 388.227 276.730 L 374.139 232.141 L 362.745 212.465 L 346.193 198.147 L 346.692 191.573 L 345.940 186.065 L 342.145 183.078 L 339.919 188.736 L 332.044 186.599 L 329.672 181.217 L 324.229 179.175 L 325.984 172.483 L 320.583 170.992 L 315.489 170.459 L 312.316 166.228 L 317.146 164.568 L 321.991 163.630 L 325.949 158.924 L 328.135 153.130 L 328.023 148.136 L 332.926 147.583 L 334.900 152.631 L 332.506 157.234 L 331.781 162.631 L 332.885 168.193 L 335.713 172.613 L 340.847 166.484 L 340.766 160.078 L 342.722 152.965 L 349.159 151.059 L 349.165 156.568 L 353.820 154.214 L 358.690 155.537 L 361.480 150.335 L 365.954 153.453 L 361.345 163.666 L 357.818 171.325 L 360.252 176.128 L 357.882 182.427 L 362.724 185.477 L 366.286 182.117 L 368.866 174.649 L 351.681 173.794 L 344.269 172.408 L 348.468 181.553 L 352.020 162.729 L 355.312 148.672 L 333.278 142.000 L 325.133 143.176 L 323.585 150.665 L 316.684 152.542 L 312.563 159.748 L 312.318 175.874 L 306.775 176.055 L 302.038 172.387 L 315.505 180.903 L 320.207 185.614 L 321.252 192.575 L 325.495 190.329 L 332.430 195.363 L 331.964 200.850 L 320.616 198.672 L 316.024 191.922 L 311.036 189.544 L 307.592 193.451 L 311.232 196.696 L 301.188 210.177 L 296.359 207.640 L 294.730 199.931 L 288.264 199.735 L 289.599 211.728 L 274.383 208.812 L 267.847 205.632 L 266.062 199.604 L 265.013 194.559 L 260.861 198.464 L 254.242 195.462 L 253.921 202.313 L 253.941 207.705 L 248.878 206.894 L 246.767 211.824 L 241.362 210.895 L 236.925 208.645 L 237.304 203.584 L 242.226 204.882 L 247.426 199.100 L 241.948 195.617 L 235.373 197.576 L 233.413 192.630 L 227.848 189.280 L 226.227 181.259 L 218.311 182.346 L 212.870 177.753 L 207.752 178.778 L 201.239 178.491 L 202.880 172.395 L 204.576 167.391 L 208.650 164.734 L 213.380 163.063 L 210.254 159.390 L 206.435 156.353 L 198.811 155.251 L 195.928 151.248 L 195.723 146.398 L 190.860 142.538 L 185.655 138.312 L 182.295 134.699 L 175.483 135.766 L 172.700 140.026 L 168.876 144.073 L 173.763 145.602 L 172.283 151.745 L 178.472 152.790 L 175.836 157.690 L 182.908 157.228 L 190.221 160.687 L 191.050 167.109 L 185.478 169.568 L 182.147 165.728 L 178.341 171.159 L 175.949 179.541 L 173.446 184.027 L 168.566 183.461 L 168.091 190.147 L 170.167 195.300 L 175.052 190.777 L 179.958 190.892 L 179.310 185.852 L 184.617 187.982 L 189.834 189.777 L 188.334 194.808 L 193.460 197.638 L 186.890 200.658 L 181.893 207.574 L 179.721 212.475 L 180.308 217.764 L 187.202 214.630 L 194.048 219.808 L 196.791 215.529 L 202.955 219.282 L 206.280 222.833 L 209.447 226.863 L 214.828 224.529 L 221.523 226.274 L 228.200 224.183 L 223.764 219.323 L 228.888 216.625 L 227.699 211.807 L 223.683 207.288 L 219.090 205.831 L 214.235 209.641 L 218.894 212.098 L 213.519 216.828 L 205.464 214.140 L 202.220 209.299 L 207.742 205.745 L 214.577 198.658 L 214.259 193.779 L 213.039 188.667 L 205.406 186.353 L 198.577 184.625 L 197.509 189.589 L 200.621 193.641 L 205.621 196.060 L 194.964 206.614 L 187.870 225.249 L 185.703 231.355 L 180.477 235.315 L 177.502 240.829 L 171.936 241.058 L 166.402 241.697 L 164.565 246.969 L 169.895 249.937 L 173.607 253.361 L 179.998 253.355 L 185.953 252.550 L 186.310 247.325 L 185.253 241.254 L 189.760 237.135 L 194.202 243.311 L 200.662 244.785 L 204.374 240.465 L 200.500 236.816 L 205.536 234.387 L 210.372 235.726 L 215.632 239.719 L 219.675 243.635 L 217.594 248.840 L 216.967 254.015 L 210.927 256.123 L 212.201 260.831 L 219.550 261.071 L 226.618 262.632 L 229.022 258.246 L 236.292 254.269 L 241.201 252.467 L 238.893 247.606 L 234.744 243.891 L 231.589 247.545 L 225.657 244.858 L 223.834 250.669 L 211.955 247.944 L 201.860 253.799 L 197.017 256.119 L 199.526 261.810 L 204.815 259.251 L 205.981 266.938 L 210.483 272.700 L 216.804 274.717 L 216.330 267.762 L 223.077 267.528 L 231.831 268.732 L 236.816 265.545 L 240.390 269.215 L 238.353 275.176 L 245.457 273.226 L 249.587 276.777 L 256.517 271.235 L 258.458 275.654 L 264.160 272.998 L 270.087 275.505 L 275.171 270.023 L 279.427 272.733 L 282.950 268.756 L 288.050 269.081 L 285.123 274.096 L 289.821 276.388 L 286.591 263.390 L 291.549 262.184 L 289.377 256.220 L 289.232 249.443 L 295.525 251.522 L 299.877 253.966 L 300.711 258.752 L 308.072 252.597 L 303.607 248.169 L 276.706 254.734 L 271.329 262.233 L 268.638 266.523 L 263.145 266.584 L 257.166 263.266 L 254.887 258.501 L 258.085 254.655 L 255.460 249.014 L 250.569 253.051 L 247.457 249.333 L 247.475 243.036 L 241.616 240.457 L 236.922 235.382 L 242.953 232.718 L 242.729 227.197 L 241.673 221.516 L 240.696 216.346 L 234.835 217.292 L 229.879 204.635 L 224.694 202.252 L 221.779 197.564 L 234.359 183.258 L 238.848 177.920 L 234.529 173.957 L 243.397 171.779 L 241.357 166.893 L 245.138 163.285 L 250.334 165.635 L 252.588 159.665 L 256.917 154.192 L 262.264 158.724 L 269.027 161.699 L 263.610 166.931 L 258.135 165.710 L 257.410 172.491 L 258.004 179.701 L 256.295 187.916 L 249.020 184.037 L 247.406 190.173 L 241.559 183.607 L 246.568 177.311 L 250.147 172.667 L 239.728 160.256 L 233.339 158.623 L 235.745 153.727 L 231.103 152.311 L 234.586 148.085 L 229.951 145.449 L 225.147 140.861 L 219.943 140.690 L 215.630 133.527 L 220.484 126.942 L 216.981 122.452 L 221.122 118.182 L 226.269 117.647 L 231.321 117.800 L 236.384 120.741 L 242.469 116.210 L 240.931 110.225 L 236.164 107.921 L 233.237 104.027 L 238.422 100.285 L 242.536 95.823 L 237.325 94.092 L 232.482 93.229 L 225.133 95.657 L 221.352 98.780 L 217.308 95.635 L 221.405 92.098 L 223.422 87.097 L 226.791 81.780 L 229.062 75.061 L 233.962 76.427 L 240.375 77.408 L 238.729 82.778 L 233.938 85.078 L 242.566 87.887 L 248.270 90.206 L 253.611 87.800 L 259.570 86.761 L 258.254 91.970 L 265.439 91.121 L 264.818 82.893 L 264.164 75.452 L 256.604 73.303 L 254.515 78.657 L 248.237 80.147 L 246.773 71.023 L 245.544 65.578 L 240.141 64.087 L 237.300 68.674 L 232.902 66.488 L 227.133 62.779 L 225.268 68.066 L 220.117 65.295 L 221.680 59.262 L 216.821 58.876 L 209.968 59.625 L 209.955 54.032 L 205.470 48.119 L 209.756 45.125 L 213.868 47.678 L 213.268 39.781 L 208.487 40.230 L 203.658 43.166 L 199.242 49.519 L 194.354 48.459 L 195.330 41.695 L 188.632 43.197 L 185.481 50.138 L 180.623 46.169 L 175.708 44.866 L 173.476 50.303 L 174.481 55.643 L 170.100 58.221 L 166.886 61.915 L 159.987 61.738 L 152.120 59.275 L 146.381 58.964 L 148.323 64.965 L 142.722 68.298 L 139.515 63.714 L 133.415 61.691 L 131.703 66.941 L 132.826 71.888 L 130.869 78.515 L 134.573 81.859 L 137.147 86.479 L 131.088 88.324 L 126.182 87.886 L 122.017 93.734 L 118.418 88.851 L 110.812 88.277 L 106.876 85.489 L 100.931 86.518 L 103.769 91.519 L 104.421 96.956 L 110.682 96.983 L 114.363 102.203 L 112.719 107.122 L 109.163 103.807 L 105.570 108.334 L 105.050 113.690 L 99.850 112.031 L 101.684 119.513 L 105.971 122.302 L 111.008 124.564 L 116.642 121.260 L 122.251 124.714 L 122.286 130.094 L 119.428 134.759 L 116.465 129.814 L 112.926 133.872 L 107.472 131.203 L 101.241 133.188 L 99.574 128.530 L 94.681 125.605 L 90.156 127.780 L 92.452 133.620 L 87.547 137.383 L 85.272 132.911 L 82.354 127.995 L 83.885 122.925 L 88.205 118.772 L 90.684 114.134 L 94.486 118.399 L 86.246 109.494 L 78.167 108.665 L 79.345 115.195 L 72.003 121.761 L 66.938 121.648 L 61.486 123.690 L 60.998 129.006 L 66.185 128.218 L 67.888 133.392 L 65.255 138.767 L 60.410 137.760 L 57.104 133.061 L 51.907 133.443 L 45.671 129.265 L 39.076 128.730 L 38.260 122.901 L 43.322 118.786 L 48.936 115.060 L 48.543 109.736 L 43.613 109.876 L 38.195 111.743 L 32.284 111.879 L 32.775 106.339 L 26.967 107.308 L 23.043 103.731 L 26.185 98.309 L 22.265 95.082 L 20.232 88.430 L 27.277 90.008 L 33.106 90.293 L 34.479 95.444 L 35.806 100.347 L 40.767 98.314 L 39.119 105.452 L 47.577 102.905 L 54.792 98.946 L 58.693 102.214 L 62.300 105.927 L 60.856 111.598 L 64.683 115.711 L 69.351 111.149 L 71.893 105.477 L 70.341 98.038 L 64.859 99.491 L 63.170 92.824 L 61.592 85.331 L 63.571 80.239 L 57.317 78.301 L 55.538 70.556 L 57.774 65.795 L 61.944 69.564 L 68.672 69.243 L 70.545 75.867 L 79.643 72.982 L 80.200 79.468 L 75.518 84.746 L 79.909 89.088 L 77.102 93.199 L 76.396 98.407 L 83.460 101.367 L 84.631 93.888 L 89.573 95.564 L 92.598 100.643 L 94.382 105.529 L 98.171 100.770 L 97.104 91.662 L 95.327 84.067 L 99.101 78.864 L 99.434 73.550 L 94.841 75.139 L 88.597 80.225 L 86.390 75.261 L 85.545 68.326 L 80.182 63.335 L 75.341 65.155 L 77.167 58.485 L 70.881 57.828 L 74.852 52.399 L 79.693 50.876 L 85.093 54.816 L 85.667 46.846 L 92.748 50.228 L 97.514 52.935 L 101.441 61.883 L 104.373 68.084 L 109.335 70.620 L 110.864 76.288 L 105.103 79.444 L 115.317 70.084 L 110.233 64.121 L 110.502 58.447 L 116.500 56.192 L 119.249 62.060 L 124.121 58.000 L 128.949 57.878 L 131.077 51.024 L 135.194 47.503 L 131.465 41.636 L 131.423 35.209 L 136.288 34.440 L 141.675 35.750 L 142.763 30.988 L 137.853 28.105 L 132.918 26.238 L 132.468 21.322 L 137.408 22.590 L 142.989 24.131 L 149.446 27.733 L 149.139 20.010 L 158.803 26.284 L 161.637 22.108 L 166.737 25.237 L 169.563 29.777 L 176.910 26.010 L 182.092 26.214 L 184.707 31.177 L 187.853 27.228 L 192.096 22.893 L 198.236 20.145 L 202.100 23.492 L 207.030 24.445 L 209.286 29.094 L 214.624 30.336 L 219.863 29.471 L 221.092 23.795 L 213.179 24.978 L 203.666 28.769 L 201.686 34.677 L 196.593 30.058 L 189.188 35.326 L 182.518 37.616 L 171.942 39.387 L 166.037 43.141 L 156.853 43.090 L 154.797 38.385 L 159.413 36.362 L 149.435 36.834 L 150.826 46.378 L 154.850 52.892 L 161.667 51.334 L 173.866 61.636 L 180.295 63.349 L 183.533 67.264 L 189.199 70.572 L 192.673 74.216 L 193.809 66.958 L 197.365 63.645 L 202.379 60.702 L 199.029 56.975 L 192.607 59.272 L 188.354 56.403 L 187.735 61.427 L 180.760 56.692 L 176.447 70.747 L 170.813 70.045 L 163.022 70.871 L 159.016 74.268 L 153.616 69.607 L 150.479 76.660 L 152.250 81.822 L 157.647 83.737 L 158.772 88.893 L 162.971 86.047 L 168.676 83.737 L 165.242 78.910 L 174.893 78.894 L 179.248 76.692 L 184.244 73.972 L 190.712 81.901 L 184.398 85.677 L 176.629 87.392 L 177.950 94.580 L 182.870 94.804 L 186.719 98.069 L 182.883 101.172 L 176.764 101.945 L 171.220 101.758 L 168.622 106.153 L 164.594 111.075 L 160.989 114.708 L 155.145 114.128 L 151.294 110.604 L 148.808 105.463 L 145.661 109.368 L 148.626 115.936 L 152.893 119.645 L 148.230 123.895 L 141.668 122.390 L 140.673 116.801 L 134.646 120.868 L 133.179 127.125 L 127.993 129.512 L 129.014 135.267 L 133.964 139.057 L 131.483 145.089 L 125.976 143.379 L 122.914 147.277 L 123.612 152.736 L 119.051 157.010 L 113.611 154.817 L 111.903 149.136 L 114.851 144.544 L 108.232 139.414 L 104.823 145.039 L 100.971 141.266 L 93.618 143.670 L 87.998 147.718 L 82.649 148.487 L 83.687 143.217 L 77.454 139.308 L 74.211 132.466 L 75.746 125.243 L 69.897 142.154 L 66.121 145.308 L 59.792 148.695 L 57.020 143.047 L 51.309 143.149 L 44.734 143.825 L 44.296 150.534 L 47.239 155.068 L 49.616 159.528 L 55.280 161.465 L 49.942 166.145 L 44.178 170.821 L 40.040 175.963 L 37.562 170.970 L 38.192 164.892 L 29.956 163.086 L 29.323 157.423 L 32.874 150.973 L 37.540 144.402 L 39.576 139.233 L 42.970 135.320 L 32.862 127.504 L 26.560 129.728 L 20.567 127.161 L 21.643 121.710 L 26.826 121.545 L 32.220 119.492 L 26.626 115.377 L 30.078 136.886 L 25.033 137.703 L 20.574 141.475 L 21.986 146.712 L 21.520 152.199 L 21.206 163.446 L 22.236 170.038 L 28.763 171.779 L 25.029 177.153 L 24.826 184.917 L 23.169 190.504 L 29.522 189.228 L 34.111 190.646 L 39.685 191.751 L 45.291 193.850 L 49.113 190.130 L 50.996 181.810 L 46.157 180.333 L 39.380 184.189 L 33.348 184.819 L 33.536 178.171 L 28.505 194.332 L 34.358 196.561 L 31.445 200.605 L 33.192 206.302 L 27.703 206.975 L 23.433 214.422 L 29.107 217.737 L 25.356 221.732 L 21.320 227.464 L 20.156 234.125 L 26.155 233.236 L 33.283 230.378 L 32.009 224.681 L 38.728 225.735 L 44.784 227.490 L 50.820 228.853 L 51.336 223.535 L 50.536 217.640 L 54.281 213.785 L 61.257 216.702 L 62.389 212.036 L 68.290 211.517 L 71.166 216.319 L 70.809 221.353 L 65.958 219.270 L 63.218 225.571 L 66.082 230.037 L 71.304 228.397 L 70.280 235.129 L 75.257 237.813 L 70.191 240.877 L 74.763 245.761 L 80.696 243.745 L 81.040 249.355 L 76.177 253.608 L 81.860 257.133 L 87.441 254.032 L 92.548 258.591 L 88.280 260.833 L 84.194 264.385 L 86.671 268.989 L 85.739 275.574 L 91.585 275.509 L 100.628 270.774 L 94.898 265.719 L 100.778 263.114 L 98.524 258.717 L 103.185 257.570 L 104.598 252.416 L 100.372 249.116 L 97.681 243.412 L 93.509 247.950 L 88.606 243.315 L 92.229 238.438 L 88.580 235.182 L 80.956 235.844 L 81.562 230.791 L 83.796 222.395 L 88.490 223.630 L 92.305 220.495 L 93.444 225.446 L 98.802 217.529 L 104.328 220.328 L 104.158 228.073 L 102.446 232.709 L 97.015 236.716 L 105.105 243.649 L 111.286 246.284 L 116.940 251.869 L 118.429 257.916 L 112.017 256.418 L 109.164 263.550 L 114.220 266.896 L 114.410 272.826 L 109.576 274.031 L 119.550 271.728 L 121.046 266.292 L 125.488 261.473 L 128.212 256.177 L 125.089 252.146 L 129.084 246.029 L 131.690 240.797 L 136.675 241.824 L 141.977 244.144 L 146.841 243.524 L 152.222 250.333 L 153.784 254.938 L 149.266 258.289 L 152.710 261.760 L 157.788 259.179 L 160.316 266.568 L 166.393 265.058 L 171.806 265.680 L 177.840 265.442 L 184.194 268.213 L 186.055 263.577 L 191.468 259.661 L 194.829 266.139 L 198.706 269.627 L 193.878 273.082 L 185.621 274.892 L 180.706 275.649 L 170.012 272.453 L 165.929 276.652 L 156.786 273.711 L 150.866 274.961 L 145.532 272.789 L 140.568 274.673 L 140.748 269.607 L 135.190 273.413 L 132.122 265.873 L 137.905 263.094 L 135.013 258.714 L 133.639 253.154 L 140.537 252.613 L 142.780 259.326 L 146.500 264.361 L 156.175 247.010 L 159.753 242.710 L 160.140 237.322 L 160.595 231.730 L 155.357 231.676 L 152.896 235.821 L 147.186 228.797 L 141.157 227.902 L 137.193 221.097 L 132.417 222.733 L 132.796 228.895 L 135.269 233.613 L 124.339 237.041 L 119.248 244.304 L 114.976 238.358 L 112.834 231.686 L 117.665 230.589 L 119.384 225.173 L 120.580 218.939 L 113.900 220.495 L 114.086 214.263 L 110.731 209.669 L 115.843 207.806 L 112.451 200.841 L 117.046 199.109 L 114.581 193.664 L 112.596 188.252 L 117.715 188.520 L 123.179 190.724 L 127.159 184.908 L 132.049 183.908 L 137.083 182.167 L 137.292 188.407 L 140.240 193.821 L 144.347 185.609 L 148.615 180.943 L 153.148 183.004 L 155.306 187.410 L 150.187 191.043 L 156.029 198.289 L 149.460 201.971 L 153.424 207.708 L 158.286 207.299 L 156.081 217.072 L 151.920 220.878 L 156.284 224.494 L 160.751 222.133 L 164.250 216.570 L 171.427 216.998 L 172.543 210.565 L 174.644 205.604 L 167.533 203.083 L 176.214 198.142 L 162.675 188.281 L 160.910 181.555 L 156.784 176.771 L 159.010 171.912 L 153.807 169.013 L 149.177 166.257 L 147.708 159.679 L 142.827 163.311 L 136.687 164.863 L 130.130 161.178 L 135.629 155.751 L 134.581 151.020 L 139.448 152.686 L 146.982 151.128 L 152.084 151.508 L 154.522 146.228 L 160.045 141.443 L 163.082 145.297 L 166.853 138.296 L 168.691 133.592 L 166.453 126.076 L 161.424 125.546 L 156.883 133.988 L 154.568 138.500 L 151.735 130.743 L 144.499 134.581 L 146.018 139.174 L 147.386 144.343 L 141.892 144.701 L 139.860 130.580 L 128.160 117.609 L 133.019 114.422 L 128.070 111.262 L 123.722 113.683 L 123.587 106.580 L 117.755 107.290 L 116.572 112.493 L 110.792 115.924 L 132.574 107.465 L 138.144 105.959 L 130.956 100.778 L 129.116 95.576 L 138.101 93.534 L 143.900 93.329 L 148.870 93.263 L 147.237 98.003 L 153.398 98.326 L 153.924 93.351 L 153.428 87.691 L 144.506 85.469 L 144.903 79.837 L 145.148 74.270 L 139.636 74.985 L 125.337 69.941 L 121.829 75.823 L 120.852 80.795 L 123.776 52.878 L 117.127 49.170 L 120.690 43.802 L 125.631 44.693 L 121.901 35.386 L 126.593 28.185 L 124.316 22.389 L 118.197 25.259 L 113.880 21.180 L 111.799 27.073 L 106.827 23.387 L 101.677 24.925 L 101.087 32.067 L 101.551 37.717 L 101.589 43.802 L 107.523 41.403 L 107.810 36.489 L 112.194 34.525 L 109.028 50.698 L 94.750 43.315 L 89.022 39.501 L 83.945 38.110 L 78.431 42.708 L 71.159 47.793 L 66.115 49.263 L 61.304 48.473 L 54.837 52.766 L 58.706 56.465 L 65.115 61.606 L 50.274 60.677 L 45.256 58.382 L 38.321 58.741 L 30.770 58.178 L 24.769 56.725 L 23.411 62.835 L 20.843 69.053 L 26.227 69.907 L 25.713 75.845 L 28.667 80.146 L 33.400 78.057 L 34.462 83.293 L 38.517 87.779 L 45.026 91.351 L 49.828 90.694 L 50.214 85.677 L 46.399 82.344 L 41.408 79.253 L 42.932 73.305 L 48.961 71.803 L 49.379 76.841 L 55.267 87.377 L 55.346 92.792 L 69.226 87.553 L 85.231 85.117 L 56.695 107.704 L 54.854 115.671 L 52.157 120.976 L 54.339 126.208 L 50.786 150.215 L 41.034 155.259 L 63.740 153.689 L 69.320 158.633 L 74.824 153.521 L 76.051 147.651 L 82.175 156.470 L 82.547 162.690 L 87.848 165.391 L 92.123 171.298 L 88.216 174.192 L 84.513 179.445 L 78.342 180.610 L 79.104 187.134 L 82.877 192.339 L 85.950 198.216 L 89.831 193.172 L 90.751 187.409 L 97.179 185.662 L 96.477 191.114 L 94.956 196.674 L 100.555 198.790 L 105.478 202.583 L 101.465 207.261 L 96.357 206.913 L 93.283 202.948 L 85.949 206.802 L 80.471 209.037 L 82.312 214.990 L 79.635 219.661 L 73.929 210.163 L 76.532 201.977 L 76.839 195.134 L 72.103 193.987 L 65.137 194.304 L 58.866 192.723 L 57.479 187.865 L 58.464 183.082 L 63.329 184.290 L 65.811 177.402 L 71.593 180.264 L 74.474 172.392 L 79.713 171.721 L 75.592 163.087 L 63.183 163.020 L 61.256 171.806 L 69.031 200.504 L 64.161 201.435 L 59.319 202.091 L 53.101 201.150 L 49.719 206.742 L 44.500 211.075 L 42.193 204.959 L 38.524 200.838 L 36.480 213.893 L 43.826 220.087 L 57.209 222.012 L 60.345 231.339 L 61.525 237.813 L 64.025 244.020 L 55.055 243.897 L 56.451 250.162 L 56.692 256.073 L 61.179 258.705 L 64.772 262.058 L 63.895 267.556 L 57.330 267.454 L 49.791 271.483 L 45.766 274.209 L 39.766 275.503 L 42.420 268.078 L 47.629 264.688 L 51.205 260.104 L 49.342 254.490 L 44.422 251.355 L 47.149 246.453 L 48.419 241.583 L 51.963 237.894 L 45.659 235.329 L 40.649 241.025 L 38.160 236.896 L 32.919 241.505 L 37.988 247.065 L 38.209 252.926 L 33.126 250.646 L 29.813 254.605 L 28.506 261.007 L 35.524 257.821 L 41.830 261.206 L 34.630 265.820 L 29.968 269.866 L 29.980 276.710 L 23.330 267.668 L 20.727 260.339 L 22.887 254.441 L 24.490 245.138 L 67.124 253.180 L 68.728 258.136 L 70.190 263.461 L 74.715 261.476 L 77.428 266.847 L 72.327 271.346 L 67.721 273.288 L 79.095 274.007 L 54.398 276.592 L 90.628 213.912 L 104.959 211.190 L 107.406 193.560 L 105.306 189.088 L 112.392 181.839 L 111.199 176.271 L 112.091 170.859 L 119.118 171.875 L 124.784 168.854 L 120.880 162.685 L 113.862 160.761 L 108.819 159.380 L 103.013 159.647 L 104.958 154.756 L 95.331 154.390 L 94.869 160.963 L 88.356 154.530 L 97.027 170.475 L 104.007 169.908 L 103.481 164.963 L 101.014 176.799 L 93.484 180.556 L 121.022 183.068 L 123.804 176.789 L 131.990 174.014 L 139.335 172.995 L 145.086 175.759 L 150.523 174.566 L 155.941 161.367 L 161.605 160.712 L 162.316 166.494 L 166.637 168.725 L 169.688 173.972 L 165.245 176.404 L 171.620 164.925 L 158.855 152.763 L 180.649 142.862 L 190.242 151.130 L 201.976 148.392 L 201.293 142.354 L 199.058 135.717 L 192.269 134.924 L 191.584 128.231 L 189.584 122.681 L 192.881 118.962 L 199.834 118.998 L 204.967 120.246 L 203.056 114.640 L 203.871 109.668 L 203.981 103.562 L 209.745 104.953 L 210.504 109.936 L 208.597 115.049 L 213.830 117.058 L 216.638 112.459 L 222.737 107.516 L 224.669 112.658 L 226.148 101.357 L 214.857 103.820 L 209.566 97.276 L 202.071 94.911 L 203.522 86.852 L 208.621 87.863 L 213.043 89.750 L 213.396 81.441 L 218.464 81.281 L 219.368 71.972 L 213.196 66.282 L 208.256 68.548 L 203.246 67.831 L 199.731 71.894 L 206.478 73.450 L 210.852 75.617 L 207.218 80.070 L 202.214 81.327 L 196.183 88.180 L 193.243 93.542 L 196.462 101.557 L 194.057 109.671 L 188.986 112.252 L 183.123 114.122 L 185.157 107.143 L 171.412 111.923 L 172.883 121.073 L 175.133 126.164 L 183.826 127.349 L 202.887 126.889 L 211.393 126.053 L 207.937 136.445 L 210.583 140.944 L 208.514 148.667 L 214.180 148.604 L 218.023 156.565 L 223.690 158.056 L 224.285 150.656 L 231.281 138.873 L 231.258 133.836 L 225.692 132.091 L 229.771 125.888 L 239.652 129.680 L 244.863 130.916 L 250.891 134.680 L 255.937 137.304 L 259.800 132.280 L 260.515 126.823 L 259.087 121.183 L 254.006 119.484 L 248.947 123.763 L 248.328 111.321 L 247.472 103.006 L 255.699 101.430 L 257.198 106.439 L 261.160 110.023 L 260.126 114.952 L 265.125 115.349 L 273.275 115.748 L 271.273 120.771 L 272.906 127.677 L 268.181 132.407 L 264.295 135.815 L 268.571 140.233 L 268.292 146.926 L 263.310 146.628 L 257.001 145.887 L 251.320 148.323 L 250.485 141.232 L 244.864 139.558 L 237.347 136.991 L 236.423 142.881 L 243.652 147.533 L 245.974 153.868 L 267.190 152.858 L 272.856 153.812 L 280.052 134.215 L 284.157 130.256 L 280.616 125.463 L 279.399 117.790 L 275.873 110.861 L 271.414 108.144 L 265.556 105.785 L 262.492 100.957 L 271.856 99.098 L 274.477 93.813 L 279.589 91.587 L 285.194 90.287 L 288.501 94.891 L 283.317 96.689 L 286.821 104.215 L 284.032 111.041 L 278.559 105.950 L 288.093 118.300 L 293.700 116.748 L 301.055 113.399 L 297.580 107.612 L 294.500 101.331 L 294.648 95.914 L 295.356 90.991 L 301.556 84.562 L 301.904 79.443 L 294.708 78.931 L 288.953 76.884 L 287.747 72.114 L 288.545 66.677 L 291.017 60.445 L 293.890 54.535 L 291.004 50.331 L 295.330 47.372 L 297.016 41.845 L 290.762 43.438 L 286.805 39.694 L 282.166 35.956 L 278.381 31.495 L 276.281 27.143 L 279.590 21.427 L 284.589 23.379 L 292.172 22.725 L 298.513 23.661 L 303.247 21.354 L 299.822 29.321 L 303.405 33.648 L 309.015 30.188 L 313.711 25.156 L 316.233 29.288 L 315.356 34.131 L 316.775 39.030 L 313.005 42.753 L 310.196 38.171 L 305.719 39.917 L 307.513 46.746 L 312.580 48.435 L 309.069 53.838 L 302.171 54.278 L 303.959 64.840 L 304.698 72.251 L 312.362 68.830 L 316.733 66.118 L 320.598 62.656 L 325.029 57.636 L 330.186 58.311 L 334.983 61.848 L 337.937 66.405 L 342.435 71.055 L 345.261 76.271 L 350.576 73.811 L 355.988 70.537 L 361.099 66.427 L 358.628 61.329 L 356.965 56.810 L 356.154 51.037 L 356.530 46.128 L 359.220 42.102 L 353.511 39.278 L 347.423 34.186 L 342.519 35.495 L 342.302 42.292 L 335.971 40.556 L 335.616 33.022 L 332.319 28.737 L 328.256 25.311 L 326.076 29.671 L 326.411 35.199 L 323.596 40.733 L 327.500 46.041 L 322.965 49.247 L 328.700 52.327 L 336.348 54.837 L 337.594 49.136 L 345.883 53.597 L 348.383 48.469 L 346.498 61.009 L 353.015 61.987 L 348.404 67.698 L 350.796 81.303 L 357.400 83.186 L 363.355 81.093 L 359.766 77.330 L 368.427 72.080 L 369.114 64.795 L 365.118 60.133 L 366.711 52.004 L 368.324 45.018 L 373.949 44.096 L 371.363 39.963 L 377.027 37.371 L 379.423 32.343 L 385.241 34.940 L 383.996 41.124 L 380.697 47.744 L 379.485 52.602 L 372.634 56.450 L 375.590 64.780 L 380.746 61.455 L 382.307 66.895 L 378.767 71.902 L 383.830 74.117 L 380.416 77.930 L 382.834 84.521 L 387.608 86.677 L 393.178 80.598 L 388.494 77.777 L 391.410 69.082 L 398.498 71.263 L 398.191 76.140 L 397.696 83.769 L 395.739 93.661 L 397.137 101.776 L 383.222 104.729 L 384.528 110.753 L 375.658 124.708 L 377.851 135.908 L 380.062 143.130 L 394.794 133.521 L 399.044 129.583 L 397.644 151.909 L 395.746 156.637 L 392.535 161.469 L 397.728 163.629 L 363.060 104.667 L 357.454 99.469 L 360.995 90.001 L 370.932 90.705 L 376.094 86.405 L 371.693 79.043 L 389.476 58.715 L 397.577 62.886 L 399.935 56.729 L 397.280 51.107 L 398.852 41.332 L 392.633 41.363 L 391.959 33.092 L 392.777 27.960 L 399.648 27.504 L 396.388 21.997 L 389.940 20.654 L 383.856 24.517 L 376.364 25.992 L 368.901 26.961 L 363.635 27.570 L 366.445 31.768 L 361.165 33.634 L 354.344 31.291 L 349.352 26.616 L 350.197 20.187 L 356.634 20.424 L 362.552 21.392 L 339.454 27.218 L 332.684 23.115 L 322.724 23.466 L 294.260 31.700 L 288.070 31.996 L 277.604 41.198 L 272.845 41.976 L 274.653 48.961 L 270.695 55.382 L 279.308 57.163 L 285.897 55.638 L 284.919 49.214 L 280.766 65.871 L 276.374 69.539 L 274.041 64.642 L 268.008 68.398 L 263.543 65.372 L 257.792 65.191 L 251.959 68.193 L 251.071 60.732 L 254.716 56.201 L 260.155 56.691 L 260.972 50.773 L 255.848 48.959 L 250.929 49.152 L 245.868 47.356 L 249.902 43.650 L 250.845 37.126 L 255.154 33.418 L 258.704 36.761 L 265.073 39.825 L 266.486 32.445 L 262.005 30.306 L 262.058 23.761 L 267.466 22.233 L 272.532 20.940 L 271.406 33.794 L 258.929 44.901 L 252.735 28.003 L 246.285 28.569 L 245.026 23.334 L 239.919 24.484 L 234.563 27.367 L 229.054 24.969 L 228.183 20.006 L 226.123 32.326 L 224.142 38.275 L 227.317 42.788 L 229.937 47.715 L 223.851 48.255 L 223.594 53.218 L 235.000 52.119 L 235.006 43.857 L 240.557 45.438 L 238.711 37.889 L 233.024 36.848 L 244.263 33.891 L 254.744 21.104 L 243.569 56.742 L 271.942 79.577 L 274.865 84.897 L 281.220 84.655 L 288.433 84.776 L 280.972 77.355 L 296.712 68.775 L 312.768 77.883 L 318.047 78.309 L 323.054 80.722 L 325.068 87.253 L 330.915 85.102 L 330.344 79.368 L 335.135 77.324 L 331.805 71.655 L 325.015 70.392 L 317.892 71.755 L 313.330 60.267 L 318.372 54.625 L 309.481 83.189 L 308.870 88.769 L 305.660 93.614 L 304.138 100.870 L 309.985 100.551 L 313.894 96.428 L 316.456 92.246 L 318.484 98.676 L 322.441 102.000 L 322.576 95.395 L 327.590 95.106 L 316.073 84.941 L 314.287 105.016 L 313.714 110.980 L 307.386 107.005 L 307.121 120.189 L 300.335 123.705 L 303.485 127.618 L 297.720 132.391 L 290.283 131.975 L 290.068 124.351 L 333.663 122.170 L 333.560 116.386 L 387.650 48.000 L 270.122 186.316 L 271.955 197.850 L 260.121 206.531 L 262.516 214.808 L 268.640 214.240 L 257.835 220.924 L 254.924 216.970 L 249.438 217.124 L 249.120 224.134 L 255.060 230.014 L 248.799 235.928 L 230.709 231.828 L 228.881 236.364 L 223.554 238.407 L 222.573 233.629 L 216.891 232.623 L 203.344 227.118 L 194.544 227.237 L 178.124 225.549 L 169.081 226.798 L 167.148 233.750 L 173.182 234.781 L 176.790 247.231 L 165.682 256.541 L 127.014 272.654 L 142.852 219.800 L 144.345 214.917 L 136.415 211.090 L 137.108 204.989 L 142.843 204.734 L 132.337 199.470 L 125.032 198.608 L 123.425 205.028 L 128.052 207.142 L 124.012 211.720 L 128.370 216.893 L 130.507 190.349 L 183.209 179.145 L 186.998 175.203 L 188.116 181.661 L 194.676 179.224 L 196.185 173.470 L 198.171 166.953 L 198.788 161.802 L 211.157 172.069 L 216.046 172.409 L 223.953 171.256 L 221.731 166.022 L 228.173 166.083 L 166.056 98.798 L 160.569 96.633 L 156.332 102.599 L 169.028 90.183 L 144.667 51.572 L 139.000 54.729 L 172.053 20.633 L 177.441 20.514 L 185.799 20.093 L 94.598 29.606 L 89.320 32.971 L 94.502 36.246 L 88.983 21.699 L 82.841 22.461 L 79.749 30.403 L 70.004 26.207 L 71.887 20.948 L 65.173 21.707 L 58.126 27.367 L 56.001 20.957 L 49.699 23.539 L 50.966 30.134 L 48.027 36.697 L 54.390 41.443 L 52.585 46.889 L 48.399 50.487 L 46.458 45.123 L 38.119 50.770 L 31.854 52.096 L 30.544 45.707 L 26.169 42.483 L 20.701 46.331 L 20.149 34.602 L 27.072 32.156 L 31.935 34.489 L 34.072 41.550 L 39.787 33.370 L 43.447 30.027 L 41.217 23.196 L 33.195 25.986 L 26.975 20.489 L 22.975 24.800 L 57.946 36.218 L 62.624 33.096 L 65.289 38.474 L 69.725 33.953 L 43.600 66.201 L 34.244 65.788 L 34.249 72.639 L 20.118 200.841 L 228.365 274.740 L 238.006 259.645 L 244.351 263.622 L 249.330 267.039 L 247.151 256.928" fill="none" stroke="#EC008C" stroke-width="1" vector-effect="non-scaling-stroke"/></svg>