<svg xmlns="http://www.w3.org/2000/svg" viewBox="79.61521381393392 14.022037262256845 266.8554372478633 267.3471001462524" width="266.8554372478633" height="267.3471001462524" shape-rendering="geometricPrecision"><rect x="79.61521381393392" y="14.022037262256845" width="266.8554372478633" height="267.3471001462524" fill="#0b0f14"/><path d="M 217.998 148.671 L 338.471 151.246 M 217.975 149.132 L 333.176 158.268 M 217.847 150.055 L 331.516 172.585 M 217.776 150.379 L 333.964 178.458 M 217.462 151.383 L 327.636 193.946 M 217.247 151.889 L 323.108 201.394 M 216.875 152.591 L 312.117 209.259 M 216.484 153.186 L 307.224 218.756 M 216.284 153.451 L 310.664 227.800 M 215.481 154.327 L 291.337 234.977 M 215.026 154.724 L 283.132 239.060 M 214.557 155.075 L 278.187 246.886 M 213.945 155.459 L 269.052 252.662 M 213.616 155.636 L 262.638 252.365 M 212.556 156.081 L 248.145 261.651 M 212.137 156.209 L 244.197 271.838 M 211.123 156.421 L 226.943 267.972 M 210.844 156.455 L 222.531 266.598 M 210.089 156.500 L 211.346 268.945 M 209.264 156.466 L 198.468 273.369 M 208.827 156.413 L 191.981 270.033 M 207.699 156.162 L 176.457 260.195 M 207.376 156.057 L 170.694 261.709 M 206.799 155.831 L 159.678 263.740 M 206.229 155.555 L 155.001 251.392 M 205.617 155.192 L 146.419 245.568 M 204.666 154.463 L 127.703 240.504 M 204.380 154.193 L 124.128 235.481 M 203.783 153.535 L 119.121 222.101 M 203.543 153.223 L 112.279 219.987 M 202.951 152.283 L 97.390 208.941 M 202.821 152.031 L 96.754 204.205 M 202.399 150.995 L 96.109 185.889 M 202.303 150.681 L 102.890 178.858 M 202.155 150.066 L 93.842 171.681 M 202.027 149.161 L 87.615 158.642 M 202.004 148.246 L 96.657 144.897 M 202.032 147.789 L 94.710 138.215 M 202.137 147.024 L 91.845 126.318 M 202.294 146.350 L 94.815 116.365 M 202.489 145.745 L 97.418 107.206 M 202.834 144.943 L 97.329 92.571 M 202.953 144.713 L 100.324 89.552 M 203.578 143.730 L 108.802 73.341 M 203.967 143.246 L 116.723 67.269 M 204.338 142.848 L 125.191 63.845 M 204.707 142.501 L 125.585 52.827 M 205.420 141.941 L 143.668 53.493 M 206.207 141.456 L 155.768 47.786 M 206.407 141.352 L 152.842 34.801 M 207.310 140.966 L 171.362 40.265 M 207.927 140.773 L 181.269 41.387 M 208.380 140.666 L 186.439 34.578 M 209.341 140.527 L 199.825 25.410 M 210.141 140.501 L 212.223 22.022 M 210.707 140.531 L 220.510 29.964 M 211.595 140.661 L 233.520 32.874 M 212.337 140.849 L 246.823 27.968 M 212.995 141.082 L 254.967 37.112 M 213.631 141.371 L 262.373 45.672 M 213.940 141.538 L 268.458 45.202 M 214.583 141.943 L 282.786 44.359 M 215.291 142.500 L 287.652 60.446 M 215.822 143.013 L 295.776 67.666 M 215.995 143.203 L 304.606 64.905 M 216.438 143.751 L 308.832 75.605 M 216.854 144.375 L 312.245 86.963 M 217.228 145.072 L 317.706 97.420 M 217.440 145.559 L 324.329 103.307 M 217.716 146.389 L 330.843 115.433 M 217.885 147.147 L 325.472 128.686 M 217.949 147.594 L 324.616 135.441" fill="none" stroke="#FFF200" stroke-width="1" vector-effect="non-scaling-stroke"/></svg>