<svg xmlns="http://www.w3.org/2000/svg" viewBox="12 12 396 273" width="396" height="273" shape-rendering="geometricPrecision"><rect x="12" y="12" width="396" height="273" fill="#0b0f14"/><path d="M 52.571 20.000 L 52.958 22.197 L 53.178 24.393 L 53.222 26.590 L 53.028 28.786 L 52.389 30.983 M 262.542 20.000 L 262.840 20.091 L 265.089 21.178 L 267.337 22.195 M 269.586 23.241 L 271.834 24.386 L 271.852 24.393 L 274.083 25.529 L 276.192 26.590 L 276.331 26.651 L 278.580 28.048 L 280.092 28.786 L 280.828 29.134 L 283.077 30.725 L 283.583 30.983 L 285.325 31.963 L 287.302 33.179 L 287.574 33.333 L 289.822 35.095 L 290.273 35.376 L 292.071 36.614 L 293.437 37.573 L 294.320 38.195 L 296.281 39.769 L 296.568 39.989 L 298.790 41.966 M 20.000 37.815 L 22.249 38.294 L 24.497 38.687 L 26.746 38.944 L 28.994 39.074 L 31.243 39.096 L 33.491 39.017 L 35.740 38.829 L 37.988 38.522 L 40.237 38.107 M 62.722 43.439 L 62.450 44.162 L 61.572 46.359 L 60.963 48.556 L 60.600 50.752 M 301.065 44.105 L 301.128 44.162 L 303.314 46.223 L 303.459 46.359 L 305.562 48.376 L 305.748 48.556 L 307.811 50.572 L 307.991 50.752 L 310.059 52.814 L 310.190 52.949 L 312.308 55.096 L 312.354 55.145 L 314.520 57.342 L 314.556 57.384 L 316.556 59.538 L 316.805 59.847 L 318.398 61.735 L 319.053 62.608 L 320.047 63.932 L 321.302 65.643 L 321.630 66.128 L 323.451 68.325 L 323.550 68.488 L 324.937 70.521 L 325.799 71.996 L 326.195 72.718 L 327.826 74.915 L 328.047 75.363 L 328.976 77.111 L 330.291 79.308 M 60.473 52.291 L 60.428 52.949 L 60.161 55.145 L 59.753 57.342 L 59.215 59.538 L 58.622 61.735 M 391.006 54.701 L 390.848 55.145 L 389.861 57.342 L 389.031 59.538 M 388.757 61.412 L 388.698 61.735 L 388.414 63.932 L 388.421 66.128 L 388.757 68.108 L 388.791 68.325 L 390.182 70.521 L 391.006 71.266 L 392.720 72.718 L 393.254 72.978 L 395.503 74.520 L 396.441 74.915 L 397.751 75.339 L 400.000 76.474 M 58.225 63.810 L 58.205 63.932 L 57.614 66.128 L 56.637 68.325 M 376.350 77.111 L 376.707 79.308 L 376.773 81.504 L 376.691 83.701 L 376.538 85.897 L 376.369 88.094 L 376.223 90.291 L 376.128 92.487 L 376.104 94.684 L 376.165 96.880 L 376.327 99.077 L 376.604 101.274 L 376.985 103.470 L 377.393 105.667 L 377.515 106.531 M 331.501 81.504 L 332.544 83.614 L 332.580 83.701 L 333.765 85.897 L 334.793 88.088 M 208.876 83.595 L 211.124 83.591 L 213.373 83.640 L 215.471 83.701 L 215.621 83.705 L 217.870 83.837 L 220.118 84.121 L 222.367 84.585 L 224.615 85.196 L 226.864 85.781 L 227.488 85.897 L 229.112 86.214 L 231.361 87.127 L 233.609 88.032 L 233.806 88.094 L 235.858 88.831 L 238.107 90.084 L 238.632 90.291 L 240.355 91.033 L 242.604 92.432 L 242.713 92.487 L 244.852 93.757 L 246.425 94.684 L 247.101 95.073 L 249.349 96.859 L 249.379 96.880 L 251.598 98.729 L 252.029 99.077 L 253.846 100.677 L 254.488 101.274 L 256.095 102.862 L 256.665 103.470 L 258.343 105.314 L 258.634 105.667 L 260.589 107.863 M 195.385 85.365 L 197.633 84.743 L 199.882 84.228 L 202.130 83.891 M 21.329 88.094 L 21.967 90.291 L 22.109 92.487 L 21.758 94.684 L 20.341 96.880 M 85.009 88.094 L 83.849 90.291 L 82.965 92.487 L 80.710 97.324 M 335.798 90.291 L 336.909 92.487 L 337.041 92.916 L 337.639 94.684 L 338.769 96.880 L 339.290 98.620 L 339.416 99.077 L 340.339 101.274 L 341.281 103.470 L 341.538 104.587 L 341.790 105.667 L 342.637 107.863 L 343.453 110.060 L 343.787 111.796 L 343.870 112.256 L 344.450 114.453 L 345.137 116.650 L 345.708 118.846 L 346.033 121.043 L 346.036 121.068 L 346.303 123.239 L 346.700 125.436 L 347.110 127.632 L 347.475 129.829 L 347.772 132.026 L 347.994 134.222 L 348.150 136.419 L 348.248 138.615 L 348.284 140.353 L 348.293 140.812 L 348.343 143.009 L 348.392 145.205 L 348.430 147.402 L 348.451 149.598 L 348.451 151.795 L 348.430 153.991 L 348.387 156.188 L 348.330 158.385 M 37.988 94.647 L 37.956 94.684 L 36.462 96.880 L 35.772 99.077 M 35.740 99.599 L 35.626 101.274 L 35.667 103.470 L 35.740 104.646 L 35.788 105.667 L 36.090 107.863 L 36.586 110.060 L 37.154 112.256 L 37.642 114.453 L 37.948 116.650 L 37.988 117.202 L 38.110 118.846 L 38.331 121.043 L 38.507 123.239 L 38.585 125.436 L 38.543 127.632 L 38.381 129.829 L 38.138 132.026 M 118.935 103.323 L 118.876 103.470 L 117.707 105.667 L 116.700 107.863 L 115.841 110.060 L 114.768 112.256 M 78.361 105.667 L 77.632 107.863 L 76.777 110.060 L 76.219 112.256 L 73.964 118.742 M 262.382 110.060 L 262.840 110.800 L 263.754 112.256 L 265.089 114.346 L 265.147 114.453 L 266.613 116.650 L 267.337 118.247 L 267.589 118.846 L 268.893 121.043 L 269.586 122.942 L 269.682 123.239 L 270.641 125.436 L 271.564 127.632 L 271.834 128.957 L 272.011 129.829 L 272.680 132.026 L 273.358 134.222 L 273.850 136.419 L 274.083 138.556 M 114.438 113.535 L 114.205 114.453 L 113.323 116.650 L 112.497 118.846 M 112.189 120.472 L 112.087 121.043 L 111.503 123.239 L 110.832 125.436 L 110.283 127.632 L 109.958 129.829 M 73.580 123.239 L 73.062 125.436 L 72.555 127.632 L 72.143 129.829 L 71.860 132.026 M 308.705 123.239 L 309.369 125.436 L 309.861 127.632 L 310.059 129.473 M 109.941 130.016 L 109.735 132.026 L 109.397 134.222 L 109.049 136.419 L 108.741 138.615 L 108.495 140.812 L 108.314 143.009 L 108.196 145.205 L 108.132 147.402 L 108.119 149.598 L 108.155 151.795 L 108.245 153.991 L 108.396 156.188 L 108.617 158.385 L 108.910 160.581 L 109.261 162.778 L 109.629 164.974 L 109.922 167.171 L 109.941 167.339 L 110.191 169.368 L 110.732 171.564 L 111.426 173.761 L 112.053 175.957 L 112.189 176.699 L 112.466 178.154 L 113.287 180.350 L 114.174 182.547 L 114.438 183.611 L 114.719 184.744 L 115.741 186.940 L 116.660 189.137 L 116.686 189.217 L 117.518 191.333 L 118.742 193.530 L 118.935 194.038 L 119.640 195.726 L 121.029 197.923 L 121.183 198.263 L 122.142 200.120 L 123.432 202.242 L 123.471 202.316 L 125.059 204.513 L 125.680 205.561 L 126.377 206.709 L 127.929 208.808 L 127.994 208.906 L 129.882 211.103 L 130.178 211.512 L 131.588 213.299 L 132.426 214.362 L 133.346 215.496 L 134.675 217.030 L 135.250 217.692 L 136.923 219.477 L 137.312 219.889 L 139.172 221.753 L 139.514 222.085 L 141.420 223.888 L 141.865 224.282 L 143.669 225.871 L 144.420 226.479 L 145.917 227.679 L 147.245 228.675 L 148.166 229.337 L 150.225 230.872 L 150.414 230.996 L 152.663 232.792 L 153.147 233.068 L 154.911 234.134 L 156.859 235.265 L 157.160 235.419 L 159.408 236.957 L 160.525 237.462 L 161.657 237.968 L 163.905 239.388 L 164.608 239.658 L 166.154 240.283 L 168.402 241.567 L 169.274 241.855 L 170.651 242.322 L 172.899 243.490 L 174.752 244.051 L 175.148 244.160 L 177.396 245.045 L 179.645 245.941 L 181.163 246.248 L 181.893 246.390 L 184.142 247.057 L 186.391 247.774 L 188.639 248.293 L 190.020 248.444 L 190.888 248.539 L 193.136 248.899 L 195.385 249.301 L 197.633 249.663 L 199.882 249.951 L 202.130 250.159 L 204.379 250.296 L 206.627 250.376 L 208.876 250.415 L 211.124 250.419 L 213.373 250.389 L 215.621 250.316 L 217.870 250.185 L 220.118 249.978 L 222.367 249.678 L 224.615 249.288 L 226.864 248.853 L 229.112 248.483 L 229.451 248.444 M 147.827 129.829 L 147.099 132.026 L 146.446 134.222 L 146.026 136.419 M 310.385 132.026 L 310.735 134.222 L 311.071 136.419 L 311.356 138.615 L 311.577 140.812 L 311.733 143.009 L 311.831 145.205 L 311.876 147.402 L 311.871 149.598 L 311.815 151.795 L 311.703 153.991 L 311.529 156.188 L 311.287 158.385 L 310.980 160.581 L 310.630 162.778 L 310.284 164.974 M 389.871 132.026 L 390.683 134.222 L 390.889 136.419 L 390.729 138.615 L 390.102 140.812 L 389.110 143.009 M 37.988 133.662 L 37.941 134.222 L 37.527 136.419 L 36.801 138.615 L 35.994 140.812 M 71.603 136.419 L 71.470 138.615 L 71.362 140.812 L 71.296 143.009 L 71.276 145.205 L 71.303 147.402 L 71.369 149.598 L 71.463 151.795 L 71.569 153.991 L 71.670 156.188 L 71.716 157.714 M 184.142 136.861 L 183.548 138.615 L 182.626 140.812 L 182.070 143.009 M 145.840 138.615 L 145.596 140.812 L 145.366 143.009 L 145.204 145.205 L 145.130 147.402 L 145.152 149.598 L 145.267 151.795 L 145.464 153.991 L 145.709 156.188 L 145.916 158.385 M 237.194 140.812 L 237.806 143.009 L 238.073 145.205 L 238.107 146.275 M 274.306 140.812 L 274.562 143.009 L 274.775 145.205 L 274.911 147.402 L 274.950 149.598 L 274.887 151.795 L 274.722 153.991 L 274.471 156.188 L 274.193 158.385 M 35.740 141.891 L 35.465 143.009 L 34.427 145.205 L 33.510 147.402 M 181.893 145.004 L 181.876 145.205 L 181.760 147.402 L 181.751 149.598 L 181.861 151.795 L 181.893 152.206 L 182.034 153.991 L 182.562 156.188 L 183.479 158.385 L 184.142 160.278 L 184.237 160.581 L 185.561 162.778 L 186.391 164.241 L 186.817 164.974 L 188.639 167.137 L 188.667 167.171 L 190.888 169.368 M 31.243 152.714 L 30.816 153.991 L 29.840 156.188 L 29.261 158.385 L 29.139 160.581 L 29.410 162.778 L 30.317 164.974 L 31.243 166.975 L 31.305 167.171 L 32.678 169.368 L 33.491 170.811 L 33.832 171.564 L 35.449 173.761 L 35.740 174.312 L 36.574 175.957 L 37.950 178.154 L 37.988 178.240 L 39.029 180.350 L 40.164 182.547 L 40.237 182.784 L 40.903 184.744 L 41.885 186.940 L 42.460 189.137 L 42.485 189.317 L 42.808 191.333 L 43.264 193.530 L 43.634 195.726 L 43.877 197.923 L 44.004 200.120 L 44.035 202.316 L 43.985 204.513 L 43.867 206.709 L 43.699 208.906 L 43.509 211.103 L 43.340 213.299 L 43.250 215.496 L 43.323 217.692 L 43.711 219.889 L 44.547 222.085 L 44.734 222.475 L 45.686 224.282 L 46.982 225.723 L 47.614 226.479 L 49.231 227.848 L 50.143 228.675 L 51.479 229.650 L 52.968 230.872 L 53.728 231.397 L 55.722 233.068 L 55.976 233.252 L 58.206 235.265 M 238.086 151.795 L 237.849 153.991 L 237.272 156.188 L 236.368 158.385 M 384.084 156.188 L 383.354 158.385 L 382.637 160.581 L 382.166 162.778 M 71.849 160.581 L 72.020 162.778 L 72.246 164.974 L 72.526 167.171 L 72.857 169.368 L 73.224 171.564 L 73.597 173.761 L 73.909 175.957 L 73.964 176.505 M 274.083 159.548 L 273.988 160.581 L 273.540 162.778 L 272.836 164.974 L 272.087 167.171 M 348.284 160.380 L 348.280 160.581 L 348.192 162.778 L 348.020 164.974 L 347.749 167.171 L 347.368 169.368 L 346.896 171.564 L 346.405 173.761 L 346.044 175.957 L 345.687 178.154 L 345.039 180.350 L 344.310 182.547 L 343.794 184.744 M 146.685 162.778 L 147.379 164.974 L 148.033 167.171 L 148.166 167.824 M 381.971 164.974 L 381.766 167.171 L 381.598 169.368 L 381.525 171.564 L 381.560 173.761 L 381.692 175.957 L 381.882 178.154 L 382.012 180.045 M 271.834 168.324 L 271.610 169.368 L 270.672 171.564 L 269.689 173.761 M 310.051 167.171 L 309.738 169.368 L 309.194 171.564 L 308.525 173.761 L 307.932 175.957 M 193.136 171.342 L 193.492 171.564 L 195.385 172.766 L 197.357 173.761 L 197.633 173.879 L 199.882 175.030 L 202.130 175.856 L 202.805 175.957 L 204.379 176.216 L 206.627 176.631 L 208.876 176.852 L 211.124 176.829 L 213.373 176.566 L 215.621 176.093 L 216.700 175.957 M 74.630 180.350 L 75.304 182.547 L 75.972 184.744 L 76.213 186.026 M 382.299 182.547 L 382.760 184.744 L 383.327 186.940 L 383.848 189.137 L 384.184 191.333 L 384.260 192.785 M 343.787 184.778 L 343.294 186.940 L 342.460 189.137 L 341.699 191.333 M 341.538 192.099 L 341.224 193.530 L 340.328 195.726 L 339.454 197.923 M 384.216 197.923 L 383.501 200.120 L 382.026 202.316 L 379.763 204.926 M 400.000 199.776 L 399.681 200.120 L 398.269 202.316 L 397.909 204.513 L 398.050 206.709 L 398.688 208.906 L 399.727 211.103 L 400.000 211.758 M 235.858 208.058 L 233.612 208.906 L 231.361 209.674 L 229.112 210.608 L 226.943 211.103 L 224.615 211.631 L 222.367 212.267 L 220.118 212.788 L 217.870 213.123 L 215.621 213.287 L 215.212 213.299 M 332.544 213.683 L 331.683 215.496 L 330.317 217.692 L 328.992 219.889 M 31.240 235.265 L 30.832 237.462 L 29.957 239.658 L 29.049 241.855 M 361.526 235.265 L 361.022 237.462 L 360.517 239.658 L 360.081 241.855 L 359.735 244.051 M 64.682 241.855 L 64.970 242.259 L 66.256 244.051 L 67.219 245.638 L 67.551 246.248 L 69.098 248.444 L 69.467 249.365 L 69.988 250.641 L 71.239 252.838 L 71.716 254.412 L 71.900 255.034 L 72.846 257.231 L 73.719 259.427 L 73.964 260.662 L 74.174 261.624 L 74.951 263.821 L 75.791 266.017 L 76.213 267.856 L 76.305 268.214 L 77.256 270.410 L 78.460 272.607 M 373.018 260.549 L 370.788 261.624 L 368.475 263.821 L 367.287 266.017 L 366.745 268.214 L 366.631 270.410 L 366.739 272.607 L 367.031 274.803 L 367.492 277.000 M 80.467 274.803 L 80.710 274.994 L 82.959 276.707 L 83.655 277.000" fill="none" stroke="#2dd4bf" stroke-width="1" vector-effect="non-scaling-stroke"/><path d="M 168.603 200.328 L 170.726 200.075 M 170.726 200.075 L 172.849 200.427 M 172.849 200.427 L 174.972 201.334 M 174.972 201.334 L 175.086 201.412 M 175.086 201.412 L 177.095 203.107 M 177.095 203.107 L 177.505 203.571 M 177.505 203.571 L 178.911 205.731 M 178.911 205.731 L 179.218 206.475 M 179.218 206.475 L 179.683 207.891 M 179.683 207.891 L 179.972 210.050 M 179.972 210.050 L 179.845 212.210 M 179.845 212.210 L 179.306 214.370 M 164.091 203.571 L 163.045 205.731 M 163.045 205.731 L 162.560 207.891 M 162.560 207.891 L 162.607 210.050 M 162.607 210.050 L 163.148 212.210 M 163.148 212.210 L 164.139 214.370 M 164.139 214.370 L 164.358 214.702 M 168.603 198.078 L 170.726 197.921 M 170.726 197.921 L 172.849 198.262 M 172.849 198.262 L 174.972 199.063 M 174.972 199.063 L 175.294 199.252 M 175.294 199.252 L 177.095 200.489 M 177.095 200.489 L 178.109 201.412 M 178.109 201.412 L 179.218 202.665 M 179.218 202.665 L 179.867 203.571 M 179.867 203.571 L 181.010 205.731 M 181.010 205.731 L 181.341 206.715 M 181.341 206.715 L 181.675 207.891 M 181.675 207.891 L 181.935 210.050 M 181.935 210.050 L 181.854 212.210 M 181.854 212.210 L 181.442 214.370 M 161.677 203.571 L 160.865 205.731 M 160.865 205.731 L 160.499 207.891 M 160.499 207.891 L 160.565 210.050 M 160.565 210.050 L 161.040 212.210 M 161.040 212.210 L 161.896 214.370 M 161.896 214.370 L 162.235 214.969 M 181.341 214.669 L 180.559 216.529 M 180.559 216.529 L 179.242 218.689 M 179.242 218.689 L 177.095 220.651 M 177.095 220.651 L 176.730 220.849 M 76.168 112.187 L 76.225 112.235 M 168.603 196.159 L 170.726 196.065 M 170.726 196.065 L 172.849 196.401 M 172.849 196.401 L 174.848 197.092 M 174.848 197.092 L 174.972 197.141 M 174.972 197.141 L 177.095 198.400 M 177.095 198.400 L 178.194 199.252 M 178.194 199.252 L 179.218 200.186 M 179.218 200.186 L 180.316 201.412 M 180.316 201.412 L 181.341 202.835 M 181.341 202.835 L 181.793 203.571 M 181.793 203.571 L 182.768 205.731 M 182.768 205.731 L 183.391 207.891 M 183.391 207.891 L 183.464 208.466 M 183.464 208.466 L 183.639 210.050 M 183.639 210.050 L 183.583 212.210 M 159.691 203.571 L 159.018 205.731 M 159.018 205.731 L 158.722 207.891 M 158.722 207.891 L 158.794 210.050 M 158.794 210.050 L 159.223 212.210 M 159.223 212.210 L 159.990 214.370 M 159.990 214.370 L 160.112 214.611 M 183.464 212.977 L 183.210 214.370 M 183.210 214.370 L 182.502 216.529 M 182.502 216.529 L 181.478 218.689 M 179.218 221.492 L 177.123 223.008 M 177.123 223.008 L 174.972 223.775 M 174.972 223.775 L 172.849 223.982 M 172.849 223.982 L 170.726 223.709 M 235.020 88.530 L 235.099 89.109 M 235.099 89.109 L 235.690 91.269 M 235.690 91.269 L 236.536 93.332 M 77.165 109.065 L 77.210 109.091 M 168.603 194.430 L 170.726 194.383 M 170.726 194.383 L 172.849 194.720 M 172.849 194.720 L 173.495 194.933 M 173.495 194.933 L 174.972 195.465 M 174.972 195.465 L 177.095 196.592 M 177.095 196.592 L 177.193 196.659 M 182.417 201.836 L 183.464 203.533 M 183.464 203.533 L 183.484 203.571 M 183.484 203.571 L 184.348 205.731 M 184.348 205.731 L 184.898 207.891 M 184.898 207.891 L 185.142 210.050 M 185.142 210.050 L 185.094 212.210 M 185.094 212.210 L 184.769 214.370 M 184.769 214.370 L 184.179 216.529 M 164.358 195.858 L 162.235 197.315 M 162.235 197.315 L 160.112 199.568 M 160.112 199.568 L 157.989 202.953 M 157.940 203.571 L 157.353 205.731 M 157.353 205.731 L 157.100 207.891 M 157.100 207.891 L 157.175 210.050 M 157.175 210.050 L 157.572 212.210 M 157.572 212.210 L 157.989 213.482 M 233.543 88.006 L 233.683 89.109 M 233.683 89.109 L 234.227 91.269 M 234.227 91.269 L 234.413 91.763 M 77.936 106.932 L 77.940 106.935 M 346.927 168.720 L 347.464 168.813 M 164.358 194.081 L 162.235 195.351 M 162.235 195.351 L 160.112 197.279 M 160.112 197.279 L 157.989 199.985 M 166.480 193.242 L 168.603 192.827 M 168.603 192.827 L 170.726 192.818 M 170.726 192.818 L 172.849 193.190 M 172.849 193.190 L 174.132 193.626 M 185.506 204.897 L 185.587 205.098 M 185.587 205.098 L 185.817 205.731 M 185.817 205.731 L 186.316 207.891 M 186.316 207.891 L 186.539 210.050 M 186.539 210.050 L 186.500 212.210 M 186.500 212.210 L 186.217 214.370 M 186.217 214.370 L 185.704 216.529 M 155.803 205.731 L 155.577 207.891 M 155.577 207.891 L 155.654 210.050 M 155.654 210.050 L 155.866 211.271 M 347.122 166.683 L 347.795 166.800 M 164.358 192.429 L 162.235 193.563 M 162.235 193.563 L 160.112 195.284 M 160.112 195.284 L 157.989 197.604 M 166.480 191.693 L 168.603 191.347 M 168.603 191.347 L 170.726 191.375 M 170.726 191.375 L 172.107 191.619 M 187.413 206.787 L 187.668 207.891 M 187.668 207.891 L 187.709 208.296 M 187.709 208.296 L 187.877 210.050 M 187.877 210.050 L 187.844 212.210 M 155.712 201.412 L 154.892 203.571 M 154.892 203.571 L 154.369 205.731 M 154.369 205.731 L 154.147 207.891 M 154.147 207.891 L 154.226 210.050 M 154.226 210.050 L 154.602 212.210 M 154.602 212.210 L 155.270 214.370 M 155.270 214.370 L 155.866 215.722 M 187.709 213.344 L 187.577 214.370 M 187.577 214.370 L 187.074 216.529 M 187.074 216.529 L 186.356 218.689 M 230.816 86.906 L 230.817 86.950 M 230.817 86.950 L 231.087 89.109 M 231.087 89.109 L 231.605 91.269 M 231.605 91.269 L 232.291 93.206 M 347.454 164.887 L 348.018 164.994 M 168.603 189.918 L 170.443 189.970 M 188.966 208.326 L 189.129 210.050 M 189.129 210.050 L 189.095 212.210 M 189.095 212.210 L 188.840 214.370 M 188.840 214.370 L 188.383 216.529 M 188.383 216.529 L 187.737 218.689 M 153.467 203.571 L 152.976 205.731 M 152.976 205.731 L 152.767 207.891 M 152.767 207.891 L 152.842 210.050 M 152.842 210.050 L 153.201 212.210 M 153.201 212.210 L 153.743 214.040 M 229.591 86.408 L 229.598 86.950 M 229.598 86.950 L 229.858 89.109 M 229.858 89.109 L 230.168 90.454 M 347.758 163.234 L 348.150 163.309 M 164.358 189.409 L 166.480 188.788 M 166.480 188.788 L 168.603 188.534 M 168.603 188.534 L 169.012 188.553 M 190.318 209.666 L 190.352 210.050 M 190.352 210.050 L 190.318 212.210 M 190.318 212.210 L 190.077 214.370 M 189.832 215.610 L 189.639 216.529 M 189.639 216.529 L 189.000 218.689 M 189.000 218.689 L 188.185 220.849 M 228.402 86.076 L 228.414 86.950 M 228.414 86.950 L 228.678 89.109 M 228.678 89.109 L 229.176 91.269 M 229.176 91.269 L 229.906 93.429 M 229.906 93.429 L 229.925 93.474 M 348.047 161.664 L 348.235 161.701 M 166.480 187.420 L 167.745 187.297 M 191.525 210.861 L 191.501 212.210 M 191.501 212.210 L 191.259 214.370 M 191.259 214.370 L 190.832 216.529 M 190.832 216.529 L 190.236 218.689 M 151.505 201.412 L 150.771 203.571 M 150.771 203.571 L 150.295 205.731 M 150.295 205.731 L 150.088 207.891 M 150.088 207.891 L 150.154 210.050 M 150.154 210.050 L 150.494 212.210 M 150.494 212.210 L 151.112 214.370 M 151.112 214.370 L 151.620 215.600 M 227.243 85.852 L 227.259 86.950 M 227.259 86.950 L 227.515 89.109 M 227.515 89.109 L 227.998 91.269 M 227.998 91.269 L 228.045 91.412 M 192.664 211.990 L 192.659 212.210 M 192.659 212.210 L 192.422 214.370 M 192.422 214.370 L 192.011 216.529 M 149.452 203.571 L 148.979 205.731 M 148.979 205.731 L 148.767 207.891 M 148.767 207.891 L 148.824 210.050 M 148.824 210.050 L 149.156 212.210 M 149.156 212.210 L 149.497 213.421 M 320.393 64.404 L 319.330 65.434 M 319.330 65.434 L 319.050 65.767 M 226.096 85.581 L 226.116 86.950 M 226.116 86.950 L 226.371 89.109 M 226.371 89.109 L 226.851 91.269 M 226.851 91.269 L 227.145 92.169 M 270.090 172.745 L 270.136 172.761 M 164.358 185.242 L 165.431 185.004 M 193.711 213.028 L 193.561 214.370 M 193.561 214.370 L 193.146 216.529 M 193.146 216.529 L 192.576 218.689 M 160.112 187.268 L 157.989 188.828 M 157.989 188.828 L 155.866 190.808 M 155.866 190.808 L 153.743 193.200 M 153.743 193.200 L 151.620 196.054 M 148.874 201.412 L 148.146 203.571 M 148.146 203.571 L 147.667 205.731 M 147.667 205.731 L 147.448 207.891 M 147.448 207.891 L 147.495 210.050 M 147.495 210.050 L 147.815 212.210 M 147.815 212.210 L 148.411 214.370 M 148.411 214.370 L 149.292 216.529 M 149.292 216.529 L 149.497 216.913 M 191.955 220.575 L 191.861 220.849 M 191.861 220.849 L 190.976 223.008 M 190.976 223.008 L 189.956 225.168 M 224.965 85.287 L 224.986 86.950 M 224.986 86.950 L 225.233 89.109 M 225.233 89.109 L 225.705 91.269 M 225.705 91.269 L 225.790 91.533 M 80.934 96.842 L 80.934 96.842 M 348.098 157.128 L 348.361 157.189 M 270.526 171.639 L 270.619 171.682 M 160.112 185.832 L 157.989 187.313 M 157.989 187.313 L 155.866 189.198 M 155.866 189.198 L 153.743 191.454 M 153.743 191.454 L 151.620 194.094 M 194.726 214.034 L 194.688 214.370 M 194.688 214.370 L 194.277 216.529 M 146.833 203.571 L 146.339 205.731 M 146.339 205.731 L 146.105 207.891 M 146.105 207.891 L 146.138 210.050 M 146.138 210.050 L 146.448 212.210 M 146.448 212.210 L 147.045 214.370 M 147.045 214.370 L 147.374 215.173 M 194.078 217.295 L 193.710 218.689 M 193.710 218.689 L 192.999 220.849 M 192.999 220.849 L 192.161 223.008 M 367.205 275.635 L 367.895 275.802 M 223.838 84.985 L 223.859 86.950 M 223.859 86.950 L 224.100 89.109 M 224.100 89.109 L 224.490 90.923 M 81.435 95.767 L 81.435 95.768 M 347.816 155.594 L 348.396 155.740 M 270.945 170.578 L 271.069 170.635 M 195.688 214.987 L 195.389 216.529 M 195.389 216.529 L 194.825 218.689 M 194.825 218.689 L 194.132 220.849 M 144.997 205.731 L 144.737 207.891 M 144.737 207.891 L 144.754 210.050 M 144.754 210.050 L 145.059 212.210 M 145.059 212.210 L 145.251 212.900 M 366.834 273.320 L 368.156 273.634 M 368.156 273.634 L 368.563 273.811 M 222.721 84.681 L 222.711 84.790 M 222.711 84.790 L 222.724 86.950 M 222.724 86.950 L 222.957 89.109 M 222.957 89.109 L 223.217 90.325 M 81.904 94.760 L 81.905 94.761 M 271.361 169.522 L 271.514 169.593 M 196.622 215.913 L 196.500 216.529 M 144.929 201.412 L 144.147 203.571 M 144.147 203.571 L 143.609 205.731 M 143.609 205.731 L 143.331 207.891 M 143.331 207.891 L 143.325 210.050 M 143.325 210.050 L 143.605 212.210 M 143.605 212.210 L 144.185 214.370 M 144.185 214.370 L 145.083 216.529 M 145.083 216.529 L 145.251 216.829 M 196.201 217.666 L 195.932 218.689 M 195.932 218.689 L 195.236 220.849 M 195.236 220.849 L 194.424 223.008 M 366.677 271.333 L 368.156 271.681 M 368.156 271.681 L 369.144 272.084 M 317.619 60.812 L 317.207 61.196 M 317.207 61.196 L 316.170 62.300 M 82.365 93.771 L 82.366 93.772 M 347.249 152.510 L 348.441 152.859 M 271.777 168.469 L 271.801 168.480 M 160.112 181.673 L 157.989 183.031 M 157.989 183.031 L 155.866 184.721 M 155.866 184.721 L 153.743 186.734 M 153.743 186.734 L 151.620 189.045 M 142.752 203.571 L 142.159 205.731 M 142.159 205.731 L 141.835 207.891 M 141.835 207.891 L 141.798 210.050 M 141.798 210.050 L 142.066 212.210 M 142.066 212.210 L 142.662 214.370 M 142.662 214.370 L 143.128 215.447 M 197.534 216.816 L 197.035 218.689 M 197.035 218.689 L 196.338 220.849 M 366.676 269.553 L 368.156 269.900 M 368.156 269.900 L 369.677 270.497 M 316.928 59.993 L 315.480 61.468 M 220.491 84.198 L 220.429 84.790 M 220.429 84.790 L 220.417 86.950 M 220.417 86.950 L 220.629 89.109 M 220.629 89.109 L 220.629 89.111 M 82.815 92.806 L 82.816 92.806 M 346.958 150.929 L 348.451 151.406 M 153.743 185.254 L 151.620 187.471 M 151.620 187.471 L 149.497 189.952 M 149.497 189.952 L 147.374 192.648 M 140.642 205.731 L 140.251 207.891 M 140.251 207.891 L 140.168 210.050 M 140.168 210.050 L 140.421 212.210 M 140.421 212.210 L 141.006 214.238 M 198.324 217.989 L 198.136 218.689 M 198.136 218.689 L 197.433 220.849 M 197.433 220.849 L 196.625 223.008 M 366.817 267.919 L 368.156 268.236 M 368.156 268.236 L 368.481 268.361 M 368.481 268.361 L 370.164 269.046 M 316.252 59.211 L 315.084 60.358 M 315.084 60.358 L 314.807 60.657 M 219.352 84.024 L 219.263 84.790 M 219.263 84.790 L 219.232 86.950 M 219.232 86.950 L 219.381 88.525 M 83.226 91.837 L 83.258 91.854 M 264.947 114.124 L 264.294 114.718 M 346.668 149.354 L 346.927 149.402 M 346.927 149.402 L 347.417 149.580 M 347.417 149.580 L 348.451 149.930 M 272.330 166.244 L 272.393 166.274 M 155.866 181.855 L 153.743 183.781 M 153.743 183.781 L 151.620 185.950 M 151.620 185.950 L 149.497 188.350 M 138.529 207.891 L 138.375 210.050 M 138.375 210.050 L 138.605 212.210 M 138.605 212.210 L 138.883 213.136 M 199.286 218.553 L 199.248 218.689 M 199.248 218.689 L 198.529 220.849 M 185.587 242.777 L 183.467 244.605 M 183.467 244.605 L 181.341 245.930 M 181.341 245.930 L 180.669 246.148 M 367.184 266.433 L 368.156 266.680 M 368.156 266.680 L 370.279 267.521 M 370.279 267.521 L 370.617 267.697 M 315.572 58.478 L 315.084 58.948 M 315.084 58.951 L 314.180 59.903 M 218.170 83.875 L 218.055 84.790 M 218.055 84.790 L 218.000 86.950 M 218.000 86.950 L 218.080 87.915 M 83.615 90.870 L 83.687 90.909 M 83.687 90.909 L 83.696 90.914 M 346.366 147.716 L 346.927 147.834 M 346.927 147.834 L 348.439 148.406 M 272.619 165.139 L 272.626 165.142 M 272.626 165.142 L 272.755 165.212 M 157.989 178.818 L 155.866 180.434 M 155.866 180.434 L 153.743 182.322 M 153.743 182.322 L 151.620 184.472 M 151.620 184.472 L 149.497 186.840 M 149.497 186.854 L 147.374 189.381 M 147.374 189.381 L 145.251 192.060 M 145.251 192.060 L 143.128 194.863 M 136.569 207.891 L 136.290 210.050 M 136.290 210.050 L 136.467 212.210 M 136.467 212.210 L 136.760 213.123 M 200.127 219.386 L 199.633 220.849 M 199.633 220.849 L 198.806 223.008 M 185.587 244.921 L 183.533 246.765 M 183.533 246.765 L 183.414 246.841 M 367.790 265.087 L 368.156 265.182 M 368.156 265.182 L 370.279 266.012 M 370.279 266.012 L 370.650 266.202 M 370.650 266.202 L 371.048 266.413 M 314.880 57.732 L 313.529 59.117 M 216.952 83.783 L 216.805 84.790 M 216.805 84.790 L 216.716 86.950 M 216.716 86.950 L 216.742 87.287 M 84.027 89.954 L 84.118 90.007 M 346.046 145.974 L 346.927 146.198 M 346.927 146.198 L 348.420 146.836 M 272.905 164.049 L 273.098 164.155 M 157.854 177.496 L 155.866 179.029 M 155.866 179.029 L 153.743 180.884 M 153.743 180.884 L 151.620 182.998 M 151.620 182.998 L 149.497 185.318 M 149.497 185.318 L 147.374 187.794 M 147.374 187.794 L 145.251 190.375 M 145.251 190.375 L 143.128 193.030 M 134.125 207.891 L 133.592 210.050 M 133.592 210.050 L 133.625 212.210 M 133.625 212.210 L 134.380 214.370 M 134.380 214.370 L 134.637 214.725 M 200.968 220.219 L 200.745 220.849 M 368.463 263.843 L 368.963 264.042 M 368.963 264.042 L 370.279 264.573 M 370.279 264.573 L 371.461 265.184 M 314.201 57.018 L 312.961 58.260 M 312.961 58.260 L 312.884 58.341 M 215.683 83.709 L 215.510 84.790 M 215.510 84.790 L 215.404 86.659 M 84.492 89.073 L 84.540 89.101 M 345.700 144.097 L 346.927 144.479 M 346.927 144.479 L 348.392 145.207 M 273.191 162.957 L 273.438 163.094 M 128.630 209.646 L 130.391 208.100 M 130.391 208.100 L 130.497 207.891 M 151.620 181.513 L 149.497 183.838 M 149.497 183.838 L 147.374 186.262 M 147.374 186.262 L 145.251 188.773 M 145.251 188.773 L 143.128 191.427 M 369.498 262.849 L 370.279 263.167 M 370.279 263.167 L 371.865 263.982 M 313.513 56.321 L 312.961 56.871 M 312.961 56.871 L 312.267 57.598 M 214.324 83.668 L 214.106 84.790 M 214.106 84.790 L 214.003 86.002 M 84.950 88.207 L 84.955 88.210 M 345.315 142.004 L 346.927 142.633 M 346.927 142.633 L 347.708 143.101 M 347.708 143.101 L 348.352 143.434 M 273.479 161.856 L 273.702 161.983 M 156.160 175.817 L 155.866 176.044 M 155.866 176.044 L 153.743 177.917 M 153.743 177.917 L 151.620 180.034 M 151.620 180.034 L 149.497 182.331 M 149.497 182.331 L 147.374 184.755 M 147.374 184.755 L 145.251 187.252 M 145.251 187.252 L 143.128 189.775 M 143.128 189.775 L 141.006 192.289 M 125.482 205.227 L 126.145 205.330 M 126.145 205.330 L 128.268 204.989 M 128.268 204.989 L 130.391 203.757 M 130.391 203.757 L 130.635 203.571 M 370.499 261.899 L 372.255 262.821 M 312.824 55.622 L 311.640 56.843 M 212.896 83.629 L 212.614 84.790 M 212.614 84.790 L 212.548 85.319 M 344.861 139.538 L 346.927 140.586 M 346.927 140.586 L 347.406 140.941 M 347.406 140.941 L 348.309 141.498 M 273.768 160.753 L 273.934 160.848 M 123.422 202.226 L 124.022 202.394 M 124.022 202.394 L 126.145 202.519 M 126.145 202.519 L 128.268 202.083 M 128.268 202.083 L 129.594 201.412 M 147.374 183.247 L 145.251 185.726 M 145.251 185.726 L 143.128 188.194 M 143.128 188.194 L 141.006 190.625 M 136.760 195.464 L 134.637 197.570 M 134.637 197.570 L 132.514 199.491 M 132.514 199.491 L 132.795 199.252 M 371.705 261.182 L 372.402 261.551 M 372.402 261.551 L 372.633 261.693 M 312.153 54.939 L 311.019 56.095 M 344.294 136.454 L 344.587 136.622 M 344.587 136.622 L 344.804 136.708 M 344.804 136.708 L 346.927 138.187 M 346.927 138.187 L 347.551 138.782 M 347.551 138.782 L 348.263 139.319 M 274.061 159.631 L 274.075 159.638 M 308.496 173.617 L 308.582 173.572 M 147.374 181.737 L 145.251 184.243 M 145.251 184.243 L 143.128 186.674 M 143.128 186.674 L 141.006 189.085 M 141.006 189.085 L 138.883 191.406 M 138.883 191.406 L 136.760 193.598 M 121.983 199.812 L 124.022 200.229 M 124.022 200.229 L 126.145 200.242 M 126.145 200.242 L 128.268 199.772 M 128.268 199.772 L 129.373 199.252 M 191.955 248.692 L 191.948 248.709 M 372.964 260.575 L 373.001 260.598 M 311.467 54.244 L 310.838 54.888 M 310.838 54.888 L 310.398 55.346 M 344.804 125.038 L 344.412 125.824 M 344.412 125.824 L 343.834 127.983 M 343.834 127.983 L 343.891 130.143 M 343.891 130.143 L 344.804 132.131 M 344.804 132.131 L 344.860 132.303 M 344.860 132.303 L 346.260 134.462 M 346.260 134.462 L 346.927 135.114 M 346.927 135.114 L 348.095 136.622 M 348.095 136.622 L 348.162 136.686 M 309.072 171.228 L 309.149 171.176 M 149.497 177.755 L 147.374 180.225 M 147.374 180.225 L 145.251 182.705 M 145.251 182.705 L 143.128 185.153 M 143.128 185.153 L 141.006 187.527 M 141.006 187.527 L 138.883 189.788 M 138.883 189.788 L 136.760 191.899 M 120.864 197.662 L 121.899 197.987 M 121.899 197.987 L 124.022 198.316 M 124.022 198.316 L 126.145 198.261 M 126.145 198.261 L 128.268 197.777 M 128.268 197.777 L 129.803 197.092 M 196.201 242.005 L 195.981 242.445 M 195.981 242.445 L 194.994 244.605 M 194.994 244.605 L 194.104 246.765 M 194.104 246.765 L 193.284 248.924 M 193.284 248.924 L 193.284 248.925 M 310.793 53.561 L 309.783 54.606 M 346.927 127.468 L 346.884 127.983 M 346.884 127.983 L 346.927 128.311 M 346.927 128.311 L 347.124 130.143 M 347.124 130.143 L 347.792 132.303 M 347.792 132.303 L 347.802 132.320 M 274.201 157.055 L 274.349 157.150 M 119.613 195.661 L 119.777 195.728 M 119.777 195.728 L 121.899 196.304 M 121.899 196.304 L 124.022 196.560 M 124.022 196.560 L 126.145 196.460 M 126.145 196.460 L 128.268 195.970 M 128.268 195.970 L 130.391 195.059 M 130.391 195.059 L 130.594 194.933 M 72.240 164.913 L 72.563 165.959 M 73.025 169.434 L 72.977 170.088 M 152.743 172.431 L 151.620 173.694 M 151.620 173.694 L 149.497 176.183 M 309.817 168.810 L 309.622 168.950 M 149.497 176.133 L 147.374 178.707 M 147.374 178.707 L 145.251 181.215 M 145.251 181.215 L 143.128 183.663 M 198.324 239.953 L 198.160 240.286 M 198.160 240.286 L 197.164 242.445 M 197.164 242.445 L 196.244 244.605 M 196.201 244.721 L 195.390 246.765 M 195.390 246.765 L 194.664 248.924 M 194.664 248.924 L 194.601 249.161 M 197.564 84.762 L 197.622 84.790 M 197.622 84.790 L 197.721 84.855 M 274.210 155.671 L 274.507 155.879 M 118.866 193.856 L 119.777 194.195 M 119.777 194.195 L 121.899 194.707 M 121.899 194.707 L 124.022 194.910 M 124.022 194.910 L 126.145 194.777 M 126.145 194.777 L 128.268 194.281 M 128.268 194.281 L 130.391 193.365 M 130.391 193.365 L 131.447 192.773 M 143.128 182.112 L 141.006 184.494 M 141.006 184.494 L 138.883 186.725 M 138.883 186.725 L 136.760 188.773 M 136.760 188.773 L 137.094 188.454 M 53.428 220.638 L 53.433 220.849 M 53.433 220.849 L 53.717 223.008 M 53.717 223.008 L 53.966 224.020 M 206.686 225.885 L 205.906 227.328 M 205.906 227.328 L 204.719 229.487 M 204.719 229.487 L 203.589 231.647 M 200.447 237.858 L 200.315 238.126 M 200.315 238.126 L 199.296 240.286 M 199.296 240.286 L 198.337 242.445 M 196.201 248.265 L 195.987 248.924 M 195.987 248.924 L 195.874 249.380 M 309.428 52.185 L 308.715 52.934 M 308.715 52.934 L 308.542 53.112 M 38.042 117.924 L 38.049 119.345 M 38.049 119.345 L 38.303 121.504 M 38.303 121.504 L 38.400 121.906 M 381.637 175.031 L 381.741 175.496 M 381.741 175.496 L 381.964 177.655 M 381.964 177.655 L 381.951 179.155 M 274.220 154.226 L 274.659 154.536 M 117.925 192.064 L 119.777 192.710 M 119.777 192.710 L 120.068 192.773 M 120.068 192.773 L 121.899 193.193 M 121.899 193.193 L 124.022 193.367 M 124.022 193.367 L 126.145 193.180 M 126.145 193.180 L 127.864 192.773 M 145.251 178.026 L 143.128 180.596 M 143.128 180.596 L 141.006 182.994 M 141.006 182.994 L 138.883 185.221 M 138.883 185.221 L 136.760 187.250 M 52.314 217.226 L 52.181 218.689 M 52.181 218.689 L 52.194 220.849 M 52.194 220.849 L 52.439 223.008 M 52.439 223.008 L 52.940 225.168 M 52.940 225.168 L 53.721 227.328 M 53.721 227.328 L 53.966 227.831 M 200.447 240.248 L 200.429 240.286 M 200.429 240.286 L 199.488 242.445 M 199.488 242.445 L 198.635 244.605 M 198.324 245.520 L 197.881 246.765 M 197.881 246.765 L 197.254 248.924 M 197.254 248.924 L 197.112 249.579 M 394.196 68.698 L 394.301 69.672 M 394.301 69.672 L 394.824 71.832 M 394.824 71.832 L 395.664 73.992 M 395.664 73.992 L 395.754 74.162 M 37.379 113.270 L 37.018 115.025 M 381.560 170.523 L 381.870 171.176 M 381.870 171.176 L 381.989 171.527 M 274.230 152.669 L 274.749 153.082 M 274.749 153.082 L 274.788 153.115 M 117.118 190.316 L 117.654 190.558 M 117.654 190.558 L 117.822 190.613 M 117.822 190.613 L 119.777 191.280 M 119.777 191.280 L 121.899 191.725 M 121.899 191.725 L 124.022 191.867 M 124.022 191.867 L 126.145 191.682 M 126.145 191.682 L 128.268 191.151 M 128.268 191.151 L 129.559 190.613 M 382.544 183.714 L 382.533 183.766 M 136.760 185.748 L 134.637 187.541 M 134.637 187.541 L 132.514 189.055 M 132.514 189.055 L 133.367 188.454 M 51.515 214.780 L 51.151 216.529 M 51.151 216.529 L 50.894 218.689 M 50.894 218.689 L 50.861 220.849 M 50.861 220.849 L 51.084 223.008 M 51.084 223.008 L 51.594 225.168 M 51.594 225.168 L 51.844 225.838 M 200.447 242.952 L 199.806 244.605 M 199.806 244.605 L 199.087 246.765 M 199.087 246.765 L 198.506 248.924 M 392.636 66.608 L 392.596 67.513 M 392.596 67.513 L 392.787 69.672 M 392.787 69.672 L 393.306 71.832 M 393.306 71.832 L 393.631 72.649 M 36.823 110.976 L 36.625 111.564 M 274.240 151.001 L 274.749 151.471 M 274.749 151.471 L 274.892 151.609 M 116.451 188.638 L 117.654 189.175 M 117.654 189.175 L 119.777 189.868 M 119.777 189.868 L 121.899 190.284 M 121.899 190.284 L 124.022 190.400 M 124.022 190.400 L 126.145 190.198 M 126.145 190.198 L 128.268 189.661 M 128.268 189.661 L 130.391 188.774 M 130.391 188.774 L 130.961 188.454 M 310.843 161.439 L 310.838 161.444 M 310.838 161.444 L 310.294 161.843 M 381.696 168.082 L 381.981 168.553 M 141.006 179.883 L 138.883 182.186 M 138.883 182.186 L 136.760 184.247 M 136.760 184.247 L 136.876 184.134 M 383.017 186.146 L 383.000 186.203 M 50.854 212.758 L 50.369 214.370 M 50.369 214.370 L 49.876 216.529 M 49.553 218.689 L 49.458 220.849 M 49.458 220.849 L 49.652 223.008 M 49.652 223.008 L 49.721 223.302 M 200.447 246.259 L 200.282 246.765 M 200.282 246.765 L 199.725 248.924 M 199.725 248.924 L 199.544 249.908 M 307.344 50.116 L 306.668 50.854 M 391.196 65.353 L 391.005 67.513 M 391.005 67.513 L 391.136 69.672 M 391.136 69.672 L 391.508 71.263 M 381.865 166.107 L 381.974 166.255 M 274.252 149.166 L 274.623 149.580 M 274.623 149.580 L 274.749 149.696 M 274.749 149.696 L 274.942 149.882 M 114.146 134.183 L 113.442 134.462 M 113.442 134.462 L 111.285 135.681 M 111.285 135.681 L 110.006 136.622 M 115.751 186.962 L 117.654 187.797 M 117.654 187.797 L 119.720 188.454 M 119.720 188.454 L 119.777 188.472 M 119.777 188.472 L 121.899 188.872 M 121.899 188.872 L 124.022 188.970 M 124.022 188.970 L 126.145 188.743 M 126.145 188.743 L 127.270 188.454 M 383.555 187.902 L 383.396 188.272 M 49.069 214.370 L 48.462 216.529 M 48.462 216.529 L 48.056 218.689 M 48.056 218.689 L 47.892 220.849 M 47.892 220.849 L 48.011 223.008 M 48.011 223.008 L 48.455 225.168 M 48.455 225.168 L 49.270 227.328 M 49.270 227.328 L 49.721 228.139 M 202.570 243.457 L 202.143 244.605 M 202.143 244.605 L 201.468 246.765 M 201.468 246.765 L 200.938 248.924 M 200.938 248.924 L 200.750 250.032 M 359.861 243.253 L 359.896 243.264 M 306.667 49.454 L 306.592 49.539 M 306.592 49.539 L 306.044 50.103 M 272.451 131.276 L 272.026 132.303 M 272.026 132.303 L 271.809 133.018 M 274.266 147.031 L 274.541 147.420 M 274.541 147.420 L 274.749 147.652 M 274.749 147.652 L 274.919 147.847 M 114.912 185.157 L 115.531 185.497 M 115.531 185.497 L 117.355 186.294 M 117.355 186.294 L 117.654 186.425 M 117.654 186.425 L 119.777 187.088 M 119.777 187.088 L 121.899 187.470 M 121.899 187.470 L 124.022 187.551 M 124.022 187.551 L 126.145 187.314 M 126.145 187.314 L 128.268 186.747 M 128.268 186.747 L 129.338 186.294 M 136.760 181.193 L 134.637 183.090 M 134.637 183.090 L 132.514 184.620 M 132.514 184.620 L 133.175 184.134 M 46.933 216.529 L 46.373 218.689 M 46.373 218.689 L 46.080 220.849 M 46.080 220.849 L 46.112 223.008 M 46.112 223.008 L 46.532 225.168 M 46.532 225.168 L 46.572 225.267 M 360.471 239.886 L 360.566 239.973 M 204.693 241.089 L 204.120 242.445 M 204.120 242.445 L 203.321 244.605 M 203.321 244.605 L 202.654 246.765 M 202.570 247.122 L 202.143 248.924 M 202.143 248.924 L 201.948 250.142 M 382.174 162.742 L 382.176 162.744 M 273.178 133.639 L 272.955 134.462 M 272.955 134.462 L 272.809 135.454 M 274.284 144.281 L 274.749 145.167 M 274.749 145.167 L 274.776 145.221 M 114.410 183.497 L 115.531 184.123 M 115.531 184.123 L 115.557 184.134 M 115.557 184.134 L 117.654 185.044 M 117.654 185.044 L 119.777 185.701 M 119.777 185.701 L 121.899 186.072 M 121.899 186.072 L 124.022 186.137 M 124.022 186.137 L 126.145 185.883 M 126.145 185.883 L 128.268 185.299 M 128.268 185.299 L 130.391 184.385 M 130.391 184.385 L 130.813 184.134 M 311.561 155.786 L 310.838 156.531 M 310.838 156.531 L 310.309 156.963 M 45.210 216.529 L 44.392 218.689 M 44.392 218.689 L 43.950 220.516 M 204.693 244.096 L 204.506 244.605 M 204.506 244.605 L 203.853 246.765 M 203.853 246.765 L 203.354 248.924 M 203.354 248.924 L 203.156 250.221 M 305.181 48.010 L 304.729 48.518 M 382.457 161.421 L 382.537 161.503 M 113.868 181.789 L 114.191 181.975 M 114.191 181.975 L 115.531 182.720 M 115.531 182.720 L 117.654 183.653 M 117.654 183.653 L 119.205 184.134 M 119.205 184.134 L 119.777 184.309 M 119.777 184.309 L 121.899 184.668 M 121.899 184.668 L 124.022 184.719 M 124.022 184.719 L 126.145 184.456 M 126.145 184.456 L 127.268 184.134 M 138.883 175.621 L 136.760 178.008 M 136.760 178.008 L 134.637 179.985 M 134.637 179.985 L 134.816 179.815 M 206.816 241.796 L 206.535 242.445 M 206.535 242.445 L 205.726 244.605 M 205.726 244.605 L 205.063 246.765 M 204.693 248.371 L 204.568 248.924 M 204.568 248.924 L 204.369 250.295 M 35.868 101.337 L 35.634 101.667 M 382.775 160.158 L 382.896 160.268 M 113.106 179.867 L 113.408 180.073 M 113.408 180.073 L 115.531 181.293 M 115.531 181.293 L 117.041 181.975 M 117.041 181.975 L 117.654 182.243 M 117.654 182.243 L 119.777 182.893 M 119.777 182.893 L 121.899 183.246 M 121.899 183.246 L 124.022 183.285 M 124.022 183.285 L 126.145 182.996 M 126.145 182.996 L 128.268 182.385 M 128.268 182.385 L 129.145 181.975 M 310.838 153.008 L 310.320 153.501 M 143.798 163.566 L 143.543 164.697 M 208.939 240.013 L 208.799 240.286 M 208.799 240.286 L 207.812 242.445 M 207.812 242.445 L 206.961 244.605 M 206.816 245.063 L 206.300 246.765 M 206.300 246.765 L 205.812 248.924 M 205.812 248.924 L 205.611 250.340 M 263.692 20.503 L 263.688 20.524 M 35.759 99.866 L 35.718 99.924 M 383.152 159.003 L 383.244 159.074 M 112.404 177.826 L 113.408 178.553 M 113.408 178.553 L 115.492 179.815 M 142.518 162.298 L 142.498 162.538 M 142.498 162.538 L 142.042 164.697 M 142.042 164.697 L 141.323 166.857 M 117.654 180.790 L 119.777 181.453 M 119.777 181.453 L 121.899 181.807 M 121.899 181.807 L 124.022 181.833 M 124.022 181.833 L 126.145 181.518 M 126.145 181.518 L 128.268 180.855 M 47.933 203.813 L 47.598 204.343 M 208.939 242.875 L 208.261 244.605 M 208.261 244.605 L 207.577 246.765 M 207.577 246.765 L 207.073 248.924 M 302.883 45.817 L 302.681 46.052 M 376.648 88.577 L 376.307 89.026 M 37.086 96.450 L 36.983 96.606 M 36.983 96.606 L 36.232 97.614 M 383.538 157.832 L 383.594 157.872 M 112.033 175.886 L 113.408 176.964 M 113.408 176.964 L 114.467 177.655 M 114.467 177.655 L 115.531 178.299 M 115.531 178.299 L 117.654 179.298 M 117.654 179.298 L 119.246 179.815 M 119.246 179.815 L 119.777 179.979 M 119.777 179.979 L 121.899 180.320 M 121.899 180.320 L 124.022 180.331 M 124.022 180.331 L 126.145 180.013 M 126.145 180.013 L 126.733 179.815 M 208.939 246.586 L 208.882 246.765 M 208.882 246.765 L 208.386 248.924 M 208.386 248.924 L 208.179 250.403 M 265.665 21.430 L 265.664 21.438 M 183.118 139.898 L 182.710 140.941 M 182.710 140.941 L 182.177 142.586 M 185.673 162.975 L 186.958 164.697 M 186.958 164.697 L 187.709 165.587 M 187.709 165.587 L 188.795 166.857 M 188.795 166.857 L 189.832 167.961 M 189.832 167.961 L 190.702 168.864 M 193.363 171.386 L 193.754 171.731 M 111.333 173.468 L 113.408 175.278 M 113.408 175.278 L 113.708 175.496 M 113.708 175.496 L 115.531 176.683 M 115.531 176.683 L 117.456 177.655 M 117.456 177.655 L 117.654 177.748 M 117.654 177.748 L 119.777 178.427 M 119.777 178.427 L 121.899 178.773 M 121.899 178.773 L 124.022 178.770 M 124.022 178.770 L 126.145 178.404 M 126.145 178.404 L 128.268 177.674 M 211.061 244.516 L 211.024 244.605 M 211.024 244.605 L 210.290 246.765 M 210.290 246.765 L 209.758 248.924 M 209.758 248.924 L 209.537 250.416 M 311.664 142.031 L 311.251 143.101 M 182.351 146.244 L 182.170 147.420 M 182.170 147.420 L 182.046 149.580 M 182.046 149.580 L 182.150 151.739 M 182.150 151.739 L 182.502 153.899 M 182.502 153.899 L 183.117 156.059 M 183.117 156.059 L 183.464 156.912 M 183.464 156.912 L 183.993 158.218 M 183.993 158.218 L 185.128 160.378 M 185.128 160.378 L 185.587 161.094 M 185.587 161.094 L 186.516 162.538 M 186.516 162.538 L 187.709 164.130 M 187.709 164.130 L 188.142 164.697 M 188.142 164.697 L 189.832 166.672 M 189.832 166.672 L 189.936 166.789 M 195.062 171.719 L 196.201 172.673 M 196.201 172.673 L 197.052 173.336 M 197.052 173.336 L 198.061 174.098 M 109.162 152.918 L 108.663 153.899 M 108.663 153.899 L 108.305 154.860 M 110.356 170.037 L 111.172 171.176 M 111.172 171.176 L 111.285 171.307 M 111.285 171.307 L 113.306 173.336 M 113.306 173.336 L 113.408 173.425 M 113.408 173.425 L 115.531 174.958 M 115.531 174.958 L 116.500 175.496 M 116.500 175.496 L 117.654 176.075 M 117.654 176.075 L 119.777 176.797 M 119.777 176.797 L 121.899 177.156 M 121.899 177.156 L 124.022 177.136 M 124.022 177.136 L 126.145 176.722 M 126.145 176.722 L 128.268 175.912 M 128.268 175.912 L 129.011 175.496 M 137.614 158.218 L 137.841 160.378 M 137.841 160.378 L 137.734 162.538 M 137.734 162.538 L 137.309 164.697 M 213.184 243.379 L 212.597 244.605 M 212.597 244.605 L 211.776 246.765 M 211.776 246.765 L 211.185 248.924 M 211.061 249.690 L 210.955 250.419 M 183.166 148.450 L 183.111 149.580 M 183.111 149.580 L 183.237 151.739 M 183.237 151.739 L 183.464 153.050 M 183.464 153.050 L 183.610 153.899 M 183.610 153.899 L 184.236 156.059 M 184.236 156.059 L 185.127 158.218 M 185.127 158.218 L 185.587 159.085 M 185.587 159.085 L 186.279 160.378 M 186.279 160.378 L 187.681 162.538 M 187.681 162.538 L 187.709 162.576 M 187.709 162.576 L 189.010 164.282 M 196.875 172.074 L 198.324 173.203 M 198.324 173.203 L 198.513 173.336 M 198.513 173.336 L 200.447 174.662 M 200.447 174.662 L 201.825 175.496 M 201.825 175.496 L 202.522 175.915 M 109.162 157.421 L 108.977 158.218 M 108.977 158.218 L 108.825 159.946 M 109.695 165.470 L 110.247 166.857 M 110.247 166.857 L 111.285 168.708 M 111.285 168.708 L 111.486 169.017 M 111.486 169.017 L 113.279 171.176 M 113.279 171.176 L 113.408 171.305 M 113.408 171.305 L 115.531 173.060 M 115.531 173.060 L 115.968 173.336 M 115.968 173.336 L 117.654 174.266 M 117.654 174.266 L 119.777 175.055 M 119.777 175.055 L 121.899 175.437 M 121.899 175.437 L 124.022 175.394 M 124.022 175.394 L 126.145 174.912 M 126.145 174.912 L 128.268 173.991 M 128.268 173.991 L 129.304 173.336 M 135.825 158.218 L 136.091 160.378 M 136.091 160.378 L 135.994 162.538 M 135.994 162.538 L 135.546 164.697 M 135.546 164.697 L 134.765 166.857 M 213.184 247.369 L 212.758 248.924 M 212.758 248.924 L 212.520 250.400 M 184.292 151.501 L 184.308 151.739 M 184.308 151.739 L 184.697 153.899 M 184.697 153.899 L 185.346 156.059 M 185.346 156.059 L 185.587 156.635 M 185.587 156.635 L 186.256 158.218 M 186.256 158.218 L 187.425 160.378 M 187.425 160.378 L 187.709 160.817 M 187.709 160.817 L 187.758 160.889 M 198.883 172.467 L 200.117 173.336 M 200.117 173.336 L 200.447 173.563 M 200.447 173.563 L 202.570 174.840 M 202.570 174.840 L 203.862 175.496 M 203.862 175.496 L 204.693 175.915 M 204.693 175.915 L 206.371 176.583 M 111.285 156.295 L 110.775 158.218 M 110.775 158.218 L 110.561 160.378 M 110.561 160.378 L 110.706 162.538 M 110.706 162.538 L 111.211 164.697 M 111.211 164.697 L 111.285 164.884 M 111.285 164.884 L 112.204 166.857 M 112.204 166.857 L 113.408 168.703 M 113.408 168.703 L 113.659 169.017 M 113.659 169.017 L 115.531 170.864 M 115.531 170.864 L 115.949 171.176 M 115.949 171.176 L 117.654 172.247 M 117.654 172.247 L 119.777 173.135 M 119.777 173.135 L 120.807 173.336 M 120.807 173.336 L 121.899 173.523 M 121.899 173.523 L 124.022 173.478 M 124.022 173.478 L 124.547 173.336 M 133.884 158.218 L 134.199 160.378 M 134.199 160.378 L 134.104 162.538 M 134.104 162.538 L 133.611 164.697 M 133.611 164.697 L 132.735 166.857 M 215.307 246.528 L 215.201 246.765 M 215.201 246.765 L 214.509 248.924 M 214.509 248.924 L 214.240 250.361 M 269.979 23.441 L 269.971 23.488 M 201.260 172.933 L 201.916 173.336 M 201.916 173.336 L 202.570 173.729 M 202.570 173.729 L 204.693 174.797 M 204.693 174.797 L 206.462 175.496 M 206.462 175.496 L 206.816 175.635 M 206.816 175.635 L 208.939 176.212 M 208.939 176.212 L 211.061 176.508 M 211.061 176.508 L 213.184 176.491 M 213.184 176.491 L 215.307 176.138 M 215.307 176.138 L 216.155 175.851 M 113.408 156.382 L 112.827 158.218 M 112.827 158.218 L 112.569 160.378 M 112.569 160.378 L 112.737 162.538 M 112.737 162.538 L 113.326 164.697 M 113.326 164.697 L 113.408 164.873 M 113.408 164.873 L 114.546 166.857 M 114.546 166.857 L 115.531 168.089 M 115.531 168.089 L 116.517 169.017 M 116.517 169.017 L 117.654 169.864 M 117.654 169.864 L 119.777 170.904 M 119.777 170.904 L 121.010 171.176 M 121.010 171.176 L 121.899 171.342 M 121.899 171.342 L 124.022 171.242 M 124.022 171.242 L 124.253 171.176 M 131.679 158.218 L 132.059 160.378 M 132.059 160.378 L 131.957 162.538 M 131.957 162.538 L 131.382 164.697 M 45.617 196.723 L 45.475 196.931 M 45.475 196.931 L 43.924 198.740 M 217.430 246.724 L 217.408 246.765 M 217.408 246.765 L 216.548 248.924 M 216.548 248.924 L 216.233 250.280 M 271.170 24.048 L 271.134 24.233 M 204.477 173.563 L 204.693 173.671 M 204.693 173.671 L 206.816 174.496 M 206.816 174.496 L 208.939 175.063 M 208.939 175.063 L 211.061 175.342 M 211.061 175.342 L 213.184 175.305 M 213.184 175.305 L 213.280 175.287 M 115.531 157.769 L 115.350 158.218 M 115.350 158.218 L 115.018 160.378 M 115.018 160.378 L 115.218 162.538 M 115.218 162.538 L 115.531 163.471 M 115.531 163.471 L 116.084 164.697 M 116.084 164.697 L 117.654 166.753 M 117.654 166.753 L 117.778 166.857 M 117.778 166.857 L 119.777 168.068 M 119.777 168.068 L 121.899 168.627 M 121.899 168.627 L 124.022 168.427 M 124.022 168.427 L 126.145 167.451 M 126.145 167.451 L 126.873 166.857 M 45.215 195.493 L 43.798 197.205 M 219.553 248.235 L 219.182 248.924 M 219.182 248.924 L 218.812 250.098 M 272.439 24.692 L 272.403 25.047 M 119.777 158.146 L 119.710 158.218 M 119.710 158.218 L 118.923 160.378 M 118.923 160.378 L 119.312 162.538 M 119.312 162.538 L 119.777 163.202 M 119.777 163.202 L 121.899 164.431 M 121.899 164.431 L 124.022 163.792 M 124.022 163.792 L 125.058 162.538 M 44.816 194.271 L 43.637 195.757 M 273.867 25.419 L 273.806 25.947 M 275.408 26.196 L 275.369 26.479 M 275.369 26.479 L 275.369 26.949 M 277.230 27.209 L 277.227 28.141 M 279.569 28.531 L 279.568 28.639 M 279.568 28.639 L 279.831 29.810 M 288.615 35.442 L 289.500 35.118 M 20.816 92.653 L 22.108 92.470 M 389.173 142.098 L 389.385 142.149 M 389.385 142.149 L 389.497 142.152 M 389.286 140.480 L 389.385 140.504 M 389.385 140.504 L 390.186 140.516 M 389.405 138.758 L 390.688 138.760 M 389.538 136.831 L 390.859 136.831" fill="none" stroke="#e5e7eb" stroke-width="1" vector-effect="non-scaling-stroke"/></svg>