<svg xmlns="http://www.w3.org/2000/svg" viewBox="12 12 396 273" width="396" height="273" shape-rendering="geometricPrecision"><rect x="12" y="12" width="396" height="273" fill="#0b0f14"/><path d="M 57.672 20.000 L 57.548 22.160 L 57.098 24.319 L 56.210 26.479 M 262.495 20.000 L 264.134 20.564 L 266.257 21.746 L 267.376 22.160 L 268.380 22.527 L 270.503 23.803 L 271.747 24.319 L 272.626 24.675 L 274.749 26.039 L 275.738 26.479 L 276.872 26.991 L 278.994 28.414 L 279.472 28.639 L 281.117 29.487 L 283.237 30.798 M 360.309 20.000 L 361.788 20.247 L 363.911 20.660 L 366.034 20.957 L 368.156 21.128 L 370.279 21.189 L 372.402 21.156 L 374.525 21.033 L 376.648 20.823 L 378.771 20.535 L 380.894 20.208 L 382.677 20.000 M 20.000 30.248 L 21.965 30.798 L 22.123 30.838 L 24.246 31.412 L 26.369 32.008 L 28.492 32.446 L 30.615 32.716 L 32.737 32.860 L 34.860 32.920 L 36.983 32.930 L 39.106 32.897 L 41.229 32.801 L 43.352 32.602 L 45.475 32.256 L 47.598 31.731 L 49.721 31.081 L 50.946 30.798 M 285.363 32.171 L 286.778 32.958 L 287.486 33.344 L 289.609 34.966 L 289.865 35.118 L 291.732 36.375 L 293.092 37.277 L 293.855 37.782 L 295.923 39.437 L 295.978 39.477 L 298.101 41.378 L 298.375 41.597 L 300.223 43.197 L 300.874 43.756 L 302.346 45.073 L 303.267 45.916 L 304.469 47.040 L 305.544 48.076 L 306.592 49.100 L 307.721 50.235 L 308.715 51.248 L 309.813 52.395 L 310.838 53.483 L 311.825 54.555 L 312.961 55.808 L 313.762 56.714 L 315.084 58.225 L 315.630 58.874 L 317.207 60.719 L 317.459 61.034 L 319.330 63.187 M 64.581 43.680 L 64.570 43.756 L 64.226 45.916 L 63.766 48.076 L 63.260 50.235 L 62.768 52.395 M 62.458 54.390 L 62.437 54.555 L 61.968 56.714 L 61.188 58.874 L 60.417 61.034 M 393.631 62.323 L 393.317 63.193 L 392.326 65.353 L 391.645 67.513 M 321.168 65.353 L 321.453 65.762 L 322.736 67.513 L 323.575 68.772 L 324.160 69.672 L 325.698 71.805 M 391.508 68.808 L 391.382 69.672 L 391.224 71.832 L 391.455 73.992 L 391.508 74.167 L 392.193 76.151 L 393.631 77.851 L 394.025 78.311 L 395.754 79.548 L 397.218 80.471 L 397.877 80.744 L 400.000 82.059 M 327.271 73.992 L 327.821 75.005 L 328.441 76.151 L 329.880 78.311 L 329.944 78.444 L 331.043 80.471 L 332.067 82.494 L 332.126 82.630 L 333.337 84.790 L 334.190 86.751 L 334.265 86.950 L 335.362 89.109 L 336.307 91.269 M 51.844 75.982 L 51.709 76.151 L 49.728 78.311 L 47.662 80.471 M 23.045 80.471 L 23.821 82.630 L 24.120 84.790 L 24.033 86.950 L 23.187 89.109 M 200.447 84.366 L 202.570 84.020 L 204.693 83.740 L 206.816 83.551 L 208.939 83.457 L 211.061 83.451 L 213.184 83.533 L 215.307 83.703 L 217.430 83.961 L 219.553 84.291 L 221.676 84.636 L 222.999 84.790 L 223.799 84.879 L 225.922 85.357 L 228.045 86.082 L 230.168 86.806 L 230.761 86.950 L 232.291 87.340 L 234.413 88.361 L 236.379 89.109 L 236.536 89.161 L 238.659 90.242 L 240.719 91.269 L 240.782 91.296 L 242.905 92.577 L 244.484 93.429 L 245.028 93.709 L 247.151 95.348 L 247.538 95.588 L 249.274 96.791 L 250.589 97.748 L 251.397 98.347 L 253.219 99.908 L 253.520 100.164 L 255.502 102.067 L 255.642 102.205 L 257.593 104.227 L 257.765 104.420 L 259.506 106.387 L 259.888 106.878 L 261.190 108.546 L 262.011 109.726 L 262.665 110.706 L 264.134 112.800 L 264.173 112.866 L 265.688 115.025 L 266.257 116.183 L 266.737 117.185 L 268.101 119.345 L 268.380 120.088 L 268.930 121.504 L 270.080 123.664 L 270.503 125.109 L 270.703 125.824 L 271.574 127.983 L 272.354 130.143 L 272.626 131.656 L 272.739 132.303 L 273.261 134.462 L 273.817 136.622 L 274.265 138.782 L 274.566 140.941 L 274.728 143.101 L 274.749 143.723 L 274.802 145.261 L 274.870 147.420 L 274.889 149.580 L 274.847 151.739 L 274.766 153.899 M 191.955 86.219 L 194.078 85.487 L 196.201 84.956 L 197.589 84.790 M 39.106 89.862 L 38.334 91.269 L 37.436 93.429 L 37.171 95.588 L 37.194 97.748 L 37.395 99.908 L 37.745 102.067 L 38.179 104.227 L 38.602 106.387 L 38.929 108.546 L 39.106 110.701 M 337.166 93.429 L 338.204 95.588 L 338.436 96.404 L 338.829 97.748 L 339.835 99.908 L 340.559 102.067 M 378.678 91.269 L 378.510 93.429 L 378.313 95.588 L 378.126 97.748 L 377.985 99.908 L 377.915 102.067 L 377.934 104.227 L 378.055 106.387 L 378.281 108.546 L 378.580 110.706 L 378.771 112.387 M 341.256 104.227 L 342.174 106.387 L 342.682 108.360 L 342.725 108.546 L 343.384 110.706 L 344.181 112.866 L 344.748 115.025 L 344.804 115.384 L 345.119 117.185 L 345.704 119.345 L 346.276 121.504 L 346.711 123.664 L 346.927 125.721 L 346.937 125.824 L 347.163 127.983 L 347.445 130.143 L 347.718 132.303 L 347.957 134.462 L 348.153 136.622 L 348.307 138.782 L 348.423 140.941 L 348.507 143.101 L 348.565 145.261 L 348.601 147.420 L 348.615 149.580 L 348.609 151.739 L 348.580 153.899 L 348.524 156.059 L 348.437 158.218 L 348.311 160.378 L 348.135 162.538 L 347.903 164.697 L 347.617 166.857 L 347.297 169.017 L 347.002 171.176 M 39.246 112.866 L 39.396 115.025 L 39.486 117.185 L 39.483 119.345 L 39.379 121.504 L 39.201 123.664 M 379.293 115.025 L 380.091 117.185 L 380.857 119.345 L 380.894 119.469 M 113.408 116.473 L 113.245 117.185 L 112.503 119.345 L 111.748 121.504 L 111.288 123.664 L 110.900 125.824 L 110.353 127.983 L 109.834 130.143 L 109.434 132.303 L 109.190 134.462 M 74.907 117.185 L 74.275 119.345 L 73.654 121.504 L 73.204 123.664 M 39.106 124.889 L 39.037 125.824 L 38.653 127.983 L 37.997 130.143 L 37.243 132.303 M 309.233 125.824 L 309.793 127.983 L 310.290 130.143 L 310.651 132.303 L 310.838 134.428 M 72.978 125.824 L 72.650 127.983 L 72.289 130.143 L 71.959 132.303 L 71.689 134.462 L 71.485 136.622 L 71.342 138.782 L 71.249 140.941 L 71.197 143.101 L 71.178 145.261 L 71.189 147.420 L 71.227 149.580 L 71.292 151.739 L 71.386 153.899 L 71.508 156.059 L 71.661 158.218 L 71.844 160.378 L 72.057 162.538 L 72.299 164.697 L 72.560 166.857 L 72.823 169.017 L 73.044 171.176 L 73.073 171.523 M 147.152 132.303 L 146.586 134.462 L 146.040 136.622 L 145.629 138.782 L 145.373 140.941 L 145.253 143.101 M 109.162 134.897 L 109.045 136.622 L 108.838 138.782 L 108.635 140.941 L 108.466 143.101 L 108.345 145.261 L 108.277 147.420 L 108.266 149.580 L 108.311 151.739 L 108.412 153.899 L 108.566 156.059 L 108.763 158.218 L 108.979 160.378 L 109.158 162.538 L 109.162 162.584 L 109.356 164.697 L 109.737 166.857 L 110.259 169.017 L 110.832 171.176 L 111.273 173.336 L 111.285 173.401 L 111.708 175.496 L 112.469 177.655 L 113.227 179.815 L 113.408 180.608 L 113.730 181.975 L 114.662 184.134 L 115.498 186.294 L 115.531 186.401 L 116.262 188.454 L 117.386 190.613 L 117.654 191.376 L 118.170 192.773 L 119.456 194.933 L 119.777 195.699 L 120.389 197.092 L 121.782 199.252 L 121.899 199.490 L 122.981 201.412 L 124.022 203.186 L 124.233 203.571 L 125.902 205.731 L 126.145 206.125 L 127.344 207.891 L 128.268 209.233 L 128.829 210.050 L 130.391 212.027 L 130.527 212.210 L 132.467 214.370 M 311.010 136.622 L 311.219 138.782 L 311.414 140.941 L 311.570 143.101 L 311.677 145.261 L 311.730 147.420 L 311.725 149.580 L 311.664 151.739 L 311.548 153.899 L 311.381 156.059 L 311.179 158.218 L 310.968 160.378 M 183.464 138.703 L 183.439 138.782 L 182.761 140.941 L 182.111 143.101 L 181.722 145.261 L 181.557 147.420 L 181.550 149.580 L 181.700 151.739 L 182.071 153.899 L 182.711 156.059 L 183.414 158.218 L 183.464 158.378 L 184.174 160.378 L 185.470 162.538 L 185.587 162.761 L 186.787 164.697 L 187.709 166.002 L 188.363 166.857 L 189.832 168.453 L 190.419 169.017 L 191.955 170.349 L 193.111 171.176 L 194.078 171.806 L 196.201 173.277 L 196.340 173.336 L 198.324 174.282 L 200.447 175.295 L 201.389 175.496 L 202.570 175.758 L 204.693 176.336 L 206.816 176.754 L 208.939 176.948 L 211.061 176.932 L 213.184 176.707 L 215.307 176.260 L 217.430 175.682 L 218.258 175.496 M 390.433 138.782 L 391.052 140.941 L 391.145 143.101 L 390.779 145.261 L 389.949 147.420 M 237.757 143.101 L 238.166 145.261 L 238.346 147.420 L 238.353 149.580 L 238.189 151.739 L 237.800 153.899 L 237.164 156.059 L 236.538 158.218 L 234.413 162.270 M 145.190 145.261 L 145.148 147.420 L 145.158 149.580 L 145.214 151.739 L 145.251 152.946 M 30.615 147.766 L 29.956 149.580 L 29.119 151.739 L 28.781 153.899 L 28.895 156.059 L 29.551 158.218 L 30.549 160.378 L 30.615 160.511 L 31.530 162.538 L 32.737 164.649 L 32.758 164.697 L 34.067 166.857 L 34.860 168.418 L 35.116 169.017 L 36.495 171.176 L 36.983 172.355 L 37.360 173.336 L 38.565 175.496 L 39.106 177.169 L 39.249 177.655 L 40.105 179.815 L 40.878 181.975 L 41.229 184.016 L 41.248 184.134 L 41.577 186.294 L 41.910 188.454 L 42.142 190.613 L 42.255 192.773 L 42.259 194.933 L 42.170 197.092 L 42.005 199.252 L 41.789 201.412 L 41.561 203.571 L 41.364 205.731 L 41.241 207.891 M 145.444 156.059 L 145.749 158.218 L 146.205 160.378 L 146.768 162.538 L 147.286 164.697 L 147.374 165.196 M 274.749 154.258 L 274.663 156.059 L 274.409 158.218 L 273.982 160.378 L 273.405 162.538 L 272.817 164.697 M 310.819 162.538 L 310.582 164.697 L 310.185 166.857 L 309.667 169.017 L 309.116 171.176 L 308.715 173.336 L 306.592 179.909 M 272.626 165.725 L 272.417 166.857 L 271.628 169.017 L 270.722 171.176 M 382.875 164.697 L 382.171 166.857 L 381.484 169.017 L 381.038 171.176 M 346.927 171.924 L 346.785 173.336 L 346.342 175.496 L 345.729 177.655 L 345.106 179.815 M 73.611 175.496 L 74.143 177.655 L 74.736 179.815 L 75.188 181.975 M 380.852 173.336 L 380.671 175.496 L 380.544 177.655 L 380.515 179.815 L 380.585 181.975 L 380.727 184.134 L 380.880 186.294 L 380.894 186.498 M 344.804 181.478 L 344.721 181.975 L 344.108 184.134 L 343.302 186.294 L 342.692 188.454 L 342.112 190.613 L 341.212 192.773 M 381.367 190.613 L 381.801 192.773 L 382.253 194.933 L 382.618 197.092 L 382.824 199.252 L 382.850 201.412 L 382.590 203.571 L 381.698 205.731 M 338.436 200.780 L 338.263 201.412 L 337.282 203.571 L 336.351 205.731 M 397.877 206.504 L 396.875 207.891 L 396.005 210.050 L 395.908 212.210 L 396.211 214.370 L 396.980 216.529 L 397.858 218.689 M 41.229 208.473 L 41.188 210.050 L 41.193 212.210 L 41.229 212.854 L 41.319 214.370 L 41.977 216.529 L 43.344 218.689 L 43.352 218.698 L 45.267 220.849 L 45.475 221.019 L 47.533 223.008 L 47.598 223.055 L 49.721 225.047 L 49.854 225.168 L 51.844 226.898 L 52.325 227.328 L 53.966 228.752 L 54.754 229.487 L 56.089 230.732 L 56.988 231.647 L 58.212 232.934 L 58.972 233.807 L 60.335 235.447 L 60.722 235.966 L 62.450 238.126 L 62.458 238.140 L 63.921 240.286 L 64.581 241.630 L 64.958 242.445 L 66.267 244.605 L 66.704 245.895 L 66.993 246.765 L 68.010 248.924 L 68.770 251.084 L 68.827 251.361 L 69.286 253.244 L 70.063 255.403 L 70.726 257.563 L 70.950 258.930 L 71.094 259.723 L 71.737 261.882 L 72.562 264.042 L 73.073 265.848 L 73.187 266.202 L 74.510 268.361 L 75.196 269.355 L 76.321 270.521 L 77.318 271.212 L 79.441 272.623 L 79.573 272.681 L 81.564 273.468 L 83.687 274.518 L 84.754 274.840 L 85.810 275.111 L 87.933 276.095 L 90.056 276.974 M 289.460 212.210 L 287.533 214.370 L 285.363 216.750 L 283.240 218.997 M 134.406 216.529 L 134.637 216.794 L 136.397 218.689 L 136.760 219.074 L 138.498 220.849 L 138.883 221.226 L 140.730 223.008 L 141.006 223.258 L 143.061 225.168 M 145.251 227.193 L 145.428 227.328 L 147.374 228.900 L 148.217 229.487 L 149.497 230.377 L 151.323 231.647 L 151.620 231.832 L 153.743 233.497 L 154.310 233.807 L 155.866 234.698 L 157.950 235.966 L 157.989 235.986 L 160.112 237.294 L 161.850 238.126 L 162.235 238.292 L 164.358 239.572 L 166.078 240.286 L 166.480 240.437 L 168.603 241.573 L 170.716 242.445 M 359.653 235.966 L 358.992 238.126 L 358.222 240.286 L 357.672 242.445 M 172.849 243.294 L 174.972 244.284 L 176.231 244.605 L 177.095 244.820 L 179.218 245.635 L 181.341 246.417 L 183.104 246.765 L 183.464 246.831 L 185.587 247.358 L 187.709 247.980 L 189.832 248.511 L 191.955 248.859 L 192.719 248.924 L 194.078 249.046 L 196.201 249.324 L 198.324 249.615 L 200.447 249.873 L 202.570 250.080 L 204.693 250.229 L 206.816 250.325 L 208.939 250.373 L 211.061 250.378 L 213.184 250.337 L 215.307 250.248 L 217.430 250.102 L 219.553 249.896 L 221.676 249.630 L 223.799 249.324 L 225.922 249.015 L 227.020 248.924 M 357.386 244.605 L 356.927 246.765 L 356.397 248.924 L 355.879 251.084 L 355.461 253.244 M 363.911 269.999 L 363.657 270.521 L 362.810 272.681 L 362.438 274.840 L 362.370 277.000" fill="none" stroke="#FFF200" stroke-width="1" vector-effect="non-scaling-stroke"/><path d="M 236.716 149.071 L 238.352 149.106 M 270.374 149.791 L 274.883 149.887 M 310.986 150.659 L 311.694 150.674 M 236.449 150.597 L 238.265 150.741 M 274.458 153.611 L 274.775 153.637 M 310.975 156.507 L 311.337 156.536 M 235.919 153.637 L 237.769 154.004 M 273.486 161.083 L 273.778 161.141 M 309.439 168.209 L 309.842 168.289 M 235.731 154.718 L 237.437 155.131 M 272.997 163.724 L 273.077 163.743 M 308.446 172.291 L 308.890 172.398 M 235.122 158.205 L 236.305 158.662 M 234.793 160.094 L 235.404 160.380 M 217.164 174.339 L 217.530 175.660 M 213.047 169.986 L 213.977 176.540 M 224.201 248.631 L 224.289 249.252 M 212.183 169.072 L 212.995 176.727 M 220.585 248.256 L 220.743 249.747 M 210.207 166.982 L 210.318 176.938 M 211.104 247.270 L 211.138 250.376 M 208.463 165.139 L 207.386 176.806 M 200.976 246.217 L 200.636 249.892 M 207.659 164.288 L 205.839 176.562 M 195.595 245.658 L 195.073 249.176 M 205.837 162.362 L 201.862 175.601 M 181.270 244.169 L 180.669 246.170 M 205.362 161.859 L 200.680 175.344 M 176.940 243.719 L 176.601 244.697 M 204.544 160.994 L 198.670 174.447 M 169.337 241.620 L 169.242 241.837 M 203.763 160.168 L 196.646 173.482 M 162.435 237.486 L 162.047 238.211 M 202.932 159.290 L 194.530 172.118 M 154.734 232.873 L 154.172 233.731 M 201.604 157.886 L 191.111 169.617 M 142.194 224.303 L 142.165 224.336 M 201.178 157.436 L 190.073 168.684 M 138.653 220.769 L 138.537 220.886 M 200.219 156.421 L 187.969 166.342 M 131.738 211.883 L 130.867 212.588 M 199.791 155.968 L 187.152 165.214 M 130.258 206.834 L 127.836 208.606 M 198.543 154.649 L 185.074 161.878 M 126.322 193.412 L 120.213 196.691 M 198.212 154.299 L 184.556 161.015 M 125.360 190.134 L 118.583 193.467 M 196.820 152.827 L 183.123 157.323 M 121.656 177.502 L 113.323 180.238 M 196.379 152.361 L 182.764 156.219 M 120.583 173.843 L 111.984 176.280 M 195.470 151.400 L 182.120 154.064 M 146.523 161.168 L 146.417 161.189 M 118.506 166.759 L 110.118 168.433 M 193.983 149.827 L 181.638 150.850 M 115.449 156.335 L 108.643 156.899 M 192.193 147.934 L 181.557 147.596 M 145.200 146.440 L 145.167 146.439 M 112.240 145.392 L 108.344 145.269 M 191.137 146.817 L 181.668 145.973 M 145.318 142.730 L 145.274 142.726 M 110.549 139.628 L 108.773 139.470 M 189.000 144.557 L 182.083 143.259 M 146.403 136.560 L 146.071 136.498 M 110.287 129.780 L 109.937 129.714 M 186.538 141.954 L 182.773 140.904 M 112.290 121.240 L 111.880 121.126 M 183.555 138.800 L 183.446 138.760 M 193.209 85.901 L 193.181 85.796 M 196.862 84.974 L 196.842 84.879 M 205.055 88.677 L 204.647 83.746 M 210.955 94.197 L 211.143 83.455 M 214.519 97.532 L 215.741 83.756 M 219.433 102.129 L 222.961 84.785 M 223.114 105.574 L 228.972 86.398 M 226.174 108.436 L 234.300 88.307 M 229.040 111.118 L 239.467 90.644 M 230.423 112.412 L 241.968 92.011 M 233.325 115.127 L 247.149 95.347 M 236.670 118.257 L 253.010 99.729 M 239.391 120.802 L 257.301 103.924 M 240.340 121.691 L 258.696 105.471 M 242.989 124.169 L 262.196 110.002 M 245.901 126.893 L 265.667 114.996 M 249.150 129.933 L 268.618 120.701 M 251.473 132.106 L 270.365 124.638 M 255.645 136.010 L 272.576 131.377 M 237.642 143.757 L 237.874 143.717 M 259.852 139.946 L 274.002 137.518 M 310.254 131.297 L 310.477 131.259 M 237.359 145.383 L 238.169 145.291 M 262.590 142.508 L 274.581 141.142 M 311.010 136.991 L 311.046 136.987" fill="none" stroke="#EC008C" stroke-width="1" vector-effect="non-scaling-stroke"/></svg>