<svg xmlns="http://www.w3.org/2000/svg" viewBox="12 12 396 273" width="396" height="273" shape-rendering="geometricPrecision"><rect x="12" y="12" width="396" height="273" fill="#0b0f14"/><path d="M 20.000 23.190 L 20.386 23.620 L 23.551 27.124 L 23.640 27.239 L 26.649 30.859 L 27.103 31.545 L 29.082 34.479 L 30.654 37.106 L 31.243 38.099 L 33.722 41.718 L 34.206 42.762 L 35.637 45.338 L 37.718 48.958 L 37.757 49.059 L 39.783 52.577 L 41.308 55.728 L 41.635 56.197 L 44.281 59.817 L 44.860 60.978 L 48.189 63.437 L 48.411 63.596 L 51.963 64.082 L 55.514 63.500 L 55.808 63.437 M 327.330 20.000 L 327.917 23.620 L 328.683 27.239 L 328.972 28.654 L 329.374 30.859 L 330.701 34.479 L 332.343 38.099 L 332.523 38.514 L 334.067 41.718 L 336.075 44.903 L 336.349 45.338 L 339.521 48.958 L 339.626 49.071 L 343.178 52.562 M 346.729 55.433 L 348.053 56.197 L 350.280 57.516 L 353.832 59.622 L 354.390 59.817 L 357.383 61.126 L 360.935 62.722 L 364.192 63.437 L 364.486 63.524 L 368.037 64.082 L 371.589 63.596 L 371.811 63.437 M 201.121 70.271 L 204.673 69.947 L 208.224 69.772 L 211.776 69.772 L 215.327 69.947 L 218.879 70.271 L 222.430 70.654 L 222.600 70.676 L 225.981 71.125 L 229.533 72.005 L 233.084 73.184 L 236.636 74.289 L 236.658 74.296 L 240.187 75.548 L 243.738 77.360 L 245.064 77.915 L 247.290 78.884 L 250.841 81.172 L 251.492 81.535 L 254.393 83.308 L 257.091 85.155 L 257.944 85.740 L 261.495 88.775 M 371.589 83.296 L 371.113 85.155 L 369.922 88.775 L 368.953 92.394 L 368.356 96.014 L 368.087 99.634 L 368.038 103.254 L 368.141 106.873 L 368.559 110.493 L 369.473 114.113 L 370.877 117.732 L 371.589 119.714 L 372.181 121.352 L 374.425 124.972 L 375.140 126.271 L 376.600 128.592 L 378.692 131.517 L 379.273 132.211 L 382.243 135.600 L 382.517 135.831 L 385.794 139.034 L 386.604 139.451 L 389.346 141.488 L 392.897 142.481 L 396.449 141.628 L 399.985 139.451 M 50.078 88.775 L 51.047 92.394 L 51.644 96.014 L 51.913 99.634 L 51.962 103.254 L 51.859 106.873 L 51.441 110.493 L 50.527 114.113 L 49.123 117.732 M 265.047 92.152 L 265.296 92.394 L 268.598 95.834 L 268.758 96.014 L 271.990 99.634 L 272.150 99.851 L 274.707 103.254 L 275.701 104.872 L 276.897 106.873 L 279.166 110.493 L 279.252 110.680 L 280.971 114.113 L 282.692 117.732 L 282.804 118.078 L 283.958 121.352 L 285.399 124.972 L 286.333 128.592 L 286.355 128.720 L 287.031 132.211 L 287.799 135.831 L 288.400 139.451 L 288.789 143.070 L 288.975 146.690 L 288.975 150.310 L 288.789 153.930 L 288.400 157.549 L 287.799 161.169 L 287.031 164.789 M 94.579 104.419 L 93.740 106.873 L 92.158 110.493 L 91.040 114.113 M 91.028 114.165 L 90.112 117.732 L 89.068 121.352 L 88.242 124.972 L 87.698 128.592 M 330.932 121.352 L 331.758 124.972 L 332.302 128.592 L 332.523 131.538 M 87.477 131.538 L 87.427 132.211 L 87.182 135.831 L 86.978 139.451 L 86.841 143.070 L 86.773 146.690 L 86.773 150.310 L 86.841 153.930 L 86.978 157.549 L 87.182 161.169 L 87.427 164.789 L 87.477 165.462 L 87.698 168.408 L 88.242 172.028 L 89.068 175.648 L 90.112 179.268 L 91.028 182.835 L 91.040 182.887 L 92.158 186.507 L 93.740 190.127 L 94.579 192.581 L 94.957 193.746 L 96.731 197.366 L 98.131 200.645 L 98.264 200.986 L 100.150 204.606 L 101.682 207.815 L 101.865 208.225 L 104.017 211.845 L 105.234 214.200 L 105.891 215.465 L 108.442 219.085 L 108.785 219.649 L 110.859 222.704 L 112.336 224.767 L 113.498 226.324 L 115.888 229.164 L 116.558 229.944 L 119.439 232.983 L 120.009 233.563 L 122.991 236.433 L 123.814 237.183 L 126.542 239.590 L 127.995 240.803 L 130.093 242.504 L 132.523 244.423 L 133.645 245.268 L 137.122 248.042 L 137.196 248.096 L 140.748 250.906 L 141.942 251.662 L 144.299 253.190 L 147.605 255.282 L 147.850 255.423 L 151.402 257.712 L 153.934 258.901 L 154.953 259.358 L 158.505 261.274 L 161.812 262.521 L 162.056 262.604 L 165.607 263.945 L 169.159 265.325 L 172.447 266.141 L 172.710 266.200 L 176.262 267.117 L 179.813 268.172 L 183.364 269.106 L 186.916 269.744 L 187.039 269.761 L 190.467 270.274 L 194.019 270.939 L 197.570 271.553 L 201.121 272.039 L 204.673 272.364 L 208.224 272.524 L 211.776 272.524 L 215.327 272.364 L 218.879 272.039 L 222.430 271.553 L 225.981 270.939 L 229.533 270.274 L 232.961 269.761 M 132.969 132.211 L 132.201 135.831 L 131.600 139.451 L 131.211 143.070 L 131.025 146.690 L 131.025 150.310 L 131.211 153.930 L 131.600 157.549 L 132.201 161.169 L 132.969 164.789 L 133.645 168.280 M 332.818 135.831 L 333.022 139.451 L 333.159 143.070 L 333.227 146.690 L 333.227 150.310 L 333.159 153.930 L 333.022 157.549 L 332.818 161.169 L 332.573 164.789 M 20.000 139.446 L 20.015 139.451 L 23.551 141.628 L 27.103 142.481 L 30.654 141.488 L 33.396 139.451 M 176.262 142.336 L 176.149 143.070 L 175.808 146.690 L 175.808 150.310 L 176.149 153.930 L 176.262 154.664 L 176.697 157.549 L 178.029 161.169 L 179.784 164.789 M 243.303 157.549 L 241.971 161.169 L 240.216 164.789 L 236.636 169.795 M 182.058 168.408 L 183.364 170.175 L 184.929 172.028 L 186.916 173.971 L 189.017 175.648 L 190.467 176.663 L 194.019 179.037 L 194.617 179.268 L 197.570 180.468 L 201.121 181.838 L 204.673 182.587 L 208.224 182.852 L 211.776 182.852 L 215.327 182.587 L 218.879 181.838 L 222.430 180.468 L 225.383 179.268 M 286.355 168.280 L 286.333 168.408 L 285.399 172.028 L 283.958 175.648 M 332.302 168.408 L 331.758 172.028 L 330.932 175.648 L 329.888 179.268 M 371.589 177.286 L 370.877 179.268 L 369.473 182.887 L 368.559 186.507 L 368.141 190.127 L 368.038 193.746 L 368.087 197.366 L 368.356 200.986 L 368.953 204.606 L 369.922 208.225 L 371.113 211.845 L 371.589 213.704 L 372.209 215.465 L 374.438 219.085 L 375.140 220.327 L 378.692 222.661 L 379.256 222.704 L 382.243 222.898 L 385.647 222.704 M 50.527 182.887 L 51.441 186.507 L 51.859 190.127 L 51.962 193.746 L 51.913 197.366 L 51.644 200.986 L 51.047 204.606 L 50.078 208.225 L 48.887 211.845 M 20.000 220.307 L 23.551 221.003 L 27.103 221.715 L 30.654 222.326 L 34.206 222.700 L 34.353 222.704 L 37.757 222.898 L 40.744 222.704 M 389.346 222.326 L 392.897 221.715 L 396.449 221.003 L 400.000 220.307 M 346.729 241.567 L 343.197 244.423 L 339.626 247.929 L 339.521 248.042 L 336.349 251.662 M 332.523 258.486 L 332.343 258.901 L 330.701 262.521 L 329.374 266.141 M 328.972 268.346 L 328.683 269.761 L 327.917 273.380 L 327.330 277.000" fill="none" stroke="#00AEEF" stroke-width="1" vector-effect="non-scaling-stroke"/></svg>