<svg xmlns="http://www.w3.org/2000/svg" viewBox="13.283055862677532 12 394.71694413732246 272.9873500080495" width="394.71694413732246" height="272.9873500080495" shape-rendering="geometricPrecision"><rect x="13.283055862677532" y="12" width="394.71694413732246" height="272.9873500080495" fill="#0b0f14"/><path d="M 21.283 20.000 L 23.551 22.627 L 24.541 23.620 L 27.103 25.944 L 29.045 27.239 L 30.654 28.234 L 34.206 30.560 L 35.394 30.859 L 37.757 31.495 L 41.308 32.665 L 44.860 33.408 L 48.411 33.753 L 51.963 33.835 L 55.514 33.703 L 59.065 33.291 L 62.617 32.403 L 66.168 30.963 L 66.396 30.859 M 176.262 21.717 L 179.813 20.705 L 183.364 20.104 L 184.715 20.000 M 234.427 20.000 L 236.636 20.213 L 240.187 20.933 L 243.738 21.937 L 247.290 23.002 L 250.539 23.620 L 250.841 23.670 L 254.393 24.743 L 257.944 26.446 L 260.517 27.239 L 261.495 27.519 L 265.047 29.512 L 268.109 30.859 L 268.598 31.048 L 272.150 33.358 L 274.481 34.479 L 275.701 35.038 L 279.252 37.683 L 280.070 38.099 L 282.804 39.650 L 286.017 41.718 L 286.355 41.915 L 289.907 44.906 L 290.550 45.338 L 293.458 47.575 L 295.199 48.958 L 297.009 50.467 L 299.319 52.577 L 300.561 53.739 L 303.010 56.197 L 304.112 57.345 L 306.388 59.817 L 307.664 61.285 L 309.479 63.437 L 311.215 65.611 L 312.315 67.056 L 314.766 70.223 L 315.081 70.676 L 318.136 74.296 L 318.318 74.600 L 320.564 77.915 L 321.869 80.281 L 322.521 81.535 L 325.068 85.155 L 325.421 86.031 L 326.593 88.775 L 328.655 92.394 L 328.972 93.455 L 329.769 96.014 L 331.589 99.634 L 332.523 102.936 L 332.601 103.254 L 333.885 106.873 L 335.407 110.493 L 336.075 113.651 L 336.165 114.113 L 337.166 117.732 L 338.354 121.352 L 339.217 124.972 L 339.620 128.592 L 339.626 128.689 L 339.869 132.211 L 340.169 135.831 L 340.395 139.451 L 340.529 143.070 L 340.585 146.690 L 340.581 150.310 L 340.520 153.930 L 340.402 157.549 L 340.219 161.169 L 339.966 164.789 L 339.687 168.408 M 349.778 20.000 L 349.848 23.620 L 350.280 26.986 L 350.323 27.239 L 353.486 30.859 L 353.832 31.017 L 357.383 32.548 L 360.935 33.465 L 364.486 33.863 L 368.037 33.965 L 371.589 33.841 L 375.140 33.437 L 378.692 32.628 L 382.243 31.445 L 384.517 30.859 M 76.822 42.461 L 76.302 45.338 L 75.350 48.958 L 74.318 52.577 L 73.399 56.197 M 385.794 74.214 L 385.757 74.296 L 384.344 77.915 L 383.349 81.535 L 383.842 85.155 L 385.794 87.873 L 386.414 88.775 L 389.346 90.517 L 392.724 92.394 L 392.897 92.445 L 396.449 94.041 L 400.000 95.620 M 51.963 85.580 L 49.529 88.775 L 48.557 92.394 L 48.552 96.014 L 48.858 99.634 L 49.369 103.254 L 49.882 106.873 L 50.215 110.493 L 50.258 114.113 L 49.940 117.732 L 49.234 121.352 L 48.447 124.972 M 201.121 87.990 L 204.673 87.419 L 208.224 87.104 L 211.776 87.080 L 215.327 87.337 L 218.879 87.850 L 222.430 88.498 L 224.509 88.775 L 225.981 88.961 L 229.533 90.122 L 233.084 91.844 L 234.786 92.394 L 236.636 92.999 L 240.187 95.347 L 241.595 96.014 L 243.738 97.101 L 247.224 99.634 L 247.290 99.676 L 250.841 102.897 L 251.249 103.254 L 254.393 106.367 L 254.850 106.873 L 257.944 110.396 L 258.015 110.493 L 261.000 114.113 L 261.495 115.041 L 262.979 117.732 L 265.033 121.352 M 371.556 92.394 L 371.574 96.014 L 371.344 99.634 L 370.835 103.254 L 370.245 106.873 L 369.828 110.493 L 369.738 114.113 L 370.062 117.732 L 370.817 121.352 L 371.589 124.971 M 83.724 114.113 L 82.568 117.732 L 81.371 121.352 L 80.609 124.972 M 119.439 116.697 L 119.195 117.732 L 117.895 121.352 L 116.643 124.972 L 115.945 128.592 M 266.606 124.972 L 268.241 128.592 L 268.598 130.537 L 268.909 132.211 L 269.894 135.831 L 270.772 139.451 L 271.342 143.070 L 271.620 146.690 L 271.660 150.310 L 271.459 153.930 L 270.938 157.549 L 270.035 161.169 L 268.960 164.789 M 80.320 128.592 L 79.989 132.211 L 79.643 135.831 L 79.364 139.451 L 79.180 143.070 L 79.101 146.690 L 79.130 150.310 L 79.253 153.930 L 79.455 157.549 L 79.727 161.169 L 80.047 164.789 L 80.344 168.408 L 80.374 168.796 M 115.888 129.213 L 115.581 132.211 L 115.020 135.831 L 114.501 139.451 L 114.121 143.070 L 113.905 146.690 L 113.854 150.310 L 113.969 153.930 L 114.264 157.549 L 114.743 161.169 L 115.348 164.789 L 115.866 168.408 L 115.888 168.572 L 116.419 172.028 L 117.658 175.648 L 119.061 179.268 L 119.439 180.870 L 119.927 182.887 L 121.766 186.507 L 122.991 189.733 L 123.121 190.127 L 125.203 193.746 L 126.542 196.546 L 126.906 197.366 L 129.624 200.986 L 130.093 201.798 L 131.903 204.606 L 133.645 207.089 L 134.438 208.225 L 137.196 211.517 L 137.463 211.845 L 140.748 215.357 L 140.850 215.465 L 144.299 218.917 L 144.487 219.085 L 147.850 222.148 L 148.593 222.704 L 151.402 224.852 L 153.647 226.324 L 154.953 227.119 L 158.505 229.814 L 158.770 229.944 L 162.056 231.785 L 165.490 233.563 L 165.607 233.613 L 169.159 235.553 L 172.710 237.173 M 304.606 132.211 L 305.175 135.831 L 305.651 139.451 L 305.970 143.070 L 306.118 146.690 L 306.095 150.310 L 305.900 153.930 L 305.534 157.549 L 305.023 161.169 L 304.458 164.789 M 150.949 132.211 L 149.924 135.831 L 149.097 139.451 L 148.618 143.070 L 148.432 146.690 L 148.480 150.310 L 148.775 153.930 L 149.373 157.549 L 150.272 161.169 L 151.206 164.789 L 151.402 165.853 M 186.916 135.294 L 186.644 135.831 L 184.646 139.451 L 183.566 143.070 M 235.133 139.451 L 236.302 143.070 L 236.619 146.690 L 236.625 150.310 L 236.347 153.930 L 235.231 157.549 L 233.279 161.169 M 41.308 141.101 L 40.420 143.070 L 38.817 146.690 L 38.741 150.310 L 40.253 153.930 L 41.308 156.240 L 41.699 157.549 L 44.073 161.169 L 44.860 163.045 L 45.468 164.789 L 47.480 168.408 L 48.411 171.831 L 48.456 172.028 L 49.287 175.648 L 50.023 179.268 L 50.340 182.887 L 50.257 186.507 L 49.853 190.127 L 49.267 193.746 L 48.736 197.366 L 48.462 200.986 L 48.466 204.606 L 49.328 208.225 L 51.963 211.587 L 52.122 211.845 L 55.514 215.075 L 55.883 215.465 L 59.065 218.290 L 59.861 219.085 L 62.617 221.786 L 63.412 222.704 L 66.168 226.009 L 66.380 226.324 L 69.169 229.944 L 69.720 231.354 L 70.582 233.563 L 72.411 237.183 L 73.271 240.794 M 183.364 146.195 L 183.331 146.690 L 183.321 150.310 L 183.364 151.016 L 183.532 153.930 L 184.575 157.549 L 186.601 161.169 L 186.916 161.793 L 188.799 164.789 L 190.467 166.777 L 192.179 168.408 L 194.019 169.825 L 197.457 172.028 L 197.570 172.083 L 201.121 173.825 L 204.673 175.078 L 208.224 175.481 L 211.776 175.455 L 215.327 174.964 L 218.879 173.602 L 222.430 172.014 L 218.879 172.885 M 396.449 144.080 L 395.180 146.690 L 395.188 150.310 L 396.449 152.949 L 396.699 153.930 L 399.946 157.549 L 400.000 157.590 M 304.079 168.408 L 303.429 172.028 L 302.207 175.648 L 300.877 179.268 M 339.626 169.299 L 339.434 172.028 L 338.738 175.648 L 337.595 179.268 L 336.400 182.887 M 81.404 175.648 L 82.575 179.268 L 83.706 182.887 L 83.925 184.003 M 370.914 175.648 L 370.135 179.268 L 369.740 182.887 L 369.742 186.507 L 370.066 190.127 L 370.592 193.746 L 371.114 197.366 L 371.424 200.986 L 371.408 204.606 L 370.421 208.225 M 336.075 184.519 L 335.680 186.507 L 334.150 190.127 L 332.675 193.746 M 385.794 208.907 L 383.684 211.845 L 383.274 215.465 L 384.353 219.085 L 385.790 222.704 M 387.400 226.324 L 389.346 229.736 L 389.431 229.944 L 392.220 233.563 L 392.897 234.489 L 395.152 237.183 L 396.449 238.466 L 399.298 240.803 L 400.000 241.265 M 176.262 238.509 L 179.813 240.160 L 182.852 240.803 L 183.364 240.901 L 186.916 241.804 L 190.467 242.820 L 194.019 243.602 L 197.570 244.091 L 201.121 244.343 L 204.454 244.423 L 204.673 244.428 L 208.224 244.473 L 211.776 244.479 L 215.327 244.439 L 216.268 244.423 M 73.978 244.423 L 74.984 248.042 L 76.046 251.662 L 76.822 255.079 L 76.880 255.282 L 79.465 258.901 L 80.374 259.588 L 83.925 262.211 L 84.676 262.521 L 87.477 263.396 L 91.028 265.398 L 93.084 266.141 L 94.579 266.597 L 98.131 268.897 L 99.873 269.761 L 101.682 270.683 L 105.125 273.380 L 105.234 273.462 L 108.785 276.987 M 222.430 244.138 L 225.981 243.617 L 229.533 242.739 L 233.084 241.640 M 346.707 240.803 L 345.909 244.423 L 344.869 248.042 L 343.850 251.662" fill="none" stroke="#f472b6" stroke-width="1" vector-effect="non-scaling-stroke"/></svg>