<svg xmlns="http://www.w3.org/2000/svg" viewBox="12 12 396 273" width="396" height="273" shape-rendering="geometricPrecision"><rect x="12" y="12" width="396" height="273" fill="#0b0f14"/><path d="M 57.715 20.000 L 57.573 22.160 L 57.079 24.319 L 56.170 26.479 M 262.604 20.000 L 264.134 20.479 L 266.257 21.708 L 267.543 22.160 L 268.380 22.442 L 270.503 23.761 L 271.890 24.319 L 272.626 24.601 L 274.749 26.022 L 275.808 26.479 L 276.872 26.940 L 278.994 28.431 L 279.449 28.639 L 281.117 29.489 L 283.225 30.798 M 360.391 20.000 L 361.788 20.201 L 363.911 20.604 L 366.034 20.908 L 368.156 21.084 L 370.279 21.146 L 372.402 21.108 L 374.525 20.978 L 376.648 20.760 L 378.771 20.470 L 380.894 20.161 L 382.567 20.000 M 20.000 30.269 L 21.996 30.798 L 22.123 30.827 L 24.246 31.381 L 26.369 32.003 L 28.492 32.460 L 30.615 32.733 L 32.737 32.870 L 34.860 32.925 L 36.983 32.933 L 39.106 32.903 L 41.229 32.810 L 43.352 32.608 L 45.475 32.241 L 47.598 31.676 L 49.721 30.966 L 50.781 30.798 M 285.363 32.233 L 286.714 32.958 L 287.486 33.364 L 289.609 35.020 L 289.779 35.118 L 291.732 36.453 L 293.012 37.277 L 293.855 37.822 L 295.887 39.437 L 295.978 39.502 L 298.101 41.453 L 298.283 41.597 L 300.223 43.299 L 300.762 43.756 L 302.346 45.174 L 303.166 45.916 L 304.469 47.126 L 305.466 48.076 L 306.592 49.164 L 307.670 50.235 L 308.715 51.288 L 309.786 52.395 L 310.838 53.501 L 311.816 54.555 L 312.961 55.810 L 313.761 56.714 L 315.084 58.224 L 315.627 58.874 L 317.207 60.725 L 317.450 61.034 L 319.330 63.186 M 66.704 37.748 L 65.957 39.437 L 64.985 41.597 L 64.581 43.756 L 64.296 45.916 L 63.843 48.076 L 63.316 50.235 L 62.797 52.395 M 62.458 54.547 L 62.457 54.555 L 62.043 56.714 L 61.226 58.874 L 60.419 61.034 M 393.631 62.157 L 393.282 63.193 L 392.244 65.353 L 391.597 67.513 M 321.190 65.353 L 321.453 65.744 L 322.729 67.513 L 323.575 68.816 L 324.111 69.672 L 325.698 71.825 M 391.508 68.562 L 391.372 69.672 L 391.228 71.832 L 391.463 73.992 L 391.508 74.149 L 392.191 76.151 L 393.631 77.847 L 394.026 78.311 L 395.754 79.530 L 397.272 80.471 L 397.877 80.707 L 400.000 82.073 M 327.264 73.992 L 327.821 75.050 L 328.396 76.151 L 329.885 78.311 L 329.944 78.439 L 331.046 80.471 L 332.067 82.498 L 332.122 82.630 L 333.376 84.790 L 334.190 86.724 L 334.270 86.950 L 335.410 89.109 L 336.313 91.264 M 51.844 75.966 L 51.701 76.151 L 49.722 78.311 L 47.656 80.471 M 23.078 80.471 L 23.885 82.630 L 24.163 84.790 L 24.084 86.950 L 23.224 89.109 M 200.447 84.388 L 202.570 84.023 L 204.693 83.720 L 206.816 83.515 L 208.939 83.413 L 211.061 83.404 L 213.184 83.487 L 215.307 83.662 L 217.430 83.930 L 219.553 84.273 L 221.676 84.624 L 223.260 84.790 L 223.799 84.842 L 225.922 85.289 L 228.045 86.046 L 230.168 86.801 L 230.832 86.950 L 232.291 87.292 L 234.413 88.364 L 236.403 89.109 L 236.536 89.151 L 238.659 90.253 L 240.718 91.269 L 240.782 91.295 L 242.905 92.603 L 244.490 93.429 L 245.028 93.691 L 247.151 95.372 L 247.513 95.588 L 249.274 96.790 L 250.616 97.748 L 251.397 98.313 L 253.252 99.908 L 253.520 100.133 L 255.521 102.067 L 255.642 102.187 L 257.604 104.227 L 257.765 104.411 L 259.508 106.387 L 259.888 106.888 L 261.163 108.546 L 262.011 109.790 L 262.604 110.706 L 264.134 112.837 L 264.151 112.866 L 265.674 115.025 L 266.257 116.253 L 266.683 117.185 L 268.103 119.345 L 268.380 120.131 L 268.882 121.504 L 270.082 123.664 L 270.503 125.199 L 270.663 125.824 L 271.540 127.983 L 272.351 130.143 L 272.626 131.814 L 272.701 132.303 L 273.200 134.462 L 273.780 136.622 L 274.256 138.782 L 274.569 140.941 L 274.728 143.101 L 274.749 143.823 L 274.792 145.261 L 274.863 147.420 L 274.889 149.580 L 274.856 151.739 L 274.779 153.899 M 39.106 89.938 L 38.406 91.269 L 37.461 93.429 L 37.190 95.588 L 37.213 97.748 L 37.417 99.908 L 37.779 102.067 L 38.229 104.227 L 38.655 106.387 L 38.966 108.546 L 39.106 110.632 L 39.111 110.706 L 39.243 112.866 L 39.392 115.025 L 39.486 117.185 L 39.486 119.345 L 39.383 121.504 L 39.208 123.664 M 337.189 93.429 L 338.242 95.588 L 338.436 96.347 L 338.811 97.748 L 339.846 99.908 L 340.555 102.067 M 378.719 91.269 L 378.578 93.429 L 378.394 95.588 L 378.211 97.748 L 378.067 99.908 L 377.991 102.067 L 378.004 104.227 L 378.121 106.387 L 378.340 108.546 L 378.620 110.706 L 378.771 112.293 M 168.603 98.316 L 166.480 100.062 L 164.358 102.121 L 162.235 104.283 L 160.112 106.570 L 157.989 109.053 M 343.311 110.706 L 344.146 112.866 L 344.732 115.025 L 344.804 115.544 L 345.055 117.185 L 345.649 119.345 L 346.262 121.504 L 346.717 123.664 L 346.927 125.774 M 379.284 115.025 L 380.121 117.185 L 380.871 119.345 L 380.894 119.425 M 113.408 116.528 L 113.271 117.185 L 112.525 119.345 L 111.737 121.504 L 111.292 123.664 L 110.947 125.824 L 110.393 127.983 L 109.851 130.143 L 109.440 132.303 L 109.200 134.462 M 74.899 117.185 L 74.231 119.345 L 73.582 121.504 L 73.158 123.664 M 39.106 125.167 L 39.065 125.824 L 38.710 127.983 L 38.031 130.143 L 37.244 132.303 M 309.257 125.824 L 309.838 127.983 L 310.342 130.143 L 310.684 132.303 L 310.838 134.407 M 72.963 125.824 L 72.628 127.983 L 72.247 130.143 L 71.896 132.303 L 71.613 134.462 L 71.405 136.622 L 71.263 138.782 L 71.174 140.941 L 71.127 143.101 L 71.111 145.261 L 71.124 147.420 L 71.164 149.580 L 71.233 151.739 L 71.333 153.899 L 71.466 156.059 L 71.632 158.218 L 71.831 160.378 L 72.060 162.538 L 72.314 164.697 L 72.583 166.857 L 72.842 169.017 L 73.045 171.176 L 73.073 171.577 M 347.139 127.983 L 347.425 130.143 L 347.712 132.303 L 347.963 134.462 L 348.164 136.622 L 348.317 138.782 L 348.428 140.941 L 348.504 143.101 L 348.553 145.261 L 348.580 147.420 L 348.587 149.580 L 348.575 151.739 L 348.542 153.899 L 348.486 156.059 L 348.402 158.218 L 348.280 160.378 L 348.111 162.538 L 347.886 164.697 L 347.604 166.857 L 347.290 169.017 L 347.008 171.176 M 36.983 133.493 L 36.770 134.462 L 35.747 136.622 L 34.861 138.782 L 33.890 140.941 L 32.773 143.101 M 147.146 132.303 L 146.563 134.462 L 145.995 136.622 L 145.583 138.782 L 145.346 140.941 M 109.162 135.192 L 109.084 136.622 L 108.896 138.782 L 108.697 140.941 L 108.524 143.101 L 108.395 145.261 L 108.319 147.420 L 108.302 149.580 L 108.342 151.739 L 108.441 153.899 L 108.594 156.059 L 108.788 158.218 L 108.996 160.378 L 109.157 162.538 L 109.162 162.609 L 109.326 164.697 L 109.700 166.857 L 110.244 169.017 L 110.845 171.176 L 111.273 173.336 L 111.285 173.410 L 111.675 175.496 L 112.471 177.655 L 113.245 179.815 L 113.408 180.599 L 113.704 181.975 L 114.669 184.134 L 115.501 186.294 L 115.531 186.398 L 116.230 188.454 L 117.393 190.613 L 117.654 191.416 L 118.119 192.773 L 119.454 194.933 L 119.777 195.752 L 120.334 197.092 L 121.779 199.252 L 121.899 199.507 L 122.952 201.412 L 124.022 203.238 L 124.199 203.571 L 125.920 205.731 L 126.145 206.104 L 127.356 207.891 L 128.268 209.232 L 128.820 210.050 L 130.391 212.031 L 130.522 212.210 L 132.486 214.370 M 310.990 136.622 L 311.186 138.782 L 311.376 140.941 L 311.532 143.101 L 311.640 145.261 L 311.691 147.420 L 311.685 149.580 L 311.619 151.739 L 311.497 153.899 L 311.327 156.059 L 311.127 158.218 L 310.933 160.378 M 183.464 138.695 L 183.438 138.782 L 182.758 140.941 L 182.072 143.101 L 181.675 145.261 L 181.514 147.420 L 181.505 149.580 L 181.642 151.739 L 182.009 153.899 L 182.679 156.059 L 183.403 158.218 L 183.464 158.431 L 184.116 160.378 L 185.467 162.538 L 185.587 162.775 L 186.768 164.697 L 187.709 166.039 L 188.328 166.857 L 189.832 168.484 L 190.392 169.017 L 191.955 170.363 L 193.116 171.176 L 194.078 171.784 L 196.201 173.290 L 196.314 173.336 L 198.324 174.292 L 200.447 175.335 L 201.272 175.496 L 202.570 175.764 L 204.693 176.375 L 206.816 176.819 L 208.939 177.017 L 211.061 176.993 L 213.184 176.745 L 215.307 176.255 L 217.430 175.654 L 218.182 175.496 M 390.443 138.782 L 391.076 140.941 L 391.161 143.101 L 390.777 145.261 L 389.905 147.420 M 237.720 143.101 L 238.156 145.261 L 238.345 147.420 L 238.355 149.580 L 238.191 151.739 L 237.788 153.899 L 237.125 156.059 M 145.197 145.261 L 145.163 147.420 L 145.175 149.580 L 145.227 151.739 L 145.251 152.654 M 30.615 147.703 L 29.947 149.580 L 29.064 151.739 L 28.730 153.899 L 28.845 156.059 L 29.531 158.218 L 30.558 160.378 L 30.615 160.496 L 31.533 162.538 L 32.737 164.640 L 32.760 164.697 L 34.114 166.857 L 34.860 168.376 L 35.122 169.017 L 36.563 171.176 L 36.983 172.247 L 37.385 173.336 L 38.651 175.496 L 39.106 177.020 L 39.279 177.655 L 40.190 179.815 L 40.967 181.975 L 41.229 183.798 L 41.274 184.134 L 41.614 186.294 L 41.955 188.454 L 42.188 190.613 L 42.293 192.773 L 42.283 194.933 L 42.175 197.092 L 41.991 199.252 L 41.759 201.412 L 41.523 203.571 L 41.333 205.731 L 41.231 207.891 M 145.447 156.059 L 145.766 158.218 L 146.255 160.378 L 146.846 162.538 L 147.328 164.697 L 147.374 164.981 M 274.749 154.712 L 274.700 156.059 L 274.471 158.218 L 274.039 160.378 L 273.423 162.538 L 272.809 164.697 M 310.813 162.538 L 310.584 164.697 L 310.180 166.857 L 309.638 169.017 L 309.077 171.176 M 272.626 165.771 L 272.443 166.857 L 271.625 169.017 L 270.689 171.176 M 382.923 164.697 L 382.233 166.857 L 381.500 169.017 L 381.036 171.176 M 346.927 172.135 L 346.828 173.336 L 346.410 175.496 L 345.775 177.655 L 345.119 179.815 M 73.564 175.496 L 74.110 177.655 L 74.729 179.815 L 75.180 181.975 L 75.196 182.067 M 380.865 173.336 L 380.692 175.496 L 380.556 177.655 L 380.516 179.815 L 380.579 181.975 L 380.718 184.134 L 380.868 186.294 L 380.894 186.769 M 344.804 181.647 L 344.755 181.975 L 344.164 184.134 L 343.309 186.294 L 342.695 188.454 L 342.142 190.613 L 341.190 192.773 M 381.298 190.613 L 381.741 192.773 L 382.218 194.933 L 382.602 197.092 L 382.814 199.252 L 382.841 201.412 L 382.579 203.571 L 381.644 205.731 M 338.436 200.731 L 338.265 201.412 L 337.246 203.571 L 336.334 205.731 M 397.877 206.504 L 396.875 207.891 L 395.968 210.050 L 395.874 212.210 L 396.162 214.370 L 396.962 216.529 L 397.855 218.689 M 41.229 208.006 L 41.180 210.050 L 41.183 212.210 L 41.229 213.182 L 41.288 214.370 L 41.930 216.529 L 43.342 218.689 L 43.352 218.701 L 45.289 220.849 L 45.475 220.999 L 47.547 223.008 L 47.598 223.044 L 49.721 225.061 L 49.839 225.168 L 51.844 226.926 L 52.297 227.328 L 53.966 228.779 L 54.729 229.487 L 56.089 230.755 L 56.965 231.647 L 58.212 232.962 L 58.942 233.807 L 60.335 235.487 L 60.686 235.966 L 62.448 238.126 L 62.458 238.144 L 63.922 240.286 L 64.581 241.685 L 64.912 242.445 L 66.266 244.605 L 66.704 245.982 L 66.943 246.765 L 67.987 248.924 L 68.765 251.084 L 68.827 251.413 L 69.238 253.244 L 70.052 255.403 L 70.741 257.563 L 70.950 258.959 L 71.076 259.723 L 71.735 261.882 L 72.606 264.042 L 73.073 265.818 L 73.189 266.202 L 74.570 268.361 L 75.196 269.289 L 76.392 270.521 L 77.318 271.141 L 79.441 272.608 L 79.619 272.681 L 81.564 273.403 L 83.687 274.511 L 84.844 274.840 L 85.810 275.069 L 87.933 276.098 L 90.056 276.985 M 378.738 210.050 L 376.650 212.210 L 374.525 214.371 L 372.402 216.534 L 370.279 218.736 L 368.156 221.048 M 134.445 216.529 L 134.637 216.751 L 136.437 218.689 L 136.760 219.034 L 138.531 220.849 L 138.883 221.196 L 140.751 223.008 L 141.006 223.239 L 143.065 225.168 M 327.821 222.049 L 327.307 223.008 L 325.705 225.168 L 324.093 227.328 M 145.251 227.222 L 145.392 227.328 L 147.374 228.945 L 148.174 229.487 L 149.497 230.391 L 151.324 231.647 L 151.620 231.825 L 153.743 233.533 L 154.269 233.807 L 155.866 234.695 L 157.957 235.966 M 321.453 231.212 L 321.163 231.647 L 319.336 233.807 L 317.513 235.966 M 361.559 231.647 L 360.390 233.807 L 359.665 235.966 L 357.542 241.222 M 160.112 237.300 L 161.889 238.126 L 162.235 238.267 L 164.358 239.582 L 166.109 240.286 L 166.480 240.417 L 168.603 241.592 L 170.705 242.445 L 170.726 242.452 L 172.849 243.316 L 174.972 244.343 L 176.093 244.605 L 177.095 244.837 L 179.218 245.698 L 181.341 246.495 L 182.912 246.765 L 183.464 246.854 L 185.587 247.403 L 187.709 248.059 L 189.832 248.589 L 191.955 248.894 L 192.376 248.924 L 194.078 249.058 L 196.201 249.334 L 198.324 249.628 L 200.447 249.890 L 202.570 250.097 L 204.693 250.245 L 206.816 250.338 L 208.939 250.386 L 211.061 250.393 L 213.184 250.357 L 215.307 250.275 L 217.430 250.134 L 219.553 249.927 L 221.676 249.652 L 223.799 249.334 L 225.922 249.015 L 227.215 248.924 M 357.428 244.605 L 356.978 246.765 L 356.414 248.924 L 355.860 251.084 L 355.450 253.244 M 291.732 260.391 L 289.631 261.882 L 287.486 263.441 L 286.368 264.042 M 363.911 269.935 L 363.641 270.521 L 362.775 272.681 L 362.406 274.840 L 362.351 277.000" fill="none" stroke="#e5e7eb" stroke-width="1" vector-effect="non-scaling-stroke"/></svg>