<svg xmlns="http://www.w3.org/2000/svg" viewBox="12 12 396 273" width="396" height="273" shape-rendering="geometricPrecision"><rect x="12" y="12" width="396" height="273" fill="#0b0f14"/><path d="M 200.621 20.000 L 200.776 22.197 L 200.776 24.393 L 200.630 26.590 L 200.364 28.786 L 200.042 30.983 M 237.847 20.000 L 237.151 22.197 L 236.564 24.393 L 236.194 26.590 L 236.003 28.786 L 235.927 30.983 L 235.921 33.179 L 235.976 35.376 L 236.113 37.573 L 236.364 39.769 L 236.749 41.966 L 237.249 44.162 L 237.776 46.359 L 238.107 48.417 M 280.722 20.000 L 280.828 20.051 L 283.077 21.493 L 284.535 22.197 L 285.325 22.612 L 287.574 24.223 L 287.933 24.393 L 289.822 25.593 L 291.512 26.590 L 292.071 26.994 L 294.307 28.786 M 316.564 20.000 L 316.685 22.197 L 316.800 24.393 L 316.805 24.460 M 350.452 20.000 L 350.533 20.221 L 351.458 22.197 L 352.781 24.063 L 353.043 24.393 L 355.030 26.249 L 355.538 26.590 L 357.278 27.601 L 359.527 28.736 L 359.728 28.786 L 361.775 29.306 L 364.024 29.927 L 366.272 30.301 L 368.521 30.453 L 370.769 30.440 L 373.018 30.285 L 375.266 29.987 L 377.515 29.565 L 379.763 29.097 L 381.897 28.786 M 114.438 22.343 L 112.198 24.393 L 109.941 26.417 L 109.729 26.590 M 136.880 24.393 L 136.155 26.590 L 135.923 28.786 L 136.195 30.983 L 136.764 33.179 L 136.923 33.768 M 199.882 32.451 L 199.812 33.179 L 199.351 35.376 L 198.616 37.573 L 197.857 39.769 M 298.567 33.179 L 298.817 33.895 L 299.459 35.376 L 300.090 37.573 L 300.050 39.769 L 299.460 41.966 M 197.633 40.785 L 197.377 41.966 L 196.435 44.162 L 195.489 46.359 M 238.622 50.752 L 239.428 52.949 L 240.203 55.145 L 240.355 55.837 M 26.746 56.248 L 26.010 57.342 L 25.760 59.538 L 26.191 61.735 L 26.706 63.932 L 26.746 64.091 L 27.137 66.128 L 27.991 68.325 L 28.837 70.521 L 28.994 71.112 L 29.370 72.718 L 30.360 74.915 L 31.206 77.111 L 31.243 77.232 L 31.909 79.308 L 33.018 81.504 L 33.491 83.013 L 33.691 83.701 L 34.796 85.897 L 35.738 88.094 M 190.888 56.055 L 190.192 57.342 L 188.641 59.538 L 186.700 61.735 M 289.822 55.394 L 287.585 57.342 L 285.325 59.129 L 284.650 59.538 M 96.450 58.993 L 94.201 59.972 L 91.953 61.935 L 89.704 64.408 M 98.698 58.263 L 100.947 58.243 L 103.195 58.803 L 105.412 59.538 M 107.692 60.640 L 109.494 61.735 L 109.941 61.951 L 112.189 63.868 L 112.258 63.932 L 114.438 65.933 L 114.614 66.128 L 116.686 68.263 M 118.728 70.521 L 118.935 70.804 L 120.273 72.718 L 121.183 74.186 L 121.570 74.915 L 123.173 77.111 L 123.432 77.668 L 124.206 79.308 L 125.535 81.504 L 125.680 81.902 L 126.401 83.701 L 127.600 85.897 L 127.929 87.035 L 128.247 88.094 L 129.268 90.291 L 130.071 92.487 L 130.178 93.068 L 130.539 94.684 L 131.276 96.880 L 131.901 99.077 L 132.264 101.274 L 132.395 103.470 L 132.372 105.667 L 132.041 107.863 L 130.841 110.060 M 330.296 74.457 L 332.544 74.784 L 332.993 74.915 L 334.793 75.454 L 336.927 77.111 L 337.041 77.189 L 338.973 79.308 L 339.290 79.699 L 340.367 81.504 L 341.538 83.505 L 341.613 83.701 L 342.862 85.897 L 343.787 88.008 L 343.813 88.094 L 344.753 90.291 L 345.797 92.487 L 346.036 93.369 L 346.364 94.684 L 347.310 96.880 L 348.136 99.077 L 348.284 99.771 L 348.615 101.274 L 349.455 103.470 L 350.248 105.667 L 350.533 107.170 L 350.665 107.863 L 351.334 110.060 L 352.099 112.256 L 352.666 114.453 L 352.781 115.359 L 352.978 116.650 L 353.500 118.846 L 354.033 121.043 L 354.429 123.239 L 354.629 125.436 L 354.606 127.632 L 354.218 129.829 L 353.185 132.026 M 190.888 80.807 L 193.136 80.786 L 195.385 80.996 L 197.633 81.285 L 199.882 81.502 M 202.130 81.712 L 204.379 82.057 L 206.627 82.446 L 208.876 82.813 L 211.124 83.114 L 213.373 83.332 L 215.621 83.475 L 217.870 83.557 L 220.118 83.596 L 222.367 83.605 L 224.615 83.593 L 226.864 83.570 L 229.112 83.548 L 231.361 83.547 L 233.609 83.592 L 235.858 83.691 L 235.995 83.701 L 238.107 83.887 L 240.355 84.580 L 242.604 85.827 L 242.709 85.897 L 244.852 87.551 L 245.348 88.094 L 247.101 89.936 L 247.338 90.291 L 249.279 92.487 L 249.349 92.578 L 250.902 94.684 L 251.598 95.699 L 252.320 96.880 L 253.846 98.929 L 253.937 99.077 L 255.807 101.274 L 256.095 101.675 L 257.454 103.470 L 258.343 104.627 L 259.153 105.667 L 260.592 107.355 L 261.029 107.863 L 262.840 109.810 L 263.081 110.060 L 265.089 112.097 L 265.258 112.256 L 267.337 114.299 L 267.514 114.453 L 269.586 116.471 L 269.795 116.650 L 271.834 118.690 L 272.010 118.846 L 274.083 121.040 M 36.700 90.291 L 37.874 92.487 L 37.988 92.816 L 38.787 94.684 L 40.087 96.880 L 40.237 97.278 L 41.099 99.077 L 42.439 101.274 L 42.485 101.384 L 43.708 103.470 L 44.734 105.365 L 44.914 105.667 L 46.579 107.863 L 46.982 108.698 L 47.842 110.060 L 49.231 112.233 L 49.246 112.256 L 50.691 114.453 L 51.479 116.397 L 51.589 116.650 L 52.501 118.846 L 53.140 121.043 L 53.409 123.239 L 53.464 125.436 L 53.394 127.632 L 53.236 129.829 L 53.018 132.026 L 52.776 134.222 L 52.545 136.419 L 52.346 138.615 L 52.184 140.812 L 52.049 143.009 L 51.918 145.205 L 51.766 147.402 L 51.577 149.598 M 71.339 101.274 L 70.587 103.470 L 70.017 105.667 L 69.761 107.863 L 69.809 110.060 L 70.358 112.256 L 71.635 114.453 L 71.716 114.558 M 294.033 112.256 L 293.387 114.453 L 293.002 116.650 L 293.071 118.846 L 293.779 121.043 L 294.320 122.213 M 145.865 118.846 L 145.419 121.043 L 145.133 123.239 L 145.018 125.436 L 145.007 127.632 L 145.047 129.829 L 145.102 132.026 L 145.147 134.222 L 145.164 136.419 L 145.141 138.615 L 145.067 140.812 L 144.936 143.009 L 144.742 145.205 L 144.491 147.402 L 144.200 149.598 L 143.910 151.795 L 143.687 153.991 M 275.856 123.239 L 276.331 124.492 L 276.713 125.436 L 277.488 127.632 L 277.791 129.829 L 277.760 132.026 L 277.522 134.222 L 277.165 136.419 L 276.787 138.615 L 276.477 140.812 M 20.707 132.026 L 20.911 134.222 L 20.711 136.419 L 20.179 138.615 M 181.893 140.131 L 181.754 140.812 L 181.215 143.009 L 180.779 145.205 L 180.554 147.402 L 180.542 149.598 L 180.744 151.795 L 181.164 153.991 L 181.710 156.188 L 181.893 157.092 L 182.156 158.385 L 183.219 160.581 L 184.142 162.593 L 184.218 162.778 L 185.766 164.974 L 186.391 165.939 L 187.275 167.171 L 188.639 168.728 L 189.261 169.368 L 190.888 170.839 L 191.851 171.564 L 193.136 172.453 L 195.218 173.761 L 195.385 173.847 L 197.633 175.204 L 199.703 175.957 L 199.882 176.013 L 202.130 176.793 L 204.379 177.503 L 206.627 177.892 L 208.876 178.033 L 211.124 178.020 L 213.373 177.843 L 215.621 177.404 L 217.870 176.658 L 220.118 175.955 L 217.870 176.398 M 238.613 143.009 L 239.040 145.205 L 239.269 147.402 L 239.283 149.598 L 239.079 151.795 L 238.671 153.991 L 238.186 156.188 M 276.331 142.717 L 276.312 143.009 L 276.111 145.205 L 275.852 147.402 L 275.590 149.598 L 275.354 151.795 L 275.163 153.991 L 275.021 156.188 L 274.928 158.385 L 274.878 160.581 L 274.864 162.778 L 274.874 164.974 L 274.892 167.171 L 274.897 169.368 L 274.854 171.564 L 274.716 173.761 L 274.425 175.957 M 368.512 147.402 L 368.337 149.598 L 368.160 151.795 L 367.998 153.991 L 367.836 156.188 L 367.659 158.385 L 367.459 160.581 L 367.236 162.778 L 367.008 164.974 L 366.801 167.171 L 366.646 169.368 L 366.573 171.564 L 366.619 173.761 L 366.869 175.957 L 367.477 178.154 L 368.380 180.350 L 368.521 180.682 M 51.479 150.780 L 51.396 151.795 L 50.862 153.991 L 49.784 156.188 M 49.231 157.369 L 48.807 158.385 L 47.029 160.581 L 45.165 162.778 M 80.710 158.032 L 82.959 157.853 L 85.207 157.820 L 87.456 157.930 L 89.704 158.147 L 91.953 158.372 L 92.064 158.385 L 94.201 158.620 L 96.450 159.155 L 98.698 159.881 L 100.947 160.520 L 101.228 160.581 L 103.195 161.046 L 105.444 162.048 L 107.599 162.778 L 107.692 162.805 L 109.941 163.791 L 112.189 164.916 L 112.354 164.974 L 114.438 165.938 L 116.686 167.170 M 143.505 156.188 L 143.170 158.385 L 142.776 160.581 L 142.423 162.778 L 142.201 164.974 L 142.195 167.171 L 142.526 169.368 L 143.317 171.564 L 143.669 172.439 M 400.000 157.488 L 399.766 158.385 L 399.234 160.581 L 399.041 162.778 L 399.241 164.974 L 399.763 167.171 L 400.000 168.118 M 66.905 164.974 L 65.915 167.171 L 65.486 169.368 L 65.413 171.564 L 65.551 173.761 L 65.867 175.957 L 66.331 178.154 L 66.849 180.350 L 67.219 182.540 M 118.935 168.572 L 120.424 169.368 L 121.183 169.896 L 123.292 171.564 L 123.432 171.721 L 125.356 173.761 L 125.680 174.513 L 126.364 175.957 L 127.060 178.154 L 127.112 180.350 L 126.717 182.547 L 126.038 184.744 M 316.805 175.355 L 319.053 174.957 L 321.302 174.663 L 323.550 174.495 L 325.799 174.452 L 328.047 174.530 L 330.296 174.739 L 332.544 175.086 L 334.793 175.540 L 337.041 175.947 L 337.100 175.957 L 339.290 176.454 L 341.538 177.503 L 343.289 178.154 L 343.787 178.377 L 346.036 180.115 L 346.381 180.350 L 348.284 182.422 L 348.378 182.547 L 349.626 184.744 L 350.156 186.940 L 350.194 189.137 L 349.926 191.333 L 349.357 193.530 L 348.626 195.726 M 33.491 177.087 L 32.872 178.154 L 31.248 180.350 L 29.747 182.547 M 67.631 184.744 L 68.346 186.940 L 69.107 189.137 L 69.467 190.849 M 125.680 186.164 L 125.534 186.940 L 124.573 189.137 L 123.491 191.333 M 289.113 186.940 L 287.913 189.137 L 287.606 191.333 L 287.590 193.530 L 287.717 195.726 L 288.081 197.923 L 288.715 200.120 L 289.465 202.316 L 289.822 203.881 M 348.284 197.165 L 348.147 197.923 L 347.295 200.120 L 346.271 202.316 M 20.000 217.827 L 22.249 219.275 L 23.503 219.889 L 24.497 220.229 L 26.746 221.585 L 27.978 222.085 L 28.994 222.419 L 31.243 223.688 L 32.848 224.282 L 33.491 224.483 L 35.740 225.650 L 37.891 226.479 L 37.988 226.509 L 40.237 227.487 L 42.485 228.536 L 42.987 228.675 L 44.734 229.226 L 46.982 230.319 L 48.930 230.872 L 49.231 230.955 L 51.479 231.800 L 53.728 232.698 L 55.573 233.068 L 55.976 233.154 L 58.225 233.774 L 60.473 234.474 L 62.722 235.015 L 64.789 235.265 L 64.970 235.289 L 67.219 235.639 L 69.467 236.159 L 71.716 236.787 L 73.964 237.391 L 74.280 237.462 L 76.213 238.045 L 78.462 239.450 L 78.817 239.658 L 80.710 241.016 L 81.646 241.855 L 82.959 243.114 L 83.772 244.051 L 85.207 245.684 L 85.636 246.248 L 87.456 248.346 L 87.529 248.444 L 89.562 250.641 L 89.704 250.818 L 91.465 252.838 L 91.953 253.433 L 93.350 255.034 L 94.201 256.050 L 95.240 257.231 L 96.450 258.687 L 97.078 259.427 L 98.698 261.448 L 98.831 261.624 L 100.564 263.821 L 100.947 264.746 L 101.466 266.017 L 102.465 268.214 L 103.001 270.410 L 103.194 272.607 M 163.905 226.208 L 166.154 226.131 L 168.402 226.374 L 168.889 226.479 L 170.651 226.917 L 172.899 228.661 M 391.890 228.675 L 392.727 230.872 L 393.233 233.068 L 393.254 233.289 M 174.955 230.872 L 175.148 231.148 L 176.203 233.068 L 177.390 235.265 M 238.107 231.805 L 240.355 231.343 L 242.604 231.430 L 244.852 231.930 L 247.101 232.710 L 248.424 233.068 L 249.349 233.262 L 251.598 234.314 L 253.791 235.265 M 178.279 237.462 L 179.325 239.658 L 179.645 240.947 L 179.840 241.855 L 180.610 244.051 L 181.381 246.248 L 181.860 248.444 L 181.893 248.699 L 182.169 250.641 L 182.646 252.838 L 183.116 255.034 L 183.494 257.231 L 183.757 259.427 L 183.911 261.624 L 183.979 263.821 L 183.975 266.017 L 183.890 268.214 L 183.688 270.410 L 183.316 272.607 L 182.749 274.803 L 182.100 277.000 M 256.095 236.429 L 258.136 237.462 L 258.343 237.547 L 260.592 239.032 L 261.755 239.658 L 262.840 240.237 L 265.087 241.855 M 267.337 243.623 L 267.959 244.051 L 269.586 245.325 L 270.751 246.248 L 271.834 247.213 L 273.195 248.444 L 274.083 249.378 L 275.314 250.641 L 276.331 251.893 L 277.134 252.838 L 278.580 254.782 L 278.766 255.034 L 280.499 257.231 L 280.828 258.018 L 281.547 259.427 L 282.782 261.624 L 283.077 262.968 L 283.308 263.821 L 283.898 266.017 L 284.146 268.214 L 283.868 270.410 L 283.102 272.607 M 400.000 243.506 L 399.767 244.051 L 399.676 246.248 L 399.958 248.444 L 400.000 248.688 M 339.290 254.855 L 341.538 254.728 L 343.787 254.558 L 346.036 254.325 L 348.284 254.023 L 350.533 253.663 L 352.781 253.284 L 355.030 252.954 L 356.277 252.838 M 120.609 255.034 L 120.043 257.231 L 120.015 259.427 L 120.640 261.624 L 121.183 262.927 M 222.016 257.231 L 221.199 259.427 L 220.489 261.624 L 220.119 263.821 L 217.870 272.266 M 40.237 267.876 L 37.990 268.214 L 35.740 268.617 L 33.491 269.355 L 31.243 270.149 L 30.059 270.410 M 219.827 266.017 L 219.480 268.214 L 219.224 270.410 L 219.107 272.607 L 219.146 274.803 L 219.343 277.000" fill="none" stroke="#2dd4bf" stroke-width="1" vector-effect="non-scaling-stroke"/><path d="M 247.807 90.821 L 247.708 91.269 M 247.708 91.269 L 247.673 93.429 M 247.673 93.429 L 248.071 95.588 M 248.071 95.588 L 248.881 97.748 M 248.881 97.748 L 249.274 98.449 M 257.533 103.573 L 255.642 103.403 M 255.642 103.403 L 253.520 102.617 M 246.240 89.031 L 246.213 89.109 M 246.213 89.109 L 245.842 91.269 M 245.842 91.269 L 245.834 93.429 M 245.834 93.429 L 246.184 95.588 M 246.184 95.588 L 246.878 97.748 M 246.878 97.748 L 247.151 98.322 M 244.505 89.109 L 244.201 91.269 M 244.201 91.269 L 244.210 93.429 M 244.210 93.429 L 244.528 95.588 M 244.528 95.588 L 245.028 97.331 M 340.559 92.430 L 342.682 92.735 M 342.682 92.735 L 343.763 93.429 M 343.763 93.429 L 344.804 94.548 M 344.804 94.548 L 345.342 95.588 M 345.342 95.588 L 345.709 97.748 M 345.709 97.748 L 345.365 99.908 M 242.516 85.778 L 242.088 86.950 M 242.088 86.950 L 241.565 89.109 M 241.565 89.109 L 241.319 91.269 M 241.319 91.269 L 241.352 93.429 M 241.352 93.429 L 241.660 95.588 M 241.660 95.588 L 242.237 97.748 M 242.237 97.748 L 242.905 99.476 M 338.436 89.641 L 340.559 89.125 M 340.559 89.125 L 342.682 89.330 M 342.682 89.330 L 344.742 90.263 M 348.305 99.867 L 348.300 99.908 M 348.300 99.908 L 347.566 102.067 M 340.559 189.738 L 342.682 190.010 M 342.682 190.010 L 343.950 190.613 M 343.950 190.613 L 344.804 191.133 M 344.804 191.133 L 346.368 192.773 M 346.368 192.773 L 346.927 193.593 M 346.927 193.593 L 347.580 194.933 M 347.580 194.933 L 347.624 195.085 M 348.224 197.317 L 348.235 197.439 M 342.682 86.912 L 342.808 86.950 M 342.808 86.950 L 343.417 87.165 M 240.694 86.950 L 240.225 89.109 M 240.225 89.109 L 240.009 91.269 M 240.009 91.269 L 240.050 93.429 M 240.050 93.429 L 240.344 95.588 M 240.344 95.588 L 240.782 97.335 M 70.670 103.228 L 70.950 103.922 M 340.559 187.231 L 342.682 187.447 M 342.682 187.447 L 344.804 188.282 M 344.804 188.282 L 345.054 188.454 M 345.054 188.454 L 346.927 189.997 M 346.927 189.997 L 347.457 190.613 M 347.457 190.613 L 348.923 192.773 M 348.923 192.773 L 349.050 193.032 M 349.050 193.032 L 349.304 193.689 M 340.697 84.790 L 342.289 84.889 M 240.105 84.790 L 239.403 86.950 M 239.403 86.950 L 238.945 89.109 M 238.945 89.109 L 238.741 91.269 M 238.741 91.269 L 238.792 93.429 M 238.792 93.429 L 239.095 95.588 M 239.095 95.588 L 239.644 97.748 M 239.644 97.748 L 240.430 99.908 M 240.430 99.908 L 240.782 100.656 M 336.313 85.924 L 335.127 86.610 M 338.436 185.453 L 340.559 185.116 M 340.559 185.116 L 342.682 185.295 M 342.682 185.295 L 344.804 186.014 M 344.804 186.014 L 345.276 186.294 M 345.276 186.294 L 346.927 187.425 M 346.927 187.425 L 347.986 188.454 M 347.986 188.454 L 349.050 189.692 M 349.050 189.692 L 349.672 190.613 M 349.672 190.613 L 349.951 191.133 M 338.436 83.333 L 340.559 83.034 M 340.559 83.034 L 341.286 83.073 M 238.142 86.950 L 237.721 89.109 M 237.721 89.109 L 237.538 91.269 M 237.538 91.269 L 237.596 93.429 M 237.596 93.429 L 237.892 95.588 M 237.892 95.588 L 238.418 97.748 M 238.418 97.748 L 238.659 98.442 M 340.559 183.225 L 342.682 183.379 M 342.682 183.379 L 344.804 184.018 M 344.804 184.018 L 345.024 184.134 M 345.024 184.134 L 346.927 185.262 M 346.927 185.262 L 348.149 186.294 M 348.149 186.294 L 349.050 187.170 M 349.050 187.170 L 350.083 188.454 M 350.083 188.454 L 350.185 188.604 M 338.436 81.684 L 340.332 81.445 M 236.513 89.109 L 236.348 91.269 M 236.348 91.269 L 236.413 93.429 M 236.413 93.429 L 236.536 94.333 M 340.559 181.473 L 342.682 181.609 M 342.682 181.609 L 344.013 181.975 M 344.013 181.975 L 344.804 182.211 M 344.804 182.211 L 346.927 183.335 M 346.927 183.335 L 347.983 184.134 M 347.983 184.134 L 349.050 185.036 M 349.050 185.036 L 349.925 185.984 M 236.340 84.790 L 235.733 86.950 M 235.733 86.950 L 235.348 89.109 M 235.348 89.109 L 235.193 91.269 M 235.193 91.269 L 235.268 93.429 M 235.268 93.429 L 235.569 95.588 M 235.569 95.588 L 236.090 97.748 M 236.090 97.748 L 236.536 99.060 M 342.682 179.944 L 344.804 180.521 M 344.804 180.521 L 346.927 181.554 M 346.927 181.554 L 347.531 181.975 M 347.531 181.975 L 348.447 182.668 M 336.313 79.247 L 338.404 78.684 M 234.186 89.109 L 234.044 91.269 M 234.044 91.269 L 234.127 93.429 M 234.127 93.429 L 234.413 95.454 M 338.436 178.523 L 340.559 178.237 M 340.559 178.237 L 342.682 178.356 M 342.682 178.356 L 344.292 178.767 M 233.973 84.790 L 233.396 86.950 M 233.396 86.950 L 233.039 89.109 M 233.039 89.109 L 232.908 91.269 M 232.908 91.269 L 233.001 93.429 M 233.001 93.429 L 233.314 95.588 M 233.314 95.588 L 233.840 97.748 M 233.840 97.748 L 234.380 99.339 M 336.313 177.619 L 334.190 178.611 M 334.190 178.611 L 332.067 179.968 M 332.067 179.968 L 332.311 179.815 M 338.436 176.968 L 339.961 176.767 M 232.238 86.950 L 231.891 89.109 M 231.891 89.109 L 231.769 91.269 M 231.769 91.269 L 231.873 93.429 M 231.873 93.429 L 232.196 95.588 M 232.196 95.588 L 232.291 95.968 M 67.203 181.656 L 67.090 181.777 M 334.190 177.082 L 332.067 178.379 M 332.067 178.379 L 329.944 180.003 M 329.944 180.003 L 330.193 179.815 M 334.190 75.915 L 332.067 76.951 M 332.067 76.951 L 331.446 77.350 M 231.633 84.790 L 231.075 86.950 M 231.075 86.950 L 230.739 89.109 M 230.739 89.109 L 230.628 91.269 M 230.628 91.269 L 230.742 93.429 M 230.742 93.429 L 231.074 95.588 M 231.074 95.588 L 231.616 97.748 M 231.616 97.748 L 231.650 97.847 M 67.174 180.003 L 66.846 180.341 M 332.067 176.850 L 329.944 178.412 M 329.944 178.412 L 327.821 180.265 M 327.821 180.265 L 326.518 181.573 M 332.067 75.647 L 331.017 76.270 M 229.905 86.950 L 229.572 89.109 M 229.572 89.109 L 229.470 91.269 M 229.470 91.269 L 229.596 93.429 M 229.596 93.429 L 229.945 95.588 M 229.945 95.588 L 230.168 96.436 M 67.145 178.416 L 66.704 178.859 M 66.704 178.859 L 66.543 179.051 M 332.067 175.321 L 329.944 176.873 M 329.944 176.873 L 327.821 178.667 M 327.821 178.667 L 325.698 180.705 M 325.698 180.705 L 325.498 180.920 M 229.705 83.547 L 229.263 84.790 M 229.263 84.790 L 228.712 86.950 M 228.712 86.950 L 228.390 89.109 M 228.390 89.109 L 228.299 91.269 M 228.299 91.269 L 228.435 93.429 M 228.435 93.429 L 228.793 95.588 M 228.793 95.588 L 229.008 96.403 M 329.944 175.354 L 327.821 177.124 M 327.821 177.124 L 325.698 179.094 M 325.698 179.094 L 324.524 180.297 M 259.500 238.311 L 259.334 238.384 M 227.493 86.950 L 227.166 89.109 M 227.166 89.109 L 227.081 91.269 M 227.081 91.269 L 227.235 93.429 M 227.235 93.429 L 227.620 95.588 M 227.620 95.588 L 227.638 95.654 M 130.295 93.594 L 129.997 95.588 M 129.997 95.588 L 130.095 97.748 M 130.095 97.748 L 130.391 98.935 M 67.091 175.381 L 66.704 175.763 M 66.704 175.763 L 65.998 176.574 M 287.593 193.168 L 288.582 194.933 M 288.582 194.933 L 289.405 197.092 M 289.405 197.092 L 289.572 197.901 M 289.778 202.828 L 289.703 203.356 M 329.007 174.619 L 327.821 175.605 M 327.821 175.605 L 327.952 175.496 M 191.532 80.801 L 191.557 80.858 M 227.242 83.566 L 226.797 84.790 M 226.797 84.790 L 226.241 86.950 M 226.241 86.950 L 225.925 89.109 M 273.697 120.632 L 273.553 120.751 M 67.064 173.886 L 66.704 174.241 M 66.704 174.241 L 65.772 175.297 M 287.699 190.665 L 289.232 192.773 M 289.232 192.773 L 289.368 193.019 M 327.369 174.506 L 325.698 176.028 M 325.698 176.028 L 323.575 178.112 M 323.575 178.112 L 322.639 179.090 M 262.382 239.992 L 262.219 240.125 M 192.747 80.790 L 192.820 80.956 M 225.505 84.790 L 224.917 86.950 M 224.917 86.950 L 224.587 89.109 M 224.587 89.109 L 224.516 91.269 M 224.516 91.269 L 224.702 93.429 M 224.702 93.429 L 224.842 94.126 M 125.794 93.429 L 125.770 93.508 M 67.038 172.414 L 66.704 172.745 M 66.704 172.745 L 65.586 174.003 M 274.437 175.751 L 274.451 175.763 M 325.775 174.452 L 325.698 174.521 M 325.698 174.521 L 323.575 176.572 M 323.575 176.572 L 321.693 178.484 M 288.042 188.901 L 289.252 190.266 M 194.024 80.869 L 194.078 80.993 M 194.078 80.993 L 194.108 81.056 M 223.544 86.950 L 223.187 89.109 M 223.187 89.109 L 223.119 91.269 M 223.119 91.269 L 223.321 93.294 M 274.510 174.473 L 274.611 174.556 M 288.733 187.636 L 289.159 188.048 M 324.189 174.483 L 323.575 175.070 M 323.575 175.070 L 321.453 177.184 M 321.453 177.184 L 320.763 177.889 M 195.427 81.001 L 195.504 81.164 M 223.180 83.601 L 222.681 84.790 M 222.681 84.790 L 222.048 86.950 M 222.048 86.950 L 221.700 89.109 M 66.983 169.337 L 66.704 169.633 M 66.704 169.633 L 65.428 171.116 M 274.584 173.186 L 274.743 173.321 M 322.548 174.570 L 321.453 175.669 M 321.453 175.669 L 319.847 177.302 M 196.944 81.196 L 196.987 81.278 M 221.101 84.790 L 220.379 86.950 M 220.379 86.950 L 219.985 89.109 M 219.985 89.109 L 219.922 91.269 M 219.922 91.269 L 219.945 91.449 M 124.706 188.465 L 124.724 188.454 M 274.660 171.869 L 274.749 171.944 M 274.749 171.944 L 274.826 172.013 M 320.901 174.715 L 319.330 176.295 M 319.330 176.295 L 318.917 176.707 M 179.218 241.649 L 178.743 242.263 M 181.962 275.565 L 182.349 276.157 M 198.579 81.376 L 198.596 81.403 M 219.332 84.790 L 218.465 86.950 M 218.465 86.950 L 217.991 89.109 M 217.991 89.109 L 217.949 90.358 M 83.285 157.848 L 83.687 158.081 M 83.687 158.081 L 83.840 158.218 M 83.840 158.218 L 85.085 159.143 M 274.737 170.527 L 274.749 170.537 M 274.749 170.537 L 274.872 170.650 M 143.664 172.020 L 143.544 172.129 M 319.181 174.941 L 317.987 176.112 M 181.713 272.997 L 182.778 274.690 M 217.184 84.790 L 216.057 86.950 M 216.057 86.950 L 215.468 89.002 M 86.542 157.885 L 86.824 158.218 M 86.824 158.218 L 87.933 159.305 M 87.933 159.305 L 88.536 160.019 M 125.812 184.230 L 126.037 184.134 M 274.815 169.159 L 274.896 169.234 M 317.337 175.261 L 317.207 175.387 M 317.207 175.387 L 317.063 175.520 M 179.218 246.541 L 179.165 246.631 M 181.441 270.174 L 181.626 270.521 M 181.626 270.521 L 182.898 272.681 M 182.898 272.681 L 183.181 273.131 M 187.011 61.312 L 187.039 61.351 M 202.836 81.820 L 203.434 82.425 M 89.737 64.372 L 89.744 64.376 M 121.864 80.759 L 121.899 80.750 M 121.899 80.750 L 122.654 80.471 M 88.984 158.078 L 89.082 158.218 M 89.082 158.218 L 90.056 159.372 M 90.056 159.372 L 90.798 160.378 M 90.798 160.378 L 91.033 160.654 M 274.893 167.724 L 274.897 167.727 M 143.128 169.733 L 142.774 170.058 M 181.118 266.834 L 181.341 267.275 M 181.341 267.275 L 181.850 268.361 M 181.850 268.361 L 183.006 270.521 M 183.006 270.521 L 183.464 271.297 M 183.464 271.297 L 183.521 271.398 M 187.646 60.451 L 187.709 60.543 M 187.709 60.543 L 187.729 60.571 M 90.474 63.561 L 90.626 63.668 M 121.423 79.319 L 121.899 79.221 M 121.899 79.221 L 123.815 78.479 M 207.967 82.665 L 208.939 83.066 M 208.939 83.066 L 210.421 83.020 M 91.053 158.282 L 92.179 159.807 M 92.179 159.807 L 92.562 160.378 M 92.562 160.378 L 93.204 161.205 M 274.883 166.150 L 274.982 166.250 M 181.341 248.348 L 181.097 248.924 M 181.097 248.924 L 180.419 251.084 M 180.419 251.084 L 179.984 253.244 M 179.984 253.244 L 179.898 254.215 M 180.637 261.854 L 180.643 261.882 M 180.643 261.882 L 181.341 263.970 M 181.341 263.970 L 181.363 264.042 M 181.363 264.042 L 182.213 266.202 M 182.213 266.202 L 183.228 268.361 M 183.228 268.361 L 183.464 268.802 M 183.464 268.802 L 183.779 269.418 M 237.793 35.118 L 237.993 35.966 M 188.287 59.582 L 188.424 59.784 M 238.086 46.176 L 237.872 46.955 M 91.206 62.756 L 91.496 62.970 M 120.994 77.918 L 121.899 77.738 M 121.899 77.738 L 123.238 77.253 M 92.922 158.479 L 94.199 160.378 M 94.199 160.378 L 94.302 160.510 M 94.302 160.510 L 95.175 161.706 M 124.024 180.158 L 125.073 179.815 M 274.872 164.497 L 275.053 164.697 M 275.053 164.697 L 275.070 164.714 M 182.103 250.179 L 181.841 251.084 M 181.841 251.084 L 181.440 253.244 M 270.503 248.633 L 270.371 248.924 M 270.371 248.924 L 270.312 249.093 M 181.341 254.484 L 181.261 255.403 M 181.261 255.403 L 181.317 257.563 M 181.317 257.563 L 181.341 257.739 M 181.341 257.739 L 181.588 259.723 M 181.588 259.723 L 182.064 261.882 M 182.064 261.882 L 182.735 264.042 M 182.735 264.042 L 183.464 265.889 M 183.464 265.889 L 183.582 266.202 M 183.582 266.202 L 183.937 266.993 M 188.935 58.703 L 189.044 58.874 M 189.044 58.874 L 189.077 58.922 M 237.202 39.437 L 237.289 41.597 M 237.289 41.597 L 237.152 43.737 M 91.945 61.943 L 92.179 62.114 M 92.179 62.114 L 92.371 62.268 M 120.587 76.592 L 121.899 76.315 M 121.899 76.315 L 122.374 76.151 M 94.705 158.740 L 95.741 160.378 M 95.741 160.378 L 96.425 161.312 M 96.425 161.312 L 97.038 162.179 M 123.432 178.811 L 124.022 178.705 M 124.022 178.705 L 126.145 178.020 M 126.145 178.020 L 126.910 177.682 M 274.864 162.725 L 275.165 163.056 M 367.985 179.389 L 368.156 179.666 M 368.156 179.666 L 368.250 179.815 M 368.250 179.815 L 368.521 180.260 M 143.592 164.815 L 143.128 165.313 M 143.128 165.313 L 142.197 166.245 M 272.175 247.522 L 271.587 248.924 M 271.587 248.924 L 271.078 250.501 M 182.781 253.467 L 182.628 255.403 M 182.628 255.403 L 182.683 257.563 M 182.683 257.563 L 182.955 259.723 M 182.955 259.723 L 183.433 261.882 M 183.433 261.882 L 183.464 261.980 M 183.464 261.980 L 183.975 263.701 M 92.764 61.227 L 93.217 61.588 M 120.200 75.326 L 121.657 75.034 M 189.604 57.796 L 189.730 57.995 M 43.154 102.524 L 43.352 103.080 M 96.510 159.175 L 97.247 160.378 M 97.247 160.378 L 98.547 162.214 M 98.547 162.214 L 98.775 162.538 M 98.775 162.538 L 98.856 162.641 M 274.877 160.801 L 275.267 161.276 M 366.895 176.051 L 367.913 177.655 M 367.913 177.655 L 368.156 178.048 M 368.156 178.048 L 368.520 178.624 M 273.033 248.298 L 272.784 248.924 M 272.626 249.441 L 272.094 251.084 M 272.094 251.084 L 271.889 251.992 M 190.280 56.880 L 190.367 57.017 M 93.591 60.505 L 94.066 60.907 M 119.819 74.082 L 120.280 73.992 M 40.851 98.559 L 41.027 99.908 M 41.027 99.908 L 41.229 100.633 M 98.356 159.771 L 98.547 160.084 M 98.547 160.084 L 98.726 160.378 M 98.726 160.378 L 100.243 162.538 M 100.243 162.538 L 100.670 163.082 M 100.670 163.082 L 100.690 163.107 M 122.254 176.130 L 124.022 175.841 M 124.022 175.841 L 125.173 175.496 M 274.921 158.678 L 275.380 159.315 M 366.660 174.124 L 367.542 175.496 M 367.542 175.496 L 368.156 176.463 M 368.156 176.463 L 368.520 177.024 M 273.857 249.141 L 273.262 251.084 M 273.262 251.084 L 272.799 253.244 M 94.492 59.845 L 94.918 60.223 M 119.440 72.846 L 119.777 72.828 M 119.777 72.828 L 120.277 72.723 M 275.019 156.238 L 275.509 157.052 M 100.138 160.290 L 100.191 160.378 M 100.191 160.378 L 100.670 161.060 M 100.670 161.060 L 101.723 162.538 M 101.723 162.538 L 102.554 163.580 M 121.655 174.765 L 121.899 174.762 M 121.899 174.762 L 124.022 174.429 M 124.022 174.429 L 125.464 174.009 M 366.592 172.463 L 367.153 173.336 M 367.153 173.336 L 368.156 174.896 M 368.156 174.896 L 368.519 175.451 M 274.722 250.034 L 274.400 251.084 M 274.400 251.084 L 273.938 253.244 M 273.938 253.244 L 273.687 255.297 M 95.572 59.375 L 95.763 59.544 M 119.062 71.612 L 119.483 71.588 M 101.931 160.747 L 102.793 161.958 M 102.793 161.958 L 103.222 162.538 M 103.222 162.538 L 104.494 164.073 M 121.032 173.347 L 121.899 173.341 M 275.245 153.050 L 275.522 153.899 M 275.522 153.899 L 275.672 154.219 M 366.595 170.908 L 366.765 171.176 M 366.765 171.176 L 368.153 173.336 M 275.556 250.939 L 275.513 251.084 M 275.513 251.084 L 275.066 253.244 M 275.066 253.244 L 274.811 255.403 M 79.441 253.180 L 79.287 253.244 M 79.287 253.244 L 77.637 255.403 M 77.637 255.403 L 78.038 256.043 M 343.994 254.297 L 343.782 254.558 M 103.884 161.354 L 104.760 162.538 M 104.760 162.538 L 104.916 162.726 M 104.916 162.726 L 106.572 164.601 M 120.400 171.908 L 121.899 171.901 M 121.899 171.901 L 123.399 171.684 M 366.645 169.405 L 367.765 171.176 M 367.765 171.176 L 368.156 171.785 M 368.156 171.785 L 368.518 172.340 M 276.083 147.044 L 276.030 147.420 M 276.030 147.420 L 276.038 147.840 M 276.425 252.003 L 276.168 253.244 M 276.168 253.244 L 275.914 255.403 M 275.914 255.403 L 275.847 257.563 M 275.847 257.563 L 275.945 259.448 M 83.687 254.337 L 83.435 255.403 M 83.435 255.403 L 83.633 257.563 M 83.633 257.563 L 83.687 257.696 M 83.687 257.696 L 84.296 259.723 M 84.296 259.723 L 84.640 260.390 M 284.987 59.269 L 285.024 59.312 M 366.746 167.947 L 367.401 169.017 M 367.401 169.017 L 368.156 170.212 M 368.156 170.212 L 368.518 170.776 M 106.204 162.306 L 106.387 162.538 M 106.387 162.538 L 107.039 163.276 M 107.039 163.276 L 108.421 164.697 M 108.421 164.697 L 108.965 165.209 M 119.755 170.440 L 119.777 170.443 M 119.777 170.443 L 121.871 170.440 M 277.303 253.065 L 277.266 253.244 M 277.266 253.244 L 277.016 255.403 M 277.016 255.403 L 276.950 257.563 M 276.950 257.563 L 277.062 259.723 M 277.062 259.723 L 277.343 261.882 M 277.343 261.882 L 277.389 262.102 M 351.557 253.398 L 351.553 253.491 M 87.933 250.035 L 87.314 251.084 M 87.314 251.084 L 86.501 253.244 M 86.501 253.244 L 86.146 255.403 M 86.146 255.403 L 86.228 257.563 M 86.228 257.563 L 86.727 259.723 M 86.727 259.723 L 87.615 261.882 M 87.615 261.882 L 87.933 262.426 M 87.933 262.426 L 88.032 262.624 M 285.738 58.667 L 285.808 58.747 M 99.140 58.259 L 99.255 58.368 M 116.269 67.909 L 116.349 67.915 M 108.891 163.330 L 109.162 163.609 M 109.162 163.609 L 110.374 164.697 M 110.374 164.697 L 111.285 165.444 M 111.285 165.444 L 112.121 166.010 M 366.866 166.483 L 367.083 166.857 M 367.083 166.857 L 368.156 168.614 M 368.156 168.614 L 368.406 169.017 M 368.406 169.017 L 368.518 169.191 M 119.049 168.832 L 119.586 168.920 M 353.566 253.160 L 353.565 253.169 M 89.585 250.669 L 89.370 251.084 M 89.370 251.084 L 88.646 253.244 M 88.646 253.244 L 88.313 255.403 M 88.313 255.403 L 88.360 257.563 M 88.360 257.563 L 88.769 259.723 M 88.769 259.723 L 89.521 261.882 M 89.521 261.882 L 90.056 262.957 M 90.056 262.957 L 90.541 264.042 M 90.541 264.042 L 90.754 264.416 M 278.232 254.315 L 278.107 255.403 M 278.107 255.403 L 278.043 257.563 M 278.043 257.563 L 278.156 259.723 M 278.156 259.723 L 278.438 261.882 M 278.438 261.882 L 278.882 264.042 M 278.882 264.042 L 278.994 264.451 M 278.994 264.451 L 279.339 265.689 M 284.434 22.148 L 284.427 22.160 M 284.427 22.160 L 284.331 22.334 M 100.721 58.245 L 101.268 58.751 M 114.478 66.391 L 114.973 66.497 M 33.831 83.979 L 34.497 83.701 M 367.007 164.992 L 368.085 166.857 M 368.085 166.857 L 368.156 166.974 M 368.156 166.974 L 368.517 167.555 M 181.966 157.452 L 182.292 158.218 M 182.292 158.218 L 183.416 160.378 M 183.416 160.378 L 183.464 160.456 M 183.464 160.456 L 184.705 162.538 M 184.705 162.538 L 185.587 163.851 M 185.587 163.851 L 186.155 164.697 M 186.155 164.697 L 187.709 166.810 M 187.709 166.810 L 187.745 166.857 M 187.745 166.857 L 189.482 169.017 M 189.482 169.017 L 189.832 169.429 M 189.832 169.429 L 191.372 171.176 M 191.372 171.176 L 191.455 171.266 M 279.195 255.577 L 279.137 257.563 M 279.137 257.563 L 279.252 259.723 M 279.252 259.723 L 279.538 261.882 M 279.538 261.882 L 279.987 264.042 M 279.987 264.042 L 280.589 266.202 M 280.589 266.202 L 281.117 267.734 M 281.117 267.734 L 281.340 268.361 M 281.340 268.361 L 282.240 270.521 M 282.240 270.521 L 283.152 272.464 M 90.876 252.161 L 90.541 253.244 M 90.541 253.244 L 90.223 255.403 M 90.223 255.403 L 90.247 257.563 M 90.247 257.563 L 90.599 259.723 M 90.599 259.723 L 91.264 261.882 M 91.264 261.882 L 92.179 263.956 M 355.330 252.926 L 355.325 252.951 M 287.300 57.415 L 287.378 57.505 M 102.904 58.730 L 103.070 58.874 M 103.070 58.874 L 103.425 59.161 M 112.240 64.494 L 113.266 64.857 M 33.218 82.143 L 33.979 81.865 M 182.516 140.759 L 182.440 140.941 M 182.440 140.941 L 181.749 143.101 M 367.168 163.438 L 367.840 164.697 M 367.840 164.697 L 368.156 165.245 M 368.156 165.245 L 368.517 165.859 M 181.341 144.981 L 181.278 145.261 M 181.278 145.261 L 181.029 147.420 M 181.029 147.420 L 181.027 149.580 M 181.027 149.580 L 181.272 151.739 M 181.272 151.739 L 181.341 152.043 M 181.341 152.043 L 181.746 153.899 M 181.746 153.899 L 182.448 156.059 M 182.448 156.059 L 183.369 158.218 M 183.369 158.218 L 183.464 158.401 M 183.464 158.401 L 184.477 160.378 M 184.477 160.378 L 185.587 162.236 M 185.587 162.236 L 185.767 162.538 M 185.767 162.538 L 187.218 164.697 M 187.218 164.697 L 187.709 165.366 M 187.709 165.366 L 188.827 166.857 M 188.827 166.857 L 189.832 168.108 M 189.832 168.108 L 190.591 169.017 M 190.591 169.017 L 191.955 170.565 M 191.955 170.565 L 192.525 171.176 M 192.525 171.176 L 194.078 172.773 M 194.078 172.773 L 194.673 173.336 M 194.673 173.336 L 194.952 173.593 M 280.258 256.925 L 280.239 257.563 M 280.239 257.563 L 280.356 259.723 M 280.356 259.723 L 280.644 261.882 M 280.644 261.882 L 281.093 264.042 M 281.093 264.042 L 281.117 264.129 M 281.117 264.129 L 281.714 266.202 M 281.714 266.202 L 282.482 268.361 M 282.482 268.361 L 283.240 270.181 M 283.240 270.181 L 283.390 270.521 M 283.390 270.521 L 283.648 271.041 M 92.179 254.000 L 91.963 255.403 M 91.963 255.403 L 91.972 257.563 M 91.972 257.563 L 92.179 258.882 M 92.179 258.882 L 92.301 259.723 M 92.301 259.723 L 92.908 261.882 M 92.908 261.882 L 93.786 264.042 M 93.786 264.042 L 94.302 265.033 M 94.302 265.033 L 94.882 266.202 M 94.882 266.202 L 95.782 267.727 M 288.114 56.763 L 288.176 56.827 M 108.851 61.623 L 109.162 61.810 M 109.162 61.810 L 110.623 62.533 M 196.128 44.698 L 196.149 44.827 M 367.336 161.792 L 367.692 162.538 M 367.692 162.538 L 368.156 163.408 M 368.156 163.408 L 368.516 164.073 M 183.312 141.561 L 182.819 143.101 M 182.819 143.101 L 182.349 145.261 M 182.349 145.261 L 182.110 147.420 M 182.110 147.420 L 182.108 149.580 M 182.108 149.580 L 182.344 151.739 M 182.344 151.739 L 182.817 153.899 M 182.817 153.899 L 183.464 155.884 M 183.464 155.884 L 183.520 156.059 M 183.520 156.059 L 184.428 158.218 M 184.428 158.218 L 185.537 160.378 M 185.537 160.378 L 185.587 160.461 M 185.587 160.461 L 186.829 162.538 M 186.829 162.538 L 187.709 163.848 M 187.709 163.848 L 188.291 164.697 M 188.291 164.697 L 189.832 166.755 M 189.832 166.755 L 189.912 166.857 M 189.912 166.857 L 191.712 169.017 M 191.712 169.017 L 191.955 169.293 M 191.955 169.293 L 193.713 171.176 M 193.713 171.176 L 194.078 171.552 M 194.078 171.552 L 195.960 173.336 M 195.960 173.336 L 196.201 173.559 M 196.201 173.559 L 198.324 175.314 M 198.324 175.314 L 198.577 175.496 M 198.577 175.496 L 198.728 175.602 M 281.442 259.222 L 281.470 259.723 M 281.470 259.723 L 281.768 261.882 M 281.768 261.882 L 282.232 264.042 M 282.232 264.042 L 282.854 266.202 M 282.854 266.202 L 283.240 267.286 M 283.240 267.286 L 283.643 268.361 M 283.643 268.361 L 284.019 269.215 M 93.611 255.346 L 93.603 255.403 M 93.603 255.403 L 93.599 257.563 M 93.599 257.563 L 93.902 259.723 M 93.902 259.723 L 94.302 261.173 M 94.302 261.173 L 94.488 261.882 M 94.488 261.882 L 95.320 264.042 M 95.320 264.042 L 96.381 266.202 M 96.381 266.202 L 96.425 266.275 M 96.425 266.275 L 97.625 268.361 M 97.625 268.361 L 98.281 269.372 M 288.970 56.077 L 288.999 56.110 M 197.498 41.136 L 197.475 41.514 M 31.737 78.771 L 32.737 78.675 M 32.737 78.675 L 33.049 78.573 M 184.109 142.365 L 183.879 143.101 M 367.511 160.003 L 367.666 160.378 M 367.666 160.378 L 368.156 161.407 M 368.156 161.407 L 368.516 162.148 M 183.464 145.051 L 183.418 145.261 M 183.418 145.261 L 183.179 147.420 M 183.179 147.420 L 183.176 149.580 M 183.176 149.580 L 183.413 151.739 M 183.413 151.739 L 183.464 151.970 M 183.464 151.970 L 183.880 153.899 M 183.880 153.899 L 184.573 156.059 M 184.573 156.059 L 185.484 158.218 M 185.484 158.218 L 185.587 158.417 M 185.587 158.417 L 186.597 160.378 M 186.597 160.378 L 187.709 162.236 M 187.709 162.236 L 187.894 162.538 M 187.894 162.538 L 189.372 164.697 M 189.372 164.697 L 189.832 165.311 M 189.832 165.311 L 191.033 166.857 M 191.033 166.857 L 191.955 167.963 M 191.955 167.963 L 192.885 169.017 M 192.885 169.017 L 194.078 170.296 M 194.078 170.296 L 194.969 171.176 M 194.969 171.176 L 196.201 172.345 M 196.201 172.345 L 197.367 173.336 M 197.367 173.336 L 198.324 174.127 M 198.324 174.127 L 200.235 175.496 M 200.235 175.496 L 200.447 175.646 M 200.447 175.646 L 202.570 176.886 M 202.570 176.886 L 202.911 177.040 M 95.180 257.162 L 95.177 257.563 M 95.177 257.563 L 95.458 259.723 M 95.458 259.723 L 96.018 261.882 M 96.018 261.882 L 96.425 262.953 M 96.425 262.953 L 96.831 264.042 M 96.831 264.042 L 97.866 266.202 M 97.866 266.202 L 98.547 267.397 M 98.547 267.397 L 99.099 268.361 M 99.099 268.361 L 100.497 270.521 M 100.497 270.521 L 100.670 270.765 M 100.670 270.765 L 100.923 271.112 M 31.222 77.163 L 32.617 77.043 M 184.910 143.172 L 184.465 145.261 M 184.465 145.261 L 184.231 147.420 M 184.231 147.420 L 184.229 149.580 M 184.229 149.580 L 184.462 151.739 M 184.462 151.739 L 184.930 153.899 M 184.930 153.899 L 185.587 155.934 M 185.587 155.934 L 185.627 156.059 M 185.627 156.059 L 186.541 158.218 M 186.541 158.218 L 187.657 160.378 M 187.657 160.378 L 187.709 160.467 M 187.709 160.467 L 188.974 162.538 M 188.974 162.538 L 189.832 163.791 M 189.832 163.791 L 190.477 164.697 M 190.477 164.697 L 191.955 166.601 M 191.955 166.601 L 192.166 166.857 M 192.166 166.857 L 194.072 169.017 M 367.694 157.955 L 367.782 158.218 M 367.782 158.218 L 368.156 159.129 M 368.156 159.129 L 368.515 159.989 M 196.201 171.123 L 196.262 171.176 M 196.262 171.176 L 198.324 172.930 M 198.324 172.930 L 198.877 173.336 M 198.877 173.336 L 200.447 174.460 M 200.447 174.460 L 202.199 175.496 M 202.199 175.496 L 202.570 175.712 M 202.570 175.712 L 204.693 176.667 M 204.693 176.667 L 206.816 177.317 M 206.816 177.317 L 208.939 177.646 M 208.939 177.646 L 211.061 177.648 M 211.061 177.648 L 213.184 177.320 M 213.184 177.320 L 215.307 176.668 M 215.307 176.668 L 217.259 175.782 M 30.357 181.654 L 30.359 181.654 M 96.935 259.259 L 96.992 259.723 M 96.992 259.723 L 97.534 261.882 M 97.534 261.882 L 98.329 264.042 M 98.329 264.042 L 98.547 264.500 M 98.547 264.500 L 99.361 266.202 M 99.361 266.202 L 100.588 268.361 M 100.588 268.361 L 100.670 268.489 M 100.670 268.489 L 102.023 270.521 M 102.023 270.521 L 102.793 271.582 M 102.793 271.582 L 103.144 272.036 M 30.631 75.619 L 32.181 75.496 M 367.894 155.403 L 368.060 156.059 M 368.060 156.059 L 368.156 156.345 M 368.156 156.345 L 368.514 157.396 M 185.587 144.906 L 185.511 145.261 M 185.511 145.261 L 185.276 147.420 M 185.276 147.420 L 185.275 149.580 M 185.275 149.580 L 185.510 151.739 M 185.510 151.739 L 185.587 152.092 M 185.587 152.092 L 185.980 153.899 M 185.980 153.899 L 186.680 156.059 M 186.680 156.059 L 187.598 158.218 M 187.598 158.218 L 187.709 158.435 M 187.709 158.435 L 188.734 160.378 M 188.734 160.378 L 189.832 162.175 M 189.832 162.175 L 190.062 162.538 M 190.062 162.538 L 191.597 164.697 M 191.597 164.697 L 191.955 165.158 M 191.955 165.158 L 193.352 166.857 M 193.352 166.857 L 194.078 167.680 M 194.078 167.680 L 195.356 169.017 M 195.356 169.017 L 196.201 169.852 M 196.201 169.852 L 197.696 171.176 M 197.696 171.176 L 198.324 171.711 M 198.324 171.711 L 200.447 173.271 M 200.447 173.271 L 200.554 173.336 M 200.554 173.336 L 202.570 174.528 M 202.570 174.528 L 204.693 175.493 M 31.566 179.894 L 31.588 179.890 M 206.816 176.142 L 208.939 176.474 M 208.939 176.474 L 211.061 176.478 M 211.061 176.478 L 213.184 176.152 M 99.068 261.924 L 99.846 264.042 M 99.846 264.042 L 100.670 265.782 M 100.670 265.782 L 100.875 266.202 M 100.875 266.202 L 102.137 268.361 M 102.137 268.361 L 102.714 269.233 M 29.944 73.992 L 30.615 74.075 M 30.615 74.075 L 31.756 73.992 M 186.629 144.905 L 186.554 145.261 M 186.554 145.261 L 186.320 147.420 M 186.320 147.420 L 186.320 149.580 M 186.320 149.580 L 186.556 151.739 M 186.556 151.739 L 187.029 153.899 M 187.029 153.899 L 187.709 155.988 M 187.709 155.988 L 187.733 156.059 M 187.733 156.059 L 188.671 158.218 M 188.671 158.218 L 189.812 160.378 M 368.161 151.784 L 368.513 153.870 M 191.181 162.538 L 191.955 163.626 M 191.955 163.626 L 192.761 164.697 M 192.761 164.697 L 194.078 166.299 M 194.078 166.299 L 194.575 166.857 M 194.575 166.857 L 196.201 168.557 M 196.201 168.557 L 196.691 169.017 M 196.691 169.017 L 198.324 170.464 M 198.324 170.464 L 199.253 171.176 M 199.253 171.176 L 200.447 172.054 M 200.447 172.054 L 202.561 173.336 M 32.761 178.152 L 32.903 178.099 M 204.693 174.307 L 206.816 174.964 M 206.816 174.964 L 208.939 175.299 M 208.939 175.299 L 211.061 175.306 M 211.061 175.306 L 213.184 174.982 M 213.184 174.982 L 215.307 174.333 M 29.298 72.413 L 30.615 72.583 M 30.615 72.583 L 31.344 72.532 M 50.580 143.101 L 50.963 145.261 M 50.963 145.261 L 51.169 147.420 M 51.169 147.420 L 51.175 147.998 M 50.878 152.699 L 50.685 153.899 M 50.685 153.899 L 50.462 154.806 M 187.536 145.819 L 187.363 147.420 M 187.363 147.420 L 187.364 149.580 M 187.364 149.580 L 187.603 151.739 M 187.603 151.739 L 187.709 152.226 M 187.709 152.226 L 188.085 153.899 M 188.085 153.899 L 188.804 156.059 M 188.804 156.059 L 189.745 158.218 M 189.745 158.218 L 189.832 158.383 M 189.832 158.383 L 190.927 160.378 M 190.927 160.378 L 191.955 161.996 M 191.955 161.996 L 192.320 162.538 M 192.320 162.538 L 193.945 164.697 M 193.945 164.697 L 194.078 164.859 M 194.078 164.859 L 195.858 166.857 M 195.858 166.857 L 196.201 167.216 M 196.201 167.216 L 198.121 169.017 M 198.121 169.017 L 198.324 169.196 M 198.324 169.196 L 200.447 170.824 M 200.447 170.824 L 201.004 171.176 M 201.004 171.176 L 202.570 172.127 M 202.570 172.127 L 204.693 173.117 M 204.693 173.117 L 205.384 173.336 M 205.384 173.336 L 206.816 173.780 M 206.816 173.780 L 208.939 174.118 M 208.939 174.118 L 211.061 174.128 M 211.061 174.128 L 213.184 173.816 M 213.184 173.816 L 214.735 173.336 M 28.932 70.881 L 30.615 71.101 M 30.615 71.101 L 30.934 71.081 M 188.487 146.778 L 188.417 147.420 M 188.417 147.420 L 188.419 149.580 M 188.419 149.580 L 188.664 151.739 M 188.664 151.739 L 189.152 153.899 M 189.152 153.899 L 189.832 155.932 M 189.832 155.932 L 189.876 156.059 M 189.876 156.059 L 190.855 158.218 M 190.855 158.218 L 191.955 160.218 M 191.955 160.218 L 192.049 160.378 M 192.049 160.378 L 193.501 162.538 M 193.501 162.538 L 194.078 163.304 M 194.078 163.304 L 195.214 164.697 M 195.214 164.697 L 196.201 165.805 M 196.201 165.805 L 197.245 166.857 M 197.245 166.857 L 198.324 167.869 M 198.324 167.869 L 199.738 169.017 M 199.738 169.017 L 200.447 169.561 M 200.447 169.561 L 202.570 170.903 M 202.570 170.903 L 203.133 171.176 M 203.133 171.176 L 204.693 171.906 M 204.693 171.906 L 206.816 172.582 M 206.816 172.582 L 208.939 172.930 M 208.939 172.930 L 211.061 172.943 M 211.061 172.943 L 213.184 172.621 M 213.184 172.621 L 213.910 172.407 M 372.402 30.002 L 372.130 30.346 M 28.367 69.301 L 28.492 69.342 M 28.492 69.342 L 30.521 69.618 M 189.476 147.775 L 189.479 149.580 M 189.479 149.580 L 189.727 151.739 M 189.727 151.739 L 189.832 152.203 M 189.832 152.203 L 190.232 153.899 M 190.232 153.899 L 190.985 156.059 M 190.985 156.059 L 191.955 158.190 M 193.227 160.378 L 194.078 161.642 M 194.078 161.642 L 194.731 162.538 M 194.731 162.538 L 196.201 164.340 M 196.201 164.340 L 196.525 164.697 M 196.525 164.697 L 198.324 166.510 M 198.324 166.510 L 198.722 166.857 M 198.722 166.857 L 200.447 168.259 M 200.447 168.259 L 201.580 169.017 M 201.580 169.017 L 202.570 169.644 M 202.570 169.644 L 204.693 170.678 M 204.693 170.678 L 206.197 171.176 M 206.197 171.176 L 206.816 171.374 M 206.816 171.374 L 208.939 171.726 M 208.939 171.726 L 211.061 171.744 M 211.061 171.744 L 212.976 171.465 M 27.707 67.594 L 28.492 67.858 M 28.492 67.858 L 30.087 68.082 M 190.563 148.870 L 190.565 149.580 M 190.565 149.580 L 190.824 151.739 M 190.824 151.739 L 191.336 153.899 M 191.336 153.899 L 191.955 155.664 M 191.955 155.664 L 192.102 156.059 M 192.102 156.059 L 193.144 158.218 M 193.144 158.218 L 194.078 159.819 M 194.078 159.819 L 194.432 160.378 M 194.432 160.378 L 196.007 162.538 M 196.007 162.538 L 196.201 162.776 M 196.201 162.776 L 197.945 164.697 M 197.945 164.697 L 198.324 165.080 M 198.324 165.080 L 200.360 166.857 M 202.570 168.352 L 203.859 169.017 M 203.859 169.017 L 204.693 169.424 M 204.693 169.424 L 206.816 170.133 M 206.816 170.133 L 208.939 170.501 M 208.939 170.501 L 211.061 170.524 M 211.061 170.524 L 211.914 170.394 M 27.085 65.856 L 28.492 66.351 M 28.492 66.351 L 29.647 66.522 M 191.717 150.034 L 191.924 151.739 M 191.924 151.739 L 191.955 151.869 M 191.955 151.869 L 192.468 153.899 M 192.468 153.899 L 193.272 156.059 M 193.272 156.059 L 194.078 157.724 M 194.078 157.724 L 194.337 158.218 M 194.337 158.218 L 195.703 160.378 M 195.703 160.378 L 196.201 161.060 M 196.201 161.060 L 197.400 162.538 M 197.400 162.538 L 198.324 163.556 M 198.324 163.556 L 199.518 164.697 M 199.518 164.697 L 200.447 165.509 M 200.447 165.509 L 202.315 166.857 M 202.315 166.857 L 202.570 167.028 M 202.570 167.028 L 204.693 168.128 M 204.693 168.128 L 206.816 168.878 M 206.816 168.878 L 207.565 169.017 M 207.565 169.017 L 208.939 169.258 M 208.939 169.258 L 210.823 169.294 M 26.760 64.169 L 28.492 64.814 M 28.492 64.814 L 29.196 64.928 M 193.036 151.363 L 193.084 151.739 M 193.084 151.739 L 193.634 153.899 M 193.634 153.899 L 194.078 155.088 M 194.078 155.088 L 194.471 156.059 M 194.471 156.059 L 195.605 158.218 M 195.605 158.218 L 196.201 159.161 M 196.201 159.161 L 197.058 160.378 M 197.058 160.378 L 198.324 161.937 M 198.324 161.937 L 198.885 162.538 M 198.885 162.538 L 200.447 164.031 M 200.447 164.031 L 201.288 164.697 M 201.288 164.697 L 202.570 165.624 M 202.570 165.624 L 204.693 166.807 M 204.693 166.807 L 204.823 166.857 M 204.823 166.857 L 206.816 167.567 M 206.816 167.567 L 208.939 167.965 M 208.939 167.965 L 209.514 167.974 M 26.369 62.380 L 28.376 63.193 M 28.376 63.193 L 28.492 63.237 M 28.492 63.237 L 28.730 63.277 M 194.589 152.929 L 194.857 153.899 M 194.857 153.899 L 195.734 156.059 M 195.734 156.059 L 196.201 156.947 M 196.201 156.947 L 196.944 158.218 M 196.944 158.218 L 198.324 160.176 M 198.324 160.176 L 198.488 160.378 M 198.488 160.378 L 200.447 162.474 M 200.447 162.474 L 200.518 162.538 M 200.518 162.538 L 202.570 164.165 M 202.570 164.165 L 203.439 164.697 M 203.439 164.697 L 204.693 165.399 M 204.693 165.399 L 206.816 166.215 M 206.816 166.215 L 208.009 166.458 M 32.674 269.643 L 32.737 269.650 M 32.737 269.650 L 33.293 269.605 M 38.106 268.406 L 38.206 268.361 M 25.915 60.328 L 26.369 60.648 M 26.369 60.648 L 27.215 61.034 M 27.215 61.034 L 28.213 61.444 M 196.571 154.927 L 197.083 156.059 M 197.083 156.059 L 198.324 158.178 M 198.324 158.178 L 198.351 158.218 M 198.351 158.218 L 200.102 160.378 M 200.102 160.378 L 200.447 160.747 M 200.447 160.747 L 202.463 162.538 M 202.463 162.538 L 202.570 162.622 M 202.570 162.622 L 204.693 163.927 M 204.693 163.927 L 206.082 164.515 M 25.891 58.389 L 26.369 58.777 M 26.369 58.777 L 26.553 58.874 M 26.553 58.874 L 27.627 59.370 M 201.433 159.829 L 201.970 160.378 M 201.970 160.378 L 202.043 160.444" fill="none" stroke="#e5e7eb" stroke-width="1" vector-effect="non-scaling-stroke"/></svg>