<svg xmlns="http://www.w3.org/2000/svg" viewBox="12 12 396 268.53956175277926" width="396" height="268.53956175277926" shape-rendering="geometricPrecision"><rect x="12" y="12" width="396" height="268.53956175277926" fill="#0b0f14"/><path d="M 20.000 23.195 L 20.670 23.954 L 24.000 27.704 L 24.151 27.908 L 27.395 31.862 L 28.000 32.829 L 29.926 35.815 L 32.000 39.298 L 32.277 39.769 L 34.902 43.723 L 36.000 46.125 L 36.859 47.677 L 39.361 51.631 L 40.000 53.298 L 41.380 55.585 L 43.929 59.538 L 44.000 59.721 L 48.000 63.486 L 48.053 63.492 L 52.000 64.071 L 55.845 63.492 M 327.481 20.000 L 327.950 23.954 L 328.000 24.248 L 328.545 27.908 L 329.757 31.862 L 331.395 35.815 L 332.000 37.423 L 332.889 39.769 L 335.506 43.723 L 336.000 44.493 L 338.360 47.677 L 340.000 49.525 L 342.181 51.631 L 344.000 53.166 L 347.357 55.585 L 348.000 56.005 L 352.000 58.726 L 354.024 59.538 L 356.000 60.442 L 360.000 62.392 L 364.000 63.480 L 364.155 63.492 L 368.000 64.071 L 371.947 63.492 M 200.000 70.394 L 204.000 69.926 L 208.000 69.685 L 212.000 69.685 L 216.000 69.926 L 220.000 70.394 L 224.000 71.027 L 226.545 71.400 L 228.000 71.602 L 232.000 72.642 L 236.000 74.148 L 239.593 75.354 L 240.000 75.479 L 244.000 77.332 L 247.902 79.308 L 248.000 79.353 L 252.000 81.830 L 254.340 83.262 L 256.000 84.306 L 259.752 87.215 L 260.000 87.405 L 264.000 91.096 L 264.078 91.169 L 268.000 95.101 M 372.000 82.376 L 371.764 83.262 L 370.399 87.215 L 369.209 91.169 L 368.452 95.123 L 368.095 99.077 L 368.015 103.031 L 368.133 106.985 L 368.619 110.938 L 369.698 114.892 L 371.341 118.846 L 372.000 120.547 L 372.911 122.800 L 375.552 126.754 L 376.000 127.521 L 378.272 130.708 L 380.000 133.079 L 381.514 134.662 L 384.000 137.455 L 385.704 138.615 L 388.000 140.704 L 392.000 142.332 L 396.000 141.877 L 400.000 139.422 M 49.601 87.215 L 50.791 91.169 L 51.548 95.123 L 51.905 99.077 L 51.985 103.031 L 51.867 106.985 L 51.381 110.938 L 50.302 114.892 L 48.659 118.846 M 271.601 99.077 L 272.000 99.619 L 274.521 103.031 L 276.000 105.427 L 276.908 106.985 L 279.504 110.938 L 280.000 112.089 L 281.242 114.892 L 283.241 118.846 L 284.000 121.389 L 284.413 122.800 L 285.788 126.754 L 286.981 130.708 L 287.764 134.662 L 288.000 137.134 L 288.145 138.615 L 288.494 142.569 L 288.694 146.523 L 288.694 150.477 L 288.494 154.431 L 288.145 158.385 M 96.000 101.211 L 95.341 103.031 L 93.481 106.985 L 92.055 110.938 M 92.000 111.157 L 90.933 114.892 L 89.634 118.846 L 88.634 122.800 L 88.041 126.754 M 330.366 118.846 L 331.366 122.800 L 331.959 126.754 L 332.000 127.228 M 135.587 122.800 L 134.212 126.754 L 133.019 130.708 L 132.236 134.662 M 88.000 127.228 L 87.677 130.708 L 87.300 134.662 L 87.016 138.615 L 86.834 142.569 L 86.746 146.523 L 86.746 150.477 L 86.834 154.431 L 87.016 158.385 L 87.300 162.338 L 87.677 166.292 L 88.000 169.772 L 88.041 170.246 L 88.634 174.200 L 89.634 178.154 L 90.933 182.108 L 92.000 185.843 L 92.055 186.062 L 93.481 190.015 L 95.341 193.969 L 96.000 195.789 L 96.768 197.923 L 98.903 201.877 L 100.000 204.460 L 100.570 205.831 L 102.931 209.785 L 104.000 211.999 L 104.859 213.738 L 107.562 217.692 L 108.000 218.449 L 110.062 221.646 L 112.000 224.406 L 112.859 225.600 L 116.000 229.286 L 116.228 229.554 L 120.000 233.458 M 180.000 131.669 L 178.610 134.662 L 176.911 138.615 L 176.083 142.569 M 332.700 134.662 L 332.984 138.615 L 333.166 142.569 L 333.254 146.523 L 333.254 150.477 L 333.166 154.431 L 332.984 158.385 L 332.700 162.338 L 332.323 166.292 M 20.000 139.422 L 24.000 141.877 L 28.000 142.332 L 32.000 140.704 L 34.296 138.615 M 131.855 138.615 L 131.506 142.569 L 131.306 146.523 L 131.306 150.477 L 131.506 154.431 L 131.855 158.385 L 132.000 159.866 M 176.000 143.829 L 175.800 146.523 L 175.800 150.477 L 176.000 153.171 L 176.083 154.431 L 176.911 158.385 L 178.610 162.338 L 180.000 165.331 L 180.443 166.292 L 183.549 170.246 L 184.000 170.792 L 187.367 174.200 L 188.000 174.738 L 192.000 177.899 L 192.530 178.154 L 196.000 179.872 L 200.000 181.553 L 203.217 182.108 L 204.000 182.245 L 208.000 182.673 L 212.000 182.673 L 216.000 182.220 L 216.783 182.108 M 288.000 159.866 L 287.764 162.338 L 286.981 166.292 L 285.788 170.246 L 284.413 174.200 M 133.019 166.292 L 134.212 170.246 L 135.587 174.200 L 136.000 175.611 M 331.959 170.246 L 331.366 174.200 L 330.366 178.154 L 329.067 182.108 M 372.000 176.453 L 371.341 178.154 L 369.698 182.108 L 368.619 186.062 L 368.133 190.015 L 368.015 193.969 L 368.095 197.923 L 368.452 201.877 L 369.209 205.831 L 370.399 209.785 L 371.764 213.738 L 372.000 214.624 L 373.377 217.692 L 376.000 221.343 L 376.652 221.646 L 380.000 222.878 L 384.000 222.839 L 388.000 222.258 L 392.000 221.682 L 392.280 221.646 M 50.302 182.108 L 51.381 186.062 L 51.867 190.015 L 51.985 193.969 L 51.905 197.923 L 51.548 201.877 L 50.791 205.831 L 49.601 209.785 L 48.236 213.738 M 272.000 197.381 L 271.601 197.923 L 268.020 201.877 L 264.078 205.831 M 20.000 220.523 L 24.000 221.207 L 27.720 221.646 L 28.000 221.687 L 32.000 222.258 L 36.000 222.839 L 40.000 222.878 L 43.348 221.646 M 124.000 237.323 L 124.152 237.462 L 128.000 240.915 L 128.610 241.415 L 132.000 244.205 L 133.538 245.369 L 136.000 247.221 L 138.914 249.323 L 140.000 250.075 L 144.000 253.125 L 144.256 253.277 L 148.000 255.688 L 150.898 257.231 L 152.000 257.790 L 156.000 260.157 L 158.660 261.185 L 160.000 261.680 L 164.000 263.478 L 168.000 264.929 L 168.887 265.138 L 172.000 265.902 L 176.000 267.181 L 180.000 268.334 L 183.989 269.092 M 332.000 259.577 L 331.395 261.185 L 329.757 265.138 L 328.545 269.092 M 188.000 269.791 L 192.000 270.630 L 196.000 271.392 L 200.000 271.980 L 204.000 272.359 L 208.000 272.540 L 212.000 272.540 L 216.000 272.359 L 220.000 271.980 L 224.000 271.392 L 228.000 270.630 L 232.000 269.791" fill="none" stroke="#2dd4bf" stroke-width="1" vector-effect="non-scaling-stroke"/><path d="M 273.225 101.277 L 272.582 102.594 M 253.054 88.775 L 252.767 89.567 M 275.105 103.977 L 273.498 105.877 M 246.385 85.155 L 245.569 86.951 M 277.730 108.236 L 275.714 110.493 M 275.714 110.493 L 274.926 110.999 M 49.600 87.251 L 49.612 87.253 M 371.589 86.875 L 374.483 87.435 M 49.511 194.219 L 51.963 194.209 M 51.963 194.209 L 51.980 194.217 M 368.037 194.273 L 371.589 194.368 M 371.589 194.368 L 375.140 195.784 M 375.140 195.784 L 377.347 197.366 M 377.347 197.366 L 378.692 199.263 M 378.692 199.263 L 379.580 200.986 M 379.580 200.986 L 379.532 204.606 M 233.011 81.535 L 232.634 82.251 M 371.921 82.673 L 372.157 82.697 M 368.369 190.127 L 371.589 190.288 M 371.589 190.288 L 375.140 191.335 M 375.140 191.335 L 378.692 193.133 M 378.692 193.133 L 379.589 193.746 M 379.589 193.746 L 379.896 194.049 M 384.688 204.726 L 383.237 208.225 M 236.622 74.356 L 233.084 78.322 M 49.973 187.140 L 51.505 187.070 M 368.496 187.067 L 371.589 187.240 M 371.589 187.240 L 375.140 188.109 M 375.140 188.109 L 377.702 189.158 M 284.588 173.502 L 284.639 173.552 M 50.147 184.481 L 50.938 184.440 M 369.068 184.417 L 371.589 184.567 M 371.589 184.567 L 375.140 185.347 M 375.140 185.347 L 376.155 185.712 M 285.044 171.677 L 285.227 171.860 M 134.835 171.969 L 134.817 171.986 M 369.755 181.970 L 371.589 182.086 M 371.589 182.086 L 374.831 182.761 M 231.676 72.558 L 229.533 74.637 M 285.511 169.813 L 285.824 170.126 M 370.699 179.699 L 371.589 179.762 M 371.589 179.762 L 373.690 180.218 M 286.347 128.606 L 282.886 132.211 M 285.987 167.911 L 286.355 168.307 M 286.355 168.307 L 286.368 168.323 M 133.722 168.491 L 133.692 168.523 M 371.583 177.529 L 371.589 177.529 M 371.589 177.529 L 372.578 177.740 M 282.804 135.133 L 282.121 135.831 M 282.121 135.831 L 281.923 136.081 M 286.485 165.921 L 286.932 166.454 M 48.411 62.893 L 50.535 63.437 M 50.535 63.437 L 51.963 63.753 M 51.963 63.753 L 52.515 63.994 M 286.997 163.873 L 287.362 164.368 M 110.215 200.975 L 110.216 200.986 M 110.216 200.986 L 110.222 200.997 M 214.853 75.791 L 215.327 75.662 M 215.327 75.662 L 217.971 74.296 M 48.411 59.732 L 48.664 59.817 M 48.664 59.817 L 51.963 60.687 M 51.963 60.687 L 54.505 61.986 M 368.037 60.847 L 368.982 60.592 M 287.541 161.701 L 287.793 162.042 M 106.889 193.746 L 105.980 197.366 M 105.980 197.366 L 106.617 200.986 M 106.617 200.986 L 108.785 204.434 M 48.411 55.589 L 49.150 55.966 M 210.080 74.057 L 211.776 74.039 M 211.776 74.039 L 215.327 73.198 M 215.327 73.198 L 218.879 71.600 M 218.879 71.600 L 220.327 70.676 M 286.355 140.779 L 285.294 143.070 M 285.294 143.070 L 284.653 145.868 M 95.347 193.985 L 98.131 195.590 M 98.131 195.590 L 100.396 193.746 M 164.101 258.560 L 163.714 258.901 M 163.714 258.901 L 163.803 262.521 M 163.803 262.521 L 165.262 263.936 M 202.491 70.103 L 203.916 70.676 M 203.916 70.676 L 204.673 71.004 M 204.673 71.004 L 208.224 71.776 M 208.224 71.776 L 211.776 71.742 M 211.776 71.742 L 215.327 70.888 M 215.327 70.888 L 215.836 70.676 M 288.373 141.204 L 287.590 143.070 M 287.590 143.070 L 286.843 146.690 M 286.843 146.690 L 286.907 150.310 M 286.907 150.310 L 287.754 153.930 M 287.754 153.930 L 288.404 155.447 M 131.966 154.907 L 131.620 155.726 M 92.562 187.466 L 94.579 188.377 M 94.579 188.377 L 98.131 188.842 M 98.131 188.842 L 101.682 187.992 M 101.682 187.992 L 104.026 186.507 M 170.045 261.708 L 170.036 262.521 M 170.036 262.521 L 171.021 265.662 M 91.371 183.642 L 94.579 184.737 M 94.579 184.737 L 98.131 185.057 M 98.131 185.057 L 101.682 184.368 M 101.682 184.368 L 104.685 182.887 M 173.965 263.784 L 174.528 266.141 M 174.528 266.141 L 174.836 266.809 M 179.887 165.087 L 182.579 168.408 M 182.579 168.408 L 183.364 169.274 M 183.364 169.274 L 185.950 172.028 M 185.950 172.028 L 186.916 172.988 M 186.916 172.988 L 189.794 175.648 M 189.794 175.648 L 190.467 176.252 M 190.467 176.252 L 193.359 178.564 M 329.458 180.506 L 329.618 180.432 M 90.361 180.366 L 91.028 180.679 M 91.028 180.679 L 94.579 181.693 M 94.579 181.693 L 98.131 181.941 M 98.131 181.941 L 101.682 181.342 M 101.682 181.342 L 104.007 180.368 M 177.271 265.535 L 177.393 266.141 M 177.393 266.141 L 178.034 267.767 M 176.640 157.092 L 176.809 157.549 M 176.809 157.549 L 178.752 161.169 M 178.752 161.169 L 179.813 162.712 M 179.813 162.712 L 181.240 164.789 M 181.240 164.789 L 183.364 167.405 M 183.364 167.405 L 184.208 168.408 M 184.208 168.408 L 186.916 171.292 M 186.916 171.292 L 187.658 172.028 M 187.658 172.028 L 190.467 174.627 M 190.467 174.627 L 191.706 175.648 M 191.706 175.648 L 194.019 177.500 M 194.019 177.500 L 196.628 179.268 M 196.628 179.268 L 197.570 179.915 M 197.570 179.915 L 200.884 181.706 M 89.430 177.349 L 91.028 178.029 M 91.028 178.029 L 94.579 178.940 M 94.579 178.940 L 98.131 179.153 M 98.131 179.153 L 101.682 178.602 M 101.682 178.602 L 103.292 177.992 M 180.390 267.187 L 180.864 268.498 M 176.765 144.547 L 176.363 146.690 M 176.363 146.690 L 176.365 150.310 M 176.365 150.310 L 177.048 153.930 M 177.048 153.930 L 178.388 157.549 M 178.388 157.549 L 179.813 160.190 M 179.813 160.190 L 180.341 161.169 M 180.341 161.169 L 182.834 164.789 M 182.834 164.789 L 183.364 165.442 M 183.364 165.442 L 185.858 168.408 M 185.858 168.408 L 186.916 169.535 M 186.916 169.535 L 189.431 172.028 M 189.431 172.028 L 190.467 172.987 M 190.467 172.987 L 193.694 175.648 M 193.694 175.648 L 194.019 175.908 M 194.019 175.908 L 197.570 178.317 M 197.570 178.317 L 199.355 179.268 M 199.355 179.268 L 201.121 180.223 M 201.121 180.223 L 204.673 181.552 M 204.673 181.552 L 208.224 182.237 M 208.224 182.237 L 211.776 182.242 M 211.776 182.242 L 215.327 181.555 M 215.327 181.555 L 215.940 181.316 M 88.723 174.555 L 91.028 175.499 M 91.028 175.499 L 91.634 175.648 M 91.634 175.648 L 94.579 176.396 M 94.579 176.396 L 98.131 176.603 M 98.131 176.603 L 101.682 176.052 M 101.682 176.052 L 102.603 175.704 M 183.403 268.782 L 183.478 268.995 M 352.698 44.665 L 352.836 45.338 M 352.836 45.338 L 352.741 48.958 M 352.741 48.958 L 351.808 52.577 M 331.465 172.272 L 331.668 172.188 M 178.102 145.801 L 177.934 146.690 M 177.934 146.690 L 177.934 150.310 M 177.934 150.310 L 178.619 153.930 M 178.619 153.930 L 179.813 157.135 M 179.813 157.135 L 179.967 157.549 M 179.967 157.549 L 181.921 161.169 M 181.921 161.169 L 183.364 163.261 M 183.364 163.261 L 184.458 164.789 M 184.458 164.789 L 186.916 167.709 M 186.916 167.709 L 187.549 168.408 M 187.549 168.408 L 190.467 171.303 M 190.467 171.303 L 191.287 172.028 M 191.287 172.028 L 194.019 174.283 M 194.019 174.283 L 195.976 175.648 M 195.976 175.648 L 197.570 176.730 M 197.570 176.730 L 201.121 178.623 M 201.121 178.623 L 202.872 179.268 M 202.872 179.268 L 204.673 179.942 M 204.673 179.942 L 208.224 180.627 M 208.224 180.627 L 211.776 180.632 M 211.776 180.632 L 214.614 180.072 M 88.293 171.926 L 88.538 172.028 M 88.538 172.028 L 91.028 173.045 M 91.028 173.045 L 94.579 173.912 M 94.579 173.912 L 98.131 174.111 M 98.131 174.111 L 101.682 173.580 M 101.682 173.580 L 101.935 173.488 M 87.955 169.286 L 91.028 170.560 M 91.028 170.560 L 94.579 171.443 M 94.579 171.443 L 98.131 171.644 M 98.131 171.644 L 101.237 171.172 M 179.504 147.118 L 179.502 150.310 M 179.502 150.310 L 179.813 151.947 M 179.813 151.947 L 180.186 153.930 M 180.186 153.930 L 181.532 157.549 M 181.532 157.549 L 183.364 160.920 M 183.364 160.920 L 183.505 161.169 M 183.505 161.169 L 186.097 164.789 M 186.097 164.789 L 186.916 165.762 M 186.916 165.762 L 189.310 168.408 M 189.310 168.408 L 190.467 169.556 M 190.467 169.556 L 193.262 172.028 M 193.262 172.028 L 194.019 172.653 M 194.019 172.653 L 197.570 175.131 M 197.570 175.131 L 198.516 175.648 M 198.516 175.648 L 201.121 177.038 M 201.121 177.038 L 204.673 178.347 M 204.673 178.347 L 208.224 179.021 M 208.224 179.021 L 211.776 179.027 M 211.776 179.027 L 213.212 178.756 M 188.617 269.791 L 188.690 269.936 M 348.127 41.718 L 348.742 45.338 M 348.742 45.338 L 348.565 48.958 M 348.565 48.958 L 347.590 52.577 M 181.057 148.575 L 181.056 150.310 M 181.056 150.310 L 181.741 153.930 M 181.741 153.930 L 183.098 157.549 M 183.098 157.549 L 183.364 158.039 M 183.364 158.039 L 185.131 161.169 M 185.131 161.169 L 186.916 163.655 M 186.916 163.655 L 187.791 164.789 M 187.791 164.789 L 190.467 167.746 M 190.467 167.746 L 191.140 168.408 M 191.140 168.408 L 194.019 170.957 M 194.019 170.957 L 195.453 172.028 M 195.453 172.028 L 197.570 173.508 M 197.570 173.508 L 201.121 175.449 M 201.121 175.449 L 201.650 175.648 M 201.650 175.648 L 204.673 176.763 M 204.673 176.763 L 208.224 177.439 M 208.224 177.439 L 211.776 177.449 M 211.776 177.449 L 211.813 177.442 M 87.700 166.547 L 91.028 168.027 M 91.028 168.027 L 92.458 168.408 M 92.458 168.408 L 94.579 168.934 M 94.579 168.934 L 98.131 169.135 M 98.131 169.135 L 100.518 168.783 M 191.170 269.791 L 191.584 270.543 M 182.606 150.029 L 182.606 150.310 M 182.606 150.310 L 183.296 153.930 M 183.296 153.930 L 183.364 154.111 M 183.364 154.111 L 184.702 157.549 M 184.702 157.549 L 186.757 161.169 M 186.757 161.169 L 186.916 161.390 M 186.916 161.390 L 189.541 164.789 M 189.541 164.789 L 190.467 165.812 M 190.467 165.812 L 193.100 168.408 M 193.100 168.408 L 194.019 169.221 M 194.019 169.221 L 197.570 171.875 M 197.570 171.875 L 197.832 172.028 M 197.832 172.028 L 201.121 173.832 M 201.121 173.832 L 204.673 175.171 M 204.673 175.171 L 207.127 175.648 M 207.127 175.648 L 208.224 175.857 M 208.224 175.857 L 210.133 175.866 M 392.897 141.761 L 392.528 142.272 M 87.416 163.564 L 87.477 163.604 M 87.477 163.604 L 89.817 164.789 M 89.817 164.789 L 91.028 165.326 M 91.028 165.326 L 94.579 166.269 M 94.579 166.269 L 98.131 166.484 M 98.131 166.484 L 99.746 166.221 M 193.903 269.791 L 194.019 270.001 M 194.019 270.001 L 194.753 271.155 M 184.466 151.775 L 184.893 153.930 M 184.893 153.930 L 186.314 157.549 M 186.314 157.549 L 186.916 158.609 M 186.916 158.609 L 188.482 161.169 M 188.482 161.169 L 190.467 163.734 M 190.467 163.734 L 191.382 164.789 M 191.382 164.789 L 194.019 167.389 M 194.019 167.389 L 195.242 168.408 M 195.242 168.408 L 197.570 170.152 M 197.570 170.152 L 200.782 172.028 M 200.782 172.028 L 201.121 172.214 M 201.121 172.214 L 204.673 173.560 M 204.673 173.560 L 208.224 174.256 M 208.224 174.256 L 208.419 174.257 M 87.138 160.087 L 87.477 160.365 M 87.477 160.365 L 88.769 161.169 M 88.769 161.169 L 91.028 162.307 M 91.028 162.307 L 94.579 163.381 M 94.579 163.381 L 98.131 163.625 M 98.131 163.625 L 98.920 163.479 M 197.067 269.791 L 197.570 270.583 M 197.570 270.583 L 198.507 271.760 M 342.482 41.718 L 342.954 45.338 M 342.954 45.338 L 342.639 48.958 M 342.639 48.958 L 341.894 51.354 M 186.429 153.617 L 186.491 153.930 M 186.491 153.930 L 186.916 155.007 M 186.916 155.007 L 187.993 157.549 M 187.993 157.549 L 190.218 161.169 M 190.218 161.169 L 190.467 161.491 M 190.467 161.491 L 193.327 164.789 M 193.327 164.789 L 194.019 165.471 M 194.019 165.471 L 197.543 168.408 M 197.543 168.408 L 197.570 168.429 M 197.570 168.429 L 201.121 170.516 M 201.121 170.516 L 204.673 171.945 M 204.673 171.945 L 205.070 172.028 M 205.070 172.028 L 206.304 172.272 M 86.880 155.434 L 87.477 156.122 M 87.477 156.122 L 89.112 157.549 M 89.112 157.549 L 91.028 158.738 M 91.028 158.738 L 94.579 160.059 M 94.579 160.059 L 97.976 160.345 M 200.943 269.791 L 201.121 270.016 M 201.121 270.016 L 203.764 272.337 M 189.108 156.132 L 189.713 157.549 M 189.713 157.549 L 190.467 158.775 M 190.467 158.775 L 192.118 161.169 M 192.118 161.169 L 194.019 163.358 M 194.019 163.358 L 195.485 164.789 M 195.485 164.789 L 197.570 166.531 M 197.570 166.531 L 200.444 168.408 M 200.444 168.408 L 201.121 168.807 M 201.121 168.807 L 203.750 169.874 M 91.028 143.014 L 90.965 143.070 M 90.965 143.070 L 88.921 146.690 M 88.921 146.690 L 88.994 150.310 M 88.994 150.310 L 91.028 153.673 M 91.028 153.673 L 91.288 153.930 M 91.288 153.930 L 94.579 155.644 M 94.579 155.644 L 96.632 155.883 M 338.676 41.718 L 339.066 45.338 M 339.066 45.338 L 338.729 48.093 M 193.248 160.018 L 194.019 161.131 M 194.019 161.131 L 194.050 161.169 M 194.050 161.169 L 197.570 164.606 M 197.570 164.606 L 197.808 164.789 M 197.808 164.789 L 199.553 165.935 M 334.611 41.718 L 334.672 42.463" fill="none" stroke="#FFF200" stroke-width="1" vector-effect="non-scaling-stroke"/></svg>