<svg xmlns="http://www.w3.org/2000/svg" viewBox="12 12 395.9137611967519 273" width="395.9137611967519" height="273" shape-rendering="geometricPrecision"><rect x="12" y="12" width="395.9137611967519" height="273" fill="#0b0f14"/><path d="M 327.379 20.000 L 327.717 22.358 L 328.118 24.716 L 328.302 25.940 L 328.452 27.073 L 329.040 29.431 L 329.858 31.789 L 330.652 34.147 L 330.692 34.270 L 331.466 36.505 L 332.699 38.862 L 333.082 39.737 L 333.756 41.220 L 335.337 43.578 L 335.472 43.797 L 336.962 45.936 L 337.862 47.131 L 338.802 48.294 L 340.252 49.870 L 341.034 50.651 L 342.642 52.126 L 343.729 53.009 L 345.031 54.013 L 346.961 55.367 L 347.421 55.666 L 349.811 57.385 L 350.506 57.725 L 352.201 58.619 L 354.591 59.954 L 354.952 60.083 L 356.981 60.950 L 359.371 62.068 L 360.825 62.440 L 361.761 62.727 L 364.151 63.521 L 366.541 64.100 L 368.931 64.284 L 371.321 63.859 L 373.633 62.440 M 20.000 22.972 L 21.601 24.716 L 22.390 25.619 L 23.568 27.073 L 24.780 28.631 L 25.354 29.431 L 27.170 31.784 M 91.548 27.073 L 90.960 29.431 L 90.142 31.789 L 89.348 34.147 M 28.896 34.147 L 29.560 35.269 L 30.301 36.505 L 31.892 38.862 L 31.950 38.974 L 33.308 41.220 L 34.340 43.163 L 34.564 43.578 L 36.085 45.936 L 36.730 47.337 L 37.229 48.294 L 38.720 50.651 L 39.119 51.603 L 39.871 53.009 L 41.336 55.367 L 41.509 55.792 L 42.695 57.725 L 43.899 59.768 L 44.179 60.083 L 46.289 62.399 L 46.367 62.440 L 48.679 63.859 L 51.069 64.284 L 53.459 64.100 L 55.849 63.521 L 58.239 62.654 L 59.175 62.440 M 194.465 71.261 L 196.855 70.744 L 199.245 70.311 L 201.635 69.988 L 204.025 69.773 L 206.415 69.649 L 208.805 69.594 L 211.195 69.594 L 213.585 69.649 L 215.975 69.773 L 218.365 69.988 L 220.755 70.311 L 223.145 70.744 L 225.535 71.261 L 227.925 71.767 L 228.509 71.872 L 230.314 72.203 L 232.704 72.957 L 235.094 73.831 L 236.522 74.229 L 237.484 74.491 L 239.874 75.534 L 242.264 76.568 M 244.654 77.638 L 247.044 78.915 L 247.106 78.945 L 249.434 80.221 L 251.358 81.303 L 251.824 81.554 L 254.214 83.295 L 254.792 83.661 L 256.604 84.890 L 258.167 86.018 L 258.994 86.622 L 261.120 88.376 L 261.384 88.592 L 263.724 90.734 L 263.774 90.779 L 266.139 93.092 L 266.164 93.117 L 268.419 95.450 L 268.553 95.603 L 270.502 97.807 L 270.943 98.372 L 272.344 100.165 L 273.333 101.556 L 273.991 102.523 L 275.712 104.881 M 373.711 78.810 L 373.653 78.945 L 372.430 81.303 L 371.421 83.661 M 371.321 84.002 L 370.782 86.018 L 369.988 88.376 L 369.336 90.734 L 368.941 93.092 M 50.012 88.376 L 50.664 90.734 L 51.059 93.092 L 51.069 93.179 M 161.006 86.622 L 158.616 88.566 L 156.226 90.777 L 153.836 93.116 L 151.447 95.586 L 149.057 98.252 M 368.931 93.179 L 368.660 95.450 L 368.366 97.807 L 368.161 100.165 L 368.078 102.523 L 368.134 104.881 L 368.333 107.239 L 368.654 109.596 L 368.931 111.591 L 368.977 111.954 L 369.520 114.312 L 370.401 116.670 L 371.302 119.028 L 371.321 119.077 L 372.309 121.385 L 373.638 123.743 L 373.711 123.889 L 374.997 126.101 L 376.101 127.903 L 376.452 128.459 L 378.355 130.817 L 378.491 131.013 L 380.296 133.174 L 380.881 133.928 L 382.403 135.532 L 383.270 136.518 L 384.839 137.890 L 385.660 138.707 L 387.815 140.248 L 388.050 140.446 L 390.440 141.873 L 392.830 142.325 L 395.220 141.975 L 397.610 140.790 L 398.466 140.248 M 51.634 97.807 L 51.839 100.165 L 51.922 102.523 L 51.866 104.881 L 51.667 107.239 L 51.346 109.596 M 96.478 100.122 L 96.461 100.165 L 95.428 102.523 L 94.327 104.881 M 94.088 105.646 L 93.565 107.239 L 92.528 109.596 L 91.730 111.954 M 277.261 107.239 L 278.113 108.832 L 278.502 109.596 L 279.975 111.954 L 280.503 113.194 L 280.973 114.312 L 282.234 116.670 L 282.893 118.514 L 283.066 119.028 L 284.052 121.385 L 284.971 123.743 L 285.283 125.075 L 285.523 126.101 L 286.237 128.459 L 286.925 130.817 L 287.447 133.174 L 287.673 135.009 L 287.736 135.532 L 288.050 137.890 L 288.357 140.248 L 288.604 142.606 L 288.773 144.963 L 288.858 147.321 L 288.858 149.679 L 288.773 152.037 L 288.604 154.394 L 288.357 156.752 L 288.050 159.110 L 287.736 161.468 M 51.023 111.954 L 50.480 114.312 L 49.599 116.670 L 48.698 119.028 M 91.698 112.080 L 91.072 114.312 L 90.249 116.670 L 89.571 119.028 M 89.308 120.596 L 89.177 121.385 L 88.694 123.743 L 88.201 126.101 L 87.774 128.459 L 87.436 130.817 L 87.188 133.174 L 87.019 135.532 L 86.921 137.890 M 331.306 123.743 L 331.799 126.101 L 332.226 128.459 L 332.564 130.817 L 332.812 133.174 L 332.981 135.532 L 333.079 137.890 L 333.082 137.979 M 134.477 126.101 L 133.763 128.459 L 133.075 130.817 L 132.553 133.174 M 132.264 135.532 L 131.950 137.890 L 131.643 140.248 L 131.396 142.606 L 131.227 144.963 L 131.142 147.321 L 131.142 149.679 L 131.227 152.037 L 131.396 154.394 L 131.643 156.752 L 131.950 159.110 L 132.264 161.468 L 132.327 161.991 M 177.736 136.751 L 177.410 137.890 L 176.650 140.248 L 176.065 142.606 L 175.718 144.963 L 175.568 147.321 L 175.568 149.679 L 175.718 152.037 L 176.065 154.394 L 176.650 156.752 L 177.410 159.110 L 177.736 160.249 L 178.081 161.468 L 179.298 163.826 L 180.126 165.522 L 180.444 166.183 L 182.188 168.541 L 182.516 169.013 L 183.993 170.899 L 184.906 171.938 L 186.198 173.257 L 187.296 174.257 L 188.986 175.615 L 189.686 176.120 L 192.075 177.873 L 192.271 177.972 L 194.465 179.156 L 196.855 180.284 L 197.011 180.330 L 199.245 181.077 L 201.635 181.898 L 204.025 182.432 L 206.415 182.680 L 206.626 182.688 L 208.805 182.779 L 211.195 182.766 L 213.374 182.688 M 20.000 139.566 L 21.534 140.248 L 22.390 140.790 L 24.780 141.975 L 27.170 142.325 L 29.560 141.873 L 31.950 140.377 L 32.185 140.248 M 86.918 137.979 L 86.855 140.248 L 86.790 142.606 L 86.744 144.963 L 86.721 147.321 L 86.721 149.679 L 86.744 152.037 L 86.790 154.394 L 86.855 156.752 L 86.918 159.021 L 86.921 159.110 L 87.019 161.468 L 87.188 163.826 L 87.436 166.183 L 87.774 168.541 L 88.201 170.899 L 88.694 173.257 L 89.177 175.615 L 89.308 176.404 L 89.571 177.972 L 90.249 180.330 L 91.072 182.688 L 91.698 184.920 L 91.730 185.046 L 92.528 187.404 L 93.565 189.761 L 94.088 191.354 L 94.327 192.119 L 95.428 194.477 L 96.461 196.835 L 96.478 196.878 L 97.478 199.193 L 98.701 201.550 L 98.868 201.964 L 99.711 203.908 L 101.041 206.266 L 101.258 206.766 L 102.127 208.624 L 103.524 210.982 L 103.648 211.241 L 104.768 213.339 L 106.038 215.548 L 106.117 215.697 L 107.714 218.055 L 108.428 219.264 L 109.125 220.413 L 110.818 222.739 L 110.839 222.771 L 112.737 225.128 L 113.208 225.757 L 114.585 227.486 L 115.597 228.703 L 116.575 229.844 L 117.987 231.388 L 118.746 232.202 L 120.377 233.853 L 121.092 234.560 L 122.767 236.150 L 123.601 236.917 L 125.157 238.309 L 126.269 239.275 L 127.547 240.355 L 129.083 241.633 L 129.937 242.318 L 131.983 243.991 L 132.327 244.255 L 134.717 246.289 L 134.798 246.349 L 137.107 248.170 L 137.879 248.706 L 139.497 249.855 L 141.260 251.064 L 141.887 251.477 L 144.277 253.284 L 144.509 253.422 L 146.667 254.809 L 148.371 255.780 L 149.057 256.154 L 151.447 257.729 L 152.326 258.138 L 153.836 258.856 L 156.226 260.214 L 156.959 260.495 L 158.616 261.153 L 161.006 262.340 L 162.596 262.853 L 163.396 263.101 L 165.786 264.071 L 168.176 264.960 L 169.233 265.211 L 170.566 265.528 L 172.956 266.316 L 175.346 267.081 L 177.631 267.569 L 177.736 267.589 L 180.126 268.120 L 182.516 268.773 L 184.906 269.388 L 187.296 269.852 L 187.868 269.927 L 189.686 270.177 L 192.075 270.632 L 194.465 271.098 L 196.855 271.514 L 199.245 271.847 L 201.635 272.086 L 204.025 272.235 L 205.817 272.284 L 206.415 272.301 L 208.805 272.343 L 211.195 272.343 L 213.585 272.300 L 214.183 272.284 M 243.350 140.248 L 243.935 142.606 L 244.282 144.963 L 244.432 147.321 L 244.432 149.679 L 244.282 152.037 L 243.935 154.394 L 243.350 156.752 L 242.590 159.110 M 333.210 142.606 L 333.256 144.963 L 333.279 147.321 L 333.279 149.679 L 333.256 152.037 L 333.210 154.394 L 333.145 156.752 M 333.079 159.110 L 332.981 161.468 L 332.812 163.826 L 332.564 166.183 L 332.226 168.541 L 331.799 170.899 L 331.306 173.257 L 330.823 175.615 M 287.673 161.991 L 287.447 163.826 L 286.925 166.183 L 286.237 168.541 L 285.523 170.899 M 133.075 166.183 L 133.763 168.541 L 134.477 170.899 L 134.717 171.925 M 285.283 171.925 L 284.971 173.257 L 284.052 175.615 L 283.066 177.972 M 371.321 177.923 L 371.302 177.972 L 370.401 180.330 L 369.520 182.688 L 368.977 185.046 M 49.599 180.330 L 50.480 182.688 L 51.023 185.046 L 51.069 185.409 M 215.975 182.432 L 218.365 181.898 L 220.755 181.077 L 222.989 180.330 M 368.931 185.409 L 368.654 187.404 L 368.333 189.761 L 368.134 192.119 L 368.078 194.477 L 368.161 196.835 L 368.366 199.193 L 368.660 201.550 L 368.931 203.821 L 368.941 203.908 L 369.336 206.266 L 369.988 208.624 L 370.782 210.982 L 371.321 212.998 L 371.421 213.339 L 372.430 215.697 L 373.653 218.055 L 373.711 218.190 L 375.384 220.413 L 376.101 221.230 L 378.491 222.634 L 379.640 222.771 L 380.881 222.898 L 383.270 222.858 L 384.963 222.771 M 51.667 189.761 L 51.866 192.119 L 51.922 194.477 L 51.839 196.835 L 51.634 199.193 L 51.340 201.550 M 51.059 203.908 L 50.664 206.266 L 50.012 208.624 L 49.218 210.982 M 20.000 220.404 L 20.086 220.413 L 22.390 220.687 L 24.780 221.113 L 27.170 221.598 L 29.560 222.076 L 31.950 222.477 L 34.340 222.740 L 35.037 222.771 L 36.730 222.878 L 39.119 222.869 L 40.360 222.771 M 244.654 219.362 L 242.313 220.413 L 239.874 221.466 L 237.484 222.509 L 236.522 222.771 M 388.050 222.477 L 390.440 222.076 L 392.830 221.598 L 395.220 221.113 L 397.610 220.687 L 399.914 220.413 M 29.560 261.731 L 28.896 262.853 L 27.173 265.211 L 25.354 267.569 M 330.692 262.730 L 330.652 262.853 L 329.858 265.211 L 329.040 267.569 L 328.452 269.927 M 90.142 265.211 L 90.960 267.569 L 91.548 269.927 L 91.698 271.060 M 218.365 272.086 L 220.755 271.847 L 223.145 271.514 L 225.535 271.098 L 227.925 270.632 L 230.314 270.177 L 232.132 269.927 M 328.302 271.060 L 328.118 272.284 L 327.717 274.642 L 327.379 277.000" fill="none" stroke="#2dd4bf" stroke-width="1" vector-effect="non-scaling-stroke"/><path d="M 273.311 101.525 L 273.070 102.067 M 145.397 199.693 L 145.461 201.412 M 145.461 201.412 L 145.984 203.571 M 145.984 203.571 L 146.910 205.731 M 146.910 205.731 L 147.374 206.499 M 143.898 198.111 L 143.742 199.252 M 143.742 199.252 L 143.851 201.412 M 143.851 201.412 L 144.338 203.571 M 144.338 203.571 L 145.171 205.731 M 145.171 205.731 L 145.251 205.879 M 142.573 196.712 L 142.468 197.092 M 142.468 197.092 L 142.243 199.252 M 142.243 199.252 L 142.372 201.412 M 142.372 201.412 L 142.835 203.571 M 142.835 203.571 L 143.128 204.386 M 141.425 195.502 L 141.011 197.092 M 141.011 197.092 L 138.883 230.606 M 140.176 194.933 L 139.695 197.092 M 139.695 197.092 L 139.545 199.252 M 139.545 199.252 L 139.714 201.412 M 139.714 201.412 L 140.183 203.571 M 140.183 203.571 L 140.931 205.731 M 140.931 205.731 L 141.006 205.890 M 138.840 194.933 L 138.418 197.092 M 138.418 197.092 L 138.301 199.252 M 138.301 199.252 L 138.478 201.412 M 138.478 201.412 L 138.883 203.321 M 138.314 192.773 L 137.604 194.933 M 137.604 194.933 L 137.202 197.092 M 137.202 197.092 L 137.105 199.252 M 137.105 199.252 L 137.302 201.412 M 137.302 201.412 L 137.776 203.571 M 137.776 203.571 L 138.509 205.731 M 138.509 205.731 L 138.883 206.556 M 248.209 79.550 L 247.529 80.160 M 136.391 194.933 L 136.031 197.092 M 136.031 197.092 L 135.956 199.252 M 135.956 199.252 L 136.158 201.412 M 136.158 201.412 L 136.624 203.571 M 136.624 203.571 L 136.760 203.978 M 135.861 192.773 L 135.228 194.933 M 135.228 194.933 L 134.884 197.092 M 134.884 197.092 L 134.826 199.252 M 134.826 199.252 L 135.044 201.412 M 135.044 201.412 L 135.524 203.571 M 135.524 203.571 L 136.249 205.731 M 136.249 205.731 L 136.760 206.883 M 166.480 222.276 L 164.389 223.008 M 164.389 223.008 L 162.235 223.460 M 162.235 223.460 L 160.112 223.644 M 160.112 223.644 L 157.989 223.574 M 157.989 223.574 L 155.866 223.256 M 134.090 194.933 L 133.774 197.092 M 133.774 197.092 L 133.732 199.252 M 133.732 199.252 L 133.954 201.412 M 133.954 201.412 L 134.431 203.571 M 134.431 203.571 L 134.637 204.191 M 134.396 190.613 L 133.551 192.773 M 133.551 192.773 L 132.976 194.933 M 132.976 194.933 L 132.675 197.092 M 132.675 197.092 L 132.645 199.252 M 132.645 199.252 L 132.880 201.412 M 132.880 201.412 L 133.368 203.571 M 133.368 203.571 L 134.093 205.731 M 134.093 205.731 L 134.637 206.971 M 132.426 192.773 L 131.880 194.933 M 131.880 194.933 L 131.599 197.092 M 131.599 197.092 L 131.581 199.252 M 131.581 199.252 L 131.821 201.412 M 131.821 201.412 L 132.309 203.571 M 132.309 203.571 L 132.514 204.181 M 132.123 190.613 L 131.330 192.773 M 131.330 192.773 L 130.797 194.933 M 130.797 194.933 L 130.527 197.092 M 130.527 197.092 L 130.520 199.252 M 130.520 199.252 L 130.770 201.412 M 130.770 201.412 L 131.267 203.571 M 131.267 203.571 L 131.998 205.731 M 131.998 205.731 L 132.514 206.903 M 130.237 192.773 L 129.723 194.933 M 129.723 194.933 L 129.466 197.092 M 129.466 197.092 L 129.468 199.252 M 129.468 199.252 L 129.724 201.412 M 129.724 201.412 L 130.226 203.571 M 130.226 203.571 L 130.391 204.052 M 241.218 76.115 L 240.908 76.417 M 129.914 190.613 L 129.158 192.773 M 129.158 192.773 L 128.654 194.933 M 128.654 194.933 L 128.407 197.092 M 128.407 197.092 L 128.417 199.252 M 128.417 199.252 L 128.682 201.412 M 128.682 201.412 L 129.191 203.571 M 129.191 203.571 L 129.934 205.731 M 129.934 205.731 L 130.391 206.755 M 370.279 87.871 L 370.308 87.871 M 128.079 192.773 L 127.586 194.933 M 127.586 194.933 L 127.347 197.092 M 127.347 197.092 L 127.364 199.252 M 127.364 199.252 L 127.636 201.412 M 127.636 201.412 L 128.156 203.571 M 128.156 203.571 L 128.268 203.891 M 51.519 195.107 L 51.844 195.135 M 51.844 195.135 L 51.898 195.156 M 368.156 195.207 L 370.279 195.089 M 370.279 195.089 L 372.402 195.510 M 372.402 195.510 L 373.460 195.963 M 371.068 84.947 L 371.073 84.946 M 51.872 104.633 L 51.844 104.639 M 51.844 104.639 L 51.467 104.646 M 283.113 177.844 L 283.118 177.848 M 127.734 190.613 L 127.002 192.773 M 127.002 192.773 L 126.517 194.933 M 126.517 194.933 L 126.286 197.092 M 126.286 197.092 L 126.311 199.252 M 126.311 199.252 L 126.589 201.412 M 126.589 201.412 L 127.115 203.571 M 127.115 203.571 L 127.876 205.731 M 127.876 205.731 L 128.268 206.590 M 368.156 192.393 L 370.279 192.370 M 370.279 192.370 L 372.023 192.616 M 238.378 74.881 L 237.315 76.018 M 376.594 105.392 L 374.525 106.253 M 374.525 106.253 L 374.046 106.387 M 283.468 176.874 L 283.508 176.914 M 51.656 190.160 L 51.701 190.160 M 368.297 190.185 L 370.279 190.196 M 370.279 190.196 L 371.028 190.296 M 125.922 192.773 L 125.441 194.933 M 125.441 194.933 L 125.213 197.092 M 125.213 197.092 L 125.244 199.252 M 125.244 199.252 L 125.532 201.412 M 125.532 201.412 L 126.073 203.571 M 126.073 203.571 L 126.145 203.771 M 372.766 80.655 L 372.837 80.661 M 377.573 106.952 L 376.648 107.382 M 376.648 107.382 L 374.525 108.148 M 374.525 108.148 L 372.914 108.546 M 283.821 175.913 L 283.896 175.987 M 125.552 190.613 L 124.833 192.773 M 124.833 192.773 L 124.359 194.933 M 124.359 194.933 L 124.139 197.092 M 124.139 197.092 L 124.175 199.252 M 124.175 199.252 L 124.468 201.412 M 124.468 201.412 L 125.013 203.571 M 125.013 203.571 L 125.799 205.731 M 125.799 205.731 L 126.145 206.465 M 236.423 74.202 L 234.968 75.758 M 373.663 78.912 L 373.667 78.912 M 284.175 174.946 L 284.275 175.042 M 368.770 186.572 L 369.437 186.588 M 123.737 192.773 L 123.259 194.933 M 123.259 194.933 L 123.038 197.092 M 123.038 197.092 L 123.080 199.252 M 123.080 199.252 L 123.386 201.412 M 123.386 201.412 L 123.951 203.571 M 123.951 203.571 L 124.022 203.759 M 284.530 173.978 L 284.646 174.090 M 128.414 181.771 L 128.268 181.949 M 50.956 185.019 L 51.017 185.017 M 368.987 185.001 L 368.991 185.001 M 123.340 190.613 L 122.622 192.773 M 122.622 192.773 L 122.151 194.933 M 122.151 194.933 L 121.935 197.092 M 121.935 197.092 L 121.981 199.252 M 121.981 199.252 L 122.291 201.412 M 122.291 201.412 L 122.860 203.571 M 122.860 203.571 L 123.679 205.731 M 123.679 205.731 L 124.022 206.430 M 284.887 173.004 L 285.003 173.117 M 50.528 183.540 L 50.676 183.536 M 369.330 183.510 L 369.481 183.515 M 121.492 192.773 L 121.009 194.933 M 121.009 194.933 L 120.790 197.092 M 120.790 197.092 L 120.841 199.252 M 120.841 199.252 L 121.166 201.412 M 121.166 201.412 L 121.763 203.571 M 121.763 203.571 L 121.899 203.914 M 233.443 73.227 L 232.291 74.377 M 232.291 74.377 L 231.371 75.358 M 380.723 111.971 L 378.772 112.866 M 378.772 112.866 L 376.648 113.624 M 376.648 113.624 L 374.525 114.226 M 374.525 114.226 L 372.402 114.658 M 372.402 114.658 L 370.279 114.912 M 370.279 114.912 L 369.750 114.928 M 285.248 172.021 L 285.258 172.031 M 50.119 182.127 L 50.269 182.123 M 369.745 182.084 L 369.949 182.092 M 232.426 72.870 L 232.291 72.999 M 126.570 179.825 L 126.145 180.342 M 49.730 180.784 L 49.768 180.782 M 370.250 180.733 L 370.279 180.734 M 370.279 180.734 L 370.391 180.749 M 119.148 192.773 L 118.651 194.933 M 118.651 194.933 L 118.427 197.092 M 118.427 197.092 L 118.486 199.252 M 118.486 199.252 L 118.834 201.412 M 118.834 201.412 L 119.469 203.571 M 119.469 203.571 L 119.777 204.295 M 285.776 169.852 L 285.824 169.904 M 134.225 170.067 L 134.195 170.098 M 125.935 179.154 L 124.022 181.527 M 370.739 179.445 L 370.816 179.456 M 117.424 194.933 L 117.187 197.092 M 117.187 197.092 L 117.252 199.252 M 117.252 199.252 L 117.627 201.412 M 117.627 201.412 L 117.654 201.495 M 230.403 72.231 L 230.168 72.449 M 230.168 72.483 L 228.045 74.479 M 228.045 74.479 L 227.579 74.937 M 286.042 168.747 L 286.142 168.857 M 125.309 178.494 L 124.022 180.017 M 371.217 178.194 L 371.231 178.196 M 117.450 190.613 L 116.652 192.773 M 116.652 192.773 L 116.127 194.933 M 116.127 194.933 L 115.892 197.092 M 115.892 197.092 L 115.959 199.252 M 115.959 199.252 L 116.334 201.412 M 116.334 201.412 L 117.019 203.571 M 117.019 203.571 L 117.654 204.958 M 383.017 116.217 L 380.943 117.185 M 380.943 117.185 L 378.771 118.057 M 378.771 118.057 L 376.648 118.780 M 376.648 118.780 L 374.600 119.345 M 286.437 129.145 L 285.498 130.143 M 286.316 167.613 L 286.461 167.774 M 124.698 177.849 L 124.022 178.637 M 115.336 192.773 L 114.768 194.933 M 114.768 194.933 L 114.513 197.092 M 114.513 197.092 L 114.586 199.252 M 114.586 199.252 L 114.997 201.412 M 114.997 201.412 L 115.531 202.951 M 283.240 134.170 L 282.963 134.462 M 282.963 134.462 L 282.602 134.886 M 286.595 166.458 L 286.781 166.676 M 113.349 194.933 L 113.066 197.092 M 113.066 197.092 L 113.148 199.252 M 113.148 199.252 L 113.408 200.480 M 286.883 165.266 L 287.077 165.494 M 123.451 176.533 L 121.899 178.331 M 113.353 190.613 L 112.400 192.773 M 112.400 192.773 L 111.772 194.933 M 111.772 194.933 L 111.490 197.092 M 111.490 197.092 L 111.571 199.252 M 111.571 199.252 L 112.028 201.412 M 112.028 201.412 L 112.865 203.571 M 112.865 203.571 L 113.408 204.540 M 46.863 62.744 L 47.598 62.741 M 47.598 62.741 L 49.721 63.045 M 49.721 63.045 L 50.228 63.193 M 50.228 63.193 L 51.844 63.625 M 51.844 63.625 L 53.101 64.127 M 287.180 164.033 L 287.353 164.251 M 122.823 175.870 L 121.899 176.913 M 121.899 176.913 L 119.777 179.357 M 119.777 179.357 L 117.654 181.883 M 110.752 192.773 L 110.035 194.933 M 110.035 194.933 L 109.711 197.092 M 109.711 197.092 L 109.803 199.252 M 109.803 199.252 L 110.325 201.412 M 110.325 201.412 L 111.285 203.569 M 195.461 71.046 L 195.951 71.426 M 47.598 60.924 L 48.258 61.034 M 48.258 61.034 L 49.721 61.249 M 49.721 61.249 L 51.844 61.878 M 51.844 61.878 L 53.966 62.813 M 53.966 62.813 L 54.622 63.193 M 54.622 63.193 L 55.432 63.622 M 368.156 62.060 L 370.279 61.417 M 370.279 61.417 L 372.203 61.128 M 287.487 162.761 L 287.565 162.864 M 108.897 192.773 L 108.044 194.933 M 108.044 194.933 L 107.658 197.092 M 107.658 197.092 L 107.765 199.252 M 107.765 199.252 L 108.385 201.412 M 108.385 201.412 L 109.162 202.880 M 196.790 70.759 L 198.092 71.664 M 43.563 59.197 L 45.475 58.894 M 45.475 58.894 L 47.598 58.903 M 47.598 58.903 L 49.721 59.264 M 49.721 59.264 L 51.844 59.980 M 51.844 59.980 L 53.948 61.034 M 53.948 61.034 L 53.966 61.042 M 53.966 61.042 L 56.089 62.282 M 56.089 62.282 L 57.161 63.045 M 370.279 59.402 L 370.315 59.396 M 287.693 161.243 L 287.754 161.333 M 121.562 174.540 L 119.777 176.517 M 119.777 176.517 L 117.654 178.873 M 117.654 178.873 L 115.531 181.254 M 115.531 181.254 L 113.408 183.674 M 106.659 192.773 L 105.590 194.933 M 105.590 194.933 L 105.102 197.092 M 105.102 197.092 L 105.230 199.252 M 105.230 199.252 L 106.001 201.412 M 106.001 201.412 L 107.039 202.975 M 47.598 56.508 L 48.407 56.714 M 48.407 56.714 L 49.721 56.984 M 49.721 56.984 L 51.844 57.834 M 51.844 57.834 L 53.602 58.874 M 53.602 58.874 L 53.966 59.058 M 53.966 59.058 L 56.089 60.466 M 56.089 60.466 L 56.789 61.034 M 56.789 61.034 L 58.212 62.051 M 58.212 62.051 L 58.787 62.529 M 361.788 62.244 L 361.359 62.604 M 198.247 70.492 L 198.324 70.545 M 198.324 70.545 L 200.447 71.818 M 200.447 71.818 L 200.475 71.832 M 200.475 71.832 L 200.710 71.954 M 285.363 141.815 L 284.822 143.101 M 284.822 143.101 L 284.448 144.443 M 287.130 158.328 L 287.486 158.898 M 287.486 158.898 L 287.970 159.716 M 120.932 173.875 L 119.777 175.133 M 119.777 175.133 L 117.654 177.413 M 117.654 177.413 L 115.531 179.678 M 113.408 182.079 L 111.285 184.382 M 111.285 184.382 L 109.162 186.687 M 109.162 186.687 L 107.039 188.982 M 101.774 194.933 L 100.689 197.092 M 100.689 197.092 L 100.914 199.252 M 100.914 199.252 L 102.558 201.412 M 102.558 201.412 L 102.793 201.575 M 199.924 70.219 L 200.447 70.531 M 200.447 70.531 L 202.570 71.575 M 202.570 71.575 L 203.255 71.832 M 203.255 71.832 L 204.676 72.395 M 211.486 73.151 L 213.184 72.899 M 213.184 72.899 L 215.307 72.274 M 215.307 72.274 L 216.437 71.832 M 45.475 53.173 L 47.598 53.246 M 47.598 53.246 L 49.721 54.012 M 49.721 54.012 L 50.514 54.555 M 50.514 54.555 L 50.995 54.797 M 287.486 140.087 L 287.045 140.941 M 287.045 140.941 L 286.198 143.101 M 286.198 143.101 L 285.637 145.261 M 285.637 145.261 L 285.375 147.420 M 285.375 147.420 L 285.414 149.446 M 286.064 152.812 L 286.377 153.899 M 286.377 153.899 L 287.263 156.059 M 287.263 156.059 L 287.486 156.487 M 287.486 156.487 L 288.203 157.937 M 93.910 190.813 L 94.302 191.058 M 94.302 191.058 L 96.425 191.802 M 96.425 191.802 L 98.547 191.901 M 98.547 191.901 L 100.670 191.292 M 100.670 191.292 L 101.737 190.613 M 120.280 173.187 L 119.777 173.741 M 119.777 173.741 L 117.654 176.013 M 117.654 176.013 L 115.531 178.240 M 168.603 255.862 L 167.561 257.563 M 167.561 257.563 L 166.921 259.723 M 166.921 259.723 L 166.941 261.882 M 166.941 261.882 L 167.581 264.042 M 167.581 264.042 L 168.073 264.922 M 201.916 69.963 L 202.570 70.284 M 202.570 70.284 L 204.693 71.078 M 204.693 71.078 L 206.816 71.610 M 206.816 71.610 L 208.638 71.832 M 208.638 71.832 L 208.939 71.870 M 208.939 71.870 L 211.061 71.848 M 211.061 71.848 L 211.179 71.832 M 288.415 140.798 L 288.345 140.941 M 288.345 140.941 L 287.538 143.101 M 287.486 143.310 L 286.981 145.261 M 286.981 145.261 L 286.720 147.420 M 286.720 147.420 L 286.760 149.580 M 286.760 149.580 L 287.096 151.739 M 287.096 151.739 L 287.486 153.100 M 287.486 153.100 L 287.703 153.899 M 287.703 153.899 L 288.453 155.838 M 92.638 187.653 L 94.302 188.297 M 94.302 188.297 L 95.049 188.454 M 95.049 188.454 L 96.425 188.805 M 96.425 188.805 L 98.547 188.781 M 98.547 188.781 L 100.261 188.454 M 119.632 172.503 L 117.654 174.614 M 117.654 174.614 L 115.531 176.778 M 115.531 176.778 L 113.408 178.871 M 113.408 178.871 L 111.285 180.887 M 170.726 256.847 L 170.384 257.563 M 170.384 257.563 L 169.873 259.723 M 169.873 259.723 L 169.869 261.882 M 169.869 261.882 L 170.344 264.042 M 170.344 264.042 L 170.726 264.935 M 170.726 264.935 L 170.985 265.666 M 204.585 69.744 L 204.693 69.784 M 204.693 69.784 L 206.816 70.315 M 206.816 70.315 L 208.939 70.574 M 208.939 70.574 L 211.061 70.554 M 211.061 70.554 L 213.184 70.259 M 213.184 70.259 L 215.161 69.731 M 288.680 143.665 L 288.287 145.261 M 288.287 145.261 L 288.037 147.420 M 288.037 147.420 L 288.074 149.580 M 288.074 149.580 L 288.390 151.739 M 288.390 151.739 L 288.710 152.924 M 131.690 145.261 L 131.971 147.420 M 131.971 147.420 L 131.974 149.580 M 131.974 149.580 L 131.696 151.739 M 131.696 151.739 L 131.313 153.238 M 91.784 185.207 L 92.179 185.391 M 92.179 185.391 L 94.302 186.087 M 94.302 186.087 L 95.495 186.294 M 95.495 186.294 L 96.425 186.481 M 96.425 186.481 L 98.547 186.472 M 98.547 186.472 L 99.592 186.294 M 117.654 173.212 L 115.531 175.368 M 115.531 175.368 L 113.408 177.385 M 113.408 177.385 L 111.285 179.302 M 172.849 256.918 L 172.591 257.563 M 172.591 257.563 L 172.159 259.723 M 172.159 259.723 L 172.144 261.882 M 172.144 261.882 L 172.527 264.042 M 172.527 264.042 L 172.849 264.965 M 172.849 264.965 L 173.224 266.202 M 173.224 266.202 L 173.326 266.435 M 362.197 51.947 L 362.017 52.395 M 357.542 58.965 L 356.149 60.594 M 91.192 183.115 L 92.179 183.522 M 92.179 183.522 L 94.302 184.134 M 118.313 171.111 L 117.654 171.823 M 117.654 171.823 L 115.531 173.957 M 115.531 173.957 L 113.408 175.965 M 113.408 175.965 L 111.285 177.845 M 174.972 256.194 L 174.493 257.563 M 174.493 257.563 L 174.111 259.723 M 174.111 259.723 L 174.091 261.882 M 174.091 261.882 L 174.415 264.042 M 174.415 264.042 L 174.972 265.904 M 174.972 265.904 L 175.052 266.202 M 175.052 266.202 L 175.402 267.093 M 360.723 50.595 L 360.084 52.395 M 385.140 128.932 L 383.018 130.143 M 383.018 130.143 L 380.894 131.353 M 380.894 131.353 L 379.412 132.116 M 181.657 167.824 L 182.676 169.017 M 182.676 169.017 L 183.464 169.884 M 183.464 169.884 L 184.663 171.176 M 184.663 171.176 L 185.587 172.125 M 185.587 172.125 L 186.806 173.336 M 186.806 173.336 L 187.709 174.204 M 187.709 174.204 L 189.120 175.496 M 189.120 175.496 L 189.832 176.136 M 189.832 176.136 L 190.679 176.849 M 90.544 181.176 L 92.179 181.792 M 92.179 181.792 L 92.881 181.975 M 92.881 181.975 L 94.302 182.377 M 94.302 182.377 L 96.425 182.686 M 96.425 182.686 L 98.547 182.680 M 98.547 182.680 L 100.670 182.313 M 100.670 182.313 L 101.818 181.975 M 117.668 170.430 L 117.654 170.446 M 117.654 170.446 L 115.531 172.572 M 115.531 172.545 L 113.408 174.545 M 113.408 174.545 L 111.285 176.371 M 111.285 176.371 L 109.162 178.035 M 177.095 255.007 L 176.906 255.403 M 176.906 255.403 L 176.222 257.563 M 176.222 257.563 L 175.875 259.723 M 175.875 259.723 L 175.851 261.882 M 175.851 261.882 L 176.136 264.042 M 176.136 264.042 L 176.710 266.202 M 176.710 266.202 L 177.095 267.188 M 177.095 267.188 L 177.199 267.477 M 359.222 49.218 L 359.067 50.235 M 359.067 50.235 L 358.368 52.395 M 178.848 162.955 L 179.218 163.475 M 179.218 163.475 L 180.083 164.697 M 180.083 164.697 L 181.341 166.305 M 181.341 166.305 L 181.777 166.857 M 181.777 166.857 L 183.464 168.832 M 183.464 168.832 L 183.625 169.017 M 183.625 169.017 L 185.587 171.130 M 185.587 171.130 L 185.631 171.176 M 185.631 171.176 L 187.709 173.241 M 187.709 173.241 L 187.810 173.336 M 187.810 173.336 L 189.832 175.189 M 189.832 175.189 L 190.190 175.496 M 190.190 175.496 L 191.955 176.984 M 191.955 176.984 L 192.818 177.655 M 192.818 177.655 L 194.078 178.632 M 194.078 178.632 L 195.563 179.674 M 89.974 179.373 L 90.056 179.410 M 90.056 179.410 L 91.207 179.815 M 91.207 179.815 L 92.179 180.178 M 92.179 180.178 L 94.302 180.724 M 94.302 180.724 L 96.425 181.001 M 96.425 181.001 L 98.547 180.991 M 98.547 180.991 L 100.670 180.677 M 100.670 180.677 L 102.793 180.051 M 102.793 180.051 L 103.325 179.815 M 179.218 253.735 L 178.481 255.403 M 178.481 255.403 L 177.844 257.563 M 177.844 257.563 L 177.519 259.723 M 177.519 259.723 L 177.492 261.882 M 177.492 261.882 L 177.751 264.042 M 177.751 264.042 L 178.277 266.202 M 178.277 266.202 L 178.864 267.840 M 177.338 158.884 L 178.134 160.378 M 178.134 160.378 L 179.218 162.107 M 179.218 162.107 L 179.487 162.538 M 179.487 162.538 L 181.017 164.697 M 181.017 164.697 L 181.341 165.111 M 181.341 165.111 L 182.719 166.857 M 182.719 166.857 L 183.464 167.729 M 183.464 167.729 L 184.588 169.017 M 184.588 169.017 L 185.587 170.093 M 185.587 170.093 L 186.627 171.176 M 186.627 171.176 L 187.709 172.252 M 187.709 172.252 L 188.855 173.336 M 188.855 173.336 L 189.832 174.232 M 189.832 174.232 L 191.303 175.496 M 191.303 175.496 L 191.955 176.046 M 191.955 176.046 L 194.025 177.655 M 194.025 177.655 L 194.078 177.697 M 194.078 177.697 L 196.201 179.188 M 196.201 179.188 L 197.213 179.815 M 197.213 179.815 L 198.324 180.513 M 198.324 180.513 L 199.602 181.200 M 116.267 168.952 L 115.531 169.720 M 115.531 169.720 L 113.408 171.716 M 113.408 171.716 L 111.285 173.515 M 111.285 173.515 L 111.494 173.336 M 89.517 177.649 L 89.532 177.655 M 89.532 177.655 L 90.056 177.891 M 90.056 177.891 L 92.179 178.633 M 92.179 178.633 L 94.302 179.142 M 94.302 179.142 L 96.425 179.399 M 96.425 179.399 L 98.547 179.385 M 98.547 179.385 L 100.670 179.088 M 100.670 179.088 L 102.793 178.466 M 102.793 178.466 L 104.829 177.655 M 181.341 252.467 L 180.907 253.244 M 180.907 253.244 L 180.000 255.403 M 180.000 255.403 L 179.393 257.563 M 179.218 258.775 L 179.074 259.723 M 179.074 259.723 L 179.043 261.882 M 179.043 261.882 L 179.218 263.368 M 179.218 263.368 L 179.293 264.042 M 179.293 264.042 L 179.788 266.202 M 179.788 266.202 L 180.467 268.213 M 177.095 140.637 L 176.959 140.941 M 176.959 140.941 L 176.225 143.101 M 176.225 143.101 L 175.731 145.261 M 175.731 145.261 L 175.660 145.883 M 175.653 151.010 L 175.738 151.739 M 175.738 151.739 L 176.233 153.899 M 176.233 153.899 L 176.967 156.059 M 176.967 156.059 L 177.095 156.347 M 177.095 156.347 L 177.910 158.218 M 177.910 158.218 L 179.067 160.378 M 179.067 160.378 L 179.218 160.619 M 179.218 160.619 L 180.416 162.538 M 180.416 162.538 L 181.341 163.841 M 181.341 163.841 L 181.954 164.697 M 181.954 164.697 L 183.464 166.608 M 183.464 166.608 L 183.665 166.857 M 183.665 166.857 L 185.550 169.017 M 185.550 169.017 L 185.587 169.056 M 185.587 169.056 L 187.623 171.176 M 187.623 171.176 L 187.709 171.262 M 187.709 171.262 L 189.832 173.273 M 189.832 173.273 L 189.903 173.336 M 189.903 173.336 L 191.955 175.101 M 191.955 175.101 L 192.453 175.496 M 192.453 175.496 L 194.078 176.761 M 194.078 176.761 L 195.348 177.655 M 195.348 177.655 L 196.201 178.254 M 196.201 178.254 L 198.324 179.571 M 198.324 179.571 L 198.783 179.815 M 198.783 179.815 L 200.447 180.710 M 200.447 180.710 L 202.570 181.646 M 202.570 181.646 L 203.545 181.975 M 203.545 181.975 L 204.693 182.373 M 204.693 182.373 L 205.674 182.603 M 244.143 145.261 L 244.403 147.420 M 244.403 147.420 L 244.404 149.580 M 244.404 149.580 L 244.152 151.739 M 244.152 151.739 L 243.655 153.899 M 243.655 153.899 L 242.921 156.059 M 242.921 156.059 L 242.691 156.586 M 115.531 168.225 L 113.408 170.317 M 113.408 170.317 L 111.285 172.105 M 111.285 172.105 L 109.162 173.682 M 109.162 173.682 L 109.621 173.336 M 90.056 176.416 L 92.179 177.127 M 92.179 177.127 L 94.302 177.614 M 94.302 177.614 L 94.666 177.655 M 94.666 177.655 L 96.425 177.865 M 96.425 177.865 L 98.547 177.841 M 98.547 177.841 L 99.929 177.655 M 181.341 255.903 L 180.873 257.563 M 180.873 257.563 L 180.558 259.723 M 180.558 259.723 L 180.526 261.882 M 180.526 261.882 L 180.762 264.042 M 180.762 264.042 L 181.252 266.202 M 181.252 266.202 L 181.341 266.466 M 181.341 266.466 L 181.958 268.361 M 181.958 268.361 L 182.081 268.654 M 354.793 45.154 L 354.902 45.916 M 354.902 45.916 L 354.890 48.076 M 354.890 48.076 L 354.560 50.235 M 354.560 50.235 L 353.917 52.395 M 179.026 138.413 L 178.829 138.782 M 178.829 138.782 L 177.888 140.941 M 177.888 140.941 L 177.171 143.101 M 177.095 143.440 L 176.677 145.261 M 176.677 145.261 L 176.428 147.420 M 176.428 147.420 L 176.430 149.580 M 176.430 149.580 L 176.681 151.739 M 176.681 151.739 L 177.095 153.543 M 177.095 153.543 L 177.175 153.899 M 177.175 153.899 L 177.893 156.059 M 177.893 156.059 L 178.838 158.218 M 178.838 158.218 L 179.218 158.928 M 179.218 158.928 L 179.992 160.378 M 179.992 160.378 L 181.341 162.531 M 88.947 174.492 L 90.056 174.959 M 90.056 174.959 L 91.695 175.496 M 91.695 175.496 L 92.179 175.657 M 92.179 175.657 L 94.302 176.142 M 94.302 176.142 L 96.425 176.383 M 96.425 176.383 L 98.547 176.367 M 98.547 176.367 L 100.670 176.082 M 100.670 176.082 L 102.793 175.519 M 102.793 175.519 L 102.853 175.496 M 182.892 164.697 L 183.464 165.421 M 183.464 165.421 L 184.623 166.857 M 184.623 166.857 L 185.587 167.960 M 185.587 167.960 L 186.541 169.017 M 186.541 169.017 L 187.709 170.234 M 187.709 170.234 L 188.659 171.176 M 188.659 171.176 L 189.832 172.288 M 189.832 172.288 L 191.012 173.336 M 191.012 173.336 L 191.955 174.148 M 191.955 174.148 L 193.655 175.496 M 193.655 175.496 L 194.078 175.825 M 194.078 175.825 L 196.201 177.321 M 196.201 177.321 L 196.739 177.655 M 196.739 177.655 L 198.324 178.639 M 198.324 178.639 L 200.447 179.767 M 200.447 179.767 L 200.557 179.815 M 200.557 179.815 L 202.570 180.702 M 202.570 180.702 L 204.693 181.419 M 204.693 181.419 L 206.816 181.905 M 206.816 181.905 L 207.415 181.975 M 207.415 181.975 L 208.939 182.157 M 208.939 182.157 L 211.061 182.155 M 211.061 182.155 L 212.625 181.975 M 183.464 254.057 L 182.915 255.403 M 182.915 255.403 L 182.324 257.563 M 182.324 257.563 L 182.016 259.723 M 182.016 259.723 L 181.981 261.882 M 181.981 261.882 L 182.206 264.042 M 182.206 264.042 L 182.678 266.202 M 182.678 266.202 L 183.375 268.361 M 183.375 268.361 L 183.464 268.572 M 183.464 268.572 L 183.670 269.070 M 350.499 56.714 L 349.999 57.477 M 179.218 140.013 L 178.813 140.941 M 178.813 140.941 L 178.094 143.101 M 178.094 143.101 L 177.610 145.261 M 177.610 145.261 L 177.366 147.420 M 177.366 147.420 L 177.366 149.580 M 177.366 149.580 L 177.610 151.739 M 177.610 151.739 L 178.096 153.899 M 178.096 153.899 L 178.817 156.059 M 178.817 156.059 L 179.218 156.975 M 179.218 156.975 L 179.760 158.218 M 179.760 158.218 L 180.915 160.378 M 180.915 160.378 L 181.341 161.057 M 181.341 161.057 L 182.278 162.538 M 182.278 162.538 L 183.464 164.190 M 183.464 164.190 L 183.836 164.697 M 183.836 164.697 L 185.582 166.857 M 114.079 166.643 L 113.408 167.338 M 113.408 167.338 L 111.285 169.204 M 111.285 169.204 L 111.494 169.017 M 187.533 169.017 L 187.709 169.201 M 187.709 169.201 L 189.700 171.176 M 189.700 171.176 L 189.832 171.302 M 189.832 171.302 L 191.955 173.190 M 191.955 173.190 L 192.133 173.336 M 192.133 173.336 L 194.078 174.880 M 194.078 174.880 L 194.937 175.496 M 194.937 175.496 L 196.201 176.387 M 196.201 176.387 L 198.240 177.655 M 198.240 177.655 L 198.324 177.708 M 198.324 177.708 L 200.447 178.836 M 200.447 178.836 L 202.570 179.760 M 202.570 179.760 L 202.736 179.815 M 202.736 179.815 L 204.693 180.476 M 204.693 180.476 L 206.816 180.962 M 206.816 180.962 L 208.939 181.209 M 208.939 181.209 L 211.061 181.212 M 211.061 181.212 L 212.133 181.089 M 88.623 172.915 L 89.624 173.336 M 89.624 173.336 L 90.056 173.518 M 90.056 173.518 L 92.179 174.212 M 92.179 174.212 L 94.302 174.686 M 94.302 174.686 L 96.425 174.922 M 96.425 174.922 L 98.547 174.905 M 98.547 174.905 L 100.670 174.625 M 100.670 174.625 L 102.793 174.075 M 102.793 174.075 L 104.701 173.336 M 185.587 252.543 L 185.213 253.244 M 185.213 253.244 L 184.344 255.403 M 184.344 255.403 L 183.757 257.563 M 183.464 259.628 L 183.450 259.723 M 183.450 259.723 L 183.412 261.882 M 183.412 261.882 L 183.464 262.381 M 183.464 262.381 L 183.633 264.042 M 183.633 264.042 L 184.095 266.202 M 184.095 266.202 L 184.783 268.361 M 184.783 268.361 L 185.232 269.451 M 352.059 43.756 L 352.317 45.916 M 352.317 45.916 L 352.274 48.076 M 352.274 48.076 L 351.930 50.235 M 351.930 50.235 L 351.288 52.395 M 179.218 142.500 L 179.018 143.101 M 179.018 143.101 L 178.531 145.261 M 178.531 145.261 L 178.286 147.420 M 178.286 147.420 L 178.285 149.580 M 178.285 149.580 L 178.530 151.739 M 178.530 151.739 L 179.016 153.899 M 179.016 153.899 L 179.218 154.502 M 179.218 154.502 L 179.735 156.059 M 179.735 156.059 L 180.679 158.218 M 180.679 158.218 L 181.341 159.454 M 181.341 159.454 L 181.842 160.378 M 181.842 160.378 L 183.212 162.538 M 183.212 162.538 L 183.464 162.889 M 183.464 162.889 L 184.790 164.697 M 184.790 164.697 L 185.587 165.683 M 185.587 165.683 L 186.569 166.857 M 186.569 166.857 L 187.709 168.119 M 187.709 168.119 L 188.561 169.017 M 188.561 169.017 L 189.832 170.279 M 189.832 170.279 L 190.796 171.176 M 190.796 171.176 L 191.955 172.208 M 191.955 172.208 L 193.331 173.336 M 193.331 173.336 L 194.078 173.929 M 194.078 173.929 L 196.201 175.452 M 196.201 175.452 L 196.270 175.496 M 196.270 175.496 L 198.324 176.775 M 198.324 176.775 L 199.978 177.655 M 199.978 177.655 L 200.447 177.905 M 200.447 177.905 L 202.570 178.829 M 202.570 178.829 L 204.693 179.536 M 204.693 179.536 L 205.928 179.815 M 205.928 179.815 L 206.816 180.018 M 206.816 180.018 L 208.939 180.266 M 208.939 180.266 L 211.061 180.269 M 211.061 180.269 L 211.461 180.223 M 90.056 172.076 L 92.179 172.768 M 92.179 172.768 L 94.302 173.242 M 94.302 173.242 L 95.154 173.336 M 95.154 173.336 L 96.425 173.477 M 96.425 173.477 L 98.547 173.460 M 98.547 173.460 L 99.491 173.336 M 185.587 256.068 L 185.181 257.563 M 185.181 257.563 L 184.872 259.723 M 184.872 259.723 L 184.832 261.882 M 184.832 261.882 L 185.049 264.042 M 185.049 264.042 L 185.507 266.202 M 185.507 266.202 L 185.587 266.453 M 185.587 266.453 L 186.196 268.361 M 186.196 268.361 L 186.771 269.750 M 350.330 41.597 L 350.847 43.756 M 350.847 43.756 L 351.079 45.916 M 351.079 45.916 L 351.023 48.076 M 351.023 48.076 L 350.678 50.235 M 350.678 50.235 L 350.046 52.395 M 350.046 52.395 L 349.132 54.555 M 180.768 140.659 L 180.646 140.941 M 180.646 140.941 L 179.932 143.101 M 179.932 143.101 L 179.450 145.261 M 87.991 169.741 L 90.056 170.622 M 90.056 170.622 L 91.724 171.176 M 91.724 171.176 L 92.179 171.325 M 92.179 171.325 L 94.302 171.797 M 94.302 171.797 L 96.425 172.032 M 96.425 172.032 L 98.547 172.015 M 98.547 172.015 L 100.670 171.737 M 100.670 171.737 L 102.793 171.189 M 179.218 147.317 L 179.206 147.420 M 179.206 147.420 L 179.205 149.580 M 179.205 149.580 L 179.218 149.696 M 179.218 149.696 L 179.447 151.739 M 179.447 151.739 L 179.930 153.899 M 179.930 153.899 L 180.650 156.059 M 180.650 156.059 L 181.341 157.636 M 181.341 157.636 L 181.599 158.218 M 181.599 158.218 L 182.770 160.378 M 182.770 160.378 L 183.464 161.471 M 183.464 161.471 L 184.157 162.538 M 184.157 162.538 L 185.587 164.484 M 185.587 164.484 L 185.749 164.697 M 185.749 164.697 L 187.557 166.857 M 187.557 166.857 L 187.709 167.025 M 187.709 167.025 L 189.598 169.017 M 189.598 169.017 L 189.832 169.250 M 189.832 169.250 L 191.900 171.176 M 191.900 171.176 L 191.955 171.226 M 191.955 171.226 L 194.078 172.968 M 194.078 172.968 L 194.575 173.336 M 194.575 173.336 L 196.201 174.504 M 196.201 174.504 L 197.767 175.496 M 197.767 175.496 L 198.324 175.842 M 198.324 175.842 L 200.447 176.973 M 200.447 176.973 L 202.013 177.655 M 202.013 177.655 L 202.570 177.898 M 202.570 177.898 L 204.693 178.605 M 204.693 178.605 L 206.816 179.085 M 206.816 179.085 L 208.939 179.329 M 208.939 179.329 L 210.771 179.333 M 187.709 254.159 L 187.206 255.403 M 187.206 255.403 L 186.615 257.563 M 186.615 257.563 L 186.302 259.723 M 186.302 259.723 L 186.259 261.882 M 186.259 261.882 L 186.474 264.042 M 186.474 264.042 L 186.934 266.202 M 186.934 266.202 L 187.619 268.361 M 187.619 268.361 L 187.709 268.581 M 187.709 268.581 L 188.306 269.987 M 349.676 43.756 L 349.893 45.916 M 349.893 45.916 L 349.822 48.076 M 349.822 48.076 L 349.460 50.235 M 181.341 141.601 L 180.845 143.101 M 180.845 143.101 L 180.361 145.261 M 180.361 145.261 L 180.116 147.420 M 180.116 147.420 L 180.114 149.580 M 180.114 149.580 L 180.357 151.739 M 180.357 151.739 L 180.842 153.899 M 180.842 153.899 L 181.341 155.393 M 181.341 155.393 L 181.565 156.059 M 181.565 156.059 L 182.522 158.218 M 182.522 158.218 L 183.464 159.950 M 183.464 159.950 L 183.702 160.378 M 183.702 160.378 L 185.107 162.538 M 185.107 162.538 L 185.587 163.191 M 185.587 163.191 L 186.733 164.697 M 186.733 164.697 L 187.709 165.863 M 187.709 165.863 L 188.583 166.857 M 188.583 166.857 L 189.832 168.175 M 189.832 168.175 L 190.683 169.017 M 190.683 169.017 L 191.955 170.203 M 191.955 170.203 L 193.088 171.176 M 193.088 171.176 L 194.078 171.989 M 194.078 171.989 L 195.895 173.336 M 195.895 173.336 L 196.201 173.556 M 196.201 173.556 L 198.324 174.901 M 198.324 174.901 L 199.423 175.496 M 199.423 175.496 L 200.447 176.041 M 200.447 176.041 L 202.570 176.967 M 202.570 176.967 L 204.638 177.655 M 204.638 177.655 L 204.693 177.674 M 204.693 177.674 L 206.816 178.154 M 206.816 178.154 L 208.939 178.399 M 208.939 178.399 L 210.048 178.401 M 87.711 168.100 L 87.933 168.217 M 87.933 168.217 L 89.740 169.017 M 89.740 169.017 L 90.056 169.151 M 90.056 169.151 L 92.179 169.855 M 92.179 169.855 L 94.302 170.336 M 94.302 170.336 L 96.425 170.575 M 96.425 170.575 L 98.547 170.558 M 98.547 170.558 L 100.670 170.275 M 100.670 170.275 L 102.793 169.746 M 102.793 169.746 L 104.580 169.017 M 189.832 252.752 L 189.564 253.244 M 189.564 253.244 L 188.671 255.403 M 188.671 255.403 L 188.063 257.563 M 188.063 257.563 L 187.740 259.723 M 187.709 261.131 L 187.694 261.882 M 187.694 261.882 L 187.709 262.042 M 187.709 262.042 L 187.912 264.042 M 187.912 264.042 L 188.381 266.202 M 188.381 266.202 L 189.083 268.361 M 189.083 268.361 L 189.832 270.138 M 189.832 270.138 L 189.865 270.211 M 348.050 41.597 L 348.522 43.756 M 348.522 43.756 L 348.718 45.916 M 348.718 45.916 L 348.634 48.076 M 348.634 48.076 L 348.266 50.235 M 348.266 50.235 L 347.617 52.395 M 182.029 142.284 L 181.757 143.101 M 181.341 144.952 L 181.272 145.261 M 181.272 145.261 L 181.025 147.420 M 181.025 147.420 L 181.023 149.580 M 181.023 149.580 L 181.266 151.739 M 181.266 151.739 L 181.341 152.071 M 181.341 152.071 L 181.755 153.899 M 181.755 153.899 L 182.484 156.059 M 182.484 156.059 L 183.445 158.218 M 183.445 158.218 L 183.464 158.253 M 183.464 158.253 L 184.647 160.378 M 184.647 160.378 L 185.587 161.820 M 185.587 161.820 L 186.071 162.538 M 186.071 162.538 L 187.709 164.688 M 87.471 166.422 L 87.933 166.680 M 87.933 166.680 L 88.313 166.857 M 88.313 166.857 L 90.056 167.627 M 90.056 167.627 L 92.179 168.357 M 92.179 168.357 L 94.302 168.856 M 94.302 168.856 L 95.673 169.017 M 95.673 169.017 L 96.425 169.101 M 96.425 169.101 L 98.547 169.087 M 98.547 169.087 L 99.054 169.017 M 189.616 166.857 L 189.832 167.086 M 189.832 167.086 L 191.783 169.017 M 191.783 169.017 L 191.955 169.177 M 191.955 169.177 L 194.078 171.003 M 194.078 171.003 L 194.301 171.176 M 194.301 171.176 L 196.201 172.587 M 196.201 172.587 L 197.347 173.336 M 197.347 173.336 L 198.324 173.955 M 198.324 173.955 L 200.447 175.104 M 200.447 175.104 L 201.332 175.496 M 201.332 175.496 L 202.570 176.036 M 202.570 176.036 L 204.693 176.743 M 204.693 176.743 L 206.816 177.224 M 206.816 177.224 L 208.939 177.469 M 208.939 177.469 L 209.326 177.470 M 189.832 256.537 L 189.544 257.563 M 189.544 257.563 L 189.221 259.723 M 189.221 259.723 L 189.173 261.882 M 189.173 261.882 L 189.388 264.042 M 189.388 264.042 L 189.832 266.107 M 189.832 266.107 L 189.854 266.202 M 189.854 266.202 L 190.586 268.361 M 190.586 268.361 L 191.538 270.521 M 191.538 270.521 L 191.543 270.531 M 347.388 43.756 L 347.570 45.916 M 347.570 45.916 L 347.470 48.076 M 347.470 48.076 L 347.085 50.235 M 182.669 143.109 L 182.184 145.261 M 182.184 145.261 L 181.936 147.420 M 181.936 147.420 L 181.934 149.580 M 181.934 149.580 L 182.179 151.739 M 182.179 151.739 L 182.670 153.899 M 182.670 153.899 L 183.403 156.059 M 183.403 156.059 L 183.464 156.196 M 183.464 156.196 L 184.385 158.218 M 184.385 158.218 L 185.587 160.368 M 87.280 164.696 L 87.283 164.697 M 87.283 164.697 L 87.933 165.059 M 87.933 165.059 L 90.056 166.051 M 90.056 166.051 L 92.179 166.823 M 92.179 166.823 L 92.314 166.857 M 92.314 166.857 L 94.302 167.323 M 94.302 167.323 L 96.425 167.571 M 96.425 167.571 L 98.547 167.553 M 98.547 167.553 L 100.670 167.284 M 100.670 167.284 L 102.151 166.857 M 187.051 162.538 L 187.709 163.402 M 187.709 163.402 L 188.746 164.697 M 188.746 164.697 L 189.832 165.933 M 189.832 165.933 L 190.698 166.857 M 190.698 166.857 L 191.955 168.102 M 191.955 168.102 L 192.956 169.017 M 192.956 169.017 L 194.078 169.982 M 194.078 169.982 L 195.615 171.176 M 195.615 171.176 L 196.201 171.611 M 196.201 171.611 L 198.324 173.000 M 198.324 173.000 L 198.926 173.336 M 198.926 173.336 L 200.447 174.160 M 200.447 174.160 L 202.570 175.100 M 202.570 175.100 L 203.742 175.496 M 203.742 175.496 L 204.693 175.813 M 204.693 175.813 L 206.816 176.294 M 206.816 176.294 L 208.572 176.498 M 191.955 254.853 L 191.718 255.403 M 191.718 255.403 L 191.085 257.563 M 191.085 257.563 L 190.746 259.723 M 190.746 259.723 L 190.693 261.882 M 190.693 261.882 L 190.916 264.042 M 190.916 264.042 L 191.400 266.202 M 191.400 266.202 L 191.955 267.850 M 191.955 267.850 L 192.139 268.361 M 192.139 268.361 L 193.154 270.521 M 193.154 270.521 L 193.358 270.882 M 345.832 41.597 L 346.267 43.756 M 346.267 43.756 L 346.430 45.916 M 346.430 45.916 L 346.316 48.076 M 346.316 48.076 L 345.921 50.235 M 345.921 50.235 L 345.245 52.395 M 87.501 133.689 L 87.135 133.913 M 183.376 144.021 L 183.096 145.261 M 183.096 145.261 L 182.847 147.420 M 182.847 147.420 L 182.845 149.580 M 182.845 149.580 L 183.091 151.739 M 183.091 151.739 L 183.464 153.370 M 183.464 153.370 L 183.587 153.899 M 183.587 153.899 L 184.337 156.059 M 184.337 156.059 L 185.325 158.218 M 185.325 158.218 L 185.587 158.686 M 185.587 158.686 L 186.567 160.378 M 186.567 160.378 L 187.709 162.066 M 187.709 162.066 L 188.045 162.538 M 188.045 162.538 L 189.774 164.697 M 189.774 164.697 L 189.832 164.764 M 189.832 164.764 L 191.793 166.857 M 191.793 166.857 L 191.955 167.018 M 191.955 167.018 L 194.078 168.958 M 87.118 162.842 L 87.933 163.332 M 87.933 163.332 L 90.056 164.404 M 90.056 164.404 L 90.802 164.697 M 90.802 164.697 L 92.179 165.197 M 92.179 165.197 L 94.302 165.724 M 94.302 165.724 L 96.425 165.986 M 96.425 165.986 L 98.547 165.967 M 98.547 165.967 L 100.670 165.655 M 100.670 165.655 L 102.793 165.046 M 102.793 165.046 L 103.607 164.697 M 196.201 170.613 L 197.024 171.176 M 197.024 171.176 L 198.324 172.028 M 198.324 172.028 L 200.447 173.213 M 200.447 173.213 L 200.717 173.336 M 200.717 173.336 L 202.570 174.157 M 202.570 174.157 L 204.693 174.876 M 204.693 174.876 L 206.816 175.363 M 206.816 175.363 L 207.780 175.477 M 194.078 253.838 L 193.363 255.403 M 193.363 255.403 L 192.689 257.563 M 192.689 257.563 L 192.327 259.723 M 192.327 259.723 L 192.269 261.882 M 192.269 261.882 L 192.504 264.042 M 192.504 264.042 L 193.018 266.202 M 193.018 266.202 L 193.791 268.361 M 193.791 268.361 L 194.078 268.973 M 194.078 268.973 L 194.870 270.521 M 194.870 270.521 L 195.317 271.246 M 184.089 144.940 L 184.016 145.261 M 184.016 145.261 L 183.763 147.420 M 183.763 147.420 L 183.761 149.580 M 183.761 149.580 L 184.013 151.739 M 184.013 151.739 L 184.518 153.899 M 184.518 153.899 L 185.272 156.059 M 185.272 156.059 L 185.587 156.746 M 185.587 156.746 L 186.286 158.218 M 186.286 158.218 L 187.542 160.378 M 187.542 160.378 L 187.709 160.625 M 187.709 160.625 L 189.069 162.538 M 189.069 162.538 L 189.832 163.492 M 189.832 163.492 L 190.861 164.697 M 190.861 164.697 L 191.955 165.866 M 191.955 165.866 L 192.961 166.857 M 192.961 166.857 L 194.078 167.878 M 194.078 167.878 L 195.457 169.017 M 195.457 169.017 L 196.201 169.596 M 196.201 169.596 L 198.324 171.051 M 198.324 171.051 L 198.539 171.176 M 198.539 171.176 L 200.447 172.244 M 200.447 172.244 L 202.570 173.212 M 202.570 173.212 L 202.927 173.336 M 202.927 173.336 L 204.693 173.935 M 204.693 173.935 L 206.816 174.425 M 206.816 174.425 L 206.978 174.444 M 86.993 160.837 L 87.933 161.464 M 87.933 161.464 L 89.851 162.538 M 89.851 162.538 L 90.056 162.641 M 90.056 162.641 L 92.179 163.474 M 92.179 163.474 L 94.302 164.044 M 94.302 164.044 L 96.425 164.327 M 96.425 164.327 L 98.547 164.306 M 98.547 164.306 L 100.670 163.969 M 100.670 163.969 L 102.793 163.309 M 102.793 163.309 L 104.464 162.538 M 194.078 259.213 L 193.993 259.723 M 193.993 259.723 L 193.934 261.882 M 193.934 261.882 L 194.078 263.225 M 194.078 263.225 L 194.174 264.042 M 194.174 264.042 L 194.732 266.202 M 194.732 266.202 L 195.574 268.361 M 195.574 268.361 L 196.201 269.590 M 196.201 269.590 L 196.733 270.521 M 196.733 270.521 L 197.480 271.601 M 343.641 41.597 L 344.043 43.756 M 344.043 43.756 L 344.175 45.916 M 344.175 45.916 L 344.028 48.076 M 344.028 48.076 L 343.599 50.235 M 343.599 50.235 L 342.905 52.340 M 184.862 145.936 L 184.688 147.420 M 184.688 147.420 L 184.687 149.580 M 184.687 149.580 L 184.941 151.739 M 184.941 151.739 L 185.449 153.899 M 185.449 153.899 L 185.587 154.293 M 185.587 154.293 L 186.226 156.059 M 186.226 156.059 L 187.256 158.218 M 187.256 158.218 L 187.709 158.998 M 187.709 158.998 L 188.553 160.378 M 188.553 160.378 L 189.832 162.174 M 189.832 162.174 L 190.108 162.538 M 190.108 162.538 L 191.951 164.697 M 86.906 158.589 L 87.933 159.373 M 87.933 159.373 L 89.500 160.378 M 89.500 160.378 L 90.056 160.689 M 90.056 160.689 L 92.179 161.613 M 92.179 161.613 L 94.302 162.245 M 94.302 162.245 L 96.285 162.538 M 96.285 162.538 L 96.425 162.558 M 96.425 162.558 L 98.261 162.538 M 194.078 166.794 L 194.149 166.857 M 194.149 166.857 L 196.201 168.555 M 196.201 168.555 L 196.835 169.017 M 196.835 169.017 L 198.324 170.039 M 198.324 170.039 L 200.271 171.176 M 200.271 171.176 L 200.447 171.275 M 200.447 171.275 L 202.570 172.246 M 202.570 172.246 L 204.693 172.987 M 204.693 172.987 L 206.108 173.322 M 197.447 254.623 L 197.017 255.403 M 197.017 255.403 L 196.201 257.563 M 196.201 257.563 L 195.808 259.723 M 195.808 259.723 L 195.742 261.882 M 195.742 261.882 L 195.994 264.042 M 195.994 264.042 L 196.201 264.850 M 196.201 264.850 L 196.590 266.202 M 196.590 266.202 L 197.530 268.361 M 197.530 268.361 L 198.324 269.752 M 198.324 269.752 L 198.833 270.521 M 198.833 270.521 L 199.950 271.917 M 185.668 146.975 L 185.614 147.420 M 185.614 147.420 L 185.614 149.580 M 185.614 149.580 L 185.877 151.739 M 185.877 151.739 L 186.404 153.899 M 186.404 153.899 L 187.191 156.059 M 187.191 156.059 L 187.709 157.145 M 187.709 157.145 L 188.249 158.218 M 188.249 158.218 L 189.572 160.378 M 189.572 160.378 L 189.832 160.744 M 189.832 160.744 L 191.193 162.538 M 191.193 162.538 L 191.955 163.431 M 191.955 163.431 L 193.126 164.697 M 193.126 164.697 L 194.078 165.636 M 194.078 165.636 L 195.448 166.857 M 195.448 166.857 L 196.201 167.480 M 196.201 167.480 L 198.310 169.017 M 86.829 155.830 L 87.023 156.059 M 87.023 156.059 L 87.933 156.893 M 87.933 156.893 L 89.657 158.218 M 89.657 158.218 L 90.056 158.474 M 90.056 158.474 L 92.179 159.532 M 92.179 159.532 L 94.302 160.256 M 94.302 160.256 L 95.023 160.378 M 95.023 160.378 L 96.425 160.584 M 96.425 160.584 L 98.547 160.587 M 98.547 160.587 L 99.580 160.378 M 200.447 170.272 L 202.342 171.176 M 202.342 171.176 L 202.570 171.281 M 202.570 171.281 L 204.693 172.024 M 204.693 172.024 L 205.194 172.144 M 198.324 257.345 L 198.242 257.563 M 198.242 257.563 L 197.804 259.723 M 197.804 259.723 L 197.730 261.882 M 197.730 261.882 L 198.010 264.042 M 198.010 264.042 L 198.324 265.138 M 198.324 265.138 L 198.677 266.202 M 198.677 266.202 L 199.763 268.361 M 199.763 268.361 L 200.447 269.397 M 200.447 269.397 L 201.347 270.521 M 201.347 270.521 L 202.570 271.781 M 202.570 271.781 L 203.069 272.175 M 341.446 41.597 L 341.819 43.756 M 341.819 43.756 L 341.918 45.916 M 341.918 45.916 L 341.735 48.076 M 341.735 48.076 L 341.265 50.235 M 186.566 148.133 L 186.567 149.580 M 186.567 149.580 L 186.832 151.739 M 186.832 151.739 L 187.363 153.899 M 187.363 153.899 L 187.709 154.846 M 187.709 154.846 L 188.175 156.059 M 188.175 156.059 L 189.262 158.218 M 189.262 158.218 L 189.832 159.149 M 189.832 159.149 L 190.636 160.378 M 190.636 160.378 L 191.955 162.115 M 191.955 162.115 L 192.303 162.538 M 192.303 162.538 L 194.078 164.458 M 194.078 164.458 L 194.323 164.697 M 194.323 164.697 L 196.201 166.374 M 196.201 166.374 L 196.815 166.857 M 196.815 166.857 L 198.324 167.959 M 198.324 167.959 L 200.024 169.017 M 200.024 169.017 L 200.447 169.265 M 200.447 169.265 L 202.570 170.283 M 202.570 170.283 L 204.216 170.884 M 87.933 143.194 L 86.796 145.261 M 86.796 145.261 L 86.739 145.472 M 86.736 151.186 L 86.904 151.739 M 86.904 151.739 L 87.933 153.504 M 87.933 153.504 L 88.208 153.899 M 88.208 153.899 L 90.056 155.726 M 90.056 155.726 L 90.488 156.059 M 90.488 156.059 L 92.179 157.069 M 92.179 157.069 L 94.302 157.936 M 94.302 157.936 L 95.699 158.218 M 95.699 158.218 L 96.425 158.340 M 96.425 158.340 L 98.547 158.331 M 98.547 158.331 L 99.009 158.218 M 200.447 258.176 L 200.086 259.723 M 200.086 259.723 L 200.002 261.882 M 200.002 261.882 L 200.325 264.042 M 200.325 264.042 L 200.447 264.409 M 200.447 264.409 L 201.166 266.202 M 201.166 266.202 L 202.481 268.361 M 202.481 268.361 L 202.570 268.472 M 202.570 268.472 L 204.693 270.509 M 206.816 271.647 L 208.939 272.211 M 208.939 272.211 L 211.061 272.187 M 211.061 272.187 L 213.184 271.569 M 213.184 271.569 L 213.393 271.451 M 90.056 145.520 L 89.442 147.420 M 89.442 147.420 L 89.484 149.580 M 89.484 149.580 L 90.056 151.157 M 90.056 151.157 L 90.328 151.739 M 90.328 151.739 L 92.179 153.807 M 92.179 153.807 L 92.300 153.899 M 92.300 153.899 L 94.302 154.947 M 94.302 154.947 L 96.425 155.497 M 96.425 155.497 L 98.547 155.450 M 98.547 155.450 L 100.670 154.789 M 100.670 154.789 L 102.054 153.952 M 187.519 149.361 L 187.519 149.580 M 187.519 149.580 L 187.709 151.112 M 187.709 151.112 L 187.791 151.739 M 187.791 151.739 L 188.350 153.899 M 188.350 153.899 L 189.182 156.059 M 189.182 156.059 L 189.832 157.347 M 189.832 157.347 L 190.301 158.218 M 190.301 158.218 L 191.715 160.378 M 191.715 160.378 L 191.955 160.695 M 191.955 160.695 L 193.471 162.538 M 193.471 162.538 L 194.078 163.194 M 194.078 163.194 L 195.613 164.697 M 195.613 164.697 L 196.201 165.222 M 196.201 165.222 L 198.278 166.857 M 200.447 168.217 L 202.020 169.017 M 202.020 169.017 L 202.570 169.281 M 202.570 169.281 L 203.133 169.488 M 202.916 260.394 L 202.829 261.882 M 202.829 261.882 L 203.340 264.042 M 203.340 264.042 L 204.469 266.202 M 204.469 266.202 L 204.693 266.484 M 204.693 266.484 L 206.816 268.298 M 206.816 268.298 L 206.965 268.361 M 206.965 268.361 L 208.939 269.000 M 208.939 269.000 L 211.047 268.975 M 327.993 273.047 L 327.988 273.051 M 327.989 273.042 L 327.995 273.038 M 339.215 41.597 L 339.561 43.756 M 339.561 43.756 L 339.626 45.916 M 339.626 45.916 L 339.401 48.076 M 339.401 48.076 L 339.234 48.764 M 188.671 150.846 L 188.788 151.739 M 188.788 151.739 L 189.351 153.899 M 189.351 153.899 L 189.832 155.142 M 189.832 155.142 L 190.210 156.059 M 190.210 156.059 L 191.374 158.218 M 191.374 158.218 L 191.955 159.105 M 191.955 159.105 L 192.858 160.378 M 192.858 160.378 L 194.078 161.860 M 194.078 161.860 L 194.694 162.538 M 194.694 162.538 L 196.201 164.014 M 196.201 164.014 L 196.991 164.697 M 196.991 164.697 L 198.324 165.749 M 198.324 165.749 L 199.970 166.857 M 199.970 166.857 L 200.447 167.155 M 200.447 167.155 L 201.899 167.897 M 95.530 147.068 L 95.084 147.420 M 95.084 147.420 L 95.226 149.580 M 95.226 149.580 L 96.425 150.442 M 96.425 150.442 L 98.547 150.305 M 98.547 150.305 L 98.575 150.281 M 337.463 39.437 L 338.078 41.597 M 338.078 41.597 L 338.417 43.756 M 338.417 43.756 L 338.436 44.603 M 190.017 152.580 L 190.384 153.899 M 190.384 153.899 L 191.277 156.059 M 191.277 156.059 L 191.955 157.314 M 191.955 157.314 L 192.485 158.218 M 192.485 158.218 L 194.020 160.378 M 194.020 160.378 L 194.078 160.449 M 194.078 160.449 L 195.976 162.538 M 195.976 162.538 L 196.201 162.758 M 196.201 162.758 L 198.324 164.596 M 198.324 164.596 L 198.461 164.697 M 198.461 164.697 L 200.447 166.039 M 200.447 166.039 L 200.466 166.050 M 91.478 270.233 L 91.604 270.346 M 336.913 41.597 L 337.232 43.756 M 337.232 43.756 L 337.259 45.916 M 337.259 45.916 L 337.214 46.270 M 191.912 155.023 L 191.955 155.128 M 191.955 155.128 L 192.373 156.059 M 192.373 156.059 L 193.639 158.218 M 193.639 158.218 L 194.078 158.836 M 194.078 158.836 L 195.288 160.378 M 195.288 160.378 L 196.201 161.382 M 196.201 161.382 L 197.389 162.538 M 197.389 162.538 L 198.324 163.348 M 198.324 163.348 L 198.433 163.429 M 91.027 268.537 L 91.252 268.739 M 335.113 39.437 L 335.718 41.597 M 335.718 41.597 L 336.032 43.756 M 336.032 43.756 L 336.034 44.605" fill="none" stroke="#FFF200" stroke-width="1" vector-effect="non-scaling-stroke"/></svg>