<svg xmlns="http://www.w3.org/2000/svg" viewBox="12 12 396 273" width="396" height="273" shape-rendering="geometricPrecision"><rect x="12" y="12" width="396" height="273" fill="#0b0f14"/><path d="M 21.517 20.000 L 22.123 20.766 L 23.337 22.160 L 24.246 23.131 L 25.494 24.319 L 26.369 25.096 L 28.100 26.479 L 28.492 26.757 L 30.615 28.492 L 30.930 28.639 L 32.737 29.573 L 34.860 30.717 L 35.177 30.798 L 36.983 31.330 L 39.106 32.190 L 41.229 32.754 L 43.251 32.958 L 43.352 32.968 L 45.475 33.144 L 47.598 33.319 L 49.721 33.430 L 51.844 33.461 L 53.966 33.411 L 56.089 33.287 L 58.212 33.075 L 60.335 32.953 M 70.568 20.000 L 70.558 22.160 L 70.344 24.319 L 69.741 26.479 M 177.095 21.674 L 179.218 21.056 L 181.341 20.495 L 183.464 20.115 L 184.878 20.000 M 234.470 20.000 L 236.536 20.248 L 238.659 20.731 L 240.782 21.321 L 242.905 21.866 L 244.907 22.160 L 245.028 22.175 L 247.151 22.602 L 249.274 23.331 L 251.397 24.074 L 252.639 24.319 L 253.520 24.488 L 255.642 25.344 L 257.765 26.298 L 258.433 26.479 L 259.888 26.897 L 262.011 28.086 L 263.560 28.639 L 264.134 28.827 L 266.257 30.105 L 267.893 30.798 L 268.380 30.985 L 270.503 32.390 L 271.770 32.958 L 272.626 33.329 L 274.749 34.851 L 275.316 35.118 L 276.872 35.911 L 278.990 37.277 M 349.424 20.000 L 349.409 22.160 L 349.588 24.319 L 350.152 26.479 L 351.151 28.639 L 351.173 28.676 L 353.259 30.798 M 355.419 31.962 L 357.542 32.752 L 359.218 32.958 L 359.665 32.999 L 361.788 33.236 L 363.911 33.451 L 366.034 33.581 L 368.156 33.615 L 370.279 33.551 L 372.402 33.395 L 374.525 33.174 L 376.648 32.966 L 376.735 32.958 M 281.117 38.716 L 282.439 39.437 L 283.240 39.866 L 285.363 41.519 L 285.498 41.597 L 287.486 42.975 L 288.714 43.756 L 289.609 44.331 L 291.631 45.916 L 291.732 45.987 L 293.855 47.927 L 294.045 48.076 L 295.978 49.758 L 296.544 50.235 L 298.101 51.627 L 298.941 52.395 L 300.223 53.603 L 301.200 54.555 L 302.346 55.697 L 303.332 56.714 L 304.469 57.913 L 305.351 58.874 L 306.592 60.250 L 307.272 61.034 L 308.715 62.694 L 309.123 63.193 L 310.838 65.187 L 310.967 65.353 L 312.914 67.513 L 312.961 67.578 L 314.668 69.672 L 315.084 70.290 L 316.171 71.832 L 317.207 73.371 L 317.599 73.992 L 319.302 76.151 M 77.318 41.511 L 77.292 41.597 L 76.562 43.756 L 75.820 45.916 L 75.325 48.076 M 75.196 49.198 L 75.092 50.235 L 74.632 52.395 L 73.952 54.555 L 73.270 56.714 M 345.168 50.235 L 345.773 52.395 L 346.455 54.555 L 346.927 56.714 M 73.073 57.731 L 72.859 58.874 L 71.909 61.034 L 70.966 63.193 M 177.095 58.182 L 175.021 58.874 L 172.849 59.759 L 170.726 60.880 L 170.260 61.034 M 385.140 75.874 L 385.051 76.151 L 384.271 78.311 L 383.629 80.471 L 383.435 82.630 L 383.821 84.790 L 385.100 86.950 L 385.140 86.990 L 387.227 89.109 L 387.263 89.129 L 389.385 90.747 L 390.374 91.269 L 391.508 91.698 L 393.631 93.021 L 394.846 93.429 L 395.754 93.674 L 397.877 94.691 L 400.000 95.492 M 35.793 78.311 L 36.512 80.471 L 36.750 82.630 L 36.481 84.790 L 35.133 86.950 M 320.800 78.311 L 321.453 79.509 L 321.963 80.471 L 323.495 82.630 L 323.575 82.804 L 324.642 84.790 L 325.698 86.856 M 198.324 88.384 L 200.447 87.849 L 202.570 87.441 L 204.693 87.185 L 206.816 87.051 L 208.939 86.997 L 211.061 86.992 L 213.184 87.029 L 215.307 87.131 L 217.430 87.336 L 219.553 87.681 L 221.676 88.174 L 223.799 88.733 L 225.882 89.109 M 326.947 89.109 L 327.821 91.160 L 327.859 91.269 L 328.895 93.429 L 329.885 95.588 L 329.944 95.801 L 330.565 97.748 L 331.631 99.908 L 332.067 101.582 L 332.182 102.067 L 333.046 104.227 L 333.952 106.387 L 334.190 107.521 L 334.405 108.546 L 335.244 110.706 L 336.058 112.866 L 336.313 114.283 L 336.443 115.025 L 337.102 117.185 L 337.844 119.345 L 338.349 121.504 L 338.436 122.292 L 338.596 123.664 L 339.034 125.824 L 339.513 127.983 L 339.920 130.143 L 340.217 132.303 L 340.408 134.462 L 340.516 136.622 L 340.559 138.706 L 340.560 138.782 L 340.594 140.941 L 340.627 143.101 L 340.650 145.261 L 340.660 147.420 L 340.659 149.580 L 340.646 151.739 L 340.623 153.899 L 340.593 156.059 L 340.563 158.218 M 48.971 91.269 L 48.640 93.429 L 48.690 95.588 L 48.943 97.748 L 49.262 99.908 L 49.540 102.067 L 49.707 104.227 L 49.721 104.529 L 49.803 106.387 L 49.944 108.546 L 50.056 110.706 L 50.096 112.866 L 50.042 115.025 L 49.900 117.185 L 49.732 119.345 M 371.302 91.269 L 371.675 93.429 L 371.649 95.588 L 371.396 97.748 L 371.024 99.908 L 370.651 102.067 L 370.377 104.227 M 234.413 92.140 L 236.536 93.310 L 236.854 93.429 L 238.659 94.206 L 240.782 95.542 L 240.879 95.588 L 242.905 96.772 L 244.572 97.748 L 245.028 97.998 L 247.151 99.777 L 247.344 99.908 L 249.274 101.432 L 250.083 102.067 L 251.397 103.180 L 252.534 104.227 L 253.520 105.191 L 254.652 106.387 L 255.642 107.510 L 256.497 108.546 L 257.765 110.155 L 258.159 110.706 L 259.888 112.864 M 20.000 95.470 L 22.123 94.678 L 24.246 93.686 L 25.231 93.429 M 370.257 106.387 L 370.112 108.546 L 369.974 110.706 L 369.910 112.866 L 369.953 115.025 L 370.099 117.185 L 370.273 119.345 L 370.279 119.403 M 121.899 110.461 L 121.821 110.706 L 120.806 112.866 L 119.869 115.025 M 261.491 115.025 L 262.011 116.023 L 262.610 117.185 L 264.047 119.345 L 264.134 119.562 L 265.030 121.504 L 266.176 123.664 L 266.257 123.939 L 266.891 125.824 L 267.933 127.983 L 268.380 129.885 L 268.434 130.143 L 269.052 132.303 L 269.772 134.462 L 270.289 136.622 L 270.503 138.678 L 270.513 138.782 L 270.731 140.941 L 270.996 143.101 L 271.217 145.261 L 271.353 147.420 L 271.386 149.580 L 271.309 151.739 L 271.124 153.899 L 270.856 156.059 L 270.579 158.218 M 119.777 115.420 L 119.314 117.185 L 118.379 119.345 L 117.718 121.504 M 49.721 119.471 L 49.524 121.504 L 48.972 123.664 L 48.150 125.824 M 81.556 121.504 L 81.201 123.664 L 80.708 125.824 L 80.242 127.983 L 79.877 130.143 L 79.628 132.303 L 79.482 134.462 M 117.654 121.910 L 117.344 123.664 L 116.682 125.824 L 116.051 127.983 L 115.634 130.143 M 302.964 123.664 L 303.661 125.824 L 304.206 127.983 L 304.469 130.129 M 47.598 127.860 L 47.569 127.983 L 46.691 130.143 L 45.578 132.303 M 115.531 131.370 L 115.452 132.303 L 115.156 134.462 L 114.811 136.622 L 114.487 138.782 L 114.222 140.941 L 114.025 143.101 L 113.893 145.261 L 113.818 147.420 L 113.793 149.580 L 113.815 151.739 L 113.889 153.899 L 114.025 156.059 L 114.233 158.218 L 114.522 160.378 L 114.877 162.538 L 115.248 164.697 L 115.522 166.857 M 151.457 130.143 L 150.747 132.303 L 150.043 134.462 L 149.603 136.622 M 304.707 132.303 L 305.047 134.462 L 305.388 136.622 L 305.679 138.782 L 305.903 140.941 L 306.058 143.101 L 306.151 145.261 L 306.190 147.420 L 306.178 149.580 L 306.115 151.739 L 305.994 153.899 L 305.807 156.059 L 305.550 158.218 L 305.232 160.378 L 304.885 162.538 L 304.578 164.697 M 79.421 136.622 L 79.339 138.782 L 79.254 140.941 L 79.184 143.101 L 79.138 145.261 L 79.122 147.420 L 79.135 149.580 L 79.175 151.739 L 79.235 153.899 L 79.310 156.059 L 79.387 158.218 L 79.441 160.333 M 185.587 137.565 L 185.194 138.782 L 184.228 140.941 L 183.632 143.101 M 149.430 138.782 L 149.192 140.941 L 148.961 143.101 L 148.802 145.261 L 148.737 147.420 L 148.774 149.580 L 148.906 151.739 L 149.117 153.899 L 149.358 156.059 L 149.497 157.876 M 235.543 140.941 L 236.211 143.101 L 236.495 145.261 L 236.536 146.652 M 397.877 141.916 L 396.957 143.101 L 395.757 145.261 L 395.157 147.420 L 395.163 149.580 L 395.754 151.719 M 183.464 145.048 L 183.446 145.261 L 183.329 147.420 L 183.319 149.580 L 183.430 151.739 L 183.464 152.188 L 183.594 153.899 L 184.154 156.059 L 185.127 158.218 L 185.587 159.605 L 185.836 160.378 L 187.337 162.538 L 187.709 163.194 L 188.690 164.697 L 189.832 166.125 L 190.478 166.857 L 191.955 168.286 L 192.859 169.017 L 194.078 169.908 L 196.001 171.176 L 196.201 171.283 L 198.324 172.685 L 200.154 173.336 L 200.447 173.426 L 202.570 174.238 L 204.693 174.945 L 206.816 175.302 L 208.939 175.419 L 211.061 175.404 L 213.184 175.240 L 215.307 174.809 L 217.430 174.042 L 219.553 173.337 M 39.106 147.121 L 39.062 147.420 L 39.036 149.580 L 39.106 150.189 L 39.244 151.739 L 40.123 153.899 L 41.219 156.059 M 236.512 151.739 L 236.266 153.899 L 235.639 156.059 L 234.709 158.218 M 380.740 151.739 L 379.862 153.899 L 378.793 156.059 L 376.648 159.896 M 396.929 153.899 L 397.877 155.159 L 398.402 156.059 L 400.000 157.793 M 42.298 158.218 L 43.352 160.262 L 43.395 160.378 L 44.645 162.538 L 45.475 164.453 L 45.558 164.697 L 46.673 166.857 L 47.569 169.017 L 47.598 169.137 L 48.167 171.176 L 49.009 173.336 L 49.560 175.496 L 49.721 177.248 L 49.757 177.655 L 49.956 179.815 L 50.110 181.975 L 50.156 184.134 L 50.093 186.294 L 49.949 188.454 L 49.785 190.613 M 149.829 160.378 L 150.404 162.538 L 151.122 164.697 L 151.620 166.846 M 270.503 159.060 L 270.383 160.378 L 269.888 162.538 L 269.128 164.697 L 268.449 166.857 M 340.559 158.561 L 340.534 160.378 L 340.460 162.538 L 340.327 164.697 L 340.110 166.857 L 339.787 169.017 L 339.357 171.176 L 338.877 173.336 L 338.487 175.496 M 79.522 162.538 L 79.685 164.697 L 79.942 166.857 L 80.308 169.017 L 80.765 171.176 L 81.238 173.336 L 81.563 175.496 M 115.798 169.017 L 116.387 171.176 L 117.121 173.336 L 117.647 175.496 L 117.654 175.531 L 118.175 177.655 L 119.127 179.815 L 119.777 181.934 L 119.787 181.975 L 120.590 184.134 L 121.683 186.294 L 121.899 187.005 L 122.370 188.454 L 123.652 190.613 L 124.022 191.615 L 124.460 192.773 L 125.885 194.933 L 126.145 195.527 L 126.895 197.092 L 128.268 199.246 L 128.271 199.252 L 129.784 201.412 L 130.391 202.448 L 131.065 203.571 L 132.514 205.565 L 132.622 205.731 L 134.508 207.891 L 134.637 208.068 L 136.268 210.050 L 136.760 210.674 L 138.050 212.210 L 138.883 213.177 L 139.954 214.370 L 141.006 215.493 L 142.019 216.529 L 143.128 217.621 L 144.270 218.689 L 145.251 219.572 L 146.724 220.849 L 147.374 221.378 L 149.311 223.008 L 149.497 223.146 L 151.620 225.044 L 151.811 225.168 L 153.743 226.566 L 155.004 227.328 L 155.866 227.823 L 157.989 229.420 L 158.122 229.487 L 160.112 230.660 L 161.989 231.647 L 162.235 231.757 L 164.358 233.145 L 165.920 233.807 L 166.480 234.024 L 168.603 235.336 L 170.283 235.966 L 170.726 236.116 L 172.849 237.254 L 174.972 238.120 M 304.399 166.857 L 304.014 169.017 L 303.402 171.176 L 302.729 173.336 M 372.082 171.176 L 371.258 173.336 L 370.601 175.496 L 370.292 177.655 M 338.436 175.905 L 338.201 177.655 L 337.550 179.815 L 336.759 181.975 M 370.140 179.815 L 369.971 181.975 L 369.890 184.134 L 369.913 186.294 L 370.022 188.454 L 370.171 190.613 L 370.279 192.719 M 336.313 183.980 L 336.283 184.134 L 335.611 186.294 L 334.650 188.454 M 334.190 190.242 L 334.105 190.613 L 333.238 192.773 L 332.257 194.933 M 49.721 191.916 L 49.677 192.773 L 49.446 194.933 L 49.102 197.092 L 48.736 199.252 L 48.466 201.412 L 48.411 203.571 L 48.740 205.731 L 49.579 207.891 L 49.721 208.168 L 50.736 210.050 L 51.844 211.302 L 52.561 212.210 L 53.966 213.473 L 54.867 214.370 L 56.089 215.360 L 57.364 216.529 L 58.212 217.211 L 59.792 218.689 L 60.335 219.163 L 62.020 220.849 L 62.458 221.291 L 64.015 223.008 L 64.581 223.698 L 65.717 225.168 L 66.704 226.602 L 67.150 227.328 L 68.752 229.487 L 68.827 229.654 L 69.845 231.647 L 70.924 233.807 L 70.950 233.896 L 71.671 235.966 L 72.637 238.126 L 73.073 240.170 L 73.095 240.286 L 73.597 242.445 L 74.263 244.605 L 74.843 246.765 L 75.189 248.924 L 75.196 248.978 L 75.533 251.084 L 76.264 253.244 L 77.160 255.403 L 77.318 255.889 L 78.136 257.563 L 79.441 259.139 L 80.084 259.723 L 81.564 260.641 L 83.683 261.882 M 370.435 194.933 L 370.705 197.092 L 371.016 199.252 L 371.256 201.412 L 371.292 203.571 L 370.956 205.731 L 370.285 207.891 L 368.156 210.846 M 249.274 195.421 L 247.230 197.092 L 245.028 198.907 L 244.402 199.252 M 242.905 200.112 L 240.795 201.412 L 238.659 202.648 L 236.618 203.571 M 329.944 201.198 L 329.883 201.412 L 328.882 203.571 L 327.859 205.731 M 385.140 209.893 L 384.989 210.050 L 383.677 212.210 L 383.354 214.370 L 383.580 216.529 L 384.272 218.689 L 385.082 220.849 L 385.140 221.013 L 385.773 223.008 L 387.044 225.168 L 387.263 225.673 L 387.936 227.328 L 389.351 229.487 M 36.223 212.210 L 36.534 214.370 L 36.271 216.529 L 35.558 218.689 L 34.861 220.849 L 32.737 225.432 L 30.615 228.937 M 315.084 227.015 L 314.871 227.328 L 312.987 229.487 L 311.153 231.647 M 390.718 231.647 L 391.508 232.898 L 392.072 233.807 L 393.631 235.744 L 393.804 235.966 L 395.754 238.027 L 395.855 238.126 L 397.877 240.007 L 398.260 240.286 L 400.000 241.540 M 177.095 238.857 L 179.218 239.853 L 181.073 240.286 L 181.341 240.341 L 183.464 240.974 L 185.587 241.740 L 187.709 242.291 L 189.084 242.445 L 189.832 242.528 L 191.955 242.901 L 194.078 243.343 L 196.201 243.751 L 198.324 244.075 L 200.447 244.306 L 202.570 244.455 L 204.693 244.540 L 206.816 244.582 L 208.939 244.598 L 211.061 244.601 L 213.184 244.592 L 215.307 244.562 L 217.430 244.495 L 219.553 244.365 L 221.676 244.145 L 223.799 243.809 L 225.922 243.363 L 228.045 242.871 L 230.168 242.480 L 230.463 242.445 M 346.876 240.286 L 346.302 242.445 L 345.602 244.605 L 345.046 246.765 M 344.775 248.924 L 344.356 251.084 L 343.627 253.244 L 342.798 255.403 M 45.475 263.886 L 43.354 264.042 L 41.229 264.272 L 39.106 264.819 L 36.983 265.639 L 35.037 266.202 M 85.810 262.859 L 87.933 263.944 L 88.225 264.042 L 90.056 264.648 L 92.179 265.858 L 93.167 266.202 L 94.302 266.571 L 96.425 267.914 L 97.480 268.361 L 98.547 268.806 L 100.670 270.360 L 100.963 270.521 L 102.793 271.700 L 104.198 272.681 L 104.916 273.194 L 106.791 274.840 L 107.039 275.063 L 108.971 277.000 M 351.173 268.291 L 351.136 268.361 L 350.216 270.521 L 349.681 272.681 L 349.502 274.840 L 349.516 277.000 M 69.863 270.521 L 70.420 272.681 L 70.593 274.840 L 70.575 277.000" fill="none" stroke="#f472b6" stroke-width="1" vector-effect="non-scaling-stroke"/></svg>