<svg xmlns="http://www.w3.org/2000/svg" viewBox="12 12 393.31486919021535 269.59416792576405" width="393.31486919021535" height="269.59416792576405" shape-rendering="geometricPrecision"><rect x="12" y="12" width="393.31486919021535" height="269.59416792576405" fill="#0b0f14"/><path d="M 327.429 20.000 L 327.682 22.160 L 327.821 23.406 L 327.909 24.319 L 328.311 26.479 L 328.906 28.639 L 329.590 30.798 L 329.944 32.208 L 330.118 32.958 L 330.965 35.118 L 331.940 37.277 L 332.067 37.604 L 332.840 39.437 L 334.108 41.597 L 334.190 41.750 L 335.402 43.756 L 336.313 45.153 L 336.824 45.916 L 338.436 47.897 L 338.583 48.076 L 340.559 50.169 M 20.000 23.018 L 21.201 24.319 L 22.123 25.350 L 23.055 26.479 L 24.246 27.957 L 24.751 28.639 L 26.369 30.722 L 26.421 30.798 L 28.087 32.958 L 28.492 33.613 L 29.448 35.118 L 30.615 36.991 L 30.783 37.277 L 32.284 39.437 L 32.737 40.318 L 33.446 41.597 L 34.797 43.756 L 34.860 43.892 L 36.006 45.916 L 36.983 47.821 L 37.120 48.076 L 38.458 50.235 L 39.106 51.659 L 39.500 52.395 L 40.881 54.555 L 41.229 55.365 L 42.020 56.714 L 43.352 58.854 M 92.091 24.319 L 91.689 26.479 L 91.094 28.639 L 90.410 30.798 M 162.235 34.297 L 160.120 35.118 L 157.989 36.024 L 155.866 37.127 L 155.508 37.277 M 342.682 52.192 L 342.928 52.395 L 344.804 53.933 L 345.706 54.555 L 346.927 55.383 L 348.954 56.714 L 349.050 56.771 L 351.173 58.145 L 352.715 58.874 L 353.296 59.149 L 355.419 60.348 L 357.226 61.034 L 357.542 61.157 L 359.665 62.086 L 361.788 62.913 L 363.187 63.193 L 363.911 63.371 L 366.034 63.876 L 368.156 64.172 L 370.279 64.030 L 372.402 63.223 L 372.459 63.193 M 45.122 61.034 L 45.475 61.554 L 47.541 63.193 L 47.598 63.236 L 49.721 64.030 L 51.844 64.172 L 53.966 63.876 L 56.089 63.371 L 56.813 63.193 M 211.061 69.663 L 211.858 69.672 L 213.184 69.687 L 215.307 69.762 L 217.430 69.906 L 219.553 70.134 L 221.676 70.457 L 223.799 70.870 L 225.922 71.340 L 228.045 71.776 L 228.357 71.832 L 230.168 72.172 L 232.291 72.839 L 234.413 73.598 L 235.875 73.992 L 236.536 74.162 L 238.659 75.020 L 240.782 75.973 L 241.283 76.151 L 242.905 76.762 L 245.028 77.933 L 245.905 78.311 L 247.151 78.862 L 249.274 80.201 L 249.800 80.471 L 251.397 81.344 L 253.417 82.630 L 253.520 82.691 L 255.642 84.268 L 256.425 84.790 L 257.765 85.727 L 259.373 86.950 L 259.888 87.339 L 261.932 89.109 L 262.011 89.176 L 264.134 91.205 L 264.203 91.269 L 266.257 93.306 L 266.377 93.429 L 268.380 95.532 L 268.430 95.588 L 270.412 97.748 L 270.503 97.861 L 272.191 99.908 L 272.626 100.510 L 273.751 102.067 L 274.749 103.554 L 275.176 104.227 L 276.740 106.387 L 276.872 106.624 L 278.004 108.546 L 278.994 110.402 L 279.143 110.706 L 280.408 112.866 L 281.117 114.514 L 281.324 115.025 L 282.418 117.185 L 283.240 119.305 L 283.254 119.345 L 284.060 121.504 L 284.932 123.664 L 285.363 125.385 L 285.468 125.824 L 286.096 127.983 L 286.748 130.143 L 287.261 132.303 L 287.486 133.967 L 287.552 134.462 L 287.878 136.622 L 288.211 138.782 L 288.493 140.941 L 288.707 143.101 L 288.847 145.261 L 288.915 147.420 L 288.915 149.580 L 288.847 151.739 L 288.707 153.899 L 288.493 156.059 L 288.211 158.218 L 287.878 160.378 L 287.552 162.538 M 194.078 71.340 L 196.201 70.870 L 198.324 70.457 L 200.447 70.134 L 202.570 69.906 L 204.693 69.762 M 372.402 81.282 L 371.963 82.630 L 371.044 84.790 L 370.356 86.950 M 162.235 85.727 L 160.112 87.271 L 157.989 89.172 L 158.068 89.109 M 102.793 87.149 L 101.805 89.109 L 100.674 91.269 L 99.599 93.429 L 98.550 95.588 M 370.279 87.309 L 369.906 89.109 L 369.333 91.269 L 368.830 93.429 L 368.462 95.588 L 368.238 97.748 M 50.667 91.269 L 51.170 93.429 L 51.538 95.588 L 51.762 97.748 L 51.844 99.559 M 368.156 99.559 L 368.141 99.908 L 368.089 102.067 L 368.102 104.227 L 368.156 106.002 L 368.167 106.387 L 368.334 108.546 L 368.676 110.706 L 369.221 112.866 L 369.906 115.025 L 370.279 116.428 L 370.472 117.185 L 371.419 119.345 L 372.402 121.498 M 94.302 105.155 L 93.894 106.387 L 92.926 108.546 L 92.184 110.706 L 91.514 112.866 L 90.710 115.025 L 90.110 117.185 M 51.833 106.387 L 51.666 108.546 L 51.324 110.706 L 50.779 112.866 L 50.094 115.025 M 90.056 117.468 L 89.668 119.345 L 89.091 121.504 L 88.562 123.664 L 88.156 125.824 M 330.909 121.504 L 331.438 123.664 L 331.844 125.824 L 332.067 127.850 M 373.551 123.664 L 374.525 125.443 L 374.730 125.824 L 376.304 127.983 L 376.648 128.535 L 377.786 130.143 L 378.771 131.507 L 379.412 132.303 L 380.894 134.085 L 381.254 134.462 L 383.017 136.357 L 383.323 136.622 L 385.140 138.378 L 385.729 138.782 L 387.263 140.051 L 388.952 140.941 L 389.385 141.219 L 391.508 142.130 L 393.631 142.265 L 395.754 141.651 L 397.315 140.941 M 87.933 127.850 L 87.919 127.983 L 87.693 130.143 L 87.446 132.303 L 87.219 134.462 L 87.027 136.622 L 86.873 138.782 L 86.755 140.941 L 86.670 143.101 L 86.615 145.261 L 86.589 147.420 L 86.589 149.580 L 86.615 151.739 L 86.670 153.899 L 86.755 156.059 L 86.873 158.218 L 87.027 160.378 L 87.219 162.538 L 87.446 164.697 L 87.693 166.857 L 87.919 169.017 L 87.933 169.150 L 88.156 171.176 L 88.562 173.336 L 89.091 175.496 L 89.668 177.655 L 90.056 179.532 L 90.110 179.815 L 90.710 181.975 L 91.514 184.134 L 92.179 186.274 M 134.532 125.824 L 133.904 127.983 L 133.252 130.143 L 132.739 132.303 M 332.307 130.143 L 332.554 132.303 L 332.781 134.462 L 332.973 136.622 L 333.127 138.782 L 333.245 140.941 L 333.330 143.101 L 333.385 145.261 L 333.411 147.420 L 333.411 149.580 L 333.385 151.739 L 333.330 153.899 L 333.245 156.059 L 333.127 158.218 L 332.973 160.378 L 332.781 162.538 L 332.554 164.697 L 332.307 166.857 L 332.081 169.017 M 132.448 134.462 L 132.122 136.622 L 131.789 138.782 L 131.507 140.941 L 131.293 143.101 L 131.153 145.261 L 131.085 147.420 L 131.085 149.580 L 131.153 151.739 L 131.293 153.899 L 131.507 156.059 L 131.789 158.218 L 132.122 160.378 L 132.448 162.538 L 132.514 163.033 M 177.095 138.694 L 177.072 138.782 L 176.549 140.941 L 176.061 143.101 L 175.736 145.261 L 175.580 147.420 L 175.580 149.580 L 175.736 151.739 L 176.061 153.899 L 176.549 156.059 L 177.072 158.218 L 177.095 158.306 L 177.683 160.378 L 178.713 162.538 L 179.218 163.754 L 179.611 164.697 L 181.042 166.857 L 181.341 167.355 L 182.446 169.017 L 183.464 170.355 L 184.130 171.176 L 185.587 172.742 L 186.197 173.336 L 187.709 174.688 L 188.756 175.496 L 189.832 176.270 L 191.882 177.655 L 191.955 177.698 L 194.078 178.994 L 195.967 179.815 L 196.201 179.907 L 198.324 180.809 L 200.447 181.597 L 202.381 181.975 L 202.570 182.010 L 204.693 182.367 L 206.816 182.661 L 208.939 182.816 L 211.061 182.816 L 213.184 182.661 L 215.307 182.367 L 217.430 182.006 L 217.619 181.975 M 20.000 139.416 L 22.123 140.775 L 22.685 140.941 L 24.246 141.651 L 26.369 142.265 L 28.492 142.130 L 30.615 141.219 L 31.048 140.941 M 243.451 140.941 L 243.939 143.101 L 244.264 145.261 L 244.420 147.420 L 244.420 149.580 L 244.264 151.739 L 243.939 153.899 L 243.451 156.059 L 242.928 158.218 M 287.486 163.033 L 287.261 164.697 L 286.748 166.857 L 286.096 169.017 L 285.468 171.176 M 133.252 166.857 L 133.904 169.017 L 134.532 171.176 L 134.637 171.615 M 285.363 171.615 L 284.932 173.336 L 284.060 175.496 L 283.254 177.655 M 331.844 171.176 L 331.438 173.336 L 330.909 175.496 L 330.332 177.655 M 374.525 171.557 L 373.551 173.336 L 372.405 175.496 L 371.419 177.655 L 370.472 179.815 M 370.279 180.572 L 369.906 181.975 L 369.221 184.134 L 368.676 186.294 L 368.334 188.454 L 368.167 190.613 M 50.779 184.134 L 51.324 186.294 L 51.666 188.454 L 51.833 190.613 L 51.844 190.998 M 92.926 188.454 L 93.894 190.613 L 94.302 191.845 L 94.601 192.773 L 95.646 194.933 L 96.425 196.878 L 96.502 197.092 L 97.548 199.252 L 98.547 201.405 L 98.550 201.412 L 99.599 203.571 L 100.670 205.723 M 368.156 190.998 L 368.102 192.773 L 368.089 194.933 L 368.141 197.092 L 368.156 197.441 L 368.238 199.252 L 368.462 201.412 L 368.830 203.571 L 369.333 205.731 L 369.906 207.891 L 370.279 209.691 L 370.356 210.050 L 371.044 212.210 L 371.963 214.370 L 372.402 215.718 L 372.732 216.529 L 374.084 218.689 L 374.525 219.505 L 375.760 220.849 L 376.648 221.651 L 378.771 222.736 L 380.894 222.985 L 383.017 222.981 L 385.140 222.849 L 387.263 222.588 L 389.385 222.224 L 391.508 221.801 L 393.631 221.378 L 395.754 220.992 L 397.210 220.849 M 51.762 199.252 L 51.538 201.412 L 51.170 203.571 L 50.667 205.731 L 50.094 207.891 M 101.805 207.891 L 102.793 209.851 L 102.886 210.050 L 104.190 212.210 L 104.916 213.624 L 105.295 214.370 L 106.767 216.529 L 107.039 217.020 L 108.041 218.689 L 109.162 220.441 L 109.415 220.849 L 111.112 223.008 L 111.285 223.258 L 112.734 225.168 L 113.408 226.056 L 114.413 227.328 L 115.531 228.662 L 116.235 229.487 L 117.654 231.046 L 118.209 231.647 L 119.777 233.257 L 120.325 233.807 L 121.899 235.331 L 122.577 235.966 L 124.022 237.287 L 124.969 238.126 L 126.145 239.141 L 127.491 240.286 L 128.268 240.921 L 130.087 242.445 L 130.391 242.684 L 132.514 244.544 L 132.595 244.605 L 134.637 246.260 L 135.334 246.765 L 136.760 247.813 L 138.307 248.924 L 138.883 249.321 L 141.006 251.001 L 141.135 251.084 L 143.128 252.484 L 144.363 253.244 L 145.251 253.782 L 147.374 255.283 L 147.597 255.403 L 149.497 256.518 L 151.412 257.563 L 151.620 257.667 L 153.743 258.921 L 155.508 259.723 L 155.866 259.873 L 157.989 260.976 L 160.112 261.880 M 20.000 220.479 L 22.123 220.782 L 22.790 220.849 L 24.246 221.015 L 26.369 221.378 L 28.492 221.801 L 30.615 222.224 L 32.737 222.588 L 34.860 222.849 L 36.983 222.981 L 39.106 222.985 L 41.229 222.736 L 43.352 221.651 L 44.240 220.849 M 45.475 235.446 L 45.122 235.966 L 43.368 238.126 L 42.020 240.286 M 332.067 259.396 L 331.940 259.723 L 330.965 261.882 L 330.118 264.042 M 162.235 262.703 L 164.358 263.636 L 165.802 264.042 L 166.480 264.225 L 168.603 264.988 L 170.726 265.755 L 172.613 266.202 L 172.849 266.253 L 174.972 266.820 L 177.095 267.484 L 179.218 268.072 L 180.868 268.361 L 181.341 268.441 L 183.464 268.906 L 185.587 269.446 L 187.709 269.958 L 189.832 270.368 L 191.127 270.521 L 191.955 270.619 L 194.078 270.951 L 196.201 271.312 L 198.324 271.651 L 200.447 271.940 L 202.570 272.165 L 204.693 272.325 L 206.816 272.426 L 208.939 272.474 L 211.061 272.474 L 213.184 272.426 L 215.307 272.325 L 217.430 272.165 L 219.553 271.940 L 221.676 271.651 L 223.799 271.312 L 225.922 270.951 L 228.045 270.610 L 228.873 270.521 M 329.944 264.792 L 329.590 266.202 L 328.906 268.361 L 328.311 270.521 L 327.909 272.681 M 91.094 268.361 L 91.689 270.521 L 92.091 272.681 L 92.179 273.594 M 242.905 267.484 L 245.028 266.820 L 247.151 266.253 L 247.387 266.202" fill="none" stroke="#00AEEF" stroke-width="1" vector-effect="non-scaling-stroke"/></svg>