<svg xmlns="http://www.w3.org/2000/svg" viewBox="12 12 396 273" width="396" height="273" shape-rendering="geometricPrecision"><rect x="12" y="12" width="396" height="273" fill="#0b0f14"/><path d="M 52.775 20.000 L 53.263 23.725 L 53.311 27.449 L 52.549 31.174 M 262.309 20.000 L 264.554 20.712 L 268.317 22.831 L 270.625 23.725 L 272.079 24.274 L 275.842 26.656 L 277.619 27.449 L 279.604 28.365 L 283.366 30.949 L 283.801 31.174 L 287.129 33.177 L 289.896 34.899 L 290.891 35.508 L 294.653 38.604 M 20.000 38.169 L 23.762 38.613 L 24.040 38.623 L 27.525 38.779 L 31.287 38.836 L 35.050 38.710 L 37.306 38.623 M 298.416 41.887 L 298.959 42.348 L 302.178 45.250 L 303.069 46.072 L 305.941 48.797 L 306.966 49.797 L 309.703 52.523 L 310.672 53.522 L 313.465 56.467 L 314.168 57.246 L 317.228 60.664 L 317.478 60.971 L 320.826 64.696 L 320.990 64.936 L 323.583 68.420 L 324.752 70.368 L 325.787 72.145 L 328.407 75.870 L 328.515 76.089 L 330.455 79.594 L 332.277 83.164 L 332.343 83.319 L 334.348 87.043 L 336.040 90.768 M 61.386 46.975 L 61.062 49.797 L 60.485 53.522 L 59.757 57.246 L 58.804 60.971 L 57.798 64.696 M 392.475 51.440 L 391.588 53.522 L 389.672 57.246 L 388.739 60.971 M 388.713 61.517 L 388.404 64.696 L 388.713 67.777 L 388.773 68.420 L 391.988 72.145 L 392.475 72.376 L 396.238 74.913 L 398.742 75.870 L 400.000 76.180 M 376.251 75.870 L 376.888 79.594 L 376.865 83.319 L 376.640 87.043 L 376.407 90.768 L 376.310 94.493 L 376.444 98.217 L 376.842 101.942 L 377.374 105.667 L 377.426 105.981 M 193.069 85.997 L 196.832 84.830 L 200.594 84.007 L 204.356 83.571 L 208.119 83.408 L 211.881 83.402 L 215.644 83.539 L 219.406 83.917 L 223.168 84.667 L 226.931 85.817 L 230.693 86.967 L 230.970 87.043 L 234.455 88.131 L 238.218 90.223 L 239.546 90.768 L 241.980 91.829 L 245.743 94.403 L 245.893 94.493 L 249.505 97.083 L 251.039 98.217 L 253.267 100.033 L 255.312 101.942 L 257.030 103.721 L 258.726 105.667 L 260.792 108.299 L 261.563 109.391 L 264.475 113.116 L 264.554 113.265 L 266.709 116.841 L 268.317 120.261 L 268.440 120.565 L 270.236 124.290 L 271.764 128.014 L 272.079 129.722 L 272.466 131.739 L 273.446 135.464 L 274.299 139.188 L 274.872 142.913 L 275.168 146.638 L 275.222 150.362 L 275.027 154.087 L 274.520 157.812 L 273.654 161.536 L 272.577 165.261 M 38.812 93.845 L 38.152 94.493 L 35.748 98.217 L 35.303 101.942 L 35.600 105.667 L 36.376 109.391 L 37.347 113.116 L 38.141 116.841 L 38.591 120.565 L 38.754 124.290 L 38.737 128.014 L 38.497 131.739 L 37.822 135.464 L 36.579 139.188 L 35.218 142.913 M 125.347 91.952 L 123.902 94.493 L 121.591 98.217 L 119.531 101.942 M 337.598 94.493 L 339.395 98.217 L 339.802 99.770 L 340.392 101.942 L 341.997 105.667 L 343.306 109.391 L 343.564 110.842 L 343.990 113.116 L 345.055 116.841 L 346.076 120.565 L 346.829 124.290 L 347.264 128.014 L 347.327 129.148 L 347.477 131.739 L 347.764 135.464 L 348.026 139.188 L 348.229 142.913 L 348.363 146.638 L 348.418 150.362 L 348.383 154.087 L 348.247 157.812 L 348.004 161.536 L 347.668 165.261 L 347.340 168.986 M 117.822 105.592 L 117.792 105.667 L 116.082 109.391 L 114.372 113.116 M 76.170 113.116 L 75.066 116.841 L 73.892 120.565 L 73.031 124.290 M 114.059 114.440 L 113.467 116.841 L 112.093 120.565 L 110.933 124.290 L 110.308 128.014 M 72.631 128.014 L 72.209 131.739 L 71.766 135.464 L 71.436 139.188 L 71.264 142.913 L 71.256 146.638 L 71.392 150.362 L 71.632 154.087 L 71.930 157.812 L 72.244 161.536 L 72.533 165.261 L 72.673 167.945 M 110.297 128.122 L 109.863 131.739 L 109.279 135.464 L 108.770 139.188 L 108.408 142.913 L 108.213 146.638 L 108.187 150.362 L 108.330 154.087 L 108.651 157.812 L 109.144 161.536 L 109.752 165.261 L 110.280 168.986 L 110.297 169.102 L 110.863 172.710 L 112.039 176.435 L 113.439 180.159 L 114.059 182.690 L 114.338 183.884 L 115.972 187.609 L 117.710 191.333 L 117.822 191.637 L 119.287 195.058 L 121.506 198.783 L 121.584 198.940 L 123.691 202.507 L 125.347 205.258 L 125.914 206.232 L 128.992 209.957 L 129.109 210.120 L 132.039 213.681 L 132.871 214.721 L 135.193 217.406 L 136.634 218.988 L 138.715 221.130 L 140.396 222.753 L 142.733 224.855 L 144.158 226.050 L 147.296 228.580 L 147.921 229.031 L 151.683 232.145 L 151.952 232.304 L 155.446 234.574 L 158.198 236.029 L 159.208 236.518 L 162.970 238.988 L 164.916 239.754 L 166.733 240.457 L 170.495 242.567 L 173.372 243.478 L 174.257 243.737 L 178.020 245.276 L 181.782 246.683 L 184.732 247.203 L 185.545 247.339 L 189.307 248.152 L 193.069 249.007 L 196.832 249.682 L 200.594 250.132 L 204.356 250.386 L 208.119 250.497 L 211.881 250.504 L 215.644 250.406 L 219.406 250.157 L 223.168 249.688 L 226.931 248.952 L 230.693 248.026 L 234.455 247.233 L 234.633 247.203 M 310.264 131.739 L 310.842 135.464 L 311.320 139.188 L 311.645 142.913 L 311.804 146.638 L 311.793 150.362 L 311.611 154.087 L 311.257 157.812 L 310.749 161.536 L 310.158 165.261 M 147.368 131.739 L 146.355 135.464 L 145.547 139.188 L 145.056 142.913 L 144.849 146.638 L 144.880 150.362 L 145.156 154.087 L 145.724 157.812 L 146.593 161.536 L 147.577 165.261 L 147.921 167.046 M 185.545 134.484 L 185.060 135.464 L 183.069 139.188 L 182.015 142.913 M 236.753 139.188 L 237.875 142.913 L 238.200 146.638 L 238.206 150.362 L 237.912 154.087 L 236.840 157.812 L 234.874 161.536 M 181.782 146.271 L 181.755 146.638 L 181.747 150.362 L 181.782 150.893 L 181.982 154.087 L 183.003 157.812 L 185.004 161.536 L 185.545 162.631 L 187.059 165.261 L 189.307 167.985 L 190.299 168.986 L 193.069 171.280 L 195.517 172.710 L 196.832 173.376 L 200.594 175.466 L 204.356 176.398 L 204.918 176.435 L 208.119 176.684 L 211.881 176.659 L 214.547 176.435 M 31.287 152.897 L 30.831 154.087 L 29.371 157.812 L 29.114 161.536 L 30.540 165.261 L 31.287 166.659 L 32.144 168.986 L 34.834 172.710 L 35.050 173.068 L 36.899 176.435 L 38.812 180.027 L 38.866 180.159 L 40.665 183.884 L 42.199 187.609 L 42.574 190.027 L 42.776 191.333 L 43.363 195.058 L 43.733 198.783 L 43.822 202.507 L 43.679 206.232 L 43.407 209.957 L 43.157 213.681 L 43.132 217.406 L 43.830 221.130 L 46.291 224.855 M 384.816 154.087 L 383.562 157.812 L 382.354 161.536 L 381.639 165.261 L 381.342 168.986 L 381.290 172.710 L 381.420 176.435 L 381.820 180.159 L 382.570 183.884 L 383.542 187.609 L 384.354 191.333 L 384.677 195.058 L 384.227 198.783 L 381.810 202.507 M 272.079 167.627 L 271.810 168.986 L 270.253 172.710 L 268.448 176.435 M 73.095 172.710 L 73.751 176.435 L 74.707 180.159 L 75.814 183.884 L 76.436 186.916 M 309.698 168.986 L 309.089 172.710 L 307.941 176.435 L 306.569 180.159 M 347.327 169.119 L 346.949 172.710 L 346.107 176.435 L 344.959 180.159 L 343.866 183.884 M 343.564 185.527 L 343.179 187.609 L 341.854 191.333 L 340.365 195.058 M 339.802 197.355 L 339.457 198.783 L 337.805 202.507 L 336.138 206.232 M 400.000 199.592 L 398.185 202.507 L 397.916 206.232 L 399.259 209.957 L 400.000 211.620 M 234.455 208.733 L 230.701 209.957 L 226.931 210.983 L 223.168 212.176 L 219.406 213.010 L 215.644 213.443 L 211.881 213.603 L 208.119 213.608 L 204.356 213.464 L 200.594 213.058 L 196.832 212.262 L 193.069 211.089 L 189.307 209.997 M 53.861 231.814 L 54.424 232.304 L 57.624 234.906 L 58.852 236.029 L 61.386 238.413 L 62.604 239.754 L 65.149 242.830 L 65.596 243.478 L 68.479 247.203 L 68.911 248.214 L 70.121 250.928 L 72.101 254.652 L 72.673 256.977 L 73.045 258.377 L 74.452 262.101 L 75.834 265.826 L 76.436 268.590 L 76.718 269.551 L 79.092 273.275 L 80.198 274.530 L 83.872 277.000 M 362.263 232.304 L 361.391 236.029 L 360.518 239.754 L 359.780 243.478 L 359.113 247.203 M 369.901 262.183 L 367.158 265.826 L 366.543 269.551 L 366.687 273.275 L 367.286 277.000" fill="none" stroke="#2dd4bf" stroke-width="1" vector-effect="non-scaling-stroke"/><path d="M 172.710 200.413 L 173.969 200.986 M 173.969 200.986 L 176.262 202.461 M 176.262 202.461 L 178.109 204.606 M 178.109 204.606 L 179.797 208.225 M 179.797 208.225 L 179.813 208.549 M 179.813 208.549 L 179.928 211.845 M 163.645 204.606 L 162.589 208.225 M 162.589 208.225 L 163.106 211.845 M 163.106 211.845 L 164.980 215.465 M 164.980 215.465 L 165.607 216.206 M 237.426 89.782 L 238.347 92.394 M 238.347 92.394 L 240.187 95.353 M 75.920 113.959 L 75.932 113.966 M 172.710 196.910 L 173.890 197.366 M 173.890 197.366 L 176.262 198.497 M 176.262 198.497 L 179.303 200.986 M 179.303 200.986 L 179.813 201.575 M 179.813 201.575 L 181.701 204.606 M 181.701 204.606 L 182.920 208.225 M 182.920 208.225 L 183.103 211.845 M 183.103 211.845 L 182.289 215.465 M 182.289 215.465 L 180.503 219.085 M 161.783 200.986 L 159.939 204.606 M 159.939 204.606 L 159.261 208.225 M 159.261 208.225 L 159.703 211.845 M 159.703 211.845 L 161.170 215.465 M 161.170 215.465 L 162.056 216.806 M 325.175 74.296 L 324.600 75.905 M 234.469 88.138 L 234.510 88.775 M 234.510 88.775 L 235.565 92.394 M 235.565 92.394 L 236.636 94.493 M 347.049 170.305 L 347.198 170.344 M 169.469 193.746 L 172.710 194.075 M 172.710 194.075 L 176.262 195.514 M 176.262 195.514 L 179.043 197.366 M 179.043 197.366 L 179.813 198.001 M 179.813 198.001 L 182.481 200.986 M 182.481 200.986 L 183.364 202.392 M 183.364 202.392 L 184.493 204.606 M 184.493 204.606 L 185.480 208.225 M 185.480 208.225 L 185.642 211.845 M 185.642 211.845 L 185.047 215.465 M 185.047 215.465 L 183.755 219.085 M 158.476 200.986 L 157.037 204.606 M 157.037 204.606 L 156.517 208.225 M 156.517 208.225 L 156.909 211.845 M 156.909 211.845 L 158.171 215.465 M 158.171 215.465 L 158.505 216.047 M 232.097 87.395 L 232.186 88.775 M 232.186 88.775 L 233.084 92.236 M 347.027 166.591 L 347.540 166.712 M 165.607 191.831 L 169.159 191.203 M 169.159 191.203 L 172.710 191.610 M 172.710 191.610 L 176.262 192.920 M 176.262 192.920 L 177.657 193.746 M 177.657 193.746 L 179.813 195.204 M 179.813 195.204 L 182.232 197.366 M 182.232 197.366 L 183.364 198.631 M 183.364 198.631 L 185.103 200.986 M 185.103 200.986 L 186.916 204.531 M 186.916 204.531 L 186.949 204.606 M 186.949 204.606 L 187.811 208.225 M 187.811 208.225 L 187.955 211.845 M 187.955 211.845 L 187.464 215.465 M 154.464 204.606 L 154.017 208.225 M 154.017 208.225 L 154.381 211.845 M 154.381 211.845 L 154.953 213.631 M 229.914 86.729 L 230.059 88.775 M 230.059 88.775 L 231.010 92.394 M 231.010 92.394 L 232.642 96.014 M 232.642 96.014 L 233.084 96.716 M 258.610 105.533 L 257.944 106.055 M 257.944 106.055 L 256.207 106.873 M 346.729 163.432 L 347.810 163.681 M 268.480 176.357 L 268.486 176.358 M 169.159 188.828 L 172.710 189.288 M 172.710 189.288 L 175.029 190.118 M 188.307 202.835 L 189.099 204.606 M 189.099 204.606 L 189.950 208.225 M 189.950 208.225 L 190.018 209.977 M 190.018 209.977 L 190.027 210.206 M 190.027 210.206 L 190.090 211.845 M 190.090 211.845 L 189.605 215.465 M 189.605 215.465 L 188.573 219.085 M 188.573 219.085 L 187.044 222.704 M 153.353 200.986 L 152.122 204.606 M 152.122 204.606 L 151.679 208.225 M 151.679 208.225 L 152.039 211.845 M 152.039 211.845 L 153.193 215.465 M 153.193 215.465 L 154.953 218.780 M 227.875 86.106 L 228.053 88.775 M 228.053 88.775 L 228.939 92.394 M 228.939 92.394 L 229.533 93.806 M 346.729 160.635 L 348.042 160.952 M 269.280 174.417 L 269.401 174.468 M 165.607 186.927 L 169.159 186.558 M 169.159 186.558 L 171.732 186.960 M 191.465 205.860 L 191.972 208.225 M 191.972 208.225 L 192.026 209.921 M 192.026 209.921 L 192.054 210.794 M 192.054 210.794 L 192.087 211.845 M 192.087 211.845 L 191.636 215.465 M 191.636 215.465 L 190.707 219.085 M 151.020 200.986 L 149.856 204.606 M 149.856 204.606 L 149.422 208.225 M 149.422 208.225 L 149.748 211.845 M 149.748 211.845 L 150.853 215.465 M 150.853 215.465 L 151.402 216.526 M 345.911 158.057 L 346.729 158.026 M 346.729 158.026 L 348.207 158.422 M 270.053 172.542 L 270.283 172.638 M 165.607 184.674 L 169.091 184.431 M 193.958 208.247 L 194.002 209.865 M 194.002 209.865 L 194.019 210.497 M 194.019 210.497 L 194.042 211.392 M 194.042 211.392 L 194.054 211.845 M 147.620 204.606 L 147.158 208.225 M 147.158 208.225 L 147.464 211.845 M 147.464 211.845 L 147.850 213.117 M 194.019 212.128 L 193.593 215.465 M 193.593 215.465 L 192.663 219.085 M 192.663 219.085 L 191.333 222.704 M 223.962 84.909 L 223.937 85.155 M 223.937 85.155 L 224.157 88.775 M 224.157 88.775 L 225.005 92.394 M 225.005 92.394 L 225.981 94.775 M 345.576 155.492 L 346.729 155.491 M 346.729 155.491 L 348.315 155.948 M 270.810 170.705 L 271.050 170.802 M 195.936 209.811 L 195.942 210.148 M 195.942 210.148 L 195.973 211.845 M 195.973 211.845 L 195.955 211.988 M 195.955 211.988 L 195.501 215.465 M 195.501 215.465 L 194.595 219.085 M 146.552 200.986 L 145.352 204.606 M 145.352 204.606 L 144.855 208.225 M 144.855 208.225 L 145.111 211.845 M 145.111 211.845 L 146.166 215.465 M 146.166 215.465 L 147.850 218.667 M 366.740 273.602 L 367.854 273.782 M 345.238 152.910 L 346.729 152.964 M 346.729 152.964 L 348.389 153.503 M 271.561 168.886 L 271.810 168.987 M 197.881 209.757 L 197.901 211.845 M 142.979 204.606 L 142.376 208.225 M 142.376 208.225 L 142.579 211.845 M 142.579 211.845 L 143.677 215.465 M 143.677 215.465 L 144.299 216.570 M 197.570 214.184 L 197.396 215.465 M 197.396 215.465 L 196.471 219.085 M 196.471 219.085 L 195.201 222.704 M 366.574 270.335 L 368.037 270.589 M 368.037 270.589 L 368.389 270.751 M 220.180 84.071 L 220.048 85.155 M 220.048 85.155 L 220.204 88.775 M 220.204 88.775 L 221.014 92.394 M 221.014 92.394 L 222.430 95.808 M 345.199 150.310 L 346.729 150.424 M 346.729 150.424 L 348.412 151.025 M 162.056 178.992 L 158.505 180.906 M 158.505 180.906 L 154.953 183.657 M 154.953 183.657 L 151.402 187.261 M 151.402 187.261 L 147.850 191.527 M 199.880 209.701 L 199.872 211.845 M 199.872 211.845 L 199.716 212.872 M 199.598 213.648 L 199.321 215.465 M 199.321 215.465 L 198.354 219.085 M 140.474 204.606 L 139.661 208.225 M 139.661 208.225 L 139.775 211.845 M 139.775 211.845 L 140.748 214.784 M 366.872 267.555 L 368.037 267.769 M 368.037 267.769 L 368.854 268.118 M 218.205 83.796 L 218.005 85.155 M 218.005 85.155 L 218.112 88.775 M 218.112 88.775 L 218.879 92.086 M 344.526 147.467 L 346.729 147.752 M 346.729 147.752 L 348.390 148.442 M 272.306 164.991 L 272.607 165.157 M 201.951 209.643 L 201.905 211.845 M 201.905 211.845 L 201.668 213.173 M 201.294 215.273 L 201.259 215.465 M 367.711 265.091 L 368.037 265.156 M 368.037 265.156 L 369.283 265.682 M 314.278 57.369 L 312.087 59.649 M 216.114 83.586 L 215.851 85.155 M 215.851 85.155 L 215.868 88.775 M 215.868 88.775 L 216.606 92.394 M 216.606 92.394 L 218.150 96.014 M 218.150 96.014 L 218.879 97.133 M 116.154 109.229 L 116.154 109.235 M 268.509 161.205 L 268.598 161.228 M 268.598 161.228 L 272.150 162.766 M 272.150 162.766 L 273.138 163.320 M 204.141 209.582 L 204.046 211.845 M 204.046 211.845 L 203.740 213.397 M 202.910 216.821 L 202.205 219.085 M 75.872 184.167 L 75.805 184.234 M 131.403 208.225 L 130.363 211.645 M 186.916 247.614 L 186.898 247.632 M 369.152 263.178 L 369.684 263.414 M 313.167 56.152 L 311.215 58.110 M 311.215 58.110 L 311.043 58.292 M 213.793 83.471 L 213.410 85.155 M 213.410 85.155 L 213.279 88.775 M 213.279 88.775 L 214.009 92.394 M 214.009 92.394 L 215.327 95.136 M 343.634 140.646 L 346.729 141.672 M 346.729 141.672 L 348.217 142.697 M 265.186 157.893 L 268.598 158.926 M 268.598 158.926 L 272.150 160.599 M 272.150 160.599 L 273.100 161.169 M 273.100 161.169 L 273.665 161.489 M 307.080 178.334 L 307.256 178.295 M 206.632 209.512 L 206.439 211.845 M 206.439 211.845 L 206.010 213.527 M 157.999 173.808 L 154.953 176.229 M 154.953 176.229 L 151.402 179.675 M 151.402 179.675 L 147.850 183.608 M 147.850 183.608 L 144.299 187.757 M 144.299 187.757 L 140.748 191.898 M 124.496 203.844 L 126.542 204.117 M 126.542 204.117 L 130.093 202.945 M 130.093 202.945 L 132.261 200.986 M 210.617 85.155 L 210.184 88.775 M 210.184 88.775 L 210.860 92.394 M 210.860 92.394 L 211.776 94.005 M 343.178 135.278 L 343.657 135.831 M 343.657 135.831 L 346.729 137.650 M 346.729 137.650 L 348.010 138.956 M 262.061 154.777 L 265.047 155.195 M 265.047 155.195 L 268.598 156.518 M 268.598 156.518 L 270.473 157.549 M 270.473 157.549 L 272.150 158.357 M 272.150 158.357 L 274.117 159.543 M 308.459 173.410 L 308.992 173.024 M 209.549 209.430 L 209.148 211.845 M 121.963 199.582 L 122.991 199.915 M 122.991 199.915 L 126.542 200.025 M 126.542 200.025 L 130.093 198.849 M 130.093 198.849 L 132.104 197.366 M 147.850 181.023 L 144.299 185.207 M 144.299 185.207 L 140.748 189.174 M 140.748 189.174 L 137.196 192.847 M 228.175 208.909 L 229.178 210.371 M 206.079 219.856 L 204.724 222.704 M 194.019 244.282 L 193.941 244.423 M 193.941 244.423 L 192.281 248.042 M 192.281 248.042 L 192.028 248.770 M 193.958 85.722 L 194.019 85.820 M 194.019 85.820 L 196.709 88.775 M 196.709 88.775 L 197.137 90.053 M 310.884 53.745 L 309.023 55.667 M 206.905 85.155 L 205.598 88.775 M 205.598 88.775 L 205.806 92.394 M 205.806 92.394 L 208.224 95.426 M 346.863 124.584 L 346.755 124.972 M 346.729 125.351 L 346.329 128.592 M 346.329 128.592 L 346.729 129.882 M 346.729 129.882 L 347.221 132.211 M 347.221 132.211 L 347.558 132.794 M 261.495 151.326 L 265.047 152.191 M 265.047 152.191 L 268.531 153.930 M 268.531 153.930 L 268.598 153.956 M 268.598 153.956 L 272.150 155.975 M 272.150 155.975 L 274.466 157.549 M 274.466 157.549 L 274.549 157.599 M 309.615 169.284 L 309.654 169.257 M 119.884 196.061 L 122.991 196.824 M 122.991 196.824 L 126.542 196.763 M 126.542 196.763 L 130.093 195.617 M 130.093 195.617 L 132.953 193.746 M 213.759 209.312 L 212.719 211.845 M 260.769 146.690 L 261.495 146.701 M 261.495 146.701 L 265.047 148.406 M 265.047 148.406 L 267.484 150.310 M 267.484 150.310 L 268.598 150.906 M 268.598 150.906 L 272.150 153.443 M 272.150 153.443 L 272.734 153.930 M 272.734 153.930 L 274.850 155.389 M 118.363 192.901 L 119.439 193.347 M 119.439 193.347 L 121.450 193.746 M 121.450 193.746 L 122.991 194.090 M 122.991 194.090 L 126.542 193.898 M 126.542 193.898 L 127.028 193.746 M 144.299 179.962 L 140.748 184.042 M 140.748 184.042 L 137.196 187.605 M 137.196 187.605 L 133.645 190.567 M 133.645 190.567 L 134.185 190.127 M 197.570 246.064 L 196.856 248.042 M 196.856 248.042 L 196.479 249.619 M 393.875 68.223 L 394.166 70.676 M 394.166 70.676 L 395.445 74.296 M 395.445 74.296 L 395.528 74.434 M 36.752 121.968 L 37.621 124.972 M 37.621 124.972 L 37.757 125.226 M 381.335 169.499 L 382.243 171.594 M 382.243 171.594 L 382.464 172.028 M 382.464 172.028 L 383.442 175.648 M 383.442 175.648 L 383.456 175.990 M 265.047 139.331 L 265.008 139.451 M 265.008 139.451 L 265.047 139.615 M 265.047 139.615 L 265.639 143.070 M 265.639 143.070 L 268.126 146.690 M 268.126 146.690 L 268.598 147.070 M 268.598 147.070 L 271.803 150.310 M 271.803 150.310 L 272.150 150.561 M 272.150 150.561 L 275.083 153.017 M 117.068 189.959 L 117.504 190.127 M 117.504 190.127 L 119.439 190.910 M 119.439 190.910 L 122.991 191.562 M 122.991 191.562 L 126.542 191.271 M 126.542 191.271 L 130.047 190.127 M 201.121 241.916 L 200.101 244.423 M 200.101 244.423 L 198.957 248.042 M 198.957 248.042 L 198.587 249.892 M 307.374 50.204 L 305.953 51.679 M 391.411 65.022 L 391.103 67.056 M 391.103 67.056 L 391.395 70.676 M 391.395 70.676 L 391.927 72.075 M 381.584 165.954 L 382.243 166.988 M 382.243 166.988 L 383.325 168.408 M 383.325 168.408 L 383.860 169.493 M 271.919 128.856 L 270.288 132.211 M 270.288 132.211 L 269.174 135.831 M 269.174 135.831 L 268.896 139.451 M 268.896 139.451 L 269.706 143.070 M 269.706 143.070 L 271.903 146.690 M 271.903 146.690 L 272.150 146.939 M 272.150 146.939 L 275.143 150.310 M 275.143 150.310 L 275.221 150.376 M 115.748 187.098 L 115.888 187.178 M 115.888 187.178 L 119.439 188.527 M 119.439 188.527 L 122.991 189.107 M 122.991 189.107 L 126.542 188.822 M 126.542 188.822 L 130.093 187.601 M 130.093 187.601 L 131.920 186.507 M 149.447 165.617 L 148.055 168.408 M 383.556 187.671 L 382.602 189.757 M 201.121 247.696 L 201.015 248.042 M 201.015 248.042 L 200.640 250.135 M 388.961 63.437 L 388.449 65.142 M 382.009 163.335 L 382.243 163.616 M 382.243 163.616 L 383.437 164.789 M 383.437 164.789 L 384.097 165.670 M 272.150 135.586 L 272.082 135.831 M 272.082 135.831 L 272.004 139.451 M 272.004 139.451 L 272.150 139.982 M 272.150 139.982 L 272.941 143.070 M 272.941 143.070 L 275.031 146.690 M 275.031 146.690 L 275.171 146.847 M 114.381 183.982 L 115.888 184.836 M 115.888 184.836 L 119.439 186.168 M 119.439 186.168 L 121.678 186.507 M 121.678 186.507 L 122.991 186.709 M 122.991 186.709 L 125.132 186.507 M 361.136 237.118 L 361.146 237.183 M 361.146 237.183 L 361.213 237.271 M 204.673 242.947 L 204.097 244.423 M 204.097 244.423 L 203.061 248.042 M 203.061 248.042 L 202.700 250.274 M 382.530 160.992 L 382.753 161.169 M 382.753 161.169 L 384.283 162.668 M 113.684 181.161 L 115.888 182.467 M 115.888 182.467 L 116.981 182.887 M 116.981 182.887 L 119.439 183.795 M 119.439 183.795 L 122.991 184.299 M 122.991 184.299 L 126.542 183.921 M 126.542 183.921 L 129.361 182.887 M 208.224 239.646 L 207.655 240.803 M 207.655 240.803 L 206.184 244.423 M 206.184 244.423 L 205.128 248.042 M 263.726 20.450 L 263.660 20.777 M 383.177 158.999 L 384.448 160.006 M 112.599 177.924 L 114.653 179.268 M 114.653 179.268 L 115.888 179.998 M 115.888 179.998 L 119.439 181.345 M 119.439 181.345 L 122.991 181.838 M 122.991 181.838 L 126.542 181.397 M 126.542 181.397 L 130.093 179.988 M 130.093 179.988 L 131.196 179.268 M 208.224 244.713 L 207.276 248.042 M 207.276 248.042 L 206.922 250.462 M 383.836 156.997 L 384.603 157.521 M 183.313 138.733 L 183.019 139.365 M 186.997 165.154 L 189.882 168.408 M 189.882 168.408 L 190.467 168.982 M 190.467 168.982 L 191.712 170.156 M 237.190 156.596 L 236.855 157.549 M 108.785 149.920 L 108.510 150.310 M 108.510 150.310 L 108.207 150.892 M 139.656 157.549 L 139.958 161.169 M 139.958 161.169 L 139.374 164.789 M 139.374 164.789 L 137.985 168.408 M 111.183 173.726 L 112.336 174.900 M 112.336 174.900 L 113.301 175.648 M 113.301 175.648 L 115.888 177.334 M 115.888 177.334 L 119.439 178.801 M 119.439 178.801 L 122.717 179.268 M 122.717 179.268 L 122.991 179.307 M 122.991 179.307 L 123.257 179.268 M 211.776 242.116 L 210.718 244.423 M 210.718 244.423 L 209.568 248.042 M 209.568 248.042 L 209.185 250.499 M 267.152 22.175 L 267.037 22.719 M 182.648 147.069 L 182.473 150.310 M 182.473 150.310 L 182.949 153.930 M 182.949 153.930 L 183.364 155.186 M 183.364 155.186 L 184.143 157.549 M 184.143 157.549 L 186.065 161.169 M 186.065 161.169 L 186.916 162.356 M 186.916 162.356 L 188.695 164.789 M 188.695 164.789 L 190.467 166.785 M 190.467 166.785 L 191.987 168.408 M 191.987 168.408 L 194.019 170.324 M 194.019 170.324 L 196.000 172.028 M 196.000 172.028 L 197.570 173.284 M 197.570 173.284 L 200.777 175.511 M 384.475 155.100 L 384.742 155.279 M 108.785 155.465 L 108.522 156.316 M 110.237 168.678 L 112.336 171.514 M 112.336 171.514 L 112.843 172.028 M 112.843 172.028 L 115.888 174.383 M 115.888 174.383 L 118.520 175.648 M 118.520 175.648 L 119.439 176.022 M 119.439 176.022 L 122.991 176.482 M 122.991 176.482 L 126.542 175.949 M 126.542 175.949 L 127.089 175.648 M 136.756 157.549 L 137.174 161.169 M 137.174 161.169 L 136.572 164.789 M 136.572 164.789 L 135.019 168.408 M 43.797 203.146 L 42.117 204.840 M 42.124 204.872 L 42.401 204.606 M 211.776 249.356 L 211.600 250.503 M 184.354 148.639 L 184.290 150.310 M 184.290 150.310 L 184.810 153.930 M 184.810 153.930 L 186.053 157.549 M 186.053 157.549 L 186.916 159.149 M 186.916 159.149 L 188.040 161.169 M 188.040 161.169 L 190.467 164.464 M 190.467 164.464 L 190.722 164.789 M 190.722 164.789 L 194.019 168.310 M 194.019 168.310 L 194.121 168.408 M 194.121 168.408 L 197.570 171.373 M 197.570 171.373 L 198.465 172.028 M 198.465 172.028 L 201.121 173.861 M 201.121 173.861 L 204.399 175.648 M 204.399 175.648 L 204.673 175.796 M 204.673 175.796 L 206.877 176.587 M 112.336 154.527 L 111.184 157.549 M 111.184 157.549 L 110.831 161.169 M 110.831 161.169 L 111.513 164.789 M 111.513 164.789 L 112.336 166.536 M 112.336 166.536 L 113.527 168.408 M 113.527 168.408 L 115.888 170.802 M 115.888 170.802 L 117.880 172.028 M 117.880 172.028 L 119.439 172.765 M 119.439 172.765 L 122.991 173.257 M 122.991 173.257 L 126.542 172.496 M 126.542 172.496 L 127.376 172.028 M 43.769 200.289 L 41.620 202.456 M 215.327 247.112 L 214.960 248.042 M 214.960 248.042 L 214.511 250.435 M 270.981 23.859 L 270.880 24.930 M 186.081 150.229 L 186.079 150.310 M 186.079 150.310 L 186.656 153.930 M 186.656 153.930 L 186.916 154.669 M 186.916 154.669 L 187.970 157.549 M 187.970 157.549 L 190.012 161.169 M 190.012 161.169 L 190.467 161.787 M 190.467 161.787 L 192.824 164.789 M 192.824 164.789 L 194.019 166.064 M 194.019 166.064 L 196.455 168.408 M 196.455 168.408 L 197.570 169.367 M 197.570 169.367 L 201.121 171.966 M 201.121 171.966 L 201.232 172.028 M 201.232 172.028 L 204.673 173.873 M 204.673 173.873 L 208.224 175.129 M 208.224 175.129 L 211.776 175.601 M 211.776 175.601 L 213.420 175.397 M 115.888 156.113 L 115.115 157.549 M 115.115 157.549 L 114.606 161.169 M 114.606 161.169 L 115.523 164.789 M 115.523 164.789 L 115.888 165.364 M 115.888 165.364 L 119.140 168.408 M 119.140 168.408 L 119.439 168.591 M 119.439 168.591 L 122.991 169.151 M 122.991 169.151 L 125.410 168.408 M 218.879 248.221 L 218.332 250.228 M 273.259 25.021 L 273.121 26.219 M 188.215 152.194 L 188.521 153.930 M 188.521 153.930 L 189.891 157.549 M 189.891 157.549 L 190.467 158.565 M 190.467 158.565 L 192.059 161.169 M 192.059 161.169 L 194.019 163.655 M 194.019 163.655 L 195.022 164.789 M 195.022 164.789 L 197.570 167.241 M 197.570 167.241 L 199.014 168.408 M 199.014 168.408 L 201.121 169.947 M 201.121 169.947 L 204.673 171.942 M 204.673 171.942 L 204.916 172.028 M 204.916 172.028 L 208.224 173.160 M 208.224 173.160 L 211.402 173.539 M 40.638 197.746 L 41.201 197.366 M 275.701 26.835 L 275.653 27.239 M 275.653 27.239 L 275.692 27.698 M 190.556 154.349 L 191.888 157.549 M 191.888 157.549 L 194.019 160.994 M 194.019 160.994 L 194.141 161.169 M 194.141 161.169 L 197.344 164.789 M 197.344 164.789 L 197.570 165.007 M 197.570 165.007 L 201.121 167.877 M 201.121 167.877 L 201.993 168.408 M 201.993 168.408 L 204.673 169.901 M 204.673 169.901 L 208.224 171.147 M 208.224 171.147 L 208.883 171.220 M 279.371 28.257 L 279.682 29.992 M 289.021 35.364 L 289.907 35.106 M 289.907 35.106 L 290.042 34.988 M 193.843 157.375 L 193.918 157.549 M 193.918 157.549 L 194.019 157.712 M 194.019 157.712 L 196.441 161.169 M 196.441 161.169 L 197.570 162.445 M 197.570 162.445 L 200.066 164.789 M 200.066 164.789 L 201.121 165.642 M 201.121 165.642 L 204.673 167.805 M 204.673 167.805 L 205.513 168.118 M 39.099 190.363 L 39.387 190.127" fill="none" stroke="#e5e7eb" stroke-width="1" vector-effect="non-scaling-stroke"/></svg>