<svg xmlns="http://www.w3.org/2000/svg" viewBox="12 12 396 273" width="396" height="273" shape-rendering="geometricPrecision"><rect x="12" y="12" width="396" height="273" fill="#0b0f14"/><path d="M 262.422 20.000 L 265.047 20.898 L 268.598 22.936 L 270.312 23.620 L 272.150 24.355 L 275.701 26.639 L 277.022 27.239 L 279.252 28.300 L 282.804 30.685 L 283.146 30.859 L 286.355 32.751 L 289.221 34.479 L 289.907 34.877 L 293.458 37.772 L 293.936 38.099 L 297.009 40.472 L 298.586 41.718 L 300.561 43.355 L 302.770 45.338 L 304.112 46.563 L 306.569 48.958 L 307.664 50.042 L 310.114 52.577 L 311.215 53.753 L 313.444 56.197 L 314.766 57.721 L 316.545 59.817 L 318.318 62.023 L 319.412 63.437 L 321.869 66.623 L 322.175 67.056 L 325.131 70.676 L 325.421 71.165 L 327.423 74.296 L 328.972 77.077 L 329.397 77.915 L 331.798 81.535 L 332.523 83.269 L 333.296 85.155 L 335.373 88.775 L 336.075 90.838 L 336.586 92.394 L 338.372 96.014 L 339.626 99.601 M 360.577 20.000 L 360.935 20.068 L 364.486 20.635 L 368.037 20.963 L 371.589 21.019 L 375.140 20.839 L 378.692 20.464 L 382.243 20.025 L 382.408 20.000 M 20.000 30.356 L 22.248 30.859 L 23.551 31.152 L 27.103 32.005 L 30.654 32.623 L 34.206 32.932 L 37.757 32.961 L 41.308 32.719 L 44.860 32.186 L 48.411 31.372 L 50.909 30.859 M 347.869 34.479 L 349.140 38.099 L 350.154 41.718 L 350.280 42.287 M 66.168 38.619 L 65.215 41.718 L 64.186 45.338 L 63.380 48.958 L 62.730 52.577 M 62.617 53.314 L 62.197 56.197 L 60.975 59.817 L 59.378 63.437 M 392.897 63.972 L 391.947 67.056 L 391.032 70.676 L 391.382 74.296 L 392.897 76.925 L 393.457 77.915 L 396.449 79.981 L 399.199 81.535 L 400.000 81.789 M 147.850 67.680 L 144.317 70.676 L 140.748 74.012 L 140.434 74.296 M 201.121 84.313 L 204.673 83.818 L 208.224 83.556 L 211.776 83.547 L 215.327 83.782 L 218.879 84.243 L 222.430 84.846 L 224.657 85.155 L 225.981 85.328 L 229.533 86.360 L 233.084 87.923 L 235.649 88.775 L 236.636 89.083 L 240.187 91.113 L 242.812 92.394 L 243.738 92.829 L 247.290 95.520 L 248.061 96.014 L 250.841 98.026 L 252.833 99.634 L 254.393 100.992 L 256.680 103.254 L 257.944 104.640 L 259.826 106.873 L 261.495 109.113 L 262.442 110.493 L 265.042 114.113 M 37.757 92.786 L 37.412 96.014 L 37.605 99.634 L 37.757 101.381 L 37.877 103.254 L 38.384 106.873 L 38.981 110.493 L 39.451 114.113 L 39.657 117.732 L 39.530 121.352 L 39.029 124.972 L 38.222 128.592 M 378.597 92.394 L 378.348 96.014 L 378.123 99.634 L 378.047 103.254 L 378.199 106.873 L 378.560 110.493 L 378.692 111.608 M 340.887 103.254 L 342.419 106.873 L 343.178 110.028 L 343.282 110.493 L 344.325 114.113 L 345.486 117.732 L 346.350 121.352 L 346.729 124.644 L 346.765 124.972 L 347.172 128.592 L 347.604 132.211 L 347.960 135.831 L 348.218 139.451 L 348.389 143.070 L 348.486 146.690 L 348.516 150.310 L 348.475 153.930 L 348.353 157.549 L 348.129 161.169 L 347.780 164.789 L 347.313 168.408 L 346.825 172.028 M 115.888 109.991 L 115.725 110.493 L 114.204 114.113 L 112.773 117.732 M 76.784 110.493 L 75.772 114.113 L 74.536 117.732 L 73.600 121.352 M 267.243 117.732 L 268.598 120.820 L 268.806 121.352 L 270.543 124.972 L 271.926 128.592 L 272.150 129.798 L 272.626 132.211 L 273.579 135.831 L 274.370 139.451 L 274.884 143.070 L 275.141 146.690 L 275.179 150.310 L 274.994 153.930 L 274.530 157.549 L 273.737 161.169 L 272.720 164.789 M 112.336 119.948 L 112.064 121.352 L 111.077 124.972 L 110.100 128.592 L 109.366 132.211 L 108.922 135.831 M 309.076 124.972 L 310.037 128.592 L 310.728 132.211 L 311.125 135.831 L 311.215 137.770 M 73.161 124.972 L 72.628 128.592 L 72.092 132.211 L 71.671 135.831 L 71.393 139.451 L 71.253 143.070 L 71.234 146.690 L 71.320 150.310 L 71.493 153.930 L 71.738 157.549 L 72.046 161.169 L 72.411 164.789 L 72.820 168.408 L 73.208 172.028 L 73.271 172.688 M 37.757 131.039 L 37.544 132.211 L 36.123 135.831 L 34.398 139.451 M 147.243 132.211 L 146.274 135.831 L 145.520 139.451 L 145.066 143.070 L 144.872 146.690 L 144.894 150.310 L 145.136 153.930 L 145.646 157.549 L 146.448 161.169 L 147.407 164.789 L 147.850 167.035 M 108.785 138.478 L 108.734 139.451 L 108.551 143.070 L 108.431 146.690 L 108.417 150.310 L 108.515 153.930 L 108.694 157.549 L 108.785 159.392 L 108.869 161.169 L 109.281 164.789 L 110.006 168.408 L 111.005 172.028 L 112.033 175.648 L 112.336 177.179 L 112.753 179.268 L 114.171 182.887 L 115.684 186.507 L 115.888 187.164 L 116.899 190.127 L 118.933 193.746 L 119.439 194.982 L 120.478 197.366 L 122.847 200.986 L 122.991 201.252 L 125.087 204.606 L 126.542 206.902 L 127.383 208.225 L 130.093 211.685 L 130.211 211.845 L 133.488 215.465 L 133.645 215.649 L 136.840 219.085 L 137.196 219.456 L 140.465 222.704 L 140.748 222.965 L 144.299 226.318 M 183.364 139.127 L 183.263 139.451 L 182.288 143.070 L 181.684 146.690 L 181.668 150.310 L 182.248 153.930 L 183.234 157.549 L 183.364 157.971 L 184.479 161.169 L 186.883 164.789 M 237.587 143.070 L 238.186 146.690 L 238.201 150.310 L 237.627 153.930 L 236.701 157.549 M 311.473 143.070 L 311.578 146.690 L 311.573 150.310 L 311.458 153.930 L 311.275 157.549 M 30.654 147.799 L 29.709 150.310 L 28.749 153.930 L 29.345 157.549 L 30.654 160.783 L 30.750 161.169 L 32.881 164.789 L 34.206 167.238 L 34.692 168.408 L 37.006 172.028 L 37.757 173.977 L 38.347 175.648 L 40.057 179.268 L 41.140 182.887 L 41.308 184.374 L 41.566 186.507 L 41.964 190.127 L 42.109 193.746 L 42.003 197.366 L 41.737 200.986 L 41.444 204.606 M 311.090 161.169 L 310.651 164.789 L 309.920 168.408 L 308.943 172.028 L 307.952 175.648 M 190.071 168.408 L 190.467 168.790 L 194.019 171.948 L 194.165 172.028 L 197.570 174.009 L 201.121 175.540 L 201.770 175.648 L 204.673 176.204 L 208.224 176.725 L 211.776 176.700 L 215.327 176.142 L 217.887 175.648 M 272.150 167.464 L 271.964 168.408 L 270.560 172.028 L 268.812 175.648 M 381.895 168.408 L 381.086 172.028 L 380.533 175.648 L 380.350 179.268 L 380.516 182.887 L 380.971 186.507 L 381.584 190.127 L 382.117 193.746 L 382.243 195.611 M 346.729 172.851 L 346.396 175.648 L 345.476 179.268 L 344.260 182.887 L 343.240 186.507 M 74.354 179.268 L 75.494 182.887 L 76.618 186.507 L 76.822 187.411 M 343.178 186.788 L 342.351 190.127 L 340.852 193.746 L 339.643 197.366 L 338.450 200.986 L 336.691 204.606 M 41.308 207.770 L 41.284 208.225 L 41.219 211.845 L 41.308 213.046 L 41.502 215.465 L 43.603 219.085 L 44.860 220.255 L 47.131 222.704 L 48.411 223.589 L 51.447 226.324 L 51.963 226.688 L 55.408 229.944 L 55.514 230.035 L 58.940 233.563 L 59.065 233.707 L 61.953 237.183 L 62.617 238.275 L 64.103 240.803 L 66.129 244.423 L 66.168 244.540 L 67.563 248.042 L 69.105 251.662 L 69.720 254.634 L 69.860 255.282 L 70.864 258.901 L 72.121 262.521 L 73.266 266.141 L 73.271 266.156 L 75.636 269.761 L 76.822 270.748 L 80.374 273.161 L 80.930 273.380 L 83.925 274.302 L 87.477 276.018 L 90.335 277.000 M 396.449 209.402 L 396.116 211.845 L 396.449 214.291 L 396.527 215.465 L 397.819 219.085 L 399.897 222.704 L 400.000 222.874 M 147.850 229.372 L 148.699 229.944 L 151.402 231.803 L 154.223 233.563 L 154.953 233.974 L 158.505 236.521 L 159.958 237.183 L 162.056 238.147 L 165.607 240.315 L 166.973 240.803 L 169.159 241.603 L 172.710 243.453 L 175.880 244.423 L 176.262 244.527 L 179.813 245.742 L 183.364 247.039 L 186.916 247.900 L 188.093 248.042 L 190.467 248.347 L 194.019 248.975 L 197.570 249.557 L 201.121 249.998 L 204.673 250.278 L 208.224 250.411 L 211.776 250.418 L 215.327 250.296 L 218.879 250.021 L 222.430 249.568 L 225.981 248.951 L 229.533 248.291 L 231.361 248.042 M 357.365 244.423 L 356.771 248.042 L 355.927 251.662 L 354.815 255.282 M 364.486 269.284 L 364.121 269.761 L 362.633 273.380 L 362.353 277.000" fill="none" stroke="#FFF200" stroke-width="1" vector-effect="non-scaling-stroke"/><path d="M 237.219 149.082 L 238.196 149.103 M 270.976 149.803 L 275.174 149.893 M 311.369 150.667 L 311.561 150.671 M 237.123 150.651 L 238.134 150.731 M 271.391 153.368 L 275.008 153.655 M 311.289 156.532 L 311.326 156.535 M 236.928 153.837 L 237.616 153.973 M 272.261 160.840 L 273.745 161.134 M 309.559 168.233 L 309.940 168.308 M 236.857 154.990 L 237.326 155.104 M 272.585 163.624 L 273.018 163.729 M 308.668 172.344 L 308.845 172.387 M 270.372 171.823 L 270.605 171.913 M 217.499 175.547 L 217.545 175.714 M 213.695 174.557 L 213.951 176.358 M 223.880 246.370 L 224.288 249.245 M 212.738 174.308 L 212.972 176.512 M 220.300 245.569 L 220.747 249.783 M 210.281 173.668 L 210.315 176.710 M 211.062 243.504 L 211.139 250.417 M 207.737 173.006 L 207.404 176.605 M 201.425 241.349 L 200.632 249.937 M 206.418 172.663 L 205.867 176.379 M 196.400 240.226 L 195.077 249.148 M 203.010 171.776 L 201.843 175.662 M 183.332 237.304 L 180.701 246.066 M 202.009 171.515 L 200.678 175.349 M 179.467 236.440 L 176.617 244.649 M 200.160 171.034 L 198.656 174.477 M 172.299 234.838 L 169.310 241.682 M 198.224 170.530 L 196.651 173.474 M 164.752 233.150 L 162.075 238.159 M 195.956 169.940 L 194.472 172.207 M 155.855 231.161 L 154.266 233.588 M 191.792 168.856 L 191.238 169.475 M 143.083 223.310 L 142.181 224.318 M 190.289 168.465 L 190.212 168.544 M 141.067 218.323 L 138.586 220.837 M 136.804 207.780 L 130.877 212.580 M 135.015 203.354 L 127.738 208.678 M 186.387 161.173 L 184.983 161.927 M 130.162 191.351 L 120.189 196.704 M 186.251 160.182 L 184.445 161.070 M 128.955 188.365 L 118.734 193.393 M 185.742 156.464 L 183.169 157.308 M 124.222 176.660 L 113.155 180.293 M 185.598 155.416 L 182.864 156.191 M 147.834 166.119 L 147.679 166.163 M 122.826 173.207 L 112.149 176.233 M 185.325 153.424 L 182.276 154.033 M 147.744 160.924 L 146.451 161.182 M 120.091 166.442 L 110.018 168.453 M 184.934 150.577 L 181.753 150.841 M 147.617 153.669 L 145.133 153.875 M 115.987 156.291 L 108.662 156.898 M 184.539 147.691 L 181.680 147.600 M 147.493 146.513 L 144.886 146.430 M 111.572 145.371 L 108.478 145.273 M 184.336 146.211 L 181.802 145.984 M 147.430 142.918 L 145.111 142.711 M 109.201 139.508 L 108.733 139.466 M 183.980 143.615 L 182.251 143.290 M 147.322 136.733 L 146.133 136.510 M 110.225 129.768 L 109.874 129.703 M 183.641 141.146 L 182.865 140.930 M 112.096 121.186 L 112.072 121.179 M 114.489 113.467 L 114.477 113.463 M 142.725 72.253 L 142.682 72.204 M 204.837 86.045 L 204.654 83.821 M 211.047 88.940 L 211.142 83.549 M 215.113 90.836 L 215.734 83.835 M 221.157 93.653 L 222.934 84.916 M 226.058 95.938 L 229.029 86.213 M 230.402 97.963 L 234.293 88.324 M 234.715 99.974 L 239.445 90.689 M 236.888 100.987 L 241.981 91.988 M 241.654 103.209 L 247.119 95.390 M 247.526 105.947 L 252.980 99.762 M 252.630 108.326 L 257.296 103.929 M 254.486 109.191 L 258.666 105.497 M 259.883 111.708 L 262.136 110.046 M 267.642 121.163 L 268.558 120.729 M 268.149 125.514 L 270.380 124.632 M 268.947 132.370 L 272.467 131.407 M 237.544 143.774 L 237.699 143.747 M 269.633 138.267 L 273.949 137.527 M 310.137 131.317 L 310.544 131.247 M 237.446 145.373 L 237.958 145.315 M 270.028 141.661 L 274.609 141.139 M 311.083 136.983 L 311.178 136.972" fill="none" stroke="#EC008C" stroke-width="1" vector-effect="non-scaling-stroke"/></svg>