<svg xmlns="http://www.w3.org/2000/svg" viewBox="12 12 396 273" width="396" height="273" shape-rendering="geometricPrecision"><rect x="12" y="12" width="396" height="273" fill="#0b0f14"/><path d="M 262.519 20.000 L 265.047 20.795 L 268.598 22.915 L 270.456 23.620 L 272.150 24.257 L 275.701 26.650 L 277.045 27.239 L 279.252 28.260 L 282.804 30.725 L 283.076 30.859 L 286.355 32.809 L 289.187 34.479 L 289.907 34.882 L 293.458 37.852 L 293.828 38.099 L 297.009 40.579 L 298.475 41.718 L 300.561 43.436 L 302.699 45.338 L 304.112 46.614 L 306.538 48.958 L 307.664 50.058 L 310.122 52.577 L 311.215 53.733 L 313.477 56.197 L 314.766 57.684 L 316.567 59.817 L 318.318 62.023 L 319.387 63.437 L 321.869 66.673 L 322.131 67.056 L 325.144 70.676 L 325.421 71.160 L 327.403 74.296 L 328.972 77.149 L 329.348 77.915 L 331.847 81.535 L 332.523 83.229 L 333.280 85.155 L 335.448 88.775 L 336.075 90.761 L 336.572 92.394 L 338.418 96.014 L 339.626 99.611 M 360.679 20.000 L 360.935 20.044 L 364.486 20.561 L 368.037 20.883 L 371.589 20.935 L 375.140 20.753 L 378.692 20.390 L 382.243 20.011 L 382.322 20.000 M 20.000 30.395 L 22.294 30.859 L 23.551 31.112 L 27.103 31.962 L 30.654 32.611 L 34.206 32.939 L 37.757 32.969 L 41.308 32.705 L 44.860 32.129 L 48.411 31.293 L 50.783 30.859 M 66.168 38.619 L 65.289 41.718 L 64.233 45.338 L 63.397 48.958 L 62.744 52.577 M 62.617 53.521 L 62.277 56.197 L 61.024 59.817 L 59.347 63.437 M 59.065 64.234 L 57.965 67.056 L 55.547 70.676 L 52.862 74.296 M 392.897 63.764 L 391.926 67.056 L 390.991 70.676 L 391.395 74.296 L 392.897 76.935 L 393.438 77.915 L 396.449 79.971 L 399.263 81.535 L 400.000 81.752 M 147.850 67.644 L 144.311 70.676 L 140.748 74.031 L 140.451 74.296 M 201.121 84.348 L 204.673 83.821 L 208.224 83.538 L 211.776 83.523 L 215.327 83.765 L 218.879 84.241 L 222.430 84.848 L 224.901 85.155 L 225.981 85.279 L 229.533 86.290 L 233.084 87.944 L 235.704 88.775 L 236.636 89.048 L 240.187 91.152 L 242.829 92.394 L 243.738 92.798 L 247.290 95.562 L 248.022 96.014 L 250.841 98.025 L 252.856 99.634 L 254.393 100.961 L 256.698 103.254 L 257.944 104.638 L 259.799 106.873 L 261.495 109.189 L 262.365 110.493 L 265.034 114.113 M 37.757 92.989 L 37.492 96.014 L 37.657 99.634 L 37.757 101.005 L 37.878 103.254 L 38.367 106.873 L 38.977 110.493 L 39.472 114.113 L 39.696 117.732 L 39.568 121.352 L 39.042 124.972 L 38.210 128.592 M 378.638 92.394 L 378.427 96.014 L 378.217 99.634 L 378.139 103.254 L 378.275 106.873 L 378.595 110.493 L 378.692 111.445 M 340.830 103.254 L 342.419 106.873 L 343.178 110.188 L 343.240 110.493 L 344.237 114.113 L 345.462 117.732 L 346.363 121.352 L 346.729 124.745 L 346.751 124.972 L 347.132 128.592 L 347.572 132.211 L 347.937 135.831 L 348.194 139.451 L 348.354 143.070 L 348.435 146.690 L 348.451 150.310 L 348.402 153.930 L 348.281 157.549 L 348.068 161.169 L 347.735 164.789 L 347.286 168.408 L 346.827 172.028 M 115.888 110.081 L 115.762 110.493 L 114.225 114.113 L 112.742 117.732 M 76.793 110.493 L 75.782 114.113 L 74.465 117.732 L 73.531 121.352 M 267.233 117.732 L 268.598 120.905 L 268.764 121.352 L 270.524 124.972 L 271.936 128.592 L 272.150 129.895 L 272.556 132.211 L 273.518 135.831 L 274.359 139.451 L 274.911 143.070 L 275.191 146.690 L 275.247 150.310 L 275.078 153.930 L 274.610 157.549 L 273.767 161.169 L 272.693 164.789 M 112.336 120.019 L 112.106 121.352 L 111.127 124.972 L 110.109 128.592 L 109.356 132.211 L 108.922 135.831 M 309.114 124.972 L 310.106 128.592 L 310.784 132.211 L 311.142 135.831 L 311.215 137.833 M 73.153 124.972 L 72.625 128.592 L 72.066 132.211 L 71.616 135.831 L 71.318 139.451 L 71.168 143.070 L 71.154 146.690 L 71.259 150.310 L 71.460 153.930 L 71.738 157.549 L 72.072 161.169 L 72.452 164.789 L 72.856 168.408 L 73.214 172.028 L 73.271 172.738 M 37.757 131.189 L 37.590 132.211 L 36.160 135.831 L 34.383 139.451 M 147.251 132.211 L 146.252 135.831 L 145.469 139.451 L 145.013 143.070 L 144.828 146.690 L 144.860 150.310 L 145.120 153.930 L 145.668 157.549 L 146.525 161.169 L 147.492 164.789 L 147.850 166.835 M 108.785 138.877 L 108.759 139.451 L 108.604 143.070 L 108.490 146.690 L 108.471 150.310 L 108.555 153.930 L 108.711 157.549 L 108.785 159.429 L 108.850 161.169 L 109.230 164.789 L 109.962 168.408 L 111.015 172.028 L 112.061 175.648 L 112.336 177.186 L 112.712 179.268 L 114.173 182.887 L 115.707 186.507 L 115.888 187.145 L 116.844 190.127 L 118.950 193.746 L 119.439 195.019 L 120.409 197.366 L 122.854 200.986 L 122.991 201.247 L 125.090 204.606 L 126.542 206.929 L 127.348 208.225 L 130.093 211.695 L 130.202 211.845 L 133.524 215.465 L 133.645 215.608 L 136.888 219.085 L 137.196 219.408 L 140.496 222.704 L 140.748 222.935 L 144.299 226.322 M 183.364 139.134 L 183.272 139.451 L 182.298 143.070 L 181.658 146.690 L 181.632 150.310 L 182.236 153.930 L 183.231 157.549 L 183.364 158.015 L 184.411 161.169 L 186.882 164.789 M 237.508 143.070 L 238.137 146.690 L 238.160 150.310 L 237.569 153.930 L 236.681 157.549 M 311.429 143.070 L 311.523 146.690 L 311.515 150.310 L 311.408 153.930 L 311.251 157.549 M 30.654 147.719 L 29.716 150.310 L 28.703 153.930 L 29.345 157.549 L 30.654 160.824 L 30.734 161.169 L 32.928 164.789 L 34.206 167.212 L 34.680 168.408 L 37.094 172.028 L 37.757 173.847 L 38.363 175.648 L 40.165 179.268 L 41.205 182.887 L 41.308 183.953 L 41.581 186.507 L 41.968 190.127 L 42.096 193.746 L 41.970 197.366 L 41.692 200.986 L 41.414 204.606 M 311.095 161.169 L 310.670 164.789 L 309.922 168.408 L 308.904 172.028 L 307.916 175.648 M 190.104 168.408 L 190.467 168.755 L 194.019 171.963 L 194.142 172.028 L 197.570 174.030 L 201.121 175.572 L 201.619 175.648 L 204.673 176.202 L 208.224 176.742 L 211.776 176.702 L 215.327 176.109 L 217.876 175.648 M 272.150 167.515 L 271.988 168.408 L 270.552 172.028 L 268.771 175.648 M 381.961 168.408 L 381.139 172.028 L 380.533 175.648 L 380.316 179.268 L 380.475 182.887 L 380.948 186.507 L 381.585 190.127 L 382.113 193.746 L 382.243 195.960 M 346.729 173.010 L 346.464 175.648 L 345.552 179.268 L 344.267 182.887 L 343.239 186.507 M 74.287 179.268 L 75.479 182.887 L 76.626 186.507 L 76.822 187.458 M 343.178 186.807 L 342.401 190.127 L 340.817 193.746 L 339.634 197.366 L 338.452 200.986 L 336.625 204.606 M 41.308 207.581 L 41.280 208.225 L 41.216 211.845 L 41.308 213.290 L 41.458 215.465 L 43.616 219.085 L 44.860 220.227 L 47.164 222.704 L 48.411 223.544 L 51.489 226.324 L 51.963 226.653 L 55.420 229.944 L 55.514 230.024 L 58.953 233.563 L 59.065 233.693 L 61.983 237.183 L 62.617 238.264 L 64.065 240.803 L 66.127 244.423 L 66.168 244.554 L 67.507 248.042 L 69.122 251.662 L 69.720 254.737 L 69.828 255.282 L 70.830 258.901 L 72.168 262.521 L 73.271 266.140 M 396.449 209.303 L 396.131 211.845 L 396.449 214.484 L 396.503 215.465 L 397.778 219.085 L 399.910 222.704 L 400.000 222.857 M 147.850 229.433 L 148.631 229.944 L 151.402 231.828 L 154.247 233.563 L 154.953 233.943 L 158.505 236.562 L 159.953 237.183 L 162.056 238.099 L 165.607 240.352 L 166.948 240.803 L 169.159 241.570 L 172.710 243.521 L 175.824 244.423 L 176.262 244.533 L 179.813 245.782 L 183.364 247.141 L 186.916 247.954 L 187.756 248.042 L 190.467 248.353 L 194.019 248.983 L 197.570 249.578 L 201.121 250.026 L 204.673 250.303 L 208.224 250.434 L 211.776 250.445 L 215.327 250.333 L 218.879 250.064 L 222.430 249.596 L 225.981 248.945 L 229.533 248.271 L 231.394 248.042 M 75.720 269.761 L 76.822 270.661 L 80.374 273.158 L 80.974 273.380 L 83.925 274.227 L 87.477 276.046 L 90.340 277.000 M 364.486 269.267 L 364.115 269.761 L 362.604 273.380 L 362.339 277.000" fill="none" stroke="#e5e7eb" stroke-width="1" vector-effect="non-scaling-stroke"/></svg>