<svg xmlns="http://www.w3.org/2000/svg" viewBox="12 12 396 273" width="396" height="273" shape-rendering="geometricPrecision"><rect x="12" y="12" width="396" height="273" fill="#0b0f14"/><path d="M 237.912 20.000 L 236.886 23.725 L 236.168 27.449 L 235.871 31.174 L 235.936 34.899 L 236.323 38.623 L 236.990 42.348 L 237.788 46.072 L 238.218 48.914 M 280.454 20.000 L 283.366 21.520 L 287.070 23.725 L 287.129 23.762 L 290.891 26.517 L 292.676 27.449 L 294.653 29.213 L 297.126 31.174 L 298.416 33.598 L 299.268 34.899 L 300.189 38.623 L 299.329 42.348 M 350.558 20.000 L 351.089 21.273 L 352.470 23.725 L 354.851 26.087 L 357.104 27.449 L 358.614 28.094 L 362.376 29.685 L 366.139 30.424 L 369.901 30.580 L 373.663 30.359 L 377.426 29.775 L 381.188 28.850 L 384.950 27.834 L 387.084 27.449 M 200.594 27.535 L 200.322 31.174 L 199.543 34.899 L 198.259 38.623 L 196.974 42.348 M 83.960 42.204 L 80.229 42.348 L 76.436 42.477 L 72.673 42.719 L 68.911 43.122 L 65.149 43.730 L 61.386 44.544 L 57.624 45.451 L 53.990 46.072 M 27.525 55.730 L 25.767 57.246 L 25.853 60.971 L 27.015 64.696 L 27.525 66.606 L 27.800 68.420 L 29.209 72.145 L 30.869 75.870 L 31.287 77.284 L 31.896 79.594 L 33.772 83.319 L 35.050 86.758 L 35.144 87.043 L 36.979 90.768 L 38.796 94.493 M 99.010 57.989 L 102.772 58.367 L 106.535 60.173 L 107.888 60.971 L 110.297 62.095 L 113.363 64.696 L 114.059 65.201 L 117.046 68.420 L 117.822 69.296 L 119.827 72.145 L 121.584 74.887 L 122.080 75.870 L 124.649 79.594 L 125.347 81.343 L 126.110 83.319 L 128.154 87.043 L 129.109 90.298 L 129.248 90.768 L 130.557 94.493 L 131.809 98.217 L 132.477 101.942 L 132.548 105.667 L 131.513 109.391 M 328.515 74.392 L 332.277 74.621 L 335.208 75.870 L 336.040 76.167 L 339.230 79.594 L 339.802 80.268 L 341.344 83.319 L 343.481 87.043 L 343.564 87.243 L 344.836 90.768 L 346.627 94.493 L 347.327 97.169 L 347.558 98.217 L 348.896 101.942 L 350.335 105.667 L 351.089 109.178 L 351.134 109.391 L 352.072 113.116 L 353.242 116.841 L 354.154 120.565 L 354.614 124.290 L 354.629 128.014 L 353.657 131.739 M 189.307 80.688 L 193.069 80.475 L 196.832 80.904 L 200.594 81.618 L 204.356 82.339 L 208.119 82.886 L 211.881 83.207 L 215.400 83.319 L 215.644 83.327 L 219.406 83.391 L 223.168 83.403 L 226.931 83.377 L 230.693 83.361 L 234.455 83.420 L 238.218 83.788 L 241.980 85.332 L 244.348 87.043 L 245.743 88.066 L 247.835 90.768 L 249.505 92.840 L 250.451 94.493 L 253.267 98.136 L 253.314 98.217 L 256.396 101.942 L 257.030 102.787 L 259.307 105.667 L 260.792 107.450 L 262.560 109.391 L 264.554 111.540 L 266.250 113.116 L 268.317 115.243 L 270.183 116.841 L 272.079 118.984 L 273.771 120.565 L 275.842 123.825 L 276.160 124.290 L 277.588 128.014 L 277.768 131.739 L 277.291 135.464 L 276.636 139.188 L 276.104 142.913 M 40.723 98.217 L 42.574 101.797 L 42.660 101.942 L 45.248 105.667 L 46.337 107.939 L 47.339 109.391 L 49.969 113.116 L 50.099 113.505 L 51.842 116.841 L 53.193 120.565 L 53.537 124.290 L 53.458 128.014 L 53.167 131.739 L 52.798 135.464 L 52.470 139.188 L 52.218 142.913 L 51.961 146.638 L 51.492 150.362 L 50.535 154.087 M 72.406 98.217 L 70.985 101.942 L 69.888 105.667 L 69.610 109.391 L 70.635 113.116 L 72.673 115.898 M 293.796 113.116 L 292.992 116.841 L 293.555 120.565 L 294.653 122.626 M 146.616 116.841 L 145.167 120.565 L 144.775 124.290 L 144.743 128.014 L 144.816 131.739 L 144.877 135.464 L 144.849 139.188 L 144.699 142.913 L 144.443 146.638 L 144.177 150.362 M 181.782 140.386 L 181.337 142.913 L 180.794 146.638 L 180.776 150.362 L 181.296 154.087 L 181.782 156.852 L 181.933 157.812 L 183.591 161.536 L 185.545 164.963 L 185.709 165.261 L 189.136 168.986 L 189.307 169.156 L 193.069 172.585 L 193.289 172.710 L 196.832 174.809 L 200.594 176.404 L 200.761 176.435 L 204.356 177.229 L 208.119 177.846 L 211.881 177.808 L 215.644 177.137 L 218.899 176.435 M 369.663 142.913 L 368.715 146.638 L 368.164 150.362 L 367.830 154.087 L 367.536 157.812 L 367.207 161.536 L 366.857 165.261 L 366.577 168.986 L 366.491 172.710 L 366.810 176.435 L 368.112 180.159 L 369.901 183.581 M 275.613 150.362 L 275.376 154.087 L 275.214 157.812 L 275.150 161.536 L 275.160 165.261 L 275.185 168.986 L 275.109 172.710 L 274.664 176.435 L 273.155 180.159 M 86.936 157.812 L 87.723 157.818 L 91.485 158.071 L 95.248 158.754 L 99.010 159.914 L 102.772 161.216 L 104.071 161.536 L 106.535 162.171 L 110.297 164.125 L 113.289 165.261 L 114.059 165.582 L 117.822 168.040 L 119.886 168.986 L 121.584 170.242 L 124.654 172.710 L 125.347 174.125 L 126.589 176.435 L 127.126 180.159 L 126.292 183.884 M 143.895 154.087 L 143.327 157.812 L 142.653 161.536 L 142.196 165.261 L 142.422 168.986 L 143.867 172.710 L 144.158 173.141 M 400.000 157.612 L 399.922 157.812 L 399.205 161.536 L 399.378 165.261 L 400.000 168.220 M 66.447 165.261 L 65.438 168.986 L 65.393 172.710 L 65.754 176.435 L 66.535 180.159 L 67.648 183.884 L 68.703 187.609 L 68.911 188.652 M 35.050 174.956 L 34.200 176.435 L 31.325 180.159 L 28.861 183.884 M 317.228 175.329 L 320.990 174.754 L 324.752 174.505 L 328.515 174.616 L 332.277 175.094 L 336.040 175.884 L 339.060 176.435 L 339.802 176.594 L 343.564 178.435 L 346.537 180.159 L 347.327 181.061 L 349.360 183.884 L 350.347 187.609 L 350.054 191.333 L 348.966 195.058 L 347.577 198.783 M 125.347 187.188 L 125.275 187.609 L 123.669 191.333 L 121.616 195.058 L 119.525 198.783 M 288.441 187.609 L 287.421 191.333 L 287.500 195.058 L 288.175 198.783 L 289.449 202.507 L 290.769 206.232 L 290.891 206.636 M 20.000 217.691 L 23.762 220.086 L 25.932 221.130 L 27.525 221.615 L 31.287 223.742 L 34.216 224.855 L 35.050 225.106 L 38.812 226.968 L 42.574 228.538 L 42.724 228.580 L 46.337 229.853 L 50.099 231.581 L 53.237 232.304 L 53.861 232.465 L 57.624 233.609 L 61.386 234.767 L 65.149 235.596 L 68.798 236.029 L 68.911 236.046 L 72.673 236.737 L 76.436 238.335 L 79.249 239.754 L 80.198 240.319 L 83.517 243.478 L 83.960 243.935 L 86.735 247.203 L 87.723 248.419 L 89.719 250.928 L 91.485 253.064 L 92.846 254.652 L 95.248 257.443 L 96.099 258.377 L 99.010 261.921 L 99.154 262.101 L 101.698 265.826 L 102.752 269.551 L 102.772 269.761 L 103.071 273.275 L 103.303 277.000 M 159.208 226.899 L 162.970 225.970 L 166.733 225.785 L 170.495 226.916 L 172.785 228.580 L 174.257 229.847 L 175.616 232.304 L 177.864 236.029 L 178.020 236.452 L 179.045 239.754 L 180.626 243.478 L 181.648 247.203 L 181.782 248.207 L 182.157 250.928 L 182.888 254.652 L 183.515 258.377 L 183.890 262.101 L 183.960 265.826 L 183.682 269.551 L 183.003 273.275 L 182.040 277.000 M 241.980 231.628 L 245.743 232.264 L 245.868 232.304 L 249.505 233.194 L 253.267 235.196 L 255.216 236.029 L 257.030 236.679 L 260.792 239.260 L 261.692 239.754 L 264.554 241.447 L 267.521 243.478 L 268.317 244.050 L 271.950 247.203 L 272.079 247.331 L 275.694 250.928 L 275.842 251.133 L 278.865 254.652 L 279.604 256.130 L 281.020 258.377 L 283.067 262.101 L 283.366 264.148 L 283.749 265.826 L 283.909 269.551 M 400.000 243.411 L 399.923 243.478 L 399.808 247.203 L 400.000 248.213 M 347.327 254.313 L 351.089 253.863 L 354.851 253.195 L 358.614 252.354 L 362.376 251.482 L 365.914 250.928 M 120.736 254.652 L 119.913 258.377 L 120.826 262.101 L 121.584 263.281 M 222.941 254.652 L 221.567 258.377 L 220.287 262.101 L 219.572 265.826" fill="none" stroke="#2dd4bf" stroke-width="1" vector-effect="non-scaling-stroke"/><path d="M 247.955 90.917 L 247.654 92.394 M 247.654 92.394 L 248.273 96.014 M 248.273 96.014 L 250.143 99.634 M 250.143 99.634 L 250.841 100.468 M 245.503 87.891 L 245.153 88.775 M 245.153 88.775 L 244.684 92.394 M 244.684 92.394 L 245.184 96.014 M 245.184 96.014 L 246.602 99.634 M 246.602 99.634 L 247.290 100.727 M 243.284 86.275 L 242.511 88.775 M 242.511 88.775 L 242.169 92.394 M 242.169 92.394 L 242.612 96.014 M 242.612 96.014 L 243.738 99.418 M 343.178 91.477 L 344.484 92.394 M 344.484 92.394 L 346.729 95.624 M 346.729 95.624 L 346.870 96.014 M 346.870 96.014 L 346.835 99.634 M 343.178 192.333 L 344.769 193.746 M 344.769 193.746 L 346.729 197.244 M 346.729 197.244 L 346.767 197.366 M 339.626 86.780 L 343.178 86.935 M 343.178 86.935 L 343.499 87.087 M 339.626 187.127 L 343.178 187.406 M 343.178 187.406 L 346.729 189.551 M 346.729 189.551 L 347.245 190.127 M 347.245 190.127 L 349.391 193.605 M 339.626 83.520 L 341.496 83.584 M 238.960 85.155 L 238.039 88.775 M 238.039 88.775 L 237.799 92.394 M 237.799 92.394 L 238.244 96.014 M 238.244 96.014 L 239.346 99.634 M 239.346 99.634 L 240.187 101.400 M 339.626 183.702 L 343.178 183.898 M 343.178 183.898 L 346.729 185.565 M 346.729 185.565 L 347.801 186.507 M 347.801 186.507 L 350.221 189.209 M 235.981 88.775 L 235.784 92.394 M 235.784 92.394 L 236.226 96.014 M 236.226 96.014 L 236.636 97.413 M 339.626 180.752 L 343.178 180.903 M 343.178 180.903 L 346.729 182.319 M 346.729 182.319 L 347.484 182.887 M 347.484 182.887 L 349.585 184.732 M 336.075 79.069 L 338.259 78.551 M 235.443 83.516 L 234.811 85.155 M 234.811 85.155 L 234.007 88.775 M 234.007 88.775 L 233.840 92.394 M 233.840 92.394 L 234.307 96.014 M 234.307 96.014 L 235.377 99.634 M 235.377 99.634 L 236.636 102.411 M 339.626 178.013 L 342.946 178.132 M 232.808 85.155 L 232.039 88.775 M 232.039 88.775 L 231.903 92.394 M 231.903 92.394 L 232.392 96.014 M 232.392 96.014 L 233.084 98.325 M 269.986 116.672 L 268.603 117.732 M 268.603 117.732 L 265.047 119.712 M 265.047 119.712 L 261.495 120.906 M 261.495 120.906 L 257.944 121.241 M 257.944 121.241 L 254.393 120.705 M 254.393 120.705 L 250.841 119.325 M 172.710 231.840 L 169.222 233.563 M 169.222 233.563 L 165.607 234.282 M 165.607 234.282 L 162.378 233.856 M 231.470 83.373 L 230.813 85.155 M 230.813 85.155 L 230.076 88.775 M 230.076 88.775 L 229.971 92.394 M 229.971 92.394 L 230.484 96.014 M 230.484 96.014 L 231.583 99.634 M 231.583 99.634 L 233.084 102.928 M 189.459 80.680 L 189.544 80.858 M 228.779 85.155 L 228.034 88.775 M 228.034 88.775 L 227.953 92.394 M 227.953 92.394 L 228.521 96.014 M 228.521 96.014 L 229.533 99.111 M 131.293 96.682 L 131.696 99.634 M 131.696 99.634 L 132.327 101.105 M 273.299 178.408 L 273.720 178.764 M 287.636 195.804 L 288.290 197.366 M 288.290 197.366 L 288.669 200.226 M 191.414 80.569 L 191.899 81.535 M 191.899 81.535 L 192.386 82.895 M 128.519 92.394 L 127.765 96.014 M 127.765 96.014 L 128.318 99.634 M 128.318 99.634 L 130.093 102.914 M 273.473 176.302 L 274.401 177.084 M 287.636 190.548 L 289.092 192.664 M 327.345 174.582 L 325.421 176.294 M 325.421 176.294 L 322.408 179.332 M 177.738 235.821 L 176.471 237.183 M 193.458 80.519 L 193.966 81.535 M 193.966 81.535 L 194.019 81.684 M 194.019 81.684 L 195.386 85.046 M 225.120 83.390 L 224.389 85.155 M 224.389 85.155 L 223.609 88.775 M 223.609 88.775 L 223.578 92.394 M 223.578 92.394 L 224.276 96.014 M 224.276 96.014 L 225.664 99.634 M 225.664 99.634 L 225.981 100.197 M 273.649 174.174 L 274.817 175.156 M 288.372 187.862 L 288.490 187.986 M 67.084 171.306 L 66.168 172.230 M 66.168 172.230 L 65.433 173.120 M 195.902 80.798 L 196.320 81.535 M 196.320 81.535 L 197.570 84.621 M 197.570 84.621 L 197.842 85.155 M 197.842 85.155 L 198.424 87.224 M 118.304 88.502 L 119.439 88.649 M 119.439 88.649 L 122.991 87.564 M 122.991 87.564 L 126.086 85.155 M 221.916 85.155 L 220.976 88.775 M 220.976 88.775 L 220.964 92.394 M 220.964 92.394 L 221.863 96.014 M 221.863 96.014 L 222.430 97.172 M 123.828 190.213 L 123.946 190.127 M 273.826 172.021 L 273.835 172.028 M 273.835 172.028 L 275.067 173.061 M 172.710 249.558 L 170.993 251.662 M 170.993 251.662 L 170.769 252.267 M 198.782 81.274 L 198.967 81.535 M 198.967 81.535 L 200.807 85.155 M 200.807 85.155 L 201.121 86.276 M 201.121 86.276 L 202.135 88.775 M 202.135 88.775 L 202.190 89.924 M 115.675 84.344 L 115.888 84.427 M 115.888 84.427 L 119.439 84.715 M 119.439 84.715 L 122.991 83.799 M 122.991 83.799 L 125.655 82.141 M 274.013 169.762 L 275.149 170.754 M 176.262 249.846 L 175.376 251.662 M 175.376 251.662 L 174.621 255.282 M 174.621 255.282 L 174.876 258.901 M 174.876 258.901 L 176.107 262.521 M 176.107 262.521 L 176.262 262.785 M 176.262 262.785 L 177.727 266.141 M 177.727 266.141 L 179.813 269.648 M 179.813 269.648 L 179.870 269.761 M 179.870 269.761 L 182.050 273.380 M 182.050 273.380 L 182.717 274.382 M 265.047 248.415 L 263.595 251.178 M 202.655 82.013 L 204.673 84.744 M 204.673 84.744 L 205.279 85.155 M 205.279 85.155 L 208.135 88.775 M 208.135 88.775 L 208.224 90.473 M 208.224 90.473 L 211.776 90.026 M 211.776 90.026 L 211.803 88.775 M 113.289 80.571 L 115.888 81.385 M 115.888 81.385 L 118.642 81.535 M 118.642 81.535 L 119.439 81.579 M 119.439 81.579 L 119.634 81.535 M 88.370 157.862 L 90.042 159.870 M 125.139 183.121 L 125.743 182.887 M 274.207 167.402 L 275.181 168.325 M 179.813 247.846 L 179.703 248.042 M 179.703 248.042 L 178.387 251.662 M 178.387 251.662 L 177.838 255.282 M 177.838 255.282 L 178.051 258.901 M 178.051 258.901 L 178.986 262.521 M 178.986 262.521 L 179.813 264.403 M 179.813 264.403 L 180.460 266.141 M 180.460 266.141 L 182.281 269.761 M 182.281 269.761 L 183.327 271.493 M 268.598 246.644 L 267.761 248.042 M 267.761 248.042 L 266.299 251.662 M 266.299 251.662 L 265.965 253.321 M 238.210 48.139 L 238.138 48.385 M 111.162 77.207 L 112.336 77.759 M 112.336 77.759 L 112.919 77.915 M 112.919 77.915 L 115.888 78.823 M 115.888 78.823 L 119.439 78.976 M 119.439 78.976 L 122.991 78.080 M 122.991 78.080 L 123.339 77.915 M 91.867 158.140 L 93.947 161.169 M 93.947 161.169 L 94.579 161.907 M 94.579 161.907 L 96.139 163.909 M 122.323 181.255 L 122.991 181.209 M 122.991 181.209 L 126.542 180.056 M 126.542 180.056 L 127.070 179.766 M 274.413 164.908 L 275.163 165.618 M 270.922 246.310 L 270.043 248.042 M 270.043 248.042 L 268.805 251.662 M 181.858 248.761 L 180.972 251.662 M 180.972 251.662 L 180.517 255.282 M 180.517 255.282 L 180.709 258.901 M 180.709 258.901 L 181.510 262.521 M 181.510 262.521 L 182.863 266.141 M 182.863 266.141 L 183.364 267.136 M 183.364 267.136 L 183.793 268.057 M 268.598 252.859 L 268.106 255.258 M 109.165 74.049 L 109.730 74.296 M 109.730 74.296 L 112.336 75.514 M 112.336 75.514 L 115.888 76.452 M 115.888 76.452 L 119.439 76.555 M 119.439 76.555 L 122.128 75.940 M 293.458 119.550 L 293.406 119.577 M 95.043 158.717 L 96.574 161.169 M 96.574 161.169 L 98.131 163.164 M 98.131 163.164 L 99.370 164.789 M 99.370 164.789 L 101.682 167.404 M 101.682 167.404 L 102.101 167.859 M 118.311 178.597 L 119.439 178.827 M 119.439 178.827 L 122.991 178.638 M 122.991 178.638 L 126.542 177.600 M 126.542 177.600 L 126.743 177.499 M 274.645 162.094 L 275.153 162.640 M 367.408 178.144 L 368.037 179.146 M 368.037 179.146 L 368.116 179.268 M 368.116 179.268 L 369.893 182.178 M 182.936 254.940 L 182.894 255.282 M 182.894 255.282 L 183.095 258.901 M 183.095 258.901 L 183.364 260.110 M 183.364 260.110 L 183.862 262.521 M 183.862 262.521 L 183.900 262.631 M 272.150 248.152 L 270.941 251.662 M 270.941 251.662 L 270.312 255.282 M 270.312 255.282 L 270.295 257.238 M 107.105 70.790 L 108.785 71.784 M 108.785 71.784 L 112.336 73.333 M 112.336 73.333 L 115.888 74.193 M 115.888 74.193 L 119.439 74.261 M 119.439 74.261 L 120.965 73.921 M 366.621 174.220 L 367.539 175.648 M 367.539 175.648 L 368.037 176.441 M 368.037 176.441 L 369.869 179.268 M 369.869 179.268 L 369.876 179.279 M 274.913 158.855 L 275.190 159.220 M 98.192 159.662 L 99.113 161.169 M 99.113 161.169 L 101.682 164.533 M 101.682 164.533 L 101.886 164.789 M 101.886 164.789 L 105.227 168.408 M 108.785 171.544 L 109.472 172.028 M 109.472 172.028 L 112.336 173.973 M 112.336 173.973 L 115.888 175.595 M 115.888 175.595 L 116.138 175.648 M 116.138 175.648 L 119.439 176.349 M 119.439 176.349 L 122.991 176.188 M 122.991 176.188 L 124.913 175.648 M 273.803 249.046 L 272.988 251.662 M 272.988 251.662 L 272.416 255.282 M 272.416 255.282 L 272.385 258.901 M 272.385 258.901 L 272.418 259.158 M 104.985 67.439 L 105.234 67.612 M 105.234 67.612 L 108.785 69.696 M 108.785 69.696 L 111.066 70.676 M 111.066 70.676 L 112.336 71.229 M 112.336 71.229 L 115.888 72.078 M 115.888 72.078 L 119.439 72.126 M 119.439 72.126 L 119.760 72.051 M 38.394 93.109 L 38.316 93.509 M 101.334 160.719 L 101.610 161.169 M 101.610 161.169 L 101.682 161.264 M 101.682 161.264 L 104.490 164.789 M 104.490 164.789 L 105.234 165.595 M 105.234 165.595 L 108.154 168.408 M 108.154 168.408 L 108.785 168.965 M 108.785 168.965 L 112.336 171.472 M 112.336 171.472 L 113.494 172.028 M 113.494 172.028 L 115.888 173.133 M 115.888 173.133 L 119.439 173.898 M 119.439 173.898 L 122.991 173.772 M 122.991 173.772 L 124.925 173.264 M 275.701 141.133 L 275.140 142.222 M 275.257 154.673 L 275.344 154.832 M 366.521 171.414 L 366.910 172.028 M 366.910 172.028 L 368.037 173.780 M 368.037 173.780 L 369.272 175.648 M 369.272 175.648 L 369.860 176.554 M 275.276 250.512 L 274.917 251.662 M 274.917 251.662 L 274.346 255.282 M 274.346 255.282 L 274.316 258.901 M 274.316 258.901 L 274.610 261.141 M 102.480 63.477 L 105.234 65.478 M 105.234 65.478 L 107.826 67.056 M 107.826 67.056 L 108.785 67.620 M 108.785 67.620 L 112.336 69.146 M 112.336 69.146 L 115.888 69.976 M 115.888 69.976 L 118.315 69.997 M 104.604 161.673 L 105.234 162.464 M 105.234 162.464 L 107.313 164.789 M 107.313 164.789 L 108.785 166.208 M 108.785 166.208 L 111.628 168.408 M 111.628 168.408 L 112.336 168.910 M 112.336 168.910 L 115.888 170.625 M 115.888 170.625 L 119.439 171.437 M 119.439 171.437 L 122.938 171.331 M 366.589 168.832 L 368.037 171.121 M 368.037 171.121 L 368.625 172.028 M 368.625 172.028 L 369.844 173.872 M 276.727 252.164 L 276.255 255.282 M 276.255 255.282 L 276.228 258.901 M 276.228 258.901 L 276.687 262.521 M 276.687 262.521 L 276.849 263.165 M 87.477 248.338 L 85.255 251.662 M 85.255 251.662 L 84.310 255.282 M 84.310 255.282 L 84.731 258.901 M 84.731 258.901 L 86.385 262.521 M 86.385 262.521 L 87.477 263.952 M 87.477 263.952 L 88.757 266.141 M 88.757 266.141 L 89.635 267.268 M 349.962 253.833 L 349.928 254.002 M 99.163 58.231 L 100.836 59.817 M 100.836 59.817 L 101.682 60.537 M 101.682 60.537 L 105.234 63.315 M 105.234 63.315 L 105.419 63.437 M 105.419 63.437 L 108.785 65.491 M 108.785 65.491 L 112.302 67.056 M 34.714 85.855 L 35.490 85.155 M 109.189 163.549 L 110.563 164.789 M 110.563 164.789 L 112.336 166.164 M 112.336 166.164 L 115.888 168.049 M 115.888 168.049 L 117.299 168.408 M 117.299 168.408 L 119.439 168.907 M 119.439 168.907 L 119.699 168.900 M 366.779 166.303 L 368.024 168.408 M 89.079 251.662 L 88.276 255.282 M 88.276 255.282 L 88.525 258.901 M 88.525 258.901 L 89.745 262.521 M 89.745 262.521 L 91.028 264.746 M 91.028 264.746 L 91.717 266.141 M 91.717 266.141 L 94.114 269.761 M 94.114 269.761 L 94.579 270.354 M 94.579 270.354 L 95.230 271.252 M 278.307 254.003 L 278.114 255.282 M 278.114 255.282 L 278.091 258.901 M 278.091 258.901 L 278.552 262.521 M 278.552 262.521 L 279.252 265.315 M 279.252 265.315 L 279.260 265.346 M 353.681 253.156 L 353.653 253.408 M 101.967 58.286 L 103.721 59.817 M 103.721 59.817 L 105.234 61.000 M 105.234 61.000 L 108.785 63.335 M 108.785 63.335 L 108.996 63.437 M 108.996 63.437 L 112.336 64.928 M 112.336 64.928 L 114.228 65.382 M 33.433 82.644 L 34.206 82.469 M 34.206 82.469 L 35.119 81.846 M 182.221 140.812 L 181.409 143.070 M 181.409 143.070 L 180.964 145.472 M 180.869 151.029 L 181.407 153.930 M 181.407 153.930 L 182.731 157.549 M 182.731 157.549 L 183.364 158.748 M 183.364 158.748 L 184.610 161.169 M 184.610 161.169 L 186.916 164.719 M 186.916 164.719 L 186.962 164.789 M 186.962 164.789 L 189.751 168.408 M 189.751 168.408 L 190.467 169.248 M 190.467 169.248 L 193.009 172.028 M 193.009 172.028 L 194.019 173.066 M 194.019 173.066 L 194.266 173.289 M 367.007 163.663 L 367.589 164.789 M 367.589 164.789 L 368.037 165.546 M 368.037 165.546 L 369.770 168.408 M 369.770 168.408 L 369.813 168.474 M 91.821 253.456 L 91.449 255.282 M 91.449 255.282 L 91.618 258.901 M 91.618 258.901 L 92.634 262.521 M 92.634 262.521 L 94.393 266.141 M 94.393 266.141 L 94.579 266.423 M 94.579 266.423 L 96.618 269.761 M 96.618 269.761 L 98.131 271.867 M 98.131 271.867 L 99.212 273.380 M 99.212 273.380 L 100.446 274.966 M 279.979 256.726 L 279.967 258.901 M 279.967 258.901 L 280.441 262.521 M 280.441 262.521 L 281.370 266.141 M 281.370 266.141 L 281.984 267.810 M 356.464 252.649 L 356.450 252.838 M 364.486 28.891 L 363.702 29.945 M 31.967 79.735 L 34.206 79.327 M 34.206 79.327 L 34.361 79.239 M 183.364 142.765 L 183.255 143.070 M 183.255 143.070 L 182.582 146.690 M 182.582 146.690 L 182.578 150.310 M 182.578 150.310 L 183.253 153.930 M 183.253 153.930 L 183.364 154.233 M 183.364 154.233 L 184.545 157.549 M 184.545 157.549 L 186.412 161.169 M 186.412 161.169 L 186.916 161.944 M 186.916 161.944 L 188.801 164.789 M 188.801 164.789 L 190.467 166.950 M 190.467 166.950 L 191.674 168.408 M 191.674 168.408 L 194.019 170.973 M 194.019 170.973 L 195.122 172.028 M 195.122 172.028 L 197.570 174.230 M 197.570 174.230 L 199.533 175.648 M 199.533 175.648 L 200.603 176.406 M 367.272 160.799 L 367.424 161.169 M 367.424 161.169 L 368.037 162.354 M 368.037 162.354 L 369.327 164.789 M 369.327 164.789 L 369.795 165.564 M 358.929 252.200 L 358.925 252.282 M 282.043 260.238 L 282.344 262.521 M 282.344 262.521 L 282.804 264.309 M 282.804 264.309 L 283.313 266.141 M 283.313 266.141 L 283.816 267.400 M 94.289 256.329 L 94.384 258.901 M 94.384 258.901 L 94.579 259.619 M 94.579 259.619 L 95.317 262.521 M 95.317 262.521 L 96.937 266.141 M 96.937 266.141 L 98.131 268.121 M 98.131 268.121 L 99.116 269.761 M 99.116 269.761 L 101.679 273.380 M 58.901 45.143 L 58.901 45.338 M 58.901 45.338 L 58.881 45.441 M 31.198 76.982 L 33.595 76.605 M 184.962 143.474 L 184.386 146.690 M 184.386 146.690 L 184.384 150.310 M 184.384 150.310 L 185.041 153.930 M 185.041 153.930 L 186.339 157.549 M 186.339 157.549 L 186.916 158.666 M 186.916 158.666 L 188.238 161.169 M 188.238 161.169 L 190.467 164.528 M 190.467 164.528 L 190.653 164.789 M 190.653 164.789 L 193.648 168.408 M 193.648 168.408 L 194.019 168.814 M 194.019 168.814 L 197.381 172.028 M 197.381 172.028 L 197.570 172.198 M 197.570 172.198 L 201.121 174.764 M 201.121 174.764 L 202.872 175.648 M 202.872 175.648 L 204.673 176.543 M 204.673 176.543 L 208.224 177.457 M 208.224 177.457 L 211.776 177.461 M 211.776 177.461 L 215.327 176.546 M 215.327 176.546 L 217.107 175.648 M 367.575 157.322 L 367.639 157.549 M 367.639 157.549 L 368.037 158.515 M 368.037 158.515 L 369.158 161.169 M 369.158 161.169 L 369.777 162.337 M 30.431 181.512 L 30.502 181.518 M 361.224 251.749 L 361.223 251.782 M 97.206 259.725 L 97.893 262.521 M 97.893 262.521 L 98.131 263.059 M 98.131 263.059 L 99.493 266.141 M 99.493 266.141 L 101.642 269.761 M 101.642 269.761 L 101.682 269.818 M 101.682 269.818 L 102.915 271.437 M 30.164 74.288 L 30.204 74.296 M 30.204 74.296 L 30.654 74.379 M 30.654 74.379 L 31.234 74.296 M 186.475 144.944 L 186.162 146.690 M 186.162 146.690 L 186.162 150.310 M 186.162 150.310 L 186.826 153.930 M 186.826 153.930 L 186.916 154.181 M 186.916 154.181 L 188.154 157.549 M 188.154 157.549 L 190.073 161.169 M 190.073 161.169 L 190.467 161.763 M 190.467 161.763 L 192.624 164.789 M 192.624 164.789 L 194.019 166.474 M 194.019 166.474 L 195.848 168.408 M 195.848 168.408 L 197.570 170.055 M 197.570 170.055 L 200.146 172.028 M 200.146 172.028 L 201.121 172.733 M 201.121 172.733 L 204.673 174.529 M 204.673 174.529 L 208.224 175.457 M 208.224 175.457 L 211.776 175.467 M 211.776 175.467 L 215.327 174.554 M 215.327 174.554 L 216.410 174.018 M 368.032 151.837 L 368.037 151.877 M 368.037 151.877 L 368.326 153.930 M 368.326 153.930 L 369.375 157.549 M 369.375 157.549 L 369.754 158.445 M 32.696 178.351 L 32.727 178.344 M 363.409 251.320 L 363.394 251.387 M 289.907 30.736 L 289.847 30.859 M 289.847 30.859 L 289.784 31.046 M 54.527 45.981 L 54.523 46.004 M 28.974 71.524 L 30.654 71.850 M 30.654 71.850 L 32.151 71.642 M 188.000 146.425 L 187.952 146.690 M 187.952 146.690 L 187.955 150.310 M 187.955 150.310 L 188.638 153.930 M 188.638 153.930 L 189.980 157.549 M 189.980 157.549 L 190.467 158.467 M 190.467 158.467 L 192.009 161.169 M 192.009 161.169 L 194.019 163.984 M 194.019 163.984 L 194.675 164.789 M 194.675 164.789 L 197.570 167.850 M 197.570 167.850 L 198.227 168.408 M 198.227 168.408 L 201.121 170.629 M 201.121 170.629 L 203.735 172.028 M 203.735 172.028 L 204.673 172.503 M 204.673 172.503 L 208.224 173.439 M 208.224 173.439 L 211.776 173.458 M 211.776 173.458 L 215.011 172.658 M 369.682 146.156 L 369.596 146.690 M 369.596 146.690 L 369.550 150.310 M 369.550 150.310 L 369.713 151.454 M 50.052 143.070 L 50.602 146.690 M 50.602 146.690 L 50.638 150.310 M 50.638 150.310 L 50.305 152.777 M 365.558 250.983 L 365.556 250.993 M 293.458 29.929 L 292.874 30.859 M 292.874 30.859 L 291.770 33.398 M 27.940 68.791 L 30.654 69.333 M 30.654 69.333 L 31.451 69.232 M 189.755 148.129 L 189.760 150.310 M 189.760 150.310 L 190.453 153.930 M 190.453 153.930 L 190.467 153.969 M 190.467 153.969 L 191.900 157.549 M 191.900 157.549 L 193.974 161.169 M 196.917 164.789 L 197.570 165.479 M 197.570 165.479 L 201.020 168.408 M 201.020 168.408 L 201.121 168.487 M 201.121 168.487 L 204.673 170.398 M 204.673 170.398 L 208.224 171.391 M 208.224 171.391 L 211.776 171.423 M 211.776 171.423 L 213.320 171.016 M 296.964 31.045 L 294.732 34.479 M 294.732 34.479 L 294.172 36.242 M 27.392 66.110 L 30.654 66.818 M 30.654 66.818 L 30.746 66.807 M 191.640 149.960 L 191.641 150.310 M 191.641 150.310 L 192.393 153.930 M 192.393 153.930 L 193.854 157.549 M 193.854 157.549 L 194.019 157.837 M 194.019 157.837 L 196.198 161.169 M 196.198 161.169 L 197.570 162.851 M 197.570 162.851 L 199.530 164.789 M 199.530 164.789 L 201.121 166.142 M 201.121 166.142 L 204.673 168.257 M 204.673 168.257 L 205.158 168.408 M 205.158 168.408 L 208.224 169.277 M 208.224 169.277 L 211.573 169.319 M 299.767 36.916 L 298.990 38.099 M 298.990 38.099 L 299.211 41.718 M 299.211 41.718 L 299.416 41.973 M 26.487 63.003 L 27.103 63.398 M 27.103 63.398 L 27.253 63.437 M 27.253 63.437 L 29.944 64.049 M 193.975 152.228 L 194.019 152.436 M 194.019 152.436 L 194.377 153.930 M 194.377 153.930 L 196.049 157.549 M 196.049 157.549 L 197.570 159.869 M 197.570 159.869 L 198.625 161.169 M 198.625 161.169 L 201.121 163.636 M 201.121 163.636 L 202.775 164.789 M 202.775 164.789 L 204.673 165.926 M 204.673 165.926 L 208.224 167.046 M 208.224 167.046 L 209.251 167.064 M 120.344 260.137 L 121.154 258.907 M 25.821 59.594 L 26.102 59.817 M 26.102 59.817 L 27.103 60.465 M 27.103 60.465 L 29.052 60.984 M 197.285 155.442 L 197.570 156.057 M 197.570 156.057 L 198.427 157.549 M 198.427 157.549 L 201.121 160.865 M 201.121 160.865 L 201.470 161.169 M 201.470 161.169 L 204.673 163.409 M 204.673 163.409 L 205.990 163.897 M 26.512 56.604 L 27.103 57.076 M 27.103 57.076 L 28.004 57.380" fill="none" stroke="#e5e7eb" stroke-width="1" vector-effect="non-scaling-stroke"/></svg>