<svg xmlns="http://www.w3.org/2000/svg" viewBox="168.38665869795463 106.73568444182054 85.2163312306754 83.42123957410165" width="85.2163312306754" height="83.42123957410165" shape-rendering="geometricPrecision"><rect x="168.38665869795463" y="106.73568444182054" width="85.2163312306754" height="83.42123957410165" fill="#0b0f14"/><path d="M 243.713 141.318 L 243.511 140.237 L 243.383 139.144 L 243.238 138.054 L 242.976 136.985 L 242.562 135.966 L 242.003 135.019 L 241.408 134.094 L 240.882 133.128 L 240.397 132.140 L 239.878 131.171 L 239.202 130.303 L 238.407 129.542 L 237.524 128.886 L 236.609 128.276 L 235.730 127.614 L 234.900 126.892 L 234.117 126.120 L 233.386 125.298 L 232.707 124.432 L 232.054 123.547 L 231.334 122.715 L 230.510 121.987 L 229.575 121.407 L 228.568 120.964 L 227.541 120.572 L 226.533 120.131 L 225.564 119.610 L 224.585 119.109 L 223.550 118.736 L 222.465 118.555 L 221.365 118.558 L 220.265 118.571 L 219.165 118.602 L 218.067 118.544 L 217.011 118.234 L 216.073 117.660 L 215.188 117.007 L 214.291 116.370 L 213.286 115.922 L 212.205 115.719 L 211.106 115.756 L 210.050 116.065 L 209.114 116.643 L 208.259 117.335 L 207.357 117.964 L 208.009 118.850 L 206.928 119.058 L 205.829 119.093 L 204.730 119.040 L 203.635 118.937 L 202.537 118.867 L 201.438 118.829 L 200.346 118.959 L 199.300 119.300 L 198.310 119.781 L 197.305 120.226 L 196.251 120.540 L 195.194 120.845 L 194.169 121.246 L 193.215 121.793 L 192.261 122.340 L 191.441 123.074 L 190.751 123.930 L 190.147 124.850 L 189.500 125.739 L 188.783 126.574 L 187.997 127.344 L 187.150 128.045 L 186.236 128.657 L 185.287 129.214 L 184.384 129.842 L 183.595 130.608 L 182.952 131.500 L 182.462 132.485 L 182.028 133.496 L 181.570 134.496 L 181.030 135.454 L 180.495 136.416 L 180.076 137.433 L 179.850 138.509 L 179.788 139.608 L 179.712 140.705 L 179.593 141.798 L 179.332 142.867 L 178.843 143.852 L 178.180 144.730 L 177.494 145.590 L 176.934 146.537 L 176.581 147.578 L 176.441 148.669 L 176.463 149.769 M 192.036 125.709 L 193.007 125.192 L 193.947 124.621 L 194.908 124.086 L 195.842 123.505 L 196.833 123.028 L 197.903 122.770 L 198.994 122.636 L 200.092 122.570 L 201.192 122.546 L 202.284 122.414 L 203.357 122.169 L 204.392 121.798 L 205.427 121.426 L 206.450 121.022 M 209.038 121.043 L 210.136 120.981 L 211.236 120.979 L 212.335 121.038 L 213.426 121.174 L 214.504 121.392 L 215.544 121.752 L 216.583 122.112 L 217.577 122.584 L 218.598 122.993 L 219.660 123.278 L 220.747 123.448 L 221.845 123.519 L 222.945 123.538 L 224.042 123.617 L 225.131 123.769 L 226.201 124.024 L 227.197 124.491 L 228.135 125.065 L 229.056 125.667 L 229.966 126.285 L 230.886 126.888 L 231.783 127.525 L 232.643 128.211 L 233.398 129.010 L 234.053 129.894 L 234.669 130.806 L 235.288 131.715 L 235.920 132.615 L 236.526 133.533 L 237.088 134.479 L 237.491 135.502 L 237.745 136.573 L 237.885 137.664 L 237.951 138.762 L 237.978 139.861 L 238.119 140.952 L 238.375 142.022 L 238.770 143.049 L 239.235 144.046 L 239.586 145.088 L 239.809 146.165 L 239.951 147.256 L 240.016 148.354 L 240.022 149.454 L 239.976 150.553 L 239.865 151.648 L 239.678 152.732 L 239.371 153.788 L 238.962 154.809 L 238.544 155.827 L 238.241 156.884 L 238.066 157.970 L 238.009 159.069 L 237.956 160.167 L 237.832 161.260 L 237.595 162.334 L 237.135 163.334 L 236.499 164.232 L 235.941 165.180 L 235.344 166.103 L 234.774 167.044 L 234.391 168.075 L 234.451 169.174 L 235.351 168.541 L 236.319 168.020 L 237.288 167.499 L 238.188 166.866 L 238.948 166.071 L 239.533 165.139 L 239.977 164.133 L 240.350 163.098 L 240.762 162.078 L 241.272 161.104 L 241.778 160.127 L 242.138 159.087 L 242.280 157.997 L 242.287 156.897 L 242.293 155.797 L 242.310 154.697 L 242.464 153.608 L 242.861 152.582 L 243.484 151.675 L 244.186 150.828 L 244.830 149.937 L 245.206 148.903 L 245.297 147.807 L 245.146 146.717 L 244.747 145.692 L 244.139 144.775 L 243.456 143.913 M 181.143 142.704 L 182.140 143.169 L 183.137 143.634 L 183.531 142.607 L 183.965 141.596 L 184.322 140.556 L 184.542 139.478 L 184.645 138.383 L 184.669 137.283 L 184.760 136.187 L 184.932 135.100 L 185.278 134.056 L 185.837 133.109 L 186.371 132.147 L 186.954 131.214 M 179.096 151.181 L 179.794 152.031 L 180.230 153.041 L 180.401 154.128 L 180.424 155.227 L 180.398 156.327 L 180.386 157.427 L 180.408 158.527 L 180.660 159.598 L 181.108 160.602 L 181.625 161.573 L 182.083 162.573 L 182.432 163.616 L 182.826 164.643 L 183.327 165.622 L 184.008 166.486 L 184.847 167.198 L 185.813 167.724 L 186.804 168.202 L 187.863 168.500 L 187.779 167.403 L 187.295 166.416 L 186.696 165.493 L 186.132 164.548 L 185.550 163.615 L 184.979 162.675 L 184.661 161.622 L 184.506 160.533 L 184.427 159.436 L 184.408 158.336 L 184.269 157.244 L 184.004 156.177 L 183.606 155.152 L 183.195 154.131 L 182.818 153.098 L 182.065 153.900 L 181.313 154.703 L 181.213 155.798 L 181.083 156.890 L 180.994 157.987 L 180.943 159.086 L 181.080 160.177 L 181.453 161.212 L 181.964 162.186 L 182.451 163.172 L 182.765 164.226 L 183.104 165.273 L 183.561 166.274 L 184.183 167.181 L 184.958 167.961 L 185.834 168.627 L 186.753 169.231 L 187.642 169.879 L 188.483 170.588 L 189.273 171.353 L 190.005 172.175 L 190.668 173.052 L 191.280 173.966 L 191.972 174.822 L 192.779 175.569 L 193.694 176.180 L 194.687 176.651 L 195.694 177.095 L 196.680 177.584 L 197.634 178.131 L 198.599 178.658 L 199.629 179.044 L 200.705 179.274 L 201.799 179.384 L 202.894 179.490 L 203.982 179.654 L 205.046 179.931 L 206.037 180.409 L 206.922 181.063 L 207.832 181.680 L 208.824 182.157 M 210.840 182.021 L 211.936 181.919 L 212.991 181.610 L 213.945 181.062 L 214.831 180.409 L 215.730 179.776 L 216.714 179.284 L 217.782 179.021 L 218.878 178.925 L 219.976 178.865 L 221.076 178.826 L 222.168 178.693 L 223.223 178.382 L 224.215 177.907 L 225.189 177.396 L 226.188 176.935 L 227.216 176.545 L 228.234 176.129 L 229.207 175.615 L 230.067 174.930 L 230.792 174.102 L 231.365 173.163 L 231.946 172.229 L 231.666 171.165 L 230.581 171.348 L 229.598 171.842 L 228.657 172.410 L 227.693 172.940 L 226.769 173.536 L 225.821 174.095 L 224.763 174.397 L 223.673 174.545 L 222.576 174.623 L 221.476 174.642 L 220.383 174.767 L 219.311 175.013 L 218.278 175.391 L 217.264 175.816 L 216.273 176.295 L 215.195 176.514 L 214.101 176.627 L 213.003 176.685 L 211.903 176.704 L 210.803 176.690 L 209.704 176.634 L 208.610 176.519 L 207.531 176.309 L 206.488 175.957 L 205.466 175.551 L 204.431 175.178 L 203.396 174.805 L 202.325 174.558 L 201.233 174.423 L 200.133 174.395 L 199.035 174.333 L 197.943 174.202 L 196.871 173.953 L 195.872 173.494 L 194.938 172.912 L 193.977 172.377 L 193.037 171.806" fill="none" stroke="#00AEEF" stroke-width="1" vector-effect="non-scaling-stroke"/><path d="M 243.719 141.374 L 243.513 140.294 L 243.383 139.201 L 243.242 138.110 L 242.987 137.040 L 242.580 136.019 L 242.027 135.068 L 241.432 134.142 L 240.903 133.178 L 240.418 132.191 L 239.904 131.218 L 239.235 130.345 L 238.445 129.579 L 237.566 128.919 L 236.649 128.310 L 235.768 127.652 L 234.935 126.933 L 234.150 126.163 L 233.417 125.343 L 232.736 124.479 L 232.085 123.592 L 231.369 122.757 L 230.550 122.022 L 229.621 121.435 L 228.616 120.988 L 227.588 120.596 L 226.575 120.165 L 225.605 119.647 L 224.627 119.144 L 223.595 118.762 L 222.512 118.572 L 221.412 118.576 L 220.312 118.593 L 219.213 118.630 L 218.113 118.594 L 217.048 118.319 L 216.100 117.762 L 215.213 117.111 L 214.319 116.470 L 213.324 116.001 L 212.246 115.783 L 211.146 115.811 L 210.090 116.118 L 209.153 116.693 L 208.305 117.394 L 207.405 118.027 L 207.618 119.107 L 206.522 119.203 L 205.423 119.186 L 204.326 119.105 L 203.230 119.010 L 202.131 118.950 L 201.032 118.925 L 199.953 119.139 L 198.931 119.546 L 197.941 120.026 L 196.912 120.414 L 195.843 120.673 L 194.794 121.005 L 193.792 121.458 L 192.887 122.084 L 192.140 122.891 L 191.613 123.857 L 192.188 124.794 L 193.197 124.356 L 194.180 123.862 L 195.163 123.368 L 196.069 122.745 L 196.533 121.747 L 195.658 121.081 L 194.561 121.157 L 193.516 121.502 L 192.530 121.990 L 191.661 122.664 L 190.915 123.472 L 190.278 124.369 L 189.636 125.262 L 188.938 126.112 L 188.174 126.904 L 187.357 127.640 L 186.478 128.302 L 185.553 128.898 L 184.627 129.491 L 183.794 130.209 L 183.084 131.050 L 182.536 132.003 L 182.073 133.001 L 181.607 133.997 L 181.064 134.954 L 180.502 135.900 L 180.020 136.888 L 179.715 137.945 L 179.566 139.035 L 179.482 140.132 L 179.345 141.224 L 179.123 142.301 L 178.689 143.312 L 178.049 144.206 L 177.359 145.063 L 176.795 146.007 L 176.387 147.029 M 179.082 159.125 L 179.347 160.193 L 179.747 161.217 L 180.291 162.173 L 180.913 163.080 L 181.460 164.035 L 181.960 165.015 L 182.497 165.975 L 183.181 166.836 L 183.976 167.596 L 184.849 168.265 L 185.753 168.892 L 186.623 169.565 L 187.450 170.290 L 188.234 171.063 L 188.971 171.879 L 189.662 172.735 L 190.334 173.606 L 191.059 174.433 L 191.878 175.167 L 192.803 175.763 L 193.799 176.229 L 194.807 176.669 L 195.786 177.172 L 196.734 177.729 L 197.708 178.240 L 198.743 178.613 L 199.822 178.827 L 200.920 178.888 L 202.018 178.950 L 203.113 179.054 L 204.187 179.295 L 205.180 179.768 L 206.061 180.427 L 206.971 181.044 L 207.954 181.539 L 208.996 181.890 L 210.083 182.060 L 211.183 182.072 L 212.272 181.917 L 213.307 181.545 L 214.244 180.969 L 215.127 180.313 L 216.038 179.696 L 217.048 179.262 L 218.126 179.042 L 219.223 178.952 L 220.321 178.894 L 221.420 178.856 L 222.505 178.671 L 223.541 178.304 L 224.523 177.808 L 225.498 177.297 L 226.506 176.858 L 227.532 176.461 L 228.540 176.021 L 229.482 175.453 L 230.305 174.723 L 230.989 173.862 L 231.562 172.922 L 232.171 172.006 L 232.871 171.158 L 231.866 170.710 L 230.814 171.032 L 229.829 171.521 L 228.897 172.106 L 227.948 172.663 L 226.972 173.170 L 225.970 173.623 L 224.904 173.896 L 223.814 174.041 L 222.717 174.116 L 221.617 174.131 L 220.521 174.231 L 219.440 174.436 L 218.391 174.767 L 217.373 175.184 L 216.348 175.583 L 215.277 175.833 L 214.190 176.002 L 213.095 176.102 L 211.995 176.137 L 210.895 176.119 L 209.798 176.037 L 208.710 175.876 L 207.636 175.639 L 206.612 175.238 L 205.610 174.783 L 204.574 174.415 L 203.499 174.182 L 202.407 174.050 L 201.307 174.022 L 200.208 173.971 L 199.114 173.855 L 198.033 173.651 L 196.982 173.328 L 196.028 172.781 L 195.101 172.188 L 194.189 171.573 L 193.284 170.947 L 192.396 170.299 L 191.537 169.611 L 190.725 168.869 L 189.982 168.058 L 189.276 167.215 L 188.601 166.346 L 187.947 165.462 L 187.308 164.566 L 186.693 163.654 L 186.218 162.662 L 185.941 161.598 L 185.803 160.506 L 185.746 159.408 L 185.741 158.308 L 185.621 157.214 L 185.396 156.138 L 185.026 155.102 L 184.546 154.112 L 184.068 153.121 L 183.728 152.075 L 183.496 151.000 L 183.381 149.906 L 183.359 148.806 L 183.423 147.708 L 183.608 146.624 L 183.933 145.573 L 184.382 144.569 L 184.929 143.614 L 185.390 142.615 L 185.705 141.561 L 185.890 140.477 L 185.984 139.381 L 186.040 138.283 L 186.210 137.196 L 186.550 136.150 L 187.053 135.171 L 187.673 134.263 L 188.344 133.391 L 189.043 132.542 L 189.781 131.726 L 190.549 130.939 L 191.331 130.165 L 192.126 129.404 L 192.932 128.656 L 193.760 127.932 L 194.621 127.247 L 195.506 126.594 L 196.416 125.976 L 197.378 125.443 L 198.397 125.028 L 199.464 124.761 L 200.555 124.616 L 201.648 124.501 L 202.736 124.339 L 203.810 124.100 L 204.837 123.706 L 205.864 123.312 L 206.842 122.807 L 207.833 122.329 L 208.867 121.956 L 209.937 121.699 L 211.031 121.582 L 212.130 121.563 L 213.228 121.630 L 214.316 121.797 L 215.380 122.074 L 216.409 122.464 L 217.388 122.965 L 218.400 123.395 L 219.457 123.701 L 220.542 123.884 L 221.638 123.977 L 222.737 124.009 L 223.832 124.116 L 224.911 124.329 L 225.952 124.685 L 226.922 125.205 L 227.834 125.819 L 228.736 126.449 L 229.620 127.103 L 230.474 127.797 L 231.304 128.518 L 232.107 129.270 L 232.875 130.058 L 233.612 130.875 L 234.320 131.717 L 234.982 132.595 L 235.632 133.483 L 236.259 134.386 L 236.739 135.376 L 236.984 136.448 L 237.121 137.540 L 237.184 138.638 L 237.187 139.738 L 237.304 140.832 L 237.528 141.909 L 237.900 142.944 L 238.387 143.930 L 238.868 144.919 L 239.202 145.967 L 239.411 147.047 L 239.510 148.143 L 239.532 149.243 L 239.486 150.342 L 239.360 151.435 L 239.156 152.515 L 238.837 153.568 L 238.361 154.560 L 237.927 155.571 L 237.615 156.625 L 237.429 157.709 L 237.354 158.807 L 237.327 159.907 L 237.233 161.003 L 237.054 162.088 L 236.738 163.142 L 236.246 164.125 L 235.662 165.057 L 235.046 165.969 L 234.425 166.877 L 233.864 167.823 L 233.293 168.763 L 232.727 169.707 L 233.152 168.692 L 232.498 169.576 L 231.585 170.190 L 230.630 170.735 L 229.667 171.267 L 228.723 171.832 L 227.802 172.433 L 226.864 173.009 L 225.901 173.539 L 224.883 173.957 L 223.818 174.232 L 222.728 174.382 L 221.631 174.463 L 220.532 174.485 L 219.436 174.588 L 218.357 174.799 L 217.309 175.134 L 216.293 175.556 L 215.267 175.952 L 214.195 176.198 L 213.106 176.355 L 212.009 176.440 L 210.910 176.469 L 209.810 176.456 L 208.711 176.394 L 207.618 176.271 L 206.537 176.068 L 205.496 175.715 L 204.466 175.327 L 203.435 174.944 L 202.366 174.684 L 201.276 174.541 L 200.176 174.507 L 199.078 174.445 L 197.986 174.314 L 196.915 174.064 L 195.924 173.584 L 195.015 172.965 L 194.051 172.436 L 193.109 171.868 L 192.149 171.331 L 191.099 171.003 L 190.047 171.325 L 190.691 172.217 L 191.253 173.163 L 191.821 174.105 L 192.549 174.930 L 193.415 175.607 L 194.395 176.106 L 195.418 176.512 L 196.452 176.887 L 197.455 177.338 L 198.433 177.843 L 199.428 178.311 L 200.486 178.611 L 201.580 178.725 L 202.680 178.754 L 203.779 178.797 L 204.876 178.876 L 205.949 179.117 L 206.941 179.592 L 207.846 180.218 L 208.730 180.873 L 209.667 181.449 L 210.721 181.763 L 211.817 181.857 L 212.914 181.770 L 213.979 181.497 L 214.974 181.027 L 215.898 180.431 L 216.774 179.765 L 217.721 179.206 L 218.775 178.889 L 219.870 178.789 L 220.969 178.740 L 222.068 178.710 L 223.162 178.592 L 224.224 178.305 L 225.226 177.851 L 226.186 177.313 L 227.152 176.788 L 228.162 176.351 L 229.174 175.921 L 230.154 175.421 L 231.028 174.753 L 231.799 173.968 L 232.485 173.108 L 233.150 172.232 L 233.859 171.392 L 234.619 170.596 L 235.425 169.847 L 236.276 169.151 L 237.169 168.508 L 238.070 167.877 L 238.909 167.166 L 239.651 166.354 L 240.256 165.435 L 240.754 164.455 L 241.262 163.479 L 241.847 162.547 L 242.455 161.630 L 242.934 160.640 L 243.266 159.591 L 243.473 158.511" fill="none" stroke="#EC008C" stroke-width="1" vector-effect="non-scaling-stroke"/><path d="M 243.551 139.806 L 243.441 138.711 L 243.255 137.627 L 242.946 136.572 L 242.488 135.571 L 241.891 134.647 L 241.296 133.722 L 240.785 132.748 L 240.293 131.765 L 239.717 130.827 L 238.996 129.996 L 238.170 129.271 L 237.270 128.637 L 236.369 128.006 L 235.508 127.321 L 234.695 126.581 L 233.928 125.792 L 233.212 124.957 L 232.544 124.083 L 231.871 123.213 L 231.117 122.412 L 230.258 121.725 L 229.290 121.202 L 228.277 120.773 L 227.258 120.360 L 226.277 119.861 L 225.315 119.329 L 224.327 118.845 L 223.272 118.533 L 222.181 118.400 L 221.081 118.384 L 219.981 118.362 L 218.882 118.322 L 217.806 118.092 L 216.825 117.595 L 215.935 116.948 L 215.044 116.303 L 214.152 115.659 L 213.176 115.151 L 212.119 114.849 L 211.024 114.736 L 209.925 114.766 M 200.014 117.346 L 198.949 117.622 L 197.926 118.027 L 196.969 118.568 L 196.043 119.162 L 195.069 119.673 L 194.076 120.147 L 193.111 120.675 L 192.242 121.350 L 191.468 122.131 L 190.779 122.989 L 190.118 123.868 L 189.409 124.709 L 188.650 125.505 L 187.848 126.258 L 187.003 126.962 L 186.122 127.621 L 185.235 128.272 L 184.395 128.981 L 183.648 129.789 L 183.045 130.709 L 182.561 131.697 L 182.087 132.690 L 181.532 133.639 L 180.944 134.569 L 180.438 135.546 L 180.087 136.588 L 179.900 137.672 L 179.850 138.771 L 179.764 139.868 L 179.618 140.958 L 179.257 141.997 L 178.667 142.925 L 177.973 143.779 L 177.386 144.709 L 176.934 145.712 L 176.662 146.778 L 176.568 147.874 L 176.641 148.971 L 176.920 150.035 L 177.452 150.999 L 178.128 151.866 L 178.801 152.736 L 179.359 153.684 L 179.675 154.738 L 179.798 155.831 L 179.873 156.928 L 179.920 158.027 L 180.072 159.117 L 180.415 160.162 L 180.923 161.138 L 181.463 162.096 L 181.944 163.085 L 182.361 164.103 L 182.815 165.105 L 183.389 166.043 L 184.129 166.858 L 184.998 167.532 L 185.952 168.080 L 186.891 168.652 L 187.773 169.310 L 188.718 168.748 L 189.554 169.462 L 189.016 168.503 L 188.464 167.551 L 187.902 166.606 L 187.274 165.703 L 186.668 164.784 L 186.101 163.842 L 185.669 162.830 L 185.396 161.765 L 185.246 160.675 L 185.172 159.578 L 185.163 158.478 L 185.054 157.383 L 184.835 156.305 L 184.478 155.265 L 184.023 154.263 L 183.584 153.255 L 183.310 152.189 L 183.126 151.105 L 183.027 150.009 L 183.003 148.909 L 183.046 147.810 L 183.171 146.718 L 183.408 145.643 L 183.783 144.609 L 184.300 143.638 L 184.759 142.639 L 185.085 141.588 L 185.278 140.505 L 185.362 139.408 L 185.381 138.308 L 185.464 137.212 L 185.625 136.123 L 185.942 135.070 L 186.484 134.113 L 187.120 133.215 L 187.774 132.331 L 188.450 131.463 L 189.167 130.629 L 189.913 129.821 L 190.692 129.043 L 191.503 128.301 L 192.341 127.588 L 193.201 126.902 L 194.096 126.262 L 195.000 125.636 L 195.904 125.010 L 196.822 124.403 L 197.822 123.945 L 198.893 123.693 L 199.986 123.570 L 201.084 123.513 L 202.184 123.511 L 203.279 123.406 L 204.360 123.204 L 205.408 122.868 L 206.410 122.414 L 207.399 121.932 L 208.440 121.578 L 209.516 121.348 L 210.610 121.231 L 211.709 121.192 L 212.809 121.216 L 213.905 121.311 L 214.991 121.487 L 216.058 121.754 L 217.077 122.167 L 218.083 122.611 L 219.124 122.967 L 220.201 123.190 L 221.294 123.313 L 222.394 123.333 L 223.493 123.383 L 224.587 123.499 L 225.668 123.705 L 226.715 124.040 L 227.675 124.577 L 228.612 125.154 L 229.532 125.756 L 230.464 126.341 L 231.403 126.915 L 232.325 127.514 L 233.191 128.192 M 230.866 129.711 L 231.642 130.490 L 232.400 131.288 L 233.118 132.121 L 233.803 132.982 L 234.461 133.863 L 235.037 134.800 L 235.614 135.737 L 236.056 136.744 L 236.323 137.811 L 236.444 138.905 L 236.509 140.003 L 236.658 141.093 L 236.894 142.167 L 237.297 143.191 L 237.820 144.158 L 238.325 145.136 L 238.717 146.163 L 238.984 147.230 L 239.103 148.324 L 239.116 149.424 L 239.040 150.521 L 238.852 151.605 L 238.551 152.663 L 238.123 153.676 L 237.610 154.649 L 237.182 155.663 L 236.898 156.726 L 236.731 157.813 L 236.669 158.911 L 236.624 160.010 L 236.495 161.103 L 236.241 162.173 L 235.816 163.187 L 235.213 164.108 L 234.571 165.000 L 233.913 165.882 L 233.221 166.737 L 232.500 167.568 L 231.749 168.372 L 230.958 169.136 L 230.128 169.858 L 229.269 170.545 L 228.385 171.200 L 227.482 171.827 L 226.566 172.438 L 225.632 173.019 L 224.596 173.388 L 223.515 173.591 L 222.421 173.708 L 221.323 173.760 L 220.223 173.777 L 219.129 173.899 L 218.052 174.118 L 217.011 174.474 L 216.011 174.933 L 215.005 175.377 L 213.945 175.671 L 212.859 175.850 L 211.763 175.946 L 210.664 175.972 L 209.564 175.939 L 208.469 175.839 L 207.383 175.665 L 206.311 175.416 L 205.291 175.004 L 204.278 174.577 L 203.231 174.238 L 202.151 174.028 L 201.057 173.920 L 199.957 173.913 L 198.859 173.849 L 197.767 173.716 L 196.693 173.475 L 195.667 173.079 L 194.698 172.558 L 193.755 171.992 L 192.828 171.399 L 191.869 170.861 M 245.603 144.918 L 244.957 144.028 L 244.311 143.138 L 243.655 142.255 L 243.193 141.257 M 227.703 178.001 L 228.688 177.510 L 229.656 176.987 L 230.547 176.343 L 231.338 175.578 L 232.069 174.756 L 232.770 173.909 L 233.487 173.074 L 234.242 172.274 L 235.032 171.509 L 235.823 170.744 L 236.647 170.016 L 237.504 169.326 L 238.373 168.652 L 239.218 167.948 L 240.009 167.183 L 240.682 166.313 L 241.231 165.360 M 188.812 171.713 L 189.512 172.561 L 190.181 173.435 L 190.889 174.277 L 191.688 175.033 L 192.587 175.666 L 193.577 176.146 L 194.585 176.587 L 195.572 177.072 L 196.521 177.629 L 197.481 178.166 L 198.503 178.573 L 199.575 178.820 L 200.670 178.918 L 201.769 178.978 L 202.864 179.079 L 203.945 179.285 L 204.956 179.717 L 205.858 180.346 L 206.758 180.980 L 207.730 181.494 L 208.760 181.880 L 209.842 182.082 L 210.941 182.127 L 212.035 182.015 L 213.090 181.704 L 214.053 181.172 L 214.937 180.518 L 215.822 179.864 L 216.719 179.228 L 217.709 178.748 L 218.791 178.550 L 219.891 178.534 L 220.991 178.531 L 222.091 178.525 L 223.185 178.409 L 224.242 178.106 L 225.234 177.629 L 226.199 177.102" fill="none" stroke="#FFF200" stroke-width="1" vector-effect="non-scaling-stroke"/></svg>