<svg xmlns="http://www.w3.org/2000/svg" viewBox="169.03881731941033 106.48533619027044 85.13528320515582 83.2920692641079" width="85.13528320515582" height="83.2920692641079" shape-rendering="geometricPrecision"><rect x="169.03881731941033" y="106.48533619027044" width="85.13528320515582" height="83.2920692641079" fill="#0b0f14"/><path d="M 209.205 114.485 L 208.014 114.628 L 206.823 114.774 L 205.632 114.923 L 204.441 115.073 L 203.254 115.250 L 202.077 115.480 L 200.913 115.774 L 199.773 116.149 L 198.672 116.627 L 197.627 117.215 L 196.615 117.860 L 195.585 118.476 L 194.493 118.973 L 193.348 119.332 L 192.171 119.569 L 191.007 119.859 L 189.877 120.262 L 188.809 120.810 L 187.824 121.495 L 186.890 122.248 L 186.024 123.079 L 185.236 123.984 L 184.526 124.952 L 183.943 126.001 L 183.565 127.139 L 183.460 128.335 L 183.576 129.529 L 183.715 130.721 L 184.046 131.875 L 185.206 132.181 L 186.191 131.495 L 187.010 130.618 L 187.738 129.665 L 188.524 128.758 L 189.354 127.891 L 190.218 127.059 L 191.117 126.264 L 192.060 125.521 L 193.080 124.890 L 194.073 124.216 L 195.038 123.503 L 196.052 122.860 L 196.862 121.975 L 197.990 121.565 L 199.186 121.470 L 200.385 121.427 L 201.582 121.341 L 202.777 121.235 L 203.968 121.087 L 205.160 120.943 L 206.351 120.800 L 207.543 120.659 L 208.737 120.544 L 209.935 120.473 L 211.135 120.445 L 212.335 120.455 L 213.534 120.506 L 214.730 120.597 L 215.923 120.727 L 217.116 120.861 L 218.308 120.997 L 219.500 121.135 L 220.693 121.265 L 221.887 121.381 L 223.085 121.461 L 224.283 121.518 L 225.459 121.756 L 226.566 122.219 L 227.619 122.795 L 228.635 123.435 L 229.639 124.091 L 230.655 124.730 L 231.631 125.428 L 232.536 126.216 L 233.408 127.040 L 234.247 127.898 L 235.049 128.791 L 235.720 129.785 L 236.278 130.848 L 236.774 131.941 L 237.167 133.075 L 237.520 134.221 L 237.820 135.383 L 238.064 136.558 L 238.329 137.729 L 238.621 138.893 L 238.923 140.054 L 239.197 141.222 L 239.416 142.402 L 239.593 143.589 L 239.735 144.781 L 239.821 145.977 L 239.863 147.177 L 239.866 148.377 L 239.832 149.576 L 239.750 150.773 L 239.606 151.965 L 239.411 153.149 L 239.168 154.324 L 238.864 155.485 L 238.514 156.633 L 238.177 157.784 L 237.868 158.944 L 237.606 160.115 L 237.310 161.278 L 236.984 162.433 L 236.642 163.583 L 236.252 164.718 L 235.736 165.801 L 235.057 166.790 L 234.260 167.688 L 233.413 168.538 L 232.540 169.360 L 231.616 170.127 L 230.609 170.780 L 229.525 171.295 L 228.384 171.666 L 227.223 171.969 L 226.061 172.270 L 224.896 172.557 L 223.730 172.839 L 222.575 173.164 L 221.428 173.516 L 220.285 173.883 L 219.131 174.211 L 217.963 174.487 L 216.785 174.718 L 215.599 174.899 L 214.404 175.010 L 213.205 175.062 L 212.005 175.062 L 210.807 175.009 L 209.612 174.892 L 208.428 174.696 L 207.256 174.441 L 206.095 174.137 L 204.950 173.779 L 203.818 173.379 L 202.680 172.999 L 201.532 172.651 L 200.370 172.349 L 199.207 172.055 L 198.048 171.742 L 196.909 171.366 L 195.809 170.885 L 194.772 170.282 L 193.798 169.581 L 192.884 168.803 L 192.024 167.967 L 191.221 167.075 L 190.491 166.122 L 189.854 165.105 L 189.323 164.029 L 188.888 162.911 L 188.519 161.769 L 188.193 160.614 L 187.848 159.465 L 187.458 158.330 L 187.036 157.206 L 186.606 156.086 L 186.227 154.947 L 185.899 153.793 L 185.618 152.626 L 185.423 151.443 L 185.313 150.248 L 185.281 149.048 L 185.320 147.849 L 185.441 146.655 L 185.658 145.474 L 185.966 144.315 L 186.324 143.169 L 186.733 142.041 L 187.190 140.931 L 187.634 139.817 L 188.040 138.687 L 188.406 137.545 L 188.776 136.403 L 189.208 135.283 L 189.726 134.201 L 190.346 133.174 L 191.052 132.203 L 191.822 131.283 L 192.592 130.362 L 193.422 129.496 L 194.317 128.696 L 195.263 127.958 L 196.258 127.287 L 197.306 126.703 L 198.403 126.218 L 199.533 125.814 L 200.682 125.467 L 201.832 125.124 L 202.969 124.740 L 204.094 124.322 L 205.212 123.885 L 206.346 123.494 L 207.496 123.151 L 208.659 122.855 L 209.838 122.635 L 211.031 122.504 L 212.230 122.450 L 213.430 122.461 L 214.627 122.541 L 215.817 122.696 L 216.993 122.937 L 218.157 123.227 L 219.309 123.564 L 220.445 123.950 L 221.574 124.358 L 222.710 124.743 L 223.859 125.092 L 225.020 125.393 L 226.177 125.712 L 227.319 126.080 L 228.435 126.521 L 229.506 127.063 L 230.518 127.707 L 231.470 128.439 L 232.363 129.240 L 233.207 130.092 L 233.989 131.003 L 234.685 131.981 L 235.268 133.029 L 235.717 134.142 L 236.074 135.288 L 236.387 136.446 L 236.690 137.607 L 237.025 138.760 L 237.402 139.899 L 237.809 141.028 L 238.212 142.158 L 238.557 143.308 L 238.846 144.472 L 239.087 145.648 L 239.242 146.838 L 239.324 148.035 L 239.344 149.235 L 239.311 150.434 L 239.219 151.631 L 239.058 152.820 L 238.832 153.998 L 238.561 155.167 L 238.236 156.323 L 237.856 157.461 L 237.486 158.602 L 237.144 159.752 L 236.843 160.914 L 236.545 162.077 L 236.230 163.235 L 235.909 164.391 L 235.544 165.534 L 235.026 166.616 L 234.359 167.614 L 233.572 168.520 L 232.728 169.373 L 231.857 170.198 L 230.948 170.982 L 229.950 171.648 L 228.862 172.153 L 227.728 172.546 L 226.576 172.881 L 225.419 173.199 L 224.254 173.487 L 223.080 173.738 L 221.912 174.013 L 220.752 174.319 L 219.596 174.640 L 218.434 174.941 L 217.258 175.181 L 216.074 175.373 L 214.884 175.529 L 213.688 175.625 L 212.489 175.674 L 211.289 175.687 L 210.089 175.668 L 208.890 175.614 L 207.694 175.517 L 206.502 175.376 L 205.315 175.203 L 204.134 174.990 L 202.964 174.721 L 201.796 174.446 L 200.626 174.183 L 199.449 173.948 L 198.273 173.709 L 197.110 173.411 L 195.963 173.059 L 194.831 172.663 L 193.742 172.158 L 192.676 171.606 L 191.673 170.947 L 190.760 170.169 L 189.881 169.352 L 189.034 168.501 L 188.225 167.615 L 187.507 166.654 L 186.817 165.672 L 186.093 164.715 L 185.351 163.772 L 184.616 162.824 L 183.903 161.858 L 183.832 160.660 L 183.974 159.469 L 183.967 158.269 L 183.891 157.071 L 183.766 155.878 L 183.608 154.688 L 183.453 153.498 L 183.300 152.308 L 183.150 151.118 L 183.045 149.922 L 182.989 148.723 L 182.981 147.523 L 183.020 146.324 L 183.111 145.128 L 183.255 143.936 L 183.420 142.748 L 183.585 141.559 L 183.752 140.371 L 183.903 139.180 L 183.994 137.984 L 184.036 136.784 L 184.011 135.585 L 184.117 134.389 L 185.276 134.078 L 185.762 132.980 L 186.383 131.954 L 187.107 130.997 L 187.803 130.019 L 188.457 129.013 L 189.234 128.099 L 190.057 127.225 L 190.915 126.386 L 191.807 125.584 L 192.738 124.826 L 193.710 124.122 L 194.609 123.328 L 195.321 122.362 L 194.963 121.216 L 193.796 120.934 L 192.602 120.821 L 191.406 120.718 L 190.208 120.790 L 189.056 121.124 L 187.980 121.656 L 186.986 122.328 L 186.048 123.077 L 185.181 123.906 L 184.390 124.808 L 183.668 125.767 L 183.070 126.808 L 182.628 127.923 L 182.312 129.081 L 182.077 130.258 L 181.712 131.401 L 181.202 132.487 L 180.565 133.504 L 179.894 134.499 L 179.276 135.528 L 178.773 136.617 L 178.380 137.751 L 178.073 138.911 L 177.834 140.087 L 177.652 141.273 L 177.493 142.463 L 177.337 143.652 L 177.183 144.843 L 177.039 146.034 M 223.539 181.777 L 224.682 181.411 L 225.789 180.950 L 226.846 180.381 L 227.841 179.710 L 228.866 179.087 L 229.945 178.560 L 231.072 178.150 L 232.230 177.835 L 233.376 177.477 L 234.491 177.034 L 235.548 176.466 L 236.517 175.759 L 237.441 174.992 L 238.303 174.158 L 239.097 173.258 L 239.826 172.305 L 240.422 171.263 L 240.858 170.145 L 241.130 168.976 L 241.274 167.785 L 241.576 166.624 L 242.061 165.526 L 242.691 164.505 L 243.361 163.509 L 243.988 162.486 L 244.503 161.402 L 244.907 160.272 L 245.219 159.113 L 245.447 157.935 L 245.598 156.745 L 245.721 155.551 L 245.843 154.357 L 245.960 153.163 L 246.066 151.968 L 246.139 150.770 L 246.174 149.571 L 246.170 148.371 L 246.166 147.171 L 246.122 145.971 L 246.042 144.774 L 245.930 143.579 L 245.812 142.385 L 245.690 141.191 L 245.566 139.998 L 245.400 138.809 L 245.154 137.635 L 244.823 136.481 L 244.395 135.360 L 243.856 134.288 L 243.217 133.272 L 242.543 132.279 L 241.939 131.242 L 241.493 130.128 L 241.230 128.957 L 241.107 127.764 L 240.795 126.605 L 240.325 125.501 L 239.695 124.480 L 238.953 123.537 L 238.144 122.650 L 237.268 121.830 L 236.335 121.076 L 235.345 120.398 L 234.273 119.858 L 233.150 119.436 L 232.001 119.089 L 230.844 118.770 L 229.726 118.335 L 228.658 117.786 L 227.643 117.147 L 226.635 116.495 L 225.567 115.949 L 224.451 115.508 L 223.303 115.159" fill="none" stroke="#2dd4bf" stroke-width="1" vector-effect="non-scaling-stroke"/><path d="M 240.187 169.109 L 236.636 172.949 M 236.636 172.949 L 233.084 177.010 M 233.084 177.010 L 232.458 177.763 M 179.813 140.061 L 178.397 143.070 M 178.397 143.070 L 177.883 145.206 M 183.364 137.146 L 182.114 139.451 M 182.114 139.451 L 181.160 141.992 M 183.838 160.765 L 184.036 161.169 M 184.036 161.169 L 186.273 164.789 M 186.273 164.789 L 186.916 165.680 M 186.916 165.680 L 188.327 167.727 M 239.104 143.070 L 239.825 146.690 M 239.825 146.690 L 239.827 149.640 M 239.827 149.640 L 239.828 150.310 M 239.828 150.310 L 239.756 150.683 M 239.756 150.683 L 239.132 153.930 M 239.132 153.930 L 238.245 156.292 M 238.245 156.292 L 237.772 157.549 M 194.019 124.168 L 193.853 124.365 M 183.865 156.828 L 184.109 157.549 M 184.109 157.549 L 185.882 161.169 M 185.882 161.169 L 186.916 162.840 M 186.916 162.840 L 188.070 164.789 M 188.070 164.789 L 190.467 168.266 M 190.467 168.266 L 190.568 168.408 M 190.568 168.408 L 193.324 171.941 M 225.981 172.660 L 225.510 173.174 M 225.510 173.174 L 223.516 175.351 M 186.916 137.363 L 185.916 139.451 M 185.916 139.451 L 184.716 143.070 M 184.716 143.070 L 184.097 146.690 M 184.097 146.690 L 184.095 150.310 M 184.095 150.310 L 184.719 153.930 M 184.719 153.930 L 185.949 157.549 M 185.949 157.549 L 186.916 159.519 M 186.916 159.519 L 187.693 161.169 M 187.693 161.169 L 189.201 163.714 M 192.161 168.100 L 192.379 168.408 M 192.379 168.408 L 194.019 170.511 M 194.019 170.511 L 195.328 172.028 M 195.328 172.028 L 196.391 173.191 M 235.146 143.070 L 235.782 146.690 M 235.782 146.690 L 235.787 150.310 M 235.787 150.310 L 235.176 153.930 M 235.176 153.930 L 233.977 157.549 M 196.667 171.260 L 197.330 172.028 M 197.330 172.028 L 197.570 172.291 M 197.570 172.291 L 199.404 173.939 M 199.949 172.243 L 201.121 173.296 M 201.121 173.296 L 203.578 174.862 M 231.586 143.070 L 232.192 146.690 M 232.192 146.690 L 232.199 150.310 M 232.199 150.310 L 231.617 153.930 M 231.617 153.930 L 230.472 157.549 M 228.103 143.070 L 228.728 146.690 M 228.728 146.690 L 228.737 150.310 M 228.737 150.310 L 228.142 153.930 M 228.142 153.930 L 226.966 157.549 M 224.424 143.070 L 225.123 146.690 M 225.123 146.690 L 225.139 150.310 M 225.139 150.310 L 224.480 153.930 M 224.480 153.930 L 223.450 156.790" fill="none" stroke="#e5e7eb" stroke-width="1" vector-effect="non-scaling-stroke"/></svg>