<svg xmlns="http://www.w3.org/2000/svg" viewBox="170.49331046104507 107.43439405896419 77.59435402167398 84.32075889208645" width="77.59435402167398" height="84.32075889208645" shape-rendering="geometricPrecision"><rect x="170.49331046104507" y="107.43439405896419" width="77.59435402167398" height="84.32075889208645" fill="#0b0f14"/><path d="M 178.547 162.429 L 178.822 163.495 L 179.304 164.483 L 179.993 165.340 L 180.742 166.146 L 181.428 167.006 L 182.090 167.885 L 182.757 168.760 L 183.379 169.667 L 183.963 170.599 L 184.570 171.516 L 185.265 172.369 L 186.019 173.170 L 186.807 173.938 L 187.631 174.666 L 188.515 175.320 L 189.470 175.866 L 190.421 176.419 L 191.341 177.022 L 192.229 177.672 L 193.122 178.314 L 193.987 178.994 L 194.818 179.715 L 195.705 180.364 L 196.711 180.811 L 197.789 181.028 L 198.889 180.995 L 199.983 180.883 L 201.079 180.791 L 202.179 180.785 L 203.259 180.994 L 204.253 181.466 L 205.171 182.071 L 206.063 182.714 L 207.046 183.209 L 208.102 183.516 L 209.190 183.681 L 210.287 183.755 L 211.387 183.740 L 212.482 183.631 L 213.563 183.426 L 214.583 183.015 L 215.500 182.408 L 216.390 181.761 L 217.366 181.254 L 218.420 180.941 L 219.515 180.836 L 220.615 180.875 L 221.712 180.951 L 222.808 181.050 L 223.906 180.986 L 224.957 180.661 L 225.900 180.095 L 226.769 179.421 L 227.640 178.749 L 228.560 178.146 L 229.467 177.523 L 230.394 176.931 L 231.356 176.397 L 232.334 175.894 L 233.267 175.312 L 234.126 174.625 L 234.929 173.873 L 235.692 173.080 L 236.386 172.227 L 236.948 171.282 L 237.391 170.275 L 237.764 169.240 L 237.798 168.140 L 238.248 167.136 L 238.737 166.151 L 237.891 166.855 L 237.058 167.573 L 236.270 168.340 L 235.563 169.183 L 234.859 170.028 L 234.080 170.805 L 233.297 171.578 L 232.503 172.339 L 231.640 173.021 L 230.770 173.694 L 229.982 174.462 L 229.295 175.321 L 228.407 175.969 L 227.350 176.275 L 226.267 176.467 L 225.177 176.616 L 224.079 176.688 L 222.980 176.703 L 221.880 176.710 L 220.780 176.709 L 219.719 177.001 L 218.765 177.548 L 217.772 178.022 L 217.362 179.043 L 216.283 179.255 L 215.191 179.391 L 214.098 179.511 L 213.001 179.595 L 211.901 179.625 L 210.802 179.608 L 209.704 179.536 L 208.612 179.405 L 207.523 179.248 L 206.445 179.028 L 205.417 178.638 L 204.463 178.090 L 203.498 177.562 L 202.426 177.314 L 201.327 177.295 L 200.227 177.252 L 199.129 177.190 L 198.034 177.087 L 196.947 176.922 L 195.856 176.781 L 194.774 176.582 L 193.903 175.910 L 193.130 175.127 L 192.332 174.370 L 191.469 173.687 L 190.614 172.995 L 189.825 172.229 L 189.041 171.458 L 188.271 170.672 L 187.578 169.818 L 186.904 168.948 L 186.158 168.140 L 185.412 167.331 L 184.853 166.384 L 184.540 165.329 L 184.334 164.249 L 184.208 163.156 L 184.170 162.057 L 184.174 160.957 L 184.178 159.857 L 184.083 158.761 L 183.707 157.727 L 183.117 156.799 L 182.665 155.796 L 181.602 156.080 L 181.297 155.023 L 181.141 153.934 L 181.013 152.842 L 180.908 151.747 L 180.863 150.647 L 180.869 149.547 L 180.930 148.449 L 181.063 147.357 L 181.220 146.269 L 181.436 145.190 L 181.800 144.152 L 182.330 143.188 L 182.900 142.248 L 183.196 141.188 L 183.209 140.088 L 183.250 138.989 L 183.308 137.890 L 183.410 136.795 L 183.573 135.707 L 183.723 134.618 L 183.924 133.536 L 184.595 132.665 L 185.381 131.895 L 186.147 131.106 L 186.844 130.254 L 187.543 129.405 L 188.317 128.624 L 189.100 127.851 L 189.894 127.090 L 190.754 126.404 L 191.637 125.747 L 192.459 125.017 L 193.278 124.283 L 194.229 123.729 L 195.179 123.175 L 196.237 122.875 L 197.321 122.687 L 198.412 122.547 L 199.510 122.476 L 200.610 122.450 L 201.709 122.436 L 202.809 122.415 L 203.861 122.093 L 204.812 121.541 L 205.808 121.073 L 206.857 120.742 L 207.929 120.496 L 209.013 120.309 L 210.104 120.167 L 211.202 120.103 L 212.302 120.103 L 213.400 120.166 L 214.492 120.301 L 215.579 120.473 L 216.656 120.695 L 217.705 121.027 L 218.648 121.593 L 219.556 122.214 L 220.602 122.554 L 221.701 122.596 L 222.801 122.604 L 223.901 122.621 L 224.999 122.684 L 226.091 122.819 L 227.175 123.002 L 228.244 123.262 L 229.164 123.865 L 229.824 124.746 L 230.602 125.523 L 231.458 126.215 L 232.337 126.875 L 233.143 127.623 L 233.924 128.398 L 234.715 129.163 L 235.438 129.992 L 236.132 130.845 L 236.913 131.620 L 237.750 132.334 L 238.614 133.014 L 238.129 132.027 L 237.755 130.993 L 237.744 129.893 L 237.336 128.871 L 236.873 127.873 L 236.276 126.950 L 235.564 126.111 L 234.794 125.325 L 233.983 124.583 L 233.112 123.911 L 232.164 123.352 L 231.190 122.842 L 230.235 122.295 L 229.318 121.688 L 228.411 121.066 L 227.498 120.451 L 226.638 119.766 L 225.759 119.104 L 224.801 118.565 L 223.736 118.288 L 222.636 118.259 L 221.540 118.344 L 220.441 118.403 L 219.341 118.402 L 218.254 118.237 L 217.223 117.854 L 216.274 117.297 L 215.390 116.643 L 214.453 116.067 L 213.412 115.711 L 212.327 115.528 L 211.231 115.436 L 210.131 115.434 L 209.034 115.518 L 207.948 115.689 L 206.892 116.000 L 205.908 116.491 L 205.001 117.113 L 204.085 117.723 L 203.101 118.213 L 202.023 118.436 L 200.923 118.440 L 199.826 118.367 L 198.730 118.267 L 197.630 118.280 L 196.558 118.526 L 195.562 118.992 L 194.685 119.657 L 193.860 120.384 L 192.992 121.059 L 192.100 121.703 L 191.214 122.356 L 190.293 122.957 L 189.343 123.511 L 188.397 124.072 L 187.521 124.737 L 186.702 125.472 L 185.918 126.244 L 185.168 127.048 L 184.479 127.906 L 183.876 128.826 L 183.287 129.754 L 182.657 130.657 L 181.986 131.528 L 181.323 132.406 L 180.631 133.260 L 179.880 134.065 L 179.209 134.936 L 178.752 135.937 L 178.493 137.006 M 236.967 134.963 L 237.187 136.040 L 237.268 137.137 L 237.277 138.237 L 237.285 139.337 L 237.336 140.436 L 237.657 141.488 L 238.182 142.455 L 238.739 143.404 L 239.225 144.390 L 239.581 145.431 L 239.825 146.504 L 240.005 147.589 L 240.088 148.686 L 240.079 149.786 L 239.977 150.881 L 239.770 151.961 L 239.468 153.019 L 239.002 154.015 L 238.424 154.951 L 237.840 155.883 L 237.337 156.862 L 237.060 157.926 L 237.016 159.025 L 236.971 160.124 L 236.897 161.222 L 236.690 162.302 L 236.285 163.325 L 235.881 164.348" fill="none" stroke="#EC008C" stroke-width="1" vector-effect="non-scaling-stroke"/></svg>