<svg xmlns="http://www.w3.org/2000/svg" viewBox="170.87820369818348 108.29161657209428 82.45144760890409 80.53716943429293" width="82.45144760890409" height="80.53716943429293" shape-rendering="geometricPrecision"><rect x="170.87820369818348" y="108.29161657209428" width="82.45144760890409" height="80.53716943429293" fill="#0b0f14"/><path d="M 179.255 159.526 L 179.546 160.587 L 179.912 161.624 L 180.374 162.622 L 180.939 163.566 L 181.599 164.446 L 182.314 165.282 L 182.987 166.152 L 183.631 167.044 L 184.268 167.941 L 184.922 168.825 L 185.618 169.677 L 186.357 170.492 L 187.122 171.282 L 187.913 172.047 L 188.727 172.786 L 189.567 173.497 L 190.440 174.165 L 191.343 174.793 L 192.259 175.403 L 193.170 176.019 L 194.061 176.664 L 194.920 177.352 L 195.816 177.990 L 196.769 178.540 L 197.771 178.993 L 198.809 179.356 L 199.871 179.644 L 200.947 179.873 L 202.033 180.047 L 203.126 180.172 L 204.221 180.276 L 205.317 180.373 L 206.413 180.461 L 207.510 180.540 L 208.608 180.605 L 209.707 180.651 L 210.807 180.676 L 211.907 180.680 L 213.007 180.664 L 214.106 180.627 L 215.205 180.571 L 216.302 180.498 L 217.399 180.416 L 218.496 180.326 L 219.591 180.228 L 220.686 180.126 L 221.776 179.974 L 222.857 179.768 L 223.923 179.498 L 224.968 179.155 L 225.976 178.714 L 226.932 178.171 L 227.826 177.530 L 228.707 176.870 L 229.603 176.233 L 230.522 175.628 L 231.445 175.030 L 232.355 174.411 L 233.234 173.750 L 234.079 173.046 L 234.901 172.315 L 235.694 171.553 L 236.457 170.760 L 237.190 169.941 L 237.889 169.091 L 238.539 168.204 L 239.157 167.294 L 239.774 166.383 L 240.421 165.494 L 241.100 164.628 L 241.762 163.750 L 242.354 162.822 L 242.841 161.836 L 243.224 160.805 L 243.516 159.745 L 243.723 158.664 L 243.847 157.571 L 243.914 156.473 L 243.974 155.375 L 244.028 154.276 L 244.074 153.177 L 244.111 152.078 L 244.138 150.978 L 244.153 149.878 L 244.156 148.778 L 244.147 147.678 L 244.126 146.578 L 244.095 145.479 L 244.055 144.380 L 244.007 143.281 L 243.953 142.182 L 243.892 141.084 L 243.815 139.986 L 243.653 138.898 L 243.401 137.827 L 243.054 136.784 L 242.598 135.783 L 242.025 134.844 L 241.401 133.938 L 240.756 133.047 L 240.126 132.145 L 239.538 131.215 L 238.952 130.285 L 238.331 129.377 L 237.655 128.509 L 236.941 127.672 L 236.195 126.864 L 235.410 126.093 L 234.589 125.361 L 233.735 124.667 L 232.853 124.010 L 231.931 123.411 L 230.976 122.865 L 230.008 122.342 L 229.061 121.782 L 228.140 121.181 L 227.214 120.587 L 226.262 120.035 L 225.272 119.556 L 224.235 119.189 L 223.166 118.931 L 222.076 118.785 L 220.976 118.760 L 219.876 118.769 L 218.776 118.785 L 217.676 118.809 L 216.577 118.840 L 215.477 118.867 L 214.377 118.886 L 213.277 118.896 L 212.177 118.896 L 211.077 118.887 L 209.978 118.869 L 208.878 118.844 L 207.778 118.814 L 206.679 118.791 L 205.579 118.775 L 204.479 118.766 L 203.379 118.780 L 202.287 118.914 L 201.216 119.166 L 200.182 119.539 L 199.187 120.009 L 198.229 120.550 L 197.292 121.126 L 196.349 121.692 L 195.371 122.195 L 194.376 122.665 L 193.404 123.179 L 192.473 123.765 L 191.584 124.413 L 190.722 125.097 L 189.900 125.828 L 189.127 126.610 L 188.405 127.440 L 187.721 128.302 L 187.096 129.207 L 186.584 130.180 L 186.267 131.234 L 186.120 132.324 L 185.726 133.351 L 185.169 134.300 L 184.593 135.237 L 184.082 136.211 L 183.703 137.243 L 183.487 138.322 L 183.482 139.422 L 183.684 140.503 L 184.061 141.536 L 184.944 140.881 L 185.424 139.890 L 185.710 138.828 L 185.917 137.748 L 186.112 136.665 L 186.435 135.614 L 187.024 134.685 L 187.761 133.869 L 188.550 133.102 L 189.343 132.340 L 190.083 131.526 L 190.751 130.652 L 191.491 129.838 L 192.285 129.077 L 193.129 128.371 L 194.026 127.735 L 194.855 127.012 L 195.647 126.248 L 196.464 125.511 L 197.372 124.890 L 198.375 124.439 L 199.427 124.117 L 200.491 123.841 L 201.568 123.616 L 202.646 123.398 L 203.717 123.147 L 204.789 122.898 L 205.860 122.648 L 206.929 122.388 L 207.992 122.105 L 208.987 121.637 L 208.024 121.105 L 206.957 120.839 L 205.872 120.655 L 204.782 120.511 L 203.688 120.390 L 202.590 120.446 L 201.513 120.673 L 200.479 121.047 L 199.445 121.421 L 198.467 121.925 L 197.521 122.487 L 196.554 123.011 L 195.498 123.320 L 194.401 123.402 L 193.339 123.688 L 192.349 124.167 L 191.424 124.762 L 190.540 125.417 L 189.686 126.110 L 188.878 126.857 L 188.121 127.655 L 187.411 128.495 L 186.736 129.364 L 186.122 130.277 L 185.587 131.238 L 185.106 132.227 L 184.589 133.198 L 184.004 134.129 L 183.405 135.052 L 182.842 135.997 L 182.355 136.983 L 181.970 138.014 L 181.716 139.084 L 181.595 140.177 L 181.607 141.277 L 181.626 142.377 L 181.652 143.477 L 181.686 144.576 L 181.725 145.675 L 181.756 146.775 L 181.776 147.875 L 181.783 148.975 L 181.778 150.075 L 181.759 151.175 L 181.728 152.274 L 181.688 153.373 L 181.650 154.473 L 181.621 155.572 L 181.600 156.672 L 181.586 157.772 L 181.694 158.867 L 181.929 159.941 L 182.287 160.982 L 182.765 161.972 L 183.326 162.919 L 183.937 163.833 L 184.562 164.738 L 185.153 165.666 L 185.691 166.626 L 186.249 167.574 L 186.862 168.487 L 187.537 169.355 L 188.251 170.192 L 189.001 170.996 L 189.791 171.762 L 190.618 172.488 L 191.474 173.179 L 192.358 173.834 L 193.280 174.433 L 194.225 174.996 L 195.173 175.554 L 196.099 176.148 L 197.010 176.765 L 197.930 177.367 L 198.879 177.923 L 199.881 178.378 L 200.924 178.728 L 201.993 178.984 L 203.080 179.156 L 204.176 179.247 L 205.275 179.302 L 206.374 179.352 L 207.473 179.396 L 208.572 179.433 L 209.672 179.462 L 210.771 179.484 L 211.871 179.497 L 212.971 179.499 L 214.071 179.491 L 215.171 179.474 L 216.271 179.447 L 217.370 179.411 L 218.469 179.369 L 219.568 179.320 L 220.667 179.265 L 221.765 179.205 L 222.857 179.069 L 223.936 178.855 L 224.996 178.560 L 226.027 178.178 L 227.015 177.695 L 227.948 177.112 L 228.844 176.474 L 229.733 175.826 L 230.646 175.212 L 231.576 174.624 L 232.502 174.030 L 233.405 173.402 L 234.269 172.722 L 235.109 172.012 L 235.922 171.271 L 236.705 170.499 L 237.458 169.696 L 238.184 168.870 L 238.866 168.007 L 239.507 167.113 L 240.128 166.205 L 240.759 165.304 L 241.427 164.430 L 242.110 163.568 L 242.761 162.681 L 243.314 161.731 L 243.760 160.725 L 244.107 159.681 L 244.376 158.614 L 244.577 157.533 L 244.719 156.442 L 244.826 155.347 L 244.926 154.252 L 245.017 153.156 L 245.099 152.059 L 245.168 150.961 L 245.218 149.862 L 245.245 148.762 L 245.250 147.662 L 245.233 146.562 L 245.193 145.463 L 245.132 144.365 L 245.052 143.268 L 244.962 142.171 L 244.863 141.076 L 244.755 139.981 L 244.635 138.888 L 244.460 137.802 L 244.227 136.727 L 243.928 135.668 L 243.553 134.634 L 243.081 133.640 L 242.509 132.701 L 241.846 131.823 L 241.131 130.987 L 240.460 130.115 L 239.818 129.222 L 239.183 128.324 L 238.528 127.440 L 237.832 126.589 L 237.093 125.774 L 236.327 124.984 L 235.537 124.219 L 234.722 123.480 L 233.883 122.769 L 233.009 122.101 L 232.105 121.474 L 231.190 120.863 L 230.280 120.245 L 229.390 119.599 L 228.532 118.910 L 227.634 118.275 L 226.677 117.733 L 225.671 117.289 L 224.628 116.938 L 223.564 116.658 M 219.606 120.857 L 218.525 121.059 L 217.468 121.365 L 216.680 122.132 L 217.738 122.433 L 218.805 122.702 L 219.875 122.959 L 220.945 123.215 L 222.017 123.457 L 223.096 123.672 L 224.169 123.914 L 225.230 124.205 L 226.270 124.564 L 227.243 125.077 L 228.109 125.755 L 228.906 126.513 L 229.700 127.275 L 230.564 127.955 L 231.439 128.622 L 232.266 129.348 L 233.041 130.128 L 233.760 130.961 L 234.444 131.822 L 235.229 132.592 L 236.033 133.343 L 236.827 134.105 L 237.550 134.933 L 238.082 135.896 L 238.296 136.975 L 238.465 138.062 L 238.686 139.140 L 239.028 140.185 L 239.674 141.076 L 240.638 140.545 L 240.831 139.462 M 240.163 161.181 L 240.591 160.167 L 240.874 159.104 L 240.974 158.009 L 240.835 156.918 L 240.627 155.838 L 240.088 154.879 L 239.327 155.673 L 238.851 156.665 L 238.540 157.720 L 238.230 158.775 L 237.997 159.850 L 237.765 160.926 L 237.476 161.987 L 236.972 162.965 L 236.184 163.732 L 235.327 164.423 L 234.497 165.144 L 233.701 165.903 L 233.025 166.771 L 232.309 167.606 L 231.536 168.389 L 230.712 169.117 L 229.835 169.781 L 228.978 170.471 L 228.194 171.243 L 227.417 172.021 L 226.611 172.770 L 225.713 173.405 L 224.678 173.777 L 223.590 173.940 L 222.503 174.111 L 221.428 174.343 L 220.391 174.710 L 219.516 175.376 L 220.314 176.133 L 221.398 176.323 L 222.498 176.332 L 223.581 176.145 L 224.627 175.803 L 225.621 175.332 L 226.575 174.785 L 227.529 174.237 M 199.543 175.569 L 200.582 175.931 L 201.620 176.294 L 202.700 176.505 L 203.799 176.539 L 204.892 176.410 L 205.981 176.253 L 207.061 176.046 L 208.112 175.723 L 208.768 174.839 L 207.687 174.634 L 206.611 174.405 L 205.535 174.177 L 204.459 173.947 L 203.385 173.712 L 202.310 173.479 L 201.230 173.267 L 200.159 173.018 L 199.100 172.722 L 198.059 172.365 L 197.079 171.865 L 196.196 171.209 L 195.384 170.467 L 194.583 169.713 L 193.717 169.035 L 192.842 168.368 L 192.016 167.642 L 191.240 166.862 L 190.521 166.029 L 189.839 165.167 L 189.056 164.394 L 188.258 163.636 L 187.476 162.863 L 186.770 162.020 L 186.256 161.047 L 186.020 159.973 L 185.835 158.889 L 185.609 157.812 L 185.271 156.765 L 184.664 155.848 L 183.588 156.076 L 183.396 157.159 L 183.316 158.256" fill="none" stroke="#00AEEF" stroke-width="1" vector-effect="non-scaling-stroke"/><path d="M 244.896 136.924 L 244.572 135.873 L 244.161 134.852 L 243.648 133.879 L 243.034 132.967 L 242.334 132.118 L 241.641 131.264 L 240.984 130.381 L 240.347 129.485 L 239.704 128.592 L 239.031 127.722 L 238.313 126.888 L 237.559 126.088 L 236.781 125.310 L 235.978 124.558 L 235.153 123.831 L 234.297 123.140 L 233.406 122.496 L 232.494 121.879 L 231.579 121.269 L 230.676 120.641 L 229.801 119.975 L 228.933 119.298 L 228.008 118.703 L 227.029 118.202 L 226.007 117.795 L 224.955 117.473 L 223.886 117.215 L 222.805 117.014 L 221.715 116.863 L 220.620 116.755 L 219.525 116.653 L 218.429 116.559 L 217.332 116.474 L 216.235 116.400 L 215.136 116.343 L 214.037 116.307 L 212.937 116.292 L 211.837 116.297 L 210.737 116.324 L 209.638 116.370 L 208.540 116.435 L 207.443 116.513 L 206.346 116.600 L 205.250 116.695 L 204.155 116.796 L 203.062 116.922 L 201.977 117.098 L 200.902 117.333 L 199.844 117.636 L 198.815 118.023 L 197.829 118.512 L 196.900 119.100 L 196.015 119.754 L 195.136 120.415 L 194.227 121.035 L 193.305 121.634 L 192.386 122.239 L 191.489 122.875 L 190.629 123.562 L 189.794 124.278 L 188.985 125.023 L 188.206 125.800 L 187.457 126.605 L 186.735 127.435 L 186.060 128.304 L 185.427 129.203 L 184.813 130.116 L 184.185 131.019 L 183.514 131.891 L 182.838 132.758 L 182.196 133.652 L 181.652 134.608 L 181.215 135.617 L 180.874 136.663 L 180.621 137.734 L 180.451 138.820 L 180.364 139.917 L 180.298 141.015 L 180.239 142.113 L 180.187 143.212 L 180.144 144.311 L 180.110 145.411 L 180.087 146.510 L 180.077 147.610 L 180.079 148.710 L 180.094 149.810 L 180.120 150.910 L 180.157 152.009 L 180.202 153.108 L 180.254 154.207 L 180.314 155.306 L 180.378 156.404 L 180.494 157.498 L 180.694 158.579 L 180.987 159.640 L 181.379 160.667 L 181.885 161.644 L 182.484 162.566 L 183.122 163.462 L 183.767 164.354 L 184.375 165.271 L 184.959 166.202 L 185.559 167.125 L 186.202 168.017 L 186.897 168.869 L 187.625 169.695 L 188.387 170.487 L 189.188 171.242 L 190.023 171.957 L 190.888 172.638 L 191.784 173.275 L 192.721 173.851 L 193.682 174.387 L 194.644 174.919 L 195.575 175.506 L 196.493 176.111 L 197.427 176.693 L 198.393 177.220 L 199.405 177.651 L 200.457 177.973 L 201.536 178.186 L 202.631 178.288 L 203.731 178.285 L 204.831 178.276 L 205.931 178.261 L 207.031 178.239 L 208.130 178.212 L 209.230 178.191 L 210.330 178.177 L 211.430 178.172 L 212.530 178.175 L 213.630 178.186 L 214.730 178.204 L 215.829 178.228 L 216.929 178.252 L 218.029 178.268 L 219.129 178.278 L 220.229 178.282 L 221.327 178.218 L 222.412 178.037 L 223.471 177.739 L 224.490 177.325 L 225.469 176.824 L 226.416 176.264 L 227.351 175.684 L 228.303 175.133 L 229.297 174.662 L 230.283 174.174 L 231.241 173.633 L 232.153 173.019 L 233.030 172.354 L 233.877 171.652 L 234.681 170.902 L 235.436 170.102 L 236.142 169.259 L 236.809 168.384 L 237.404 167.459 L 237.866 166.460 L 238.066 165.379 L 238.335 164.312 L 238.827 163.328 L 239.404 162.392 L 239.961 161.443 L 240.426 160.446 L 240.752 159.396 L 240.905 158.307 L 240.833 157.209 L 240.632 156.127 L 240.257 155.093 L 239.383 155.760 L 238.878 156.738 L 238.566 157.792 L 238.337 158.868 L 238.124 159.948 L 237.850 161.013 L 237.347 161.991 L 236.666 162.855 L 235.904 163.648 L 235.120 164.420 L 234.352 165.207 L 233.677 166.076 L 232.953 166.904 L 232.173 167.680 L 231.343 168.402 L 230.466 169.065 L 229.603 169.748 L 228.790 170.488 L 227.953 171.203 L 227.043 171.820 L 226.050 172.293 L 225.006 172.639 L 223.948 172.940 L 222.878 173.196 L 221.798 173.406 L 220.721 173.628 L 219.642 173.841 L 218.560 174.044 L 217.478 174.238 L 216.394 174.424 L 215.304 174.572 L 214.208 174.671 L 213.109 174.717 L 212.009 174.712 L 210.910 174.657 L 209.815 174.554 L 208.724 174.412 L 207.638 174.241 L 206.552 174.062 L 205.469 173.872 L 204.387 173.672 L 203.306 173.468 L 202.233 173.229 L 201.171 172.941 L 200.122 172.611 L 199.089 172.232 L 198.099 171.752 L 197.159 171.181 L 196.257 170.551 L 195.376 169.893 L 194.474 169.263 L 193.624 168.565 L 192.818 167.816 L 192.058 167.021 L 191.348 166.181 L 190.693 165.298 L 190.042 164.410 L 189.439 163.491 L 188.909 162.527 L 188.463 161.521 L 188.071 160.493 L 187.703 159.457 L 187.369 158.409 L 187.074 157.349 L 186.832 156.276 L 186.648 155.191 L 186.506 154.101 L 186.378 153.008 L 186.275 151.913 L 186.206 150.815 L 186.171 149.716 L 186.168 148.616 L 186.196 147.516 L 186.256 146.418 L 186.349 145.322 L 186.469 144.228 L 186.619 143.138 L 186.817 142.056 L 187.080 140.988 L 187.409 139.939 L 187.774 138.901 L 188.168 137.874 L 188.579 136.854 L 189.012 135.842 L 189.503 134.858 L 190.043 133.900 L 190.617 132.962 L 191.288 132.090 L 192.021 131.269 L 192.753 130.449 L 193.524 129.664 L 194.331 128.917 L 195.174 128.210 L 196.063 127.562 L 197.012 127.006 L 197.981 126.484 L 198.973 126.010 L 199.991 125.593 L 201.020 125.203 L 202.055 124.830 L 203.099 124.484 L 204.153 124.172 L 205.223 123.916 L 206.306 123.722 L 207.396 123.576 L 208.490 123.458 L 209.586 123.360 L 210.683 123.292 L 211.783 123.253 L 212.883 123.244 L 213.983 123.264 L 215.081 123.314 L 216.178 123.396 L 217.273 123.508 L 218.365 123.635 L 219.456 123.779 L 220.540 123.966 L 221.612 124.212 L 222.674 124.499 L 223.725 124.823 L 224.767 125.177 L 225.801 125.552 L 226.807 125.996 L 227.773 126.522 L 228.699 127.116 L 229.597 127.751 L 230.500 128.380 L 231.355 129.071 L 232.167 129.814 L 232.933 130.603 L 233.646 131.441 L 234.312 132.316 L 235.005 133.170 L 235.667 134.049 L 236.262 134.974 L 236.755 135.957 L 237.136 136.989 L 237.468 138.038 L 237.751 139.101 L 237.977 140.178 L 238.208 141.253 L 238.431 142.330 L 238.643 143.410 L 238.847 144.490 L 239.041 145.573 L 239.196 146.662 L 239.301 147.757 L 239.344 148.856 L 239.324 149.956 L 239.232 151.052 L 239.074 152.141 L 238.867 153.221 L 238.642 154.298 L 238.412 155.374 L 238.175 156.448 L 237.929 157.520 L 237.701 158.596 L 237.454 159.668 L 237.158 160.727 L 236.815 161.773 L 236.355 162.772 L 235.735 163.680 L 234.997 164.496 L 234.222 165.277 L 233.478 166.087 L 232.809 166.960 L 232.076 167.780 L 231.289 168.549 L 230.452 169.263 L 229.558 169.904 L 228.717 170.612 L 227.914 171.364 L 227.098 172.101 L 226.226 172.772 L 225.256 173.292 L 224.207 173.621 L 223.127 173.833 L 222.047 174.038 L 220.976 174.290 L 219.940 174.661 L 218.975 175.188 L 218.734 176.261 L 219.817 176.456 L 220.907 176.601 L 222.004 176.684 L 223.098 176.570 L 224.164 176.298 L 225.187 175.894 L 226.164 175.388 L 227.114 174.834 L 228.075 174.300 L 229.095 173.886 L 230.173 173.670 L 231.203 173.284 L 232.173 172.764 L 233.085 172.149 L 233.960 171.483 L 234.803 170.776 L 235.600 170.018 L 236.348 169.211 L 237.054 168.368 L 237.721 167.493 L 238.323 166.572 L 238.855 165.609 L 239.348 164.626 L 239.896 163.672 L 240.495 162.750 L 241.094 161.827 L 241.648 160.877 L 242.122 159.884 L 242.484 158.846 L 242.718 157.771 L 242.827 156.676 L 242.825 155.576 L 242.817 154.476 L 242.802 153.376 L 242.780 152.277 L 242.754 151.177 L 242.735 150.077 L 242.723 148.977 L 242.719 147.877 L 242.724 146.777 L 242.738 145.677 L 242.759 144.577 L 242.787 143.478 L 242.809 142.378 L 242.824 141.278 L 242.831 140.178 L 242.831 139.078 L 242.702 137.986 L 242.452 136.914 L 242.086 135.877 L 241.603 134.889 L 241.033 133.948 L 240.414 133.039 L 239.783 132.138 L 239.183 131.215 L 238.631 130.265 L 238.060 129.324 L 237.439 128.416 L 236.758 127.552 L 236.040 126.719 L 235.287 125.917 L 234.495 125.153 L 233.668 124.428 L 232.813 123.736 L 231.930 123.080 L 231.009 122.479 L 230.067 121.912 L 229.124 121.345 L 228.204 120.742 L 227.297 120.120 L 226.378 119.515 L 225.431 118.955 L 224.427 118.505 L 223.383 118.159 L 222.314 117.903 L 221.228 117.728 L 220.132 117.629 L 219.034 117.567 L 217.935 117.510 L 216.836 117.460 L 215.737 117.417 L 214.638 117.381 L 213.538 117.355 L 212.438 117.340 L 211.338 117.337 L 210.238 117.346 L 209.138 117.366 L 208.039 117.397 L 206.940 117.438 L 205.841 117.487 L 204.742 117.543 L 203.644 117.604 L 202.546 117.671 L 201.454 117.807 L 200.374 118.017 L 199.313 118.304 L 198.277 118.674 L 197.282 119.145 L 196.342 119.714 L 195.447 120.355 L 194.564 121.010 L 193.657 121.633 L 192.731 122.227 L 191.807 122.823 L 190.901 123.448 L 190.030 124.120 L 189.189 124.828 L 188.373 125.566 L 187.586 126.334 L 186.829 127.132 L 186.098 127.954 L 185.409 128.812 L 184.762 129.702 L 184.137 130.607 L 183.505 131.507 L 182.839 132.383 L 182.150 133.240 L 181.489 134.119 L 180.925 135.063 L 180.467 136.064 L 180.110 137.104 L 179.830 138.168 L 179.617 139.247 L 179.461 140.336 L 179.348 141.430 L 179.242 142.525 L 179.143 143.621 L 179.055 144.717 L 178.979 145.814 L 178.922 146.913 L 178.889 148.012 L 178.878 149.112 L 178.891 150.212 L 178.928 151.312 L 178.988 152.410 L 179.069 153.507 L 179.162 154.603 L 179.264 155.698 L 179.375 156.793 L 179.493 157.886 L 179.658 158.974 L 179.877 160.052 L 180.157 161.116 L 180.508 162.158 L 180.950 163.166 L 181.491 164.123 L 182.128 165.020 L 182.843 165.856 L 183.527 166.717 L 184.177 167.605 L 184.813 168.503 L 185.460 169.392 L 186.143 170.254 L 186.870 171.080 L 187.629 171.876 L 188.412 172.649 L 189.219 173.396 L 190.048 174.119 L 190.912 174.799 L 191.810 175.435 L 192.723 176.048 L 193.636 176.662 L 194.533 177.299 L 195.401 177.975 L 196.282 178.633 L 197.224 179.202 L 198.218 179.672 L 199.252 180.048 L 200.311 180.345 M 217.547 125.733 L 218.588 126.090 L 219.609 126.498 L 220.610 126.954 L 221.607 127.419 L 222.604 127.883 L 223.596 128.360 L 224.570 128.870 L 225.512 129.438 L 226.414 130.067 L 227.276 130.752 L 228.099 131.481 L 228.923 132.210 L 229.712 132.976 L 230.466 133.778 L 231.175 134.619 L 231.828 135.504 L 232.418 136.432 L 232.949 137.396 L 233.446 138.377 L 233.933 139.363 L 234.419 140.350 L 234.894 141.342 L 235.316 142.358 L 235.684 143.395 L 235.997 144.449 L 236.256 145.518 L 236.433 146.604 L 236.536 147.699 L 236.577 148.798 L 236.563 149.898 L 236.491 150.996 L 236.356 152.087 L 236.149 153.168 L 235.880 154.235 L 235.561 155.287 L 235.187 156.322 L 234.758 157.334 L 234.297 158.333 L 233.828 159.328 L 233.359 160.323 L 232.890 161.318 L 232.380 162.293 L 231.800 163.227 L 231.149 164.114 L 230.434 164.950 L 229.668 165.739 L 228.875 166.502 L 228.051 167.231 L 227.181 167.904 L 226.260 168.506 L 225.295 169.032 L 224.293 169.486 L 223.282 169.921 L 222.273 170.359 L 221.263 170.794 L 220.248 171.219 L 219.220 171.610 L 218.172 171.944 L 217.107 172.221" fill="none" stroke="#EC008C" stroke-width="1" vector-effect="non-scaling-stroke"/><path d="M 223.888 180.315 L 224.948 180.021 L 225.983 179.647 L 226.978 179.179 L 227.921 178.612 L 228.804 177.956 L 229.671 177.279 L 230.567 176.641 L 231.480 176.027 L 232.393 175.414 L 233.291 174.779 L 234.157 174.100 L 234.985 173.376 L 235.793 172.630 L 236.577 171.858 L 237.336 171.063 L 238.064 170.238 L 238.749 169.377 L 239.397 168.488 L 240.032 167.590 L 240.680 166.701 L 241.363 165.839 L 242.081 165.005 L 242.721 164.111 L 243.266 163.155 L 243.711 162.149 L 244.064 161.107 L 244.345 160.044 L 244.564 158.966 L 244.728 157.878 L 244.844 156.784 L 244.953 155.690 L 245.053 154.594 L 245.144 153.498 L 245.223 152.401 L 245.281 151.302 L 245.317 150.203 L 245.330 149.103 L 245.319 148.003 L 245.286 146.904 L 245.231 145.805 L 245.156 144.708 L 245.069 143.611 L 244.973 142.515 L 244.869 141.420 L 244.758 140.326 L 244.603 139.237 L 244.388 138.158 L 244.106 137.095 L 243.745 136.056 L 243.282 135.058 L 242.713 134.117 L 242.046 133.242 L 241.359 132.383 L 240.697 131.504 L 240.067 130.602 L 239.443 129.697 L 238.796 128.807 L 238.105 127.951 L 237.374 127.129 L 236.616 126.332 L 235.828 125.565 L 235.010 124.829 L 234.167 124.123 L 233.294 123.453 L 232.387 122.831 L 231.460 122.238 L 230.533 121.646 L 229.627 121.023 L 228.741 120.371 L 227.844 119.734 L 226.901 119.168 L 225.904 118.702 L 224.867 118.335 L 223.804 118.053 L 222.723 117.849 L 221.631 117.721 L 220.533 117.657 L 219.434 117.599 L 218.335 117.547 L 217.236 117.502 L 216.137 117.464 L 215.037 117.436 L 213.937 117.418 L 212.837 117.411 L 211.737 117.415 L 210.638 117.430 L 209.538 117.455 L 208.438 117.489 L 207.339 117.530 L 206.240 117.578 L 205.142 117.632 L 204.043 117.691 L 202.948 117.795 L 201.863 117.976 L 200.796 118.241 L 199.755 118.599 L 198.758 119.063 L 197.813 119.626 L 196.896 120.233 L 195.987 120.853 L 195.061 121.446 L 194.115 122.008 L 193.173 122.575 L 192.254 123.181 L 191.374 123.841 L 190.521 124.536 L 189.698 125.265 L 188.911 126.033 L 188.162 126.840 L 187.450 127.677 L 186.776 128.547 L 186.164 129.461 L 185.602 130.407 L 185.054 131.361 L 184.452 132.281 L 183.823 133.183 L 183.211 134.097 L 182.651 135.044 L 182.183 136.040 L 181.832 137.082 L 181.601 138.158 L 181.493 139.252 L 181.499 140.352 L 181.512 141.452 L 181.533 142.552 L 181.562 143.652 L 181.593 144.751 L 181.617 145.851 L 181.632 146.951 L 181.636 148.051 L 181.630 149.151 L 181.614 150.251 L 181.590 151.351 L 181.559 152.450 L 181.533 153.550 L 181.515 154.650 L 181.504 155.750 L 181.499 156.850 L 181.626 157.942 L 181.882 159.012 L 182.268 160.042 L 182.756 161.028 L 183.320 161.972 L 183.921 162.894 L 184.513 163.821 L 185.040 164.786 L 185.532 165.770 L 186.072 166.729 L 186.686 167.641 L 187.361 168.509 L 188.072 169.349 L 188.829 170.147 L 189.635 170.896 L 190.486 171.593 L 191.368 172.250 L 192.290 172.850 L 193.274 173.342 L 194.322 173.675 L 195.398 173.904 L 196.410 174.336 L 197.367 174.878 L 198.320 175.428 L 199.303 175.920 L 200.336 176.299 L 201.409 176.540 L 202.507 176.612 L 203.599 176.480 L 204.686 176.310 L 205.116 175.297 L 204.190 174.704 L 203.158 174.324 L 202.086 174.076 L 201.004 173.879 L 199.922 173.679 L 198.876 173.338 L 197.925 172.786 L 197.073 172.089 L 196.271 171.337 L 195.475 170.578 L 194.630 169.874 L 193.741 169.226 L 192.907 168.508 L 192.125 167.735 L 191.396 166.911 L 190.735 166.032 L 189.978 165.234 L 189.195 164.461 L 188.446 163.655 L 187.821 162.750 L 187.366 161.749 L 187.030 160.702 L 186.742 159.640 L 186.507 158.565 L 186.273 157.490 L 186.015 156.421 L 185.762 155.351 L 185.511 154.280 L 185.257 153.209 L 185.008 152.138 L 184.799 151.058 L 184.666 149.966 L 184.637 148.866 L 184.695 147.768 L 184.830 146.676 L 185.018 145.592 L 185.240 144.515 L 185.467 143.439 L 185.700 142.363 L 185.938 141.290 L 186.184 140.218 L 186.409 139.141 L 186.676 138.074 L 186.996 137.021 L 187.366 135.986 L 187.858 135.001 L 188.458 134.080 L 189.130 133.209 L 189.834 132.363 L 190.512 131.497 L 191.218 130.653 L 191.978 129.858 L 192.785 129.111 L 193.637 128.415 L 194.536 127.781 L 195.424 127.132 L 196.337 126.519 L 197.293 125.975 L 198.293 125.516 L 199.327 125.141 L 200.369 124.788 L 201.421 124.466 L 202.472 124.143 L 203.536 123.862 L 204.610 123.626 L 205.697 123.454 L 206.786 123.300 L 207.876 123.157 L 208.968 123.025 L 210.064 122.924 L 211.162 122.857 L 212.261 122.826 L 213.361 122.830 L 214.461 122.870 L 215.558 122.948 L 216.652 123.063 L 217.742 123.206 L 218.831 123.361 L 219.919 123.529 L 221.004 123.710 L 222.082 123.927 L 223.151 124.186 L 224.209 124.487 L 225.256 124.825 L 226.286 125.212 L 227.268 125.707 L 228.189 126.309 L 229.058 126.982 L 229.909 127.680 L 230.809 128.312 L 231.662 129.006 L 232.468 129.754 L 233.224 130.554 L 233.921 131.405 L 234.621 132.253 L 235.372 133.057 L 236.104 133.879 L 236.772 134.752 L 237.312 135.711 L 237.690 136.744 L 237.973 137.807 L 238.207 138.882 L 238.454 139.953 L 238.771 141.007 L 239.136 142.044 L 239.573 143.054 L 240.259 143.913 L 240.875 143.002 L 241.070 141.919 L 241.217 140.829 L 241.338 139.736 L 241.362 138.636 L 241.193 137.549 L 240.866 136.499 L 240.412 135.497 L 239.867 134.541 L 239.284 133.608 L 238.731 132.658 L 238.303 131.644 L 238.002 130.586 L 237.529 129.593 L 236.939 128.665 L 236.274 127.789 L 235.569 126.945 L 234.818 126.140 L 234.020 125.384 L 233.178 124.675 L 232.307 124.004 L 231.402 123.379 L 230.453 122.822 L 229.476 122.317 L 228.491 121.827 L 227.541 121.272 L 226.610 120.687 L 225.668 120.119 L 224.696 119.604 L 223.684 119.173 L 222.630 118.857 L 221.549 118.654 L 220.453 118.560 L 219.353 118.552 L 218.253 118.549 L 217.153 118.553 L 216.053 118.563 L 214.953 118.576 L 213.853 118.586 L 212.753 118.593 L 211.653 118.595 L 210.553 118.594 L 209.453 118.587 L 208.354 118.577 L 207.254 118.563 L 206.154 118.552 L 205.054 118.548 L 203.954 118.550 L 202.854 118.558 L 201.757 118.641 L 200.674 118.832 L 199.614 119.127 L 198.589 119.526 L 197.615 120.037 L 196.677 120.612 L 195.760 121.219 L 194.841 121.824 L 193.891 122.379 L 192.934 122.921 L 191.992 123.489 L 191.084 124.111 L 190.214 124.783 L 189.371 125.490 L 188.560 126.233 L 187.786 127.015 L 187.048 127.830 L 186.340 128.672 L 185.677 129.550 L 185.063 130.463 L 184.471 131.390 L 183.866 132.308 L 183.220 133.199 L 182.571 134.087 L 181.951 134.996 L 181.413 135.955 L 180.990 136.970 L 180.667 138.022 L 180.435 139.097 L 180.285 140.187 L 180.212 141.285 L 180.145 142.382 L 180.083 143.481 L 180.029 144.579 L 179.983 145.678 L 179.949 146.778 L 179.927 147.878 L 179.919 148.978 L 179.925 150.078 L 179.945 151.177 L 179.979 152.277 L 180.025 153.376 L 180.080 154.475 L 180.143 155.573 L 180.214 156.671 L 180.289 157.768 L 180.432 158.859 L 180.652 159.936 L 180.955 160.994 L 181.345 162.023 L 181.839 163.005 L 182.437 163.928 L 183.109 164.799 L 183.795 165.659 L 184.444 166.547 L 185.066 167.455 L 185.690 168.360 L 186.346 169.244 L 187.049 170.089 L 187.787 170.905 L 188.553 171.695 L 189.348 172.455 L 190.171 173.185 L 191.017 173.888 L 191.898 174.546 L 192.808 175.165 L 193.729 175.766 L 194.644 176.376 L 195.536 177.020 L 196.412 177.685 L 197.314 178.315 L 198.276 178.849 L 199.288 179.281 L 200.335 179.618 L 201.402 179.884 L 202.483 180.090 L 203.572 180.243 L 204.666 180.351 L 205.762 180.454 L 206.858 180.549 L 207.954 180.636 L 209.051 180.713 L 210.150 180.772 L 211.249 180.811 L 212.349 180.829 L 213.449 180.825 M 233.191 134.462 L 233.656 135.459 L 234.103 136.464 L 234.553 137.468 L 234.997 138.474 L 235.427 139.487 L 235.827 140.511 L 236.226 141.536 L 236.560 142.584 L 236.833 143.650 L 237.052 144.728 L 237.219 145.815 L 237.325 146.910 L 237.382 148.009 L 237.398 149.108 L 237.379 150.208 L 237.319 151.307 L 237.214 152.402 L 237.054 153.490 L 236.851 154.571 L 236.600 155.642 L 236.290 156.698 L 235.915 157.732 L 235.512 158.755 L 235.089 159.771 L 234.657 160.782 L 234.223 161.793 L 233.751 162.786 L 233.239 163.760 L 232.662 164.696 L 231.986 165.564 L 231.247 166.379 L 230.472 167.160 L 229.665 167.907 L 228.824 168.616 L 227.929 169.257 L 226.967 169.790 L 225.987 170.289 L 224.986 170.745 L 223.964 171.152 L 222.939 171.551 L 221.909 171.936 L 220.870 172.298 L 219.821 172.628 L 218.754 172.896 L 217.673 173.104 L 216.585 173.263 L 215.492 173.387 L 214.395 173.472 L 213.297 173.529 L 212.197 173.558 L 211.097 173.559 L 209.998 173.533 L 208.899 173.479 L 207.802 173.395 L 206.708 173.283" fill="none" stroke="#FFF200" stroke-width="1" vector-effect="non-scaling-stroke"/></svg>