<svg xmlns="http://www.w3.org/2000/svg" viewBox="169.21379925544719 106.65422408369442 85.02981165603703 83.15101898123974" width="85.02981165603703" height="83.15101898123974" shape-rendering="geometricPrecision"><rect x="169.21379925544719" y="106.65422408369442" width="85.02981165603703" height="83.15101898123974" fill="#0b0f14"/><path d="M 207.450 114.654 L 206.260 114.803 L 205.069 114.955 L 203.879 115.110 L 202.696 115.312 L 201.524 115.569 L 200.370 115.897 L 199.245 116.315 L 198.167 116.842 L 197.144 117.469 L 196.138 118.124 L 195.081 118.691 L 193.963 119.128 L 192.802 119.432 L 191.627 119.675 L 190.476 120.014 L 189.370 120.481 L 188.344 121.102 L 187.380 121.817 L 186.475 122.605 L 185.644 123.471 L 184.892 124.406 L 184.226 125.404 L 183.730 126.496 L 183.455 127.665 L 183.532 128.862 L 183.672 130.054 L 183.938 131.224 L 184.525 132.271 L 185.672 131.919 L 186.568 131.120 L 187.341 130.203 L 188.068 129.248 L 188.875 128.360 L 189.720 127.508 L 190.600 126.692 L 191.515 125.916 L 192.512 125.248 L 193.521 124.598 L 194.501 123.905 L 195.466 123.192 L 196.408 122.449 L 197.474 121.899 L 198.656 121.687 L 199.854 121.619 L 201.050 121.520 L 202.243 121.396 L 203.436 121.263 L 204.628 121.125 L 205.820 120.990 L 207.013 120.857 L 208.206 120.732 L 209.403 120.648 L 210.602 120.604 L 211.802 120.598 L 213.002 120.629 L 214.200 120.698 L 215.395 120.804 L 216.589 120.930 L 217.782 121.058 L 218.975 121.189 L 220.164 121.352 L 221.353 121.512 L 222.545 121.654 L 223.740 121.755 L 224.926 121.940 L 226.075 122.287 L 227.174 122.768 L 228.236 123.327 L 229.262 123.949 L 230.286 124.574 L 231.302 125.214 L 232.218 125.988 L 233.100 126.802 L 233.950 127.649 L 234.765 128.530 L 235.489 129.487 L 236.037 130.555 L 236.534 131.647 L 236.933 132.778 L 237.291 133.924 L 237.605 135.082 L 237.869 136.253 L 238.132 137.423 L 238.427 138.586 L 238.738 139.746 L 239.040 140.907 L 239.282 142.082 L 239.478 143.266 L 239.640 144.455 L 239.745 145.651 L 239.800 146.849 L 239.814 148.049 L 239.790 149.249 L 239.719 150.447 L 239.588 151.640 L 239.396 152.824 L 239.159 154.001 L 238.863 155.164 L 238.504 156.309 L 238.153 157.456 L 237.828 158.611 L 237.545 159.777 L 237.256 160.942 L 236.938 162.099 L 236.604 163.252 L 236.245 164.397 L 235.762 165.495 L 235.112 166.504 L 234.339 167.422 L 233.497 168.278 L 232.629 169.106 L 231.719 169.888 L 230.728 170.565 L 229.660 171.112 L 228.532 171.520 L 227.372 171.829 L 226.210 172.129 L 225.046 172.420 L 223.879 172.699 L 222.723 173.023 L 221.577 173.377 L 220.436 173.748 L 219.285 174.089 L 218.121 174.378 L 216.946 174.622 L 215.762 174.818 L 214.568 174.941 L 213.370 175.003 L 212.170 175.010 L 210.971 174.963 L 209.776 174.852 L 208.591 174.664 L 207.418 174.409 L 206.257 174.106 L 205.111 173.750 L 203.982 173.344 L 202.846 172.956 L 201.700 172.599 L 200.542 172.287 L 199.378 171.993 L 198.222 171.673 L 197.084 171.290 L 195.985 170.809 L 194.946 170.209 L 193.969 169.512 L 193.050 168.740 L 192.185 167.909 L 191.380 167.019 L 190.646 166.070 L 189.999 165.059 L 189.455 163.989 L 189.007 162.876 L 188.628 161.737 L 188.295 160.585 L 187.945 159.437 L 187.551 158.303 L 187.125 157.181 L 186.691 156.063 L 186.308 154.925 L 185.975 153.773 L 185.689 152.607 L 185.490 151.424 L 185.380 150.229 L 185.348 149.029 L 185.389 147.830 L 185.514 146.637 L 185.737 145.457 L 186.051 144.299 L 186.416 143.156 L 186.830 142.030 L 187.291 140.922 L 187.738 139.808 L 188.145 138.679 L 188.516 137.538 L 188.894 136.399 L 189.337 135.284 L 189.868 134.208 L 190.499 133.187 L 191.213 132.222 L 191.989 131.307 L 192.765 130.392 L 193.601 129.531 L 194.500 128.736 L 195.449 128.002 L 196.447 127.335 L 197.498 126.756 L 198.596 126.273 L 199.727 125.870 L 200.875 125.523 L 202.022 125.169 L 203.156 124.778 L 204.278 124.352 L 205.397 123.918 L 206.532 123.529 L 207.683 123.188 L 208.846 122.893 L 210.027 122.683 L 211.221 122.562 L 212.421 122.518 L 213.620 122.541 L 214.817 122.634 L 216.004 122.807 L 217.176 123.067 L 218.337 123.371 L 219.484 123.721 L 220.616 124.120 L 221.744 124.530 L 222.881 124.914 L 224.030 125.259 L 225.191 125.562 L 226.343 125.899 L 227.477 126.290 L 228.580 126.763 L 229.634 127.337 L 230.631 128.005 L 231.568 128.754 L 232.452 129.566 L 233.279 130.435 L 234.041 131.363 L 234.714 132.356 L 235.273 133.418 L 235.708 134.536 L 236.061 135.683 L 236.373 136.842 L 236.676 138.003 L 237.031 139.150 L 237.424 140.283 L 237.843 141.408 L 238.234 142.542 L 238.568 143.695 L 238.848 144.862 L 239.070 146.041 L 239.204 147.234 L 239.266 148.432 L 239.268 149.632 L 239.214 150.831 L 239.096 152.025 L 238.902 153.209 L 238.654 154.383 L 238.358 155.546 L 238.006 156.693 L 237.620 157.829 L 237.251 158.972 L 236.916 160.124 L 236.627 161.289 L 236.322 162.449 L 236.005 163.606 L 235.686 164.763 L 235.253 165.882 L 234.669 166.931 L 233.952 167.893 L 233.131 168.768 L 232.276 169.610 L 231.394 170.424 L 230.447 171.161 L 229.412 171.767 L 228.294 172.204 L 227.145 172.550 L 225.989 172.871 L 224.827 173.174 L 223.659 173.448 L 222.488 173.711 L 221.327 174.013 L 220.172 174.339 L 219.020 174.674 L 217.854 174.957 L 216.675 175.184 L 215.489 175.367 L 214.297 175.501 L 213.099 175.578 L 211.900 175.611 L 210.700 175.608 L 209.500 175.570 L 208.303 175.491 L 207.110 175.360 L 205.922 175.194 L 204.739 174.990 L 203.566 174.737 L 202.402 174.447 L 201.236 174.163 L 200.065 173.900 L 198.886 173.674 L 197.717 173.403 L 196.561 173.083 L 195.416 172.723 L 194.296 172.293 L 193.209 171.785 L 192.157 171.208 L 191.215 170.463 L 190.322 169.662 L 189.461 168.827 L 188.634 167.957 L 187.851 167.047 L 187.201 166.039 L 186.529 165.045 L 185.861 164.047 L 185.268 163.005 L 184.760 161.917 L 184.441 160.761 L 184.323 159.566 L 184.234 158.370 L 184.103 157.177 L 183.955 155.986 L 183.809 154.795 L 183.667 153.603 L 183.528 152.411 L 183.390 151.219 L 183.293 150.023 L 183.239 148.824 L 183.229 147.625 L 183.259 146.425 L 183.336 145.227 L 183.459 144.034 L 183.606 142.843 L 183.755 141.652 L 183.907 140.462 L 184.052 139.270 L 184.169 138.076 L 184.260 136.880 L 184.300 135.680 L 184.464 134.492 L 185.058 133.449 L 185.888 132.582 L 186.611 131.625 L 187.338 130.670 L 188.023 129.684 L 188.684 128.683 L 189.478 127.783 L 190.313 126.921 L 191.182 126.094 L 192.087 125.305 L 193.041 124.577 L 193.983 123.835 L 194.813 122.968 L 195.211 121.836 L 194.171 121.238 L 193.006 120.948 L 191.815 120.804 L 190.617 120.735 L 189.445 120.992 L 188.339 121.459 L 187.321 122.093 L 186.362 122.815 L 185.469 123.617 L 184.653 124.496 L 183.909 125.438 L 183.254 126.444 L 182.762 127.538 L 182.407 128.684 L 182.159 129.858 L 181.839 131.015 L 181.376 132.122 L 180.777 133.162 L 180.099 134.152 L 179.453 135.163 L 178.912 136.234 L 178.484 137.355 L 178.150 138.508 L 177.889 139.679 L 177.688 140.862 L 177.528 142.051 L 177.369 143.241 L 177.214 144.431 M 223.520 181.805 L 224.664 181.442 L 225.773 180.984 L 226.832 180.420 L 227.829 179.752 L 228.853 179.126 L 229.929 178.595 L 231.055 178.180 L 232.212 177.861 L 233.357 177.503 L 234.473 177.062 L 235.532 176.498 L 236.507 175.797 L 237.431 175.032 L 238.296 174.200 L 239.092 173.302 L 239.824 172.351 L 240.426 171.313 L 240.868 170.198 L 241.153 169.032 L 241.301 167.841 L 241.604 166.680 L 242.088 165.582 L 242.717 164.560 L 243.389 163.566 L 244.018 162.544 L 244.534 161.461 L 244.941 160.332 L 245.256 159.174 L 245.488 157.996 L 245.645 156.807 L 245.772 155.613 L 245.897 154.420 L 246.018 153.226 L 246.128 152.031 L 246.205 150.834 L 246.244 149.634 L 246.242 148.434 L 246.240 147.234 L 246.197 146.035 L 246.116 144.838 L 246.002 143.643 L 245.881 142.449 L 245.756 141.256 L 245.629 140.062 L 245.464 138.874 L 245.223 137.698 L 244.898 136.543 L 244.480 135.418 L 243.951 134.341 L 243.315 133.324 L 242.640 132.331 L 242.025 131.301 L 241.560 130.195 L 241.276 129.029 L 241.141 127.836 L 240.838 126.676 L 240.377 125.567 L 239.759 124.539 L 239.020 123.593 L 238.216 122.702 L 237.345 121.877 L 236.415 121.118 L 235.431 120.432 L 234.365 119.882 L 233.245 119.451 L 232.098 119.098 L 230.941 118.779 L 229.820 118.352 L 228.749 117.810 L 227.730 117.176 L 226.727 116.518 L 225.662 115.964 L 224.548 115.517 L 223.402 115.162" fill="none" stroke="#2dd4bf" stroke-width="1" vector-effect="non-scaling-stroke"/><path d="M 240.187 169.109 L 236.636 172.949 M 236.636 172.949 L 233.084 177.010 M 233.084 177.010 L 232.435 177.791 M 179.813 140.061 L 178.397 143.070 M 178.397 143.070 L 178.336 143.326 M 183.364 137.146 L 182.114 139.451 M 182.114 139.451 L 182.023 139.695 M 187.746 166.883 L 187.888 167.090 M 239.104 143.070 L 239.783 146.478 M 239.783 146.478 L 239.825 146.690 M 239.825 146.690 L 239.828 150.310 M 239.828 150.310 L 239.609 151.448 M 239.609 151.448 L 239.132 153.930 M 239.132 153.930 L 237.772 157.549 M 194.019 124.168 L 193.856 124.361 M 184.154 157.641 L 185.882 161.169 M 185.882 161.169 L 186.916 162.840 M 186.916 162.840 L 188.070 164.789 M 188.070 164.789 L 190.467 168.266 M 190.467 168.266 L 190.568 168.408 M 190.568 168.408 L 193.197 171.778 M 225.981 172.660 L 225.725 172.940 M 225.725 172.940 L 223.509 175.359 M 186.916 137.363 L 185.916 139.451 M 185.916 139.451 L 184.716 143.070 M 184.716 143.070 L 184.097 146.690 M 184.097 146.690 L 184.095 150.310 M 184.095 150.310 L 184.719 153.930 M 184.719 153.930 L 185.949 157.549 M 185.949 157.549 L 186.916 159.519 M 186.916 159.519 L 187.693 161.169 M 187.693 161.169 L 189.837 164.789 M 189.837 164.789 L 189.931 164.924 M 191.457 167.103 L 192.379 168.408 M 192.379 168.408 L 194.019 170.511 M 194.019 170.511 L 195.328 172.028 M 195.328 172.028 L 196.184 172.965 M 235.146 143.070 L 235.782 146.690 M 235.782 146.690 L 235.787 150.310 M 235.787 150.310 L 235.176 153.930 M 235.176 153.930 L 233.977 157.549 M 196.455 171.015 L 197.330 172.028 M 197.330 172.028 L 197.570 172.291 M 197.570 172.291 L 199.170 173.728 M 199.786 172.095 L 201.121 173.296 M 201.121 173.296 L 203.264 174.662 M 231.586 143.070 L 232.192 146.690 M 232.192 146.690 L 232.199 150.310 M 232.199 150.310 L 231.617 153.930 M 231.617 153.930 L 230.472 157.549 M 228.103 143.070 L 228.728 146.690 M 228.728 146.690 L 228.737 150.310 M 228.737 150.310 L 228.142 153.930 M 228.142 153.930 L 226.966 157.549 M 224.424 143.070 L 225.123 146.690 M 225.123 146.690 L 225.139 150.310 M 225.139 150.310 L 224.480 153.930 M 224.480 153.930 L 223.476 156.719" fill="none" stroke="#e5e7eb" stroke-width="1" vector-effect="non-scaling-stroke"/></svg>