<svg xmlns="http://www.w3.org/2000/svg" viewBox="169.36217495098197 106.79776831088645 84.84852878452912 83.04799433371147" width="84.84852878452912" height="83.04799433371147" shape-rendering="geometricPrecision"><rect x="169.36217495098197" y="106.79776831088645" width="84.84852878452912" height="83.04799433371147" fill="#0b0f14"/><path d="M 206.127 114.798 L 204.936 114.951 L 203.747 115.111 L 202.565 115.319 L 201.395 115.583 L 200.242 115.918 L 199.122 116.347 L 198.049 116.884 L 197.029 117.516 L 196.024 118.172 L 194.960 118.728 L 193.838 119.152 L 192.674 119.445 L 191.501 119.698 L 190.354 120.051 L 189.255 120.532 L 188.238 121.170 L 187.280 121.893 L 186.383 122.689 L 185.560 123.562 L 184.816 124.504 L 184.161 125.510 L 183.686 126.612 L 183.437 127.786 L 183.561 128.979 L 183.719 130.169 L 184.037 131.326 L 184.936 132.120 L 186.005 131.576 L 186.862 130.736 L 187.611 129.799 L 188.390 128.885 L 189.213 128.012 L 190.073 127.175 L 190.966 126.374 L 191.897 125.616 L 192.921 124.991 L 193.918 124.324 L 194.886 123.614 L 195.881 122.944 L 196.939 122.376 L 198.093 122.048 L 199.282 121.889 L 200.477 121.773 L 201.668 121.627 L 202.857 121.468 L 204.047 121.311 L 205.240 121.182 L 206.433 121.055 L 207.627 120.931 L 208.823 120.833 L 210.021 120.774 L 211.221 120.751 L 212.421 120.763 L 213.620 120.810 L 214.817 120.894 L 216.011 121.012 L 217.205 121.132 L 218.398 121.262 L 219.585 121.438 L 220.769 121.637 L 221.953 121.828 L 223.142 121.995 L 224.331 122.157 L 225.499 122.430 L 226.635 122.818 L 227.741 123.283 L 228.805 123.837 L 229.849 124.430 L 230.893 125.022 L 231.836 125.764 L 232.729 126.565 L 233.591 127.400 L 234.419 128.269 L 235.193 129.186 L 235.805 130.218 L 236.309 131.307 L 236.731 132.430 L 237.093 133.574 L 237.420 134.729 L 237.702 135.895 L 237.957 137.068 L 238.250 138.232 L 238.564 139.390 L 238.884 140.546 L 239.151 141.716 L 239.367 142.897 L 239.544 144.084 L 239.671 145.277 L 239.743 146.475 L 239.771 147.674 L 239.759 148.874 L 239.702 150.073 L 239.587 151.268 L 239.402 152.453 L 239.172 153.631 L 238.889 154.797 L 238.541 155.945 L 238.179 157.090 L 237.839 158.240 L 237.536 159.401 L 237.255 160.568 L 236.945 161.727 L 236.617 162.882 L 236.285 164.035 L 235.846 165.152 L 235.235 166.185 L 234.493 167.127 L 233.659 167.990 L 232.798 168.826 L 231.905 169.628 L 230.935 170.334 L 229.887 170.919 L 228.774 171.368 L 227.621 171.701 L 226.460 172.002 L 225.296 172.296 L 224.129 172.574 L 222.972 172.892 L 221.824 173.243 L 220.683 173.614 L 219.537 173.971 L 218.376 174.275 L 217.204 174.531 L 216.024 174.747 L 214.832 174.887 L 213.634 174.963 L 212.434 174.982 L 211.235 174.947 L 210.039 174.850 L 208.851 174.678 L 207.677 174.430 L 206.514 174.134 L 205.366 173.787 L 204.234 173.388 L 203.101 172.992 L 201.958 172.626 L 200.803 172.301 L 199.640 172.008 L 198.482 171.692 L 197.341 171.319 L 196.235 170.853 L 195.186 170.271 L 194.198 169.590 L 193.269 168.831 L 192.391 168.012 L 191.577 167.131 L 190.828 166.193 L 190.163 165.194 L 189.596 164.136 L 189.129 163.031 L 188.736 161.897 L 188.393 160.747 L 188.050 159.598 L 187.660 158.463 L 187.235 157.340 L 186.793 156.225 L 186.399 155.091 L 186.057 153.941 L 185.762 152.778 L 185.547 151.597 L 185.423 150.404 L 185.379 149.205 L 185.410 148.005 L 185.523 146.810 L 185.733 145.629 L 186.043 144.470 L 186.402 143.325 L 186.812 142.197 L 187.268 141.087 L 187.721 139.976 L 188.135 138.849 L 188.512 137.710 L 188.886 136.570 L 189.323 135.452 L 189.844 134.372 L 190.465 133.345 L 191.172 132.375 L 191.941 131.453 L 192.710 130.532 L 193.539 129.665 L 194.431 128.862 L 195.375 128.121 L 196.366 127.444 L 197.410 126.852 L 198.503 126.358 L 199.629 125.944 L 200.776 125.590 L 201.923 125.238 L 203.059 124.851 L 204.181 124.426 L 205.298 123.987 L 206.431 123.592 L 207.580 123.245 L 208.742 122.944 L 209.921 122.724 L 211.114 122.595 L 212.313 122.543 L 213.513 122.560 L 214.710 122.648 L 215.898 122.814 L 217.071 123.070 L 218.232 123.371 L 219.381 123.720 L 220.513 124.116 L 221.640 124.529 L 222.776 124.917 L 223.923 125.267 L 225.084 125.573 L 226.236 125.909 L 227.370 126.300 L 228.475 126.769 L 229.531 127.339 L 230.530 128.003 L 231.472 128.747 L 232.359 129.554 L 233.189 130.421 L 233.955 131.345 L 234.635 132.334 L 235.203 133.391 L 235.650 134.505 L 236.011 135.649 L 236.323 136.808 L 236.627 137.969 L 236.982 139.115 L 237.376 140.248 L 237.796 141.373 L 238.190 142.506 L 238.529 143.657 L 238.813 144.823 L 239.040 146.001 L 239.178 147.193 L 239.243 148.392 L 239.248 149.592 L 239.195 150.790 L 239.078 151.985 L 238.885 153.169 L 238.636 154.343 L 238.339 155.506 L 237.986 156.653 L 237.598 157.788 L 237.227 158.929 L 236.888 160.080 L 236.597 161.244 L 236.291 162.405 L 235.974 163.562 L 235.652 164.718 L 235.216 165.836 L 234.632 166.885 L 233.916 167.848 L 233.098 168.725 L 232.243 169.567 L 231.361 170.381 L 230.414 171.118 L 229.379 171.726 L 228.263 172.166 L 227.112 172.506 L 225.955 172.825 L 224.794 173.127 L 223.626 173.402 L 222.456 173.668 L 221.295 173.974 L 220.141 174.304 L 218.990 174.643 L 217.825 174.928 L 216.647 175.158 L 215.461 175.343 L 214.269 175.478 L 213.071 175.555 L 211.872 175.588 L 210.672 175.585 L 209.473 175.545 L 208.275 175.462 L 207.083 175.328 L 205.895 175.158 L 204.713 174.949 L 203.542 174.691 L 202.378 174.396 L 201.213 174.108 L 200.043 173.843 L 198.865 173.615 L 197.696 173.342 L 196.540 173.022 L 195.394 172.665 L 194.272 172.240 L 193.181 171.739 L 192.134 171.154 L 191.197 170.404 L 190.305 169.601 L 189.445 168.764 L 188.620 167.893 L 187.845 166.977 L 187.203 165.963 L 186.546 164.959 L 185.908 163.942 L 185.355 162.877 L 184.894 161.769 L 184.601 160.606 L 184.469 159.413 L 184.344 158.220 L 184.186 157.030 L 184.017 155.842 L 183.868 154.651 L 183.731 153.459 L 183.596 152.267 L 183.467 151.074 L 183.378 149.877 L 183.332 148.678 L 183.326 147.478 L 183.361 146.278 L 183.439 145.081 L 183.563 143.887 L 183.705 142.696 L 183.848 141.504 L 183.996 140.314 L 184.135 139.122 L 184.265 137.929 L 184.369 136.733 L 184.431 135.535 L 184.643 134.354 L 185.227 133.306 L 186.007 132.394 L 186.748 131.450 L 187.468 130.490 L 188.145 129.498 L 188.842 128.522 L 189.645 127.630 L 190.486 126.774 L 191.362 125.954 L 192.273 125.174 L 193.253 124.481 L 194.198 123.741 L 195.040 122.886 L 195.507 121.781 L 194.481 121.158 L 193.304 120.924 L 192.110 120.799 L 190.916 120.689 L 189.732 120.886 L 188.607 121.305 L 187.570 121.908 L 186.597 122.610 L 185.686 123.392 L 184.849 124.252 L 184.087 125.179 L 183.394 126.158 L 182.859 127.232 L 182.469 128.367 L 182.191 129.534 L 181.900 130.699 L 181.471 131.819 L 180.902 132.876 L 180.225 133.867 L 179.565 134.869 L 178.996 135.925 L 178.541 137.036 L 178.186 138.182 L 177.907 139.349 L 177.690 140.530 L 177.524 141.718 L 177.362 142.907 M 223.334 181.846 L 224.482 181.495 L 225.598 181.053 L 226.665 180.505 L 227.672 179.852 L 228.688 179.213 L 229.756 178.666 L 230.875 178.233 L 232.032 177.915 L 233.180 177.566 L 234.302 177.140 L 235.373 176.598 L 236.361 175.917 L 237.294 175.162 L 238.168 174.341 L 238.976 173.453 L 239.717 172.510 L 240.344 171.486 L 240.813 170.381 L 241.124 169.222 L 241.250 168.029 L 241.520 166.860 L 241.972 165.748 L 242.579 164.713 L 243.254 163.721 L 243.893 162.705 L 244.429 161.632 L 244.854 160.509 L 245.183 159.355 L 245.428 158.181 L 245.595 156.992 L 245.721 155.799 L 245.845 154.605 L 245.964 153.411 L 246.078 152.217 L 246.159 151.020 L 246.203 149.820 L 246.207 148.620 L 246.211 147.420 L 246.175 146.221 L 246.100 145.023 L 245.993 143.828 L 245.873 142.634 L 245.750 141.440 L 245.625 140.247 L 245.473 139.057 L 245.244 137.879 L 244.932 136.720 L 244.529 135.590 L 244.016 134.505 L 243.390 133.481 L 242.719 132.486 L 242.087 131.466 L 241.599 130.369 L 241.293 129.209 L 241.144 128.018 L 240.869 126.850 L 240.433 125.732 L 239.837 124.691 L 239.108 123.738 L 238.314 122.838 L 237.451 122.003 L 236.529 121.236 L 235.559 120.529 L 234.502 119.961 L 233.387 119.517 L 232.242 119.158 L 231.085 118.840 L 229.958 118.429 L 228.879 117.903 L 227.854 117.280 L 226.859 116.608 L 225.802 116.040 L 224.695 115.579 L 223.552 115.212" fill="none" stroke="#2dd4bf" stroke-width="1" vector-effect="non-scaling-stroke"/><path d="M 240.187 169.109 L 236.636 172.949 M 236.636 172.949 L 233.084 177.010 M 233.084 177.010 L 232.434 177.793 M 179.813 140.061 L 179.420 140.896 M 239.104 143.070 L 239.726 146.193 M 239.726 146.193 L 239.825 146.690 M 239.825 146.690 L 239.828 150.310 M 239.828 150.310 L 239.132 153.930 M 239.132 153.930 L 239.040 154.175 M 239.040 154.175 L 237.772 157.549 M 194.019 124.168 L 193.848 124.370 M 184.309 157.958 L 185.882 161.169 M 185.882 161.169 L 186.916 162.840 M 186.916 162.840 L 188.070 164.789 M 188.070 164.789 L 190.467 168.266 M 190.467 168.266 L 190.568 168.408 M 190.568 168.408 L 193.155 171.724 M 225.981 172.660 L 225.790 172.868 M 225.790 172.868 L 223.355 175.527 M 186.916 137.363 L 185.916 139.451 M 185.916 139.451 L 184.716 143.070 M 184.716 143.070 L 184.097 146.690 M 184.097 146.690 L 184.095 150.310 M 184.095 150.310 L 184.719 153.930 M 184.719 153.930 L 185.949 157.549 M 185.949 157.549 L 186.916 159.519 M 186.916 159.519 L 187.693 161.169 M 187.693 161.169 L 189.837 164.789 M 189.837 164.789 L 190.467 165.702 M 190.467 165.702 L 192.379 168.408 M 192.379 168.408 L 194.019 170.511 M 194.019 170.511 L 195.328 172.028 M 195.328 172.028 L 196.117 172.890 M 235.146 143.070 L 235.782 146.690 M 235.782 146.690 L 235.787 150.310 M 235.787 150.310 L 235.176 153.930 M 235.176 153.930 L 233.977 157.549 M 186.916 141.943 L 186.915 141.944 M 196.362 170.906 L 197.330 172.028 M 197.330 172.028 L 197.570 172.291 M 197.570 172.291 L 199.093 173.659 M 199.707 172.025 L 199.711 172.028 M 199.711 172.028 L 201.121 173.296 M 201.121 173.296 L 203.156 174.593 M 231.586 143.070 L 232.192 146.690 M 232.192 146.690 L 232.199 150.310 M 232.199 150.310 L 231.617 153.930 M 231.617 153.930 L 230.472 157.549 M 208.117 174.523 L 208.224 174.558 M 208.224 174.558 L 208.286 174.558 M 228.103 143.070 L 228.728 146.690 M 228.728 146.690 L 228.737 150.310 M 228.737 150.310 L 228.142 153.930 M 228.142 153.930 L 226.966 157.549 M 224.424 143.070 L 225.123 146.690 M 225.123 146.690 L 225.139 150.310 M 225.139 150.310 L 224.480 153.930 M 224.480 153.930 L 223.416 156.886" fill="none" stroke="#e5e7eb" stroke-width="1" vector-effect="non-scaling-stroke"/></svg>