<svg xmlns="http://www.w3.org/2000/svg" viewBox="170.4838826125766 107.41288659527908 79.0188618366376 84.21780024590319" width="79.0188618366376" height="84.21780024590319" shape-rendering="geometricPrecision"><rect x="170.4838826125766" y="107.41288659527908" width="79.0188618366376" height="84.21780024590319" fill="#0b0f14"/><path d="M 178.554 162.208 L 178.798 163.281 L 179.242 164.287 L 179.902 165.167 L 180.646 165.978 L 181.341 166.831 L 182.002 167.710 L 182.674 168.580 L 183.303 169.483 L 183.890 170.413 L 184.482 171.340 L 185.162 172.205 L 185.907 173.014 L 186.689 173.788 L 187.505 174.525 L 188.379 175.194 L 189.327 175.752 L 190.283 176.295 L 191.211 176.886 L 192.102 177.531 L 192.996 178.171 L 193.871 178.838 L 194.702 179.559 L 195.575 180.229 L 196.562 180.713 L 197.633 180.967 L 198.733 180.970 L 199.826 180.847 L 200.920 180.740 L 202.019 180.691 L 203.111 180.829 L 204.130 181.243 L 205.064 181.824 L 205.954 182.470 L 206.911 183.013 L 207.955 183.358 L 209.040 183.541 L 210.136 183.631 L 211.236 183.628 L 212.332 183.529 L 213.414 183.332 L 214.440 182.934 L 215.366 182.341 L 216.246 181.681 L 217.220 181.169 L 218.276 180.863 L 219.371 180.759 L 220.470 180.796 L 221.567 180.880 L 222.662 180.984 L 223.762 180.957 L 224.822 180.664 L 225.776 180.116 L 226.652 179.450 L 227.519 178.774 L 228.441 178.174 L 229.350 177.554 L 230.275 176.958 L 231.237 176.425 L 232.216 175.923 L 233.159 175.358 L 234.026 174.680 L 234.834 173.934 L 235.600 173.145 L 236.302 172.298 L 236.879 171.361 L 237.328 170.357 L 237.672 169.312 L 238.024 168.270 L 238.579 167.320 L 239.096 166.349 L 238.064 166.729 L 238.799 165.911 L 238.013 166.680 L 237.191 167.411 L 236.399 168.174 L 235.679 169.006 L 234.997 169.869 L 234.229 170.657 L 233.444 171.428 L 232.662 172.201 L 231.813 172.901 L 230.932 173.558 L 230.130 174.312 L 229.412 175.145 L 228.547 175.825 L 227.507 176.183 L 226.426 176.387 L 225.338 176.549 L 224.241 176.630 L 223.141 176.643 L 222.041 176.650 L 220.941 176.649 L 219.870 176.898 L 218.892 177.401 L 217.924 177.925 L 216.885 178.284 L 215.818 178.551 L 214.736 178.754 L 213.649 178.919 L 212.552 179.006 L 211.452 179.022 L 210.354 178.968 L 209.262 178.833 L 208.179 178.639 L 207.108 178.389 L 206.056 178.067 L 205.065 177.591 L 204.117 177.032 L 203.083 176.659 L 201.987 176.563 L 200.887 176.562 L 199.787 176.557 L 198.687 176.516 L 197.594 176.398 L 196.511 176.202 L 195.452 175.907 L 194.894 176.855 L 194.042 176.160 L 193.288 175.358 L 192.512 174.579 L 191.671 173.869 L 190.794 173.206 L 189.992 172.453 L 189.210 171.679 L 188.421 170.913 L 187.704 170.079 L 187.038 169.203 L 186.281 168.405 L 185.456 167.678 L 184.762 166.824 L 184.380 165.793 L 184.165 164.714 L 183.998 163.627 L 183.918 162.530 L 183.908 161.430 L 183.904 160.330 L 183.906 159.230 L 183.634 158.164 L 183.109 157.197 L 182.227 156.540 L 181.539 155.682 L 181.313 154.606 L 181.060 155.676 L 180.951 154.582 L 180.859 153.485 L 180.761 152.390 L 180.697 151.292 L 180.678 150.192 L 180.700 149.092 L 180.774 147.995 L 180.889 146.901 L 181.016 145.808 L 181.226 144.728 L 181.729 143.750 L 182.387 142.869 L 182.894 141.892 L 183.089 140.810 L 183.120 139.710 L 183.178 138.612 L 183.257 137.515 L 183.379 136.421 L 183.546 135.334 L 183.584 134.235 L 184.066 133.246 L 184.798 132.425 L 185.591 131.662 L 186.345 130.862 L 187.024 129.996 L 187.750 129.170 L 188.540 128.404 L 189.320 127.629 L 190.131 126.886 L 191.013 126.229 L 191.878 125.549 L 192.692 124.809 L 193.535 124.103 L 194.519 123.611 L 195.586 123.341 L 196.669 123.151 L 197.764 123.048 L 198.864 123.026 L 199.964 123.030 L 201.064 123.034 L 202.155 122.893 L 203.179 122.492 L 204.112 121.909 L 205.129 121.490 L 204.618 120.516 L 205.665 120.177 L 206.754 120.025 L 207.847 119.900 L 208.941 119.791 L 210.040 119.740 L 211.140 119.738 L 212.239 119.785 L 213.333 119.898 L 214.424 120.041 L 215.508 120.228 L 216.563 120.541 L 217.545 121.035 L 218.449 121.663 L 219.484 122.034 L 220.583 122.094 L 221.682 122.125 L 222.781 122.174 L 223.878 122.256 L 224.970 122.390 L 226.058 122.550 L 227.149 122.688 L 228.098 123.245 L 228.910 123.988 L 229.709 124.743 L 230.553 125.448 L 231.446 126.091 L 232.257 126.834 L 233.038 127.609 L 233.827 128.375 L 234.555 129.200 L 235.200 130.091 L 235.917 130.925 L 236.665 131.732 L 237.316 132.619 L 237.710 133.646 L 237.944 134.720 L 238.106 135.808 L 238.172 136.906 L 238.167 138.006 L 238.161 139.106 L 238.157 140.206 L 238.438 141.270 L 238.951 142.242 L 239.479 143.208 L 240.565 143.035 L 240.993 144.049 L 241.171 145.134 L 241.310 146.226 L 241.434 147.318 L 241.495 148.417 L 241.503 149.517 L 241.457 150.616 L 241.343 151.710 L 241.191 152.799 L 240.992 153.881 L 240.675 154.934 L 240.188 155.921 L 239.559 156.823 L 239.184 157.857 L 239.131 158.956 L 239.100 160.056 L 239.052 161.155 L 238.967 162.251 L 238.824 163.342 L 238.659 164.430 L 238.682 165.529 L 238.063 166.439 L 238.921 165.750 L 238.144 166.529 L 237.329 167.267 L 236.532 168.026 L 235.798 168.844 L 235.136 169.723 L 234.380 170.522 L 233.593 171.291 L 232.816 172.070 L 231.982 172.786 L 231.090 173.431 L 230.275 174.169 L 229.541 174.988 L 228.720 175.721 L 227.704 176.142 L 226.626 176.359 L 225.540 176.538 L 224.444 176.633 L 223.345 176.658 L 222.245 176.667 L 221.145 176.668 L 220.062 176.864 L 219.064 177.327 L 218.148 177.934 L 217.520 178.838 L 216.453 179.106 L 215.365 179.268 L 214.273 179.400 L 213.178 179.501 L 212.079 179.542 L 210.979 179.532 L 209.881 179.466 L 208.789 179.328 L 207.702 179.164 L 206.625 178.940 L 205.584 178.585 L 204.603 178.087 L 203.650 177.538 L 202.588 177.251 L 201.488 177.240 L 200.388 177.204 L 199.290 177.153 L 198.194 177.058 L 197.105 176.904 L 196.016 176.748 L 194.918 176.672 L 194.026 176.029 L 193.251 175.248 L 192.460 174.484 L 191.607 173.789 L 190.739 173.114 L 189.941 172.356 L 189.159 171.583 L 188.380 170.806 L 187.672 169.965 L 187.008 169.087 L 186.266 168.275 L 185.504 167.483 L 184.900 166.563 L 184.555 165.518 L 184.340 164.439 L 184.197 163.349 L 184.144 162.250 L 184.146 161.150 L 184.150 160.050 L 184.111 158.951 L 183.778 157.902 L 183.222 156.953 L 182.736 155.966 L 181.645 156.103 L 181.329 155.049 L 181.167 153.961 L 181.035 152.869 L 180.927 151.774 L 180.880 150.675 L 180.885 149.575 L 180.945 148.477 L 181.078 147.385 L 181.237 146.296 L 181.454 145.218 L 181.813 144.178 L 182.334 143.210 L 182.907 142.271 L 183.208 141.213 L 183.220 140.113 L 183.260 139.013 L 183.316 137.915 L 183.416 136.819 L 183.578 135.731 L 183.731 134.642 L 183.900 133.555 L 184.569 132.682 L 185.356 131.914 L 186.124 131.126 L 186.823 130.277 L 187.520 129.426 L 188.292 128.643 L 189.076 127.871 L 189.868 127.108 L 190.726 126.419 L 191.609 125.764 L 192.432 125.033 L 193.246 124.294 L 194.191 123.731 L 195.136 123.168 L 196.193 122.863 L 197.277 122.675 L 198.368 122.531 L 199.465 122.457 L 200.565 122.430 L 201.665 122.414 L 202.765 122.406 L 203.820 122.094 L 204.775 121.549 L 205.767 121.075 L 206.815 120.741 L 207.887 120.492 L 208.971 120.305 L 210.061 120.160 L 211.159 120.093 L 212.259 120.091 L 213.358 120.152 L 214.450 120.283 L 215.537 120.452 L 216.615 120.670 L 217.666 120.995 L 218.611 121.558 L 219.505 122.198 L 220.547 122.551 L 221.646 122.609 L 222.746 122.616 L 223.846 122.631 L 224.944 122.691 L 226.036 122.822 L 227.121 123.004 L 228.191 123.259 L 229.124 123.843 L 229.793 124.715 L 230.570 125.494 L 231.422 126.190 L 232.305 126.846 L 233.114 127.592 L 233.894 128.367 L 234.685 129.132 L 235.411 129.958 L 236.102 130.814 L 236.883 131.588 L 237.719 132.304 L 238.582 132.985 L 238.095 131.999 L 237.753 130.954 L 237.735 129.854 L 237.323 128.833 L 236.857 127.837 L 236.254 126.917 L 235.540 126.081 L 234.770 125.295 L 233.956 124.555 L 233.083 123.886 L 232.133 123.331 L 231.159 122.820 L 230.206 122.271 L 229.290 121.662 L 228.383 121.040 L 227.472 120.423 L 226.613 119.736 L 225.732 119.077 L 224.771 118.542 L 223.704 118.274 L 222.605 118.251 L 221.508 118.334 L 220.409 118.390 L 219.309 118.382 L 218.223 118.206 L 217.196 117.812 L 216.252 117.248 L 215.368 116.593 L 214.425 116.027 L 213.381 115.680 L 212.295 115.501 L 211.199 115.413 L 210.099 115.413 L 209.002 115.499 L 207.916 115.671 L 206.861 115.984 L 205.878 116.477 L 204.969 117.096 L 204.054 117.706 L 203.069 118.197 L 201.992 118.419 L 200.892 118.422 L 199.794 118.351 L 198.699 118.253 L 197.599 118.274 L 196.528 118.525 L 195.534 118.996 L 194.660 119.664 L 193.835 120.392 L 192.966 121.067 L 192.075 121.711 L 191.189 122.363 L 190.267 122.964 L 189.317 123.517 L 188.372 124.081 L 187.498 124.749 L 186.681 125.485 L 185.898 126.258 L 185.148 127.063 L 184.461 127.922 L 183.859 128.842 L 183.268 129.770 L 182.638 130.672 L 181.965 131.542 L 181.302 132.420 L 180.608 133.273 L 179.858 134.077 L 179.191 134.953 L 178.739 135.955 L 178.484 137.025 M 237.172 157.835 L 237.112 158.933 L 237.081 160.033 L 237.030 161.131 L 236.867 162.219 L 236.509 163.259 L 236.151 164.299" fill="none" stroke="#EC008C" stroke-width="1" vector-effect="non-scaling-stroke"/></svg>