<svg xmlns="http://www.w3.org/2000/svg" viewBox="168.3446856132759 106.75327222660799 85.5253533537105 83.46035150153183" width="85.5253533537105" height="83.46035150153183" shape-rendering="geometricPrecision"><rect x="168.3446856132759" y="106.75327222660799" width="85.5253533537105" height="83.46035150153183" fill="#0b0f14"/><path d="M 243.541 140.725 L 243.387 139.636 L 243.287 138.540 L 243.080 137.460 L 242.733 136.416 L 242.233 135.436 L 241.640 134.510 L 241.078 133.564 L 240.587 132.580 L 240.093 131.597 L 239.485 130.680 L 238.738 129.873 L 237.888 129.174 L 236.971 128.567 L 236.073 127.932 L 235.220 127.237 L 234.417 126.485 L 233.664 125.684 L 232.965 124.834 L 232.313 123.948 L 231.634 123.083 L 230.856 122.305 L 229.967 121.658 L 228.977 121.179 L 227.951 120.781 L 226.919 120.399 L 225.934 119.910 L 224.962 119.396 L 223.958 118.946 L 222.889 118.687 L 221.790 118.635 L 220.690 118.657 L 219.591 118.705 L 218.492 118.754 L 217.395 118.676 L 216.375 118.265 L 215.465 117.647 L 214.586 116.985 L 213.664 116.385 L 212.616 116.052 L 211.517 115.992 L 210.442 116.224 L 209.471 116.741 L 208.659 117.482 L 207.851 118.229 L 206.817 118.605 L 205.724 118.728 L 204.624 118.730 L 203.525 118.678 L 202.426 118.649 L 201.326 118.637 L 200.236 118.790 L 199.196 119.146 L 198.208 119.630 L 197.210 120.094 L 196.167 120.443 L 195.120 120.778 L 194.101 121.193 L 193.153 121.752 L 192.206 122.310 L 191.389 123.047 L 190.696 123.902 L 190.086 124.817 L 189.431 125.700 L 188.709 126.531 L 187.922 127.299 L 187.076 128.002 L 186.168 128.622 L 185.224 129.187 L 184.327 129.825 L 183.541 130.594 L 182.898 131.486 L 182.406 132.470 L 181.963 133.477 L 181.489 134.470 L 180.940 135.423 L 180.402 136.382 L 179.988 137.401 L 179.760 138.477 L 179.686 139.575 L 179.598 140.671 L 179.459 141.763 L 179.175 142.825 L 178.666 143.800 L 177.990 144.669 L 177.320 145.540 L 176.788 146.503 L 176.453 147.551 M 192.094 125.667 L 193.060 125.142 L 194.002 124.574 L 194.966 124.044 L 195.881 123.434 L 196.862 122.937 L 197.931 122.674 L 199.022 122.540 L 200.120 122.473 L 201.220 122.444 L 202.311 122.307 L 203.381 122.052 L 204.414 121.671 L 205.446 121.291 L 206.475 120.904 M 209.174 120.998 L 210.273 120.945 L 211.373 120.950 L 212.471 121.016 L 213.561 121.160 L 214.638 121.385 L 215.673 121.758 L 216.708 122.131 L 217.704 122.597 L 218.730 122.994 L 219.797 123.260 L 220.886 123.419 L 221.984 123.476 L 223.084 123.503 L 224.181 123.591 L 225.268 123.755 L 226.334 124.028 L 227.318 124.518 L 228.256 125.094 L 229.176 125.696 L 230.086 126.314 L 231.008 126.914 L 231.908 127.547 L 232.766 128.236 L 233.504 129.051 L 234.144 129.946 L 234.747 130.866 L 235.366 131.775 L 235.995 132.677 L 236.597 133.598 L 237.151 134.548 L 237.549 135.574 L 237.797 136.646 L 237.932 137.737 L 237.994 138.835 L 238.029 139.935 L 238.180 141.025 L 238.446 142.092 L 238.849 143.115 L 239.311 144.114 L 239.636 145.164 L 239.851 146.243 L 239.985 147.335 L 240.043 148.434 L 240.046 149.534 L 239.997 150.632 L 239.882 151.726 L 239.690 152.810 L 239.371 153.862 L 238.961 154.883 L 238.547 155.902 L 238.252 156.962 L 238.085 158.049 L 238.036 159.148 L 237.978 160.247 L 237.847 161.339 L 237.594 162.409 L 237.110 163.397 L 236.483 164.301 L 235.924 165.248 L 235.327 166.172 L 234.773 167.122 L 234.434 168.169 L 234.803 169.205 L 235.696 168.562 L 236.644 168.005 L 237.600 167.461 L 238.462 166.777 L 239.189 165.951 L 239.744 165.002 L 240.187 163.995 L 240.595 162.973 L 241.074 161.983 L 241.610 161.023 L 242.109 160.042 L 242.434 158.991 L 242.564 157.899 L 242.606 156.800 L 242.670 155.702 L 242.792 154.609 L 243.109 153.555 L 243.674 152.611 L 244.345 151.740 L 245.020 150.871 L 245.548 149.906 L 245.815 148.839 L 245.870 147.741 L 245.748 146.647 L 245.434 145.593 L 244.942 144.610 L 244.319 143.703 L 243.616 142.857 M 181.111 141.519 L 181.169 142.617 L 182.119 143.172 L 183.068 143.728 L 183.453 142.697 L 183.886 141.686 L 184.256 140.650 L 184.489 139.575 L 184.602 138.481 L 184.622 137.381 L 184.708 136.284 L 184.872 135.197 L 185.205 134.148 L 185.758 133.197 L 186.279 132.229 L 186.855 131.291 M 178.459 150.366 L 179.204 151.176 L 179.908 152.021 L 180.310 153.045 L 180.454 154.135 L 180.463 155.235 L 180.429 156.335 L 180.413 157.435 L 180.435 158.534 L 180.689 159.605 L 181.139 160.608 L 181.655 161.580 L 182.107 162.583 L 182.450 163.628 L 182.843 164.655 L 183.346 165.633 L 184.030 166.495 L 184.872 167.203 L 185.839 167.727 L 186.832 168.200 L 187.872 168.559 L 187.811 167.461 L 187.337 166.468 L 186.736 165.547 L 186.170 164.604 L 185.606 163.659 L 185.046 162.713 L 184.728 161.660 L 184.572 160.571 L 184.493 159.474 L 184.477 158.374 L 184.344 157.282 L 184.089 156.212 L 183.697 155.184 L 183.278 154.167 L 182.902 153.133 L 182.081 153.865 L 181.260 154.598 L 181.174 155.694 L 181.051 156.787 L 180.959 157.883 L 180.906 158.982 L 181.017 160.076 L 181.371 161.118 L 181.877 162.095 L 182.377 163.074 L 182.727 164.117 L 183.057 165.167 L 183.502 166.173 L 184.103 167.094 L 184.866 167.887 L 185.732 168.564 L 186.653 169.166 L 187.546 169.809 L 188.393 170.511 L 189.187 171.272 L 189.926 172.086 L 190.597 172.958 L 191.214 173.869 L 191.893 174.734 L 192.687 175.495 L 193.592 176.121 L 194.582 176.600 L 195.589 177.043 L 196.579 177.522 L 197.534 178.067 L 198.497 178.600 L 199.520 179.004 L 200.593 179.248 L 201.686 179.369 L 202.781 179.469 L 203.870 179.626 L 204.940 179.882 L 205.941 180.337 L 206.838 180.975 L 207.739 181.605 L 208.721 182.101 M 211.572 182.048 L 212.649 181.824 L 213.649 181.366 L 214.555 180.741 L 215.441 180.089 L 216.375 179.508 L 217.417 179.156 L 218.505 178.998 L 219.603 178.922 L 220.702 178.872 L 221.799 178.793 L 222.871 178.547 L 223.880 178.110 L 224.855 177.601 L 225.839 177.109 L 226.862 176.703 L 227.886 176.301 L 228.881 175.832 L 229.783 175.203 L 230.559 174.423 L 231.185 173.519 L 231.756 172.579 L 232.390 171.680 L 231.472 171.074 L 230.412 171.369 L 229.449 171.899 L 228.505 172.465 L 227.539 172.992 L 226.644 173.631 L 225.681 174.161 L 224.615 174.434 L 223.524 174.572 L 222.426 174.641 L 221.326 174.674 L 220.236 174.815 L 219.168 175.082 L 218.140 175.473 L 217.146 175.943 L 216.149 176.409 L 215.067 176.606 L 213.971 176.703 L 212.872 176.752 L 211.773 176.765 L 210.673 176.748 L 209.574 176.691 L 208.480 176.575 L 207.403 176.353 L 206.370 175.976 L 205.346 175.572 L 204.309 175.206 L 203.272 174.841 L 202.198 174.603 L 201.105 174.480 L 200.005 174.463 L 198.907 174.391 L 197.816 174.250 L 196.752 173.973 L 195.774 173.469 L 194.833 172.899 L 193.872 172.364 L 192.932 171.792" fill="none" stroke="#00AEEF" stroke-width="1" vector-effect="non-scaling-stroke"/><path d="M 243.630 141.059 L 243.451 139.974 L 243.340 138.879 L 243.170 137.793 L 242.872 136.734 L 242.420 135.731 L 241.834 134.800 L 241.248 133.869 L 240.742 132.893 L 240.257 131.905 L 239.701 130.956 L 238.992 130.115 L 238.172 129.382 L 237.270 128.752 L 236.361 128.133 L 235.493 127.457 L 234.675 126.722 L 233.905 125.936 L 233.188 125.102 L 232.523 124.226 L 231.862 123.346 L 231.117 122.537 L 230.264 121.843 L 229.300 121.313 L 228.283 120.893 L 227.250 120.514 L 226.252 120.052 L 225.283 119.533 L 224.293 119.052 L 223.242 118.729 L 222.148 118.606 L 221.049 118.619 L 219.949 118.650 L 218.850 118.707 L 217.751 118.660 L 216.702 118.332 L 215.770 117.747 L 214.889 117.089 L 213.989 116.455 L 212.968 116.047 L 211.878 115.902 L 210.785 116.028 L 209.772 116.457 L 208.895 117.121 L 208.076 117.855 L 207.112 118.386 L 208.043 118.973 L 206.963 119.181 L 208.053 119.330 L 206.960 119.455 L 205.860 119.432 L 204.763 119.350 L 203.669 119.234 L 202.572 119.155 L 201.473 119.109 L 200.380 119.232 L 199.334 119.571 L 198.346 120.057 L 197.321 120.456 L 196.248 120.696 L 195.181 120.965 L 194.155 121.362 L 193.205 121.915 L 192.404 122.670 L 191.841 123.615 L 192.239 124.640 L 193.248 124.203 L 194.241 123.730 L 195.235 123.258 L 196.090 122.566 L 196.242 121.477 L 195.215 121.082 L 194.137 121.300 L 193.113 121.702 L 192.169 122.267 L 191.352 123.003 L 190.655 123.854 L 190.039 124.766 L 189.378 125.645 L 188.654 126.473 L 187.867 127.241 L 187.023 127.947 L 186.120 128.576 L 185.181 129.149 L 184.289 129.792 L 183.503 130.561 L 182.856 131.451 L 182.360 132.433 L 181.909 133.436 L 181.423 134.423 L 180.866 135.372 L 180.322 136.328 L 179.909 137.347 L 179.676 138.422 L 179.590 139.519 L 179.491 140.614 L 179.336 141.703 L 179.037 142.762 L 178.516 143.731 L 177.831 144.592 L 177.178 145.476 L 176.667 146.451 L 176.345 147.503 M 198.304 124.953 L 199.372 124.689 L 200.462 124.545 L 201.557 124.440 L 202.646 124.284 L 203.722 124.055 L 204.753 123.672 L 205.784 123.288 L 206.766 122.792 L 207.755 122.311 L 208.789 121.935 L 209.857 121.672 L 210.950 121.549 L 212.050 121.525 L 213.148 121.583 L 214.237 121.738 L 215.305 122.001 L 216.340 122.376 L 217.321 122.872 L 218.331 123.308 L 219.385 123.624 L 220.468 123.814 L 221.564 123.908 L 222.664 123.928 L 223.761 124.014 L 224.845 124.198 L 225.897 124.521 L 226.879 125.015 L 227.797 125.621 L 228.703 126.246 L 229.599 126.884 L 230.463 127.564 L 231.304 128.274 L 232.117 129.015 L 232.885 129.803 L 233.618 130.622 L 234.320 131.470 L 234.981 132.349 L 235.629 133.238 L 236.256 134.142 L 236.771 135.113 L 237.039 136.180 L 237.197 137.269 L 237.279 138.366 L 237.295 139.466 L 237.386 140.562 L 237.586 141.643 L 237.922 142.691 L 238.385 143.689 L 238.888 144.667 L 239.240 145.709 L 239.455 146.788 L 239.572 147.882 L 239.609 148.981 L 239.581 150.081 L 239.479 151.176 L 239.295 152.260 L 239.028 153.327 L 238.588 154.336 L 238.139 155.340 L 237.790 156.383 L 237.577 157.462 L 237.475 158.557 L 237.461 159.657 L 237.381 160.754 L 237.223 161.843 L 236.932 162.904 L 236.474 163.904 L 235.910 164.848 L 235.307 165.768 L 234.681 166.673 L 234.138 167.630 L 233.620 168.600 L 233.230 169.628 L 234.038 168.883 L 235.058 168.470 L 236.066 168.031 L 237.048 167.535 L 237.982 166.954 L 238.772 166.188 L 239.386 165.275 L 239.840 164.273 L 240.201 163.234 L 240.555 162.193 L 241.038 161.204 L 241.548 160.230 L 241.929 159.198 L 242.092 158.110 L 242.078 157.010 L 242.045 155.911 L 241.986 154.812 L 241.995 153.712 L 242.148 152.623 L 242.611 151.625 L 243.418 150.878 L 244.154 150.060 L 244.645 149.076 L 244.818 147.990 L 244.677 146.899 L 244.239 145.890 L 243.573 145.015 L 242.886 144.155 L 242.289 143.232 L 241.992 142.172 L 241.982 141.072 M 178.126 149.720 L 178.770 150.613 L 179.544 151.394 L 180.170 152.299 L 180.448 153.363 L 180.517 154.461 L 180.489 155.560 L 180.454 156.660 L 180.438 157.760 L 180.526 158.856 L 180.844 159.909 L 181.339 160.892 L 181.844 161.869 L 182.247 162.892 L 182.589 163.938 L 183.006 164.955 L 183.555 165.909 L 184.293 166.725 L 185.181 167.374 L 186.153 167.888 L 187.152 168.349 L 188.172 168.761 L 188.018 167.671 L 187.560 166.672 L 186.949 165.756 L 186.367 164.823 L 185.833 163.861 L 185.290 162.905 L 184.957 161.856 L 184.791 160.769 L 184.703 159.672 L 184.682 158.573 L 184.575 157.478 L 184.352 156.401 L 183.991 155.361 L 183.556 154.351 L 183.173 153.320 L 182.923 152.249 L 182.761 151.161 L 182.674 150.064 L 182.651 148.965 L 182.683 147.865 L 182.787 146.770 L 182.972 145.686 L 183.247 144.621 L 183.719 143.627 L 184.190 142.633 L 184.641 141.630 L 184.981 140.583 L 185.186 139.503 L 185.281 138.407 L 185.296 137.307 L 185.375 136.210 L 185.533 135.121 L 185.813 134.057 L 186.263 133.053 L 186.845 132.120 L 187.460 131.208 L 188.096 130.311 L 188.679 129.378 L 189.277 128.455 M 188.091 170.008 L 188.863 170.792 L 189.568 171.637 L 190.214 172.527 L 190.842 173.430 L 191.574 174.250 L 192.430 174.942 L 193.409 175.443 L 194.449 175.802 L 195.542 175.923 L 196.502 175.385 L 196.131 174.350 L 195.250 173.691 L 194.260 173.211 L 193.270 172.732 L 192.274 172.265 L 191.602 173.137 L 192.130 174.102 L 192.875 174.911 L 193.778 175.539 L 194.779 175.994 L 195.827 176.329 L 196.896 176.590 L 197.925 176.979 L 198.915 177.459 L 199.935 177.869 L 201.014 178.087 L 202.113 178.066 L 203.212 178.006 L 204.308 177.913 L 205.405 177.833 L 206.505 177.816 L 207.600 177.914 L 207.676 179.011 L 208.541 179.691 L 209.385 180.396 L 210.352 180.919 L 211.426 181.158 L 212.526 181.125 L 213.587 180.835 L 214.542 180.290 L 215.428 179.638 L 216.325 179.001 L 217.309 178.509 L 218.396 178.340 L 219.496 178.351 L 220.595 178.389 L 221.695 178.405 L 222.794 178.369 L 223.868 178.128 L 224.878 177.693 L 225.851 177.180 L 226.830 176.678 L 227.855 176.280 L 228.882 175.884 L 229.876 175.414 L 230.776 174.782 L 231.566 174.016 L 232.256 173.159 L 232.904 172.271 L 233.598 171.417 M 231.986 167.591 L 231.187 168.347 L 230.362 169.074 L 229.515 169.776 L 228.636 170.437 L 227.737 171.071 L 226.827 171.689 L 225.858 172.210 L 224.820 172.575 L 223.743 172.800 L 222.649 172.914 L 221.550 172.951 L 220.455 173.055 L 219.371 173.245 L 218.318 173.561 L 217.309 173.999 L 216.330 174.501 L 215.301 174.889 L 214.236 175.167 L 213.149 175.332 L 212.051 175.394 L 210.951 175.368 L 209.859 175.237 L 208.794 174.961 L 207.765 174.573 L 206.779 174.085 L 205.799 173.585 L 204.768 173.201 L 203.737 172.817 L 202.661 172.591 L 201.573 172.431 L 200.479 172.313 L 199.391 172.152 L 198.329 171.863 L 197.319 171.428 L 196.365 170.881 L 195.460 170.255 L 194.579 169.597 L 193.723 168.905 L 192.900 168.176 L 192.096 167.426 L 191.303 166.663 L 190.522 165.888 L 189.754 165.101" fill="none" stroke="#EC008C" stroke-width="1" vector-effect="non-scaling-stroke"/><path d="M 243.543 139.789 L 243.435 138.695 L 243.246 137.611 L 242.935 136.556 L 242.474 135.557 L 241.875 134.635 L 241.281 133.709 L 240.771 132.734 L 240.279 131.750 L 239.701 130.814 L 238.978 129.986 L 238.149 129.262 L 237.249 128.630 L 236.348 127.999 L 235.488 127.313 L 234.675 126.571 L 233.909 125.782 L 233.195 124.946 L 232.528 124.071 L 231.855 123.201 L 231.099 122.402 L 230.237 121.718 L 229.267 121.199 L 228.254 120.772 L 227.234 120.360 L 226.253 119.862 L 225.290 119.330 L 224.301 118.848 L 223.245 118.540 L 222.153 118.411 L 221.053 118.397 L 219.953 118.377 L 218.854 118.340 L 217.778 118.110 L 216.797 117.612 L 215.907 116.966 L 215.017 116.320 L 214.127 115.673 L 213.151 115.165 L 212.093 114.865 L 210.999 114.753 L 209.899 114.787 M 200.281 117.344 L 199.210 117.594 L 198.177 117.973 L 197.206 118.489 L 196.279 119.081 L 195.311 119.604 L 194.319 120.079 L 193.338 120.577 L 192.445 121.218 L 191.649 121.978 L 190.947 122.825 L 190.294 123.710 L 189.598 124.562 L 188.851 125.369 L 188.056 126.130 L 187.220 126.845 L 186.345 127.511 L 185.452 128.154 L 184.595 128.843 L 183.825 129.629 L 183.187 130.525 L 182.693 131.508 L 182.231 132.506 L 181.707 133.474 L 181.123 134.406 L 180.586 135.366 L 180.196 136.394 L 179.979 137.473 L 179.934 138.572 L 179.867 139.670 L 179.754 140.764 L 179.461 141.824 L 178.922 142.783 L 178.217 143.627 L 177.593 144.533 L 177.099 145.516 L 176.776 146.567 L 176.644 147.659 L 176.684 148.759 L 176.928 149.831 L 177.427 150.812 L 178.094 151.687 L 178.770 152.554 L 179.360 153.483 L 179.704 154.528 L 179.845 155.618 L 179.916 156.716 L 179.962 157.815 L 180.079 158.909 L 180.386 159.965 L 180.879 160.949 L 181.416 161.909 L 181.907 162.893 L 182.318 163.913 L 182.757 164.922 L 183.297 165.881 L 184.011 166.717 L 184.861 167.415 L 185.815 167.962 L 186.766 168.516 L 187.665 169.150 L 188.691 168.754 L 189.524 169.471 L 188.998 168.506 L 188.451 167.551 L 187.890 166.605 L 187.262 165.701 L 186.658 164.782 L 186.091 163.839 L 185.658 162.829 L 185.384 161.763 L 185.234 160.673 L 185.160 159.576 L 185.151 158.476 L 185.042 157.381 L 184.822 156.304 L 184.465 155.263 L 184.009 154.262 L 183.572 153.252 L 183.301 152.186 L 183.118 151.102 L 183.019 150.006 L 182.995 148.906 L 183.038 147.807 L 183.164 146.714 L 183.399 145.640 L 183.773 144.605 L 184.290 143.634 L 184.748 142.634 L 185.073 141.584 L 185.266 140.501 L 185.350 139.404 L 185.369 138.304 L 185.453 137.207 L 185.614 136.119 L 185.928 135.065 L 186.470 134.108 L 187.105 133.209 L 187.759 132.324 L 188.433 131.455 L 189.148 130.620 L 189.894 129.811 L 190.672 129.033 L 191.484 128.291 L 192.322 127.579 L 193.183 126.894 L 194.078 126.254 L 194.982 125.629 L 195.887 125.003 L 196.805 124.396 L 197.804 123.937 L 198.875 123.685 L 199.968 123.561 L 201.066 123.503 L 202.166 123.501 L 203.261 123.397 L 204.343 123.196 L 205.391 122.863 L 206.394 122.411 L 207.382 121.927 L 208.424 121.573 L 209.499 121.343 L 210.593 121.225 L 211.692 121.185 L 212.792 121.208 L 213.888 121.302 L 214.974 121.476 L 216.042 121.740 L 217.063 122.150 L 218.069 122.594 L 219.109 122.952 L 220.186 123.176 L 221.279 123.301 L 222.379 123.323 L 223.478 123.372 L 224.572 123.487 L 225.652 123.692 L 226.700 124.026 L 227.661 124.562 L 228.598 125.138 L 229.519 125.739 L 230.451 126.324 L 231.391 126.895 L 232.315 127.492 L 233.186 128.163 M 230.875 129.741 L 231.651 130.520 L 232.408 131.319 L 233.126 132.152 L 233.810 133.014 L 234.466 133.896 L 235.041 134.834 L 235.615 135.773 L 236.053 136.781 L 236.317 137.849 L 236.436 138.943 L 236.505 140.041 L 236.657 141.130 L 236.898 142.203 L 237.306 143.225 L 237.833 144.191 L 238.334 145.170 L 238.723 146.199 L 238.985 147.267 L 239.100 148.361 L 239.111 149.461 L 239.030 150.558 L 238.838 151.641 L 238.532 152.698 L 238.098 153.709 L 237.587 154.683 L 237.163 155.698 L 236.885 156.762 L 236.722 157.850 L 236.662 158.948 L 236.614 160.047 L 236.480 161.139 L 236.219 162.207 L 235.785 163.218 L 235.177 164.135 L 234.534 165.027 L 233.875 165.908 L 233.180 166.761 L 232.458 167.590 L 231.705 168.393 L 230.911 169.154 L 230.080 169.875 L 229.222 170.562 L 228.338 171.217 L 227.434 171.844 L 226.518 172.454 L 225.580 173.028 L 224.541 173.388 L 223.458 173.585 L 222.364 173.698 L 221.265 173.747 L 220.166 173.770 L 219.073 173.896 L 217.996 174.120 L 216.958 174.483 L 215.960 174.946 L 214.951 175.384 L 213.889 175.672 L 212.803 175.849 L 211.707 175.941 L 210.607 175.964 L 209.508 175.928 L 208.413 175.824 L 207.328 175.646 L 206.258 175.389 L 205.242 174.966 L 204.228 174.540 L 203.179 174.209 L 202.099 174.004 L 201.003 173.901 L 199.903 173.892 L 198.806 173.825 L 197.714 173.689 L 196.642 173.442 L 195.618 173.041 L 194.651 172.516 L 193.710 171.947 L 192.784 171.353 L 191.824 170.816 M 225.751 179.011 L 226.674 178.413 L 227.629 177.867 L 228.614 177.377 L 229.582 176.854 L 230.470 176.206 L 231.261 175.441 L 231.987 174.615 L 232.681 173.762 L 233.396 172.926 L 234.150 172.125 L 234.942 171.361 L 235.734 170.598 L 236.563 169.874 L 237.424 169.190 L 238.297 168.521 L 239.143 167.818 L 239.928 167.047 L 240.595 166.172 L 241.136 165.215 L 241.655 164.245 L 242.238 163.312 L 242.860 162.405 M 188.749 171.746 L 189.453 172.592 L 190.126 173.461 L 190.835 174.302 L 191.631 175.061 L 192.527 175.699 L 193.515 176.183 L 194.519 176.632 L 195.503 177.124 L 196.447 177.689 L 197.408 178.224 L 198.431 178.630 L 199.501 178.883 L 200.595 178.994 L 201.693 179.063 L 202.787 179.177 L 203.866 179.392 L 204.875 179.830 L 205.778 180.458 L 206.684 181.082 L 207.662 181.585 L 208.696 181.962 L 209.777 182.163 L 210.876 182.214 L 211.972 182.118 L 213.035 181.835 L 214.014 181.334 L 214.907 180.692 L 215.801 180.050 L 216.690 179.403 L 217.661 178.885 L 218.733 178.640 L 219.832 178.595 L 220.932 178.581 L 222.032 178.569 L 223.126 178.462" fill="none" stroke="#FFF200" stroke-width="1" vector-effect="non-scaling-stroke"/></svg>