<svg xmlns="http://www.w3.org/2000/svg" viewBox="170.47892180502106 107.40398201001526 81.43374525310554 84.72191678735356" width="81.43374525310554" height="84.72191678735356" shape-rendering="geometricPrecision"><rect x="170.47892180502106" y="107.40398201001526" width="81.43374525310554" height="84.72191678735356" fill="#0b0f14"/><path d="M 243.913 137.206 L 243.683 136.131 L 243.264 135.114 L 242.625 134.218 L 241.879 133.410 L 241.177 132.563 L 240.513 131.686 L 239.836 130.819 L 239.200 129.921 L 238.605 128.996 L 238.014 128.068 L 237.339 127.200 L 236.598 126.387 L 235.820 125.609 L 235.009 124.866 L 234.144 124.186 L 233.208 123.609 L 232.253 123.062 L 231.326 122.471 L 230.434 121.826 L 229.543 121.181 L 228.667 120.516 L 227.842 119.788 L 226.982 119.103 L 226.004 118.600 L 224.941 118.316 L 223.843 118.262 L 222.748 118.368 L 221.651 118.449 L 220.551 118.479 L 219.464 118.309 L 218.458 117.866 L 217.531 117.274 L 216.635 116.635 L 215.671 116.106 L 214.626 115.762 L 213.542 115.575 L 212.446 115.476 L 211.346 115.464 L 210.249 115.541 L 209.162 115.709 L 208.111 116.034 L 207.156 116.580 L 206.277 117.241 L 205.341 117.818 L 204.318 118.223 L 203.234 118.414 L 202.135 118.434 L 201.036 118.376 L 199.939 118.293 L 198.839 118.279 L 197.764 118.513 L 196.790 119.024 L 195.901 119.671 L 195.044 120.360 L 194.135 120.981 L 193.225 121.599 L 192.312 122.212 L 191.361 122.765 L 190.388 123.278 L 189.427 123.813 L 188.545 124.470 L 187.725 125.203 L 186.949 125.983 L 186.225 126.811 L 185.605 127.720 L 185.130 128.712 L 184.722 129.734 L 184.578 130.824 L 184.415 131.912 L 183.965 132.916 L 184.806 132.207 L 185.633 131.481 L 186.400 130.693 L 187.080 129.828 L 187.819 129.013 L 188.608 128.247 L 189.387 127.470 L 190.205 126.735 L 191.103 126.100 L 191.943 125.390 L 192.716 124.607 L 193.487 123.823 L 194.458 123.306 L 195.532 123.064 L 196.616 122.881 L 197.711 122.770 L 198.810 122.732 L 199.910 122.724 L 201.010 122.722 L 202.102 122.590 L 203.124 122.183 L 203.971 121.482 L 204.971 121.024 L 206.030 120.725 L 207.109 120.511 L 208.196 120.342 L 209.290 120.223 L 210.389 120.176 L 211.489 120.193 L 212.585 120.280 L 213.673 120.446 L 214.753 120.653 L 215.818 120.929 L 216.859 121.282 L 217.825 121.809 L 218.810 122.299 L 219.883 122.542 L 220.983 122.544 L 222.083 122.557 L 223.182 122.581 L 224.279 122.666 L 225.367 122.831 L 226.446 123.043 L 227.390 122.479 L 228.267 123.143 L 229.027 123.938 L 229.803 124.718 L 230.638 125.434 L 231.528 126.080 L 232.335 126.828 L 233.116 127.603 L 233.906 128.368 L 234.631 129.196 L 235.290 130.076 L 236.042 130.879 L 236.868 131.605 L 237.607 132.420 L 238.024 133.438 L 238.243 134.516 L 238.421 135.602 L 238.512 136.698 L 238.532 137.798 L 238.539 138.898 L 238.538 139.998 L 238.778 141.071 L 239.282 142.049 L 239.823 143.007 L 240.195 144.042 L 240.469 145.107 L 240.677 146.188 L 240.845 147.275 L 240.932 148.371 L 240.946 149.471 L 240.886 150.569 L 240.741 151.660 L 240.538 152.741 L 240.275 153.809 L 239.939 154.856 L 239.437 155.835 L 238.871 156.778 L 238.522 157.821 L 238.471 158.920 L 238.469 160.020 L 238.462 161.120 L 238.406 162.219 L 238.266 163.310 L 238.054 164.389 L 237.711 165.434 L 238.764 165.753 L 238.047 166.588 L 237.238 167.333 L 236.448 168.098 L 235.724 168.927 L 235.052 169.798 L 234.290 170.591 L 233.504 171.360 L 232.728 172.140 L 231.886 172.848 L 230.999 173.499 L 230.190 174.244 L 229.456 175.063 L 228.594 175.747 L 227.562 176.127 L 226.482 176.339 L 225.395 176.506 L 224.298 176.590 L 223.199 176.604 L 222.099 176.609 L 220.999 176.609 L 219.923 176.841 L 218.937 177.328 L 217.980 177.870 L 216.942 178.234 L 217.812 178.908 L 216.775 179.276 L 215.683 179.410 L 214.589 179.524 L 213.494 179.630 L 212.395 179.680 L 211.295 179.684 L 210.196 179.641 L 209.101 179.537 L 208.009 179.405 L 206.922 179.236 L 205.864 178.937 L 204.890 178.425 L 204.008 177.768 L 202.981 177.373 L 201.885 177.288 L 200.785 177.257 L 199.686 177.207 L 198.589 177.127 L 197.497 176.997 L 196.409 176.837 L 195.312 176.918 L 194.374 176.342 L 193.580 175.581 L 192.802 174.803 L 191.981 174.071 L 191.097 173.417 L 190.273 172.688 L 189.495 171.910 L 188.707 171.143 L 187.964 170.332 L 187.317 169.443 L 186.606 168.603 L 185.851 167.803 L 185.157 166.950 L 184.706 165.946 L 184.452 164.876 L 184.266 163.792 L 184.179 162.695 L 184.173 161.595 L 184.177 160.495 L 184.182 159.395 L 183.960 158.318 L 183.489 157.324 L 182.933 156.375 L 181.837 156.280 L 181.445 155.252 L 181.259 154.168 L 181.116 153.077 L 180.990 151.984 L 180.930 150.886 L 180.925 149.786 L 180.976 148.687 L 181.097 147.594 L 181.255 146.505 L 181.465 145.425 L 181.793 144.375 L 182.276 143.387 L 182.884 142.471 L 183.239 141.429 L 183.268 140.330 L 183.299 139.230 L 183.348 138.131 L 183.436 137.035 L 183.584 135.945 L 183.749 134.857 L 183.965 133.779 L 184.566 132.858 L 185.322 132.059 L 186.079 131.260 L 186.778 130.411 L 187.462 129.549 L 188.226 128.758 L 189.011 127.987 L 189.798 127.219 L 190.647 126.520 L 191.543 125.881 L 192.384 125.173 L 193.220 124.457 L 194.149 123.868 L 195.078 123.279 L 196.127 122.947 L 197.209 122.751 L 198.299 122.601 L 199.396 122.526 L 200.496 122.502 L 201.596 122.489 L 202.696 122.488 L 203.757 122.197 L 204.722 121.669 L 205.703 121.172 L 206.749 120.832 L 207.818 120.573 L 208.901 120.377 L 209.990 120.223 L 211.087 120.150 L 212.187 120.144 L 213.286 120.202 L 214.378 120.332 L 215.465 120.503 L 216.542 120.724 L 217.595 121.042 L 218.570 121.553 L 219.458 122.201 L 220.497 122.564 L 221.594 122.637 L 222.694 122.643 L 223.794 122.656 L 224.893 122.711 L 225.985 122.838 L 227.070 123.022 L 228.141 123.275 L 229.084 123.841 L 229.776 124.696 L 230.551 125.476 L 231.401 126.175 L 232.286 126.828 L 233.096 127.572 L 233.876 128.347 L 234.666 129.113 L 235.395 129.937 L 236.084 130.794 L 236.866 131.568 L 237.702 132.283 L 238.568 132.961 L 238.077 131.977 L 237.753 130.925 L 237.727 129.826 L 237.314 128.806 L 236.846 127.811 L 236.239 126.893 L 235.522 126.059 L 234.751 125.275 L 233.936 124.535 L 233.061 123.869 L 232.109 123.318 L 231.136 122.805 L 230.184 122.255 L 229.269 121.644 L 228.361 121.023 L 227.451 120.404 L 226.593 119.717 L 225.711 119.059 L 224.747 118.529 L 223.679 118.267 L 222.579 118.250 L 221.482 118.331 L 220.383 118.386 L 219.284 118.373 L 218.199 118.191 L 217.174 117.791 L 216.232 117.222 L 215.349 116.567 L 214.402 116.008 L 213.356 115.667 L 212.270 115.490 L 211.173 115.404 L 210.073 115.405 L 208.977 115.493 L 207.891 115.667 L 206.837 115.982 L 205.855 116.477 L 204.946 117.097 L 204.030 117.706 L 203.045 118.195 L 201.966 118.413 L 200.866 118.414 L 199.769 118.343 L 198.673 118.246 L 197.573 118.273 L 196.504 118.529 L 195.512 119.004 L 194.640 119.675 L 193.816 120.404 L 192.946 121.077 L 192.055 121.722 L 191.169 122.373 L 190.247 122.973 L 189.296 123.526 L 188.353 124.093 L 187.480 124.763 L 186.663 125.500 L 185.881 126.273 L 185.133 127.079 L 184.446 127.939 L 183.846 128.860 L 183.254 129.788 L 182.623 130.688 L 181.949 131.558 L 181.286 132.436 L 180.591 133.288 L 179.841 134.093 L 179.178 134.971 L 178.730 135.975 L 178.479 137.046 M 223.910 181.910 L 224.985 181.675 L 226.000 181.250 L 226.895 180.611 L 227.715 179.877 L 228.574 179.191 L 229.461 178.540 L 230.339 177.877 L 231.247 177.256 L 232.182 176.677 L 233.117 176.098 L 233.994 175.433 L 234.816 174.702 L 235.603 173.934 L 236.355 173.132 L 237.108 172.329 L 237.800 171.474 L 238.403 170.554 L 238.983 169.620 L 239.604 168.712 L 240.270 167.836 L 240.931 166.957 L 241.616 166.097 L 242.361 165.287 L 243.050 164.429 L 243.530 163.439 L 243.801 162.374 M 193.813 179.077 L 194.633 179.811 L 195.516 180.467 L 196.516 180.925 L 197.588 181.172 L 198.687 181.202 L 199.785 181.122 L 200.884 181.075 L 201.983 181.113 L 203.049 181.383 L 204.014 181.912 L 204.918 182.537 L 205.849 183.124 L 206.848 183.584 L 207.908 183.877 L 208.996 184.043 L 210.093 184.126 L 211.193 184.126 L 212.289 184.042 L 213.376 183.871 L 214.428 183.549 L 215.391 183.018 L 216.355 182.487 L 217.243 181.839 L 218.173 181.252 L 219.189 180.828 L 220.278 180.676 L 221.377 180.718" fill="none" stroke="#EC008C" stroke-width="1" vector-effect="non-scaling-stroke"/></svg>