<svg xmlns="http://www.w3.org/2000/svg" viewBox="170.90531718847217 108.29949801574587 82.39169477366443 80.47483396917592" width="82.39169477366443" height="80.47483396917592" shape-rendering="geometricPrecision"><rect x="170.90531718847217" y="108.29949801574587" width="82.39169477366443" height="80.47483396917592" fill="#0b0f14"/><path d="M 179.532 160.534 L 179.893 161.573 L 180.350 162.574 L 180.910 163.520 L 181.566 164.404 L 182.284 165.237 L 182.958 166.106 L 183.603 166.997 L 184.240 167.894 L 184.893 168.779 L 185.587 169.633 L 186.324 170.450 L 187.088 171.240 L 187.877 172.007 L 188.691 172.747 L 189.528 173.460 L 190.400 174.131 L 191.302 174.760 L 192.218 175.370 L 193.130 175.986 L 194.022 176.629 L 194.882 177.314 L 195.775 177.957 L 196.726 178.511 L 197.726 178.969 L 198.763 179.336 L 199.823 179.627 L 200.899 179.858 L 201.984 180.035 L 203.077 180.162 L 204.172 180.266 L 205.268 180.363 L 206.364 180.451 L 207.461 180.531 L 208.560 180.596 L 209.659 180.642 L 210.758 180.669 L 211.858 180.674 L 212.958 180.658 L 214.058 180.622 L 215.156 180.568 L 216.254 180.496 L 217.351 180.414 L 218.447 180.324 L 219.543 180.227 L 220.638 180.125 L 221.728 179.976 L 222.809 179.772 L 223.876 179.505 L 224.922 179.165 L 225.932 178.728 L 226.890 178.189 L 227.788 177.553 L 228.668 176.893 L 229.564 176.255 L 230.482 175.649 L 231.406 175.052 L 232.316 174.434 L 233.196 173.775 L 234.043 173.072 L 234.866 172.342 L 235.660 171.581 L 236.424 170.790 L 237.158 169.971 L 237.859 169.123 L 238.511 168.237 L 239.130 167.327 L 239.746 166.416 L 240.391 165.525 L 241.069 164.659 L 241.733 163.782 L 242.329 162.857 L 242.820 161.873 L 243.207 160.843 L 243.502 159.784 L 243.713 158.704 L 243.839 157.611 L 243.905 156.513 L 243.966 155.415 L 244.020 154.316 L 244.065 153.217 L 244.103 152.118 L 244.130 151.018 L 244.146 149.918 L 244.149 148.818 L 244.140 147.718 L 244.120 146.619 L 244.090 145.519 L 244.050 144.420 L 244.003 143.321 L 243.948 142.222 L 243.888 141.124 L 243.814 140.026 L 243.655 138.938 L 243.408 137.866 L 243.063 136.821 L 242.612 135.818 L 242.043 134.876 L 241.421 133.970 L 240.776 133.078 L 240.145 132.177 L 239.557 131.248 L 238.971 130.317 L 238.352 129.408 L 237.677 128.539 L 236.965 127.701 L 236.219 126.892 L 235.436 126.119 L 234.616 125.386 L 233.763 124.691 L 232.883 124.032 L 231.961 123.431 L 231.007 122.884 L 230.039 122.362 L 229.091 121.804 L 228.169 121.204 L 227.243 120.609 L 226.293 120.056 L 225.304 119.574 L 224.269 119.203 L 223.200 118.941 L 222.110 118.792 L 221.011 118.762 L 219.911 118.772 L 218.811 118.788 L 217.711 118.812 L 216.612 118.843 L 215.512 118.871 L 214.412 118.890 L 213.312 118.900 L 212.212 118.901 L 211.112 118.892 L 210.012 118.874 L 208.913 118.849 L 207.813 118.818 L 206.713 118.795 L 205.613 118.779 L 204.513 118.769 L 203.414 118.779 L 202.321 118.909 L 201.250 119.157 L 200.214 119.528 L 199.218 119.994 L 198.259 120.534 L 197.322 121.109 L 196.379 121.676 L 195.402 122.182 L 194.407 122.651 L 193.434 123.163 L 192.501 123.747 L 191.611 124.393 L 190.749 125.076 L 189.926 125.805 L 189.151 126.586 L 188.427 127.415 L 187.742 128.276 L 187.114 129.179 L 186.597 130.150 L 186.272 131.200 L 186.136 132.292 L 185.754 133.324 L 185.201 134.274 L 184.623 135.211 L 184.108 136.182 L 183.724 137.213 L 183.503 138.291 L 183.492 139.391 L 183.696 140.471 L 184.085 141.500 L 184.959 140.831 L 185.430 139.838 L 185.712 138.774 L 185.916 137.693 L 186.107 136.610 L 186.439 135.561 L 187.041 134.641 L 187.786 133.831 L 188.577 133.067 L 189.371 132.306 L 190.108 131.489 L 190.781 130.619 L 191.523 129.807 L 192.319 129.048 L 193.165 128.345 L 194.065 127.712 L 194.889 126.983 L 195.683 126.222 L 196.505 125.490 L 197.419 124.879 L 198.426 124.436 L 199.478 124.115 L 200.543 123.840 L 201.620 123.616 L 202.698 123.398 L 203.770 123.150 L 204.842 122.905 L 205.914 122.659 L 206.985 122.408 L 208.053 122.142 L 209.121 121.880 L 210.170 121.550 L 209.172 121.087 L 208.109 120.806 L 207.027 120.609 L 205.937 120.457 L 204.844 120.333 L 203.749 120.226 L 202.651 120.278 L 201.573 120.496 L 200.533 120.857 L 199.494 121.218 L 198.507 121.703 L 197.555 122.254 L 196.597 122.795 L 195.574 123.198 L 194.487 123.368 L 193.421 123.639 L 192.425 124.107 L 191.496 124.695 L 190.609 125.346 L 189.752 126.036 L 188.940 126.778 L 188.178 127.571 L 187.463 128.407 L 186.784 129.272 L 186.162 130.180 L 185.619 131.136 L 185.130 132.121 L 184.619 133.096 L 184.035 134.028 L 183.434 134.949 L 182.866 135.891 L 182.369 136.872 L 181.972 137.898 L 181.705 138.965 L 181.568 140.057 L 181.566 141.157 L 181.581 142.257 L 181.604 143.356 L 181.634 144.456 L 181.670 145.555 L 181.700 146.655 L 181.719 147.755 L 181.727 148.855 L 181.723 149.955 L 181.707 151.055 L 181.680 152.154 L 181.644 153.254 L 181.609 154.353 L 181.582 155.453 L 181.564 156.553 L 181.552 157.653 L 181.646 158.749 L 181.868 159.826 L 182.211 160.871 L 182.675 161.869 L 183.228 162.819 L 183.836 163.736 L 184.463 164.640 L 185.064 165.561 L 185.606 166.519 L 186.161 167.468 L 186.768 168.386 L 187.437 169.258 L 188.147 170.099 L 188.893 170.907 L 189.678 171.678 L 190.500 172.409 L 191.353 173.104 L 192.232 173.765 L 193.149 174.371 L 194.092 174.938 L 195.040 175.496 L 195.970 176.083 L 196.881 176.700 L 197.799 177.307 L 198.743 177.871 L 199.738 178.341 L 200.776 178.703 L 201.843 178.971 L 202.928 179.154 L 204.023 179.257 L 205.121 179.314 L 206.220 179.366 L 207.319 179.411 L 208.419 179.450 L 209.518 179.482 L 210.618 179.505 L 211.718 179.520 L 212.818 179.524 L 213.918 179.517 L 215.018 179.500 L 216.117 179.474 L 217.217 179.439 L 218.316 179.397 L 219.415 179.347 L 220.513 179.292 L 221.612 179.232 L 222.705 179.106 L 223.786 178.903 L 224.849 178.620 L 225.885 178.252 L 226.881 177.784 L 227.822 177.215 L 228.721 176.581 L 229.609 175.931 L 230.517 175.311 L 231.445 174.721 L 232.373 174.129 L 233.280 173.507 L 234.152 172.837 L 234.996 172.131 L 235.813 171.395 L 236.601 170.627 L 237.358 169.829 L 238.088 169.006 L 238.778 168.150 L 239.424 167.259 L 240.047 166.352 L 240.675 165.450 L 241.337 164.571 L 242.022 163.710 L 242.688 162.835 L 243.257 161.893 L 243.718 160.895 L 244.078 159.855 L 244.358 158.792 L 244.570 157.712 L 244.722 156.623 L 244.830 155.528 L 244.932 154.433 L 245.026 153.337 L 245.111 152.240 L 245.183 151.142 L 245.236 150.044 L 245.268 148.944 L 245.277 147.844 L 245.264 146.744 L 245.227 145.645 L 245.169 144.546 L 245.090 143.449 L 245.001 142.353 L 244.902 141.257 L 244.795 140.163 L 244.681 139.068 L 244.515 137.981 L 244.292 136.904 L 244.006 135.842 L 243.647 134.802 L 243.194 133.800 L 242.640 132.849 L 241.993 131.960 L 241.272 131.129 L 240.593 130.264 L 239.947 129.373 L 239.312 128.475 L 238.662 127.587 L 237.974 126.729 L 237.243 125.908 L 236.482 125.113 L 235.696 124.344 L 234.886 123.600 L 234.054 122.880 L 233.186 122.204 L 232.286 121.571 L 231.372 120.959 L 230.460 120.344 L 229.565 119.704 L 228.701 119.024 L 227.814 118.374 L 226.867 117.813 L 225.868 117.353 L 224.831 116.986 L 223.770 116.695 M 219.478 121.062 L 218.410 121.327 L 217.440 121.846 L 218.358 122.453 L 219.416 122.753 L 220.480 123.030 L 221.547 123.301 L 222.623 123.528 L 223.702 123.744 L 224.770 124.008 L 225.824 124.320 L 226.832 124.760 L 227.740 125.381 L 228.546 126.130 L 229.328 126.903 L 230.139 127.647 L 231.035 128.285 L 231.885 128.983 L 232.686 129.737 L 233.433 130.545 L 234.115 131.407 L 234.844 132.231 L 235.642 132.989 L 236.442 133.743 L 237.206 134.534 L 237.842 135.432 L 238.194 136.474 L 238.369 137.560 L 238.562 138.643 L 238.834 139.709 L 239.293 140.709 L 240.173 141.369 L 240.559 140.339 L 240.764 139.258 L 240.725 138.159 L 240.483 137.086 L 240.080 136.062 M 240.495 160.792 L 240.866 159.757 L 241.083 158.678 L 241.107 157.579 L 240.963 156.488 L 240.776 155.404 L 239.881 154.764 L 239.240 155.658 L 238.796 156.664 L 238.496 157.722 L 238.195 158.780 L 237.962 159.855 L 237.727 160.930 L 237.428 161.989 L 236.925 162.966 L 236.149 163.747 L 235.298 164.443 L 234.470 165.167 L 233.679 165.932 L 233.005 166.801 L 232.286 167.634 L 231.512 168.415 L 230.686 169.142 L 229.807 169.804 L 228.953 170.496 L 228.170 171.269 L 227.394 172.048 L 226.587 172.796 L 225.686 173.426 L 224.644 173.779 L 223.556 173.943 L 222.470 174.116 L 221.395 174.350 L 220.360 174.723 L 219.492 175.398 L 220.322 176.121 L 221.405 176.313 L 222.505 176.322 L 223.588 176.133 L 224.633 175.790 L 225.627 175.318 L 226.580 174.769 L 227.535 174.223" fill="none" stroke="#00AEEF" stroke-width="1" vector-effect="non-scaling-stroke"/><path d="M 244.913 137.022 L 244.596 135.968 L 244.192 134.945 L 243.688 133.967 L 243.082 133.049 L 242.389 132.195 L 241.692 131.344 L 241.033 130.464 L 240.394 129.568 L 239.753 128.674 L 239.085 127.800 L 238.371 126.963 L 237.619 126.160 L 236.843 125.381 L 236.043 124.626 L 235.219 123.897 L 234.366 123.203 L 233.477 122.555 L 232.567 121.937 L 231.651 121.328 L 230.747 120.702 L 229.868 120.040 L 229.006 119.357 L 228.085 118.754 L 227.111 118.245 L 226.092 117.830 L 225.042 117.501 L 223.974 117.239 L 222.893 117.033 L 221.804 116.878 L 220.710 116.770 L 219.614 116.668 L 218.518 116.574 L 217.422 116.488 L 216.324 116.412 L 215.226 116.355 L 214.126 116.317 L 213.027 116.299 L 211.927 116.303 L 210.827 116.328 L 209.728 116.373 L 208.630 116.436 L 207.532 116.513 L 206.436 116.599 L 205.340 116.694 L 204.244 116.794 L 203.151 116.915 L 202.065 117.087 L 200.989 117.317 L 199.930 117.614 L 198.897 117.994 L 197.908 118.475 L 196.974 119.056 L 196.088 119.708 L 195.209 120.369 L 194.302 120.991 L 193.379 121.591 L 192.460 122.194 L 191.560 122.828 L 190.698 123.510 L 189.861 124.224 L 189.050 124.967 L 188.268 125.741 L 187.517 126.545 L 186.793 127.373 L 186.114 128.238 L 185.479 129.136 L 184.865 130.049 L 184.239 130.953 L 183.573 131.829 L 182.896 132.696 L 182.245 133.582 L 181.693 134.534 L 181.247 135.540 L 180.900 136.583 L 180.640 137.652 L 180.464 138.738 L 180.370 139.834 L 180.304 140.932 L 180.244 142.030 L 180.192 143.129 L 180.148 144.228 L 180.114 145.328 L 180.090 146.428 L 180.079 147.527 L 180.080 148.627 L 180.094 149.727 L 180.120 150.827 L 180.156 151.926 L 180.200 153.026 L 180.251 154.124 L 180.310 155.223 L 180.374 156.321 L 180.483 157.416 L 180.678 158.498 L 180.963 159.561 L 181.347 160.591 L 181.844 161.573 L 182.439 162.498 L 183.076 163.395 L 183.721 164.286 L 184.332 165.201 L 184.917 166.132 L 185.514 167.056 L 186.153 167.951 L 186.845 168.806 L 187.570 169.633 L 188.330 170.429 L 189.128 171.186 L 189.961 171.904 L 190.824 172.587 L 191.717 173.229 L 192.652 173.809 L 193.612 174.346 L 194.575 174.877 L 195.508 175.460 L 196.426 176.065 L 197.358 176.650 L 198.321 177.181 L 199.330 177.620 L 200.379 177.950 L 201.457 178.172 L 202.551 178.281 L 203.651 178.279 L 204.751 178.270 L 205.851 178.255 L 206.951 178.233 L 208.050 178.204 L 209.150 178.183 L 210.250 178.168 L 211.350 178.162 L 212.450 178.164 L 213.550 178.175 L 214.650 178.193 L 215.750 178.217 L 216.849 178.242 L 217.949 178.259 L 219.049 178.270 L 220.149 178.275 L 221.248 178.220 L 222.334 178.048 L 223.395 177.758 L 224.417 177.351 L 225.399 176.855 L 226.348 176.299 L 227.283 175.719 L 228.233 175.165 L 229.225 174.689 L 230.212 174.205 L 231.173 173.669 L 232.088 173.059 L 232.967 172.397 L 233.817 171.699 L 234.625 170.952 L 235.383 170.155 L 236.091 169.313 L 236.761 168.441 L 237.362 167.520 L 237.832 166.525 L 238.055 165.448 L 238.307 164.377 L 238.787 163.387 L 239.362 162.450 L 239.923 161.504 L 240.396 160.510 L 240.732 159.463 L 240.897 158.375 L 240.840 157.277 L 240.643 156.195 L 240.293 155.152 L 239.393 155.785 L 238.883 156.759 L 238.571 157.814 L 238.343 158.890 L 238.132 159.970 L 237.857 161.035 L 237.350 162.011 L 236.664 162.871 L 235.899 163.661 L 235.114 164.432 L 234.347 165.221 L 233.672 166.089 L 232.947 166.917 L 232.167 167.692 L 231.336 168.413 L 230.458 169.075 L 229.597 169.760 L 228.786 170.503 L 227.952 171.220 L 227.043 171.840 L 226.050 172.314 L 225.006 172.658 L 223.947 172.958 L 222.877 173.211 L 221.797 173.421 L 220.720 173.645 L 219.641 173.861 L 218.561 174.067 L 217.479 174.265 L 216.395 174.455 L 215.306 174.608 L 214.211 174.711 L 213.112 174.758 L 212.012 174.753 L 210.913 174.696 L 209.818 174.591 L 208.728 174.445 L 207.642 174.271 L 206.557 174.089 L 205.474 173.897 L 204.393 173.694 L 203.312 173.488 L 202.238 173.252 L 201.176 172.967 L 200.126 172.639 L 199.092 172.262 L 198.103 171.781 L 197.163 171.210 L 196.263 170.577 L 195.383 169.917 L 194.480 169.289 L 193.628 168.593 L 192.822 167.845 L 192.061 167.051 L 191.350 166.211 L 190.694 165.328 L 190.040 164.444 L 189.433 163.527 L 188.899 162.565 L 188.449 161.561 L 188.058 160.533 L 187.691 159.496 L 187.357 158.448 L 187.063 157.388 L 186.822 156.315 L 186.638 155.230 L 186.495 154.139 L 186.365 153.047 L 186.261 151.952 L 186.190 150.854 L 186.153 149.755 L 186.149 148.655 L 186.176 147.555 L 186.236 146.457 L 186.328 145.361 L 186.448 144.267 L 186.594 143.177 L 186.788 142.094 L 187.046 141.025 L 187.371 139.974 L 187.733 138.935 L 188.124 137.907 L 188.534 136.886 L 188.964 135.874 L 189.454 134.889 L 189.993 133.930 L 190.569 132.993 L 191.234 132.117 L 191.964 131.294 L 192.693 130.471 L 193.463 129.684 L 194.268 128.935 L 195.109 128.226 L 195.994 127.572 L 196.941 127.013 L 197.906 126.486 L 198.897 126.007 L 199.913 125.586 L 200.942 125.197 L 201.977 124.825 L 203.021 124.478 L 204.076 124.166 L 205.145 123.908 L 206.228 123.713 L 207.318 123.567 L 208.411 123.447 L 209.507 123.347 L 210.604 123.276 L 211.704 123.235 L 212.804 123.223 L 213.903 123.241 L 215.002 123.290 L 216.099 123.370 L 217.194 123.481 L 218.286 123.608 L 219.377 123.750 L 220.462 123.931 L 221.536 124.169 L 222.599 124.451 L 223.652 124.770 L 224.695 125.121 L 225.730 125.493 L 226.739 125.932 L 227.707 126.453 L 228.634 127.046 L 229.531 127.682 L 230.435 128.309 L 231.294 128.996 L 232.110 129.734 L 232.880 130.519 L 233.598 131.353 L 234.260 132.231 L 234.957 133.082 L 235.626 133.955 L 236.232 134.874 L 236.737 135.850 L 237.128 136.879 L 237.463 137.927 L 237.748 138.989 L 237.976 140.065 L 238.208 141.140 L 238.435 142.217 L 238.652 143.295 L 238.861 144.375 L 239.062 145.456 L 239.228 146.544 L 239.344 147.638 L 239.396 148.737 L 239.383 149.836 L 239.294 150.933 L 239.135 152.021 L 238.925 153.101 L 238.694 154.177 L 238.460 155.251 L 238.220 156.325 L 237.972 157.397 L 237.740 158.472 L 237.504 159.546 L 237.215 160.608 L 236.879 161.655 L 236.436 162.662 L 235.832 163.581 L 235.100 164.402 L 234.324 165.182 L 233.562 165.975 L 232.899 166.853 L 232.173 167.679 L 231.393 168.455 L 230.562 169.176 L 229.679 169.832 L 228.828 170.529 L 228.029 171.285 L 227.222 172.032 L 226.367 172.725 L 225.417 173.278 L 224.375 173.631 L 223.295 173.841 L 222.213 174.040 L 221.141 174.283 L 220.101 174.644 L 219.141 175.181 L 218.990 176.271 L 220.074 176.458 L 221.164 176.601 L 222.264 176.635 L 223.353 176.481 L 224.410 176.175 L 225.421 175.742 L 226.388 175.219 L 227.337 174.662 L 228.311 174.150 L 229.352 173.795 L 230.434 173.599 L 231.449 173.174 L 232.402 172.624 L 233.303 171.994 L 234.172 171.319 L 235.004 170.600 L 235.789 169.829 L 236.526 169.012 L 237.224 168.163 L 237.879 167.279 L 238.462 166.346 L 238.982 165.377 L 239.474 164.393 L 240.039 163.449 L 240.643 162.530 L 241.235 161.602 L 241.772 160.643 L 242.223 159.639 L 242.554 158.590 L 242.758 157.509 L 242.835 156.412 L 242.833 155.312 L 242.824 154.212 L 242.808 153.112 L 242.785 152.012 L 242.761 150.913 L 242.744 149.813 L 242.734 148.713 L 242.733 147.613 L 242.739 146.513 L 242.754 145.413 L 242.777 144.313 L 242.805 143.213 L 242.825 142.114 L 242.836 141.014 L 242.841 139.914 L 242.812 138.814 L 242.652 137.726 L 242.375 136.661 L 241.980 135.634 L 241.469 134.661 L 240.884 133.729 L 240.259 132.824 L 239.631 131.921 L 239.051 130.986 L 238.498 130.035 L 237.917 129.101 L 237.281 128.204 L 236.590 127.348 L 235.864 126.521 L 235.102 125.728 L 234.301 124.974 L 233.466 124.258 L 232.605 123.574 L 231.711 122.932 L 230.784 122.341 L 229.839 121.777 L 228.899 121.206 L 227.985 120.594 L 227.077 119.973 L 226.153 119.377 L 225.190 118.844 L 224.175 118.421 L 223.124 118.097 L 222.049 117.861 L 220.960 117.705 L 219.863 117.625 L 218.765 117.565 L 217.666 117.510 L 216.567 117.462 L 215.468 117.421 L 214.369 117.389 L 213.269 117.366 L 212.169 117.354 L 211.069 117.353 L 209.969 117.365 L 208.869 117.387 L 207.770 117.421 L 206.671 117.463 L 205.572 117.512 L 204.473 117.569 L 203.375 117.632 L 202.278 117.710 L 201.188 117.864 L 200.112 118.092 L 199.056 118.400 L 198.030 118.795 L 197.048 119.291 L 196.122 119.885 L 195.232 120.531 L 194.347 121.184 L 193.433 121.797 L 192.505 122.388 L 191.584 122.988 L 190.686 123.624 L 189.829 124.314 L 188.994 125.029 L 188.185 125.775 L 187.405 126.551 L 186.656 127.356 L 185.931 128.184 L 185.255 129.051 L 184.616 129.947 L 183.993 130.853 L 183.355 131.749 L 182.678 132.616 L 181.993 133.477 L 181.354 134.373 L 180.817 135.332 L 180.386 136.344 L 180.049 137.392 L 179.788 138.460 L 179.591 139.542 L 179.450 140.633 L 179.340 141.728 L 179.236 142.823 L 179.142 143.919 L 179.057 145.015 L 178.986 146.113 L 178.936 147.212 L 178.909 148.312 L 178.905 149.412 L 178.925 150.511 L 178.968 151.611 L 179.033 152.709 L 179.116 153.806 L 179.211 154.901 L 179.315 155.997 L 179.428 157.091 L 179.555 158.183 L 179.734 159.269 L 179.970 160.343 L 180.269 161.402 L 180.644 162.436 L 181.115 163.430 L 181.685 164.370 L 182.347 165.249 L 183.062 166.085 L 183.734 166.956 L 184.377 167.848 L 185.014 168.745 L 185.669 169.629 L 186.365 170.481 L 187.103 171.296 L 187.869 172.086 L 188.659 172.851 L 189.473 173.591 L 190.313 174.301 L 191.188 174.969 L 192.091 175.596 L 193.006 176.207 L 193.916 176.825 L 194.805 177.472 L 195.663 178.161 L 196.561 178.796 L 197.519 179.337 L 198.526 179.779 L 199.569 180.130 L 200.633 180.409 M 217.400 125.685 L 218.443 126.034 L 219.467 126.435 L 220.471 126.885 L 221.468 127.349 L 222.465 127.814 L 223.458 128.288 L 224.436 128.792 L 225.383 129.351 L 226.291 129.972 L 227.158 130.649 L 227.987 131.372 L 228.815 132.096 L 229.610 132.856 L 230.369 133.652 L 231.085 134.487 L 231.747 135.366 L 232.346 136.289 L 232.883 137.249 L 233.383 138.229 L 233.870 139.215 L 234.356 140.202 L 234.835 141.192 L 235.265 142.204 L 235.640 143.238 L 235.961 144.291 L 236.230 145.357 L 236.417 146.441 L 236.531 147.535 L 236.580 148.634 L 236.575 149.734 L 236.512 150.832 L 236.387 151.925 L 236.191 153.008 L 235.930 154.076 L 235.620 155.132 L 235.255 156.169 L 234.833 157.185 L 234.375 158.185 L 233.907 159.181 L 233.438 160.176 L 232.972 161.172 L 232.473 162.152 L 231.904 163.094 L 231.264 163.989 L 230.558 164.832 L 229.799 165.628 L 229.010 166.395 L 228.193 167.131 L 227.330 167.814 L 226.417 168.427 L 225.458 168.965 L 224.460 169.429 L 223.449 169.862 L 222.440 170.300 L 221.430 170.736 L 220.416 171.162 L 219.391 171.562 L 218.346 171.905 L 217.284 172.190" fill="none" stroke="#EC008C" stroke-width="1" vector-effect="non-scaling-stroke"/><path d="M 224.232 180.213 L 225.285 179.894 L 226.308 179.490 L 227.287 178.988 L 228.210 178.389 L 229.073 177.707 L 229.951 177.045 L 230.855 176.417 L 231.769 175.807 L 232.679 175.189 L 233.567 174.539 L 234.421 173.846 L 235.244 173.116 L 236.045 172.361 L 236.820 171.581 L 237.571 170.778 L 238.285 169.941 L 238.954 169.067 L 239.595 168.173 L 240.231 167.276 L 240.889 166.394 L 241.585 165.543 L 242.280 164.690 L 242.890 163.775 L 243.402 162.801 L 243.815 161.782 L 244.142 160.732 L 244.401 159.663 L 244.601 158.581 L 244.745 157.490 L 244.858 156.396 L 244.963 155.301 L 245.059 154.205 L 245.144 153.109 L 245.215 152.011 L 245.265 150.912 L 245.293 149.812 L 245.297 148.712 L 245.279 147.612 L 245.238 146.513 L 245.176 145.415 L 245.097 144.318 L 245.008 143.221 L 244.910 142.126 L 244.804 141.031 L 244.684 139.937 L 244.509 138.852 L 244.271 137.778 L 243.961 136.722 L 243.564 135.696 L 243.060 134.718 L 242.453 133.801 L 241.776 132.935 L 241.089 132.075 L 240.442 131.185 L 239.819 130.279 L 239.190 129.377 L 238.528 128.498 L 237.816 127.659 L 237.076 126.846 L 236.307 126.059 L 235.507 125.304 L 234.679 124.580 L 233.828 123.883 L 232.941 123.233 L 232.024 122.625 L 231.094 122.037 L 230.172 121.438 L 229.277 120.799 L 228.388 120.150 L 227.481 119.527 L 226.517 118.998 L 225.504 118.570 L 224.456 118.235 L 223.385 117.984 L 222.299 117.810 L 221.203 117.712 L 220.105 117.652 L 219.006 117.597 L 217.907 117.548 L 216.808 117.507 L 215.709 117.474 L 214.609 117.450 L 213.509 117.436 L 212.409 117.433 L 211.309 117.442 L 210.209 117.460 L 209.110 117.488 L 208.010 117.524 L 206.911 117.567 L 205.812 117.617 L 204.713 117.673 L 203.615 117.733 L 202.523 117.866 L 201.444 118.079 L 200.386 118.380 L 199.360 118.777 L 198.384 119.284 L 197.452 119.868 L 196.540 120.484 L 195.628 121.098 L 194.690 121.673 L 193.743 122.232 L 192.808 122.812 L 191.904 123.438 L 191.035 124.113 L 190.193 124.821 L 189.383 125.565 L 188.611 126.349 L 187.878 127.169 L 187.179 128.018 L 186.526 128.904 L 185.937 129.833 L 185.386 130.785 L 184.830 131.734 L 184.211 132.643 L 183.584 133.547 L 182.989 134.472 L 182.460 135.437 L 182.038 136.452 L 181.734 137.510 L 181.551 138.594 L 181.498 139.693 L 181.507 140.793 L 181.523 141.893 L 181.547 142.993 L 181.580 144.092 L 181.609 145.192 L 181.630 146.292 L 181.640 147.392 L 181.640 148.492 L 181.630 149.592 L 181.611 150.691 L 181.583 151.791 L 181.552 152.891 L 181.529 153.990 L 181.514 155.090 L 181.505 156.190 L 181.553 157.289 L 181.731 158.375 L 182.039 159.431 L 182.469 160.443 L 182.992 161.411 L 183.575 162.343 L 184.178 163.263 L 184.749 164.203 L 185.233 165.191 L 185.741 166.167 L 186.309 167.109 L 186.952 168.001 L 187.644 168.857 L 188.373 169.681 L 189.149 170.460 L 189.975 171.187 L 190.839 171.867 L 191.735 172.505 L 192.679 173.069 L 193.689 173.507 L 194.768 173.720 L 195.828 174.013 L 196.816 174.497 L 197.766 175.051 L 198.727 175.586 L 199.731 176.036 L 200.782 176.361 L 201.868 176.535 L 202.968 176.521 L 204.057 176.369 L 205.137 176.160 L 204.829 175.104 L 203.864 174.576 L 202.814 174.248 L 201.738 174.022 L 200.654 173.832 L 199.574 173.623 L 198.554 173.213 L 197.641 172.599 L 196.814 171.873 L 196.020 171.111 L 195.224 170.352 L 194.355 169.678 L 193.486 169.004 L 192.668 168.268 L 191.901 167.479 L 191.191 166.640 L 190.510 165.776 L 189.731 164.999 L 188.949 164.226 L 188.223 163.399 L 187.647 162.462 L 187.237 161.441 L 186.916 160.389 L 186.646 159.323 L 186.418 158.246 L 186.171 157.175 L 185.909 156.106 L 185.650 155.037 L 185.388 153.969 L 185.113 152.904 L 184.839 151.839 L 184.577 150.770 L 184.249 149.720 L 184.228 148.620 L 184.378 147.531 L 184.599 146.453 L 184.848 145.382 L 185.111 144.314 L 185.367 143.244 L 185.622 142.174 L 185.879 141.104 L 186.134 140.034 L 186.362 138.958 L 186.626 137.890 L 186.944 136.837 L 187.330 135.807 L 187.845 134.835 L 188.469 133.930 L 189.159 133.073 L 189.875 132.237 L 190.550 131.369 L 191.261 130.529 L 192.026 129.739 L 192.838 128.997 L 193.696 128.308 L 194.598 127.679 L 195.480 127.022 L 196.390 126.404 L 197.346 125.859 L 198.348 125.405 L 199.384 125.035 L 200.428 124.689 L 201.482 124.374 L 202.536 124.060 L 203.602 123.789 L 204.679 123.564 L 205.765 123.394 L 206.854 123.237 L 207.944 123.091 L 209.036 122.956 L 210.131 122.854 L 211.229 122.787 L 212.329 122.757 L 213.429 122.763 L 214.528 122.807 L 215.625 122.891 L 216.718 123.012 L 217.808 123.160 L 218.896 123.321 L 219.983 123.493 L 221.067 123.680 L 222.146 123.892 L 223.216 124.148 L 224.275 124.447 L 225.322 124.782 L 226.350 125.174 L 227.328 125.678 L 228.240 126.292 L 229.102 126.976 L 229.946 127.681 L 230.846 128.313 L 231.699 129.009 L 232.504 129.758 L 233.258 130.559 L 233.953 131.412 L 234.657 132.257 L 235.413 133.056 L 236.153 133.870 L 236.829 134.737 L 237.375 135.692 L 237.752 136.726 L 238.025 137.791 L 238.256 138.867 L 238.508 139.938 L 238.839 140.986 L 239.234 142.013 L 239.746 142.987 L 240.760 143.414 L 240.993 142.339 L 241.156 141.251 L 241.287 140.159 L 241.395 139.065 L 241.296 137.969 L 241.027 136.902 L 240.619 135.881 L 240.104 134.909 L 239.529 133.971 L 238.954 133.034 L 238.461 132.050 L 238.146 130.996 L 237.728 129.979 L 237.183 129.023 L 236.542 128.129 L 235.850 127.274 L 235.119 126.452 L 234.339 125.677 L 233.513 124.950 L 232.651 124.266 L 231.761 123.620 L 230.829 123.036 L 229.861 122.514 L 228.876 122.024 L 227.912 121.494 L 226.977 120.915 L 226.042 120.334 L 225.084 119.795 L 224.088 119.328 L 223.049 118.967 L 221.977 118.720 L 220.885 118.583 L 219.786 118.557 L 218.686 118.552 L 217.586 118.553 L 216.486 118.561 L 215.386 118.575 L 214.286 118.587 L 213.186 118.595 L 212.086 118.600 L 210.986 118.600 L 209.886 118.595 L 208.786 118.586 L 207.686 118.573 L 206.586 118.558 L 205.486 118.551 L 204.386 118.551 L 203.286 118.557 L 202.187 118.595 L 201.097 118.744 L 200.027 118.998 L 198.987 119.356 L 197.990 119.822 L 197.039 120.375 L 196.116 120.974 L 195.202 121.584 L 194.268 122.166 L 193.310 122.707 L 192.360 123.261 L 191.437 123.859 L 190.554 124.516 L 189.700 125.209 L 188.876 125.938 L 188.087 126.705 L 187.335 127.507 L 186.616 128.339 L 185.930 129.200 L 185.299 130.101 L 184.702 131.024 L 184.106 131.949 L 183.473 132.849 L 182.821 133.734 L 182.186 134.633 L 181.605 135.567 L 181.136 136.562 L 180.775 137.601 L 180.508 138.668 L 180.327 139.753 L 180.225 140.848 L 180.154 141.946 L 180.089 143.044 L 180.031 144.143 L 179.982 145.241 L 179.942 146.341 L 179.914 147.440 L 179.901 148.540 L 179.901 149.640 L 179.916 150.740 L 179.945 151.840 L 179.987 152.939 L 180.039 154.038 L 180.100 155.136 L 180.169 156.234 L 180.243 157.331 L 180.355 158.426 L 180.544 159.509 L 180.813 160.576 L 181.166 161.618 L 181.618 162.620 L 182.175 163.569 L 182.828 164.455 L 183.512 165.316 L 184.180 166.190 L 184.809 167.092 L 185.429 168.001 L 186.069 168.896 L 186.752 169.758 L 187.480 170.583 L 188.234 171.384 L 189.017 172.156 L 189.829 172.898 L 190.666 173.611 L 191.531 174.291 L 192.431 174.924 L 193.350 175.529 L 194.270 176.132 L 195.173 176.760 L 196.047 177.428 L 196.930 178.084 L 197.868 178.658 L 198.861 179.131 L 199.896 179.505 L 200.956 179.798 L 202.032 180.027 L 203.118 180.202 L 204.211 180.328 L 205.305 180.435 L 206.401 180.534 L 207.497 180.625 L 208.594 180.707 L 209.692 180.774 M 233.248 134.433 L 233.714 135.429 L 234.160 136.435 L 234.608 137.439 L 235.050 138.447 L 235.478 139.460 L 235.875 140.486 L 236.272 141.512 L 236.604 142.561 L 236.873 143.627 L 237.090 144.705 L 237.254 145.793 L 237.359 146.888 L 237.416 147.987 L 237.433 149.086 L 237.414 150.186 L 237.356 151.285 L 237.255 152.380 L 237.100 153.469 L 236.902 154.551 L 236.655 155.623 L 236.351 156.680 L 235.982 157.716 L 235.582 158.741 L 235.163 159.758 L 234.733 160.770 L 234.300 161.782 L 233.828 162.776 L 233.316 163.749 L 232.746 164.690 L 232.076 165.562 L 231.339 166.379 L 230.567 167.163 L 229.761 167.911 L 228.922 168.622 L 228.032 169.268 L 227.072 169.807 L 226.095 170.312 L 225.097 170.774 L 224.077 171.185 L 223.051 171.582 L 222.020 171.966 L 220.980 172.326 L 219.931 172.654 L 218.864 172.923 L 217.784 173.131 L 216.695 173.290 L 215.602 173.412 L 214.506 173.501 L 213.407 173.561 L 212.308 173.593 L 211.208 173.597 L 210.108 173.574 L 209.009 173.522 L 207.912 173.440 L 206.818 173.329" fill="none" stroke="#FFF200" stroke-width="1" vector-effect="non-scaling-stroke"/></svg>