<svg xmlns="http://www.w3.org/2000/svg" viewBox="169.07180173171318 106.55452413365232 85.22482808736311 83.28626775975279" width="85.22482808736311" height="83.28626775975279" shape-rendering="geometricPrecision"><rect x="169.07180173171318" y="106.55452413365232" width="85.22482808736311" height="83.28626775975279" fill="#0b0f14"/><path d="M 208.832 114.555 L 207.641 114.697 L 206.450 114.843 L 205.259 114.991 L 204.068 115.141 L 202.884 115.334 L 201.710 115.582 L 200.553 115.900 L 199.424 116.307 L 198.340 116.821 L 197.311 117.439 L 196.303 118.090 L 195.252 118.670 L 194.140 119.121 L 192.982 119.436 L 191.804 119.661 L 190.647 119.982 L 189.533 120.427 L 188.493 121.026 L 187.522 121.731 L 186.608 122.509 L 185.767 123.364 L 185.005 124.291 L 184.325 125.280 L 183.805 126.362 L 183.503 127.523 L 183.535 128.723 L 183.686 129.913 L 183.980 131.077 L 184.567 132.123 L 185.722 131.800 L 186.623 131.007 L 187.397 130.091 L 188.142 129.150 L 188.953 128.265 L 189.802 127.417 L 190.686 126.605 L 191.604 125.833 L 192.614 125.185 L 193.620 124.531 L 194.597 123.834 L 195.567 123.127 L 196.493 122.364 L 197.566 121.827 L 198.751 121.638 L 199.950 121.583 L 201.146 121.486 L 202.340 121.365 L 203.533 121.235 L 204.725 121.096 L 205.917 120.960 L 207.109 120.827 L 208.303 120.703 L 209.500 120.622 L 210.700 120.581 L 211.900 120.578 L 213.099 120.612 L 214.297 120.684 L 215.492 120.795 L 216.685 120.922 L 217.878 121.051 L 219.071 121.183 L 220.260 121.341 L 221.451 121.495 L 222.643 121.628 L 223.840 121.717 L 225.024 121.909 L 226.168 122.273 L 227.260 122.771 L 228.313 123.346 L 229.335 123.975 L 230.357 124.603 L 231.365 125.255 L 232.279 126.032 L 233.159 126.848 L 234.007 127.697 L 234.820 128.580 L 235.534 129.544 L 236.082 130.612 L 236.580 131.704 L 236.975 132.837 L 237.332 133.982 L 237.644 135.141 L 237.905 136.313 L 238.168 137.483 L 238.463 138.646 L 238.773 139.806 L 239.069 140.969 L 239.307 142.145 L 239.500 143.329 L 239.658 144.519 L 239.759 145.714 L 239.812 146.913 L 239.824 148.113 L 239.798 149.313 L 239.725 150.511 L 239.591 151.703 L 239.399 152.888 L 239.160 154.064 L 238.862 155.226 L 238.504 156.372 L 238.156 157.520 L 237.834 158.676 L 237.554 159.843 L 237.264 161.007 L 236.945 162.164 L 236.610 163.316 L 236.245 164.459 L 235.755 165.555 L 235.099 166.560 L 234.322 167.474 L 233.479 168.328 L 232.610 169.156 L 231.697 169.935 L 230.703 170.607 L 229.632 171.148 L 228.501 171.549 L 227.340 171.853 L 226.178 172.154 L 225.014 172.444 L 223.847 172.724 L 222.692 173.048 L 221.545 173.402 L 220.404 173.772 L 219.253 174.111 L 218.087 174.398 L 216.912 174.639 L 215.727 174.832 L 214.533 174.953 L 213.335 175.013 L 212.135 175.018 L 210.936 174.970 L 209.741 174.857 L 208.556 174.667 L 207.384 174.412 L 206.223 174.108 L 205.077 173.752 L 203.948 173.346 L 202.812 172.959 L 201.665 172.604 L 200.506 172.294 L 199.343 172.000 L 198.186 171.681 L 197.049 171.299 L 195.950 170.816 L 194.911 170.215 L 193.935 169.517 L 193.018 168.744 L 192.154 167.911 L 191.350 167.020 L 190.617 166.070 L 189.972 165.058 L 189.431 163.987 L 188.985 162.873 L 188.608 161.733 L 188.276 160.580 L 187.927 159.432 L 187.533 158.298 L 187.108 157.177 L 186.675 156.057 L 186.293 154.920 L 185.961 153.767 L 185.676 152.601 L 185.479 151.417 L 185.369 150.222 L 185.337 149.023 L 185.379 147.823 L 185.505 146.630 L 185.727 145.451 L 186.041 144.292 L 186.404 143.149 L 186.818 142.023 L 187.279 140.915 L 187.725 139.801 L 188.131 138.671 L 188.502 137.530 L 188.879 136.391 L 189.321 135.275 L 189.851 134.198 L 190.481 133.178 L 191.194 132.212 L 191.969 131.296 L 192.744 130.380 L 193.580 129.519 L 194.479 128.724 L 195.428 127.990 L 196.425 127.322 L 197.476 126.743 L 198.575 126.261 L 199.706 125.858 L 200.854 125.511 L 202.002 125.159 L 203.136 124.768 L 204.258 124.344 L 205.377 123.909 L 206.512 123.520 L 207.663 123.179 L 208.826 122.885 L 210.007 122.674 L 211.201 122.552 L 212.400 122.507 L 213.600 122.528 L 214.797 122.621 L 215.985 122.791 L 217.156 123.049 L 218.318 123.351 L 219.466 123.700 L 220.598 124.097 L 221.726 124.507 L 222.863 124.890 L 224.012 125.236 L 225.174 125.537 L 226.327 125.871 L 227.462 126.260 L 228.567 126.728 L 229.623 127.298 L 230.621 127.964 L 231.561 128.710 L 232.445 129.521 L 233.275 130.388 L 234.039 131.314 L 234.714 132.305 L 235.276 133.366 L 235.713 134.484 L 236.066 135.630 L 236.378 136.789 L 236.680 137.951 L 237.032 139.098 L 237.424 140.232 L 237.841 141.357 L 238.233 142.491 L 238.568 143.644 L 238.849 144.810 L 239.074 145.989 L 239.211 147.181 L 239.276 148.379 L 239.280 149.579 L 239.230 150.778 L 239.115 151.973 L 238.926 153.158 L 238.681 154.333 L 238.388 155.496 L 238.040 156.645 L 237.655 157.781 L 237.286 158.923 L 236.950 160.075 L 236.660 161.239 L 236.355 162.400 L 236.038 163.557 L 235.720 164.715 L 235.297 165.837 L 234.722 166.891 L 234.011 167.857 L 233.194 168.736 L 232.340 169.580 L 231.460 170.395 L 230.518 171.139 L 229.488 171.754 L 228.374 172.200 L 227.226 172.552 L 226.071 172.875 L 224.910 173.180 L 223.742 173.456 L 222.570 173.714 L 221.408 174.012 L 220.253 174.336 L 219.100 174.669 L 217.934 174.954 L 216.756 175.183 L 215.570 175.368 L 214.378 175.505 L 213.181 175.584 L 211.981 175.620 L 210.781 175.619 L 209.582 175.584 L 208.384 175.508 L 207.191 175.383 L 206.002 175.221 L 204.819 175.021 L 203.644 174.774 L 202.480 174.485 L 201.313 174.202 L 200.143 173.939 L 198.964 173.712 L 197.795 173.445 L 196.637 173.127 L 195.493 172.767 L 194.371 172.342 L 193.283 171.834 L 192.223 171.273 L 191.273 170.539 L 190.377 169.741 L 189.513 168.908 L 188.683 168.041 L 187.894 167.137 L 187.243 166.129 L 186.566 165.138 L 185.887 164.149 L 185.270 163.120 L 184.731 162.047 L 184.383 160.899 L 184.262 159.705 L 184.195 158.507 L 184.078 157.313 L 183.940 156.121 L 183.791 154.930 L 183.647 153.739 L 183.505 152.547 L 183.364 151.355 L 183.260 150.160 L 183.200 148.961 L 183.185 147.761 L 183.210 146.562 L 183.283 145.364 L 183.403 144.170 L 183.553 142.979 L 183.704 141.789 L 183.858 140.599 L 184.011 139.409 L 184.124 138.214 L 184.212 137.017 L 184.249 135.818 L 184.380 134.625 L 184.928 133.557 L 185.802 132.736 L 186.502 131.761 L 187.235 130.811 L 187.926 129.829 L 188.573 128.819 L 189.360 127.913 L 190.189 127.046 L 191.054 126.214 L 191.953 125.419 L 192.892 124.671 L 193.841 123.938 L 194.687 123.086 L 195.165 121.985 L 194.196 121.277 L 193.034 120.978 L 191.844 120.821 L 190.647 120.738 L 189.474 120.988 L 188.366 121.450 L 187.346 122.081 L 186.385 122.801 L 185.491 123.601 L 184.673 124.479 L 183.928 125.420 L 183.270 126.423 L 182.774 127.516 L 182.417 128.661 L 182.168 129.835 L 181.851 130.993 L 181.392 132.102 L 180.796 133.143 L 180.118 134.133 L 179.471 135.143 L 178.927 136.213 L 178.496 137.333 L 178.161 138.485 L 177.899 139.656 L 177.697 140.839 L 177.537 142.029 L 177.379 143.218 L 177.223 144.408 L 177.072 145.598 M 223.464 181.841 L 224.609 181.483 L 225.721 181.032 L 226.784 180.474 L 227.785 179.813 L 228.806 179.182 L 229.879 178.644 L 231.001 178.220 L 232.157 177.898 L 233.303 177.542 L 234.421 177.106 L 235.484 176.550 L 236.465 175.858 L 237.392 175.096 L 238.261 174.268 L 239.062 173.375 L 239.798 172.427 L 240.410 171.395 L 240.865 170.285 L 241.165 169.123 L 241.310 167.931 L 241.608 166.769 L 242.084 165.668 L 242.706 164.641 L 243.382 163.650 L 244.016 162.631 L 244.538 161.551 L 244.951 160.424 L 245.271 159.267 L 245.510 158.091 L 245.674 156.903 L 245.804 155.710 L 245.931 154.516 L 246.055 153.323 L 246.171 152.128 L 246.252 150.931 L 246.295 149.732 L 246.296 148.532 L 246.297 147.332 L 246.256 146.133 L 246.177 144.935 L 246.063 143.741 L 245.939 142.547 L 245.812 141.354 L 245.682 140.161 L 245.522 138.972 L 245.287 137.795 L 244.971 136.637 L 244.564 135.508 L 244.048 134.425 L 243.421 133.401 L 242.747 132.409 L 242.118 131.387 L 241.633 130.290 L 241.325 129.130 L 241.172 127.939 L 240.881 126.775 L 240.435 125.661 L 239.831 124.624 L 239.098 123.674 L 238.300 122.778 L 237.435 121.946 L 236.510 121.182 L 235.534 120.484 L 234.474 119.921 L 233.358 119.480 L 232.213 119.121 L 231.057 118.799 L 229.932 118.381 L 228.857 117.848 L 227.834 117.221 L 226.835 116.555 L 225.776 115.993 L 224.666 115.536 L 223.522 115.174" fill="none" stroke="#2dd4bf" stroke-width="1" vector-effect="non-scaling-stroke"/><path d="M 240.187 169.109 L 236.636 172.949 M 236.636 172.949 L 233.084 177.010 M 233.084 177.010 L 232.412 177.819 M 179.813 140.061 L 178.397 143.070 M 178.397 143.070 L 178.009 144.682 M 183.364 137.146 L 182.114 139.451 M 182.114 139.451 L 181.391 141.377 M 187.503 166.532 L 188.018 167.279 M 239.104 143.070 L 239.796 146.542 M 239.796 146.542 L 239.825 146.690 M 239.825 146.690 L 239.828 150.310 M 239.828 150.310 L 239.634 151.318 M 239.634 151.318 L 239.132 153.930 M 239.132 153.930 L 237.772 157.549 M 194.019 124.168 L 193.853 124.365 M 184.098 157.515 L 184.109 157.549 M 184.109 157.549 L 185.882 161.169 M 185.882 161.169 L 186.916 162.840 M 186.916 162.840 L 188.070 164.789 M 188.070 164.789 L 190.467 168.266 M 190.467 168.266 L 190.568 168.408 M 190.568 168.408 L 193.210 171.796 M 225.981 172.660 L 225.693 172.974 M 225.693 172.974 L 223.469 175.402 M 186.916 137.363 L 185.916 139.451 M 185.916 139.451 L 184.716 143.070 M 184.716 143.070 L 184.097 146.690 M 184.097 146.690 L 184.095 150.310 M 184.095 150.310 L 184.719 153.930 M 184.719 153.930 L 185.949 157.549 M 185.949 157.549 L 186.916 159.519 M 186.916 159.519 L 187.693 161.169 M 187.693 161.169 L 189.830 164.776 M 191.572 167.266 L 192.379 168.408 M 192.379 168.408 L 194.019 170.511 M 194.019 170.511 L 195.328 172.028 M 195.328 172.028 L 196.210 172.993 M 235.146 143.070 L 235.782 146.690 M 235.782 146.690 L 235.787 150.310 M 235.787 150.310 L 235.176 153.930 M 235.176 153.930 L 233.977 157.549 M 196.488 171.052 L 197.330 172.028 M 197.330 172.028 L 197.570 172.291 M 197.570 172.291 L 199.202 173.757 M 199.811 172.118 L 201.121 173.296 M 201.121 173.296 L 203.310 174.691 M 231.586 143.070 L 232.192 146.690 M 232.192 146.690 L 232.199 150.310 M 232.199 150.310 L 231.617 153.930 M 231.617 153.930 L 230.472 157.549 M 228.103 143.070 L 228.728 146.690 M 228.728 146.690 L 228.737 150.310 M 228.737 150.310 L 228.142 153.930 M 228.142 153.930 L 226.966 157.549 M 224.424 143.070 L 225.123 146.690 M 225.123 146.690 L 225.139 150.310 M 225.139 150.310 L 224.480 153.930 M 224.480 153.930 L 223.486 156.692" fill="none" stroke="#e5e7eb" stroke-width="1" vector-effect="non-scaling-stroke"/></svg>