<svg xmlns="http://www.w3.org/2000/svg" viewBox="173.20555776142433 112.06408479681639 77.57281730485522 76.89418730791303" width="77.57281730485522" height="76.89418730791303" shape-rendering="geometricPrecision"><rect x="173.20555776142433" y="112.06408479681639" width="77.57281730485522" height="76.89418730791303" fill="#0b0f14"/><path d="M 181.206 161.371 L 181.463 162.440 L 181.805 163.485 L 182.255 164.489 L 182.821 165.432 L 183.494 166.303 L 184.184 167.159 L 184.850 168.034 L 185.504 168.919 L 186.162 169.800 L 186.845 170.663 L 187.567 171.493 L 188.321 172.294 L 189.104 173.067 L 189.913 173.812 L 190.751 174.524 L 191.621 175.197 L 192.511 175.844 L 193.404 176.486 L 194.289 177.139 L 195.157 177.815 L 196.027 178.488 L 196.967 179.059 L 197.967 179.518 L 199.009 179.869 L 200.078 180.129 L 201.159 180.335 L 202.248 180.490 L 203.342 180.598 L 204.440 180.677 L 205.537 180.749 L 206.635 180.815 L 207.734 180.871 L 208.833 180.915 L 209.933 180.944 L 211.032 180.958 L 212.132 180.957 L 213.232 180.939 L 214.332 180.906 L 215.431 180.860 L 216.529 180.803 L 217.628 180.738 L 218.725 180.667 L 219.822 180.590 L 220.916 180.474 L 222.004 180.308 L 223.081 180.087 L 224.143 179.800 L 225.169 179.403 L 226.139 178.885 L 227.038 178.250 L 227.902 177.569 L 228.786 176.915 L 229.684 176.280 L 230.583 175.645 L 231.468 174.992 L 232.325 174.303 L 233.154 173.579 L 233.951 172.821 L 234.713 172.028 L 235.441 171.203 L 236.133 170.348 L 236.790 169.466 L 237.429 168.571 L 238.071 167.678 L 238.737 166.802 L 239.416 165.937 L 240.045 165.035 L 240.556 164.060 L 240.939 163.029 L 241.216 161.964 L 241.418 160.883 L 241.546 159.791 L 241.599 158.692 L 241.631 157.592 L 241.660 156.493 L 241.685 155.393 L 241.706 154.293 L 241.721 153.193 L 241.730 152.093 L 241.734 150.993 L 241.730 149.893 L 241.721 148.793 L 241.705 147.694 L 241.685 146.594 L 241.661 145.494 L 241.633 144.394 L 241.602 143.295 L 241.547 142.196 L 241.417 141.104 L 241.210 140.024 L 240.921 138.962 L 240.513 137.941 L 239.966 136.986 L 239.350 136.075 L 238.700 135.188 L 238.068 134.287 L 237.453 133.375 L 236.830 132.469 L 236.175 131.585 L 235.487 130.726 L 234.760 129.901 L 233.989 129.116 L 233.174 128.378 L 232.320 127.685 L 231.440 127.025 L 230.530 126.406 L 229.602 125.816 L 228.674 125.225 L 227.769 124.600 L 226.856 123.986 L 225.909 123.427 L 224.911 122.964 L 223.861 122.636 L 222.785 122.407 L 221.693 122.277 L 220.593 122.256 L 219.494 122.297 L 218.395 122.339 L 217.296 122.382 L 216.197 122.425 L 215.097 122.460 L 213.997 122.483 L 212.897 122.494 L 211.797 122.492 L 210.697 122.477 L 209.598 122.450 L 208.498 122.413 L 207.399 122.372 L 206.300 122.332 L 205.201 122.293 L 204.101 122.255 L 203.003 122.315 L 201.915 122.480 L 200.849 122.751 L 199.816 123.127 L 198.834 123.623 L 197.893 124.193 L 196.967 124.787 L 196.016 125.340 L 195.058 125.880 L 194.118 126.452 L 193.214 127.078 L 192.338 127.743 L 191.494 128.449 L 190.705 129.215 L 189.978 130.041 L 189.302 130.909 L 188.663 131.804 L 188.102 132.750 L 187.662 133.758 L 187.308 134.800 L 186.769 135.759 L 186.204 136.703 L 185.706 137.683 L 185.332 138.718 L 185.078 139.788 L 184.967 140.883 L 185.036 141.981 L 185.238 143.062 L 186.334 142.968 L 186.822 141.983 L 187.089 140.916 L 187.263 139.829 L 187.384 138.736 L 187.534 137.646 L 188.158 136.740 L 188.923 135.950 L 189.729 135.201 L 190.520 134.437 L 191.215 133.584 L 191.881 132.709 L 192.634 131.907 L 193.462 131.183 L 194.355 130.540 L 195.216 129.856 L 195.960 129.046 L 196.713 128.244 L 196.945 127.169 L 195.928 126.749 L 194.889 127.111 L 193.938 127.663 L 193.033 128.288 L 192.148 128.941 L 191.341 129.688 L 190.697 130.580 L 190.063 131.479 L 189.499 132.424 L 189.458 133.523 L 190.465 133.081 L 191.209 132.271 L 191.928 131.438 L 192.646 130.605 L 193.489 129.899 L 194.310 129.166 L 194.584 128.101 L 193.536 128.433 L 192.598 129.009 L 191.697 129.639 L 190.836 130.325 L 190.135 131.173 L 189.487 132.061 L 188.880 132.978 L 188.384 133.960 L 188.256 135.053 L 189.134 135.715 L 189.927 134.953 L 190.752 134.226 L 191.505 133.424 L 192.175 132.551 L 192.869 131.698 L 193.644 130.918 L 194.496 130.221 L 195.376 129.562 L 196.203 128.836 L 196.960 128.038 L 197.736 127.259 L 198.588 126.563 L 199.620 126.182 L 200.716 126.092 L 201.807 125.951 L 202.888 125.747 L 203.937 125.417 L 204.794 124.727 L 203.871 124.128 L 202.789 123.934 L 201.689 123.964 L 200.605 124.153 L 199.553 124.472 L 198.546 124.915 L 197.586 125.452 L 196.631 125.998 L 195.606 126.397 L 194.544 126.684 L 193.561 127.178 L 192.640 127.779 L 191.754 128.431 L 190.895 129.118 L 190.094 129.872 L 189.355 130.687 L 188.673 131.550 L 188.019 132.434 L 187.422 133.358 L 186.875 134.313 L 186.348 135.278 L 185.761 136.208 L 185.169 137.136 L 184.632 138.096 L 184.201 139.108 L 183.885 140.161 L 183.680 141.242 L 183.590 142.338 L 183.620 143.438 L 183.671 144.537 L 183.724 145.636 L 183.777 146.734 L 183.828 147.833 L 183.867 148.932 L 183.891 150.032 L 183.897 151.132 L 183.887 152.232 L 183.859 153.332 L 183.816 154.431 L 183.760 155.529 L 183.703 156.628 L 183.647 157.727 L 183.593 158.825 L 183.588 159.925 L 183.704 161.019 L 183.929 162.096 L 184.260 163.145 L 184.722 164.143 L 185.284 165.089 L 185.903 165.998 L 186.532 166.901 L 187.122 167.829 L 187.713 168.757 L 188.337 169.662 L 189.005 170.536 L 189.706 171.384 L 190.454 172.191 L 191.248 172.952 L 192.084 173.667 L 192.952 174.343 L 193.845 174.985 L 194.760 175.595 L 195.682 176.196 L 196.591 176.815 L 197.489 177.450 L 198.410 178.052 L 199.373 178.583 L 200.399 178.981 L 201.462 179.263 L 202.544 179.463 L 203.637 179.587 L 204.735 179.636 L 205.835 179.660 L 206.935 179.682 L 208.035 179.701 L 209.135 179.716 L 210.235 179.728 L 211.335 179.735 L 212.435 179.738 L 213.535 179.736 L 214.635 179.729 L 215.735 179.718 L 216.834 179.703 L 217.934 179.685 L 219.034 179.662 L 220.134 179.637 L 221.233 179.603 L 222.328 179.491 L 223.412 179.307 L 224.481 179.049 L 225.523 178.694 L 226.512 178.213 L 227.433 177.612 L 228.315 176.954 L 229.195 176.295 L 230.095 175.663 L 231.000 175.037 L 231.894 174.396 L 232.766 173.725 L 233.606 173.015 L 234.415 172.270 L 235.189 171.488 L 235.928 170.674 L 236.636 169.832 L 237.304 168.958 L 237.951 168.068 L 238.593 167.175 L 239.252 166.294 L 239.941 165.436 L 240.601 164.557 L 241.150 163.604 L 241.574 162.589 L 241.881 161.532 L 242.114 160.457 L 242.289 159.371 L 242.410 158.278 L 242.487 157.181 L 242.559 156.083 L 242.624 154.985 L 242.680 153.886 L 242.727 152.787 L 242.760 151.688 L 242.777 150.588 L 242.778 149.488 L 242.764 148.388 L 242.734 147.288 L 242.689 146.189 L 242.632 145.091 L 242.567 143.993 L 242.494 142.895 L 242.415 141.798 L 242.301 140.704 L 242.136 139.616 L 241.917 138.538 L 241.639 137.474 L 241.260 136.441 L 240.768 135.458 L 240.163 134.539 L 239.466 133.687 L 238.785 132.824 L 238.125 131.944 L 237.473 131.058 L 236.811 130.179 L 236.118 129.325 L 235.386 128.504 L 234.624 127.711 L 233.834 126.946 L 233.017 126.209 L 232.169 125.508 L 231.291 124.845 L 230.400 124.201 L 229.508 123.557 L 228.627 122.898 L 227.767 122.213 L 226.874 121.569 L 225.912 121.037 L 224.894 120.620 L 223.840 120.304 L 222.767 120.064 M 204.917 127.131 L 206.007 126.980 L 207.101 126.865 L 208.197 126.776 L 209.296 126.716 L 210.395 126.682 L 211.495 126.671 L 212.595 126.684 L 213.694 126.720 L 214.792 126.784 L 215.888 126.885 L 216.979 127.019 L 218.065 127.198 L 219.139 127.437 L 220.196 127.742 L 221.241 128.083 L 222.277 128.455 L 223.305 128.846 L 224.322 129.263 L 225.318 129.731 L 226.292 130.241 L 227.238 130.804 L 228.111 131.473 L 228.984 132.142 L 229.812 132.866 L 230.594 133.639 L 231.327 134.460 L 232.001 135.329 L 232.566 136.273 L 233.093 137.239 L 233.573 138.228 L 233.998 139.243 L 234.392 140.270 L 234.764 141.305 L 235.104 142.351 L 235.404 143.410 L 235.637 144.485 L 235.810 145.571 L 235.939 146.663 L 236.035 147.759 L 236.097 148.857 L 236.134 149.957 L 236.145 151.057 L 236.132 152.157 L 236.094 153.256 L 236.029 154.354 L 235.936 155.450 L 235.821 156.544 L 235.670 157.634 L 235.469 158.715 L 235.213 159.785 L 234.915 160.844 L 234.581 161.892 L 234.216 162.929 L 233.797 163.947 L 233.301 164.928 L 232.733 165.871 L 232.111 166.778 L 231.485 167.682 L 230.791 168.535 L 230.029 169.329 L 229.206 170.059 L 228.322 170.714 L 227.427 171.352 L 226.523 171.980 L 225.582 172.550 L 224.596 173.037 L 223.567 173.426 L 222.513 173.741 L 221.447 174.010 L 220.368 174.227 L 219.281 174.397 L 218.193 174.557 L 217.103 174.704 L 216.011 174.837 L 214.918 174.957 L 213.821 175.047 L 212.723 175.105 L 211.623 175.127 L 210.523 175.115 L 209.424 175.068 L 208.327 174.983 L 207.234 174.864 L 206.143 174.725 L 205.053 174.572 L 203.966 174.404 L 202.881 174.222 L 201.796 174.043 L 200.719 173.819 L 199.654 173.546 L 198.608 173.206 L 197.611 172.740 L 196.691 172.138 L 195.842 171.438 L 195.015 170.713 L 194.126 170.065 L 193.258 169.389 L 192.458 168.634 L 191.734 167.806 L 191.074 166.926 L 190.368 166.083 L 189.611 165.284 L 188.897 164.447 L 188.287 163.532 L 187.856 162.520 L 187.619 161.446 L 187.424 160.363 L 187.213 159.283 L 186.938 158.218 L 186.538 157.194 L 185.965 156.255 M 233.334 157.132 L 232.883 158.135 L 232.410 159.128 L 231.933 160.119 L 231.444 161.104 L 230.921 162.072 L 230.337 163.004 L 229.686 163.891 L 228.977 164.732 L 228.220 165.530 L 227.462 166.328 L 226.666 167.086 L 225.828 167.799 L 224.945 168.455 L 224.018 169.047 L 223.051 169.572 L 222.064 170.058 L 221.069 170.525 L 220.072 170.991 L 219.070 171.446 L 218.046 171.848 L 217.001 172.191" fill="none" stroke="#EC008C" stroke-width="1" vector-effect="non-scaling-stroke"/></svg>