<svg xmlns="http://www.w3.org/2000/svg" viewBox="168.6751324822599 110.12370213972488 84.33765873158723 81.29753820230252" width="84.33765873158723" height="81.29753820230252" shape-rendering="geometricPrecision"><rect x="168.6751324822599" y="110.12370213972488" width="84.33765873158723" height="81.29753820230252" fill="#0b0f14"/><path d="M 197.585 118.124 L 196.453 118.523 L 195.452 119.184 L 194.553 119.979 L 193.602 120.711 L 192.629 121.413 L 191.658 122.118 L 190.653 122.774 L 189.618 123.381 L 188.627 124.057 L 187.708 124.830 L 186.836 125.654 L 186.006 126.520 L 185.255 127.457 L 184.638 128.486 L 184.006 129.506 L 183.308 130.482 L 182.572 131.430 L 181.839 132.380 L 181.041 133.276 L 180.269 134.195 L 179.716 135.260 L 179.440 136.428 L 179.465 137.627 L 179.601 138.820 L 179.697 140.016 L 179.633 141.214 L 179.232 142.345 L 178.585 143.356 L 177.865 144.316 L 177.268 145.357 L 176.912 146.503 L 176.742 147.691 L 176.675 148.889 L 176.712 150.088 L 176.857 151.280 L 177.170 152.438 L 177.771 153.477 L 178.516 154.417 L 179.139 155.443 L 179.527 156.578 L 179.645 157.772 L 179.590 158.971 L 179.492 160.167 L 179.390 161.363 L 179.591 162.546 L 180.128 163.619 L 180.847 164.580 L 181.608 165.508 L 182.291 166.494 L 182.995 167.466 L 183.657 168.467 L 184.246 169.513 L 184.800 170.577 L 185.515 171.540 L 186.331 172.421 L 187.205 173.243 L 188.144 173.991 L 189.187 174.583 L 190.306 175.016 L 191.475 175.289 L 192.606 175.691 L 193.801 175.801 L 193.022 174.888 L 192.179 174.034 L 191.252 173.271 L 190.335 172.497 L 189.480 171.655 L 188.613 170.826 L 187.797 169.945 L 187.054 169.003 L 186.214 168.147 L 185.273 167.402 L 184.549 166.445 L 184.194 165.299 L 183.979 164.118 L 183.840 162.926 L 183.802 161.727 L 183.807 160.527 L 183.820 159.327 L 183.566 158.154 L 182.961 157.118 L 182.346 156.087 L 181.970 154.948 L 181.451 156.030 L 181.173 154.862 L 181.027 153.671 L 180.893 152.479 L 180.803 151.282 L 180.781 150.082 L 180.823 148.883 L 180.946 147.690 L 181.109 146.501 L 181.324 145.320 L 181.727 144.190 L 182.362 143.172 L 182.954 142.128 L 183.160 140.946 L 183.177 139.746 L 183.223 138.547 L 183.314 137.350 L 183.478 136.161 L 183.662 134.976 L 184.028 133.833 L 184.731 132.860 L 183.749 133.550 L 184.575 132.680 L 185.465 131.874 L 186.308 131.021 L 187.068 130.092 L 187.897 129.225 L 188.763 128.394 L 189.617 127.550 L 190.549 126.794 L 191.498 126.061 L 192.364 125.229 L 193.177 124.347 L 194.224 123.761 L 195.272 123.176 L 196.451 122.956 L 197.638 122.777 L 198.831 122.647 L 200.029 122.581 L 201.229 122.546 L 202.429 122.541 L 203.599 122.275 L 204.634 121.667 L 205.691 121.099 L 206.838 120.746 L 208.020 120.543 L 209.210 120.386 L 210.405 120.272 L 211.604 120.231 L 212.804 120.251 L 214.001 120.334 L 215.194 120.466 L 216.385 120.612 L 217.562 120.844 L 217.045 121.927 L 218.170 122.345 L 219.191 122.975 L 220.307 123.418 L 221.500 123.541 L 222.700 123.522 L 223.900 123.500 L 225.099 123.537 L 226.290 123.683 L 227.468 123.916 L 228.596 124.324 L 229.578 125.013 L 230.474 125.812 L 231.410 126.563 L 232.381 127.268 L 233.263 128.082 L 234.124 128.918 L 234.982 129.757 L 235.743 130.684 L 236.541 131.581 L 237.399 132.420 L 238.241 133.274 L 238.893 134.282 L 238.894 135.482 L 239.080 136.667 L 239.213 137.860 L 239.290 139.057 L 239.339 140.256 L 239.340 141.456 L 239.736 142.589 L 240.515 143.502 L 241.217 144.475 L 241.488 145.644 L 241.599 146.839 L 241.718 148.033 L 241.797 149.231 L 241.815 150.431 L 241.783 151.630 L 241.693 152.827 L 241.604 154.024 L 241.558 155.223 L 241.629 154.025 L 241.597 155.224 L 241.752 154.034 L 241.799 155.233 L 242.086 154.068 L 242.575 155.164 L 243.125 154.097 L 243.948 153.223 L 244.550 152.185 L 244.855 151.025 L 244.996 149.833 L 245.013 148.633 L 244.910 147.438 L 244.690 146.258 L 244.179 145.172 L 243.458 144.213 L 242.774 143.227 L 242.357 142.102 L 242.294 140.903 L 242.417 139.710 L 242.592 138.523 L 242.781 137.337 L 242.736 136.138 L 242.374 134.994 L 241.726 133.984 L 240.938 133.079 L 240.173 132.155 L 239.454 131.194 L 238.728 130.239 L 238.063 129.240 L 237.468 128.197 L 236.819 127.188 L 236.039 126.276 L 235.196 125.422 L 234.309 124.614 L 233.364 123.874 L 232.345 123.241 L 231.314 122.627 L 230.318 121.958 L 229.353 121.244 L 228.380 120.541 L 227.446 119.788 L 226.525 119.019 L 225.472 118.443 L 224.315 118.125 M 239.405 153.257 L 238.809 154.299 L 238.152 155.303 L 237.525 156.326 L 237.142 157.463 L 237.059 158.660 L 237.033 159.860 L 236.988 161.059 L 236.769 162.239 L 236.295 163.342 L 235.821 164.444 L 235.207 165.475 L 234.519 166.458 L 233.805 167.422 L 233.043 168.350 L 232.230 169.232 L 231.385 170.084 L 230.505 170.900 L 229.595 171.683 L 228.641 172.411 L 227.652 173.090 L 226.647 173.746 L 225.591 174.315 L 224.465 174.730 L 223.277 174.904 L 222.077 174.912 L 220.877 174.909 L 219.677 174.909 L 218.510 175.185 L 217.445 175.739 L 216.417 176.357 L 215.366 176.937 L 214.237 177.343 L 213.064 177.597 L 211.875 177.762 L 210.677 177.819 L 209.477 177.776 L 208.286 177.629 L 207.109 177.400 L 205.947 177.099 L 204.835 176.647 L 203.784 176.067 L 202.721 175.512 L 201.558 175.214 L 200.358 175.232 L 199.159 175.264 L 197.959 175.301 L 196.761 175.229 L 195.578 175.029 M 226.819 180.656 L 227.726 179.870 L 228.657 179.112 L 229.625 178.404 L 230.592 177.693 L 231.574 177.004 L 232.588 176.362 L 233.591 175.703 L 234.524 174.948 L 235.409 174.138 L 236.255 173.287 L 237.101 172.436 L 237.902 171.542 L 238.607 170.571 L 239.268 169.570 L 239.978 168.602 L 240.721 167.660 L 241.456 166.712 L 242.233 165.797 L 243.070 164.937 M 214.279 183.421 L 215.388 182.963 L 216.498 182.505 L 217.522 181.881 L 218.512 181.203 L 219.580 180.655 L 220.757 180.423 L 221.957 180.441 L 223.155 180.515 L 224.349 180.630" fill="none" stroke="#2dd4bf" stroke-width="1" vector-effect="non-scaling-stroke"/><path d="M 238.026 171.371 L 236.874 172.665 M 239.655 168.239 L 238.659 169.307 M 238.659 169.307 L 236.536 171.681 M 236.536 171.681 L 234.413 174.129 M 234.413 174.129 L 232.447 176.451 M 232.459 175.200 L 232.291 175.406 M 232.291 175.406 L 230.168 177.942 M 230.168 177.942 L 230.034 178.104 M 226.937 180.542 L 226.900 180.586 M 179.721 162.806 L 181.174 164.697 M 181.174 164.697 L 181.341 164.895 M 181.341 164.895 L 182.837 166.857 M 182.837 166.857 L 183.464 167.621 M 183.464 167.621 L 184.530 169.017 M 184.530 169.017 L 185.587 170.324 M 185.587 170.324 L 186.246 171.176 M 186.246 171.176 L 187.709 172.993 M 187.709 172.993 L 187.980 173.336 M 187.980 173.336 L 188.826 174.378 M 187.709 125.328 L 187.304 125.824 M 187.304 125.824 L 185.615 127.983 M 185.615 127.983 L 183.959 130.143 M 179.462 160.513 L 180.839 162.538 M 180.839 162.538 L 181.341 163.191 M 181.341 163.191 L 182.386 164.697 M 182.386 164.697 L 183.464 166.111 M 183.464 166.111 L 183.993 166.857 M 183.993 166.857 L 185.587 168.942 M 185.587 168.942 L 185.641 169.017 M 185.641 169.017 L 187.311 171.176 M 187.311 171.176 L 187.709 171.671 M 187.709 171.671 L 189.026 173.336 M 189.026 173.336 L 189.832 174.330 M 189.832 174.330 L 190.413 175.041 M 179.610 158.525 L 180.690 160.378 M 180.690 160.378 L 181.341 161.334 M 181.341 161.334 L 182.081 162.538 M 182.081 162.538 L 183.464 164.530 M 183.464 164.530 L 183.572 164.697 M 183.572 164.697 L 184.344 165.784 M 185.871 167.876 L 186.706 169.017 M 186.706 169.017 L 187.709 170.315 M 187.709 170.315 L 188.364 171.176 M 188.364 171.176 L 189.832 173.035 M 189.832 173.035 L 190.072 173.336 M 190.072 173.336 L 191.748 175.386 M 223.565 180.555 L 223.187 180.952 M 189.832 125.259 L 189.379 125.824 M 189.379 125.824 L 187.719 127.983 M 187.719 127.983 L 186.132 130.143 M 179.143 142.484 L 178.884 143.101 M 178.884 143.101 L 178.272 145.261 M 178.272 145.261 L 177.963 147.420 M 177.963 147.420 L 177.964 149.580 M 177.964 149.580 L 178.273 151.739 M 178.273 151.739 L 178.886 153.899 M 178.886 153.899 L 179.218 154.688 M 179.218 154.688 L 179.717 156.059 M 179.717 156.059 L 180.747 158.218 M 180.747 158.218 L 181.341 159.236 M 181.341 159.236 L 181.943 160.378 M 181.943 160.378 L 183.273 162.538 M 183.273 162.538 L 183.464 162.813 M 183.464 162.813 L 183.906 163.497 M 190.704 172.809 L 191.124 173.336 M 191.124 173.336 L 191.955 174.353 M 191.955 174.353 L 192.920 175.496 M 192.920 175.496 L 193.127 175.739 M 241.605 145.261 L 241.924 147.420 M 241.924 147.420 L 241.924 149.580 M 241.924 149.580 L 241.813 150.343 M 222.396 180.468 L 221.676 181.210 M 221.676 181.210 L 221.432 181.439 M 181.341 140.273 L 181.024 140.941 M 181.024 140.941 L 180.241 143.101 M 180.241 143.101 L 179.711 145.261 M 179.711 145.261 L 179.444 147.420 M 179.444 147.420 L 179.443 149.580 M 179.443 149.580 L 179.710 151.739 M 179.710 151.739 L 180.241 153.899 M 180.241 153.899 L 181.029 156.059 M 181.029 156.059 L 181.341 156.712 M 181.341 156.712 L 181.991 158.218 M 181.991 158.218 L 183.132 160.378 M 183.132 160.378 L 183.464 160.917 M 183.464 160.917 L 183.803 161.506 M 183.219 138.662 L 183.157 138.782 M 183.157 138.782 L 182.236 140.941 M 182.236 140.941 L 181.532 143.101 M 181.341 143.965 L 181.022 145.261 M 181.022 145.261 L 180.754 147.420 M 180.754 147.420 L 180.752 149.580 M 180.752 149.580 L 180.789 149.875 M 181.914 155.064 L 182.242 156.059 M 182.242 156.059 L 183.177 158.218 M 183.177 158.218 L 183.464 158.761 M 183.464 158.761 L 183.819 159.481 M 219.214 180.843 L 217.430 182.228 M 217.430 182.228 L 217.760 181.975 M 195.794 174.922 L 195.946 175.091 M 230.168 167.440 L 228.045 170.339 M 228.045 170.339 L 225.922 172.927 M 225.922 172.927 L 224.269 174.758 M 235.657 155.119 L 235.373 156.059 M 235.373 156.059 L 234.516 158.218 M 196.617 174.512 L 197.357 175.265 M 225.922 171.574 L 223.799 173.990 M 223.799 173.990 L 222.894 174.907 M 197.467 174.090 L 198.324 174.961 M 198.324 174.961 L 198.680 175.279 M 223.799 172.701 L 221.676 174.905 M 221.676 174.905 L 221.670 174.911 M 198.318 173.668 L 198.324 173.674 M 198.324 173.674 L 200.079 175.240 M 233.119 156.379 L 232.421 158.218 M 199.246 173.207 L 199.387 173.336 M 199.387 173.336 L 200.447 174.281 M 200.447 174.281 L 201.779 175.271 M 200.180 172.743 L 200.447 172.987 M 200.447 172.987 L 200.906 173.336 M 200.906 173.336 L 202.570 174.573 M 202.570 174.573 L 204.176 175.496 M 204.176 175.496 L 204.693 175.790 M 204.693 175.790 L 206.816 176.614 M 206.816 176.614 L 208.939 177.032 M 208.939 177.032 L 211.061 177.032 M 211.061 177.032 L 213.184 176.612 M 213.184 176.612 L 215.307 175.783 M 215.307 175.783 L 215.806 175.496 M 230.593 157.634 L 230.375 158.218 M 201.195 172.239 L 202.570 173.286 M 202.570 173.286 L 202.654 173.336 M 202.654 173.336 L 204.693 174.509 M 204.693 174.509 L 206.816 175.341 M 206.816 175.341 L 207.593 175.496 M 207.593 175.496 L 208.939 175.762 M 208.939 175.762 L 211.061 175.764 M 211.061 175.764 L 212.418 175.496 M 223.799 167.326 L 221.676 169.738 M 221.676 169.738 L 219.553 171.702 M 219.553 171.702 L 220.111 171.176 M 202.239 171.720 L 202.570 171.972 M 202.570 171.972 L 204.693 173.223 M 204.693 173.223 L 204.975 173.336 M 204.975 173.336 L 206.816 174.059 M 206.816 174.059 L 208.939 174.484 M 208.939 174.484 L 211.061 174.489 M 211.061 174.489 L 213.184 174.085 M 213.184 174.085 L 215.071 173.336 M 221.676 168.332 L 219.553 170.440 M 219.553 170.440 L 217.430 172.031 M 217.430 172.031 L 218.521 171.176 M 203.396 171.145 L 203.448 171.176 M 203.448 171.176 L 204.693 171.911 M 204.693 171.911 L 206.816 172.766 M 206.816 172.766 L 208.939 173.203 M 208.939 173.203 L 211.061 173.211 M 211.061 173.211 L 213.184 172.790 M 213.184 172.790 L 215.307 171.976 M 215.307 171.976 L 216.633 171.176 M 204.622 170.536 L 204.693 170.579 M 204.693 170.579 L 206.116 171.176 M 206.116 171.176 L 206.816 171.459 M 206.816 171.459 L 208.939 171.899 M 208.939 171.899 L 211.061 171.911 M 211.061 171.911 L 213.184 171.504 M 213.184 171.504 L 213.989 171.176 M 206.086 169.809 L 206.816 170.116 M 206.816 170.116 L 208.939 170.576 M 208.939 170.576 L 211.061 170.593 M 211.061 170.593 L 213.184 170.165 M 213.184 170.165 L 215.307 169.319 M 215.307 169.319 L 215.784 169.017 M 207.772 168.971 L 207.969 169.017 M 207.969 169.017 L 208.939 169.229 M 208.939 169.229 L 211.061 169.250 M 211.061 169.250 L 212.227 169.017 M 210.054 167.838 L 211.061 167.850 M 211.061 167.850 L 213.184 167.448 M 213.184 167.448 L 214.483 166.857" fill="none" stroke="#e5e7eb" stroke-width="1" vector-effect="non-scaling-stroke"/></svg>