<svg xmlns="http://www.w3.org/2000/svg" viewBox="170.90378900229118 108.30006863694639 82.44852647063433 80.45945405413481" width="82.44852647063433" height="80.45945405413481" shape-rendering="geometricPrecision"><rect x="170.90378900229118" y="108.30006863694639" width="82.44852647063433" height="80.45945405413481" fill="#0b0f14"/><path d="M 179.475 160.576 L 179.835 161.615 L 180.290 162.617 L 180.848 163.565 L 181.502 164.449 L 182.218 165.284 L 182.894 166.152 L 183.539 167.043 L 184.176 167.940 L 184.829 168.825 L 185.522 169.679 L 186.258 170.497 L 187.022 171.288 L 187.811 172.054 L 188.624 172.795 L 189.462 173.509 L 190.334 174.179 L 191.235 174.809 L 192.150 175.420 L 193.062 176.036 L 193.954 176.679 L 194.814 177.364 L 195.707 178.007 L 196.658 178.560 L 197.658 179.019 L 198.694 179.387 L 199.755 179.679 L 200.830 179.912 L 201.915 180.092 L 203.007 180.225 L 204.102 180.332 L 205.197 180.432 L 206.293 180.524 L 207.390 180.607 L 208.488 180.675 L 209.587 180.725 L 210.687 180.753 L 211.787 180.760 L 212.886 180.745 L 213.986 180.709 L 215.085 180.654 L 216.182 180.581 L 217.279 180.497 L 218.375 180.405 L 219.471 180.306 L 220.565 180.200 L 221.656 180.054 L 222.737 179.855 L 223.806 179.594 L 224.855 179.263 L 225.870 178.838 L 226.835 178.311 L 227.742 177.688 L 228.621 177.026 L 229.511 176.381 L 230.426 175.770 L 231.349 175.171 L 232.261 174.556 L 233.145 173.902 L 233.993 173.201 L 234.818 172.474 L 235.616 171.716 L 236.384 170.929 L 237.122 170.114 L 237.831 169.272 L 238.489 168.391 L 239.113 167.485 L 239.731 166.575 L 240.375 165.683 L 241.057 164.820 L 241.728 163.949 L 242.334 163.031 L 242.838 162.053 L 243.235 161.027 L 243.543 159.971 L 243.767 158.894 L 243.910 157.803 L 243.982 156.706 L 244.049 155.608 L 244.108 154.509 L 244.160 153.410 L 244.203 152.311 L 244.235 151.212 L 244.255 150.112 L 244.261 149.012 L 244.254 147.912 L 244.234 146.812 L 244.202 145.713 L 244.159 144.613 L 244.109 143.515 L 244.052 142.416 L 243.988 141.318 L 243.918 140.220 L 243.773 139.130 L 243.542 138.054 L 243.219 137.003 L 242.795 135.988 L 242.255 135.030 L 241.638 134.119 L 240.991 133.229 L 240.349 132.336 L 239.749 131.414 L 239.160 130.485 L 238.548 129.571 L 237.885 128.693 L 237.179 127.850 L 236.441 127.034 L 235.666 126.253 L 234.855 125.510 L 234.010 124.806 L 233.138 124.135 L 232.229 123.516 L 231.284 122.952 L 230.323 122.417 L 229.370 121.869 L 228.448 121.269 L 227.529 120.665 L 226.588 120.094 L 225.611 119.589 L 224.586 119.191 L 223.525 118.900 L 222.440 118.716 L 221.343 118.644 L 220.243 118.643 L 219.143 118.648 L 218.043 118.659 L 216.943 118.678 L 215.843 118.698 L 214.743 118.713 L 213.643 118.722 L 212.543 118.724 L 211.443 118.720 L 210.343 118.710 L 209.243 118.694 L 208.144 118.674 L 207.044 118.658 L 205.944 118.649 L 204.844 118.646 L 203.744 118.648 L 202.648 118.746 L 201.569 118.958 L 200.518 119.285 L 199.510 119.724 L 198.540 120.244 L 197.600 120.814 L 196.665 121.394 L 195.708 121.937 L 194.718 122.416 L 193.740 122.918 L 192.793 123.479 L 191.891 124.108 L 191.022 124.782 L 190.184 125.495 L 189.390 126.257 L 188.647 127.067 L 187.946 127.915 L 187.290 128.798 L 186.716 129.736 L 186.274 130.744 L 186.121 131.833 L 185.764 132.874 L 185.232 133.836 L 184.653 134.772 L 184.111 135.729 L 183.673 136.738 L 183.376 137.797 L 183.256 138.891 L 183.365 139.985 L 183.553 141.069 L 184.606 141.386 L 185.220 140.473 L 185.584 139.435 L 185.827 138.362 L 186.026 137.280 L 186.249 136.203 L 186.705 135.202 L 187.367 134.324 L 188.130 133.531 L 188.920 132.766 L 189.705 131.995 L 190.400 131.143 L 191.107 130.300 L 191.873 129.510 L 192.690 128.774 L 193.555 128.094 L 194.436 127.436 L 195.244 126.689 L 196.057 125.949 L 196.931 125.281 L 197.899 124.758 L 198.932 124.379 L 199.988 124.072 L 201.056 123.810 L 202.135 123.595 L 203.213 123.374 L 204.289 123.147 L 205.367 122.928 L 206.446 122.715 L 207.526 122.506 L 208.611 122.322 L 209.702 122.186 L 209.099 121.266 L 208.056 120.919 L 206.978 120.699 L 205.890 120.536 L 204.798 120.404 L 203.703 120.292 L 202.605 120.350 L 201.528 120.574 L 200.492 120.943 L 199.455 121.311 L 198.473 121.806 L 197.524 122.362 L 196.561 122.895 L 195.524 123.259 L 194.431 123.387 L 193.368 123.669 L 192.376 124.144 L 191.449 124.737 L 190.564 125.390 L 189.709 126.083 L 188.900 126.827 L 188.141 127.624 L 187.429 128.462 L 186.753 129.330 L 186.136 130.240 L 185.598 131.200 L 185.113 132.187 L 184.598 133.159 L 184.013 134.091 L 183.413 135.013 L 182.848 135.957 L 182.358 136.941 L 181.968 137.970 L 181.709 139.039 L 181.582 140.132 L 181.591 141.232 L 181.609 142.332 L 181.633 143.431 L 181.666 144.531 L 181.704 145.630 L 181.734 146.730 L 181.754 147.830 L 181.762 148.930 L 181.757 150.030 L 181.739 151.129 L 181.710 152.229 L 181.671 153.328 L 181.634 154.428 L 181.606 155.527 L 181.586 156.627 L 181.573 157.727 L 181.676 158.822 L 181.906 159.898 L 182.258 160.940 L 182.732 161.932 L 183.291 162.880 L 183.901 163.795 L 184.527 164.700 L 185.121 165.626 L 185.660 166.585 L 186.217 167.533 L 186.827 168.448 L 187.501 169.318 L 188.213 170.156 L 188.962 170.962 L 189.750 171.730 L 190.575 172.457 L 191.429 173.150 L 192.312 173.807 L 193.232 174.409 L 194.176 174.973 L 195.125 175.531 L 196.051 176.124 L 196.962 176.741 L 197.882 177.344 L 198.829 177.904 L 199.828 178.364 L 200.869 178.719 L 201.938 178.979 L 203.023 179.155 L 204.119 179.251 L 205.218 179.306 L 206.317 179.357 L 207.416 179.402 L 208.515 179.439 L 209.615 179.470 L 210.715 179.492 L 211.814 179.505 L 212.914 179.508 L 214.014 179.501 L 215.114 179.483 L 216.214 179.457 L 217.313 179.422 L 218.413 179.379 L 219.511 179.330 L 220.610 179.275 L 221.708 179.215 L 222.800 179.083 L 223.880 178.873 L 224.941 178.582 L 225.975 178.206 L 226.966 177.728 L 227.902 177.150 L 228.799 176.513 L 229.687 175.865 L 230.598 175.249 L 231.528 174.660 L 232.454 174.067 L 233.359 173.441 L 234.227 172.766 L 235.068 172.057 L 235.883 171.319 L 236.668 170.548 L 237.422 169.747 L 238.150 168.922 L 238.835 168.062 L 239.477 167.169 L 240.099 166.261 L 240.730 165.360 L 241.395 164.484 L 242.079 163.622 L 242.735 162.739 L 243.294 161.792 L 243.745 160.789 L 244.097 159.746 L 244.370 158.681 L 244.575 157.600 L 244.721 156.510 L 244.828 155.415 L 244.929 154.320 L 245.022 153.224 L 245.105 152.127 L 245.175 151.029 L 245.226 149.930 L 245.255 148.831 L 245.262 147.731 L 245.246 146.631 L 245.207 145.531 L 245.147 144.433 L 245.067 143.336 L 244.977 142.240 L 244.878 141.144 L 244.770 140.049 L 244.653 138.956 L 244.481 137.869 L 244.252 136.793 L 243.959 135.733 L 243.589 134.697 L 243.124 133.700 L 242.560 132.756 L 241.902 131.874 L 241.185 131.040 L 240.511 130.171 L 239.868 129.279 L 239.233 128.381 L 238.580 127.495 L 237.886 126.641 L 237.150 125.824 L 236.387 125.032 L 235.598 124.265 L 234.785 123.524 L 233.948 122.811 L 233.076 122.140 L 232.174 121.510 L 231.259 120.899 L 230.348 120.283 L 229.457 119.639 L 228.596 118.954 L 227.702 118.312 L 226.749 117.763 L 225.745 117.313 L 224.705 116.956 L 223.642 116.672 M 219.459 121.012 L 218.387 121.260 L 217.384 121.711 L 218.108 122.539 L 219.177 122.800 L 220.247 123.054 L 221.317 123.308 L 222.394 123.536 L 223.473 123.750 L 224.542 124.010 L 225.598 124.317 L 226.620 124.725 L 227.557 125.299 L 228.391 126.017 L 229.182 126.782 L 229.981 127.537 L 230.871 128.185 L 231.729 128.873 L 232.538 129.618 L 233.295 130.417 L 233.990 131.269 L 234.701 132.108 L 235.492 132.872 L 236.288 133.631 L 237.053 134.422 L 237.706 135.307 L 238.132 136.321 L 238.323 137.404 L 238.514 138.488 L 238.769 139.558 L 239.180 140.578 L 239.924 141.388 L 240.545 140.479 L 240.755 139.400 L 240.748 138.300 L 240.528 137.222 M 240.144 161.202 L 240.575 160.190 L 240.861 159.128 L 240.966 158.033 L 240.832 156.941 L 240.624 155.861 L 240.110 154.888 L 239.336 155.670 L 238.857 156.660 L 238.545 157.715 L 238.233 158.770 L 238.000 159.845 L 237.768 160.920 L 237.481 161.982 L 236.978 162.960 L 236.190 163.728 L 235.333 164.418 L 234.503 165.139 L 233.707 165.898 L 233.030 166.765 L 232.314 167.600 L 231.541 168.383 L 230.717 169.112 L 229.841 169.777 L 228.983 170.466 L 228.200 171.238 L 227.423 172.017 L 226.618 172.766 L 225.720 173.402 L 224.687 173.778 L 223.599 173.940 L 222.512 174.111 L 221.436 174.342 L 220.399 174.708 L 219.523 175.373 L 220.317 176.134 L 221.401 176.324 L 222.501 176.332 L 223.585 176.144 L 224.630 175.802 L 225.624 175.331 L 226.578 174.783 L 227.532 174.236" fill="none" stroke="#00AEEF" stroke-width="1" vector-effect="non-scaling-stroke"/><path d="M 244.920 137.056 L 244.605 136.002 L 244.204 134.978 L 243.703 133.999 L 243.100 133.079 L 242.409 132.223 L 241.711 131.373 L 241.051 130.493 L 240.412 129.597 L 239.771 128.703 L 239.105 127.828 L 238.392 126.990 L 237.641 126.187 L 236.866 125.407 L 236.066 124.651 L 235.243 123.921 L 234.391 123.226 L 233.503 122.576 L 232.594 121.957 L 231.678 121.348 L 230.773 120.723 L 229.893 120.062 L 229.032 119.377 L 228.114 118.772 L 227.141 118.259 L 226.123 117.842 L 225.074 117.511 L 224.006 117.246 L 222.926 117.038 L 221.837 116.882 L 220.743 116.774 L 219.647 116.672 L 218.551 116.577 L 217.455 116.491 L 216.358 116.415 L 215.259 116.356 L 214.160 116.318 L 213.060 116.300 L 211.960 116.303 L 210.860 116.327 L 209.761 116.372 L 208.663 116.434 L 207.566 116.511 L 206.469 116.597 L 205.373 116.691 L 204.277 116.791 L 203.184 116.911 L 202.097 117.081 L 201.021 117.310 L 199.961 117.604 L 198.928 117.981 L 197.937 118.459 L 197.001 119.037 L 196.115 119.688 L 195.236 120.349 L 194.329 120.973 L 193.407 121.572 L 192.487 122.175 L 191.587 122.808 L 190.723 123.489 L 189.886 124.202 L 189.074 124.944 L 188.291 125.717 L 187.539 126.520 L 186.815 127.347 L 186.134 128.212 L 185.498 129.109 L 184.883 130.021 L 184.258 130.926 L 183.594 131.803 L 182.917 132.670 L 182.264 133.556 L 181.709 134.505 L 181.260 135.510 L 180.910 136.552 L 180.648 137.621 L 180.469 138.706 L 180.373 139.802 L 180.307 140.900 L 180.247 141.998 L 180.195 143.097 L 180.151 144.196 L 180.116 145.296 L 180.092 146.395 L 180.081 147.495 L 180.082 148.595 L 180.095 149.695 L 180.120 150.795 L 180.156 151.894 L 180.199 152.993 L 180.251 154.092 L 180.309 155.191 L 180.374 156.289 L 180.480 157.384 L 180.672 158.467 L 180.954 159.530 L 181.336 160.562 L 181.829 161.545 L 182.423 162.471 L 183.058 163.369 L 183.704 164.259 L 184.316 165.173 L 184.901 166.105 L 185.497 167.029 L 186.135 167.925 L 186.826 168.781 L 187.550 169.610 L 188.309 170.406 L 189.105 171.164 L 189.938 171.884 L 190.799 172.567 L 191.692 173.210 L 192.626 173.792 L 193.585 174.329 L 194.549 174.860 L 195.483 175.441 L 196.401 176.046 L 197.332 176.632 L 198.294 177.165 L 199.302 177.608 L 200.350 177.941 L 201.427 178.165 L 202.521 178.278 L 203.621 178.275 L 204.721 178.266 L 205.821 178.251 L 206.921 178.229 L 208.020 178.200 L 209.120 178.178 L 210.220 178.163 L 211.320 178.157 L 212.420 178.159 L 213.520 178.169 L 214.620 178.187 L 215.720 178.212 L 216.819 178.237 L 217.919 178.255 L 219.019 178.266 L 220.119 178.272 L 221.218 178.220 L 222.305 178.050 L 223.367 177.764 L 224.390 177.360 L 225.373 176.866 L 226.322 176.310 L 227.257 175.731 L 228.207 175.176 L 229.197 174.697 L 230.185 174.214 L 231.147 173.680 L 232.064 173.072 L 232.943 172.411 L 233.794 171.714 L 234.603 170.969 L 235.363 170.173 L 236.071 169.332 L 236.743 168.461 L 237.346 167.541 L 237.818 166.547 L 238.047 165.471 L 238.284 164.397 L 238.756 163.404 L 239.330 162.465 L 239.893 161.520 L 240.369 160.529 L 240.708 159.482 L 240.877 158.395 L 240.823 157.296 L 240.622 156.215 L 240.247 155.181 L 239.370 155.845 L 238.865 156.822 L 238.560 157.879 L 238.335 158.956 L 238.124 160.035 L 237.839 161.098 L 237.318 162.066 L 236.624 162.920 L 235.856 163.708 L 235.070 164.478 L 234.310 165.272 L 233.637 166.143 L 232.909 166.968 L 232.126 167.740 L 231.293 168.458 L 230.411 169.116 L 229.557 169.808 L 228.748 170.555 L 227.917 171.275 L 227.007 171.893 L 226.012 172.362 L 224.965 172.700 L 223.906 172.995 L 222.834 173.244 L 221.754 173.453 L 220.678 173.681 L 219.600 173.901 L 218.521 174.113 L 217.440 174.317 L 216.358 174.516 L 215.270 174.675 L 214.175 174.783 L 213.076 174.832 L 211.976 174.825 L 210.878 174.763 L 209.784 174.651 L 208.694 174.497 L 207.609 174.317 L 206.525 174.129 L 205.443 173.932 L 204.363 173.724 L 203.283 173.515 L 202.208 173.284 L 201.144 173.002 L 200.094 172.676 L 199.061 172.297 L 198.074 171.813 L 197.137 171.236 L 196.241 170.598 L 195.364 169.933 L 194.462 169.304 L 193.610 168.609 L 192.803 167.861 L 192.043 167.066 L 191.333 166.226 L 190.675 165.344 L 190.016 164.464 L 189.403 163.550 L 188.865 162.590 L 188.414 161.587 L 188.025 160.558 L 187.659 159.521 L 187.328 158.472 L 187.037 157.411 L 186.798 156.337 L 186.616 155.252 L 186.472 154.162 L 186.342 153.070 L 186.235 151.975 L 186.163 150.877 L 186.125 149.778 L 186.120 148.678 L 186.147 147.578 L 186.207 146.480 L 186.299 145.384 L 186.420 144.290 L 186.562 143.200 L 186.751 142.116 L 187.003 141.045 L 187.322 139.993 L 187.680 138.953 L 188.068 137.923 L 188.476 136.902 L 188.904 135.888 L 189.393 134.903 L 189.934 133.945 L 190.511 133.009 L 191.172 132.129 L 191.899 131.303 L 192.625 130.478 L 193.392 129.689 L 194.196 128.938 L 195.036 128.229 L 195.916 127.568 L 196.860 127.003 L 197.823 126.471 L 198.810 125.987 L 199.825 125.561 L 200.854 125.173 L 201.889 124.801 L 202.934 124.456 L 203.989 124.146 L 205.058 123.887 L 206.141 123.693 L 207.231 123.547 L 208.324 123.425 L 209.420 123.321 L 210.517 123.247 L 211.616 123.203 L 212.716 123.189 L 213.816 123.204 L 214.915 123.251 L 216.012 123.330 L 217.107 123.440 L 218.199 123.568 L 219.290 123.708 L 220.376 123.882 L 221.452 124.110 L 222.517 124.385 L 223.572 124.698 L 224.617 125.043 L 225.653 125.412 L 226.665 125.844 L 227.635 126.361 L 228.562 126.953 L 229.458 127.592 L 230.355 128.229 L 231.219 128.909 L 232.040 129.642 L 232.814 130.423 L 233.538 131.251 L 234.195 132.133 L 234.896 132.981 L 235.573 133.848 L 236.190 134.759 L 236.710 135.728 L 237.113 136.752 L 237.451 137.798 L 237.740 138.860 L 237.971 139.935 L 238.203 141.011 L 238.434 142.086 L 238.656 143.163 L 238.870 144.242 L 239.078 145.323 L 239.255 146.408 L 239.383 147.501 L 239.448 148.599 L 239.443 149.699 L 239.359 150.796 L 239.199 151.884 L 238.985 152.963 L 238.749 154.037 L 238.511 155.111 L 238.269 156.184 L 238.019 157.256 L 237.782 158.330 L 237.553 159.406 L 237.273 160.469 L 236.944 161.519 L 236.521 162.534 L 235.937 163.466 L 235.214 164.295 L 234.438 165.075 L 233.664 165.857 L 232.992 166.728 L 232.275 167.562 L 231.502 168.345 L 230.679 169.074 L 229.804 169.741 L 228.941 170.424 L 228.141 171.179 L 227.338 171.930 L 226.494 172.635 L 225.558 173.214 L 224.526 173.595 L 223.448 173.811 L 222.366 174.009 L 221.291 174.242 L 220.243 174.579 L 219.266 175.083 L 218.767 176.063 L 219.839 176.310 L 220.926 176.476 L 222.023 176.567 L 223.117 176.452 L 224.181 176.176 L 225.203 175.767 L 226.176 175.254 L 227.125 174.699 L 228.093 174.176 L 229.128 173.803 L 230.215 173.634 L 231.245 173.247 L 232.211 172.722 L 233.122 172.105 L 233.996 171.437 L 234.837 170.728 L 235.631 169.967 L 236.376 169.158 L 237.080 168.313 L 237.744 167.435 L 238.340 166.511 L 238.867 165.545 L 239.356 164.560 L 239.905 163.607 L 240.504 162.684 L 241.101 161.760 L 241.650 160.807 L 242.118 159.811 L 242.472 158.770 L 242.698 157.694 L 242.796 156.598 L 242.791 155.498 L 242.781 154.398 L 242.763 153.298 L 242.738 152.198 L 242.710 151.099 L 242.689 149.999 L 242.677 148.899 L 242.673 147.799 L 242.679 146.699 L 242.695 145.599 L 242.719 144.499 L 242.750 143.400 L 242.774 142.300 L 242.791 141.200 L 242.800 140.100 L 242.796 139.000 L 242.659 137.909 L 242.400 136.840 L 242.024 135.806 L 241.528 134.824 L 240.953 133.886 L 240.333 132.978 L 239.704 132.075 L 239.113 131.148 L 238.564 130.195 L 237.992 129.255 L 237.366 128.350 L 236.682 127.489 L 235.962 126.657 L 235.206 125.859 L 234.410 125.099 L 233.580 124.377 L 232.722 123.688 L 231.836 123.037 L 230.912 122.441 L 229.968 121.876 L 229.025 121.310 L 228.106 120.704 L 227.198 120.084 L 226.277 119.482 L 225.327 118.929 L 224.318 118.489 L 223.271 118.151 L 222.200 117.904 L 221.112 117.737 L 220.016 117.648 L 218.918 117.587 L 217.819 117.533 L 216.720 117.484 L 215.621 117.443 L 214.521 117.409 L 213.422 117.385 L 212.322 117.372 L 211.222 117.370 L 210.122 117.379 L 209.022 117.400 L 207.922 117.432 L 206.823 117.473 L 205.724 117.521 L 204.626 117.576 L 203.527 117.637 L 202.429 117.704 L 201.339 117.847 L 200.260 118.065 L 199.201 118.362 L 198.170 118.744 L 197.181 119.227 L 196.248 119.808 L 195.355 120.451 L 194.470 121.105 L 193.560 121.722 L 192.633 122.314 L 191.709 122.911 L 190.807 123.540 L 189.941 124.219 L 189.102 124.930 L 188.289 125.671 L 187.506 126.444 L 186.752 127.245 L 186.025 128.070 L 185.342 128.933 L 184.699 129.826 L 184.076 130.732 L 183.441 131.630 L 182.771 132.502 L 182.083 133.361 L 181.433 134.248 L 180.881 135.200 L 180.436 136.206 L 180.089 137.249 L 179.818 138.316 L 179.613 139.396 L 179.465 140.486 L 179.354 141.581 L 179.249 142.676 L 179.153 143.772 L 179.067 144.868 L 178.994 145.966 L 178.941 147.064 L 178.911 148.164 L 178.904 149.264 L 178.920 150.364 L 178.960 151.463 L 179.022 152.561 L 179.105 153.658 L 179.198 154.754 L 179.301 155.849 L 179.413 156.944 L 179.533 158.037 L 179.706 159.124 L 179.933 160.200 L 180.223 161.261 L 180.586 162.299 L 181.044 163.300 L 181.601 164.248 L 182.251 165.135 L 182.974 165.965 L 183.651 166.831 L 184.297 167.722 L 184.933 168.620 L 185.584 169.506 L 186.274 170.363 L 187.007 171.183 L 187.769 171.976 L 188.556 172.744 L 189.368 173.487 L 190.203 174.203 L 191.072 174.876 L 191.973 175.508 L 192.888 176.119 L 193.799 176.735 L 194.692 177.377 L 195.555 178.060 L 196.445 178.706 L 197.395 179.260 L 198.397 179.716 L 199.435 180.078 L 200.497 180.366 M 217.616 125.630 L 218.658 125.983 L 219.681 126.388 L 220.683 126.841 L 221.682 127.301 L 222.680 127.764 L 223.674 128.235 L 224.653 128.737 L 225.599 129.298 L 226.504 129.923 L 227.368 130.605 L 228.192 131.333 L 229.017 132.061 L 229.808 132.825 L 230.563 133.625 L 231.273 134.465 L 231.926 135.350 L 232.515 136.279 L 233.040 137.246 L 233.533 138.229 L 234.016 139.218 L 234.498 140.206 L 234.972 141.199 L 235.395 142.214 L 235.763 143.251 L 236.075 144.306 L 236.335 145.375 L 236.515 146.460 L 236.624 147.554 L 236.671 148.653 L 236.665 149.753 L 236.603 150.852 L 236.481 151.945 L 236.290 153.028 L 236.036 154.099 L 235.732 155.156 L 235.374 156.196 L 234.958 157.214 L 234.505 158.216 L 234.041 159.214 L 233.575 160.210 L 233.115 161.209 L 232.625 162.194 L 232.066 163.142 L 231.434 164.042 L 230.733 164.889 L 229.975 165.687 L 229.188 166.455 L 228.376 167.197 L 227.517 167.884 L 226.606 168.501 L 225.648 169.041 L 224.650 169.503 L 223.637 169.932 L 222.626 170.366 L 221.615 170.799" fill="none" stroke="#EC008C" stroke-width="1" vector-effect="non-scaling-stroke"/><path d="M 224.537 180.173 L 225.584 179.835 L 226.597 179.408 L 227.563 178.881 L 228.471 178.260 L 229.327 177.569 L 230.212 176.916 L 231.120 176.295 L 232.035 175.684 L 232.941 175.061 L 233.821 174.400 L 234.666 173.696 L 235.483 172.960 L 236.277 172.199 L 237.047 171.413 L 237.792 170.603 L 238.494 169.757 L 239.154 168.877 L 239.792 167.980 L 240.432 167.086 L 241.099 166.211 L 241.807 165.369 L 242.481 164.500 L 243.066 163.569 L 243.552 162.582 L 243.942 161.553 L 244.251 160.498 L 244.495 159.425 L 244.682 158.341 L 244.817 157.249 L 244.930 156.155 L 245.035 155.060 L 245.130 153.964 L 245.215 152.868 L 245.283 151.770 L 245.329 150.671 L 245.352 149.571 L 245.352 148.471 L 245.328 147.371 L 245.281 146.272 L 245.214 145.174 L 245.131 144.077 L 245.038 142.981 L 244.936 141.886 L 244.827 140.791 L 244.694 139.699 L 244.506 138.616 L 244.254 137.545 L 243.929 136.494 L 243.512 135.476 L 242.989 134.508 L 242.364 133.603 L 241.681 132.741 L 240.998 131.879 L 240.356 130.985 L 239.733 130.079 L 239.098 129.181 L 238.428 128.308 L 237.707 127.478 L 236.961 126.669 L 236.186 125.888 L 235.381 125.139 L 234.549 124.420 L 233.694 123.727 L 232.801 123.085 L 231.881 122.482 L 230.952 121.893 L 230.035 121.285 L 229.148 120.635 L 228.259 119.987 L 227.342 119.380 L 226.367 118.870 L 225.346 118.461 L 224.293 118.142 L 223.219 117.903 L 222.132 117.740 L 221.035 117.653 L 219.937 117.590 L 218.838 117.533 L 217.739 117.483 L 216.640 117.441 L 215.541 117.407 L 214.441 117.383 L 213.341 117.370 L 212.241 117.369 L 211.141 117.380 L 210.041 117.401 L 208.942 117.432 L 207.843 117.472 L 206.744 117.518 L 205.645 117.572 L 204.546 117.630 L 203.449 117.700 L 202.358 117.846 L 201.282 118.071 L 200.227 118.384 L 199.206 118.793 L 198.237 119.314 L 197.309 119.905 L 196.400 120.524 L 195.488 121.138 L 194.549 121.712 L 193.604 122.275 L 192.673 122.861 L 191.774 123.495 L 190.910 124.175 L 190.071 124.887 L 189.266 125.637 L 188.499 126.425 L 187.769 127.248 L 187.073 128.100 L 186.429 128.992 L 185.844 129.923 L 185.290 130.873 L 184.723 131.816 L 184.098 132.721 L 183.471 133.625 L 182.880 134.553 L 182.358 135.521 L 181.950 136.543 L 181.658 137.603 L 181.486 138.690 L 181.441 139.789 L 181.446 140.889 L 181.458 141.989 L 181.478 143.089 L 181.507 144.188 L 181.531 145.288 L 181.547 146.388 L 181.555 147.488 L 181.555 148.588 L 181.546 149.688 L 181.529 150.788 L 181.505 151.887 L 181.479 152.987 L 181.462 154.087 L 181.451 155.187 L 181.447 156.287 L 181.509 157.385 L 181.699 158.469 L 182.016 159.522 L 182.455 160.531 L 182.984 161.495 L 183.571 162.425 L 184.176 163.344 L 184.747 164.284 L 185.238 165.269 L 185.753 166.241 L 186.327 167.179 L 186.975 168.067 L 187.670 168.920 L 188.402 169.741 L 189.182 170.517 L 190.009 171.242 L 190.875 171.921 L 191.772 172.557 L 192.719 173.118 L 193.728 173.555 L 194.803 173.789 L 195.847 174.135 L 196.824 174.640 L 197.773 175.197 L 198.737 175.726 L 199.744 176.169 L 200.796 176.490 L 201.882 176.663 L 202.982 176.655 L 204.074 176.521 L 205.161 176.351 L 205.289 175.258 L 204.342 174.699 L 203.311 174.315 L 202.241 174.060 L 201.160 173.856 L 200.080 173.648 L 199.028 173.326 L 198.058 172.807 L 197.187 172.135 L 196.373 171.395 L 195.572 170.641 L 194.735 169.928 L 193.837 169.292 L 192.998 168.581 L 192.210 167.813 L 191.476 166.995 L 190.804 166.123 L 190.062 165.312 L 189.281 164.537 L 188.528 163.734 L 187.891 162.838 L 187.421 161.843 L 187.079 160.798 L 186.785 159.738 L 186.542 158.665 L 186.311 157.590 L 186.055 156.520 L 185.806 155.448 L 185.561 154.376 L 185.315 153.304 L 185.077 152.230 L 184.880 151.148 L 184.756 150.055 L 184.723 148.955 L 184.769 147.856 L 184.888 146.763 L 185.062 145.676 L 185.272 144.597 L 185.492 143.519 L 185.718 142.442 L 185.952 141.368 L 186.194 140.295 L 186.418 139.218 L 186.684 138.150 L 187.003 137.098 L 187.367 136.059 L 187.849 135.071 L 188.441 134.144 L 189.106 133.268 L 189.806 132.419 L 190.487 131.555 L 191.190 130.709 L 191.948 129.911 L 192.752 129.161 L 193.601 128.462 L 194.496 127.821 L 195.384 127.173 L 196.297 126.560 L 197.252 126.013 L 198.250 125.550 L 199.282 125.171 L 200.323 124.816 L 201.374 124.491 L 202.425 124.167 L 203.488 123.882 L 204.561 123.642 L 205.648 123.468 L 206.737 123.313 L 207.827 123.170 L 208.919 123.038 L 210.015 122.936 L 211.112 122.868 L 212.212 122.836 L 213.312 122.838 L 214.411 122.876 L 215.509 122.952 L 216.603 123.064 L 217.694 123.207 L 218.783 123.361 L 219.870 123.527 L 220.955 123.707 L 222.034 123.923 L 223.103 124.182 L 224.161 124.482 L 225.209 124.818 L 226.240 125.201 L 227.225 125.691 L 228.149 126.287 L 229.021 126.958 L 229.873 127.654 L 230.771 128.288 L 231.626 128.980 L 232.434 129.727 L 233.192 130.524 L 233.892 131.373 L 234.588 132.224 L 235.338 133.029 L 236.070 133.851 L 236.739 134.723 L 237.284 135.679 L 237.667 136.710 L 237.954 137.772 L 238.188 138.847 L 238.434 139.919 L 238.745 140.974 L 239.102 142.014 L 239.523 143.031 L 240.146 143.938 L 240.975 143.215 L 241.155 142.130 L 241.294 141.039 L 241.410 139.945 L 241.470 138.846 L 241.334 137.755 L 241.035 136.696 L 240.606 135.684 L 240.077 134.719 L 239.497 133.784 L 238.924 132.845 L 238.442 131.856 L 238.145 130.797 L 237.688 129.797 L 237.120 128.855 L 236.467 127.970 L 235.768 127.120 L 235.028 126.306 L 234.241 125.538 L 233.409 124.818 L 232.545 124.137 L 231.651 123.497 L 230.713 122.921 L 229.744 122.401 L 228.763 121.904 L 227.808 121.358 L 226.876 120.773 L 225.941 120.194 L 224.979 119.661 L 223.977 119.206 L 222.933 118.861 L 221.858 118.627 L 220.765 118.501 L 219.665 118.482 L 218.565 118.473 L 217.465 118.470 L 216.365 118.473 L 215.265 118.482 L 214.165 118.490 L 213.066 118.495 L 211.966 118.497 L 210.866 118.497 L 209.766 118.494 L 208.666 118.488 L 207.566 118.479 L 206.466 118.471 L 205.366 118.470 L 204.266 118.475 L 203.166 118.487 L 202.067 118.541 L 200.979 118.703 L 199.911 118.966 L 198.874 119.332 L 197.881 119.806 L 196.934 120.365 L 196.014 120.968 L 195.101 121.582 L 194.167 122.164 L 193.212 122.710 L 192.265 123.270 L 191.346 123.874 L 190.467 124.535 L 189.616 125.232 L 188.794 125.963 L 188.008 126.733 L 187.258 127.537 L 186.539 128.370 L 185.855 129.231 L 185.225 130.133 L 184.627 131.056 L 184.026 131.978 L 183.386 132.872 L 182.731 133.756 L 182.096 134.654 L 181.523 135.593 L 181.062 136.592 L 180.707 137.633 L 180.444 138.701 L 180.265 139.786 L 180.163 140.882 L 180.089 141.979 L 180.021 143.077 L 179.961 144.175 L 179.909 145.274 L 179.867 146.373 L 179.838 147.473 L 179.824 148.573 L 179.825 149.673 L 179.841 150.773 L 179.873 151.872 L 179.918 152.971 L 179.973 154.070 L 180.037 155.168 L 180.109 156.266 L 180.187 157.363 L 180.302 158.457 L 180.494 159.540 L 180.763 160.606 L 181.117 161.648 L 181.567 162.652 L 182.123 163.601 L 182.773 164.488 L 183.460 165.347 L 184.130 166.220 L 184.762 167.120 L 185.384 168.028 L 186.025 168.922 L 186.707 169.784 L 187.436 170.609 L 188.190 171.409 L 188.973 172.182 L 189.785 172.924 L 190.621 173.639 L 191.486 174.319 L 192.385 174.952 L 193.303 175.558 L 194.222 176.163 L 195.124 176.792 L 195.996 177.462 L 196.877 178.122 L 197.815 178.696 L 198.808 179.170 L 199.842 179.544 L 200.902 179.839 L 201.977 180.070 L 203.063 180.247 L 204.155 180.378 L 205.250 180.486 L 206.345 180.588 L 207.441 180.682 M 237.460 145.783 L 237.511 146.881 L 237.527 147.981 L 237.509 149.081 L 237.453 150.180 L 237.352 151.275 L 237.192 152.363 L 236.984 153.444 L 236.722 154.512 L 236.398 155.563 L 236.007 156.591 L 235.615 157.619 L 235.195 158.636 L 234.759 159.646 L 234.316 160.652 L 233.874 161.660 L 233.406 162.655 L 232.895 163.629 L 232.296 164.552 L 231.609 165.411 L 230.860 166.217 L 230.080 166.992 L 229.270 167.736 L 228.430 168.446 L 227.526 169.073 L 226.562 169.603 L 225.571 170.080 L 224.562 170.519 L 223.542 170.931 L 222.521 171.339 L 221.494 171.735 L 220.460 172.109 L 219.413 172.447 L 218.347 172.720 L 217.269 172.935 L 216.182 173.103 L 215.089 173.232 L 213.992 173.315 L 212.893 173.363 L 211.793 173.380 L 210.693 173.373 L 209.594 173.338 L 208.496 173.273 L 207.401 173.172 L 206.309 173.035" fill="none" stroke="#FFF200" stroke-width="1" vector-effect="non-scaling-stroke"/></svg>