<svg xmlns="http://www.w3.org/2000/svg" viewBox="173.78625469407643 107.82558694088097 80.28432055813244 79.35459460987035" width="80.28432055813244" height="79.35459460987035" shape-rendering="geometricPrecision"><rect x="173.78625469407643" y="107.82558694088097" width="80.28432055813244" height="79.35459460987035" fill="#0b0f14"/><path d="M 210.449 115.826 L 209.258 115.970 L 208.094 116.261 L 207.018 116.792 L 206.039 117.486 L 205.018 118.117 L 203.909 118.575 L 202.724 118.764 L 201.524 118.766 L 200.325 118.716 L 199.127 118.647 L 197.939 118.820 L 196.827 119.271 L 195.836 119.948 L 194.897 120.695 L 193.912 121.381 L 192.924 122.061 L 191.924 122.724 L 190.881 123.318 L 189.810 123.860 L 188.806 124.517 L 187.884 125.285 L 187.018 126.116 L 186.213 127.005 L 185.529 127.991 L 185.035 129.085 L 184.548 130.182 L 184.641 131.378 L 184.117 132.458 L 183.578 133.530 L 184.460 132.717 L 185.365 131.928 L 186.222 131.088 L 186.991 130.167 L 187.813 129.293 L 188.680 128.463 L 189.534 127.621 L 190.458 126.855 L 191.413 126.128 L 192.284 125.302 L 193.017 124.352 L 194.030 123.708 L 195.042 123.064 L 196.231 122.899 L 197.419 122.731 L 198.610 122.586 L 199.807 122.503 L 201.006 122.453 L 202.206 122.434 L 203.388 122.229 L 204.440 121.651 L 205.426 120.967 L 206.548 120.542 L 207.737 120.376 L 208.929 120.244 L 210.123 120.125 L 211.323 120.077 L 212.522 120.082 L 213.721 120.139 L 214.916 120.251 L 216.112 120.351 L 217.307 120.457 L 216.128 120.683 L 217.309 120.900 L 218.252 121.642 L 218.871 122.670 L 219.945 123.204 L 221.122 123.440 L 222.322 123.424 L 223.522 123.406 L 224.722 123.417 L 225.917 123.528 L 227.099 123.733 L 228.255 124.055 L 229.297 124.650 L 230.175 125.468 L 231.075 126.262 L 232.044 126.969 L 232.956 127.749 L 233.812 128.590 L 234.681 129.418 L 235.489 130.305 L 236.265 131.220 L 237.121 132.062 L 238.011 132.866 L 238.810 133.762 L 237.616 133.883 L 238.060 134.998 L 238.308 136.172 L 238.466 137.362 L 238.516 138.561 L 238.508 139.761 L 238.494 140.960 L 238.672 142.147 L 239.192 143.229 L 239.809 144.258 L 240.229 145.382 L 240.538 146.541 L 240.769 147.719 L 240.931 148.908 L 240.989 150.106 L 240.955 151.306 L 240.827 152.499 L 240.624 153.682 L 240.362 154.853 L 239.994 155.995 L 239.435 157.057 L 238.816 158.085 L 238.540 159.253 L 238.554 160.453 L 238.561 161.653 L 238.531 162.852 L 238.399 164.045 L 238.186 165.226 L 237.844 166.376 L 237.149 167.354 L 236.213 168.106 L 235.370 168.960 L 234.624 169.900 L 233.813 170.785 L 232.945 171.613 L 232.090 172.454 L 231.177 173.233 L 230.245 173.990 L 229.395 174.837 L 228.604 175.740 L 229.035 176.860 L 230.046 176.214 L 231.079 175.604 L 232.177 175.118 L 233.289 174.668 L 234.323 174.058 L 235.257 173.305 L 236.130 172.482 L 236.948 171.603 L 237.671 170.646 L 238.250 169.595 L 238.858 168.561 L 239.536 167.570 L 240.250 166.606 L 240.956 165.635 L 241.731 164.719 L 242.461 163.767 L 242.994 162.691 L 243.223 161.513 L 243.189 160.314 L 243.137 159.115 L 243.145 157.915 L 243.353 156.733 L 243.851 155.641 L 244.520 154.645 L 245.244 153.688 L 245.779 152.614 L 246.071 151.450 M 225.986 176.040 L 224.792 176.163 L 223.593 176.194 L 222.393 176.189 L 221.193 176.177 L 220.014 176.402 L 218.952 176.961 L 217.973 177.654 L 216.834 178.033 L 217.977 178.399 L 216.847 178.800 L 215.653 178.923 L 214.459 179.040 L 213.263 179.141 L 212.064 179.180 L 210.864 179.165 L 209.666 179.089 L 208.474 178.953 L 207.284 178.797 L 206.111 178.545 L 205.032 178.019 L 204.080 177.289 L 202.959 176.859 L 201.760 176.823 L 200.560 176.795 L 199.361 176.745 L 198.166 176.643 L 196.978 176.469 L 195.791 176.296 L 194.674 175.856 L 193.704 175.151 L 192.815 174.344 L 191.895 173.574 L 190.922 172.872 L 190.037 172.061 L 189.177 171.224 L 188.320 170.384 L 187.553 169.461 L 186.799 168.528 L 185.988 167.643 L 185.239 166.706 L 184.752 165.609 L 184.484 164.439 L 184.315 163.251 L 184.270 162.052 L 184.298 160.853 L 184.319 159.653 L 184.183 158.461 L 183.707 157.359 L 183.063 156.346 L 182.617 155.232 L 182.291 154.078 L 182.043 152.903 L 181.859 151.718 L 181.786 150.520 L 181.814 149.320 L 181.952 148.128 L 182.185 146.951 L 182.489 145.790 L 182.987 144.698 L 183.606 143.670 L 184.225 142.642 L 184.832 141.607 L 185.188 140.461 L 185.208 139.261 L 185.215 138.061 L 185.228 136.861 L 185.385 135.671 L 185.742 134.526" fill="none" stroke="#2dd4bf" stroke-width="1" vector-effect="non-scaling-stroke"/><path d="M 238.006 170.038 L 236.536 171.681 M 236.536 171.681 L 234.829 173.650 M 242.502 163.684 L 240.782 165.539 M 240.782 165.539 L 238.659 167.937 M 238.659 167.937 L 236.536 170.394 M 234.413 172.823 L 232.701 174.906 M 234.413 171.517 L 232.291 174.104 M 232.291 174.104 L 231.022 175.638 M 232.291 172.802 L 230.168 175.442 M 230.168 175.442 L 229.017 176.814 M 187.246 125.898 L 185.615 127.983 M 185.615 127.983 L 185.413 128.246 M 230.378 173.883 L 230.168 174.144 M 230.168 174.144 L 228.681 175.938 M 189.832 125.259 L 189.379 125.824 M 189.379 125.824 L 187.719 127.983 M 187.719 127.983 L 186.132 130.143 M 184.475 164.375 L 184.683 164.697 M 184.683 164.697 L 185.587 165.969 M 185.587 165.969 L 186.191 166.857 M 186.191 166.857 L 187.709 168.933 M 187.709 168.933 L 187.770 169.017 M 187.770 169.017 L 189.409 171.176 M 189.409 171.176 L 189.832 171.713 M 189.832 171.713 L 190.303 172.304 M 241.904 147.283 L 241.924 147.420 M 241.924 147.420 L 241.924 149.580 M 241.924 149.580 L 241.611 151.739 M 241.611 151.739 L 240.994 153.899 M 184.281 162.338 L 184.395 162.538 M 184.395 162.538 L 185.587 164.377 M 185.587 164.377 L 185.785 164.697 M 185.785 164.697 L 187.255 166.857 M 187.255 166.857 L 187.709 167.479 M 187.709 167.479 L 188.814 169.017 M 188.814 169.017 L 189.832 170.358 M 189.832 170.358 L 190.457 171.176 M 190.457 171.176 L 191.955 173.059 M 191.955 173.059 L 192.183 173.336 M 192.183 173.336 L 193.732 175.172 M 240.115 145.077 L 240.162 145.261 M 240.162 145.261 L 240.203 145.582 M 225.675 175.719 L 225.319 176.109 M 184.305 160.453 L 185.505 162.538 M 185.505 162.538 L 185.587 162.664 M 185.587 162.664 L 186.849 164.697 M 186.849 164.697 L 187.709 165.962 M 187.709 165.962 L 188.308 166.857 M 188.308 166.857 L 189.832 168.980 M 189.832 168.980 L 189.859 169.017 M 189.859 169.017 L 191.509 171.176 M 191.509 171.176 L 191.955 171.738 M 191.955 171.738 L 193.269 173.336 M 193.269 173.336 L 194.078 174.295 M 194.078 174.295 L 195.155 175.496 M 195.155 175.496 L 195.895 176.311 M 225.068 175.093 L 224.092 176.181 M 181.990 147.933 L 181.989 149.580 M 181.989 149.580 L 182.230 151.739 M 182.230 151.739 L 182.710 153.899 M 182.710 153.899 L 183.424 156.059 M 183.424 156.059 L 183.464 156.149 M 183.464 156.149 L 184.301 158.218 M 184.301 158.218 L 185.369 160.378 M 185.369 160.378 L 185.587 160.757 M 185.587 160.757 L 186.570 162.538 M 186.570 162.538 L 187.709 164.372 M 187.709 164.372 L 187.908 164.697 M 187.908 164.697 L 189.352 166.857 M 189.352 166.857 L 189.832 167.526 M 189.832 167.526 L 190.911 169.017 M 190.911 169.017 L 191.955 170.384 M 191.955 170.384 L 192.580 171.176 M 192.580 171.176 L 194.078 172.999 M 194.078 172.999 L 194.372 173.336 M 194.372 173.336 L 196.201 175.376 M 196.201 175.376 L 196.319 175.496 M 196.319 175.496 L 197.340 176.522 M 224.498 174.505 L 223.799 175.280 M 223.799 175.243 L 222.869 176.191 M 185.587 138.337 L 185.372 138.782 M 185.372 138.782 L 185.208 139.195 M 183.464 145.030 L 183.413 145.261 M 183.413 145.261 L 183.169 147.420 M 183.169 147.420 L 183.167 149.580 M 183.167 149.580 L 183.409 151.739 M 183.409 151.739 L 183.464 151.987 M 183.464 151.987 L 183.861 153.899 M 183.861 153.899 L 184.528 156.059 M 184.528 156.059 L 185.405 158.218 M 185.405 158.218 L 185.587 158.586 M 185.587 158.586 L 186.438 160.378 M 186.438 160.378 L 187.632 162.538 M 187.632 162.538 L 187.709 162.663 M 187.709 162.663 L 188.952 164.697 M 188.952 164.697 L 189.832 166.014 M 189.832 166.014 L 190.400 166.857 M 190.400 166.857 L 191.955 169.008 M 193.666 171.176 L 194.078 171.678 M 194.078 171.678 L 195.526 173.336 M 195.526 173.336 L 196.201 174.089 M 196.201 174.089 L 197.584 175.496 M 197.584 175.496 L 198.324 176.239 M 198.324 176.239 L 198.848 176.701 M 223.894 173.882 L 223.799 173.990 M 223.799 173.990 L 221.676 176.141 M 221.676 176.141 L 221.631 176.181 M 187.552 136.393 L 187.428 136.622 M 187.428 136.622 L 186.429 138.782 M 186.429 138.782 L 185.612 140.941 M 185.587 141.027 L 184.957 143.101 M 184.957 143.101 L 184.512 145.261 M 184.512 145.261 L 184.286 147.420 M 184.286 147.420 L 184.284 149.580 M 184.284 149.580 L 184.509 151.739 M 184.509 151.739 L 184.960 153.899 M 184.960 153.899 L 185.587 155.920 M 185.587 155.920 L 185.628 156.059 M 185.628 156.059 L 186.470 158.218 M 186.470 158.218 L 187.498 160.378 M 187.498 160.378 L 187.709 160.761 M 187.709 160.761 L 188.676 162.538 M 188.676 162.538 L 189.832 164.430 M 189.832 164.430 L 189.997 164.697 M 189.997 164.697 L 191.452 166.857 M 191.452 166.857 L 191.955 167.554 M 191.955 167.554 L 193.048 169.017 M 193.048 169.017 L 194.078 170.323 M 194.078 170.323 L 194.794 171.176 M 194.794 171.176 L 196.201 172.788 M 196.201 172.788 L 196.726 173.336 M 196.726 173.336 L 198.324 174.961 M 198.324 174.961 L 198.924 175.496 M 198.924 175.496 L 200.389 176.788 M 223.276 173.244 L 221.676 174.905 M 221.676 174.905 L 219.922 176.451 M 217.549 178.262 L 217.430 178.350 M 187.709 138.280 L 187.478 138.782 M 187.478 138.782 L 186.659 140.941 M 186.659 140.941 L 186.032 143.101 M 186.032 143.101 L 185.607 145.261 M 185.587 145.460 L 185.381 147.420 M 185.381 147.420 L 185.380 149.580 M 185.380 149.580 L 185.587 151.553 M 185.587 151.553 L 185.605 151.739 M 185.605 151.739 L 186.038 153.899 M 186.038 153.899 L 186.683 156.059 M 186.683 156.059 L 187.528 158.218 M 187.528 158.218 L 187.709 158.600 M 187.709 158.600 L 188.543 160.378 M 188.543 160.378 L 189.719 162.538 M 189.719 162.538 L 189.832 162.723 M 189.832 162.723 L 191.047 164.697 M 191.047 164.697 L 191.955 166.045 M 191.955 166.045 L 192.520 166.857 M 192.520 166.857 L 194.078 168.943 M 194.078 168.943 L 194.137 169.017 M 194.137 169.017 L 195.947 171.176 M 195.947 171.176 L 196.201 171.467 M 196.201 171.467 L 197.991 173.336 M 197.991 173.336 L 198.324 173.674 M 198.324 173.674 L 200.367 175.496 M 200.367 175.496 L 200.447 175.567 M 200.447 175.567 L 202.172 176.835 M 213.219 179.143 L 215.307 178.310 M 215.307 178.310 L 216.444 177.655 M 187.080 143.101 L 186.654 145.261 M 186.654 145.261 L 186.438 147.420 M 186.438 147.420 L 186.437 149.580 M 186.437 149.580 L 186.655 151.739 M 186.655 151.739 L 187.090 153.899 M 187.090 153.899 L 187.709 155.966 M 187.709 155.966 L 187.737 156.059 M 187.737 156.059 L 188.570 158.218 M 188.570 158.218 L 189.584 160.378 M 189.584 160.378 L 189.832 160.834 M 189.832 160.834 L 190.768 162.538 M 190.768 162.538 L 191.955 164.466 M 191.955 164.466 L 192.103 164.697 M 192.103 164.697 L 193.605 166.857 M 193.605 166.857 L 194.078 167.490 M 194.078 167.490 L 195.289 169.017 M 195.289 169.017 L 196.201 170.105 M 196.201 170.105 L 197.187 171.176 M 197.187 171.176 L 198.324 172.364 M 198.324 172.364 L 199.387 173.336 M 199.387 173.336 L 200.447 174.281 M 200.447 174.281 L 202.082 175.496 M 202.082 175.496 L 202.570 175.854 M 202.570 175.854 L 204.693 177.063 M 204.693 177.063 L 206.219 177.655 M 206.219 177.655 L 206.816 177.888 M 206.816 177.888 L 208.939 178.307 M 208.939 178.307 L 211.061 178.306 M 211.061 178.306 L 213.184 177.878 M 213.184 177.878 L 213.752 177.655 M 189.644 138.550 L 189.538 138.782 M 189.538 138.782 L 188.735 140.941 M 188.735 140.941 L 188.119 143.101 M 187.709 145.217 L 187.701 145.261 M 187.701 145.261 L 187.485 147.420 M 187.485 147.420 L 187.485 149.580 M 187.485 149.580 L 187.705 151.739 M 187.705 151.739 L 187.709 151.762 M 187.709 151.762 L 188.135 153.899 M 188.135 153.899 L 188.773 156.059 M 188.773 156.059 L 189.609 158.218 M 189.609 158.218 L 189.832 158.695 M 189.832 158.695 L 190.630 160.378 M 190.630 160.378 L 191.817 162.538 M 191.817 162.538 L 191.955 162.762 M 191.955 162.762 L 193.186 164.697 M 193.186 164.697 L 194.078 165.979 M 194.078 165.979 L 194.727 166.857 M 194.727 166.857 L 196.201 168.715 M 196.201 168.715 L 196.464 169.017 M 196.464 169.017 L 198.324 171.039 M 198.324 171.039 L 198.469 171.176 M 198.469 171.176 L 200.447 172.987 M 200.447 172.987 L 200.906 173.336 M 200.906 173.336 L 202.570 174.573 M 202.570 174.573 L 204.176 175.496 M 204.176 175.496 L 204.693 175.790 M 204.693 175.790 L 206.816 176.614 M 206.816 176.614 L 208.939 177.032 M 208.939 177.032 L 211.061 177.032 M 211.061 177.032 L 213.184 176.612 M 213.184 176.612 L 215.307 175.783 M 215.307 175.783 L 215.806 175.496 M 189.832 140.752 L 189.762 140.941 M 189.762 140.941 L 189.146 143.101 M 189.146 143.101 L 188.728 145.261 M 188.728 145.261 L 188.517 147.420 M 188.517 147.420 L 188.518 149.580 M 188.518 149.580 L 188.736 151.739 M 188.736 151.739 L 189.168 153.899 M 189.168 153.899 L 189.809 156.059 M 190.652 158.218 L 191.678 160.378 M 191.678 160.378 L 191.955 160.883 M 191.955 160.883 L 192.895 162.538 M 192.895 162.538 L 194.078 164.396 M 194.078 164.396 L 194.282 164.697 M 194.282 164.697 L 195.878 166.857 M 195.878 166.857 L 196.201 167.264 M 196.201 167.264 L 197.726 169.017 M 197.726 169.017 L 198.324 169.667 M 198.324 169.667 L 199.909 171.176 M 199.909 171.176 L 200.447 171.669 M 200.447 171.669 L 202.570 173.286 M 202.570 173.286 L 202.654 173.336 M 202.654 173.336 L 204.693 174.509 M 204.693 174.509 L 206.816 175.341 M 206.816 175.341 L 207.593 175.496 M 207.593 175.496 L 208.939 175.762 M 208.939 175.762 L 211.061 175.764 M 211.061 175.764 L 212.418 175.496 M 220.727 170.615 L 219.553 171.702 M 219.553 171.702 L 220.111 171.176 M 191.120 140.074 L 190.795 140.941 M 190.795 140.941 L 190.175 143.101 M 189.832 144.861 L 189.755 145.261 M 189.755 145.261 L 189.544 147.420 M 189.544 147.420 L 189.547 149.580 M 189.547 149.580 L 189.766 151.739 M 189.766 151.739 L 189.832 152.070 M 189.832 152.070 L 190.203 153.899 M 190.203 153.899 L 190.851 156.059 M 190.851 156.059 L 191.698 158.218 M 191.698 158.218 L 191.955 158.761 M 191.955 158.761 L 192.750 160.378 M 192.750 160.378 L 193.978 162.538 M 193.978 162.538 L 194.078 162.696 M 194.078 162.696 L 195.431 164.697 M 195.431 164.697 L 196.201 165.740 M 196.201 165.740 L 197.107 166.857 M 197.107 166.857 L 198.324 168.256 M 198.324 168.256 L 199.079 169.017 M 199.079 169.017 L 200.447 170.320 M 200.447 170.320 L 201.527 171.176 M 201.527 171.176 L 202.570 171.972 M 202.570 171.972 L 204.693 173.223 M 204.693 173.223 L 204.975 173.336 M 204.975 173.336 L 206.816 174.059 M 206.816 174.059 L 208.939 174.484 M 208.939 174.484 L 211.061 174.489 M 211.061 174.489 L 213.184 174.085 M 213.184 174.085 L 215.071 173.336 M 220.065 169.932 L 219.553 170.440 M 219.553 170.440 L 217.430 172.031 M 217.430 172.031 L 218.521 171.176 M 191.865 140.842 L 191.828 140.941 M 191.828 140.941 L 191.207 143.101 M 191.207 143.101 L 190.787 145.261 M 190.787 145.261 L 190.576 147.420 M 190.576 147.420 L 190.580 149.580 M 190.580 149.580 L 190.802 151.739 M 190.802 151.739 L 191.243 153.899 M 191.243 153.899 L 191.894 156.059 M 191.894 156.059 L 191.955 156.215 M 191.955 156.215 L 192.768 158.218 M 192.768 158.218 L 193.830 160.378 M 193.830 160.378 L 194.078 160.815 M 194.078 160.815 L 195.118 162.538 M 195.118 162.538 L 196.201 164.139 M 196.201 164.139 L 196.615 164.697 M 196.615 164.697 L 198.324 166.806 M 198.324 166.806 L 198.371 166.857 M 198.371 166.857 L 200.447 168.949 M 200.447 168.949 L 200.528 169.017 M 200.528 169.017 L 202.570 170.638 M 202.570 170.638 L 203.448 171.176 M 203.448 171.176 L 204.693 171.911 M 204.693 171.911 L 206.816 172.766 M 206.816 172.766 L 208.939 173.203 M 208.939 173.203 L 211.061 173.211 M 211.061 173.211 L 213.184 172.790 M 213.184 172.790 L 215.307 171.976 M 215.307 171.976 L 216.633 171.176 M 192.673 141.675 L 192.249 143.101 M 191.955 144.563 L 191.820 145.261 M 191.820 145.261 L 191.609 147.420 M 191.609 147.420 L 191.614 149.580 M 191.614 149.580 L 191.839 151.739 M 191.839 151.739 L 191.955 152.307 M 191.955 152.307 L 192.292 153.899 M 192.292 153.899 L 192.967 156.059 M 192.967 156.059 L 193.846 158.218 M 193.846 158.218 L 194.078 158.691 M 194.078 158.691 L 194.960 160.378 M 194.960 160.378 L 196.201 162.433 M 196.201 162.433 L 196.271 162.538 M 196.271 162.538 L 197.870 164.697 M 197.870 164.697 L 198.324 165.257 M 198.324 165.257 L 199.801 166.857 M 199.801 166.857 L 200.447 167.508 M 200.447 167.508 L 202.245 169.017 M 202.245 169.017 L 202.570 169.275 M 202.570 169.275 L 204.693 170.579 M 204.693 170.579 L 206.116 171.176 M 206.116 171.176 L 206.816 171.459 M 206.816 171.459 L 208.939 171.899 M 208.939 171.899 L 211.061 171.911 M 211.061 171.911 L 213.184 171.504 M 213.184 171.504 L 213.989 171.176 M 193.488 142.516 L 193.314 143.101 M 193.314 143.101 L 192.880 145.261 M 192.880 145.261 L 192.663 147.420 M 192.663 147.420 L 192.670 149.580 M 192.670 149.580 L 192.905 151.739 M 192.905 151.739 L 193.365 153.899 M 193.365 153.899 L 194.042 156.059 M 194.042 156.059 L 194.078 156.147 M 194.078 156.147 L 194.973 158.218 M 194.973 158.218 L 196.104 160.378 M 196.104 160.378 L 196.201 160.539 M 196.201 160.539 L 197.523 162.538 M 197.523 162.538 L 198.324 163.618 M 198.324 163.618 L 199.234 164.697 M 199.234 164.697 L 200.447 166.011 M 200.447 166.011 L 201.384 166.857 M 201.384 166.857 L 202.570 167.853 M 202.570 167.853 L 204.360 169.017 M 204.360 169.017 L 204.693 169.222 M 204.693 169.222 L 206.816 170.116 M 206.816 170.116 L 208.939 170.576 M 208.939 170.576 L 211.061 170.593 M 211.061 170.593 L 213.184 170.165 M 213.184 170.165 L 215.307 169.319 M 215.307 169.319 L 215.784 169.017 M 194.078 144.600 L 193.945 145.261 M 193.945 145.261 L 193.729 147.420 M 193.729 147.420 L 193.737 149.580 M 193.737 149.580 L 193.974 151.739 M 193.974 151.739 L 194.078 152.227 M 194.078 152.227 L 194.458 153.899 M 194.458 153.899 L 195.179 156.059 M 195.179 156.059 L 196.115 158.218 M 196.115 158.218 L 196.201 158.383 M 196.201 158.383 L 197.344 160.378 M 197.344 160.378 L 198.324 161.858 M 198.324 161.858 L 198.836 162.538 M 198.836 162.538 L 200.447 164.447 M 200.447 164.447 L 200.699 164.697 M 200.699 164.697 L 202.570 166.388 M 202.570 166.388 L 203.239 166.857 M 203.239 166.857 L 204.693 167.804 M 204.693 167.804 L 206.816 168.751 M 206.816 168.751 L 207.969 169.017 M 207.969 169.017 L 208.939 169.229 M 208.939 169.229 L 211.061 169.250 M 211.061 169.250 L 212.227 169.017 M 195.262 144.346 L 195.067 145.261 M 195.067 145.261 L 194.838 147.420 M 194.838 147.420 L 194.848 149.580 M 194.848 149.580 L 195.101 151.739 M 195.101 151.739 L 195.594 153.899 M 195.594 153.899 L 196.201 155.713 M 196.201 155.713 L 196.328 156.059 M 196.328 156.059 L 197.353 158.218 M 197.353 158.218 L 198.324 159.911 M 198.324 159.911 L 198.629 160.378 M 198.629 160.378 L 200.256 162.538 M 200.256 162.538 L 200.447 162.765 M 200.447 162.765 L 202.398 164.697 M 202.398 164.697 L 202.570 164.853 M 202.570 164.853 L 204.693 166.343 M 204.693 166.343 L 205.761 166.857 M 205.761 166.857 L 206.816 167.329 M 206.816 167.329 L 208.939 167.824 M 208.939 167.824 L 211.061 167.850 M 211.061 167.850 L 213.184 167.448 M 213.184 167.448 L 214.483 166.857 M 196.192 145.305 L 195.968 147.420 M 195.968 147.420 L 195.979 149.580 M 195.979 149.580 L 196.201 151.462 M 196.201 151.462 L 196.237 151.739 M 196.237 151.739 L 196.778 153.899 M 196.778 153.899 L 197.571 156.059 M 197.571 156.059 L 198.324 157.641 M 198.324 157.641 L 198.636 158.218 M 198.636 158.218 L 200.045 160.378 M 200.045 160.378 L 200.447 160.912 M 200.447 160.912 L 201.910 162.538 M 201.910 162.538 L 202.570 163.191 M 202.570 163.191 L 204.526 164.697 M 204.526 164.697 L 204.693 164.815 M 204.693 164.815 L 206.816 165.841 M 206.816 165.841 L 208.939 166.376 M 208.939 166.376 L 211.061 166.409 M 211.061 166.409 L 213.184 165.939 M 213.184 165.939 L 215.292 165.008 M 197.296 146.444 L 197.182 147.420 M 197.182 147.420 L 197.196 149.580 M 197.196 149.580 L 197.476 151.739 M 197.476 151.739 L 198.019 153.899 M 198.019 153.899 L 198.324 154.728 M 198.324 154.728 L 198.881 156.059 M 198.881 156.059 L 200.048 158.218 M 200.048 158.218 L 200.447 158.829 M 200.447 158.829 L 201.654 160.378 M 201.654 160.378 L 202.570 161.396 M 202.570 161.396 L 203.890 162.538 M 203.890 162.538 L 204.693 163.157 M 204.693 163.157 L 206.816 164.285 M 206.816 164.285 L 208.297 164.697 M 208.297 164.697 L 208.939 164.860 M 208.939 164.860 L 211.061 164.916 M 211.061 164.916 L 211.967 164.697 M 198.434 147.618 L 198.448 149.580 M 198.448 149.580 L 198.768 151.739 M 198.768 151.739 L 199.387 153.899 M 199.387 153.899 L 200.291 156.059 M 200.291 156.059 L 200.447 156.347 M 200.447 156.347 L 201.655 158.218 M 201.655 158.218 L 202.570 159.392 M 202.570 159.392 L 203.555 160.378 M 203.555 160.378 L 204.693 161.363 M 204.693 161.363 L 206.657 162.538 M 206.657 162.538 L 206.816 162.622 M 206.816 162.622 L 208.939 163.217 M 208.939 163.217 L 211.061 163.259 M 211.061 163.259 L 213.116 162.763 M 199.853 149.082 L 199.856 149.580 M 199.856 149.580 L 200.176 151.739 M 200.176 151.739 L 200.447 152.684 M 200.447 152.684 L 200.863 153.899 M 200.863 153.899 L 201.942 156.059 M 201.942 156.059 L 202.570 157.030 M 202.570 157.030 L 203.553 158.218 M 203.553 158.218 L 204.693 159.359 M 204.693 159.359 L 206.164 160.378 M 206.164 160.378 L 206.816 160.768 M 206.816 160.768 L 208.939 161.437 M 208.939 161.437 L 211.061 161.485 M 211.061 161.485 L 211.706 161.309 M 201.668 150.954 L 201.807 151.739 M 201.807 151.739 L 202.545 153.899 M 202.545 153.899 L 202.570 153.948 M 202.570 153.948 L 203.922 156.059 M 203.922 156.059 L 204.693 156.991 M 204.693 156.991 L 206.162 158.218 M 206.162 158.218 L 206.816 158.671 M 206.816 158.671 L 208.939 159.444 M 208.939 159.444 L 209.921 159.468" fill="none" stroke="#e5e7eb" stroke-width="1" vector-effect="non-scaling-stroke"/></svg>