<svg xmlns="http://www.w3.org/2000/svg" viewBox="168.68614026674473 107.47192497786445 80.83169042904993 84.69470416932121" width="80.83169042904993" height="84.69470416932121" shape-rendering="geometricPrecision"><rect x="168.68614026674473" y="107.47192497786445" width="80.83169042904993" height="84.69470416932121" fill="#0b0f14"/><path d="M 198.630 117.459 L 197.551 117.675 L 196.527 118.076 L 195.617 118.694 L 194.792 119.422 L 193.938 120.115 L 193.051 120.766 L 192.174 121.429 L 191.268 122.054 L 190.335 122.636 L 189.394 123.206 L 188.509 123.860 L 187.681 124.584 L 186.890 125.348 L 186.133 126.146 L 185.437 126.998 L 184.845 127.925 L 184.294 128.877 L 183.698 129.802 L 183.047 130.688 L 182.391 131.571 L 181.720 132.443 L 180.984 133.260 L 180.287 134.112 L 179.762 135.078 L 179.469 136.138 L 179.427 137.237 L 179.550 138.331 L 179.653 139.426 L 179.703 140.525 L 179.556 141.615 L 179.121 142.625 L 178.525 143.550 L 177.868 144.432 L 177.318 145.385 L 176.966 146.427 L 176.779 147.511 L 176.686 148.607 L 176.687 149.707 L 176.786 150.802 L 176.986 151.884 L 177.386 152.909 L 177.991 153.827 L 178.658 154.702 L 179.189 155.665 L 179.520 156.714 L 179.634 157.808 L 179.597 158.908 L 179.517 160.005 L 179.414 161.100 L 179.473 162.198 L 179.805 163.247 L 180.383 164.183 L 181.069 165.043 L 181.751 165.906 L 182.363 166.820 L 182.997 167.719 L 183.597 168.641 L 184.138 169.599 L 184.651 170.571 L 185.250 171.494 L 185.953 172.340 L 186.718 173.131 L 187.523 173.880 L 188.390 174.558 L 189.346 175.101 L 190.359 175.530 L 191.399 175.887 L 192.498 175.932 L 193.501 176.385 L 194.492 176.863 L 193.780 176.024 L 193.055 175.197 L 192.278 174.418 L 191.426 173.723 L 190.571 173.030 L 189.785 172.261 L 189.001 171.490 L 188.229 170.706 L 187.536 169.851 L 186.849 168.992 L 186.070 168.215 L 185.204 167.537 L 184.475 166.713 L 184.169 165.657 L 183.978 164.573 L 183.824 163.484 L 183.748 162.387 L 183.728 161.287 L 183.718 160.187 L 183.716 159.087 L 183.399 158.034 L 182.808 157.106 L 182.152 156.223 L 181.792 155.184 L 181.562 154.108 L 181.387 153.022 L 181.245 151.931 L 181.178 150.833 L 181.175 149.733 L 181.238 148.635 L 181.380 147.544 L 181.568 146.460 L 181.818 145.389 L 182.158 144.343 L 182.633 143.351 L 183.191 142.403 L 183.509 141.350 L 183.512 140.250 L 183.531 139.150 L 183.562 138.051 L 183.644 136.954 L 183.798 135.865 L 183.991 134.781 L 183.641 133.739 L 184.305 132.862 L 185.102 132.103 L 185.890 131.336 L 186.618 130.511 L 187.276 129.630 L 188.033 128.832 L 188.820 128.063 L 189.596 127.284 L 190.432 126.569 L 191.325 125.926 L 192.144 125.192 L 192.903 124.395 L 193.770 123.719 L 194.795 123.320 L 195.872 123.098 L 196.959 122.926 L 198.056 122.841 L 199.156 122.829 L 200.256 122.827 L 201.356 122.828 L 202.433 122.607 L 203.427 122.135 L 204.379 121.584 L 204.758 120.551 L 205.818 120.257 L 206.906 120.093 L 207.998 119.960 L 209.093 119.853 L 210.192 119.807 L 211.292 119.811 L 212.390 119.870 L 213.482 119.999 L 214.571 120.157 L 215.650 120.370 L 216.697 120.708 L 217.682 121.197 L 218.618 121.775 L 219.671 122.095 L 220.771 122.103 L 221.870 122.137 L 222.969 122.188 L 224.065 122.277 L 225.155 122.423 L 226.244 122.580 L 227.332 122.745 L 228.257 123.341 L 229.053 124.099 L 229.853 124.854 L 230.707 125.548 L 231.580 126.217 L 232.383 126.969 L 233.164 127.743 L 233.946 128.517 L 234.659 129.355 L 235.313 130.239 L 236.040 131.065 L 236.782 131.877 L 237.395 132.790 L 237.750 133.832 L 237.970 134.909 L 238.114 136.000 L 238.165 137.099 L 238.159 138.199 L 238.154 139.299 L 238.190 140.398 L 238.517 141.448 L 239.066 142.402 L 239.565 143.382 L 240.620 143.072 L 241.028 144.093 L 241.199 145.180 L 241.334 146.272 L 241.455 147.365 L 241.513 148.463 L 241.518 149.563 L 241.470 150.662 L 241.354 151.756 L 241.204 152.846 L 241.005 153.928 L 240.681 154.979 L 240.183 155.960 L 239.560 156.866 L 239.195 157.904 L 239.157 159.004 L 239.124 160.103 L 239.072 161.202 L 238.984 162.298 L 238.838 163.389 L 238.677 164.477 L 238.532 165.567 L 237.924 166.484 L 237.156 167.272 L 236.389 168.059 L 235.678 168.899 L 235.004 169.768 L 234.243 170.562 L 233.457 171.332 L 232.675 172.106 L 231.832 172.812 L 230.937 173.452 L 230.101 174.167 L 229.285 174.905 L 228.375 175.523 L 227.335 175.881 L 226.257 176.100 L 225.168 176.250 L 224.069 176.309 L 222.969 176.305 L 221.869 176.300 L 220.769 176.296 L 219.705 176.575 L 218.728 177.081 L 217.757 177.598 L 217.874 178.691 L 216.845 179.080 L 215.759 179.253 L 214.667 179.388 L 213.574 179.509 L 212.476 179.569 L 211.376 179.577 L 210.276 179.533 L 209.182 179.426 L 208.092 179.280 L 207.008 179.090 L 205.949 178.793 L 204.951 178.330 L 204.050 177.699 L 203.024 177.302 L 201.928 177.207 L 200.829 177.182 L 199.729 177.139 L 198.632 177.066 L 197.539 176.939 L 196.452 176.772 L 195.400 177.095 L 194.477 176.497 L 193.666 175.753 L 192.906 174.958 L 192.102 174.207 L 191.229 173.539 L 190.394 172.823 L 189.617 172.044 L 188.830 171.275 L 188.076 170.474 L 187.409 169.599 L 186.710 168.750 L 185.949 167.956 L 185.215 167.137 L 184.698 166.165 L 184.426 165.100 L 184.232 164.017 L 184.126 162.922 L 184.101 161.822 L 184.103 160.722 L 184.106 159.622 L 183.944 158.534 L 183.514 157.522 L 182.924 156.594 L 182.530 155.566 L 181.537 156.039 L 181.252 154.977 L 181.105 153.887 L 180.981 152.794 L 180.881 151.699 L 180.839 150.599 L 180.847 149.499 L 180.910 148.401 L 181.042 147.309 L 181.197 146.220 L 181.411 145.141 L 181.785 144.106 L 182.330 143.151 L 182.894 142.207 L 183.180 141.145 L 183.195 140.045 L 183.238 138.946 L 183.299 137.847 L 183.403 136.752 L 183.570 135.665 L 183.715 134.575 L 183.951 133.500 L 184.629 132.634 L 185.415 131.864 L 186.178 131.072 L 186.872 130.218 L 187.575 129.373 L 188.351 128.593 L 189.134 127.821 L 189.931 127.062 L 190.794 126.380 L 191.674 125.721 L 192.496 124.989 L 193.320 124.260 L 194.278 123.719 L 195.235 123.178 L 196.296 122.886 L 197.380 122.698 L 198.471 122.562 L 199.569 122.496 L 200.669 122.472 L 201.769 122.459 L 202.868 122.421 L 203.916 122.085 L 204.862 121.524 L 205.862 121.066 L 206.912 120.739 L 207.985 120.496 L 209.069 120.311 L 210.161 120.172 L 211.259 120.111 L 212.359 120.115 L 213.457 120.182 L 214.548 120.322 L 215.634 120.496 L 216.710 120.724 L 217.756 121.064 L 218.695 121.637 L 219.618 122.236 L 220.669 122.559 L 221.769 122.582 L 222.869 122.591 L 223.969 122.609 L 225.067 122.676 L 226.158 122.817 L 227.242 123.000 L 228.309 123.269 L 229.210 123.900 L 229.864 124.784 L 230.645 125.559 L 231.504 126.246 L 232.380 126.912 L 233.183 127.664 L 233.964 128.438 L 234.755 129.203 L 235.473 130.036 L 236.172 130.886 L 236.957 131.656 L 237.797 132.366 L 238.678 133.024 L 238.186 132.041 L 237.765 131.024 L 237.742 129.925 L 237.340 128.901 L 236.880 127.902 L 236.287 126.975 L 235.578 126.134 L 234.809 125.348 L 233.998 124.604 L 233.128 123.931 L 232.182 123.370 L 231.207 122.861 L 230.251 122.317 L 229.332 121.712 L 228.425 121.089 L 227.511 120.477 L 226.649 119.794 L 225.772 119.131 L 224.815 118.588 L 223.752 118.306 L 222.652 118.275 L 221.556 118.363 L 220.457 118.426 L 219.358 118.432 L 218.268 118.278 L 217.233 117.906 L 216.280 117.356 L 215.396 116.703 L 214.464 116.118 L 213.426 115.754 L 212.342 115.568 L 211.245 115.475 L 210.146 115.472 L 209.049 115.555 L 207.962 115.726 L 206.908 116.040 L 205.925 116.535 L 205.022 117.163 L 204.105 117.770 L 203.117 118.253 L 202.038 118.469 L 200.938 118.468 L 199.841 118.390 L 198.746 118.287 L 197.646 118.295 L 196.573 118.539 L 195.577 119.005 L 194.700 119.669 L 193.874 120.395 L 193.005 121.070 L 192.113 121.714 L 191.227 122.365 L 190.305 122.966 L 189.354 123.518 L 188.407 124.078 L 187.531 124.743 L 186.712 125.477 L 185.927 126.248 L 185.177 127.053 L 184.489 127.911 L 183.886 128.831 L 183.298 129.760 L 182.669 130.663 L 181.998 131.534 L 181.335 132.413 L 180.643 133.268 L 179.894 134.073 L 179.222 134.944 L 178.763 135.944 L 178.505 137.013 M 237.095 157.941 L 237.057 159.040 L 237.017 160.139 L 236.952 161.237 L 236.755 162.320 L 236.361 163.346 L 235.966 164.373 M 223.858 181.874 L 224.933 181.644 L 225.949 181.221 L 226.845 180.584 L 227.668 179.854 L 228.528 179.167 L 229.415 178.517 L 230.294 177.855 L 231.203 177.236 L 232.139 176.658 L 233.077 176.083 L 233.956 175.422 L 234.780 174.693 L 235.567 173.925 L 236.320 173.123 L 237.072 172.321 L 237.764 171.465 L 238.365 170.544 L 238.943 169.608 M 193.765 179.068 L 194.582 179.804 L 195.461 180.466 L 196.457 180.931 L 197.527 181.188 L 198.626 181.233 L 199.723 181.155 L 200.822 181.112 L 201.922 181.149 L 202.989 181.415 L 203.956 181.939 L 204.860 182.565 L 205.793 183.149 L 206.791 183.611 L 207.850 183.908 L 208.937 184.076 L 210.034 184.163 L 211.134 184.167 L 212.231 184.088 L 213.319 183.923 L 214.375 183.616 L 215.348 183.104 L 216.322 182.592 L 217.210 181.943 L 218.134 181.346 L 219.139 180.898 L 220.224 180.718 L 221.324 180.742" fill="none" stroke="#EC008C" stroke-width="1" vector-effect="non-scaling-stroke"/></svg>