<svg xmlns="http://www.w3.org/2000/svg" viewBox="164.32468238493001 114.39317064455138 91.76938773008482 81.40223964633641" width="91.76938773008482" height="81.40223964633641" shape-rendering="geometricPrecision"><rect x="164.32468238493001" y="114.39317064455138" width="91.76938773008482" height="81.40223964633641" fill="#0b0f14"/><path d="M 208.805 122.591 L 211.195 122.393 L 213.585 122.591 L 215.975 123.392 L 216.370 123.743 L 218.365 124.886 L 220.755 125.056 L 223.145 125.117 L 225.535 125.865 L 225.849 126.101 L 227.925 127.337 L 229.409 128.459 L 230.314 129.250 L 231.902 130.817 L 232.704 131.710 L 233.841 133.174 L 235.094 135.222 L 235.334 135.532 L 236.092 137.890 L 236.154 140.248 L 236.326 142.606 L 237.484 144.573 L 237.840 144.963 L 238.652 147.321 L 238.853 149.679 L 238.652 152.037 L 237.840 154.394 M 199.245 125.117 L 201.635 125.056 L 204.025 124.886 L 206.020 123.743 M 180.126 132.506 L 179.602 133.174 L 178.522 135.532 L 178.467 137.890 L 178.507 140.248 L 177.943 142.606 M 243.868 135.532 L 243.923 137.890 L 243.883 140.248 L 244.447 142.606 L 244.654 142.818 M 187.056 135.532 L 186.298 137.890 L 186.236 140.248 L 186.064 142.606 M 177.736 142.818 L 176.448 144.963 L 176.050 147.321 L 175.956 149.679 L 176.050 152.037 L 176.448 154.394 L 177.736 156.539 L 177.943 156.752 L 178.507 159.110 L 178.467 161.468 L 178.522 163.826 L 179.602 166.183 L 180.126 166.852 L 181.254 168.541 L 182.516 170.270 L 182.975 170.899 L 184.152 173.257 L 184.906 174.081 L 186.460 175.615 L 187.296 176.358 L 189.686 177.519 L 190.323 177.972 L 192.075 179.218 L 193.788 180.330 L 194.465 180.847 L 196.855 181.912 L 199.245 181.967 L 201.635 181.927 L 204.025 182.483 L 204.241 182.688 L 206.415 183.959 L 208.805 184.352 L 211.195 184.444 L 213.585 184.352 L 215.975 183.959 L 218.149 182.688 M 184.550 144.963 L 183.738 147.321 L 183.537 149.679 L 183.738 152.037 L 184.550 154.394 L 184.906 154.785 M 246.340 147.321 L 246.434 149.679 L 246.340 152.037 L 245.942 154.394 M 237.484 154.785 L 236.326 156.752 L 236.154 159.110 L 236.092 161.468 L 235.334 163.826 M 186.236 159.110 L 186.298 161.468 L 187.056 163.826 L 187.296 164.136 M 244.447 156.752 L 243.883 159.110 L 243.923 161.468 L 243.868 163.826 L 242.788 166.183 M 220.755 181.927 L 223.145 181.967 L 225.535 181.912 L 227.925 180.847 L 228.602 180.330" fill="none" stroke="#2dd4bf" stroke-width="1" vector-effect="non-scaling-stroke"/><path d="M 206.684 125.744 L 209.966 126.084 L 210.962 125.991 L 211.761 126.031 L 212.622 126.135 L 213.498 126.297 L 213.995 126.521 L 214.876 126.885 L 214.998 127.018 L 215.821 127.531 L 216.540 127.862 L 218.734 128.203 L 219.950 128.019 L 221.024 127.764 L 222.118 127.478 L 223.048 127.223 L 223.148 127.150 L 224.196 127.266 L 224.739 127.541 L 225.632 128.034 L 226.638 128.643 L 227.432 129.278 L 228.280 129.987 L 229.013 130.678 L 229.715 131.387 L 230.425 132.123 L 231.095 132.832 L 231.697 133.506 L 232.255 134.184 L 232.780 134.885 L 233.227 135.571 L 233.720 136.378 L 234.015 137.019 L 234.171 137.678 L 234.328 138.532 L 234.170 139.075 L 234.052 140.072 L 233.950 141.125 L 233.841 142.135 L 233.994 143.360 L 234.624 144.602 L 235.053 145.501 L 235.278 146.301 L 235.258 147.036 L 235.398 147.975 L 235.217 148.592 L 235.205 149.600 L 235.082 150.329 L 234.960 151.218 L 234.804 151.956 L 234.615 152.507 L 234.285 153.432 L 234.247 153.539 M 198.238 128.781 L 200.304 128.841 L 201.303 128.807 L 202.364 128.743 L 203.401 128.661 L 204.580 128.451 L 206.181 127.502 L 207.029 126.990 L 207.102 126.946 M 182.320 129.403 L 176.969 132.342 L 176.320 133.554 L 175.984 134.476 L 175.604 135.775 L 175.500 137.052 L 175.452 138.065 L 175.424 139.116 L 175.389 140.116 L 175.235 140.751 L 175.005 141.657 L 174.851 142.223 M 242.372 132.039 L 241.711 136.570 L 241.742 137.570 L 241.723 138.527 L 241.665 139.504 L 241.657 140.609 L 241.869 141.858 L 242.006 142.826 L 242.585 143.684 M 189.525 138.421 L 183.444 135.425 L 183.073 136.400 L 182.751 137.876 L 182.661 139.326 L 182.608 140.301 L 182.518 141.174 L 182.422 142.174 L 182.403 142.374 M 179.421 139.412 L 174.507 142.832 L 173.977 143.685 L 173.328 144.872 L 172.924 146.152 L 172.681 147.153 L 172.515 148.352 L 172.396 149.348 L 172.342 150.466 L 172.325 151.512 L 172.380 152.625 L 172.552 153.813 L 172.703 154.821 L 173.702 156.651 L 174.236 157.588 L 174.800 158.523 L 174.633 158.649 L 174.928 159.649 L 174.935 160.016 L 174.980 160.824 L 175.047 161.881 L 175.142 162.966 L 175.264 164.042 L 176.088 166.320 L 176.622 167.251 L 177.408 168.484 L 178.235 169.563 L 178.860 170.303 L 179.576 171.189 L 180.284 172.036 L 180.950 172.825 L 181.367 173.329 L 181.795 174.030 L 182.279 174.939 L 183.295 176.480 L 184.074 177.308 L 184.782 178.029 L 185.557 178.810 L 186.688 179.754 L 187.774 180.398 L 188.654 180.851 L 189.131 181.143 L 189.896 181.720 L 190.679 182.311 L 191.575 182.949 L 192.395 183.498 L 193.099 183.984 L 194.465 184.769 L 195.395 185.171 L 196.845 185.606 L 198.312 185.684 L 199.324 185.652 L 200.398 185.566 L 201.396 185.464 L 202.048 185.493 L 202.919 185.591 L 203.604 185.732 L 204.235 185.955 L 205.119 186.424 L 206.294 186.964 L 207.592 187.274 L 208.586 187.449 L 209.777 187.569 L 210.775 187.672 L 211.859 187.743 L 212.908 187.788 L 213.966 187.795 L 215.141 187.672 L 216.143 187.572 L 217.671 186.832 L 218.700 186.255 L 219.325 185.927 M 188.305 145.549 L 180.637 145.004 L 180.308 145.963 L 179.978 147.265 L 179.828 148.588 L 179.766 149.647 L 179.869 151.059 L 179.973 152.062 L 180.404 153.603 L 180.835 154.745 L 181.470 156.009 L 182.242 157.007 M 248.094 143.950 L 243.002 148.391 L 242.866 149.397 L 242.712 150.294 L 242.591 151.221 L 242.506 152.108 L 242.430 152.801 L 242.368 153.747 L 242.364 153.852 M 241.280 154.602 L 233.705 154.335 L 233.201 155.221 L 232.555 156.955 L 232.412 158.275 L 232.350 159.313 L 232.320 160.391 L 232.298 161.389 L 232.171 161.576 L 231.867 162.524 L 231.720 162.983 M 187.816 162.566 L 183.263 160.208 L 183.428 161.209 L 183.841 162.867 L 184.361 164.192 L 184.898 165.312 L 185.403 166.437 M 246.564 159.908 L 241.151 156.866 L 241.044 157.827 L 241.011 159.348 L 241.138 160.751 L 241.250 161.717 L 241.311 162.596 L 241.356 163.596 L 241.180 163.225 L 240.819 163.938 L 240.512 164.606 M 220.014 185.654 L 221.715 185.712 L 222.716 185.711 L 223.771 185.673 L 224.803 185.603 L 225.956 185.417 L 227.451 184.675 L 228.339 184.223 L 229.400 183.438 L 229.739 183.101" fill="none" stroke="#f472b6" stroke-width="1" vector-effect="non-scaling-stroke"/><path d="M 181.875 174.180 L 183.098 175.496 M 183.098 175.496 L 183.464 175.883 M 183.464 175.883 L 185.024 177.655 M 185.024 177.655 L 185.587 178.294 M 185.587 178.294 L 186.871 179.815 M 186.871 179.815 L 186.948 179.909 M 177.946 169.185 L 179.218 170.347 M 179.218 170.347 L 180.010 171.176 M 180.010 171.176 L 181.341 172.510 M 181.341 172.510 L 182.087 173.336 M 182.087 173.336 L 183.464 174.817 M 183.464 174.817 L 184.053 175.496 M 184.053 175.496 L 185.587 177.238 M 185.587 177.238 L 185.939 177.655 M 185.939 177.655 L 187.709 179.751 M 187.709 179.751 L 187.763 179.815 M 187.763 179.815 L 188.582 180.814 M 229.199 183.243 L 228.581 184.044 M 176.075 166.284 L 176.735 166.857 M 176.735 166.857 L 177.095 167.146 M 177.095 167.146 L 179.025 169.017 M 179.025 169.017 L 179.218 169.193 M 179.218 169.193 L 181.111 171.176 M 181.111 171.176 L 181.341 171.407 M 181.341 171.407 L 183.082 173.336 M 183.082 173.336 L 183.464 173.746 M 183.464 173.746 L 184.982 175.496 M 184.982 175.496 L 185.587 176.183 M 185.587 176.183 L 186.830 177.655 M 186.830 177.655 L 187.709 178.696 M 187.709 178.696 L 188.640 179.815 M 188.640 179.815 L 189.832 181.270 M 189.832 181.270 L 190.414 181.975 M 190.414 181.975 L 190.691 182.319 M 175.357 164.301 L 175.770 164.697 M 175.770 164.697 L 177.095 165.849 M 177.095 165.849 L 178.057 166.857 M 178.057 166.857 L 179.218 167.983 M 179.218 167.983 L 180.147 169.017 M 180.147 169.017 L 181.341 170.267 M 181.341 170.267 L 182.126 171.176 M 182.126 171.176 L 183.464 172.658 M 183.464 172.658 L 184.035 173.336 M 184.035 173.336 L 185.587 175.124 M 185.587 175.124 L 185.896 175.496 M 185.896 175.496 L 187.709 177.642 M 187.709 177.642 L 187.721 177.655 M 187.721 177.655 L 189.516 179.815 M 189.516 179.815 L 189.832 180.201 M 189.832 180.201 L 191.298 181.975 M 191.298 181.975 L 191.955 182.794 M 191.955 182.794 L 192.732 183.731 M 226.970 183.828 L 225.922 185.133 M 177.095 164.513 L 177.255 164.697 M 177.255 164.697 L 179.218 166.755 M 179.218 166.755 L 179.303 166.857 M 179.303 166.857 L 181.245 169.017 M 181.245 169.017 L 181.341 169.117 M 181.341 169.117 L 183.120 171.176 M 183.120 171.176 L 183.464 171.558 M 183.464 171.558 L 184.962 173.336 M 184.962 173.336 L 185.587 174.056 M 185.587 174.056 L 186.785 175.496 M 186.785 175.496 L 187.709 176.590 M 187.709 176.590 L 188.595 177.655 M 188.595 177.655 L 189.832 179.144 M 189.832 179.144 L 190.396 179.815 M 190.396 179.815 L 191.955 181.702 M 191.955 181.702 L 192.189 181.975 M 192.189 181.975 L 193.981 184.134 M 193.981 184.134 L 194.078 184.258 M 194.078 184.258 L 194.534 184.799 M 174.980 160.830 L 176.549 162.538 M 176.549 162.538 L 177.095 163.062 M 177.095 163.062 L 178.508 164.697 M 178.508 164.697 L 179.218 165.441 M 179.218 165.441 L 180.397 166.857 M 180.397 166.857 L 181.341 167.906 M 181.341 167.906 L 182.245 169.017 M 182.245 169.017 L 183.464 170.427 M 183.464 170.427 L 184.069 171.176 M 184.069 171.176 L 185.587 172.978 M 185.587 172.978 L 185.876 173.336 M 185.876 173.336 L 187.674 175.496 M 224.591 184.453 L 223.799 185.390 M 189.469 177.655 L 189.832 178.092 M 189.832 178.092 L 191.277 179.815 M 191.277 179.815 L 191.955 180.636 M 191.955 180.636 L 193.100 181.975 M 193.100 181.975 L 194.078 183.154 M 194.078 183.154 L 194.943 184.134 M 194.943 184.134 L 195.959 185.341 M 174.634 158.648 L 174.972 158.981 M 174.972 158.981 L 176.069 160.378 M 176.069 160.378 L 177.095 161.494 M 177.095 161.494 L 177.892 162.538 M 177.892 162.538 L 179.218 164.071 M 179.218 164.071 L 179.691 164.697 M 179.691 164.697 L 181.341 166.677 M 181.341 166.677 L 181.477 166.857 M 181.477 166.857 L 183.237 169.017 M 183.237 169.017 L 183.464 169.280 M 183.464 169.280 L 184.994 171.176 M 184.994 171.176 L 185.587 171.880 M 185.587 171.880 L 186.764 173.336 M 186.764 173.336 L 187.709 174.473 M 187.709 174.473 L 188.547 175.496 M 188.547 175.496 L 189.832 177.042 M 189.832 177.042 L 190.347 177.655 M 190.347 177.655 L 191.955 179.573 M 191.955 179.573 L 192.165 179.815 M 192.165 179.815 L 194.011 181.975 M 194.011 181.975 L 194.078 182.056 M 194.078 182.056 L 195.911 184.134 M 195.911 184.134 L 196.201 184.479 M 196.201 184.479 L 197.263 185.629 M 172.437 153.020 L 172.849 153.659 M 172.849 153.659 L 172.954 153.899 M 172.954 153.899 L 174.336 156.059 M 174.336 156.059 L 174.972 156.820 M 174.972 156.820 L 175.871 158.218 M 175.871 158.218 L 177.095 159.775 M 177.095 159.775 L 177.489 160.378 M 177.489 160.378 L 179.140 162.538 M 179.140 162.538 L 179.218 162.628 M 179.218 162.628 L 180.782 164.697 M 180.782 164.697 L 181.341 165.368 M 181.341 165.368 L 182.466 166.857 M 182.466 166.857 L 183.464 168.081 M 183.464 168.081 L 184.176 169.017 M 184.176 169.017 L 185.587 170.764 M 185.587 170.764 L 185.906 171.176 M 185.906 171.176 L 187.651 173.336 M 187.651 173.336 L 187.709 173.406 M 187.709 173.406 L 189.420 175.496 M 189.420 175.496 L 189.832 175.992 M 189.832 175.992 L 191.227 177.655 M 191.227 177.655 L 191.955 178.524 M 191.955 178.524 L 193.075 179.815 M 193.075 179.815 L 194.078 180.989 M 194.078 180.989 L 194.974 181.975 M 194.974 181.975 L 196.201 183.366 M 196.201 183.366 L 196.944 184.134 M 196.944 184.134 L 198.324 185.630 M 198.324 185.630 L 198.379 185.682 M 174.972 142.927 L 174.860 143.101 M 174.860 143.101 L 173.922 145.261 M 173.922 145.261 L 173.456 147.420 M 173.456 147.420 L 173.467 149.580 M 173.467 149.580 L 173.950 151.739 M 173.950 151.739 L 174.891 153.899 M 174.891 153.899 L 174.972 154.025 M 174.972 154.025 L 175.974 156.059 M 175.974 156.059 L 177.095 157.799 M 177.095 157.799 L 177.319 158.218 M 177.319 158.218 L 178.731 160.378 M 178.731 160.378 L 179.218 161.015 M 179.218 161.015 L 180.237 162.538 M 180.237 162.538 L 181.341 163.997 M 181.341 163.997 L 181.822 164.697 M 181.822 164.697 L 183.455 166.857 M 185.101 169.017 L 185.587 169.619 M 185.587 169.619 L 186.792 171.176 M 186.792 171.176 L 187.709 172.311 M 187.709 172.311 L 188.524 173.336 M 188.524 173.336 L 189.832 174.934 M 189.832 174.934 L 190.296 175.496 M 190.296 175.496 L 191.955 177.475 M 191.955 177.475 L 192.112 177.655 M 192.112 177.655 L 193.985 179.815 M 193.985 179.815 L 194.078 179.924 M 194.078 179.924 L 195.941 181.975 M 195.941 181.975 L 196.201 182.270 M 196.201 182.270 L 198.003 184.134 M 198.003 184.134 L 198.324 184.482 M 198.324 184.482 L 199.535 185.635 M 220.462 185.536 L 220.332 185.665 M 177.095 141.660 L 176.382 143.101 M 176.382 143.101 L 175.661 145.261 M 175.661 145.261 L 175.301 147.420 M 175.301 147.420 L 175.307 149.580 M 175.307 149.580 L 175.675 151.739 M 175.675 151.739 L 176.398 153.899 M 176.398 153.899 L 177.095 155.312 M 177.095 155.312 L 177.400 156.059 M 177.400 156.059 L 178.556 158.218 M 178.556 158.218 L 179.218 159.229 M 179.218 159.229 L 179.876 160.378 M 179.876 160.378 L 181.323 162.538 M 181.323 162.538 L 181.341 162.561 M 181.341 162.561 L 182.809 164.697 M 182.809 164.697 L 183.464 165.563 M 183.464 165.563 L 184.379 166.857 M 184.379 166.857 L 185.587 168.442 M 185.587 168.442 L 186.007 169.017 M 186.007 169.017 L 187.679 171.176 M 244.532 147.056 L 244.596 147.420 M 244.596 147.420 L 244.592 149.580 M 244.592 149.580 L 244.486 150.185 M 189.397 173.336 L 189.832 173.869 M 189.832 173.869 L 191.176 175.496 M 191.176 175.496 L 191.955 176.426 M 191.955 176.426 L 193.021 177.655 M 193.021 177.655 L 194.078 178.874 M 194.078 178.874 L 194.946 179.815 M 194.946 179.815 L 196.201 181.197 M 196.201 181.197 L 196.976 181.975 M 196.976 181.975 L 198.324 183.370 M 198.324 183.370 L 199.165 184.134 M 199.165 184.134 L 200.447 185.355 M 200.447 185.355 L 200.677 185.537 M 179.218 139.833 L 178.625 140.941 M 178.625 140.941 L 177.742 143.101 M 177.742 143.101 L 177.145 145.261 M 177.095 145.620 L 176.793 147.420 M 176.793 147.420 L 176.796 149.580 M 176.796 149.580 L 177.095 151.340 M 177.095 151.340 L 177.151 151.739 M 177.151 151.739 L 177.749 153.899 M 177.749 153.899 L 178.634 156.059 M 178.634 156.059 L 179.218 157.149 M 179.218 157.149 L 179.719 158.218 M 179.719 158.218 L 180.959 160.378 M 180.959 160.378 L 181.341 160.948 M 181.341 160.948 L 182.309 162.538 M 182.309 162.538 L 183.464 164.215 M 183.464 164.215 L 183.774 164.697 M 183.774 164.697 L 185.303 166.857 M 185.303 166.857 L 185.587 167.230 M 185.587 167.230 L 186.894 169.017 M 186.894 169.017 L 187.709 170.071 M 187.709 170.071 L 188.552 171.176 M 188.552 171.176 L 189.832 172.787 M 189.832 172.787 L 190.272 173.336 M 190.272 173.336 L 191.955 175.375 M 191.955 175.375 L 192.058 175.496 M 192.058 175.496 L 193.931 177.655 M 193.931 177.655 L 194.078 177.825 M 194.078 177.825 L 195.912 179.815 M 195.912 179.815 L 196.201 180.133 M 196.201 180.133 L 198.035 181.975 M 198.035 181.975 L 198.324 182.274 M 198.324 182.274 L 200.371 184.134 M 200.371 184.134 L 200.447 184.207 M 200.447 184.207 L 202.067 185.495 M 179.218 142.515 L 178.978 143.101 M 178.978 143.101 L 178.380 145.261 M 178.380 145.261 L 178.079 147.420 M 178.079 147.420 L 178.080 149.580 M 178.080 149.580 L 178.382 151.739 M 178.382 151.739 L 178.980 153.899 M 178.980 153.899 L 179.218 154.479 M 179.218 154.479 L 179.784 156.059 M 179.784 156.059 L 180.798 158.218 M 180.798 158.218 L 181.341 159.164 M 181.341 159.164 L 181.975 160.378 M 181.975 160.378 L 183.294 162.538 M 183.294 162.538 L 183.464 162.785 M 183.464 162.785 L 184.345 164.152 M 184.345 164.152 L 184.697 164.697 M 184.697 164.697 L 185.587 165.955 M 185.587 165.955 L 185.648 166.045 M 185.648 166.045 L 186.200 166.857 M 186.200 166.857 L 187.709 168.920 M 187.709 168.920 L 187.779 169.017 M 187.779 169.017 L 189.424 171.176 M 189.424 171.176 L 189.832 171.690 M 189.832 171.690 L 191.152 173.336 M 191.152 173.336 L 191.955 174.310 M 191.955 174.310 L 192.968 175.496 M 192.968 175.496 L 194.078 176.777 M 194.078 176.777 L 194.888 177.655 M 194.888 177.655 L 196.201 179.080 M 196.201 179.080 L 196.944 179.815 M 196.944 179.815 L 198.324 181.201 M 198.324 181.201 L 199.202 181.975 M 199.202 181.975 L 200.447 183.106 M 200.447 183.106 L 201.800 184.134 M 201.800 184.134 L 202.570 184.747 M 202.570 184.747 L 204.693 186.059 M 204.693 186.059 L 205.248 186.294 M 205.248 186.294 L 206.816 187.001 M 206.816 187.001 L 208.903 187.481 M 208.985 187.489 L 211.061 187.491 M 211.061 187.491 L 213.184 186.958 M 213.184 186.958 L 214.729 186.294 M 217.917 184.285 L 217.430 184.674 M 217.430 184.674 L 217.921 184.290 M 180.818 141.041 L 180.084 143.101 M 180.084 143.101 L 179.563 145.261 M 179.563 145.261 L 179.300 147.420 M 179.300 147.420 L 179.299 149.580 M 179.299 149.580 L 179.562 151.739 M 179.562 151.739 L 180.084 153.899 M 180.084 153.899 L 180.859 156.059 M 180.859 156.059 L 181.341 157.084 M 181.341 157.084 L 181.826 158.218 M 181.826 158.218 L 182.957 160.378 M 182.957 160.378 L 183.415 161.129 M 183.415 161.129 L 183.464 161.208 M 183.464 161.208 L 184.225 162.538 M 184.225 162.538 L 185.587 164.648 M 185.587 164.648 L 185.617 164.697 M 185.617 164.697 L 186.071 165.365 M 186.071 165.365 L 187.086 166.857 M 187.086 166.857 L 187.709 167.709 M 187.709 167.709 L 188.651 169.017 M 188.651 169.017 L 189.832 170.568 M 189.832 170.568 L 190.300 171.176 M 190.300 171.176 L 191.955 173.242 M 191.955 173.242 L 192.033 173.336 M 192.033 173.336 L 193.877 175.496 M 193.877 175.496 L 194.078 175.728 M 194.078 175.728 L 195.855 177.655 M 195.855 177.655 L 196.201 178.031 M 196.201 178.031 L 198.004 179.815 M 198.004 179.815 L 198.324 180.137 M 198.324 180.137 L 200.409 181.975 M 239.530 154.541 L 238.989 156.059 M 202.570 183.622 L 203.439 184.134 M 203.439 184.134 L 204.693 184.909 M 204.693 184.909 L 206.816 185.806 M 206.816 185.806 L 208.939 186.264 M 208.939 186.264 L 211.061 186.264 M 211.061 186.264 L 213.184 185.803 M 213.184 185.803 L 215.307 184.855 M 215.307 184.855 L 216.497 184.134 M 181.341 142.592 L 181.159 143.101 M 181.159 143.101 L 180.698 145.009 M 180.698 145.009 L 180.637 145.261 M 180.637 145.261 L 180.373 147.420 M 180.373 147.420 L 180.371 149.580 M 180.371 149.580 L 180.634 151.739 M 180.634 151.739 L 181.157 153.899 M 181.157 153.899 L 181.341 154.412 M 181.341 154.412 L 181.878 156.059 M 181.878 156.059 L 182.266 156.962 M 182.266 156.962 L 182.804 158.218 M 182.804 158.218 L 183.464 159.477 M 183.464 159.477 L 183.907 160.378 M 183.907 160.378 L 184.041 160.611 M 184.041 160.611 L 185.145 162.538 M 185.145 162.538 L 185.587 163.222 M 185.587 163.222 L 186.495 164.685 M 186.495 164.685 L 186.503 164.697 M 186.503 164.697 L 187.709 166.471 M 187.709 166.471 L 187.968 166.857 M 187.968 166.857 L 189.523 169.017 M 189.523 169.017 L 189.832 169.422 M 189.832 169.422 L 191.179 171.176 M 191.179 171.176 L 191.955 172.145 M 191.955 172.145 L 192.943 173.336 M 192.943 173.336 L 194.078 174.666 M 194.078 174.666 L 194.832 175.496 M 194.832 175.496 L 196.201 176.982 M 196.201 176.982 L 196.882 177.655 M 196.882 177.655 L 198.324 179.083 M 198.324 179.083 L 199.167 179.815 M 199.167 179.815 L 200.447 180.943 M 200.447 180.943 L 201.848 181.975 M 201.848 181.975 L 202.570 182.523 M 202.570 182.523 L 204.693 183.775 M 204.693 183.775 L 205.585 184.134 M 205.585 184.134 L 206.816 184.654 M 206.816 184.654 L 208.939 185.110 M 208.939 185.110 L 211.061 185.110 M 211.061 185.110 L 213.184 184.625 M 213.184 184.625 L 214.375 184.134 M 238.476 154.503 L 237.331 158.064 M 183.464 139.467 L 182.844 140.941 M 182.844 140.941 L 182.411 142.287 M 182.268 142.731 L 182.149 143.101 M 182.149 143.101 L 181.715 145.081 M 181.715 145.081 L 181.676 145.261 M 181.676 145.261 L 181.436 147.420 M 181.436 147.420 L 181.434 149.580 M 181.434 149.580 L 181.671 151.739 M 181.671 151.739 L 182.146 153.899 M 182.146 153.899 L 182.811 155.931 M 182.811 155.931 L 182.853 156.059 M 182.853 156.059 L 183.464 157.480 M 183.464 157.480 L 183.762 158.218 M 183.762 158.218 L 184.825 160.378 M 184.825 160.378 L 185.347 161.288 M 185.347 161.288 L 185.587 161.705 M 185.587 161.705 L 186.047 162.538 M 186.047 162.538 L 186.939 163.974 M 186.939 163.974 L 187.388 164.697 M 187.388 164.697 L 187.709 165.170 M 187.709 165.170 L 188.841 166.857 M 188.841 166.857 L 189.832 168.234 M 189.832 168.234 L 190.400 169.017 M 190.400 169.017 L 191.955 171.042 M 191.955 171.042 L 192.062 171.176 M 192.062 171.176 L 193.853 173.336 M 193.853 173.336 L 194.078 173.600 M 194.078 173.600 L 195.799 175.496 M 195.799 175.496 L 196.201 175.933 M 196.201 175.933 L 197.942 177.655 M 197.942 177.655 L 198.324 178.033 M 198.324 178.033 L 200.376 179.815 M 200.376 179.815 L 200.447 179.878 M 200.447 179.878 L 202.570 181.440 M 202.570 181.440 L 203.505 181.975 M 203.505 181.975 L 204.693 182.674 M 204.693 182.674 L 206.816 183.530 M 206.816 183.530 L 208.939 183.965 M 208.939 183.965 L 211.061 183.963 M 211.061 183.963 L 213.184 183.520 M 213.184 183.520 L 215.307 182.625 M 215.307 182.625 L 216.095 182.162 M 237.510 154.469 L 237.000 156.059 M 183.011 143.598 L 182.672 145.149 M 182.672 145.149 L 182.647 145.261 M 182.647 145.261 L 182.407 147.420 M 182.407 147.420 L 182.404 149.580 M 182.404 149.580 L 182.642 151.739 M 182.642 151.739 L 183.119 153.899 M 183.119 153.899 L 183.412 154.795 M 183.412 154.795 L 183.464 154.951 M 183.464 154.951 L 183.804 156.059 M 183.804 156.059 L 184.677 158.218 M 184.677 158.218 L 185.587 160.062 M 185.587 160.062 L 185.737 160.378 M 185.737 160.378 L 186.598 161.936 M 186.598 161.936 L 186.931 162.538 M 186.931 162.538 L 187.382 163.263 M 187.382 163.263 L 187.709 163.791 M 187.709 163.791 L 188.265 164.697 M 188.265 164.697 L 189.713 166.857 M 189.713 166.857 L 189.832 167.023 M 189.832 167.023 L 191.280 169.017 M 191.280 169.017 L 191.955 169.896 M 191.955 169.896 L 192.972 171.176 M 192.972 171.176 L 194.078 172.511 M 194.078 172.511 L 194.806 173.336 M 194.806 173.336 L 196.201 174.873 M 196.201 174.873 L 196.821 175.496 M 196.821 175.496 L 198.324 176.983 M 198.324 176.983 L 199.099 177.655 M 199.099 177.655 L 200.447 178.826 M 200.447 178.826 L 201.812 179.815 M 201.812 179.815 L 202.570 180.373 M 202.570 180.373 L 204.693 181.585 M 204.693 181.585 L 205.690 181.975 M 205.690 181.975 L 206.816 182.428 M 206.816 182.428 L 208.939 182.861 M 208.939 182.861 L 211.061 182.859 M 211.061 182.859 L 213.184 182.403 M 213.184 182.403 L 214.254 181.975 M 185.587 138.697 L 185.546 138.782 M 185.546 138.782 L 184.699 140.941 M 184.699 140.941 L 184.642 141.131 M 183.768 144.480 L 183.617 145.216 M 183.617 145.216 L 183.608 145.261 M 235.649 154.404 L 235.154 156.059 M 183.464 146.645 L 183.377 147.420 M 183.377 147.420 L 183.375 149.580 M 183.375 149.580 L 183.464 150.388 M 183.464 150.388 L 183.603 151.739 M 183.603 151.739 L 184.004 153.677 M 184.004 153.677 L 184.050 153.899 M 184.050 153.899 L 184.717 156.059 M 184.717 156.059 L 185.587 158.206 M 186.620 160.378 L 187.709 162.347 M 187.709 162.347 L 187.814 162.538 M 187.814 162.538 L 189.137 164.697 M 189.137 164.697 L 189.832 165.735 M 189.832 165.735 L 190.591 166.857 M 190.591 166.857 L 191.955 168.735 M 191.955 168.735 L 192.167 169.017 M 192.167 169.017 L 193.882 171.176 M 193.882 171.176 L 194.078 171.413 M 194.078 171.413 L 195.773 173.336 M 195.773 173.336 L 196.201 173.808 M 196.201 173.808 L 197.883 175.496 M 197.883 175.496 L 198.324 175.932 M 198.324 175.932 L 200.309 177.655 M 200.309 177.655 L 200.447 177.775 M 200.447 177.775 L 202.570 179.313 M 202.570 179.313 L 203.464 179.815 M 203.464 179.815 L 204.693 180.516 M 204.693 180.516 L 206.816 181.344 M 206.816 181.344 L 208.939 181.764 M 208.939 181.764 L 211.061 181.761 M 211.061 181.761 L 213.184 181.331 M 213.184 181.331 L 214.815 180.670 M 187.126 137.239 L 186.417 138.782 M 186.417 138.782 L 185.769 140.505 M 184.512 145.279 L 184.506 145.340 M 184.506 145.340 L 184.289 147.420 M 184.289 147.420 L 184.287 149.580 M 184.287 149.580 L 184.511 151.739 M 184.511 151.739 L 184.657 152.443 M 184.657 152.443 L 184.960 153.899 M 184.960 153.899 L 185.587 155.923 M 185.587 155.923 L 185.627 156.059 M 185.627 156.059 L 186.471 158.218 M 186.471 158.218 L 187.502 160.378 M 187.502 160.378 L 187.709 160.753 M 187.709 160.753 L 188.685 162.538 M 188.685 162.538 L 189.832 164.410 M 189.832 164.410 L 190.010 164.697 M 190.010 164.697 L 191.471 166.857 M 191.471 166.857 L 191.955 167.524 M 191.955 167.524 L 193.076 169.017 M 193.076 169.017 L 194.078 170.278 M 194.078 170.278 L 194.837 171.176 M 194.837 171.176 L 196.201 172.724 M 196.201 172.724 L 196.793 173.336 M 196.793 173.336 L 198.324 174.873 M 198.324 174.873 L 199.032 175.496 M 199.032 175.496 L 200.447 176.723 M 200.447 176.723 L 201.735 177.655 M 201.735 177.655 L 202.570 178.260 M 202.570 178.260 L 204.693 179.452 M 204.693 179.452 L 205.640 179.815 M 205.640 179.815 L 206.816 180.273 M 206.816 180.273 L 208.939 180.692 M 208.939 180.692 L 211.061 180.689 M 211.061 180.689 L 213.184 180.251 M 213.184 180.251 L 214.136 179.878 M 187.709 137.861 L 187.287 138.782 M 187.287 138.782 L 186.868 139.896 M 185.412 145.343 L 185.314 146.281 M 185.314 146.281 L 185.195 147.420 M 185.195 147.420 L 185.193 149.580 M 185.193 149.580 L 185.354 151.125 M 185.354 151.125 L 185.418 151.739 M 185.418 151.739 L 185.587 152.547 M 185.587 152.547 L 185.858 153.899 M 185.858 153.899 L 186.504 156.059 M 186.504 156.059 L 187.351 158.218 M 187.351 158.218 L 187.709 158.969 M 187.709 158.969 L 188.374 160.378 M 188.374 160.378 L 189.555 162.538 M 189.555 162.538 L 189.832 162.990 M 189.832 162.990 L 190.889 164.697 M 190.889 164.697 L 191.955 166.273 M 191.955 166.273 L 192.364 166.857 M 192.364 166.857 L 193.986 169.017 M 193.986 169.017 L 194.078 169.133 M 194.078 169.133 L 195.804 171.176 M 195.804 171.176 L 196.201 171.627 M 196.201 171.627 L 197.855 173.336 M 197.855 173.336 L 198.324 173.806 M 198.324 173.806 L 200.244 175.496 M 200.244 175.496 L 200.447 175.672 M 200.447 175.672 L 202.570 177.207 M 202.570 177.207 L 203.370 177.655 M 203.370 177.655 L 204.693 178.398 M 204.693 178.398 L 206.816 179.211 M 206.816 179.211 L 208.939 179.623 M 208.939 179.623 L 211.061 179.620 M 211.061 179.620 L 213.184 179.199 M 213.184 179.199 L 213.460 179.090 M 186.281 145.405 L 186.102 147.200 M 186.102 147.200 L 186.080 147.420 M 186.080 147.420 L 186.079 149.580 M 186.079 149.580 L 186.094 149.728 M 186.094 149.728 L 186.296 151.739 M 186.296 151.739 L 186.732 153.899 M 186.732 153.899 L 187.381 156.059 M 187.381 156.059 L 187.709 156.895 M 187.709 156.895 L 188.223 158.218 M 188.223 158.218 L 189.243 160.378 M 189.243 160.378 L 189.832 161.455 M 189.832 161.455 L 190.431 162.538 M 190.431 162.538 L 191.768 164.697 M 191.768 164.697 L 191.955 164.974 M 191.955 164.974 L 193.273 166.857 M 193.273 166.857 L 194.078 167.929 M 194.078 167.929 L 194.946 169.017 M 194.946 169.017 L 196.201 170.503 M 196.201 170.503 L 196.826 171.176 M 196.826 171.176 L 198.324 172.724 M 198.324 172.724 L 199.001 173.336 M 199.001 173.336 L 200.447 174.608 M 200.447 174.608 L 201.658 175.496 M 201.658 175.496 L 202.570 176.155 M 202.570 176.155 L 204.693 177.344 M 204.693 177.344 L 205.508 177.655 M 205.508 177.655 L 206.816 178.156 M 206.816 178.156 L 208.939 178.568 M 208.939 178.568 L 211.061 178.566 M 211.061 178.566 L 212.726 178.234 M 233.109 143.101 L 233.549 145.261 M 233.549 145.261 L 233.771 147.420 M 233.771 147.420 L 233.776 149.580 M 233.776 149.580 L 233.567 151.739 M 233.567 151.739 L 233.387 152.671 M 187.144 145.466 L 186.949 147.420 M 186.949 147.420 L 186.949 148.112 M 186.949 148.187 L 186.949 149.580 M 186.949 149.580 L 187.168 151.739 M 187.168 151.739 L 187.606 153.899 M 187.606 153.899 L 187.709 154.243 M 187.709 154.243 L 188.249 156.059 M 188.249 156.059 L 189.090 158.218 M 189.090 158.218 L 189.832 159.788 M 189.832 159.788 L 190.115 160.378 M 190.115 160.378 L 191.309 162.538 M 191.309 162.538 L 191.955 163.581 M 191.955 163.581 L 192.670 164.697 M 192.670 164.697 L 194.078 166.709 M 194.078 166.709 L 194.188 166.857 M 194.188 166.857 L 195.912 169.017 M 195.912 169.017 L 196.201 169.359 M 196.201 169.359 L 197.887 171.176 M 197.887 171.176 L 198.324 171.628 M 198.324 171.628 L 200.213 173.336 M 200.213 173.336 L 200.447 173.542 M 200.447 173.542 L 202.570 175.098 M 202.570 175.098 L 203.272 175.496 M 203.272 175.496 L 204.693 176.291 M 204.693 176.291 L 206.816 177.103 M 206.816 177.103 L 208.939 177.514 M 208.939 177.514 L 211.061 177.512 M 211.061 177.512 L 211.956 177.337 M 188.001 145.527 L 187.930 146.257 M 187.816 149.199 L 187.817 149.580 M 187.817 149.580 L 188.034 151.739 M 188.034 151.739 L 188.468 153.899 M 188.468 153.899 L 189.113 156.059 M 189.113 156.059 L 189.832 157.901 M 189.832 157.901 L 189.958 158.218 M 189.958 158.218 L 190.991 160.378 M 190.991 160.378 L 191.955 162.120 M 191.955 162.120 L 192.195 162.538 M 192.195 162.538 L 193.578 164.697 M 193.578 164.697 L 194.078 165.412 M 194.078 165.412 L 195.153 166.857 M 195.153 166.857 L 196.201 168.170 M 196.201 168.170 L 196.943 169.017 M 196.943 169.017 L 198.324 170.505 M 198.324 170.505 L 199.035 171.176 M 199.035 171.176 L 200.447 172.454 M 200.447 172.454 L 201.619 173.336 M 201.619 173.336 L 202.570 174.033 M 202.570 174.033 L 204.693 175.236 M 204.693 175.236 L 205.365 175.496 M 205.365 175.496 L 206.816 176.050 M 206.816 176.050 L 208.939 176.463 M 208.939 176.463 L 211.061 176.464 M 211.061 176.464 L 211.186 176.440 M 231.403 143.101 L 231.836 145.261 M 231.836 145.261 L 232.054 147.420 M 232.054 147.420 L 232.059 149.580 M 232.059 149.580 L 231.907 151.179 M 188.743 150.279 L 188.892 151.739 M 188.892 151.739 L 189.329 153.899 M 189.329 153.899 L 189.832 155.579 M 189.832 155.579 L 189.978 156.059 M 189.978 156.059 L 190.832 158.218 M 190.832 158.218 L 191.867 160.378 M 191.867 160.378 L 191.955 160.537 M 191.955 160.537 L 193.101 162.538 M 193.101 162.538 L 194.078 164.062 M 194.078 164.062 L 194.511 164.697 M 194.511 164.697 L 196.118 166.857 M 196.118 166.857 L 196.201 166.962 M 196.201 166.962 L 198.002 169.017 M 198.002 169.017 L 198.324 169.364 M 198.324 169.364 L 200.245 171.176 M 200.245 171.176 L 200.447 171.360 M 200.447 171.360 L 202.570 172.959 M 202.570 172.959 L 203.219 173.336 M 203.219 173.336 L 204.693 174.172 M 204.693 174.172 L 206.816 174.994 M 206.816 174.994 L 208.939 175.411 M 208.939 175.411 L 210.306 175.413 M 230.992 145.261 L 231.211 147.420 M 231.211 147.420 L 231.217 149.580 M 231.217 149.580 L 231.138 150.404 M 229.061 140.941 L 229.710 143.101 M 229.710 143.101 L 230.148 145.261 M 230.148 145.261 L 230.168 145.454 M 189.716 151.413 L 189.749 151.739 M 189.749 151.739 L 189.832 152.148 M 189.832 152.148 L 190.192 153.899 M 190.192 153.899 L 190.849 156.059 M 190.849 156.059 L 191.705 158.218 M 191.705 158.218 L 191.955 158.740 M 191.955 158.740 L 192.769 160.378 M 192.769 160.378 L 194.008 162.538 M 194.008 162.538 L 194.078 162.648 M 194.078 162.648 L 195.474 164.697 M 195.474 164.697 L 196.201 165.675 M 196.201 165.675 L 197.165 166.857 M 197.165 166.857 L 198.324 168.179 M 198.324 168.179 L 199.162 169.017 M 199.162 169.017 L 200.447 170.230 M 200.447 170.230 L 201.653 171.176 M 201.653 171.176 L 202.570 171.867 M 202.570 171.867 L 204.693 173.104 M 204.693 173.104 L 205.278 173.336 M 205.278 173.336 L 206.816 173.932 M 206.816 173.932 L 208.939 174.353 M 208.939 174.353 L 209.397 174.354 M 190.809 152.687 L 191.059 153.899 M 191.059 153.899 L 191.719 156.059 M 191.719 156.059 L 191.955 156.653 M 191.955 156.653 L 192.599 158.218 M 192.599 158.218 L 193.673 160.378 M 193.673 160.378 L 194.078 161.084 M 194.078 161.084 L 194.964 162.538 M 194.964 162.538 L 196.201 164.353 M 196.201 164.353 L 196.458 164.697 M 196.458 164.697 L 198.221 166.857 M 198.221 166.857 L 198.324 166.975 M 198.324 166.975 L 200.367 169.017 M 200.367 169.017 L 200.447 169.092 M 200.447 169.092 L 202.570 170.761 M 202.570 170.761 L 203.254 171.176 M 203.254 171.176 L 204.693 172.016 M 204.693 172.016 L 206.816 172.861 M 206.816 172.861 L 208.392 173.182 M 228.860 143.101 L 229.299 145.261 M 229.299 145.261 L 229.521 147.420 M 229.521 147.420 L 229.525 148.777 M 191.971 154.041 L 192.610 156.059 M 192.610 156.059 L 193.501 158.218 M 193.501 158.218 L 194.078 159.378 M 194.078 159.378 L 194.607 160.378 M 194.607 160.378 L 195.925 162.538 M 195.925 162.538 L 196.201 162.944 M 196.201 162.944 L 197.510 164.697 M 197.510 164.697 L 198.324 165.694 M 198.324 165.694 L 199.406 166.857 M 199.406 166.857 L 200.447 167.898 M 200.447 167.898 L 201.791 169.017 M 201.791 169.017 L 202.570 169.629 M 202.570 169.629 L 204.693 170.920 M 204.693 170.920 L 205.311 171.176 M 205.311 171.176 L 206.816 171.778 M 206.816 171.778 L 207.266 171.871 M 228.673 147.420 L 228.674 147.919 M 193.395 155.702 L 193.509 156.059 M 193.509 156.059 L 194.078 157.436 M 194.078 157.436 L 194.422 158.218 M 194.422 158.218 L 195.565 160.378 M 195.565 160.378 L 196.201 161.420 M 196.201 161.420 L 196.948 162.538 M 196.948 162.538 L 198.324 164.380 M 198.324 164.380 L 198.594 164.697 M 198.594 164.697 L 200.447 166.689 M 200.447 166.689 L 200.635 166.857 M 200.635 166.857 L 202.570 168.470 M 202.570 168.470 L 203.419 169.017 M 203.419 169.017 L 204.693 169.793 M 204.693 169.793 L 205.925 170.306 M 227.129 143.101 L 227.585 145.261 M 227.585 145.261 L 227.773 147.010 M 195.190 157.793 L 195.376 158.218 M 195.376 158.218 L 196.201 159.773 M 196.201 159.773 L 196.552 160.378 M 196.552 160.378 L 197.996 162.538 M 197.996 162.538 L 198.324 162.977 M 198.324 162.977 L 199.787 164.697 M 199.787 164.697 L 200.447 165.407 M 200.447 165.407 L 202.064 166.857 M 202.064 166.857 L 202.570 167.278 M 202.570 167.278 L 204.266 168.374 M 226.707 145.261 L 226.789 146.018 M 198.271 161.385 L 198.324 161.464 M 198.324 161.464 L 199.140 162.538 M 199.140 162.538 L 200.447 164.074 M 200.447 164.074 L 201.081 164.697 M 201.081 164.697 L 201.218 164.821" fill="none" stroke="#FFF200" stroke-width="1" vector-effect="non-scaling-stroke"/></svg>