<svg xmlns="http://www.w3.org/2000/svg" viewBox="172.26262589435822 119.55988677651278 79.02615008044242 70.86924778727685" width="79.02615008044242" height="70.86924778727685" shape-rendering="geometricPrecision"><rect x="172.26262589435822" y="119.55988677651278" width="79.02615008044242" height="70.86924778727685" fill="#0b0f14"/><path d="M 211.776 127.560 L 215.327 127.880 L 217.297 128.592 L 218.879 129.215 L 222.430 130.053 L 225.981 130.712 L 228.242 132.211 L 229.533 133.527 L 231.004 135.831 L 231.650 139.451 L 232.472 143.070 L 233.084 144.682 L 233.783 146.690 L 234.096 150.310 L 233.783 153.930 M 183.364 130.010 L 182.230 132.211 L 181.141 135.831 L 180.843 139.451 L 180.660 143.070 L 180.422 146.690 L 180.263 150.310 L 180.422 153.930 L 180.660 157.549 L 180.843 161.169 L 181.141 164.789 L 182.230 168.408 L 183.364 170.609 L 183.984 172.028 L 184.805 175.648 L 186.916 177.799 L 190.467 178.637 L 191.859 179.268 L 194.019 180.423 L 197.570 181.534 L 201.121 181.838 L 204.673 182.024 L 208.224 182.267 L 211.776 182.429 L 215.327 182.267 L 218.879 182.024 L 222.430 181.838 L 225.981 181.534 L 229.533 180.423 L 231.692 179.268 M 242.411 135.831 L 242.708 139.451 L 242.891 143.070 L 243.130 146.690 L 243.289 150.310 L 243.130 153.930 L 242.891 157.549 L 242.708 161.169 L 242.411 164.789 L 241.321 168.408 M 189.769 146.690 L 189.455 150.310 L 189.769 153.930 L 190.467 155.938 M 233.084 155.938 L 232.472 157.549 L 231.650 161.169 L 231.004 164.789" fill="none" stroke="#00AEEF" stroke-width="1" vector-effect="non-scaling-stroke"/></svg>