<svg xmlns="http://www.w3.org/2000/svg" viewBox="169.30940116512517 106.54280951687636 84.77793591965377 83.28333108420617" width="84.77793591965377" height="83.28333108420617" shape-rendering="geometricPrecision"><rect x="169.30940116512517" y="106.54280951687636" width="84.77793591965377" height="83.28333108420617" fill="#0b0f14"/><path d="M 208.781 114.543 L 207.590 114.686 L 206.399 114.833 L 205.208 114.982 L 204.018 115.133 L 202.834 115.328 L 201.660 115.579 L 200.504 115.899 L 199.376 116.309 L 198.293 116.827 L 197.266 117.447 L 196.258 118.099 L 195.206 118.676 L 194.093 119.123 L 192.934 119.435 L 191.756 119.664 L 190.601 119.990 L 189.489 120.442 L 188.453 121.046 L 187.484 121.754 L 186.572 122.534 L 185.733 123.393 L 184.975 124.322 L 184.298 125.314 L 183.785 126.398 L 183.491 127.562 L 183.535 128.761 L 183.682 129.952 L 183.969 131.117 L 184.558 132.162 L 185.711 131.830 L 186.610 131.035 L 187.384 130.118 L 188.125 129.174 L 188.935 128.289 L 189.783 127.440 L 190.665 126.626 L 191.583 125.853 L 192.590 125.201 L 193.597 124.547 L 194.574 123.851 L 195.543 123.144 L 196.466 122.377 L 197.520 121.803 L 198.704 121.609 L 199.903 121.557 L 201.100 121.467 L 202.294 121.350 L 203.487 121.222 L 204.679 121.082 L 205.871 120.945 L 207.064 120.809 L 208.257 120.683 L 209.454 120.599 L 210.653 120.556 L 211.853 120.552 L 213.053 120.585 L 214.251 120.656 L 215.446 120.767 L 216.639 120.895 L 217.832 121.025 L 219.024 121.157 L 220.214 121.311 L 221.405 121.459 L 222.598 121.587 L 223.795 121.670 L 224.982 121.851 L 226.126 122.212 L 227.216 122.715 L 228.267 123.294 L 229.286 123.927 L 230.306 124.560 L 231.320 125.201 L 232.237 125.976 L 233.119 126.789 L 233.969 127.636 L 234.783 128.518 L 235.508 129.474 L 236.060 130.539 L 236.566 131.628 L 236.972 132.757 L 237.333 133.901 L 237.648 135.059 L 237.911 136.230 L 238.171 137.402 L 238.463 138.565 L 238.770 139.726 L 239.068 140.888 L 239.308 142.064 L 239.502 143.248 L 239.661 144.437 L 239.765 145.633 L 239.820 146.831 L 239.835 148.031 L 239.811 149.231 L 239.742 150.429 L 239.614 151.622 L 239.426 152.807 L 239.193 153.985 L 238.901 155.149 L 238.546 156.295 L 238.197 157.443 L 237.874 158.599 L 237.592 159.765 L 237.305 160.930 L 236.987 162.087 L 236.652 163.240 L 236.291 164.384 L 235.817 165.486 L 235.172 166.499 L 234.403 167.419 L 233.562 168.276 L 232.695 169.105 L 231.789 169.892 L 230.802 170.574 L 229.736 171.126 L 228.608 171.536 L 227.448 171.843 L 226.287 172.144 L 225.123 172.435 L 223.954 172.710 L 222.798 173.030 L 221.650 173.381 L 220.508 173.750 L 219.359 174.093 L 218.194 174.384 L 217.019 174.628 L 215.836 174.827 L 214.643 174.954 L 213.444 175.018 L 212.244 175.028 L 211.045 174.986 L 209.850 174.880 L 208.664 174.699 L 207.490 174.448 L 206.328 174.150 L 205.180 173.800 L 204.050 173.396 L 202.915 173.007 L 201.769 172.649 L 200.611 172.335 L 199.448 172.042 L 198.289 171.729 L 197.148 171.356 L 196.044 170.888 L 194.998 170.299 L 194.015 169.610 L 193.092 168.843 L 192.222 168.018 L 191.411 167.133 L 190.670 166.189 L 190.016 165.183 L 189.465 164.117 L 189.011 163.006 L 188.630 161.868 L 188.295 160.716 L 187.953 159.566 L 187.564 158.430 L 187.142 157.307 L 186.704 156.190 L 186.317 155.054 L 185.981 153.902 L 185.692 152.737 L 185.484 151.555 L 185.365 150.361 L 185.325 149.162 L 185.358 147.962 L 185.472 146.768 L 185.682 145.586 L 185.989 144.426 L 186.346 143.281 L 186.754 142.152 L 187.209 141.042 L 187.658 139.929 L 188.069 138.801 L 188.442 137.661 L 188.812 136.519 L 189.243 135.399 L 189.760 134.316 L 190.377 133.287 L 191.080 132.315 L 191.847 131.392 L 192.615 130.470 L 193.443 129.601 L 194.334 128.797 L 195.277 128.056 L 196.269 127.380 L 197.313 126.788 L 198.407 126.295 L 199.534 125.885 L 200.682 125.533 L 201.831 125.187 L 202.968 124.804 L 204.092 124.384 L 205.209 123.945 L 206.342 123.550 L 207.491 123.203 L 208.653 122.904 L 209.832 122.680 L 211.024 122.547 L 212.223 122.491 L 213.423 122.502 L 214.620 122.583 L 215.810 122.740 L 216.985 122.984 L 218.148 123.278 L 219.299 123.618 L 220.435 124.006 L 221.562 124.417 L 222.698 124.804 L 223.845 125.155 L 225.006 125.459 L 226.161 125.785 L 227.301 126.160 L 228.413 126.610 L 229.480 127.161 L 230.488 127.811 L 231.438 128.545 L 232.330 129.347 L 233.170 130.204 L 233.947 131.118 L 234.640 132.099 L 235.221 133.148 L 235.673 134.260 L 236.034 135.404 L 236.347 136.563 L 236.651 137.724 L 236.992 138.874 L 237.376 140.011 L 237.788 141.138 L 238.189 142.269 L 238.533 143.419 L 238.822 144.583 L 239.062 145.759 L 239.212 146.950 L 239.289 148.147 L 239.305 149.347 L 239.266 150.547 L 239.166 151.742 L 238.994 152.930 L 238.760 154.107 L 238.479 155.274 L 238.145 156.426 L 237.760 157.563 L 237.389 158.704 L 237.047 159.854 L 236.748 161.016 L 236.447 162.178 L 236.131 163.336 L 235.812 164.492 L 235.422 165.627 L 234.879 166.698 L 234.195 167.683 L 233.397 168.579 L 232.549 169.429 L 231.674 170.250 L 230.751 171.017 L 229.740 171.663 L 228.641 172.146 L 227.500 172.518 L 226.346 172.845 L 225.187 173.156 L 224.021 173.439 L 222.846 173.687 L 221.682 173.975 L 220.524 174.292 L 219.370 174.621 L 218.208 174.918 L 217.032 175.157 L 215.847 175.348 L 214.656 175.499 L 213.460 175.589 L 212.261 175.633 L 211.061 175.640 L 209.861 175.613 L 208.663 175.549 L 207.468 175.438 L 206.278 175.285 L 205.092 175.098 L 203.915 174.866 L 202.749 174.581 L 201.583 174.298 L 200.413 174.032 L 199.236 173.797 L 198.063 173.543 L 196.903 173.236 L 195.756 172.883 L 194.627 172.479 L 193.535 171.980 L 192.463 171.440 L 191.486 170.744 L 190.581 169.956 L 189.709 169.131 L 188.871 168.273 L 188.071 167.378 L 187.396 166.386 L 186.719 165.395 L 186.028 164.414 L 185.368 163.412 L 184.774 162.369 L 184.343 161.249 L 184.182 160.060 L 184.158 158.861 L 184.066 157.664 L 183.943 156.470 L 183.798 155.279 L 183.650 154.088 L 183.505 152.897 L 183.361 151.706 L 183.242 150.512 L 183.168 149.314 L 183.139 148.114 L 183.152 146.914 L 183.212 145.716 L 183.320 144.521 L 183.473 143.331 L 183.627 142.140 L 183.782 140.951 L 183.941 139.761 L 184.060 138.567 L 184.149 137.370 L 184.195 136.171 L 184.266 134.973 L 184.640 133.833 L 185.607 133.123 L 186.251 132.110 L 186.981 131.158 L 187.686 130.186 L 188.347 129.185 L 189.099 128.250 L 189.915 127.370 L 190.767 126.525 L 191.654 125.717 L 192.577 124.950 L 193.562 124.264 L 194.486 123.499 L 195.279 122.598 L 195.437 121.408 L 194.298 121.031 L 193.107 120.881 L 191.912 120.769 L 190.716 120.682 L 189.540 120.923 L 188.428 121.374 L 187.403 121.999 L 186.440 122.714 L 185.540 123.508 L 184.714 124.379 L 183.962 125.314 L 183.289 126.307 L 182.778 127.393 L 182.405 128.533 L 182.137 129.703 L 181.824 130.861 L 181.370 131.972 L 180.782 133.018 L 180.098 134.005 L 179.444 135.010 L 178.893 136.077 L 178.456 137.194 L 178.114 138.344 L 177.845 139.514 L 177.636 140.695 L 177.472 141.884 L 177.309 143.073 M 223.251 181.826 L 224.399 181.479 L 225.516 181.040 L 226.586 180.496 L 227.595 179.846 L 228.609 179.205 L 229.675 178.654 L 230.793 178.218 L 231.950 177.899 L 233.100 177.556 L 234.225 177.138 L 235.299 176.603 L 236.291 175.927 L 237.226 175.176 L 238.104 174.358 L 238.914 173.473 L 239.657 172.530 L 240.291 171.511 L 240.764 170.408 L 241.074 169.249 L 241.189 168.055 L 241.438 166.881 L 241.872 165.762 L 242.469 164.721 L 243.141 163.727 L 243.779 162.710 L 244.324 161.641 L 244.756 160.522 L 245.090 159.369 L 245.336 158.195 L 245.501 157.006 L 245.621 155.812 L 245.738 154.618 L 245.852 153.423 L 245.960 152.228 L 246.037 151.031 L 246.079 149.831 L 246.083 148.631 L 246.087 147.431 L 246.053 146.232 L 245.983 145.034 L 245.881 143.838 L 245.768 142.644 L 245.651 141.449 L 245.531 140.255 L 245.384 139.064 L 245.156 137.886 L 244.842 136.728 L 244.434 135.600 L 243.915 134.518 L 243.289 133.494 L 242.621 132.497 L 241.995 131.473 L 241.521 130.371 L 241.232 129.206 L 241.100 128.013 L 240.829 126.844 L 240.393 125.726 L 239.793 124.687 L 239.064 123.734 L 238.269 122.835 L 237.405 122.003 L 236.480 121.238 L 235.508 120.533 L 234.449 119.969 L 233.332 119.530 L 232.186 119.176 L 231.027 118.865 L 229.899 118.455 L 228.821 117.927 L 227.797 117.303 L 226.802 116.632 L 225.744 116.065 L 224.636 115.605 L 223.493 115.240" fill="none" stroke="#2dd4bf" stroke-width="1" vector-effect="non-scaling-stroke"/><path d="M 240.187 169.109 L 236.636 172.949 M 236.636 172.949 L 233.084 177.010 M 233.084 177.010 L 232.476 177.742 M 179.813 140.061 L 179.204 141.356 M 183.364 137.146 L 182.897 138.008 M 184.768 162.354 L 186.141 164.575 M 186.865 165.609 L 186.916 165.680 M 186.916 165.680 L 188.140 167.455 M 239.104 143.070 L 239.810 146.614 M 239.810 146.614 L 239.825 146.690 M 239.825 146.690 L 239.826 147.293 M 239.826 147.293 L 239.827 148.444 M 239.827 148.444 L 239.828 150.310 M 239.828 150.310 L 239.663 151.167 M 239.663 151.167 L 239.132 153.930 M 239.132 153.930 L 237.772 157.549 M 194.019 124.168 L 193.853 124.364 M 184.030 157.315 L 184.109 157.549 M 184.109 157.549 L 185.882 161.169 M 185.882 161.169 L 186.916 162.840 M 186.916 162.840 L 188.070 164.789 M 188.070 164.789 L 190.467 168.266 M 190.467 168.266 L 190.568 168.408 M 190.568 168.408 L 193.237 171.830 M 225.981 172.660 L 225.637 173.036 M 225.637 173.036 L 223.273 175.617 M 186.916 137.363 L 185.916 139.451 M 185.916 139.451 L 184.716 143.070 M 184.716 143.070 L 184.097 146.690 M 184.097 146.690 L 184.095 150.310 M 184.095 150.310 L 184.719 153.930 M 184.719 153.930 L 185.949 157.549 M 185.949 157.549 L 186.916 159.519 M 186.916 159.519 L 187.693 161.169 M 187.693 161.169 L 189.639 164.454 M 191.702 167.450 L 192.379 168.408 M 192.379 168.408 L 194.019 170.511 M 194.019 170.511 L 195.328 172.028 M 195.328 172.028 L 196.249 173.035 M 235.146 143.070 L 235.782 146.690 M 235.782 146.690 L 235.787 150.310 M 235.787 150.310 L 235.176 153.930 M 235.176 153.930 L 233.977 157.549 M 196.520 171.090 L 197.330 172.028 M 197.330 172.028 L 197.570 172.291 M 197.570 172.291 L 199.249 173.799 M 199.834 172.139 L 201.121 173.296 M 201.121 173.296 L 203.380 174.735 M 231.586 143.070 L 232.192 146.690 M 232.192 146.690 L 232.199 150.310 M 232.199 150.310 L 231.617 153.930 M 231.617 153.930 L 230.472 157.549 M 228.103 143.070 L 228.728 146.690 M 228.728 146.690 L 228.737 150.310 M 228.737 150.310 L 228.142 153.930 M 228.142 153.930 L 226.966 157.549 M 224.424 143.070 L 225.123 146.690 M 225.123 146.690 L 225.139 150.310 M 225.139 150.310 L 224.480 153.930 M 224.480 153.930 L 223.341 157.095" fill="none" stroke="#e5e7eb" stroke-width="1" vector-effect="non-scaling-stroke"/></svg>