<svg xmlns="http://www.w3.org/2000/svg" viewBox="168.36021791694083 106.80333067855115 85.50364212777905 83.4222026432822" width="85.50364212777905" height="83.4222026432822" shape-rendering="geometricPrecision"><rect x="168.36021791694083" y="106.80333067855115" width="85.50364212777905" height="83.4222026432822" fill="#0b0f14"/><path d="M 243.637 140.921 L 243.464 139.834 L 243.359 138.739 L 243.175 137.655 L 242.861 136.600 L 242.395 135.604 L 241.802 134.677 L 241.217 133.746 L 240.714 132.768 L 240.225 131.782 L 239.649 130.845 L 238.927 130.016 L 238.097 129.294 L 237.191 128.670 L 236.287 128.043 L 235.425 127.359 L 234.613 126.618 L 233.848 125.828 L 233.136 124.989 L 232.473 124.111 L 231.805 123.237 L 231.049 122.438 L 230.184 121.758 L 229.209 121.248 L 228.191 120.833 L 227.162 120.444 L 226.172 119.964 L 225.204 119.442 L 224.212 118.968 L 223.154 118.664 L 222.059 118.557 L 220.959 118.563 L 219.860 118.582 L 218.760 118.604 L 217.667 118.476 L 216.653 118.050 L 215.743 117.433 L 214.859 116.778 L 213.932 116.186 L 212.892 115.828 L 211.798 115.714 L 210.706 115.847 L 209.690 116.269 L 208.806 116.924 L 207.952 117.617 L 208.095 118.708 L 207.023 118.955 L 205.924 119.011 L 204.825 118.970 L 203.729 118.873 L 202.631 118.809 L 201.532 118.776 L 200.437 118.886 L 199.386 119.210 L 198.395 119.688 L 197.396 120.148 L 196.349 120.487 L 195.293 120.792 L 194.265 121.184 L 193.299 121.711 L 192.334 122.238 L 191.499 122.955 L 190.792 123.797 L 190.189 124.717 L 189.544 125.608 L 188.833 126.448 L 188.053 127.223 L 187.215 127.936 L 186.311 128.563 L 185.368 129.129 L 184.457 129.746 L 183.654 130.497 L 182.991 131.375 L 182.489 132.354 L 182.048 133.362 L 181.590 134.362 L 181.050 135.320 L 180.508 136.277 L 180.066 137.285 L 179.818 138.356 L 179.731 139.453 L 179.651 140.550 L 179.526 141.643 L 179.275 142.714 L 178.800 143.706 L 178.136 144.583 L 177.446 145.440 L 176.887 146.387 L 176.518 147.423 L 176.360 148.512 M 191.992 125.712 L 192.968 125.205 L 193.908 124.633 L 194.869 124.098 L 195.808 123.525 L 196.794 123.038 L 197.862 122.772 L 198.953 122.635 L 200.051 122.567 L 201.151 122.547 L 202.243 122.419 L 203.317 122.179 L 204.353 121.811 L 205.390 121.443 L 206.413 121.037 M 209.115 121.032 L 210.213 120.974 L 211.313 120.976 L 212.411 121.039 L 213.502 121.181 L 214.579 121.406 L 215.615 121.776 L 216.650 122.147 L 217.645 122.617 L 218.669 123.019 L 219.734 123.294 L 220.822 123.458 L 221.920 123.521 L 223.020 123.544 L 224.116 123.628 L 225.205 123.785 L 226.273 124.049 L 227.261 124.532 L 228.197 125.109 L 229.117 125.713 L 230.026 126.332 L 230.944 126.939 L 231.838 127.580 L 232.692 128.273 L 233.439 129.080 L 234.093 129.965 L 234.708 130.877 L 235.331 131.783 L 235.962 132.684 L 236.566 133.604 L 237.124 134.552 L 237.517 135.579 L 237.761 136.652 L 237.895 137.743 L 237.957 138.842 L 237.992 139.941 L 238.142 141.031 L 238.407 142.098 L 238.810 143.122 L 239.275 144.119 L 239.608 145.167 L 239.824 146.246 L 239.960 147.337 L 240.019 148.436 L 240.022 149.536 L 239.972 150.635 L 239.855 151.728 L 239.661 152.811 L 239.342 153.864 L 238.937 154.887 L 238.524 155.906 L 238.231 156.966 L 238.065 158.054 L 238.017 159.153 L 237.959 160.251 L 237.828 161.343 L 237.576 162.414 L 237.096 163.404 L 236.474 164.311 L 235.914 165.258 L 235.316 166.181 L 234.764 167.132 L 234.425 168.179 L 234.785 169.219 L 235.676 168.574 L 236.624 168.016 L 237.580 167.472 L 238.444 166.791 L 239.174 165.969 L 239.733 165.021 L 240.178 164.015 L 240.585 162.993 L 241.062 162.002 L 241.598 161.041 L 242.098 160.062 L 242.427 159.012 L 242.560 157.920 L 242.601 156.821 L 242.665 155.722 L 242.783 154.629 L 243.094 153.574 L 243.653 152.626 L 244.323 151.754 L 244.998 150.886 L 245.533 149.925 L 245.805 148.859 L 245.864 147.760 L 245.745 146.667 L 245.434 145.612 L 244.942 144.628 L 244.320 143.721 L 243.617 142.874 M 182.070 143.130 L 182.857 143.899 L 183.231 142.864 L 183.643 141.844 L 184.039 140.818 L 184.301 139.750 L 184.438 138.658 L 184.456 137.558 L 184.534 136.461 L 184.689 135.372 L 185.005 134.318 L 185.569 133.374 L 186.145 132.437 M 177.540 150.981 L 178.217 151.848 L 178.886 152.721 L 179.433 153.676 L 179.735 154.733 L 179.848 155.828 L 179.915 156.926 L 179.958 158.025 L 180.110 159.114 L 180.455 160.159 L 180.963 161.134 L 181.500 162.094 L 181.974 163.087 L 182.386 164.107 L 182.839 165.109 L 183.414 166.047 L 184.156 166.859 L 185.028 167.529 L 185.984 168.075 L 186.926 168.643 L 187.977 168.320 L 187.753 167.243 L 187.230 166.275 L 186.634 165.351 L 186.075 164.403 L 185.456 163.494 L 184.913 162.538 L 184.625 161.476 L 184.480 160.386 L 184.411 159.288 L 184.375 158.188 L 184.220 157.099 L 183.934 156.037 L 183.524 155.017 L 183.088 154.007 L 182.731 152.966 L 182.022 153.807 L 181.312 154.647 L 181.215 155.743 L 181.087 156.835 L 180.995 157.932 L 180.943 159.030 L 181.066 160.123 L 181.429 161.162 L 181.938 162.137 L 182.430 163.121 L 182.755 164.172 L 183.087 165.221 L 183.538 166.224 L 184.150 167.138 L 184.919 167.924 L 185.791 168.595 L 186.712 169.197 L 187.602 169.842 L 188.446 170.548 L 189.239 171.311 L 189.974 172.129 L 190.640 173.005 L 191.253 173.918 L 191.939 174.778 L 192.740 175.532 L 193.650 176.149 L 194.643 176.624 L 195.650 177.066 L 196.638 177.550 L 197.593 178.095 L 198.557 178.625 L 199.584 179.019 L 200.658 179.256 L 201.752 179.370 L 202.848 179.472 L 203.936 179.632 L 205.003 179.899 L 205.999 180.366 L 206.889 181.013 L 207.794 181.637 L 208.781 182.124 M 210.865 182.033 L 211.960 181.927 L 213.015 181.615 L 213.969 181.067 L 214.854 180.414 L 215.754 179.782 L 216.739 179.292 L 217.807 179.030 L 218.903 178.935 L 220.001 178.874 L 221.100 178.834 L 222.192 178.697 L 223.246 178.383 L 224.237 177.906 L 225.211 177.394 L 226.210 176.934 L 227.238 176.543 L 228.256 176.125 L 229.226 175.608 L 230.084 174.919 L 230.806 174.089 L 231.380 173.151 L 231.963 172.218 L 231.659 171.161 L 230.575 171.348 L 229.593 171.844 L 228.651 172.412 L 227.688 172.942 L 226.764 173.540 L 225.816 174.097 L 224.757 174.398 L 223.667 174.545 L 222.570 174.622 L 221.470 174.641 L 220.378 174.768 L 219.305 175.014 L 218.273 175.392 L 217.258 175.818 L 216.266 176.292 L 215.188 176.511 L 214.094 176.624 L 212.995 176.682 L 211.895 176.701 L 210.796 176.686 L 209.697 176.630 L 208.603 176.513 L 207.524 176.303 L 206.481 175.951 L 205.459 175.544 L 204.424 175.172 L 203.389 174.799 L 202.317 174.553 L 201.225 174.419 L 200.126 174.392 L 199.027 174.329 L 197.935 174.198 L 196.864 173.949 L 195.865 173.488 L 194.930 172.909 L 193.969 172.374 L 193.029 171.802" fill="none" stroke="#00AEEF" stroke-width="1" vector-effect="non-scaling-stroke"/><path d="M 243.489 138.134 L 243.250 137.061 L 242.879 136.025 L 242.364 135.053 L 241.745 134.144 L 241.181 133.199 L 240.679 132.221 L 240.168 131.246 L 239.517 130.359 L 238.744 129.577 L 237.885 128.890 L 236.983 128.261 L 236.103 127.600 L 235.266 126.886 L 234.473 126.124 L 233.725 125.317 L 233.025 124.469 L 232.359 123.594 L 231.653 122.751 L 230.855 121.993 L 229.955 121.360 L 228.965 120.881 L 227.956 120.443 L 226.965 119.965 L 226.014 119.413 L 225.054 118.876 L 224.033 118.466 L 222.961 118.219 L 221.865 118.125 L 220.767 118.070 L 219.670 117.978 L 218.588 117.784 L 217.573 117.360 L 216.668 116.735 L 215.773 116.094 L 214.807 115.569 L 213.780 115.175 L 212.699 114.969 L 211.600 114.924 L 210.506 115.040 L 209.455 115.362 L 208.500 115.909 L 207.616 116.563 L 206.716 117.195 L 205.727 117.677 L 204.658 117.935 L 203.562 118.033 L 202.464 118.097 L 201.365 118.138 L 200.275 118.289 L 199.225 118.615 L 198.236 119.098 L 197.263 119.611 L 196.263 120.070 L 195.237 120.465 L 194.222 120.889 L 193.258 121.420 L 192.408 122.118 L 191.694 122.955 L 191.120 123.893 L 190.528 124.820 L 190.878 125.863 L 191.961 125.669 L 192.943 125.175 L 193.884 124.606 L 194.847 124.074 L 195.778 123.487 L 196.738 122.950 L 197.798 122.658 L 198.889 122.513 L 199.986 122.438 L 201.086 122.420 L 202.179 122.295 L 203.252 122.053 L 204.287 121.681 L 205.316 121.292 L 206.013 120.441 L 207.080 120.175 L 206.016 119.896 L 207.090 119.658 L 205.992 119.595 L 204.896 119.497 L 203.802 119.377 L 202.706 119.288 L 201.607 119.236 L 200.511 119.329 L 199.458 119.647 L 198.474 120.138 L 197.446 120.528 L 196.367 120.746 L 195.293 120.984 L 194.260 121.361 L 193.297 121.893 L 192.484 122.634 L 191.912 123.573 L 192.192 124.637 L 193.211 124.222 L 194.206 123.753 L 195.201 123.285 L 196.071 122.612 L 196.294 121.534 L 195.283 121.102 L 194.200 121.293 L 193.171 121.684 L 192.221 122.237 L 191.397 122.966 L 190.694 123.812 L 190.081 124.725 L 189.424 125.607 L 188.703 126.439 L 187.919 127.210 L 187.078 127.919 L 186.178 128.551 L 185.239 129.125 L 184.341 129.760 L 183.548 130.522 L 182.894 131.407 L 182.395 132.387 L 181.945 133.390 L 181.465 134.380 L 180.911 135.331 L 180.366 136.286 L 179.942 137.301 L 179.701 138.374 L 179.609 139.471 L 179.514 140.566 L 179.365 141.656 L 179.079 142.719 L 178.572 143.695 L 177.891 144.558 L 177.229 145.436 L 176.707 146.405 L 176.371 147.452 M 208.719 120.849 L 209.817 120.777 L 210.917 120.761 L 212.016 120.796 L 213.112 120.896 L 214.198 121.071 L 215.268 121.325 L 216.276 121.765 L 217.288 122.195 L 218.338 122.523 L 219.419 122.726 L 220.515 122.825 L 221.615 122.841 L 222.712 122.915 L 223.803 123.057 L 224.874 123.309 L 225.907 123.688 L 226.940 124.066 L 227.899 124.604 L 228.835 125.182 L 229.757 125.783 L 230.705 126.340 L 231.660 126.886 M 234.022 129.963 L 234.649 130.867 L 235.281 131.767 L 235.890 132.683 L 236.460 133.624 L 237.030 134.565 L 237.406 135.598 L 237.640 136.673 L 237.770 137.765 L 237.828 138.864 L 237.863 139.963 L 238.013 141.053 L 238.275 142.121 L 238.679 143.144 L 239.154 144.137 L 239.511 145.177 L 239.731 146.255 L 239.872 147.346 L 239.934 148.444 L 239.937 149.544 L 239.883 150.643 L 239.759 151.736 L 239.559 152.817 L 239.243 153.871 L 238.820 154.887 L 238.410 155.907 L 238.125 156.970 L 237.962 158.057 L 237.916 159.156 L 237.860 160.255 L 237.731 161.347 L 237.486 162.420 L 237.027 163.420 L 236.431 164.344 L 235.867 165.288 L 235.266 166.210 L 234.714 167.161 L 234.358 168.202 L 234.527 169.289 L 235.410 168.633 L 236.362 168.081 L 237.325 167.550 L 238.220 166.911 L 238.982 166.118 L 239.576 165.191 L 240.029 164.189 L 240.421 163.161 L 240.853 162.150 L 241.374 161.181 L 241.884 160.206 L 242.257 159.172 L 242.417 158.083 L 242.440 156.984 L 242.474 155.884 L 242.527 154.785 L 242.740 153.706 L 243.201 152.707 L 243.842 151.814 L 244.528 150.953 L 245.158 150.052 L 245.509 149.009 L 245.608 147.914 L 245.499 146.819 L 245.176 145.768 L 244.646 144.804 L 243.991 143.920 L 243.308 143.058 L 242.773 142.097 L 242.509 141.029 M 178.469 150.351 L 179.217 151.158 L 179.927 151.998 L 180.326 153.023 L 180.467 154.114 L 180.474 155.214 L 180.438 156.314 L 180.420 157.413 L 180.437 158.513 L 180.687 159.585 L 181.133 160.590 L 181.649 161.561 L 182.103 162.564 L 182.446 163.609 L 182.837 164.637 L 183.338 165.616 L 184.018 166.480 L 184.858 167.191 L 185.825 167.715 L 186.818 168.188 L 187.835 168.608 L 187.820 167.508 L 187.358 166.509 L 186.757 165.588 L 186.189 164.646 L 185.635 163.696 L 185.067 162.754 L 184.740 161.704 L 184.580 160.615 L 184.498 159.519 L 184.482 158.419 L 184.354 157.326 L 184.104 156.255 L 183.717 155.225 L 183.295 154.209 L 182.911 153.179 L 182.685 152.102 L 182.547 151.011 L 182.480 149.913 L 182.466 148.813 L 182.503 147.713 L 182.605 146.618 L 182.787 145.533 L 183.068 144.470 L 183.523 143.468 L 183.978 142.467 L 184.413 141.457 L 184.735 140.405 L 184.928 139.322 L 185.008 138.225 L 185.035 137.125 L 185.131 136.029 L 185.310 134.944 L 185.640 133.895 L 186.141 132.915 L 186.710 131.974 L 187.316 131.056 M 188.857 170.779 L 189.563 171.623 L 190.209 172.512 L 190.836 173.417 L 191.567 174.238 L 192.421 174.932 L 193.399 175.435 L 194.438 175.795 L 195.532 175.914 L 196.487 175.368 L 196.110 174.334 L 195.225 173.682 L 194.237 173.198 L 193.249 172.714 L 192.248 172.257 L 191.625 173.163 L 192.152 174.128 L 192.903 174.932 L 193.811 175.554 L 194.814 176.005 L 195.863 176.336 L 196.932 176.594 L 197.960 176.986 L 198.950 177.466 L 199.973 177.870 L 201.053 178.080 L 202.152 178.050 L 203.251 177.989 L 204.347 177.894 L 205.444 177.814 L 206.544 177.798 L 207.639 177.898 L 207.321 178.951 L 208.231 179.569 L 209.080 180.269 L 210.007 180.861 L 211.056 181.190 L 212.155 181.239 L 213.238 181.044 L 214.243 180.598 L 215.140 179.961 L 216.025 179.308 L 216.964 178.735 L 218.020 178.428 L 219.119 178.375 L 220.218 178.412 L 221.318 178.429 L 222.418 178.433 L 223.505 178.260 L 224.542 177.894 L 225.523 177.396 L 226.492 176.876 L 227.498 176.432 L 228.527 176.043 L 229.536 175.603 L 230.475 175.030 L 231.303 174.307 L 232.026 173.478 L 232.680 172.593 L 233.356 171.726 M 232.049 168.008 L 231.236 168.748 L 230.395 169.457 L 229.530 170.137 L 228.634 170.775 L 227.728 171.399 L 226.810 172.004 L 225.822 172.489 L 224.768 172.803 L 223.683 172.982 L 222.586 173.065 L 221.486 173.082 L 220.391 173.184 L 219.308 173.380 L 218.258 173.706 L 217.251 174.149 L 216.266 174.638 L 215.229 175.006 L 214.160 175.264 L 213.070 175.412 L 211.971 175.465 L 210.871 175.434 L 209.779 175.302 L 208.714 175.027 L 207.684 174.641 L 206.699 174.152 L 205.714 173.662 L 204.680 173.288 L 203.645 172.914 L 202.567 172.696 L 201.477 172.545 L 200.382 172.442 L 199.293 172.290 L 198.228 172.014 L 197.211 171.594 L 196.252 171.055 L 195.347 170.431 L 194.462 169.777 L 193.602 169.091 L 192.776 168.365 L 191.970 167.616 L 191.177 166.854 L 190.396 166.079 L 189.631 165.289 L 188.898 164.469 L 188.204 163.615" fill="none" stroke="#EC008C" stroke-width="1" vector-effect="non-scaling-stroke"/><path d="M 243.510 139.743 L 243.406 138.648 L 243.213 137.565 L 242.892 136.512 L 242.422 135.518 L 241.824 134.595 L 241.236 133.665 L 240.731 132.688 L 240.238 131.704 L 239.652 130.774 L 238.923 129.950 L 238.089 129.233 L 237.185 128.606 L 236.285 127.973 L 235.428 127.284 L 234.618 126.540 L 233.854 125.748 L 233.143 124.909 L 232.480 124.031 L 231.805 123.163 L 231.043 122.369 L 230.175 121.693 L 229.199 121.187 L 228.183 120.766 L 227.161 120.358 L 226.181 119.859 L 225.216 119.331 L 224.224 118.855 L 223.165 118.558 L 222.071 118.444 L 220.971 118.435 L 219.871 118.424 L 218.771 118.390 L 217.695 118.164 L 216.716 117.662 L 215.824 117.018 L 214.938 116.366 L 214.052 115.714 L 213.079 115.202 L 212.019 114.907 L 210.924 114.803 L 209.825 114.849 L 208.742 115.045 L 207.708 115.419 L 206.728 115.920 L 205.821 116.542 L 204.922 117.176 L 203.916 117.620 L 202.838 117.839 L 201.744 117.952 L 200.646 118.021 L 199.551 118.124 L 198.479 118.372 L 197.455 118.774 L 196.492 119.305 L 195.547 119.869 L 194.564 120.363 L 193.559 120.810 L 192.570 121.291 L 191.669 121.922 L 190.870 122.677 L 190.158 123.516 L 189.486 124.387 L 188.784 125.234 L 188.036 126.041 L 187.245 126.804 L 186.410 127.521 L 185.535 128.187 L 184.637 128.823 L 183.777 129.509 L 183.000 130.288 L 182.343 131.170 L 181.827 132.141 L 181.321 133.118 L 180.755 134.061 L 180.128 134.965 L 179.613 135.937 L 179.242 136.973 L 178.999 138.045 M 180.339 140.024 L 180.355 141.124 L 180.200 142.213 L 179.736 143.210 L 179.084 144.096 L 178.403 144.960 L 177.802 145.881 L 177.439 146.919 L 177.329 148.014 L 177.476 149.104 L 177.924 150.109 L 178.609 150.970 L 179.314 151.813 L 179.889 152.752 L 180.203 153.806 L 180.306 154.901 L 180.301 156.001 L 180.301 157.101 L 180.305 158.201 L 180.487 159.286 L 180.882 160.312 L 181.396 161.285 L 181.893 162.266 L 182.274 163.298 L 182.655 164.330 L 183.119 165.327 L 183.741 166.235 L 184.530 167.000 L 185.456 167.595 L 186.430 168.107 L 187.395 168.634 L 188.490 168.742 L 189.362 169.413 L 188.869 168.429 L 188.342 167.464 L 187.783 166.517 L 187.159 165.610 L 186.560 164.688 L 186.003 163.739 L 185.576 162.725 L 185.314 161.657 L 185.171 160.567 L 185.103 159.469 L 185.097 158.369 L 184.976 157.275 L 184.745 156.200 L 184.374 155.164 L 183.915 154.165 L 183.503 153.145 L 183.252 152.074 L 183.076 150.988 L 182.987 149.892 L 182.970 148.792 L 183.020 147.693 L 183.154 146.601 L 183.395 145.528 L 183.780 144.497 L 184.302 143.529 L 184.748 142.524 L 185.057 141.468 L 185.239 140.383 L 185.311 139.286 L 185.337 138.186 L 185.429 137.090 L 185.602 136.003 L 185.930 134.954 L 186.488 134.005 L 187.123 133.107 L 187.777 132.223 L 188.453 131.355 L 189.168 130.519 L 189.913 129.710 L 190.693 128.934 L 191.509 128.196 L 192.351 127.488 L 193.215 126.808 L 194.112 126.171 L 195.018 125.547 L 195.924 124.924 L 196.844 124.321 L 197.851 123.878 L 198.926 123.647 L 200.020 123.525 L 201.118 123.470 L 202.218 123.465 L 203.313 123.356 L 204.393 123.150 L 205.439 122.810 L 206.441 122.354 L 207.432 121.878 L 208.477 121.535 L 209.555 121.314 L 210.649 121.203 L 211.749 121.166 L 212.848 121.193 L 213.944 121.289 L 215.030 121.465 L 216.097 121.732 L 217.116 122.146 L 218.124 122.587 L 219.166 122.939 L 220.244 123.158 L 221.337 123.279 L 222.437 123.294 L 223.536 123.347 L 224.630 123.466 L 225.709 123.679 L 226.753 124.024 L 227.715 124.559 L 228.652 125.134 L 229.574 125.735 L 230.509 126.313 L 231.455 126.875 L 232.387 127.459 L 233.271 128.114 M 229.164 128.170 L 229.966 128.923 L 230.755 129.689 L 231.533 130.467 L 232.294 131.261 L 233.016 132.091 L 233.704 132.949 L 234.367 133.827 L 234.953 134.758 L 235.539 135.689 L 235.995 136.690 L 236.279 137.752 L 236.412 138.844 L 236.476 139.942 L 236.622 141.033 L 236.851 142.109 L 237.246 143.135 L 237.765 144.105 L 238.276 145.079 L 238.678 146.103 L 238.957 147.167 L 239.085 148.260 L 239.104 149.360 L 239.032 150.457 L 238.850 151.542 L 238.552 152.601 L 238.130 153.617 L 237.613 154.588 L 237.178 155.598 L 236.884 156.658 L 236.711 157.744 L 236.640 158.842 L 236.595 159.941 L 236.465 161.033 L 236.210 162.104 L 235.787 163.119 L 235.191 164.043 L 234.547 164.935 L 233.888 165.816 L 233.193 166.669 L 232.470 167.497 L 231.717 168.300 L 230.927 169.065 L 230.101 169.791 L 229.246 170.483 L 228.367 171.144 L 227.464 171.773 L 226.551 172.386 L 225.618 172.968 L 224.585 173.347 L 223.503 173.547 L 222.409 173.662 L 221.310 173.713 L 220.210 173.731 L 219.117 173.853 L 218.039 174.073 L 216.999 174.430 L 216.000 174.891 L 214.995 175.338 L 213.937 175.637 L 212.852 175.822 L 211.757 175.919 L 210.657 175.945 L 209.557 175.911 L 208.462 175.809 L 207.376 175.633 L 206.307 175.376 L 205.289 174.959 L 204.276 174.530 L 203.229 174.193 L 202.149 173.984 L 201.054 173.876 L 199.954 173.870 L 198.856 173.806 L 197.764 173.674 L 196.690 173.435 L 195.662 173.046 L 194.695 172.520 L 193.754 171.951 L 192.828 171.357 L 191.872 170.813 M 222.931 179.617 L 223.984 179.301 L 224.989 178.853 L 225.924 178.274 L 226.865 177.705 L 227.848 177.211 L 228.839 176.732 L 229.775 176.155 L 230.612 175.441 L 231.356 174.631 L 232.032 173.763 L 232.711 172.898 L 233.439 172.073 L 234.213 171.291 L 235.029 170.554 L 235.885 169.863 L 236.775 169.216 L 237.649 168.548 L 238.463 167.808 L 239.172 166.967 L 239.723 166.015 L 240.202 165.025 L 240.703 164.046 L 241.293 163.117 L 241.881 162.188 L 242.336 161.186 L 242.635 160.128 L 242.781 159.037 L 242.853 157.940 L 242.977 156.847 L 243.198 155.769 L 243.657 154.769 L 244.310 153.884 L 244.957 152.995 L 245.604 152.105 M 209.821 182.181 L 210.920 182.226 L 212.016 182.124 L 213.077 181.835 L 214.055 181.331 L 214.947 180.688 L 215.839 180.044 L 216.729 179.397 L 217.703 178.887 L 218.777 178.647 L 219.876 178.605 L 220.976 178.589" fill="none" stroke="#FFF200" stroke-width="1" vector-effect="non-scaling-stroke"/></svg>