<svg xmlns="http://www.w3.org/2000/svg" viewBox="171.1196135343088 110.37810915700541 80.29423826072522 80.67224275179328" width="80.29423826072522" height="80.67224275179328" shape-rendering="geometricPrecision"><rect x="171.1196135343088" y="110.37810915700541" width="80.29423826072522" height="80.67224275179328" fill="#0b0f14"/><path d="M 197.570 119.538 L 194.045 121.352 L 190.467 122.370 L 186.916 124.156 L 186.116 124.972 L 184.363 128.592 L 183.384 132.211 L 181.585 135.831 L 180.981 139.451 L 180.709 143.070 L 180.385 146.690 L 180.138 150.310 L 180.385 153.930 L 180.709 157.549 L 180.981 161.169 L 181.585 164.789 L 183.364 168.382 M 211.776 127.528 L 215.327 127.941 L 216.829 128.592 L 218.879 129.452 L 222.430 130.274 L 225.981 131.349 L 227.125 132.211 L 229.533 134.665 L 230.379 135.831 L 231.433 139.451 L 232.239 143.070 L 233.084 145.159 L 233.723 146.690 L 234.128 150.310 L 233.723 153.930 M 242.570 139.451 L 242.842 143.070 L 243.166 146.690 L 243.414 150.310 L 243.166 153.930 L 242.842 157.549 L 242.570 161.169 L 241.967 164.789 M 189.829 146.690 L 189.424 150.310 L 189.829 153.930 L 190.467 155.460 M 233.084 155.460 L 232.239 157.549 L 231.433 161.169 L 230.379 164.789 M 184.363 172.028 L 186.116 175.648 L 186.916 176.463 L 190.467 178.250 L 194.019 179.248 L 194.045 179.268 L 197.570 181.082 L 201.121 181.697 L 204.673 181.974 L 208.224 182.304 L 211.776 182.557 L 215.327 182.304 L 218.879 181.974 L 222.430 181.697 L 225.981 181.082 L 229.507 179.268" fill="none" stroke="#2dd4bf" stroke-width="1" vector-effect="non-scaling-stroke"/><path d="M 197.878 118.378 L 196.242 119.551 L 195.341 119.999 L 194.441 120.446 L 193.544 120.882 L 192.757 121.097 L 191.788 121.346 L 190.819 121.593 L 189.808 121.907 L 188.773 122.368 L 187.874 122.796 L 186.977 123.225 L 186.032 123.790 L 185.134 124.674 L 184.532 125.736 L 184.099 126.640 L 183.667 127.544 L 183.249 128.481 L 182.934 129.550 L 182.680 130.519 L 182.426 131.487 L 182.123 132.374 L 181.737 133.209 L 181.302 134.111 L 180.870 135.014 L 180.497 136.012 L 180.295 137.103 L 180.143 138.091 L 179.991 139.079 L 179.890 140.109 L 179.820 141.120 L 179.750 142.118 L 179.678 143.114 L 179.594 144.103 L 179.507 145.100 L 179.419 146.096 L 179.337 147.097 L 179.265 148.101 L 179.193 149.098 L 179.120 150.096 L 179.149 151.154 L 179.204 152.166 L 179.257 153.164 L 179.314 154.165 L 179.388 155.172 L 179.462 156.170 L 179.536 157.168 L 179.603 158.161 L 179.665 159.156 L 179.729 160.155 L 179.795 161.154 L 179.957 162.207 L 180.118 163.203 L 180.280 164.195 L 180.535 165.228 L 181.072 166.315 L 181.522 167.225 L 181.973 168.133 L 182.311 168.813 M 211.454 126.372 L 212.681 128.129 L 213.673 128.241 L 214.663 128.353 L 215.521 128.576 L 216.294 128.948 L 217.208 129.342 L 218.118 129.737 L 219.142 130.059 L 220.177 130.310 L 221.143 130.556 L 222.109 130.809 L 222.994 131.117 L 223.937 131.445 L 224.886 131.780 L 225.723 132.166 L 226.226 132.708 L 226.841 133.371 L 227.514 134.097 L 228.220 134.840 L 228.850 135.577 L 229.375 136.330 L 229.529 137.008 L 229.803 137.938 L 230.089 138.901 L 230.363 139.857 L 230.567 140.778 L 230.785 141.754 L 231.001 142.730 L 231.303 143.754 L 231.710 144.773 L 232.083 145.698 L 232.466 146.625 L 232.651 147.442 L 232.723 148.297 L 232.826 149.288 L 232.930 150.279 L 232.840 151.097 L 232.729 152.067 L 232.616 153.065 L 232.531 153.839 M 242.845 140.619 L 241.698 140.537 L 241.745 141.533 L 241.793 142.529 L 241.847 143.531 L 241.912 144.536 L 241.978 145.530 L 242.045 146.524 L 242.098 147.503 L 242.148 148.493 L 242.202 149.489 L 242.242 150.470 L 242.164 151.349 L 242.087 152.348 L 242.012 153.348 L 241.931 154.337 L 241.840 155.326 L 241.750 156.324 L 241.661 157.322 L 241.584 158.330 L 241.512 159.331 L 241.440 160.329 L 241.351 161.311 L 241.203 162.248 L 241.045 163.237 L 240.887 164.226 L 240.816 164.675 M 190.868 147.291 L 188.584 147.568 L 188.484 148.561 L 188.382 149.553 L 188.354 150.631 L 188.485 151.781 L 188.609 152.776 L 188.731 153.771 L 189.100 154.939 L 189.507 155.899 M 234.260 155.222 L 231.610 156.110 L 231.243 157.047 L 230.952 158.102 L 230.739 159.112 L 230.542 160.095 L 230.346 161.075 L 230.108 162.007 L 229.856 162.973 L 229.606 163.939 L 229.425 164.645 M 185.355 172.703 L 183.782 173.387 L 184.224 174.291 L 184.664 175.194 L 185.102 176.095 L 185.994 177.085 L 187.098 177.745 L 188.038 178.198 L 188.924 178.619 L 189.811 179.036 L 190.942 179.348 L 191.934 179.579 L 192.897 179.801 L 193.800 180.051 L 194.519 180.419 L 195.419 180.835 L 196.321 181.255 L 197.294 181.642 L 198.547 181.824 L 199.539 181.970 L 200.531 182.122 L 201.579 182.231 L 202.616 182.303 L 203.615 182.377 L 204.615 182.453 L 205.600 182.546 L 206.598 182.641 L 207.596 182.736 L 208.601 182.824 L 209.609 182.899 L 210.607 182.975 L 211.606 183.050 L 212.692 183.001 L 213.701 182.933 L 214.698 182.865 L 215.699 182.790 L 216.704 182.700 L 217.699 182.610 L 218.694 182.521 L 219.683 182.443 L 220.677 182.368 L 221.674 182.292 L 222.680 182.198 L 223.714 182.023 L 224.699 181.853 L 225.684 181.682 L 226.725 181.317 L 227.689 180.831 L 228.580 180.371 L 229.473 179.910 L 229.810 179.736" fill="none" stroke="#f472b6" stroke-width="1" vector-effect="non-scaling-stroke"/></svg>