<svg xmlns="http://www.w3.org/2000/svg" viewBox="170.883770912987 108.30028403696339 82.36323759330656 80.47049010468187" width="82.36323759330656" height="80.47049010468187" shape-rendering="geometricPrecision"><rect x="170.883770912987" y="108.30028403696339" width="82.36323759330656" height="80.47049010468187" fill="#0b0f14"/><path d="M 179.488 160.522 L 179.846 161.563 L 180.298 162.565 L 180.853 163.515 L 181.505 164.401 L 182.223 165.234 L 182.899 166.102 L 183.546 166.992 L 184.182 167.889 L 184.834 168.775 L 185.526 169.630 L 186.261 170.449 L 187.025 171.240 L 187.813 172.007 L 188.625 172.749 L 189.461 173.464 L 190.332 174.136 L 191.234 174.767 L 192.148 175.377 L 193.060 175.992 L 193.954 176.634 L 194.815 177.318 L 195.706 177.963 L 196.655 178.520 L 197.653 178.982 L 198.689 179.352 L 199.749 179.647 L 200.824 179.881 L 201.909 180.061 L 203.001 180.193 L 204.096 180.299 L 205.191 180.398 L 206.287 180.489 L 207.384 180.570 L 208.482 180.638 L 209.581 180.687 L 210.681 180.715 L 211.781 180.721 L 212.881 180.707 L 213.980 180.672 L 215.079 180.617 L 216.176 180.545 L 217.273 180.463 L 218.370 180.372 L 219.465 180.274 L 220.560 180.170 L 221.651 180.024 L 222.732 179.825 L 223.801 179.564 L 224.849 179.231 L 225.863 178.805 L 226.828 178.276 L 227.733 177.651 L 228.613 176.990 L 229.504 176.346 L 230.420 175.737 L 231.343 175.139 L 232.255 174.524 L 233.139 173.869 L 233.987 173.168 L 234.812 172.440 L 235.609 171.683 L 236.376 170.894 L 237.114 170.078 L 237.821 169.235 L 238.477 168.352 L 239.100 167.446 L 239.716 166.535 L 240.359 165.642 L 241.040 164.778 L 241.708 163.904 L 242.313 162.986 L 242.815 162.007 L 243.211 160.980 L 243.516 159.923 L 243.736 158.846 L 243.875 157.755 L 243.945 156.657 L 244.009 155.559 L 244.066 154.460 L 244.115 153.361 L 244.156 152.262 L 244.186 151.162 L 244.205 150.063 L 244.210 148.963 L 244.203 147.863 L 244.183 146.763 L 244.152 145.663 L 244.111 144.564 L 244.062 143.465 L 244.006 142.367 L 243.944 141.268 L 243.877 140.170 L 243.728 139.080 L 243.493 138.006 L 243.164 136.956 L 242.732 135.945 L 242.184 134.991 L 241.565 134.081 L 240.920 133.191 L 240.281 132.295 L 239.685 131.371 L 239.098 130.440 L 238.484 129.528 L 237.819 128.652 L 237.111 127.810 L 236.371 126.996 L 235.594 126.217 L 234.780 125.478 L 233.933 124.776 L 233.058 124.108 L 232.145 123.495 L 231.197 122.937 L 230.234 122.407 L 229.279 121.860 L 228.357 121.261 L 227.435 120.660 L 226.491 120.095 L 225.511 119.597 L 224.482 119.206 L 223.419 118.925 L 222.333 118.752 L 221.234 118.694 L 220.134 118.697 L 219.034 118.706 L 217.934 118.722 L 216.835 118.746 L 215.735 118.770 L 214.635 118.787 L 213.535 118.797 L 212.435 118.799 L 211.335 118.793 L 210.235 118.780 L 209.135 118.761 L 208.035 118.737 L 206.936 118.717 L 205.836 118.705 L 204.736 118.699 L 203.636 118.698 L 202.541 118.806 L 201.464 119.029 L 200.418 119.370 L 199.414 119.819 L 198.448 120.346 L 197.509 120.918 L 196.572 121.495 L 195.609 122.026 L 194.616 122.499 L 193.638 123.004 L 192.696 123.571 L 191.798 124.206 L 190.931 124.883 L 190.098 125.602 L 189.310 126.370 L 188.574 127.186 L 187.878 128.039 L 187.231 128.928 L 186.674 129.877 L 186.265 130.898 L 186.108 131.987 L 185.733 133.020 L 185.191 133.978 L 184.612 134.913 L 184.079 135.876 L 183.659 136.892 L 183.385 137.957 L 183.297 139.054 L 183.452 140.143 L 183.667 141.222 L 184.758 141.079 L 185.326 140.137 L 185.645 139.084 L 185.865 138.006 L 186.054 136.923 L 186.316 135.854 L 186.853 134.894 L 187.568 134.058 L 188.351 133.286 L 189.147 132.526 L 189.916 131.740 L 190.592 130.872 L 191.317 130.045 L 192.099 129.271 L 192.931 128.551 L 193.811 127.891 L 194.667 127.200 L 195.464 126.442 L 196.275 125.699 L 197.164 125.051 L 198.150 124.564 L 199.195 124.220 L 200.256 123.930 L 201.329 123.689 L 202.408 123.476 L 203.481 123.234 L 204.555 122.993 L 205.628 122.753 L 206.702 122.513 L 207.773 122.263 L 208.848 122.030 L 208.081 121.241 L 207.026 120.931 L 205.945 120.729 L 204.855 120.575 L 203.763 120.448 L 202.664 120.489 L 201.585 120.705 L 200.548 121.072 L 199.511 121.439 L 198.531 121.938 L 197.586 122.502 L 196.621 123.029 L 195.563 123.332 L 194.466 123.403 L 193.398 123.667 L 192.404 124.138 L 191.475 124.728 L 190.589 125.380 L 189.733 126.071 L 188.923 126.814 L 188.163 127.610 L 187.450 128.447 L 186.773 129.315 L 186.155 130.224 L 185.616 131.183 L 185.133 132.171 L 184.622 133.146 L 184.038 134.078 L 183.439 135.001 L 182.873 135.944 L 182.381 136.927 L 181.990 137.956 L 181.729 139.024 L 181.600 140.117 L 181.608 141.217 L 181.627 142.316 L 181.653 143.416 L 181.687 144.516 L 181.727 145.615 L 181.758 146.714 L 181.779 147.814 L 181.787 148.914 L 181.782 150.014 L 181.764 151.114 L 181.734 152.214 L 181.693 153.313 L 181.655 154.412 L 181.625 155.512 L 181.604 156.612 L 181.589 157.712 L 181.689 158.807 L 181.918 159.883 L 182.269 160.925 L 182.742 161.918 L 183.300 162.867 L 183.909 163.782 L 184.534 164.688 L 185.128 165.614 L 185.665 166.574 L 186.221 167.523 L 186.830 168.439 L 187.503 169.309 L 188.215 170.147 L 188.963 170.954 L 189.751 171.721 L 190.576 172.449 L 191.431 173.141 L 192.313 173.799 L 193.234 174.401 L 194.178 174.964 L 195.127 175.521 L 196.054 176.113 L 196.965 176.729 L 197.885 177.332 L 198.832 177.892 L 199.831 178.353 L 200.872 178.707 L 201.941 178.968 L 203.027 179.144 L 204.123 179.239 L 205.221 179.294 L 206.320 179.344 L 207.419 179.388 L 208.519 179.424 L 209.618 179.454 L 210.718 179.476 L 211.818 179.489 L 212.918 179.492 L 214.018 179.485 L 215.118 179.468 L 216.217 179.441 L 217.317 179.407 L 218.416 179.365 L 219.515 179.317 L 220.614 179.262 L 221.712 179.203 L 222.804 179.071 L 223.884 178.860 L 224.945 178.569 L 225.978 178.192 L 226.968 177.713 L 227.903 177.134 L 228.800 176.497 L 229.689 175.849 L 230.601 175.234 L 231.531 174.646 L 232.457 174.053 L 233.362 173.427 L 234.229 172.751 L 235.070 172.042 L 235.885 171.303 L 236.670 170.532 L 237.423 169.731 L 238.150 168.905 L 238.835 168.044 L 239.477 167.151 L 240.098 166.243 L 240.728 165.341 L 241.394 164.466 L 242.077 163.604 L 242.733 162.720 L 243.290 161.772 L 243.740 160.768 L 244.091 159.726 L 244.363 158.660 L 244.567 157.579 L 244.712 156.488 L 244.818 155.394 L 244.918 154.298 L 245.010 153.202 L 245.093 152.105 L 245.162 151.007 L 245.212 149.908 L 245.241 148.809 L 245.247 147.709 L 245.231 146.609 L 245.192 145.510 L 245.132 144.411 L 245.052 143.314 L 244.962 142.218 L 244.863 141.122 L 244.756 140.027 L 244.638 138.934 L 244.466 137.847 L 244.235 136.772 L 243.940 135.712 L 243.568 134.677 L 243.100 133.682 L 242.532 132.739 L 241.872 131.859 L 241.156 131.024 L 240.483 130.154 L 239.841 129.261 L 239.205 128.363 L 238.552 127.479 L 237.857 126.626 L 237.120 125.809 L 236.356 125.018 L 235.566 124.252 L 234.752 123.512 L 233.915 122.799 L 233.042 122.130 L 232.139 121.501 L 231.224 120.890 L 230.314 120.273 L 229.422 119.628 L 228.563 118.942 L 227.667 118.303 L 226.713 117.756 L 225.708 117.309 L 224.667 116.954 L 223.604 116.672 M 219.408 120.972 L 218.334 121.210 L 217.315 121.622 L 217.781 122.619 L 218.857 122.847 L 219.932 123.078 L 221.007 123.314 L 222.083 123.543 L 223.162 123.754 L 224.232 124.009 L 225.290 124.310 L 226.326 124.680 L 227.296 125.199 L 228.168 125.870 L 228.975 126.617 L 229.778 127.369 L 230.652 128.036 L 231.522 128.710 L 232.343 129.443 L 233.112 130.228 L 233.824 131.067 L 234.514 131.924 L 235.304 132.690 L 236.102 133.447 L 236.880 134.224 L 237.572 135.079 L 238.060 136.065 L 238.271 137.144 L 238.458 138.228 L 238.691 139.303 L 239.048 140.344 L 239.687 141.239 L 240.671 140.747 L 240.862 139.664 M 240.498 160.785 L 240.868 159.749 L 241.084 158.670 L 241.106 157.571 L 240.962 156.480 L 240.774 155.396 L 239.889 154.744 L 239.246 155.637 L 238.801 156.643 L 238.499 157.700 L 238.197 158.758 L 237.963 159.833 L 237.728 160.908 L 237.431 161.967 L 236.933 162.947 L 236.163 163.733 L 235.312 164.430 L 234.484 165.154 L 233.690 165.916 L 233.015 166.784 L 232.298 167.618 L 231.524 168.400 L 230.699 169.128 L 229.822 169.791 L 228.966 170.482 L 228.182 171.254 L 227.405 172.032 L 226.598 172.780 L 225.697 173.411 L 224.659 173.776 L 223.572 173.940 L 222.485 174.113 L 221.410 174.345 L 220.374 174.715 L 219.501 175.384 L 220.310 176.130 L 221.393 176.320 L 222.493 176.331 L 223.577 176.144 L 224.623 175.803 L 225.617 175.333 L 226.571 174.785 L 227.525 174.237" fill="none" stroke="#00AEEF" stroke-width="1" vector-effect="non-scaling-stroke"/><path d="M 244.913 137.022 L 244.595 135.969 L 244.192 134.945 L 243.687 133.968 L 243.081 133.050 L 242.388 132.196 L 241.691 131.345 L 241.032 130.464 L 240.394 129.568 L 239.752 128.675 L 239.085 127.800 L 238.371 126.964 L 237.619 126.161 L 236.843 125.381 L 236.042 124.627 L 235.219 123.898 L 234.365 123.204 L 233.476 122.556 L 232.566 121.938 L 231.651 121.328 L 230.746 120.702 L 229.867 120.040 L 229.005 119.357 L 228.085 118.755 L 227.110 118.245 L 226.091 117.830 L 225.041 117.502 L 223.973 117.239 L 222.893 117.033 L 221.804 116.878 L 220.709 116.771 L 219.614 116.669 L 218.518 116.574 L 217.421 116.489 L 216.324 116.413 L 215.225 116.355 L 214.126 116.317 L 213.026 116.300 L 211.926 116.304 L 210.826 116.329 L 209.727 116.374 L 208.629 116.437 L 207.532 116.514 L 206.435 116.600 L 205.339 116.694 L 204.244 116.795 L 203.150 116.916 L 202.064 117.088 L 200.988 117.318 L 199.929 117.615 L 198.897 117.995 L 197.907 118.476 L 196.974 119.057 L 196.087 119.709 L 195.208 120.370 L 194.301 120.993 L 193.379 121.592 L 192.459 122.195 L 191.560 122.829 L 190.697 123.511 L 189.860 124.225 L 189.049 124.968 L 188.268 125.742 L 187.517 126.546 L 186.793 127.374 L 186.114 128.240 L 185.479 129.138 L 184.864 130.050 L 184.239 130.955 L 183.572 131.830 L 182.896 132.698 L 182.245 133.584 L 181.693 134.535 L 181.247 135.541 L 180.900 136.585 L 180.640 137.654 L 180.464 138.740 L 180.371 139.836 L 180.305 140.934 L 180.245 142.032 L 180.193 143.131 L 180.149 144.230 L 180.114 145.330 L 180.091 146.429 L 180.080 147.529 L 180.081 148.629 L 180.095 149.729 L 180.121 150.829 L 180.157 151.928 L 180.200 153.027 L 180.252 154.126 L 180.311 155.225 L 180.375 156.323 L 180.484 157.417 L 180.679 158.500 L 180.964 159.562 L 181.349 160.593 L 181.846 161.574 L 182.441 162.499 L 183.078 163.396 L 183.723 164.287 L 184.333 165.202 L 184.919 166.134 L 185.516 167.058 L 186.155 167.952 L 186.847 168.807 L 187.572 169.635 L 188.332 170.430 L 189.130 171.187 L 189.963 171.905 L 190.826 172.588 L 191.719 173.230 L 192.654 173.809 L 193.614 174.346 L 194.578 174.877 L 195.510 175.461 L 196.429 176.066 L 197.361 176.650 L 198.324 177.181 L 199.332 177.621 L 200.382 177.950 L 201.459 178.171 L 202.554 178.281 L 203.654 178.278 L 204.754 178.269 L 205.854 178.254 L 206.954 178.231 L 208.053 178.203 L 209.153 178.182 L 210.253 178.167 L 211.353 178.161 L 212.453 178.163 L 213.553 178.174 L 214.653 178.192 L 215.752 178.217 L 216.852 178.241 L 217.952 178.259 L 219.052 178.269 L 220.152 178.275 L 221.250 178.219 L 222.337 178.046 L 223.398 177.756 L 224.420 177.349 L 225.402 176.853 L 226.350 176.296 L 227.285 175.717 L 228.236 175.163 L 229.228 174.688 L 230.215 174.203 L 231.175 173.667 L 232.091 173.057 L 232.970 172.395 L 233.819 171.697 L 234.627 170.950 L 235.385 170.153 L 236.093 169.311 L 236.763 168.438 L 237.364 167.517 L 237.833 166.522 L 238.055 165.445 L 238.305 164.373 L 238.784 163.383 L 239.360 162.446 L 239.921 161.500 L 240.393 160.506 L 240.729 159.459 L 240.893 158.371 L 240.835 157.273 L 240.636 156.191 L 240.278 155.151 L 239.386 155.796 L 238.878 156.771 L 238.568 157.827 L 238.340 158.903 L 238.129 159.982 L 237.852 161.047 L 237.342 162.021 L 236.655 162.881 L 235.889 163.671 L 235.105 164.441 L 234.339 165.231 L 233.664 166.100 L 232.939 166.927 L 232.158 167.701 L 231.327 168.422 L 230.448 169.084 L 229.589 169.770 L 228.778 170.513 L 227.944 171.231 L 227.035 171.850 L 226.041 172.322 L 224.996 172.666 L 223.938 172.964 L 222.867 173.217 L 221.787 173.426 L 220.710 173.651 L 219.632 173.867 L 218.551 174.074 L 217.469 174.273 L 216.386 174.464 L 215.297 174.617 L 214.202 174.721 L 213.103 174.768 L 212.003 174.762 L 210.904 174.705 L 209.809 174.599 L 208.719 174.451 L 207.633 174.277 L 206.549 174.094 L 205.466 173.901 L 204.385 173.698 L 203.304 173.491 L 202.230 173.256 L 201.167 172.971 L 200.117 172.643 L 199.084 172.265 L 198.095 171.784 L 197.156 171.211 L 196.257 170.578 L 195.377 169.917 L 194.474 169.289 L 193.622 168.593 L 192.816 167.845 L 192.055 167.050 L 191.345 166.210 L 190.689 165.327 L 190.034 164.443 L 189.426 163.527 L 188.891 162.565 L 188.442 161.561 L 188.051 160.533 L 187.685 159.496 L 187.351 158.448 L 187.058 157.387 L 186.817 156.314 L 186.634 155.230 L 186.491 154.139 L 186.361 153.047 L 186.256 151.952 L 186.185 150.854 L 186.149 149.754 L 186.145 148.654 L 186.172 147.555 L 186.232 146.456 L 186.324 145.360 L 186.444 144.267 L 186.590 143.177 L 186.783 142.094 L 187.040 141.024 L 187.364 139.973 L 187.726 138.934 L 188.117 137.906 L 188.526 136.885 L 188.956 135.873 L 189.446 134.887 L 189.986 133.929 L 190.562 132.992 L 191.227 132.116 L 191.956 131.292 L 192.686 130.469 L 193.454 129.682 L 194.260 128.933 L 195.101 128.224 L 195.985 127.570 L 196.932 127.009 L 197.897 126.482 L 198.887 126.003 L 199.903 125.581 L 200.932 125.192 L 201.967 124.820 L 203.011 124.474 L 204.066 124.162 L 205.135 123.904 L 206.218 123.710 L 207.308 123.563 L 208.402 123.444 L 209.497 123.343 L 210.595 123.271 L 211.694 123.230 L 212.794 123.218 L 213.894 123.236 L 214.993 123.284 L 216.090 123.364 L 217.184 123.475 L 218.277 123.603 L 219.368 123.744 L 220.453 123.924 L 221.527 124.161 L 222.590 124.443 L 223.643 124.761 L 224.686 125.110 L 225.722 125.482 L 226.731 125.920 L 227.699 126.441 L 228.626 127.034 L 229.523 127.671 L 230.426 128.299 L 231.286 128.985 L 232.102 129.722 L 232.873 130.507 L 233.591 131.340 L 234.253 132.219 L 234.951 133.069 L 235.621 133.942 L 236.228 134.859 L 236.736 135.835 L 237.128 136.863 L 237.463 137.910 L 237.748 138.973 L 237.976 140.049 L 238.208 141.124 L 238.436 142.200 L 238.654 143.278 L 238.864 144.358 L 239.066 145.440 L 239.233 146.527 L 239.351 147.620 L 239.405 148.719 L 239.393 149.819 L 239.304 150.915 L 239.144 152.004 L 238.933 153.083 L 238.702 154.159 L 238.467 155.233 L 238.227 156.307 L 237.979 157.379 L 237.746 158.454 L 237.511 159.528 L 237.223 160.590 L 236.888 161.638 L 236.448 162.646 L 235.846 163.567 L 235.115 164.388 L 234.339 165.168 L 233.574 165.958 L 232.910 166.835 L 232.186 167.663 L 231.407 168.440 L 230.577 169.162 L 229.695 169.820 L 228.843 170.515 L 228.043 171.270 L 227.237 172.019 L 226.384 172.713 L 225.435 173.269 L 224.394 173.626 L 223.314 173.836 L 222.233 174.035 L 221.160 174.277 L 220.119 174.634 L 219.156 175.166 L 218.940 176.245 L 220.023 176.439 L 221.113 176.584 L 222.212 176.629 L 223.303 176.483 L 224.361 176.183 L 225.375 175.756 L 226.343 175.235 L 227.292 174.679 L 228.264 174.163 L 229.303 173.801 L 230.388 173.621 L 231.405 173.201 L 232.360 172.656 L 233.264 172.029 L 234.133 171.355 L 234.967 170.638 L 235.755 169.870 L 236.494 169.055 L 237.194 168.207 L 237.852 167.325 L 238.438 166.394 L 238.962 165.427 L 239.455 164.444 L 240.018 163.498 L 240.621 162.579 L 241.215 161.653 L 241.756 160.695 L 242.212 159.694 L 242.549 158.647 L 242.760 157.567 L 242.845 156.471 L 242.843 155.371 L 242.835 154.271 L 242.821 153.171 L 242.798 152.071 L 242.775 150.971 L 242.758 149.871 L 242.748 148.771 L 242.746 147.671 L 242.753 146.571 L 242.767 145.471 L 242.788 144.372 L 242.815 143.272 L 242.835 142.172 L 242.846 141.072 L 242.850 139.972 L 242.827 138.873 L 242.675 137.783 L 242.403 136.717 L 242.016 135.688 L 241.509 134.712 L 240.927 133.778 L 240.303 132.872 L 239.673 131.970 L 239.086 131.040 L 238.533 130.089 L 237.955 129.153 L 237.322 128.254 L 236.633 127.396 L 235.909 126.568 L 235.149 125.773 L 234.351 125.016 L 233.518 124.297 L 232.658 123.611 L 231.769 122.964 L 230.843 122.370 L 229.899 121.805 L 228.959 121.235 L 228.043 120.625 L 227.136 120.003 L 226.213 119.404 L 225.255 118.864 L 224.242 118.435 L 223.192 118.105 L 222.119 117.864 L 221.031 117.704 L 219.934 117.618 L 218.836 117.557 L 217.737 117.502 L 216.638 117.452 L 215.539 117.411 L 214.440 117.377 L 213.340 117.353 L 212.240 117.340 L 211.140 117.339 L 210.040 117.350 L 208.940 117.372 L 207.841 117.405 L 206.742 117.447 L 205.643 117.497 L 204.544 117.554 L 203.446 117.617 L 202.349 117.691 L 201.259 117.840 L 200.182 118.063 L 199.124 118.365 L 198.094 118.753 L 197.109 119.241 L 196.179 119.828 L 195.288 120.473 L 194.404 121.128 L 193.492 121.744 L 192.565 122.336 L 191.642 122.935 L 190.742 123.567 L 189.880 124.250 L 189.043 124.964 L 188.232 125.707 L 187.450 126.481 L 186.698 127.284 L 185.972 128.110 L 185.292 128.974 L 184.651 129.868 L 184.027 130.774 L 183.390 131.671 L 182.717 132.541 L 182.029 133.399 L 181.385 134.291 L 180.839 135.246 L 180.400 136.255 L 180.058 137.300 L 179.791 138.367 L 179.589 139.448 L 179.443 140.539 L 179.331 141.633 L 179.227 142.728 L 179.130 143.824 L 179.044 144.920 L 178.971 146.018 L 178.919 147.117 L 178.890 148.216 L 178.884 149.316 L 178.901 150.416 L 178.943 151.515 L 179.006 152.614 L 179.090 153.710 L 179.185 154.806 L 179.289 155.901 L 179.401 156.996 L 179.525 158.089 L 179.700 159.175 L 179.930 160.250 L 180.222 161.311 L 180.589 162.348 L 181.049 163.347 L 181.610 164.293 L 182.263 165.178 L 182.984 166.009 L 183.660 166.877 L 184.305 167.768 L 184.941 168.665 L 185.593 169.551 L 186.285 170.407 L 187.019 171.226 L 187.783 172.018 L 188.571 172.785 L 189.383 173.527 L 190.219 174.242 L 191.090 174.913 L 191.992 175.543 L 192.906 176.155 L 193.817 176.772 L 194.709 177.415 L 195.571 178.099 L 196.464 178.741 L 197.416 179.292 L 198.419 179.744 L 199.458 180.103 L 200.521 180.389 M 217.464 125.671 L 218.507 126.022 L 219.531 126.424 L 220.534 126.875 L 221.532 127.338 L 222.529 127.803 L 223.522 128.276 L 224.500 128.780 L 225.447 129.340 L 226.354 129.962 L 227.220 130.640 L 228.047 131.365 L 228.874 132.090 L 229.668 132.852 L 230.426 133.649 L 231.140 134.486 L 231.799 135.367 L 232.395 136.291 L 232.928 137.253 L 233.427 138.234 L 233.912 139.221 L 234.397 140.208 L 234.874 141.199 L 235.302 142.212 L 235.675 143.247 L 235.993 144.300 L 236.259 145.368 L 236.445 146.452 L 236.557 147.546 L 236.605 148.645 L 236.599 149.745 L 236.536 150.843 L 236.411 151.936 L 236.217 153.019 L 235.958 154.088 L 235.649 155.144 L 235.285 156.182 L 234.865 157.198 L 234.408 158.199 L 233.941 159.195 L 233.473 160.190 L 233.009 161.188 L 232.511 162.169 L 231.945 163.112 M 229.769 164.075 L 228.979 164.841 L 228.156 165.571 L 227.333 166.300 L 226.471 166.984 L 225.568 167.613 L 224.625 168.179 L 223.649 168.687 L 222.657 169.161 L 221.659 169.624 L 220.661 170.087 L 219.660 170.542 L 218.638 170.950 L 217.597 171.306 L 216.541 171.611 L 215.471 171.868 L 214.386 172.051 L 213.292 172.166 L 212.194 172.221 L 211.094 172.223 L 209.995 172.174 L 208.900 172.070 L 207.812 171.904 L 206.738 171.669 L 205.674 171.390 L 204.624 171.062 L 203.592 170.681 L 202.580 170.249 L 201.573 169.806 L 200.568 169.359 L 199.562 168.914 L 198.561 168.458" fill="none" stroke="#EC008C" stroke-width="1" vector-effect="non-scaling-stroke"/><path d="M 218.378 180.604 L 219.473 180.497 L 220.567 180.384 L 221.656 180.234 L 222.738 180.036 L 223.809 179.782 L 224.861 179.461 L 225.881 179.051 L 226.856 178.540 L 227.772 177.932 L 228.645 177.262 L 229.528 176.606 L 230.437 175.987 L 231.357 175.384 L 232.269 174.769 L 233.158 174.120 L 234.008 173.423 L 234.835 172.698 L 235.637 171.944 L 236.409 171.161 L 237.154 170.352 L 237.870 169.516 L 238.536 168.641 L 239.168 167.741 L 239.792 166.835 L 240.438 165.944 L 241.127 165.087 L 241.812 164.226 L 242.428 163.315 L 242.945 162.344 L 243.357 161.324 L 243.680 160.272 L 243.922 159.200 L 244.091 158.113 L 244.187 157.017 L 244.267 155.920 L 244.340 154.822 L 244.405 153.724 L 244.462 152.626 L 244.505 151.526 L 244.534 150.427 L 244.546 149.327 L 244.542 148.227 L 244.522 147.127 L 244.487 146.028 L 244.438 144.929 L 244.380 143.830 L 244.313 142.732 L 244.239 141.635 L 244.159 140.538 L 244.031 139.445 L 243.827 138.364 L 243.539 137.303 L 243.158 136.271 L 242.667 135.286 L 242.067 134.364 L 241.421 133.474 L 240.762 132.593 L 240.134 131.690 L 239.534 130.768 L 238.926 129.851 L 238.282 128.959 L 237.586 128.108 L 236.858 127.283 L 236.098 126.488 L 235.302 125.728 L 234.473 125.006 L 233.616 124.316 L 232.731 123.663 L 231.805 123.069 L 230.857 122.511 L 229.909 121.953 L 228.988 121.352 L 228.079 120.733 L 227.156 120.134 L 226.202 119.587 L 225.195 119.143 L 224.149 118.803 L 223.076 118.561 L 221.985 118.419 L 220.886 118.380 L 219.786 118.363 L 218.686 118.351 L 217.586 118.346 L 216.486 118.349 L 215.386 118.351 L 214.286 118.352 L 213.186 118.353 L 212.086 118.353 L 210.986 118.352 L 209.886 118.351 L 208.786 118.349 L 207.686 118.347 L 206.586 118.353 L 205.486 118.364 L 204.387 118.381 L 203.287 118.426 L 202.198 118.575 L 201.127 118.828 L 200.089 119.191 L 199.095 119.663 L 198.139 120.207 L 197.208 120.792 L 196.278 121.379 L 195.321 121.922 L 194.345 122.429 L 193.382 122.962 L 192.453 123.551 L 191.565 124.200 L 190.705 124.886 L 189.881 125.614 L 189.100 126.388 L 188.365 127.208 L 187.670 128.060 L 187.023 128.949 L 186.464 129.897 L 186.004 130.896 L 185.624 131.928 L 185.096 132.894 L 184.509 133.823 L 183.930 134.759 L 183.410 135.728 L 182.990 136.745 L 182.701 137.806 L 182.569 138.898 L 182.627 139.997 L 182.724 141.092 L 182.836 142.187 L 182.971 143.278 L 183.142 144.365 L 183.304 145.453 L 183.439 146.545 L 183.979 147.503 L 183.932 148.602 L 184.217 147.540 L 184.491 146.475 L 184.767 145.410 L 185.046 144.346 L 185.313 143.279 L 185.575 142.210 L 185.838 141.142 L 186.099 140.074 L 186.329 138.998 L 186.587 137.929 L 186.901 136.874 L 187.281 135.842 L 187.792 134.868 L 188.415 133.962 L 189.107 133.106 L 189.825 132.273 L 190.505 131.408 L 191.212 130.566 L 191.974 129.773 L 192.784 129.028 L 193.639 128.336 L 194.543 127.710 L 195.423 127.049 L 196.330 126.426 L 197.281 125.875 L 198.280 125.414 L 199.315 125.042 L 200.359 124.695 L 201.413 124.380 L 202.467 124.064 L 203.532 123.791 L 204.609 123.565 L 205.696 123.394 L 206.784 123.235 L 207.874 123.087 L 208.966 122.951 L 210.061 122.846 L 211.158 122.776 L 212.258 122.744 L 213.358 122.747 L 214.457 122.789 L 215.554 122.870 L 216.647 122.990 L 217.737 123.139 L 218.826 123.299 L 219.912 123.472 L 220.996 123.658 L 222.076 123.866 L 223.147 124.118 L 224.207 124.413 L 225.255 124.745 L 226.286 125.130 L 227.267 125.627 L 228.183 126.236 L 229.045 126.920 L 229.888 127.626 L 230.785 128.263 L 231.641 128.954 L 232.449 129.700 L 233.207 130.497 L 233.907 131.346 L 234.605 132.196 L 235.362 132.994 L 236.106 133.805 L 236.791 134.665 L 237.351 135.612 L 237.739 136.641 L 238.017 137.705 L 238.249 138.781 L 238.497 139.852 L 238.823 140.903 L 239.219 141.929 L 239.730 142.903 L 240.738 143.344 L 240.976 142.270 L 241.140 141.182 L 241.272 140.090 L 241.370 138.995 L 241.260 137.900 L 240.981 136.836 L 240.565 135.818 L 240.043 134.849 L 239.467 133.912 L 238.895 132.973 L 238.416 131.982 L 238.122 130.922 L 237.694 129.909 L 237.140 128.959 L 236.495 128.068 L 235.800 127.215 L 235.065 126.396 L 234.282 125.624 L 233.453 124.901 L 232.590 124.219 L 231.697 123.577 L 230.761 122.998 L 229.791 122.480 L 228.806 121.991 L 227.844 121.456 L 226.910 120.875 L 225.975 120.297 L 225.014 119.761 L 224.015 119.302 L 222.973 118.948 L 221.899 118.709 L 220.807 118.580 L 219.707 118.563 L 218.607 118.559 L 217.507 118.561 L 216.407 118.569 L 215.307 118.584 L 214.207 118.596 L 213.107 118.604 L 212.007 118.608 L 210.907 118.608 L 209.807 118.603 L 208.707 118.593 L 207.607 118.580 L 206.507 118.565 L 205.407 118.558 L 204.307 118.558 L 203.207 118.563 L 202.108 118.609 L 201.020 118.766 L 199.951 119.028 L 198.914 119.394 L 197.922 119.869 L 196.973 120.426 L 196.051 121.026 L 195.136 121.636 L 194.199 122.212 L 193.241 122.752 L 192.291 123.308 L 191.371 123.911 L 190.491 124.571 L 189.639 125.267 L 188.817 125.998 L 188.031 126.768 L 187.282 127.573 L 186.565 128.407 L 185.883 129.270 L 185.255 130.173 L 184.660 131.098 L 184.063 132.022 L 183.425 132.919 L 182.773 133.804 L 182.141 134.705 L 181.569 135.644 L 181.109 136.643 L 180.755 137.685 L 180.496 138.754 L 180.320 139.840 L 180.225 140.936 L 180.155 142.033 L 180.091 143.131 L 180.034 144.230 L 179.986 145.329 L 179.947 146.428 L 179.920 147.528 L 179.908 148.628 L 179.909 149.728 L 179.925 150.828 L 179.955 151.927 L 179.998 153.026 L 180.051 154.125 L 180.112 155.224 L 180.181 156.321 L 180.255 157.419 L 180.373 158.513 L 180.568 159.595 L 180.844 160.660 L 181.205 161.699 L 181.666 162.698 L 182.231 163.641 L 182.893 164.520 L 183.577 165.381 L 184.241 166.259 L 184.868 167.162 L 185.488 168.071 L 186.131 168.964 L 186.818 169.823 L 187.547 170.646 L 188.304 171.445 L 189.090 172.214 L 189.904 172.954 L 190.743 173.665 L 191.611 174.340 L 192.513 174.970 L 193.433 175.573 L 194.352 176.178 L 195.253 176.809 L 196.128 177.476 L 197.012 178.130 L 197.955 178.696 L 198.952 179.161 L 199.990 179.527 L 201.051 179.814 L 202.128 180.039 L 203.215 180.209 L 204.308 180.331 L 205.403 180.436 L 206.499 180.534 L 207.595 180.624 L 208.692 180.705 L 209.790 180.771 M 233.293 134.338 L 233.761 135.333 L 234.205 136.340 L 234.651 137.346 L 235.091 138.354 L 235.516 139.368 L 235.914 140.394 L 236.312 141.419 L 236.644 142.468 L 236.913 143.534 L 237.129 144.613 L 237.294 145.701 L 237.401 146.795 L 237.459 147.894 L 237.478 148.994 L 237.463 150.094 L 237.411 151.192 L 237.316 152.288 L 237.170 153.379 L 236.981 154.462 L 236.745 155.537 L 236.452 156.597 L 236.094 157.637 L 235.702 158.665 L 235.288 159.684 L 234.861 160.698 L 234.430 161.710 L 233.962 162.705 L 233.451 163.679 L 232.897 164.630 L 232.240 165.512 L 231.511 166.336 L 230.744 167.124 L 229.943 167.877 L 229.107 168.592 L 228.228 169.253 L 227.275 169.803 L 226.303 170.320 L 225.310 170.792 L 224.294 171.213 L 223.268 171.609 L 222.236 171.991 L 221.196 172.350 L 220.146 172.677 L 219.081 172.951 L 218.001 173.161 L 216.913 173.322 L 215.820 173.445 L 214.724 173.540 L 213.626 173.607 L 212.527 173.645 L 211.427 173.655 L 210.327 173.637 L 209.228 173.590 L 208.130 173.512 L 207.036 173.405 L 205.943 173.282 L 204.853 173.128 L 203.771 172.930 L 202.702 172.673 L 201.643 172.374 L 200.595 172.040 L 199.556 171.679 L 198.524 171.299 L 197.516 170.858 L 196.544 170.343 L 195.609 169.764 L 194.699 169.147 L 193.804 168.506 L 192.953 167.809 L 192.145 167.063 L 191.381 166.272 L 190.667 165.434 L 190.007 164.554 L 189.337 163.682 L 188.703 162.784 L 188.136 161.841 L 187.664 160.847 L 187.289 159.813 L 186.947 158.768 L 186.650 157.708 L 186.406 156.636 L 186.193 155.557 L 185.993 154.475 L 185.805 153.391 L 185.628 152.305 L 185.469 151.217 M 184.276 155.347 L 183.988 156.408 L 183.699 157.469 L 183.660 158.569 L 183.855 159.651 L 184.226 160.687 L 184.737 161.661 L 185.321 162.593 L 185.873 163.545 L 186.206 164.593" fill="none" stroke="#FFF200" stroke-width="1" vector-effect="non-scaling-stroke"/></svg>