<svg xmlns="http://www.w3.org/2000/svg" viewBox="168.39165325422226 106.73807103595527 83.23747293355405 83.4456860406477" width="83.23747293355405" height="83.4456860406477" shape-rendering="geometricPrecision"><rect x="168.39165325422226" y="106.73807103595527" width="83.23747293355405" height="83.4456860406477" fill="#0b0f14"/><path d="M 243.578 140.816 L 243.416 139.728 L 243.319 138.633 L 243.123 137.550 L 242.792 136.501 L 242.307 135.514 L 241.714 134.587 L 241.140 133.649 L 240.644 132.667 L 240.154 131.683 L 239.561 130.756 L 238.824 129.939 L 237.984 129.229 L 237.071 128.615 L 236.171 127.983 L 235.313 127.294 L 234.506 126.547 L 233.747 125.750 L 233.043 124.906 L 232.386 124.023 L 231.713 123.153 L 230.945 122.365 L 230.067 121.702 L 229.082 121.213 L 228.060 120.808 L 227.029 120.424 L 226.041 119.939 L 225.071 119.422 L 224.073 118.959 L 223.009 118.679 L 221.912 118.601 L 220.812 118.615 L 219.713 118.650 L 218.613 118.685 L 217.518 118.580 L 216.502 118.157 L 215.592 117.540 L 214.710 116.883 L 213.788 116.283 L 212.743 115.939 L 211.646 115.852 L 210.562 116.035 L 209.571 116.512 L 208.722 117.212 L 207.883 117.923 L 206.892 118.400 L 205.810 118.603 L 204.711 118.646 L 203.612 118.610 L 202.512 118.591 L 201.412 118.584 L 200.321 118.721 L 199.275 119.062 L 198.285 119.543 L 197.293 120.018 L 196.258 120.389 L 195.210 120.725 L 194.189 121.133 L 193.231 121.674 L 192.273 122.215 L 191.443 122.936 L 190.736 123.779 L 190.125 124.694 L 189.473 125.580 L 188.757 126.415 L 187.975 127.188 L 187.137 127.901 L 186.237 128.534 L 185.299 129.108 L 184.395 129.734 L 183.596 130.490 L 182.935 131.370 L 182.432 132.348 L 181.984 133.353 L 181.512 134.346 L 180.962 135.299 L 180.416 136.254 L 179.982 137.264 L 179.734 138.336 L 179.639 139.432 L 179.549 140.528 L 179.407 141.619 L 179.135 142.685 L 178.642 143.668 L 177.965 144.535 L 177.293 145.407 L 176.759 146.368 L 176.408 147.411 M 191.975 125.673 L 192.955 125.175 L 193.897 124.605 L 194.859 124.073 L 195.789 123.486 L 196.754 122.958 L 197.816 122.671 L 198.907 122.528 L 200.004 122.455 L 201.104 122.436 L 202.197 122.310 L 203.270 122.067 L 204.305 121.695 L 205.340 121.323 L 206.368 120.932 L 207.397 120.541 L 208.475 120.324 L 209.570 120.218 L 210.669 120.168 L 211.769 120.153 L 212.869 120.165 L 213.968 120.207 L 215.064 120.294 M 181.407 142.187 L 181.983 143.124 L 182.560 144.060 L 182.926 143.023 L 183.415 142.038 L 183.832 141.020 L 184.134 139.962 L 184.299 138.875 L 184.344 137.776 L 184.410 136.678 L 184.552 135.587 L 184.834 134.523 L 185.382 133.570 L 186.032 132.683 L 186.587 131.733 L 187.182 130.807 M 215.597 122.005 L 216.581 122.496 L 217.603 122.903 L 218.669 123.175 L 219.757 123.336 L 220.855 123.397 L 221.955 123.423 L 223.052 123.509 L 224.140 123.667 L 225.195 123.979 L 226.162 124.504 L 227.078 125.113 L 227.981 125.741 L 228.868 126.391 L 229.724 127.082 L 230.555 127.803 L 231.356 128.557 L 232.123 129.345 L 232.862 130.160 L 233.574 130.998 L 234.240 131.874 L 234.892 132.760 L 235.525 133.659 L 236.010 134.647 L 236.323 135.702 L 236.496 136.788 L 236.570 137.885 L 236.623 138.984 L 236.770 140.074 L 237.021 141.145 L 237.426 142.168 L 237.931 143.145 L 238.436 144.122 L 238.895 145.122 L 239.209 146.176 L 239.401 147.259 L 239.485 148.356 L 239.493 149.456 L 239.432 150.554 L 239.287 151.645 L 239.061 152.721 L 238.702 153.761 L 238.224 154.752 L 237.808 155.770 L 237.528 156.834 L 237.364 157.922 L 237.313 159.020 L 237.274 160.120 L 237.165 161.214 L 236.965 162.296 L 236.623 163.342 L 236.073 164.294 L 235.476 165.218 L 234.852 166.124 L 234.239 167.037 L 233.659 167.972 L 233.055 168.891 L 232.392 169.769 L 231.388 170.218 L 230.447 170.787 L 229.487 171.325 L 228.555 171.909 L 227.632 172.508 L 226.693 173.080 L 225.725 173.603 L 224.697 173.994 L 223.625 174.241 L 222.533 174.377 L 221.435 174.446 L 220.336 174.463 L 219.242 174.585 L 218.166 174.813 L 217.125 175.169 L 216.113 175.599 L 215.074 175.960 L 213.998 176.189 L 212.908 176.336 L 211.810 176.412 L 210.711 176.434 L 209.611 176.411 L 208.513 176.338 L 207.422 176.201 L 206.345 175.975 L 205.314 175.593 L 204.290 175.190 L 203.252 174.827 L 202.177 174.592 L 201.084 174.471 L 199.984 174.456 L 198.886 174.383 L 197.796 174.241 L 196.732 173.960 L 195.755 173.454 L 194.811 172.890 L 193.850 172.354 L 192.911 171.782 L 191.927 171.290 L 190.847 171.083 L 190.418 172.096 L 191.025 173.013 L 191.600 173.950 L 192.298 174.801 L 193.132 175.518 L 194.082 176.073 L 195.092 176.509 L 196.116 176.910 L 197.119 177.362 L 198.091 177.877 L 199.074 178.369 L 200.117 178.721 L 201.203 178.895 L 202.302 178.937 L 203.400 179.003 L 204.496 179.104 L 205.568 179.348 L 206.566 179.810 L 207.469 180.438 L 208.352 181.094 L 209.303 181.648 L 210.348 181.993 L 211.439 182.130 L 212.539 182.109 L 213.625 181.934 L 214.667 181.581 L 215.651 181.090 L 216.563 180.475 L 217.448 179.822 L 218.442 179.352 L 219.516 179.110 L 220.610 178.999 L 221.708 178.932 L 222.805 178.858 L 223.882 178.635 L 224.915 178.255 L 225.887 177.740 L 226.833 177.179 L 227.811 176.676 L 228.818 176.232 L 229.812 175.762 L 230.730 175.156 L 231.545 174.417 L 232.267 173.587 L 232.940 172.717 L 233.634 171.863 L 234.374 171.049 L 235.159 170.279 L 235.988 169.556 L 236.859 168.884 L 237.760 168.254 L 238.631 167.581 L 239.421 166.816 L 240.100 165.950 L 240.632 164.988 L 241.134 164.009 L 241.686 163.057 L 242.311 162.152 L 242.848 161.192 L 243.240 160.164 L 243.500 159.095 M 176.993 150.370 L 177.559 151.313 L 178.243 152.175 L 178.903 153.054 L 179.397 154.038 L 179.658 155.106 L 179.769 156.201 L 179.840 157.298 L 179.886 158.397 L 180.098 159.477 L 180.504 160.499 L 181.034 161.463 L 181.572 162.422 L 182.028 163.424 L 182.456 164.437 L 182.938 165.425 L 183.569 166.326 L 184.351 167.100 L 185.250 167.734 L 186.203 168.283 L 187.123 168.886 L 187.993 168.213 L 187.720 167.147 L 187.178 166.190 L 186.584 165.264 L 186.029 164.314 L 185.376 163.429 L 184.824 162.478 L 184.540 161.415 L 184.398 160.324 L 184.331 159.226 L 184.286 158.127 L 184.121 157.039 L 183.818 155.982 L 183.399 154.965 L 182.899 153.985 L 182.525 152.951 L 181.976 153.904 L 181.428 154.858 L 181.302 155.950 L 181.164 157.042 L 181.076 158.138 L 181.029 159.237 L 181.202 160.323 L 181.604 161.347 L 182.117 162.320 L 182.574 163.321 L 182.819 164.394 L 183.174 165.435 L 183.650 166.426 L 184.301 167.313 L 185.096 168.073 L 185.983 168.723 L 186.899 169.333 L 187.781 169.990 L 188.614 170.709" fill="none" stroke="#00AEEF" stroke-width="1" vector-effect="non-scaling-stroke"/><path d="M 243.629 140.917 L 243.457 139.830 L 243.353 138.735 L 243.168 137.651 L 242.853 136.597 L 242.385 135.601 L 241.793 134.674 L 241.209 133.742 L 240.706 132.764 L 240.218 131.778 L 239.641 130.841 L 238.918 130.013 L 238.087 129.292 L 237.180 128.669 L 236.277 128.042 L 235.415 127.358 L 234.603 126.616 L 233.838 125.826 L 233.127 124.986 L 232.465 124.108 L 231.797 123.234 L 231.040 122.436 L 230.174 121.757 L 229.198 121.249 L 228.179 120.835 L 227.150 120.448 L 226.160 119.969 L 225.191 119.448 L 224.198 118.975 L 223.140 118.673 L 222.045 118.569 L 220.945 118.577 L 219.845 118.599 L 218.745 118.627 L 217.652 118.510 L 216.634 118.092 L 215.722 117.477 L 214.839 116.821 L 213.916 116.223 L 212.876 115.863 L 211.782 115.751 L 210.691 115.890 L 209.680 116.323 L 208.801 116.985 L 207.951 117.683 L 207.904 118.782 L 206.820 118.968 L 207.884 119.246 L 206.789 119.353 L 205.689 119.335 L 204.592 119.255 L 203.498 119.146 L 202.400 119.075 L 201.301 119.035 L 200.212 119.195 L 199.175 119.562 L 198.187 120.044 L 197.160 120.438 L 196.086 120.680 L 195.027 120.976 L 194.011 121.397 L 193.078 121.980 L 192.299 122.757 L 191.769 123.721 L 192.127 124.761 L 193.150 124.356 L 194.133 123.862 L 195.116 123.369 L 196.024 122.749 L 196.449 121.734 L 195.538 121.117 L 194.442 121.215 L 193.402 121.573 L 192.423 122.075 L 191.570 122.769 L 190.839 123.591 L 190.214 124.497 L 189.568 125.387 L 188.863 126.231 L 188.091 127.015 L 187.266 127.743 L 186.379 128.393 L 185.449 128.980 L 184.531 129.587 L 183.711 130.320 L 183.021 131.176 L 182.497 132.144 L 182.041 133.145 L 181.574 134.141 L 181.029 135.096 L 180.473 136.045 L 180.007 137.042 L 179.725 138.105 L 179.598 139.198 L 179.511 140.294 L 179.373 141.385 L 179.131 142.459 L 178.673 143.459 L 178.013 144.338 L 177.330 145.201 L 176.778 146.152 L 176.392 147.182 M 179.094 159.244 L 179.372 160.309 L 179.786 161.328 L 180.344 162.276 L 180.966 163.183 L 181.506 164.142 L 182.005 165.122 L 182.556 166.074 L 183.256 166.923 L 184.060 167.673 L 184.939 168.335 L 185.839 168.967 L 186.705 169.646 L 187.527 170.376 L 188.306 171.153 L 189.038 171.974 L 189.725 172.833 L 190.401 173.701 L 191.135 174.520 L 191.965 175.242 L 192.900 175.821 L 193.899 176.282 L 194.906 176.726 L 195.877 177.241 L 196.825 177.800 L 197.806 178.297 L 198.847 178.652 L 199.929 178.851 L 201.028 178.897 L 202.126 178.963 L 203.221 179.072 L 204.288 179.337 L 205.270 179.833 L 206.141 180.505 L 207.059 181.110 L 208.049 181.591 L 209.098 181.922 L 210.187 182.075 L 211.287 182.075 L 212.374 181.903 L 213.401 181.510 L 214.331 180.922 L 215.214 180.266 L 216.129 179.656 L 217.148 179.242 L 218.229 179.038 L 219.326 178.951 L 220.424 178.894 L 221.523 178.852 L 222.605 178.651 L 223.635 178.265 L 224.614 177.765 L 225.590 177.256 L 226.603 176.829 L 227.628 176.429 L 228.633 175.982 L 229.565 175.397 L 230.376 174.654 L 231.047 173.783 L 231.619 172.843 L 232.236 171.932 L 232.946 171.092 L 232.012 170.510 L 230.976 170.880 L 229.987 171.362 L 229.060 171.954 L 228.116 172.520 L 227.149 173.043 L 226.156 173.516 L 225.097 173.815 L 224.009 173.973 L 222.912 174.058 L 221.812 174.083 L 220.715 174.164 L 219.631 174.349 L 218.574 174.654 L 217.553 175.063 L 216.536 175.482 L 215.469 175.749 L 214.384 175.933 L 213.290 176.047 L 212.191 176.094 L 211.091 176.085 L 209.993 176.015 L 208.904 175.866 L 207.827 175.642 L 206.794 175.263 L 205.798 174.797 L 204.769 174.408 L 203.698 174.156 L 202.608 174.006 L 201.509 173.959 L 200.410 173.920 L 199.315 173.818 L 198.230 173.636 L 197.170 173.340 L 196.198 172.826 L 195.270 172.234 L 194.358 171.620 L 193.455 170.991 L 192.569 170.340 L 191.711 169.652 L 190.888 168.921 L 190.136 168.118 L 189.420 167.283 L 188.736 166.422 L 188.078 165.540 L 187.435 164.648 L 186.814 163.740 L 186.310 162.762 L 186.005 161.705 L 185.847 160.617 L 185.782 159.519 L 185.780 158.419 L 185.672 157.324 L 185.458 156.245 L 185.102 155.204 L 184.630 154.211 L 184.136 153.228 L 183.779 152.187 L 183.534 151.115 L 183.407 150.022 L 183.375 148.923 L 183.430 147.824 L 183.602 146.738 L 183.918 145.684 L 184.357 144.675 L 184.896 143.717 L 185.370 142.724 L 185.702 141.675 L 185.897 140.593 L 186.002 139.498 L 186.053 138.399 L 186.213 137.311 L 186.540 136.260 L 187.031 135.276 L 187.644 134.363 L 188.315 133.491 L 189.011 132.640 L 189.746 131.821 L 190.514 131.033 L 191.295 130.259 L 192.089 129.497 L 192.893 128.746 L 193.718 128.019 L 194.576 127.331 L 195.459 126.675 L 196.365 126.051 L 197.323 125.510 L 198.336 125.083 L 199.400 124.802 L 200.489 124.647 L 201.583 124.532 L 202.671 124.373 L 203.747 124.144 L 204.777 123.758 L 205.807 123.371 L 206.787 122.871 L 207.774 122.386 L 208.805 122.003 L 209.872 121.733 L 210.964 121.606 L 212.064 121.582 L 213.162 121.644 L 214.250 121.808 L 215.315 122.082 L 216.346 122.468 L 217.325 122.969 L 218.334 123.406 L 219.388 123.720 L 220.472 123.909 L 221.567 124.009 L 222.667 124.042 L 223.762 124.150 L 224.841 124.365 L 225.881 124.720 L 226.853 125.236 L 227.765 125.852 L 228.665 126.483 L 229.548 127.139 L 230.399 127.836 L 231.228 128.560 L 232.030 129.313 L 232.801 130.097 L 233.542 130.910 L 234.254 131.748 L 234.919 132.625 L 235.570 133.512 L 236.201 134.413 L 236.686 135.400 L 236.942 136.470 L 237.077 137.561 L 237.138 138.660 L 237.143 139.760 L 237.262 140.853 L 237.487 141.930 L 237.861 142.964 L 238.352 143.949 L 238.834 144.938 L 239.172 145.984 L 239.385 147.064 L 239.484 148.159 L 239.505 149.259 L 239.457 150.358 L 239.329 151.450 L 239.123 152.531 L 238.795 153.581 L 238.316 154.571 L 237.882 155.582 L 237.573 156.638 L 237.388 157.722 L 237.316 158.820 L 237.289 159.919 L 237.194 161.015 L 237.015 162.101 L 236.701 163.155 L 236.199 164.134 L 235.611 165.063 L 234.992 165.973 L 234.368 166.879 L 233.796 167.818 L 233.205 168.746 L 232.583 169.653 L 231.555 170.045 L 230.627 170.636 L 229.681 171.197 L 228.741 171.768 L 227.821 172.372 L 226.886 172.951 L 225.926 173.488 L 224.907 173.901 L 223.842 174.176 L 222.752 174.326 L 221.655 174.407 L 220.555 174.429 L 219.460 174.529 L 218.379 174.735 L 217.330 175.066 L 216.314 175.488 L 215.294 175.899 L 214.223 176.149 L 213.135 176.310 L 212.038 176.400 L 210.939 176.431 L 209.839 176.418 L 208.740 176.357 L 207.648 176.231 L 206.566 176.029 L 205.522 175.685 L 204.492 175.299 L 203.460 174.916 L 202.392 174.655 L 201.301 174.512 L 200.202 174.476 L 199.103 174.415 L 198.011 174.287 L 196.938 174.044 L 195.941 173.578 L 195.030 172.962 L 194.067 172.432 L 193.125 171.863 L 192.168 171.321 L 191.123 170.977 L 190.040 171.172 L 190.681 172.067 L 191.230 173.020 L 191.789 173.967 L 192.496 174.810 L 193.349 175.504 L 194.322 176.017 L 195.345 176.422 L 196.385 176.781 L 197.400 177.205 L 198.381 177.702 L 199.374 178.175 L 200.427 178.494 L 201.520 178.615 L 202.620 178.631 L 203.720 178.652 L 204.819 178.690 L 205.905 178.867 L 206.928 179.270 L 207.851 179.870 L 208.728 180.533 L 209.630 181.162 L 210.668 181.527 L 211.762 181.644 L 212.858 181.556 L 213.918 181.262 L 214.893 180.752 L 215.792 180.119 L 216.679 179.468 L 217.643 178.938 L 218.711 178.676 L 219.810 178.620 L 220.909 178.600 L 222.009 178.586 L 223.104 178.482 L 224.167 178.197 L 225.165 177.734 L 226.129 177.205 L 227.105 176.697 L 228.123 176.280 L 229.139 175.859 L 230.121 175.364 L 230.997 174.698 L 231.766 173.912 L 232.446 173.047 L 233.108 172.168 L 233.816 171.327 L 234.575 170.531 L 235.382 169.783 L 236.236 169.090 L 237.132 168.452 L 238.037 167.827 L 238.877 167.116 L 239.616 166.301 L 240.214 165.379 L 240.710 164.397 L 241.213 163.418 L 241.794 162.484 L 242.396 161.564 L 242.876 160.574 L 243.208 159.525 L 243.409 158.444 L 243.517 157.349" fill="none" stroke="#EC008C" stroke-width="1" vector-effect="non-scaling-stroke"/><path d="M 243.537 139.729 L 243.431 138.634 L 243.237 137.551 L 242.918 136.498 L 242.450 135.503 L 241.849 134.582 L 241.260 133.653 L 240.752 132.677 L 240.259 131.694 L 239.672 130.763 L 238.942 129.940 L 238.109 129.222 L 237.207 128.592 L 236.309 127.958 L 235.451 127.269 L 234.641 126.524 L 233.878 125.733 L 233.165 124.894 L 232.500 124.018 L 231.824 123.151 L 231.062 122.357 L 230.196 121.680 L 229.221 121.170 L 228.207 120.744 L 227.188 120.328 L 226.211 119.824 L 225.248 119.292 L 224.254 118.820 L 223.196 118.520 L 222.103 118.400 L 221.003 118.384 L 219.903 118.362 L 218.804 118.312 L 217.733 118.063 L 216.761 117.548 L 215.873 116.898 L 214.976 116.261 L 214.080 115.624 L 213.099 115.127 L 212.037 114.840 L 210.941 114.738 L 209.842 114.779 M 203.716 117.164 L 202.630 117.339 L 201.535 117.449 L 200.444 117.589 L 199.373 117.841 L 198.348 118.238 L 197.387 118.774 L 196.442 119.337 L 195.461 119.835 L 194.460 120.292 L 193.474 120.778 L 192.577 121.416 L 191.785 122.178 L 191.097 123.037 L 190.465 123.937 L 189.781 124.799 L 189.036 125.608 L 188.241 126.368 L 187.397 127.074 L 186.511 127.726 L 185.603 128.347 L 184.743 129.033 L 183.981 129.826 L 183.369 130.740 L 182.903 131.736 L 182.501 132.760 L 182.047 133.762 L 181.506 134.720 L 180.986 135.689 L 180.606 136.721 L 180.444 137.809 L 180.459 138.909 L 180.496 140.009 L 180.574 141.106 L 180.562 142.206 L 180.258 143.263 L 179.657 144.184 L 178.969 145.043 L 178.304 145.919 L 177.873 146.931 L 177.741 148.023 L 177.924 149.107 L 178.424 150.087 L 179.169 150.897 L 179.985 151.634 L 180.429 152.641 L 180.570 153.732 L 180.573 154.832 L 180.512 155.930 L 180.478 157.029 L 180.464 158.129 L 180.630 159.217 L 181.016 160.247 L 181.526 161.221 L 182.006 162.211 L 182.357 163.253 L 182.719 164.292 L 183.175 165.293 L 183.793 166.203 L 184.585 166.966 L 185.522 167.543 L 186.505 168.037 L 187.517 168.468 L 188.458 169.037 L 189.513 169.348 L 188.959 168.398 L 188.407 167.446 L 187.837 166.506 L 187.211 165.601 L 186.608 164.681 L 186.046 163.735 L 185.631 162.717 L 185.374 161.647 L 185.233 160.556 L 185.167 159.458 L 185.161 158.358 L 185.040 157.265 L 184.809 156.189 L 184.438 155.154 L 183.977 154.155 L 183.557 153.139 L 183.296 152.070 L 183.118 150.985 L 183.027 149.888 L 183.010 148.788 L 183.062 147.690 L 183.198 146.598 L 183.449 145.527 L 183.842 144.500 L 184.368 143.534 L 184.815 142.529 L 185.124 141.473 L 185.306 140.388 L 185.377 139.290 L 185.402 138.191 L 185.493 137.094 L 185.664 136.008 L 186.011 134.964 L 186.575 134.020 L 187.214 133.124 L 187.871 132.241 L 188.554 131.380 L 189.277 130.550 L 190.028 129.747 L 190.811 128.974 L 191.626 128.235 L 192.465 127.524 L 193.326 126.840 L 194.222 126.201 L 195.127 125.577 L 196.033 124.952 L 196.956 124.353 L 197.966 123.919 L 199.042 123.688 L 200.136 123.574 L 201.235 123.526 L 202.335 123.510 L 203.428 123.392 L 204.507 123.177 L 205.548 122.822 L 206.545 122.356 L 207.540 121.889 L 208.588 121.552 L 209.666 121.334 L 210.761 121.228 L 211.860 121.198 L 212.960 121.232 L 214.055 121.338 L 215.139 121.523 L 216.201 121.809 L 217.211 122.245 L 218.220 122.683 L 219.267 123.021 L 220.347 123.230 L 221.441 123.340 L 222.541 123.346 L 223.640 123.403 L 224.733 123.529 L 225.810 123.750 L 226.852 124.103 L 227.809 124.646 L 228.743 125.226 L 229.662 125.830 L 230.599 126.407 L 231.538 126.980 M 229.149 128.075 L 229.951 128.827 L 230.742 129.592 L 231.520 130.369 L 232.282 131.163 L 233.007 131.990 L 233.696 132.848 L 234.363 133.722 L 234.955 134.649 L 235.548 135.576 L 236.012 136.573 L 236.305 137.634 L 236.443 138.725 L 236.494 139.824 L 236.629 140.915 L 236.850 141.993 L 237.229 143.026 L 237.736 144.002 L 238.255 144.972 L 238.666 145.992 L 238.958 147.053 L 239.097 148.144 L 239.126 149.243 L 239.066 150.342 L 238.899 151.429 L 238.617 152.492 L 238.212 153.515 L 237.691 154.484 L 237.245 155.489 L 236.933 156.544 L 236.749 157.629 L 236.670 158.726 L 236.636 159.825 L 236.524 160.919 L 236.294 161.995 L 235.900 163.022 L 235.323 163.959 L 234.684 164.854 L 234.029 165.738 L 233.347 166.601 L 232.631 167.436 L 231.887 168.246 L 231.107 169.022 L 230.282 169.749 L 229.427 170.441 L 228.546 171.101 L 227.644 171.730 L 226.731 172.343 L 225.801 172.931 L 224.781 173.343 L 223.704 173.564 L 222.611 173.693 L 221.513 173.756 L 220.413 173.761 L 219.318 173.865 L 218.237 174.068 L 217.188 174.401 L 216.183 174.846 L 215.187 175.313 L 214.134 175.632 L 213.051 175.827 L 211.957 175.936 L 210.857 175.974 L 209.758 175.952 L 208.661 175.864 L 207.574 175.700 L 206.498 175.470 L 205.465 175.092 L 204.454 174.657 L 203.415 174.298 L 202.339 174.070 L 201.246 173.944 L 200.146 173.922 L 199.047 173.868 L 197.954 173.748 L 196.876 173.530 L 195.839 173.161 L 194.865 172.650 L 193.918 172.090 L 192.990 171.501 L 192.040 170.946 M 227.527 178.038 L 228.508 177.541 L 229.484 177.032 L 230.389 176.408 L 231.192 175.656 L 231.929 174.839 L 232.630 173.992 L 233.341 173.152 L 234.089 172.345 L 234.874 171.575 L 235.659 170.804 L 236.480 170.072 L 237.334 169.379 L 238.205 168.708 L 239.056 168.011 L 239.857 167.256 L 240.549 166.401 L 241.112 165.456 L 241.625 164.483 M 188.837 171.816 L 189.536 172.666 L 190.209 173.536 L 190.925 174.371 L 191.731 175.119 L 192.639 175.740 L 193.631 176.216 L 194.636 176.663 L 195.616 177.162 L 196.560 177.726 L 197.528 178.249 L 198.555 178.642 L 199.630 178.880 L 200.726 178.972 L 201.823 179.042 L 202.917 179.157 L 203.993 179.389 L 204.993 179.847 L 205.885 180.490 L 206.796 181.106 L 207.779 181.600 L 208.818 181.963 L 209.902 182.149 L 211.001 182.184 L 212.095 182.067 L 213.150 181.755 L 214.116 181.229 L 215.000 180.575 L 215.884 179.920 L 216.780 179.281 L 217.769 178.800 L 218.850 178.595 L 219.949 178.573 L 221.049 178.562 L 222.149 178.553 L 223.242 178.426 L 224.297 178.115" fill="none" stroke="#FFF200" stroke-width="1" vector-effect="non-scaling-stroke"/></svg>