<svg xmlns="http://www.w3.org/2000/svg" viewBox="175.53110908465453 112.10370786740063 75.28010217050993 77.01159073381396" width="75.28010217050993" height="77.01159073381396" shape-rendering="geometricPrecision"><rect x="175.53110908465453" y="112.10370786740063" width="75.28010217050993" height="77.01159073381396" fill="#0b0f14"/><path d="M 217.546 181.115 L 218.643 181.030 L 219.739 180.939 L 220.832 180.817 L 221.920 180.653 L 222.999 180.442 L 224.067 180.176 L 225.105 179.812 L 226.095 179.333 L 227.020 178.737 L 227.876 178.047 L 228.750 177.379 L 229.640 176.733 L 230.536 176.095 L 231.424 175.446 L 232.290 174.767 L 233.123 174.049 L 233.929 173.300 L 234.703 172.519 L 235.446 171.707 L 236.156 170.867 L 236.826 169.994 L 237.475 169.107 L 238.123 168.218 L 238.787 167.341 L 239.481 166.487 L 240.141 165.607 L 240.691 164.655 L 241.121 163.642 L 241.434 162.588 L 241.671 161.513 L 241.843 160.427 L 241.952 159.332 L 242.009 158.234 L 242.061 157.135 L 242.108 156.036 L 242.148 154.937 L 242.181 153.837 L 242.204 152.738 L 242.215 151.638 L 242.216 150.538 L 242.206 149.438 L 242.184 148.338 L 242.153 147.238 L 242.115 146.139 L 242.071 145.040 L 242.021 143.941 L 241.968 142.842 L 241.869 141.747 L 241.705 140.659 L 241.473 139.584 L 241.164 138.528 L 240.726 137.519 L 240.156 136.578 L 239.513 135.686 L 238.842 134.814 L 238.199 133.921 L 237.570 133.019 L 236.932 132.123 L 236.264 131.249 L 235.561 130.403 L 234.822 129.588 L 234.043 128.812 L 233.225 128.077 L 232.372 127.381 L 231.494 126.719 L 230.589 126.093 L 229.673 125.484 L 228.763 124.866 L 227.875 124.217 L 226.973 123.588 L 226.031 123.019 L 225.030 122.564 L 223.977 122.245 L 222.902 122.014 L 221.811 121.868 L 220.713 121.814 L 219.613 121.819 L 218.513 121.827 L 217.413 121.836 L 216.313 121.847 L 215.213 121.856 L 214.113 121.862 L 213.013 121.865 L 211.913 121.865 L 210.813 121.862 L 209.713 121.855 L 208.613 121.846 L 207.513 121.836 L 206.413 121.827 L 205.313 121.820 L 204.213 121.815 L 203.115 121.882 L 202.026 122.039 L 200.955 122.288 L 199.911 122.636 L 198.923 123.118 L 197.980 123.685 L 197.065 124.295 L 196.146 124.900 L 195.207 125.474 L 194.275 126.057 L 193.366 126.677 L 192.487 127.338 L 191.635 128.034 L 190.828 128.781 L 190.074 129.582 L 189.375 130.432 L 188.710 131.308 L 188.095 132.220 L 187.540 133.170 L 187.021 134.140 L 186.442 135.075 L 185.844 135.998 L 185.292 136.949 L 184.840 137.952 L 184.511 139.002 L 184.295 140.081 L 184.209 141.177 L 184.276 142.275 L 184.380 143.370 L 184.489 144.465 L 184.603 145.559 L 184.724 146.652 L 185.807 146.845 L 186.276 145.850 L 186.623 144.806 L 186.930 143.750 L 187.219 142.689 L 187.448 141.613 L 187.650 140.531 L 187.860 139.451 L 188.148 138.390 L 187.287 137.705 L 187.882 136.779 L 188.681 136.024 L 189.510 135.301 L 190.334 134.572 L 191.049 133.736 L 191.718 132.863 L 192.453 132.045 L 193.267 131.305 L 194.158 130.659 L 195.029 129.987 L 195.801 129.204 L 196.539 128.388 L 197.342 127.636 L 196.614 126.812 L 195.514 126.845 L 194.515 127.306 L 193.585 127.894 L 192.691 128.534 L 191.819 129.204 L 191.061 130.001 L 190.413 130.890 L 189.792 131.798 L 189.277 132.770 L 190.350 133.011 L 191.121 132.227 L 191.846 131.400 L 192.571 130.572 L 193.409 129.860 L 194.213 129.109 L 193.711 128.131 L 192.768 128.697 L 191.868 129.330 L 190.984 129.985 L 190.228 130.784 L 189.567 131.663 L 188.931 132.560 L 188.364 133.503 L 187.980 134.534 L 188.320 135.580 L 189.418 135.509 L 190.208 134.744 L 191.022 134.004 L 191.736 133.167 L 192.395 132.287 L 193.117 131.456 L 193.916 130.701 L 194.793 130.037 L 195.665 129.367 L 196.466 128.612 L 197.237 127.828 L 198.049 127.085 L 198.962 126.472 L 200.028 126.200 L 201.120 126.070 L 202.208 125.906 L 203.282 125.670 L 204.308 125.272 L 205.011 124.426 L 203.965 124.084 L 202.884 123.880 L 201.784 123.898 L 200.699 124.075 L 199.642 124.382 L 198.629 124.811 L 197.666 125.341 L 196.715 125.895 L 195.708 126.337 L 194.644 126.616 L 193.658 127.103 L 192.731 127.696 L 191.843 128.345 L 190.979 129.026 L 190.171 129.772 L 189.425 130.580 L 188.737 131.439 L 188.078 132.319 L 187.471 133.237 L 186.917 134.187 L 186.385 135.150 L 185.800 136.081 L 185.204 137.006 L 184.656 137.960 L 184.208 138.965 L 183.879 140.014 L 183.659 141.092 L 183.552 142.187 L 183.561 143.287 L 183.608 144.386 L 183.656 145.485 L 183.705 146.584 L 183.754 147.682 L 183.791 148.782 L 183.815 149.882 L 183.824 150.982 L 183.816 152.082 L 183.793 153.181 L 183.755 154.281 L 183.705 155.379 L 183.653 156.478 L 183.601 157.577 L 183.551 158.676 L 183.531 159.776 L 183.633 160.871 L 183.844 161.951 L 184.158 163.005 L 184.602 164.011 L 185.153 164.963 L 185.768 165.875 L 186.401 166.775 L 186.999 167.698 L 187.591 168.626 L 188.210 169.535 L 188.873 170.412 L 189.568 171.265 L 190.308 172.079 L 191.095 172.847 L 191.924 173.571 L 192.787 174.253 L 193.675 174.902 L 194.586 175.518 L 195.506 176.121 L 196.418 176.737 L 197.313 177.376 L 198.227 177.987 L 199.181 178.535 L 200.197 178.957 L 201.256 179.253 L 202.335 179.468 L 203.426 179.607 L 204.524 179.672 L 205.624 179.700 L 206.724 179.725 L 207.823 179.746 L 208.923 179.764 L 210.023 179.777 L 211.123 179.787 L 212.223 179.791 L 213.323 179.790 L 214.423 179.783 L 215.523 179.772 L 216.623 179.756 L 217.723 179.736 L 218.823 179.712 L 219.922 179.685 L 221.022 179.655 L 222.117 179.557 L 223.204 179.386 L 224.277 179.143 L 225.327 178.815 L 226.329 178.361 L 227.266 177.786 L 228.152 177.133 L 229.027 176.466 L 229.923 175.828 L 230.827 175.201 L 231.724 174.565 L 232.601 173.901 L 233.446 173.197 L 234.262 172.460 L 235.045 171.686 L 235.792 170.879 L 236.507 170.043 L 237.182 169.174 L 237.832 168.287 L 238.474 167.394 L 239.129 166.510 L 239.811 165.647 L 240.483 164.776 L 241.059 163.839 L 241.511 162.836 L 241.842 161.787 L 242.090 160.716 L 242.278 159.632 L 242.412 158.540 L 242.495 157.443 L 242.570 156.346 L 242.637 155.248 L 242.697 154.149 L 242.748 153.050 L 242.784 151.951 L 242.806 150.851 L 242.811 149.751 L 242.801 148.651 L 242.774 147.552 L 242.732 146.452 L 242.677 145.354 L 242.612 144.256 L 242.540 143.158 L 242.460 142.061 L 242.358 140.966 L 242.205 139.876 L 242.000 138.796 L 241.738 137.727 L 241.386 136.685 L 240.923 135.687 L 240.346 134.751 L 239.665 133.887 L 238.976 133.029 L 238.312 132.152 L 237.659 131.267 L 237.002 130.385 L 236.318 129.523 L 235.596 128.694 L 234.841 127.894 L 234.058 127.121 L 233.248 126.377 L 232.408 125.666 L 231.537 124.994 L 230.648 124.347 L 229.755 123.705 L 228.871 123.050 L 228.004 122.373 L 227.130 121.706 L 226.184 121.144 L 225.178 120.699 L 224.132 120.359 L 223.062 120.104 M 204.865 127.129 L 205.954 126.977 L 207.048 126.861 L 208.144 126.771 L 209.243 126.710 L 210.342 126.674 L 211.442 126.663 L 212.542 126.674 L 213.641 126.709 L 214.740 126.771 L 215.835 126.869 L 216.927 127.000 L 218.013 127.175 L 219.088 127.409 L 220.146 127.710 L 221.193 128.048 L 222.229 128.417 L 223.258 128.807 L 224.277 129.221 L 225.274 129.687 L 226.248 130.196 L 227.199 130.750 L 228.075 131.415 L 228.951 132.080 L 229.783 132.800 L 230.568 133.570 L 231.304 134.388 L 231.981 135.255 L 232.553 136.195 L 233.083 137.158 L 233.568 138.146 L 233.997 139.158 L 234.391 140.186 L 234.763 141.221 L 235.103 142.267 L 235.404 143.325 L 235.640 144.399 L 235.815 145.485 L 235.945 146.578 L 236.042 147.673 L 236.107 148.771 L 236.146 149.871 L 236.159 150.971 L 236.148 152.071 L 236.112 153.170 L 236.048 154.268 L 235.958 155.364 L 235.847 156.459 L 235.701 157.549 L 235.507 158.632 L 235.256 159.703 L 234.964 160.763 L 234.634 161.813 L 234.273 162.852 L 233.861 163.872 L 233.371 164.856 L 232.807 165.801 L 232.186 166.709 L 231.556 167.610 L 230.868 168.469 L 230.113 169.269 L 229.296 170.005 L 228.417 170.667 L 227.519 171.302 L 226.620 171.936 L 225.684 172.514 L 224.703 173.011 L 223.678 173.410 L 222.625 173.728 L 221.559 174.000 L 220.481 174.221 L 219.395 174.392 L 218.307 174.554 L 217.217 174.703 L 216.125 174.839 L 215.032 174.962 L 213.936 175.057 L 212.838 175.118 L 211.738 175.144 L 210.638 175.136 L 209.539 175.092 L 208.442 175.011 L 207.349 174.894 L 206.257 174.755 L 205.168 174.602 L 204.081 174.434 L 202.996 174.251 L 201.910 174.075 L 200.832 173.857 L 199.765 173.591 L 198.715 173.263 L 197.712 172.812 L 196.784 172.221 L 195.931 171.527 L 195.115 170.789 L 194.230 170.136 L 193.354 169.470 L 192.546 168.724 L 191.813 167.904 L 191.154 167.023 L 190.457 166.172 L 189.699 165.375 L 188.978 164.544 L 188.353 163.638 L 187.900 162.636 L 187.648 161.565 L 187.451 160.483 L 187.245 159.403 L 186.981 158.335 L 186.592 157.306 L 186.057 156.345 M 233.227 157.162 L 232.769 158.162 L 232.292 159.153 L 231.813 160.143 L 231.318 161.126 L 230.787 162.089 L 230.193 163.015 L 229.535 163.896 L 228.820 164.732 L 228.059 165.526 L 227.298 166.321 L 226.497 167.075 L 225.655 167.783 L 224.769 168.434 L 223.839 169.021 L 222.872 169.545 L 221.885 170.032 L 220.890 170.502 L 219.895 170.969 L 218.892 171.423 L 217.867 171.820 L 216.820 172.159" fill="none" stroke="#EC008C" stroke-width="1" vector-effect="non-scaling-stroke"/></svg>