<svg xmlns="http://www.w3.org/2000/svg" viewBox="170.90863262108846 108.29955066970025 82.42009920424567 80.50928553784222" width="82.42009920424567" height="80.50928553784222" shape-rendering="geometricPrecision"><rect x="170.90863262108846" y="108.29955066970025" width="82.42009920424567" height="80.50928553784222" fill="#0b0f14"/><path d="M 179.497 160.607 L 179.861 161.645 L 180.320 162.645 L 180.882 163.591 L 181.539 164.472 L 182.257 165.306 L 182.931 166.175 L 183.576 167.066 L 184.213 167.963 L 184.867 168.848 L 185.561 169.701 L 186.299 170.517 L 187.064 171.307 L 187.854 172.072 L 188.668 172.812 L 189.507 173.524 L 190.380 174.193 L 191.283 174.822 L 192.198 175.432 L 193.109 176.049 L 194.000 176.693 L 194.859 177.380 L 195.754 178.020 L 196.707 178.570 L 197.708 179.025 L 198.746 179.389 L 199.807 179.679 L 200.883 179.910 L 201.968 180.087 L 203.061 180.217 L 204.155 180.323 L 205.251 180.423 L 206.347 180.514 L 207.444 180.596 L 208.542 180.663 L 209.641 180.711 L 210.741 180.738 L 211.841 180.743 L 212.941 180.728 L 214.040 180.691 L 215.139 180.636 L 216.236 180.562 L 217.333 180.478 L 218.429 180.386 L 219.525 180.287 L 220.620 180.182 L 221.709 180.033 L 222.791 179.831 L 223.859 179.567 L 224.906 179.231 L 225.918 178.801 L 226.881 178.268 L 227.783 177.639 L 228.662 176.978 L 229.555 176.335 L 230.471 175.726 L 231.394 175.127 L 232.304 174.511 L 233.187 173.854 L 234.033 173.151 L 234.858 172.423 L 235.654 171.664 L 236.419 170.874 L 237.156 170.057 L 237.861 169.212 L 238.516 168.329 L 239.138 167.422 L 239.756 166.512 L 240.401 165.621 L 241.083 164.757 L 241.752 163.884 L 242.352 162.962 L 242.850 161.981 L 243.241 160.953 L 243.544 159.896 L 243.762 158.818 L 243.899 157.726 L 243.970 156.629 L 244.035 155.530 L 244.093 154.432 L 244.143 153.333 L 244.185 152.234 L 244.216 151.134 L 244.234 150.035 L 244.239 148.935 L 244.231 147.835 L 244.211 146.735 L 244.179 145.635 L 244.136 144.536 L 244.087 143.437 L 244.029 142.339 L 243.966 141.240 L 243.897 140.143 L 243.746 139.053 L 243.509 137.979 L 243.179 136.930 L 242.745 135.919 L 242.196 134.966 L 241.576 134.057 L 240.929 133.167 L 240.289 132.272 L 239.692 131.348 L 239.104 130.419 L 238.489 129.507 L 237.822 128.632 L 237.114 127.791 L 236.373 126.977 L 235.596 126.199 L 234.781 125.460 L 233.934 124.758 L 233.060 124.091 L 232.147 123.477 L 231.199 122.918 L 230.237 122.385 L 229.284 121.836 L 228.363 121.235 L 227.442 120.633 L 226.499 120.067 L 225.518 119.569 L 224.489 119.180 L 223.426 118.898 L 222.340 118.724 L 221.241 118.664 L 220.141 118.665 L 219.041 118.672 L 217.941 118.686 L 216.842 118.707 L 215.742 118.728 L 214.642 118.744 L 213.542 118.753 L 212.442 118.755 L 211.342 118.750 L 210.242 118.738 L 209.142 118.721 L 208.042 118.699 L 206.943 118.682 L 205.843 118.672 L 204.743 118.667 L 203.643 118.669 L 202.548 118.777 L 201.471 118.999 L 200.424 119.338 L 199.419 119.785 L 198.453 120.311 L 197.514 120.884 L 196.578 121.463 L 195.617 121.997 L 194.626 122.474 L 193.649 122.980 L 192.706 123.546 L 191.808 124.181 L 190.941 124.858 L 190.107 125.576 L 189.318 126.343 L 188.580 127.158 L 187.883 128.009 L 187.234 128.897 L 186.672 129.843 L 186.251 130.859 L 186.076 131.945 L 185.684 132.973 L 185.139 133.928 L 184.560 134.864 L 184.027 135.826 L 183.603 136.841 L 183.322 137.904 L 183.221 139.000 L 183.352 140.092 L 183.540 141.176 L 184.603 141.461 L 185.211 140.544 L 185.582 139.509 L 185.829 138.437 L 186.032 137.356 L 186.258 136.279 L 186.698 135.271 L 187.345 134.381 L 188.100 133.581 L 188.886 132.812 L 189.670 132.040 L 190.369 131.191 L 191.072 130.345 L 191.835 129.553 L 192.650 128.813 L 193.512 128.131 L 194.397 127.477 L 195.207 126.733 L 196.023 125.995 L 196.896 125.327 L 197.861 124.799 L 198.892 124.415 L 199.947 124.103 L 201.015 123.837 L 202.093 123.620 L 203.171 123.402 L 204.248 123.178 L 205.327 122.962 L 206.407 122.754 L 207.488 122.552 L 208.574 122.374 L 209.666 122.243 L 209.139 121.278 L 208.096 120.927 L 207.019 120.705 L 205.931 120.541 L 204.839 120.408 L 203.745 120.295 L 202.646 120.346 L 201.568 120.564 L 200.530 120.928 L 199.492 121.291 L 198.507 121.781 L 197.557 122.336 L 196.597 122.872 L 195.563 123.248 L 194.471 123.384 L 193.405 123.654 L 192.410 124.124 L 191.482 124.713 L 190.596 125.365 L 189.739 126.055 L 188.928 126.798 L 188.167 127.593 L 187.454 128.430 L 186.776 129.296 L 186.156 130.205 L 185.615 131.162 L 185.128 132.149 L 184.617 133.123 L 184.033 134.055 L 183.433 134.977 L 182.866 135.920 L 182.372 136.902 L 181.978 137.930 L 181.714 138.997 L 181.582 140.089 L 181.585 141.189 L 181.602 142.289 L 181.626 143.389 L 181.658 144.489 L 181.696 145.588 L 181.726 146.687 L 181.746 147.787 L 181.754 148.887 L 181.750 149.987 L 181.733 151.087 L 181.704 152.187 L 181.666 153.286 L 181.629 154.385 L 181.602 155.485 L 181.582 156.585 L 181.569 157.685 L 181.666 158.781 L 181.892 159.857 L 182.239 160.901 L 182.709 161.895 L 183.265 162.845 L 183.874 163.761 L 184.500 164.665 L 185.097 165.589 L 185.636 166.548 L 186.192 167.497 L 186.800 168.414 L 187.471 169.285 L 188.182 170.124 L 188.929 170.932 L 189.716 171.701 L 190.540 172.430 L 191.393 173.124 L 192.274 173.783 L 193.193 174.387 L 194.137 174.952 L 195.085 175.510 L 196.013 176.100 L 196.924 176.716 L 197.843 177.321 L 198.789 177.883 L 199.786 178.348 L 200.826 178.707 L 201.893 178.971 L 202.979 179.150 L 204.074 179.249 L 205.173 179.305 L 206.272 179.356 L 207.371 179.401 L 208.470 179.438 L 209.570 179.469 L 210.669 179.492 L 211.769 179.506 L 212.869 179.509 L 213.969 179.502 L 215.069 179.485 L 216.169 179.459 L 217.268 179.424 L 218.367 179.382 L 219.466 179.333 L 220.565 179.278 L 221.663 179.218 L 222.756 179.089 L 223.836 178.882 L 224.898 178.595 L 225.933 178.222 L 226.926 177.749 L 227.864 177.175 L 228.762 176.539 L 229.650 175.890 L 230.560 175.273 L 231.489 174.684 L 232.416 174.091 L 233.322 173.468 L 234.192 172.795 L 235.034 172.087 L 235.851 171.349 L 236.637 170.580 L 237.392 169.780 L 238.121 168.956 L 238.808 168.097 L 239.452 167.205 L 240.074 166.298 L 240.703 165.396 L 241.367 164.519 L 242.051 163.657 L 242.712 162.778 L 243.275 161.833 L 243.730 160.832 L 244.085 159.790 L 244.361 158.726 L 244.569 157.645 L 244.718 156.556 L 244.825 155.461 L 244.926 154.365 L 245.019 153.269 L 245.103 152.173 L 245.174 151.075 L 245.226 149.976 L 245.256 148.877 L 245.263 147.777 L 245.249 146.677 L 245.211 145.577 L 245.152 144.479 L 245.072 143.382 L 244.983 142.285 L 244.884 141.190 L 244.776 140.095 L 244.661 139.001 L 244.492 137.914 L 244.265 136.838 L 243.975 135.777 L 243.609 134.739 L 243.149 133.740 L 242.588 132.794 L 241.935 131.909 L 241.216 131.076 L 240.540 130.208 L 239.896 129.317 L 239.261 128.418 L 238.609 127.532 L 237.918 126.677 L 237.184 125.858 L 236.421 125.065 L 235.634 124.297 L 234.822 123.555 L 233.986 122.839 L 233.116 122.167 L 232.214 121.536 L 231.300 120.925 L 230.389 120.309 L 229.496 119.666 L 228.634 118.983 L 227.742 118.338 L 226.792 117.785 L 225.790 117.331 L 224.751 116.970 L 223.689 116.683 M 219.519 121.003 L 218.446 121.246 L 217.435 121.679 L 218.049 122.592 L 219.121 122.837 L 220.194 123.081 L 221.266 123.328 L 222.342 123.554 L 223.421 123.767 L 224.490 124.028 L 225.546 124.336 L 226.570 124.737 L 227.515 125.300 L 228.358 126.007 L 229.154 126.767 L 229.956 127.520 L 230.843 128.169 L 231.703 128.856 L 232.513 129.600 L 233.272 130.396 L 233.969 131.247 L 234.677 132.089 L 235.467 132.854 L 236.262 133.614 L 237.027 134.405 L 237.681 135.290 L 238.113 136.301 L 238.310 137.384 L 238.502 138.467 L 238.754 139.537 L 239.156 140.561 L 239.873 141.396 L 240.569 140.543 L 240.776 139.463 L 240.780 138.363 L 240.571 137.283 M 240.196 161.559 L 240.663 160.563 L 241.001 159.516 L 241.179 158.431 L 241.157 157.331 L 241.017 156.240 L 240.836 155.155 L 239.831 154.708 L 239.220 155.623 L 238.785 156.633 L 238.486 157.692 L 238.186 158.750 L 237.952 159.825 L 237.716 160.899 L 237.417 161.958 L 236.921 162.940 L 236.158 163.732 L 235.309 164.431 L 234.481 165.156 L 233.688 165.918 L 233.013 166.787 L 232.296 167.620 L 231.522 168.402 L 230.697 169.129 L 229.819 169.793 L 228.963 170.484 L 228.180 171.256 L 227.402 172.034 L 226.595 172.781 L 225.693 173.412 L 224.655 173.776 L 223.568 173.940 L 222.481 174.113 L 221.406 174.346 L 220.371 174.716 L 219.498 175.385 L 220.307 176.130 L 221.391 176.321 L 222.491 176.331 L 223.575 176.145 L 224.621 175.804 L 225.615 175.334 L 226.569 174.786 L 227.523 174.239" fill="none" stroke="#00AEEF" stroke-width="1" vector-effect="non-scaling-stroke"/><path d="M 244.912 137.017 L 244.594 135.964 L 244.190 134.941 L 243.686 133.963 L 243.079 133.046 L 242.385 132.192 L 241.689 131.341 L 241.030 130.460 L 240.391 129.564 L 239.750 128.671 L 239.082 127.796 L 238.368 126.960 L 237.616 126.157 L 236.840 125.377 L 236.039 124.623 L 235.216 123.894 L 234.362 123.200 L 233.473 122.552 L 232.563 121.935 L 231.647 121.325 L 230.743 120.699 L 229.864 120.037 L 229.002 119.354 L 228.081 118.752 L 227.106 118.243 L 226.087 117.828 L 225.037 117.500 L 223.969 117.238 L 222.889 117.032 L 221.799 116.877 L 220.705 116.770 L 219.609 116.668 L 218.514 116.573 L 217.417 116.488 L 216.319 116.412 L 215.221 116.354 L 214.122 116.317 L 213.022 116.300 L 211.922 116.303 L 210.822 116.328 L 209.723 116.373 L 208.625 116.437 L 207.528 116.514 L 206.431 116.600 L 205.335 116.694 L 204.240 116.795 L 203.146 116.916 L 202.060 117.088 L 200.984 117.319 L 199.925 117.616 L 198.893 117.996 L 197.904 118.477 L 196.970 119.059 L 196.084 119.711 L 195.205 120.372 L 194.298 120.994 L 193.375 121.593 L 192.456 122.197 L 191.557 122.831 L 190.694 123.513 L 189.857 124.227 L 189.046 124.970 L 188.265 125.745 L 187.514 126.549 L 186.790 127.377 L 186.112 128.242 L 185.476 129.141 L 184.862 130.053 L 184.236 130.957 L 183.570 131.833 L 182.893 132.700 L 182.242 133.587 L 181.691 134.538 L 181.245 135.544 L 180.899 136.588 L 180.639 137.657 L 180.463 138.743 L 180.370 139.839 L 180.304 140.937 L 180.244 142.036 L 180.192 143.134 L 180.149 144.233 L 180.114 145.333 L 180.091 146.433 L 180.079 147.533 L 180.081 148.633 L 180.095 149.732 L 180.120 150.832 L 180.156 151.932 L 180.200 153.031 L 180.252 154.129 L 180.311 155.228 L 180.375 156.326 L 180.485 157.421 L 180.679 158.503 L 180.965 159.566 L 181.350 160.596 L 181.847 161.577 L 182.443 162.502 L 183.079 163.399 L 183.725 164.290 L 184.335 165.205 L 184.920 166.136 L 185.517 167.060 L 186.157 167.955 L 186.849 168.810 L 187.574 169.637 L 188.334 170.433 L 189.132 171.190 L 189.966 171.908 L 190.828 172.590 L 191.722 173.232 L 192.657 173.811 L 193.617 174.348 L 194.580 174.879 L 195.512 175.463 L 196.431 176.068 L 197.363 176.652 L 198.326 177.183 L 199.335 177.622 L 200.385 177.951 L 201.462 178.172 L 202.557 178.281 L 203.657 178.279 L 204.757 178.270 L 205.857 178.255 L 206.956 178.232 L 208.056 178.204 L 209.156 178.182 L 210.256 178.168 L 211.356 178.162 L 212.456 178.164 L 213.556 178.175 L 214.655 178.193 L 215.755 178.218 L 216.855 178.242 L 217.955 178.259 L 219.055 178.270 L 220.155 178.275 L 221.253 178.219 L 222.340 178.046 L 223.401 177.756 L 224.422 177.349 L 225.404 176.853 L 226.353 176.296 L 227.288 175.716 L 228.238 175.162 L 229.230 174.687 L 230.218 174.203 L 231.178 173.666 L 232.093 173.056 L 232.972 172.394 L 233.821 171.695 L 234.629 170.949 L 235.387 170.151 L 236.095 169.309 L 236.765 168.437 L 237.365 167.515 L 237.835 166.520 L 238.056 165.443 L 238.308 164.372 L 238.789 163.383 L 239.364 162.445 L 239.925 161.499 L 240.397 160.505 L 240.732 159.458 L 240.897 158.370 L 240.839 157.272 L 240.641 156.189 L 240.287 155.148 L 239.391 155.786 L 238.882 156.761 L 238.570 157.815 L 238.342 158.892 L 238.131 159.971 L 237.856 161.036 L 237.348 162.012 L 236.662 162.872 L 235.897 163.663 L 235.112 164.433 L 234.346 165.222 L 233.670 166.090 L 232.946 166.918 L 232.165 167.693 L 231.335 168.415 L 230.456 169.077 L 229.596 169.762 L 228.784 170.504 L 227.950 171.221 L 227.041 171.841 L 226.048 172.314 L 225.004 172.659 L 223.945 172.958 L 222.875 173.212 L 221.795 173.421 L 220.718 173.645 L 219.639 173.861 L 218.559 174.067 L 217.477 174.265 L 216.393 174.455 L 215.304 174.607 L 214.209 174.710 L 213.110 174.757 L 212.010 174.752 L 210.911 174.695 L 209.816 174.590 L 208.726 174.444 L 207.640 174.271 L 206.555 174.088 L 205.472 173.896 L 204.391 173.693 L 203.310 173.487 L 202.236 173.252 L 201.173 172.966 L 200.123 172.638 L 199.090 172.261 L 198.101 171.780 L 197.161 171.208 L 196.261 170.576 L 195.381 169.915 L 194.478 169.287 L 193.627 168.591 L 192.820 167.843 L 192.059 167.049 L 191.349 166.209 L 190.693 165.326 L 190.039 164.441 L 189.432 163.524 L 188.898 162.563 L 188.449 161.558 L 188.057 160.530 L 187.690 159.493 L 187.357 158.445 L 187.063 157.385 L 186.821 156.312 L 186.638 155.227 L 186.494 154.137 L 186.365 153.044 L 186.261 151.949 L 186.190 150.852 L 186.153 149.752 L 186.150 148.652 L 186.177 147.553 L 186.236 146.454 L 186.328 145.358 L 186.449 144.265 L 186.595 143.174 L 186.789 142.092 L 187.047 141.022 L 187.372 139.971 L 187.734 138.933 L 188.126 137.905 L 188.535 136.884 L 188.966 135.872 L 189.455 134.887 L 189.995 133.928 L 190.570 132.991 L 191.236 132.115 L 191.966 131.292 L 192.696 130.469 L 193.465 129.683 L 194.270 128.933 L 195.112 128.225 L 195.996 127.571 L 196.944 127.012 L 197.909 126.485 L 198.900 126.007 L 199.916 125.586 L 200.945 125.197 L 201.980 124.824 L 203.024 124.478 L 204.079 124.166 L 205.148 123.908 L 206.231 123.713 L 207.321 123.566 L 208.415 123.447 L 209.510 123.347 L 210.608 123.276 L 211.707 123.235 L 212.807 123.224 L 213.907 123.241 L 215.006 123.290 L 216.103 123.371 L 217.197 123.482 L 218.290 123.609 L 219.381 123.750 L 220.465 123.932 L 221.539 124.170 L 222.602 124.453 L 223.655 124.772 L 224.698 125.122 L 225.733 125.495 L 226.742 125.933 L 227.710 126.455 L 228.636 127.048 L 229.534 127.684 L 230.438 128.311 L 231.297 128.998 L 232.113 129.736 L 232.882 130.522 L 233.600 131.355 L 234.263 132.234 L 234.960 133.085 L 235.629 133.958 L 236.234 134.876 L 236.739 135.853 L 237.130 136.882 L 237.464 137.930 L 237.749 138.992 L 237.977 140.068 L 238.209 141.143 L 238.436 142.220 L 238.653 143.298 L 238.862 144.378 L 239.063 145.460 L 239.229 146.547 L 239.345 147.641 L 239.397 148.740 L 239.384 149.840 L 239.294 150.936 L 239.135 152.024 L 238.924 153.104 L 238.694 154.180 L 238.460 155.254 L 238.220 156.328 L 237.972 157.400 L 237.740 158.475 L 237.503 159.549 L 237.214 160.610 L 236.878 161.658 L 236.435 162.665 L 235.830 163.584 L 235.098 164.404 L 234.322 165.184 L 233.560 165.977 L 232.897 166.855 L 232.171 167.682 L 231.391 168.457 L 230.560 169.178 L 229.677 169.834 L 228.826 170.531 L 228.027 171.287 L 227.220 172.034 L 226.365 172.727 L 225.414 173.280 L 224.372 173.632 L 223.293 173.842 L 222.211 174.041 L 221.138 174.285 L 220.099 174.646 L 219.140 175.184 L 219.002 176.275 L 220.086 176.462 L 221.177 176.603 L 222.276 176.635 L 223.365 176.479 L 224.421 176.172 L 225.432 175.738 L 226.399 175.214 L 227.348 174.657 L 228.322 174.146 L 229.364 173.793 L 230.446 173.594 L 231.460 173.168 L 232.412 172.617 L 233.313 171.986 L 234.181 171.310 L 235.013 170.590 L 235.797 169.819 L 236.534 169.002 L 237.232 168.152 L 237.885 167.267 L 238.467 166.334 L 238.987 165.364 L 239.479 164.380 L 240.044 163.437 L 240.648 162.518 L 241.240 161.590 L 241.776 160.630 L 242.225 159.626 L 242.555 158.576 L 242.757 157.495 L 242.833 156.398 L 242.830 155.298 L 242.821 154.198 L 242.805 153.098 L 242.781 151.998 L 242.757 150.898 L 242.740 149.798 L 242.730 148.698 L 242.729 147.598 L 242.736 146.498 L 242.751 145.398 L 242.774 144.299 L 242.802 143.199 L 242.822 142.099 L 242.834 140.999 L 242.839 139.899 L 242.807 138.800 L 242.647 137.712 L 242.367 136.648 L 241.971 135.621 L 241.459 134.648 L 240.873 133.717 L 240.248 132.812 L 239.620 131.909 L 239.042 130.973 L 238.489 130.022 L 237.908 129.088 L 237.271 128.191 L 236.579 127.336 L 235.853 126.510 L 235.090 125.718 L 234.289 124.964 L 233.454 124.248 L 232.592 123.564 L 231.697 122.924 L 230.769 122.334 L 229.825 121.770 L 228.885 121.198 L 227.970 120.587 L 227.062 119.966 L 226.138 119.370 L 225.175 118.838 L 224.159 118.417 L 223.107 118.094 L 222.032 117.860 L 220.943 117.705 L 219.846 117.627 L 218.748 117.567 L 217.649 117.512 L 216.550 117.464 L 215.451 117.424 L 214.351 117.391 L 213.252 117.368 L 212.152 117.357 L 211.052 117.356 L 209.952 117.368 L 208.852 117.391 L 207.752 117.424 L 206.653 117.466 L 205.554 117.516 L 204.456 117.573 L 203.358 117.635 L 202.260 117.715 L 201.171 117.869 L 200.096 118.099 L 199.040 118.408 L 198.014 118.805 L 197.033 119.303 L 196.108 119.898 L 195.218 120.545 L 194.333 121.198 L 193.419 121.810 L 192.491 122.400 L 191.569 123.001 L 190.672 123.637 L 189.816 124.328 L 188.981 125.044 L 188.173 125.790 L 187.394 126.567 L 186.645 127.372 L 185.921 128.200 L 185.245 129.068 L 184.607 129.965 L 183.984 130.871 L 183.345 131.767 L 182.668 132.633 L 181.983 133.494 L 181.346 134.391 L 180.810 135.352 L 180.381 136.364 L 180.046 137.412 L 179.786 138.481 L 179.590 139.563 L 179.450 140.655 L 179.340 141.749 L 179.237 142.844 L 179.143 143.940 L 179.058 145.037 L 178.988 146.135 L 178.939 147.233 L 178.912 148.333 L 178.909 149.433 L 178.929 150.533 L 178.972 151.632 L 179.037 152.730 L 179.121 153.827 L 179.216 154.923 L 179.320 156.018 L 179.432 157.112 L 179.561 158.205 L 179.741 159.290 L 179.978 160.364 L 180.278 161.422 L 180.655 162.455 L 181.128 163.449 L 181.701 164.388 L 182.365 165.265 L 183.079 166.102 L 183.750 166.973 L 184.392 167.866 L 185.029 168.763 L 185.685 169.647 L 186.381 170.498 L 187.121 171.312 L 187.887 172.101 L 188.678 172.866 L 189.493 173.605 L 190.333 174.315 L 191.208 174.981 L 192.112 175.608 L 193.027 176.218 L 193.937 176.837 L 194.826 177.485 L 195.682 178.176 L 196.582 178.808 L 197.541 179.347 L 198.549 179.787 L 199.592 180.136 M 217.563 125.669 L 218.604 126.023 L 219.627 126.428 L 220.629 126.883 L 221.627 127.345 L 222.625 127.808 L 223.618 128.281 L 224.595 128.786 L 225.540 129.350 L 226.445 129.975 L 227.308 130.657 L 228.133 131.385 L 228.957 132.112 L 229.749 132.877 L 230.504 133.676 L 231.215 134.516 L 231.869 135.400 L 232.460 136.328 L 232.988 137.293 L 233.484 138.275 L 233.970 139.262 L 234.454 140.250 L 234.929 141.242 L 235.353 142.257 L 235.722 143.293 L 236.035 144.347 L 236.296 145.416 L 236.477 146.501 L 236.585 147.596 L 236.630 148.695 L 236.622 149.795 L 236.557 150.893 L 236.430 151.985 L 236.234 153.068 L 235.975 154.137 L 235.665 155.192 L 235.301 156.230 L 234.880 157.247 L 234.424 158.248 L 233.958 159.244 L 233.490 160.240 L 233.028 161.238 L 232.531 162.219 L 231.964 163.162 M 229.705 164.069 L 228.914 164.834 L 228.089 165.562 L 227.265 166.290 L 226.402 166.972 L 225.498 167.599 L 224.554 168.164 L 223.579 168.672 L 222.587 169.148 L 221.589 169.611 L 220.592 170.075 L 219.590 170.530 L 218.568 170.936 L 217.527 171.291 L 216.470 171.595 L 215.400 171.851 L 214.315 172.031 L 213.220 172.143 L 212.122 172.195 L 211.022 172.194 L 209.923 172.142 L 208.828 172.033 L 207.742 171.861 L 206.668 171.621 L 205.606 171.337 L 204.558 171.003 L 203.528 170.617 L 202.517 170.182 L 201.511 169.738 L 200.507 169.289 L 199.501 168.843 L 198.502 168.383" fill="none" stroke="#EC008C" stroke-width="1" vector-effect="non-scaling-stroke"/><path d="M 223.918 180.308 L 224.977 180.011 L 226.011 179.635 L 227.005 179.164 L 227.946 178.595 L 228.827 177.936 L 229.695 177.260 L 230.592 176.624 L 231.505 176.010 L 232.418 175.397 L 233.315 174.761 L 234.180 174.080 L 235.008 173.356 L 235.815 172.609 L 236.599 171.837 L 237.357 171.040 L 238.084 170.215 L 238.767 169.353 L 239.415 168.463 L 240.050 167.565 L 240.699 166.677 L 241.382 165.815 L 242.099 164.980 L 242.736 164.084 L 243.279 163.127 L 243.721 162.120 L 244.071 161.077 L 244.351 160.013 L 244.569 158.935 L 244.731 157.847 L 244.846 156.753 L 244.955 155.659 L 245.055 154.563 L 245.145 153.467 L 245.224 152.370 L 245.281 151.271 L 245.317 150.172 L 245.329 149.072 L 245.318 147.972 L 245.284 146.872 L 245.228 145.774 L 245.153 144.676 L 245.066 143.580 L 244.969 142.484 L 244.865 141.389 L 244.754 140.295 L 244.597 139.206 L 244.381 138.127 L 244.097 137.065 L 243.733 136.026 L 243.267 135.030 L 242.695 134.091 L 242.024 133.218 L 241.337 132.360 L 240.676 131.480 L 240.047 130.578 L 239.423 129.672 L 238.775 128.784 L 238.082 127.929 L 237.351 127.108 L 236.592 126.311 L 235.803 125.545 L 234.984 124.810 L 234.140 124.104 L 233.266 123.436 L 232.358 122.815 L 231.431 122.223 L 230.505 121.630 L 229.599 121.006 L 228.713 120.354 L 227.815 119.719 L 226.870 119.155 L 225.873 118.692 L 224.835 118.328 L 223.771 118.048 L 222.689 117.846 L 221.597 117.721 L 220.498 117.658 L 219.400 117.600 L 218.301 117.548 L 217.202 117.503 L 216.103 117.466 L 215.003 117.438 L 213.903 117.420 L 212.803 117.414 L 211.703 117.418 L 210.603 117.433 L 209.504 117.458 L 208.404 117.492 L 207.305 117.534 L 206.206 117.582 L 205.107 117.636 L 204.009 117.696 L 202.914 117.801 L 201.830 117.985 L 200.763 118.253 L 199.724 118.614 L 198.728 119.081 L 197.784 119.647 L 196.867 120.255 L 195.958 120.874 L 195.030 121.464 L 194.084 122.025 L 193.142 122.594 L 192.225 123.201 L 191.346 123.862 L 190.494 124.558 L 189.672 125.288 L 188.886 126.058 L 188.139 126.866 L 187.427 127.704 L 186.755 128.575 L 186.145 129.491 L 185.584 130.437 L 185.036 131.390 L 184.432 132.310 L 183.802 133.212 L 183.191 134.126 L 182.634 135.075 L 182.169 136.072 L 181.822 137.116 L 181.594 138.192 L 181.491 139.287 L 181.497 140.387 L 181.510 141.487 L 181.531 142.587 L 181.560 143.686 L 181.591 144.786 L 181.614 145.886 L 181.629 146.986 L 181.632 148.086 L 181.626 149.185 L 181.610 150.285 L 181.586 151.385 L 181.555 152.485 L 181.529 153.584 L 181.512 154.684 L 181.501 155.784 L 181.500 156.884 L 181.631 157.976 L 181.891 159.045 L 182.281 160.074 L 182.771 161.058 L 183.337 162.002 L 183.939 162.923 L 184.529 163.851 L 185.054 164.817 L 185.547 165.801 L 186.089 166.758 L 186.706 167.669 L 187.382 168.536 L 188.094 169.375 L 188.852 170.172 L 189.660 170.918 L 190.512 171.614 L 191.395 172.270 L 192.319 172.868 L 193.305 173.355 L 194.356 173.681 L 195.430 173.918 L 196.439 174.356 L 197.395 174.900 L 198.348 175.449 L 199.333 175.939 L 200.367 176.314 L 201.441 176.550 L 202.539 176.617 L 203.631 176.484 L 204.718 176.314 L 205.050 175.266 L 204.118 174.682 L 203.082 174.312 L 202.009 174.069 L 200.926 173.874 L 199.845 173.675 L 198.804 173.318 L 197.861 172.751 L 197.017 172.047 L 196.217 171.292 L 195.422 170.531 L 194.571 169.834 L 193.688 169.178 L 192.857 168.457 L 192.078 167.681 L 191.354 166.853 L 190.689 165.977 L 189.922 165.188 L 189.136 164.419 L 188.386 163.614 L 187.765 162.705 L 187.317 161.701 L 186.986 160.652 L 186.703 159.589 L 186.473 158.513 L 186.235 157.439 L 185.972 156.371 L 185.712 155.302 L 185.450 154.234 L 185.179 153.168 L 184.900 152.104 L 184.627 151.038 L 184.374 149.968 L 184.314 148.870 L 184.412 147.774 L 184.601 146.690 L 184.833 145.615 L 185.087 144.545 L 185.338 143.474 L 185.588 142.403 L 185.841 141.332 L 186.100 140.263 L 186.330 139.187 L 186.583 138.117 L 186.892 137.061 L 187.253 136.022 L 187.741 135.036 L 188.344 134.116 L 189.022 133.250 L 189.734 132.411 L 190.423 131.554 L 191.122 130.704 L 191.877 129.904 L 192.680 129.153 L 193.528 128.452 L 194.422 127.812 L 195.302 127.151 L 196.204 126.523 L 197.150 125.961 L 198.143 125.488 L 199.174 125.104 L 200.216 124.752 L 201.269 124.431 L 202.321 124.110 L 203.385 123.831 L 204.460 123.597 L 205.546 123.422 L 206.634 123.262 L 207.724 123.113 L 208.815 122.976 L 209.910 122.866 L 211.007 122.792 L 212.106 122.755 L 213.206 122.754 L 214.306 122.790 L 215.403 122.866 L 216.497 122.980 L 217.588 123.126 L 218.676 123.284 L 219.763 123.455 L 220.847 123.639 L 221.929 123.841 L 223.001 124.088 L 224.062 124.377 L 225.112 124.705 L 226.147 125.077 L 227.137 125.557 L 228.062 126.152 L 228.930 126.828 L 229.774 127.533 L 230.664 128.179 L 231.526 128.863 L 232.341 129.602 L 233.106 130.392 L 233.814 131.234 L 234.502 132.092 L 235.257 132.892 L 236.003 133.701 L 236.697 134.554 L 237.275 135.490 L 237.686 136.510 L 237.976 137.571 L 238.209 138.646 L 238.452 139.719 L 238.761 140.775 L 239.143 141.807 L 239.614 142.800 L 240.438 143.530 L 240.821 142.499 L 241.017 141.416 L 241.164 140.326 L 241.286 139.233 L 241.220 138.135 L 240.974 137.063 L 240.583 136.034 L 240.077 135.058 L 239.507 134.117 L 238.932 133.180 L 238.439 132.196 L 238.130 131.140 L 237.749 130.108 L 237.223 129.142 L 236.592 128.242 L 235.905 127.383 L 235.179 126.555 L 234.405 125.774 L 233.583 125.043 L 232.724 124.357 L 231.836 123.707 L 230.908 123.117 L 229.940 122.593 L 228.953 122.108 L 227.982 121.591 L 227.044 121.017 L 226.109 120.437 L 225.153 119.893 L 224.160 119.420 L 223.126 119.046 L 222.056 118.790 L 220.965 118.645 L 219.866 118.615 L 218.766 118.613 L 217.666 118.618 L 216.566 118.629 L 215.466 118.647 L 214.366 118.663 L 213.266 118.674 L 212.166 118.680 L 211.066 118.680 L 209.966 118.674 L 208.866 118.663 L 207.766 118.647 L 206.667 118.627 L 205.567 118.615 L 204.467 118.610 L 203.367 118.611 L 202.267 118.637 L 201.176 118.778 L 200.104 119.026 L 199.062 119.379 L 198.064 119.840 L 197.110 120.388 L 196.185 120.984 L 195.269 121.592 L 194.334 122.173 L 193.375 122.710 L 192.422 123.259 L 191.496 123.854 L 190.611 124.508 L 189.756 125.199 L 188.930 125.925 L 188.140 126.690 L 187.386 127.492 L 186.666 128.324 L 185.980 129.183 L 185.348 130.084 L 184.752 131.008 L 184.160 131.935 L 183.531 132.838 L 182.881 133.725 L 182.247 134.624 L 181.658 135.553 L 181.184 136.546 L 180.820 137.584 L 180.550 138.650 L 180.367 139.735 L 180.266 140.830 L 180.197 141.928 L 180.134 143.026 L 180.078 144.125 L 180.030 145.224 L 179.992 146.323 L 179.965 147.423 L 179.951 148.523 L 179.952 149.623 L 179.966 150.723 L 179.994 151.822 L 180.034 152.921 L 180.084 154.020 L 180.143 155.119 L 180.209 156.217 L 180.281 157.314 L 180.390 158.409 L 180.578 159.493 L 180.846 160.560 L 181.201 161.601 L 181.654 162.603 L 182.212 163.551 L 182.867 164.435 L 183.549 165.298 L 184.215 166.173 L 184.843 167.077 L 185.461 167.986 L 186.101 168.881 L 186.784 169.743 L 187.512 170.569 L 188.266 171.370 L 189.049 172.141 L 189.862 172.883 L 190.700 173.596 L 191.565 174.275 L 192.465 174.907 L 193.385 175.511 L 194.305 176.113 L 195.209 176.741 L 196.084 177.406 L 196.968 178.061 L 197.907 178.634 L 198.901 179.106 L 199.936 179.479 L 200.996 179.772 L 202.072 180.000 L 203.158 180.172 L 204.252 180.296 L 205.347 180.400 L 206.442 180.497 L 207.539 180.587 L 208.636 180.667 L 209.734 180.733 L 210.833 180.779 L 211.932 180.805 L 213.032 180.809 L 214.132 180.791 M 233.434 134.397 L 233.900 135.393 L 234.342 136.400 L 234.785 137.407 L 235.220 138.417 L 235.640 139.434 L 236.027 140.464 L 236.415 141.493 L 236.736 142.545 L 236.995 143.614 L 237.201 144.695 L 237.357 145.784 L 237.456 146.879 L 237.510 147.978 L 237.525 149.078 L 237.508 150.178 L 237.454 151.276 L 237.359 152.372 L 237.213 153.463 L 237.026 154.547 L 236.792 155.621 L 236.501 156.682 L 236.144 157.723 L 235.755 158.751 L 235.343 159.772 L 234.919 160.786 L 234.490 161.799 L 234.018 162.793 L 233.501 163.764 L 232.948 164.715 L 232.288 165.595 L 231.560 166.419 L 230.792 167.207 L 229.990 167.959 L 229.152 168.672 L 228.271 169.332 L 227.321 169.885 L 226.352 170.407 L 225.361 170.884 L 224.345 171.306 L 223.318 171.698 L 222.285 172.076 L 221.243 172.430 L 220.191 172.750 L 219.124 173.017 L 218.043 173.221 L 216.954 173.376 L 215.860 173.494 L 214.764 173.593 L 213.667 173.662 L 212.567 173.702 L 211.467 173.713 L 210.368 173.696 L 209.269 173.649 L 208.171 173.570 L 207.077 173.462" fill="none" stroke="#FFF200" stroke-width="1" vector-effect="non-scaling-stroke"/></svg>