<svg xmlns="http://www.w3.org/2000/svg" viewBox="168.90100085413812 113.34719817111582 84.00538793954729 78.58774281258314" width="84.00538793954729" height="78.58774281258314" shape-rendering="geometricPrecision"><rect x="168.90100085413812" y="113.34719817111582" width="84.00538793954729" height="78.58774281258314" fill="#0b0f14"/><path d="M 208.939 122.365 L 211.061 122.094 L 213.184 122.365 L 215.307 123.436 L 215.484 123.664 L 217.430 124.862 L 219.553 124.892 L 221.676 124.644 L 223.799 124.623 L 225.922 125.752 L 225.988 125.824 L 227.465 127.983 L 228.045 128.673 L 229.062 130.143 L 230.168 131.268 L 231.613 132.303 L 232.291 132.892 L 234.413 134.395 L 234.484 134.462 L 235.593 136.622 L 235.573 138.782 L 235.329 140.941 L 235.358 143.101 L 236.536 145.081 L 236.760 145.261 L 237.813 147.420 L 238.080 149.580 L 237.813 151.739 L 236.760 153.899 M 198.324 124.623 L 200.447 124.644 L 202.570 124.892 L 204.693 124.862 L 206.639 123.664 M 181.341 131.553 L 180.882 132.303 L 180.122 134.462 L 180.015 136.622 L 180.097 138.782 L 180.071 140.941 M 242.001 134.462 L 242.108 136.622 L 242.026 138.782 L 242.052 140.941 L 242.905 142.814 M 187.639 134.462 L 186.530 136.622 L 186.550 138.782 L 186.794 140.941 L 186.765 143.101 M 179.218 142.814 L 179.065 143.101 L 177.987 145.261 L 177.809 147.420 L 177.787 149.580 L 177.809 151.739 L 177.987 153.899 L 179.065 156.059 L 179.218 156.346 L 180.071 158.218 L 180.097 160.378 L 180.015 162.538 L 180.122 164.697 L 180.882 166.857 L 181.341 167.607 L 181.929 169.017 L 183.464 170.581 L 184.993 171.176 L 185.587 171.563 L 187.709 172.705 L 188.330 173.336 L 189.453 175.496 L 189.832 176.100 L 190.417 177.655 L 191.955 179.216 L 193.341 179.815 L 194.078 180.282 L 196.201 181.055 L 198.324 181.164 L 200.447 181.080 L 202.570 181.107 L 204.410 181.975 L 204.693 182.130 L 206.816 183.227 L 208.939 183.408 L 211.061 183.430 L 213.184 183.408 L 215.307 183.227 L 217.430 182.130 L 217.712 181.975 M 244.136 145.261 L 244.314 147.420 L 244.336 149.580 L 244.314 151.739 L 244.136 153.899 L 243.058 156.059 M 185.363 145.261 L 184.310 147.420 L 184.043 149.580 L 184.310 151.739 L 185.363 153.899 L 185.587 154.079 M 236.536 154.079 L 235.358 156.059 L 235.329 158.218 L 235.573 160.378 L 235.593 162.538 L 234.484 164.697 M 186.794 158.218 L 186.550 160.378 L 186.530 162.538 L 187.639 164.697 L 187.709 164.765 M 242.052 158.218 L 242.026 160.378 L 242.108 162.538 L 242.001 164.697 L 241.241 166.857 M 221.676 181.080 L 223.799 181.164 L 225.922 181.055 L 228.045 180.282 L 228.782 179.815" fill="none" stroke="#2dd4bf" stroke-width="1" vector-effect="non-scaling-stroke"/><path d="M 208.303 121.347 L 210.013 122.768 L 211.005 122.639 L 211.854 122.728 L 212.821 122.847 L 213.577 123.168 L 214.401 123.591 L 215.118 124.103 L 215.984 124.633 L 216.819 125.152 L 218.087 125.349 L 219.186 125.367 L 220.256 125.300 L 221.295 125.190 L 222.244 125.146 L 223.194 125.161 L 223.946 125.360 L 224.498 125.811 L 225.364 126.325 L 225.534 126.962 L 226.071 127.799 L 226.667 128.650 L 227.308 129.490 L 227.836 130.296 L 228.560 131.152 L 229.328 131.945 L 230.308 132.672 L 231.103 133.290 L 231.858 133.919 L 232.750 134.564 L 233.583 135.161 L 233.942 135.702 L 234.317 136.434 L 234.644 137.248 L 234.549 137.809 L 234.523 138.805 L 234.401 139.688 L 234.274 140.683 L 234.250 141.803 L 234.251 142.821 L 234.688 144.111 L 235.268 145.112 L 235.898 145.985 L 236.224 146.718 L 236.652 147.609 L 236.763 148.342 L 236.856 149.238 L 236.828 150.103 L 236.707 150.993 L 236.492 151.854 L 236.138 152.593 L 235.701 153.506 L 235.683 153.545 M 198.198 123.430 L 199.316 125.119 L 200.317 125.135 L 201.243 125.242 L 202.229 125.363 L 203.296 125.392 L 204.319 125.383 L 205.447 125.029 L 206.418 124.462 L 206.985 124.114 M 182.357 130.915 L 179.864 132.104 L 179.463 133.160 L 179.152 134.111 L 179.018 135.238 L 178.983 136.264 L 179.005 137.296 L 179.056 138.310 L 179.078 139.296 L 179.075 140.283 L 179.072 140.935 M 241.877 135.656 L 241.227 135.520 L 241.253 136.519 L 241.203 137.430 L 241.138 138.413 L 241.106 139.453 L 241.091 140.472 L 241.312 141.675 L 241.769 142.803 L 241.982 143.292 M 188.642 133.803 L 186.161 135.053 L 185.699 135.938 L 185.398 137.062 L 185.377 138.200 L 185.422 139.228 L 185.532 140.267 L 185.604 141.242 L 185.582 142.170 L 185.567 143.090 M 179.560 141.664 L 177.951 143.483 L 177.528 144.384 L 177.162 145.349 L 177.029 146.478 L 176.953 147.478 L 176.933 148.509 L 176.912 149.509 L 176.907 150.518 L 176.901 151.519 L 176.947 152.544 L 177.006 153.549 L 177.319 154.601 L 177.785 155.575 L 178.204 156.482 L 178.581 157.385 L 178.965 158.305 L 178.940 159.087 L 178.935 160.037 L 178.903 161.014 L 178.855 162.000 L 178.850 163.031 L 178.895 164.064 L 179.044 165.124 L 179.431 166.235 L 179.777 167.194 L 180.374 168.220 L 180.700 169.047 L 181.431 170.054 L 182.244 170.888 L 183.215 171.578 L 184.389 172.059 L 185.088 172.493 L 186.002 172.981 L 186.881 173.448 L 187.441 173.961 L 187.699 174.554 L 188.121 175.384 L 188.619 176.276 L 188.988 177.106 L 189.304 177.975 L 190.255 178.996 L 190.957 179.687 L 192.123 180.267 L 193.059 180.671 L 193.923 181.074 L 195.007 181.406 L 196.013 181.669 L 197.296 181.708 L 198.299 181.724 L 199.391 181.659 L 200.389 181.600 L 201.342 181.594 L 202.337 181.596 L 202.970 181.895 L 203.813 182.300 L 204.689 182.751 L 205.592 183.212 L 206.506 183.666 L 207.781 183.806 L 208.779 183.896 L 209.828 183.920 L 210.833 183.935 L 211.844 183.933 L 212.847 183.927 L 213.878 183.870 L 214.891 183.787 L 215.966 183.487 L 216.970 182.991 L 217.859 182.528 L 218.036 182.433 M 244.906 146.181 L 243.129 146.347 L 243.191 147.342 L 243.192 148.276 L 243.187 149.263 L 243.170 150.250 L 243.149 151.243 L 243.094 152.206 L 243.007 153.171 L 242.816 154.016 L 242.463 154.708 L 242.015 155.616 L 241.984 155.677 M 186.540 145.031 L 183.854 145.827 L 183.419 146.732 L 183.089 147.826 L 182.936 148.914 L 182.905 149.983 L 183.032 151.086 L 183.245 152.122 L 183.777 153.227 L 184.217 154.143 L 184.704 154.686 M 237.730 153.953 L 234.999 154.543 L 234.494 155.417 L 234.189 156.634 L 234.173 157.745 L 234.244 158.786 L 234.381 159.815 L 234.472 160.786 L 234.501 161.746 L 234.444 162.670 L 234.126 163.363 L 233.695 164.260 L 233.599 164.462 M 187.880 158.729 L 185.521 159.101 L 185.407 160.095 L 185.373 161.178 L 185.364 162.195 L 185.727 163.439 L 186.261 164.481 L 186.703 165.262 M 243.237 158.029 L 240.848 159.209 L 240.840 160.209 L 240.874 161.240 L 240.916 162.245 L 240.899 163.201 L 240.856 164.180 L 240.690 165.051 L 240.413 165.910 L 240.167 166.645 M 221.057 180.052 L 222.650 181.654 L 223.649 181.695 L 224.699 181.656 L 225.705 181.605 L 226.802 181.315 L 227.788 180.958 L 228.747 180.497 L 229.133 180.263" fill="none" stroke="#f472b6" stroke-width="1" vector-effect="non-scaling-stroke"/></svg>