<svg xmlns="http://www.w3.org/2000/svg" viewBox="170.406926216316 107.40700409425813 81.48331817433407 84.66530335343228" width="81.48331817433407" height="84.66530335343228" shape-rendering="geometricPrecision"><rect x="170.406926216316" y="107.40700409425813" width="81.48331817433407" height="84.66530335343228" fill="#0b0f14"/><path d="M 243.890 137.041 L 243.636 135.970 L 243.183 134.968 L 242.516 134.093 L 241.767 133.288 L 241.073 132.434 L 240.411 131.556 L 239.739 130.685 L 239.109 129.783 L 238.519 128.855 L 237.919 127.933 L 237.232 127.074 L 236.483 126.268 L 235.700 125.496 L 234.882 124.760 L 234.007 124.093 L 233.062 123.531 L 232.110 122.979 L 231.188 122.380 L 230.301 121.729 L 229.409 121.085 L 228.540 120.411 L 227.714 119.685 L 226.841 119.015 L 225.847 118.544 L 224.776 118.294 L 223.676 118.278 L 222.581 118.380 L 221.484 118.457 L 220.384 118.461 L 219.304 118.250 L 218.315 117.769 L 217.397 117.162 L 216.494 116.535 L 215.513 116.036 L 214.460 115.719 L 213.374 115.546 L 212.277 115.460 L 211.177 115.461 L 210.081 115.551 L 208.996 115.734 L 207.955 116.090 L 207.021 116.670 L 206.137 117.325 L 205.188 117.881 L 204.155 118.261 L 203.067 118.423 L 201.967 118.422 L 200.869 118.361 L 199.772 118.274 L 198.673 118.298 L 197.607 118.571 L 196.647 119.109 L 195.768 119.769 L 194.907 120.454 L 193.994 121.068 L 193.087 121.690 L 192.169 122.297 L 191.214 122.843 L 190.239 123.352 L 189.291 123.909 L 188.419 124.580 L 187.607 125.321 L 186.837 126.107 L 186.125 126.945 L 185.527 127.869 L 185.063 128.866 L 184.660 129.890 L 184.622 130.989 L 184.313 132.045 L 183.894 133.062 L 184.712 132.327 L 185.536 131.598 L 186.310 130.816 L 186.997 129.957 L 187.725 129.132 L 188.515 128.367 L 189.295 127.591 L 190.105 126.847 L 190.989 126.192 L 191.843 125.499 L 192.630 124.731 L 193.417 123.962 L 194.383 123.435 L 195.451 123.171 L 196.534 122.982 L 197.628 122.866 L 198.727 122.827 L 199.827 122.823 L 200.927 122.823 L 202.022 122.716 L 203.054 122.334 L 203.964 121.716 L 204.985 121.306 L 205.094 120.212 L 206.178 120.029 L 207.271 119.905 L 208.366 119.792 L 209.463 119.715 L 210.563 119.689 L 211.662 119.709 L 212.760 119.782 L 213.853 119.909 L 214.942 120.059 L 216.021 120.276 L 217.041 120.687 L 217.979 121.262 L 218.948 121.782 L 220.023 122.016 L 221.123 122.038 L 222.222 122.085 L 223.320 122.150 L 224.414 122.257 L 225.502 122.426 L 226.594 122.558 L 227.658 122.834 L 228.526 123.509 L 229.303 124.288 L 230.107 125.040 L 230.974 125.716 L 231.824 126.415 L 232.610 127.184 L 233.395 127.955 L 234.160 128.745 L 234.847 129.604 L 235.524 130.471 L 236.269 131.281 L 237.002 132.101 L 237.544 133.058 L 237.846 134.116 L 238.049 135.197 L 238.166 136.290 L 238.197 137.390 L 238.192 138.490 L 238.188 139.590 L 238.308 140.683 L 238.702 141.710 L 239.299 142.635 L 240.366 142.902 L 240.857 143.886 L 241.063 144.967 L 241.217 146.056 L 241.350 147.148 L 241.423 148.246 L 241.440 149.345 L 241.401 150.445 L 241.294 151.540 L 241.139 152.629 L 240.938 153.710 L 240.639 154.769 L 240.191 155.773 L 239.570 156.681 L 239.161 157.702 L 239.059 158.798 L 239.036 159.897 L 238.996 160.997 L 238.922 162.094 L 238.789 163.186 L 238.615 164.272 L 238.933 165.325 L 238.302 166.226 L 237.542 167.022 L 236.744 167.779 L 235.988 168.577 L 235.314 169.446 L 234.580 170.266 L 233.791 171.032 L 233.011 171.808 L 232.195 172.546 L 231.305 173.193 L 230.450 173.884 L 229.643 174.632 L 228.799 175.338 L 227.806 175.810 L 226.737 176.068 L 225.653 176.255 L 224.557 176.353 L 223.457 176.372 L 222.357 176.370 L 221.257 176.366 L 220.169 176.526 L 219.151 176.943 L 218.216 177.523 L 217.191 177.921 L 217.748 178.869 L 216.697 179.196 L 215.607 179.345 L 214.514 179.468 L 213.419 179.575 L 212.321 179.625 L 211.221 179.626 L 210.122 179.577 L 209.028 179.463 L 207.937 179.320 L 206.853 179.132 L 205.800 178.815 L 204.820 178.314 L 203.914 177.692 L 202.876 177.327 L 201.777 177.276 L 200.677 177.244 L 199.579 177.193 L 198.482 177.110 L 197.390 176.973 L 196.302 176.816 L 195.202 176.790 L 194.266 176.211 L 193.474 175.448 L 192.689 174.678 L 191.854 173.962 L 190.963 173.316 L 190.150 172.576 L 189.370 171.800 L 188.580 171.034 L 187.849 170.212 L 187.203 169.322 L 186.481 168.492 L 185.717 167.700 L 185.041 166.833 L 184.628 165.814 L 184.390 164.739 L 184.219 163.653 L 184.142 162.556 L 184.144 161.456 L 184.147 160.356 L 184.151 159.256 L 183.894 158.186 L 183.394 157.206 L 182.858 156.246 L 181.759 156.200 L 181.402 155.160 L 181.226 154.074 L 181.087 152.983 L 180.969 151.889 L 180.915 150.791 L 180.914 149.691 L 180.969 148.592 L 181.096 147.499 L 181.256 146.411 L 181.470 145.332 L 181.811 144.286 L 182.309 143.306 L 182.901 142.378 L 183.231 141.329 L 183.238 140.229 L 183.274 139.129 L 183.327 138.031 L 183.421 136.935 L 183.575 135.846 L 183.734 134.757 L 183.943 133.677 L 184.572 132.775 L 185.342 131.989 L 186.103 131.195 L 186.802 130.346 L 187.492 129.489 L 188.261 128.702 L 189.045 127.931 L 189.835 127.165 L 190.688 126.471 L 191.578 125.825 L 192.411 125.107 L 193.239 124.382 L 194.173 123.801 L 195.106 123.219 L 196.159 122.900 L 197.242 122.709 L 198.333 122.562 L 199.430 122.487 L 200.530 122.461 L 201.630 122.446 L 202.730 122.445 L 203.788 122.143 L 204.748 121.607 L 205.735 121.120 L 206.782 120.783 L 207.852 120.530 L 208.935 120.338 L 210.025 120.189 L 211.123 120.119 L 212.223 120.115 L 213.321 120.174 L 214.413 120.305 L 215.500 120.475 L 216.578 120.694 L 217.630 121.015 L 218.591 121.551 L 219.481 122.197 L 220.521 122.555 L 221.619 122.621 L 222.719 122.627 L 223.819 122.642 L 224.918 122.699 L 226.010 122.828 L 227.095 123.011 L 228.165 123.265 L 229.103 123.839 L 229.783 124.704 L 230.559 125.484 L 231.410 126.181 L 232.294 126.835 L 233.103 127.580 L 233.884 128.355 L 234.674 129.121 L 235.402 129.945 L 236.091 130.802 L 236.873 131.576 L 237.709 132.291 L 238.574 132.971 L 238.085 131.986 L 237.753 130.937 L 237.730 129.837 L 237.318 128.817 L 236.850 127.822 L 236.245 126.903 L 235.530 126.068 L 234.759 125.283 L 233.945 124.543 L 233.070 123.876 L 232.119 123.323 L 231.146 122.811 L 230.193 122.261 L 229.278 121.651 L 228.370 121.029 L 227.460 120.412 L 226.601 119.724 L 225.720 119.066 L 224.757 118.534 L 223.689 118.269 L 222.590 118.250 L 221.493 118.332 L 220.394 118.387 L 219.294 118.376 L 218.209 118.197 L 217.184 117.798 L 216.241 117.232 L 215.357 116.577 L 214.411 116.015 L 213.366 115.671 L 212.281 115.494 L 211.184 115.407 L 210.084 115.407 L 208.987 115.494 L 207.901 115.667 L 206.847 115.982 L 205.864 116.476 L 204.955 117.096 L 204.040 117.705 L 203.055 118.195 L 201.977 118.415 L 200.877 118.417 L 199.779 118.346 L 198.684 118.248 L 197.584 118.273 L 196.514 118.527 L 195.521 119.001 L 194.648 119.670 L 193.824 120.399 L 192.955 121.073 L 192.063 121.717 L 191.177 122.369 L 190.255 122.969 L 189.305 123.522 L 188.361 124.088 L 187.488 124.757 L 186.671 125.493 L 185.888 126.266 L 185.139 127.072 L 184.453 127.931 L 183.851 128.852 L 183.260 129.780 L 182.629 130.681 L 181.956 131.551 L 181.293 132.429 L 180.598 133.282 L 179.848 134.086 L 179.184 134.963 L 178.734 135.967 L 178.481 137.037 M 237.102 157.981 L 237.075 159.081 L 237.037 160.180 L 236.975 161.279 L 236.778 162.361 L 236.382 163.387 L 235.986 164.413 L 235.456 165.377 L 234.857 166.300 M 223.814 182.001 L 224.892 181.786 L 225.920 181.395 L 226.837 180.787 L 227.656 180.052 L 228.507 179.355 L 229.392 178.702 L 230.269 178.038 L 231.170 177.407 L 232.099 176.818 L 233.034 176.240 L 233.917 175.584 L 234.745 174.859 L 235.537 174.095 L 236.295 173.299 L 237.054 172.502 L 237.760 171.659 L 238.381 170.751 L 238.963 169.817 L 239.583 168.908 L 240.245 168.030 L 240.909 167.153 L 241.590 166.289 L 242.331 165.477 L 243.041 164.636 L 243.552 163.662 L 243.851 162.603 M 178.407 162.158 L 178.632 163.235 L 179.039 164.257 L 179.666 165.160 L 180.416 165.965 L 181.122 166.809 L 181.787 167.685 L 182.464 168.552 L 183.106 169.445 L 183.707 170.367 L 184.301 171.292 L 184.975 172.161 L 185.716 172.975 L 186.492 173.754 L 187.301 174.499 L 188.160 175.186 L 189.089 175.775 L 190.041 176.327 L 190.966 176.922 L 191.857 177.568 L 192.745 178.216 L 193.621 178.882 L 194.443 179.613 L 195.295 180.309 L 196.269 180.819 L 197.328 181.118 L 198.425 181.202 L 199.521 181.111 L 200.619 181.049 L 201.719 181.035 L 202.802 181.228 L 203.802 181.686 L 204.721 182.290 L 205.633 182.906 L 206.605 183.421 L 207.652 183.758 L 208.735 183.949 L 209.830 184.053 L 210.930 184.072 L 212.028 184.008 L 213.118 183.856 L 214.180 183.571 L 215.165 183.080 L 216.149 182.590 L 217.035 181.938 L 217.952 181.330 L 218.951 180.870 L 220.033 180.667 L 221.133 180.681 L 222.227 180.788" fill="none" stroke="#EC008C" stroke-width="1" vector-effect="non-scaling-stroke"/></svg>