<svg xmlns="http://www.w3.org/2000/svg" viewBox="168.49979462823 106.8667533994712 84.654962076435 83.32445497279149" width="84.654962076435" height="83.32445497279149" shape-rendering="geometricPrecision"><rect x="168.49979462823" y="106.8667533994712" width="84.654962076435" height="83.32445497279149" fill="#0b0f14"/><path d="M 243.580 140.887 L 243.415 139.799 L 243.315 138.704 L 243.126 137.620 L 242.804 136.568 L 242.327 135.577 L 241.736 134.649 L 241.158 133.714 L 240.660 132.732 L 240.172 131.747 L 239.589 130.814 L 238.860 129.990 L 238.025 129.275 L 237.114 128.658 L 236.210 128.031 L 235.349 127.346 L 234.540 126.601 L 233.778 125.808 L 233.071 124.965 L 232.413 124.084 L 231.744 123.211 L 230.982 122.417 L 230.110 121.746 L 229.128 121.252 L 228.105 120.846 L 227.071 120.472 L 226.078 119.997 L 225.107 119.481 L 224.111 119.015 L 223.050 118.725 L 221.953 118.641 L 220.853 118.661 L 219.754 118.707 L 218.656 118.771 L 217.556 118.740 L 216.508 118.406 L 215.583 117.812 L 214.706 117.148 L 213.804 116.517 L 212.773 116.136 L 211.677 116.033 L 210.594 116.224 L 209.607 116.709 L 208.785 117.441 L 208.111 118.310 L 207.085 118.708 L 208.124 119.071 L 207.052 119.317 L 205.952 119.327 L 204.854 119.260 L 203.759 119.152 L 202.662 119.073 L 201.563 119.027 L 200.468 119.130 L 199.416 119.452 L 198.427 119.934 L 197.413 120.360 L 196.348 120.636 L 195.282 120.905 L 194.250 121.288 L 193.288 121.820 L 192.325 122.351 L 191.500 123.079 L 190.809 123.935 L 190.213 124.859 L 189.573 125.755 L 188.863 126.595 L 188.080 127.367 L 187.232 128.068 L 186.315 128.675 L 185.362 129.224 L 184.450 129.840 L 183.655 130.600 L 183.008 131.490 L 182.518 132.474 L 182.092 133.488 L 181.649 134.495 L 181.118 135.459 L 180.586 136.421 L 180.158 137.435 L 179.930 138.511 L 179.874 139.609 L 179.810 140.708 L 179.709 141.803 L 179.475 142.878 L 179.010 143.875 L 178.360 144.762 L 177.676 145.624 L 177.087 146.552 L 176.710 147.586 L 176.561 148.676 L 176.586 149.776 L 176.780 150.858 L 177.168 151.887 L 177.698 152.852 L 178.351 153.736 L 179.014 154.615 L 179.479 155.612 L 179.700 156.689 L 179.809 157.784 L 179.873 158.882 L 179.993 159.975 L 180.277 161.038 L 180.726 162.042 L 181.302 162.979 L 181.883 163.913 L 182.378 164.896 L 182.847 165.891 L 183.379 166.853 L 184.076 167.705 L 184.883 168.452 L 185.757 169.120 L 186.650 169.762 L 187.511 170.447 L 188.332 171.179 L 189.109 171.958 L 189.838 172.781 L 190.517 173.646 L 191.185 174.521 L 191.922 175.338 L 192.753 176.058 L 193.684 176.644 L 194.674 177.122 L 195.660 177.610 L 196.609 178.167 L 197.536 178.759 L 198.534 179.221 L 199.584 179.549 L 200.664 179.761 M 197.931 122.691 L 199.022 122.557 L 200.120 122.491 L 201.220 122.462 L 202.312 122.325 L 203.382 122.071 L 204.415 121.693 L 205.447 121.314 L 206.477 120.927 M 209.034 120.970 L 210.132 120.911 L 211.232 120.909 L 212.331 120.965 L 213.423 121.097 L 214.504 121.299 L 215.549 121.641 L 216.594 121.984 L 217.592 122.447 L 218.614 122.855 L 219.676 123.140 L 220.763 123.311 L 221.861 123.382 L 222.960 123.403 L 224.057 123.485 L 225.147 123.639 L 226.214 123.905 L 227.218 124.353 L 228.163 124.917 L 229.089 125.511 L 230.003 126.123 L 230.941 126.696 L 231.863 127.297 M 182.095 143.222 L 183.024 143.810 L 183.399 142.776 L 183.829 141.763 L 184.209 140.731 L 184.452 139.658 L 184.575 138.565 L 184.591 137.465 L 184.672 136.368 L 184.831 135.280 L 185.149 134.227 L 185.695 133.272 L 186.232 132.312 L 186.804 131.372 L 187.407 130.453 M 231.854 129.478 L 232.604 130.283 L 233.331 131.108 L 234.011 131.973 L 234.670 132.854 L 235.306 133.751 L 235.809 134.730 L 236.151 135.775 L 236.349 136.857 L 236.440 137.953 L 236.511 139.051 L 236.666 140.140 L 236.926 141.209 L 237.339 142.228 L 237.851 143.202 L 238.363 144.175 L 238.825 145.174 L 239.146 146.226 L 239.343 147.308 L 239.425 148.405 L 239.431 149.505 L 239.364 150.603 L 239.212 151.692 L 238.969 152.765 L 238.589 153.797 L 238.106 154.786 L 237.693 155.805 L 237.422 156.871 L 237.263 157.960 L 237.217 159.059 L 237.177 160.158 L 237.067 161.253 L 236.865 162.334 L 236.528 163.381 L 235.966 164.326 L 235.362 165.246 L 234.733 166.148 L 234.113 167.057 L 233.505 167.974 L 232.868 168.870 L 232.145 169.700 L 231.236 170.319 L 230.292 170.883 L 229.332 171.420 L 228.407 172.017 L 227.482 172.612 L 226.538 173.176 L 225.559 173.677 L 224.523 174.047 L 223.446 174.271 L 222.353 174.395 L 221.255 174.454 L 220.155 174.488 L 219.064 174.628 L 217.992 174.875 L 216.957 175.248 L 215.946 175.680 L 214.893 175.999 L 213.814 176.213 L 212.723 176.350 L 211.625 176.415 L 210.525 176.429 L 209.425 176.399 L 208.328 176.315 L 207.238 176.166 L 206.166 175.919 L 205.146 175.508 L 204.124 175.102 L 203.079 174.758 L 202.000 174.544 L 200.905 174.440 L 199.805 174.418 L 198.708 174.336 L 197.619 174.182 L 196.564 173.871 L 195.601 173.339 L 194.634 172.815 L 193.677 172.273 L 192.739 171.698 L 191.735 171.249 L 190.637 171.180 M 187.866 167.546 L 187.405 166.547 L 186.802 165.627 L 186.230 164.688 L 185.693 163.728 L 185.146 162.773 L 184.826 161.721 L 184.667 160.632 L 184.586 159.535 L 184.570 158.436 L 184.447 157.342 L 184.204 156.270 L 183.823 155.238 L 183.394 154.225 L 183.018 153.191 L 182.096 153.790 L 181.174 154.389" fill="none" stroke="#00AEEF" stroke-width="1" vector-effect="non-scaling-stroke"/><path d="M 243.699 141.274 L 243.501 140.192 L 243.376 139.099 L 243.227 138.009 L 242.959 136.942 L 242.538 135.926 L 241.973 134.982 L 241.380 134.056 L 240.858 133.088 L 240.373 132.100 L 239.848 131.134 L 239.166 130.270 L 238.367 129.515 L 237.480 128.863 L 236.566 128.251 L 235.689 127.587 L 234.861 126.863 L 234.081 126.088 L 233.352 125.264 L 232.675 124.397 L 232.021 123.512 L 231.297 122.684 L 230.468 121.961 L 229.528 121.390 L 228.520 120.951 L 227.491 120.561 L 226.485 120.115 L 225.517 119.594 L 224.536 119.096 L 223.498 118.732 L 222.411 118.560 L 221.311 118.564 L 220.211 118.579 L 219.112 118.614 L 218.013 118.554 L 216.960 118.236 L 216.024 117.658 L 215.139 117.005 L 214.241 116.369 L 213.233 115.930 L 212.150 115.737 L 211.051 115.787 L 210.001 116.114 L 209.073 116.705 L 208.221 117.401 L 207.312 118.020 L 206.278 118.396 L 205.187 118.538 L 204.088 118.555 L 202.988 118.541 L 201.888 118.537 L 200.789 118.586 L 199.719 118.844 L 198.710 119.281 L 197.727 119.774 L 196.716 120.208 L 195.668 120.543 L 194.633 120.916 L 193.640 121.389 L 192.749 122.035 L 192.004 122.844 L 191.452 123.795 L 190.948 124.773 L 190.451 125.754 L 191.550 125.813 L 192.570 125.402 L 193.506 124.824 L 194.459 124.275 L 195.441 123.780 L 196.392 123.226 L 197.437 122.882 L 198.524 122.716 L 199.620 122.623 L 200.720 122.592 L 201.816 122.507 L 202.899 122.314 L 203.951 121.993 L 204.974 121.588 L 205.373 120.563 L 204.320 120.245 L 203.235 120.065 L 202.140 119.956 L 201.042 119.907 L 199.965 120.133 L 198.987 120.636 L 197.928 120.934 L 196.829 120.992 L 195.731 121.057 L 194.669 121.344 L 193.675 121.814 L 192.807 122.490 L 192.184 123.397 L 192.064 124.490 L 193.119 124.179 L 194.114 123.710 L 195.109 123.241 L 195.954 122.536 L 195.863 121.440 L 194.797 121.166 L 193.737 121.460 L 192.738 121.921 L 191.844 122.561 L 191.077 123.349 L 190.426 124.236 L 189.796 125.138 L 189.113 126.000 L 188.362 126.803 L 187.556 127.552 L 186.686 128.225 L 185.763 128.824 L 184.819 129.388 L 183.965 130.082 L 183.230 130.900 L 182.648 131.834 L 182.178 132.828 L 181.723 133.830 L 181.198 134.796 L 180.636 135.742 L 180.124 136.715 L 179.786 137.762 L 179.613 138.848 L 179.539 139.946 L 179.418 141.039 L 179.232 142.123 L 178.845 143.153 L 178.243 144.074 L 177.546 144.925 L 176.946 145.847 L 176.500 146.852 M 207.614 121.123 L 208.704 120.971 L 209.801 120.893 L 210.901 120.875 L 212.000 120.912 L 213.095 121.017 L 214.180 121.198 L 215.242 121.484 L 216.244 121.939 L 217.253 122.375 L 218.303 122.704 L 219.385 122.905 L 220.480 123.005 L 221.580 123.017 L 222.678 123.086 L 223.769 123.223 L 224.843 123.461 L 225.878 123.835 L 226.912 124.210 L 227.863 124.763 L 228.793 125.351 L 229.709 125.959 L 230.641 126.544 L 231.564 127.141 M 233.927 129.956 L 234.558 130.856 L 235.194 131.754 L 235.808 132.667 L 236.385 133.603 L 236.963 134.539 L 237.334 135.575 L 237.568 136.649 L 237.698 137.742 L 237.757 138.840 L 237.788 139.940 L 237.934 141.030 L 238.191 142.099 L 238.592 143.124 L 239.070 144.114 L 239.446 145.148 L 239.671 146.225 L 239.818 147.315 L 239.884 148.413 L 239.888 149.513 L 239.835 150.612 L 239.710 151.705 L 239.509 152.786 L 239.198 153.841 L 238.770 154.854 L 238.358 155.874 L 238.072 156.937 L 237.908 158.024 L 237.860 159.123 L 237.807 160.222 L 237.681 161.315 L 237.444 162.389 L 237.005 163.397 L 236.416 164.327 L 235.850 165.270 L 235.248 166.190 L 234.688 167.137 L 234.301 168.167 L 234.251 169.266 L 235.137 168.614 L 236.108 168.096 L 237.083 167.586 L 238.010 166.995 L 238.800 166.229 L 239.422 165.322 L 239.884 164.324 L 240.262 163.291 L 240.638 162.257 L 241.132 161.274 L 241.646 160.302 L 242.040 159.274 L 242.219 158.189 L 242.220 157.089 L 242.215 155.989 L 242.201 154.889 L 242.289 153.793 L 242.581 152.732 L 243.144 151.787 L 243.857 150.949 L 244.547 150.093 L 245.005 149.093 L 245.155 148.003 L 245.039 146.909 L 244.661 145.876 L 244.046 144.964 L 243.364 144.101 M 177.755 148.715 L 178.147 149.742 L 178.797 150.630 L 179.575 151.408 L 180.191 152.319 L 180.460 153.386 L 180.523 154.484 L 180.492 155.583 L 180.457 156.683 L 180.441 157.783 L 180.533 158.879 L 180.856 159.930 L 181.352 160.912 L 181.856 161.890 L 182.256 162.915 L 182.598 163.960 L 183.018 164.977 L 183.571 165.927 L 184.312 166.741 L 185.203 167.385 L 186.177 167.897 L 187.176 168.357 L 188.192 168.780 L 188.033 167.691 L 187.577 166.690 L 186.966 165.776 L 186.382 164.843 L 185.847 163.882 L 185.299 162.928 L 184.961 161.881 L 184.793 160.794 L 184.703 159.698 L 184.681 158.598 L 184.577 157.503 L 184.356 156.426 L 183.999 155.385 L 183.563 154.375 L 183.177 153.345 L 182.925 152.274 L 182.760 151.187 L 182.672 150.090 L 182.648 148.991 L 182.679 147.891 L 182.780 146.796 L 182.964 145.711 L 183.234 144.645 L 183.700 143.648 L 184.166 142.652 L 184.619 141.650 L 184.961 140.604 L 185.169 139.524 L 185.267 138.428 L 185.280 137.329 L 185.358 136.231 L 185.515 135.142 L 185.793 134.078 L 186.234 133.071 L 186.814 132.136 L 187.427 131.223 L 188.061 130.323 L 188.640 129.388 M 188.111 170.035 L 188.880 170.822 L 189.584 171.667 L 190.229 172.558 L 190.859 173.460 L 191.596 174.277 L 192.455 174.964 L 193.436 175.461 L 194.477 175.817 L 195.570 175.935 L 196.530 175.397 L 196.155 174.363 L 195.278 173.699 L 194.286 173.225 L 193.293 172.750 L 192.302 172.273 L 191.574 173.098 L 192.102 174.063 L 192.839 174.880 L 193.736 175.517 L 194.735 175.977 L 195.781 176.316 L 196.849 176.580 L 197.880 176.964 L 198.870 177.442 L 199.888 177.860 L 200.964 178.087 L 202.064 178.078 L 203.163 178.020 L 204.259 177.928 L 205.356 177.847 L 206.456 177.827 L 207.552 177.921 L 207.994 178.928 L 208.794 179.684 L 209.636 180.392 L 210.630 180.862 L 211.716 181.036 L 212.811 180.927 L 213.843 180.547 L 214.745 179.917 L 215.624 179.256 L 216.548 178.658 L 217.590 178.306 L 218.689 178.257 L 219.787 178.315 L 220.886 178.356 L 221.986 178.373 L 223.082 178.282 L 224.142 177.987 L 225.137 177.518 L 226.108 177.001 L 227.101 176.527 L 228.134 176.150 L 229.156 175.742 L 230.136 175.243 L 231.005 174.568 L 231.764 173.772 L 232.432 172.898 L 233.091 172.018 M 232.082 168.137 L 231.263 168.871 L 230.416 169.573 L 229.545 170.245 L 228.647 170.880 L 227.739 171.501 L 226.818 172.102 L 225.825 172.575 L 224.766 172.874 L 223.678 173.039 L 222.581 173.113 L 221.481 173.124 L 220.386 173.225 L 219.304 173.423 L 218.253 173.750 L 217.246 174.192 L 216.260 174.679 L 215.221 175.041 L 214.151 175.294 L 213.060 175.439 L 211.961 175.489 L 210.862 175.459 L 209.769 175.328 L 208.704 175.056 L 207.673 174.672 L 206.686 174.185 L 205.701 173.696 L 204.666 173.324 L 203.631 172.952 L 202.552 172.735 L 201.462 172.585 L 200.367 172.487 L 199.277 172.340 L 198.210 172.071 L 197.190 171.659 L 196.229 171.124 L 195.322 170.501 L 194.436 169.850 L 193.574 169.166 L 192.747 168.442 L 191.939 167.695 L 191.145 166.933 L 190.364 166.159 L 189.600 165.368" fill="none" stroke="#EC008C" stroke-width="1" vector-effect="non-scaling-stroke"/><path d="M 243.503 139.777 L 243.398 138.682 L 243.208 137.599 L 242.891 136.545 L 242.424 135.550 L 241.827 134.626 L 241.238 133.697 L 240.732 132.720 L 240.241 131.735 L 239.659 130.802 L 238.933 129.976 L 238.101 129.256 L 237.197 128.629 L 236.296 127.998 L 235.436 127.312 L 234.625 126.569 L 233.861 125.778 L 233.149 124.939 L 232.485 124.062 L 231.813 123.191 L 231.054 122.395 L 230.188 121.717 L 229.213 121.208 L 228.196 120.787 L 227.173 120.384 L 226.190 119.891 L 225.224 119.364 L 224.232 118.888 L 223.174 118.587 L 222.080 118.473 L 220.980 118.467 L 219.880 118.463 L 218.780 118.444 L 217.699 118.242 L 216.711 117.758 L 215.815 117.120 L 214.930 116.467 L 214.045 115.813 L 213.081 115.283 L 212.025 114.976 L 210.931 114.867 L 209.831 114.913 L 208.750 115.116 L 207.720 115.502 L 206.748 116.016 L 205.848 116.649 L 204.945 117.277 L 203.934 117.709 L 202.853 117.914 L 201.758 118.016 L 200.659 118.077 L 199.564 118.177 L 198.492 118.425 L 197.471 118.833 L 196.511 119.370 L 195.563 119.927 L 194.575 120.412 L 193.568 120.854 L 192.578 121.334 L 191.679 121.969 L 190.882 122.726 L 190.174 123.568 L 189.504 124.441 L 188.804 125.289 L 188.056 126.095 L 187.263 126.858 L 186.426 127.572 L 185.549 128.235 L 184.648 128.867 L 183.789 129.554 L 183.015 130.336 L 182.363 131.221 L 181.851 132.195 L 181.347 133.173 L 180.782 134.117 L 180.160 135.024 L 179.646 135.996 L 179.275 137.032 L 179.035 138.105 M 180.353 140.054 L 180.371 141.154 L 180.217 142.244 L 179.752 143.240 L 179.100 144.126 L 178.419 144.990 L 177.817 145.911 L 177.457 146.950 L 177.353 148.045 L 177.510 149.134 L 177.971 150.132 L 178.662 150.989 L 179.369 151.832 L 179.932 152.777 L 180.230 153.836 L 180.322 154.932 L 180.314 156.032 L 180.312 157.132 L 180.315 158.232 L 180.503 159.315 L 180.904 160.340 L 181.419 161.312 L 181.913 162.295 L 182.287 163.329 L 182.669 164.361 L 183.136 165.357 L 183.764 166.260 L 184.558 167.021 L 185.487 167.609 L 186.462 168.119 L 187.427 168.646 L 188.522 168.758 L 189.373 169.455 L 188.891 168.466 L 188.363 167.501 L 187.807 166.552 L 187.183 165.646 L 186.583 164.724 L 186.023 163.777 L 185.591 162.766 L 185.322 161.699 L 185.176 160.609 L 185.106 159.511 L 185.099 158.411 L 184.983 157.317 L 184.756 156.241 L 184.390 155.204 L 183.932 154.203 L 183.513 153.186 L 183.257 152.116 L 183.079 151.031 L 182.987 149.935 L 182.968 148.835 L 183.015 147.736 L 183.145 146.644 L 183.381 145.569 L 183.760 144.536 L 184.281 143.568 L 184.731 142.564 L 185.047 141.510 L 185.233 140.426 L 185.309 139.329 L 185.333 138.229 L 185.422 137.133 L 185.591 136.046 L 185.909 134.993 L 186.459 134.040 L 187.093 133.141 L 187.746 132.256 L 188.419 131.386 L 189.132 130.549 L 189.876 129.738 L 190.654 128.960 L 191.469 128.221 L 192.310 127.513 L 193.174 126.832 L 194.070 126.194 L 194.976 125.570 L 195.882 124.946 L 196.802 124.342 L 197.804 123.891 L 198.878 123.651 L 199.971 123.526 L 201.069 123.468 L 202.169 123.466 L 203.264 123.361 L 204.346 123.160 L 205.394 122.825 L 206.397 122.374 L 207.386 121.893 L 208.429 121.544 L 209.506 121.319 L 210.600 121.204 L 211.699 121.165 L 212.799 121.188 L 213.895 121.281 L 214.981 121.455 L 216.050 121.716 L 217.072 122.122 L 218.079 122.566 L 219.119 122.923 L 220.196 123.147 L 221.289 123.271 L 222.389 123.292 L 223.488 123.342 L 224.582 123.458 L 225.662 123.665 L 226.708 124.004 L 227.671 124.537 L 228.609 125.112 L 229.531 125.712 L 230.465 126.293 L 231.410 126.856 L 232.341 127.441 L 233.228 128.092 M 232.282 131.156 L 233.007 131.984 L 233.696 132.841 L 234.363 133.716 L 234.955 134.642 L 235.548 135.569 L 236.013 136.566 L 236.306 137.626 L 236.445 138.717 L 236.495 139.816 L 236.630 140.908 L 236.850 141.986 L 237.228 143.019 L 237.734 143.995 L 238.253 144.965 L 238.666 145.985 L 238.958 147.045 L 239.098 148.136 L 239.127 149.236 L 239.067 150.334 L 238.902 151.422 L 238.620 152.485 L 238.217 153.509 L 237.695 154.477 L 237.248 155.482 L 236.936 156.537 L 236.751 157.621 L 236.671 158.718 L 236.638 159.818 L 236.527 160.912 L 236.298 161.988 L 235.906 163.016 L 235.331 163.954 L 234.692 164.849 L 234.036 165.732 L 233.355 166.596 L 232.640 167.432 L 231.896 168.242 L 231.117 169.019 L 230.291 169.746 L 229.437 170.438 L 228.556 171.098 L 227.654 171.727 L 226.741 172.340 L 225.811 172.928 L 224.792 173.342 L 223.715 173.564 L 222.623 173.694 L 221.524 173.757 L 220.424 173.764 L 219.329 173.866 L 218.248 174.068 L 217.199 174.399 L 216.193 174.844 L 215.197 175.312 L 214.145 175.632 L 213.062 175.827 L 211.968 175.938 L 210.869 175.975 L 209.769 175.954 L 208.672 175.868 L 207.585 175.704 L 206.509 175.475 L 205.475 175.099 L 204.464 174.664 L 203.425 174.304 L 202.349 174.075 L 201.257 173.947 L 200.157 173.925 L 199.058 173.872 L 197.965 173.752 L 196.886 173.535 L 195.850 173.168 L 194.875 172.657 L 193.928 172.098 L 192.999 171.509 L 192.049 170.954 M 225.835 179.006 L 226.761 178.412 L 227.718 177.870 L 228.704 177.382 L 229.668 176.852 L 230.550 176.195 L 231.335 175.425 L 232.059 174.597 L 232.756 173.745 L 233.474 172.912 L 234.232 172.115 L 235.026 171.354 L 235.820 170.593 L 236.650 169.871 L 237.512 169.187 L 238.383 168.516 L 239.226 167.809 L 240.007 167.034 L 240.666 166.154 L 241.204 165.194 L 241.725 164.225 L 242.314 163.296 M 188.891 171.895 L 189.586 172.747 L 190.262 173.615 L 190.984 174.444 L 191.799 175.184 L 192.716 175.791 L 193.710 176.263 L 194.714 176.712 L 195.689 177.220 L 196.632 177.787 L 197.606 178.299 L 198.639 178.677 L 199.715 178.903 L 200.812 178.985 L 201.910 179.058 L 203.003 179.180 L 204.074 179.431 L 205.065 179.908 L 205.949 180.563 L 206.867 181.169 L 207.856 181.650 L 208.901 181.995 L 209.987 182.167 L 211.087 182.191 L 212.179 182.062 L 213.229 181.734 L 214.191 181.200 L 215.074 180.544 L 215.956 179.888 L 216.855 179.253 L 217.852 178.789 L 218.936 178.599 L 220.036 178.582 L 221.135 178.570 L 222.235 178.560 L 223.326 178.418" fill="none" stroke="#FFF200" stroke-width="1" vector-effect="non-scaling-stroke"/></svg>