<svg xmlns="http://www.w3.org/2000/svg" viewBox="169.9804743702644 113.50420168067227 82.16195628740417 77.72941701779583" width="82.16195628740417" height="77.72941701779583" shape-rendering="geometricPrecision"><rect x="169.9804743702644" y="113.50420168067227" width="82.16195628740417" height="77.72941701779583" fill="#0b0f14"/><path d="M 211.189 121.504 L 213.184 121.941 L 215.307 123.443 L 215.445 123.664 L 217.430 124.848 L 219.553 124.858 L 221.676 124.452 L 223.799 123.790 L 225.922 123.949 L 227.862 125.824 L 228.045 126.153 L 228.712 127.983 L 228.984 130.143 L 230.168 131.346 L 232.291 131.624 L 234.089 132.303 L 234.413 132.488 L 236.256 134.462 L 236.412 136.622 L 235.761 138.782 L 235.363 140.941 L 235.372 143.101 L 236.536 145.120 L 236.754 145.261 L 238.230 147.420 L 238.659 149.450 L 238.700 149.580 M 198.324 123.790 L 200.447 124.452 L 202.570 124.858 L 204.693 124.848 L 206.678 123.664 M 181.341 128.668 L 179.952 130.143 L 179.873 132.303 L 180.082 134.462 L 180.334 136.622 L 180.512 138.782 L 180.343 140.941 M 242.250 132.303 L 242.041 134.462 L 241.789 136.622 L 241.611 138.782 L 241.780 140.941 L 242.905 142.444 M 185.867 134.462 L 185.711 136.622 L 186.362 138.782 L 186.760 140.941 L 186.751 143.101 M 179.218 142.444 L 178.797 143.101 L 178.074 145.261 L 177.980 147.420 L 177.987 149.580 L 177.980 151.739 L 178.074 153.899 L 178.797 156.059 L 179.218 156.716 L 180.343 158.218 L 180.512 160.378 L 180.334 162.538 L 180.082 164.697 L 179.873 166.857 L 179.952 169.017 L 181.341 170.492 L 183.464 170.992 L 183.849 171.176 L 185.587 171.921 L 187.709 172.959 L 188.080 173.336 L 189.100 175.496 L 189.832 177.264 L 190.014 177.655 L 190.505 179.815 L 191.955 181.228 L 194.078 181.308 L 196.201 181.096 L 198.324 180.840 L 200.447 180.659 L 202.570 180.830 L 204.047 181.975 L 204.693 182.403 L 206.816 183.139 L 208.939 183.234 L 211.061 183.227 L 213.184 183.234 L 215.307 183.139 L 217.430 182.403 L 218.076 181.975 M 244.049 145.261 L 244.142 147.420 L 244.136 149.580 L 244.142 151.739 L 244.049 153.899 L 243.326 156.059 M 236.536 154.039 L 235.372 156.059 L 235.363 158.218 L 235.761 160.378 L 236.412 162.538 L 236.256 164.697 M 186.760 158.218 L 186.362 160.378 L 185.711 162.538 L 185.867 164.697 L 187.709 166.672 M 241.780 158.218 L 241.611 160.378 L 241.789 162.538 L 242.041 164.697 L 242.250 166.857 L 242.171 169.017 M 221.676 180.659 L 223.799 180.840 L 225.922 181.096 L 228.045 181.308 L 230.168 181.228" fill="none" stroke="#EC008C" stroke-width="1" vector-effect="non-scaling-stroke"/></svg>