<svg xmlns="http://www.w3.org/2000/svg" viewBox="173.23399640696778 112.00151914053362 77.58774769195233 77.00356287294068" width="77.58774769195233" height="77.00356287294068" shape-rendering="geometricPrecision"><rect x="173.23399640696778" y="112.00151914053362" width="77.58774769195233" height="77.00356287294068" fill="#0b0f14"/><path d="M 181.234 161.642 L 181.509 162.707 L 181.874 163.744 L 182.350 164.736 L 182.943 165.663 L 183.624 166.527 L 184.308 167.389 L 184.970 168.267 L 185.624 169.151 L 186.284 170.031 L 186.976 170.886 L 187.706 171.709 L 188.467 172.503 L 189.256 173.270 L 190.071 174.009 L 190.917 174.712 L 191.793 175.377 L 192.684 176.022 L 193.577 176.665 L 194.458 177.323 L 195.321 178.006 L 196.207 178.657 L 197.163 179.202 L 198.174 179.635 L 199.223 179.964 L 200.295 180.212 L 201.378 180.407 L 202.468 180.553 L 203.563 180.652 L 204.660 180.732 L 205.758 180.805 L 206.856 180.870 L 207.955 180.925 L 209.054 180.967 L 210.154 180.994 L 211.254 181.005 L 212.354 181.000 L 213.453 180.979 L 214.553 180.943 L 215.652 180.893 L 216.750 180.833 L 217.848 180.765 L 218.945 180.691 L 220.042 180.611 L 221.135 180.484 L 222.221 180.308 L 223.296 180.076 L 224.353 179.771 L 225.370 179.353 L 226.329 178.813 L 227.212 178.156 L 228.076 177.477 L 228.963 176.826 L 229.862 176.192 L 230.759 175.554 L 231.640 174.897 L 232.489 174.196 L 233.312 173.467 L 234.103 172.702 L 234.859 171.904 L 235.581 171.074 L 236.264 170.212 L 236.918 169.327 L 237.557 168.431 L 238.202 167.541 L 238.874 166.670 L 239.549 165.801 L 240.159 164.886 L 240.648 163.900 L 241.009 162.861 L 241.273 161.794 L 241.464 160.710 L 241.581 159.616 L 241.622 158.517 L 241.655 157.418 L 241.684 156.318 L 241.709 155.218 L 241.730 154.119 L 241.745 153.019 L 241.754 151.919 L 241.756 150.819 L 241.751 149.719 L 241.740 148.619 L 241.724 147.519 L 241.703 146.419 L 241.677 145.319 L 241.647 144.220 L 241.615 143.120 L 241.547 142.022 L 241.405 140.932 L 241.185 139.854 L 240.884 138.796 L 240.454 137.783 L 239.894 136.836 L 239.269 135.931 L 238.617 135.046 L 237.988 134.143 L 237.373 133.231 L 236.746 132.327 L 236.085 131.448 L 235.391 130.595 L 234.657 129.775 L 233.879 128.997 L 233.058 128.265 L 232.199 127.578 L 231.316 126.923 L 230.403 126.309 L 229.474 125.720 L 228.549 125.124 L 227.646 124.497 L 226.730 123.887 L 225.777 123.339 L 224.771 122.892 L 223.717 122.579 L 222.638 122.363 L 221.544 122.247 L 220.444 122.241 L 219.345 122.280 L 218.246 122.320 L 217.147 122.361 L 216.047 122.403 L 214.948 122.435 L 213.848 122.456 L 212.748 122.465 L 211.648 122.461 L 210.548 122.444 L 209.449 122.417 L 208.349 122.381 L 207.250 122.342 L 206.150 122.303 L 205.051 122.266 L 203.952 122.231 L 202.854 122.306 L 201.769 122.485 L 200.707 122.771 L 199.680 123.166 L 198.704 123.674 L 197.768 124.251 L 196.842 124.845 L 195.887 125.390 L 194.931 125.935 L 193.996 126.514 L 193.096 127.147 L 192.223 127.816 L 191.385 128.529 L 190.603 129.302 L 189.884 130.135 L 189.210 131.004 L 188.576 131.903 L 188.029 132.858 L 187.597 133.869 L 187.183 134.888 L 186.627 135.837 L 186.065 136.783 L 185.578 137.769 L 185.216 138.808 L 184.974 139.881 L 184.875 140.977 L 184.952 142.074 L 185.136 143.158 L 186.213 143.381 L 186.770 142.433 L 187.073 141.375 L 187.277 140.295 L 187.444 139.207 L 187.283 138.119 L 187.614 137.070 L 188.386 136.286 L 189.211 135.558 L 190.040 134.836 L 190.791 134.032 L 191.469 133.166 L 192.172 132.320 L 192.960 131.552 L 193.820 130.866 L 194.703 130.210 L 195.518 129.472 L 196.230 128.633 L 196.871 127.740 L 196.019 127.044 L 194.961 127.344 L 193.999 127.879 L 193.088 128.496 L 192.196 129.139 L 191.396 129.894 L 190.784 130.808 L 190.176 131.725 L 190.284 132.819 L 191.089 132.070 L 191.825 131.252 L 192.560 130.434 L 193.390 129.711 L 194.110 128.880 L 193.039 129.133 L 192.106 129.716 L 191.150 130.260 L 190.434 131.095 L 189.798 131.992 L 189.195 132.913 L 188.706 133.898 L 188.634 134.995 L 189.711 135.218 L 190.516 134.469 L 191.306 133.703 L 191.990 132.841 L 192.654 131.964 L 193.405 131.161 L 194.233 130.437 L 195.120 129.785 L 195.972 129.090 L 196.729 128.292 L 197.499 127.506 L 198.323 126.778 L 199.281 126.238 L 200.377 126.138 L 201.469 126.007 L 202.554 125.827 L 203.619 125.549 L 204.590 125.034 L 204.470 123.940 L 203.385 123.758 L 202.287 123.703 L 201.193 123.815 L 200.121 124.063 L 199.083 124.426 L 198.096 124.914 L 197.147 125.469 L 196.189 126.009 L 195.156 126.388 L 194.144 126.820 L 193.188 127.363 L 192.284 127.990 L 191.407 128.655 L 190.570 129.368 L 189.792 130.145 L 189.074 130.979 L 188.398 131.847 L 187.759 132.742 L 187.178 133.676 L 186.635 134.632 L 186.087 135.586 L 185.486 136.508 L 184.906 137.442 L 184.399 138.418 L 184.013 139.449 L 183.732 140.512 L 183.564 141.599 L 183.508 142.698 L 183.552 143.797 L 183.597 144.896 L 183.643 145.995 L 183.690 147.094 L 183.731 148.193 L 183.761 149.293 L 183.777 150.393 L 183.778 151.493 L 183.764 152.592 L 183.735 153.692 L 183.693 154.791 L 183.644 155.890 L 183.594 156.989 L 183.546 158.088 L 183.499 159.187 L 183.540 160.286 L 183.694 161.376 L 183.952 162.445 L 184.316 163.483 L 184.816 164.463 L 185.402 165.393 L 186.033 166.295 L 186.655 167.202 L 187.247 168.129 L 187.850 169.049 L 188.489 169.945 L 189.167 170.810 L 189.882 171.646 L 190.644 172.440 L 191.450 173.188 L 192.295 173.892 L 193.167 174.563 L 194.067 175.196 L 194.984 175.803 L 195.901 176.410 L 196.802 177.042 L 197.702 177.674 L 198.631 178.263 L 199.611 178.762 L 200.651 179.123 L 201.720 179.382 L 202.804 179.564 L 203.899 179.672 L 204.999 179.706 L 206.098 179.733 L 207.198 179.758 L 208.298 179.779 L 209.398 179.796 L 210.498 179.808 L 211.598 179.816 L 212.698 179.818 L 213.798 179.814 L 214.897 179.805 L 215.997 179.791 L 217.097 179.772 L 218.197 179.749 L 219.297 179.723 L 220.396 179.693 L 221.495 179.637 L 222.587 179.507 L 223.669 179.306 L 224.734 179.031 L 225.766 178.650 L 226.742 178.144 L 227.647 177.518 L 228.522 176.851 L 229.407 176.198 L 230.308 175.567 L 231.211 174.939 L 232.101 174.292 L 232.964 173.611 L 233.798 172.894 L 234.600 172.141 L 235.368 171.353 L 236.101 170.532 L 236.800 169.683 L 237.463 168.806 L 238.107 167.914 L 238.753 167.023 L 239.418 166.147 L 240.107 165.290 L 240.750 164.397 L 241.274 163.430 L 241.673 162.405 L 241.960 161.343 L 242.182 160.266 L 242.347 159.178 L 242.460 158.084 L 242.537 156.987 L 242.610 155.889 L 242.674 154.791 L 242.731 153.692 L 242.776 152.593 L 242.807 151.494 L 242.822 150.394 L 242.821 149.294 L 242.803 148.194 L 242.770 147.095 L 242.721 145.996 L 242.662 144.897 L 242.593 143.799 L 242.517 142.702 L 242.436 141.605 L 242.312 140.512 L 242.137 139.426 L 241.909 138.350 L 241.616 137.290 L 241.221 136.263 L 240.711 135.288 L 240.090 134.380 L 239.392 133.530 L 238.714 132.664 L 238.056 131.782 L 237.404 130.897 L 236.739 130.020 L 236.040 129.171 L 235.302 128.355 L 234.536 127.566 L 233.741 126.805 L 232.922 126.072 L 232.069 125.377 L 231.187 124.719 L 230.295 124.076 L 229.404 123.430 L 228.527 122.767 L 227.668 122.080 L 226.764 121.453 L 225.792 120.938 L 224.767 120.538 L 223.710 120.235 L 222.635 120.002 M 204.966 127.080 L 206.056 126.936 L 207.151 126.825 L 208.247 126.740 L 209.346 126.681 L 210.445 126.647 L 211.545 126.638 L 212.645 126.651 L 213.745 126.689 L 214.843 126.752 L 215.938 126.851 L 217.030 126.983 L 218.116 127.158 L 219.191 127.394 L 220.249 127.693 L 221.296 128.031 L 222.333 128.399 L 223.362 128.788 L 224.379 129.206 L 225.374 129.676 L 226.346 130.191 L 227.293 130.750 L 228.168 131.417 L 229.043 132.084 L 229.872 132.807 L 230.654 133.580 L 231.386 134.401 L 232.058 135.272 L 232.624 136.215 L 233.156 137.178 L 233.639 138.166 L 234.066 139.180 L 234.457 140.208 L 234.824 141.245 L 235.159 142.293 L 235.453 143.353 L 235.682 144.429 L 235.851 145.516 L 235.976 146.609 L 236.070 147.705 L 236.135 148.803 L 236.173 149.902 L 236.186 151.002 L 236.174 152.102 L 236.136 153.201 L 236.071 154.299 L 235.980 155.396 L 235.870 156.490 L 235.726 157.581 L 235.535 158.664 L 235.288 159.736 L 235.000 160.797 L 234.673 161.848 L 234.314 162.887 L 233.901 163.907 L 233.407 164.890 L 232.838 165.831 L 232.212 166.736 L 231.579 167.636 L 230.893 168.495 L 230.138 169.295 L 229.320 170.031 L 228.440 170.691 L 227.544 171.329 L 226.649 171.968 L 225.717 172.552 L 224.737 173.053 L 223.713 173.453 L 222.659 173.768 L 221.592 174.036 L 220.513 174.252 L 219.427 174.423 L 218.339 174.589 L 217.250 174.742 L 216.159 174.882 L 215.066 175.009 L 213.971 175.107 L 212.873 175.172 L 211.773 175.200 L 210.673 175.193 L 209.574 175.149 L 208.477 175.065 L 207.384 174.946 L 206.293 174.803 L 205.204 174.646 L 204.118 174.474 L 203.034 174.288 L 201.948 174.110 L 200.869 173.899 L 199.800 173.638 L 198.748 173.317 L 197.743 172.871 L 196.814 172.281 L 195.963 171.584 L 195.155 170.838 L 194.273 170.181 L 193.393 169.520 L 192.581 168.778 L 191.843 167.962 L 191.184 167.081 L 190.490 166.228 L 189.726 165.437 L 188.997 164.613 L 188.357 163.718 L 187.888 162.724 L 187.629 161.654 L 187.435 160.572 L 187.230 159.491 L 186.966 158.423 L 186.562 157.400 L 185.973 156.471 M 233.321 157.288 L 232.863 158.288 L 232.390 159.282 L 231.914 160.274 L 231.425 161.259 L 230.899 162.225 L 230.308 163.152 L 229.651 164.034 L 228.935 164.870 L 228.173 165.663 L 227.411 166.456 L 226.609 167.210 L 225.766 167.917 L 224.878 168.565 L 223.945 169.148 L 222.974 169.665 L 221.985 170.146 L 220.988 170.612 L 219.990 171.075 L 218.987 171.526 L 217.961 171.921 L 216.913 172.256" fill="none" stroke="#EC008C" stroke-width="1" vector-effect="non-scaling-stroke"/></svg>