<svg xmlns="http://www.w3.org/2000/svg" viewBox="170.5138699947107 107.82898579537206 77.62556944834074 83.5574053509147" width="77.62556944834074" height="83.5574053509147" shape-rendering="geometricPrecision"><rect x="170.5138699947107" y="107.82898579537206" width="77.62556944834074" height="83.5574053509147" fill="#0b0f14"/><path d="M 210.401 115.829 L 209.210 115.977 L 208.048 116.277 L 206.977 116.818 L 205.998 117.512 L 204.974 118.137 L 203.860 118.584 L 202.673 118.764 L 201.473 118.764 L 200.275 118.712 L 199.076 118.653 L 197.890 118.837 L 196.784 119.301 L 195.796 119.984 L 194.857 120.731 L 193.870 121.413 L 192.883 122.095 L 191.880 122.754 L 190.836 123.345 L 189.764 123.885 L 188.764 124.548 L 187.845 125.320 L 186.982 126.153 L 186.180 127.046 L 185.503 128.037 L 185.012 129.132 L 184.522 130.227 L 184.641 131.422 L 184.128 132.507 L 183.555 133.561 L 184.434 132.745 L 185.338 131.955 L 186.197 131.118 L 186.969 130.198 L 187.788 129.321 L 188.655 128.492 L 189.510 127.649 L 190.431 126.880 L 191.389 126.158 L 192.266 125.339 L 193.090 124.466 L 194.128 123.865 L 195.166 123.263 L 196.338 123.004 L 197.524 122.824 L 198.717 122.688 L 199.915 122.620 L 201.114 122.586 L 202.314 122.580 L 203.493 122.353 L 204.549 121.783 L 205.612 121.226 L 206.753 120.856 L 207.932 120.632 L 209.120 120.465 L 210.314 120.338 L 211.513 120.291 L 212.713 120.307 L 213.910 120.389 L 215.102 120.528 L 216.291 120.685 L 217.468 120.922 L 218.087 121.950 L 219.101 122.591 L 220.195 123.084 L 221.384 123.248 L 222.584 123.235 L 223.784 123.225 L 224.983 123.265 L 226.175 123.402 L 227.357 123.612 L 228.503 123.966 L 229.503 124.630 L 230.314 125.514 L 231.205 126.319 L 232.175 127.025 L 233.076 127.817 L 233.934 128.657 L 234.804 129.483 L 235.600 130.380 L 236.397 131.278 L 237.279 132.091 L 238.214 132.844 L 237.977 131.668 L 237.657 130.511 L 237.348 129.351 L 236.884 128.245 L 236.245 127.229 L 235.458 126.323 L 234.603 125.481 L 233.690 124.702 L 232.697 124.028 L 231.616 123.508 L 230.558 122.942 L 229.541 122.304 L 228.549 121.630 L 227.544 120.973 L 226.594 120.240 L 225.611 119.551 L 224.524 119.043 L 223.341 118.847 L 222.143 118.927 L 220.947 119.019 L 219.748 119.074 L 218.551 118.986 L 217.396 118.660 L 216.333 118.103 L 215.361 117.400 L 214.330 116.786 L 213.184 116.431 L 211.994 116.270 L 210.796 116.206 L 209.597 116.237 L 208.403 116.363 L 207.230 116.617 L 206.126 117.086 L 205.128 117.753 L 204.128 118.417 L 203.049 118.940 L 201.865 119.137 L 200.666 119.095 L 199.470 118.988 L 198.278 118.850 L 197.082 118.949 L 195.936 119.304 L 194.904 119.917 L 193.984 120.687 L 193.043 121.431 L 192.066 122.128 L 191.095 122.834 L 190.087 123.485 L 189.040 124.071 L 188.015 124.695 L 187.076 125.442 L 186.193 126.254 L 185.352 127.110 L 184.569 128.020 L 183.888 129.008 L 183.238 130.017 L 182.536 130.990 L 181.790 131.930 L 181.055 132.878 L 180.273 133.789 L 179.462 134.673 L 178.854 135.707 L 178.514 136.858 M 178.944 163.973 L 179.626 164.961 L 180.456 165.827 L 181.220 166.753 L 181.953 167.702 L 182.691 168.649 L 183.382 169.630 L 184.028 170.641 L 184.743 171.605 L 185.550 172.493 L 186.403 173.337 L 187.297 174.138 L 188.255 174.860 L 189.294 175.460 L 190.327 176.072 L 191.319 176.746 L 192.286 177.457 L 193.257 178.163 L 194.178 178.931 L 195.111 179.687 L 196.184 180.224 L 197.348 180.513 L 198.548 180.557 L 199.743 180.453 L 200.942 180.395 L 202.140 180.462 L 203.284 180.823 L 204.310 181.446 L 205.297 182.129 L 206.346 182.710 L 207.487 183.084 L 208.671 183.278 L 209.867 183.377 L 211.067 183.386 L 212.264 183.305 L 213.451 183.132 L 214.592 182.760 L 215.612 182.127 L 216.596 181.440 L 217.653 180.873 L 218.804 180.531 L 219.999 180.431 L 221.199 180.463 L 222.396 180.540 L 223.596 180.551 L 224.770 180.300 L 225.834 179.746 L 226.802 179.036 L 227.754 178.305 L 228.754 177.643 L 229.743 176.963 L 230.763 176.330 L 231.821 175.765 L 232.890 175.219 L 233.867 174.522 L 234.768 173.730 L 235.614 172.879 L 236.386 171.960 L 236.996 170.927 L 237.448 169.815 L 237.881 168.696 L 237.854 167.496 L 238.313 166.388 L 237.376 167.138 L 236.488 167.944 L 235.682 168.833 L 234.898 169.742 L 234.027 170.567 L 233.168 171.405 L 232.276 172.208 L 231.298 172.904 L 230.394 173.692 L 229.549 174.544 L 228.552 175.213 L 227.414 175.593 L 226.234 175.812 L 225.043 175.954 L 223.843 175.993 L 222.643 175.979 L 221.443 175.964 L 220.252 176.107 L 219.147 176.575 L 218.134 177.218 L 217.001 177.614 L 218.024 178.241 L 216.908 178.682 L 215.717 178.832 L 214.524 178.961 L 213.330 179.073 L 212.130 179.117 L 210.930 179.105 L 209.733 179.028 L 208.542 178.884 L 207.354 178.714 L 206.182 178.455 L 205.086 177.966 L 204.114 177.262 L 202.996 176.827 L 201.797 176.779 L 200.597 176.755 L 199.398 176.710 L 198.202 176.613 L 197.014 176.441 L 195.828 176.261 L 194.707 175.831 L 193.736 175.126 L 192.841 174.328 L 191.916 173.563 L 190.941 172.863 L 190.055 172.054 L 189.195 171.217 L 188.338 170.377 L 187.571 169.454 L 186.822 168.516 L 186.019 167.624 L 185.279 166.680 L 184.797 165.581 L 184.529 164.412 L 184.363 163.223 L 184.323 162.024 L 184.353 160.824 L 184.375 159.624 L 184.230 158.433 L 183.750 157.333 L 183.111 156.318 L 182.656 155.207 L 182.329 154.053 L 182.080 152.879 L 181.897 151.693 L 181.825 150.495 L 181.856 149.295 L 181.997 148.104 L 182.234 146.927 L 182.547 145.769 L 183.061 144.685 L 183.685 143.660 L 184.309 142.635 L 184.912 141.597 L 185.264 140.450 L 185.286 139.250 L 185.305 138.050 L 185.336 136.851 L 185.521 135.665 L 185.913 134.531 M 237.051 134.675 L 237.306 135.848 L 237.383 137.045 L 237.358 138.245 L 237.344 139.445 L 237.408 140.643 L 237.811 141.773 L 238.440 142.795 L 239.035 143.838 L 239.500 144.944 L 239.801 146.106 L 240.028 147.284 L 240.139 148.479 L 240.138 149.679 L 240.021 150.873 L 239.781 152.049 L 239.413 153.191 L 238.827 154.238 L 238.169 155.242 L 237.538 156.262 L 237.139 157.394 L 237.037 158.590 L 237.009 159.790 L 236.960 160.989 L 236.745 162.169 L 236.278 163.274" fill="none" stroke="#2dd4bf" stroke-width="1" vector-effect="non-scaling-stroke"/><path d="M 236.579 171.634 L 236.536 171.681 M 236.536 171.681 L 234.732 173.762 M 237.782 168.952 L 236.536 170.394 M 234.413 172.823 L 232.291 175.406 M 232.291 175.406 L 232.115 175.615 M 179.019 163.655 L 179.218 163.879 M 179.218 163.879 L 179.846 164.697 M 179.846 164.697 L 181.341 166.465 M 181.341 166.465 L 181.639 166.857 M 181.639 166.857 L 183.413 169.017 M 183.413 169.017 L 183.464 169.076 M 183.464 169.076 L 185.161 171.176 M 185.161 171.176 L 185.587 171.681 M 185.587 171.681 L 186.920 173.336 M 186.920 173.336 L 187.709 174.291 M 187.709 174.291 L 188.039 174.697 M 234.413 171.517 L 232.291 174.104 M 232.291 174.104 L 230.168 176.670 M 230.168 176.670 L 230.117 176.731 M 179.343 162.285 L 179.515 162.538 M 179.515 162.538 L 181.174 164.697 M 181.174 164.697 L 181.341 164.895 M 181.341 164.895 L 182.837 166.857 M 182.837 166.857 L 183.464 167.621 M 183.464 167.621 L 184.530 169.017 M 184.530 169.017 L 185.587 170.324 M 185.587 170.324 L 186.246 171.176 M 186.246 171.176 L 187.709 172.993 M 187.709 172.993 L 187.980 173.336 M 187.980 173.336 L 189.734 175.496 M 189.734 175.496 L 189.832 175.616 M 189.832 175.616 L 190.097 175.936 M 232.291 172.802 L 230.168 175.442 M 230.168 175.442 L 228.045 177.974 M 228.045 177.974 L 227.776 178.291 M 187.709 125.328 L 187.304 125.824 M 187.304 125.824 L 187.244 125.900 M 185.403 128.259 L 183.959 130.143 M 179.685 160.841 L 180.839 162.538 M 180.839 162.538 L 181.341 163.191 M 181.341 163.191 L 182.386 164.697 M 182.386 164.697 L 183.464 166.111 M 183.464 166.111 L 183.993 166.857 M 183.993 166.857 L 185.587 168.942 M 185.587 168.942 L 185.641 169.017 M 185.641 169.017 L 187.311 171.176 M 187.311 171.176 L 187.709 171.671 M 187.709 171.671 L 189.026 173.336 M 189.026 173.336 L 189.832 174.330 M 189.832 174.330 L 190.785 175.496 M 190.785 175.496 L 191.955 176.910 M 191.955 176.910 L 192.593 177.655 M 192.593 177.655 L 192.647 177.720 M 230.850 173.295 L 230.168 174.144 M 230.168 174.144 L 228.045 176.705 M 228.045 176.705 L 225.922 179.190 M 225.922 179.190 L 225.078 180.140 M 180.053 159.285 L 180.690 160.378 M 180.690 160.378 L 181.341 161.334 M 181.341 161.334 L 182.081 162.538 M 182.081 162.538 L 183.464 164.530 M 183.464 164.530 L 183.572 164.697 M 183.572 164.697 L 185.106 166.857 M 185.106 166.857 L 185.587 167.486 M 185.587 167.486 L 186.706 169.017 M 186.706 169.017 L 187.709 170.315 M 187.709 170.315 L 188.364 171.176 M 188.364 171.176 L 189.832 173.035 M 189.832 173.035 L 190.072 173.336 M 190.072 173.336 L 191.837 175.496 M 191.837 175.496 L 191.955 175.638 M 191.955 175.638 L 193.679 177.655 M 193.679 177.655 L 194.078 178.123 M 194.078 178.123 L 195.610 179.815 M 195.610 179.815 L 195.805 180.035 M 228.045 175.437 L 225.922 177.940 M 225.922 177.940 L 223.799 180.308 M 223.799 180.308 L 223.569 180.551 M 180.452 157.600 L 180.747 158.218 M 180.747 158.218 L 181.341 159.236 M 181.341 159.236 L 181.943 160.378 M 181.943 160.378 L 183.273 162.538 M 183.273 162.538 L 183.464 162.813 M 183.464 162.813 L 184.546 164.486 M 190.232 172.215 L 191.124 173.336 M 191.124 173.336 L 191.955 174.353 M 191.955 174.353 L 192.920 175.496 M 192.920 175.496 L 194.078 176.851 M 194.078 176.851 L 194.808 177.655 M 194.808 177.655 L 196.201 179.194 M 196.201 179.194 L 196.817 179.815 M 196.817 179.815 L 197.503 180.519 M 226.737 175.718 L 225.922 176.674 M 225.922 176.674 L 223.799 179.023 M 223.799 179.023 L 222.330 180.536 M 180.900 155.707 L 181.029 156.059 M 181.029 156.059 L 181.341 156.712 M 181.341 156.712 L 181.991 158.218 M 181.991 158.218 L 183.132 160.378 M 183.132 160.378 L 183.464 160.917 M 183.464 160.917 L 184.337 162.436 M 193.564 174.973 L 194.006 175.496 M 194.006 175.496 L 194.078 175.580 M 194.078 175.580 L 195.962 177.655 M 195.962 177.655 L 196.201 177.920 M 196.201 177.920 L 198.082 179.815 M 198.082 179.815 L 198.324 180.064 M 198.324 180.064 L 198.843 180.531 M 225.511 175.898 L 223.799 177.773 M 223.799 177.773 L 221.676 179.939 M 221.676 179.939 L 221.797 179.815 M 181.432 153.459 L 181.530 153.899 M 181.530 153.899 L 182.242 156.059 M 182.242 156.059 L 183.177 158.218 M 183.177 158.218 L 183.464 158.761 M 183.464 158.761 L 184.262 160.378 M 184.262 160.378 L 184.358 160.545 M 195.853 176.265 L 196.201 176.648 M 196.201 176.648 L 197.203 177.655 M 197.203 177.655 L 198.324 178.785 M 198.324 178.785 L 199.489 179.815 M 199.489 179.815 L 200.174 180.432 M 224.273 175.979 L 223.799 176.508 M 223.799 176.508 L 221.676 178.657 M 221.676 178.657 L 219.688 180.457 M 181.990 148.160 L 181.989 149.580 M 181.989 149.580 L 182.105 150.618 M 197.301 176.483 L 198.324 177.511 M 198.324 177.511 L 198.488 177.655 M 198.488 177.655 L 200.447 179.388 M 200.447 179.388 L 201.026 179.815 M 201.026 179.815 L 201.865 180.446 M 212.114 183.316 L 213.184 183.088 M 213.184 183.088 L 215.307 182.190 M 215.307 182.190 L 215.669 181.975 M 237.632 145.261 L 237.881 147.420 M 237.881 147.420 L 237.883 149.580 M 237.883 149.580 L 237.643 151.739 M 237.643 151.739 L 237.168 153.899 M 223.072 175.984 L 221.676 177.406 M 221.676 177.406 L 219.553 179.291 M 219.553 179.291 L 217.430 180.903 M 185.290 138.987 L 184.516 140.941 M 184.516 140.941 L 183.966 142.753 M 198.804 176.662 L 199.930 177.655 M 199.930 177.655 L 200.447 178.112 M 200.447 178.112 L 202.570 179.679 M 202.570 179.679 L 202.807 179.815 M 202.807 179.815 L 204.693 180.914 M 204.693 180.914 L 206.816 181.759 M 206.816 181.759 L 207.884 181.975 M 207.884 181.975 L 208.939 182.195 M 208.939 182.195 L 211.061 182.185 M 211.061 182.185 L 212.084 181.975 M 221.846 175.969 L 221.676 176.141 M 221.676 176.141 L 219.553 178.031 M 219.553 178.031 L 219.974 177.655 M 200.341 176.746 L 200.447 176.839 M 200.447 176.839 L 201.558 177.655 M 201.558 177.655 L 202.570 178.402 M 202.570 178.402 L 204.693 179.617 M 204.693 179.617 L 205.201 179.815 M 205.201 179.815 L 206.816 180.457 M 206.816 180.457 L 208.939 180.885 M 208.939 180.885 L 211.061 180.882 M 211.061 180.882 L 213.184 180.433 M 213.184 180.433 L 214.741 179.815 M 220.322 176.099 L 219.553 176.776 M 219.553 176.776 L 217.779 178.091 M 202.113 176.791 L 202.570 177.127 M 202.570 177.127 L 203.498 177.655 M 203.498 177.655 L 204.693 178.339 M 204.693 178.339 L 206.816 179.167 M 206.816 179.167 L 208.939 179.586 M 208.939 179.586 L 211.061 179.583 M 211.061 179.583 L 213.184 179.157 M 213.184 179.157 L 213.415 179.065" fill="none" stroke="#e5e7eb" stroke-width="1" vector-effect="non-scaling-stroke"/></svg>