<svg xmlns="http://www.w3.org/2000/svg" viewBox="172.73530353546727 119.2851849848995 78.08079479822433 70.66217928782791" width="78.08079479822433" height="70.66217928782791" shape-rendering="geometricPrecision"><rect x="172.73530353546727" y="119.2851849848995" width="78.08079479822433" height="70.66217928782791" fill="#0b0f14"/><path d="M 183.364 127.640 L 182.833 128.592 L 181.544 132.211 L 181.187 135.831 L 181.082 139.451 L 180.981 143.070 L 180.826 146.690 L 180.735 150.310 L 180.826 153.930 L 180.981 157.549 L 181.082 161.169 L 181.187 164.789 L 181.544 168.408 L 182.833 172.028 L 183.364 172.980 L 184.330 175.648 L 186.916 178.283 L 189.534 179.268 L 190.467 179.810 L 194.019 181.123 L 197.570 181.487 L 201.121 181.594 L 204.673 181.697 L 208.224 181.855 L 211.776 181.947 L 215.327 181.855 L 218.879 181.697 L 222.430 181.594 L 225.981 181.487 L 229.533 181.123 L 233.084 179.810 L 234.018 179.268 M 208.224 127.466 L 211.776 127.285 L 215.327 127.466 L 218.879 128.314 L 219.693 128.592 L 222.430 129.336 L 225.981 129.772 L 229.533 131.278 L 230.448 132.211 L 231.926 135.831 L 232.354 139.451 L 233.084 142.240 L 233.357 143.070 L 234.188 146.690 L 234.366 150.310 L 234.188 153.930 L 233.357 157.549 M 242.007 132.211 L 242.364 135.831 L 242.469 139.451 L 242.570 143.070 L 242.726 146.690 L 242.816 150.310 L 242.726 153.930 L 242.570 157.549 L 242.469 161.169 L 242.364 164.789 L 242.007 168.408 L 240.719 172.028 M 190.195 143.070 L 189.363 146.690 L 189.186 150.310 L 189.363 153.930 L 190.195 157.549 L 190.467 158.380 M 233.084 158.380 L 232.354 161.169 L 231.926 164.789 L 230.448 168.408" fill="none" stroke="#EC008C" stroke-width="1" vector-effect="non-scaling-stroke"/></svg>