<svg xmlns="http://www.w3.org/2000/svg" viewBox="168.7991945027493 121.48952769945629 82.61402941337334 71.63077124698862" width="82.61402941337334" height="71.63077124698862" shape-rendering="geometricPrecision"><rect x="168.7991945027493" y="121.48952769945629" width="82.61402941337334" height="71.63077124698862" fill="#0b0f14"/><path d="M 212.000 129.490 L 216.000 129.935 L 217.784 130.708 L 220.000 131.726 L 224.000 133.289 L 225.753 134.662 L 228.000 136.882 L 229.389 138.615 L 230.970 142.569 L 232.000 144.760 L 232.782 146.523 L 233.232 150.477 L 232.782 154.431 M 184.000 132.169 L 182.229 134.662 L 181.216 138.615 L 180.930 142.569 L 180.718 146.523 L 180.587 150.477 L 180.718 154.431 L 180.930 158.385 L 181.216 162.338 L 182.229 166.292 L 184.000 168.785 L 184.972 170.246 L 188.000 173.994 L 188.209 174.200 L 192.000 177.193 L 193.478 178.154 L 196.000 179.905 L 200.000 180.906 L 204.000 181.188 L 208.000 181.398 L 212.000 181.528 L 216.000 181.398 L 220.000 181.188 L 224.000 180.906 L 228.000 179.905 L 230.522 178.154 M 242.784 138.615 L 243.070 142.569 L 243.282 146.523 L 243.413 150.477 L 243.282 154.431 L 243.070 158.385 L 242.784 162.338 L 241.771 166.292 M 191.218 146.523 L 190.768 150.477 L 191.218 154.431 L 192.000 156.194" fill="none" stroke="#2dd4bf" stroke-width="1" vector-effect="non-scaling-stroke"/><path d="M 214.423 132.417 L 212.604 132.978 L 213.584 132.916 L 214.567 132.818 L 215.556 132.691 L 215.416 132.596 L 216.344 132.709 L 217.256 132.864 L 218.267 133.095 L 219.401 133.387 L 220.504 133.722 L 221.535 134.110 L 222.553 134.548 L 223.352 135.030 L 223.875 135.544 L 224.700 136.233 L 225.302 136.842 L 226.029 137.568 L 226.741 138.272 L 227.234 138.864 L 227.815 139.592 L 228.004 140.104 L 228.216 140.845 L 228.479 141.743 L 228.727 142.645 L 229.009 143.580 L 229.327 144.518 L 229.610 145.417 L 229.850 146.305 L 230.070 147.201 L 229.873 147.779 L 229.897 148.777 L 229.937 149.775 L 229.963 150.733 L 229.846 151.381 L 229.733 152.374 L 229.628 153.368 L 229.541 154.239 M 187.793 132.405 L 180.327 131.506 L 179.774 132.425 L 179.242 133.337 L 178.458 135.001 L 178.221 136.027 L 178.003 137.008 L 177.783 137.987 L 177.592 139.281 L 177.506 140.327 L 177.424 141.323 L 177.338 142.319 L 177.260 143.350 L 177.184 144.350 L 177.106 145.347 L 177.027 146.342 L 176.962 147.382 L 176.903 148.381 L 176.849 149.378 L 176.799 150.374 L 176.822 151.540 L 176.857 152.547 L 176.904 153.550 L 176.965 154.555 L 177.063 155.620 L 177.173 156.625 L 177.297 157.629 L 177.435 158.637 L 177.605 159.701 L 177.781 160.704 L 177.963 161.706 L 178.172 162.771 L 178.629 164.338 L 179.002 165.313 L 179.372 166.285 L 179.746 167.276 L 180.825 169.313 L 181.500 170.111 L 182.162 170.905 L 182.748 171.626 L 183.391 172.482 L 184.148 173.456 L 184.798 174.222 L 185.434 174.995 L 186.056 175.777 L 186.778 176.674 L 187.795 177.724 L 188.557 178.362 L 189.313 179.001 L 190.067 179.640 L 190.879 180.311 L 191.820 181.013 L 192.602 181.548 L 193.381 182.093 L 194.196 182.666 L 195.407 183.383 L 196.841 183.867 L 197.831 184.077 L 198.822 184.275 L 199.929 184.446 L 201.172 184.493 L 202.175 184.475 L 203.178 184.457 L 204.189 184.442 L 205.211 184.432 L 206.210 184.444 L 207.209 184.485 L 208.217 184.554 L 209.239 184.639 L 210.237 184.747 L 211.234 184.869 L 212.266 184.980 L 213.353 185.039 L 214.357 185.086 L 215.360 185.115 L 216.376 185.120 L 217.412 185.093 L 218.415 185.056 L 219.416 185.011 L 220.428 184.954 L 221.457 184.879 L 222.452 184.802 L 223.444 184.717 L 224.538 184.559 L 225.777 184.202 L 226.726 183.921 L 227.675 183.631 L 228.708 183.242 L 230.074 182.186 L 230.900 181.620 L 231.666 181.106 M 241.110 135.204 L 240.640 139.729 L 240.628 140.724 L 240.595 141.719 L 240.542 142.714 L 240.449 143.685 L 240.343 144.684 L 240.226 145.685 L 240.102 146.685 L 239.961 147.657 L 239.837 148.661 L 239.739 149.667 L 239.667 150.655 L 239.585 151.513 L 239.551 152.504 L 239.566 153.496 L 239.620 154.477 L 239.689 155.412 L 239.772 156.403 L 239.857 157.396 L 239.932 158.376 L 239.981 159.316 L 240.011 160.311 L 240.027 161.307 L 239.992 162.135 L 239.847 162.598 L 239.628 163.566 L 239.406 164.535 L 239.220 165.350 M 193.263 149.726 L 187.785 147.112 L 187.619 148.110 L 187.468 149.108 L 187.335 150.120 L 187.453 151.885 L 187.584 152.880 L 187.730 153.877 L 187.912 154.916 L 188.647 156.850 L 189.082 157.681" fill="none" stroke="#f472b6" stroke-width="1" vector-effect="non-scaling-stroke"/><path d="M 185.589 175.191 L 185.978 175.648 M 185.978 175.648 L 186.916 176.726 M 186.916 176.726 L 187.455 177.374 M 230.373 179.670 L 229.533 180.669 M 229.533 180.669 L 226.920 183.862 M 179.248 165.960 L 179.813 166.528 M 179.813 166.528 L 181.329 168.408 M 181.329 168.408 L 183.364 170.676 M 183.364 170.676 L 184.443 172.028 M 184.443 172.028 L 186.916 174.936 M 186.916 174.936 L 187.495 175.648 M 187.495 175.648 L 190.467 179.213 M 190.467 179.213 L 190.514 179.268 M 190.514 179.268 L 192.200 181.273 M 178.069 162.244 L 179.813 164.310 M 179.813 164.310 L 180.142 164.789 M 180.142 164.789 L 183.062 168.408 M 183.062 168.408 L 183.364 168.746 M 183.364 168.746 L 185.983 172.028 M 185.983 172.028 L 186.916 173.125 M 186.916 173.125 L 188.970 175.648 M 188.970 175.648 L 190.467 177.444 M 190.467 177.444 L 192.028 179.268 M 192.028 179.268 L 194.019 181.634 M 194.019 181.634 L 195.184 182.887 M 195.184 182.887 L 195.706 183.484 M 228.843 177.972 L 225.981 181.320 M 177.392 158.322 L 179.281 161.169 M 179.281 161.169 L 179.813 161.799 M 179.813 161.799 L 181.867 164.789 M 181.867 164.789 L 183.364 166.644 M 183.364 166.644 L 184.633 168.408 M 184.633 168.408 L 186.916 171.268 M 186.916 171.268 L 187.497 172.028 M 187.497 172.028 L 190.444 175.648 M 190.444 175.648 L 190.467 175.676 M 190.467 175.676 L 193.542 179.268 M 193.542 179.268 L 194.019 179.834 M 194.019 179.834 L 196.858 182.887 M 196.858 182.887 L 197.570 183.701 M 197.570 183.701 L 198.007 184.112 M 228.074 177.118 L 225.981 179.595 M 225.981 179.595 L 222.430 183.495 M 222.430 183.495 L 220.992 184.913 M 179.813 138.182 L 178.973 139.451 M 178.973 139.451 L 177.312 143.070 M 177.312 143.070 L 177.266 143.269 M 176.833 151.852 L 177.322 153.930 M 177.322 153.930 L 178.985 157.549 M 178.985 157.549 L 179.813 158.796 M 179.813 158.796 L 181.099 161.169 M 181.099 161.169 L 183.364 164.459 M 183.364 164.459 L 183.567 164.789 M 183.567 164.789 L 186.171 168.408 M 186.171 168.408 L 186.916 169.342 M 186.916 169.342 L 188.970 172.028 M 188.970 172.028 L 190.467 173.867 M 190.467 173.867 L 191.956 175.648 M 191.956 175.648 L 194.019 178.057 M 194.019 178.057 L 195.165 179.268 M 195.165 179.268 L 197.570 181.853 M 197.570 181.853 L 198.738 182.887 M 198.738 182.887 L 200.413 184.464 M 179.813 142.212 L 179.419 143.070 M 179.419 143.070 L 178.568 146.690 M 178.568 146.690 L 178.568 150.310 M 178.568 150.310 L 179.420 153.930 M 179.420 153.930 L 179.813 154.783 M 179.813 154.783 L 180.848 157.549 M 180.848 157.549 L 182.814 161.169 M 182.814 161.169 L 183.364 161.968 M 183.364 161.968 L 185.102 164.789 M 185.102 164.789 L 186.916 167.309 M 186.916 167.309 L 187.676 168.408 M 187.676 168.408 L 190.443 172.028 M 190.443 172.028 L 190.467 172.058 M 190.467 172.058 L 193.469 175.648 M 193.469 175.648 L 194.019 176.290 M 194.019 176.290 L 196.839 179.268 M 196.839 179.268 L 197.570 180.054 M 197.570 180.054 L 200.770 182.887 M 200.770 182.887 L 201.121 183.218 M 201.121 183.218 L 202.970 184.460 M 225.981 176.056 L 222.430 179.860 M 222.430 179.860 L 218.879 183.118 M 218.879 183.118 L 219.131 182.887 M 183.364 137.896 L 182.534 139.451 M 182.534 139.451 L 181.194 143.070 M 181.194 143.070 L 180.505 146.690 M 180.505 146.690 L 180.503 150.310 M 180.503 150.310 L 181.194 153.930 M 181.194 153.930 L 182.554 157.549 M 182.554 157.549 L 183.364 159.039 M 183.364 159.039 L 184.404 161.169 M 184.404 161.169 L 186.637 164.789 M 186.637 164.789 L 186.916 165.176 M 186.916 165.176 L 189.149 168.408 M 189.149 168.408 L 190.467 170.133 M 190.467 170.133 L 191.956 172.028 M 191.956 172.028 L 194.019 174.496 M 194.019 174.496 L 195.085 175.648 M 195.085 175.648 L 197.570 178.272 M 197.570 178.272 L 198.716 179.268 M 198.716 179.268 L 201.121 181.396 M 201.121 181.396 L 203.482 182.887 M 203.482 182.887 L 204.673 183.687 M 204.673 183.687 L 206.914 184.473 M 211.782 184.928 L 215.327 183.662 M 215.327 183.662 L 216.447 182.887 M 225.751 174.540 L 222.430 178.123 M 222.430 178.123 L 218.879 181.251 M 218.879 181.251 L 215.327 183.615 M 183.364 141.798 L 182.893 143.070 M 182.893 143.070 L 182.202 146.690 M 182.202 146.690 L 182.198 150.310 M 182.198 150.310 L 182.892 153.930 M 182.892 153.930 L 183.364 155.184 M 183.364 155.184 L 184.163 157.549 M 184.163 157.549 L 185.934 161.169 M 185.934 161.169 L 186.916 162.760 M 186.916 162.760 L 188.121 164.789 M 188.121 164.789 L 190.467 168.184 M 190.467 168.184 L 190.626 168.408 M 190.626 168.408 L 193.468 172.028 M 193.468 172.028 L 194.019 172.686 M 194.019 172.686 L 196.760 175.648 M 196.760 175.648 L 197.570 176.504 M 197.570 176.504 L 200.753 179.268 M 200.753 179.268 L 201.121 179.594 M 201.121 179.594 L 204.673 181.834 M 204.673 181.834 L 207.873 182.887 M 207.873 182.887 L 208.224 183.010 M 208.224 183.010 L 211.776 182.999 M 211.776 182.999 L 212.106 182.887 M 224.944 173.644 L 222.430 176.357 M 222.430 176.357 L 218.879 179.494 M 218.879 179.494 L 219.134 179.268 M 186.916 136.771 L 185.645 139.451 M 185.645 139.451 L 184.454 143.070 M 184.454 143.070 L 183.839 146.690 M 183.839 146.690 L 183.836 150.310 M 183.836 150.310 L 184.457 153.930 M 184.457 153.930 L 185.686 157.549 M 185.686 157.549 L 186.916 160.057 M 186.916 160.057 L 187.442 161.169 M 187.442 161.169 L 189.594 164.789 M 189.594 164.789 L 190.467 166.053 M 190.467 166.053 L 192.139 168.408 M 192.139 168.408 L 194.019 170.802 M 194.019 170.802 L 195.085 172.028 M 195.085 172.028 L 197.570 174.714 M 197.570 174.714 L 198.623 175.648 M 198.623 175.648 L 201.121 177.817 M 201.121 177.817 L 203.470 179.268 M 203.470 179.268 L 204.673 180.026 M 204.673 180.026 L 208.224 181.191 M 208.224 181.191 L 211.776 181.186 M 211.776 181.186 L 215.327 179.974 M 215.327 179.974 L 216.447 179.268 M 186.916 140.172 L 185.962 143.070 M 185.962 143.070 L 185.347 146.690 M 185.347 146.690 L 185.345 150.310 M 185.345 150.310 L 185.972 153.930 M 185.972 153.930 L 186.916 156.698 M 186.916 156.698 L 187.196 157.549 M 187.196 157.549 L 188.911 161.169 M 188.911 161.169 L 190.467 163.785 M 190.467 163.785 L 191.082 164.789 M 191.082 164.789 L 193.652 168.408 M 193.652 168.408 L 194.019 168.876 M 194.019 168.876 L 196.760 172.028 M 196.760 172.028 L 197.570 172.904 M 197.570 172.904 L 200.664 175.648 M 200.664 175.648 L 201.121 176.045 M 201.121 176.045 L 204.673 178.237 M 204.673 178.237 L 207.882 179.268 M 207.882 179.268 L 208.224 179.380 M 208.224 179.380 L 211.776 179.371 M 211.776 179.371 L 212.092 179.268 M 190.467 135.432 L 190.235 135.831 M 190.235 135.831 L 188.587 139.451 M 188.587 139.451 L 187.446 143.070 M 186.916 146.327 L 186.854 146.690 M 186.854 146.690 L 186.854 150.310 M 186.854 150.310 L 186.916 150.666 M 186.916 150.666 L 187.463 153.930 M 187.463 153.930 L 188.659 157.549 M 188.659 157.549 L 190.380 161.169 M 190.380 161.169 L 190.467 161.315 M 190.467 161.315 L 192.593 164.789 M 192.593 164.789 L 194.019 166.796 M 194.019 166.796 L 195.285 168.408 M 195.285 168.408 L 197.570 171.036 M 197.570 171.036 L 198.623 172.028 M 198.623 172.028 L 201.121 174.245 M 201.121 174.245 L 203.352 175.648 M 203.352 175.648 L 204.673 176.463 M 204.673 176.463 L 208.224 177.603 M 208.224 177.603 L 211.776 177.602 M 211.776 177.602 L 215.327 176.449 M 215.327 176.449 L 216.603 175.648 M 190.467 138.491 L 190.030 139.451 M 190.030 139.451 L 188.888 143.070 M 188.888 143.070 L 188.299 146.690 M 188.299 146.690 L 188.300 147.358 M 188.300 147.358 L 188.303 150.310 M 188.303 150.310 L 188.916 153.930 M 188.916 153.930 L 189.745 156.419 M 189.745 156.419 L 190.121 157.549 M 190.121 157.549 L 190.467 158.277 M 190.467 158.277 L 191.885 161.169 M 191.885 161.169 L 194.019 164.650 M 194.019 164.650 L 194.113 164.789 M 194.113 164.789 L 196.957 168.408 M 196.957 168.408 L 197.570 169.114 M 197.570 169.114 L 200.661 172.028 M 200.661 172.028 L 201.121 172.437 M 201.121 172.437 L 204.673 174.673 M 204.673 174.673 L 207.660 175.648 M 207.660 175.648 L 208.224 175.829 M 208.224 175.829 L 211.776 175.834 M 211.776 175.834 L 212.345 175.648 M 190.467 142.636 L 190.330 143.070 M 190.330 143.070 L 189.742 146.690 M 189.742 146.690 L 189.744 148.047 M 189.744 148.047 L 189.749 150.310 M 189.749 150.310 L 190.370 153.930 M 190.370 153.930 L 190.467 154.222 M 190.467 154.222 L 190.638 154.719 M 190.638 154.719 L 191.612 157.549 M 191.612 157.549 L 193.392 161.169 M 193.392 161.169 L 194.019 162.192 M 194.019 162.192 L 195.778 164.789 M 195.778 164.789 L 197.570 167.067 M 197.570 167.067 L 198.853 168.408 M 198.853 168.408 L 201.121 170.549 M 201.121 170.549 L 203.337 172.028 M 203.337 172.028 L 204.673 172.870 M 204.673 172.870 L 208.224 174.036 M 208.224 174.036 L 211.776 174.049 M 211.776 174.049 L 215.327 172.946 M 215.327 172.946 L 216.724 172.028 M 193.378 138.605 L 192.980 139.451 M 192.980 139.451 L 191.804 143.070 M 191.804 143.070 L 191.201 146.690 M 191.201 146.690 L 191.208 148.746 M 191.208 148.746 L 191.213 150.310 M 191.213 150.310 L 191.654 152.786 M 191.654 152.786 L 191.858 153.930 M 191.858 153.930 L 193.111 157.549 M 193.111 157.549 L 194.019 159.392 M 194.019 159.392 L 194.987 161.169 M 194.987 161.169 L 197.444 164.789 M 197.444 164.789 L 197.570 164.949 M 197.570 164.949 L 200.879 168.408 M 200.879 168.408 L 201.121 168.637 M 201.121 168.637 L 204.673 171.017 M 204.673 171.017 L 207.577 172.028 M 207.577 172.028 L 208.224 172.242 M 208.224 172.242 L 211.776 172.275 M 211.776 172.275 L 212.513 172.028 M 228.074 143.070 L 228.706 146.690 M 228.706 146.690 L 228.719 150.310 M 228.719 150.310 L 228.355 152.528 M 194.019 140.806 L 193.282 143.070 M 193.282 143.070 L 192.679 146.690 M 192.679 146.690 L 192.691 149.453 M 192.691 149.453 L 192.695 150.310 M 192.695 150.310 L 192.762 150.679 M 192.762 150.679 L 193.348 153.930 M 193.348 153.930 L 194.019 155.858 M 194.019 155.858 L 194.670 157.549 M 194.670 157.549 L 196.645 161.169 M 196.645 161.169 L 197.570 162.532 M 197.570 162.532 L 199.427 164.789 M 199.427 164.789 L 201.121 166.560 M 201.121 166.560 L 203.611 168.408 M 203.611 168.408 L 204.673 169.120 M 204.673 169.120 L 208.224 170.371 M 208.224 170.371 L 211.776 170.408 M 211.776 170.408 L 215.327 169.232 M 215.327 169.232 L 216.587 168.408 M 195.572 141.041 L 194.837 143.070 M 194.837 143.070 L 194.171 146.690 M 194.171 146.690 L 194.193 150.310 M 194.193 150.310 L 194.921 153.930 M 194.921 153.930 L 196.319 157.549 M 196.319 157.549 L 197.570 159.837 M 197.570 159.837 L 198.452 161.169 M 198.452 161.169 L 201.121 164.409 M 201.121 164.409 L 201.559 164.789 M 201.559 164.789 L 204.673 167.110 M 204.673 167.110 L 207.993 168.408 M 207.993 168.408 L 208.224 168.490 M 208.224 168.490 L 211.776 168.541 M 211.776 168.541 L 212.179 168.408 M 225.058 143.070 L 225.767 146.690 M 225.767 146.690 L 225.778 148.808 M 196.737 142.334 L 196.470 143.070 M 196.470 143.070 L 195.802 146.690 M 195.802 146.690 L 195.827 150.310 M 195.827 150.310 L 196.562 153.930 M 196.562 153.930 L 197.570 156.528 M 197.570 156.528 L 198.050 157.549 M 198.050 157.549 L 200.447 161.169 M 200.447 161.169 L 201.121 161.988 M 201.121 161.988 L 204.347 164.789 M 204.347 164.789 L 204.673 165.032 M 204.673 165.032 L 208.224 166.439 M 208.224 166.439 L 211.776 166.508 M 211.776 166.508 L 215.327 165.234 M 215.327 165.234 L 215.946 164.789 M 197.570 145.944 L 197.432 146.690 M 197.432 146.690 L 197.461 150.310 M 197.461 150.310 L 197.570 150.845 M 197.570 150.845 L 198.334 153.930 M 198.334 153.930 L 200.035 157.549 M 200.035 157.549 L 201.121 159.188 M 201.121 159.188 L 202.948 161.169 M 202.948 161.169 L 204.673 162.669 M 204.673 162.669 L 208.224 164.315 M 208.224 164.315 L 211.776 164.407 M 211.776 164.407 L 215.296 162.934 M 199.641 145.557 L 199.383 146.690 M 199.383 146.690 L 199.416 150.310 M 199.416 150.310 L 200.314 153.930 M 200.314 153.930 L 201.121 155.645 M 201.121 155.645 L 202.368 157.549 M 202.368 157.549 L 204.673 160.049 M 204.673 160.049 L 206.597 161.169 M 206.597 161.169 L 208.224 161.927 M 208.224 161.927 L 211.776 162.023 M 211.776 162.023 L 213.735 161.202 M 201.473 147.591 L 201.504 150.310 M 201.504 150.310 L 202.755 153.930 M 202.755 153.930 L 204.673 156.864 M 204.673 156.864 L 205.509 157.549 M 205.509 157.549 L 208.224 159.127 M 208.224 159.127 L 211.776 159.236 M 211.776 159.236 L 211.903 159.168" fill="none" stroke="#FFF200" stroke-width="1" vector-effect="non-scaling-stroke"/></svg>