<svg xmlns="http://www.w3.org/2000/svg" viewBox="173.21833716737586 112.03311764118325 77.61111450020371 76.85889743296099" width="77.61111450020371" height="76.85889743296099" shape-rendering="geometricPrecision"><rect x="173.21833716737586" y="112.03311764118325" width="77.61111450020371" height="76.85889743296099" fill="#0b0f14"/><path d="M 181.218 161.202 L 181.468 162.273 L 181.799 163.322 L 182.235 164.332 L 182.789 165.283 L 183.453 166.160 L 184.147 167.013 L 184.815 167.887 L 185.469 168.771 L 186.126 169.654 L 186.804 170.520 L 187.521 171.354 L 188.272 172.158 L 189.051 172.935 L 189.857 173.683 L 190.692 174.399 L 191.559 175.077 L 192.447 175.725 L 193.341 176.366 L 194.228 177.017 L 195.098 177.690 L 195.961 178.372 L 196.893 178.956 L 197.886 179.429 L 198.925 179.792 L 199.992 180.058 L 201.072 180.269 L 202.160 180.428 L 203.255 180.537 L 204.352 180.614 L 205.450 180.685 L 206.548 180.749 L 207.646 180.804 L 208.745 180.848 L 209.845 180.877 L 210.945 180.892 L 212.045 180.892 L 213.145 180.876 L 214.244 180.845 L 215.344 180.801 L 216.442 180.747 L 217.540 180.685 L 218.638 180.616 L 219.736 180.542 L 220.830 180.432 L 221.918 180.270 L 222.997 180.052 L 224.060 179.772 L 225.088 179.381 L 226.061 178.867 L 226.962 178.236 L 227.829 177.559 L 228.713 176.905 L 229.612 176.270 L 230.511 175.637 L 231.398 174.985 L 232.257 174.299 L 233.087 173.577 L 233.886 172.821 L 234.649 172.029 L 235.377 171.204 L 236.071 170.350 L 236.728 169.468 L 237.366 168.572 L 238.006 167.678 L 238.670 166.800 L 239.347 165.933 L 239.981 165.035 L 240.496 164.063 L 240.883 163.033 L 241.162 161.969 L 241.365 160.888 L 241.493 159.795 L 241.542 158.696 L 241.572 157.597 L 241.598 156.497 L 241.620 155.397 L 241.638 154.297 L 241.651 153.198 L 241.660 152.098 L 241.662 150.998 L 241.659 149.898 L 241.651 148.798 L 241.638 147.698 L 241.620 146.598 L 241.598 145.498 L 241.573 144.398 L 241.546 143.299 L 241.494 142.200 L 241.365 141.108 L 241.158 140.027 L 240.867 138.966 L 240.456 137.946 L 239.910 136.991 L 239.294 136.080 L 238.646 135.191 L 238.018 134.288 L 237.406 133.374 L 236.784 132.467 L 236.129 131.583 L 235.441 130.724 L 234.714 129.899 L 233.942 129.116 L 233.124 128.379 L 232.268 127.689 L 231.387 127.031 L 230.475 126.416 L 229.544 125.830 L 228.614 125.242 L 227.707 124.620 L 226.792 124.009 L 225.841 123.456 L 224.840 123.000 L 223.789 122.677 L 222.712 122.453 L 221.618 122.332 L 220.518 122.323 L 219.419 122.369 L 218.320 122.416 L 217.221 122.465 L 216.122 122.513 L 215.023 122.552 L 213.923 122.578 L 212.824 122.589 L 211.724 122.585 L 210.624 122.567 L 209.524 122.536 L 208.425 122.494 L 207.326 122.448 L 206.227 122.403 L 205.128 122.358 L 204.029 122.316 L 202.930 122.380 L 201.844 122.552 L 200.781 122.834 L 199.751 123.220 L 198.772 123.722 L 197.833 124.295 L 196.905 124.885 L 195.944 125.422 L 194.984 125.958 L 194.046 126.532 L 193.144 127.162 L 192.269 127.829 L 191.430 128.540 L 190.646 129.312 L 189.927 130.144 L 189.255 131.015 L 188.622 131.915 L 188.078 132.871 L 187.678 133.895 L 187.334 134.940 L 186.796 135.900 L 186.237 136.847 L 185.750 137.834 L 185.390 138.873 L 185.155 139.947 L 185.070 141.044 L 185.184 142.138 L 185.435 143.209 L 186.442 142.766 L 186.874 141.755 L 187.117 140.682 L 187.274 139.593 L 187.368 138.497 L 187.609 137.424 L 188.286 136.557 L 189.071 135.786 L 189.883 135.044 L 190.654 134.259 L 191.339 133.399 L 192.020 132.535 L 192.789 131.748 L 193.632 131.042 L 194.522 130.395 L 195.366 129.690 L 196.109 128.879 L 196.870 128.084 L 197.125 127.014 L 196.082 126.665 L 195.029 126.983 L 194.070 127.520 L 193.161 128.139 L 192.275 128.792 L 191.449 129.519 L 190.757 130.374 L 190.113 131.265 L 189.520 132.192 L 190.314 132.954 L 191.098 132.182 L 191.827 131.358 L 192.555 130.534 L 193.391 129.819 L 194.179 129.051 L 193.176 128.600 L 192.258 129.206 L 191.361 129.842 L 190.561 130.598 L 189.910 131.485 L 189.271 132.380 L 188.692 133.315 L 188.274 134.333 L 188.508 135.407 L 189.602 135.295 L 190.411 134.549 L 191.220 133.803 L 191.911 132.948 L 192.568 132.065 L 193.309 131.253 L 194.128 130.518 L 195.015 129.868 L 195.875 129.182 L 196.646 128.397 L 197.417 127.612 L 198.237 126.880 L 199.178 126.310 L 200.266 126.150 L 201.359 126.023 L 202.445 125.848 L 203.513 125.585 L 204.504 125.108 L 204.714 124.028 L 203.632 123.829 L 202.537 123.724 L 201.440 123.801 L 200.362 124.021 L 199.316 124.360 L 198.318 124.823 L 197.363 125.370 L 196.411 125.921 L 195.396 126.343 L 194.365 126.728 L 193.394 127.245 L 192.481 127.859 L 191.600 128.517 L 190.751 129.216 L 189.959 129.980 L 189.229 130.802 L 188.549 131.667 L 187.900 132.555 L 187.310 133.483 L 186.763 134.438 L 186.227 135.399 L 185.632 136.324 L 185.043 137.253 L 184.517 138.219 L 184.103 139.238 L 183.801 140.296 L 183.611 141.379 L 183.533 142.476 L 183.574 143.576 L 183.621 144.675 L 183.670 145.774 L 183.719 146.872 L 183.765 147.971 L 183.799 149.071 L 183.819 150.171 L 183.823 151.271 L 183.812 152.371 L 183.784 153.470 L 183.743 154.570 L 183.691 155.668 L 183.639 156.767 L 183.588 157.866 L 183.538 158.965 L 183.552 160.065 L 183.683 161.157 L 183.921 162.231 L 184.264 163.276 L 184.740 164.268 L 185.312 165.207 L 185.937 166.113 L 186.565 167.015 L 187.157 167.942 L 187.754 168.867 L 188.383 169.769 L 189.056 170.639 L 189.762 171.483 L 190.515 172.285 L 191.313 173.041 L 192.152 173.753 L 193.021 174.427 L 193.917 175.066 L 194.832 175.676 L 195.752 176.279 L 196.658 176.903 L 197.556 177.538 L 198.479 178.136 L 199.446 178.662 L 200.476 179.047 L 201.541 179.320 L 202.624 179.515 L 203.718 179.634 L 204.817 179.679 L 205.916 179.706 L 207.016 179.730 L 208.116 179.750 L 209.216 179.767 L 210.316 179.780 L 211.416 179.788 L 212.516 179.791 L 213.616 179.788 L 214.716 179.780 L 215.816 179.768 L 216.915 179.751 L 218.015 179.729 L 219.115 179.705 L 220.215 179.677 L 221.314 179.634 L 222.407 179.516 L 223.491 179.327 L 224.559 179.064 L 225.598 178.703 L 226.584 178.216 L 227.502 177.610 L 228.381 176.948 L 229.262 176.290 L 230.162 175.657 L 231.066 175.030 L 231.959 174.387 L 232.829 173.714 L 233.667 173.002 L 234.474 172.255 L 235.247 171.472 L 235.985 170.656 L 236.693 169.814 L 237.360 168.940 L 238.006 168.049 L 238.650 167.157 L 239.311 166.278 L 240.001 165.422 L 240.663 164.543 L 241.206 163.586 L 241.624 162.569 L 241.927 161.511 L 242.158 160.436 L 242.332 159.350 L 242.453 158.257 L 242.532 157.159 L 242.606 156.062 L 242.672 154.964 L 242.730 153.865 L 242.778 152.766 L 242.811 151.667 L 242.828 150.567 L 242.829 149.467 L 242.814 148.367 L 242.783 147.268 L 242.737 146.169 L 242.679 145.070 L 242.611 143.972 L 242.536 142.875 L 242.455 141.778 L 242.339 140.684 L 242.173 139.597 L 241.953 138.519 L 241.676 137.454 L 241.297 136.421 L 240.807 135.437 L 240.203 134.517 L 239.510 133.663 L 238.828 132.800 L 238.168 131.920 L 237.515 131.035 L 236.853 130.156 L 236.161 129.301 L 235.429 128.480 L 234.667 127.687 L 233.877 126.921 L 233.061 126.184 L 232.213 125.483 L 231.336 124.819 L 230.445 124.175 L 229.553 123.530 L 228.672 122.871 L 227.812 122.186 L 226.920 121.543 L 225.957 121.010 L 224.940 120.591 L 223.887 120.274 L 222.813 120.033 M 204.875 127.038 L 205.966 126.897 L 207.061 126.789 L 208.157 126.701 L 209.256 126.639 L 210.355 126.603 L 211.455 126.591 L 212.555 126.603 L 213.654 126.639 L 214.753 126.700 L 215.849 126.791 L 216.942 126.913 L 218.030 127.077 L 219.107 127.298 L 220.169 127.585 L 221.220 127.912 L 222.259 128.272 L 223.290 128.655 L 224.310 129.066 L 225.307 129.533 L 226.279 130.047 L 227.232 130.597 L 228.116 131.251 L 229.000 131.906 L 229.837 132.619 L 230.627 133.385 L 231.365 134.201 L 232.042 135.067 L 232.621 136.003 L 233.165 136.959 L 233.661 137.941 L 234.098 138.950 L 234.488 139.979 L 234.854 141.016 L 235.188 142.064 L 235.480 143.125 L 235.713 144.200 L 235.884 145.286 L 236.009 146.379 L 236.104 147.475 L 236.176 148.573 L 236.221 149.672 L 236.239 150.772 L 236.233 151.872 L 236.200 152.971 L 236.139 154.070 L 236.051 155.166 L 235.947 156.261 L 235.818 157.354 L 235.646 158.440 L 235.418 159.516 L 235.147 160.582 L 234.835 161.637 L 234.488 162.681 L 234.095 163.708 L 233.618 164.699 L 233.059 165.647 L 232.434 166.552 L 231.786 167.441 L 231.122 168.318 L 230.385 169.134 L 229.582 169.887 L 228.718 170.567 L 227.817 171.199 L 226.936 171.858 L 226.022 172.469 L 225.060 173.003 L 224.048 173.434 L 222.997 173.759 L 221.932 174.034 L 220.855 174.255 L 219.769 174.429 L 218.683 174.607 L 217.595 174.771 L 216.506 174.922 L 215.414 175.059 L 214.320 175.175 L 213.223 175.255 L 212.124 175.298 L 211.024 175.302 L 209.925 175.267 L 208.827 175.191 L 207.734 175.075 L 206.643 174.929 L 205.555 174.768 L 204.469 174.592 L 203.386 174.403 L 202.301 174.219 L 201.217 174.032 L 200.143 173.795 L 199.081 173.508 L 198.056 173.108 L 197.103 172.560 L 196.237 171.880 L 195.428 171.135 L 194.569 170.449 L 193.674 169.810 L 192.835 169.098 L 192.069 168.308 L 191.387 167.445 L 190.708 166.579 L 189.952 165.781 L 189.184 164.993 L 188.473 164.154 L 187.902 163.214 L 187.583 162.161 L 187.401 161.076 L 187.213 159.992 L 186.968 158.920 L 186.583 157.890 L 185.909 157.021 M 233.246 157.309 L 232.784 158.307 L 232.309 159.300 L 231.831 160.290 L 231.337 161.273 L 230.805 162.236 L 230.207 163.159 L 229.545 164.038 L 228.826 164.870 L 228.061 165.661 L 227.297 166.451 L 226.492 167.202 L 225.646 167.905 L 224.755 168.550 L 223.820 169.130 L 222.849 169.647 L 221.860 170.128 L 220.865 170.596 L 219.868 171.060 L 218.863 171.509 L 217.835 171.900 L 216.787 172.233" fill="none" stroke="#EC008C" stroke-width="1" vector-effect="non-scaling-stroke"/></svg>