<svg xmlns="http://www.w3.org/2000/svg" viewBox="172.17133278779477 110.2917431758628 79.10178539322953 78.26008759080325" width="79.10178539322953" height="78.26008759080325" shape-rendering="geometricPrecision"><rect x="172.17133278779477" y="110.2917431758628" width="79.10178539322953" height="78.26008759080325" fill="#0b0f14"/><path d="M 199.000 118.292 L 197.815 118.478 L 196.690 118.897 L 195.706 119.584 L 194.783 120.350 L 193.819 121.065 L 192.839 121.758 L 191.855 122.444 L 190.832 123.071 L 189.777 123.643 L 188.775 124.303 L 187.851 125.069 L 186.980 125.895 L 186.161 126.772 L 185.440 127.731 L 184.919 128.812 L 184.354 129.871 L 183.698 130.876 L 182.994 131.847 L 182.315 132.837 L 181.550 133.761 L 180.830 134.721 L 180.311 135.803 L 180.171 136.995 L 180.465 138.159 L 180.714 139.333 L 180.893 140.519 L 180.979 141.716 L 180.951 142.916 L 182.148 142.826 L 182.733 141.778 L 182.826 140.582 L 182.894 139.384 L 182.988 138.188 L 183.115 136.994 L 183.304 135.809 L 183.274 134.610 L 183.802 133.532 L 184.622 132.656 L 185.507 131.846 L 186.345 130.987 L 187.101 130.055 L 187.934 129.191 L 188.800 128.360 L 189.652 127.515 L 190.589 126.765 L 191.535 126.027 L 192.396 125.191 L 193.191 124.293 L 194.239 123.707 L 195.287 123.122 L 196.470 122.922 L 197.657 122.745 L 198.850 122.616 L 200.048 122.548 L 201.247 122.509 L 202.447 122.503 L 203.615 122.227 L 204.641 121.604 L 205.684 121.012 L 206.832 120.661 L 208.017 120.473 L 209.208 120.325 L 210.403 120.215 L 211.602 120.177 L 212.802 120.195 L 214.000 120.274 L 215.193 120.398 L 216.386 120.529 L 217.568 120.738 L 216.534 121.348 L 217.685 121.689 L 218.760 122.222 L 219.783 122.848 L 220.946 123.145 L 222.146 123.132 L 223.346 123.125 L 224.546 123.139 L 225.741 123.241 L 226.926 123.433 L 228.097 123.695 L 229.150 124.271 L 229.959 125.157 L 230.818 125.995 L 231.761 126.737 L 232.701 127.482 L 233.557 128.324 L 234.422 129.156 L 235.259 130.016 L 236.011 130.950 L 236.846 131.813 L 237.730 132.624 L 238.553 133.498 L 239.265 134.464 L 238.761 135.553 L 238.955 136.737 L 239.078 137.930 L 239.133 139.129 L 239.162 140.329 L 239.154 141.529 L 239.547 142.662 L 240.264 143.625 L 240.789 144.704 L 241.095 145.864 L 241.291 147.048 L 241.451 148.237 L 241.538 149.434 L 241.550 150.634 L 241.496 151.833 L 241.364 153.026 L 241.214 154.216 L 241.027 155.402 L 240.376 156.410 L 239.202 156.165 L 238.578 157.190 L 238.067 158.276 L 237.872 159.460 L 237.895 160.660 L 237.928 161.859 L 237.908 163.059 L 237.762 164.250 L 237.504 165.422 L 237.057 166.536 L 236.345 167.502 L 235.562 168.411 L 234.822 169.355 L 234.061 170.284 L 233.211 171.131 L 232.350 171.967 L 231.466 172.779 L 230.496 173.485 L 229.559 174.234 L 228.648 175.016 L 227.677 175.720 L 226.560 176.160 L 225.377 176.357 L 224.189 176.529 L 222.993 176.622 L 221.793 176.656 L 220.593 176.672 L 219.394 176.717 L 218.270 177.138 L 217.276 177.810 L 216.166 178.266 L 214.999 178.547 L 213.815 178.740 L 212.625 178.897 L 211.428 178.980 L 210.228 178.992 L 209.029 178.940 L 207.836 178.815 L 206.646 178.663 L 205.461 178.473 L 204.338 178.050 L 204.746 176.921 L 203.688 176.356 L 202.620 175.807 L 201.453 175.530 L 200.253 175.548 L 199.053 175.575 L 197.853 175.593 L 196.656 175.505 L 195.474 175.302 L 194.317 174.983 L 193.272 174.393 L 192.325 173.656 L 191.382 172.914 L 190.393 172.234 L 189.482 171.453 L 188.625 170.613 L 187.757 169.785 L 186.956 168.891 L 186.202 167.957 L 185.388 167.075 L 184.576 166.192 L 183.941 165.174 L 183.669 164.005 L 183.477 162.821 L 183.338 161.629 L 183.270 160.431 L 183.237 159.231 L 183.237 158.031 L 182.919 156.874 L 182.258 155.873 L 181.701 154.810 L 181.359 153.660 L 181.148 152.478 L 180.982 151.290 L 180.879 150.094 L 180.854 148.895 L 180.897 147.695 L 181.015 146.501 L 181.164 145.310 L 181.345 144.124 L 181.791 143.010 L 182.651 143.846 L 183.131 142.746 L 183.802 141.751 L 184.220 140.626 L 184.279 139.428 L 184.257 138.228 L 184.230 137.028 L 184.298 135.830 L 184.495 134.647 L 184.788 133.483 L 185.342 132.419 L 186.122 131.506 L 186.931 130.621 L 187.674 129.678 L 188.460 128.772 L 189.331 127.946 L 190.189 127.107 L 191.087 126.311 L 192.050 125.595 L 192.955 124.807 L 193.836 123.992 L 194.826 123.313 L 195.975 122.968 L 197.163 122.799 L 198.352 122.638 L 199.548 122.545 L 200.747 122.495 L 201.947 122.471 L 203.142 122.363 L 204.237 121.871 L 205.232 121.200 L 206.337 120.734 L 207.517 120.513 L 208.707 120.359 L 209.899 120.222 L 211.097 120.157 L 212.297 120.153 L 213.496 120.204 L 214.691 120.321 L 215.884 120.442 L 217.077 120.578 L 217.961 121.390 L 218.590 122.411 L 219.619 123.029 L 220.772 123.362 L 221.972 123.347 L 223.172 123.332 L 224.372 123.320 L 225.569 123.403 L 226.754 123.594 L 227.924 123.859 L 228.996 124.398 L 229.899 125.188 L 230.777 126.006 L 231.725 126.742 L 232.667 127.485 L 233.527 128.323 L 234.392 129.155 L 235.229 130.014 L 235.976 130.954 L 236.800 131.826 L 237.668 132.654 L 238.455 133.560 L 238.954 134.651 L 239.045 135.848 L 239.232 137.033 L 239.354 138.227 L 239.438 139.424 L 239.493 140.623 L 239.596 141.819 L 240.163 142.876 L 241.211 143.460 L 241.421 142.279 L 241.446 141.079 L 241.585 139.887 L 241.803 138.707 L 242.079 137.539 L 242.154 136.342 L 241.790 135.198 L 241.141 134.189 L 240.376 133.264 L 239.672 132.293 L 238.980 131.312 L 238.291 130.330 L 237.693 129.289 L 237.165 128.212 L 236.518 127.201 L 235.735 126.292 L 234.886 125.443 L 233.988 124.648 L 233.020 123.939 L 231.971 123.355 L 230.930 122.758 L 229.927 122.100 L 228.950 121.403 L 227.969 120.711 L 227.038 119.955 L 226.085 119.225 L 225.013 118.685 L 223.845 118.412 L 222.647 118.347 L 221.447 118.368 M 227.102 180.552 L 227.987 179.741 L 228.929 178.998 L 229.901 178.294 L 230.867 177.582 L 231.854 176.900 L 232.871 176.262 L 233.859 175.581 L 234.775 174.806 L 235.652 173.986 L 236.490 173.127 L 237.327 172.268 L 238.113 171.361 L 238.802 170.379 L 239.477 169.387 L 240.200 168.429 L 240.940 167.484 L 241.680 166.539 L 242.471 165.637 L 243.273 164.745" fill="none" stroke="#2dd4bf" stroke-width="1" vector-effect="non-scaling-stroke"/><path d="M 238.402 170.949 L 236.536 173.044 M 236.536 173.044 L 236.188 173.436 M 239.213 168.713 L 238.659 169.307 M 238.659 169.307 L 236.536 171.681 M 236.536 171.681 L 234.413 174.129 M 234.413 174.129 L 232.309 176.614 M 231.946 175.817 L 230.168 177.942 M 230.168 177.942 L 229.841 178.337 M 187.709 125.328 L 187.304 125.824 M 187.304 125.824 L 185.615 127.983 M 185.615 127.983 L 184.781 129.071 M 232.291 171.500 L 230.980 173.133 M 184.156 165.520 L 184.830 166.468 M 228.045 175.437 L 228.009 175.479 M 189.832 125.259 L 189.379 125.824 M 189.379 125.824 L 187.719 127.983 M 187.719 127.983 L 186.132 130.143 M 183.479 162.837 L 184.683 164.697 M 184.683 164.697 L 185.587 165.969 M 185.587 165.969 L 186.191 166.857 M 186.191 166.857 L 187.709 168.933 M 187.709 168.933 L 187.770 169.017 M 187.770 169.017 L 189.409 171.176 M 189.409 171.176 L 189.832 171.713 M 189.832 171.713 L 189.933 171.839 M 241.440 152.338 L 240.994 153.899 M 230.168 171.549 L 228.045 174.185 M 228.045 174.185 L 226.327 176.198 M 181.341 140.273 L 181.024 140.941 M 181.024 140.941 L 180.940 141.174 M 183.281 160.620 L 183.464 160.917 M 183.464 160.917 L 184.395 162.538 M 184.395 162.538 L 185.587 164.377 M 185.587 164.377 L 185.785 164.697 M 185.785 164.697 L 187.255 166.857 M 187.255 166.857 L 187.709 167.479 M 187.709 167.479 L 188.814 169.017 M 188.814 169.017 L 189.832 170.358 M 189.832 170.358 L 190.457 171.176 M 190.457 171.176 L 191.955 173.059 M 191.955 173.059 L 192.183 173.336 M 192.183 173.336 L 192.698 173.947 M 239.611 143.101 L 240.162 145.261 M 240.162 145.261 L 240.438 147.420 M 240.438 147.420 L 240.438 149.580 M 240.438 149.580 L 240.170 151.739 M 240.170 151.739 L 239.640 153.899 M 239.640 153.899 L 238.856 156.059 M 228.045 172.891 L 225.922 175.448 M 225.922 175.448 L 225.049 176.405 M 182.893 139.400 L 182.236 140.941 M 182.236 140.941 L 181.608 142.866 M 181.078 151.978 L 181.341 153.046 M 181.341 153.046 L 181.530 153.899 M 181.530 153.899 L 182.050 155.476 M 183.237 158.332 L 183.464 158.761 M 183.464 158.761 L 184.262 160.378 M 184.262 160.378 L 185.505 162.538 M 185.505 162.538 L 185.587 162.664 M 185.587 162.664 L 186.849 164.697 M 186.849 164.697 L 187.709 165.962 M 187.709 165.962 L 188.308 166.857 M 188.308 166.857 L 189.832 168.980 M 189.832 168.980 L 189.859 169.017 M 189.859 169.017 L 191.509 171.176 M 191.509 171.176 L 191.955 171.738 M 191.955 171.738 L 193.269 173.336 M 193.269 173.336 L 194.078 174.295 M 194.078 174.295 L 194.819 175.121 M 225.922 174.141 L 223.799 176.508 M 223.799 176.508 L 223.744 176.564 M 182.565 143.762 L 182.233 145.261 M 182.233 145.261 L 181.991 147.420 M 181.991 147.420 L 181.989 149.580 M 181.989 149.580 L 182.230 151.739 M 182.230 151.739 L 182.710 153.899 M 182.710 153.899 L 183.424 156.059 M 183.424 156.059 L 183.464 156.149 M 183.464 156.149 L 184.301 158.218 M 184.301 158.218 L 185.369 160.378 M 185.369 160.378 L 185.587 160.757 M 185.587 160.757 L 186.570 162.538 M 186.570 162.538 L 187.709 164.372 M 187.709 164.372 L 187.908 164.697 M 187.908 164.697 L 189.352 166.857 M 189.352 166.857 L 189.832 167.526 M 189.832 167.526 L 190.911 169.017 M 190.911 169.017 L 191.955 170.384 M 191.955 170.384 L 192.580 171.176 M 192.580 171.176 L 194.078 172.999 M 194.078 172.999 L 194.372 173.336 M 194.372 173.336 L 196.201 175.376 M 196.201 175.376 L 196.261 175.437 M 237.632 145.261 L 237.881 147.420 M 237.881 147.420 L 237.883 149.580 M 237.883 149.580 L 237.643 151.739 M 237.643 151.739 L 237.168 153.899 M 230.168 167.440 L 228.045 170.339 M 228.045 170.339 L 225.922 172.927 M 225.922 172.927 L 223.799 175.280 M 223.799 175.243 L 222.430 176.638 M 185.587 138.337 L 185.372 138.782 M 185.372 138.782 L 184.516 140.941 M 184.516 140.941 L 183.861 143.101 M 235.315 140.941 L 235.996 143.101 M 235.996 143.101 L 236.454 145.261 M 236.454 145.261 L 236.536 146.030 M 183.464 145.030 L 183.413 145.261 M 183.413 145.261 L 183.169 147.420 M 183.169 147.420 L 183.167 149.580 M 183.167 149.580 L 183.409 151.739 M 183.409 151.739 L 183.464 151.987 M 183.464 151.987 L 183.861 153.899 M 183.861 153.899 L 184.528 156.059 M 184.528 156.059 L 185.405 158.218 M 185.405 158.218 L 185.587 158.586 M 185.587 158.586 L 186.438 160.378 M 186.438 160.378 L 187.632 162.538 M 187.632 162.538 L 187.709 162.663 M 187.709 162.663 L 188.952 164.697 M 188.952 164.697 L 189.832 166.014 M 189.832 166.014 L 190.400 166.857 M 190.400 166.857 L 191.955 169.008 M 236.466 151.739 L 236.026 153.899 M 236.026 153.899 L 235.373 156.059 M 235.373 156.059 L 234.516 158.218 M 193.666 171.176 L 194.078 171.678 M 194.078 171.678 L 195.526 173.336 M 195.526 173.336 L 196.201 174.089 M 196.201 174.089 L 197.584 175.496 M 197.584 175.496 L 197.667 175.579 M 225.922 171.574 L 223.799 173.990 M 223.799 173.990 L 221.676 176.141 M 221.676 176.141 L 221.087 176.665 M 187.709 136.102 L 187.428 136.622 M 187.428 136.622 L 186.429 138.782 M 186.429 138.782 L 185.612 140.941 M 185.587 141.027 L 184.957 143.101 M 184.957 143.101 L 184.512 145.261 M 184.512 145.261 L 184.286 147.420 M 184.286 147.420 L 184.284 149.580 M 184.284 149.580 L 184.509 151.739 M 184.509 151.739 L 184.960 153.899 M 184.960 153.899 L 185.587 155.920 M 185.587 155.920 L 185.628 156.059 M 185.628 156.059 L 186.470 158.218 M 186.470 158.218 L 187.498 160.378 M 187.498 160.378 L 187.709 160.761 M 187.709 160.761 L 188.676 162.538 M 188.676 162.538 L 189.832 164.430 M 189.832 164.430 L 189.997 164.697 M 189.997 164.697 L 191.452 166.857 M 191.452 166.857 L 191.955 167.554 M 191.955 167.554 L 193.048 169.017 M 193.048 169.017 L 194.078 170.323 M 194.078 170.323 L 194.794 171.176 M 194.794 171.176 L 196.201 172.788 M 196.201 172.788 L 196.726 173.336 M 196.726 173.336 L 198.324 174.961 M 198.324 174.961 L 198.924 175.496 M 198.924 175.496 L 199.014 175.575 M 235.360 145.261 L 235.591 147.420 M 235.591 147.420 L 235.594 149.580 M 235.594 149.580 L 235.372 151.739 M 235.372 151.739 L 234.931 153.899 M 223.799 172.701 L 221.676 174.905 M 221.676 174.905 L 219.630 176.708 M 187.709 138.280 L 187.478 138.782 M 187.478 138.782 L 186.659 140.941 M 186.659 140.941 L 186.032 143.101 M 186.032 143.101 L 185.607 145.261 M 233.185 140.941 L 233.835 143.101 M 233.835 143.101 L 234.273 145.261 M 234.273 145.261 L 234.413 146.637 M 185.587 145.460 L 185.381 147.420 M 185.381 147.420 L 185.380 149.580 M 185.380 149.580 L 185.587 151.553 M 185.587 151.553 L 185.605 151.739 M 185.605 151.739 L 186.038 153.899 M 186.038 153.899 L 186.683 156.059 M 186.683 156.059 L 187.528 158.218 M 187.528 158.218 L 187.709 158.600 M 187.709 158.600 L 188.543 160.378 M 188.543 160.378 L 189.719 162.538 M 189.719 162.538 L 189.832 162.723 M 189.832 162.723 L 191.047 164.697 M 191.047 164.697 L 191.955 166.045 M 191.955 166.045 L 192.520 166.857 M 192.520 166.857 L 194.078 168.943 M 194.078 168.943 L 194.137 169.017 M 194.137 169.017 L 195.947 171.176 M 195.947 171.176 L 196.201 171.467 M 196.201 171.467 L 197.991 173.336 M 197.991 173.336 L 198.324 173.674 M 198.324 173.674 L 200.367 175.496 M 200.367 175.496 L 200.423 175.545 M 214.517 178.625 L 215.307 178.310 M 215.307 178.310 L 216.444 177.655 M 234.286 151.739 L 233.865 153.899 M 233.865 153.899 L 233.241 156.059 M 233.241 156.059 L 232.421 158.218 M 194.078 129.328 L 193.464 130.143 M 193.464 130.143 L 191.960 132.303 M 191.960 132.303 L 190.646 134.462 M 187.080 143.101 L 186.654 145.261 M 186.654 145.261 L 186.438 147.420 M 186.438 147.420 L 186.437 149.580 M 186.437 149.580 L 186.655 151.739 M 186.655 151.739 L 187.090 153.899 M 187.090 153.899 L 187.709 155.966 M 187.709 155.966 L 187.737 156.059 M 187.737 156.059 L 188.570 158.218 M 188.570 158.218 L 189.584 160.378 M 189.584 160.378 L 189.832 160.834 M 189.832 160.834 L 190.768 162.538 M 190.768 162.538 L 191.955 164.466 M 191.955 164.466 L 192.103 164.697 M 192.103 164.697 L 193.605 166.857 M 193.605 166.857 L 194.078 167.490 M 194.078 167.490 L 195.289 169.017 M 195.289 169.017 L 196.201 170.105 M 196.201 170.105 L 197.187 171.176 M 197.187 171.176 L 198.324 172.364 M 198.324 172.364 L 199.387 173.336 M 199.387 173.336 L 200.447 174.281 M 200.447 174.281 L 202.082 175.496 M 202.082 175.496 L 202.451 175.767 M 204.694 177.063 L 206.219 177.655 M 206.219 177.655 L 206.816 177.888 M 206.816 177.888 L 208.939 178.307 M 208.939 178.307 L 211.061 178.306 M 211.061 178.306 L 213.184 177.878 M 213.184 177.878 L 213.752 177.655 M 233.232 145.261 L 233.453 147.420 M 233.453 147.420 L 233.456 149.580 M 233.456 149.580 L 233.245 151.739 M 233.245 151.739 L 232.824 153.899 M 189.832 138.135 L 189.538 138.782 M 189.538 138.782 L 188.735 140.941 M 188.735 140.941 L 188.119 143.101 M 231.126 140.941 L 231.764 143.101 M 231.764 143.101 L 232.193 145.261 M 232.193 145.261 L 232.291 146.230 M 187.709 145.217 L 187.701 145.261 M 187.701 145.261 L 187.485 147.420 M 187.485 147.420 L 187.485 149.580 M 187.485 149.580 L 187.705 151.739 M 187.705 151.739 L 187.709 151.762 M 187.709 151.762 L 188.135 153.899 M 188.135 153.899 L 188.773 156.059 M 188.773 156.059 L 189.609 158.218 M 189.609 158.218 L 189.832 158.695 M 189.832 158.695 L 190.630 160.378 M 190.630 160.378 L 191.817 162.538 M 191.817 162.538 L 191.955 162.762 M 191.955 162.762 L 193.186 164.697 M 193.186 164.697 L 194.078 165.979 M 194.078 165.979 L 194.727 166.857 M 194.727 166.857 L 196.201 168.715 M 196.201 168.715 L 196.464 169.017 M 196.464 169.017 L 198.324 171.039 M 198.324 171.039 L 198.469 171.176 M 198.469 171.176 L 200.447 172.987 M 200.447 172.987 L 200.906 173.336 M 200.906 173.336 L 202.570 174.573 M 202.570 174.573 L 204.176 175.496 M 204.176 175.496 L 204.693 175.790 M 204.693 175.790 L 206.816 176.614 M 206.816 176.614 L 208.939 177.032 M 208.939 177.032 L 211.061 177.032 M 211.061 177.032 L 213.184 176.612 M 213.184 176.612 L 215.307 175.783 M 215.307 175.783 L 215.806 175.496 M 232.207 151.739 L 231.794 153.899 M 231.794 153.899 L 231.181 156.059 M 231.181 156.059 L 230.375 158.218 M 196.201 129.535 L 195.713 130.143 M 195.713 130.143 L 194.110 132.303 M 194.110 132.303 L 192.746 134.462 M 189.832 140.752 L 189.762 140.941 M 189.762 140.941 L 189.146 143.101 M 189.146 143.101 L 188.728 145.261 M 188.728 145.261 L 188.517 147.420 M 188.517 147.420 L 188.518 149.580 M 188.518 149.580 L 188.736 151.739 M 188.736 151.739 L 189.168 153.899 M 189.168 153.899 L 189.809 156.059 M 231.175 145.261 L 231.392 147.420 M 231.392 147.420 L 231.397 149.580 M 231.397 149.580 L 231.190 151.739 M 231.190 151.739 L 230.776 153.899 M 190.652 158.218 L 191.678 160.378 M 191.678 160.378 L 191.955 160.883 M 191.955 160.883 L 192.895 162.538 M 192.895 162.538 L 194.078 164.396 M 194.078 164.396 L 194.282 164.697 M 194.282 164.697 L 195.878 166.857 M 195.878 166.857 L 196.201 167.264 M 196.201 167.264 L 197.726 169.017 M 197.726 169.017 L 198.324 169.667 M 198.324 169.667 L 199.909 171.176 M 199.909 171.176 L 200.447 171.669 M 200.447 171.669 L 202.570 173.286 M 202.570 173.286 L 202.654 173.336 M 202.654 173.336 L 204.693 174.509 M 204.693 174.509 L 206.816 175.341 M 206.816 175.341 L 207.593 175.496 M 207.593 175.496 L 208.939 175.762 M 208.939 175.762 L 211.061 175.764 M 211.061 175.764 L 212.418 175.496 M 223.799 167.326 L 221.676 169.738 M 221.676 169.738 L 219.553 171.702 M 219.553 171.702 L 220.111 171.176 M 191.955 138.019 L 191.605 138.782 M 191.605 138.782 L 190.795 140.941 M 190.795 140.941 L 190.175 143.101 M 229.081 140.941 L 229.724 143.101 M 229.724 143.101 L 230.157 145.261 M 230.157 145.261 L 230.168 145.366 M 189.832 144.861 L 189.755 145.261 M 189.755 145.261 L 189.544 147.420 M 189.544 147.420 L 189.547 149.580 M 189.547 149.580 L 189.766 151.739 M 189.766 151.739 L 189.832 152.070 M 189.832 152.070 L 190.203 153.899 M 190.203 153.899 L 190.851 156.059 M 190.851 156.059 L 191.698 158.218 M 191.698 158.218 L 191.955 158.761 M 191.955 158.761 L 192.750 160.378 M 192.750 160.378 L 193.978 162.538 M 193.978 162.538 L 194.078 162.696 M 194.078 162.696 L 195.431 164.697 M 195.431 164.697 L 196.201 165.740 M 196.201 165.740 L 197.107 166.857 M 197.107 166.857 L 198.324 168.256 M 198.324 168.256 L 199.079 169.017 M 199.079 169.017 L 200.447 170.320 M 200.447 170.320 L 201.527 171.176 M 201.527 171.176 L 202.570 171.972 M 202.570 171.972 L 204.693 173.223 M 204.693 173.223 L 204.975 173.336 M 204.975 173.336 L 206.816 174.059 M 206.816 174.059 L 208.939 174.484 M 208.939 174.484 L 211.061 174.489 M 211.061 174.489 L 213.184 174.085 M 213.184 174.085 L 215.071 173.336 M 221.676 168.332 L 219.553 170.440 M 219.553 170.440 L 217.430 172.031 M 217.430 172.031 L 218.521 171.176 M 191.955 140.602 L 191.828 140.941 M 191.828 140.941 L 191.207 143.101 M 191.207 143.101 L 190.787 145.261 M 190.787 145.261 L 190.576 147.420 M 190.576 147.420 L 190.580 149.580 M 190.580 149.580 L 190.802 151.739 M 190.802 151.739 L 191.243 153.899 M 191.243 153.899 L 191.894 156.059 M 191.894 156.059 L 191.955 156.215 M 191.955 156.215 L 192.768 158.218 M 192.768 158.218 L 193.830 160.378 M 193.830 160.378 L 194.078 160.815 M 194.078 160.815 L 195.118 162.538 M 195.118 162.538 L 196.201 164.139 M 196.201 164.139 L 196.615 164.697 M 196.615 164.697 L 198.324 166.806 M 198.324 166.806 L 198.371 166.857 M 198.371 166.857 L 200.447 168.949 M 200.447 168.949 L 200.528 169.017 M 200.528 169.017 L 202.570 170.638 M 202.570 170.638 L 203.448 171.176 M 203.448 171.176 L 204.693 171.911 M 204.693 171.911 L 206.816 172.766 M 206.816 172.766 L 208.939 173.203 M 208.939 173.203 L 211.061 173.211 M 211.061 173.211 L 213.184 172.790 M 213.184 172.790 L 215.307 171.976 M 215.307 171.976 L 216.633 171.176 M 228.699 143.101 L 229.134 145.261 M 229.134 145.261 L 229.354 147.420 M 229.354 147.420 L 229.359 149.580 M 229.359 149.580 L 229.151 151.739 M 229.151 151.739 L 228.735 153.899 M 228.735 153.899 L 228.116 156.059 M 194.078 138.049 L 193.730 138.782 M 193.730 138.782 L 192.890 140.941 M 192.890 140.941 L 192.249 143.101 M 191.955 144.563 L 191.820 145.261 M 191.820 145.261 L 191.609 147.420 M 191.609 147.420 L 191.614 149.580 M 191.614 149.580 L 191.839 151.739 M 191.839 151.739 L 191.955 152.307 M 191.955 152.307 L 192.292 153.899 M 192.292 153.899 L 192.967 156.059 M 192.967 156.059 L 193.846 158.218 M 193.846 158.218 L 194.078 158.691 M 194.078 158.691 L 194.960 160.378 M 194.960 160.378 L 196.201 162.433 M 196.201 162.433 L 196.271 162.538 M 196.271 162.538 L 197.870 164.697 M 197.870 164.697 L 198.324 165.257 M 198.324 165.257 L 199.801 166.857 M 199.801 166.857 L 200.447 167.508 M 200.447 167.508 L 202.245 169.017 M 202.245 169.017 L 202.570 169.275 M 202.570 169.275 L 204.693 170.579 M 204.693 170.579 L 206.116 171.176 M 206.116 171.176 L 206.816 171.459 M 206.816 171.459 L 208.939 171.899 M 208.939 171.899 L 211.061 171.911 M 211.061 171.911 L 213.184 171.504 M 213.184 171.504 L 213.989 171.176 M 194.078 140.629 L 193.957 140.941 M 193.957 140.941 L 193.314 143.101 M 193.314 143.101 L 192.880 145.261 M 192.880 145.261 L 192.663 147.420 M 192.663 147.420 L 192.670 149.580 M 192.670 149.580 L 192.905 151.739 M 192.905 151.739 L 193.365 153.899 M 193.365 153.899 L 194.042 156.059 M 194.042 156.059 L 194.078 156.147 M 194.078 156.147 L 194.973 158.218 M 194.973 158.218 L 196.104 160.378 M 196.104 160.378 L 196.201 160.539 M 196.201 160.539 L 197.523 162.538 M 197.523 162.538 L 198.324 163.618 M 198.324 163.618 L 199.234 164.697 M 199.234 164.697 L 200.447 166.011 M 200.447 166.011 L 201.384 166.857 M 201.384 166.857 L 202.570 167.853 M 202.570 167.853 L 204.360 169.017 M 204.360 169.017 L 204.693 169.222 M 204.693 169.222 L 206.816 170.116 M 206.816 170.116 L 208.939 170.576 M 208.939 170.576 L 211.061 170.593 M 211.061 170.593 L 213.184 170.165 M 213.184 170.165 L 215.307 169.319 M 215.307 169.319 L 215.784 169.017 M 226.605 143.101 L 227.056 145.261 M 227.056 145.261 L 227.285 147.420 M 227.285 147.420 L 227.292 149.580 M 227.292 149.580 L 227.078 151.739 M 227.078 151.739 L 226.648 153.899 M 226.648 153.899 L 226.008 156.059 M 196.201 138.340 L 195.977 138.782 M 195.977 138.782 L 195.082 140.941 M 195.082 140.941 L 194.398 143.101 M 194.078 144.600 L 193.945 145.261 M 193.945 145.261 L 193.729 147.420 M 193.729 147.420 L 193.737 149.580 M 193.737 149.580 L 193.974 151.739 M 193.974 151.739 L 194.078 152.227 M 194.078 152.227 L 194.458 153.899 M 194.458 153.899 L 195.179 156.059 M 195.179 156.059 L 196.115 158.218 M 196.115 158.218 L 196.201 158.383 M 196.201 158.383 L 197.344 160.378 M 197.344 160.378 L 198.324 161.858 M 198.324 161.858 L 198.836 162.538 M 198.836 162.538 L 200.447 164.447 M 200.447 164.447 L 200.699 164.697 M 200.699 164.697 L 202.570 166.388 M 202.570 166.388 L 203.239 166.857 M 203.239 166.857 L 204.693 167.804 M 204.693 167.804 L 206.816 168.751 M 206.816 168.751 L 207.969 169.017 M 207.969 169.017 L 208.939 169.229 M 208.939 169.229 L 211.061 169.250 M 211.061 169.250 L 212.227 169.017 M 196.201 140.981 L 195.529 143.101 M 195.529 143.101 L 195.067 145.261 M 195.067 145.261 L 194.838 147.420 M 194.838 147.420 L 194.848 149.580 M 194.848 149.580 L 195.101 151.739 M 195.101 151.739 L 195.594 153.899 M 195.594 153.899 L 196.201 155.713 M 196.201 155.713 L 196.328 156.059 M 196.328 156.059 L 197.353 158.218 M 197.353 158.218 L 198.324 159.911 M 198.324 159.911 L 198.629 160.378 M 198.629 160.378 L 200.256 162.538 M 200.256 162.538 L 200.447 162.765 M 200.447 162.765 L 202.398 164.697 M 202.398 164.697 L 202.570 164.853 M 202.570 164.853 L 204.693 166.343 M 204.693 166.343 L 205.761 166.857 M 205.761 166.857 L 206.816 167.329 M 206.816 167.329 L 208.939 167.824 M 208.939 167.824 L 211.061 167.850 M 211.061 167.850 L 213.184 167.448 M 213.184 167.448 L 214.483 166.857 M 224.881 145.261 L 225.128 147.420 M 225.128 147.420 L 225.136 149.580 M 225.136 149.580 L 224.910 151.739 M 224.910 151.739 L 224.453 153.899 M 196.201 145.239 L 196.197 145.261 M 196.197 145.261 L 195.968 147.420 M 195.968 147.420 L 195.979 149.580 M 195.979 149.580 L 196.201 151.462 M 196.201 151.462 L 196.237 151.739 M 196.237 151.739 L 196.778 153.899 M 196.778 153.899 L 197.571 156.059 M 197.571 156.059 L 198.324 157.641 M 198.324 157.641 L 198.636 158.218 M 198.636 158.218 L 200.045 160.378 M 200.045 160.378 L 200.447 160.912 M 200.447 160.912 L 201.910 162.538 M 201.910 162.538 L 202.570 163.191 M 202.570 163.191 L 204.526 164.697 M 204.526 164.697 L 204.693 164.815 M 204.693 164.815 L 206.816 165.841 M 206.816 165.841 L 208.939 166.376 M 208.939 166.376 L 211.061 166.409 M 211.061 166.409 L 213.184 165.939 M 213.184 165.939 L 215.307 165.001 M 215.307 165.001 L 215.714 164.697 M 198.324 142.009 L 197.942 143.101 M 197.942 143.101 L 197.434 145.261 M 197.434 145.261 L 197.182 147.420 M 197.182 147.420 L 197.196 149.580 M 197.196 149.580 L 197.476 151.739 M 197.476 151.739 L 198.019 153.899 M 198.019 153.899 L 198.324 154.728 M 198.324 154.728 L 198.881 156.059 M 198.881 156.059 L 200.048 158.218 M 200.048 158.218 L 200.447 158.829 M 200.447 158.829 L 201.654 160.378 M 201.654 160.378 L 202.570 161.396 M 202.570 161.396 L 203.890 162.538 M 203.890 162.538 L 204.693 163.157 M 204.693 163.157 L 206.816 164.285 M 206.816 164.285 L 208.297 164.697 M 208.297 164.697 L 208.939 164.860 M 208.939 164.860 L 211.061 164.916 M 211.061 164.916 L 211.967 164.697 M 222.520 145.261 L 222.794 147.420 M 222.794 147.420 L 222.807 149.580 M 222.807 149.580 L 222.559 151.739 M 222.559 151.739 L 222.057 153.899 M 200.447 140.411 L 200.168 140.941 M 200.168 140.941 L 199.302 143.101 M 199.302 143.101 L 198.720 145.261 M 198.720 145.261 L 198.433 147.420 M 198.433 147.420 L 198.448 149.580 M 198.448 149.580 L 198.768 151.739 M 198.768 151.739 L 199.387 153.899 M 199.387 153.899 L 200.291 156.059 M 200.291 156.059 L 200.447 156.347 M 200.447 156.347 L 201.655 158.218 M 201.655 158.218 L 202.570 159.392 M 202.570 159.392 L 203.555 160.378 M 203.555 160.378 L 204.693 161.363 M 204.693 161.363 L 206.657 162.538 M 206.657 162.538 L 206.816 162.622 M 206.816 162.622 L 208.939 163.217 M 208.939 163.217 L 211.061 163.259 M 211.061 163.259 L 213.184 162.747 M 213.184 162.747 L 213.602 162.538 M 220.621 143.101 L 221.232 145.261 M 221.232 145.261 L 221.547 147.420 M 221.547 147.420 L 221.562 149.580 M 221.562 149.580 L 221.280 151.739 M 221.280 151.739 L 220.707 153.899 M 220.707 153.899 L 219.852 156.059 M 200.447 144.089 L 200.130 145.261 M 200.130 145.261 L 199.841 147.420 M 199.841 147.420 L 199.856 149.580 M 199.856 149.580 L 200.176 151.739 M 200.176 151.739 L 200.447 152.684 M 200.447 152.684 L 200.863 153.899 M 200.863 153.899 L 201.942 156.059 M 201.942 156.059 L 202.570 157.030 M 202.570 157.030 L 203.553 158.218 M 203.553 158.218 L 204.693 159.359 M 204.693 159.359 L 206.164 160.378 M 206.164 160.378 L 206.816 160.768 M 206.816 160.768 L 208.939 161.437 M 208.939 161.437 L 211.061 161.485 M 211.061 161.485 L 213.184 160.905 M 213.184 160.905 L 214.116 160.378 M 202.570 142.889 L 202.467 143.101 M 202.467 143.101 L 201.759 145.261 M 201.759 145.261 L 201.410 147.420 M 201.410 147.420 L 201.425 149.580 M 201.425 149.580 L 201.807 151.739 M 201.807 151.739 L 202.545 153.899 M 202.545 153.899 L 202.570 153.948 M 202.570 153.948 L 203.922 156.059 M 203.922 156.059 L 204.693 156.991 M 204.693 156.991 L 206.162 158.218 M 206.162 158.218 L 206.816 158.671 M 206.816 158.671 L 208.939 159.444 M 208.939 159.444 L 211.061 159.496 M 211.061 159.496 L 213.184 158.814 M 213.184 158.814 L 214.082 158.218 M 218.190 145.261 L 218.572 147.420 M 218.572 147.420 L 218.593 149.580 M 218.593 149.580 L 218.255 151.739 M 218.255 151.739 L 217.564 153.899" fill="none" stroke="#e5e7eb" stroke-width="1" vector-effect="non-scaling-stroke"/></svg>