<svg xmlns="http://www.w3.org/2000/svg" viewBox="173.63849769809588 112.15171399368367 77.20780710577387 77.03324403483919" width="77.20780710577387" height="77.03324403483919" shape-rendering="geometricPrecision"><rect x="173.63849769809588" y="112.15171399368367" width="77.20780710577387" height="77.03324403483919" fill="#0b0f14"/><path d="M 181.638 163.586 L 182.080 164.594 L 182.639 165.541 L 183.298 166.422 L 183.990 167.277 L 184.657 168.151 L 185.312 169.035 L 185.969 169.917 L 186.652 170.780 L 187.372 171.612 L 188.127 172.412 L 188.908 173.186 L 189.715 173.934 L 190.551 174.648 L 191.419 175.324 L 192.308 175.972 L 193.201 176.615 L 194.086 177.268 L 194.954 177.943 L 195.831 178.608 L 196.769 179.182 L 197.767 179.645 L 198.807 180.003 L 199.874 180.269 L 200.953 180.482 L 202.041 180.647 L 203.134 180.769 L 204.231 180.858 L 205.328 180.940 L 206.425 181.013 L 207.523 181.078 L 208.622 181.130 L 209.721 181.165 L 210.821 181.184 L 211.921 181.185 L 213.021 181.169 L 214.121 181.136 L 215.220 181.087 L 216.318 181.026 L 217.416 180.956 L 218.513 180.878 L 219.610 180.794 L 220.704 180.681 L 221.792 180.524 L 222.873 180.316 L 223.941 180.053 L 224.980 179.691 L 225.970 179.212 L 226.894 178.615 L 227.757 177.933 L 228.632 177.267 L 229.524 176.623 L 230.422 175.987 L 231.311 175.340 L 232.178 174.663 L 233.013 173.947 L 233.819 173.199 L 234.594 172.418 L 235.335 171.605 L 236.043 170.763 L 236.712 169.890 L 237.360 169.000 L 238.004 168.109 L 238.665 167.230 L 239.357 166.374 L 240.020 165.497 L 240.571 164.545 L 240.999 163.532 L 241.307 162.476 L 241.540 161.401 L 241.705 160.313 L 241.802 159.217 L 241.849 158.118 L 241.892 157.019 L 241.931 155.920 L 241.964 154.820 L 241.990 153.721 L 242.008 152.621 L 242.017 151.521 L 242.016 150.421 L 242.007 149.321 L 241.988 148.221 L 241.962 147.121 L 241.930 146.022 L 241.892 144.922 L 241.850 143.823 L 241.805 142.724 L 241.704 141.629 L 241.533 140.542 L 241.290 139.469 L 240.960 138.420 L 240.496 137.423 L 239.906 136.494 L 239.262 135.603 L 238.599 134.725 L 237.967 133.825 L 237.343 132.918 L 236.704 132.023 L 236.030 131.154 L 235.324 130.311 L 234.578 129.502 L 233.790 128.735 L 232.962 128.010 L 232.100 127.327 L 231.212 126.678 L 230.300 126.063 L 229.378 125.464 L 228.465 124.849 L 227.570 124.210 L 226.654 123.601 L 225.696 123.059 L 224.680 122.638 L 223.621 122.342 L 222.540 122.137 L 221.446 122.025 L 220.346 122.015 L 219.246 122.036 L 218.146 122.058 L 217.047 122.082 L 215.947 122.105 L 214.847 122.123 L 213.747 122.135 L 212.647 122.139 L 211.547 122.136 L 210.447 122.126 L 209.347 122.110 L 208.247 122.088 L 207.148 122.066 L 206.048 122.044 L 204.948 122.024 L 203.848 122.016 L 202.752 122.107 L 201.668 122.295 L 200.606 122.582 L 199.583 122.987 L 198.611 123.502 L 197.679 124.086 L 196.761 124.691 L 195.818 125.259 L 194.872 125.820 L 193.943 126.408 L 193.046 127.045 L 192.174 127.716 L 191.338 128.431 L 190.554 129.202 L 189.828 130.029 L 189.150 130.895 L 188.509 131.789 L 187.938 132.729 L 187.439 133.710 L 186.956 134.698 L 186.376 135.632 L 185.802 136.571 L 185.300 137.549 L 184.926 138.584 L 184.661 139.652 L 184.524 140.743 L 184.539 141.843 L 184.667 142.936 L 184.806 144.027 L 184.966 145.115 L 185.791 145.843 L 186.354 144.897 L 186.739 143.867 L 187.069 142.818 L 187.322 141.747 L 187.529 140.667 L 187.732 139.586 L 187.981 138.514 L 187.337 137.623 L 187.957 136.714 L 188.760 135.962 L 189.588 135.238 L 190.401 134.497 L 191.109 133.655 L 191.777 132.781 L 192.520 131.970 L 193.341 131.238 L 194.233 130.594 L 195.098 129.915 L 195.853 129.115 L 196.571 128.282 L 197.333 127.488 L 196.503 126.766 L 195.409 126.879 L 194.419 127.359 L 193.494 127.954 L 192.602 128.598 L 191.739 129.280 L 190.996 130.091 L 190.348 130.980 L 189.733 131.892 L 189.238 132.874 L 190.320 133.070 L 191.094 132.288 L 191.817 131.459 L 192.540 130.631 L 193.379 129.919 L 194.196 129.183 L 194.242 128.084 L 193.247 128.553 L 192.326 129.154 L 191.429 129.791 L 190.617 130.533 L 189.955 131.411 L 189.313 132.304 L 188.726 133.235 L 188.285 134.242 L 188.407 135.336 L 189.499 135.469 L 190.283 134.697 L 191.093 133.953 L 191.798 133.108 L 192.455 132.226 L 193.183 131.401 L 193.988 130.652 L 194.876 130.002 L 195.746 129.330 L 196.542 128.570 L 197.323 127.795 L 198.151 127.072 L 199.086 126.491 L 200.154 126.227 L 201.244 126.081 L 202.330 125.909 L 203.403 125.666 L 204.425 125.258 L 205.139 124.422 L 204.095 124.077 L 203.014 123.872 L 201.914 123.869 L 200.826 124.029 L 199.765 124.321 L 198.745 124.733 L 197.777 125.255 L 196.828 125.811 L 195.834 126.283 L 194.765 126.541 L 193.774 127.019 L 192.841 127.602 L 191.950 128.246 L 191.080 128.919 L 190.264 129.657 L 189.509 130.457 L 188.813 131.309 L 188.149 132.186 L 187.532 133.096 L 186.969 134.041 L 186.431 135.001 L 185.850 135.935 L 185.249 136.857 L 184.691 137.804 L 184.224 138.800 L 183.880 139.845 L 183.643 140.919 L 183.517 142.012 L 183.504 143.112 L 183.547 144.211 L 183.591 145.310 L 183.636 146.409 L 183.681 147.508 L 183.717 148.608 L 183.741 149.707 L 183.751 150.807 L 183.747 151.907 L 183.728 153.007 L 183.695 154.107 L 183.650 155.206 L 183.603 156.305 L 183.555 157.404 L 183.509 158.503 L 183.473 159.602 L 183.558 160.699 L 183.752 161.782 L 184.048 162.841 L 184.471 163.857 L 185.008 164.817 L 185.616 165.733 L 186.252 166.630 L 186.859 167.548 L 187.452 168.474 L 188.067 169.387 L 188.723 170.269 L 189.412 171.127 L 190.144 171.948 L 190.922 172.726 L 191.743 173.458 L 192.600 174.148 L 193.480 174.808 L 194.387 175.430 L 195.306 176.035 L 196.218 176.649 L 197.112 177.291 L 198.019 177.913 L 198.962 178.478 L 199.966 178.928 L 201.021 179.240 L 202.096 179.472 L 203.185 179.628 L 204.282 179.710 L 205.382 179.741 L 206.481 179.769 L 207.581 179.794 L 208.681 179.814 L 209.781 179.831 L 210.881 179.842 L 211.981 179.848 L 213.081 179.848 L 214.181 179.843 L 215.281 179.831 L 216.380 179.814 L 217.480 179.793 L 218.580 179.767 L 219.680 179.738 L 220.779 179.706 L 221.876 179.623 L 222.965 179.468 L 224.041 179.242 L 225.100 178.942 L 226.115 178.519 L 227.070 177.973 L 227.962 177.329 L 228.830 176.654 L 229.721 176.009 L 230.624 175.380 L 231.524 174.747 L 232.406 174.091 L 233.258 173.394 L 234.082 172.665 L 234.872 171.901 L 235.628 171.102 L 236.351 170.273 L 237.036 169.411 L 237.691 168.528 L 238.334 167.635 L 238.984 166.748 L 239.660 165.880 L 240.341 165.016 L 240.946 164.098 L 241.430 163.110 L 241.791 162.071 L 242.055 161.003 L 242.258 159.922 L 242.406 158.832 L 242.504 157.736 L 242.581 156.639 L 242.652 155.541 L 242.715 154.443 L 242.769 153.344 L 242.810 152.245 L 242.836 151.145 L 242.846 150.046 L 242.840 148.946 L 242.817 147.846 L 242.778 146.746 L 242.725 145.648 L 242.662 144.550 L 242.590 143.452 L 242.511 142.355 L 242.421 141.258 L 242.281 140.167 L 242.090 139.084 L 241.844 138.012 L 241.521 136.960 L 241.092 135.948 L 240.548 134.991 L 239.896 134.106 L 239.198 133.255 L 238.528 132.383 L 237.873 131.499 L 237.218 130.615 L 236.545 129.745 L 235.834 128.906 L 235.087 128.099 L 234.312 127.318 L 233.509 126.566 L 232.680 125.844 L 231.817 125.161 L 230.931 124.510 L 230.038 123.867 L 229.150 123.218 L 228.278 122.548 L 227.410 121.871 L 226.484 121.277 L 225.494 120.798 L 224.458 120.429 L 223.393 120.152 M 208.212 126.710 L 209.310 126.649 L 210.410 126.614 L 211.510 126.604 L 212.610 126.617 L 213.709 126.654 L 214.807 126.716 L 215.903 126.811 L 216.996 126.936 L 218.083 127.105 L 219.159 127.332 L 220.220 127.624 L 221.269 127.955 L 222.307 128.317 L 223.338 128.702 L 224.356 129.117 L 225.352 129.586 L 226.323 130.101 L 227.276 130.652 L 228.156 131.311 L 229.036 131.971 L 229.870 132.689 L 230.656 133.458 L 231.391 134.277 L 232.065 135.146 L 232.640 136.084 L 233.180 137.042 L 233.671 138.027 L 234.104 139.038 L 234.493 140.067 L 234.858 141.104 L 235.191 142.153 L 235.483 143.213 L 235.712 144.289 L 235.881 145.376 L 236.005 146.469 L 236.099 147.565 L 236.168 148.663 L 236.210 149.762 L 236.226 150.862 L 236.218 151.962 L 236.183 153.061 L 236.120 154.159 L 236.031 155.256 L 235.925 156.351 L 235.792 157.443 L 235.614 158.528 L 235.380 159.603 L 235.104 160.668 L 234.787 161.721 L 234.436 162.764 L 234.036 163.788 L 233.551 164.776 L 232.987 165.720 L 232.361 166.624 L 231.718 167.517 L 231.046 168.388 L 230.302 169.198 L 229.494 169.945 L 228.624 170.617 L 227.725 171.252 L 226.840 171.905 L 225.920 172.508 L 224.952 173.031 L 223.936 173.451 L 222.883 173.770 L 221.817 174.041 L 220.739 174.259 L 219.653 174.433 L 218.566 174.607 L 217.478 174.768 L 216.388 174.916 L 215.296 175.050 L 214.202 175.160 L 213.105 175.235 L 212.005 175.273 L 210.905 175.273 L 209.806 175.235 L 208.709 175.155 L 207.615 175.037 L 206.525 174.892 L 205.437 174.732 L 204.350 174.557 L 203.267 174.368 L 202.182 174.187 L 201.099 173.993 L 200.027 173.749 L 198.967 173.454 L 197.948 173.039 L 197.004 172.475 L 196.145 171.787 L 195.337 171.041 L 194.469 170.365 L 193.573 169.727 L 192.743 169.006 L 191.985 168.208 L 191.318 167.333 L 190.635 166.471 L 189.868 165.683 L 189.107 164.888 L 188.412 164.036 L 187.869 163.080 L 187.575 162.020 L 187.392 160.935 L 187.199 159.852 L 186.944 158.782 L 186.539 157.759 L 185.832 156.917 M 233.289 157.286 L 232.830 158.286 L 232.356 159.278 L 231.879 160.270 L 231.388 161.254 L 230.859 162.219 L 230.266 163.145 L 229.607 164.026 L 228.890 164.860 L 228.128 165.653 L 227.365 166.445 L 226.562 167.197 L 225.718 167.903 L 224.829 168.550 L 223.896 169.133 L 222.925 169.650 L 221.936 170.132 L 220.940 170.598 L 219.943 171.062 L 218.939 171.513 L 217.912 171.907 L 216.865 172.242" fill="none" stroke="#EC008C" stroke-width="1" vector-effect="non-scaling-stroke"/></svg>