<svg xmlns="http://www.w3.org/2000/svg" viewBox="170.5535127240227 107.86577528250227 77.65473605538398 83.41961475306498" width="77.65473605538398" height="83.41961475306498" shape-rendering="geometricPrecision"><rect x="170.5535127240227" y="107.86577528250227" width="77.65473605538398" height="83.41961475306498" fill="#0b0f14"/><path d="M 178.554 162.764 L 178.953 163.896 L 179.624 164.890 L 180.450 165.761 L 181.217 166.684 L 181.950 167.634 L 182.688 168.580 L 183.379 169.561 L 184.021 170.575 L 184.729 171.544 L 185.532 172.435 L 186.383 173.281 L 187.275 174.084 L 188.232 174.809 L 189.271 175.409 L 190.307 176.014 L 191.303 176.684 L 192.270 177.394 L 193.243 178.097 L 194.168 178.861 L 195.100 179.617 L 196.167 180.167 L 197.329 180.464 L 198.528 180.510 L 199.723 180.394 L 200.920 180.319 L 202.120 180.358 L 203.275 180.683 L 204.313 181.284 L 205.297 181.971 L 206.333 182.577 L 207.467 182.970 L 208.650 183.172 L 209.846 183.275 L 211.046 183.285 L 212.243 183.204 L 213.430 183.029 L 214.567 182.647 L 215.581 182.004 L 216.565 181.317 L 217.631 180.766 L 218.787 180.447 L 219.984 180.362 L 221.184 180.405 L 222.381 180.490 L 223.580 180.509 L 224.754 180.259 L 225.819 179.706 L 226.787 178.997 L 227.742 178.270 L 228.745 177.611 L 229.735 176.934 L 230.757 176.304 L 231.818 175.743 L 232.888 175.200 L 233.864 174.503 L 234.766 173.710 L 235.611 172.858 L 236.381 171.938 L 236.984 170.901 L 237.431 169.787 L 237.721 168.622 L 238.262 167.551 L 238.251 166.351 L 237.335 167.127 L 236.456 167.944 L 235.656 168.838 L 234.871 169.745 L 234.000 170.571 L 233.141 171.409 L 232.247 172.209 L 231.268 172.904 L 230.358 173.686 L 229.491 174.516 L 228.480 175.161 L 227.338 175.531 L 226.158 175.749 L 224.965 175.883 L 223.766 175.913 L 222.566 175.895 L 221.366 175.878 L 220.178 176.043 L 219.078 176.523 L 218.047 177.138 L 217.649 178.270 L 216.483 178.552 L 217.671 178.722 L 216.484 178.902 L 215.289 179.007 L 214.094 179.119 L 212.897 179.196 L 211.697 179.217 L 210.497 179.187 L 209.301 179.090 L 208.108 178.958 L 206.919 178.801 L 205.762 178.480 L 204.734 177.862 L 203.742 177.186 L 202.587 176.860 L 201.387 176.857 L 200.188 176.816 L 198.990 176.750 L 197.796 176.627 L 196.609 176.449 L 195.441 176.721 L 194.449 176.045 L 193.544 175.258 L 192.696 174.408 L 191.796 173.615 L 190.832 172.901 L 189.953 172.083 L 189.092 171.247 L 188.233 170.409 L 187.472 169.482 L 186.692 168.570 L 185.829 167.736 L 184.996 166.872 L 184.448 165.805 L 184.186 164.634 L 183.995 163.449 L 183.920 162.251 L 183.930 161.051 L 183.944 159.852 L 183.869 158.654 L 183.423 157.540 L 182.609 156.658 L 181.738 155.833 L 181.446 154.669 L 181.256 153.484 L 181.096 152.295 L 181.004 151.098 L 180.990 149.898 L 181.051 148.700 L 181.207 147.510 L 181.408 146.327 L 181.685 145.159 L 182.111 144.037 L 182.754 143.024 L 183.255 141.934 L 183.370 140.739 L 183.379 139.539 L 183.409 138.340 L 183.499 137.143 L 183.680 135.957 L 183.899 134.777 L 183.749 133.586 L 184.564 132.705 L 185.451 131.897 L 186.295 131.044 L 187.055 130.115 L 187.882 129.246 L 188.748 128.416 L 189.602 127.572 L 190.532 126.814 L 191.485 126.084 L 192.357 125.260 L 193.204 124.410 L 194.257 123.834 L 195.310 123.259 L 196.485 123.016 L 197.671 122.833 L 198.865 122.708 L 200.063 122.650 L 201.263 122.622 L 202.463 122.622 L 203.632 122.352 L 204.673 121.755 L 205.752 121.230 L 206.901 120.882 L 208.080 120.660 L 209.268 120.491 L 210.462 120.372 L 211.661 120.332 L 212.861 120.357 L 214.058 120.450 L 215.249 120.596 L 216.436 120.767 L 217.605 121.041 L 218.173 122.098 L 219.178 122.753 L 220.287 123.213 L 221.479 123.346 L 222.679 123.330 L 223.879 123.316 L 225.078 123.359 L 226.269 123.504 L 227.449 123.725 L 228.584 124.113 L 229.575 124.791 L 230.418 125.644 L 231.325 126.430 L 232.304 127.125 L 233.194 127.930 L 234.053 128.768 L 234.924 129.592 L 235.704 130.504 L 236.514 131.390 L 237.406 132.192 L 238.349 132.935 L 237.847 131.845 L 237.928 130.648 L 237.475 129.537 L 237.026 128.424 L 236.423 127.386 L 235.655 126.464 L 234.812 125.611 L 233.913 124.816 L 232.940 124.113 L 231.876 123.559 L 230.817 122.994 L 229.797 122.362 L 228.809 121.681 L 227.810 121.016 L 226.857 120.286 L 225.893 119.572 L 224.835 119.007 L 223.664 118.742 L 222.464 118.735 L 221.266 118.809 L 220.067 118.836 L 218.871 118.735 L 217.721 118.392 L 216.665 117.822 L 215.679 117.138 L 214.660 116.504 L 213.521 116.128 L 212.334 115.951 L 211.137 115.866 M 237.296 134.613 L 237.501 135.796 L 237.558 136.995 L 237.508 138.194 L 237.476 139.393 L 237.519 140.592 L 237.913 141.726 L 238.544 142.747 L 239.130 143.794 L 239.577 144.907 L 239.868 146.072 L 240.094 147.250 L 240.207 148.445 L 240.208 149.645 L 240.096 150.839 L 239.864 152.017 L 239.515 153.165 L 238.950 154.224 L 238.300 155.232 L 237.668 156.253 L 237.254 157.379 L 237.151 158.574 L 237.139 159.774 L 237.119 160.974 L 236.950 162.162 L 236.528 163.286" fill="none" stroke="#2dd4bf" stroke-width="1" vector-effect="non-scaling-stroke"/><path d="M 236.517 171.703 L 234.855 173.620 M 237.581 169.185 L 236.536 170.394 M 234.413 172.823 L 232.291 175.406 M 232.291 175.406 L 232.149 175.575 M 178.768 163.370 L 179.218 163.879 M 179.218 163.879 L 179.846 164.697 M 179.846 164.697 L 181.341 166.465 M 181.341 166.465 L 181.639 166.857 M 181.639 166.857 L 183.413 169.017 M 183.413 169.017 L 183.464 169.076 M 183.464 169.076 L 185.161 171.176 M 185.161 171.176 L 185.587 171.681 M 185.587 171.681 L 186.920 173.336 M 186.920 173.336 L 187.709 174.291 M 187.709 174.291 L 187.967 174.609 M 234.413 171.517 L 232.291 174.104 M 232.291 174.104 L 230.173 176.664 M 179.110 161.963 L 179.218 162.100 M 179.218 162.100 L 179.515 162.538 M 179.515 162.538 L 181.174 164.697 M 181.174 164.697 L 181.341 164.895 M 181.341 164.895 L 182.837 166.857 M 182.837 166.857 L 183.464 167.621 M 183.464 167.621 L 184.530 169.017 M 184.530 169.017 L 185.587 170.324 M 185.587 170.324 L 186.246 171.176 M 186.246 171.176 L 187.709 172.993 M 187.709 172.993 L 187.980 173.336 M 187.980 173.336 L 189.734 175.496 M 189.734 175.496 L 189.832 175.616 M 189.832 175.616 L 190.027 175.851 M 232.291 172.802 L 230.168 175.442 M 230.168 175.442 L 228.045 177.974 M 228.045 177.974 L 227.859 178.193 M 179.786 160.990 L 180.839 162.538 M 180.839 162.538 L 181.341 163.191 M 181.341 163.191 L 182.386 164.697 M 182.386 164.697 L 183.464 166.111 M 183.464 166.111 L 183.993 166.857 M 183.993 166.857 L 185.587 168.942 M 185.587 168.942 L 185.641 169.017 M 185.641 169.017 L 187.311 171.176 M 187.311 171.176 L 187.709 171.671 M 187.709 171.671 L 189.026 173.336 M 189.026 173.336 L 189.832 174.330 M 189.832 174.330 L 190.785 175.496 M 190.785 175.496 L 191.955 176.910 M 191.955 176.910 L 192.528 177.580 M 230.931 173.193 L 230.168 174.144 M 230.168 174.144 L 228.045 176.705 M 228.045 176.705 L 225.922 179.190 M 225.922 179.190 L 225.159 180.049 M 180.472 160.003 L 180.690 160.378 M 180.690 160.378 L 181.341 161.334 M 181.341 161.334 L 182.081 162.538 M 182.081 162.538 L 183.464 164.530 M 183.464 164.530 L 183.572 164.697 M 183.572 164.697 L 184.680 166.257 M 185.584 167.483 L 185.587 167.486 M 185.587 167.486 L 186.706 169.017 M 186.706 169.017 L 187.709 170.315 M 187.709 170.315 L 188.364 171.176 M 188.364 171.176 L 189.832 173.035 M 189.832 173.035 L 190.072 173.336 M 190.072 173.336 L 191.837 175.496 M 191.837 175.496 L 191.955 175.638 M 191.955 175.638 L 193.679 177.655 M 193.679 177.655 L 194.078 178.123 M 194.078 178.123 L 195.610 179.815 M 195.610 179.815 L 195.716 179.935 M 228.045 175.437 L 225.922 177.940 M 225.922 177.940 L 223.799 180.308 M 223.799 180.308 L 223.616 180.501 M 181.187 158.973 L 181.341 159.236 M 181.341 159.236 L 181.943 160.378 M 181.943 160.378 L 183.273 162.538 M 183.273 162.538 L 183.464 162.813 M 183.464 162.813 L 184.035 163.696 M 190.623 172.707 L 191.124 173.336 M 191.124 173.336 L 191.955 174.353 M 191.955 174.353 L 192.920 175.496 M 192.920 175.496 L 194.078 176.851 M 194.078 176.851 L 194.808 177.655 M 194.808 177.655 L 196.201 179.194 M 196.201 179.194 L 196.817 179.815 M 196.817 179.815 L 197.455 180.469 M 226.814 175.627 L 225.922 176.674 M 225.922 176.674 L 223.799 179.023 M 223.799 179.023 L 222.375 180.490 M 181.884 157.970 L 181.991 158.218 M 181.991 158.218 L 183.132 160.378 M 183.132 160.378 L 183.464 160.917 M 183.464 160.917 L 183.924 161.718 M 194.583 176.137 L 195.962 177.655 M 195.962 177.655 L 196.201 177.920 M 196.201 177.920 L 198.082 179.815 M 198.082 179.815 L 198.324 180.064 M 198.324 180.064 L 198.791 180.484 M 225.589 175.813 L 223.799 177.773 M 223.799 177.773 L 221.676 179.939 M 221.676 179.939 L 221.797 179.815 M 183.464 138.191 L 183.413 138.289 M 181.069 151.941 L 181.341 153.046 M 181.341 153.046 L 181.530 153.899 M 181.530 153.899 L 182.242 156.059 M 182.242 156.059 L 182.427 156.486 M 182.614 156.919 L 183.177 158.218 M 183.177 158.218 L 183.464 158.761 M 183.464 158.761 L 183.935 159.717 M 196.123 176.562 L 196.201 176.648 M 196.201 176.648 L 197.203 177.655 M 197.203 177.655 L 198.324 178.785 M 198.324 178.785 L 199.489 179.815 M 199.489 179.815 L 200.105 180.370 M 224.346 175.898 L 223.799 176.508 M 223.799 176.508 L 221.676 178.657 M 221.676 178.657 L 219.777 180.377 M 183.464 140.830 L 183.417 140.941 M 183.417 140.941 L 183.323 141.227 M 182.719 143.079 L 182.712 143.101 M 182.712 143.101 L 182.233 145.261 M 182.233 145.261 L 181.991 147.420 M 181.991 147.420 L 181.989 149.580 M 181.989 149.580 L 182.230 151.739 M 182.230 151.739 L 182.710 153.899 M 182.710 153.899 L 183.356 155.852 M 197.383 176.565 L 198.324 177.511 M 198.324 177.511 L 198.488 177.655 M 198.488 177.655 L 200.447 179.388 M 200.447 179.388 L 201.026 179.815 M 201.026 179.815 L 201.731 180.345 M 213.267 183.053 L 215.246 182.216 M 237.632 145.261 L 237.881 147.420 M 237.881 147.420 L 237.883 149.580 M 237.883 149.580 L 237.643 151.739 M 237.643 151.739 L 237.168 153.899 M 223.150 175.904 L 221.676 177.406 M 221.676 177.406 L 219.553 179.291 M 219.553 179.291 L 217.568 180.798 M 185.587 138.337 L 185.372 138.782 M 185.372 138.782 L 184.516 140.941 M 184.516 140.941 L 183.861 143.101 M 183.464 145.030 L 183.413 145.261 M 183.413 145.261 L 183.169 147.420 M 183.169 147.420 L 183.167 149.580 M 183.167 149.580 L 183.409 151.739 M 183.409 151.739 L 183.464 151.987 M 183.464 151.987 L 183.861 153.899 M 183.861 153.899 L 184.123 154.747 M 198.892 176.740 L 199.930 177.655 M 199.930 177.655 L 200.447 178.112 M 200.447 178.112 L 202.570 179.679 M 202.570 179.679 L 202.807 179.815 M 202.807 179.815 L 204.693 180.914 M 204.693 180.914 L 206.816 181.759 M 206.816 181.759 L 207.884 181.975 M 207.884 181.975 L 208.939 182.195 M 208.939 182.195 L 211.061 182.185 M 211.061 182.185 L 212.084 181.975 M 221.928 175.886 L 221.676 176.141 M 221.676 176.141 L 219.553 178.031 M 219.553 178.031 L 219.974 177.655 M 187.709 136.102 L 187.428 136.622 M 187.428 136.622 L 186.429 138.782 M 186.429 138.782 L 185.612 140.941 M 185.587 141.027 L 184.957 143.101 M 184.957 143.101 L 184.512 145.261 M 184.512 145.261 L 184.286 147.420 M 184.286 147.420 L 184.284 149.580 M 184.284 149.580 L 184.509 151.739 M 184.509 151.739 L 184.903 153.625 M 200.431 176.825 L 200.447 176.839 M 200.447 176.839 L 201.558 177.655 M 201.558 177.655 L 202.570 178.402 M 202.570 178.402 L 204.693 179.617 M 204.693 179.617 L 205.201 179.815 M 205.201 179.815 L 206.816 180.457 M 206.816 180.457 L 208.939 180.885 M 208.939 180.885 L 211.061 180.882 M 211.061 180.882 L 213.184 180.433 M 213.184 180.433 L 214.741 179.815 M 220.423 176.009 L 219.553 176.776 M 219.553 176.776 L 217.689 178.158 M 217.484 178.310 L 217.430 178.350 M 187.709 138.280 L 187.478 138.782 M 187.478 138.782 L 186.659 140.941 M 186.659 140.941 L 186.032 143.101 M 186.032 143.101 L 185.607 145.261 M 185.587 145.460 L 185.381 147.420 M 185.381 147.420 L 185.380 149.580 M 185.380 149.580 L 185.587 151.553 M 185.587 151.553 L 185.605 151.739 M 185.605 151.739 L 185.741 152.418 M 202.205 176.859 L 202.570 177.127 M 202.570 177.127 L 203.498 177.655 M 203.498 177.655 L 204.693 178.339 M 204.693 178.339 L 206.816 179.167 M 206.816 179.167 L 208.939 179.586 M 208.939 179.586 L 211.061 179.583 M 211.061 179.583 L 213.031 179.187 M 194.078 129.328 L 193.464 130.143 M 193.464 130.143 L 191.960 132.303 M 191.960 132.303 L 190.646 134.462 M 187.080 143.101 L 186.654 145.261 M 186.654 145.261 L 186.438 147.420 M 186.438 147.420 L 186.437 149.580 M 186.437 149.580 L 186.599 151.184 M 189.832 138.135 L 189.538 138.782 M 189.538 138.782 L 188.735 140.941 M 188.735 140.941 L 188.119 143.101 M 187.709 145.217 L 187.701 145.261 M 187.701 145.261 L 187.485 147.420 M 187.485 147.420 L 187.485 149.580 M 187.485 149.580 L 187.514 149.866 M 196.201 129.535 L 195.713 130.143 M 195.713 130.143 L 194.110 132.303 M 194.110 132.303 L 192.746 134.462 M 189.832 140.752 L 189.762 140.941 M 189.762 140.941 L 189.146 143.101 M 189.146 143.101 L 188.728 145.261 M 188.728 145.261 L 188.517 147.420 M 188.517 147.420 L 188.517 148.423 M 191.955 138.019 L 191.605 138.782 M 191.605 138.782 L 190.795 140.941 M 190.795 140.941 L 190.175 143.101 M 189.832 144.861 L 189.755 145.261 M 189.755 145.261 L 189.598 146.867 M 191.955 140.602 L 191.828 140.941 M 191.828 140.941 L 191.207 143.101 M 191.207 143.101 L 190.815 145.115 M 194.078 138.049 L 193.730 138.782 M 193.730 138.782 L 192.890 140.941 M 192.890 140.941 L 192.275 143.015" fill="none" stroke="#e5e7eb" stroke-width="1" vector-effect="non-scaling-stroke"/></svg>