<svg xmlns="http://www.w3.org/2000/svg" viewBox="169.77650287228303 113.99315917597562 82.56989928336694 77.44796285777858" width="82.56989928336694" height="77.44796285777858" shape-rendering="geometricPrecision"><rect x="169.77650287228303" y="113.99315917597562" width="82.56989928336694" height="77.44796285777858" fill="#0b0f14"/><path d="M 208.939 122.332 L 211.061 121.993 L 213.184 122.332 L 215.307 123.623 L 215.335 123.664 L 217.430 124.966 L 219.553 124.980 L 221.676 124.642 L 223.799 124.358 L 225.922 124.893 L 226.803 125.824 L 228.045 127.966 L 228.054 127.983 L 229.047 130.143 L 230.168 131.283 L 232.291 132.293 M 198.324 124.358 L 200.447 124.642 L 202.570 124.980 L 204.693 124.966 L 206.787 123.664 M 181.341 130.018 L 181.225 130.143 L 179.950 132.303 L 179.880 134.462 L 180.013 136.622 L 180.173 138.782 L 180.067 140.941 M 242.173 132.303 L 242.243 134.462 L 242.110 136.622 L 241.950 138.782 L 242.056 140.941 L 242.905 142.362 M 234.413 133.565 L 235.328 134.462 L 235.854 136.622 L 235.575 138.782 L 235.243 140.941 L 235.257 143.101 L 236.536 145.232 L 236.576 145.261 L 237.846 147.420 L 238.179 149.580 L 237.846 151.739 L 236.576 153.899 M 186.795 134.462 L 186.269 136.622 L 186.548 138.782 L 186.880 140.941 L 186.866 143.101 M 179.218 142.362 L 178.779 143.101 L 177.919 145.261 L 177.784 147.420 L 177.777 149.580 L 177.784 151.739 L 177.919 153.899 L 178.779 156.059 L 179.218 156.797 L 180.067 158.218 L 180.173 160.378 L 180.013 162.538 L 179.880 164.697 L 179.950 166.857 L 181.225 169.017 L 181.341 169.142 L 183.464 170.713 L 184.358 171.176 L 185.587 171.963 L 187.709 172.978 L 188.062 173.336 L 189.060 175.496 L 189.832 176.746 L 190.288 177.655 L 191.833 179.815 L 191.955 179.933 L 194.078 181.230 L 196.201 181.301 L 198.324 181.166 L 200.447 181.003 L 202.570 181.111 L 203.967 181.975 L 204.693 182.421 L 206.816 183.296 L 208.939 183.434 L 211.061 183.441 L 213.184 183.434 L 215.307 183.296 L 217.430 182.421 L 218.156 181.975 M 244.204 145.261 L 244.339 147.420 L 244.346 149.580 L 244.339 151.739 L 244.204 153.899 L 243.344 156.059 M 185.546 145.261 L 184.277 147.420 L 183.944 149.580 L 184.277 151.739 L 185.546 153.899 L 185.587 153.928 M 236.536 153.928 L 235.257 156.059 L 235.243 158.218 L 235.575 160.378 L 235.854 162.538 L 235.328 164.697 M 186.880 158.218 L 186.548 160.378 L 186.269 162.538 L 186.795 164.697 L 187.709 165.594 M 242.056 158.218 L 241.950 160.378 L 242.110 162.538 L 242.243 164.697 L 242.173 166.857 L 240.898 169.017 M 234.413 165.594 L 232.307 166.857 L 230.168 167.877 L 229.047 169.017 L 228.054 171.176 M 217.430 174.194 L 215.335 175.496 L 213.184 176.828 L 211.061 177.167 L 208.939 176.828 M 221.676 181.003 L 223.799 181.166 L 225.922 181.301 L 228.045 181.230 L 230.168 179.933" fill="none" stroke="#00AEEF" stroke-width="1" vector-effect="non-scaling-stroke"/></svg>