<svg xmlns="http://www.w3.org/2000/svg" viewBox="18.785714285714285 19.13888888888889 380.42857142857144 258.7222222222223" width="380.42857142857144" height="258.7222222222223" shape-rendering="geometricPrecision"><rect x="18.785714285714285" y="19.13888888888889" width="380.42857142857144" height="258.7222222222223" fill="#0b0f14"/><path d="M 148.929 127.083 L 148.929 114.806 L 148.929 113.806 L 148.929 112.806 L 148.929 111.806 L 148.929 110.806 L 148.929 100.528 L 148.929 99.528 L 148.929 98.528 L 148.929 97.528 L 148.929 96.528 L 148.929 86.250 L 149.429 85.750 L 149.929 85.250 L 150.429 84.750 L 150.929 84.250 L 160.500 84.250 L 161.500 84.250 L 162.500 84.250 L 163.500 84.250 L 164.500 84.250 L 174.071 84.250 L 175.071 84.250 L 176.071 84.250 L 177.071 84.250 L 178.071 84.250 L 187.643 84.250 L 188.643 84.250 L 189.643 84.250 L 190.643 84.250 L 191.643 84.250 L 201.214 84.250 L 202.214 84.250 L 203.214 84.250 L 204.214 84.250 L 205.214 84.250 L 214.786 84.250 L 215.786 84.250 L 216.786 84.250 L 217.786 84.250 L 218.786 84.250 L 228.357 84.250 L 229.357 84.250 L 230.357 84.250 L 231.357 84.250 L 232.357 84.250 L 241.929 84.250 L 242.429 84.750 L 242.929 85.250 L 243.429 85.750 L 243.929 86.250 L 243.929 96.528 L 243.929 97.528 L 243.929 98.528 L 243.929 99.528 L 243.929 100.528 L 243.929 110.806 L 243.929 111.806 L 243.929 112.806 L 243.929 113.806 L 243.929 114.806 L 243.929 125.083 L 243.929 126.083 L 243.929 127.083 L 243.929 128.083 L 243.929 129.083 L 243.929 139.361 L 243.929 140.361 L 243.929 141.361 L 243.929 142.361 L 243.929 143.361 L 243.929 153.639 L 244.429 154.139 L 244.929 154.639 L 245.429 155.139 L 245.929 155.639 L 255.500 155.639 L 256.000 156.139 L 256.500 156.639 L 257.000 157.139 L 257.500 157.639 L 257.500 167.917 L 257.000 168.417 L 256.500 168.917 L 256.000 169.417 L 255.500 169.917 L 245.929 169.917 L 244.929 169.917 L 243.929 169.917 L 242.929 169.917 L 241.929 169.917 L 232.357 169.917 L 231.357 169.917 L 230.357 169.917 L 229.357 169.917 L 228.357 169.917 L 218.786 169.917 L 217.786 169.917 L 216.786 169.917 L 215.786 169.917 L 214.786 169.917 L 205.214 169.917 L 204.214 169.917 L 203.214 169.917 L 202.214 169.917 L 201.214 169.917 L 191.643 169.917 L 191.143 170.417 L 190.643 170.917 L 190.143 171.417 L 189.643 171.917 L 189.643 182.194 L 189.643 183.194 L 189.643 184.194 L 189.643 185.194 L 189.643 186.194 L 189.643 196.472 L 189.643 197.472 L 189.643 198.472 L 189.643 199.472 L 189.643 200.472 L 189.643 210.750 L 189.643 211.750 L 189.643 212.750 L 189.643 213.750 L 189.643 214.750 L 189.643 225.028 L 189.143 225.528 L 188.643 226.028 L 188.143 226.528 L 187.643 227.028 L 178.071 227.028 L 177.071 227.028 L 176.071 227.028 L 175.071 227.028 L 174.071 227.028 L 164.500 227.028 L 163.500 227.028 L 162.500 227.028 L 161.500 227.028 L 160.500 227.028 L 150.929 227.028 L 149.929 227.028 L 148.929 227.028 L 147.929 227.028 L 146.929 227.028 L 137.357 227.028 L 136.357 227.028 L 135.357 227.028 L 134.357 227.028 L 133.357 227.028 L 123.786 227.028 L 122.786 227.028 L 121.786 227.028 L 120.786 227.028 L 119.786 227.028 L 110.214 227.028 L 109.214 227.028 L 108.214 227.028 L 107.214 227.028 L 106.214 227.028 L 96.643 227.028 L 95.643 227.028 L 94.643 227.028 L 93.643 227.028 L 92.643 227.028 L 83.071 227.028 L 82.071 227.028 L 81.071 227.028 L 80.071 227.028 L 79.071 227.028 L 69.500 227.028 L 68.500 227.028 L 67.500 227.028 L 66.500 227.028 L 65.500 227.028 L 55.929 227.028 L 54.929 227.028 L 53.929 227.028 L 52.929 227.028 L 51.929 227.028 L 42.357 227.028 L 41.857 227.528 L 41.357 228.028 L 40.857 228.528 L 40.357 229.028 L 40.357 239.306 L 40.357 240.306 L 40.357 241.306 L 40.357 242.306 L 40.357 243.306 L 40.357 253.583 L 40.357 254.583 L 40.357 255.583 L 40.357 256.583 L 40.357 257.583 L 40.357 267.861 L 40.357 267.861 L 40.357 267.861 L 40.357 267.861 L 40.357 267.861 L 40.357 257.583 L 40.857 257.083 L 41.357 256.583 L 41.857 256.083 L 42.357 255.583 L 51.929 255.583 L 52.929 255.583 L 53.929 255.583 L 54.929 255.583 L 55.929 255.583 L 65.500 255.583 L 66.000 256.083 L 66.500 256.583 L 67.000 257.083 L 67.500 257.583 L 67.500 267.861 L 67.000 268.361 L 66.500 268.861 L 66.000 269.361 L 65.500 269.861 L 55.929 269.861 L 54.929 269.861 L 53.929 269.861 L 52.929 269.861 L 51.929 269.861 L 42.357 269.861 L 41.357 269.861 L 40.357 269.861 L 39.357 269.861 L 38.357 269.861 L 28.786 269.861 L 28.786 269.861 L 28.786 269.861 L 28.786 269.861 L 28.786 269.861 L 38.357 269.861 L 38.857 269.361 L 39.357 268.861 L 39.857 268.361 L 40.357 267.861 L 40.357 257.583 L 40.357 256.583 L 40.357 255.583 L 40.357 254.583 L 40.357 253.583 L 40.357 243.306 L 39.857 242.806 L 39.357 242.306 L 38.857 241.806 L 38.357 241.306 L 28.786 241.306 L 28.786 241.306 L 28.786 241.306 L 28.786 241.306 L 28.786 241.306 L 38.357 241.306 L 38.857 241.806 L 39.357 242.306 L 39.857 242.806 L 40.357 243.306 L 40.357 253.583 L 40.357 254.583 L 40.357 255.583 L 40.357 256.583 L 40.357 257.583 L 40.357 267.861 L 40.357 267.861 L 40.357 267.861 L 40.357 267.861 L 40.357 267.861 L 40.357 257.583 L 40.357 256.583 L 40.357 255.583 L 40.357 254.583 L 40.357 253.583 L 40.357 243.306 L 40.357 242.306 L 40.357 241.306 L 40.357 240.306 L 40.357 239.306 L 40.357 229.028 L 40.357 228.028 L 40.357 227.028 L 40.357 226.028 L 40.357 225.028 L 40.357 214.750 L 40.357 213.750 L 40.357 212.750 L 40.357 211.750 L 40.357 210.750 L 40.357 200.472 L 40.357 199.472 L 40.357 198.472 L 40.357 197.472 L 40.357 196.472 L 40.357 186.194 L 40.857 185.694 L 41.357 185.194 L 41.857 184.694 L 42.357 184.194 L 51.929 184.194 L 52.929 184.194 L 53.929 184.194 L 54.929 184.194 L 55.929 184.194 L 65.500 184.194 L 66.500 184.194 L 67.500 184.194 L 68.500 184.194 L 69.500 184.194 L 79.071 184.194 L 79.571 184.694 L 80.071 185.194 L 80.571 185.694 L 81.071 186.194 L 81.071 196.472 L 81.071 197.472 L 81.071 198.472 L 81.071 199.472 L 81.071 200.472 L 81.071 210.750 L 81.071 211.750 L 81.071 212.750 L 81.071 213.750 L 81.071 214.750 L 81.071 225.028 L 81.071 226.028 L 81.071 227.028 L 81.071 228.028 L 81.071 229.028 L 81.071 239.306 L 81.071 240.306 L 81.071 241.306 L 81.071 242.306 L 81.071 243.306 L 81.071 253.583 L 81.571 254.083 L 82.071 254.583 L 82.571 255.083 L 83.071 255.583 L 92.643 255.583 L 93.643 255.583 L 94.643 255.583 L 95.643 255.583 L 96.643 255.583 L 106.214 255.583 L 107.214 255.583 L 108.214 255.583 L 109.214 255.583 L 110.214 255.583 L 119.786 255.583 L 120.786 255.583 L 121.786 255.583 L 122.786 255.583 L 123.786 255.583 L 133.357 255.583 L 133.857 256.083 L 134.357 256.583 L 134.857 257.083 L 135.357 257.583 L 135.357 267.861 L 135.357 267.861 L 135.357 267.861 L 135.357 267.861 L 135.357 267.861 L 135.357 257.583 L 135.357 256.583 L 135.357 255.583 L 135.357 254.583 L 135.357 253.583 L 135.357 243.306 L 135.357 242.306 L 135.357 241.306 L 135.357 240.306 L 135.357 239.306 L 135.357 229.028 L 135.857 228.528 L 136.357 228.028 L 136.857 227.528 L 137.357 227.028 L 146.929 227.028 L 147.429 226.528 L 147.929 226.028 L 148.429 225.528 L 148.929 225.028 L 148.929 214.750 L 149.429 214.250 L 149.929 213.750 L 150.429 213.250 L 150.929 212.750 L 160.500 212.750 L 161.000 212.250 L 161.500 211.750 L 162.000 211.250 L 162.500 210.750 L 162.500 200.472 L 162.500 199.472 L 162.500 198.472 L 162.500 197.472 L 162.500 196.472 L 162.500 186.194 L 162.500 185.194 L 162.500 184.194 L 162.500 183.194 L 162.500 182.194 L 162.500 171.917 L 162.500 170.917 L 162.500 169.917 L 162.500 168.917 L 162.500 167.917 L 162.500 157.639 L 162.000 157.139 L 161.500 156.639 L 161.000 156.139 L 160.500 155.639 L 150.929 155.639 L 149.929 155.639 L 148.929 155.639 L 147.929 155.639 L 146.929 155.639 L 137.357 155.639 L 136.857 156.139 L 136.357 156.639 L 135.857 157.139 L 135.357 157.639 L 135.357 167.917 L 135.857 168.417 L 136.357 168.917 L 136.857 169.417 L 137.357 169.917 L 146.929 169.917 L 147.929 169.917 L 148.929 169.917 L 149.929 169.917 L 150.929 169.917 L 160.500 169.917 L 161.500 169.917 L 162.500 169.917 L 163.500 169.917 L 164.500 169.917 L 174.071 169.917 L 175.071 169.917 L 176.071 169.917 L 177.071 169.917 L 178.071 169.917 L 187.643 169.917 L 188.643 169.917 L 189.643 169.917 L 190.643 169.917 L 191.643 169.917 L 201.214 169.917 L 202.214 169.917 L 203.214 169.917 L 204.214 169.917 L 205.214 169.917 L 214.786 169.917 L 215.786 169.917 L 216.786 169.917 L 217.786 169.917 L 218.786 169.917 L 228.357 169.917 L 229.357 169.917 L 230.357 169.917 L 231.357 169.917 L 232.357 169.917 L 241.929 169.917 L 242.929 169.917 L 243.929 169.917 L 244.929 169.917 L 245.929 169.917 L 255.500 169.917 L 256.000 170.417 L 256.500 170.917 L 257.000 171.417 L 257.500 171.917 L 257.500 182.194 L 257.500 183.194 L 257.500 184.194 L 257.500 185.194 L 257.500 186.194 L 257.500 196.472 L 257.500 197.472 L 257.500 198.472 L 257.500 199.472 L 257.500 200.472 L 257.500 210.750 L 257.500 211.750 L 257.500 212.750 L 257.500 213.750 L 257.500 214.750 L 257.500 225.028 L 257.500 226.028 L 257.500 227.028 L 257.500 228.028 L 257.500 229.028 L 257.500 239.306 L 257.500 240.306 L 257.500 241.306 L 257.500 242.306 L 257.500 243.306 L 257.500 253.583 L 257.500 254.583 L 257.500 255.583 L 257.500 256.583 L 257.500 257.583 L 257.500 267.861 L 257.500 267.861 L 257.500 267.861 L 257.500 267.861 L 257.500 267.861 L 257.500 257.583 L 257.500 256.583 L 257.500 255.583 L 257.500 254.583 L 257.500 253.583 L 257.500 243.306 L 257.500 242.306 L 257.500 241.306 L 257.500 240.306 L 257.500 239.306 L 257.500 229.028 L 257.500 228.028 L 257.500 227.028 L 257.500 226.028 L 257.500 225.028 L 257.500 214.750 L 257.500 213.750 L 257.500 212.750 L 257.500 211.750 L 257.500 210.750 L 257.500 200.472 L 257.500 199.472 L 257.500 198.472 L 257.500 197.472 L 257.500 196.472 L 257.500 186.194 L 258.000 185.694 L 258.500 185.194 L 259.000 184.694 L 259.500 184.194 L 269.071 184.194 L 269.571 184.694 L 270.071 185.194 L 270.571 185.694 L 271.071 186.194 L 271.071 196.472 L 271.071 197.472 L 271.071 198.472 L 271.071 199.472 L 271.071 200.472 L 271.071 210.750 L 270.571 211.250 L 270.071 211.750 L 269.571 212.250 L 269.071 212.750 L 259.500 212.750 L 258.500 212.750 L 257.500 212.750 L 256.500 212.750 L 255.500 212.750 L 245.929 212.750 L 244.929 212.750 L 243.929 212.750 L 242.929 212.750 L 241.929 212.750 L 232.357 212.750 L 231.357 212.750 L 230.357 212.750 L 229.357 212.750 L 228.357 212.750 L 218.786 212.750 L 218.286 213.250 L 217.786 213.750 L 217.286 214.250 L 216.786 214.750 L 216.786 225.028 L 216.786 226.028 L 216.786 227.028 L 216.786 228.028 L 216.786 229.028 L 216.786 239.306 L 216.786 240.306 L 216.786 241.306 L 216.786 242.306 L 216.786 243.306 L 216.786 253.583 L 216.286 254.083 L 215.786 254.583 L 215.286 255.083 L 214.786 255.583 L 205.214 255.583 L 204.214 255.583 L 203.214 255.583 L 202.214 255.583 L 201.214 255.583 L 191.643 255.583 L 190.643 255.583 L 189.643 255.583 L 188.643 255.583 L 187.643 255.583 L 178.071 255.583 L 177.071 255.583 L 176.071 255.583 L 175.071 255.583 L 174.071 255.583 L 164.500 255.583 L 163.500 255.583 L 162.500 255.583 L 161.500 255.583 L 160.500 255.583 L 150.929 255.583 L 150.429 256.083 L 149.929 256.583 L 149.429 257.083 L 148.929 257.583 L 148.929 267.861 L 148.929 267.861 L 148.929 267.861 L 148.929 267.861 L 148.929 267.861 L 148.929 257.583 L 148.929 256.583 L 148.929 255.583 L 148.929 254.583 L 148.929 253.583 L 148.929 243.306 L 148.929 242.306 L 148.929 241.306 L 148.929 240.306 L 148.929 239.306 L 148.929 229.028 L 148.929 228.028 L 148.929 227.028 L 148.929 226.028 L 148.929 225.028 L 148.929 214.750 L 148.929 213.750 L 148.929 212.750 L 148.929 211.750 L 148.929 210.750 L 148.929 200.472 L 148.929 199.472 L 148.929 198.472 L 148.929 197.472 L 148.929 196.472 L 148.929 186.194 L 148.929 185.194 L 148.929 184.194 L 148.929 183.194 L 148.929 182.194 L 148.929 171.917 L 148.929 170.917 L 148.929 169.917 L 148.929 168.917 L 148.929 167.917 L 148.929 157.639 L 148.929 156.639 L 148.929 155.639 L 148.929 154.639 L 148.929 153.639 L 148.929 143.361 L 148.929 142.361 L 148.929 141.361 L 148.929 140.361 L 148.929 139.361 L 148.929 129.083 L 148.929 128.083 L 148.929 127.083 L 148.929 126.083 L 148.929 125.083 L 148.929 114.806 L 148.429 114.306 L 147.929 113.806 L 147.429 113.306 L 146.929 112.806 L 137.357 112.806 L 136.857 112.306 L 136.357 111.806 L 135.857 111.306 L 135.357 110.806 L 135.357 100.528 L 135.857 100.028 L 136.357 99.528 L 136.857 99.028 L 137.357 98.528 L 146.929 98.528 L 147.929 98.528 L 148.929 98.528 L 149.929 98.528 L 150.929 98.528 L 160.500 98.528 L 161.500 98.528 L 162.500 98.528 L 163.500 98.528 L 164.500 98.528 L 174.071 98.528 L 174.571 99.028 L 175.071 99.528 L 175.571 100.028 L 176.071 100.528 L 176.071 110.806 L 175.571 111.306 L 175.071 111.806 L 174.571 112.306 L 174.071 112.806 L 164.500 112.806 L 163.500 112.806 L 162.500 112.806 L 161.500 112.806 L 160.500 112.806 L 150.929 112.806 L 149.929 112.806 L 148.929 112.806 L 147.929 112.806 L 146.929 112.806 L 137.357 112.806 L 136.357 112.806 L 135.357 112.806 L 134.357 112.806 L 133.357 112.806 L 123.786 112.806 L 122.786 112.806 L 121.786 112.806 L 120.786 112.806 L 119.786 112.806 L 110.214 112.806 L 109.214 112.806 L 108.214 112.806 L 107.214 112.806 L 106.214 112.806 L 96.643 112.806 L 96.143 112.306 L 95.643 111.806 L 95.143 111.306 L 94.643 110.806 L 94.643 100.528 L 94.643 99.528 L 94.643 98.528 L 94.643 97.528 L 94.643 96.528 L 94.643 86.250 L 94.643 85.250 L 94.643 84.250 L 94.643 83.250 L 94.643 82.250 L 94.643 71.972 L 95.143 71.472 L 95.643 70.972 L 96.143 70.472 L 96.643 69.972 L 106.214 69.972 L 106.714 70.472 L 107.214 70.972 L 107.714 71.472 L 108.214 71.972 L 108.214 82.250 L 108.214 83.250 L 108.214 84.250 L 108.214 85.250 L 108.214 86.250 L 108.214 96.528 L 108.214 97.528 L 108.214 98.528 L 108.214 99.528 L 108.214 100.528 L 108.214 110.806 L 108.714 111.306 L 109.214 111.806 L 109.714 112.306 L 110.214 112.806 L 119.786 112.806 L 120.786 112.806 L 121.786 112.806 L 122.786 112.806 L 123.786 112.806 L 133.357 112.806 L 134.357 112.806 L 135.357 112.806 L 136.357 112.806 L 137.357 112.806 L 146.929 112.806 L 147.929 112.806 L 148.929 112.806 L 149.929 112.806 L 150.929 112.806 L 160.500 112.806 L 161.000 113.306 L 161.500 113.806 L 162.000 114.306 L 162.500 114.806 L 162.500 125.083 L 163.000 125.583 L 163.500 126.083 L 164.000 126.583 L 164.500 127.083 L 174.071 127.083 L 174.571 126.583 L 175.071 126.083 L 175.571 125.583 L 176.071 125.083 L 176.071 114.806 L 176.071 113.806 L 176.071 112.806 L 176.071 111.806 L 176.071 110.806 L 176.071 100.528 L 176.071 99.528 L 176.071 98.528 L 176.071 97.528 L 176.071 96.528 L 176.071 86.250 L 176.071 85.250 L 176.071 84.250 L 176.071 83.250 L 176.071 82.250 L 176.071 71.972 L 176.071 70.972 L 176.071 69.972 L 176.071 68.972 L 176.071 67.972 L 176.071 57.694 L 175.571 57.194 L 175.071 56.694 L 174.571 56.194 L 174.071 55.694 L 164.500 55.694 L 163.500 55.694 L 162.500 55.694 L 161.500 55.694 L 160.500 55.694 L 150.929 55.694 L 150.429 56.194 L 149.929 56.694 L 149.429 57.194 L 148.929 57.694 L 148.929 67.972 L 148.429 68.472 L 147.929 68.972 L 147.429 69.472 L 146.929 69.972 L 137.357 69.972 L 136.857 69.472 L 136.357 68.972 L 135.857 68.472 L 135.357 67.972 L 135.357 57.694 L 135.357 56.694 L 135.357 55.694 L 135.357 54.694 L 135.357 53.694 L 135.357 43.417 L 134.857 42.917 L 134.357 42.417 L 133.857 41.917 L 133.357 41.417 L 123.786 41.417 L 123.286 40.917 L 122.786 40.417 L 122.286 39.917 L 121.786 39.417 L 121.786 29.139 L 121.786 29.139 L 121.786 29.139 L 121.786 29.139 L 121.786 29.139 L 121.786 39.417 L 121.786 40.417 L 121.786 41.417 L 121.786 42.417 L 121.786 43.417 L 121.786 53.694 L 121.286 54.194 L 120.786 54.694 L 120.286 55.194 L 119.786 55.694 L 110.214 55.694 L 109.214 55.694 L 108.214 55.694 L 107.214 55.694 L 106.214 55.694 L 96.643 55.694 L 95.643 55.694 L 94.643 55.694 L 93.643 55.694 L 92.643 55.694 L 83.071 55.694 L 82.071 55.694 L 81.071 55.694 L 80.071 55.694 L 79.071 55.694 L 69.500 55.694 L 68.500 55.694 L 67.500 55.694 L 66.500 55.694 L 65.500 55.694 L 55.929 55.694 L 54.929 55.694 L 53.929 55.694 L 52.929 55.694 L 51.929 55.694 L 42.357 55.694 L 41.857 55.194 L 41.357 54.694 L 40.857 54.194 L 40.357 53.694 L 40.357 43.417 L 40.857 42.917 L 41.357 42.417 L 41.857 41.917 L 42.357 41.417 L 51.929 41.417 L 52.929 41.417 L 53.929 41.417 L 54.929 41.417 L 55.929 41.417 L 65.500 41.417 L 66.500 41.417 L 67.500 41.417 L 68.500 41.417 L 69.500 41.417 L 79.071 41.417 L 80.071 41.417 L 81.071 41.417 L 82.071 41.417 L 83.071 41.417 L 92.643 41.417 L 93.643 41.417 L 94.643 41.417 L 95.643 41.417 L 96.643 41.417 L 106.214 41.417 L 106.714 40.917 L 107.214 40.417 L 107.714 39.917 L 108.214 39.417 L 108.214 29.139 L 108.714 28.639 L 109.214 28.139 L 109.714 27.639 L 110.214 27.139 L 119.786 27.139 L 120.286 27.639 L 120.786 28.139 L 121.286 28.639 L 121.786 29.139 L 121.786 39.417 L 122.286 39.917 L 122.786 40.417 L 123.286 40.917 L 123.786 41.417 L 133.357 41.417 L 134.357 41.417 L 135.357 41.417 L 136.357 41.417 L 137.357 41.417 L 146.929 41.417 L 147.429 40.917 L 147.929 40.417 L 148.429 39.917 L 148.929 39.417 L 148.929 29.139 L 148.929 29.139 L 148.929 29.139 L 148.929 29.139 L 148.929 29.139 L 148.929 39.417 L 148.929 40.417 L 148.929 41.417 L 148.929 42.417 L 148.929 43.417 L 148.929 53.694 L 148.929 54.694 L 148.929 55.694 L 148.929 56.694 L 148.929 57.694 L 148.929 67.972 L 148.929 68.972 L 148.929 69.972 L 148.929 70.972 L 148.929 71.972 L 148.929 82.250 L 148.929 83.250 L 148.929 84.250 L 148.929 85.250 L 148.929 86.250 L 148.929 96.528 L 149.429 97.028 L 149.929 97.528 L 150.429 98.028 L 150.929 98.528 L 160.500 98.528 L 161.500 98.528 L 162.500 98.528 L 163.500 98.528 L 164.500 98.528 L 174.071 98.528 L 175.071 98.528 L 176.071 98.528 L 177.071 98.528 L 178.071 98.528 L 187.643 98.528 L 188.643 98.528 L 189.643 98.528 L 190.643 98.528 L 191.643 98.528 L 201.214 98.528 L 202.214 98.528 L 203.214 98.528 L 204.214 98.528 L 205.214 98.528 L 214.786 98.528 L 215.786 98.528 L 216.786 98.528 L 217.786 98.528 L 218.786 98.528 L 228.357 98.528 L 229.357 98.528 L 230.357 98.528 L 231.357 98.528 L 232.357 98.528 L 241.929 98.528 L 242.429 98.028 L 242.929 97.528 L 243.429 97.028 L 243.929 96.528 L 243.929 86.250 L 243.429 85.750 L 242.929 85.250 L 242.429 84.750 L 241.929 84.250 L 232.357 84.250 L 231.857 84.750 L 231.357 85.250 L 230.857 85.750 L 230.357 86.250 L 230.357 96.528 L 230.357 97.528 L 230.357 98.528 L 230.357 99.528 L 230.357 100.528 L 230.357 110.806 L 230.357 111.806 L 230.357 112.806 L 230.357 113.806 L 230.357 114.806 L 230.357 125.083 L 229.857 125.583 L 229.357 126.083 L 228.857 126.583 L 228.357 127.083 L 218.786 127.083 L 217.786 127.083 L 216.786 127.083 L 215.786 127.083 L 214.786 127.083 L 205.214 127.083 L 204.214 127.083 L 203.214 127.083 L 202.214 127.083 L 201.214 127.083 L 191.643 127.083 L 190.643 127.083 L 189.643 127.083 L 188.643 127.083 L 187.643 127.083 L 178.071 127.083 L 177.071 127.083 L 176.071 127.083 L 175.071 127.083 L 174.071 127.083 L 164.500 127.083 L 163.500 127.083 L 162.500 127.083 L 161.500 127.083 L 160.500 127.083 L 150.929 127.083 L 150.429 127.583 L 149.929 128.083 L 149.429 128.583 L 148.929 129.083 L 148.929 139.361 L 148.929 140.361 L 148.929 141.361 L 148.929 142.361 L 148.929 143.361 L 148.929 153.639 L 148.429 154.139 L 147.929 154.639 L 147.429 155.139 L 146.929 155.639 L 137.357 155.639 L 136.857 156.139 L 136.357 156.639 L 135.857 157.139 L 135.357 157.639 L 135.357 167.917 L 135.357 168.917 L 135.357 169.917 L 135.357 170.917 L 135.357 171.917 L 135.357 182.194 L 134.857 182.694 L 134.357 183.194 L 133.857 183.694 L 133.357 184.194 L 123.786 184.194 L 122.786 184.194 L 121.786 184.194 L 120.786 184.194 L 119.786 184.194 L 110.214 184.194 L 109.214 184.194 L 108.214 184.194 L 107.214 184.194 L 106.214 184.194 L 96.643 184.194 L 95.643 184.194 L 94.643 184.194 L 93.643 184.194 L 92.643 184.194 L 83.071 184.194 L 82.071 184.194 L 81.071 184.194 L 80.071 184.194 L 79.071 184.194 L 69.500 184.194 L 69.000 184.694 L 68.500 185.194 L 68.000 185.694 L 67.500 186.194 L 67.500 196.472 L 67.500 197.472 L 67.500 198.472 L 67.500 199.472 L 67.500 200.472 L 67.500 210.750 L 67.000 211.250 L 66.500 211.750 L 66.000 212.250 L 65.500 212.750 L 55.929 212.750 L 55.429 212.250 L 54.929 211.750 L 54.429 211.250 L 53.929 210.750 L 53.929 200.472 L 53.929 199.472 L 53.929 198.472 L 53.929 197.472 L 53.929 196.472 L 53.929 186.194 L 53.929 185.194 L 53.929 184.194 L 53.929 183.194 L 53.929 182.194 L 53.929 171.917 L 54.429 171.417 L 54.929 170.917 L 55.429 170.417 L 55.929 169.917 L 65.500 169.917 L 66.500 169.917 L 67.500 169.917 L 68.500 169.917 L 69.500 169.917 L 79.071 169.917 L 79.571 169.417 L 80.071 168.917 L 80.571 168.417 L 81.071 167.917 L 81.071 157.639 L 81.071 156.639 L 81.071 155.639 L 81.071 154.639 L 81.071 153.639 L 81.071 143.361 L 81.571 142.861 L 82.071 142.361 L 82.571 141.861 L 83.071 141.361 L 92.643 141.361 L 93.143 140.861 L 93.643 140.361 L 94.143 139.861 L 94.643 139.361 L 94.643 129.083 L 94.643 128.083 L 94.643 127.083 L 94.643 126.083 L 94.643 125.083 L 94.643 114.806 L 94.143 114.306 L 93.643 113.806 L 93.143 113.306 L 92.643 112.806 L 83.071 112.806 L 82.071 112.806 L 81.071 112.806 L 80.071 112.806 L 79.071 112.806 L 69.500 112.806 L 68.500 112.806 L 67.500 112.806 L 66.500 112.806 L 65.500 112.806 L 55.929 112.806 L 55.429 112.306 L 54.929 111.806 L 54.429 111.306 L 53.929 110.806 L 53.929 100.528 L 53.929 99.528 L 53.929 98.528 L 53.929 97.528 L 53.929 96.528 L 53.929 86.250 L 53.929 85.250 L 53.929 84.250 L 53.929 83.250 L 53.929 82.250 L 53.929 71.972 L 53.929 70.972 L 53.929 69.972 L 53.929 68.972 L 53.929 67.972 L 53.929 57.694 L 53.929 56.694 L 53.929 55.694 L 53.929 54.694 L 53.929 53.694 L 53.929 43.417 L 53.929 42.417 L 53.929 41.417 L 53.929 40.417 L 53.929 39.417 L 53.929 29.139 L 53.429 28.639 L 52.929 28.139 L 52.429 27.639 L 51.929 27.139 L 42.357 27.139 L 41.357 27.139 L 40.357 27.139 L 39.357 27.139 L 38.357 27.139 L 28.786 27.139 L 28.286 27.639 L 27.786 28.139 L 27.286 28.639 L 26.786 29.139 L 26.786 39.417 L 26.786 40.417 L 26.786 41.417 L 26.786 42.417 L 26.786 43.417 L 26.786 53.694 L 27.286 54.194 L 27.786 54.694 L 28.286 55.194 L 28.786 55.694 L 38.357 55.694 L 38.857 55.194 L 39.357 54.694 L 39.857 54.194 L 40.357 53.694 L 40.357 43.417 L 39.857 42.917 L 39.357 42.417 L 38.857 41.917 L 38.357 41.417 L 28.786 41.417 L 28.786 41.417 L 28.786 41.417 L 28.786 41.417 L 28.786 41.417 L 38.357 41.417 L 38.857 41.917 L 39.357 42.417 L 39.857 42.917 L 40.357 43.417 L 40.357 53.694 L 40.357 54.694 L 40.357 55.694 L 40.357 56.694 L 40.357 57.694 L 40.357 67.972 L 40.357 68.972 L 40.357 69.972 L 40.357 70.972 L 40.357 71.972 L 40.357 82.250 L 40.857 82.750 L 41.357 83.250 L 41.857 83.750 L 42.357 84.250 L 53.929 84.250 M 108.214 141.361 L 119.786 141.361 L 120.786 141.361 L 121.786 141.361 L 122.786 141.361 L 123.786 141.361 L 133.357 141.361 L 134.357 141.361 L 135.357 141.361 L 136.357 141.361 L 137.357 141.361 L 146.929 141.361 L 147.929 141.361 L 148.929 141.361 L 149.929 141.361 L 150.929 141.361 L 160.500 141.361 L 161.500 141.361 L 162.500 141.361 L 163.500 141.361 L 164.500 141.361 L 174.071 141.361 L 174.571 141.861 L 175.071 142.361 L 175.571 142.861 L 176.071 143.361 L 176.071 153.639 L 176.071 154.639 L 176.071 155.639 L 176.071 156.639 L 176.071 157.639 L 176.071 167.917 L 176.071 168.917 L 176.071 169.917 L 176.071 170.917 L 176.071 171.917 L 176.071 182.194 L 176.571 182.694 L 177.071 183.194 L 177.571 183.694 L 178.071 184.194 L 187.643 184.194 L 188.143 184.694 L 188.643 185.194 L 189.143 185.694 L 189.643 186.194 L 189.643 196.472 L 189.643 197.472 L 189.643 198.472 L 189.643 199.472 L 189.643 200.472 L 189.643 210.750 L 189.143 211.250 L 188.643 211.750 L 188.143 212.250 L 187.643 212.750 L 178.071 212.750 L 177.071 212.750 L 176.071 212.750 L 175.071 212.750 L 174.071 212.750 L 164.500 212.750 L 163.500 212.750 L 162.500 212.750 L 161.500 212.750 L 160.500 212.750 L 150.929 212.750 L 150.429 213.250 L 149.929 213.750 L 149.429 214.250 L 148.929 214.750 L 148.929 225.028 L 148.429 225.528 L 147.929 226.028 L 147.429 226.528 L 146.929 227.028 L 137.357 227.028 L 136.857 227.528 L 136.357 228.028 L 135.857 228.528 L 135.357 229.028 L 135.357 239.306 L 135.357 240.306 L 135.357 241.306 L 135.357 242.306 L 135.357 243.306 L 135.357 253.583 L 135.357 254.583 L 135.357 255.583 L 135.357 256.583 L 135.357 257.583 L 135.357 267.861 L 135.357 267.861 L 135.357 267.861 L 135.357 267.861 L 135.357 267.861 L 135.357 257.583 L 134.857 257.083 L 134.357 256.583 L 133.857 256.083 L 133.357 255.583 L 123.786 255.583 L 123.286 256.083 L 122.786 256.583 L 122.286 257.083 L 121.786 257.583 L 121.786 267.861 L 121.786 267.861 L 121.786 267.861 L 121.786 267.861 L 121.786 267.861 L 121.786 257.583 L 121.786 256.583 L 121.786 255.583 L 121.786 254.583 L 121.786 253.583 L 121.786 243.306 L 121.786 242.306 L 121.786 241.306 L 121.786 240.306 L 121.786 239.306 L 121.786 229.028 L 121.286 228.528 L 120.786 228.028 L 120.286 227.528 L 119.786 227.028 L 110.214 227.028 L 109.214 227.028 L 108.214 227.028 L 107.214 227.028 L 106.214 227.028 L 96.643 227.028 L 95.643 227.028 L 94.643 227.028 L 93.643 227.028 L 92.643 227.028 L 83.071 227.028 L 82.571 226.528 L 82.071 226.028 L 81.571 225.528 L 81.071 225.028 L 81.071 214.750 L 81.071 213.750 L 81.071 212.750 L 81.071 211.750 L 81.071 210.750 L 81.071 200.472 L 81.071 199.472 L 81.071 198.472 L 81.071 197.472 L 81.071 196.472 L 81.071 186.194 L 81.071 185.194 L 81.071 184.194 L 81.071 183.194 L 81.071 182.194 L 81.071 171.917 L 81.071 170.917 L 81.071 169.917 L 81.071 168.917 L 81.071 167.917 L 81.071 157.639 L 81.071 156.639 L 81.071 155.639 L 81.071 154.639 L 81.071 153.639 L 81.071 143.361 L 81.571 142.861 L 82.071 142.361 L 82.571 141.861 L 83.071 141.361 L 92.643 141.361 L 93.643 141.361 L 94.643 141.361 L 95.643 141.361 L 96.643 141.361 L 106.214 141.361 L 107.214 141.361 L 108.214 141.361 L 109.214 141.361 L 110.214 141.361 L 119.786 141.361 L 120.286 141.861 L 120.786 142.361 L 121.286 142.861 L 121.786 143.361 L 121.786 153.639 L 122.286 154.139 L 122.786 154.639 L 123.286 155.139 L 123.786 155.639 L 133.357 155.639 L 134.357 155.639 L 135.357 155.639 L 136.357 155.639 L 137.357 155.639 L 146.929 155.639 L 147.429 155.139 L 147.929 154.639 L 148.429 154.139 L 148.929 153.639 L 148.929 143.361 L 148.429 142.861 L 147.929 142.361 L 147.429 141.861 L 146.929 141.361 L 137.357 141.361 L 136.857 140.861 L 136.357 140.361 L 135.857 139.861 L 135.357 139.361 L 135.357 129.083 L 135.357 128.083 L 135.357 127.083 L 135.357 126.083 L 135.357 125.083 L 135.357 114.806 L 135.857 114.306 L 136.357 113.806 L 136.857 113.306 L 137.357 112.806 L 146.929 112.806 L 147.929 112.806 L 148.929 112.806 L 149.929 112.806 L 150.929 112.806 L 160.500 112.806 L 161.500 112.806 L 162.500 112.806 L 163.500 112.806 L 164.500 112.806 L 174.071 112.806 L 175.071 112.806 L 176.071 112.806 L 177.071 112.806 L 178.071 112.806 L 187.643 112.806 L 188.643 112.806 L 189.643 112.806 L 190.643 112.806 L 191.643 112.806 L 201.214 112.806 L 201.714 113.306 L 202.214 113.806 L 202.714 114.306 L 203.214 114.806 L 203.214 125.083 L 203.214 126.083 L 203.214 127.083 L 203.214 128.083 L 203.214 129.083 L 203.214 139.361 L 203.714 139.861 L 204.214 140.361 L 204.714 140.861 L 205.214 141.361 L 214.786 141.361 L 215.786 141.361 L 216.786 141.361 L 217.786 141.361 L 218.786 141.361 L 228.357 141.361 L 229.357 141.361 L 230.357 141.361 L 231.357 141.361 L 232.357 141.361 L 241.929 141.361 L 242.929 141.361 L 243.929 141.361 L 244.929 141.361 L 245.929 141.361 L 255.500 141.361 L 256.000 141.861 L 256.500 142.361 L 257.000 142.861 L 257.500 143.361 L 257.500 153.639 L 257.500 154.639 L 257.500 155.639 L 257.500 156.639 L 257.500 157.639 L 257.500 167.917 L 257.500 168.917 L 257.500 169.917 L 257.500 170.917 L 257.500 171.917 L 257.500 182.194 L 257.500 183.194 L 257.500 184.194 L 257.500 185.194 L 257.500 186.194 L 257.500 196.472 L 257.500 197.472 L 257.500 198.472 L 257.500 199.472 L 257.500 200.472 L 257.500 210.750 L 257.500 211.750 L 257.500 212.750 L 257.500 213.750 L 257.500 214.750 L 257.500 225.028 L 258.000 225.528 L 258.500 226.028 L 259.000 226.528 L 259.500 227.028 L 269.071 227.028 L 270.071 227.028 L 271.071 227.028 L 272.071 227.028 L 273.071 227.028 L 282.643 227.028 L 283.643 227.028 L 284.643 227.028 L 285.643 227.028 L 286.643 227.028 L 296.214 227.028 L 297.214 227.028 L 298.214 227.028 L 299.214 227.028 L 300.214 227.028 L 309.786 227.028 L 310.786 227.028 L 311.786 227.028 L 312.786 227.028 L 313.786 227.028 L 323.357 227.028 L 324.357 227.028 L 325.357 227.028 L 326.357 227.028 L 327.357 227.028 L 336.929 227.028 L 337.429 227.528 L 337.929 228.028 L 338.429 228.528 L 338.929 229.028 L 338.929 239.306 L 338.929 240.306 L 338.929 241.306 L 338.929 242.306 L 338.929 243.306 L 338.929 253.583 L 338.429 254.083 L 337.929 254.583 L 337.429 255.083 L 336.929 255.583 L 327.357 255.583 L 326.857 256.083 L 326.357 256.583 L 325.857 257.083 L 325.357 257.583 L 325.357 267.861 L 325.857 268.361 L 326.357 268.861 L 326.857 269.361 L 327.357 269.861 L 336.929 269.861 L 337.929 269.861 L 338.929 269.861 L 339.929 269.861 L 340.929 269.861 L 350.500 269.861 L 351.000 269.361 L 351.500 268.861 L 352.000 268.361 L 352.500 267.861 L 352.500 257.583 L 352.500 256.583 L 352.500 255.583 L 352.500 254.583 L 352.500 253.583 L 352.500 243.306 L 352.500 242.306 L 352.500 241.306 L 352.500 240.306 L 352.500 239.306 L 352.500 229.028 L 352.500 228.028 L 352.500 227.028 L 352.500 226.028 L 352.500 225.028 L 352.500 214.750 L 352.500 213.750 L 352.500 212.750 L 352.500 211.750 L 352.500 210.750 L 352.500 200.472 L 353.000 199.972 L 353.500 199.472 L 354.000 198.972 L 354.500 198.472 L 364.071 198.472 L 364.571 197.972 L 365.071 197.472 L 365.571 196.972 L 366.071 196.472 L 366.071 186.194 L 366.071 185.194 L 366.071 184.194 L 366.071 183.194 L 366.071 182.194 L 366.071 171.917 L 366.071 170.917 L 366.071 169.917 L 366.071 168.917 L 366.071 167.917 L 366.071 157.639 L 365.571 157.139 L 365.071 156.639 L 364.571 156.139 L 364.071 155.639 L 354.500 155.639 L 353.500 155.639 L 352.500 155.639 L 351.500 155.639 L 350.500 155.639 L 340.929 155.639 L 339.929 155.639 L 338.929 155.639 L 337.929 155.639 L 336.929 155.639 L 327.357 155.639 L 326.357 155.639 L 325.357 155.639 L 324.357 155.639 L 323.357 155.639 L 313.786 155.639 L 312.786 155.639 L 311.786 155.639 L 310.786 155.639 L 309.786 155.639 L 300.214 155.639 L 299.214 155.639 L 298.214 155.639 L 297.214 155.639 L 296.214 155.639 L 286.643 155.639 L 285.643 155.639 L 284.643 155.639 L 283.643 155.639 L 282.643 155.639 L 273.071 155.639 L 272.071 155.639 L 271.071 155.639 L 270.071 155.639 L 269.071 155.639 L 259.500 155.639 L 258.500 155.639 L 257.500 155.639 L 256.500 155.639 L 255.500 155.639 L 245.929 155.639 L 244.929 155.639 L 243.929 155.639 L 242.929 155.639 L 241.929 155.639 L 232.357 155.639 L 231.357 155.639 L 230.357 155.639 L 229.357 155.639 L 228.357 155.639 L 218.786 155.639 L 217.786 155.639 L 216.786 155.639 L 215.786 155.639 L 214.786 155.639 L 205.214 155.639 L 204.214 155.639 L 203.214 155.639 L 202.214 155.639 L 201.214 155.639 L 191.643 155.639 L 191.143 155.139 L 190.643 154.639 L 190.143 154.139 L 189.643 153.639 L 189.643 143.361 L 189.643 142.361 L 189.643 141.361 L 189.643 140.361 L 189.643 139.361 L 189.643 129.083 L 189.643 128.083 L 189.643 127.083 L 189.643 126.083 L 189.643 125.083 L 189.643 114.806 L 189.643 113.806 L 189.643 112.806 L 189.643 111.806 L 189.643 110.806 L 189.643 100.528 L 189.643 99.528 L 189.643 98.528 L 189.643 97.528 L 189.643 96.528 L 189.643 86.250 L 189.643 85.250 L 189.643 84.250 L 189.643 83.250 L 189.643 82.250 L 189.643 71.972 L 189.643 70.972 L 189.643 69.972 L 189.643 68.972 L 189.643 67.972 L 189.643 57.694 L 189.643 56.694 L 189.643 55.694 L 189.643 54.694 L 189.643 53.694 L 189.643 43.417 L 189.643 42.417 L 189.643 41.417 L 189.643 40.417 L 189.643 39.417 L 189.643 29.139 L 189.143 28.639 L 188.643 28.139 L 188.143 27.639 L 187.643 27.139 L 178.071 27.139 L 177.071 27.139 L 176.071 27.139 L 175.071 27.139 L 174.071 27.139 L 164.500 27.139 L 164.000 27.639 L 163.500 28.139 L 163.000 28.639 L 162.500 29.139 L 162.500 39.417 L 162.500 40.417 L 162.500 41.417 L 162.500 42.417 L 162.500 43.417 L 162.500 53.694 L 162.500 54.694 L 162.500 55.694 L 162.500 56.694 L 162.500 57.694 L 162.500 67.972 L 162.500 68.972 L 162.500 69.972 L 162.500 70.972 L 162.500 71.972 L 162.500 82.250 L 162.500 83.250 L 162.500 84.250 L 162.500 85.250 L 162.500 86.250 L 162.500 96.528 L 163.000 97.028 L 163.500 97.528 L 164.000 98.028 L 164.500 98.528 L 174.071 98.528 L 174.571 98.028 L 175.071 97.528 L 175.571 97.028 L 176.071 96.528 L 176.071 86.250 L 176.571 85.750 L 177.071 85.250 L 177.571 84.750 L 178.071 84.250 L 187.643 84.250 L 188.643 84.250 L 189.643 84.250 L 190.643 84.250 L 191.643 84.250 L 201.214 84.250 L 202.214 84.250 L 203.214 84.250 L 204.214 84.250 L 205.214 84.250 L 214.786 84.250 L 215.786 84.250 L 216.786 84.250 L 217.786 84.250 L 218.786 84.250 L 228.357 84.250 L 229.357 84.250 L 230.357 84.250 L 231.357 84.250 L 232.357 84.250 L 241.929 84.250 L 242.929 84.250 L 243.929 84.250 L 244.929 84.250 L 245.929 84.250 L 255.500 84.250 L 256.000 83.750 L 256.500 83.250 L 257.000 82.750 L 257.500 82.250 L 257.500 71.972 L 257.500 70.972 L 257.500 69.972 L 257.500 68.972 L 257.500 67.972 L 257.500 57.694 L 258.000 57.194 L 258.500 56.694 L 259.000 56.194 L 259.500 55.694 L 269.071 55.694 L 269.571 55.194 L 270.071 54.694 L 270.571 54.194 L 271.071 53.694 L 271.071 43.417 L 270.571 42.917 L 270.071 42.417 L 269.571 41.917 L 269.071 41.417 L 259.500 41.417 L 259.000 40.917 L 258.500 40.417 L 258.000 39.917 L 257.500 39.417 L 257.500 29.139 L 257.500 29.139 L 257.500 29.139 L 257.500 29.139 L 257.500 29.139 L 257.500 39.417 L 257.500 40.417 L 257.500 41.417 L 257.500 42.417 L 257.500 43.417 L 257.500 53.694 L 257.500 54.694 L 257.500 55.694 L 257.500 56.694 L 257.500 57.694 L 257.500 67.972 L 257.500 68.972 L 257.500 69.972 L 257.500 70.972 L 257.500 71.972 L 257.500 82.250 L 257.500 83.250 L 257.500 84.250 L 257.500 85.250 L 257.500 86.250 L 257.500 96.528 L 258.000 97.028 L 258.500 97.528 L 259.000 98.028 L 259.500 98.528 L 269.071 98.528 L 270.071 98.528 L 271.071 98.528 L 272.071 98.528 L 273.071 98.528 L 282.643 98.528 L 283.643 98.528 L 284.643 98.528 L 285.643 98.528 L 286.643 98.528 L 296.214 98.528 L 297.214 98.528 L 298.214 98.528 L 299.214 98.528 L 300.214 98.528 L 309.786 98.528 L 310.286 98.028 L 310.786 97.528 L 311.286 97.028 L 311.786 96.528 L 311.786 86.250 L 311.786 85.250 L 311.786 84.250 L 311.786 83.250 L 311.786 82.250 L 311.786 71.972 L 311.286 71.472 L 310.786 70.972 L 310.286 70.472 L 309.786 69.972 L 300.214 69.972 L 299.214 69.972 L 298.214 69.972 L 297.214 69.972 L 296.214 69.972 L 286.643 69.972 L 285.643 69.972 L 284.643 69.972 L 283.643 69.972 L 282.643 69.972 L 273.071 69.972 L 272.071 69.972 L 271.071 69.972 L 270.071 69.972 L 269.071 69.972 L 259.500 69.972 L 258.500 69.972 L 257.500 69.972 L 256.500 69.972 L 255.500 69.972 L 245.929 69.972 L 245.429 69.472 L 244.929 68.972 L 244.429 68.472 L 243.929 67.972 L 243.929 57.694 L 243.929 56.694 L 243.929 55.694 L 243.929 54.694 L 243.929 53.694 L 243.929 43.417 L 243.929 42.417 L 243.929 41.417 L 243.929 40.417 L 243.929 39.417 L 243.929 29.139 L 243.429 28.639 L 242.929 28.139 L 242.429 27.639 L 241.929 27.139 L 232.357 27.139 L 231.357 27.139 L 230.357 27.139 L 229.357 27.139 L 228.357 27.139 L 218.786 27.139 L 218.286 27.639 L 217.786 28.139 L 217.286 28.639 L 216.786 29.139 L 216.786 39.417 L 216.786 40.417 L 216.786 41.417 L 216.786 42.417 L 216.786 43.417 L 216.786 53.694 L 216.786 54.694 L 216.786 55.694 L 216.786 56.694 L 216.786 57.694 L 216.786 67.972 L 216.786 68.972 L 216.786 69.972 L 216.786 70.972 L 216.786 71.972 L 216.786 82.250 L 216.786 83.250 L 216.786 84.250 L 216.786 85.250 L 216.786 86.250 L 216.786 96.528 L 216.786 97.528 L 216.786 98.528 L 216.786 99.528 L 216.786 100.528 L 216.786 110.806 L 216.786 111.806 L 216.786 112.806 L 216.786 113.806 L 216.786 114.806 L 216.786 125.083 L 216.786 126.083 L 216.786 127.083 L 216.786 128.083 L 216.786 129.083 L 216.786 139.361 L 216.786 140.361 L 216.786 141.361 L 216.786 142.361 L 216.786 143.361 L 216.786 153.639 L 216.786 154.639 L 216.786 155.639 L 216.786 156.639 L 216.786 157.639 L 216.786 167.917 L 217.286 168.417 L 217.786 168.917 L 218.286 169.417 L 218.786 169.917 L 228.357 169.917 L 229.357 169.917 L 230.357 169.917 L 231.357 169.917 L 232.357 169.917 L 241.929 169.917 L 242.429 170.417 L 242.929 170.917 L 243.429 171.417 L 243.929 171.917 L 243.929 182.194 L 243.929 183.194 L 243.929 184.194 L 243.929 185.194 L 243.929 186.194 L 243.929 196.472 L 243.929 197.472 L 243.929 198.472 L 243.929 199.472 L 243.929 200.472 L 243.929 210.750 L 243.429 211.250 L 242.929 211.750 L 242.429 212.250 L 241.929 212.750 L 232.357 212.750 L 231.857 213.250 L 231.357 213.750 L 230.857 214.250 L 230.357 214.750 L 230.357 225.028 L 230.357 226.028 L 230.357 227.028 L 230.357 228.028 L 230.357 229.028 L 230.357 239.306 L 230.357 240.306 L 230.357 241.306 L 230.357 242.306 L 230.357 243.306 L 230.357 253.583 L 230.357 254.583 L 230.357 255.583 L 230.357 256.583 L 230.357 257.583 L 230.357 267.861 L 229.857 268.361 L 229.357 268.861 L 228.857 269.361 L 228.357 269.861 L 218.786 269.861 L 218.286 269.361 L 217.786 268.861 L 217.286 268.361 L 216.786 267.861 L 216.786 257.583 L 217.286 257.083 L 217.786 256.583 L 218.286 256.083 L 218.786 255.583 L 228.357 255.583 L 229.357 255.583 L 230.357 255.583 L 231.357 255.583 L 232.357 255.583 L 241.929 255.583 L 242.929 255.583 L 243.929 255.583 L 244.929 255.583 L 245.929 255.583 L 255.500 255.583 L 256.000 255.083 L 256.500 254.583 L 257.000 254.083 L 257.500 253.583 L 257.500 243.306 L 257.500 242.306 L 257.500 241.306 L 257.500 240.306 L 257.500 239.306 L 257.500 229.028 L 257.500 228.028 L 257.500 227.028 L 257.500 226.028 L 257.500 225.028 L 257.500 214.750 L 257.500 213.750 L 257.500 212.750 L 257.500 211.750 L 257.500 210.750 L 257.500 200.472 L 257.500 199.472 L 257.500 198.472 L 257.500 197.472 L 257.500 196.472 L 257.500 186.194 L 257.500 185.194 L 257.500 184.194 L 257.500 183.194 L 257.500 182.194 L 257.500 171.917 L 257.500 170.917 L 257.500 169.917 L 257.500 168.917 L 257.500 167.917 L 257.500 157.639 L 257.500 156.639 L 257.500 155.639 L 257.500 154.639 L 257.500 153.639 L 257.500 143.361 L 257.500 142.361 L 257.500 141.361 L 257.500 140.361 L 257.500 139.361 L 257.500 129.083 L 257.000 128.583 L 256.500 128.083 L 256.000 127.583 L 255.500 127.083 L 245.929 127.083 L 245.429 127.583 L 244.929 128.083 L 244.429 128.583 L 243.929 129.083 L 243.929 139.361 L 243.929 140.361 L 243.929 141.361 L 243.929 142.361 L 243.929 143.361 L 243.929 153.639 L 243.929 154.639 L 243.929 155.639 L 243.929 156.639 L 243.929 157.639 L 243.929 167.917 L 243.929 168.917 L 243.929 169.917 L 243.929 170.917 L 243.929 171.917 L 243.929 182.194 L 243.929 183.194 L 243.929 184.194 L 243.929 185.194 L 243.929 186.194 L 243.929 196.472 L 244.429 196.972 L 244.929 197.472 L 245.429 197.972 L 245.929 198.472 L 255.500 198.472 L 256.500 198.472 L 257.500 198.472 L 258.500 198.472 L 259.500 198.472 L 269.071 198.472 L 270.071 198.472 L 271.071 198.472 L 272.071 198.472 L 273.071 198.472 L 282.643 198.472 L 283.643 198.472 L 284.643 198.472 L 285.643 198.472 L 286.643 198.472 L 296.214 198.472 L 297.214 198.472 L 298.214 198.472 L 299.214 198.472 L 300.214 198.472 L 309.786 198.472 L 310.286 197.972 L 310.786 197.472 L 311.286 196.972 L 311.786 196.472 L 311.786 186.194 L 311.786 185.194 L 311.786 184.194 L 311.786 183.194 L 311.786 182.194 L 311.786 171.917 L 311.786 170.917 L 311.786 169.917 L 311.786 168.917 L 311.786 167.917 L 311.786 157.639 L 311.786 156.639 L 311.786 155.639 L 311.786 154.639 L 311.786 153.639 L 311.786 143.361 L 312.286 142.861 L 312.786 142.361 L 313.286 141.861 L 313.786 141.361 L 323.357 141.361 L 324.357 141.361 L 325.357 141.361 L 326.357 141.361 L 327.357 141.361 L 336.929 141.361 L 337.929 141.361 L 338.929 141.361 L 339.929 141.361 L 340.929 141.361 L 350.500 141.361 L 351.500 141.361 L 352.500 141.361 L 353.500 141.361 L 354.500 141.361 L 364.071 141.361 L 365.071 141.361 L 366.071 141.361 L 367.071 141.361 L 368.071 141.361 L 377.643 141.361 L 378.143 141.861 L 378.643 142.361 L 379.143 142.861 L 379.643 143.361 L 379.643 153.639 L 379.143 154.139 L 378.643 154.639 L 378.143 155.139 L 377.643 155.639 L 368.071 155.639 L 367.571 155.139 L 367.071 154.639 L 366.571 154.139 L 366.071 153.639 L 366.071 143.361 L 365.571 142.861 L 365.071 142.361 L 364.571 141.861 L 364.071 141.361 L 354.500 141.361 L 354.000 141.861 L 353.500 142.361 L 353.000 142.861 L 352.500 143.361 L 352.500 153.639 L 352.500 154.639 L 352.500 155.639 L 352.500 156.639 L 352.500 157.639 L 352.500 167.917 L 353.000 168.417 L 353.500 168.917 L 354.000 169.417 L 354.500 169.917 L 364.071 169.917 L 364.571 169.417 L 365.071 168.917 L 365.571 168.417 L 366.071 167.917 L 366.071 157.639 L 366.071 156.639 L 366.071 155.639 L 366.071 154.639 L 366.071 153.639 L 366.071 143.361 L 366.071 142.361 L 366.071 141.361 L 366.071 140.361 L 366.071 139.361 L 366.071 129.083 L 366.071 128.083 L 366.071 127.083 L 366.071 126.083 L 366.071 125.083 L 366.071 114.806 L 366.571 114.306 L 367.071 113.806 L 367.571 113.306 L 368.071 112.806 L 377.643 112.806 L 378.643 112.806 L 379.643 112.806 L 380.643 112.806 L 381.643 112.806 L 391.214 112.806 L 391.214 112.806 L 391.214 112.806 L 391.214 112.806 L 391.214 112.806 L 381.643 112.806 L 380.643 112.806 L 379.643 112.806 L 378.643 112.806 L 377.643 112.806 L 368.071 112.806 L 367.071 112.806 L 366.071 112.806 L 365.071 112.806 L 364.071 112.806 L 354.500 112.806 L 353.500 112.806 L 352.500 112.806 L 351.500 112.806 L 350.500 112.806 L 340.929 112.806 L 339.929 112.806 L 338.929 112.806 L 337.929 112.806 L 336.929 112.806 L 327.357 112.806 L 326.357 112.806 L 325.357 112.806 L 324.357 112.806 L 323.357 112.806 L 313.786 112.806 L 313.286 112.306 L 312.786 111.806 L 312.286 111.306 L 311.786 110.806 L 311.786 100.528 L 311.286 100.028 L 310.786 99.528 L 310.286 99.028 L 309.786 98.528 L 300.214 98.528 L 299.214 98.528 L 298.214 98.528 L 297.214 98.528 L 296.214 98.528 L 286.643 98.528 L 286.143 99.028 L 285.643 99.528 L 285.143 100.028 L 284.643 100.528 L 284.643 110.806 L 284.643 111.806 L 284.643 112.806 L 284.643 113.806 L 284.643 114.806 L 284.643 125.083 L 284.643 126.083 L 284.643 127.083 L 284.643 128.083 L 284.643 129.083 L 284.643 139.361 L 284.643 140.361 L 284.643 141.361 L 284.643 142.361 L 284.643 143.361 L 284.643 153.639 L 284.643 154.639 L 284.643 155.639 L 284.643 156.639 L 284.643 157.639 L 284.643 167.917 L 284.643 168.917 L 284.643 169.917 L 284.643 170.917 L 284.643 171.917 L 284.643 182.194 L 284.643 183.194 L 284.643 184.194 L 284.643 185.194 L 284.643 186.194 L 284.643 196.472 L 284.643 197.472 L 284.643 198.472 L 284.643 199.472 L 284.643 200.472 L 284.643 210.750 L 284.643 211.750 L 284.643 212.750 L 284.643 213.750 L 284.643 214.750 L 284.643 225.028 L 285.143 225.528 L 285.643 226.028 L 286.143 226.528 L 286.643 227.028 L 296.214 227.028 L 296.714 226.528 L 297.214 226.028 L 297.714 225.528 L 298.214 225.028 L 298.214 214.750 L 298.214 213.750 L 298.214 212.750 L 298.214 211.750 L 298.214 210.750 L 298.214 200.472 L 298.214 199.472 L 298.214 198.472 L 298.214 197.472 L 298.214 196.472 L 298.214 186.194 L 298.214 185.194 L 298.214 184.194 L 298.214 183.194 L 298.214 182.194 L 298.214 171.917 L 298.714 171.417 L 299.214 170.917 L 299.714 170.417 L 300.214 169.917 L 309.786 169.917 L 310.786 169.917 L 311.786 169.917 L 312.786 169.917 L 313.786 169.917 L 323.357 169.917 L 324.357 169.917 L 325.357 169.917 L 326.357 169.917 L 327.357 169.917 L 336.929 169.917 L 337.929 169.917 L 338.929 169.917 L 339.929 169.917 L 340.929 169.917 L 350.500 169.917 L 351.000 169.417 L 351.500 168.917 L 352.000 168.417 L 352.500 167.917 L 352.500 157.639 L 352.000 157.139 L 351.500 156.639 L 351.000 156.139 L 350.500 155.639 L 340.929 155.639 L 339.929 155.639 L 338.929 155.639 L 337.929 155.639 L 336.929 155.639 L 327.357 155.639 L 326.857 155.139 L 326.357 154.639 L 325.857 154.139 L 325.357 153.639 L 325.357 143.361 L 325.357 142.361 L 325.357 141.361 L 325.357 140.361 L 325.357 139.361 L 325.357 129.083 L 325.357 128.083 L 325.357 127.083 L 325.357 126.083 L 325.357 125.083 L 325.357 114.806 L 325.357 113.806 L 325.357 112.806 L 325.357 111.806 L 325.357 110.806 L 325.357 100.528 L 325.357 99.528 L 325.357 98.528 L 325.357 97.528 L 325.357 96.528 L 325.357 86.250 L 325.357 85.250 L 325.357 84.250 L 325.357 83.250 L 325.357 82.250 L 325.357 71.972 L 325.357 70.972 L 325.357 69.972 L 325.357 68.972 L 325.357 67.972 L 325.357 57.694 L 325.357 56.694 L 325.357 55.694 L 325.357 54.694 L 325.357 53.694 L 325.357 43.417 L 325.357 42.417 L 325.357 41.417 L 325.357 40.417 L 325.357 39.417 L 325.357 29.139 L 324.857 28.639 L 324.357 28.139 L 323.857 27.639 L 323.357 27.139 L 313.786 27.139 L 312.786 27.139 L 311.786 27.139 L 310.786 27.139 L 309.786 27.139 L 300.214 27.139 L 299.214 27.139 L 298.214 27.139 L 297.214 27.139 L 296.214 27.139 L 286.643 27.139 L 285.643 27.139 L 284.643 27.139 L 283.643 27.139 L 282.643 27.139 L 273.071 27.139 L 272.071 27.139 L 271.071 27.139 L 270.071 27.139 L 269.071 27.139 L 259.500 27.139 L 259.000 27.639 L 258.500 28.139 L 258.000 28.639 L 257.500 29.139 L 257.500 39.417 L 258.000 39.917 L 258.500 40.417 L 259.000 40.917 L 259.500 41.417 L 269.071 41.417 L 270.071 41.417 L 271.071 41.417 L 272.071 41.417 L 273.071 41.417 L 284.643 41.417 M 121.786 212.750 L 133.357 212.750 L 134.357 212.750 L 135.357 212.750 L 136.357 212.750 L 137.357 212.750 L 146.929 212.750 L 147.929 212.750 L 148.929 212.750 L 149.929 212.750 L 150.929 212.750 L 160.500 212.750 L 161.000 212.250 L 161.500 211.750 L 162.000 211.250 L 162.500 210.750 L 162.500 200.472 L 162.500 199.472 L 162.500 198.472 L 162.500 197.472 L 162.500 196.472 L 162.500 186.194 L 162.500 185.194 L 162.500 184.194 L 162.500 183.194 L 162.500 182.194 L 162.500 171.917 L 163.000 171.417 L 163.500 170.917 L 164.000 170.417 L 164.500 169.917 L 174.071 169.917 L 174.571 170.417 L 175.071 170.917 L 175.571 171.417 L 176.071 171.917 L 176.071 182.194 L 176.071 183.194 L 176.071 184.194 L 176.071 185.194 L 176.071 186.194 L 176.071 196.472 L 176.071 197.472 L 176.071 198.472 L 176.071 199.472 L 176.071 200.472 L 176.071 210.750 L 176.071 211.750 L 176.071 212.750 L 176.071 213.750 L 176.071 214.750 L 176.071 225.028 L 176.071 226.028 L 176.071 227.028 L 176.071 228.028 L 176.071 229.028 L 176.071 239.306 L 176.071 240.306 L 176.071 241.306 L 176.071 242.306 L 176.071 243.306 L 176.071 253.583 L 176.071 254.583 L 176.071 255.583 L 176.071 256.583 L 176.071 257.583 L 176.071 267.861 L 176.071 267.861 L 176.071 267.861 L 176.071 267.861 L 176.071 267.861 L 176.071 257.583 L 176.571 257.083 L 177.071 256.583 L 177.571 256.083 L 178.071 255.583 L 187.643 255.583 L 188.643 255.583 L 189.643 255.583 L 190.643 255.583 L 191.643 255.583 L 201.214 255.583 L 202.214 255.583 L 203.214 255.583 L 204.214 255.583 L 205.214 255.583 L 214.786 255.583 L 215.786 255.583 L 216.786 255.583 L 217.786 255.583 L 218.786 255.583 L 228.357 255.583 L 228.857 256.083 L 229.357 256.583 L 229.857 257.083 L 230.357 257.583 L 230.357 267.861 L 230.357 267.861 L 230.357 267.861 L 230.357 267.861 L 230.357 267.861 L 230.357 257.583 L 230.857 257.083 L 231.357 256.583 L 231.857 256.083 L 232.357 255.583 L 241.929 255.583 L 242.929 255.583 L 243.929 255.583 L 244.929 255.583 L 245.929 255.583 L 255.500 255.583 L 256.500 255.583 L 257.500 255.583 L 258.500 255.583 L 259.500 255.583 L 269.071 255.583 L 269.571 255.083 L 270.071 254.583 L 270.571 254.083 L 271.071 253.583 L 271.071 243.306 L 271.071 242.306 L 271.071 241.306 L 271.071 240.306 L 271.071 239.306 L 271.071 229.028 L 271.071 228.028 L 271.071 227.028 L 271.071 226.028 L 271.071 225.028 L 271.071 214.750 L 270.571 214.250 L 270.071 213.750 L 269.571 213.250 L 269.071 212.750 L 259.500 212.750 L 258.500 212.750 L 257.500 212.750 L 256.500 212.750 L 255.500 212.750 L 245.929 212.750 L 245.429 213.250 L 244.929 213.750 L 244.429 214.250 L 243.929 214.750 L 243.929 225.028 L 243.929 226.028 L 243.929 227.028 L 243.929 228.028 L 243.929 229.028 L 243.929 239.306 L 243.429 239.806 L 242.929 240.306 L 242.429 240.806 L 241.929 241.306 L 232.357 241.306 L 231.357 241.306 L 230.357 241.306 L 229.357 241.306 L 228.357 241.306 L 218.786 241.306 L 218.286 241.806 L 217.786 242.306 L 217.286 242.806 L 216.786 243.306 L 216.786 253.583 L 216.786 254.583 L 216.786 255.583 L 216.786 256.583 L 216.786 257.583 L 216.786 267.861 L 216.786 267.861 L 216.786 267.861 L 216.786 267.861 L 216.786 267.861 L 216.786 257.583 L 216.786 256.583 L 216.786 255.583 L 216.786 254.583 L 216.786 253.583 L 216.786 243.306 L 216.786 242.306 L 216.786 241.306 L 216.786 240.306 L 216.786 239.306 L 216.786 229.028 L 217.286 228.528 L 217.786 228.028 L 218.286 227.528 L 218.786 227.028 L 228.357 227.028 L 229.357 227.028 L 230.357 227.028 L 231.357 227.028 L 232.357 227.028 L 241.929 227.028 L 242.929 227.028 L 243.929 227.028 L 244.929 227.028 L 245.929 227.028 L 255.500 227.028 L 256.500 227.028 L 257.500 227.028 L 258.500 227.028 L 259.500 227.028 L 269.071 227.028 L 270.071 227.028 L 271.071 227.028 L 272.071 227.028 L 273.071 227.028 L 282.643 227.028 L 283.643 227.028 L 284.643 227.028 L 285.643 227.028 L 286.643 227.028 L 296.214 227.028 L 297.214 227.028 L 298.214 227.028 L 299.214 227.028 L 300.214 227.028 L 309.786 227.028 L 310.786 227.028 L 311.786 227.028 L 312.786 227.028 L 313.786 227.028 L 323.357 227.028 L 324.357 227.028 L 325.357 227.028 L 326.357 227.028 L 327.357 227.028 L 336.929 227.028 L 337.929 227.028 L 338.929 227.028 L 339.929 227.028 L 340.929 227.028 L 350.500 227.028 L 351.500 227.028 L 352.500 227.028 L 353.500 227.028 L 354.500 227.028 L 364.071 227.028 L 365.071 227.028 L 366.071 227.028 L 367.071 227.028 L 368.071 227.028 L 377.643 227.028 L 378.143 227.528 L 378.643 228.028 L 379.143 228.528 L 379.643 229.028 L 379.643 239.306 L 379.643 240.306 L 379.643 241.306 L 379.643 242.306 L 379.643 243.306 L 379.643 253.583 L 379.143 254.083 L 378.643 254.583 L 378.143 255.083 L 377.643 255.583 L 368.071 255.583 L 367.571 255.083 L 367.071 254.583 L 366.571 254.083 L 366.071 253.583 L 366.071 243.306 L 366.071 242.306 L 366.071 241.306 L 366.071 240.306 L 366.071 239.306 L 366.071 229.028 L 365.571 228.528 L 365.071 228.028 L 364.571 227.528 L 364.071 227.028 L 354.500 227.028 L 353.500 227.028 L 352.500 227.028 L 351.500 227.028 L 350.500 227.028 L 340.929 227.028 L 339.929 227.028 L 338.929 227.028 L 337.929 227.028 L 336.929 227.028 L 327.357 227.028 L 326.857 226.528 L 326.357 226.028 L 325.857 225.528 L 325.357 225.028 L 325.357 214.750 L 325.357 213.750 L 325.357 212.750 L 325.357 211.750 L 325.357 210.750 L 325.357 200.472 L 325.857 199.972 L 326.357 199.472 L 326.857 198.972 L 327.357 198.472 L 336.929 198.472 L 337.929 198.472 L 338.929 198.472 L 339.929 198.472 L 340.929 198.472 L 350.500 198.472 L 351.000 198.972 L 351.500 199.472 L 352.000 199.972 L 352.500 200.472 L 352.500 210.750 L 352.500 211.750 L 352.500 212.750 L 352.500 213.750 L 352.500 214.750 L 352.500 225.028 L 352.500 226.028 L 352.500 227.028 L 352.500 228.028 L 352.500 229.028 L 352.500 239.306 L 352.500 240.306 L 352.500 241.306 L 352.500 242.306 L 352.500 243.306 L 352.500 253.583 L 352.500 254.583 L 352.500 255.583 L 352.500 256.583 L 352.500 257.583 L 352.500 267.861 L 352.000 268.361 L 351.500 268.861 L 351.000 269.361 L 350.500 269.861 L 340.929 269.861 L 339.929 269.861 L 338.929 269.861 L 337.929 269.861 L 336.929 269.861 L 327.357 269.861 L 326.857 269.361 L 326.357 268.861 L 325.857 268.361 L 325.357 267.861 L 325.357 257.583 L 325.357 256.583 L 325.357 255.583 L 325.357 254.583 L 325.357 253.583 L 325.357 243.306 L 325.357 242.306 L 325.357 241.306 L 325.357 240.306 L 325.357 239.306 L 325.357 229.028 L 325.357 228.028 L 325.357 227.028 L 325.357 226.028 L 325.357 225.028 L 325.357 214.750 L 325.357 213.750 L 325.357 212.750 L 325.357 211.750 L 325.357 210.750 L 325.357 200.472 L 325.857 199.972 L 326.357 199.472 L 326.857 198.972 L 327.357 198.472 L 336.929 198.472 L 337.929 198.472 L 338.929 198.472 L 339.929 198.472 L 340.929 198.472 L 350.500 198.472 L 351.000 198.972 L 351.500 199.472 L 352.000 199.972 L 352.500 200.472 L 352.500 210.750 L 352.000 211.250 L 351.500 211.750 L 351.000 212.250 L 350.500 212.750 L 340.929 212.750 L 340.429 213.250 L 339.929 213.750 L 339.429 214.250 L 338.929 214.750 L 338.929 225.028 L 338.929 226.028 L 338.929 227.028 L 338.929 228.028 L 338.929 229.028 L 338.929 239.306 L 338.429 239.806 L 337.929 240.306 L 337.429 240.806 L 336.929 241.306 L 327.357 241.306 L 326.357 241.306 L 325.357 241.306 L 324.357 241.306 L 323.357 241.306 L 313.786 241.306 L 312.786 241.306 L 311.786 241.306 L 310.786 241.306 L 309.786 241.306 L 300.214 241.306 L 299.714 241.806 L 299.214 242.306 L 298.714 242.806 L 298.214 243.306 L 298.214 253.583 L 298.214 254.583 L 298.214 255.583 L 298.214 256.583 L 298.214 257.583 L 298.214 267.861 L 298.214 267.861 L 298.214 267.861 L 298.214 267.861 L 298.214 267.861 L 298.214 257.583 L 297.714 257.083 L 297.214 256.583 L 296.714 256.083 L 296.214 255.583 L 286.643 255.583 L 285.643 255.583 L 284.643 255.583 L 283.643 255.583 L 282.643 255.583 L 273.071 255.583 L 272.071 255.583 L 271.071 255.583 L 270.071 255.583 L 269.071 255.583 L 259.500 255.583 L 258.500 255.583 L 257.500 255.583 L 256.500 255.583 L 255.500 255.583 L 245.929 255.583 L 245.429 256.083 L 244.929 256.583 L 244.429 257.083 L 243.929 257.583 L 243.929 267.861 L 243.929 267.861 L 243.929 267.861 L 243.929 267.861 L 243.929 267.861 L 243.929 257.583 L 243.929 256.583 L 243.929 255.583 L 243.929 254.583 L 243.929 253.583 L 243.929 243.306 L 243.929 242.306 L 243.929 241.306 L 243.929 240.306 L 243.929 239.306 L 243.929 229.028 L 243.929 228.028 L 243.929 227.028 L 243.929 226.028 L 243.929 225.028 L 243.929 214.750 L 243.929 213.750 L 243.929 212.750 L 243.929 211.750 L 243.929 210.750 L 243.929 200.472 L 243.929 199.472 L 243.929 198.472 L 243.929 197.472 L 243.929 196.472 L 243.929 186.194 L 243.929 185.194 L 243.929 184.194 L 243.929 183.194 L 243.929 182.194 L 243.929 171.917 L 243.929 170.917 L 243.929 169.917 L 243.929 168.917 L 243.929 167.917 L 243.929 157.639 L 244.429 157.139 L 244.929 156.639 L 245.429 156.139 L 245.929 155.639 L 255.500 155.639 L 256.500 155.639 L 257.500 155.639 L 258.500 155.639 L 259.500 155.639 L 269.071 155.639 L 270.071 155.639 L 271.071 155.639 L 272.071 155.639 L 273.071 155.639 L 282.643 155.639 L 283.143 156.139 L 283.643 156.639 L 284.143 157.139 L 284.643 157.639 L 284.643 167.917 L 284.643 168.917 L 284.643 169.917 L 284.643 170.917 L 284.643 171.917 L 284.643 182.194 L 284.643 183.194 L 284.643 184.194 L 284.643 185.194 L 284.643 186.194 L 284.643 196.472 L 285.143 196.972 L 285.643 197.472 L 286.143 197.972 L 286.643 198.472 L 296.214 198.472 L 296.714 197.972 L 297.214 197.472 L 297.714 196.972 L 298.214 196.472 L 298.214 186.194 L 298.714 185.694 L 299.214 185.194 L 299.714 184.694 L 300.214 184.194 L 309.786 184.194 L 310.786 184.194 L 311.786 184.194 L 312.786 184.194 L 313.786 184.194 L 323.357 184.194 L 323.857 183.694 L 324.357 183.194 L 324.857 182.694 L 325.357 182.194 L 325.357 171.917 L 325.357 170.917 L 325.357 169.917 L 325.357 168.917 L 325.357 167.917 L 325.357 157.639 L 325.357 156.639 L 325.357 155.639 L 325.357 154.639 L 325.357 153.639 L 325.357 143.361 L 324.857 142.861 L 324.357 142.361 L 323.857 141.861 L 323.357 141.361 L 313.786 141.361 L 313.286 140.861 L 312.786 140.361 L 312.286 139.861 L 311.786 139.361 L 311.786 129.083 L 311.786 128.083 L 311.786 127.083 L 311.786 126.083 L 311.786 125.083 L 311.786 114.806 L 311.786 113.806 L 311.786 112.806 L 311.786 111.806 L 311.786 110.806 L 311.786 100.528 L 311.786 99.528 L 311.786 98.528 L 311.786 97.528 L 311.786 96.528 L 311.786 86.250 L 311.286 85.750 L 310.786 85.250 L 310.286 84.750 L 309.786 84.250 L 300.214 84.250 L 299.714 84.750 L 299.214 85.250 L 298.714 85.750 L 298.214 86.250 L 298.214 96.528 L 297.714 97.028 L 297.214 97.528 L 296.714 98.028 L 296.214 98.528 L 286.643 98.528 L 285.643 98.528 L 284.643 98.528 L 283.643 98.528 L 282.643 98.528 L 273.071 98.528 L 272.071 98.528 L 271.071 98.528 L 270.071 98.528 L 269.071 98.528 L 259.500 98.528 L 258.500 98.528 L 257.500 98.528 L 256.500 98.528 L 255.500 98.528 L 245.929 98.528 L 245.429 98.028 L 244.929 97.528 L 244.429 97.028 L 243.929 96.528 L 243.929 86.250 L 243.929 85.250 L 243.929 84.250 L 243.929 83.250 L 243.929 82.250 L 243.929 71.972 L 243.929 70.972 L 243.929 69.972 L 243.929 68.972 L 243.929 67.972 L 243.929 57.694 L 243.929 56.694 L 243.929 55.694 L 243.929 54.694 L 243.929 53.694 L 243.929 43.417 L 244.429 42.917 L 244.929 42.417 L 245.429 41.917 L 245.929 41.417 L 255.500 41.417 L 256.000 40.917 L 256.500 40.417 L 257.000 39.917 L 257.500 39.417 L 257.500 29.139 L 257.500 29.139 L 257.500 29.139 L 257.500 29.139 L 257.500 29.139 L 257.500 39.417 L 257.500 40.417 L 257.500 41.417 L 257.500 42.417 L 257.500 43.417 L 257.500 53.694 L 257.500 54.694 L 257.500 55.694 L 257.500 56.694 L 257.500 57.694 L 257.500 67.972 L 258.000 68.472 L 258.500 68.972 L 259.000 69.472 L 259.500 69.972 L 269.071 69.972 L 269.571 69.472 L 270.071 68.972 L 270.571 68.472 L 271.071 67.972 L 271.071 57.694 L 270.571 57.194 L 270.071 56.694 L 269.571 56.194 L 269.071 55.694 L 259.500 55.694 L 258.500 55.694 L 257.500 55.694 L 256.500 55.694 L 255.500 55.694 L 245.929 55.694 L 244.929 55.694 L 243.929 55.694 L 242.929 55.694 L 241.929 55.694 L 232.357 55.694 L 231.357 55.694 L 230.357 55.694 L 229.357 55.694 L 228.357 55.694 L 218.786 55.694 L 218.286 55.194 L 217.786 54.694 L 217.286 54.194 L 216.786 53.694 L 216.786 43.417 L 216.286 42.917 L 215.786 42.417 L 215.286 41.917 L 214.786 41.417 L 205.214 41.417 L 204.214 41.417 L 203.214 41.417 L 202.214 41.417 L 201.214 41.417 L 191.643 41.417 L 191.143 40.917 L 190.643 40.417 L 190.143 39.917 L 189.643 39.417 L 189.643 29.139 L 189.643 29.139 L 189.643 29.139 L 189.643 29.139 L 189.643 29.139 L 189.643 39.417 L 189.643 40.417 L 189.643 41.417 L 189.643 42.417 L 189.643 43.417 L 189.643 53.694 L 189.643 54.694 L 189.643 55.694 L 189.643 56.694 L 189.643 57.694 L 189.643 67.972 L 189.643 68.972 L 189.643 69.972 L 189.643 70.972 L 189.643 71.972 L 189.643 82.250 L 189.643 83.250 L 189.643 84.250 L 189.643 85.250 L 189.643 86.250 L 189.643 96.528 L 189.643 97.528 L 189.643 98.528 L 189.643 99.528 L 189.643 100.528 L 189.643 110.806 L 189.643 111.806 L 189.643 112.806 L 189.643 113.806 L 189.643 114.806 L 189.643 125.083 L 189.643 126.083 L 189.643 127.083 L 189.643 128.083 L 189.643 129.083 L 189.643 139.361 L 189.143 139.861 L 188.643 140.361 L 188.143 140.861 L 187.643 141.361 L 178.071 141.361 L 177.071 141.361 L 176.071 141.361 L 175.071 141.361 L 174.071 141.361 L 164.500 141.361 L 163.500 141.361 L 162.500 141.361 L 161.500 141.361 L 160.500 141.361 L 150.929 141.361 L 149.929 141.361 L 148.929 141.361 L 147.929 141.361 L 146.929 141.361 L 137.357 141.361 L 136.857 141.861 L 136.357 142.361 L 135.857 142.861 L 135.357 143.361 L 135.357 153.639 L 135.357 154.639 L 135.357 155.639 L 135.357 156.639 L 135.357 157.639 L 135.357 167.917 L 135.857 168.417 L 136.357 168.917 L 136.857 169.417 L 137.357 169.917 L 146.929 169.917 L 147.429 169.417 L 147.929 168.917 L 148.429 168.417 L 148.929 167.917 L 148.929 157.639 L 148.429 157.139 L 147.929 156.639 L 147.429 156.139 L 146.929 155.639 L 137.357 155.639 L 136.857 155.139 L 136.357 154.639 L 135.857 154.139 L 135.357 153.639 L 135.357 143.361 L 134.857 142.861 L 134.357 142.361 L 133.857 141.861 L 133.357 141.361 L 123.786 141.361 L 122.786 141.361 L 121.786 141.361 L 120.786 141.361 L 119.786 141.361 L 110.214 141.361 L 109.214 141.361 L 108.214 141.361 L 107.214 141.361 L 106.214 141.361 L 96.643 141.361 L 95.643 141.361 L 94.643 141.361 L 93.643 141.361 L 92.643 141.361 L 83.071 141.361 L 82.071 141.361 L 81.071 141.361 L 80.071 141.361 L 79.071 141.361 L 69.500 141.361 L 69.000 141.861 L 68.500 142.361 L 68.000 142.861 L 67.500 143.361 L 67.500 153.639 L 67.500 154.639 L 67.500 155.639 L 67.500 156.639 L 67.500 157.639 L 67.500 167.917 L 67.500 168.917 L 67.500 169.917 L 67.500 170.917 L 67.500 171.917 L 67.500 182.194 L 67.500 183.194 L 67.500 184.194 L 67.500 185.194 L 67.500 186.194 L 67.500 196.472 L 68.000 196.972 L 68.500 197.472 L 69.000 197.972 L 69.500 198.472 L 79.071 198.472 L 79.571 198.972 L 80.071 199.472 L 80.571 199.972 L 81.071 200.472 L 81.071 210.750 L 81.071 211.750 L 81.071 212.750 L 81.071 213.750 L 81.071 214.750 L 81.071 225.028 L 81.071 226.028 L 81.071 227.028 L 81.071 228.028 L 81.071 229.028 L 81.071 239.306 L 81.571 239.806 L 82.071 240.306 L 82.571 240.806 L 83.071 241.306 L 92.643 241.306 L 93.143 240.806 L 93.643 240.306 L 94.143 239.806 L 94.643 239.306 L 94.643 229.028 L 94.643 228.028 L 94.643 227.028 L 94.643 226.028 L 94.643 225.028 L 94.643 214.750 L 95.143 214.250 L 95.643 213.750 L 96.143 213.250 L 96.643 212.750 L 106.214 212.750 L 107.214 212.750 L 108.214 212.750 L 109.214 212.750 L 110.214 212.750 L 119.786 212.750 L 120.286 212.250 L 120.786 211.750 L 121.286 211.250 L 121.786 210.750 L 121.786 200.472 L 121.786 199.472 L 121.786 198.472 L 121.786 197.472 L 121.786 196.472 L 121.786 186.194 L 121.786 185.194 L 121.786 184.194 L 121.786 183.194 L 121.786 182.194 L 121.786 171.917 L 121.286 171.417 L 120.786 170.917 L 120.286 170.417 L 119.786 169.917 L 110.214 169.917 L 109.214 169.917 L 108.214 169.917 L 107.214 169.917 L 106.214 169.917 L 96.643 169.917 L 95.643 169.917 L 94.643 169.917 L 93.643 169.917 L 92.643 169.917 L 83.071 169.917 L 82.571 169.417 L 82.071 168.917 L 81.571 168.417 L 81.071 167.917 L 81.071 157.639 L 80.571 157.139 L 80.071 156.639 L 79.571 156.139 L 79.071 155.639 L 69.500 155.639 L 68.500 155.639 L 67.500 155.639 L 66.500 155.639 L 65.500 155.639 L 55.929 155.639 L 54.929 155.639 L 53.929 155.639 L 52.929 155.639 L 51.929 155.639 L 42.357 155.639 L 41.357 155.639 L 40.357 155.639 L 39.357 155.639 L 38.357 155.639 L 28.786 155.639 L 28.786 155.639 L 28.786 155.639 L 28.786 155.639 L 28.786 155.639 L 38.357 155.639 L 39.357 155.639 L 40.357 155.639 L 41.357 155.639 L 42.357 155.639 L 51.929 155.639 L 52.929 155.639 L 53.929 155.639 L 54.929 155.639 L 55.929 155.639 L 65.500 155.639 L 66.000 155.139 L 66.500 154.639 L 67.000 154.139 L 67.500 153.639 L 67.500 143.361 L 67.500 142.361 L 67.500 141.361 L 67.500 140.361 L 67.500 139.361 L 67.500 129.083 L 67.500 128.083 L 67.500 127.083 L 67.500 126.083 L 67.500 125.083 L 67.500 114.806 L 67.500 113.806 L 67.500 112.806 L 67.500 111.806 L 67.500 110.806 L 67.500 100.528 L 67.500 99.528 L 67.500 98.528 L 67.500 97.528 L 67.500 96.528 L 67.500 86.250 L 67.500 85.250 L 67.500 84.250 L 67.500 83.250 L 67.500 82.250 L 67.500 71.972 L 67.500 70.972 L 67.500 69.972 L 67.500 68.972 L 67.500 67.972 L 67.500 57.694 L 67.500 56.694 L 67.500 55.694 L 67.500 54.694 L 67.500 53.694 L 67.500 43.417 L 67.500 42.417 L 67.500 41.417 L 67.500 40.417 L 67.500 39.417 L 67.500 29.139 L 67.500 29.139 L 67.500 29.139 L 67.500 29.139 L 67.500 29.139 L 67.500 39.417 L 68.000 39.917 L 68.500 40.417 L 69.000 40.917 L 69.500 41.417 L 79.071 41.417 L 80.071 41.417 L 81.071 41.417 L 82.071 41.417 L 83.071 41.417 L 92.643 41.417 L 93.143 40.917 L 93.643 40.417 L 94.143 39.917 L 94.643 39.417 L 94.643 29.139 L 95.143 28.639 L 95.643 28.139 L 96.143 27.639 L 96.643 27.139 L 106.214 27.139 L 107.214 27.139 L 108.214 27.139 L 109.214 27.139 L 110.214 27.139 L 119.786 27.139 L 120.786 27.139 L 121.786 27.139 L 122.786 27.139 L 123.786 27.139 L 133.357 27.139 L 133.857 27.639 L 134.357 28.139 L 134.857 28.639 L 135.357 29.139 L 135.357 39.417 L 134.857 39.917 L 134.357 40.417 L 133.857 40.917 L 133.357 41.417 L 123.786 41.417 L 122.786 41.417 L 121.786 41.417 L 120.786 41.417 L 119.786 41.417 L 110.214 41.417 L 109.214 41.417 L 108.214 41.417 L 107.214 41.417 L 106.214 41.417 L 96.643 41.417 L 96.143 40.917 L 95.643 40.417 L 95.143 39.917 L 94.643 39.417 L 94.643 29.139 L 94.143 28.639 L 93.643 28.139 L 93.143 27.639 L 92.643 27.139 L 83.071 27.139 L 82.071 27.139 L 81.071 27.139 L 80.071 27.139 L 79.071 27.139 L 69.500 27.139 L 69.000 27.639 L 68.500 28.139 L 68.000 28.639 L 67.500 29.139 L 67.500 39.417 L 67.500 40.417 L 67.500 41.417 L 67.500 42.417 L 67.500 43.417 L 67.500 53.694 L 67.500 54.694 L 67.500 55.694 L 67.500 56.694 L 67.500 57.694 L 67.500 67.972 L 67.500 68.972 L 67.500 69.972 L 67.500 70.972 L 67.500 71.972 L 67.500 82.250 L 67.500 83.250 L 67.500 84.250 L 67.500 85.250 L 67.500 86.250 L 67.500 96.528 L 67.000 97.028 L 66.500 97.528 L 66.000 98.028 L 65.500 98.528 L 55.929 98.528 L 54.929 98.528 L 53.929 98.528 L 52.929 98.528 L 51.929 98.528 L 42.357 98.528 L 41.357 98.528 L 40.357 98.528 L 39.357 98.528 L 38.357 98.528 L 28.786 98.528 L 28.786 98.528 L 28.786 98.528 L 28.786 98.528 L 28.786 98.528 L 38.357 98.528 L 39.357 98.528 L 40.357 98.528 L 41.357 98.528 L 42.357 98.528 L 51.929 98.528 L 52.429 99.028 L 52.929 99.528 L 53.429 100.028 L 53.929 100.528 L 53.929 110.806 L 53.929 111.806 L 53.929 112.806 L 53.929 113.806 L 53.929 114.806 L 53.929 125.083 L 53.429 125.583 L 52.929 126.083 L 52.429 126.583 L 51.929 127.083 L 42.357 127.083 L 41.357 127.083 L 40.357 127.083 L 39.357 127.083 L 38.357 127.083 L 28.786 127.083 L 28.786 127.083 L 28.786 127.083 L 28.786 127.083 L 28.786 127.083 L 38.357 127.083 L 39.357 127.083 L 40.357 127.083 L 41.357 127.083 L 42.357 127.083 L 51.929 127.083 L 52.429 127.583 L 52.929 128.083 L 53.429 128.583 L 53.929 129.083 L 53.929 139.361 L 53.929 140.361 L 53.929 141.361 L 53.929 142.361 L 53.929 143.361 L 53.929 153.639 L 53.929 154.639 L 53.929 155.639 L 53.929 156.639 L 53.929 157.639 L 53.929 167.917 L 53.929 168.917 L 53.929 169.917 L 53.929 170.917 L 53.929 171.917 L 53.929 182.194 L 53.929 183.194 L 53.929 184.194 L 53.929 185.194 L 53.929 186.194 L 53.929 196.472 L 53.929 197.472 L 53.929 198.472 L 53.929 199.472 L 53.929 200.472 L 53.929 210.750 L 53.929 211.750 L 53.929 212.750 L 53.929 213.750 L 53.929 214.750 L 53.929 225.028 L 53.429 225.528 L 52.929 226.028 L 52.429 226.528 L 51.929 227.028 L 42.357 227.028 L 41.857 227.528 L 41.357 228.028 L 40.857 228.528 L 40.357 229.028 L 40.357 239.306 L 39.857 239.806 L 39.357 240.306 L 38.857 240.806 L 38.357 241.306 L 28.786 241.306 L 28.786 241.306 L 28.786 241.306 L 28.786 241.306 L 28.786 241.306 L 38.357 241.306 L 39.357 241.306 L 40.357 241.306 L 41.357 241.306 L 42.357 241.306 L 51.929 241.306 L 52.929 241.306 L 53.929 241.306 L 54.929 241.306 L 55.929 241.306 L 65.500 241.306 L 66.500 241.306 L 67.500 241.306 L 68.500 241.306 L 69.500 241.306 L 79.071 241.306 L 80.071 241.306 L 81.071 241.306 L 82.071 241.306 L 83.071 241.306 L 92.643 241.306 L 93.143 240.806 L 93.643 240.306 L 94.143 239.806 L 94.643 239.306 L 94.643 229.028 L 94.143 228.528 L 93.643 228.028 L 93.143 227.528 L 92.643 227.028 L 83.071 227.028 L 82.071 227.028 L 81.071 227.028 L 80.071 227.028 L 79.071 227.028 L 69.500 227.028 L 69.000 226.528 L 68.500 226.028 L 68.000 225.528 L 67.500 225.028 L 67.500 214.750 L 67.500 213.750 L 67.500 212.750 L 67.500 211.750 L 67.500 210.750 L 67.500 200.472 L 67.500 199.472 L 67.500 198.472 L 67.500 197.472 L 67.500 196.472 L 67.500 186.194 L 67.000 185.694 L 66.500 185.194 L 66.000 184.694 L 65.500 184.194 L 55.929 184.194 L 54.929 184.194 L 53.929 184.194 L 52.929 184.194 L 51.929 184.194 L 42.357 184.194 L 41.857 184.694 L 41.357 185.194 L 40.857 185.694 L 40.357 186.194 L 40.357 196.472 L 40.357 197.472 L 40.357 198.472 L 40.357 199.472 L 40.357 200.472 L 40.357 210.750 L 40.357 211.750 L 40.357 212.750 L 40.357 213.750 L 40.357 214.750 L 40.357 225.028 L 40.357 226.028 L 40.357 227.028 L 40.357 228.028 L 40.357 229.028 L 40.357 239.306 L 40.357 240.306 L 40.357 241.306 L 40.357 242.306 L 40.357 243.306 L 40.357 253.583 L 40.357 254.583 L 40.357 255.583 L 40.357 256.583 L 40.357 257.583 L 40.357 269.861" fill="none" stroke="#00AEEF" stroke-width="1" vector-effect="non-scaling-stroke"/></svg>