<svg xmlns="http://www.w3.org/2000/svg" viewBox="20.785714285714285 19.13888888888889 380.42857142857144 256.7222222222223" width="380.42857142857144" height="256.7222222222223" shape-rendering="geometricPrecision"><rect x="20.785714285714285" y="19.13888888888889" width="380.42857142857144" height="256.7222222222223" fill="#0b0f14"/><path d="M 176.071 69.972 L 176.071 82.250 L 176.571 82.750 L 177.071 83.250 L 177.571 83.750 L 178.071 84.250 L 187.643 84.250 L 188.643 84.250 L 189.643 84.250 L 190.643 84.250 L 191.643 84.250 L 201.214 84.250 L 201.714 84.750 L 202.214 85.250 L 202.714 85.750 L 203.214 86.250 L 203.214 96.528 L 203.214 97.528 L 203.214 98.528 L 203.214 99.528 L 203.214 100.528 L 203.214 110.806 L 203.714 111.306 L 204.214 111.806 L 204.714 112.306 L 205.214 112.806 L 214.786 112.806 L 215.786 112.806 L 216.786 112.806 L 217.786 112.806 L 218.786 112.806 L 228.357 112.806 L 228.857 113.306 L 229.357 113.806 L 229.857 114.306 L 230.357 114.806 L 230.357 125.083 L 230.357 126.083 L 230.357 127.083 L 230.357 128.083 L 230.357 129.083 L 230.357 139.361 L 230.357 140.361 L 230.357 141.361 L 230.357 142.361 L 230.357 143.361 L 230.357 153.639 L 230.357 154.639 L 230.357 155.639 L 230.357 156.639 L 230.357 157.639 L 230.357 167.917 L 229.857 168.417 L 229.357 168.917 L 228.857 169.417 L 228.357 169.917 L 218.786 169.917 L 217.786 169.917 L 216.786 169.917 L 215.786 169.917 L 214.786 169.917 L 205.214 169.917 L 204.214 169.917 L 203.214 169.917 L 202.214 169.917 L 201.214 169.917 L 191.643 169.917 L 190.643 169.917 L 189.643 169.917 L 188.643 169.917 L 187.643 169.917 L 178.071 169.917 L 177.571 170.417 L 177.071 170.917 L 176.571 171.417 L 176.071 171.917 L 176.071 182.194 L 175.571 182.694 L 175.071 183.194 L 174.571 183.694 L 174.071 184.194 L 164.500 184.194 L 163.500 184.194 L 162.500 184.194 L 161.500 184.194 L 160.500 184.194 L 150.929 184.194 L 149.929 184.194 L 148.929 184.194 L 147.929 184.194 L 146.929 184.194 L 137.357 184.194 L 136.857 183.694 L 136.357 183.194 L 135.857 182.694 L 135.357 182.194 L 135.357 171.917 L 135.357 170.917 L 135.357 169.917 L 135.357 168.917 L 135.357 167.917 L 135.357 157.639 L 134.857 157.139 L 134.357 156.639 L 133.857 156.139 L 133.357 155.639 L 123.786 155.639 L 122.786 155.639 L 121.786 155.639 L 120.786 155.639 L 119.786 155.639 L 110.214 155.639 L 109.214 155.639 L 108.214 155.639 L 107.214 155.639 L 106.214 155.639 L 96.643 155.639 L 96.143 155.139 L 95.643 154.639 L 95.143 154.139 L 94.643 153.639 L 94.643 143.361 L 94.143 142.861 L 93.643 142.361 L 93.143 141.861 L 92.643 141.361 L 83.071 141.361 L 82.071 141.361 L 81.071 141.361 L 80.071 141.361 L 79.071 141.361 L 69.500 141.361 L 69.000 141.861 L 68.500 142.361 L 68.000 142.861 L 67.500 143.361 L 67.500 153.639 L 67.500 154.639 L 67.500 155.639 L 67.500 156.639 L 67.500 157.639 L 67.500 167.917 L 67.500 168.917 L 67.500 169.917 L 67.500 170.917 L 67.500 171.917 L 67.500 182.194 L 67.500 183.194 L 67.500 184.194 L 67.500 185.194 L 67.500 186.194 L 67.500 196.472 L 67.500 197.472 L 67.500 198.472 L 67.500 199.472 L 67.500 200.472 L 67.500 210.750 L 67.500 211.750 L 67.500 212.750 L 67.500 213.750 L 67.500 214.750 L 67.500 225.028 L 67.500 226.028 L 67.500 227.028 L 67.500 228.028 L 67.500 229.028 L 67.500 239.306 L 68.000 239.806 L 68.500 240.306 L 69.000 240.806 L 69.500 241.306 L 79.071 241.306 L 79.571 241.806 L 80.071 242.306 L 80.571 242.806 L 81.071 243.306 L 81.071 253.583 L 81.071 254.583 L 81.071 255.583 L 81.071 256.583 L 81.071 257.583 L 81.071 267.861 L 81.071 267.861 L 81.071 267.861 L 81.071 267.861 L 81.071 267.861 L 81.071 257.583 L 80.571 257.083 L 80.071 256.583 L 79.571 256.083 L 79.071 255.583 L 69.500 255.583 L 68.500 255.583 L 67.500 255.583 L 66.500 255.583 L 65.500 255.583 L 55.929 255.583 L 54.929 255.583 L 53.929 255.583 L 52.929 255.583 L 51.929 255.583 L 42.357 255.583 L 41.357 255.583 L 40.357 255.583 L 39.357 255.583 L 38.357 255.583 L 28.786 255.583 L 28.786 255.583 L 28.786 255.583 L 28.786 255.583 L 28.786 255.583 L 38.357 255.583 L 38.857 256.083 L 39.357 256.583 L 39.857 257.083 L 40.357 257.583 L 40.357 267.861 L 40.357 267.861 L 40.357 267.861 L 40.357 267.861 L 40.357 267.861 L 40.357 257.583 L 40.357 256.583 L 40.357 255.583 L 40.357 254.583 L 40.357 253.583 L 40.357 243.306 L 40.357 242.306 L 40.357 241.306 L 40.357 240.306 L 40.357 239.306 L 40.357 229.028 L 39.857 228.528 L 39.357 228.028 L 38.857 227.528 L 38.357 227.028 L 28.786 227.028 L 28.786 227.028 L 28.786 227.028 L 28.786 227.028 L 28.786 227.028 L 38.357 227.028 L 39.357 227.028 L 40.357 227.028 L 41.357 227.028 L 42.357 227.028 L 51.929 227.028 L 52.429 226.528 L 52.929 226.028 L 53.429 225.528 L 53.929 225.028 L 53.929 214.750 L 53.929 213.750 L 53.929 212.750 L 53.929 211.750 L 53.929 210.750 L 53.929 200.472 L 53.929 199.472 L 53.929 198.472 L 53.929 197.472 L 53.929 196.472 L 53.929 186.194 L 53.929 185.194 L 53.929 184.194 L 53.929 183.194 L 53.929 182.194 L 53.929 171.917 L 53.929 170.917 L 53.929 169.917 L 53.929 168.917 L 53.929 167.917 L 53.929 157.639 L 54.429 157.139 L 54.929 156.639 L 55.429 156.139 L 55.929 155.639 L 65.500 155.639 L 66.000 155.139 L 66.500 154.639 L 67.000 154.139 L 67.500 153.639 L 67.500 143.361 L 68.000 142.861 L 68.500 142.361 L 69.000 141.861 L 69.500 141.361 L 79.071 141.361 L 80.071 141.361 L 81.071 141.361 L 82.071 141.361 L 83.071 141.361 L 92.643 141.361 L 93.143 140.861 L 93.643 140.361 L 94.143 139.861 L 94.643 139.361 L 94.643 129.083 L 94.643 128.083 L 94.643 127.083 L 94.643 126.083 L 94.643 125.083 L 94.643 114.806 L 95.143 114.306 L 95.643 113.806 L 96.143 113.306 L 96.643 112.806 L 106.214 112.806 L 107.214 112.806 L 108.214 112.806 L 109.214 112.806 L 110.214 112.806 L 119.786 112.806 L 120.786 112.806 L 121.786 112.806 L 122.786 112.806 L 123.786 112.806 L 133.357 112.806 L 134.357 112.806 L 135.357 112.806 L 136.357 112.806 L 137.357 112.806 L 146.929 112.806 L 147.929 112.806 L 148.929 112.806 L 149.929 112.806 L 150.929 112.806 L 160.500 112.806 L 161.500 112.806 L 162.500 112.806 L 163.500 112.806 L 164.500 112.806 L 174.071 112.806 L 175.071 112.806 L 176.071 112.806 L 177.071 112.806 L 178.071 112.806 L 187.643 112.806 L 188.143 113.306 L 188.643 113.806 L 189.143 114.306 L 189.643 114.806 L 189.643 125.083 L 189.643 126.083 L 189.643 127.083 L 189.643 128.083 L 189.643 129.083 L 189.643 139.361 L 189.643 140.361 L 189.643 141.361 L 189.643 142.361 L 189.643 143.361 L 189.643 153.639 L 190.143 154.139 L 190.643 154.639 L 191.143 155.139 L 191.643 155.639 L 201.214 155.639 L 201.714 155.139 L 202.214 154.639 L 202.714 154.139 L 203.214 153.639 L 203.214 143.361 L 203.714 142.861 L 204.214 142.361 L 204.714 141.861 L 205.214 141.361 L 214.786 141.361 L 215.786 141.361 L 216.786 141.361 L 217.786 141.361 L 218.786 141.361 L 228.357 141.361 L 229.357 141.361 L 230.357 141.361 L 231.357 141.361 L 232.357 141.361 L 241.929 141.361 L 242.929 141.361 L 243.929 141.361 L 244.929 141.361 L 245.929 141.361 L 255.500 141.361 L 256.500 141.361 L 257.500 141.361 L 258.500 141.361 L 259.500 141.361 L 269.071 141.361 L 269.571 140.861 L 270.071 140.361 L 270.571 139.861 L 271.071 139.361 L 271.071 129.083 L 271.071 128.083 L 271.071 127.083 L 271.071 126.083 L 271.071 125.083 L 271.071 114.806 L 271.571 114.306 L 272.071 113.806 L 272.571 113.306 L 273.071 112.806 L 282.643 112.806 L 283.643 112.806 L 284.643 112.806 L 285.643 112.806 L 286.643 112.806 L 296.214 112.806 L 297.214 112.806 L 298.214 112.806 L 299.214 112.806 L 300.214 112.806 L 309.786 112.806 L 310.286 112.306 L 310.786 111.806 L 311.286 111.306 L 311.786 110.806 L 311.786 100.528 L 311.786 99.528 L 311.786 98.528 L 311.786 97.528 L 311.786 96.528 L 311.786 86.250 L 311.286 85.750 L 310.786 85.250 L 310.286 84.750 L 309.786 84.250 L 300.214 84.250 L 299.214 84.250 L 298.214 84.250 L 297.214 84.250 L 296.214 84.250 L 286.643 84.250 L 285.643 84.250 L 284.643 84.250 L 283.643 84.250 L 282.643 84.250 L 273.071 84.250 L 272.571 84.750 L 272.071 85.250 L 271.571 85.750 L 271.071 86.250 L 271.071 96.528 L 271.071 97.528 L 271.071 98.528 L 271.071 99.528 L 271.071 100.528 L 271.071 110.806 L 271.071 111.806 L 271.071 112.806 L 271.071 113.806 L 271.071 114.806 L 271.071 125.083 L 270.571 125.583 L 270.071 126.083 L 269.571 126.583 L 269.071 127.083 L 259.500 127.083 L 258.500 127.083 L 257.500 127.083 L 256.500 127.083 L 255.500 127.083 L 245.929 127.083 L 244.929 127.083 L 243.929 127.083 L 242.929 127.083 L 241.929 127.083 L 232.357 127.083 L 231.857 126.583 L 231.357 126.083 L 230.857 125.583 L 230.357 125.083 L 230.357 114.806 L 229.857 114.306 L 229.357 113.806 L 228.857 113.306 L 228.357 112.806 L 218.786 112.806 L 218.286 113.306 L 217.786 113.806 L 217.286 114.306 L 216.786 114.806 L 216.786 125.083 L 216.286 125.583 L 215.786 126.083 L 215.286 126.583 L 214.786 127.083 L 205.214 127.083 L 204.714 127.583 L 204.214 128.083 L 203.714 128.583 L 203.214 129.083 L 203.214 139.361 L 203.214 140.361 L 203.214 141.361 L 203.214 142.361 L 203.214 143.361 L 203.214 153.639 L 203.714 154.139 L 204.214 154.639 L 204.714 155.139 L 205.214 155.639 L 214.786 155.639 L 215.786 155.639 L 216.786 155.639 L 217.786 155.639 L 218.786 155.639 L 228.357 155.639 L 229.357 155.639 L 230.357 155.639 L 231.357 155.639 L 232.357 155.639 L 241.929 155.639 L 242.929 155.639 L 243.929 155.639 L 244.929 155.639 L 245.929 155.639 L 255.500 155.639 L 256.500 155.639 L 257.500 155.639 L 258.500 155.639 L 259.500 155.639 L 269.071 155.639 L 269.571 156.139 L 270.071 156.639 L 270.571 157.139 L 271.071 157.639 L 271.071 167.917 L 271.071 168.917 L 271.071 169.917 L 271.071 170.917 L 271.071 171.917 L 271.071 182.194 L 271.571 182.694 L 272.071 183.194 L 272.571 183.694 L 273.071 184.194 L 282.643 184.194 L 283.643 184.194 L 284.643 184.194 L 285.643 184.194 L 286.643 184.194 L 296.214 184.194 L 297.214 184.194 L 298.214 184.194 L 299.214 184.194 L 300.214 184.194 L 309.786 184.194 L 310.286 183.694 L 310.786 183.194 L 311.286 182.694 L 311.786 182.194 L 311.786 171.917 L 311.786 170.917 L 311.786 169.917 L 311.786 168.917 L 311.786 167.917 L 311.786 157.639 L 311.786 156.639 L 311.786 155.639 L 311.786 154.639 L 311.786 153.639 L 311.786 143.361 L 311.786 142.361 L 311.786 141.361 L 311.786 140.361 L 311.786 139.361 L 311.786 129.083 L 311.786 128.083 L 311.786 127.083 L 311.786 126.083 L 311.786 125.083 L 311.786 114.806 L 312.286 114.306 L 312.786 113.806 L 313.286 113.306 L 313.786 112.806 L 323.357 112.806 L 324.357 112.806 L 325.357 112.806 L 326.357 112.806 L 327.357 112.806 L 336.929 112.806 L 337.929 112.806 L 338.929 112.806 L 339.929 112.806 L 340.929 112.806 L 350.500 112.806 L 351.500 112.806 L 352.500 112.806 L 353.500 112.806 L 354.500 112.806 L 364.071 112.806 L 365.071 112.806 L 366.071 112.806 L 367.071 112.806 L 368.071 112.806 L 377.643 112.806 L 378.643 112.806 L 379.643 112.806 L 380.643 112.806 L 381.643 112.806 L 391.214 112.806 L 391.714 112.306 L 392.214 111.806 L 392.714 111.306 L 393.214 110.806 L 393.214 100.528 L 393.214 99.528 L 393.214 98.528 L 393.214 97.528 L 393.214 96.528 L 393.214 86.250 L 392.714 85.750 L 392.214 85.250 L 391.714 84.750 L 391.214 84.250 L 381.643 84.250 L 380.643 84.250 L 379.643 84.250 L 378.643 84.250 L 377.643 84.250 L 368.071 84.250 L 367.071 84.250 L 366.071 84.250 L 365.071 84.250 L 364.071 84.250 L 354.500 84.250 L 353.500 84.250 L 352.500 84.250 L 351.500 84.250 L 350.500 84.250 L 340.929 84.250 L 340.429 83.750 L 339.929 83.250 L 339.429 82.750 L 338.929 82.250 L 338.929 71.972 L 338.929 70.972 L 338.929 69.972 L 338.929 68.972 L 338.929 67.972 L 338.929 57.694 L 338.929 56.694 L 338.929 55.694 L 338.929 54.694 L 338.929 53.694 L 338.929 43.417 L 338.929 42.417 L 338.929 41.417 L 338.929 40.417 L 338.929 39.417 L 338.929 29.139 L 339.429 28.639 L 339.929 28.139 L 340.429 27.639 L 340.929 27.139 L 350.500 27.139 L 351.500 27.139 L 352.500 27.139 L 353.500 27.139 L 354.500 27.139 L 364.071 27.139 L 365.071 27.139 L 366.071 27.139 L 367.071 27.139 L 368.071 27.139 L 377.643 27.139 L 378.643 27.139 L 379.643 27.139 L 380.643 27.139 L 381.643 27.139 L 391.214 27.139 L 391.714 27.639 L 392.214 28.139 L 392.714 28.639 L 393.214 29.139 L 393.214 39.417 L 393.214 40.417 L 393.214 41.417 L 393.214 42.417 L 393.214 43.417 L 393.214 53.694 L 392.714 54.194 L 392.214 54.694 L 391.714 55.194 L 391.214 55.694 L 381.643 55.694 L 380.643 55.694 L 379.643 55.694 L 378.643 55.694 L 377.643 55.694 L 368.071 55.694 L 367.071 55.694 L 366.071 55.694 L 365.071 55.694 L 364.071 55.694 L 354.500 55.694 L 353.500 55.694 L 352.500 55.694 L 351.500 55.694 L 350.500 55.694 L 340.929 55.694 L 339.929 55.694 L 338.929 55.694 L 337.929 55.694 L 336.929 55.694 L 327.357 55.694 L 326.357 55.694 L 325.357 55.694 L 324.357 55.694 L 323.357 55.694 L 313.786 55.694 L 313.286 56.194 L 312.786 56.694 L 312.286 57.194 L 311.786 57.694 L 311.786 67.972 L 311.786 68.972 L 311.786 69.972 L 311.786 70.972 L 311.786 71.972 L 311.786 82.250 L 311.786 83.250 L 311.786 84.250 L 311.786 85.250 L 311.786 86.250 L 311.786 96.528 L 311.786 97.528 L 311.786 98.528 L 311.786 99.528 L 311.786 100.528 L 311.786 110.806 L 312.286 111.306 L 312.786 111.806 L 313.286 112.306 L 313.786 112.806 L 323.357 112.806 L 323.857 112.306 L 324.357 111.806 L 324.857 111.306 L 325.357 110.806 L 325.357 100.528 L 324.857 100.028 L 324.357 99.528 L 323.857 99.028 L 323.357 98.528 L 313.786 98.528 L 312.786 98.528 L 311.786 98.528 L 310.786 98.528 L 309.786 98.528 L 300.214 98.528 L 299.214 98.528 L 298.214 98.528 L 297.214 98.528 L 296.214 98.528 L 286.643 98.528 L 286.143 99.028 L 285.643 99.528 L 285.143 100.028 L 284.643 100.528 L 284.643 110.806 L 284.643 111.806 L 284.643 112.806 L 284.643 113.806 L 284.643 114.806 L 284.643 125.083 L 285.143 125.583 L 285.643 126.083 L 286.143 126.583 L 286.643 127.083 L 296.214 127.083 L 297.214 127.083 L 298.214 127.083 L 299.214 127.083 L 300.214 127.083 L 311.786 127.083" fill="none" stroke="#00AEEF" stroke-width="1" vector-effect="non-scaling-stroke"/></svg>