<svg xmlns="http://www.w3.org/2000/svg" viewBox="12 12 396 273" width="396" height="273" shape-rendering="geometricPrecision"><rect x="12" y="12" width="396" height="273" fill="#0b0f14"/><path d="M 275.929 70.676 L 279.252 70.787 L 282.804 72.352 L 285.087 74.296 L 286.355 76.122 L 287.188 77.915 L 287.740 81.535 L 287.148 85.155 M 147.850 71.984 L 150.696 74.296 L 151.402 75.689 L 152.128 77.915 L 151.777 81.535 M 132.777 77.915 L 132.272 81.535 L 132.898 85.155 L 133.645 86.686 M 140.748 206.356 L 144.299 207.213 L 146.002 208.225 L 147.850 209.687 L 149.717 211.845 L 151.402 214.932 L 151.632 215.465 L 151.949 219.085 M 279.252 206.495 L 282.804 207.089 L 284.480 208.225 L 286.355 210.371 L 287.088 211.845 L 287.725 215.465 L 287.192 219.085 M 133.093 211.845 L 132.476 215.465 L 132.968 219.085 L 133.645 220.567 M 140.748 65.561 L 144.299 65.484 L 147.850 66.089 L 150.550 67.056 L 151.402 67.472 L 154.953 70.139 L 155.486 70.676 L 157.580 74.296 L 158.203 77.915 L 157.579 81.535 L 155.973 85.155 M 275.701 65.363 L 279.252 65.470 L 282.804 66.322 L 284.408 67.056 L 286.355 68.217 L 289.109 70.676 L 289.907 71.694 L 291.433 74.296 L 292.688 77.915 L 293.143 81.535 L 292.818 85.155 L 291.679 88.775 M 264.650 70.676 L 262.650 74.296 L 262.016 77.915 L 262.582 81.535 L 264.142 85.155 L 265.047 86.519 M 128.490 74.296 L 127.247 77.915 L 126.853 81.535 L 127.264 85.155 L 128.466 88.775 L 130.093 91.726 M 140.748 200.378 L 143.184 200.986 L 144.299 201.301 L 147.850 203.265 L 149.616 204.606 L 151.402 206.202 L 153.263 208.225 L 154.953 210.543 L 155.787 211.845 L 157.330 215.465 L 157.942 219.085 L 157.345 222.704 L 155.282 226.324 M 282.804 200.572 L 284.035 200.986 L 286.355 201.989 L 289.317 204.606 L 289.907 205.338 L 291.499 208.225 L 292.711 211.845 L 293.130 215.465 L 292.726 219.085 L 291.451 222.704 M 128.588 208.225 L 127.428 211.845 L 127.041 215.465 L 127.439 219.085 L 128.681 222.704 L 130.093 225.057 M 264.139 211.845 L 262.616 215.465 L 262.027 219.085 L 262.604 222.704 L 264.594 226.324 L 265.047 226.797 M 140.748 61.617 L 144.299 61.570 L 147.850 62.059 L 151.402 63.067 L 152.273 63.437 L 154.953 64.859 L 158.042 67.056 L 158.505 67.523 L 161.020 70.676 L 162.056 73.083 L 162.499 74.296 L 162.753 77.915 L 162.063 81.535 M 272.150 61.879 L 275.701 61.398 L 279.252 61.482 L 282.804 62.156 L 286.293 63.437 L 286.355 63.465 L 289.907 65.855 L 291.231 67.056 L 293.458 69.725 L 294.091 70.676 L 295.757 74.296 L 296.727 77.915 L 297.009 80.861 L 297.064 81.535 M 297.009 82.489 L 296.829 85.155 L 295.988 88.775 L 294.525 92.394 M 158.505 88.218 L 158.120 88.775 L 154.992 92.394 L 151.402 95.587 L 150.833 96.014 M 137.196 195.779 L 140.748 195.901 L 144.299 196.888 L 145.266 197.366 L 147.850 198.733 L 151.058 200.986 L 151.402 201.253 L 154.953 204.570 M 279.252 196.014 L 282.804 195.862 L 286.355 196.719 L 287.528 197.366 L 289.907 198.954 L 291.848 200.986 L 293.458 203.134 L 294.299 204.606 L 295.818 208.225 L 296.765 211.845 L 297.009 214.356 L 297.102 215.465 M 125.671 204.606 L 124.193 208.225 L 123.304 211.845 L 123.006 215.465 L 123.321 219.085 L 124.297 222.704 L 126.017 226.324 L 126.542 227.084 M 157.958 208.225 L 158.505 209.050 L 160.222 211.845 L 161.815 215.465 L 162.056 216.625 L 162.540 219.085 L 162.318 222.704 M 297.009 216.853 L 296.833 219.085 L 295.854 222.704 L 294.129 226.324 M 137.196 58.760 L 140.748 58.261 L 144.299 58.246 L 147.850 58.679 L 151.402 59.542 L 152.169 59.817 L 154.953 60.984 L 158.505 62.953 L 159.222 63.437 L 162.056 65.895 L 163.202 67.056 L 165.599 70.676 M 272.150 58.510 L 275.701 58.092 L 279.252 58.137 L 282.804 58.677 L 286.355 59.753 L 286.497 59.817 L 289.907 61.641 L 292.376 63.437 L 293.458 64.414 L 295.783 67.056 L 297.009 68.924 L 297.971 70.676 L 299.320 74.296 L 300.086 77.915 L 300.338 81.535 L 300.112 85.155 L 299.416 88.775 L 298.241 92.394 M 122.021 70.676 L 120.612 74.296 L 119.812 77.915 L 119.581 81.535 L 119.879 85.155 L 120.675 88.775 L 121.947 92.394 L 122.991 94.577 M 253.484 74.296 L 253.426 77.915 L 254.220 81.535 L 254.393 81.926 M 137.196 191.678 L 140.748 191.968 L 144.299 193.048 L 145.690 193.746 L 147.850 194.869 L 151.402 197.287 L 151.498 197.366 L 154.953 200.364 L 155.595 200.986 L 158.505 204.040 L 159.010 204.606 L 161.847 208.225 L 162.056 208.554 L 164.069 211.845 L 165.607 215.241 L 165.707 215.465 L 166.549 219.085 L 166.540 222.704 M 279.252 192.089 L 282.804 191.774 L 286.355 192.370 L 289.339 193.746 L 289.907 194.048 L 293.458 197.138 L 293.650 197.366 L 296.222 200.986 L 297.009 202.379 L 298.049 204.606 L 299.309 208.225 L 300.118 211.845 L 300.448 215.465 L 300.255 219.085 L 299.485 222.704 L 298.088 226.324 M 121.861 204.606 L 120.642 208.225 L 119.895 211.845 L 119.634 215.465 L 119.881 219.085 L 120.673 222.704 L 122.074 226.324 L 122.991 227.937 M 254.194 215.465 L 253.397 219.085 L 253.400 222.704 L 254.364 226.324 L 254.393 226.375 M 140.748 55.229 L 144.299 55.247 L 147.850 55.656 L 150.314 56.197 L 151.402 56.462 L 154.953 57.732 L 158.505 59.383 L 159.279 59.817 L 162.056 61.675 L 164.325 63.437 L 165.607 64.737 L 167.660 67.056 L 169.159 69.655 L 169.703 70.676 L 170.578 74.296 L 170.440 77.915 L 169.451 81.535 M 275.701 55.148 L 279.252 55.151 L 282.804 55.586 L 285.212 56.197 L 286.355 56.527 L 289.907 58.098 L 292.737 59.817 L 293.458 60.335 L 296.870 63.437 L 297.009 63.595 L 299.537 67.056 L 300.561 68.970 L 301.351 70.676 L 302.471 74.296 L 303.085 77.915 L 303.257 81.535 L 303.023 85.155 L 302.399 88.775 L 301.386 92.394 M 118.668 70.676 L 117.467 74.296 L 116.799 77.915 L 116.626 81.535 L 116.911 85.155 L 117.621 88.775 L 118.733 92.394 L 119.439 94.107 M 250.413 70.676 L 249.610 74.296 L 249.724 77.915 L 250.651 81.535 L 250.841 81.941 M 133.645 188.324 L 137.196 187.896 L 140.748 188.324 L 144.299 189.497 L 145.512 190.127 L 147.850 191.353 L 151.387 193.746 L 151.402 193.757 L 154.953 196.725 L 155.641 197.366 L 158.505 200.149 L 159.313 200.986 L 162.056 204.042 L 162.547 204.606 L 165.333 208.225 L 165.607 208.660 L 167.596 211.845 L 169.159 215.166 L 169.300 215.465 L 170.274 219.085 L 170.443 222.704 L 169.657 226.324 M 279.252 188.464 L 282.804 188.002 L 286.355 188.397 L 289.907 189.788 L 290.407 190.127 L 293.458 192.402 L 294.734 193.746 L 297.009 196.469 L 297.611 197.366 L 299.688 200.986 L 300.561 202.869 L 301.261 204.606 L 302.365 208.225 L 303.092 211.845 L 303.415 215.465 L 303.293 219.085 L 302.678 222.704 L 301.522 226.324 M 118.616 204.606 L 117.551 208.225 L 116.882 211.845 L 116.630 215.465 L 116.817 219.085 L 117.471 222.704 L 118.643 226.324 L 119.439 227.993 M 250.638 215.465 L 249.706 219.085 L 249.536 222.704 L 250.277 226.324 L 250.841 227.498 M 144.299 52.453 L 145.387 52.577 L 147.850 52.879 L 151.402 53.676 L 154.953 54.817 L 158.318 56.197 L 158.505 56.284 L 162.056 58.262 L 164.489 59.817 L 165.607 60.680 L 168.825 63.437 L 169.159 63.815 L 171.819 67.056 L 172.710 68.779 L 173.643 70.676 L 174.339 74.296 L 174.021 77.915 L 172.863 81.535 M 279.252 52.387 L 281.213 52.577 L 282.804 52.748 L 286.355 53.587 L 289.907 54.925 L 292.346 56.197 L 293.458 56.858 L 297.009 59.545 L 297.308 59.817 L 300.561 63.376 M 302.857 67.056 L 304.112 69.877 L 304.429 70.676 L 305.377 74.296 L 305.873 77.915 L 305.975 81.535 L 305.720 85.155 L 305.127 88.775 L 304.205 92.394 M 115.609 70.676 L 114.562 74.296 L 113.998 77.915 L 113.880 81.535 L 114.168 85.155 L 114.828 88.775 L 115.836 92.394 L 115.888 92.535 M 246.519 70.676 L 245.887 74.296 L 246.160 77.915 L 247.230 81.535 L 247.290 81.652 M 158.505 100.126 L 155.047 103.254 L 151.402 106.181 L 150.391 106.873 M 133.645 184.534 L 137.196 184.267 L 140.748 184.827 L 144.299 186.108 L 145.026 186.507 L 147.850 188.033 L 150.894 190.127 L 151.402 190.478 L 154.953 193.398 L 155.330 193.746 L 158.505 196.723 L 159.148 197.366 L 162.056 200.375 L 162.630 200.986 L 165.607 204.380 L 165.805 204.606 L 168.600 208.225 L 169.159 209.095 L 170.944 211.845 L 172.710 215.405 L 172.741 215.465 L 173.853 219.085 L 174.183 222.704 L 173.591 226.324 M 279.252 184.978 L 282.804 184.364 L 286.355 184.587 L 289.907 185.787 L 291.058 186.507 L 293.458 188.101 L 295.555 190.127 L 297.009 191.660 L 298.569 193.746 L 300.561 196.735 L 300.920 197.366 L 302.700 200.986 L 304.112 204.493 L 304.153 204.606 L 305.158 208.225 L 305.837 211.845 L 306.164 215.465 L 306.100 219.085 L 305.604 222.704 L 304.629 226.324 M 115.713 204.606 L 114.741 208.225 L 114.113 211.845 L 113.853 215.465 L 113.985 219.085 L 114.529 222.704 L 115.527 226.324 L 115.888 227.213 M 247.249 215.465 L 246.167 219.085 L 245.837 222.704 L 246.405 226.324 L 247.290 228.373 M 133.645 50.739 L 137.196 50.045 L 140.748 49.764 L 144.299 49.856 L 147.850 50.293 L 151.402 51.052 L 154.953 52.112 L 156.187 52.577 L 158.505 53.531 L 162.056 55.268 L 163.733 56.197 L 165.607 57.389 L 169.075 59.817 L 169.159 59.888 L 172.710 63.121 L 173.045 63.437 L 175.864 67.056 L 176.262 67.896 L 177.539 70.676 L 178.074 74.296 L 177.576 77.915 M 268.598 51.086 L 272.150 50.343 L 275.701 49.911 L 279.252 49.819 L 282.804 50.105 L 286.355 50.812 L 289.907 51.976 L 291.227 52.577 L 293.458 53.704 L 297.009 56.022 L 297.232 56.197 L 300.561 59.207 L 301.137 59.817 L 303.952 63.437 L 304.112 63.700 L 305.918 67.056 L 307.288 70.676 L 307.664 72.224 L 308.122 74.296 L 308.521 77.915 L 308.561 81.535 L 308.277 85.155 L 307.691 88.775 M 242.668 70.676 L 242.187 74.296 L 242.625 77.915 L 243.738 81.154 M 111.812 74.296 L 111.334 77.915 L 111.269 81.535 L 111.573 85.155 L 112.209 88.775 L 112.336 89.261 M 130.093 181.842 L 126.542 183.901 L 122.991 187.059 L 119.439 191.463 L 115.888 197.239 M 133.645 180.798 L 137.196 180.677 L 140.748 181.382 L 144.299 182.803 L 144.442 182.887 L 147.850 184.824 L 150.214 186.507 L 151.402 187.341 L 154.780 190.127 L 154.953 190.270 L 158.505 193.559 L 158.693 193.746 L 162.056 197.115 L 162.300 197.366 L 165.607 200.878 L 165.709 200.986 L 168.884 204.606 L 169.159 204.959 L 171.748 208.225 L 172.710 209.672 L 174.202 211.845 L 176.117 215.465 L 176.262 215.896 L 177.388 219.085 L 177.878 222.704 L 177.450 226.324 M 282.804 180.736 L 286.355 180.798 L 289.907 181.848 L 291.661 182.887 L 293.458 183.985 L 296.219 186.507 L 297.009 187.269 L 299.306 190.127 L 300.561 191.813 L 301.775 193.746 L 303.827 197.366 L 304.112 197.948 L 305.447 200.986 L 306.764 204.606 L 307.664 207.800 L 307.775 208.225 L 308.429 211.845 L 308.769 215.465 L 308.758 219.085 L 308.355 222.704 M 112.119 208.225 L 111.507 211.845 L 111.229 215.465 L 111.306 219.085 L 111.759 222.704 L 112.336 225.156 M 242.656 219.085 L 242.167 222.704 L 242.596 226.324 L 243.738 229.180 M 307.664 225.715 L 307.510 226.324 L 306.113 229.944 L 304.163 233.563 M 137.196 47.439 L 140.748 47.225 L 144.299 47.356 L 147.850 47.804 L 151.402 48.545 L 152.841 48.958 L 154.953 49.599 L 158.505 50.948 L 162.056 52.529 L 162.152 52.577 L 165.607 54.489 L 168.442 56.197 L 169.159 56.697 L 172.710 59.320 L 173.366 59.817 L 176.262 62.546 L 177.195 63.437 L 179.813 66.918 L 179.917 67.056 L 181.490 70.676 L 181.874 74.296 L 181.189 77.915 M 272.150 47.926 L 275.701 47.474 L 279.252 47.334 L 282.804 47.545 L 286.355 48.146 L 289.174 48.958 L 289.907 49.186 L 293.458 50.739 L 296.650 52.577 L 297.009 52.807 L 300.561 55.565 L 301.254 56.197 L 304.112 59.228 L 304.599 59.817 L 307.052 63.437 L 307.664 64.614 L 308.811 67.056 L 310.003 70.676 L 310.732 74.296 L 311.062 77.915 L 311.042 81.535 L 310.708 85.155 L 310.080 88.775 L 309.175 92.394 L 308.009 96.014 M 240.162 67.056 L 238.731 70.676 L 238.392 74.296 L 239.016 77.915 L 240.187 80.810 M 109.771 88.775 L 110.732 92.394 L 111.967 96.014 L 112.336 96.913 M 130.093 177.922 L 126.542 179.896 L 122.991 182.895 L 119.439 187.061 L 115.888 192.439 M 133.645 176.995 L 137.196 177.022 L 140.748 177.900 L 143.737 179.268 L 144.299 179.507 L 147.850 181.664 L 149.471 182.887 L 151.402 184.288 L 154.026 186.507 L 154.953 187.280 L 158.017 190.127 L 158.505 190.580 L 161.692 193.746 L 162.056 194.112 L 165.211 197.366 L 165.607 197.787 L 168.620 200.986 L 169.159 201.597 L 171.864 204.606 L 172.710 205.661 L 174.844 208.225 L 176.262 210.251 L 177.440 211.845 L 179.517 215.465 L 179.813 216.245 L 180.977 219.085 L 181.641 222.704 L 181.363 226.324 L 179.994 229.944 M 282.804 177.015 L 286.355 176.918 L 289.907 177.846 L 292.381 179.268 L 293.458 179.889 L 296.838 182.887 L 297.009 183.043 L 299.909 186.507 L 300.561 187.321 L 302.435 190.127 L 304.112 192.808 L 304.631 193.746 L 306.455 197.366 L 307.664 200.112 L 308.018 200.986 L 309.244 204.606 L 310.209 208.225 L 310.894 211.845 L 311.215 214.916 L 311.271 215.465 L 311.309 219.085 M 265.047 187.358 L 261.495 190.464 L 257.944 193.833 L 254.393 197.428 L 250.841 201.246 M 111.874 200.986 L 110.647 204.606 L 109.689 208.225 L 109.034 211.845 M 239.061 219.085 L 238.399 222.704 L 238.711 226.324 L 240.098 229.944 L 240.187 230.074 M 311.215 220.148 L 310.974 222.704 L 310.217 226.324 L 309.003 229.944 M 165.607 242.560 L 162.075 244.423 L 158.505 245.958 L 154.953 247.283 L 152.453 248.042 M 140.748 44.754 L 144.299 44.926 L 147.426 45.338 L 147.850 45.395 L 151.402 46.171 L 154.953 47.211 L 158.505 48.487 L 159.628 48.958 L 162.056 50.045 L 165.607 51.824 L 167.003 52.577 L 169.159 53.874 L 172.710 56.122 L 172.826 56.197 L 176.262 58.796 L 177.607 59.817 L 179.813 61.920 L 181.417 63.437 L 183.364 66.059 L 184.120 67.056 L 185.612 70.676 L 185.849 74.296 L 184.958 77.915 M 279.252 44.903 L 282.804 45.046 L 284.852 45.338 L 286.355 45.565 L 289.907 46.507 L 293.458 47.895 L 295.530 48.958 L 297.009 49.783 L 300.561 52.226 L 300.998 52.577 L 304.112 55.397 L 304.883 56.197 L 307.664 59.594 L 307.827 59.817 L 309.999 63.437 L 311.215 66.152 L 311.587 67.056 L 312.635 70.676 L 313.254 74.296 L 313.503 77.915 L 313.426 81.535 L 313.055 85.155 L 312.412 88.775 L 311.518 92.394 M 20.000 51.870 L 20.292 52.577 L 21.415 56.197 L 22.136 59.817 L 22.463 63.437 L 22.410 67.056 L 22.002 70.676 L 21.265 74.296 L 20.220 77.915 M 399.481 52.577 L 398.333 56.197 L 397.617 59.817 L 397.330 63.437 L 397.451 67.056 L 397.949 70.676 L 398.788 74.296 L 399.925 77.915 L 400.000 78.106 M 108.540 67.056 L 107.367 70.676 L 106.626 74.296 L 106.298 77.915 L 106.349 81.535 L 106.734 85.155 L 107.409 88.775 L 108.342 92.394 L 108.785 93.757 M 235.944 67.056 L 234.565 70.676 L 234.369 74.296 L 235.218 77.915 L 236.636 80.847 M 297.009 118.445 L 293.548 121.352 L 289.907 123.363 L 286.355 124.168 L 282.804 123.926 L 279.252 122.733 M 133.645 172.973 L 137.196 173.165 L 140.748 174.269 L 143.314 175.648 L 144.299 176.122 L 147.850 178.490 L 148.794 179.268 L 151.402 181.266 L 153.228 182.887 L 154.953 184.359 L 157.216 186.507 L 158.505 187.710 L 160.916 190.127 L 162.056 191.261 L 164.473 193.746 L 165.607 194.916 L 167.985 197.366 L 169.159 198.610 L 171.455 200.986 L 172.710 202.376 L 174.811 204.606 L 176.262 206.335 L 177.944 208.225 L 179.813 210.718 L 180.728 211.845 L 183.027 215.465 L 183.364 216.244 L 184.734 219.085 L 185.609 222.704 L 185.477 226.324 L 184.184 229.944 M 282.804 173.078 L 286.355 172.815 L 289.907 173.652 L 293.385 175.648 L 293.458 175.689 L 297.009 178.811 L 297.395 179.268 L 300.465 182.887 L 300.561 183.002 L 302.974 186.507 L 304.112 188.218 L 305.226 190.127 L 307.227 193.746 L 307.664 194.613 L 308.936 197.366 L 310.411 200.986 L 311.215 203.332 L 311.629 204.606 L 312.567 208.225 L 313.253 211.845 L 313.660 215.465 L 313.752 219.085 L 313.491 222.704 L 312.842 226.324 L 311.769 229.944 M 268.598 181.499 L 265.047 184.544 L 261.495 187.706 L 257.944 191.054 L 254.393 194.569 L 250.841 198.225 M 108.289 204.606 L 107.347 208.225 L 106.680 211.845 L 106.317 215.465 L 106.280 219.085 L 106.586 222.704 L 107.259 226.324 L 108.335 229.944 L 108.785 231.037 M 20.000 218.644 L 20.170 219.085 L 21.259 222.704 L 22.030 226.324 L 22.455 229.944 L 22.510 233.563 L 22.173 237.183 L 21.429 240.803 L 20.262 244.423 M 235.255 219.085 L 234.392 222.704 L 234.596 226.324 L 235.963 229.944 L 236.636 230.902 M 399.819 219.085 L 398.733 222.704 L 397.944 226.324 L 397.485 229.944 L 397.394 233.563 L 397.697 237.183 L 398.418 240.803 L 399.575 244.423 L 400.000 245.403 M 130.093 43.713 L 133.645 42.887 L 137.196 42.447 L 140.748 42.356 L 144.299 42.582 L 147.850 43.095 L 151.402 43.873 L 154.953 44.891 L 156.233 45.338 L 158.505 46.167 L 162.056 47.665 L 164.826 48.958 L 165.607 49.350 L 169.159 51.271 L 171.476 52.577 L 172.710 53.357 L 176.262 55.648 L 177.118 56.197 L 179.813 58.237 L 181.942 59.817 L 183.364 61.160 L 185.852 63.437 L 186.916 64.856 L 188.651 67.056 L 190.094 70.676 L 190.176 74.296 L 189.034 77.915 M 268.598 44.087 L 272.150 43.303 L 275.701 42.772 L 279.252 42.526 L 282.804 42.604 L 286.355 43.043 L 289.907 43.875 L 293.458 45.131 L 293.908 45.338 L 297.009 46.864 L 300.383 48.958 L 300.561 49.078 L 304.112 51.900 L 304.853 52.577 L 307.664 55.496 L 308.265 56.197 L 310.884 59.817 L 311.215 60.383 L 312.844 63.437 L 314.265 67.056 L 314.766 68.932 L 315.205 70.676 L 315.732 74.296 L 315.909 77.915 L 315.778 81.535 L 315.365 85.155 M 20.000 46.315 L 21.347 48.958 L 22.799 52.577 L 23.551 55.143 L 23.851 56.197 L 24.511 59.817 L 24.785 63.437 L 24.684 67.056 L 24.233 70.676 M 395.868 56.197 L 395.215 59.817 L 394.982 63.437 L 395.151 67.056 L 395.693 70.676 L 396.449 73.777 M 231.344 67.056 L 229.980 70.676 L 229.938 74.296 L 231.073 77.915 L 233.084 81.336 M 23.551 73.832 L 23.453 74.296 L 22.375 77.915 L 21.015 81.535 M 104.753 70.676 L 104.109 74.296 L 103.862 77.915 L 103.977 81.535 L 104.406 85.155 L 105.103 88.775 L 105.234 89.277 M 314.766 88.377 L 314.692 88.775 L 313.761 92.394 L 312.613 96.014 L 311.273 99.634 M 286.861 168.408 L 289.907 169.071 L 293.458 171.165 L 294.357 172.028 L 297.009 174.417 L 298.011 175.648 L 300.561 178.679 L 300.962 179.268 L 303.465 182.887 L 304.112 183.830 L 305.711 186.507 L 307.664 189.854 L 307.808 190.127 L 309.635 193.746 L 311.215 197.149 L 311.310 197.366 L 312.706 200.986 L 313.901 204.606 L 314.766 207.838 L 314.868 208.225 L 315.572 211.845 L 316.015 215.465 L 316.160 219.085 L 315.970 222.704 L 315.411 226.324 M 130.093 169.273 L 133.645 168.518 L 137.196 168.910 L 140.748 170.319 L 143.390 172.028 L 144.299 172.536 L 147.850 175.221 L 148.310 175.648 L 151.402 178.223 L 152.491 179.268 L 154.953 181.467 L 156.387 182.887 L 158.505 184.904 L 160.072 186.507 L 162.056 188.497 L 163.621 190.127 L 165.607 192.169 L 167.138 193.746 L 169.159 195.828 L 170.690 197.366 L 172.710 199.455 L 174.260 200.986 L 176.262 203.107 L 177.768 204.606 L 179.813 206.893 L 181.106 208.225 L 183.364 210.983 L 184.150 211.845 L 186.757 215.465 L 186.916 215.780 L 188.828 219.085 L 189.969 222.704 L 189.995 226.324 L 188.740 229.944 M 105.065 208.225 L 104.369 211.845 L 103.959 215.465 L 103.859 219.085 L 104.088 222.704 L 104.667 226.324 L 105.234 228.483 M 20.000 213.510 L 20.906 215.465 L 22.318 219.085 L 23.447 222.704 L 23.551 223.173 L 24.267 226.324 L 24.747 229.944 L 24.864 233.563 L 24.600 237.183 L 23.935 240.803 M 231.071 219.085 L 229.959 222.704 L 230.047 226.324 L 231.435 229.944 L 233.084 232.140 M 395.700 226.324 L 395.196 229.944 L 395.051 233.563 L 395.290 237.183 L 395.932 240.803 L 396.449 242.585 M 133.645 40.374 L 137.196 40.016 L 140.748 39.996 L 144.299 40.277 L 147.850 40.827 L 151.402 41.619 L 151.743 41.718 L 154.953 42.668 L 158.505 43.928 L 161.991 45.338 L 162.056 45.365 L 165.607 47.037 L 169.159 48.815 L 169.434 48.958 L 172.710 50.807 L 175.802 52.577 L 176.262 52.874 L 179.813 55.148 L 181.501 56.197 L 183.364 57.575 L 186.532 59.817 L 186.916 60.167 L 190.467 63.217 L 190.750 63.437 L 193.836 67.056 L 194.019 67.501 L 195.526 70.676 L 195.408 74.296 M 275.701 40.463 L 279.252 40.164 L 282.804 40.176 L 286.355 40.536 L 289.907 41.275 L 291.314 41.718 L 293.458 42.425 L 297.009 44.009 L 299.369 45.338 L 300.561 46.056 L 304.112 48.605 L 304.541 48.958 L 307.664 51.790 L 308.433 52.577 L 311.215 55.850 L 311.482 56.197 L 313.835 59.817 L 314.766 61.641 L 315.618 63.437 L 316.889 67.056 L 317.723 70.676 L 318.173 74.296 L 318.286 77.915 L 318.097 81.535 L 317.631 85.155 L 316.912 88.775 L 315.967 92.394 L 314.827 96.014 M 20.000 41.758 L 22.168 45.338 L 23.551 48.147 L 23.933 48.958 L 25.299 52.577 L 26.284 56.197 L 26.887 59.817 L 27.103 63.356 M 392.822 59.817 L 392.637 63.437 L 392.856 67.056 L 392.897 67.304 M 27.103 63.553 L 26.961 67.056 L 26.469 70.676 L 25.654 74.296 L 24.536 77.915 M 101.621 74.296 L 101.453 77.915 L 101.635 81.535 L 101.682 81.884 M 102.872 88.775 L 103.842 92.394 L 105.010 96.014 L 105.234 96.608 M 133.645 162.991 L 137.196 163.771 L 138.793 164.789 L 140.748 165.778 L 144.036 168.408 L 144.299 168.583 L 147.850 171.734 L 148.122 172.028 L 151.402 175.088 L 151.924 175.648 L 154.953 178.562 L 155.617 179.268 L 158.505 182.131 L 159.215 182.887 L 162.056 185.794 L 162.724 186.507 L 165.607 189.507 L 166.199 190.127 L 169.159 193.176 L 169.726 193.746 L 172.710 196.746 L 173.358 197.366 L 176.262 200.239 L 177.069 200.986 L 179.813 203.718 L 180.783 204.606 L 183.364 207.265 L 184.403 208.225 L 186.916 210.973 L 187.832 211.845 L 190.467 214.992 L 190.942 215.465 L 193.539 219.085 L 194.019 220.270 L 195.249 222.704 L 195.496 226.324 M 286.355 162.759 L 289.907 163.597 L 291.521 164.789 L 293.458 166.022 L 295.700 168.408 L 297.009 169.663 L 298.805 172.028 L 300.561 174.192 L 301.511 175.648 L 303.970 179.268 L 304.112 179.474 L 306.149 182.887 L 307.664 185.425 L 308.248 186.507 L 310.169 190.127 L 311.215 192.193 L 311.951 193.746 L 313.536 197.366 L 314.766 200.514 L 314.944 200.986 L 316.117 204.606 L 317.091 208.225 L 317.843 211.845 L 318.318 215.309 L 318.339 215.465 L 318.542 219.085 L 318.420 222.704 M 261.495 182.346 L 257.944 185.907 L 254.393 189.352 L 250.841 192.842 M 105.077 200.986 L 103.861 204.606 L 102.858 208.225 L 102.105 211.845 M 20.000 209.369 L 21.320 211.845 L 23.018 215.465 L 23.551 216.813 L 24.474 219.085 L 25.647 222.704 L 26.507 226.324 L 27.037 229.944 L 27.103 231.311 L 27.216 233.563 M 101.633 215.465 L 101.466 219.085 L 101.620 222.704 L 101.682 223.168 M 395.494 219.085 L 394.331 222.704 L 393.462 226.324 L 392.915 229.944 M 318.318 223.489 L 317.937 226.324 L 317.064 229.944 L 315.769 233.563 M 27.103 235.655 L 27.019 237.183 L 26.426 240.803 L 25.419 244.423 L 23.995 248.042 M 393.478 240.803 L 394.471 244.423 L 395.889 248.042 L 396.449 249.165 M 20.000 37.798 L 20.242 38.099 L 22.774 41.718 L 23.551 43.036 L 24.837 45.338 L 26.502 48.958 L 27.103 50.613 L 27.807 52.577 L 28.747 56.197 L 29.305 59.817 L 29.479 63.437 L 29.284 67.056 L 28.741 70.676 L 27.873 74.296 M 137.196 37.597 L 140.748 37.651 L 144.299 37.997 L 144.890 38.099 L 147.850 38.602 L 151.402 39.442 L 154.953 40.494 L 158.461 41.718 M 282.804 37.753 L 286.355 38.039 L 286.688 38.099 L 289.907 38.690 L 293.458 39.732 L 297.009 41.189 L 298.035 41.718 L 300.561 43.087 L 303.972 45.338 L 304.112 45.437 L 307.664 48.319 L 308.360 48.958 L 311.215 51.877 L 311.833 52.577 L 314.586 56.197 L 314.766 56.481 L 316.725 59.817 L 318.318 63.371 M 162.056 43.194 L 165.607 44.788 L 166.760 45.338 L 169.159 46.545 L 172.710 48.394 L 173.784 48.958 L 176.262 50.377 L 179.813 52.388 L 180.160 52.577 L 183.364 54.563 L 186.149 56.197 L 186.916 56.737 L 190.467 59.051 L 191.781 59.817 L 194.019 61.542 L 196.872 63.437 L 197.570 64.146 L 201.121 67.035 L 201.160 67.056 L 204.018 70.676 L 203.375 74.296 M 391.900 52.577 L 390.948 56.197 L 390.402 59.817 L 390.267 63.437 L 390.530 67.056 L 391.161 70.676 L 392.127 74.296 L 392.897 76.482 M 319.494 67.056 L 320.231 70.676 L 320.603 74.296 L 320.650 77.915 L 320.403 81.535 L 319.886 85.155 L 319.123 88.775 M 100.471 67.056 L 99.614 70.676 L 99.151 74.296 L 99.064 77.915 L 99.319 81.535 L 99.866 85.155 L 100.658 88.775 L 101.653 92.394 L 101.682 92.482 M 218.615 67.056 L 215.836 70.676 L 216.484 74.296 L 218.879 76.538 M 27.103 76.654 L 26.707 77.915 L 25.281 81.535 L 23.595 85.155 L 21.695 88.775 M 318.318 91.742 L 318.143 92.394 L 316.967 96.014 L 315.636 99.634 M 183.364 92.719 L 179.839 96.014 L 176.262 99.411 L 176.041 99.634 M 133.645 154.387 L 137.196 156.268 L 138.151 157.549 L 140.748 159.842 L 141.711 161.169 L 144.299 163.815 L 145.018 164.789 L 147.850 167.823 L 148.300 168.408 L 151.402 171.754 L 151.623 172.028 L 154.953 175.591 M 286.355 154.275 L 289.907 155.426 L 291.576 157.549 L 293.458 159.252 L 294.680 161.169 L 297.009 164.081 L 297.415 164.789 L 299.864 168.408 L 300.561 169.329 L 302.194 172.028 L 304.112 174.980 L 304.483 175.648 L 306.593 179.268 L 307.664 181.063 L 308.642 182.887 L 310.600 186.507 L 311.215 187.664 L 312.438 190.127 L 314.162 193.746 L 314.766 195.118 L 315.717 197.366 L 317.094 200.986 L 318.299 204.606 L 318.318 204.673 L 319.297 208.225 L 320.090 211.845 L 320.641 215.465 L 320.910 219.085 L 320.859 222.704 L 320.458 226.324 L 319.678 229.944 L 318.489 233.563 M 158.407 179.268 L 158.505 179.365 L 161.813 182.887 L 162.056 183.136 L 165.216 186.507 L 165.607 186.915 L 168.672 190.127 L 169.159 190.629 L 172.260 193.746 L 172.710 194.199 L 176.017 197.366 L 176.262 197.608 L 179.813 200.898 L 179.917 200.986 L 183.364 204.152 L 183.915 204.606 L 186.916 207.391 L 187.948 208.225 L 190.467 210.628 L 191.995 211.845 L 194.019 213.863 L 196.047 215.465 L 197.570 217.134 L 199.982 219.085 L 201.121 220.691 L 203.295 222.704 L 204.082 226.324 L 201.563 229.944 M 261.495 179.633 L 257.944 183.311 L 254.393 186.899 L 250.841 190.447 M 250.841 190.461 L 247.290 193.953 L 243.738 197.398 L 243.772 197.366 M 20.000 205.774 L 21.451 208.225 L 23.399 211.845 L 23.551 212.168 L 25.151 215.465 L 26.642 219.085 L 27.103 220.483 L 27.865 222.704 L 28.782 226.324 L 29.366 229.944 L 29.600 233.563 L 29.463 237.183 L 28.931 240.803 L 27.986 244.423 M 100.666 208.225 L 99.865 211.845 L 99.330 215.465 L 99.089 219.085 L 99.164 222.704 L 99.578 226.324 L 100.358 229.944 L 101.537 233.563 L 101.682 233.900 M 216.442 222.704 L 215.869 226.324 L 218.673 229.944 L 218.879 230.061 M 392.113 222.704 L 391.195 226.324 L 390.605 229.944 L 390.366 233.563 L 390.496 237.183 L 391.018 240.803 L 391.944 244.423 L 392.897 247.017 M 307.664 248.804 L 304.134 251.662 L 300.561 254.024 L 298.215 255.282 M 20.000 34.168 L 20.281 34.479 L 23.177 38.099 L 23.551 38.642 L 25.540 41.718 L 27.103 44.598 L 27.493 45.338 L 29.096 48.958 L 30.344 52.577 L 30.654 53.831 L 31.248 56.197 L 31.771 59.817 L 31.898 63.437 L 31.648 67.056 L 31.043 70.676 M 130.093 35.907 L 133.645 35.358 L 137.196 35.172 L 140.748 35.312 L 144.299 35.736 L 147.850 36.402 L 151.402 37.281 L 154.102 38.099 L 154.953 38.356 L 158.505 39.627 L 162.056 41.053 L 163.576 41.718 L 165.607 42.637 L 169.159 44.338 L 171.186 45.338 L 172.710 46.133 L 176.262 48.002 L 178.108 48.958 L 179.813 49.923 L 183.364 51.861 L 184.764 52.577 L 186.916 53.834 L 190.467 55.736 L 191.445 56.197 L 194.019 57.680 L 197.570 59.425 L 198.584 59.817 L 201.121 61.126 L 204.673 62.407 L 208.224 63.064 L 211.776 63.052 L 215.327 62.366 L 218.879 61.040 L 221.160 59.817 M 272.150 36.539 L 275.701 35.856 L 279.252 35.438 L 282.804 35.316 L 286.355 35.521 L 289.907 36.084 L 293.458 37.029 L 296.290 38.099 L 297.009 38.379 L 300.561 40.136 L 303.153 41.718 L 304.112 42.334 L 307.664 44.987 L 308.081 45.338 L 311.215 48.192 L 311.972 48.958 L 314.766 52.145 L 315.115 52.577 L 317.623 56.197 L 318.318 57.428 L 319.588 59.817 L 321.061 63.437 L 321.869 66.244 L 322.098 67.056 L 322.752 70.676 L 323.052 74.296 L 323.032 77.915 L 322.720 81.535 L 322.139 85.155 M 388.447 56.197 L 387.942 59.817 L 387.852 63.437 L 388.166 67.056 L 388.855 70.676 L 389.346 72.383 M 97.805 67.056 L 97.043 70.676 L 96.669 74.296 L 96.666 77.915 L 96.997 81.535 L 97.613 85.155 L 98.131 87.330 M 30.654 72.163 L 30.126 74.296 L 28.924 77.915 L 27.435 81.535 M 321.869 86.321 L 321.321 88.775 L 320.294 92.394 L 319.095 96.014 M 147.850 133.739 L 146.306 135.831 L 144.314 139.451 L 142.563 143.070 L 141.707 146.690 L 141.729 150.310 L 142.632 153.930 L 144.299 157.284 L 144.399 157.549 L 146.408 161.169 L 147.850 163.102 L 148.885 164.789 L 151.402 168.035 L 151.653 168.408 L 154.583 172.028 L 154.953 172.425 L 157.680 175.648 L 158.505 176.524 L 160.914 179.268 L 162.056 180.482 L 164.222 182.887 L 165.607 184.363 L 167.596 186.507 L 169.159 188.144 L 171.094 190.127 L 172.710 191.753 L 174.792 193.746 L 176.262 195.159 L 178.725 197.366 L 179.813 198.377 L 182.882 200.986 L 183.364 201.429 L 186.916 204.360 L 187.256 204.606 L 190.467 207.223 L 191.935 208.225 L 194.019 209.901 L 197.070 211.845 L 197.570 212.244 L 201.121 214.354 L 204.018 215.465 L 204.673 215.817 L 208.224 216.737 L 211.776 216.669 L 215.327 215.572 L 215.601 215.465 M 297.009 141.301 L 296.220 143.070 L 295.408 146.690 L 295.428 150.310 L 296.260 153.930 L 297.009 155.636 L 297.606 157.549 L 299.229 161.169 L 300.561 163.509 L 301.140 164.789 L 303.082 168.408 L 304.112 170.120 L 305.089 172.028 L 307.095 175.648 L 307.664 176.625 L 309.041 179.268 L 310.986 182.887 L 311.215 183.310 L 312.827 186.507 L 314.635 190.127 L 314.766 190.402 L 316.297 193.746 L 317.842 197.366 L 318.318 198.604 L 319.222 200.986 L 320.437 204.606 L 321.482 208.225 L 321.869 209.901 L 322.332 211.845 L 322.952 215.465 L 323.295 219.085 L 323.320 222.704 L 322.997 226.324 L 322.297 229.944 M 278.301 146.690 L 278.367 150.310 L 277.517 153.930 L 275.728 157.549 M 20.000 202.487 L 21.348 204.606 L 23.503 208.225 L 23.551 208.316 L 25.512 211.845 L 27.103 215.087 L 27.296 215.465 L 28.859 219.085 L 30.121 222.704 L 30.654 224.751 L 31.088 226.324 L 31.736 229.944 L 32.029 233.563 L 31.946 237.183 L 31.463 240.803 M 97.627 211.845 L 97.018 215.465 L 96.697 219.085 L 96.690 222.704 L 97.021 226.324 L 97.719 229.944 L 98.131 231.338 M 388.902 226.324 L 388.257 229.944 L 387.971 233.563 L 388.059 237.183 L 388.537 240.803 L 389.346 244.136 M 30.654 244.063 L 30.565 244.423 L 29.276 248.042 L 27.586 251.662 M 20.000 30.761 L 20.098 30.859 L 23.374 34.479 L 23.551 34.702 L 26.057 38.099 L 27.103 39.753 L 28.296 41.718 L 30.168 45.338 L 30.654 46.466 L 31.733 48.958 L 32.962 52.577 L 33.820 56.197 L 34.206 59.164 L 34.293 59.817 L 34.374 63.437 M 130.093 33.250 L 133.645 32.792 L 137.196 32.704 L 140.748 32.944 L 144.299 33.460 L 147.850 34.206 L 148.857 34.479 L 151.402 35.144 L 154.953 36.257 L 158.505 37.534 L 159.910 38.099 L 162.056 38.970 L 165.607 40.536 L 168.154 41.718 L 169.159 42.201 L 172.710 43.960 L 175.485 45.338 L 176.262 45.747 L 179.813 47.589 L 182.565 48.958 L 183.364 49.394 L 186.916 51.208 L 189.866 52.577 L 190.467 52.898 L 194.019 54.561 L 197.570 55.963 L 198.331 56.197 L 201.121 57.255 L 204.673 58.191 L 208.224 58.674 L 211.776 58.670 L 215.327 58.168 L 218.879 57.187 L 221.360 56.197 M 275.701 33.526 L 279.252 33.034 L 282.804 32.835 L 286.355 32.960 L 289.907 33.439 L 293.458 34.300 L 293.980 34.479 L 297.009 35.531 L 300.561 37.173 L 302.183 38.099 L 304.112 39.236 L 307.655 41.718 M 311.215 44.674 L 311.932 45.338 L 314.766 48.205 L 315.449 48.958 L 318.318 52.566 M 320.642 56.197 L 321.869 58.619 L 322.455 59.817 L 323.814 63.437 L 324.748 67.056 L 325.305 70.676 L 325.421 72.567 L 325.527 74.296 L 325.433 77.915 M 385.433 59.817 L 385.387 63.437 L 385.759 67.056 L 385.794 67.221 M 34.206 65.350 L 34.067 67.056 L 33.423 70.676 L 32.454 74.296 L 31.174 77.915 M 94.455 70.676 L 94.168 74.296 L 94.252 77.915 L 94.579 80.728 M 325.421 78.031 L 325.057 81.535 L 324.415 85.155 L 323.533 88.775 L 322.446 92.394 M 95.353 85.155 L 96.268 88.775 L 97.368 92.394 L 98.131 94.578 M 321.869 94.047 L 321.200 96.014 L 319.831 99.634 L 318.366 103.254 M 147.850 140.135 L 146.757 143.070 L 146.110 146.690 L 146.156 150.310 L 146.886 153.930 L 147.850 156.420 L 148.209 157.549 L 149.898 161.169 L 151.402 163.582 L 152.054 164.789 L 154.510 168.408 L 154.953 168.954 L 157.212 172.028 L 158.505 173.548 L 160.170 175.648 L 162.056 177.787 L 163.304 179.268 L 165.607 181.818 L 166.557 182.887 L 169.159 185.686 L 169.934 186.507 L 172.710 189.351 L 173.504 190.127 L 176.262 192.776 L 177.347 193.746 L 179.813 195.969 L 181.513 197.366 L 183.364 198.951 L 186.024 200.986 L 186.916 201.726 L 190.467 204.301 L 190.963 204.606 L 194.019 206.722 L 196.749 208.225 L 197.570 208.758 L 201.121 210.481 L 204.673 211.599 L 206.303 211.845 L 208.224 212.214 L 211.776 212.167 L 213.273 211.845 M 300.561 142.820 L 300.481 143.070 L 299.896 146.690 L 299.894 150.310 L 300.459 153.930 L 300.561 154.263 L 301.355 157.549 L 302.626 161.169 L 304.112 164.483 L 304.228 164.789 L 305.870 168.408 L 307.664 171.930 L 307.708 172.028 L 309.493 175.648 L 311.215 178.951 L 311.367 179.268 L 313.173 182.887 L 314.766 186.029 L 314.998 186.507 L 316.731 190.127 L 318.318 193.563 L 318.401 193.746 L 319.925 197.366 L 321.321 200.986 L 321.869 202.586 L 322.573 204.606 L 323.670 208.225 L 324.583 211.845 L 325.272 215.465 L 325.421 216.775 L 325.699 219.085 L 325.809 222.704 L 325.565 226.324 M 254.393 181.979 L 250.841 185.716 L 247.290 189.167 L 243.738 192.484 M 20.000 199.376 L 21.070 200.986 L 23.380 204.606 L 23.551 204.894 L 25.599 208.225 L 27.103 210.915 L 27.647 211.845 L 29.508 215.465 L 30.654 218.094 L 31.112 219.085 L 32.456 222.704 L 33.472 226.324 L 34.156 229.944 L 34.206 230.482 L 34.511 233.563 L 34.479 237.183 M 97.451 204.606 L 96.304 208.225 L 95.376 211.845 L 94.696 215.465 M 94.286 219.085 L 94.188 222.704 L 94.436 226.324 L 94.579 227.185 M 388.864 219.085 L 387.540 222.704 L 386.534 226.324 L 385.863 229.944 M 325.421 227.190 L 324.960 229.944 L 323.970 233.563 L 322.561 237.183 M 34.206 239.422 L 34.042 240.803 L 33.205 244.423 L 31.954 248.042 M 20.000 27.502 L 23.366 30.859 L 23.551 31.065 L 26.394 34.479 L 27.103 35.456 L 28.926 38.099 L 30.654 41.013 L 31.067 41.718 L 32.907 45.338 L 34.206 48.433 L 34.432 48.958 L 35.669 52.577 L 36.520 56.197 L 36.961 59.817 L 36.989 63.437 L 36.627 67.056 L 35.904 70.676 L 34.843 74.296 M 133.645 30.163 L 137.196 30.187 L 140.748 30.545 L 142.466 30.859 L 144.299 31.166 L 147.850 31.990 L 151.402 32.994 L 154.953 34.161 L 155.799 34.479 L 158.505 35.472 L 162.056 36.913 L 164.766 38.099 L 165.607 38.471 L 169.159 40.130 L 172.479 41.718 L 172.710 41.833 L 176.262 43.603 L 179.813 45.337 M 282.804 30.304 L 286.355 30.341 L 289.907 30.735 L 290.491 30.859 L 293.458 31.480 L 297.009 32.610 L 300.561 34.163 L 301.145 34.479 L 304.112 36.101 L 307.125 38.099 L 307.664 38.467 L 311.215 41.236 L 311.772 41.718 L 314.766 44.474 L 315.626 45.338 L 318.318 48.324 L 318.852 48.958 L 321.519 52.577 L 321.869 53.143 L 323.690 56.197 L 325.364 59.817 L 325.421 59.976 L 326.640 63.437 L 327.495 67.056 L 327.971 70.676 L 328.106 74.296 L 327.930 77.915 L 327.465 81.535 L 326.733 85.155 L 325.760 88.775 M 400.000 27.801 L 396.449 31.408 L 392.897 35.569 L 389.346 40.525 M 183.364 47.105 L 186.916 48.755 L 187.400 48.958 L 190.467 50.376 L 194.019 51.812 L 196.293 52.577 L 197.570 53.075 L 201.121 54.154 L 204.673 54.901 L 208.224 55.285 L 211.776 55.281 L 215.327 54.878 L 218.879 54.091 L 222.430 52.954 L 223.355 52.577 M 385.260 48.958 L 384.052 52.577 L 383.233 56.197 L 382.815 59.817 L 382.813 63.437 L 383.218 67.056 L 384.007 70.676 L 385.157 74.296 L 385.794 75.844 M 93.294 63.437 L 92.350 67.056 L 91.791 70.676 L 91.607 74.296 L 91.781 77.915 L 92.280 81.535 L 93.057 85.155 L 94.060 88.775 L 94.579 90.339 M 325.421 89.800 L 324.607 92.394 L 323.308 96.014 L 321.900 99.634 M 307.664 130.951 L 307.078 132.211 L 305.651 135.831 L 304.534 139.451 M 151.402 138.882 L 151.134 139.451 L 150.009 143.070 L 149.478 146.690 L 149.533 150.310 L 150.160 153.930 L 151.346 157.549 L 151.402 157.666 L 152.841 161.169 L 154.830 164.789 L 154.953 164.970 L 157.068 168.408 L 158.505 170.344 L 159.668 172.028 L 162.056 175.018 L 162.536 175.648 L 165.604 179.268 M 269.966 143.070 L 270.581 146.690 L 270.611 150.310 L 270.038 153.930 L 268.861 157.549 M 304.112 141.439 L 303.701 143.070 L 303.234 146.690 L 303.222 150.310 L 303.655 153.930 L 304.112 155.859 L 304.451 157.549 L 305.517 161.169 L 306.885 164.789 L 307.664 166.519 L 308.418 168.408 L 310.053 172.028 L 311.215 174.390 L 311.785 175.648 L 313.529 179.268 L 314.766 181.739 L 315.315 182.887 L 317.073 186.507 L 318.318 189.089 L 318.808 190.127 L 320.451 193.746 L 321.869 197.073 L 321.995 197.366 L 323.416 200.986 L 324.710 204.606 L 325.421 206.866 L 325.869 208.225 L 326.871 211.845 L 327.654 215.465 L 328.169 219.085 L 328.370 222.704 L 328.226 226.324 L 327.714 229.944 L 326.807 233.563 L 325.476 237.183 M 168.819 182.887 L 169.159 183.253 L 172.233 186.507 L 172.710 186.996 L 175.915 190.127 L 176.262 190.459 L 179.813 193.640 L 179.943 193.746 L 183.364 196.583 L 184.424 197.366 L 186.916 199.292 L 189.432 200.986 L 190.467 201.743 L 194.019 203.942 L 195.349 204.606 L 197.570 205.855 L 201.121 207.346 L 204.315 208.225 L 204.673 208.342 L 208.224 208.907 L 211.776 208.874 L 215.327 208.252 L 215.406 208.225 M 254.393 179.485 L 250.841 183.312 L 247.290 186.880 L 243.738 190.249 M 20.000 196.365 L 20.678 197.366 L 23.088 200.986 L 23.551 201.712 L 25.462 204.606 L 27.103 207.267 L 27.722 208.225 L 29.844 211.845 L 30.654 213.415 L 31.777 215.465 L 33.455 219.085 L 34.206 221.087 L 34.859 222.704 L 35.967 226.324 L 36.724 229.944 L 37.118 233.563 L 37.131 237.183 L 36.740 240.803 L 35.926 244.423 L 34.687 248.042 M 94.101 208.225 L 93.085 211.845 L 92.312 215.465 L 91.811 219.085 L 91.617 222.704 L 91.760 226.324 L 92.271 229.944 L 93.181 233.563 L 94.524 237.183 L 94.579 237.299 M 385.151 222.704 L 384.058 226.324 L 383.323 229.944 L 382.959 233.563 L 382.975 237.183 L 383.376 240.803 L 384.170 244.423 L 385.367 248.042 L 385.794 249.029 M 20.000 24.307 L 23.174 27.239 L 23.551 27.616 L 26.550 30.859 L 27.103 31.529 L 29.394 34.479 L 30.654 36.342 L 31.813 38.099 L 33.895 41.718 L 34.206 42.342 L 35.735 45.338 L 37.267 48.958 L 37.757 50.442 L 38.502 52.577 L 39.363 56.197 L 39.784 59.817 L 39.763 63.437 L 39.324 67.056 L 38.497 70.676 M 126.542 28.306 L 130.093 27.659 L 133.645 27.428 L 137.196 27.575 L 140.748 28.046 L 144.299 28.781 L 147.850 29.725 L 151.402 30.839 L 151.458 30.859 L 154.953 32.053 L 158.505 33.403 L 161.088 34.479 L 162.056 34.875 L 165.607 36.441 L 169.159 38.077 M 272.150 29.637 L 275.701 28.718 L 279.252 28.052 L 282.804 27.671 L 286.355 27.602 L 289.907 27.876 L 293.458 28.521 L 297.009 29.571 L 300.105 30.859 L 300.561 31.047 L 304.112 32.882 L 306.619 34.479 L 307.664 35.151 L 311.215 37.801 L 311.573 38.099 L 314.766 40.840 L 315.700 41.718 L 318.318 44.349 L 319.237 45.338 L 321.869 48.492 L 322.242 48.958 L 324.760 52.577 L 325.421 53.729 L 326.822 56.197 L 328.411 59.817 L 328.972 61.564 L 329.591 63.437 L 330.379 67.056 L 330.772 70.676 L 330.809 74.296 L 330.524 77.915 L 329.943 81.535 L 329.089 85.155 M 172.710 39.784 L 176.262 41.492 L 176.742 41.718 L 179.813 43.221 L 183.364 44.883 L 184.408 45.338 L 186.916 46.502 L 190.467 47.992 L 193.117 48.958 L 194.019 49.321 L 197.570 50.506 L 201.121 51.425 L 204.673 52.057 L 208.224 52.380 L 211.776 52.374 L 215.327 52.032 L 218.879 51.369 L 222.430 50.410 L 225.981 49.167 L 226.554 48.958 M 381.250 52.577 L 380.437 56.197 L 380.040 59.817 L 380.075 63.437 L 380.540 67.056 L 381.419 70.676 L 382.243 73.011 M 90.337 63.437 L 89.475 67.056 L 89.012 70.676 L 88.933 74.296 L 89.218 77.915 L 89.832 81.535 L 90.727 85.155 L 91.028 86.100 M 37.757 72.919 L 37.346 74.296 L 35.943 77.915 L 34.229 81.535 M 311.215 128.114 L 310.997 128.592 L 309.521 132.211 L 308.268 135.831 M 154.953 136.722 L 153.812 139.451 L 152.823 143.070 L 152.362 146.690 L 152.419 150.310 L 152.978 153.930 L 154.023 157.549 L 154.953 159.762 L 155.484 161.169 L 157.285 164.789 L 158.505 166.742 L 159.469 168.408 L 161.996 172.028 L 162.056 172.103 L 164.760 175.648 L 165.607 176.648 L 167.784 179.268 L 169.159 180.810 L 171.032 182.887 L 172.710 184.661 L 174.535 186.507 L 176.262 188.196 L 178.380 190.127 L 179.813 191.416 L 182.659 193.746 L 183.364 194.331 L 186.916 196.968 L 187.529 197.366 L 190.467 199.370 L 193.280 200.986 L 194.019 201.447 L 197.570 203.251 L 201.121 204.595 L 201.163 204.606 L 204.673 205.611 L 208.224 206.105 L 211.776 206.079 L 215.327 205.540 L 218.490 204.606 M 307.664 138.060 L 307.236 139.451 L 306.471 143.070 L 306.078 146.690 L 306.063 150.310 L 306.423 153.930 L 307.140 157.549 L 307.664 159.349 L 308.133 161.169 L 309.338 164.789 L 310.774 168.408 L 311.215 169.388 L 312.306 172.028 L 313.944 175.648 L 314.766 177.354 L 315.643 179.268 L 317.375 182.887 L 318.318 184.818 L 319.125 186.507 L 320.841 190.127 L 321.869 192.376 L 322.497 193.746 L 324.056 197.366 L 325.421 200.767 L 325.511 200.986 L 326.877 204.606 L 328.111 208.225 L 328.972 211.158 L 329.191 211.845 L 330.097 215.465 L 330.731 219.085 L 331.046 222.704 L 331.008 226.324 L 330.589 229.944 L 329.761 233.563 M 113.570 143.070 L 113.931 146.690 L 113.905 150.310 L 113.490 153.930 L 112.708 157.549 M 267.199 143.070 L 267.727 146.690 L 267.740 150.310 L 267.224 153.930 L 266.185 157.549 M 250.841 180.908 L 247.290 184.621 L 243.738 188.001 L 240.187 191.154 L 236.636 194.082 L 237.060 193.746 M 20.000 193.402 L 20.233 193.746 L 22.687 197.366 L 23.551 198.664 L 25.154 200.986 L 27.103 203.933 L 27.570 204.606 L 29.911 208.225 L 30.654 209.491 L 32.123 211.845 L 34.110 215.465 L 34.206 215.672 L 35.916 219.085 L 37.385 222.704 L 37.757 223.906 L 38.583 226.324 L 39.432 229.944 L 39.891 233.563 L 39.944 237.183 L 39.572 240.803 L 38.761 244.423 M 97.746 193.746 L 96.124 197.366 L 94.585 200.986 L 91.028 209.613 M 90.759 211.845 L 89.867 215.465 L 89.246 219.085 L 88.933 222.704 L 88.965 226.324 L 89.381 229.944 L 90.217 233.563 L 91.028 235.874 M 381.463 226.324 L 380.641 229.944 L 380.224 233.563 L 380.212 237.183 L 380.602 240.803 L 381.399 244.423 L 382.243 246.972 M 154.953 264.943 L 151.402 266.141 L 147.850 267.232 L 144.299 268.141 L 140.748 268.828 L 137.196 269.251 L 133.645 269.365 L 130.093 269.128 L 126.542 268.501 L 122.991 267.448 M 20.000 21.104 L 22.857 23.620 L 23.551 24.258 L 26.542 27.239 L 27.103 27.848 L 29.705 30.859 L 30.654 32.098 L 32.413 34.479 L 34.206 37.251 L 34.756 38.099 L 36.844 41.718 L 37.757 43.546 L 38.699 45.338 L 40.286 48.958 L 41.308 51.993 L 41.522 52.577 L 42.415 56.197 L 42.827 59.817 L 42.756 63.437 L 42.222 67.056 M 126.542 25.122 L 130.093 24.579 L 133.645 24.479 L 137.196 24.776 L 140.748 25.408 L 144.299 26.310 L 147.248 27.239 L 147.850 27.409 L 151.402 28.589 L 154.953 29.905 L 157.290 30.859 L 158.505 31.328 L 162.056 32.826 L 165.607 34.418 L 165.738 34.479 L 169.159 36.066 L 172.710 37.746 L 173.454 38.099 L 176.262 39.453 L 179.813 41.129 L 181.121 41.718 L 183.364 42.769 L 186.916 44.317 L 189.516 45.338 L 190.467 45.737 L 194.019 47.028 L 197.570 48.094 L 201.121 48.914 L 201.399 48.958 L 204.673 49.530 L 208.224 49.845 L 211.776 49.838 L 215.327 49.506 L 218.332 48.958 M 279.252 25.375 L 282.804 24.853 L 286.355 24.653 L 289.907 24.810 L 293.458 25.358 L 297.009 26.337 L 299.266 27.239 L 300.561 27.736 L 304.112 29.511 L 306.276 30.859 L 307.664 31.713 L 311.215 34.293 L 311.443 34.479 L 314.766 37.206 L 315.755 38.099 L 318.318 40.497 L 319.535 41.718 L 321.869 44.238 L 322.845 45.338 L 325.421 48.602 L 325.697 48.958 L 328.129 52.577 L 328.972 54.128 L 330.123 56.197 L 331.662 59.817 L 332.523 62.705 L 332.755 63.437 L 333.476 67.056 L 333.771 70.676 L 333.682 74.296 L 333.252 77.915 M 105.234 37.244 L 101.682 40.538 L 98.131 44.156 L 94.579 48.389 M 222.430 48.029 L 225.981 46.952 L 229.533 45.666 L 230.327 45.338 M 378.284 52.577 L 377.449 56.197 L 377.058 59.817 L 377.128 63.437 L 377.664 67.056 L 378.664 70.676 M 87.199 63.437 L 86.416 67.056 L 86.063 70.676 L 86.114 74.296 L 86.543 77.915 L 87.309 81.535 L 87.477 82.094 M 41.308 70.473 L 41.261 70.676 L 40.048 74.296 L 38.496 77.915 M 314.766 124.804 L 314.690 124.972 L 313.181 128.592 L 311.837 132.211 M 158.505 134.215 L 157.678 135.831 L 156.290 139.451 L 155.388 143.070 L 154.971 146.690 L 155.028 150.310 L 155.540 153.930 L 156.489 157.549 L 157.877 161.169 L 158.505 162.414 L 159.613 164.789 L 161.734 168.408 L 162.056 168.869 L 164.160 172.028 L 165.607 173.911 L 166.915 175.648 L 169.159 178.334 L 169.945 179.268 L 172.710 182.326 L 173.238 182.887 L 176.262 185.947 L 176.855 186.507 L 179.813 189.215 L 180.907 190.127 L 183.364 192.157 L 185.529 193.746 L 186.916 194.783 L 190.467 197.097 L 190.952 197.366 L 194.019 199.158 L 197.570 200.828 L 198.012 200.986 L 201.121 202.198 L 204.673 203.116 L 208.224 203.565 L 211.776 203.544 L 215.327 203.056 L 218.879 202.104 L 221.686 200.986 M 311.215 134.189 L 310.649 135.831 L 309.672 139.451 L 309.002 143.070 L 308.657 146.690 L 308.645 150.310 L 308.960 153.930 L 309.591 157.549 L 310.517 161.169 L 311.215 163.285 L 311.669 164.789 L 312.980 168.408 L 314.469 172.028 L 314.766 172.687 L 316.032 175.648 L 317.693 179.268 L 318.318 180.570 L 319.405 182.887 L 321.143 186.507 L 321.869 188.031 L 322.868 190.127 L 324.535 193.746 L 325.421 195.782 L 326.130 197.366 L 327.647 200.986 L 328.972 204.383 L 329.065 204.606 L 330.420 208.225 L 331.618 211.845 L 332.523 215.162 L 332.616 215.465 L 333.409 219.085 L 333.871 222.704 L 333.963 226.324 L 333.653 229.944 L 332.905 233.563 M 110.397 139.451 L 111.037 143.070 L 111.354 146.690 L 111.331 150.310 L 110.967 153.930 L 110.286 157.549 L 109.332 161.169 M 247.290 182.297 L 243.738 185.832 L 240.187 188.973 L 236.636 191.869 L 233.084 194.522 M 20.000 190.439 L 22.236 193.746 L 23.551 195.685 L 24.734 197.366 L 27.103 200.795 L 27.242 200.986 L 29.757 204.606 L 30.654 205.992 L 32.192 208.225 L 34.206 211.452 L 34.471 211.845 L 36.616 215.465 L 37.757 217.739 L 38.502 219.085 L 40.124 222.704 L 41.308 226.155 L 41.374 226.324 L 42.345 229.944 L 42.880 233.563 L 42.971 237.183 L 42.604 240.803 L 41.771 244.423 M 87.348 215.465 L 86.571 219.085 L 86.107 222.704 L 86.000 226.324 L 86.300 229.944 L 87.055 233.563 L 87.477 234.825 M 381.520 219.085 L 379.919 222.704 L 378.692 226.324 L 375.140 239.948 M 377.750 229.944 L 377.266 233.563 L 377.229 237.183 L 377.627 240.803 L 378.453 244.423 L 378.692 245.123 M 314.766 259.538 L 311.228 262.521 L 307.664 265.238 L 306.270 266.141 M 22.516 20.000 L 23.551 20.905 L 26.425 23.620 L 27.103 24.295 L 29.876 27.239 L 30.654 28.147 L 32.878 30.859 L 34.206 32.686 L 35.497 34.479 L 37.757 38.024 L 37.806 38.099 L 39.963 41.718 L 41.308 44.327 L 41.872 45.338 L 43.559 48.958 L 44.843 52.577 L 44.860 52.651 L 45.799 56.197 L 46.224 59.817 L 46.106 63.437 L 45.455 67.056 M 126.542 21.612 L 130.093 21.197 L 133.645 21.262 L 137.196 21.751 L 140.748 22.595 L 143.961 23.620 L 144.299 23.712 L 147.850 24.914 L 151.402 26.265 L 153.723 27.239 L 154.953 27.706 L 158.505 29.186 L 162.056 30.771 L 162.242 30.859 L 165.607 32.384 L 169.159 34.052 L 170.050 34.479 L 172.710 35.742 L 176.262 37.428 L 177.708 38.099 L 179.813 39.094 L 183.364 40.696 L 185.806 41.718 L 186.916 42.202 L 190.467 43.597 L 194.019 44.804 L 195.928 45.338 L 197.570 45.829 L 201.121 46.644 L 204.673 47.198 L 208.224 47.478 L 211.776 47.476 L 215.327 47.190 L 218.879 46.628 L 222.430 45.768 L 223.974 45.338 M 279.252 22.525 L 282.804 21.805 L 286.355 21.425 L 289.907 21.427 L 293.458 21.859 L 297.009 22.768 L 299.168 23.620 L 300.561 24.128 L 304.112 25.874 L 306.293 27.239 L 307.664 28.062 L 311.215 30.618 L 311.511 30.859 L 314.766 33.472 L 315.901 34.479 L 318.318 36.644 L 319.830 38.099 L 321.869 40.141 L 323.377 41.718 L 325.421 44.036 L 326.554 45.338 L 328.972 48.495 L 329.333 48.958 L 331.741 52.577 L 332.523 54.051 L 333.731 56.197 L 335.250 59.817 L 336.075 62.743 L 336.290 63.437 L 336.926 67.056 L 337.084 70.676 L 336.820 74.296 L 336.185 77.915 M 396.449 21.183 L 392.897 24.701 L 389.346 28.496 L 385.794 32.700 M 375.043 52.577 L 374.148 56.197 L 373.737 59.817 L 373.834 63.437 L 374.457 67.056 L 375.140 69.191 M 83.729 63.437 L 83.039 67.056 L 82.831 70.676 L 83.064 74.296 L 83.694 77.915 L 83.925 78.741 M 336.075 78.313 L 335.315 81.535 L 334.186 85.155 L 332.818 88.775 M 318.318 121.274 L 318.282 121.352 L 316.730 124.972 L 315.311 128.592 M 162.056 131.601 L 161.690 132.211 L 159.935 135.831 L 158.633 139.451 M 314.766 130.162 L 314.007 132.211 L 312.873 135.831 L 311.986 139.451 L 311.378 143.070 M 107.219 135.831 L 108.072 139.451 L 108.654 143.070 L 108.785 144.707 M 158.505 139.995 L 157.722 143.070 L 157.295 146.690 L 157.353 150.310 L 157.875 153.930 L 158.505 156.283 L 158.816 157.549 L 160.108 161.169 L 161.826 164.789 L 162.056 165.179 L 163.863 168.408 L 165.607 170.998 L 166.285 172.028 L 169.027 175.648 L 169.159 175.805 L 172.072 179.268 L 172.710 179.974 L 175.448 182.887 L 176.262 183.710 L 179.222 186.507 L 179.813 187.048 L 183.364 190.012 L 183.518 190.127 L 186.916 192.651 L 188.615 193.746 L 190.467 194.967 L 194.019 196.947 L 194.939 197.366 L 197.570 198.628 L 201.121 199.915 L 204.673 200.772 L 206.474 200.986 L 208.224 201.214 L 211.776 201.174 L 213.248 200.986 M 311.215 144.977 L 311.054 146.690 L 311.045 150.310 L 311.215 152.264 L 311.348 153.930 L 311.923 157.549 L 312.765 161.169 L 313.851 164.789 L 314.766 167.333 L 315.130 168.408 L 316.530 172.028 L 318.077 175.648 L 318.318 176.173 L 319.702 179.268 L 321.409 182.887 L 321.869 183.842 L 323.154 186.507 L 324.889 190.127 L 325.421 191.276 L 326.591 193.746 L 328.228 197.366 L 328.972 199.114 L 329.819 200.986 L 331.351 204.606 L 332.523 207.607 L 332.791 208.225 L 334.167 211.845 L 335.337 215.465 L 336.075 218.441 L 336.262 219.085 L 336.929 222.704 L 337.202 226.324 L 337.037 229.944 L 336.384 233.563 M 108.596 153.930 L 107.984 157.549 L 107.126 161.169 L 106.053 164.789 M 250.841 175.952 L 247.290 180.005 L 243.738 183.581 L 240.187 186.823 L 240.542 186.507 M 20.000 187.437 L 21.788 190.127 L 23.551 192.733 L 24.263 193.746 L 26.812 197.366 L 27.103 197.788 L 29.431 200.986 L 30.654 202.746 L 32.032 204.606 L 34.206 207.766 L 34.548 208.225 L 36.990 211.845 L 37.757 213.140 L 39.278 215.465 L 41.278 219.085 L 41.308 219.153 L 43.115 222.704 L 44.515 226.324 L 44.860 227.607 L 45.590 229.944 L 46.217 233.563 L 46.338 237.183 L 45.953 240.803 L 45.061 244.423 M 400.000 187.110 L 396.449 192.175 L 392.897 197.164 L 389.346 202.082 M 83.729 219.085 L 83.056 222.704 L 82.759 226.324 L 82.902 229.944 L 83.549 233.563 L 83.925 234.734 M 374.518 229.944 L 373.948 233.563 L 373.891 237.183 L 374.319 240.803 L 375.140 244.122 M 26.297 20.000 L 27.103 20.758 L 29.959 23.620 L 30.654 24.360 L 33.229 27.239 L 34.206 28.444 L 36.124 30.859 L 37.757 33.163 L 38.711 34.479 L 41.073 38.099 L 41.308 38.500 L 43.345 41.718 L 44.860 44.478 L 45.387 45.338 L 47.234 48.958 L 48.411 51.999 L 48.673 52.577 L 49.759 56.197 L 50.242 59.817 L 50.098 63.437 L 49.310 67.056 M 141.949 20.000 L 144.299 20.813 L 147.850 22.259 L 150.864 23.620 L 151.402 23.830 L 154.953 25.367 L 158.505 27.008 L 158.972 27.239 L 162.056 28.639 L 165.607 30.332 L 166.675 30.859 L 169.159 32.033 L 172.710 33.738 L 174.262 34.479 L 176.262 35.430 L 179.813 37.081 L 182.112 38.099 L 183.364 38.664 L 186.916 40.154 L 190.467 41.492 L 191.164 41.718 L 194.019 42.689 L 197.570 43.681 L 201.121 44.440 L 204.673 44.953 L 208.224 45.213 L 211.776 45.217 L 215.327 44.965 L 218.879 44.459 L 222.430 43.708 L 225.981 42.682 L 228.973 41.718 M 300.538 20.000 L 300.561 20.008 L 304.112 21.759 L 306.957 23.620 L 307.664 24.046 L 311.215 26.631 L 311.938 27.239 L 314.766 29.513 L 316.269 30.859 L 318.318 32.662 L 320.234 34.479 L 321.869 36.046 L 323.921 38.099 L 325.421 39.669 L 327.354 41.718 L 328.972 43.592 L 330.510 45.338 L 332.523 47.957 L 333.337 48.958 L 335.783 52.577 L 336.075 53.120 L 337.895 56.197 L 339.410 59.817 L 339.626 60.616 L 340.498 63.437 L 340.994 67.056 L 340.937 70.676 L 340.400 74.296 M 392.897 21.074 L 389.346 24.749 L 385.794 28.674 L 382.243 32.996 M 371.311 52.577 L 370.286 56.197 L 369.807 59.817 L 369.908 63.437 L 370.631 67.056 L 371.589 69.566 M 79.610 63.437 L 79.065 67.056 L 79.086 70.676 L 79.601 74.296 L 80.374 77.229 M 339.626 77.229 L 339.480 77.915 L 338.364 81.535 L 336.970 85.155 M 321.869 117.685 L 321.847 117.732 L 320.246 121.352 L 318.748 124.972 M 318.318 126.114 L 317.346 128.592 L 316.091 132.211 L 315.031 135.831 M 162.056 136.010 L 160.792 139.451 L 159.926 143.070 L 159.524 146.690 L 159.575 150.310 L 160.059 153.930 L 160.961 157.549 L 162.056 160.557 L 162.267 161.169 L 163.904 164.789 L 165.607 167.786 L 165.952 168.408 L 168.341 172.028 L 169.159 173.106 L 171.096 175.648 L 172.710 177.558 L 174.205 179.268 L 176.262 181.453 L 177.701 182.887 L 179.813 184.888 L 181.686 186.507 L 183.364 187.916 L 186.325 190.127 L 186.916 190.566 L 190.467 192.877 L 192.044 193.746 L 194.019 194.862 L 197.570 196.492 L 200.082 197.366 L 201.121 197.748 L 204.673 198.628 L 208.224 199.062 L 211.776 199.045 L 215.327 198.578 L 218.879 197.663 L 219.664 197.366 M 259.288 139.451 L 260.179 143.070 L 260.619 146.690 L 260.606 150.310 L 260.140 153.930 L 259.231 157.549 M 314.766 136.993 L 314.167 139.451 L 313.566 143.070 L 313.262 146.690 L 313.259 150.310 L 313.550 153.930 L 314.122 157.549 L 314.766 160.338 L 314.947 161.169 L 315.962 164.789 L 317.181 168.408 L 318.318 171.357 L 318.567 172.028 L 320.068 175.648 L 321.695 179.268 L 321.869 179.637 L 323.404 182.887 L 325.159 186.507 L 325.421 187.051 L 326.931 190.127 L 328.661 193.746 L 328.972 194.429 L 330.383 197.366 L 332.050 200.986 L 332.523 202.084 L 333.721 204.606 L 335.326 208.225 L 336.075 210.108 L 336.872 211.845 L 338.296 215.465 L 339.450 219.085 L 339.626 219.883 L 340.401 222.704 L 340.953 226.324 L 341.012 229.944 L 340.506 233.563 M 106.457 143.070 L 106.746 146.690 L 106.730 150.310 L 106.411 153.930 L 105.812 157.549 M 243.738 181.330 L 240.187 184.705 L 236.636 187.668 L 233.084 190.329 L 233.362 190.127 M 20.000 184.389 L 21.376 186.507 L 23.551 189.775 L 23.794 190.127 L 26.336 193.746 L 27.103 194.835 L 28.986 197.366 L 30.654 199.657 L 31.689 200.986 L 34.206 204.387 L 34.381 204.606 L 37.077 208.225 L 37.757 209.234 L 39.704 211.845 L 41.308 214.304 L 42.171 215.465 L 44.439 219.085 L 44.860 219.916 L 46.519 222.704 L 48.140 226.324 L 48.411 227.204 L 49.438 229.944 L 50.174 233.563 L 50.306 237.183 L 49.854 240.803 L 48.836 244.423 M 396.449 189.333 L 392.897 194.280 L 389.346 199.175 L 385.794 203.938 M 79.609 222.704 L 79.025 226.324 L 78.926 229.944 L 79.404 233.563 L 80.374 236.642 M 370.665 229.944 L 369.984 233.563 L 369.922 237.183 L 370.429 240.803 L 371.464 244.423 L 371.589 244.720 M 30.054 20.000 L 30.654 20.601 L 33.524 23.620 L 34.206 24.387 L 36.669 27.239 L 37.757 28.627 L 39.524 30.859 L 41.308 33.356 L 42.158 34.479 L 44.655 38.099 L 44.860 38.426 L 47.150 41.718 L 48.411 43.803 L 49.486 45.338 L 51.585 48.958 L 51.963 49.808 L 53.482 52.577 L 54.825 56.197 L 55.484 59.817 L 55.401 63.437 L 54.490 67.056 L 52.669 70.676 M 148.993 20.000 L 151.402 21.130 L 154.953 22.918 L 156.259 23.620 L 158.505 24.680 L 162.056 26.454 L 163.558 27.239 L 165.607 28.226 L 169.159 29.988 L 170.901 30.859 L 172.710 31.731 L 176.262 33.434 L 178.502 34.479 L 179.813 35.090 L 183.364 36.666 L 186.855 38.099 M 308.532 20.000 L 311.215 22.061 L 312.936 23.620 L 314.766 25.140 L 317.016 27.239 L 318.318 28.396 L 320.881 30.859 L 321.869 31.792 L 324.590 34.479 L 325.421 35.309 L 328.181 38.099 L 328.972 38.939 L 331.647 41.718 L 332.523 42.720 L 334.952 45.338 L 336.075 46.737 L 338.043 48.958 L 339.626 51.149 L 340.824 52.577 L 343.109 56.197 L 343.178 56.351 L 345.058 59.817 L 346.077 63.437 L 346.288 67.056 L 345.826 70.676 L 344.807 74.296 L 343.338 77.915 M 389.346 20.906 L 385.794 24.692 L 382.243 28.711 L 378.692 33.071 L 375.140 37.799 M 98.131 31.946 L 94.579 35.391 L 91.028 38.918 L 87.477 42.671 L 83.925 46.703 M 190.467 39.465 L 194.019 40.623 L 197.570 41.573 L 198.281 41.718 L 201.121 42.326 L 204.673 42.842 L 208.224 43.108 L 211.776 43.123 L 215.327 42.883 L 218.879 42.357 L 222.089 41.718 M 366.606 52.577 L 365.313 56.197 L 364.649 59.817 L 364.677 63.437 L 365.488 67.056 L 367.195 70.676 L 368.037 71.825 M 75.189 59.817 L 74.095 63.437 L 73.842 67.056 L 74.296 70.676 L 75.321 74.296 L 76.805 77.915 M 328.972 106.667 L 328.875 106.873 L 327.149 110.493 L 325.439 114.113 M 318.318 131.664 L 318.128 132.211 L 317.073 135.831 L 316.252 139.451 L 315.693 143.070 L 315.415 146.690 L 315.417 150.310 L 315.693 153.930 L 316.230 157.549 L 317.012 161.169 L 318.020 164.789 L 318.318 165.675 L 319.199 168.408 L 320.547 172.028 L 321.869 175.209 L 322.050 175.648 L 323.674 179.268 L 325.395 182.887 M 102.985 135.831 L 103.775 139.451 L 104.317 143.070 L 104.589 146.690 L 104.578 150.310 L 104.286 153.930 L 103.734 157.549 L 102.950 161.169 L 101.957 164.789 M 165.607 132.794 L 164.170 135.831 L 162.895 139.451 L 162.064 143.070 L 161.649 146.690 L 161.696 150.310 L 162.056 152.971 L 162.178 153.930 L 163.036 157.549 L 164.293 161.169 L 165.607 164.024 L 165.950 164.789 L 167.962 168.408 L 169.159 170.208 L 170.373 172.028 L 172.710 175.074 L 173.164 175.648 L 176.262 179.179 L 176.344 179.268 L 179.813 182.728 L 179.987 182.887 L 183.364 185.822 L 184.249 186.507 L 186.916 188.519 L 189.372 190.127 L 190.467 190.843 L 194.019 192.818 L 196.071 193.746 L 197.570 194.443 L 201.121 195.701 L 204.673 196.543 L 208.224 196.960 L 211.776 196.946 L 215.327 196.502 L 218.879 195.631 L 222.430 194.310 L 223.669 193.746 M 20.000 181.285 L 21.012 182.887 L 23.368 186.507 L 23.551 186.783 L 25.860 190.127 L 27.103 191.894 L 28.482 193.746 L 30.654 196.665 L 31.214 197.366 L 34.032 200.986 L 34.206 201.220 L 36.923 204.606 L 37.757 205.726 L 39.818 208.225 L 41.308 210.229 L 42.682 211.845 L 44.860 214.783 L 45.460 215.465 L 48.126 219.085 L 48.411 219.568 L 50.699 222.704 L 51.963 225.048 L 52.870 226.324 L 54.558 229.944 L 55.400 233.563 L 55.473 237.183 L 54.834 240.803 L 53.542 244.423 M 240.187 182.518 L 236.636 185.631 L 233.084 188.288 L 229.533 190.639 M 330.799 193.746 L 332.523 197.276 L 332.571 197.366 L 334.407 200.986 L 336.075 204.397 L 336.191 204.606 L 338.060 208.225 L 339.626 211.500 L 339.825 211.845 L 341.632 215.465 L 343.169 219.085 M 344.684 222.704 L 345.735 226.324 L 346.218 229.944 L 346.013 233.563 L 344.983 237.183 M 75.365 222.704 L 74.285 226.324 L 73.755 229.944 L 73.913 233.563 L 74.927 237.183 L 76.822 240.581 M 367.217 226.324 L 365.510 229.944 L 364.706 233.563 L 364.701 237.183 L 365.397 240.803 L 366.717 244.423 L 368.037 246.946 M 48.411 253.616 L 47.424 255.282 L 44.892 258.901 L 42.263 262.521 M 33.861 20.000 L 34.206 20.363 L 37.196 23.620 L 37.757 24.276 L 40.289 27.239 L 41.308 28.543 L 43.200 30.859 L 44.860 33.078 L 46.011 34.479 L 48.411 37.650 L 48.801 38.099 L 51.672 41.718 L 51.963 42.137 L 54.663 45.338 L 55.514 46.550 L 57.756 48.958 L 59.065 50.734 L 61.264 52.577 L 62.617 54.077 L 66.168 55.289 L 69.720 54.138 L 71.556 52.577 M 154.430 20.000 L 154.953 20.268 L 158.505 22.213 L 160.970 23.620 L 162.056 24.168 L 165.607 26.045 L 167.825 27.239 L 169.159 27.905 L 172.710 29.695 L 175.055 30.859 L 176.262 31.440 L 179.813 33.104 L 182.910 34.479 L 183.364 34.681 L 186.916 36.144 L 190.467 37.455 L 192.487 38.099 L 194.019 38.599 L 197.570 39.553 L 201.121 40.284 L 204.673 40.780 L 208.224 41.041 L 211.776 41.065 L 215.327 40.849 L 218.879 40.389 L 222.430 39.684 L 225.981 38.732 L 227.958 38.099 M 382.243 24.434 L 378.692 28.500 L 375.140 32.770 L 371.589 37.193 M 325.421 30.750 L 325.528 30.859 L 328.972 34.292 L 329.165 34.479 L 332.523 37.783 L 332.866 38.099 L 336.075 41.229 L 336.634 41.718 L 339.626 44.630 L 340.481 45.338 L 343.178 47.956 L 344.490 48.958 L 346.729 51.101 L 349.000 52.577 L 350.280 53.732 L 353.832 55.090 L 357.383 54.090 L 358.791 52.577 M 321.869 127.063 L 321.292 128.592 L 320.090 132.211 L 319.082 135.831 M 165.607 137.525 L 164.919 139.451 L 164.068 143.070 L 163.666 146.690 L 163.703 150.310 L 164.164 153.930 L 165.037 157.549 L 165.607 159.170 L 166.289 161.169 L 167.920 164.789 L 169.159 166.991 L 169.957 168.408 L 172.388 172.028 L 172.710 172.448 L 175.242 175.648 L 176.262 176.811 L 178.548 179.268 L 179.813 180.530 L 182.393 182.887 L 183.364 183.731 L 186.916 186.482 L 186.953 186.507 L 190.467 188.837 L 192.775 190.127 L 194.019 190.823 L 197.570 192.450 L 201.121 193.683 L 201.393 193.746 L 204.673 194.542 L 208.224 194.971 L 211.776 194.961 L 215.327 194.479 L 218.376 193.746 M 318.318 139.368 L 318.299 139.451 L 317.747 143.070 L 317.475 146.690 L 317.483 150.310 L 317.762 153.930 L 318.299 157.549 L 318.318 157.634 L 319.048 161.169 L 320.012 164.789 L 321.178 168.408 L 321.869 170.263 L 322.519 172.028 L 324.017 175.648 L 325.421 178.758 L 325.655 179.268 L 327.412 182.887 L 328.972 186.013 L 329.229 186.507 L 331.102 190.127 L 332.523 192.921 L 332.975 193.746 L 334.904 197.366 L 336.075 199.625 L 336.872 200.986 L 338.913 204.606 L 339.626 205.947 L 341.073 208.225 L 343.178 211.773 M 102.250 143.070 L 102.524 146.690 L 102.517 150.310 L 102.233 153.930 L 101.692 157.549 M 256.025 143.070 L 256.457 146.690 L 256.442 150.310 L 255.987 153.930 L 255.106 157.549 M 20.000 178.109 L 20.704 179.268 L 22.994 182.887 L 23.551 183.743 L 25.416 186.507 L 27.103 188.943 L 27.971 190.127 L 30.654 193.726 M 396.449 183.624 L 392.897 188.626 L 389.346 193.355 L 385.794 197.830 M 33.563 197.366 L 34.206 198.192 L 36.571 200.986 L 37.757 202.464 L 39.664 204.606 L 41.308 206.602 L 42.841 208.225 L 44.860 210.604 L 46.117 211.845 L 48.411 214.457 L 49.525 215.465 L 51.963 218.130 L 53.146 219.085 L 55.514 221.537 L 57.257 222.704 L 59.065 224.412 L 62.617 225.943 L 66.168 225.332 L 68.882 222.704 M 345.663 215.465 L 346.729 217.293 L 348.241 219.085 L 350.280 221.973 L 351.228 222.704 L 353.832 225.261 L 357.383 225.931 L 360.935 224.507 L 362.934 222.704 M 37.810 20.000 L 41.083 23.620 L 41.308 23.886 L 44.234 27.239 L 44.860 28.013 L 47.354 30.859 L 48.411 32.155 L 50.576 34.479 L 51.963 36.078 L 54.072 38.099 L 55.514 39.607 L 58.137 41.718 L 59.065 42.559 L 62.617 44.684 L 65.077 45.338 L 66.168 45.665 L 69.720 45.361 L 69.777 45.338 M 159.123 20.000 L 162.056 21.705 L 165.271 23.620 L 165.607 23.798 L 169.159 25.738 L 171.927 27.239 L 172.710 27.636 L 176.262 29.416 L 179.255 30.859 L 179.813 31.121 L 183.364 32.708 L 186.916 34.168 L 187.760 34.479 L 190.467 35.482 L 194.019 36.617 L 197.570 37.550 L 200.294 38.099 L 201.121 38.270 L 204.673 38.774 L 208.224 39.045 L 211.776 39.080 L 215.327 38.874 L 218.879 38.413 L 220.501 38.099 M 320.364 20.000 L 321.869 21.667 L 323.545 23.620 L 325.421 25.610 L 326.931 27.239 L 328.972 29.319 L 330.520 30.859 L 332.523 32.801 L 334.378 34.479 L 336.075 36.033 L 338.604 38.099 L 339.626 38.985 L 343.178 41.575 L 343.441 41.718 L 346.729 43.728 L 350.280 45.093 L 352.843 45.338 L 353.832 45.450 L 354.250 45.338 M 382.243 20.078 L 378.692 23.924 L 375.140 27.896 L 371.589 31.909 L 368.037 35.811 M 87.477 32.765 L 83.925 36.035 L 80.374 39.032 L 76.822 41.757 L 76.870 41.718 M 325.421 122.879 L 324.561 124.972 L 323.216 128.592 L 322.040 132.211 M 169.159 133.703 L 168.160 135.831 L 166.888 139.451 L 166.053 143.070 L 165.654 146.690 L 165.683 150.310 L 166.128 153.930 L 166.978 157.549 L 168.228 161.169 L 169.159 163.210 L 169.878 164.789 L 171.930 168.408 L 172.710 169.567 L 174.416 172.028 L 176.262 174.348 L 177.354 175.648 L 179.813 178.286 L 180.807 179.268 L 183.364 181.612 L 184.920 182.887 L 186.916 184.445 L 189.955 186.507 L 190.467 186.846 L 194.019 188.854 L 196.791 190.127 L 197.570 190.486 L 201.121 191.742 L 204.673 192.588 L 208.224 193.012 L 211.776 193.005 L 215.327 192.567 L 218.879 191.699 L 222.430 190.403 L 223.022 190.127 M 321.869 132.843 L 321.040 135.831 L 320.263 139.451 L 319.740 143.070 L 319.485 146.690 L 319.498 150.310 L 319.769 153.930 L 320.285 157.549 L 321.031 161.169 L 321.869 164.324 L 321.990 164.789 L 323.137 168.408 L 324.476 172.028 L 325.421 174.301 L 325.989 175.648 L 327.656 179.268 L 328.972 181.960 L 329.443 182.887 L 331.329 186.507 L 332.523 188.797 L 333.265 190.127 L 335.260 193.746 L 336.075 195.257 L 337.351 197.366 L 339.509 200.986 L 339.626 201.192 L 341.935 204.606 L 343.178 206.522 L 344.576 208.225 L 346.729 211.027 L 347.602 211.845 L 350.280 214.600 L 351.678 215.465 L 353.832 216.970 L 357.383 217.880 L 360.935 217.423 L 364.486 215.775 L 364.877 215.465 M 99.727 139.451 L 100.245 143.070 L 100.509 146.690 L 100.508 150.310 L 100.242 153.930 L 99.729 157.549 L 98.986 161.169 M 20.000 174.816 L 20.475 175.648 L 22.674 179.268 L 23.551 180.652 L 25.017 182.887 L 27.103 185.968 L 27.490 186.507 L 30.149 190.127 L 30.654 190.804 L 33.017 193.746 L 34.206 195.234 L 36.067 197.366 L 37.757 199.363 L 39.288 200.986 L 41.308 203.256 L 42.691 204.606 L 44.860 206.904 L 46.361 208.225 L 48.411 210.247 L 50.473 211.845 L 51.963 213.189 L 55.444 215.465 L 55.514 215.521 L 59.065 217.214 L 62.617 217.739 L 66.168 216.893 L 68.240 215.465 M 236.636 181.368 L 233.084 184.240 L 229.533 186.660 L 229.758 186.507 M 389.346 190.519 L 385.794 194.984 L 382.243 199.151 L 378.692 203.048 M 42.088 20.000 L 44.860 23.034 L 45.426 23.620 L 48.411 26.855 L 48.807 27.239 L 51.963 30.448 L 52.442 30.859 L 55.514 33.614 L 56.747 34.479 L 59.065 36.184 L 62.617 37.965 L 63.164 38.099 L 66.168 38.866 L 69.720 38.760 L 71.916 38.099 M 163.367 20.000 L 165.607 21.357 L 169.159 23.523 L 169.318 23.620 L 172.710 25.489 L 175.983 27.239 L 176.262 27.379 L 179.813 29.111 L 183.364 30.736 L 183.658 30.859 L 186.916 32.208 L 190.467 33.520 L 193.485 34.479 L 194.019 34.650 L 197.570 35.590 L 201.121 36.312 L 204.673 36.810 L 208.224 37.081 L 211.776 37.124 L 215.327 36.930 L 218.879 36.489 L 222.430 35.796 L 225.981 34.859 L 227.142 34.479 M 325.898 20.000 L 328.908 23.620 L 328.972 23.689 L 332.328 27.239 L 332.523 27.434 L 336.075 30.718 L 336.249 30.859 L 339.626 33.519 L 341.105 34.479 L 343.178 35.844 L 346.729 37.575 L 348.624 38.099 L 350.280 38.588 L 353.832 38.691 L 356.383 38.099 M 368.037 30.295 L 364.486 33.494 L 360.935 36.054 L 363.098 34.479 M 325.421 127.808 L 325.129 128.592 L 323.953 132.211 L 322.973 135.831 L 322.218 139.451 M 96.072 132.211 L 97.020 135.831 L 97.754 139.451 L 98.131 142.145 M 169.159 138.517 L 168.828 139.451 L 167.974 143.070 L 167.562 146.690 L 167.585 150.310 L 168.032 153.930 L 168.894 157.549 L 169.159 158.309 L 170.150 161.169 L 171.814 164.789 L 172.710 166.358 L 173.914 168.408 L 176.262 171.768 L 176.454 172.028 L 179.501 175.648 L 179.813 175.983 L 183.140 179.268 L 183.364 179.473 L 186.916 182.396 L 187.600 182.887 L 190.467 184.853 L 193.327 186.507 L 194.019 186.899 L 197.570 188.551 L 201.121 189.807 L 202.449 190.127 L 204.673 190.665 L 208.224 191.100 L 211.776 191.098 L 215.327 190.655 L 217.461 190.127 M 252.058 143.070 L 252.498 146.690 L 252.488 150.310 L 252.041 153.930 L 251.174 157.549 M 321.869 141.950 L 321.709 143.070 L 321.459 146.690 L 321.478 150.310 L 321.753 153.930 L 321.869 154.747 L 322.260 157.549 L 322.988 161.169 L 323.931 164.789 L 325.085 168.408 L 325.421 169.313 L 326.439 172.028 L 327.974 175.648 L 328.972 177.800 L 329.678 179.268 L 331.524 182.887 L 332.523 184.794 L 333.479 186.507 L 335.511 190.127 L 336.075 191.143 L 337.679 193.746 L 339.626 196.915 L 339.949 197.366 L 342.502 200.986 L 343.178 201.968 L 345.448 204.606 L 346.729 206.152 L 349.078 208.225 L 350.280 209.357 L 353.832 211.462 L 355.274 211.845 L 357.383 212.456 L 360.935 212.298 L 362.206 211.845 M 97.773 157.549 L 97.046 161.169 L 96.101 164.789 L 94.949 168.408 M 20.000 171.318 L 20.369 172.028 L 22.436 175.648 L 23.551 177.480 L 24.674 179.268 L 27.055 182.887 L 27.103 182.958 L 29.652 186.507 L 30.654 187.869 L 32.449 190.127 L 34.206 192.312 L 35.470 193.746 L 37.757 196.366 L 38.734 197.366 L 41.308 200.097 L 42.277 200.986 L 44.860 203.506 L 46.227 204.606 L 48.411 206.525 L 50.907 208.225 L 51.963 209.038 L 55.514 210.946 L 58.508 211.845 L 59.065 212.044 L 62.617 212.178 L 63.996 211.845 M 233.084 182.156 L 229.533 184.708 L 225.981 186.777 L 226.442 186.507 M 395.394 179.268 L 392.906 182.887 L 389.346 187.694 L 385.794 192.134 L 382.243 196.215 M 46.961 20.000 L 48.411 21.503 L 50.663 23.620 L 51.963 24.879 L 54.810 27.239 L 55.514 27.839 L 59.065 30.212 L 60.462 30.859 L 62.617 31.868 L 66.168 32.690 L 69.720 32.630 L 73.271 31.747 L 75.087 30.859 M 167.343 20.000 L 169.159 21.124 L 172.710 23.297 L 173.251 23.620 L 176.262 25.255 L 179.813 27.090 L 180.120 27.239 L 183.364 28.740 L 186.916 30.242 L 188.556 30.859 L 190.467 31.569 L 194.019 32.706 L 197.570 33.641 L 201.121 34.361 L 201.960 34.479 L 204.673 34.866 L 208.224 35.146 L 211.776 35.197 L 215.327 35.007 L 218.879 34.566 L 219.322 34.479 M 331.754 20.000 L 332.523 20.911 L 334.974 23.620 L 336.075 24.707 L 338.989 27.239 L 339.626 27.753 L 343.178 30.073 L 344.857 30.859 L 346.729 31.707 L 350.280 32.578 L 353.832 32.629 L 357.383 31.832 L 359.425 30.859 M 371.589 21.390 L 368.037 24.822 L 364.486 27.780 L 365.096 27.239 M 328.972 123.597 L 328.400 124.972 L 327.043 128.592 L 325.865 132.211 M 172.710 134.397 L 172.029 135.831 L 170.737 139.451 L 169.883 143.070 L 169.465 146.690 L 169.481 150.310 L 169.924 153.930 L 170.783 157.549 L 172.056 161.169 L 172.710 162.580 L 173.761 164.789 L 175.905 168.408 L 176.262 168.918 L 178.555 172.028 L 179.813 173.520 L 181.758 175.648 L 183.364 177.236 L 185.654 179.268 L 186.916 180.308 L 190.467 182.858 M 325.421 133.858 L 324.888 135.831 L 324.136 139.451 L 323.635 143.070 L 323.396 146.690 L 323.418 150.310 L 323.690 153.930 L 324.196 157.549 L 324.925 161.169 L 325.421 163.063 L 325.872 164.789 L 327.038 168.408 L 328.409 172.028 L 328.972 173.350 L 329.987 175.648 L 331.739 179.268 L 332.523 180.798 L 333.660 182.887 L 335.693 186.507 L 336.075 187.184 L 337.900 190.127 L 339.626 192.891 L 340.242 193.746 L 342.854 197.366 L 343.178 197.820 L 345.970 200.986 L 346.729 201.863 L 349.940 204.606 L 350.280 204.908 L 353.832 206.987 L 357.383 207.984 L 360.935 208.006 L 364.486 207.136 L 368.037 205.383 L 369.251 204.606 M 95.819 139.451 L 96.326 143.070 L 96.589 146.690 L 96.596 150.310 L 96.346 153.930 L 95.850 157.549 L 95.120 161.169 M 249.201 139.451 L 250.109 143.070 L 250.555 146.690 L 250.549 150.310 L 250.106 153.930 L 249.242 157.549 L 247.960 161.169 M 20.000 167.444 L 20.439 168.408 L 22.323 172.028 L 23.551 174.176 L 24.418 175.648 L 26.696 179.268 L 27.103 179.885 L 29.196 182.887 L 30.654 184.911 L 31.899 186.507 L 34.206 189.404 L 34.840 190.127 L 37.757 193.434 L 38.066 193.746 L 41.308 197.065 L 41.650 197.366 L 44.860 200.310 L 45.760 200.986 L 48.411 203.113 L 50.848 204.606 L 51.963 205.358 L 55.514 206.975 L 59.065 207.796 L 62.617 207.756 L 66.168 206.754 L 69.720 204.651 L 69.770 204.606 M 194.019 184.939 L 197.324 186.507 L 197.570 186.622 L 201.121 187.898 L 204.673 188.762 L 208.224 189.200 L 211.776 189.202 L 215.327 188.761 L 218.879 187.879 L 222.430 186.564 L 222.546 186.507 M 389.346 184.825 L 385.794 189.331 L 382.243 193.370 L 378.692 196.990 L 375.140 200.199 M 53.180 20.000 L 55.514 21.852 L 58.276 23.620 L 59.065 24.123 L 62.617 25.671 L 66.168 26.443 L 69.720 26.353 L 73.271 25.394 L 76.822 23.650 L 76.866 23.620 M 171.169 20.000 L 172.710 20.955 L 176.262 23.087 L 177.193 23.620 L 179.813 24.993 L 183.364 26.727 L 184.514 27.239 L 186.916 28.264 L 190.467 29.611 L 194.019 30.764 L 194.375 30.859 L 197.570 31.708 L 201.121 32.436 L 204.673 32.943 L 208.224 33.226 L 211.776 33.279 L 215.327 33.089 L 218.879 32.643 L 222.430 31.934 L 225.981 30.972 L 226.311 30.859 M 338.732 20.000 L 339.626 20.871 L 343.102 23.620 L 343.178 23.672 L 346.729 25.431 L 350.280 26.376 L 353.832 26.449 L 357.383 25.662 L 360.935 24.126 L 361.664 23.620 M 327.777 132.211 L 326.800 135.831 L 326.053 139.451 L 325.557 143.070 M 93.150 135.831 L 93.886 139.451 L 94.392 143.070 L 94.579 145.633 M 172.710 139.256 L 172.640 139.451 L 171.770 143.070 L 171.341 146.690 L 171.352 150.310 L 171.797 153.930 L 172.668 157.549 L 172.710 157.668 L 173.976 161.169 L 175.717 164.789 L 176.262 165.705 L 177.955 168.408 L 179.813 170.913 L 180.707 172.028 L 183.364 174.933 L 184.091 175.648 L 186.916 178.163 L 188.337 179.268 L 190.467 180.809 L 193.867 182.887 L 194.019 182.976 L 197.570 184.683 L 201.121 185.984 L 203.215 186.507 L 204.673 186.866 L 208.224 187.312 L 211.776 187.317 L 215.327 186.877 L 216.785 186.507 M 248.633 146.690 L 248.632 150.310 L 248.188 153.930 L 247.315 157.549 M 325.421 145.192 L 325.323 146.690 L 325.349 150.310 L 325.421 151.254 L 325.622 153.930 L 326.127 157.549 L 326.857 161.169 L 327.812 164.789 L 328.972 168.348 L 328.992 168.408 L 330.413 172.028 L 332.026 175.648 L 332.523 176.670 L 333.862 179.268 L 335.847 182.887 L 336.075 183.291 L 338.053 186.507 L 339.626 189.015 L 340.422 190.127 L 343.053 193.746 L 343.178 193.918 L 346.240 197.366 L 346.729 197.918 L 350.280 200.925 L 350.387 200.986 L 353.832 202.993 L 357.383 204.050 L 360.935 204.191 L 364.486 203.496 L 368.037 201.971 L 369.734 200.986 M 94.422 153.930 L 93.926 157.549 L 93.191 161.169 L 92.225 164.789 L 91.038 168.408 L 87.477 177.342 M 20.000 162.830 L 20.740 164.789 L 22.389 168.408 L 23.551 170.639 L 24.295 172.028 L 26.428 175.648 L 27.103 176.719 L 28.802 179.268 L 30.654 181.916 L 31.390 182.887 L 34.206 186.491 M 37.395 190.127 L 37.757 190.537 L 40.939 193.746 L 41.308 194.125 L 44.860 197.254 L 45.017 197.366 L 48.411 199.906 L 50.330 200.986 L 51.963 201.975 L 55.514 203.383 L 59.065 204.021 L 62.617 203.835 L 66.168 202.751 L 69.187 200.986 M 346.729 271.673 L 343.185 273.380 L 339.626 276.078 L 338.640 277.000 M 174.946 20.000 L 176.262 20.798 L 179.813 22.845 L 181.258 23.620 L 183.364 24.660 L 186.916 26.256 L 189.394 27.239 L 190.467 27.649 L 194.019 28.815 L 197.570 29.773 L 201.121 30.511 L 203.517 30.859 L 204.673 31.026 L 208.224 31.313 L 211.776 31.367 L 215.327 31.178 L 217.797 30.859 M 222.430 29.983 L 225.981 28.984 L 229.533 27.748 L 230.795 27.239 M 332.523 124.525 L 332.330 124.972 L 330.922 128.592 L 329.706 132.211 M 23.551 129.987 L 22.576 132.211 L 21.270 135.831 L 20.265 139.451 M 176.262 135.082 L 175.895 135.831 L 174.555 139.451 L 173.664 143.070 L 173.222 146.690 L 173.228 150.310 L 173.680 153.930 L 174.572 157.549 L 175.902 161.169 L 176.262 161.913 L 177.726 164.789 L 179.813 168.090 L 180.030 168.408 L 182.935 172.028 L 183.364 172.497 L 186.563 175.648 L 186.916 175.962 L 190.467 178.733 L 191.277 179.268 L 194.019 180.960 L 197.570 182.738 L 197.958 182.887 L 201.121 184.058 L 204.673 184.953 L 208.224 185.411 L 211.776 185.417 L 215.327 184.964 L 218.879 184.089 L 221.913 182.887 M 328.972 134.866 L 328.712 135.831 L 327.965 139.451 L 327.470 143.070 L 327.237 146.690 L 327.265 150.310 L 327.540 153.930 L 328.049 157.549 L 328.786 161.169 L 328.972 161.870 L 329.767 164.789 L 330.989 168.408 L 332.431 172.028 L 332.523 172.234 L 334.138 175.648 L 336.023 179.268 L 336.075 179.362 L 338.181 182.887 L 339.626 185.214 L 340.535 186.507 L 343.150 190.127 L 343.178 190.164 L 346.339 193.746 L 346.729 194.183 L 350.280 197.214 L 350.540 197.366 L 353.832 199.302 L 357.383 200.424 L 360.935 200.668 L 364.486 200.113 L 368.037 198.769 L 370.644 197.366 M 91.959 139.451 L 92.467 143.070 L 92.733 146.690 L 92.745 150.310 L 92.500 153.930 L 92.003 157.549 L 91.261 161.169 M 245.285 139.451 L 246.237 143.070 L 246.709 146.690 L 246.712 150.310 L 246.263 153.930 L 245.373 157.549 L 244.042 161.169 M 20.000 156.140 L 20.274 157.549 L 21.321 161.169 L 22.688 164.789 L 23.551 166.683 L 24.361 168.408 L 26.300 172.028 L 27.103 173.390 L 28.508 175.648 L 30.654 178.860 L 30.949 179.268 L 33.693 182.887 L 34.206 183.543 L 36.764 186.507 L 37.757 187.639 L 40.222 190.127 L 41.308 191.222 L 44.231 193.746 L 44.860 194.300 L 48.411 196.838 L 49.410 197.366 L 51.963 198.786 L 55.514 200.043 L 59.065 200.546 L 62.617 200.251 L 66.168 199.100 L 69.131 197.366 M 385.794 183.569 L 382.243 187.685 L 378.692 191.270 L 375.140 194.335 L 375.816 193.746 M 178.775 20.000 L 179.813 20.603 L 183.364 22.526 L 185.601 23.620 L 186.916 24.215 L 190.467 25.642 L 194.019 26.857 L 195.378 27.239 L 197.570 27.836 L 201.121 28.584 L 204.673 29.103 L 208.224 29.392 L 211.776 29.441 L 215.327 29.235 L 218.879 28.760 L 222.430 28.040 L 225.134 27.239 M 339.626 115.165 L 338.096 117.732 L 336.084 121.352 L 334.401 124.972 L 332.906 128.592 M 179.813 132.108 L 179.747 132.211 L 177.878 135.831 L 176.478 139.451 M 332.523 129.664 L 331.664 132.211 L 330.658 135.831 L 329.893 139.451 L 329.388 143.070 L 329.153 146.690 L 329.182 150.310 L 329.463 153.930 L 329.983 157.549 L 330.741 161.169 L 331.744 164.789 L 332.523 167.068 L 333.007 168.408 L 334.536 172.028 L 336.075 175.239 L 336.287 175.648 L 338.335 179.268 L 339.626 181.408 L 340.628 182.887 L 343.178 186.486 M 23.551 134.929 L 23.225 135.831 L 22.216 139.451 L 21.527 143.070 L 21.175 146.690 L 21.172 150.310 L 21.521 153.930 L 22.224 157.549 L 23.270 161.169 L 23.551 161.915 L 24.670 164.789 L 26.366 168.408 L 27.103 169.785 L 28.368 172.028 L 30.623 175.648 L 30.654 175.695 L 33.240 179.268 L 34.206 180.540 L 36.177 182.887 L 37.757 184.717 L 39.509 186.507 L 41.308 188.323 L 43.405 190.127 L 44.860 191.383 L 48.251 193.746 L 48.411 193.861 L 51.963 195.719 L 55.514 196.870 L 59.065 197.272 L 62.617 196.889 L 66.168 195.670 L 69.398 193.746 M 89.252 135.831 L 90.013 139.451 L 90.532 143.070 L 90.805 146.690 L 90.819 150.310 L 90.570 153.930 L 90.058 157.549 L 89.291 161.169 L 88.274 164.789 M 397.585 139.451 L 398.214 143.070 L 398.552 146.690 L 398.585 150.310 L 398.297 153.930 L 397.673 157.549 L 396.711 161.169 M 176.262 140.283 L 175.566 143.070 L 175.114 146.690 L 175.116 150.310 L 175.571 153.930 L 176.262 156.696 L 176.484 157.549 L 177.887 161.169 L 179.755 164.789 L 179.813 164.881 L 182.220 168.408 L 183.364 169.831 L 185.322 172.028 L 186.916 173.599 L 189.288 175.648 L 190.467 176.570 L 194.019 178.922 L 194.660 179.268 L 197.570 180.738 L 201.121 182.108 L 204.085 182.887 L 204.673 183.036 L 208.224 183.499 L 211.776 183.507 L 215.327 183.056 L 215.958 182.887 M 385.794 180.617 L 382.243 184.850 L 378.692 188.436 L 375.140 191.453 M 346.333 190.127 L 346.729 190.574 L 350.280 193.663 L 350.418 193.746 L 353.832 195.802 L 357.383 196.999 L 360.935 197.341 L 364.486 196.901 L 368.037 195.739 L 371.589 193.896 L 371.802 193.746 M 182.770 20.000 L 183.364 20.324 L 186.916 22.084 L 190.457 23.620 M 194.019 24.857 L 197.570 25.865 L 201.121 26.640 L 204.673 27.179 L 205.406 27.239 L 208.224 27.468 L 211.776 27.510 L 215.327 27.294 L 215.712 27.239 M 336.075 125.948 L 334.975 128.592 L 333.678 132.211 L 332.614 135.831 M 27.103 131.145 L 26.614 132.211 L 25.245 135.831 L 24.191 139.451 M 394.694 135.831 L 395.634 139.451 L 396.280 143.070 L 396.449 144.841 M 179.813 135.982 L 178.455 139.451 L 177.507 143.070 L 177.031 146.690 L 177.029 150.310 L 177.505 153.930 L 178.458 157.549 L 179.813 160.988 L 179.890 161.169 L 181.907 164.789 L 183.364 166.910 L 184.503 168.408 L 186.916 171.113 L 187.845 172.028 L 190.467 174.300 L 192.305 175.648 L 194.019 176.788 L 197.570 178.708 L 198.925 179.268 L 201.121 180.120 L 204.673 181.059 L 208.224 181.540 L 211.776 181.549 L 215.327 181.075 L 218.879 180.118 L 220.993 179.268 M 332.523 136.237 L 331.839 139.451 L 331.329 143.070 L 331.089 146.690 L 331.117 150.310 L 331.400 153.930 L 331.927 157.549 L 332.523 160.349 L 332.706 161.169 L 333.769 164.789 L 335.090 168.408 L 336.075 170.710 L 336.685 172.028 L 338.573 175.648 L 339.626 177.494 L 340.758 179.268 L 343.178 182.812 L 343.238 182.887 L 346.280 186.507 L 346.729 187.023 L 350.189 190.127 L 350.280 190.207 L 353.832 192.419 L 357.383 193.701 L 357.742 193.746 L 360.935 194.146 L 364.486 193.795 L 364.644 193.746 M 23.551 142.675 L 23.476 143.070 L 23.125 146.690 L 23.123 150.310 L 23.473 153.930 L 23.551 154.334 L 24.197 157.549 L 25.276 161.169 L 26.680 164.789 L 27.103 165.692 L 28.440 168.408 L 30.479 172.028 L 30.654 172.310 L 32.906 175.648 L 34.206 177.442 L 35.674 179.268 L 37.757 181.748 L 38.845 182.887 L 41.308 185.404 L 42.579 186.507 L 44.860 188.468 L 47.262 190.127 L 48.411 190.925 L 51.963 192.720 L 55.334 193.746 L 55.514 193.803 L 59.065 194.128 L 61.988 193.746 M 88.571 143.070 L 88.845 146.690 L 88.859 150.310 L 88.608 153.930 L 88.092 157.549 M 242.323 143.070 L 242.828 146.690 L 242.837 150.310 L 242.367 153.930 L 241.427 157.549 M 396.363 153.930 L 395.716 157.549 L 394.714 161.169 L 393.371 164.789 M 79.296 179.268 L 76.835 182.887 L 73.271 187.061 L 69.720 190.174 L 69.775 190.127 M 187.105 20.000 L 190.467 21.482 L 194.019 22.810 L 196.670 23.620 L 197.570 23.877 L 201.121 24.662 L 204.673 25.203 L 208.224 25.493 L 211.776 25.525 L 215.327 25.283 L 218.879 24.755 L 222.430 23.941 L 223.488 23.620 M 194.019 122.389 L 190.499 124.972 L 186.916 128.476 L 186.812 128.592 L 184.061 132.211 M 30.654 128.355 L 30.521 128.592 L 28.750 132.211 L 27.289 135.831 M 336.075 131.270 L 335.736 132.211 L 334.660 135.831 L 333.841 139.451 L 333.300 143.070 L 333.045 146.690 L 333.071 150.310 L 333.366 153.930 L 333.920 157.549 L 334.739 161.169 L 335.827 164.789 L 336.075 165.461 L 337.250 168.408 L 338.942 172.028 L 339.626 173.331 L 340.985 175.648 L 343.178 179.057 L 343.336 179.268 L 346.239 182.887 L 346.729 183.468 L 349.969 186.507 L 350.280 186.788 L 353.832 189.096 L 356.464 190.127 L 357.383 190.478 L 360.935 191.007 L 364.486 190.746 L 366.650 190.127 M 85.213 135.831 L 86.024 139.451 L 86.573 143.070 L 86.859 146.690 L 86.874 150.310 L 86.610 153.930 L 86.065 157.549 L 85.243 161.169 L 84.150 164.789 M 27.103 136.430 L 26.221 139.451 L 25.501 143.070 L 25.137 146.690 L 25.136 150.310 L 25.498 153.930 L 26.221 157.549 L 27.103 160.526 L 27.304 161.169 L 28.780 164.789 L 30.554 168.408 L 30.654 168.586 L 32.751 172.028 L 34.206 174.184 L 35.304 175.648 L 37.757 178.701 L 38.277 179.268 L 41.308 182.441 L 41.812 182.887 L 44.860 185.528 L 46.270 186.507 L 48.411 187.978 L 51.963 189.748 L 53.267 190.127 L 55.514 190.785 L 59.065 191.049 L 62.617 190.505 L 63.597 190.127 M 179.813 141.778 L 179.471 143.070 L 178.986 146.690 L 178.982 150.310 L 179.464 153.930 L 179.813 155.241 L 180.471 157.549 L 182.016 161.169 L 183.364 163.565 L 184.126 164.789 L 186.887 168.408 M 394.289 143.070 L 394.632 146.690 L 394.662 150.310 L 394.362 153.930 L 393.713 157.549 M 190.467 171.939 L 190.573 172.028 L 194.019 174.568 L 195.829 175.648 L 197.570 176.594 L 201.121 178.067 L 204.673 179.065 L 206.078 179.268 L 208.224 179.560 L 211.776 179.586 L 214.036 179.268 M 192.199 20.000 L 194.019 20.688 L 197.570 21.785 L 201.121 22.626 L 204.673 23.202 L 208.224 23.506 L 211.776 23.526 L 215.327 23.251 L 218.879 22.670 L 222.430 21.788 L 225.981 20.624 L 227.554 20.000 M 339.626 128.027 L 339.367 128.592 L 337.933 132.211 L 336.755 135.831 M 30.654 132.857 L 29.451 135.831 L 28.323 139.451 L 27.557 143.070 L 27.170 146.690 L 27.169 150.310 L 27.552 153.930 L 28.314 157.549 L 29.441 161.169 L 30.654 164.166 L 30.926 164.789 L 32.840 168.408 L 34.206 170.654 L 35.137 172.028 L 37.757 175.523 L 37.864 175.648 L 41.186 179.268 L 41.308 179.396 L 44.860 182.537 L 45.357 182.887 L 48.411 184.993 L 51.455 186.507 L 51.963 186.757 L 55.514 187.752 L 59.065 187.959 L 62.617 187.338 L 64.623 186.507 M 183.364 137.543 L 182.559 139.451 L 181.529 143.070 L 181.008 146.690 L 181.002 150.310 L 181.522 153.930 L 182.571 157.549 L 183.364 159.390 L 184.211 161.169 L 186.475 164.789 L 186.916 165.366 L 189.553 168.408 L 190.467 169.309 L 193.719 172.028 L 194.019 172.249 L 197.570 174.381 L 200.361 175.648 L 201.121 175.964 L 204.673 176.970 L 208.224 177.485 L 211.776 177.499 L 215.327 177.000 L 218.879 176.009 L 219.663 175.648 M 336.075 138.571 L 335.873 139.451 L 335.320 143.070 L 335.055 146.690 L 335.076 150.310 L 335.371 153.930 L 335.935 157.549 L 336.075 158.160 L 336.819 161.169 L 338.008 164.789 L 339.477 168.408 L 339.626 168.726 L 341.360 172.028 L 343.178 175.100 L 343.554 175.648 L 346.274 179.268 L 346.729 179.833 L 349.796 182.887 L 350.280 183.343 L 353.832 185.781 L 355.530 186.507 L 357.383 187.267 L 360.935 187.878 L 364.486 187.686 L 368.037 186.743 L 368.520 186.507 M 391.581 139.451 L 392.263 143.070 L 392.622 146.690 L 392.651 150.310 L 392.328 153.930 L 391.635 157.549 L 390.566 161.169 M 84.526 143.070 L 84.813 146.690 L 84.828 150.310 L 84.562 153.930 L 84.011 157.549 M 238.273 143.070 L 238.818 146.690 L 238.828 150.310 L 238.320 153.930 L 237.299 157.549 M 198.916 20.000 L 201.121 20.527 L 204.673 21.105 L 208.224 21.402 L 211.776 21.409 L 215.327 21.115 L 218.879 20.516 L 220.920 20.000 M 41.308 120.872 L 40.877 121.352 L 37.809 124.972 L 35.343 128.592 M 186.916 135.057 L 186.440 135.831 L 184.757 139.451 L 183.627 143.070 M 339.626 133.810 L 338.960 135.831 L 338.044 139.451 L 337.432 143.070 L 337.135 146.690 L 337.149 150.310 L 337.464 153.930 L 338.075 157.549 L 338.989 161.169 L 339.626 163.077 L 340.265 164.789 L 341.916 168.408 L 343.178 170.784 L 343.944 172.028 L 346.443 175.648 L 346.729 176.027 L 349.743 179.268 L 350.280 179.803 L 353.832 182.416 L 354.833 182.887 L 357.383 184.016 L 360.935 184.714 L 364.486 184.583 L 368.037 183.700 L 369.693 182.887 M 30.654 138.899 L 30.482 139.451 L 29.716 143.070 L 29.330 146.690 L 29.329 150.310 L 29.709 153.930 L 30.463 157.549 L 30.654 158.167 L 31.660 161.169 L 33.235 164.789 L 34.206 166.632 L 35.248 168.408 L 37.694 172.028 L 37.757 172.112 L 40.801 175.648 L 41.308 176.201 L 44.652 179.268 L 44.860 179.451 L 48.411 181.937 L 50.310 182.887 L 51.963 183.696 L 55.514 184.666 L 59.065 184.820 L 62.617 184.113 L 65.341 182.887 M 81.777 139.451 L 82.377 143.070 L 82.687 146.690 L 82.702 150.310 L 82.416 153.930 L 81.821 157.549 L 80.920 161.169 M 390.152 143.070 L 390.509 146.690 L 390.533 150.310 L 390.205 153.930 L 389.508 157.549 M 183.364 144.723 L 183.077 146.690 L 183.072 150.310 L 183.364 152.311 L 183.623 153.930 L 184.787 157.549 L 186.529 161.169 L 186.916 161.786 L 189.053 164.789 L 190.467 166.418 L 192.499 168.408 L 194.019 169.683 L 197.472 172.028 L 197.570 172.087 L 201.121 173.716 L 204.673 174.813 L 208.224 175.375 L 211.776 175.394 L 215.327 174.860 L 218.879 173.765 L 222.430 172.122 L 222.568 172.028 M 382.243 172.178 L 378.692 176.344 L 375.140 179.548 L 375.440 179.268 M 343.178 131.140 L 342.694 132.211 L 341.338 135.831 L 340.297 139.451 M 34.206 135.477 L 34.049 135.831 L 32.819 139.451 L 31.985 143.070 L 31.566 146.690 L 31.565 150.310 L 31.977 153.930 L 32.790 157.549 L 33.988 161.169 L 34.206 161.672 L 35.710 164.789 L 37.757 168.297 L 37.832 168.408 L 40.653 172.028 L 41.308 172.791 L 44.247 175.648 L 44.860 176.209 L 48.411 178.773 L 49.383 179.268 L 51.963 180.534 L 55.514 181.488 L 59.065 181.588 L 62.617 180.781 L 65.692 179.268 M 78.492 135.831 L 79.496 139.451 L 80.167 143.070 L 80.374 145.242 M 387.177 139.451 L 387.923 143.070 L 388.310 146.690 L 388.331 150.310 L 387.967 153.930 L 387.200 157.549 L 386.028 161.169 M 186.916 139.786 L 185.878 143.070 L 185.297 146.690 L 185.295 150.310 L 185.886 153.930 L 186.916 157.070 L 187.094 157.549 L 189.076 161.169 L 190.467 163.114 L 191.871 164.789 L 194.019 166.895 L 195.918 168.408 L 197.570 169.538 L 201.121 171.377 L 202.990 172.028 L 204.673 172.554 L 208.224 173.126 L 211.776 173.152 L 215.327 172.620 L 217.243 172.028 M 339.626 142.913 L 339.599 143.070 L 339.286 146.690 L 339.291 150.310 L 339.605 153.930 L 339.626 154.055 L 340.290 157.549 L 341.320 161.169 L 342.689 164.789 L 343.178 165.850 L 344.545 168.408 L 346.729 171.926 L 346.806 172.028 L 349.876 175.648 L 350.280 176.082 L 353.832 178.931 L 354.476 179.268 L 357.383 180.671 L 360.935 181.466 L 364.486 181.390 L 368.037 180.490 L 370.619 179.268 M 80.211 153.930 L 79.553 157.549 L 78.553 161.169 L 77.224 164.789 M 37.757 133.613 L 36.663 135.831 L 35.289 139.451 L 34.357 143.070 M 190.467 137.736 L 189.559 139.451 L 188.267 143.070 L 187.613 146.690 L 187.615 150.310 L 188.293 153.930 L 189.652 157.549 L 190.467 159.025 L 191.853 161.169 L 194.019 163.746 L 195.092 164.789 L 197.570 166.773 L 200.267 168.408 L 201.121 168.855 L 204.673 170.112 L 208.224 170.760 L 211.776 170.798 L 215.327 170.213 L 218.879 168.992 L 219.997 168.408 M 343.178 137.902 L 342.724 139.451 L 342.000 143.070 L 341.634 146.690 L 341.628 150.310 L 341.973 153.930 L 342.668 157.549 L 343.178 159.312 L 343.800 161.169 L 345.399 164.789 L 346.729 167.255 L 347.487 168.408 L 350.240 172.028 L 350.280 172.075 L 353.832 175.232 L 354.541 175.648 L 357.383 177.161 L 360.935 178.073 L 364.486 178.054 L 368.037 177.157 L 371.152 175.648 M 77.757 143.070 L 78.107 146.690 L 78.126 150.310 L 77.807 153.930 L 77.143 157.549 M 231.576 143.070 L 232.247 146.690 L 232.255 150.310 L 231.615 153.930 L 230.331 157.549 M 34.206 144.244 L 33.924 146.690 L 33.924 150.310 L 34.206 152.808 L 34.348 153.930 L 35.252 157.549 L 36.580 161.169 L 37.757 163.630 L 38.399 164.789 L 40.834 168.408 L 41.308 169.019 L 44.127 172.028 L 44.860 172.740 L 48.411 175.442 L 48.800 175.648 L 51.963 177.226 L 55.514 178.171 L 59.065 178.211 L 62.617 177.286 L 65.634 175.648 M 345.448 139.451 L 344.588 143.070 L 344.146 146.690 L 344.126 150.310 L 344.522 153.930 L 345.333 157.549 L 346.558 161.169 L 346.729 161.552 L 348.481 164.789 L 350.280 167.514 L 351.051 168.408 L 353.832 171.188 L 355.084 172.028 L 357.383 173.396 L 360.935 174.454 L 364.486 174.498 L 368.037 173.590 L 371.115 172.028 M 37.757 140.120 L 37.003 143.070 L 36.542 146.690 L 36.546 150.310 L 37.002 153.930 L 37.757 156.994 L 37.916 157.549 L 39.446 161.169 L 41.308 164.559 L 41.462 164.789 L 44.405 168.408 L 44.860 168.894 L 48.411 171.837 L 48.747 172.028 L 51.963 173.696 L 55.514 174.646 L 59.065 174.617 L 62.617 173.545 L 65.117 172.028 M 75.145 143.070 L 75.553 146.690 L 75.578 150.310 L 75.214 153.930 L 74.455 157.549 L 73.299 161.169 L 69.720 168.148 M 190.467 144.745 L 190.112 146.690 L 190.121 150.310 L 190.467 152.112 L 190.873 153.930 L 192.474 157.549 L 194.019 159.921 L 195.010 161.169 L 197.570 163.659 L 199.092 164.789 L 201.121 166.033 L 204.673 167.504 L 208.224 168.265 L 211.776 168.319 L 215.327 167.650 L 218.879 166.236 L 221.255 164.789 M 350.280 135.444 L 350.072 135.831 L 348.539 139.451 L 347.481 143.070 L 346.926 146.690 L 346.888 150.310 L 347.365 153.930 L 348.356 157.549 L 349.855 161.169 L 350.280 161.950 L 352.290 164.789 L 353.832 166.573 L 356.163 168.408 L 357.383 169.234 L 360.935 170.481 L 364.486 170.601 L 368.037 169.660 L 370.322 168.408 M 41.308 138.794 L 41.022 139.451 L 39.962 143.070 L 39.436 146.690 L 39.446 150.310 L 39.977 153.930 L 41.006 157.549 L 41.308 158.273 L 42.786 161.169 L 44.860 164.287 L 45.297 164.789 L 48.411 167.738 L 49.459 168.408 L 51.963 169.809 L 55.514 170.790 L 59.065 170.682 L 62.617 169.411 L 64.062 168.408 M 71.282 139.451 L 72.249 143.070 L 72.745 146.690 L 72.780 150.310 L 72.347 153.930 L 71.438 157.549 L 70.046 161.169 M 194.019 142.338 L 193.709 143.070 L 192.937 146.690 L 192.954 150.310 L 193.783 153.930 L 194.019 154.455 L 195.704 157.549 L 197.570 159.891 L 198.898 161.169 L 201.121 162.829 L 204.673 164.629 L 205.275 164.789 L 208.224 165.439 L 211.776 165.501 L 215.327 164.834 L 215.420 164.789 M 380.103 143.070 L 380.609 146.690 L 380.612 150.310 L 380.099 153.930 L 379.061 157.549 M 44.860 139.165 L 44.710 139.451 L 43.437 143.070 L 42.810 146.690 L 42.832 150.310 L 43.481 153.930 L 44.729 157.549 L 44.860 157.808 L 47.099 161.169 L 48.411 162.678 L 51.159 164.789 L 51.963 165.298 L 55.514 166.360 L 59.065 166.154 L 62.179 164.789 M 68.827 143.070 L 69.471 146.690 L 69.520 150.310 L 68.967 153.930 L 67.795 157.549 M 197.570 142.243 L 197.139 143.070 L 196.187 146.690 L 196.213 150.310 L 197.236 153.930 L 197.570 154.538 L 199.720 157.549 L 201.121 158.900 L 204.567 161.169 L 204.673 161.223 L 208.224 162.181 L 211.776 162.256 L 215.327 161.424 L 215.845 161.169 M 376.679 143.070 L 377.303 146.690 L 377.297 150.310 L 376.646 153.930 L 375.354 157.549 M 350.280 146.393 L 350.234 146.690 L 350.188 150.310 L 350.280 151.007 L 350.778 153.930 L 352.071 157.549 L 353.832 160.806 L 354.116 161.169 L 357.383 164.331 L 358.266 164.789 L 360.935 165.919 L 364.486 166.135 L 368.037 165.129 L 368.591 164.789" fill="none" stroke="#EC008C" stroke-width="1" vector-effect="non-scaling-stroke"/></svg>