<svg xmlns="http://www.w3.org/2000/svg" viewBox="27.49446822552659 1.6198643386208857 365.01147803890376 292.76003570922717" width="365.01147803890376" height="292.76003570922717" shape-rendering="geometricPrecision"><rect x="27.49446822552659" y="1.6198643386208857" width="365.01147803890376" height="292.76003570922717" fill="#0b0f14"/><path d="M 371.680 200.533 L 370.162 205.196 L 369.335 207.723 L 368.652 209.794 L 368.047 211.615 L 367.491 213.269 L 366.971 214.801 L 366.478 216.238 L 366.006 217.598 L 365.551 218.893 L 365.110 220.133 L 364.680 221.326 L 364.260 222.476 L 363.848 223.589 L 363.443 224.669 L 363.044 225.718 L 362.650 226.738 L 362.260 227.733 L 361.875 228.704 L 361.492 229.653 L 361.112 230.581 L 360.734 231.490 L 360.358 232.380 L 359.984 233.253 L 359.611 234.110 L 359.239 234.951 L 358.868 235.777 L 358.498 236.590 L 358.128 237.388 L 357.758 238.174 L 357.388 238.947 L 357.018 239.708 L 356.647 240.458 L 356.276 241.196 L 355.905 241.924 L 355.533 242.641 L 355.160 243.349 L 354.787 244.046 L 354.412 244.734 L 354.037 245.412 L 353.660 246.082 L 353.283 246.743 L 352.903 247.395 L 352.523 248.039 L 352.141 248.675 L 351.758 249.302 L 351.373 249.922 L 350.987 250.534 L 350.599 251.139 L 350.210 251.736 L 349.818 252.327 L 349.425 252.910 L 349.031 253.486 L 348.634 254.055 L 348.236 254.618 L 347.835 255.173 L 347.433 255.723 L 347.029 256.266 L 346.622 256.802 L 346.214 257.333 L 345.804 257.857 L 345.391 258.375 L 344.977 258.887 L 344.560 259.394 L 344.141 259.894 L 343.720 260.389 L 343.297 260.878 L 342.871 261.361 L 342.443 261.839 L 342.013 262.311 L 341.581 262.777 L 341.146 263.239 L 340.709 263.694 L 340.270 264.145 L 339.828 264.590 L 339.384 265.030 L 338.937 265.465 L 338.488 265.895 L 338.037 266.320 L 337.583 266.739 L 337.126 267.154 L 336.667 267.563 L 336.206 267.968 L 335.742 268.367 L 335.275 268.762 L 334.806 269.152 L 334.335 269.537 L 333.861 269.918 L 333.384 270.293 L 332.905 270.664 L 332.423 271.030 L 331.938 271.392 L 331.451 271.749 L 330.961 272.101 L 330.469 272.448 L 329.973 272.791 L 329.476 273.130 L 328.975 273.464 L 328.472 273.793 L 327.966 274.118 L 327.457 274.438 L 326.945 274.754 L 326.431 275.066 L 325.914 275.373 L 325.395 275.675 L 324.872 275.973 L 324.347 276.267 L 323.818 276.557 L 323.288 276.842 L 322.754 277.122 L 322.217 277.399 L 321.678 277.671 L 321.135 277.939 L 320.590 278.202 L 320.042 278.461 L 319.491 278.716 L 318.937 278.967 L 318.380 279.213 L 317.820 279.455 L 317.258 279.693 L 316.692 279.927 L 316.123 280.156 L 315.552 280.382 L 314.977 280.603 L 314.400 280.820 L 313.819 281.032 L 313.235 281.241 L 312.649 281.445 L 312.059 281.645 L 311.466 281.841 L 310.870 282.033 L 310.271 282.221 L 309.669 282.404 L 309.064 282.583 L 308.456 282.759 L 307.844 282.930 L 307.230 283.097 L 306.612 283.259 L 305.991 283.418 L 305.367 283.573 L 304.739 283.723 L 304.109 283.869 L 303.475 284.011 L 302.837 284.150 L 302.197 284.283 L 301.553 284.413 L 300.906 284.539 L 300.256 284.660 L 299.602 284.778 L 298.944 284.891 L 298.284 285.000 L 297.620 285.105 L 296.952 285.206 L 296.281 285.303 L 295.607 285.396 L 294.929 285.484 L 294.247 285.569 L 293.562 285.649 L 292.873 285.725 L 292.181 285.797 L 291.485 285.865 L 290.786 285.928 L 290.082 285.988 L 289.375 286.043 L 288.665 286.094 L 287.950 286.141 L 287.232 286.184 L 286.510 286.223 L 285.784 286.257 L 285.054 286.287 L 284.320 286.313 L 283.582 286.335 L 282.840 286.352 L 282.094 286.366 L 281.344 286.375 L 280.590 286.379 L 279.831 286.380 L 279.069 286.376 L 278.302 286.368 L 277.531 286.356 L 276.755 286.339 L 275.975 286.318 L 275.191 286.292 L 274.402 286.262 L 273.609 286.228 L 272.811 286.190 L 272.008 286.147 L 271.201 286.099 L 270.388 286.047 L 269.571 285.991 L 268.749 285.930 L 267.922 285.865 L 267.090 285.795 L 266.253 285.720 L 265.410 285.641 L 264.562 285.558 L 263.709 285.470 L 262.850 285.377 L 261.986 285.279 L 261.116 285.177 L 260.240 285.070 L 259.359 284.958 L 258.471 284.841 L 257.578 284.720 L 256.678 284.593 L 255.772 284.462 L 254.859 284.326 L 253.940 284.184 L 253.014 284.038 L 252.081 283.887 L 251.141 283.730 L 250.194 283.568 L 249.240 283.401 L 248.277 283.229 L 247.308 283.051 L 246.330 282.868 L 245.344 282.680 L 244.350 282.485 L 243.347 282.285 L 242.336 282.080 L 241.315 281.868 L 240.285 281.651 L 239.245 281.428 L 238.195 281.198 L 237.135 280.963 L 236.064 280.721 L 234.982 280.473 L 233.889 280.218 L 232.784 279.956 L 231.666 279.687 L 230.536 279.412 L 229.392 279.129 L 228.234 278.839 L 227.062 278.541 L 225.874 278.236 L 224.670 277.922 L 223.450 277.600 L 222.211 277.270 L 220.955 276.931 L 219.678 276.582 L 218.380 276.224 L 217.060 275.855 L 215.717 275.476 L 214.348 275.086 L 212.951 274.685 L 211.526 274.271 L 210.068 273.843 L 208.576 273.402 L 207.046 272.945 L 205.475 272.472 L 203.857 271.982 L 202.187 271.471 L 200.459 270.939 L 198.663 270.382 L 196.791 269.797 L 194.826 269.179 L 192.750 268.523 L 190.535 267.818 L 188.140 267.052 L 185.493 266.202 L 182.457 265.222 L 178.662 263.992 L 170.497 261.340 L 165.512 259.718 L 162.104 258.606 L 159.253 257.672 L 156.724 256.840 L 154.416 256.077 L 152.270 255.363 L 150.253 254.689 L 148.340 254.045 L 146.514 253.427 L 144.763 252.831 L 143.077 252.253 L 141.448 251.690 L 139.871 251.142 L 138.339 250.605 L 136.850 250.079 L 135.398 249.563 L 133.981 249.055 L 132.597 248.556 L 131.243 248.063 L 129.918 247.576 L 128.618 247.095 L 127.344 246.619 L 126.093 246.148 L 124.863 245.681 L 123.655 245.219 L 122.467 244.760 L 121.298 244.304 L 120.147 243.851 L 119.014 243.402 L 117.897 242.954 L 116.796 242.509 L 115.711 242.067 L 114.640 241.626 L 113.584 241.187 L 112.541 240.750 L 111.512 240.314 L 110.496 239.879 L 109.493 239.446 L 108.501 239.014 L 107.522 238.583 L 106.554 238.153 L 105.597 237.723 L 104.652 237.295 L 103.717 236.867 L 102.792 236.439 L 101.878 236.012 L 100.973 235.585 L 100.078 235.159 L 99.193 234.733 L 98.317 234.307 L 97.451 233.881 L 96.593 233.455 L 95.744 233.029 L 94.904 232.603 L 94.072 232.177 L 93.249 231.751 L 92.433 231.325 L 91.626 230.899 L 90.827 230.472 L 90.036 230.045 L 89.253 229.617 L 88.477 229.189 L 87.708 228.761 L 86.947 228.332 L 86.194 227.903 L 85.447 227.473 L 84.708 227.043 L 83.976 226.612 L 83.250 226.181 L 82.532 225.748 L 81.821 225.316 L 81.116 224.882 L 80.418 224.448 L 79.726 224.013 L 79.041 223.577 L 78.362 223.140 L 77.690 222.703 L 77.025 222.265 L 76.365 221.826 L 75.712 221.386 L 75.065 220.945 L 74.424 220.503 L 73.789 220.061 L 73.160 219.617 L 72.538 219.173 L 71.921 218.727 L 71.310 218.280 L 70.705 217.833 L 70.106 217.384 L 69.512 216.935 L 68.925 216.484 L 68.343 216.032 L 67.767 215.580 L 67.196 215.126 L 66.631 214.671 L 66.072 214.214 L 65.518 213.757 L 64.970 213.299 L 64.427 212.839 L 63.890 212.378 L 63.358 211.916 L 62.832 211.453 L 62.311 210.989 L 61.795 210.523 L 61.285 210.056 L 60.780 209.588 L 60.280 209.119 L 59.786 208.648 L 59.297 208.176 L 58.813 207.703 L 58.334 207.228 L 57.861 206.753 L 57.393 206.275 L 56.930 205.797 L 56.472 205.317 L 56.019 204.836 L 55.571 204.353 L 55.129 203.869 L 54.691 203.384 L 54.259 202.897 L 53.832 202.409 L 53.410 201.919 L 52.992 201.428 L 52.580 200.936 L 52.173 200.442 L 51.771 199.946 L 51.374 199.449 L 50.982 198.951 L 50.595 198.451 L 50.212 197.950 L 49.835 197.447 L 49.463 196.942 L 49.096 196.436 L 48.733 195.929 L 48.376 195.419 L 48.023 194.909 L 47.675 194.396 L 47.333 193.882 L 46.995 193.367 L 46.662 192.849 L 46.334 192.331 L 46.011 191.810 L 45.692 191.288 L 45.379 190.764 L 45.070 190.238 L 44.767 189.711 L 44.468 189.182 L 44.174 188.651 L 43.885 188.119 L 43.600 187.584 L 43.321 187.048 L 43.046 186.510 L 42.776 185.970 L 42.512 185.429 L 42.252 184.885 L 41.996 184.340 L 41.746 183.793 L 41.500 183.244 L 41.260 182.692 L 41.024 182.139 L 40.793 181.584 L 40.567 181.027 L 40.345 180.468 L 40.129 179.907 L 39.917 179.344 L 39.710 178.779 L 39.509 178.212 L 39.311 177.642 L 39.119 177.071 L 38.932 176.497 L 38.749 175.921 L 38.572 175.343 L 38.399 174.763 L 38.231 174.180 L 38.068 173.595 L 37.910 173.008 L 37.757 172.418 L 37.609 171.826 L 37.465 171.231 L 37.327 170.634 L 37.194 170.035 L 37.065 169.433 L 36.941 168.828 L 36.823 168.221 L 36.709 167.611 L 36.600 166.998 L 36.497 166.382 L 36.398 165.764 L 36.304 165.143 L 36.216 164.519 L 36.132 163.892 L 36.054 163.262 L 35.980 162.630 L 35.912 161.994 L 35.848 161.354 L 35.790 160.712 L 35.737 160.066 L 35.689 159.417 L 35.647 158.765 L 35.609 158.109 L 35.577 157.449 L 35.550 156.786 L 35.528 156.120 L 35.512 155.449 L 35.501 154.774 L 35.495 154.096 L 35.494 153.413 L 35.499 152.727 L 35.510 152.035 L 35.526 151.340 L 35.547 150.640 L 35.574 149.936 L 35.607 149.226 L 35.645 148.512 L 35.689 147.793 L 35.739 147.068 L 35.794 146.338 L 35.856 145.603 L 35.923 144.862 L 35.996 144.115 L 36.075 143.362 L 36.160 142.603 L 36.251 141.837 L 36.349 141.065 L 36.453 140.286 L 36.563 139.499 L 36.680 138.705 L 36.803 137.903 L 36.933 137.092 L 37.070 136.273 L 37.214 135.446 L 37.365 134.608 L 37.523 133.761 L 37.689 132.904 L 37.862 132.036 L 38.042 131.157 L 38.231 130.265 L 38.428 129.361 L 38.633 128.443 L 38.847 127.511 L 39.070 126.563 L 39.302 125.600 L 39.544 124.618 L 39.797 123.618 L 40.060 122.597 L 40.334 121.554 L 40.620 120.486 L 40.919 119.392 L 41.231 118.269 L 41.558 117.113 L 41.901 115.920 L 42.261 114.685 L 42.642 113.402 L 43.044 112.063 L 43.472 110.657 L 43.931 109.170 L 44.427 107.581 L 44.970 105.857 L 45.580 103.942 L 46.293 101.722 L 47.221 98.852 L 49.177 92.832 L 50.195 89.710 L 50.951 87.408 L 51.598 85.451 L 52.181 83.704 L 52.721 82.103 L 53.229 80.612 L 53.713 79.208 L 54.178 77.876 L 54.627 76.603 L 55.064 75.383 L 55.489 74.208 L 55.906 73.073 L 56.315 71.974 L 56.718 70.907 L 57.115 69.870 L 57.507 68.860 L 57.895 67.874 L 58.279 66.912 L 58.661 65.972 L 59.040 65.052 L 59.417 64.151 L 59.792 63.267 L 60.166 62.401 L 60.538 61.551 L 60.910 60.716 L 61.280 59.895 L 61.651 59.088 L 62.021 58.295 L 62.391 57.514 L 62.761 56.746 L 63.131 55.990 L 63.502 55.244 L 63.872 54.510 L 64.244 53.787 L 64.616 53.074 L 64.989 52.370 L 65.363 51.677 L 65.738 50.993 L 66.114 50.318 L 66.491 49.652 L 66.869 48.995 L 67.249 48.346 L 67.630 47.705 L 68.012 47.073 L 68.396 46.448 L 68.781 45.831 L 69.168 45.222 L 69.557 44.620 L 69.947 44.026 L 70.339 43.439 L 70.733 42.858 L 71.128 42.285 L 71.526 41.718 L 71.925 41.159 L 72.326 40.605 L 72.729 40.059 L 73.134 39.518 L 73.541 38.984 L 73.950 38.456 L 74.362 37.934 L 74.775 37.419 L 75.190 36.909 L 75.608 36.405 L 76.028 35.907 L 76.450 35.414 L 76.874 34.928 L 77.300 34.447 L 77.729 33.971 L 78.160 33.501 L 78.593 33.037 L 79.029 32.578 L 79.467 32.124 L 79.907 31.676 L 80.350 31.233 L 80.795 30.795 L 81.243 30.362 L 81.693 29.934 L 82.145 29.512 L 82.600 29.094 L 83.058 28.681 L 83.518 28.274 L 83.980 27.871 L 84.445 27.474 L 84.912 27.081 L 85.382 26.693 L 85.855 26.309 L 86.330 25.931 L 86.808 25.557 L 87.288 25.188 L 87.771 24.824 L 88.257 24.464 L 88.745 24.110 L 89.236 23.759 L 89.730 23.413 L 90.226 23.072 L 90.725 22.736 L 91.227 22.404 L 91.731 22.076 L 92.238 21.753 L 92.748 21.435 L 93.261 21.120 L 93.776 20.811 L 94.294 20.506 L 94.815 20.205 L 95.338 19.908 L 95.865 19.616 L 96.394 19.329 L 96.926 19.045 L 97.461 18.766 L 97.999 18.492 L 98.540 18.221 L 99.083 17.955 L 99.630 17.693 L 100.179 17.436 L 100.731 17.183 L 101.286 16.934 L 101.844 16.689 L 102.405 16.449 L 102.969 16.213 L 103.536 15.981 L 104.106 15.753 L 104.678 15.529 L 105.254 15.310 L 105.833 15.095 L 106.415 14.884 L 107.000 14.677 L 107.588 14.474 L 108.178 14.276 L 108.773 14.081 L 109.370 13.891 L 109.970 13.705 L 110.573 13.524 L 111.180 13.346 L 111.789 13.172 L 112.402 13.003 L 113.018 12.838 L 113.637 12.676 L 114.259 12.519 L 114.885 12.367 L 115.513 12.218 L 116.145 12.073 L 116.781 11.933 L 117.419 11.796 L 118.061 11.664 L 118.706 11.536 L 119.355 11.412 L 120.006 11.292 L 120.662 11.176 L 121.320 11.065 L 121.982 10.957 L 122.648 10.854 L 123.317 10.754 L 123.989 10.659 L 124.665 10.568 L 125.344 10.481 L 126.027 10.399 L 126.714 10.320 L 127.404 10.246 L 128.098 10.175 L 128.795 10.109 L 129.496 10.047 L 130.201 9.989 L 130.909 9.936 L 131.622 9.886 L 132.338 9.841 L 133.058 9.800 L 133.781 9.763 L 134.509 9.730 L 135.240 9.702 L 135.976 9.678 L 136.715 9.658 L 137.459 9.642 L 138.207 9.630 L 138.958 9.623 L 139.714 9.620 L 140.474 9.621 L 141.238 9.627 L 142.007 9.637 L 142.780 9.651 L 143.557 9.669 L 144.339 9.692 L 145.125 9.719 L 145.916 9.751 L 146.711 9.787 L 147.511 9.827 L 148.315 9.872 L 149.125 9.921 L 149.939 9.975 L 150.758 10.033 L 151.582 10.096 L 152.411 10.163 L 153.245 10.234 L 154.085 10.311 L 154.929 10.392 L 155.779 10.477 L 156.635 10.567 L 157.496 10.662 L 158.362 10.761 L 159.234 10.866 L 160.113 10.975 L 160.996 11.088 L 161.886 11.207 L 162.783 11.330 L 163.685 11.459 L 164.594 11.592 L 165.509 11.730 L 166.431 11.874 L 167.360 12.022 L 168.295 12.175 L 169.238 12.334 L 170.188 12.498 L 171.146 12.667 L 172.111 12.842 L 173.084 13.022 L 174.065 13.207 L 175.054 13.398 L 176.051 13.594 L 177.058 13.796 L 178.073 14.004 L 179.097 14.218 L 180.131 14.438 L 181.175 14.663 L 182.229 14.895 L 183.294 15.133 L 184.369 15.378 L 185.455 15.629 L 186.553 15.887 L 187.663 16.151 L 188.786 16.422 L 189.922 16.701 L 191.071 16.986 L 192.235 17.279 L 193.413 17.580 L 194.607 17.889 L 195.817 18.206 L 197.045 18.531 L 198.291 18.865 L 199.555 19.208 L 200.840 19.561 L 202.147 19.923 L 203.476 20.295 L 204.829 20.679 L 206.209 21.073 L 207.617 21.480 L 209.055 21.899 L 210.526 22.332 L 212.033 22.779 L 213.579 23.242 L 215.169 23.722 L 216.807 24.221 L 218.499 24.740 L 220.253 25.281 L 222.078 25.849 L 223.986 26.446 L 225.992 27.079 L 228.120 27.753 L 230.401 28.481 L 232.886 29.277 L 235.666 30.172 L 238.935 31.229 L 243.366 32.666 L 251.892 35.437 L 255.950 36.758 L 259.089 37.784 L 261.793 38.672 L 264.225 39.473 L 266.462 40.215 L 268.553 40.911 L 270.526 41.573 L 272.402 42.205 L 274.197 42.814 L 275.921 43.403 L 277.583 43.975 L 279.190 44.531 L 280.749 45.075 L 282.263 45.607 L 283.737 46.129 L 285.175 46.641 L 286.578 47.146 L 287.949 47.643 L 289.292 48.133 L 290.607 48.618 L 291.896 49.097 L 293.161 49.570 L 294.403 50.040 L 295.624 50.505 L 296.824 50.966 L 298.004 51.424 L 299.166 51.878 L 300.310 52.329 L 301.436 52.778 L 302.547 53.225 L 303.641 53.669 L 304.721 54.110 L 305.785 54.551 L 306.836 54.989 L 307.873 55.425 L 308.897 55.861 L 309.908 56.295 L 310.906 56.727 L 311.893 57.159 L 312.868 57.590 L 313.831 58.020 L 314.783 58.449 L 315.725 58.877 L 316.656 59.305 L 317.576 59.732 L 318.486 60.159 L 319.387 60.586 L 320.278 61.012 L 321.159 61.438 L 322.031 61.864 L 322.895 62.290 L 323.749 62.716 L 324.594 63.142 L 325.431 63.567 L 326.259 63.993 L 327.079 64.420 L 327.891 64.846 L 328.695 65.273 L 329.491 65.700 L 330.279 66.127 L 331.060 66.554 L 331.833 66.982 L 332.598 67.411 L 333.356 67.840 L 334.107 68.269 L 334.850 68.699 L 335.587 69.130 L 336.316 69.561 L 337.039 69.993 L 337.754 70.425 L 338.463 70.858 L 339.165 71.292 L 339.861 71.727 L 340.550 72.162 L 341.232 72.598 L 341.908 73.035 L 342.578 73.473 L 343.241 73.911 L 343.898 74.351 L 344.548 74.791 L 345.193 75.232 L 345.831 75.674 L 346.464 76.117 L 347.090 76.561 L 347.711 77.006 L 348.325 77.452 L 348.933 77.899 L 349.536 78.347 L 350.133 78.796 L 350.724 79.246 L 351.309 79.697 L 351.889 80.149 L 352.463 80.602 L 353.031 81.057 L 353.594 81.512 L 354.151 81.969 L 354.703 82.427 L 355.249 82.886 L 355.789 83.346 L 356.324 83.807 L 356.854 84.269 L 357.378 84.733 L 357.897 85.198 L 358.410 85.664 L 358.919 86.131 L 359.421 86.600 L 359.919 87.070 L 360.411 87.541 L 360.898 88.014 L 361.380 88.487 L 361.856 88.962 L 362.328 89.439 L 362.794 89.916 L 363.255 90.395 L 363.711 90.876 L 364.161 91.358 L 364.607 91.841 L 365.047 92.325 L 365.483 92.811 L 365.913 93.299 L 366.338 93.787 L 366.758 94.278 L 367.174 94.769 L 367.584 95.262 L 367.989 95.757 L 368.389 96.253 L 368.784 96.750 L 369.174 97.249 L 369.559 97.750 L 369.940 98.252 L 370.315 98.756 L 370.685 99.261 L 371.050 99.767 L 371.411 100.276 L 371.766 100.785 L 372.117 101.297 L 372.463 101.810 L 372.803 102.324 L 373.139 102.841 L 373.470 103.359 L 373.796 103.878 L 374.118 104.399 L 374.434 104.922 L 374.746 105.447 L 375.052 105.973 L 375.354 106.501 L 375.651 107.031 L 375.943 107.562 L 376.230 108.096 L 376.512 108.631 L 376.790 109.168 L 377.063 109.706 L 377.330 110.247 L 377.593 110.789 L 377.851 111.333 L 378.105 111.879 L 378.353 112.427 L 378.597 112.977 L 378.836 113.529 L 379.069 114.083 L 379.299 114.639 L 379.523 115.197 L 379.742 115.756 L 379.957 116.318 L 380.166 116.882 L 380.371 117.448 L 380.571 118.016 L 380.766 118.587 L 380.957 119.159 L 381.142 119.734 L 381.322 120.310 L 381.498 120.890 L 381.669 121.471 L 381.835 122.054 L 381.996 122.640 L 382.152 123.229 L 382.303 123.819 L 382.449 124.412 L 382.591 125.008 L 382.727 125.606 L 382.859 126.207 L 382.985 126.810 L 383.107 127.416 L 383.223 128.024 L 383.335 128.635 L 383.442 129.249 L 383.543 129.865 L 383.640 130.485 L 383.732 131.107 L 383.818 131.732 L 383.900 132.360 L 383.977 132.991 L 384.048 133.625 L 384.114 134.263 L 384.176 134.903 L 384.232 135.547 L 384.283 136.194 L 384.328 136.844 L 384.369 137.498 L 384.404 138.155 L 384.435 138.816 L 384.459 139.481 L 384.479 140.149 L 384.493 140.821 L 384.502 141.497 L 384.506 142.178 L 384.504 142.862 L 384.497 143.550 L 384.484 144.243 L 384.466 144.940 L 384.442 145.642 L 384.413 146.349 L 384.378 147.060 L 384.338 147.776 L 384.292 148.497 L 384.240 149.224 L 384.182 149.956 L 384.118 150.693 L 384.049 151.437 L 383.973 152.186 L 383.892 152.941 L 383.804 153.703 L 383.710 154.472 L 383.610 155.247 L 383.504 156.029 L 383.391 156.819 L 383.271 157.616 L 383.145 158.422 L 383.012 159.235 L 382.873 160.058 L 382.726 160.889 L 382.572 161.730 L 382.411 162.581 L 382.243 163.443 L 382.067 164.315 L 381.883 165.200 L 381.691 166.096 L 381.491 167.006 L 381.282 167.929 L 381.065 168.867 L 380.838 169.821 L 380.602 170.792 L 380.356 171.781 L 380.099 172.789 L 379.832 173.819 L 379.553 174.871 L 379.262 175.949 L 378.958 177.055 L 378.640 178.191 L 378.307 179.361 L 377.957 180.571 L 377.588 181.824 L 377.200 183.128 L 376.787 184.492 L 376.348 185.929 L 375.875 187.453 L 375.362 189.092 L 374.794 190.884 L 374.149 192.902 L 373.373 195.312 L 372.229 198.840" fill="none" stroke="#EC008C" stroke-width="1" vector-effect="non-scaling-stroke"/></svg>