<svg xmlns="http://www.w3.org/2000/svg" viewBox="-7540.1506875593295 -6761.464678090682 15729.596698343725 15178.591345701945" width="15729.596698343725" height="15178.591345701945" shape-rendering="geometricPrecision"><rect x="-7540.1506875593295" y="-6761.464678090682" width="15729.596698343725" height="15178.591345701945" fill="#0b0f14"/><path d="M 375.484 201.769 L 365.108 198.911 L 355.932 196.383 L 347.758 194.131 L 340.432 192.113 L 333.828 190.292 L 327.845 188.643 L 322.399 187.141 L 317.421 185.769 L 312.853 184.509 L 308.647 183.349 L 304.762 182.277 L 301.162 181.283 L 297.817 180.360 L 294.701 179.500 L 291.791 178.697 L 289.068 177.945 L 286.514 177.240 L 284.114 176.577 L 281.855 175.953 L 279.725 175.365 L 277.712 174.809 L 275.808 174.283 L 274.004 173.785 L 272.293 173.313 L 270.667 172.864 L 269.120 172.437 L 267.647 172.030 L 266.243 171.642 L 264.903 171.272 L 263.622 170.919 L 262.397 170.581 L 261.225 170.258 L 260.102 169.948 L 259.025 169.652 L 257.991 169.367 L 256.998 169.094 L 256.044 168.831 L 255.126 168.579 L 254.243 168.336 L 253.392 168.102 L 252.572 167.877 L 251.781 167.661 L 251.018 167.451 L 250.281 167.250 L 249.569 167.055 L 248.881 166.867 L 248.215 166.686 L 247.572 166.511 L 246.948 166.341 L 246.345 166.178 L 245.760 166.019 L 245.194 165.866 L 244.644 165.717 L 244.111 165.574 L 243.594 165.435 L 243.092 165.300 L 242.605 165.170 L 242.131 165.043 L 241.671 164.921 L 241.224 164.802 L 240.789 164.687 L 240.366 164.576 L 239.955 164.468 L 239.554 164.363 L 239.165 164.261 L 238.785 164.163 L 238.416 164.068 L 238.056 163.975 L 237.706 163.886 L 237.364 163.799 L 237.031 163.715 L 236.707 163.633 L 236.391 163.554 L 236.082 163.478 L 235.782 163.404 L 235.488 163.332 L 235.202 163.263 L 234.923 163.196 L 234.651 163.131 L 234.385 163.069 L 234.126 163.009 L 233.873 162.951 L 233.626 162.895 L 233.385 162.841 L 233.150 162.789 L 232.920 162.739 L 232.696 162.691 L 232.477 162.645 L 232.264 162.601 L 232.055 162.559 L 231.852 162.518 L 231.653 162.480 L 231.460 162.444 L 231.271 162.409 L 231.086 162.376 L 230.906 162.345 L 230.731 162.316 L 230.560 162.289 L 230.393 162.264 L 230.230 162.240 L 230.071 162.219 L 229.917 162.199 L 229.766 162.181 L 229.619 162.165 L 229.476 162.150 L 229.337 162.138 L 229.202 162.127 L 229.070 162.119 L 228.942 162.112 L 228.818 162.107 L 228.697 162.104 L 228.580 162.103 L 228.467 162.104 L 228.356 162.107 L 228.250 162.112 L 228.146 162.119 L 228.047 162.129 L 227.950 162.140 L 227.857 162.153 L 227.767 162.169 L 227.681 162.187 L 227.598 162.207 L 227.518 162.229 L 227.442 162.254 L 227.369 162.281 L 227.299 162.311 L 227.233 162.343 L 227.170 162.378 L 227.110 162.416 L 227.054 162.456 L 227.001 162.499 L 226.952 162.544 L 226.906 162.593 L 226.864 162.645 L 226.825 162.699 L 226.789 162.757 L 226.758 162.818 L 226.729 162.883 L 226.705 162.951 L 226.684 163.023 L 226.667 163.098 L 226.654 163.177 L 226.645 163.260 L 226.640 163.347 L 226.639 163.438 L 226.642 163.534 L 226.649 163.634 L 226.660 163.739 L 226.676 163.849 L 226.697 163.964 L 226.722 164.084 L 226.752 164.209 L 226.787 164.341 L 226.826 164.478 L 226.871 164.621 L 226.922 164.771 L 226.978 164.927 L 227.039 165.090 L 227.107 165.261 L 227.181 165.439 L 227.260 165.626 L 227.347 165.821 L 227.440 166.024 L 227.541 166.237 L 227.649 166.459 L 227.764 166.692 L 227.888 166.935 L 228.020 167.189 L 228.161 167.455 L 228.311 167.734 L 228.470 168.026 L 228.640 168.332 L 228.820 168.652 L 229.012 168.988 L 229.216 169.341 L 229.432 169.711 L 229.661 170.100 L 229.904 170.509 L 230.162 170.938 L 230.436 171.391 L 230.726 171.867 L 231.035 172.369 L 231.362 172.899 L 231.710 173.458 L 232.080 174.049 L 232.474 174.675 L 232.892 175.337 L 233.338 176.039 L 233.813 176.785 L 234.320 177.578 L 234.862 178.422 L 235.441 179.321 L 236.061 180.282 L 236.726 181.309 L 237.441 182.410 L 238.210 183.592 L 239.038 184.863 L 239.933 186.234 L 240.902 187.716 L 241.954 189.322 L 243.098 191.068 L 244.347 192.971 L 245.715 195.053 L 247.218 197.339 L 248.876 199.858 L 250.713 202.649 L 252.758 205.754 L 255.047 209.228 L 257.626 213.140 L 260.550 217.575 L 263.891 222.644 L 267.745 228.487 L 272.234 235.295 L 277.528 243.323 L 283.860 252.925 L 291.564 264.609 L 301.134 279.124 L 313.333 297.630 L 329.410 322.021 L 351.547 355.611 L 383.947 404.780 L 435.866 483.581 L 532.480 630.235 L 774.909 998.256 L 2505.061 3624.868 L -898.831 -1542.788 L -236.052 -536.615 L -69.034 -283.085 L 7.034 -167.632 L 50.529 -101.632 L 78.673 -58.938 L 98.366 -29.075 L 112.913 -7.028 L 124.093 9.908 L 132.950 23.316 L 140.138 34.187 L 146.086 43.174 L 151.086 50.721 L 155.348 57.146 L 159.021 62.676 L 162.220 67.483 L 165.028 71.697 L 167.513 75.417 L 169.727 78.724 L 171.710 81.681 L 173.497 84.336 L 175.115 86.733 L 176.585 88.906 L 177.928 90.881 L 179.157 92.684 L 180.287 94.334 L 181.329 95.848 L 182.292 97.241 L 183.185 98.525 L 184.015 99.711 L 184.787 100.809 L 185.508 101.826 L 186.182 102.770 L 186.813 103.647 L 187.405 104.464 L 187.962 105.223 L 188.486 105.931 L 188.979 106.591 L 189.445 107.207 L 189.885 107.782 L 190.302 108.318 L 190.696 108.819 L 191.070 109.286 L 191.425 109.722 L 191.762 110.128 L 192.082 110.507 L 192.387 110.860 L 192.678 111.188 L 192.954 111.493 L 193.218 111.776 L 193.470 112.038 L 193.711 112.280 L 193.940 112.503 L 194.160 112.708 L 194.370 112.895 L 194.571 113.066 L 194.764 113.221 L 194.948 113.360 L 195.125 113.485 L 195.295 113.595 L 195.457 113.692 L 195.613 113.776 L 195.763 113.846 L 195.907 113.904 L 196.045 113.949 L 196.177 113.983 L 196.305 114.005 L 196.427 114.016 L 196.545 114.015 L 196.658 114.004 L 196.766 113.982 L 196.871 113.949 L 196.971 113.906 L 197.068 113.852 L 197.160 113.789 L 197.250 113.715 L 197.335 113.631 L 197.418 113.538 L 197.497 113.434 L 197.573 113.320 L 197.646 113.197 L 197.716 113.064 L 197.784 112.920 L 197.849 112.767 L 197.911 112.604 L 197.970 112.431 L 198.027 112.248 L 198.082 112.054 L 198.135 111.850 L 198.185 111.636 L 198.233 111.411 L 198.278 111.176 L 198.322 110.929 L 198.363 110.672 L 198.403 110.403 L 198.440 110.123 L 198.476 109.831 L 198.510 109.527 L 198.542 109.211 L 198.572 108.882 L 198.600 108.540 L 198.626 108.186 L 198.651 107.817 L 198.674 107.435 L 198.695 107.038 L 198.715 106.626 L 198.732 106.199 L 198.748 105.756 L 198.763 105.296 L 198.775 104.820 L 198.786 104.326 L 198.796 103.814 L 198.803 103.283 L 198.809 102.732 L 198.814 102.161 L 198.816 101.568 L 198.817 100.953 L 198.816 100.315 L 198.813 99.653 L 198.808 98.965 L 198.801 98.250 L 198.793 97.508 L 198.783 96.736 L 198.770 95.934 L 198.756 95.099 L 198.739 94.230 L 198.720 93.326 L 198.699 92.383 L 198.676 91.400 L 198.650 90.375 L 198.621 89.305 L 198.590 88.187 L 198.556 87.019 L 198.519 85.796 L 198.479 84.516 L 198.436 83.175 L 198.390 81.769 L 198.340 80.292 L 198.286 78.740 L 198.227 77.107 L 198.165 75.387 L 198.098 73.573 L 198.026 71.658 L 197.948 69.632 L 197.865 67.488 L 197.775 65.213 L 197.679 62.796 L 197.575 60.224 L 197.463 57.482 L 197.342 54.552 L 197.211 51.416 L 197.069 48.049 L 196.916 44.428 L 196.749 40.523 L 196.567 36.297 L 196.369 31.712 L 196.151 26.720 L 195.912 21.264 L 195.649 15.278 L 195.357 8.680 L 195.032 1.372 L 194.669 -6.766 L 194.261 -15.883 L 193.799 -26.167 L 193.273 -37.856 L 192.667 -51.259 L 191.964 -66.780 L 191.139 -84.964 L 190.157 -106.560 L 188.970 -132.626 L 187.507 -164.707 L 185.659 -205.154 L 183.255 -257.727 L 180.000 -328.840 L 175.348 -430.390 L 168.159 -587.231 L 155.586 -861.394 L 127.981 -1463.130 L 18.440 -3850.448 L 581.008 8409.127 L 295.060 2177.459 L 254.991 1304.110 L 239.021 955.938 L 230.437 768.741 L 225.080 651.846 L 221.418 571.913 L 218.758 513.806 L 216.738 469.661 L 215.153 434.986 L 213.875 407.030 L 212.825 384.013 L 211.945 364.733 L 211.199 348.349 L 210.557 334.254 L 210.000 322.000 L 209.512 311.249 L 209.080 301.741 L 208.696 293.271 L 208.352 285.680 L 208.043 278.837 L 207.762 272.637 L 207.507 266.993 L 207.275 261.834 L 207.061 257.101 L 206.865 252.742 L 206.684 248.716 L 206.516 244.985 L 206.361 241.518 L 206.216 238.289 L 206.081 235.274 L 205.954 232.452 L 205.835 229.805 L 205.724 227.318 L 205.619 224.976 L 205.521 222.768 L 205.427 220.683 L 205.339 218.709 L 205.255 216.840 L 205.176 215.066 L 205.100 213.381 L 205.029 211.778 L 204.960 210.251 L 204.895 208.796 L 204.832 207.407 L 204.773 206.080 L 204.716 204.811 L 204.661 203.596 L 204.608 202.432 L 204.557 201.316 L 204.509 200.245 L 204.462 199.216 L 204.417 198.228 L 204.373 197.277 L 204.331 196.362 L 204.290 195.480 L 204.251 194.631 L 204.213 193.811 L 204.176 193.021 L 204.140 192.258 L 204.105 191.521 L 204.071 190.808 L 204.038 190.119 L 204.005 189.453 L 203.974 188.808 L 203.943 188.183 L 203.913 187.578 L 203.884 186.992 L 203.855 186.424 L 203.827 185.872 L 203.800 185.338 L 203.773 184.818 L 203.746 184.315 L 203.720 183.825 L 203.694 183.350 L 203.669 182.888 L 203.644 182.439 L 203.619 182.002 L 203.595 181.577 L 203.571 181.164 L 203.547 180.762 L 203.523 180.371 L 203.500 179.990 L 203.477 179.620 L 203.453 179.259 L 203.431 178.907 L 203.408 178.564 L 203.385 178.231 L 203.362 177.906 L 203.340 177.589 L 203.317 177.280 L 203.294 176.979 L 203.272 176.685 L 203.249 176.399 L 203.227 176.120 L 203.204 175.848 L 203.181 175.583 L 203.158 175.324 L 203.135 175.072 L 203.112 174.826 L 203.089 174.587 L 203.065 174.353 L 203.042 174.125 L 203.018 173.903 L 202.994 173.686 L 202.969 173.475 L 202.945 173.269 L 202.920 173.068 L 202.895 172.873 L 202.869 172.682 L 202.843 172.497 L 202.817 172.316 L 202.790 172.140 L 202.763 171.969 L 202.736 171.802 L 202.708 171.640 L 202.680 171.483 L 202.651 171.329 L 202.621 171.181 L 202.591 171.036 L 202.561 170.896 L 202.530 170.760 L 202.498 170.628 L 202.465 170.500 L 202.432 170.376 L 202.399 170.256 L 202.364 170.141 L 202.329 170.029 L 202.293 169.921 L 202.256 169.817 L 202.218 169.717 L 202.179 169.621 L 202.140 169.529 L 202.099 169.441 L 202.058 169.357 L 202.015 169.276 L 201.971 169.200 L 201.926 169.127 L 201.880 169.058 L 201.833 168.993 L 201.785 168.932 L 201.735 168.875 L 201.684 168.822 L 201.631 168.773 L 201.577 168.728 L 201.522 168.687 L 201.465 168.650 L 201.406 168.617 L 201.346 168.588 L 201.283 168.564 L 201.219 168.544 L 201.153 168.528 L 201.085 168.517 L 201.015 168.510 L 200.943 168.507 L 200.868 168.510 L 200.792 168.517 L 200.712 168.529 L 200.631 168.546 L 200.546 168.568 L 200.459 168.595 L 200.369 168.627 L 200.276 168.665 L 200.180 168.709 L 200.080 168.758 L 199.977 168.813 L 199.871 168.874 L 199.761 168.941 L 199.647 169.014 L 199.528 169.095 L 199.406 169.182 L 199.279 169.276 L 199.148 169.378 L 199.011 169.487 L 198.870 169.604 L 198.723 169.729 L 198.571 169.862 L 198.412 170.005 L 198.248 170.157 L 198.076 170.318 L 197.898 170.489 L 197.713 170.671 L 197.520 170.863 L 197.318 171.068 L 197.109 171.284 L 196.890 171.512 L 196.662 171.755 L 196.423 172.010 L 196.174 172.281 L 195.914 172.567 L 195.641 172.870 L 195.356 173.190 L 195.057 173.528 L 194.744 173.885 L 194.415 174.264 L 194.069 174.664 L 193.706 175.087 L 193.324 175.536 L 192.921 176.011 L 192.497 176.515 L 192.049 177.049 L 191.576 177.617 L 191.075 178.219 L 190.545 178.860 L 189.982 179.543 L 189.385 180.270 L 188.750 181.046 L 188.074 181.875 L 187.352 182.761 L 186.580 183.711 L 185.754 184.731 L 184.868 185.827 L 183.914 187.008 L 182.887 188.283 L 181.777 189.663 L 180.574 191.159 L 179.268 192.787 L 177.844 194.563 L 176.287 196.507 L 174.577 198.643 L 172.693 200.998 L 170.607 203.607 L 168.286 206.512 L 165.689 209.763 L 162.765 213.424 L 159.450 217.575 L 155.663 222.320 L 151.296 227.790 L 146.209 234.164 L 140.210 241.679 L 133.034 250.669 L 124.303 261.606 L 113.455 275.193 L 99.625 292.514 L 81.396 315.341 L 56.291 346.774 L 19.540 392.782 L -39.360 466.512 L -148.981 603.716 L -424.075 948.004 L -2387.485 3405.144 L 1475.388 -1429.043 L 723.270 -487.778 L 533.760 -250.590 L 447.464 -142.567 L 398.135 -80.806 L 366.228 -40.847 L 343.912 -12.889 L 327.438 7.759 L 314.787 23.625 L 304.772 36.192 L 296.654 46.387 L 289.945 54.821 L 284.312 61.909 L 279.519 67.947 L 275.395 73.150 L 271.811 77.677 L 268.672 81.650 L 265.901 85.164 L 263.440 88.291 L 261.241 91.091 L 259.268 93.611 L 257.488 95.890 L 255.876 97.960 L 254.412 99.847 L 253.078 101.573 L 251.858 103.158 L 250.740 104.617 L 249.713 105.963 L 248.767 107.209 L 247.895 108.364 L 247.090 109.438 L 246.346 110.438 L 245.656 111.371 L 245.017 112.242 L 244.423 113.058 L 243.873 113.822 L 243.361 114.539 L 242.886 115.212 L 242.444 115.846 L 242.034 116.442 L 241.653 117.004 L 241.298 117.533 L 240.970 118.033 L 240.665 118.505 L 240.382 118.952 L 240.121 119.373 L 239.880 119.772 L 239.657 120.150 L 239.453 120.507 L 239.265 120.846 L 239.094 121.166 L 238.938 121.470 L 238.797 121.757 L 238.670 122.029 L 238.557 122.287 L 238.457 122.531 L 238.369 122.762 L 238.293 122.981 L 238.229 123.188 L 238.176 123.383 L 238.135 123.567 L 238.104 123.742 L 238.083 123.906 L 238.072 124.060 L 238.072 124.206 L 238.081 124.342 L 238.099 124.470 L 238.127 124.590 L 238.163 124.701 L 238.209 124.805 L 238.264 124.902 L 238.327 124.991 L 238.399 125.073 L 238.480 125.148 L 238.569 125.217 L 238.667 125.279 L 238.773 125.335 L 238.888 125.384 L 239.011 125.427 L 239.142 125.465 L 239.282 125.496 L 239.431 125.522 L 239.588 125.542 L 239.753 125.556 L 239.928 125.565 L 240.111 125.568 L 240.303 125.565 L 240.504 125.558 L 240.714 125.544 L 240.933 125.526 L 241.162 125.502 L 241.400 125.473 L 241.647 125.438 L 241.905 125.398 L 242.173 125.352 L 242.451 125.302 L 242.740 125.245 L 243.039 125.183 L 243.350 125.116 L 243.672 125.043 L 244.005 124.964 L 244.351 124.880 L 244.709 124.789 L 245.080 124.693 L 245.464 124.590 L 245.862 124.482 L 246.273 124.367 L 246.700 124.245 L 247.141 124.117 L 247.598 123.982 L 248.071 123.839 L 248.561 123.690 L 249.068 123.533 L 249.594 123.369 L 250.139 123.196 L 250.703 123.015 L 251.288 122.826 L 251.895 122.628 L 252.524 122.420 L 253.177 122.203 L 253.854 121.976 L 254.558 121.739 L 255.288 121.490 L 256.048 121.230 L 256.837 120.959 L 257.658 120.674 L 258.513 120.377 L 259.403 120.065 L 260.330 119.739 L 261.297 119.398 L 262.306 119.040 L 263.360 118.665 L 264.460 118.272 L 265.612 117.859 L 266.816 117.426 L 268.078 116.970 L 269.402 116.491 L 270.791 115.987 L 272.250 115.456 L 273.785 114.897 L 275.402 114.306 L 277.106 113.681 L 278.905 113.021 L 280.808 112.321 L 282.822 111.579 L 284.958 110.791 L 287.226 109.952 L 289.640 109.059 L 292.214 108.105 L 294.962 107.084 L 297.905 105.991 L 301.063 104.816 L 304.459 103.551 L 308.122 102.185 L 312.085 100.707 L 316.384 99.101 L 321.065 97.352 L 326.179 95.438 L 331.791 93.338 L 337.976 91.021 L 344.826 88.454 L 352.454 85.594 L 360.998 82.389 L 370.636 78.772 L 381.591 74.659 L 394.150 69.941 L 408.695 64.476 L 425.734 58.072 L 445.970 50.465 L 470.393 41.281 L 500.451 29.976 L 538.347 15.720 L 587.605 -2.813 L 654.231 -27.884 L 749.374 -63.689 L 896.317 -118.993 L 1153.176 -215.671 L 1716.930 -427.871 L 3953.555 -1269.772 L -7532.151 3053.678 L -1693.846 856.034 L -875.623 548.046 L -549.427 425.267 L -374.045 359.256 L -264.526 318.039 L -189.637 289.855 L -135.196 269.369 L -93.835 253.807 L -61.347 241.584 L -35.154 231.730 L -13.589 223.618 L 4.476 216.824 L 19.828 211.051 L 33.034 206.086 L 44.516 201.769 L 54.590 197.982 L 63.500 194.633 L 71.436 191.651 L 78.549 188.978 L 84.962 186.569 L 90.772 184.387 L 96.061 182.400 L 100.895 180.585 L 105.331 178.919 L 109.415 177.386 L 113.189 175.969 L 116.685 174.657 L 119.934 173.438 L 122.961 172.302 L 125.787 171.241 L 128.431 170.249 L 130.912 169.318 L 133.243 168.444 L 135.437 167.621 L 137.507 166.844 L 139.462 166.111 L 141.311 165.417 L 143.063 164.760 L 144.726 164.136 L 146.305 163.544 L 147.807 162.980 L 149.238 162.444 L 150.602 161.932 L 151.904 161.443 L 153.147 160.976 L 154.337 160.530 L 155.475 160.102 L 156.566 159.692 L 157.612 159.299 L 158.615 158.922 L 159.579 158.560 L 160.505 158.211 L 161.396 157.876 L 162.254 157.553 L 163.079 157.242 L 163.875 156.942 L 164.642 156.652 L 165.383 156.373 L 166.098 156.103 L 166.788 155.842 L 167.455 155.589 L 168.100 155.345 L 168.724 155.108 L 169.327 154.879 L 169.912 154.657 L 170.478 154.442 L 171.026 154.233 L 171.558 154.030 L 172.074 153.833 L 172.574 153.641 L 173.059 153.455 L 173.530 153.274 L 173.988 153.098 L 174.432 152.926 L 174.863 152.760 L 175.283 152.597 L 175.690 152.439 L 176.087 152.284 L 176.472 152.134 L 176.847 151.987 L 177.212 151.843 L 177.567 151.704 L 177.912 151.567 L 178.248 151.433 L 178.576 151.303 L 178.894 151.175 L 179.205 151.051 L 179.507 150.928 L 179.801 150.809 L 180.088 150.692 L 180.367 150.578 L 180.640 150.465 L 180.905 150.356 L 181.163 150.248 L 181.415 150.142 L 181.660 150.039 L 181.899 149.937 L 182.131 149.837 L 182.358 149.739 L 182.579 149.643 L 182.794 149.548 L 183.004 149.455 L 183.208 149.364 L 183.406 149.274 L 183.600 149.186 L 183.788 149.099 L 183.971 149.013 L 184.149 148.929 L 184.322 148.845 L 184.491 148.763 L 184.654 148.683 L 184.813 148.603 L 184.968 148.524 L 185.118 148.447 L 185.263 148.370 L 185.405 148.294 L 185.541 148.220 L 185.674 148.146 L 185.802 148.072 L 185.926 148.000 L 186.046 147.928 L 186.161 147.857 L 186.273 147.787 L 186.380 147.717 L 186.484 147.648 L 186.583 147.580 L 186.679 147.511 L 186.770 147.444 L 186.857 147.377 L 186.941 147.310 L 187.020 147.243 L 187.095 147.177 L 187.167 147.111 L 187.234 147.046 L 187.298 146.980 L 187.357 146.915 L 187.412 146.850 L 187.464 146.785 L 187.511 146.720 L 187.554 146.655 L 187.593 146.590 L 187.627 146.525 L 187.658 146.460 L 187.684 146.395 L 187.706 146.329 L 187.724 146.264 L 187.737 146.198 L 187.745 146.131 L 187.749 146.064 L 187.748 145.997 L 187.743 145.930 L 187.733 145.862 L 187.718 145.793 L 187.697 145.723 L 187.672 145.653 L 187.642 145.582 L 187.606 145.511 L 187.564 145.438 L 187.517 145.365 L 187.465 145.290 L 187.406 145.214 L 187.341 145.138 L 187.270 145.059 L 187.193 144.980 L 187.109 144.899 L 187.018 144.817 L 186.920 144.733 L 186.815 144.647 L 186.702 144.560 L 186.581 144.470 L 186.452 144.379 L 186.315 144.285 L 186.169 144.189 L 186.014 144.091 L 185.850 143.990 L 185.676 143.886 L 185.491 143.779 L 185.296 143.669 L 185.090 143.556 L 184.872 143.440 L 184.642 143.320 L 184.399 143.196 L 184.143 143.067 L 183.872 142.935 L 183.587 142.797 L 183.286 142.655 L 182.969 142.508 L 182.635 142.354 L 182.282 142.195 L 181.910 142.029 L 181.518 141.857 L 181.104 141.677 L 180.667 141.489 L 180.206 141.293 L 179.718 141.088 L 179.203 140.874 L 178.659 140.649 L 178.082 140.413 L 177.472 140.165 L 176.825 139.904 L 176.140 139.629 L 175.412 139.339 L 174.638 139.033 L 173.815 138.709 L 172.939 138.366 L 172.005 138.002 L 171.008 137.615 L 169.941 137.202 L 168.799 136.762 L 167.574 136.291 L 166.258 135.787 L 164.840 135.245 L 163.310 134.662 L 161.655 134.033 L 159.860 133.352 L 157.908 132.612 L 155.779 131.807 L 153.449 130.926 L 150.890 129.960 L 148.067 128.896 L 144.941 127.719 L 141.461 126.409 L 137.567 124.943 L 133.182 123.294 L 128.209 121.425 L 122.527 119.289 L 115.975 116.826 L 108.341 113.957 L 99.339 110.574 L 88.573 106.528 L 75.473 101.603 L 59.199 95.485 L 38.451 87.684 L 11.108 77.401 L -26.544 63.238 L -81.657 42.504 L -169.979 9.270 L -334.342 -52.587 L -746.789 -207.827 L -3690.395 -1315.843 L 2100.884 864.122 L 973.270 439.683 L 689.129 332.743 L 559.726 284.051 L 485.744 256.222 L 437.881 238.224 L 404.396 225.640 L 379.668 216.354 L 360.669 209.224 L 345.622 203.583 L 333.417 199.013 L 323.323 195.238 L 314.841 192.071 L 307.618 189.379 L 301.395 187.064 L 295.982 185.055 L 291.233 183.297 L 287.035 181.747 L 283.301 180.373 L 279.958 179.148 L 276.952 178.049 L 274.234 177.061 L 271.768 176.168 L 269.521 175.358 L 267.466 174.623 L 265.582 173.952 L 263.849 173.340 L 262.251 172.779 L 260.774 172.265 L 259.406 171.793 L 258.136 171.359 L 256.955 170.959 L 255.855 170.592 L 254.828 170.253 L 253.870 169.941 L 252.973 169.653 L 252.133 169.388 L 251.345 169.145 L 250.607 168.920 L 249.913 168.714 L 249.261 168.525 L 248.647 168.352 L 248.070 168.194 L 247.527 168.050 L 247.015 167.919 L 246.533 167.801 L 246.079 167.694 L 245.652 167.600 L 245.248 167.516 L 244.869 167.442 L 244.511 167.378 L 244.174 167.324 L 243.857 167.278 L 243.559 167.242 L 243.279 167.214 L 243.016 167.194 L 242.769 167.182 L 242.538 167.177 L 242.321 167.180 L 242.119 167.190 L 241.931 167.208 L 241.756 167.232 L 241.593 167.263 L 241.443 167.301 L 241.304 167.345 L 241.177 167.395 L 241.061 167.452 L 240.956 167.516 L 240.861 167.585 L 240.777 167.661 L 240.702 167.743 L 240.637 167.830 L 240.581 167.924 L 240.534 168.024 L 240.496 168.130 L 240.468 168.243 L 240.447 168.361 L 240.436 168.485 L 240.433 168.616 L 240.438 168.752 L 240.451 168.895 L 240.473 169.044 L 240.502 169.200 L 240.540 169.362 L 240.586 169.530 L 240.639 169.705 L 240.701 169.887 L 240.770 170.076 L 240.848 170.271 L 240.933 170.474 L 241.026 170.684 L 241.128 170.902 L 241.237 171.126 L 241.355 171.359 L 241.481 171.600 L 241.615 171.849 L 241.758 172.106 L 241.910 172.371 L 242.070 172.646 L 242.239 172.930 L 242.417 173.223 L 242.604 173.525 L 242.801 173.838 L 243.007 174.161 L 243.223 174.494 L 243.449 174.839 L 243.686 175.195 L 243.933 175.563 L 244.192 175.943 L 244.461 176.336 L 244.743 176.742 L 245.036 177.161 L 245.342 177.596 L 245.661 178.045 L 245.994 178.509 L 246.340 178.990 L 246.701 179.488 L 247.077 180.004 L 247.468 180.538 L 247.877 181.092 L 248.302 181.666 L 248.745 182.262 L 249.207 182.880 L 249.689 183.522 L 250.191 184.188 L 250.715 184.882 L 251.262 185.602 L 251.834 186.353 L 252.430 187.134 L 253.054 187.948 L 253.706 188.797 L 254.388 189.683 L 255.102 190.608 L 255.851 191.576 L 256.635 192.588 L 257.458 193.647 L 258.323 194.758 L 259.231 195.923 L 260.187 197.147 L 261.194 198.434 L 262.256 199.789 L 263.376 201.217 L 264.560 202.724 L 265.814 204.317 L 267.142 206.003 L 268.551 207.791 L 270.050 209.689 L 271.646 211.709 L 273.348 213.861 L 275.168 216.160 L 277.118 218.621 L 279.211 221.261 L 281.463 224.101 L 283.894 227.162 L 286.525 230.474 L 289.380 234.066 L 292.490 237.977 L 295.891 242.251 L 299.623 246.939 L 303.737 252.105 L 308.295 257.827 L 313.372 264.197 L 319.061 271.333 L 325.480 279.382 L 332.776 288.529 L 341.144 299.016 L 350.836 311.160 L 362.192 325.386 L 375.680 342.280 L 391.961 362.670 L 412.002 387.764 L 437.271 419.400 L 470.118 460.520 L 514.550 516.138 L 578.004 595.560 L 676.009 718.221 L 847.329 932.633 L 1223.353 1403.222 L 2715.204 3270.216 L -4945.920 -6317.319 L -1051.701 -1443.870 L -505.943 -760.868 L -288.372 -488.578 L -171.397 -342.178 L -98.353 -250.757 L -48.407 -188.242 L -12.100 -142.796 L 15.482 -108.269 L 37.146 -81.148 L 54.611 -59.282 L 68.990 -41.278 L 81.034 -26.197 L 91.268 -13.381 L 100.072 -2.355 L 107.725 7.231 L 114.440 15.642 L 120.378 23.080 L 125.667 29.707 L 130.407 35.646 L 134.680 41.000 L 138.551 45.852 L 142.074 50.268 L 145.295 54.304 L 148.249 58.008 L 150.970 61.419 L 153.483 64.570 L 155.812 67.490 L 157.976 70.203 L 159.991 72.730 L 161.873 75.090 L 163.634 77.299 L 165.285 79.371 L 166.837 81.317 L 168.298 83.150 L 169.676 84.878 L 170.978 86.511 L 172.209 88.055 L 173.376 89.519 L 174.482 90.907 L 175.534 92.226 L 176.534 93.480 L 177.487 94.675 L 178.395 95.814 L 179.262 96.901 L 180.090 97.940 L 180.883 98.933 L 181.641 99.884 L 182.368 100.794 L 183.065 101.667 L 183.734 102.505 L 184.376 103.310 L 184.994 104.083 L 185.588 104.827 L 186.160 105.543 L 186.711 106.232 L 187.242 106.896 L 187.755 107.536 L 188.249 108.154 L 188.727 108.750 L 189.189 109.326 L 189.635 109.882 L 190.067 110.420 L 190.484 110.941 L 190.889 111.444 L 191.281 111.931 L 191.661 112.403 L 192.029 112.860 L 192.386 113.303 L 192.733 113.732 L 193.070 114.149 L 193.397 114.553 L 193.714 114.945 L 194.023 115.325 L 194.323 115.695 L 194.616 116.054 L 194.900 116.402 L 195.176 116.741 L 195.446 117.070 L 195.708 117.390 L 195.964 117.702 L 196.213 118.004 L 196.455 118.299 L 196.692 118.585 L 196.923 118.863 L 197.148 119.134 L 197.368 119.398 L 197.583 119.655 L 197.792 119.904 L 197.997 120.147 L 198.196 120.384 L 198.392 120.614 L 198.582 120.838 L 198.769 121.057 L 198.951 121.269 L 199.129 121.476 L 199.304 121.677 L 199.474 121.873 L 199.641 122.063 L 199.804 122.248 L 199.964 122.429 L 200.120 122.604 L 200.274 122.775 L 200.423 122.940 L 200.570 123.101 L 200.714 123.258 L 200.855 123.410 L 200.993 123.558 L 201.128 123.701 L 201.261 123.840 L 201.391 123.975 L 201.519 124.106 L 201.643 124.233 L 201.766 124.355 L 201.886 124.474 L 202.004 124.588 L 202.120 124.699 L 202.233 124.806 L 202.344 124.909 L 202.454 125.009 L 202.561 125.104 L 202.666 125.196 L 202.769 125.284 L 202.871 125.368 L 202.970 125.449 L 203.068 125.526 L 203.164 125.599 L 203.258 125.669 L 203.350 125.735 L 203.441 125.797 L 203.531 125.856 L 203.618 125.911 L 203.705 125.962 L 203.789 126.010 L 203.872 126.054 L 203.954 126.094 L 204.035 126.130 L 204.114 126.163 L 204.191 126.191 L 204.268 126.216 L 204.343 126.237 L 204.417 126.254 L 204.489 126.267 L 204.560 126.276 L 204.631 126.280 L 204.700 126.281 L 204.768 126.277 L 204.834 126.269 L 204.900 126.257 L 204.965 126.240 L 205.029 126.219 L 205.091 126.193 L 205.153 126.162 L 205.214 126.126 L 205.273 126.085 L 205.332 126.040 L 205.390 125.989 L 205.447 125.933 L 205.504 125.871 L 205.559 125.803 L 205.614 125.730 L 205.667 125.651 L 205.720 125.566 L 205.773 125.474 L 205.824 125.376 L 205.875 125.271 L 205.926 125.159 L 205.975 125.040 L 206.024 124.913 L 206.072 124.779 L 206.120 124.637 L 206.167 124.486 L 206.214 124.326 L 206.260 124.158 L 206.306 123.980 L 206.351 123.793 L 206.396 123.595 L 206.441 123.387 L 206.485 123.167 L 206.528 122.936 L 206.572 122.693 L 206.615 122.437 L 206.658 122.167 L 206.701 121.884 L 206.743 121.586 L 206.786 121.272 L 206.828 120.942 L 206.871 120.595 L 206.913 120.230 L 206.956 119.845 L 206.998 119.440 L 207.041 119.014 L 207.084 118.564 L 207.128 118.091 L 207.171 117.592 L 207.216 117.065 L 207.261 116.508 L 207.306 115.921 L 207.353 115.300 L 207.400 114.643 L 207.448 113.947 L 207.498 113.210 L 207.548 112.428 L 207.600 111.598 L 207.654 110.715 L 207.710 109.776 L 207.768 108.775 L 207.828 107.707 L 207.891 106.565 L 207.956 105.343 L 208.025 104.033 L 208.098 102.625 L 208.175 101.109 L 208.257 99.474 L 208.344 97.705 L 208.437 95.787 L 208.538 93.703 L 208.646 91.429 L 208.763 88.941 L 208.891 86.208 L 209.030 83.195 L 209.184 79.858 L 209.355 76.144 L 209.545 71.987 L 209.759 67.307 L 210.000 62.000 L 210.275 55.936 L 210.593 48.943 L 210.962 40.797 L 211.398 31.190 L 211.920 19.700 L 212.554 5.719 L 213.344 -11.648 L 214.352 -33.791 L 215.682 -62.973 L 217.517 -103.160 L 220.206 -161.983 L 224.520 -256.252 L 232.559 -431.685 L 252.747 -871.917 L 396.909 -4013.848 L 113.243 2167.631 L 168.457 964.048 L 182.358 660.767 L 188.679 522.652 L 192.285 443.691 L 194.611 392.609 L 196.231 356.874 L 197.422 330.486 L 198.332 310.214 L 199.047 294.160 L 199.622 281.140 L 200.093 270.374 L 200.484 261.329 L 200.812 253.627 L 201.090 246.993 L 201.328 241.224 L 201.533 236.165 L 201.709 231.694 L 201.862 227.717 L 201.995 224.160 L 202.111 220.961 L 202.211 218.071 L 202.298 215.449 L 202.373 213.062 L 202.438 210.881 L 202.494 208.881 L 202.541 207.044 L 202.580 205.351 L 202.613 203.787 L 202.639 202.340 L 202.659 200.998 L 202.674 199.752 L 202.684 198.592 L 202.689 197.511 L 202.689 196.503 L 202.686 195.561 L 202.678 194.680 L 202.667 193.856 L 202.652 193.084 L 202.633 192.360 L 202.612 191.682 L 202.587 191.045 L 202.559 190.447 L 202.528 189.886 L 202.494 189.359 L 202.458 188.864 L 202.419 188.399 L 202.377 187.963 L 202.332 187.554 L 202.285 187.170 L 202.235 186.810 L 202.183 186.473 L 202.128 186.157 L 202.070 185.863 L 202.011 185.587 L 201.948 185.331 L 201.883 185.093 L 201.816 184.871 L 201.746 184.666 L 201.674 184.477 L 201.600 184.304 L 201.522 184.144 L 201.443 183.999 L 201.360 183.868 L 201.276 183.750 L 201.188 183.645 L 201.098 183.552 L 201.005 183.472 L 200.910 183.403 L 200.812 183.346 L 200.711 183.300 L 200.607 183.265 L 200.501 183.241 L 200.391 183.227 L 200.279 183.224 L 200.163 183.232 L 200.045 183.249 L 199.923 183.276 L 199.798 183.314 L 199.669 183.361 L 199.538 183.418 L 199.402 183.484 L 199.264 183.561 L 199.121 183.646 L 198.975 183.742 L 198.825 183.847 L 198.671 183.962 L 198.513 184.086 L 198.351 184.220 L 198.185 184.364 L 198.014 184.518 L 197.838 184.681 L 197.658 184.855 L 197.473 185.039 L 197.283 185.233 L 197.088 185.438 L 196.888 185.653 L 196.682 185.879 L 196.470 186.116 L 196.253 186.364 L 196.029 186.624 L 195.799 186.896 L 195.563 187.180 L 195.319 187.475 L 195.069 187.784 L 194.811 188.106 L 194.546 188.441 L 194.272 188.790 L 193.991 189.153 L 193.700 189.531 L 193.401 189.924 L 193.093 190.333 L 192.774 190.758 L 192.446 191.200 L 192.107 191.660 L 191.756 192.138 L 191.394 192.635 L 191.020 193.152 L 190.633 193.689 L 190.232 194.249 L 189.818 194.831 L 189.388 195.436 L 188.943 196.067 L 188.482 196.723 L 188.003 197.407 L 187.505 198.120 L 186.989 198.863 L 186.452 199.638 L 185.893 200.447 L 185.311 201.291 L 184.705 202.174 L 184.074 203.096 L 183.414 204.062 L 182.726 205.072 L 182.006 206.131 L 181.252 207.241 L 180.463 208.407 L 179.636 209.631 L 178.767 210.918 L 177.854 212.273 L 176.894 213.702 L 175.882 215.208 L 174.815 216.800 L 173.687 218.485 L 172.494 220.269 L 171.229 222.162 L 169.887 224.174 L 168.459 226.316 L 166.938 228.600 L 165.314 231.041 L 163.576 233.656 L 161.712 236.462 L 159.707 239.482 L 157.547 242.740 L 155.210 246.265 L 152.676 250.091 L 149.917 254.258 L 146.904 258.812 L 143.598 263.810 L 139.956 269.319 L 135.923 275.422 L 131.434 282.219 L 126.405 289.835 L 120.734 298.427 L 114.289 308.193 L 106.901 319.392 L 98.347 332.362 L 88.326 347.558 L 76.426 365.607 L 62.066 387.392 L 44.393 414.206 L 22.114 448.014 L -6.843 491.961 L -46.009 551.406 L -101.935 636.296 L -188.308 767.408 L -339.285 996.601 L -670.644 1499.641 L -1985.254 3495.408 L 4765.617 -6753.465 L 1334.072 -1543.864 L 853.146 -813.757 L 661.416 -522.693 L 558.329 -366.203 L 493.954 -268.484 L 449.933 -201.664 L 417.930 -153.091 L 393.616 -116.189 L 374.518 -87.205 L 359.119 -63.837 L 346.440 -44.599 L 335.819 -28.484 L 326.792 -14.790 L 319.026 -3.010 L 312.275 7.231 L 306.351 16.216 L 301.111 24.162 L 296.443 31.239 L 292.259 37.583 L 288.488 43.301 L 285.070 48.482 L 281.959 53.198 L 279.115 57.508 L 276.505 61.463 L 274.102 65.104 L 271.882 68.468 L 269.825 71.585 L 267.913 74.481 L 266.132 77.179 L 264.469 79.698 L 262.913 82.055 L 261.453 84.266 L 260.081 86.344 L 258.790 88.300 L 257.572 90.144 L 256.421 91.886 L 255.333 93.535 L 254.302 95.096 L 253.323 96.578 L 252.394 97.986 L 251.510 99.325 L 250.668 100.600 L 249.865 101.816 L 249.099 102.976 L 248.368 104.085 L 247.668 105.145 L 246.998 106.160 L 246.357 107.133 L 245.742 108.065 L 245.151 108.960 L 244.585 109.820 L 244.040 110.647 L 243.516 111.442 L 243.013 112.207 L 242.527 112.944 L 242.060 113.654 L 241.609 114.340 L 241.175 115.001 L 240.755 115.639 L 240.350 116.256 L 239.959 116.853 L 239.581 117.429 L 239.215 117.988 L 238.861 118.528 L 238.519 119.051 L 238.188 119.558 L 237.867 120.050 L 237.556 120.526 L 237.255 120.989 L 236.963 121.438 L 236.679 121.874 L 236.405 122.297 L 236.138 122.708 L 235.880 123.108 L 235.629 123.497 L 235.385 123.875 L 235.148 124.242 L 234.918 124.600 L 234.695 124.949 L 234.478 125.288 L 234.267 125.618 L 234.062 125.940 L 233.863 126.254 L 233.670 126.559 L 233.481 126.857 L 233.299 127.148 L 233.121 127.431 L 232.948 127.707 L 232.780 127.977 L 232.617 128.240 L 232.458 128.497 L 232.304 128.748 L 232.154 128.993 L 232.008 129.231 L 231.867 129.465 L 231.729 129.693 L 231.596 129.916 L 231.466 130.133 L 231.341 130.346 L 231.218 130.553 L 231.100 130.756 L 230.985 130.955 L 230.874 131.148 L 230.766 131.338 L 230.662 131.523 L 230.560 131.704 L 230.463 131.881 L 230.368 132.054 L 230.277 132.223 L 230.189 132.388 L 230.104 132.550 L 230.022 132.708 L 229.943 132.862 L 229.867 133.013 L 229.795 133.161 L 229.725 133.305 L 229.658 133.446 L 229.595 133.584 L 229.534 133.718 L 229.476 133.850 L 229.422 133.978 L 229.370 134.103 L 229.321 134.226 L 229.275 134.345 L 229.232 134.462 L 229.192 134.576 L 229.155 134.687 L 229.120 134.796 L 229.089 134.901 L 229.061 135.004 L 229.036 135.105 L 229.014 135.203 L 228.995 135.298 L 228.979 135.391 L 228.966 135.481 L 228.956 135.568 L 228.950 135.654 L 228.946 135.736 L 228.946 135.817 L 228.950 135.894 L 228.956 135.970 L 228.967 136.043 L 228.980 136.114 L 228.997 136.182 L 229.018 136.248 L 229.043 136.311 L 229.071 136.372 L 229.103 136.431 L 229.139 136.487 L 229.179 136.541 L 229.223 136.593 L 229.272 136.642 L 229.324 136.688 L 229.381 136.733 L 229.443 136.775 L 229.509 136.814 L 229.580 136.851 L 229.657 136.885 L 229.738 136.917 L 229.824 136.946 L 229.916 136.973 L 230.014 136.997 L 230.117 137.019 L 230.226 137.038 L 230.342 137.054 L 230.464 137.067 L 230.593 137.077 L 230.728 137.085 L 230.871 137.089 L 231.021 137.090 L 231.179 137.089 L 231.345 137.084 L 231.519 137.076 L 231.703 137.064 L 231.895 137.049 L 232.097 137.031 L 232.309 137.009 L 232.531 136.983 L 232.765 136.953 L 233.009 136.919 L 233.266 136.881 L 233.536 136.839 L 233.818 136.792 L 234.115 136.740 L 234.426 136.684 L 234.753 136.622 L 235.097 136.555 L 235.457 136.483 L 235.836 136.404 L 236.234 136.320 L 236.653 136.229 L 237.094 136.131 L 237.558 136.026 L 238.046 135.913 L 238.561 135.792 L 239.104 135.663 L 239.677 135.525 L 240.282 135.377 L 240.921 135.219 L 241.598 135.050 L 242.314 134.869 L 243.073 134.676 L 243.879 134.469 L 244.735 134.247 L 245.645 134.010 L 246.615 133.756 L 247.650 133.483 L 248.755 133.190 L 249.938 132.875 L 251.205 132.535 L 252.567 132.170 L 254.032 131.774 L 255.613 131.347 L 257.322 130.883 L 259.174 130.379 L 261.188 129.830 L 263.384 129.230 L 265.786 128.573 L 268.425 127.850 L 271.333 127.052 L 274.555 126.167 L 278.140 125.182 L 282.152 124.078 L 286.669 122.835 L 291.791 121.425 L 297.644 119.813 L 304.392 117.954 L 312.254 115.788 L 321.525 113.233 L 332.614 110.179 L 346.106 106.462 L 362.868 101.846 L 384.239 95.963 L 412.403 88.210 L 451.190 77.536 L 507.965 61.916 L 598.953 36.889 L 768.285 -9.678 L 1193.208 -126.517 L 4225.911 -960.321 L -1740.683 680.078 L -578.945 360.663 L -286.212 280.164 L -152.903 243.496 L -76.693 222.525 L -27.392 208.952 L 7.095 199.451 L 32.558 192.429 L 52.120 187.030 L 67.608 182.749 L 80.169 179.272 L 90.554 176.393 L 99.277 173.970 L 106.704 171.902 L 113.099 170.117 L 118.659 168.561 L 123.534 167.192 L 127.841 165.978 L 131.670 164.895 L 135.094 163.922 L 138.172 163.043 L 140.952 162.245 L 143.472 161.518 L 145.766 160.852 L 147.860 160.240 L 149.779 159.675 L 151.541 159.152 L 153.163 158.666 L 154.660 158.214 L 156.045 157.791 L 157.327 157.396 L 158.518 157.025 L 159.624 156.676 L 160.653 156.346 L 161.612 156.035 L 162.507 155.741 L 163.342 155.461 L 164.122 155.196 L 164.852 154.943 L 165.535 154.702 L 166.173 154.472 L 166.771 154.251 L 167.331 154.040 L 167.855 153.837 L 168.346 153.642 L 168.805 153.455 L 169.235 153.274 L 169.637 153.099 L 170.012 152.930 L 170.363 152.767 L 170.690 152.608 L 170.994 152.454 L 171.277 152.304 L 171.540 152.159 L 171.783 152.017 L 172.008 151.878 L 172.215 151.743 L 172.404 151.611 L 172.578 151.481 L 172.735 151.354 L 172.877 151.229 L 173.005 151.107 L 173.118 150.986 L 173.218 150.867 L 173.304 150.750 L 173.377 150.634 L 173.437 150.520 L 173.485 150.407 L 173.521 150.295 L 173.545 150.184 L 173.557 150.074 L 173.558 149.964 L 173.548 149.856 L 173.527 149.747 L 173.496 149.639 L 173.453 149.532 L 173.400 149.424 L 173.336 149.317 L 173.262 149.210 L 173.177 149.102 L 173.083 148.994 L 172.978 148.886 L 172.862 148.778 L 172.737 148.669 L 172.601 148.560 L 172.454 148.449 L 172.298 148.338 L 172.131 148.227 L 171.953 148.114 L 171.765 148.000 L 171.566 147.885 L 171.356 147.769 L 171.135 147.651 L 170.903 147.532 L 170.660 147.411 L 170.405 147.289 L 170.138 147.165 L 169.859 147.039 L 169.569 146.911 L 169.265 146.781 L 168.949 146.648 L 168.620 146.514 L 168.277 146.376 L 167.920 146.236 L 167.549 146.094 L 167.163 145.948 L 166.763 145.799 L 166.346 145.647 L 165.914 145.491 L 165.465 145.332 L 164.999 145.169 L 164.514 145.002 L 164.012 144.830 L 163.490 144.654 L 162.948 144.474 L 162.385 144.288 L 161.800 144.098 L 161.193 143.902 L 160.562 143.700 L 159.906 143.491 L 159.225 143.277 L 158.516 143.056 L 157.779 142.827 L 157.012 142.591 L 156.214 142.347 L 155.382 142.094 L 154.516 141.832 L 153.613 141.561 L 152.671 141.280 L 151.688 140.988 L 150.661 140.684 L 149.589 140.368 L 148.467 140.039 L 147.293 139.697 L 146.064 139.339 L 144.775 138.966 L 143.423 138.575 L 142.003 138.167 L 140.510 137.739 L 138.939 137.289 L 137.284 136.817 L 135.538 136.321 L 133.694 135.797 L 131.744 135.245 L 129.678 134.662 L 127.487 134.044 L 125.159 133.389 L 122.680 132.693 L 120.038 131.952 L 117.214 131.162 L 114.191 130.317 L 110.946 129.411 L 107.454 128.438 L 103.688 127.390 L 99.613 126.257 L 95.192 125.029 L 90.376 123.693 L 85.114 122.235 L 79.339 120.635 L 72.974 118.874 L 65.923 116.925 L 58.071 114.755 L 49.274 112.326 L 39.351 109.587 L 28.071 106.476 L 15.138 102.910 L 0.159 98.782 L -17.391 93.948 L -38.233 88.208 L -63.390 81.283 L -94.352 72.761 L -133.391 62.019 L -184.134 48.059 L -252.773 29.180 L -350.790 2.224 L -502.176 -39.405 L -766.806 -112.169 L -1347.621 -271.862 L -3651.945 -905.404 L 8181.446 2347.979 L 2166.415 694.241 L 1323.429 462.469 L 987.362 370.066 L 806.675 320.383 L 693.846 289.356 L 616.694 268.137 L 560.609 252.711 L 518.000 240.991 L 484.532 231.783 L 457.549 224.359 L 435.334 218.245 L 416.726 213.124 L 400.913 208.771 L 387.310 205.026 L 375.484 201.769 L 365.108 198.911 L 355.932 196.383 L 347.758 194.131 L 340.432 192.113 L 333.828 190.292 L 327.845 188.643 L 322.399 187.141 L 317.421 185.769 L 312.853 184.509 L 308.647 183.349 L 304.762 182.277 L 301.162 181.283 L 297.817 180.360 L 294.701 179.500 L 291.791 178.697 L 289.068 177.945 L 286.514 177.240 L 284.114 176.577 L 281.855 175.953 L 279.725 175.365 L 277.712 174.809 L 275.808 174.283 L 274.004 173.785 L 272.293 173.313 L 270.667 172.864 L 269.120 172.437 L 267.647 172.030 L 266.243 171.642 L 264.903 171.272 L 263.622 170.919 L 262.397 170.581 L 261.225 170.258 L 260.102 169.948 L 259.025 169.652 L 257.991 169.367 L 256.998 169.094 L 256.044 168.831 L 255.126 168.579 L 254.243 168.336 L 253.392 168.102 L 252.572 167.877 L 251.781 167.661 L 251.018 167.451 L 250.281 167.250 L 249.569 167.055 L 248.881 166.867 L 248.215 166.686 L 247.572 166.511 L 246.948 166.341 L 246.345 166.178 L 245.760 166.019 L 245.194 165.866 L 244.644 165.717 L 244.111 165.574 L 243.594 165.435 L 243.092 165.300 L 242.605 165.170 L 242.131 165.043 L 241.671 164.921 L 241.224 164.802 L 240.789 164.687 L 240.366 164.576 L 239.955 164.468 L 239.554 164.363 L 239.165 164.261 L 238.785 164.163 L 238.416 164.068 L 238.056 163.975 L 237.706 163.886 L 237.364 163.799 L 237.031 163.715 L 236.707 163.633 L 236.391 163.554 L 236.082 163.478 L 235.782 163.404 L 235.488 163.332 L 235.202 163.263 L 234.923 163.196 L 234.651 163.131 L 234.385 163.069 L 234.126 163.009 L 233.873 162.951 L 233.626 162.895 L 233.385 162.841 L 233.150 162.789 L 232.920 162.739 L 232.696 162.691 L 232.477 162.645 L 232.264 162.601 L 232.055 162.559 L 231.852 162.518 L 231.653 162.480 L 231.460 162.444 L 231.271 162.409 L 231.086 162.376 L 230.906 162.345 L 230.731 162.316 L 230.560 162.289 L 230.393 162.264 L 230.230 162.240 L 230.071 162.219 L 229.917 162.199 L 229.766 162.181 L 229.619 162.165 L 229.476 162.150 L 229.337 162.138 L 229.202 162.127 L 229.070 162.119 L 228.942 162.112 L 228.818 162.107 L 228.697 162.104 L 228.580 162.103 L 228.467 162.104 L 228.356 162.107 L 228.250 162.112 L 228.146 162.119 L 228.047 162.129 L 227.950 162.140 L 227.857 162.153 L 227.767 162.169 L 227.681 162.187 L 227.598 162.207 L 227.518 162.229 L 227.442 162.254 L 227.369 162.281 L 227.299 162.311 L 227.233 162.343 L 227.170 162.378 L 227.110 162.416 L 227.054 162.456 L 227.001 162.499 L 226.952 162.544 L 226.906 162.593 L 226.864 162.645 L 226.825 162.699 L 226.789 162.757 L 226.758 162.818 L 226.729 162.883 L 226.705 162.951 L 226.684 163.023 L 226.667 163.098 L 226.654 163.177 L 226.645 163.260 L 226.640 163.347 L 226.639 163.438 L 226.642 163.534 L 226.649 163.634 L 226.660 163.739 L 226.676 163.849 L 226.697 163.964 L 226.722 164.084 L 226.752 164.209 L 226.787 164.341 L 226.826 164.478 L 226.871 164.621 L 226.922 164.771 L 226.978 164.927 L 227.039 165.090 L 227.107 165.261 L 227.181 165.439 L 227.260 165.626 L 227.347 165.821 L 227.440 166.024 L 227.541 166.237 L 227.649 166.459 L 227.764 166.692 L 227.888 166.935 L 228.020 167.189 L 228.161 167.455 L 228.311 167.734 L 228.470 168.026 L 228.640 168.332 L 228.820 168.652 L 229.012 168.988 L 229.216 169.341 L 229.432 169.711 L 229.661 170.100 L 229.904 170.509 L 230.162 170.938 L 230.436 171.391 L 230.726 171.867 L 231.035 172.369 L 231.362 172.899 L 231.710 173.458 L 232.080 174.049 L 232.474 174.675 L 232.892 175.337 L 233.338 176.039 L 233.813 176.785 L 234.320 177.578 L 234.862 178.422 L 235.441 179.321 L 236.061 180.282 L 236.726 181.309 L 237.441 182.410 L 238.210 183.592 L 239.038 184.863 L 239.933 186.234 L 240.902 187.716 L 241.954 189.322 L 243.098 191.068 L 244.347 192.971 L 245.715 195.053 L 247.218 197.339 L 248.876 199.858 L 250.713 202.649 L 252.758 205.754 L 255.047 209.228 L 257.626 213.140 L 260.550 217.575 L 263.891 222.644 L 267.745 228.487 L 272.234 235.295 L 277.528 243.323 L 283.860 252.925 L 291.564 264.609 L 301.134 279.124 L 313.333 297.630 L 329.410 322.021 L 351.547 355.611 L 383.947 404.780 L 435.866 483.581 L 532.480 630.235 L 774.909 998.256 L 2505.061 3624.868 L -898.831 -1542.788 L -236.052 -536.615 L -69.034 -283.085 L 7.034 -167.632 L 50.529 -101.632 L 78.673 -58.938 L 98.366 -29.075 L 112.913 -7.028 L 124.093 9.908 L 132.950 23.316 L 140.138 34.187 L 146.086 43.174 L 151.086 50.721 L 155.348 57.146 L 159.021 62.676 L 162.220 67.483 L 165.028 71.697 L 167.513 75.417 L 169.727 78.724 L 171.710 81.681 L 173.497 84.336 L 175.115 86.733 L 176.585 88.906 L 177.928 90.881 L 179.157 92.684 L 180.287 94.334 L 181.329 95.848 L 182.292 97.241 L 183.185 98.525 L 184.015 99.711 L 184.787 100.809 L 185.508 101.826 L 186.182 102.770 L 186.813 103.647 L 187.405 104.464 L 187.962 105.223 L 188.486 105.931 L 188.979 106.591 L 189.445 107.207 L 189.885 107.782 L 190.302 108.318 L 190.696 108.819 L 191.070 109.286 L 191.425 109.722 L 191.762 110.128 L 192.082 110.507 L 192.387 110.860 L 192.678 111.188 L 192.954 111.493 L 193.218 111.776 L 193.470 112.038 L 193.711 112.280 L 193.940 112.503 L 194.160 112.708 L 194.370 112.895 L 194.571 113.066 L 194.764 113.221 L 194.948 113.360 L 195.125 113.485 L 195.295 113.595 L 195.457 113.692 L 195.613 113.776 L 195.763 113.846 L 195.907 113.904 L 196.045 113.949 L 196.177 113.983 L 196.305 114.005 L 196.427 114.016 L 196.545 114.015 L 196.658 114.004 L 196.766 113.982 L 196.871 113.949 L 196.971 113.906 L 197.068 113.852 L 197.160 113.789 L 197.250 113.715 L 197.335 113.631 L 197.418 113.538 L 197.497 113.434 L 197.573 113.320 L 197.646 113.197 L 197.716 113.064 L 197.784 112.920 L 197.849 112.767 L 197.911 112.604 L 197.970 112.431 L 198.027 112.248 L 198.082 112.054 L 198.135 111.850 L 198.185 111.636 L 198.233 111.411 L 198.278 111.176 L 198.322 110.929 L 198.363 110.672 L 198.403 110.403 L 198.440 110.123 L 198.476 109.831 L 198.510 109.527 L 198.542 109.211 L 198.572 108.882 L 198.600 108.540 L 198.626 108.186 L 198.651 107.817 L 198.674 107.435 L 198.695 107.038 L 198.715 106.626 L 198.732 106.199 L 198.748 105.756 L 198.763 105.296 L 198.775 104.820 L 198.786 104.326 L 198.796 103.814 L 198.803 103.283 L 198.809 102.732 L 198.814 102.161 L 198.816 101.568 L 198.817 100.953 L 198.816 100.315 L 198.813 99.653 L 198.808 98.965 L 198.801 98.250 L 198.793 97.508 L 198.783 96.736 L 198.770 95.934 L 198.756 95.099 L 198.739 94.230 L 198.720 93.326 L 198.699 92.383 L 198.676 91.400 L 198.650 90.375 L 198.621 89.305 L 198.590 88.187 L 198.556 87.019 L 198.519 85.796 L 198.479 84.516 L 198.436 83.175 L 198.390 81.769 L 198.340 80.292 L 198.286 78.740 L 198.227 77.107 L 198.165 75.387 L 198.098 73.573 L 198.026 71.658 L 197.948 69.632 L 197.865 67.488 L 197.775 65.213 L 197.679 62.796 L 197.575 60.224 L 197.463 57.482 L 197.342 54.552 L 197.211 51.416 L 197.069 48.049 L 196.916 44.428 L 196.749 40.523 L 196.567 36.297 L 196.369 31.712 L 196.151 26.720 L 195.912 21.264 L 195.649 15.278 L 195.357 8.680 L 195.032 1.372 L 194.669 -6.766 L 194.261 -15.883 L 193.799 -26.167 L 193.273 -37.856 L 192.667 -51.259 L 191.964 -66.780 L 191.139 -84.964 L 190.157 -106.560 L 188.970 -132.626 L 187.507 -164.707 L 185.659 -205.154 L 183.255 -257.727 L 180.000 -328.840 L 175.348 -430.390 L 168.159 -587.231 L 155.586 -861.394 L 127.981 -1463.130 L 18.440 -3850.448 L 581.008 8409.127 L 295.060 2177.459 L 254.991 1304.110 L 239.021 955.938 L 230.437 768.741 L 225.080 651.846 L 221.418 571.913 L 218.758 513.806 L 216.738 469.661 L 215.153 434.986 L 213.875 407.030 L 212.825 384.013 L 211.945 364.733 L 211.199 348.349 L 210.557 334.254 L 210.000 322.000 L 209.512 311.249 L 209.080 301.741 L 208.696 293.271 L 208.352 285.680 L 208.043 278.837 L 207.762 272.637 L 207.507 266.993 L 207.275 261.834 L 207.061 257.101 L 206.865 252.742 L 206.684 248.716 L 206.516 244.985 L 206.361 241.518 L 206.216 238.289 L 206.081 235.274 L 205.954 232.452 L 205.835 229.805 L 205.724 227.318 L 205.619 224.976 L 205.521 222.768 L 205.427 220.683 L 205.339 218.709 L 205.255 216.840 L 205.176 215.066 L 205.100 213.381 L 205.029 211.778 L 204.960 210.251 L 204.895 208.796 L 204.832 207.407 L 204.773 206.080 L 204.716 204.811 L 204.661 203.596 L 204.608 202.432 L 204.557 201.316 L 204.509 200.245 L 204.462 199.216 L 204.417 198.228 L 204.373 197.277 L 204.331 196.362 L 204.290 195.480 L 204.251 194.631 L 204.213 193.811 L 204.176 193.021 L 204.140 192.258 L 204.105 191.521 L 204.071 190.808 L 204.038 190.119 L 204.005 189.453 L 203.974 188.808 L 203.943 188.183 L 203.913 187.578 L 203.884 186.992 L 203.855 186.424 L 203.827 185.872 L 203.800 185.338 L 203.773 184.818 L 203.746 184.315 L 203.720 183.825 L 203.694 183.350 L 203.669 182.888 L 203.644 182.439 L 203.619 182.002 L 203.595 181.577 L 203.571 181.164 L 203.547 180.762 L 203.523 180.371 L 203.500 179.990 L 203.477 179.620 L 203.453 179.259 L 203.431 178.907 L 203.408 178.564 L 203.385 178.231 L 203.362 177.906 L 203.340 177.589 L 203.317 177.280 L 203.294 176.979 L 203.272 176.685 L 203.249 176.399 L 203.227 176.120 L 203.204 175.848 L 203.181 175.583 L 203.158 175.324 L 203.135 175.072 L 203.112 174.826 L 203.089 174.587 L 203.065 174.353 L 203.042 174.125 L 203.018 173.903 L 202.994 173.686 L 202.969 173.475 L 202.945 173.269 L 202.920 173.068 L 202.895 172.873 L 202.869 172.682 L 202.843 172.497 L 202.817 172.316 L 202.790 172.140 L 202.763 171.969 L 202.736 171.802 L 202.708 171.640 L 202.680 171.483 L 202.651 171.329 L 202.621 171.181 L 202.591 171.036 L 202.561 170.896 L 202.530 170.760 L 202.498 170.628 L 202.465 170.500 L 202.432 170.376 L 202.399 170.256 L 202.364 170.141 L 202.329 170.029 L 202.293 169.921 L 202.256 169.817 L 202.218 169.717 L 202.179 169.621 L 202.140 169.529 L 202.099 169.441 L 202.058 169.357 L 202.015 169.276 L 201.971 169.200 L 201.926 169.127 L 201.880 169.058 L 201.833 168.993 L 201.785 168.932 L 201.735 168.875 L 201.684 168.822 L 201.631 168.773 L 201.577 168.728 L 201.522 168.687 L 201.465 168.650 L 201.406 168.617 L 201.346 168.588 L 201.283 168.564 L 201.219 168.544 L 201.153 168.528 L 201.085 168.517 L 201.015 168.510 L 200.943 168.507 L 200.868 168.510 L 200.792 168.517 L 200.712 168.529 L 200.631 168.546 L 200.546 168.568 L 200.459 168.595 L 200.369 168.627 L 200.276 168.665 L 200.180 168.709 L 200.080 168.758 L 199.977 168.813 L 199.871 168.874 L 199.761 168.941 L 199.647 169.014 L 199.528 169.095 L 199.406 169.182 L 199.279 169.276 L 199.148 169.378 L 199.011 169.487 L 198.870 169.604 L 198.723 169.729 L 198.571 169.862 L 198.412 170.005 L 198.248 170.157 L 198.076 170.318 L 197.898 170.489 L 197.713 170.671 L 197.520 170.863 L 197.318 171.068 L 197.109 171.284 L 196.890 171.512 L 196.662 171.755 L 196.423 172.010 L 196.174 172.281 L 195.914 172.567 L 195.641 172.870 L 195.356 173.190 L 195.057 173.528 L 194.744 173.885 L 194.415 174.264 L 194.069 174.664 L 193.706 175.087 L 193.324 175.536 L 192.921 176.011 L 192.497 176.515 L 192.049 177.049 L 191.576 177.617 L 191.075 178.219 L 190.545 178.860 L 189.982 179.543 L 189.385 180.270 L 188.750 181.046 L 188.074 181.875 L 187.352 182.761 L 186.580 183.711 L 185.754 184.731 L 184.868 185.827 L 183.914 187.008 L 182.887 188.283 L 181.777 189.663 L 180.574 191.159 L 179.268 192.787 L 177.844 194.563 L 176.287 196.507 L 174.577 198.643 L 172.693 200.998 L 170.607 203.607 L 168.286 206.512 L 165.689 209.763 L 162.765 213.424 L 159.450 217.575 L 155.663 222.320 L 151.296 227.790 L 146.209 234.164 L 140.210 241.679 L 133.034 250.669 L 124.303 261.606 L 113.455 275.193 L 99.625 292.514 L 81.396 315.341 L 56.291 346.774 L 19.540 392.782 L -39.360 466.512 L -148.981 603.716 L -424.075 948.004 L -2387.485 3405.144 L 1475.388 -1429.043 L 723.270 -487.778 L 533.760 -250.590 L 447.464 -142.567 L 398.135 -80.806 L 366.228 -40.847 L 343.912 -12.889 L 327.438 7.759 L 314.787 23.625 L 304.772 36.192 L 296.654 46.387 L 289.945 54.821 L 284.312 61.909 L 279.519 67.947 L 275.395 73.150 L 271.811 77.677 L 268.672 81.650 L 265.901 85.164 L 263.440 88.291 L 261.241 91.091 L 259.268 93.611 L 257.488 95.890 L 255.876 97.960 L 254.412 99.847 L 253.078 101.573 L 251.858 103.158 L 250.740 104.617 L 249.713 105.963 L 248.767 107.209 L 247.895 108.364 L 247.090 109.438 L 246.346 110.438 L 245.656 111.371 L 245.017 112.242 L 244.423 113.058 L 243.873 113.822 L 243.361 114.539 L 242.886 115.212 L 242.444 115.846 L 242.034 116.442 L 241.653 117.004 L 241.298 117.533 L 240.970 118.033 L 240.665 118.505 L 240.382 118.952 L 240.121 119.373 L 239.880 119.772 L 239.657 120.150 L 239.453 120.507 L 239.265 120.846 L 239.094 121.166 L 238.938 121.470 L 238.797 121.757 L 238.670 122.029 L 238.557 122.287 L 238.457 122.531 L 238.369 122.762 L 238.293 122.981 L 238.229 123.188 L 238.176 123.383 L 238.135 123.567 L 238.104 123.742 L 238.083 123.906 L 238.072 124.060 L 238.072 124.206 L 238.081 124.342 L 238.099 124.470 L 238.127 124.590 L 238.163 124.701 L 238.209 124.805 L 238.264 124.902 L 238.327 124.991 L 238.399 125.073 L 238.480 125.148 L 238.569 125.217 L 238.667 125.279 L 238.773 125.335 L 238.888 125.384 L 239.011 125.427 L 239.142 125.465 L 239.282 125.496 L 239.431 125.522 L 239.588 125.542 L 239.753 125.556 L 239.928 125.565 L 240.111 125.568 L 240.303 125.565 L 240.504 125.558 L 240.714 125.544 L 240.933 125.526 L 241.162 125.502 L 241.400 125.473 L 241.647 125.438 L 241.905 125.398 L 242.173 125.352 L 242.451 125.302 L 242.740 125.245 L 243.039 125.183 L 243.350 125.116 L 243.672 125.043 L 244.005 124.964 L 244.351 124.880 L 244.709 124.789 L 245.080 124.693 L 245.464 124.590 L 245.862 124.482 L 246.273 124.367 L 246.700 124.245 L 247.141 124.117 L 247.598 123.982 L 248.071 123.839 L 248.561 123.690 L 249.068 123.533 L 249.594 123.369 L 250.139 123.196 L 250.703 123.015 L 251.288 122.826 L 251.895 122.628 L 252.524 122.420 L 253.177 122.203 L 253.854 121.976 L 254.558 121.739 L 255.288 121.490 L 256.048 121.230 L 256.837 120.959 L 257.658 120.674 L 258.513 120.377 L 259.403 120.065 L 260.330 119.739 L 261.297 119.398 L 262.306 119.040 L 263.360 118.665 L 264.460 118.272 L 265.612 117.859 L 266.816 117.426 L 268.078 116.970 L 269.402 116.491 L 270.791 115.987 L 272.250 115.456 L 273.785 114.897 L 275.402 114.306 L 277.106 113.681 L 278.905 113.021 L 280.808 112.321 L 282.822 111.579 L 284.958 110.791 L 287.226 109.952 L 289.640 109.059 L 292.214 108.105 L 294.962 107.084 L 297.905 105.991 L 301.063 104.816 L 304.459 103.551 L 308.122 102.185 L 312.085 100.707 L 316.384 99.101 L 321.065 97.352 L 326.179 95.438 L 331.791 93.338 L 337.976 91.021 L 344.826 88.454 L 352.454 85.594 L 360.998 82.389 L 370.636 78.772 L 381.591 74.659 L 394.150 69.941 L 408.695 64.476 L 425.734 58.072 L 445.970 50.465 L 470.393 41.281 L 500.451 29.976 L 538.347 15.720 L 587.605 -2.813 L 654.231 -27.884 L 749.374 -63.689 L 896.317 -118.993 L 1153.176 -215.671 L 1716.930 -427.871 L 3953.555 -1269.772 L -7532.151 3053.678 L -1693.846 856.034 L -875.623 548.046 L -549.427 425.267 L -374.045 359.256 L -264.526 318.039 L -189.637 289.855 L -135.196 269.369 L -93.835 253.807 L -61.347 241.584 L -35.154 231.730 L -13.589 223.618 L 4.476 216.824 L 19.828 211.051 L 33.034 206.086 L 44.516 201.769 L 54.590 197.982 L 63.500 194.633 L 71.436 191.651 L 78.549 188.978 L 84.962 186.569 L 90.772 184.387 L 96.061 182.400 L 100.895 180.585 L 105.331 178.919 L 109.415 177.386 L 113.189 175.969 L 116.685 174.657 L 119.934 173.438 L 122.961 172.302 L 125.787 171.241 L 128.431 170.249 L 130.912 169.318 L 133.243 168.444 L 135.437 167.621 L 137.507 166.844 L 139.462 166.111 L 141.311 165.417 L 143.063 164.760 L 144.726 164.136 L 146.305 163.544 L 147.807 162.980 L 149.238 162.444 L 150.602 161.932 L 151.904 161.443 L 153.147 160.976 L 154.337 160.530 L 155.475 160.102 L 156.566 159.692 L 157.612 159.299 L 158.615 158.922 L 159.579 158.560 L 160.505 158.211 L 161.396 157.876 L 162.254 157.553 L 163.079 157.242 L 163.875 156.942 L 164.642 156.652 L 165.383 156.373 L 166.098 156.103 L 166.788 155.842 L 167.455 155.589 L 168.100 155.345 L 168.724 155.108 L 169.327 154.879 L 169.912 154.657 L 170.478 154.442 L 171.026 154.233 L 171.558 154.030 L 172.074 153.833 L 172.574 153.641 L 173.059 153.455 L 173.530 153.274 L 173.988 153.098 L 174.432 152.926 L 174.863 152.760 L 175.283 152.597 L 175.690 152.439 L 176.087 152.284 L 176.472 152.134 L 176.847 151.987 L 177.212 151.843 L 177.567 151.704 L 177.912 151.567 L 178.248 151.433 L 178.576 151.303 L 178.894 151.175 L 179.205 151.051 L 179.507 150.928 L 179.801 150.809 L 180.088 150.692 L 180.367 150.578 L 180.640 150.465 L 180.905 150.356 L 181.163 150.248 L 181.415 150.142 L 181.660 150.039 L 181.899 149.937 L 182.131 149.837 L 182.358 149.739 L 182.579 149.643 L 182.794 149.548 L 183.004 149.455 L 183.208 149.364 L 183.406 149.274 L 183.600 149.186 L 183.788 149.099 L 183.971 149.013 L 184.149 148.929 L 184.322 148.845 L 184.491 148.763 L 184.654 148.683 L 184.813 148.603 L 184.968 148.524 L 185.118 148.447 L 185.263 148.370 L 185.405 148.294 L 185.541 148.220 L 185.674 148.146 L 185.802 148.072 L 185.926 148.000 L 186.046 147.928 L 186.161 147.857 L 186.273 147.787 L 186.380 147.717 L 186.484 147.648 L 186.583 147.580 L 186.679 147.511 L 186.770 147.444 L 186.857 147.377 L 186.941 147.310 L 187.020 147.243 L 187.095 147.177 L 187.167 147.111 L 187.234 147.046 L 187.298 146.980 L 187.357 146.915 L 187.412 146.850 L 187.464 146.785 L 187.511 146.720 L 187.554 146.655 L 187.593 146.590 L 187.627 146.525 L 187.658 146.460 L 187.684 146.395 L 187.706 146.329 L 187.724 146.264 L 187.737 146.198 L 187.745 146.131 L 187.749 146.064 L 187.748 145.997 L 187.743 145.930 L 187.733 145.862 L 187.718 145.793 L 187.697 145.723 L 187.672 145.653 L 187.642 145.582 L 187.606 145.511 L 187.564 145.438 L 187.517 145.365 L 187.465 145.290 L 187.406 145.214 L 187.341 145.138 L 187.270 145.059 L 187.193 144.980 L 187.109 144.899 L 187.018 144.817 L 186.920 144.733 L 186.815 144.647 L 186.702 144.560 L 186.581 144.470 L 186.452 144.379 L 186.315 144.285 L 186.169 144.189 L 186.014 144.091 L 185.850 143.990 L 185.676 143.886 L 185.491 143.779 L 185.296 143.669 L 185.090 143.556 L 184.872 143.440 L 184.642 143.320 L 184.399 143.196 L 184.143 143.067 L 183.872 142.935 L 183.587 142.797 L 183.286 142.655 L 182.969 142.508 L 182.635 142.354 L 182.282 142.195 L 181.910 142.029 L 181.518 141.857 L 181.104 141.677 L 180.667 141.489 L 180.206 141.293 L 179.718 141.088 L 179.203 140.874 L 178.659 140.649 L 178.082 140.413 L 177.472 140.165 L 176.825 139.904 L 176.140 139.629 L 175.412 139.339 L 174.638 139.033 L 173.815 138.709 L 172.939 138.366 L 172.005 138.002 L 171.008 137.615 L 169.941 137.202 L 168.799 136.762 L 167.574 136.291 L 166.258 135.787 L 164.840 135.245 L 163.310 134.662 L 161.655 134.033 L 159.860 133.352 L 157.908 132.612 L 155.779 131.807 L 153.449 130.926 L 150.890 129.960 L 148.067 128.896 L 144.941 127.719 L 141.461 126.409 L 137.567 124.943 L 133.182 123.294 L 128.209 121.425 L 122.527 119.289 L 115.975 116.826 L 108.341 113.957 L 99.339 110.574 L 88.573 106.528 L 75.473 101.603 L 59.199 95.485 L 38.451 87.684 L 11.108 77.401 L -26.544 63.238 L -81.657 42.504 L -169.979 9.270 L -334.342 -52.587 L -746.789 -207.827 L -3690.395 -1315.843 L 2100.884 864.122 L 973.270 439.683 L 689.129 332.743 L 559.726 284.051 L 485.744 256.222 L 437.881 238.224 L 404.396 225.640 L 379.668 216.354 L 360.669 209.224 L 345.622 203.583 L 333.417 199.013 L 323.323 195.238 L 314.841 192.071 L 307.618 189.379 L 301.395 187.064 L 295.982 185.055 L 291.233 183.297 L 287.035 181.747 L 283.301 180.373 L 279.958 179.148 L 276.952 178.049 L 274.234 177.061 L 271.768 176.168 L 269.521 175.358 L 267.466 174.623 L 265.582 173.952 L 263.849 173.340 L 262.251 172.779 L 260.774 172.265 L 259.406 171.793 L 258.136 171.359 L 256.955 170.959 L 255.855 170.592 L 254.828 170.253 L 253.870 169.941 L 252.973 169.653 L 252.133 169.388 L 251.345 169.145 L 250.607 168.920 L 249.913 168.714 L 249.261 168.525 L 248.647 168.352 L 248.070 168.194 L 247.527 168.050 L 247.015 167.919 L 246.533 167.801 L 246.079 167.694 L 245.652 167.600 L 245.248 167.516 L 244.869 167.442 L 244.511 167.378 L 244.174 167.324 L 243.857 167.278 L 243.559 167.242 L 243.279 167.214 L 243.016 167.194 L 242.769 167.182 L 242.538 167.177 L 242.321 167.180 L 242.119 167.190 L 241.931 167.208 L 241.756 167.232 L 241.593 167.263 L 241.443 167.301 L 241.304 167.345 L 241.177 167.395 L 241.061 167.452 L 240.956 167.516 L 240.861 167.585 L 240.777 167.661 L 240.702 167.743 L 240.637 167.830 L 240.581 167.924 L 240.534 168.024 L 240.496 168.130 L 240.468 168.243 L 240.447 168.361 L 240.436 168.485 L 240.433 168.616 L 240.438 168.752 L 240.451 168.895 L 240.473 169.044 L 240.502 169.200 L 240.540 169.362 L 240.586 169.530 L 240.639 169.705 L 240.701 169.887 L 240.770 170.076 L 240.848 170.271 L 240.933 170.474 L 241.026 170.684 L 241.128 170.902 L 241.237 171.126 L 241.355 171.359 L 241.481 171.600 L 241.615 171.849 L 241.758 172.106 L 241.910 172.371 L 242.070 172.646 L 242.239 172.930 L 242.417 173.223 L 242.604 173.525 L 242.801 173.838 L 243.007 174.161 L 243.223 174.494 L 243.449 174.839 L 243.686 175.195 L 243.933 175.563 L 244.192 175.943 L 244.461 176.336 L 244.743 176.742 L 245.036 177.161 L 245.342 177.596 L 245.661 178.045 L 245.994 178.509 L 246.340 178.990 L 246.701 179.488 L 247.077 180.004 L 247.468 180.538 L 247.877 181.092 L 248.302 181.666 L 248.745 182.262 L 249.207 182.880 L 249.689 183.522 L 250.191 184.188 L 250.715 184.882 L 251.262 185.602 L 251.834 186.353 L 252.430 187.134 L 253.054 187.948 L 253.706 188.797 L 254.388 189.683 L 255.102 190.608 L 255.851 191.576 L 256.635 192.588 L 257.458 193.647 L 258.323 194.758 L 259.231 195.923 L 260.187 197.147 L 261.194 198.434 L 262.256 199.789 L 263.376 201.217 L 264.560 202.724 L 265.814 204.317 L 267.142 206.003 L 268.551 207.791 L 270.050 209.689 L 271.646 211.709 L 273.348 213.861 L 275.168 216.160 L 277.118 218.621 L 279.211 221.261 L 281.463 224.101 L 283.894 227.162 L 286.525 230.474 L 289.380 234.066 L 292.490 237.977 L 295.891 242.251 L 299.623 246.939 L 303.737 252.105 L 308.295 257.827 L 313.372 264.197 L 319.061 271.333 L 325.480 279.382 L 332.776 288.529 L 341.144 299.016 L 350.836 311.160 L 362.192 325.386 L 375.680 342.280 L 391.961 362.670 L 412.002 387.764 L 437.271 419.400 L 470.118 460.520 L 514.550 516.138 L 578.004 595.560 L 676.009 718.221 L 847.329 932.633 L 1223.353 1403.222 L 2715.204 3270.216 L -4945.920 -6317.319 L -1051.701 -1443.870 L -505.943 -760.868 L -288.372 -488.578 L -171.397 -342.178 L -98.353 -250.757 L -48.407 -188.242 L -12.100 -142.796 L 15.482 -108.269 L 37.146 -81.148 L 54.611 -59.282 L 68.990 -41.278 L 81.034 -26.197 L 91.268 -13.381 L 100.072 -2.355 L 107.725 7.231 L 114.440 15.642 L 120.378 23.080 L 125.667 29.707 L 130.407 35.646 L 134.680 41.000 L 138.551 45.852 L 142.074 50.268 L 145.295 54.304 L 148.249 58.008 L 150.970 61.419 L 153.483 64.570 L 155.812 67.490 L 157.976 70.203 L 159.991 72.730 L 161.873 75.090 L 163.634 77.299 L 165.285 79.371 L 166.837 81.317 L 168.298 83.150 L 169.676 84.878 L 170.978 86.511 L 172.209 88.055 L 173.376 89.519 L 174.482 90.907 L 175.534 92.226 L 176.534 93.480 L 177.487 94.675 L 178.395 95.814 L 179.262 96.901 L 180.090 97.940 L 180.883 98.933 L 181.641 99.884 L 182.368 100.794 L 183.065 101.667 L 183.734 102.505 L 184.376 103.310 L 184.994 104.083 L 185.588 104.827 L 186.160 105.543 L 186.711 106.232 L 187.242 106.896 L 187.755 107.536 L 188.249 108.154 L 188.727 108.750 L 189.189 109.326 L 189.635 109.882 L 190.067 110.420 L 190.484 110.941 L 190.889 111.444 L 191.281 111.931 L 191.661 112.403 L 192.029 112.860 L 192.386 113.303 L 192.733 113.732 L 193.070 114.149 L 193.397 114.553 L 193.714 114.945 L 194.023 115.325 L 194.323 115.695 L 194.616 116.054 L 194.900 116.402 L 195.176 116.741 L 195.446 117.070 L 195.708 117.390 L 195.964 117.702 L 196.213 118.004 L 196.455 118.299 L 196.692 118.585 L 196.923 118.863 L 197.148 119.134 L 197.368 119.398 L 197.583 119.655 L 197.792 119.904 L 197.997 120.147 L 198.196 120.384 L 198.392 120.614 L 198.582 120.838 L 198.769 121.057 L 198.951 121.269 L 199.129 121.476 L 199.304 121.677 L 199.474 121.873 L 199.641 122.063 L 199.804 122.248 L 199.964 122.429 L 200.120 122.604 L 200.274 122.775 L 200.423 122.940 L 200.570 123.101 L 200.714 123.258 L 200.855 123.410 L 200.993 123.558 L 201.128 123.701 L 201.261 123.840 L 201.391 123.975 L 201.519 124.106 L 201.643 124.233 L 201.766 124.355 L 201.886 124.474 L 202.004 124.588 L 202.120 124.699 L 202.233 124.806 L 202.344 124.909 L 202.454 125.009 L 202.561 125.104 L 202.666 125.196 L 202.769 125.284 L 202.871 125.368 L 202.970 125.449 L 203.068 125.526 L 203.164 125.599 L 203.258 125.669 L 203.350 125.735 L 203.441 125.797 L 203.531 125.856 L 203.618 125.911 L 203.705 125.962 L 203.789 126.010 L 203.872 126.054 L 203.954 126.094 L 204.035 126.130 L 204.114 126.163 L 204.191 126.191 L 204.268 126.216 L 204.343 126.237 L 204.417 126.254 L 204.489 126.267 L 204.560 126.276 L 204.631 126.280 L 204.700 126.281 L 204.768 126.277 L 204.834 126.269 L 204.900 126.257 L 204.965 126.240 L 205.029 126.219 L 205.091 126.193 L 205.153 126.162 L 205.214 126.126 L 205.273 126.085 L 205.332 126.040 L 205.390 125.989 L 205.447 125.933 L 205.504 125.871 L 205.559 125.803 L 205.614 125.730 L 205.667 125.651 L 205.720 125.566 L 205.773 125.474 L 205.824 125.376 L 205.875 125.271 L 205.926 125.159 L 205.975 125.040 L 206.024 124.913 L 206.072 124.779 L 206.120 124.637 L 206.167 124.486 L 206.214 124.326 L 206.260 124.158 L 206.306 123.980 L 206.351 123.793 L 206.396 123.595 L 206.441 123.387 L 206.485 123.167 L 206.528 122.936 L 206.572 122.693 L 206.615 122.437 L 206.658 122.167 L 206.701 121.884 L 206.743 121.586 L 206.786 121.272 L 206.828 120.942 L 206.871 120.595 L 206.913 120.230 L 206.956 119.845 L 206.998 119.440 L 207.041 119.014 L 207.084 118.564 L 207.128 118.091 L 207.171 117.592 L 207.216 117.065 L 207.261 116.508 L 207.306 115.921 L 207.353 115.300 L 207.400 114.643 L 207.448 113.947 L 207.498 113.210 L 207.548 112.428 L 207.600 111.598 L 207.654 110.715 L 207.710 109.776 L 207.768 108.775 L 207.828 107.707 L 207.891 106.565 L 207.956 105.343 L 208.025 104.033 L 208.098 102.625 L 208.175 101.109 L 208.257 99.474 L 208.344 97.705 L 208.437 95.787 L 208.538 93.703 L 208.646 91.429 L 208.763 88.941 L 208.891 86.208 L 209.030 83.195 L 209.184 79.858 L 209.355 76.144 L 209.545 71.987 L 209.759 67.307 L 210.000 62.000 L 210.275 55.936 L 210.593 48.943 L 210.962 40.797 L 211.398 31.190 L 211.920 19.700 L 212.554 5.719 L 213.344 -11.648 L 214.352 -33.791 L 215.682 -62.973 L 217.517 -103.160 L 220.206 -161.983 L 224.520 -256.252 L 232.559 -431.685 L 252.747 -871.917 L 396.909 -4013.848 L 113.243 2167.631 L 168.457 964.048 L 182.358 660.767 L 188.679 522.652 L 192.285 443.691 L 194.611 392.609 L 196.231 356.874 L 197.422 330.486 L 198.332 310.214 L 199.047 294.160 L 199.622 281.140 L 200.093 270.374 L 200.484 261.329 L 200.812 253.627 L 201.090 246.993 L 201.328 241.224 L 201.533 236.165 L 201.709 231.694 L 201.862 227.717 L 201.995 224.160 L 202.111 220.961 L 202.211 218.071 L 202.298 215.449 L 202.373 213.062 L 202.438 210.881 L 202.494 208.881 L 202.541 207.044 L 202.580 205.351 L 202.613 203.787 L 202.639 202.340 L 202.659 200.998 L 202.674 199.752 L 202.684 198.592 L 202.689 197.511 L 202.689 196.503 L 202.686 195.561 L 202.678 194.680 L 202.667 193.856 L 202.652 193.084 L 202.633 192.360 L 202.612 191.682 L 202.587 191.045 L 202.559 190.447 L 202.528 189.886 L 202.494 189.359 L 202.458 188.864 L 202.419 188.399 L 202.377 187.963 L 202.332 187.554 L 202.285 187.170 L 202.235 186.810 L 202.183 186.473 L 202.128 186.157 L 202.070 185.863 L 202.011 185.587 L 201.948 185.331 L 201.883 185.093 L 201.816 184.871 L 201.746 184.666 L 201.674 184.477 L 201.600 184.304 L 201.522 184.144 L 201.443 183.999 L 201.360 183.868 L 201.276 183.750 L 201.188 183.645 L 201.098 183.552 L 201.005 183.472 L 200.910 183.403 L 200.812 183.346 L 200.711 183.300 L 200.607 183.265 L 200.501 183.241 L 200.391 183.227 L 200.279 183.224 L 200.163 183.232 L 200.045 183.249 L 199.923 183.276 L 199.798 183.314 L 199.669 183.361 L 199.538 183.418 L 199.402 183.484 L 199.264 183.561 L 199.121 183.646 L 198.975 183.742 L 198.825 183.847 L 198.671 183.962 L 198.513 184.086 L 198.351 184.220 L 198.185 184.364 L 198.014 184.518 L 197.838 184.681 L 197.658 184.855 L 197.473 185.039 L 197.283 185.233 L 197.088 185.438 L 196.888 185.653 L 196.682 185.879 L 196.470 186.116 L 196.253 186.364 L 196.029 186.624 L 195.799 186.896 L 195.563 187.180 L 195.319 187.475 L 195.069 187.784 L 194.811 188.106 L 194.546 188.441 L 194.272 188.790 L 193.991 189.153 L 193.700 189.531 L 193.401 189.924 L 193.093 190.333 L 192.774 190.758 L 192.446 191.200 L 192.107 191.660 L 191.756 192.138 L 191.394 192.635 L 191.020 193.152 L 190.633 193.689 L 190.232 194.249 L 189.818 194.831 L 189.388 195.436 L 188.943 196.067 L 188.482 196.723 L 188.003 197.407 L 187.505 198.120 L 186.989 198.863 L 186.452 199.638 L 185.893 200.447 L 185.311 201.291 L 184.705 202.174 L 184.074 203.096 L 183.414 204.062 L 182.726 205.072 L 182.006 206.131 L 181.252 207.241 L 180.463 208.407 L 179.636 209.631 L 178.767 210.918 L 177.854 212.273 L 176.894 213.702 L 175.882 215.208 L 174.815 216.800 L 173.687 218.485 L 172.494 220.269 L 171.229 222.162 L 169.887 224.174 L 168.459 226.316 L 166.938 228.600 L 165.314 231.041 L 163.576 233.656 L 161.712 236.462 L 159.707 239.482 L 157.547 242.740 L 155.210 246.265 L 152.676 250.091 L 149.917 254.258 L 146.904 258.812 L 143.598 263.810 L 139.956 269.319 L 135.923 275.422 L 131.434 282.219 L 126.405 289.835 L 120.734 298.427 L 114.289 308.193 L 106.901 319.392 L 98.347 332.362 L 88.326 347.558 L 76.426 365.607 L 62.066 387.392 L 44.393 414.206 L 22.114 448.014 L -6.843 491.961 L -46.009 551.406 L -101.935 636.296 L -188.308 767.408 L -339.285 996.601 L -670.644 1499.641 L -1985.254 3495.408 L 4765.617 -6753.465 L 1334.072 -1543.864 L 853.146 -813.757 L 661.416 -522.693 L 558.329 -366.203 L 493.954 -268.484 L 449.933 -201.664 L 417.930 -153.091 L 393.616 -116.189 L 374.518 -87.205 L 359.119 -63.837 L 346.440 -44.599 L 335.819 -28.484 L 326.792 -14.790 L 319.026 -3.010 L 312.275 7.231 L 306.351 16.216 L 301.111 24.162 L 296.443 31.239 L 292.259 37.583 L 288.488 43.301 L 285.070 48.482 L 281.959 53.198 L 279.115 57.508 L 276.505 61.463 L 274.102 65.104 L 271.882 68.468 L 269.825 71.585 L 267.913 74.481 L 266.132 77.179 L 264.469 79.698 L 262.913 82.055 L 261.453 84.266 L 260.081 86.344 L 258.790 88.300 L 257.572 90.144 L 256.421 91.886 L 255.333 93.535 L 254.302 95.096 L 253.323 96.578 L 252.394 97.986 L 251.510 99.325 L 250.668 100.600 L 249.865 101.816 L 249.099 102.976 L 248.368 104.085 L 247.668 105.145 L 246.998 106.160 L 246.357 107.133 L 245.742 108.065 L 245.151 108.960 L 244.585 109.820 L 244.040 110.647 L 243.516 111.442 L 243.013 112.207 L 242.527 112.944 L 242.060 113.654 L 241.609 114.340 L 241.175 115.001 L 240.755 115.639 L 240.350 116.256 L 239.959 116.853 L 239.581 117.429 L 239.215 117.988 L 238.861 118.528 L 238.519 119.051 L 238.188 119.558 L 237.867 120.050 L 237.556 120.526 L 237.255 120.989 L 236.963 121.438 L 236.679 121.874 L 236.405 122.297 L 236.138 122.708 L 235.880 123.108 L 235.629 123.497 L 235.385 123.875 L 235.148 124.242 L 234.918 124.600 L 234.695 124.949 L 234.478 125.288 L 234.267 125.618 L 234.062 125.940 L 233.863 126.254 L 233.670 126.559 L 233.481 126.857 L 233.299 127.148 L 233.121 127.431 L 232.948 127.707 L 232.780 127.977 L 232.617 128.240 L 232.458 128.497 L 232.304 128.748 L 232.154 128.993 L 232.008 129.231 L 231.867 129.465 L 231.729 129.693 L 231.596 129.916 L 231.466 130.133 L 231.341 130.346 L 231.218 130.553 L 231.100 130.756 L 230.985 130.955 L 230.874 131.148 L 230.766 131.338 L 230.662 131.523 L 230.560 131.704 L 230.463 131.881 L 230.368 132.054 L 230.277 132.223 L 230.189 132.388 L 230.104 132.550 L 230.022 132.708 L 229.943 132.862 L 229.867 133.013 L 229.795 133.161 L 229.725 133.305 L 229.658 133.446 L 229.595 133.584 L 229.534 133.718 L 229.476 133.850 L 229.422 133.978 L 229.370 134.103 L 229.321 134.226 L 229.275 134.345 L 229.232 134.462 L 229.192 134.576 L 229.155 134.687 L 229.120 134.796 L 229.089 134.901 L 229.061 135.004 L 229.036 135.105 L 229.014 135.203 L 228.995 135.298 L 228.979 135.391 L 228.966 135.481 L 228.956 135.568 L 228.950 135.654 L 228.946 135.736 L 228.946 135.817 L 228.950 135.894 L 228.956 135.970 L 228.967 136.043 L 228.980 136.114 L 228.997 136.182 L 229.018 136.248 L 229.043 136.311 L 229.071 136.372 L 229.103 136.431 L 229.139 136.487 L 229.179 136.541 L 229.223 136.593 L 229.272 136.642 L 229.324 136.688 L 229.381 136.733 L 229.443 136.775 L 229.509 136.814 L 229.580 136.851 L 229.657 136.885 L 229.738 136.917 L 229.824 136.946 L 229.916 136.973 L 230.014 136.997 L 230.117 137.019 L 230.226 137.038 L 230.342 137.054 L 230.464 137.067 L 230.593 137.077 L 230.728 137.085 L 230.871 137.089 L 231.021 137.090 L 231.179 137.089 L 231.345 137.084 L 231.519 137.076 L 231.703 137.064 L 231.895 137.049 L 232.097 137.031 L 232.309 137.009 L 232.531 136.983 L 232.765 136.953 L 233.009 136.919 L 233.266 136.881 L 233.536 136.839 L 233.818 136.792 L 234.115 136.740 L 234.426 136.684 L 234.753 136.622 L 235.097 136.555 L 235.457 136.483 L 235.836 136.404 L 236.234 136.320 L 236.653 136.229 L 237.094 136.131 L 237.558 136.026 L 238.046 135.913 L 238.561 135.792 L 239.104 135.663 L 239.677 135.525 L 240.282 135.377 L 240.921 135.219 L 241.598 135.050 L 242.314 134.869 L 243.073 134.676 L 243.879 134.469 L 244.735 134.247 L 245.645 134.010 L 246.615 133.756 L 247.650 133.483 L 248.755 133.190 L 249.938 132.875 L 251.205 132.535 L 252.567 132.170 L 254.032 131.774 L 255.613 131.347 L 257.322 130.883 L 259.174 130.379 L 261.188 129.830 L 263.384 129.230 L 265.786 128.573 L 268.425 127.850 L 271.333 127.052 L 274.555 126.167 L 278.140 125.182 L 282.152 124.078 L 286.669 122.835 L 291.791 121.425 L 297.644 119.813 L 304.392 117.954 L 312.254 115.788 L 321.525 113.233 L 332.614 110.179 L 346.106 106.462 L 362.868 101.846 L 384.239 95.963 L 412.403 88.210 L 451.190 77.536 L 507.965 61.916 L 598.953 36.889 L 768.285 -9.678 L 1193.208 -126.517 L 4225.911 -960.321 L -1740.683 680.078 L -578.945 360.663 L -286.212 280.164 L -152.903 243.496 L -76.693 222.525 L -27.392 208.952 L 7.095 199.451 L 32.558 192.429 L 52.120 187.030 L 67.608 182.749 L 80.169 179.272 L 90.554 176.393 L 99.277 173.970 L 106.704 171.902 L 113.099 170.117 L 118.659 168.561 L 123.534 167.192 L 127.841 165.978 L 131.670 164.895 L 135.094 163.922 L 138.172 163.043 L 140.952 162.245 L 143.472 161.518 L 145.766 160.852 L 147.860 160.240 L 149.779 159.675 L 151.541 159.152 L 153.163 158.666 L 154.660 158.214 L 156.045 157.791 L 157.327 157.396 L 158.518 157.025 L 159.624 156.676 L 160.653 156.346 L 161.612 156.035 L 162.507 155.741 L 163.342 155.461 L 164.122 155.196 L 164.852 154.943 L 165.535 154.702 L 166.173 154.472 L 166.771 154.251 L 167.331 154.040 L 167.855 153.837 L 168.346 153.642 L 168.805 153.455 L 169.235 153.274 L 169.637 153.099 L 170.012 152.930 L 170.363 152.767 L 170.690 152.608 L 170.994 152.454 L 171.277 152.304 L 171.540 152.159 L 171.783 152.017 L 172.008 151.878 L 172.215 151.743 L 172.404 151.611 L 172.578 151.481 L 172.735 151.354 L 172.877 151.229 L 173.005 151.107 L 173.118 150.986 L 173.218 150.867 L 173.304 150.750 L 173.377 150.634 L 173.437 150.520 L 173.485 150.407 L 173.521 150.295 L 173.545 150.184 L 173.557 150.074 L 173.558 149.964 L 173.548 149.856 L 173.527 149.747 L 173.496 149.639 L 173.453 149.532 L 173.400 149.424 L 173.336 149.317 L 173.262 149.210 L 173.177 149.102 L 173.083 148.994 L 172.978 148.886 L 172.862 148.778 L 172.737 148.669 L 172.601 148.560 L 172.454 148.449 L 172.298 148.338 L 172.131 148.227 L 171.953 148.114 L 171.765 148.000 L 171.566 147.885 L 171.356 147.769 L 171.135 147.651 L 170.903 147.532 L 170.660 147.411 L 170.405 147.289 L 170.138 147.165 L 169.859 147.039 L 169.569 146.911 L 169.265 146.781 L 168.949 146.648 L 168.620 146.514 L 168.277 146.376 L 167.920 146.236 L 167.549 146.094 L 167.163 145.948 L 166.763 145.799 L 166.346 145.647 L 165.914 145.491 L 165.465 145.332 L 164.999 145.169 L 164.514 145.002 L 164.012 144.830 L 163.490 144.654 L 162.948 144.474 L 162.385 144.288 L 161.800 144.098 L 161.193 143.902 L 160.562 143.700 L 159.906 143.491 L 159.225 143.277 L 158.516 143.056 L 157.779 142.827 L 157.012 142.591 L 156.214 142.347 L 155.382 142.094 L 154.516 141.832 L 153.613 141.561 L 152.671 141.280 L 151.688 140.988 L 150.661 140.684 L 149.589 140.368 L 148.467 140.039 L 147.293 139.697 L 146.064 139.339 L 144.775 138.966 L 143.423 138.575 L 142.003 138.167 L 140.510 137.739 L 138.939 137.289 L 137.284 136.817 L 135.538 136.321 L 133.694 135.797 L 131.744 135.245 L 129.678 134.662 L 127.487 134.044 L 125.159 133.389 L 122.680 132.693 L 120.038 131.952 L 117.214 131.162 L 114.191 130.317 L 110.946 129.411 L 107.454 128.438 L 103.688 127.390 L 99.613 126.257 L 95.192 125.029 L 90.376 123.693 L 85.114 122.235 L 79.339 120.635 L 72.974 118.874 L 65.923 116.925 L 58.071 114.755 L 49.274 112.326 L 39.351 109.587 L 28.071 106.476 L 15.138 102.910 L 0.159 98.782 L -17.391 93.948 L -38.233 88.208 L -63.390 81.283 L -94.352 72.761 L -133.391 62.019 L -184.134 48.059 L -252.773 29.180 L -350.790 2.224 L -502.176 -39.405 L -766.806 -112.169 L -1347.621 -271.862 L -3651.945 -905.404 L 8181.446 2347.979 L 2166.415 694.241 L 1323.429 462.469 L 987.362 370.066 L 806.675 320.383 L 693.846 289.356 L 616.694 268.137 L 560.609 252.711 L 518.000 240.991 L 484.532 231.783 L 457.549 224.359 L 435.334 218.245 L 416.726 213.124 L 400.913 208.771 L 387.310 205.026 L 375.484 201.769" fill="none" stroke="#FFF200" stroke-width="1" vector-effect="non-scaling-stroke"/></svg>