<svg xmlns="http://www.w3.org/2000/svg" viewBox="-1.5714285714285712 -1.5714285714285712 423.1428571428571 300.1428571428571" width="423.1428571428571" height="300.1428571428571" shape-rendering="geometricPrecision"><rect x="-1.5714285714285712" y="-1.5714285714285712" width="423.1428571428571" height="300.1428571428571" fill="#0b0f14"/><path d="M 20.000 33.571 L 18.817 33.520 L 17.643 33.365 L 16.487 33.109 L 15.358 32.753 L 14.264 32.300 L 13.214 31.753 L 12.216 31.117 L 11.276 30.396 L 10.404 29.596 L 9.604 28.724 L 8.883 27.784 L 8.247 26.786 L 7.700 25.736 L 7.247 24.642 L 6.891 23.513 L 6.635 22.357 L 6.480 21.183 L 6.429 20.000 M 47.143 34.984 L 48.326 35.036 L 49.500 35.190 L 50.655 35.447 L 51.785 35.803 L 52.878 36.256 L 53.929 36.802 L 54.927 37.438 L 55.866 38.159 L 56.739 38.959 L 57.539 39.832 L 58.260 40.771 L 58.896 41.770 L 59.443 42.820 L 59.896 43.914 L 60.252 45.043 L 60.508 46.199 L 60.663 47.373 L 60.714 48.556 M 60.714 20.000 L 60.766 18.817 L 60.920 17.643 L 61.177 16.487 L 61.533 15.358 L 61.986 14.264 L 62.533 13.214 L 63.169 12.216 L 63.889 11.276 L 64.689 10.404 L 65.562 9.604 L 66.501 8.883 L 67.500 8.247 L 68.550 7.700 L 69.644 7.247 L 70.773 6.891 L 71.929 6.635 L 73.103 6.480 L 74.286 6.429 M 60.714 48.556 L 60.663 49.738 L 60.508 50.912 L 60.252 52.068 L 59.896 53.197 L 59.443 54.291 L 58.896 55.341 L 58.260 56.340 L 57.539 57.279 L 56.739 58.152 L 55.866 58.952 L 54.927 59.673 L 53.929 60.309 L 52.878 60.855 L 51.785 61.309 L 50.655 61.665 L 49.500 61.921 L 48.326 62.075 L 47.143 62.127 M 74.286 33.571 L 73.103 33.520 L 71.929 33.365 L 70.773 33.109 L 69.644 32.753 L 68.550 32.300 L 67.500 31.753 L 66.501 31.117 L 65.562 30.396 L 64.689 29.596 L 63.889 28.724 L 63.169 27.784 L 62.533 26.786 L 61.986 25.736 L 61.533 24.642 L 61.177 23.513 L 60.920 22.357 L 60.766 21.183 L 60.714 20.000 M 101.429 34.984 L 102.611 35.036 L 103.785 35.190 L 104.941 35.447 L 106.070 35.803 L 107.164 36.256 L 108.214 36.802 L 109.213 37.438 L 110.152 38.159 L 111.025 38.959 L 111.825 39.832 L 112.546 40.771 L 113.182 41.770 L 113.728 42.820 L 114.182 43.914 L 114.538 45.043 L 114.794 46.199 L 114.948 47.373 L 115.000 48.556 M 115.000 20.000 L 115.052 18.817 L 115.206 17.643 L 115.462 16.487 L 115.818 15.358 L 116.272 14.264 L 116.818 13.214 L 117.454 12.216 L 118.175 11.276 L 118.975 10.404 L 119.848 9.604 L 120.787 8.883 L 121.786 8.247 L 122.836 7.700 L 123.930 7.247 L 125.059 6.891 L 126.215 6.635 L 127.389 6.480 L 128.571 6.429 M 115.000 48.556 L 114.948 49.738 L 114.794 50.912 L 114.538 52.068 L 114.182 53.197 L 113.728 54.291 L 113.182 55.341 L 112.546 56.340 L 111.825 57.279 L 111.025 58.152 L 110.152 58.952 L 109.213 59.673 L 108.214 60.309 L 107.164 60.855 L 106.070 61.309 L 104.941 61.665 L 103.785 61.921 L 102.611 62.075 L 101.429 62.127 M 128.571 33.571 L 127.389 33.520 L 126.215 33.365 L 125.059 33.109 L 123.930 32.753 L 122.836 32.300 L 121.786 31.753 L 120.787 31.117 L 119.848 30.396 L 118.975 29.596 L 118.175 28.724 L 117.454 27.784 L 116.818 26.786 L 116.272 25.736 L 115.818 24.642 L 115.462 23.513 L 115.206 22.357 L 115.052 21.183 L 115.000 20.000 M 155.714 34.984 L 156.897 35.036 L 158.071 35.190 L 159.227 35.447 L 160.356 35.803 L 161.450 36.256 L 162.500 36.802 L 163.499 37.438 L 164.438 38.159 L 165.311 38.959 L 166.111 39.832 L 166.831 40.771 L 167.467 41.770 L 168.014 42.820 L 168.467 43.914 L 168.823 45.043 L 169.080 46.199 L 169.234 47.373 L 169.286 48.556 M 155.714 33.571 L 154.531 33.520 L 153.358 33.365 L 152.202 33.109 L 151.073 32.753 L 149.979 32.300 L 148.929 31.753 L 147.930 31.117 L 146.991 30.396 L 146.118 29.596 L 145.318 28.724 L 144.597 27.784 L 143.961 26.786 L 143.414 25.736 L 142.961 24.642 L 142.605 23.513 L 142.349 22.357 L 142.195 21.183 L 142.143 20.000 M 182.857 34.984 L 184.040 35.036 L 185.214 35.190 L 186.370 35.447 L 187.499 35.803 L 188.593 36.256 L 189.643 36.802 L 190.641 37.438 L 191.581 38.159 L 192.454 38.959 L 193.253 39.832 L 193.974 40.771 L 194.610 41.770 L 195.157 42.820 L 195.610 43.914 L 195.966 45.043 L 196.222 46.199 L 196.377 47.373 L 196.429 48.556 M 182.857 33.571 L 181.674 33.520 L 180.500 33.365 L 179.345 33.109 L 178.215 32.753 L 177.122 32.300 L 176.071 31.753 L 175.073 31.117 L 174.134 30.396 L 173.261 29.596 L 172.461 28.724 L 171.740 27.784 L 171.104 26.786 L 170.557 25.736 L 170.104 24.642 L 169.748 23.513 L 169.492 22.357 L 169.337 21.183 L 169.286 20.000 M 210.000 34.984 L 211.183 35.036 L 212.357 35.190 L 213.513 35.447 L 214.642 35.803 L 215.736 36.256 L 216.786 36.802 L 217.784 37.438 L 218.724 38.159 L 219.596 38.959 L 220.396 39.832 L 221.117 40.771 L 221.753 41.770 L 222.300 42.820 L 222.753 43.914 L 223.109 45.043 L 223.365 46.199 L 223.520 47.373 L 223.571 48.556 M 210.000 33.571 L 208.817 33.520 L 207.643 33.365 L 206.487 33.109 L 205.358 32.753 L 204.264 32.300 L 203.214 31.753 L 202.216 31.117 L 201.276 30.396 L 200.404 29.596 L 199.604 28.724 L 198.883 27.784 L 198.247 26.786 L 197.700 25.736 L 197.247 24.642 L 196.891 23.513 L 196.635 22.357 L 196.480 21.183 L 196.429 20.000 M 237.143 34.984 L 238.326 35.036 L 239.500 35.190 L 240.655 35.447 L 241.785 35.803 L 242.878 36.256 L 243.929 36.802 L 244.927 37.438 L 245.866 38.159 L 246.739 38.959 L 247.539 39.832 L 248.260 40.771 L 248.896 41.770 L 249.443 42.820 L 249.896 43.914 L 250.252 45.043 L 250.508 46.199 L 250.663 47.373 L 250.714 48.556 M 250.714 20.000 L 250.766 18.817 L 250.920 17.643 L 251.177 16.487 L 251.533 15.358 L 251.986 14.264 L 252.533 13.214 L 253.169 12.216 L 253.889 11.276 L 254.689 10.404 L 255.562 9.604 L 256.501 8.883 L 257.500 8.247 L 258.550 7.700 L 259.644 7.247 L 260.773 6.891 L 261.929 6.635 L 263.103 6.480 L 264.286 6.429 M 250.714 48.556 L 250.663 49.738 L 250.508 50.912 L 250.252 52.068 L 249.896 53.197 L 249.443 54.291 L 248.896 55.341 L 248.260 56.340 L 247.539 57.279 L 246.739 58.152 L 245.866 58.952 L 244.927 59.673 L 243.929 60.309 L 242.878 60.855 L 241.785 61.309 L 240.655 61.665 L 239.500 61.921 L 238.326 62.075 L 237.143 62.127 M 264.286 33.571 L 263.103 33.520 L 261.929 33.365 L 260.773 33.109 L 259.644 32.753 L 258.550 32.300 L 257.500 31.753 L 256.501 31.117 L 255.562 30.396 L 254.689 29.596 L 253.889 28.724 L 253.169 27.784 L 252.533 26.786 L 251.986 25.736 L 251.533 24.642 L 251.177 23.513 L 250.920 22.357 L 250.766 21.183 L 250.714 20.000 M 291.429 34.984 L 292.611 35.036 L 293.785 35.190 L 294.941 35.447 L 296.070 35.803 L 297.164 36.256 L 298.214 36.802 L 299.213 37.438 L 300.152 38.159 L 301.025 38.959 L 301.825 39.832 L 302.546 40.771 L 303.182 41.770 L 303.728 42.820 L 304.182 43.914 L 304.538 45.043 L 304.794 46.199 L 304.948 47.373 L 305.000 48.556 M 291.429 33.571 L 290.246 33.520 L 289.072 33.365 L 287.916 33.109 L 286.787 32.753 L 285.693 32.300 L 284.643 31.753 L 283.644 31.117 L 282.705 30.396 L 281.832 29.596 L 281.032 28.724 L 280.312 27.784 L 279.675 26.786 L 279.129 25.736 L 278.676 24.642 L 278.320 23.513 L 278.063 22.357 L 277.909 21.183 L 277.857 20.000 M 318.571 34.984 L 319.754 35.036 L 320.928 35.190 L 322.084 35.447 L 323.213 35.803 L 324.307 36.256 L 325.357 36.802 L 326.356 37.438 L 327.295 38.159 L 328.168 38.959 L 328.968 39.832 L 329.688 40.771 L 330.325 41.770 L 330.871 42.820 L 331.324 43.914 L 331.680 45.043 L 331.937 46.199 L 332.091 47.373 L 332.143 48.556 M 318.571 33.571 L 317.389 33.520 L 316.215 33.365 L 315.059 33.109 L 313.930 32.753 L 312.836 32.300 L 311.786 31.753 L 310.787 31.117 L 309.848 30.396 L 308.975 29.596 L 308.175 28.724 L 307.454 27.784 L 306.818 26.786 L 306.272 25.736 L 305.818 24.642 L 305.462 23.513 L 305.206 22.357 L 305.052 21.183 L 305.000 20.000 M 345.714 34.984 L 346.897 35.036 L 348.071 35.190 L 349.227 35.447 L 350.356 35.803 L 351.450 36.256 L 352.500 36.802 L 353.499 37.438 L 354.438 38.159 L 355.311 38.959 L 356.111 39.832 L 356.831 40.771 L 357.467 41.770 L 358.014 42.820 L 358.467 43.914 L 358.823 45.043 L 359.080 46.199 L 359.234 47.373 L 359.286 48.556 M 345.714 33.571 L 344.531 33.520 L 343.358 33.365 L 342.202 33.109 L 341.073 32.753 L 339.979 32.300 L 338.929 31.753 L 337.930 31.117 L 336.991 30.396 L 336.118 29.596 L 335.318 28.724 L 334.597 27.784 L 333.961 26.786 L 333.414 25.736 L 332.961 24.642 L 332.605 23.513 L 332.349 22.357 L 332.195 21.183 L 332.143 20.000 M 372.857 34.984 L 374.040 35.036 L 375.214 35.190 L 376.370 35.447 L 377.499 35.803 L 378.593 36.256 L 379.643 36.802 L 380.641 37.438 L 381.581 38.159 L 382.454 38.959 L 383.253 39.832 L 383.974 40.771 L 384.610 41.770 L 385.157 42.820 L 385.610 43.914 L 385.966 45.043 L 386.222 46.199 L 386.377 47.373 L 386.429 48.556 M 386.429 20.000 L 386.480 18.817 L 386.635 17.643 L 386.891 16.487 L 387.247 15.358 L 387.700 14.264 L 388.247 13.214 L 388.883 12.216 L 389.604 11.276 L 390.404 10.404 L 391.276 9.604 L 392.216 8.883 L 393.214 8.247 L 394.264 7.700 L 395.358 7.247 L 396.487 6.891 L 397.643 6.635 L 398.817 6.480 L 400.000 6.429 M 386.429 48.556 L 386.377 49.738 L 386.222 50.912 L 385.966 52.068 L 385.610 53.197 L 385.157 54.291 L 384.610 55.341 L 383.974 56.340 L 383.253 57.279 L 382.454 58.152 L 381.581 58.952 L 380.641 59.673 L 379.643 60.309 L 378.593 60.855 L 377.499 61.309 L 376.370 61.665 L 375.214 61.921 L 374.040 62.075 L 372.857 62.127 M 20.000 62.127 L 18.817 62.075 L 17.643 61.921 L 16.487 61.665 L 15.358 61.309 L 14.264 60.855 L 13.214 60.309 L 12.216 59.673 L 11.276 58.952 L 10.404 58.152 L 9.604 57.279 L 8.883 56.340 L 8.247 55.341 L 7.700 54.291 L 7.247 53.197 L 6.891 52.068 L 6.635 50.912 L 6.480 49.738 L 6.429 48.556 M 47.143 63.540 L 48.326 63.591 L 49.500 63.746 L 50.655 64.002 L 51.785 64.358 L 52.878 64.811 L 53.929 65.358 L 54.927 65.994 L 55.866 66.715 L 56.739 67.515 L 57.539 68.388 L 58.260 69.327 L 58.896 70.325 L 59.443 71.376 L 59.896 72.469 L 60.252 73.599 L 60.508 74.754 L 60.663 75.928 L 60.714 77.111 M 60.714 48.556 L 60.766 47.373 L 60.920 46.199 L 61.177 45.043 L 61.533 43.914 L 61.986 42.820 L 62.533 41.770 L 63.169 40.771 L 63.889 39.832 L 64.689 38.959 L 65.562 38.159 L 66.501 37.438 L 67.500 36.802 L 68.550 36.256 L 69.644 35.803 L 70.773 35.447 L 71.929 35.190 L 73.103 35.036 L 74.286 34.984 M 60.714 77.111 L 60.663 78.294 L 60.508 79.468 L 60.252 80.624 L 59.896 81.753 L 59.443 82.847 L 58.896 83.897 L 58.260 84.895 L 57.539 85.835 L 56.739 86.708 L 55.866 87.507 L 54.927 88.228 L 53.929 88.864 L 52.878 89.411 L 51.785 89.864 L 50.655 90.220 L 49.500 90.476 L 48.326 90.631 L 47.143 90.683 M 74.286 62.127 L 73.103 62.075 L 71.929 61.921 L 70.773 61.665 L 69.644 61.309 L 68.550 60.855 L 67.500 60.309 L 66.501 59.673 L 65.562 58.952 L 64.689 58.152 L 63.889 57.279 L 63.169 56.340 L 62.533 55.341 L 61.986 54.291 L 61.533 53.197 L 61.177 52.068 L 60.920 50.912 L 60.766 49.738 L 60.714 48.556 M 101.429 63.540 L 102.611 63.591 L 103.785 63.746 L 104.941 64.002 L 106.070 64.358 L 107.164 64.811 L 108.214 65.358 L 109.213 65.994 L 110.152 66.715 L 111.025 67.515 L 111.825 68.388 L 112.546 69.327 L 113.182 70.325 L 113.728 71.376 L 114.182 72.469 L 114.538 73.599 L 114.794 74.754 L 114.948 75.928 L 115.000 77.111 M 115.000 48.556 L 115.052 47.373 L 115.206 46.199 L 115.462 45.043 L 115.818 43.914 L 116.272 42.820 L 116.818 41.770 L 117.454 40.771 L 118.175 39.832 L 118.975 38.959 L 119.848 38.159 L 120.787 37.438 L 121.786 36.802 L 122.836 36.256 L 123.930 35.803 L 125.059 35.447 L 126.215 35.190 L 127.389 35.036 L 128.571 34.984 M 115.000 77.111 L 114.948 78.294 L 114.794 79.468 L 114.538 80.624 L 114.182 81.753 L 113.728 82.847 L 113.182 83.897 L 112.546 84.895 L 111.825 85.835 L 111.025 86.708 L 110.152 87.507 L 109.213 88.228 L 108.214 88.864 L 107.164 89.411 L 106.070 89.864 L 104.941 90.220 L 103.785 90.476 L 102.611 90.631 L 101.429 90.683 M 142.143 48.556 L 142.195 47.373 L 142.349 46.199 L 142.605 45.043 L 142.961 43.914 L 143.414 42.820 L 143.961 41.770 L 144.597 40.771 L 145.318 39.832 L 146.118 38.959 L 146.991 38.159 L 147.930 37.438 L 148.929 36.802 L 149.979 36.256 L 151.073 35.803 L 152.202 35.447 L 153.358 35.190 L 154.531 35.036 L 155.714 34.984 M 142.143 77.111 L 142.091 78.294 L 141.937 79.468 L 141.680 80.624 L 141.324 81.753 L 140.871 82.847 L 140.325 83.897 L 139.688 84.895 L 138.968 85.835 L 138.168 86.708 L 137.295 87.507 L 136.356 88.228 L 135.357 88.864 L 134.307 89.411 L 133.213 89.864 L 132.084 90.220 L 130.928 90.476 L 129.754 90.631 L 128.571 90.683 M 155.714 62.127 L 154.531 62.075 L 153.358 61.921 L 152.202 61.665 L 151.073 61.309 L 149.979 60.855 L 148.929 60.309 L 147.930 59.673 L 146.991 58.952 L 146.118 58.152 L 145.318 57.279 L 144.597 56.340 L 143.961 55.341 L 143.414 54.291 L 142.961 53.197 L 142.605 52.068 L 142.349 50.912 L 142.195 49.738 L 142.143 48.556 M 182.857 63.540 L 184.040 63.591 L 185.214 63.746 L 186.370 64.002 L 187.499 64.358 L 188.593 64.811 L 189.643 65.358 L 190.641 65.994 L 191.581 66.715 L 192.454 67.515 L 193.253 68.388 L 193.974 69.327 L 194.610 70.325 L 195.157 71.376 L 195.610 72.469 L 195.966 73.599 L 196.222 74.754 L 196.377 75.928 L 196.429 77.111 M 196.429 48.556 L 196.480 47.373 L 196.635 46.199 L 196.891 45.043 L 197.247 43.914 L 197.700 42.820 L 198.247 41.770 L 198.883 40.771 L 199.604 39.832 L 200.404 38.959 L 201.276 38.159 L 202.216 37.438 L 203.214 36.802 L 204.264 36.256 L 205.358 35.803 L 206.487 35.447 L 207.643 35.190 L 208.817 35.036 L 210.000 34.984 M 196.429 77.111 L 196.377 78.294 L 196.222 79.468 L 195.966 80.624 L 195.610 81.753 L 195.157 82.847 L 194.610 83.897 L 193.974 84.895 L 193.253 85.835 L 192.454 86.708 L 191.581 87.507 L 190.641 88.228 L 189.643 88.864 L 188.593 89.411 L 187.499 89.864 L 186.370 90.220 L 185.214 90.476 L 184.040 90.631 L 182.857 90.683 M 210.000 62.127 L 208.817 62.075 L 207.643 61.921 L 206.487 61.665 L 205.358 61.309 L 204.264 60.855 L 203.214 60.309 L 202.216 59.673 L 201.276 58.952 L 200.404 58.152 L 199.604 57.279 L 198.883 56.340 L 198.247 55.341 L 197.700 54.291 L 197.247 53.197 L 196.891 52.068 L 196.635 50.912 L 196.480 49.738 L 196.429 48.556 M 237.143 63.540 L 238.326 63.591 L 239.500 63.746 L 240.655 64.002 L 241.785 64.358 L 242.878 64.811 L 243.929 65.358 L 244.927 65.994 L 245.866 66.715 L 246.739 67.515 L 247.539 68.388 L 248.260 69.327 L 248.896 70.325 L 249.443 71.376 L 249.896 72.469 L 250.252 73.599 L 250.508 74.754 L 250.663 75.928 L 250.714 77.111 M 250.714 48.556 L 250.766 47.373 L 250.920 46.199 L 251.177 45.043 L 251.533 43.914 L 251.986 42.820 L 252.533 41.770 L 253.169 40.771 L 253.889 39.832 L 254.689 38.959 L 255.562 38.159 L 256.501 37.438 L 257.500 36.802 L 258.550 36.256 L 259.644 35.803 L 260.773 35.447 L 261.929 35.190 L 263.103 35.036 L 264.286 34.984 M 250.714 77.111 L 250.663 78.294 L 250.508 79.468 L 250.252 80.624 L 249.896 81.753 L 249.443 82.847 L 248.896 83.897 L 248.260 84.895 L 247.539 85.835 L 246.739 86.708 L 245.866 87.507 L 244.927 88.228 L 243.929 88.864 L 242.878 89.411 L 241.785 89.864 L 240.655 90.220 L 239.500 90.476 L 238.326 90.631 L 237.143 90.683 M 277.857 48.556 L 277.909 47.373 L 278.063 46.199 L 278.320 45.043 L 278.676 43.914 L 279.129 42.820 L 279.675 41.770 L 280.312 40.771 L 281.032 39.832 L 281.832 38.959 L 282.705 38.159 L 283.644 37.438 L 284.643 36.802 L 285.693 36.256 L 286.787 35.803 L 287.916 35.447 L 289.072 35.190 L 290.246 35.036 L 291.429 34.984 M 277.857 77.111 L 277.805 78.294 L 277.651 79.468 L 277.395 80.624 L 277.039 81.753 L 276.586 82.847 L 276.039 83.897 L 275.403 84.895 L 274.682 85.835 L 273.882 86.708 L 273.009 87.507 L 272.070 88.228 L 271.071 88.864 L 270.021 89.411 L 268.927 89.864 L 267.798 90.220 L 266.642 90.476 L 265.469 90.631 L 264.286 90.683 M 305.000 48.556 L 305.052 47.373 L 305.206 46.199 L 305.462 45.043 L 305.818 43.914 L 306.272 42.820 L 306.818 41.770 L 307.454 40.771 L 308.175 39.832 L 308.975 38.959 L 309.848 38.159 L 310.787 37.438 L 311.786 36.802 L 312.836 36.256 L 313.930 35.803 L 315.059 35.447 L 316.215 35.190 L 317.389 35.036 L 318.571 34.984 M 305.000 77.111 L 304.948 78.294 L 304.794 79.468 L 304.538 80.624 L 304.182 81.753 L 303.728 82.847 L 303.182 83.897 L 302.546 84.895 L 301.825 85.835 L 301.025 86.708 L 300.152 87.507 L 299.213 88.228 L 298.214 88.864 L 297.164 89.411 L 296.070 89.864 L 294.941 90.220 L 293.785 90.476 L 292.611 90.631 L 291.429 90.683 M 332.143 48.556 L 332.195 47.373 L 332.349 46.199 L 332.605 45.043 L 332.961 43.914 L 333.414 42.820 L 333.961 41.770 L 334.597 40.771 L 335.318 39.832 L 336.118 38.959 L 336.991 38.159 L 337.930 37.438 L 338.929 36.802 L 339.979 36.256 L 341.073 35.803 L 342.202 35.447 L 343.358 35.190 L 344.531 35.036 L 345.714 34.984 M 332.143 77.111 L 332.091 78.294 L 331.937 79.468 L 331.680 80.624 L 331.324 81.753 L 330.871 82.847 L 330.325 83.897 L 329.688 84.895 L 328.968 85.835 L 328.168 86.708 L 327.295 87.507 L 326.356 88.228 L 325.357 88.864 L 324.307 89.411 L 323.213 89.864 L 322.084 90.220 L 320.928 90.476 L 319.754 90.631 L 318.571 90.683 M 345.714 62.127 L 344.531 62.075 L 343.358 61.921 L 342.202 61.665 L 341.073 61.309 L 339.979 60.855 L 338.929 60.309 L 337.930 59.673 L 336.991 58.952 L 336.118 58.152 L 335.318 57.279 L 334.597 56.340 L 333.961 55.341 L 333.414 54.291 L 332.961 53.197 L 332.605 52.068 L 332.349 50.912 L 332.195 49.738 L 332.143 48.556 M 372.857 63.540 L 374.040 63.591 L 375.214 63.746 L 376.370 64.002 L 377.499 64.358 L 378.593 64.811 L 379.643 65.358 L 380.641 65.994 L 381.581 66.715 L 382.454 67.515 L 383.253 68.388 L 383.974 69.327 L 384.610 70.325 L 385.157 71.376 L 385.610 72.469 L 385.966 73.599 L 386.222 74.754 L 386.377 75.928 L 386.429 77.111 M 386.429 48.556 L 386.480 47.373 L 386.635 46.199 L 386.891 45.043 L 387.247 43.914 L 387.700 42.820 L 388.247 41.770 L 388.883 40.771 L 389.604 39.832 L 390.404 38.959 L 391.276 38.159 L 392.216 37.438 L 393.214 36.802 L 394.264 36.256 L 395.358 35.803 L 396.487 35.447 L 397.643 35.190 L 398.817 35.036 L 400.000 34.984 M 386.429 77.111 L 386.377 78.294 L 386.222 79.468 L 385.966 80.624 L 385.610 81.753 L 385.157 82.847 L 384.610 83.897 L 383.974 84.895 L 383.253 85.835 L 382.454 86.708 L 381.581 87.507 L 380.641 88.228 L 379.643 88.864 L 378.593 89.411 L 377.499 89.864 L 376.370 90.220 L 375.214 90.476 L 374.040 90.631 L 372.857 90.683 M 20.000 90.683 L 18.817 90.631 L 17.643 90.476 L 16.487 90.220 L 15.358 89.864 L 14.264 89.411 L 13.214 88.864 L 12.216 88.228 L 11.276 87.507 L 10.404 86.708 L 9.604 85.835 L 8.883 84.895 L 8.247 83.897 L 7.700 82.847 L 7.247 81.753 L 6.891 80.624 L 6.635 79.468 L 6.480 78.294 L 6.429 77.111 M 47.143 92.095 L 48.326 92.147 L 49.500 92.301 L 50.655 92.558 L 51.785 92.914 L 52.878 93.367 L 53.929 93.913 L 54.927 94.550 L 55.866 95.270 L 56.739 96.070 L 57.539 96.943 L 58.260 97.882 L 58.896 98.881 L 59.443 99.931 L 59.896 101.025 L 60.252 102.154 L 60.508 103.310 L 60.663 104.484 L 60.714 105.667 M 60.714 77.111 L 60.766 75.928 L 60.920 74.754 L 61.177 73.599 L 61.533 72.469 L 61.986 71.376 L 62.533 70.325 L 63.169 69.327 L 63.889 68.388 L 64.689 67.515 L 65.562 66.715 L 66.501 65.994 L 67.500 65.358 L 68.550 64.811 L 69.644 64.358 L 70.773 64.002 L 71.929 63.746 L 73.103 63.591 L 74.286 63.540 M 60.714 105.667 L 60.663 106.849 L 60.508 108.023 L 60.252 109.179 L 59.896 110.308 L 59.443 111.402 L 58.896 112.452 L 58.260 113.451 L 57.539 114.390 L 56.739 115.263 L 55.866 116.063 L 54.927 116.784 L 53.929 117.420 L 52.878 117.967 L 51.785 118.420 L 50.655 118.776 L 49.500 119.032 L 48.326 119.186 L 47.143 119.238 M 74.286 90.683 L 73.103 90.631 L 71.929 90.476 L 70.773 90.220 L 69.644 89.864 L 68.550 89.411 L 67.500 88.864 L 66.501 88.228 L 65.562 87.507 L 64.689 86.708 L 63.889 85.835 L 63.169 84.895 L 62.533 83.897 L 61.986 82.847 L 61.533 81.753 L 61.177 80.624 L 60.920 79.468 L 60.766 78.294 L 60.714 77.111 M 101.429 92.095 L 102.611 92.147 L 103.785 92.301 L 104.941 92.558 L 106.070 92.914 L 107.164 93.367 L 108.214 93.913 L 109.213 94.550 L 110.152 95.270 L 111.025 96.070 L 111.825 96.943 L 112.546 97.882 L 113.182 98.881 L 113.728 99.931 L 114.182 101.025 L 114.538 102.154 L 114.794 103.310 L 114.948 104.484 L 115.000 105.667 M 115.000 77.111 L 115.052 75.928 L 115.206 74.754 L 115.462 73.599 L 115.818 72.469 L 116.272 71.376 L 116.818 70.325 L 117.454 69.327 L 118.175 68.388 L 118.975 67.515 L 119.848 66.715 L 120.787 65.994 L 121.786 65.358 L 122.836 64.811 L 123.930 64.358 L 125.059 64.002 L 126.215 63.746 L 127.389 63.591 L 128.571 63.540 M 115.000 105.667 L 114.948 106.849 L 114.794 108.023 L 114.538 109.179 L 114.182 110.308 L 113.728 111.402 L 113.182 112.452 L 112.546 113.451 L 111.825 114.390 L 111.025 115.263 L 110.152 116.063 L 109.213 116.784 L 108.214 117.420 L 107.164 117.967 L 106.070 118.420 L 104.941 118.776 L 103.785 119.032 L 102.611 119.186 L 101.429 119.238 M 128.571 90.683 L 127.389 90.631 L 126.215 90.476 L 125.059 90.220 L 123.930 89.864 L 122.836 89.411 L 121.786 88.864 L 120.787 88.228 L 119.848 87.507 L 118.975 86.708 L 118.175 85.835 L 117.454 84.895 L 116.818 83.897 L 116.272 82.847 L 115.818 81.753 L 115.462 80.624 L 115.206 79.468 L 115.052 78.294 L 115.000 77.111 M 155.714 92.095 L 156.897 92.147 L 158.071 92.301 L 159.227 92.558 L 160.356 92.914 L 161.450 93.367 L 162.500 93.913 L 163.499 94.550 L 164.438 95.270 L 165.311 96.070 L 166.111 96.943 L 166.831 97.882 L 167.467 98.881 L 168.014 99.931 L 168.467 101.025 L 168.823 102.154 L 169.080 103.310 L 169.234 104.484 L 169.286 105.667 M 169.286 77.111 L 169.337 75.928 L 169.492 74.754 L 169.748 73.599 L 170.104 72.469 L 170.557 71.376 L 171.104 70.325 L 171.740 69.327 L 172.461 68.388 L 173.261 67.515 L 174.134 66.715 L 175.073 65.994 L 176.071 65.358 L 177.122 64.811 L 178.215 64.358 L 179.345 64.002 L 180.500 63.746 L 181.674 63.591 L 182.857 63.540 M 169.286 105.667 L 169.234 106.849 L 169.080 108.023 L 168.823 109.179 L 168.467 110.308 L 168.014 111.402 L 167.467 112.452 L 166.831 113.451 L 166.111 114.390 L 165.311 115.263 L 164.438 116.063 L 163.499 116.784 L 162.500 117.420 L 161.450 117.967 L 160.356 118.420 L 159.227 118.776 L 158.071 119.032 L 156.897 119.186 L 155.714 119.238 M 196.429 77.111 L 196.480 75.928 L 196.635 74.754 L 196.891 73.599 L 197.247 72.469 L 197.700 71.376 L 198.247 70.325 L 198.883 69.327 L 199.604 68.388 L 200.404 67.515 L 201.276 66.715 L 202.216 65.994 L 203.214 65.358 L 204.264 64.811 L 205.358 64.358 L 206.487 64.002 L 207.643 63.746 L 208.817 63.591 L 210.000 63.540 M 196.429 105.667 L 196.377 106.849 L 196.222 108.023 L 195.966 109.179 L 195.610 110.308 L 195.157 111.402 L 194.610 112.452 L 193.974 113.451 L 193.253 114.390 L 192.454 115.263 L 191.581 116.063 L 190.641 116.784 L 189.643 117.420 L 188.593 117.967 L 187.499 118.420 L 186.370 118.776 L 185.214 119.032 L 184.040 119.186 L 182.857 119.238 M 210.000 90.683 L 208.817 90.631 L 207.643 90.476 L 206.487 90.220 L 205.358 89.864 L 204.264 89.411 L 203.214 88.864 L 202.216 88.228 L 201.276 87.507 L 200.404 86.708 L 199.604 85.835 L 198.883 84.895 L 198.247 83.897 L 197.700 82.847 L 197.247 81.753 L 196.891 80.624 L 196.635 79.468 L 196.480 78.294 L 196.429 77.111 M 237.143 92.095 L 238.326 92.147 L 239.500 92.301 L 240.655 92.558 L 241.785 92.914 L 242.878 93.367 L 243.929 93.913 L 244.927 94.550 L 245.866 95.270 L 246.739 96.070 L 247.539 96.943 L 248.260 97.882 L 248.896 98.881 L 249.443 99.931 L 249.896 101.025 L 250.252 102.154 L 250.508 103.310 L 250.663 104.484 L 250.714 105.667 M 237.143 90.683 L 235.960 90.631 L 234.786 90.476 L 233.630 90.220 L 232.501 89.864 L 231.407 89.411 L 230.357 88.864 L 229.359 88.228 L 228.419 87.507 L 227.546 86.708 L 226.747 85.835 L 226.026 84.895 L 225.390 83.897 L 224.843 82.847 L 224.390 81.753 L 224.034 80.624 L 223.778 79.468 L 223.623 78.294 L 223.571 77.111 M 264.286 92.095 L 265.469 92.147 L 266.642 92.301 L 267.798 92.558 L 268.927 92.914 L 270.021 93.367 L 271.071 93.913 L 272.070 94.550 L 273.009 95.270 L 273.882 96.070 L 274.682 96.943 L 275.403 97.882 L 276.039 98.881 L 276.586 99.931 L 277.039 101.025 L 277.395 102.154 L 277.651 103.310 L 277.805 104.484 L 277.857 105.667 M 264.286 90.683 L 263.103 90.631 L 261.929 90.476 L 260.773 90.220 L 259.644 89.864 L 258.550 89.411 L 257.500 88.864 L 256.501 88.228 L 255.562 87.507 L 254.689 86.708 L 253.889 85.835 L 253.169 84.895 L 252.533 83.897 L 251.986 82.847 L 251.533 81.753 L 251.177 80.624 L 250.920 79.468 L 250.766 78.294 L 250.714 77.111 M 291.429 92.095 L 292.611 92.147 L 293.785 92.301 L 294.941 92.558 L 296.070 92.914 L 297.164 93.367 L 298.214 93.913 L 299.213 94.550 L 300.152 95.270 L 301.025 96.070 L 301.825 96.943 L 302.546 97.882 L 303.182 98.881 L 303.728 99.931 L 304.182 101.025 L 304.538 102.154 L 304.794 103.310 L 304.948 104.484 L 305.000 105.667 M 291.429 90.683 L 290.246 90.631 L 289.072 90.476 L 287.916 90.220 L 286.787 89.864 L 285.693 89.411 L 284.643 88.864 L 283.644 88.228 L 282.705 87.507 L 281.832 86.708 L 281.032 85.835 L 280.312 84.895 L 279.675 83.897 L 279.129 82.847 L 278.676 81.753 L 278.320 80.624 L 278.063 79.468 L 277.909 78.294 L 277.857 77.111 M 318.571 92.095 L 319.754 92.147 L 320.928 92.301 L 322.084 92.558 L 323.213 92.914 L 324.307 93.367 L 325.357 93.913 L 326.356 94.550 L 327.295 95.270 L 328.168 96.070 L 328.968 96.943 L 329.688 97.882 L 330.325 98.881 L 330.871 99.931 L 331.324 101.025 L 331.680 102.154 L 331.937 103.310 L 332.091 104.484 L 332.143 105.667 M 318.571 90.683 L 317.389 90.631 L 316.215 90.476 L 315.059 90.220 L 313.930 89.864 L 312.836 89.411 L 311.786 88.864 L 310.787 88.228 L 309.848 87.507 L 308.975 86.708 L 308.175 85.835 L 307.454 84.895 L 306.818 83.897 L 306.272 82.847 L 305.818 81.753 L 305.462 80.624 L 305.206 79.468 L 305.052 78.294 L 305.000 77.111 M 345.714 92.095 L 346.897 92.147 L 348.071 92.301 L 349.227 92.558 L 350.356 92.914 L 351.450 93.367 L 352.500 93.913 L 353.499 94.550 L 354.438 95.270 L 355.311 96.070 L 356.111 96.943 L 356.831 97.882 L 357.467 98.881 L 358.014 99.931 L 358.467 101.025 L 358.823 102.154 L 359.080 103.310 L 359.234 104.484 L 359.286 105.667 M 345.714 90.683 L 344.531 90.631 L 343.358 90.476 L 342.202 90.220 L 341.073 89.864 L 339.979 89.411 L 338.929 88.864 L 337.930 88.228 L 336.991 87.507 L 336.118 86.708 L 335.318 85.835 L 334.597 84.895 L 333.961 83.897 L 333.414 82.847 L 332.961 81.753 L 332.605 80.624 L 332.349 79.468 L 332.195 78.294 L 332.143 77.111 M 372.857 92.095 L 374.040 92.147 L 375.214 92.301 L 376.370 92.558 L 377.499 92.914 L 378.593 93.367 L 379.643 93.913 L 380.641 94.550 L 381.581 95.270 L 382.454 96.070 L 383.253 96.943 L 383.974 97.882 L 384.610 98.881 L 385.157 99.931 L 385.610 101.025 L 385.966 102.154 L 386.222 103.310 L 386.377 104.484 L 386.429 105.667 M 372.857 90.683 L 371.674 90.631 L 370.500 90.476 L 369.345 90.220 L 368.215 89.864 L 367.122 89.411 L 366.071 88.864 L 365.073 88.228 L 364.134 87.507 L 363.261 86.708 L 362.461 85.835 L 361.740 84.895 L 361.104 83.897 L 360.557 82.847 L 360.104 81.753 L 359.748 80.624 L 359.492 79.468 L 359.337 78.294 L 359.286 77.111 M 400.000 92.095 L 401.183 92.147 L 402.357 92.301 L 403.513 92.558 L 404.642 92.914 L 405.736 93.367 L 406.786 93.913 L 407.784 94.550 L 408.724 95.270 L 409.596 96.070 L 410.396 96.943 L 411.117 97.882 L 411.753 98.881 L 412.300 99.931 L 412.753 101.025 L 413.109 102.154 L 413.365 103.310 L 413.520 104.484 L 413.571 105.667 M 33.571 105.667 L 33.623 104.484 L 33.778 103.310 L 34.034 102.154 L 34.390 101.025 L 34.843 99.931 L 35.390 98.881 L 36.026 97.882 L 36.747 96.943 L 37.546 96.070 L 38.419 95.270 L 39.359 94.550 L 40.357 93.913 L 41.407 93.367 L 42.501 92.914 L 43.630 92.558 L 44.786 92.301 L 45.960 92.147 L 47.143 92.095 M 33.571 134.222 L 33.520 135.405 L 33.365 136.579 L 33.109 137.735 L 32.753 138.864 L 32.300 139.958 L 31.753 141.008 L 31.117 142.006 L 30.396 142.946 L 29.596 143.819 L 28.724 144.619 L 27.784 145.339 L 26.786 145.975 L 25.736 146.522 L 24.642 146.975 L 23.513 147.331 L 22.357 147.587 L 21.183 147.742 L 20.000 147.794 M 47.143 119.238 L 45.960 119.186 L 44.786 119.032 L 43.630 118.776 L 42.501 118.420 L 41.407 117.967 L 40.357 117.420 L 39.359 116.784 L 38.419 116.063 L 37.546 115.263 L 36.747 114.390 L 36.026 113.451 L 35.390 112.452 L 34.843 111.402 L 34.390 110.308 L 34.034 109.179 L 33.778 108.023 L 33.623 106.849 L 33.571 105.667 M 74.286 120.651 L 75.469 120.702 L 76.642 120.857 L 77.798 121.113 L 78.927 121.469 L 80.021 121.922 L 81.071 122.469 L 82.070 123.105 L 83.009 123.826 L 83.882 124.626 L 84.682 125.499 L 85.403 126.438 L 86.039 127.437 L 86.586 128.487 L 87.039 129.581 L 87.395 130.710 L 87.651 131.866 L 87.805 133.039 L 87.857 134.222 M 74.286 119.238 L 73.103 119.186 L 71.929 119.032 L 70.773 118.776 L 69.644 118.420 L 68.550 117.967 L 67.500 117.420 L 66.501 116.784 L 65.562 116.063 L 64.689 115.263 L 63.889 114.390 L 63.169 113.451 L 62.533 112.452 L 61.986 111.402 L 61.533 110.308 L 61.177 109.179 L 60.920 108.023 L 60.766 106.849 L 60.714 105.667 M 101.429 120.651 L 102.611 120.702 L 103.785 120.857 L 104.941 121.113 L 106.070 121.469 L 107.164 121.922 L 108.214 122.469 L 109.213 123.105 L 110.152 123.826 L 111.025 124.626 L 111.825 125.499 L 112.546 126.438 L 113.182 127.437 L 113.728 128.487 L 114.182 129.581 L 114.538 130.710 L 114.794 131.866 L 114.948 133.039 L 115.000 134.222 M 115.000 105.667 L 115.052 104.484 L 115.206 103.310 L 115.462 102.154 L 115.818 101.025 L 116.272 99.931 L 116.818 98.881 L 117.454 97.882 L 118.175 96.943 L 118.975 96.070 L 119.848 95.270 L 120.787 94.550 L 121.786 93.913 L 122.836 93.367 L 123.930 92.914 L 125.059 92.558 L 126.215 92.301 L 127.389 92.147 L 128.571 92.095 M 115.000 134.222 L 114.948 135.405 L 114.794 136.579 L 114.538 137.735 L 114.182 138.864 L 113.728 139.958 L 113.182 141.008 L 112.546 142.006 L 111.825 142.946 L 111.025 143.819 L 110.152 144.619 L 109.213 145.339 L 108.214 145.975 L 107.164 146.522 L 106.070 146.975 L 104.941 147.331 L 103.785 147.587 L 102.611 147.742 L 101.429 147.794 M 142.143 105.667 L 142.195 104.484 L 142.349 103.310 L 142.605 102.154 L 142.961 101.025 L 143.414 99.931 L 143.961 98.881 L 144.597 97.882 L 145.318 96.943 L 146.118 96.070 L 146.991 95.270 L 147.930 94.550 L 148.929 93.913 L 149.979 93.367 L 151.073 92.914 L 152.202 92.558 L 153.358 92.301 L 154.531 92.147 L 155.714 92.095 M 142.143 134.222 L 142.091 135.405 L 141.937 136.579 L 141.680 137.735 L 141.324 138.864 L 140.871 139.958 L 140.325 141.008 L 139.688 142.006 L 138.968 142.946 L 138.168 143.819 L 137.295 144.619 L 136.356 145.339 L 135.357 145.975 L 134.307 146.522 L 133.213 146.975 L 132.084 147.331 L 130.928 147.587 L 129.754 147.742 L 128.571 147.794 M 155.714 119.238 L 154.531 119.186 L 153.358 119.032 L 152.202 118.776 L 151.073 118.420 L 149.979 117.967 L 148.929 117.420 L 147.930 116.784 L 146.991 116.063 L 146.118 115.263 L 145.318 114.390 L 144.597 113.451 L 143.961 112.452 L 143.414 111.402 L 142.961 110.308 L 142.605 109.179 L 142.349 108.023 L 142.195 106.849 L 142.143 105.667 M 182.857 120.651 L 184.040 120.702 L 185.214 120.857 L 186.370 121.113 L 187.499 121.469 L 188.593 121.922 L 189.643 122.469 L 190.641 123.105 L 191.581 123.826 L 192.454 124.626 L 193.253 125.499 L 193.974 126.438 L 194.610 127.437 L 195.157 128.487 L 195.610 129.581 L 195.966 130.710 L 196.222 131.866 L 196.377 133.039 L 196.429 134.222 M 182.857 119.238 L 181.674 119.186 L 180.500 119.032 L 179.345 118.776 L 178.215 118.420 L 177.122 117.967 L 176.071 117.420 L 175.073 116.784 L 174.134 116.063 L 173.261 115.263 L 172.461 114.390 L 171.740 113.451 L 171.104 112.452 L 170.557 111.402 L 170.104 110.308 L 169.748 109.179 L 169.492 108.023 L 169.337 106.849 L 169.286 105.667 M 210.000 120.651 L 211.183 120.702 L 212.357 120.857 L 213.513 121.113 L 214.642 121.469 L 215.736 121.922 L 216.786 122.469 L 217.784 123.105 L 218.724 123.826 L 219.596 124.626 L 220.396 125.499 L 221.117 126.438 L 221.753 127.437 L 222.300 128.487 L 222.753 129.581 L 223.109 130.710 L 223.365 131.866 L 223.520 133.039 L 223.571 134.222 M 223.571 105.667 L 223.623 104.484 L 223.778 103.310 L 224.034 102.154 L 224.390 101.025 L 224.843 99.931 L 225.390 98.881 L 226.026 97.882 L 226.747 96.943 L 227.546 96.070 L 228.419 95.270 L 229.359 94.550 L 230.357 93.913 L 231.407 93.367 L 232.501 92.914 L 233.630 92.558 L 234.786 92.301 L 235.960 92.147 L 237.143 92.095 M 223.571 134.222 L 223.520 135.405 L 223.365 136.579 L 223.109 137.735 L 222.753 138.864 L 222.300 139.958 L 221.753 141.008 L 221.117 142.006 L 220.396 142.946 L 219.596 143.819 L 218.724 144.619 L 217.784 145.339 L 216.786 145.975 L 215.736 146.522 L 214.642 146.975 L 213.513 147.331 L 212.357 147.587 L 211.183 147.742 L 210.000 147.794 M 237.143 119.238 L 235.960 119.186 L 234.786 119.032 L 233.630 118.776 L 232.501 118.420 L 231.407 117.967 L 230.357 117.420 L 229.359 116.784 L 228.419 116.063 L 227.546 115.263 L 226.747 114.390 L 226.026 113.451 L 225.390 112.452 L 224.843 111.402 L 224.390 110.308 L 224.034 109.179 L 223.778 108.023 L 223.623 106.849 L 223.571 105.667 M 264.286 120.651 L 265.469 120.702 L 266.642 120.857 L 267.798 121.113 L 268.927 121.469 L 270.021 121.922 L 271.071 122.469 L 272.070 123.105 L 273.009 123.826 L 273.882 124.626 L 274.682 125.499 L 275.403 126.438 L 276.039 127.437 L 276.586 128.487 L 277.039 129.581 L 277.395 130.710 L 277.651 131.866 L 277.805 133.039 L 277.857 134.222 M 277.857 105.667 L 277.909 104.484 L 278.063 103.310 L 278.320 102.154 L 278.676 101.025 L 279.129 99.931 L 279.675 98.881 L 280.312 97.882 L 281.032 96.943 L 281.832 96.070 L 282.705 95.270 L 283.644 94.550 L 284.643 93.913 L 285.693 93.367 L 286.787 92.914 L 287.916 92.558 L 289.072 92.301 L 290.246 92.147 L 291.429 92.095 M 277.857 134.222 L 277.805 135.405 L 277.651 136.579 L 277.395 137.735 L 277.039 138.864 L 276.586 139.958 L 276.039 141.008 L 275.403 142.006 L 274.682 142.946 L 273.882 143.819 L 273.009 144.619 L 272.070 145.339 L 271.071 145.975 L 270.021 146.522 L 268.927 146.975 L 267.798 147.331 L 266.642 147.587 L 265.469 147.742 L 264.286 147.794 M 305.000 105.667 L 305.052 104.484 L 305.206 103.310 L 305.462 102.154 L 305.818 101.025 L 306.272 99.931 L 306.818 98.881 L 307.454 97.882 L 308.175 96.943 L 308.975 96.070 L 309.848 95.270 L 310.787 94.550 L 311.786 93.913 L 312.836 93.367 L 313.930 92.914 L 315.059 92.558 L 316.215 92.301 L 317.389 92.147 L 318.571 92.095 M 305.000 134.222 L 304.948 135.405 L 304.794 136.579 L 304.538 137.735 L 304.182 138.864 L 303.728 139.958 L 303.182 141.008 L 302.546 142.006 L 301.825 142.946 L 301.025 143.819 L 300.152 144.619 L 299.213 145.339 L 298.214 145.975 L 297.164 146.522 L 296.070 146.975 L 294.941 147.331 L 293.785 147.587 L 292.611 147.742 L 291.429 147.794 M 318.571 119.238 L 317.389 119.186 L 316.215 119.032 L 315.059 118.776 L 313.930 118.420 L 312.836 117.967 L 311.786 117.420 L 310.787 116.784 L 309.848 116.063 L 308.975 115.263 L 308.175 114.390 L 307.454 113.451 L 306.818 112.452 L 306.272 111.402 L 305.818 110.308 L 305.462 109.179 L 305.206 108.023 L 305.052 106.849 L 305.000 105.667 M 345.714 120.651 L 346.897 120.702 L 348.071 120.857 L 349.227 121.113 L 350.356 121.469 L 351.450 121.922 L 352.500 122.469 L 353.499 123.105 L 354.438 123.826 L 355.311 124.626 L 356.111 125.499 L 356.831 126.438 L 357.467 127.437 L 358.014 128.487 L 358.467 129.581 L 358.823 130.710 L 359.080 131.866 L 359.234 133.039 L 359.286 134.222 M 345.714 119.238 L 344.531 119.186 L 343.358 119.032 L 342.202 118.776 L 341.073 118.420 L 339.979 117.967 L 338.929 117.420 L 337.930 116.784 L 336.991 116.063 L 336.118 115.263 L 335.318 114.390 L 334.597 113.451 L 333.961 112.452 L 333.414 111.402 L 332.961 110.308 L 332.605 109.179 L 332.349 108.023 L 332.195 106.849 L 332.143 105.667 M 372.857 120.651 L 374.040 120.702 L 375.214 120.857 L 376.370 121.113 L 377.499 121.469 L 378.593 121.922 L 379.643 122.469 L 380.641 123.105 L 381.581 123.826 L 382.454 124.626 L 383.253 125.499 L 383.974 126.438 L 384.610 127.437 L 385.157 128.487 L 385.610 129.581 L 385.966 130.710 L 386.222 131.866 L 386.377 133.039 L 386.429 134.222 M 372.857 119.238 L 371.674 119.186 L 370.500 119.032 L 369.345 118.776 L 368.215 118.420 L 367.122 117.967 L 366.071 117.420 L 365.073 116.784 L 364.134 116.063 L 363.261 115.263 L 362.461 114.390 L 361.740 113.451 L 361.104 112.452 L 360.557 111.402 L 360.104 110.308 L 359.748 109.179 L 359.492 108.023 L 359.337 106.849 L 359.286 105.667 M 400.000 120.651 L 401.183 120.702 L 402.357 120.857 L 403.513 121.113 L 404.642 121.469 L 405.736 121.922 L 406.786 122.469 L 407.784 123.105 L 408.724 123.826 L 409.596 124.626 L 410.396 125.499 L 411.117 126.438 L 411.753 127.437 L 412.300 128.487 L 412.753 129.581 L 413.109 130.710 L 413.365 131.866 L 413.520 133.039 L 413.571 134.222 M 20.000 147.794 L 18.817 147.742 L 17.643 147.587 L 16.487 147.331 L 15.358 146.975 L 14.264 146.522 L 13.214 145.975 L 12.216 145.339 L 11.276 144.619 L 10.404 143.819 L 9.604 142.946 L 8.883 142.006 L 8.247 141.008 L 7.700 139.958 L 7.247 138.864 L 6.891 137.735 L 6.635 136.579 L 6.480 135.405 L 6.429 134.222 M 47.143 149.206 L 48.326 149.258 L 49.500 149.413 L 50.655 149.669 L 51.785 150.025 L 52.878 150.478 L 53.929 151.025 L 54.927 151.661 L 55.866 152.381 L 56.739 153.181 L 57.539 154.054 L 58.260 154.994 L 58.896 155.992 L 59.443 157.042 L 59.896 158.136 L 60.252 159.265 L 60.508 160.421 L 60.663 161.595 L 60.714 162.778 M 47.143 147.794 L 45.960 147.742 L 44.786 147.587 L 43.630 147.331 L 42.501 146.975 L 41.407 146.522 L 40.357 145.975 L 39.359 145.339 L 38.419 144.619 L 37.546 143.819 L 36.747 142.946 L 36.026 142.006 L 35.390 141.008 L 34.843 139.958 L 34.390 138.864 L 34.034 137.735 L 33.778 136.579 L 33.623 135.405 L 33.571 134.222 M 74.286 149.206 L 75.469 149.258 L 76.642 149.413 L 77.798 149.669 L 78.927 150.025 L 80.021 150.478 L 81.071 151.025 L 82.070 151.661 L 83.009 152.381 L 83.882 153.181 L 84.682 154.054 L 85.403 154.994 L 86.039 155.992 L 86.586 157.042 L 87.039 158.136 L 87.395 159.265 L 87.651 160.421 L 87.805 161.595 L 87.857 162.778 M 74.286 147.794 L 73.103 147.742 L 71.929 147.587 L 70.773 147.331 L 69.644 146.975 L 68.550 146.522 L 67.500 145.975 L 66.501 145.339 L 65.562 144.619 L 64.689 143.819 L 63.889 142.946 L 63.169 142.006 L 62.533 141.008 L 61.986 139.958 L 61.533 138.864 L 61.177 137.735 L 60.920 136.579 L 60.766 135.405 L 60.714 134.222 M 101.429 149.206 L 102.611 149.258 L 103.785 149.413 L 104.941 149.669 L 106.070 150.025 L 107.164 150.478 L 108.214 151.025 L 109.213 151.661 L 110.152 152.381 L 111.025 153.181 L 111.825 154.054 L 112.546 154.994 L 113.182 155.992 L 113.728 157.042 L 114.182 158.136 L 114.538 159.265 L 114.794 160.421 L 114.948 161.595 L 115.000 162.778 M 101.429 147.794 L 100.246 147.742 L 99.072 147.587 L 97.916 147.331 L 96.787 146.975 L 95.693 146.522 L 94.643 145.975 L 93.644 145.339 L 92.705 144.619 L 91.832 143.819 L 91.032 142.946 L 90.312 142.006 L 89.675 141.008 L 89.129 139.958 L 88.676 138.864 L 88.320 137.735 L 88.063 136.579 L 87.909 135.405 L 87.857 134.222 M 128.571 149.206 L 129.754 149.258 L 130.928 149.413 L 132.084 149.669 L 133.213 150.025 L 134.307 150.478 L 135.357 151.025 L 136.356 151.661 L 137.295 152.381 L 138.168 153.181 L 138.968 154.054 L 139.688 154.994 L 140.325 155.992 L 140.871 157.042 L 141.324 158.136 L 141.680 159.265 L 141.937 160.421 L 142.091 161.595 L 142.143 162.778 M 142.143 134.222 L 142.195 133.039 L 142.349 131.866 L 142.605 130.710 L 142.961 129.581 L 143.414 128.487 L 143.961 127.437 L 144.597 126.438 L 145.318 125.499 L 146.118 124.626 L 146.991 123.826 L 147.930 123.105 L 148.929 122.469 L 149.979 121.922 L 151.073 121.469 L 152.202 121.113 L 153.358 120.857 L 154.531 120.702 L 155.714 120.651 M 142.143 162.778 L 142.091 163.961 L 141.937 165.134 L 141.680 166.290 L 141.324 167.419 L 140.871 168.513 L 140.325 169.563 L 139.688 170.562 L 138.968 171.501 L 138.168 172.374 L 137.295 173.174 L 136.356 173.895 L 135.357 174.531 L 134.307 175.078 L 133.213 175.531 L 132.084 175.887 L 130.928 176.143 L 129.754 176.298 L 128.571 176.349 M 169.286 134.222 L 169.337 133.039 L 169.492 131.866 L 169.748 130.710 L 170.104 129.581 L 170.557 128.487 L 171.104 127.437 L 171.740 126.438 L 172.461 125.499 L 173.261 124.626 L 174.134 123.826 L 175.073 123.105 L 176.071 122.469 L 177.122 121.922 L 178.215 121.469 L 179.345 121.113 L 180.500 120.857 L 181.674 120.702 L 182.857 120.651 M 169.286 162.778 L 169.234 163.961 L 169.080 165.134 L 168.823 166.290 L 168.467 167.419 L 168.014 168.513 L 167.467 169.563 L 166.831 170.562 L 166.111 171.501 L 165.311 172.374 L 164.438 173.174 L 163.499 173.895 L 162.500 174.531 L 161.450 175.078 L 160.356 175.531 L 159.227 175.887 L 158.071 176.143 L 156.897 176.298 L 155.714 176.349 M 182.857 147.794 L 181.674 147.742 L 180.500 147.587 L 179.345 147.331 L 178.215 146.975 L 177.122 146.522 L 176.071 145.975 L 175.073 145.339 L 174.134 144.619 L 173.261 143.819 L 172.461 142.946 L 171.740 142.006 L 171.104 141.008 L 170.557 139.958 L 170.104 138.864 L 169.748 137.735 L 169.492 136.579 L 169.337 135.405 L 169.286 134.222 M 210.000 149.206 L 211.183 149.258 L 212.357 149.413 L 213.513 149.669 L 214.642 150.025 L 215.736 150.478 L 216.786 151.025 L 217.784 151.661 L 218.724 152.381 L 219.596 153.181 L 220.396 154.054 L 221.117 154.994 L 221.753 155.992 L 222.300 157.042 L 222.753 158.136 L 223.109 159.265 L 223.365 160.421 L 223.520 161.595 L 223.571 162.778 M 210.000 147.794 L 208.817 147.742 L 207.643 147.587 L 206.487 147.331 L 205.358 146.975 L 204.264 146.522 L 203.214 145.975 L 202.216 145.339 L 201.276 144.619 L 200.404 143.819 L 199.604 142.946 L 198.883 142.006 L 198.247 141.008 L 197.700 139.958 L 197.247 138.864 L 196.891 137.735 L 196.635 136.579 L 196.480 135.405 L 196.429 134.222 M 237.143 149.206 L 238.326 149.258 L 239.500 149.413 L 240.655 149.669 L 241.785 150.025 L 242.878 150.478 L 243.929 151.025 L 244.927 151.661 L 245.866 152.381 L 246.739 153.181 L 247.539 154.054 L 248.260 154.994 L 248.896 155.992 L 249.443 157.042 L 249.896 158.136 L 250.252 159.265 L 250.508 160.421 L 250.663 161.595 L 250.714 162.778 M 250.714 134.222 L 250.766 133.039 L 250.920 131.866 L 251.177 130.710 L 251.533 129.581 L 251.986 128.487 L 252.533 127.437 L 253.169 126.438 L 253.889 125.499 L 254.689 124.626 L 255.562 123.826 L 256.501 123.105 L 257.500 122.469 L 258.550 121.922 L 259.644 121.469 L 260.773 121.113 L 261.929 120.857 L 263.103 120.702 L 264.286 120.651 M 250.714 162.778 L 250.663 163.961 L 250.508 165.134 L 250.252 166.290 L 249.896 167.419 L 249.443 168.513 L 248.896 169.563 L 248.260 170.562 L 247.539 171.501 L 246.739 172.374 L 245.866 173.174 L 244.927 173.895 L 243.929 174.531 L 242.878 175.078 L 241.785 175.531 L 240.655 175.887 L 239.500 176.143 L 238.326 176.298 L 237.143 176.349 M 277.857 134.222 L 277.909 133.039 L 278.063 131.866 L 278.320 130.710 L 278.676 129.581 L 279.129 128.487 L 279.675 127.437 L 280.312 126.438 L 281.032 125.499 L 281.832 124.626 L 282.705 123.826 L 283.644 123.105 L 284.643 122.469 L 285.693 121.922 L 286.787 121.469 L 287.916 121.113 L 289.072 120.857 L 290.246 120.702 L 291.429 120.651 M 277.857 162.778 L 277.805 163.961 L 277.651 165.134 L 277.395 166.290 L 277.039 167.419 L 276.586 168.513 L 276.039 169.563 L 275.403 170.562 L 274.682 171.501 L 273.882 172.374 L 273.009 173.174 L 272.070 173.895 L 271.071 174.531 L 270.021 175.078 L 268.927 175.531 L 267.798 175.887 L 266.642 176.143 L 265.469 176.298 L 264.286 176.349 M 305.000 134.222 L 305.052 133.039 L 305.206 131.866 L 305.462 130.710 L 305.818 129.581 L 306.272 128.487 L 306.818 127.437 L 307.454 126.438 L 308.175 125.499 L 308.975 124.626 L 309.848 123.826 L 310.787 123.105 L 311.786 122.469 L 312.836 121.922 L 313.930 121.469 L 315.059 121.113 L 316.215 120.857 L 317.389 120.702 L 318.571 120.651 M 305.000 162.778 L 304.948 163.961 L 304.794 165.134 L 304.538 166.290 L 304.182 167.419 L 303.728 168.513 L 303.182 169.563 L 302.546 170.562 L 301.825 171.501 L 301.025 172.374 L 300.152 173.174 L 299.213 173.895 L 298.214 174.531 L 297.164 175.078 L 296.070 175.531 L 294.941 175.887 L 293.785 176.143 L 292.611 176.298 L 291.429 176.349 M 332.143 134.222 L 332.195 133.039 L 332.349 131.866 L 332.605 130.710 L 332.961 129.581 L 333.414 128.487 L 333.961 127.437 L 334.597 126.438 L 335.318 125.499 L 336.118 124.626 L 336.991 123.826 L 337.930 123.105 L 338.929 122.469 L 339.979 121.922 L 341.073 121.469 L 342.202 121.113 L 343.358 120.857 L 344.531 120.702 L 345.714 120.651 M 332.143 162.778 L 332.091 163.961 L 331.937 165.134 L 331.680 166.290 L 331.324 167.419 L 330.871 168.513 L 330.325 169.563 L 329.688 170.562 L 328.968 171.501 L 328.168 172.374 L 327.295 173.174 L 326.356 173.895 L 325.357 174.531 L 324.307 175.078 L 323.213 175.531 L 322.084 175.887 L 320.928 176.143 L 319.754 176.298 L 318.571 176.349 M 359.286 134.222 L 359.337 133.039 L 359.492 131.866 L 359.748 130.710 L 360.104 129.581 L 360.557 128.487 L 361.104 127.437 L 361.740 126.438 L 362.461 125.499 L 363.261 124.626 L 364.134 123.826 L 365.073 123.105 L 366.071 122.469 L 367.122 121.922 L 368.215 121.469 L 369.345 121.113 L 370.500 120.857 L 371.674 120.702 L 372.857 120.651 M 359.286 162.778 L 359.234 163.961 L 359.080 165.134 L 358.823 166.290 L 358.467 167.419 L 358.014 168.513 L 357.467 169.563 L 356.831 170.562 L 356.111 171.501 L 355.311 172.374 L 354.438 173.174 L 353.499 173.895 L 352.500 174.531 L 351.450 175.078 L 350.356 175.531 L 349.227 175.887 L 348.071 176.143 L 346.897 176.298 L 345.714 176.349 M 386.429 134.222 L 386.480 133.039 L 386.635 131.866 L 386.891 130.710 L 387.247 129.581 L 387.700 128.487 L 388.247 127.437 L 388.883 126.438 L 389.604 125.499 L 390.404 124.626 L 391.276 123.826 L 392.216 123.105 L 393.214 122.469 L 394.264 121.922 L 395.358 121.469 L 396.487 121.113 L 397.643 120.857 L 398.817 120.702 L 400.000 120.651 M 386.429 162.778 L 386.377 163.961 L 386.222 165.134 L 385.966 166.290 L 385.610 167.419 L 385.157 168.513 L 384.610 169.563 L 383.974 170.562 L 383.253 171.501 L 382.454 172.374 L 381.581 173.174 L 380.641 173.895 L 379.643 174.531 L 378.593 175.078 L 377.499 175.531 L 376.370 175.887 L 375.214 176.143 L 374.040 176.298 L 372.857 176.349 M 20.000 176.349 L 18.817 176.298 L 17.643 176.143 L 16.487 175.887 L 15.358 175.531 L 14.264 175.078 L 13.214 174.531 L 12.216 173.895 L 11.276 173.174 L 10.404 172.374 L 9.604 171.501 L 8.883 170.562 L 8.247 169.563 L 7.700 168.513 L 7.247 167.419 L 6.891 166.290 L 6.635 165.134 L 6.480 163.961 L 6.429 162.778 M 47.143 177.762 L 48.326 177.814 L 49.500 177.968 L 50.655 178.224 L 51.785 178.580 L 52.878 179.033 L 53.929 179.580 L 54.927 180.216 L 55.866 180.937 L 56.739 181.737 L 57.539 182.610 L 58.260 183.549 L 58.896 184.548 L 59.443 185.598 L 59.896 186.692 L 60.252 187.821 L 60.508 188.977 L 60.663 190.151 L 60.714 191.333 M 60.714 162.778 L 60.766 161.595 L 60.920 160.421 L 61.177 159.265 L 61.533 158.136 L 61.986 157.042 L 62.533 155.992 L 63.169 154.994 L 63.889 154.054 L 64.689 153.181 L 65.562 152.381 L 66.501 151.661 L 67.500 151.025 L 68.550 150.478 L 69.644 150.025 L 70.773 149.669 L 71.929 149.413 L 73.103 149.258 L 74.286 149.206 M 60.714 191.333 L 60.663 192.516 L 60.508 193.690 L 60.252 194.846 L 59.896 195.975 L 59.443 197.069 L 58.896 198.119 L 58.260 199.118 L 57.539 200.057 L 56.739 200.930 L 55.866 201.730 L 54.927 202.450 L 53.929 203.087 L 52.878 203.633 L 51.785 204.086 L 50.655 204.442 L 49.500 204.699 L 48.326 204.853 L 47.143 204.905 M 87.857 162.778 L 87.909 161.595 L 88.063 160.421 L 88.320 159.265 L 88.676 158.136 L 89.129 157.042 L 89.675 155.992 L 90.312 154.994 L 91.032 154.054 L 91.832 153.181 L 92.705 152.381 L 93.644 151.661 L 94.643 151.025 L 95.693 150.478 L 96.787 150.025 L 97.916 149.669 L 99.072 149.413 L 100.246 149.258 L 101.429 149.206 M 87.857 191.333 L 87.805 192.516 L 87.651 193.690 L 87.395 194.846 L 87.039 195.975 L 86.586 197.069 L 86.039 198.119 L 85.403 199.118 L 84.682 200.057 L 83.882 200.930 L 83.009 201.730 L 82.070 202.450 L 81.071 203.087 L 80.021 203.633 L 78.927 204.086 L 77.798 204.442 L 76.642 204.699 L 75.469 204.853 L 74.286 204.905 M 115.000 162.778 L 115.052 161.595 L 115.206 160.421 L 115.462 159.265 L 115.818 158.136 L 116.272 157.042 L 116.818 155.992 L 117.454 154.994 L 118.175 154.054 L 118.975 153.181 L 119.848 152.381 L 120.787 151.661 L 121.786 151.025 L 122.836 150.478 L 123.930 150.025 L 125.059 149.669 L 126.215 149.413 L 127.389 149.258 L 128.571 149.206 M 115.000 191.333 L 114.948 192.516 L 114.794 193.690 L 114.538 194.846 L 114.182 195.975 L 113.728 197.069 L 113.182 198.119 L 112.546 199.118 L 111.825 200.057 L 111.025 200.930 L 110.152 201.730 L 109.213 202.450 L 108.214 203.087 L 107.164 203.633 L 106.070 204.086 L 104.941 204.442 L 103.785 204.699 L 102.611 204.853 L 101.429 204.905 M 142.143 162.778 L 142.195 161.595 L 142.349 160.421 L 142.605 159.265 L 142.961 158.136 L 143.414 157.042 L 143.961 155.992 L 144.597 154.994 L 145.318 154.054 L 146.118 153.181 L 146.991 152.381 L 147.930 151.661 L 148.929 151.025 L 149.979 150.478 L 151.073 150.025 L 152.202 149.669 L 153.358 149.413 L 154.531 149.258 L 155.714 149.206 M 142.143 191.333 L 142.091 192.516 L 141.937 193.690 L 141.680 194.846 L 141.324 195.975 L 140.871 197.069 L 140.325 198.119 L 139.688 199.118 L 138.968 200.057 L 138.168 200.930 L 137.295 201.730 L 136.356 202.450 L 135.357 203.087 L 134.307 203.633 L 133.213 204.086 L 132.084 204.442 L 130.928 204.699 L 129.754 204.853 L 128.571 204.905 M 155.714 176.349 L 154.531 176.298 L 153.358 176.143 L 152.202 175.887 L 151.073 175.531 L 149.979 175.078 L 148.929 174.531 L 147.930 173.895 L 146.991 173.174 L 146.118 172.374 L 145.318 171.501 L 144.597 170.562 L 143.961 169.563 L 143.414 168.513 L 142.961 167.419 L 142.605 166.290 L 142.349 165.134 L 142.195 163.961 L 142.143 162.778 M 182.857 177.762 L 184.040 177.814 L 185.214 177.968 L 186.370 178.224 L 187.499 178.580 L 188.593 179.033 L 189.643 179.580 L 190.641 180.216 L 191.581 180.937 L 192.454 181.737 L 193.253 182.610 L 193.974 183.549 L 194.610 184.548 L 195.157 185.598 L 195.610 186.692 L 195.966 187.821 L 196.222 188.977 L 196.377 190.151 L 196.429 191.333 M 196.429 162.778 L 196.480 161.595 L 196.635 160.421 L 196.891 159.265 L 197.247 158.136 L 197.700 157.042 L 198.247 155.992 L 198.883 154.994 L 199.604 154.054 L 200.404 153.181 L 201.276 152.381 L 202.216 151.661 L 203.214 151.025 L 204.264 150.478 L 205.358 150.025 L 206.487 149.669 L 207.643 149.413 L 208.817 149.258 L 210.000 149.206 M 196.429 191.333 L 196.377 192.516 L 196.222 193.690 L 195.966 194.846 L 195.610 195.975 L 195.157 197.069 L 194.610 198.119 L 193.974 199.118 L 193.253 200.057 L 192.454 200.930 L 191.581 201.730 L 190.641 202.450 L 189.643 203.087 L 188.593 203.633 L 187.499 204.086 L 186.370 204.442 L 185.214 204.699 L 184.040 204.853 L 182.857 204.905 M 210.000 176.349 L 208.817 176.298 L 207.643 176.143 L 206.487 175.887 L 205.358 175.531 L 204.264 175.078 L 203.214 174.531 L 202.216 173.895 L 201.276 173.174 L 200.404 172.374 L 199.604 171.501 L 198.883 170.562 L 198.247 169.563 L 197.700 168.513 L 197.247 167.419 L 196.891 166.290 L 196.635 165.134 L 196.480 163.961 L 196.429 162.778 M 237.143 177.762 L 238.326 177.814 L 239.500 177.968 L 240.655 178.224 L 241.785 178.580 L 242.878 179.033 L 243.929 179.580 L 244.927 180.216 L 245.866 180.937 L 246.739 181.737 L 247.539 182.610 L 248.260 183.549 L 248.896 184.548 L 249.443 185.598 L 249.896 186.692 L 250.252 187.821 L 250.508 188.977 L 250.663 190.151 L 250.714 191.333 M 250.714 162.778 L 250.766 161.595 L 250.920 160.421 L 251.177 159.265 L 251.533 158.136 L 251.986 157.042 L 252.533 155.992 L 253.169 154.994 L 253.889 154.054 L 254.689 153.181 L 255.562 152.381 L 256.501 151.661 L 257.500 151.025 L 258.550 150.478 L 259.644 150.025 L 260.773 149.669 L 261.929 149.413 L 263.103 149.258 L 264.286 149.206 M 250.714 191.333 L 250.663 192.516 L 250.508 193.690 L 250.252 194.846 L 249.896 195.975 L 249.443 197.069 L 248.896 198.119 L 248.260 199.118 L 247.539 200.057 L 246.739 200.930 L 245.866 201.730 L 244.927 202.450 L 243.929 203.087 L 242.878 203.633 L 241.785 204.086 L 240.655 204.442 L 239.500 204.699 L 238.326 204.853 L 237.143 204.905 M 264.286 176.349 L 263.103 176.298 L 261.929 176.143 L 260.773 175.887 L 259.644 175.531 L 258.550 175.078 L 257.500 174.531 L 256.501 173.895 L 255.562 173.174 L 254.689 172.374 L 253.889 171.501 L 253.169 170.562 L 252.533 169.563 L 251.986 168.513 L 251.533 167.419 L 251.177 166.290 L 250.920 165.134 L 250.766 163.961 L 250.714 162.778 M 291.429 177.762 L 292.611 177.814 L 293.785 177.968 L 294.941 178.224 L 296.070 178.580 L 297.164 179.033 L 298.214 179.580 L 299.213 180.216 L 300.152 180.937 L 301.025 181.737 L 301.825 182.610 L 302.546 183.549 L 303.182 184.548 L 303.728 185.598 L 304.182 186.692 L 304.538 187.821 L 304.794 188.977 L 304.948 190.151 L 305.000 191.333 M 291.429 176.349 L 290.246 176.298 L 289.072 176.143 L 287.916 175.887 L 286.787 175.531 L 285.693 175.078 L 284.643 174.531 L 283.644 173.895 L 282.705 173.174 L 281.832 172.374 L 281.032 171.501 L 280.312 170.562 L 279.675 169.563 L 279.129 168.513 L 278.676 167.419 L 278.320 166.290 L 278.063 165.134 L 277.909 163.961 L 277.857 162.778 M 318.571 177.762 L 319.754 177.814 L 320.928 177.968 L 322.084 178.224 L 323.213 178.580 L 324.307 179.033 L 325.357 179.580 L 326.356 180.216 L 327.295 180.937 L 328.168 181.737 L 328.968 182.610 L 329.688 183.549 L 330.325 184.548 L 330.871 185.598 L 331.324 186.692 L 331.680 187.821 L 331.937 188.977 L 332.091 190.151 L 332.143 191.333 M 318.571 176.349 L 317.389 176.298 L 316.215 176.143 L 315.059 175.887 L 313.930 175.531 L 312.836 175.078 L 311.786 174.531 L 310.787 173.895 L 309.848 173.174 L 308.975 172.374 L 308.175 171.501 L 307.454 170.562 L 306.818 169.563 L 306.272 168.513 L 305.818 167.419 L 305.462 166.290 L 305.206 165.134 L 305.052 163.961 L 305.000 162.778 M 345.714 177.762 L 346.897 177.814 L 348.071 177.968 L 349.227 178.224 L 350.356 178.580 L 351.450 179.033 L 352.500 179.580 L 353.499 180.216 L 354.438 180.937 L 355.311 181.737 L 356.111 182.610 L 356.831 183.549 L 357.467 184.548 L 358.014 185.598 L 358.467 186.692 L 358.823 187.821 L 359.080 188.977 L 359.234 190.151 L 359.286 191.333 M 359.286 162.778 L 359.337 161.595 L 359.492 160.421 L 359.748 159.265 L 360.104 158.136 L 360.557 157.042 L 361.104 155.992 L 361.740 154.994 L 362.461 154.054 L 363.261 153.181 L 364.134 152.381 L 365.073 151.661 L 366.071 151.025 L 367.122 150.478 L 368.215 150.025 L 369.345 149.669 L 370.500 149.413 L 371.674 149.258 L 372.857 149.206 M 359.286 191.333 L 359.234 192.516 L 359.080 193.690 L 358.823 194.846 L 358.467 195.975 L 358.014 197.069 L 357.467 198.119 L 356.831 199.118 L 356.111 200.057 L 355.311 200.930 L 354.438 201.730 L 353.499 202.450 L 352.500 203.087 L 351.450 203.633 L 350.356 204.086 L 349.227 204.442 L 348.071 204.699 L 346.897 204.853 L 345.714 204.905 M 386.429 162.778 L 386.480 161.595 L 386.635 160.421 L 386.891 159.265 L 387.247 158.136 L 387.700 157.042 L 388.247 155.992 L 388.883 154.994 L 389.604 154.054 L 390.404 153.181 L 391.276 152.381 L 392.216 151.661 L 393.214 151.025 L 394.264 150.478 L 395.358 150.025 L 396.487 149.669 L 397.643 149.413 L 398.817 149.258 L 400.000 149.206 M 386.429 191.333 L 386.377 192.516 L 386.222 193.690 L 385.966 194.846 L 385.610 195.975 L 385.157 197.069 L 384.610 198.119 L 383.974 199.118 L 383.253 200.057 L 382.454 200.930 L 381.581 201.730 L 380.641 202.450 L 379.643 203.087 L 378.593 203.633 L 377.499 204.086 L 376.370 204.442 L 375.214 204.699 L 374.040 204.853 L 372.857 204.905 M 33.571 191.333 L 33.623 190.151 L 33.778 188.977 L 34.034 187.821 L 34.390 186.692 L 34.843 185.598 L 35.390 184.548 L 36.026 183.549 L 36.747 182.610 L 37.546 181.737 L 38.419 180.937 L 39.359 180.216 L 40.357 179.580 L 41.407 179.033 L 42.501 178.580 L 43.630 178.224 L 44.786 177.968 L 45.960 177.814 L 47.143 177.762 M 33.571 219.889 L 33.520 221.072 L 33.365 222.246 L 33.109 223.401 L 32.753 224.531 L 32.300 225.624 L 31.753 226.675 L 31.117 227.673 L 30.396 228.612 L 29.596 229.485 L 28.724 230.285 L 27.784 231.006 L 26.786 231.642 L 25.736 232.189 L 24.642 232.642 L 23.513 232.998 L 22.357 233.254 L 21.183 233.409 L 20.000 233.460 M 47.143 204.905 L 45.960 204.853 L 44.786 204.699 L 43.630 204.442 L 42.501 204.086 L 41.407 203.633 L 40.357 203.087 L 39.359 202.450 L 38.419 201.730 L 37.546 200.930 L 36.747 200.057 L 36.026 199.118 L 35.390 198.119 L 34.843 197.069 L 34.390 195.975 L 34.034 194.846 L 33.778 193.690 L 33.623 192.516 L 33.571 191.333 M 74.286 206.317 L 75.469 206.369 L 76.642 206.524 L 77.798 206.780 L 78.927 207.136 L 80.021 207.589 L 81.071 208.136 L 82.070 208.772 L 83.009 209.493 L 83.882 210.292 L 84.682 211.165 L 85.403 212.105 L 86.039 213.103 L 86.586 214.153 L 87.039 215.247 L 87.395 216.376 L 87.651 217.532 L 87.805 218.706 L 87.857 219.889 M 87.857 191.333 L 87.909 190.151 L 88.063 188.977 L 88.320 187.821 L 88.676 186.692 L 89.129 185.598 L 89.675 184.548 L 90.312 183.549 L 91.032 182.610 L 91.832 181.737 L 92.705 180.937 L 93.644 180.216 L 94.643 179.580 L 95.693 179.033 L 96.787 178.580 L 97.916 178.224 L 99.072 177.968 L 100.246 177.814 L 101.429 177.762 M 87.857 219.889 L 87.805 221.072 L 87.651 222.246 L 87.395 223.401 L 87.039 224.531 L 86.586 225.624 L 86.039 226.675 L 85.403 227.673 L 84.682 228.612 L 83.882 229.485 L 83.009 230.285 L 82.070 231.006 L 81.071 231.642 L 80.021 232.189 L 78.927 232.642 L 77.798 232.998 L 76.642 233.254 L 75.469 233.409 L 74.286 233.460 M 101.429 204.905 L 100.246 204.853 L 99.072 204.699 L 97.916 204.442 L 96.787 204.086 L 95.693 203.633 L 94.643 203.087 L 93.644 202.450 L 92.705 201.730 L 91.832 200.930 L 91.032 200.057 L 90.312 199.118 L 89.675 198.119 L 89.129 197.069 L 88.676 195.975 L 88.320 194.846 L 88.063 193.690 L 87.909 192.516 L 87.857 191.333 M 128.571 206.317 L 129.754 206.369 L 130.928 206.524 L 132.084 206.780 L 133.213 207.136 L 134.307 207.589 L 135.357 208.136 L 136.356 208.772 L 137.295 209.493 L 138.168 210.292 L 138.968 211.165 L 139.688 212.105 L 140.325 213.103 L 140.871 214.153 L 141.324 215.247 L 141.680 216.376 L 141.937 217.532 L 142.091 218.706 L 142.143 219.889 M 128.571 204.905 L 127.389 204.853 L 126.215 204.699 L 125.059 204.442 L 123.930 204.086 L 122.836 203.633 L 121.786 203.087 L 120.787 202.450 L 119.848 201.730 L 118.975 200.930 L 118.175 200.057 L 117.454 199.118 L 116.818 198.119 L 116.272 197.069 L 115.818 195.975 L 115.462 194.846 L 115.206 193.690 L 115.052 192.516 L 115.000 191.333 M 155.714 206.317 L 156.897 206.369 L 158.071 206.524 L 159.227 206.780 L 160.356 207.136 L 161.450 207.589 L 162.500 208.136 L 163.499 208.772 L 164.438 209.493 L 165.311 210.292 L 166.111 211.165 L 166.831 212.105 L 167.467 213.103 L 168.014 214.153 L 168.467 215.247 L 168.823 216.376 L 169.080 217.532 L 169.234 218.706 L 169.286 219.889 M 155.714 204.905 L 154.531 204.853 L 153.358 204.699 L 152.202 204.442 L 151.073 204.086 L 149.979 203.633 L 148.929 203.087 L 147.930 202.450 L 146.991 201.730 L 146.118 200.930 L 145.318 200.057 L 144.597 199.118 L 143.961 198.119 L 143.414 197.069 L 142.961 195.975 L 142.605 194.846 L 142.349 193.690 L 142.195 192.516 L 142.143 191.333 M 182.857 206.317 L 184.040 206.369 L 185.214 206.524 L 186.370 206.780 L 187.499 207.136 L 188.593 207.589 L 189.643 208.136 L 190.641 208.772 L 191.581 209.493 L 192.454 210.292 L 193.253 211.165 L 193.974 212.105 L 194.610 213.103 L 195.157 214.153 L 195.610 215.247 L 195.966 216.376 L 196.222 217.532 L 196.377 218.706 L 196.429 219.889 M 196.429 191.333 L 196.480 190.151 L 196.635 188.977 L 196.891 187.821 L 197.247 186.692 L 197.700 185.598 L 198.247 184.548 L 198.883 183.549 L 199.604 182.610 L 200.404 181.737 L 201.276 180.937 L 202.216 180.216 L 203.214 179.580 L 204.264 179.033 L 205.358 178.580 L 206.487 178.224 L 207.643 177.968 L 208.817 177.814 L 210.000 177.762 M 196.429 219.889 L 196.377 221.072 L 196.222 222.246 L 195.966 223.401 L 195.610 224.531 L 195.157 225.624 L 194.610 226.675 L 193.974 227.673 L 193.253 228.612 L 192.454 229.485 L 191.581 230.285 L 190.641 231.006 L 189.643 231.642 L 188.593 232.189 L 187.499 232.642 L 186.370 232.998 L 185.214 233.254 L 184.040 233.409 L 182.857 233.460 M 223.571 191.333 L 223.623 190.151 L 223.778 188.977 L 224.034 187.821 L 224.390 186.692 L 224.843 185.598 L 225.390 184.548 L 226.026 183.549 L 226.747 182.610 L 227.546 181.737 L 228.419 180.937 L 229.359 180.216 L 230.357 179.580 L 231.407 179.033 L 232.501 178.580 L 233.630 178.224 L 234.786 177.968 L 235.960 177.814 L 237.143 177.762 M 223.571 219.889 L 223.520 221.072 L 223.365 222.246 L 223.109 223.401 L 222.753 224.531 L 222.300 225.624 L 221.753 226.675 L 221.117 227.673 L 220.396 228.612 L 219.596 229.485 L 218.724 230.285 L 217.784 231.006 L 216.786 231.642 L 215.736 232.189 L 214.642 232.642 L 213.513 232.998 L 212.357 233.254 L 211.183 233.409 L 210.000 233.460 M 237.143 204.905 L 235.960 204.853 L 234.786 204.699 L 233.630 204.442 L 232.501 204.086 L 231.407 203.633 L 230.357 203.087 L 229.359 202.450 L 228.419 201.730 L 227.546 200.930 L 226.747 200.057 L 226.026 199.118 L 225.390 198.119 L 224.843 197.069 L 224.390 195.975 L 224.034 194.846 L 223.778 193.690 L 223.623 192.516 L 223.571 191.333 M 264.286 206.317 L 265.469 206.369 L 266.642 206.524 L 267.798 206.780 L 268.927 207.136 L 270.021 207.589 L 271.071 208.136 L 272.070 208.772 L 273.009 209.493 L 273.882 210.292 L 274.682 211.165 L 275.403 212.105 L 276.039 213.103 L 276.586 214.153 L 277.039 215.247 L 277.395 216.376 L 277.651 217.532 L 277.805 218.706 L 277.857 219.889 M 264.286 204.905 L 263.103 204.853 L 261.929 204.699 L 260.773 204.442 L 259.644 204.086 L 258.550 203.633 L 257.500 203.087 L 256.501 202.450 L 255.562 201.730 L 254.689 200.930 L 253.889 200.057 L 253.169 199.118 L 252.533 198.119 L 251.986 197.069 L 251.533 195.975 L 251.177 194.846 L 250.920 193.690 L 250.766 192.516 L 250.714 191.333 M 291.429 206.317 L 292.611 206.369 L 293.785 206.524 L 294.941 206.780 L 296.070 207.136 L 297.164 207.589 L 298.214 208.136 L 299.213 208.772 L 300.152 209.493 L 301.025 210.292 L 301.825 211.165 L 302.546 212.105 L 303.182 213.103 L 303.728 214.153 L 304.182 215.247 L 304.538 216.376 L 304.794 217.532 L 304.948 218.706 L 305.000 219.889 M 291.429 204.905 L 290.246 204.853 L 289.072 204.699 L 287.916 204.442 L 286.787 204.086 L 285.693 203.633 L 284.643 203.087 L 283.644 202.450 L 282.705 201.730 L 281.832 200.930 L 281.032 200.057 L 280.312 199.118 L 279.675 198.119 L 279.129 197.069 L 278.676 195.975 L 278.320 194.846 L 278.063 193.690 L 277.909 192.516 L 277.857 191.333 M 318.571 206.317 L 319.754 206.369 L 320.928 206.524 L 322.084 206.780 L 323.213 207.136 L 324.307 207.589 L 325.357 208.136 L 326.356 208.772 L 327.295 209.493 L 328.168 210.292 L 328.968 211.165 L 329.688 212.105 L 330.325 213.103 L 330.871 214.153 L 331.324 215.247 L 331.680 216.376 L 331.937 217.532 L 332.091 218.706 L 332.143 219.889 M 332.143 191.333 L 332.195 190.151 L 332.349 188.977 L 332.605 187.821 L 332.961 186.692 L 333.414 185.598 L 333.961 184.548 L 334.597 183.549 L 335.318 182.610 L 336.118 181.737 L 336.991 180.937 L 337.930 180.216 L 338.929 179.580 L 339.979 179.033 L 341.073 178.580 L 342.202 178.224 L 343.358 177.968 L 344.531 177.814 L 345.714 177.762 M 332.143 219.889 L 332.091 221.072 L 331.937 222.246 L 331.680 223.401 L 331.324 224.531 L 330.871 225.624 L 330.325 226.675 L 329.688 227.673 L 328.968 228.612 L 328.168 229.485 L 327.295 230.285 L 326.356 231.006 L 325.357 231.642 L 324.307 232.189 L 323.213 232.642 L 322.084 232.998 L 320.928 233.254 L 319.754 233.409 L 318.571 233.460 M 345.714 204.905 L 344.531 204.853 L 343.358 204.699 L 342.202 204.442 L 341.073 204.086 L 339.979 203.633 L 338.929 203.087 L 337.930 202.450 L 336.991 201.730 L 336.118 200.930 L 335.318 200.057 L 334.597 199.118 L 333.961 198.119 L 333.414 197.069 L 332.961 195.975 L 332.605 194.846 L 332.349 193.690 L 332.195 192.516 L 332.143 191.333 M 372.857 206.317 L 374.040 206.369 L 375.214 206.524 L 376.370 206.780 L 377.499 207.136 L 378.593 207.589 L 379.643 208.136 L 380.641 208.772 L 381.581 209.493 L 382.454 210.292 L 383.253 211.165 L 383.974 212.105 L 384.610 213.103 L 385.157 214.153 L 385.610 215.247 L 385.966 216.376 L 386.222 217.532 L 386.377 218.706 L 386.429 219.889 M 372.857 204.905 L 371.674 204.853 L 370.500 204.699 L 369.345 204.442 L 368.215 204.086 L 367.122 203.633 L 366.071 203.087 L 365.073 202.450 L 364.134 201.730 L 363.261 200.930 L 362.461 200.057 L 361.740 199.118 L 361.104 198.119 L 360.557 197.069 L 360.104 195.975 L 359.748 194.846 L 359.492 193.690 L 359.337 192.516 L 359.286 191.333 M 400.000 206.317 L 401.183 206.369 L 402.357 206.524 L 403.513 206.780 L 404.642 207.136 L 405.736 207.589 L 406.786 208.136 L 407.784 208.772 L 408.724 209.493 L 409.596 210.292 L 410.396 211.165 L 411.117 212.105 L 411.753 213.103 L 412.300 214.153 L 412.753 215.247 L 413.109 216.376 L 413.365 217.532 L 413.520 218.706 L 413.571 219.889 M 33.571 219.889 L 33.623 218.706 L 33.778 217.532 L 34.034 216.376 L 34.390 215.247 L 34.843 214.153 L 35.390 213.103 L 36.026 212.105 L 36.747 211.165 L 37.546 210.292 L 38.419 209.493 L 39.359 208.772 L 40.357 208.136 L 41.407 207.589 L 42.501 207.136 L 43.630 206.780 L 44.786 206.524 L 45.960 206.369 L 47.143 206.317 M 33.571 248.444 L 33.520 249.627 L 33.365 250.801 L 33.109 251.957 L 32.753 253.086 L 32.300 254.180 L 31.753 255.230 L 31.117 256.229 L 30.396 257.168 L 29.596 258.041 L 28.724 258.841 L 27.784 259.562 L 26.786 260.198 L 25.736 260.744 L 24.642 261.197 L 23.513 261.553 L 22.357 261.810 L 21.183 261.964 L 20.000 262.016 M 60.714 219.889 L 60.766 218.706 L 60.920 217.532 L 61.177 216.376 L 61.533 215.247 L 61.986 214.153 L 62.533 213.103 L 63.169 212.105 L 63.889 211.165 L 64.689 210.292 L 65.562 209.493 L 66.501 208.772 L 67.500 208.136 L 68.550 207.589 L 69.644 207.136 L 70.773 206.780 L 71.929 206.524 L 73.103 206.369 L 74.286 206.317 M 60.714 248.444 L 60.663 249.627 L 60.508 250.801 L 60.252 251.957 L 59.896 253.086 L 59.443 254.180 L 58.896 255.230 L 58.260 256.229 L 57.539 257.168 L 56.739 258.041 L 55.866 258.841 L 54.927 259.562 L 53.929 260.198 L 52.878 260.744 L 51.785 261.197 L 50.655 261.553 L 49.500 261.810 L 48.326 261.964 L 47.143 262.016 M 74.286 233.460 L 73.103 233.409 L 71.929 233.254 L 70.773 232.998 L 69.644 232.642 L 68.550 232.189 L 67.500 231.642 L 66.501 231.006 L 65.562 230.285 L 64.689 229.485 L 63.889 228.612 L 63.169 227.673 L 62.533 226.675 L 61.986 225.624 L 61.533 224.531 L 61.177 223.401 L 60.920 222.246 L 60.766 221.072 L 60.714 219.889 M 101.429 234.873 L 102.611 234.925 L 103.785 235.079 L 104.941 235.335 L 106.070 235.691 L 107.164 236.145 L 108.214 236.691 L 109.213 237.327 L 110.152 238.048 L 111.025 238.848 L 111.825 239.721 L 112.546 240.660 L 113.182 241.659 L 113.728 242.709 L 114.182 243.803 L 114.538 244.932 L 114.794 246.088 L 114.948 247.262 L 115.000 248.444 M 115.000 219.889 L 115.052 218.706 L 115.206 217.532 L 115.462 216.376 L 115.818 215.247 L 116.272 214.153 L 116.818 213.103 L 117.454 212.105 L 118.175 211.165 L 118.975 210.292 L 119.848 209.493 L 120.787 208.772 L 121.786 208.136 L 122.836 207.589 L 123.930 207.136 L 125.059 206.780 L 126.215 206.524 L 127.389 206.369 L 128.571 206.317 M 115.000 248.444 L 114.948 249.627 L 114.794 250.801 L 114.538 251.957 L 114.182 253.086 L 113.728 254.180 L 113.182 255.230 L 112.546 256.229 L 111.825 257.168 L 111.025 258.041 L 110.152 258.841 L 109.213 259.562 L 108.214 260.198 L 107.164 260.744 L 106.070 261.197 L 104.941 261.553 L 103.785 261.810 L 102.611 261.964 L 101.429 262.016 M 142.143 219.889 L 142.195 218.706 L 142.349 217.532 L 142.605 216.376 L 142.961 215.247 L 143.414 214.153 L 143.961 213.103 L 144.597 212.105 L 145.318 211.165 L 146.118 210.292 L 146.991 209.493 L 147.930 208.772 L 148.929 208.136 L 149.979 207.589 L 151.073 207.136 L 152.202 206.780 L 153.358 206.524 L 154.531 206.369 L 155.714 206.317 M 142.143 248.444 L 142.091 249.627 L 141.937 250.801 L 141.680 251.957 L 141.324 253.086 L 140.871 254.180 L 140.325 255.230 L 139.688 256.229 L 138.968 257.168 L 138.168 258.041 L 137.295 258.841 L 136.356 259.562 L 135.357 260.198 L 134.307 260.744 L 133.213 261.197 L 132.084 261.553 L 130.928 261.810 L 129.754 261.964 L 128.571 262.016 M 169.286 219.889 L 169.337 218.706 L 169.492 217.532 L 169.748 216.376 L 170.104 215.247 L 170.557 214.153 L 171.104 213.103 L 171.740 212.105 L 172.461 211.165 L 173.261 210.292 L 174.134 209.493 L 175.073 208.772 L 176.071 208.136 L 177.122 207.589 L 178.215 207.136 L 179.345 206.780 L 180.500 206.524 L 181.674 206.369 L 182.857 206.317 M 169.286 248.444 L 169.234 249.627 L 169.080 250.801 L 168.823 251.957 L 168.467 253.086 L 168.014 254.180 L 167.467 255.230 L 166.831 256.229 L 166.111 257.168 L 165.311 258.041 L 164.438 258.841 L 163.499 259.562 L 162.500 260.198 L 161.450 260.744 L 160.356 261.197 L 159.227 261.553 L 158.071 261.810 L 156.897 261.964 L 155.714 262.016 M 182.857 233.460 L 181.674 233.409 L 180.500 233.254 L 179.345 232.998 L 178.215 232.642 L 177.122 232.189 L 176.071 231.642 L 175.073 231.006 L 174.134 230.285 L 173.261 229.485 L 172.461 228.612 L 171.740 227.673 L 171.104 226.675 L 170.557 225.624 L 170.104 224.531 L 169.748 223.401 L 169.492 222.246 L 169.337 221.072 L 169.286 219.889 M 210.000 234.873 L 211.183 234.925 L 212.357 235.079 L 213.513 235.335 L 214.642 235.691 L 215.736 236.145 L 216.786 236.691 L 217.784 237.327 L 218.724 238.048 L 219.596 238.848 L 220.396 239.721 L 221.117 240.660 L 221.753 241.659 L 222.300 242.709 L 222.753 243.803 L 223.109 244.932 L 223.365 246.088 L 223.520 247.262 L 223.571 248.444 M 223.571 219.889 L 223.623 218.706 L 223.778 217.532 L 224.034 216.376 L 224.390 215.247 L 224.843 214.153 L 225.390 213.103 L 226.026 212.105 L 226.747 211.165 L 227.546 210.292 L 228.419 209.493 L 229.359 208.772 L 230.357 208.136 L 231.407 207.589 L 232.501 207.136 L 233.630 206.780 L 234.786 206.524 L 235.960 206.369 L 237.143 206.317 M 223.571 248.444 L 223.520 249.627 L 223.365 250.801 L 223.109 251.957 L 222.753 253.086 L 222.300 254.180 L 221.753 255.230 L 221.117 256.229 L 220.396 257.168 L 219.596 258.041 L 218.724 258.841 L 217.784 259.562 L 216.786 260.198 L 215.736 260.744 L 214.642 261.197 L 213.513 261.553 L 212.357 261.810 L 211.183 261.964 L 210.000 262.016 M 237.143 233.460 L 235.960 233.409 L 234.786 233.254 L 233.630 232.998 L 232.501 232.642 L 231.407 232.189 L 230.357 231.642 L 229.359 231.006 L 228.419 230.285 L 227.546 229.485 L 226.747 228.612 L 226.026 227.673 L 225.390 226.675 L 224.843 225.624 L 224.390 224.531 L 224.034 223.401 L 223.778 222.246 L 223.623 221.072 L 223.571 219.889 M 264.286 234.873 L 265.469 234.925 L 266.642 235.079 L 267.798 235.335 L 268.927 235.691 L 270.021 236.145 L 271.071 236.691 L 272.070 237.327 L 273.009 238.048 L 273.882 238.848 L 274.682 239.721 L 275.403 240.660 L 276.039 241.659 L 276.586 242.709 L 277.039 243.803 L 277.395 244.932 L 277.651 246.088 L 277.805 247.262 L 277.857 248.444 M 277.857 219.889 L 277.909 218.706 L 278.063 217.532 L 278.320 216.376 L 278.676 215.247 L 279.129 214.153 L 279.675 213.103 L 280.312 212.105 L 281.032 211.165 L 281.832 210.292 L 282.705 209.493 L 283.644 208.772 L 284.643 208.136 L 285.693 207.589 L 286.787 207.136 L 287.916 206.780 L 289.072 206.524 L 290.246 206.369 L 291.429 206.317 M 277.857 248.444 L 277.805 249.627 L 277.651 250.801 L 277.395 251.957 L 277.039 253.086 L 276.586 254.180 L 276.039 255.230 L 275.403 256.229 L 274.682 257.168 L 273.882 258.041 L 273.009 258.841 L 272.070 259.562 L 271.071 260.198 L 270.021 260.744 L 268.927 261.197 L 267.798 261.553 L 266.642 261.810 L 265.469 261.964 L 264.286 262.016 M 291.429 233.460 L 290.246 233.409 L 289.072 233.254 L 287.916 232.998 L 286.787 232.642 L 285.693 232.189 L 284.643 231.642 L 283.644 231.006 L 282.705 230.285 L 281.832 229.485 L 281.032 228.612 L 280.312 227.673 L 279.675 226.675 L 279.129 225.624 L 278.676 224.531 L 278.320 223.401 L 278.063 222.246 L 277.909 221.072 L 277.857 219.889 M 318.571 234.873 L 319.754 234.925 L 320.928 235.079 L 322.084 235.335 L 323.213 235.691 L 324.307 236.145 L 325.357 236.691 L 326.356 237.327 L 327.295 238.048 L 328.168 238.848 L 328.968 239.721 L 329.688 240.660 L 330.325 241.659 L 330.871 242.709 L 331.324 243.803 L 331.680 244.932 L 331.937 246.088 L 332.091 247.262 L 332.143 248.444 M 332.143 219.889 L 332.195 218.706 L 332.349 217.532 L 332.605 216.376 L 332.961 215.247 L 333.414 214.153 L 333.961 213.103 L 334.597 212.105 L 335.318 211.165 L 336.118 210.292 L 336.991 209.493 L 337.930 208.772 L 338.929 208.136 L 339.979 207.589 L 341.073 207.136 L 342.202 206.780 L 343.358 206.524 L 344.531 206.369 L 345.714 206.317 M 332.143 248.444 L 332.091 249.627 L 331.937 250.801 L 331.680 251.957 L 331.324 253.086 L 330.871 254.180 L 330.325 255.230 L 329.688 256.229 L 328.968 257.168 L 328.168 258.041 L 327.295 258.841 L 326.356 259.562 L 325.357 260.198 L 324.307 260.744 L 323.213 261.197 L 322.084 261.553 L 320.928 261.810 L 319.754 261.964 L 318.571 262.016 M 345.714 233.460 L 344.531 233.409 L 343.358 233.254 L 342.202 232.998 L 341.073 232.642 L 339.979 232.189 L 338.929 231.642 L 337.930 231.006 L 336.991 230.285 L 336.118 229.485 L 335.318 228.612 L 334.597 227.673 L 333.961 226.675 L 333.414 225.624 L 332.961 224.531 L 332.605 223.401 L 332.349 222.246 L 332.195 221.072 L 332.143 219.889 M 372.857 234.873 L 374.040 234.925 L 375.214 235.079 L 376.370 235.335 L 377.499 235.691 L 378.593 236.145 L 379.643 236.691 L 380.641 237.327 L 381.581 238.048 L 382.454 238.848 L 383.253 239.721 L 383.974 240.660 L 384.610 241.659 L 385.157 242.709 L 385.610 243.803 L 385.966 244.932 L 386.222 246.088 L 386.377 247.262 L 386.429 248.444 M 386.429 219.889 L 386.480 218.706 L 386.635 217.532 L 386.891 216.376 L 387.247 215.247 L 387.700 214.153 L 388.247 213.103 L 388.883 212.105 L 389.604 211.165 L 390.404 210.292 L 391.276 209.493 L 392.216 208.772 L 393.214 208.136 L 394.264 207.589 L 395.358 207.136 L 396.487 206.780 L 397.643 206.524 L 398.817 206.369 L 400.000 206.317 M 386.429 248.444 L 386.377 249.627 L 386.222 250.801 L 385.966 251.957 L 385.610 253.086 L 385.157 254.180 L 384.610 255.230 L 383.974 256.229 L 383.253 257.168 L 382.454 258.041 L 381.581 258.841 L 380.641 259.562 L 379.643 260.198 L 378.593 260.744 L 377.499 261.197 L 376.370 261.553 L 375.214 261.810 L 374.040 261.964 L 372.857 262.016 M 33.571 248.444 L 33.623 247.262 L 33.778 246.088 L 34.034 244.932 L 34.390 243.803 L 34.843 242.709 L 35.390 241.659 L 36.026 240.660 L 36.747 239.721 L 37.546 238.848 L 38.419 238.048 L 39.359 237.327 L 40.357 236.691 L 41.407 236.145 L 42.501 235.691 L 43.630 235.335 L 44.786 235.079 L 45.960 234.925 L 47.143 234.873 M 33.571 277.000 L 33.520 278.183 L 33.365 279.357 L 33.109 280.513 L 32.753 281.642 L 32.300 282.736 L 31.753 283.786 L 31.117 284.784 L 30.396 285.724 L 29.596 286.596 L 28.724 287.396 L 27.784 288.117 L 26.786 288.753 L 25.736 289.300 L 24.642 289.753 L 23.513 290.109 L 22.357 290.365 L 21.183 290.520 L 20.000 290.571 M 47.143 262.016 L 45.960 261.964 L 44.786 261.810 L 43.630 261.553 L 42.501 261.197 L 41.407 260.744 L 40.357 260.198 L 39.359 259.562 L 38.419 258.841 L 37.546 258.041 L 36.747 257.168 L 36.026 256.229 L 35.390 255.230 L 34.843 254.180 L 34.390 253.086 L 34.034 251.957 L 33.778 250.801 L 33.623 249.627 L 33.571 248.444 M 74.286 263.429 L 75.469 263.480 L 76.642 263.635 L 77.798 263.891 L 78.927 264.247 L 80.021 264.700 L 81.071 265.247 L 82.070 265.883 L 83.009 266.604 L 83.882 267.404 L 84.682 268.276 L 85.403 269.216 L 86.039 270.214 L 86.586 271.264 L 87.039 272.358 L 87.395 273.487 L 87.651 274.643 L 87.805 275.817 L 87.857 277.000 M 74.286 262.016 L 73.103 261.964 L 71.929 261.810 L 70.773 261.553 L 69.644 261.197 L 68.550 260.744 L 67.500 260.198 L 66.501 259.562 L 65.562 258.841 L 64.689 258.041 L 63.889 257.168 L 63.169 256.229 L 62.533 255.230 L 61.986 254.180 L 61.533 253.086 L 61.177 251.957 L 60.920 250.801 L 60.766 249.627 L 60.714 248.444 M 101.429 263.429 L 102.611 263.480 L 103.785 263.635 L 104.941 263.891 L 106.070 264.247 L 107.164 264.700 L 108.214 265.247 L 109.213 265.883 L 110.152 266.604 L 111.025 267.404 L 111.825 268.276 L 112.546 269.216 L 113.182 270.214 L 113.728 271.264 L 114.182 272.358 L 114.538 273.487 L 114.794 274.643 L 114.948 275.817 L 115.000 277.000 M 101.429 262.016 L 100.246 261.964 L 99.072 261.810 L 97.916 261.553 L 96.787 261.197 L 95.693 260.744 L 94.643 260.198 L 93.644 259.562 L 92.705 258.841 L 91.832 258.041 L 91.032 257.168 L 90.312 256.229 L 89.675 255.230 L 89.129 254.180 L 88.676 253.086 L 88.320 251.957 L 88.063 250.801 L 87.909 249.627 L 87.857 248.444 M 128.571 263.429 L 129.754 263.480 L 130.928 263.635 L 132.084 263.891 L 133.213 264.247 L 134.307 264.700 L 135.357 265.247 L 136.356 265.883 L 137.295 266.604 L 138.168 267.404 L 138.968 268.276 L 139.688 269.216 L 140.325 270.214 L 140.871 271.264 L 141.324 272.358 L 141.680 273.487 L 141.937 274.643 L 142.091 275.817 L 142.143 277.000 M 142.143 248.444 L 142.195 247.262 L 142.349 246.088 L 142.605 244.932 L 142.961 243.803 L 143.414 242.709 L 143.961 241.659 L 144.597 240.660 L 145.318 239.721 L 146.118 238.848 L 146.991 238.048 L 147.930 237.327 L 148.929 236.691 L 149.979 236.145 L 151.073 235.691 L 152.202 235.335 L 153.358 235.079 L 154.531 234.925 L 155.714 234.873 M 142.143 277.000 L 142.091 278.183 L 141.937 279.357 L 141.680 280.513 L 141.324 281.642 L 140.871 282.736 L 140.325 283.786 L 139.688 284.784 L 138.968 285.724 L 138.168 286.596 L 137.295 287.396 L 136.356 288.117 L 135.357 288.753 L 134.307 289.300 L 133.213 289.753 L 132.084 290.109 L 130.928 290.365 L 129.754 290.520 L 128.571 290.571 M 169.286 248.444 L 169.337 247.262 L 169.492 246.088 L 169.748 244.932 L 170.104 243.803 L 170.557 242.709 L 171.104 241.659 L 171.740 240.660 L 172.461 239.721 L 173.261 238.848 L 174.134 238.048 L 175.073 237.327 L 176.071 236.691 L 177.122 236.145 L 178.215 235.691 L 179.345 235.335 L 180.500 235.079 L 181.674 234.925 L 182.857 234.873 M 169.286 277.000 L 169.234 278.183 L 169.080 279.357 L 168.823 280.513 L 168.467 281.642 L 168.014 282.736 L 167.467 283.786 L 166.831 284.784 L 166.111 285.724 L 165.311 286.596 L 164.438 287.396 L 163.499 288.117 L 162.500 288.753 L 161.450 289.300 L 160.356 289.753 L 159.227 290.109 L 158.071 290.365 L 156.897 290.520 L 155.714 290.571 M 182.857 262.016 L 181.674 261.964 L 180.500 261.810 L 179.345 261.553 L 178.215 261.197 L 177.122 260.744 L 176.071 260.198 L 175.073 259.562 L 174.134 258.841 L 173.261 258.041 L 172.461 257.168 L 171.740 256.229 L 171.104 255.230 L 170.557 254.180 L 170.104 253.086 L 169.748 251.957 L 169.492 250.801 L 169.337 249.627 L 169.286 248.444 M 210.000 263.429 L 211.183 263.480 L 212.357 263.635 L 213.513 263.891 L 214.642 264.247 L 215.736 264.700 L 216.786 265.247 L 217.784 265.883 L 218.724 266.604 L 219.596 267.404 L 220.396 268.276 L 221.117 269.216 L 221.753 270.214 L 222.300 271.264 L 222.753 272.358 L 223.109 273.487 L 223.365 274.643 L 223.520 275.817 L 223.571 277.000 M 210.000 262.016 L 208.817 261.964 L 207.643 261.810 L 206.487 261.553 L 205.358 261.197 L 204.264 260.744 L 203.214 260.198 L 202.216 259.562 L 201.276 258.841 L 200.404 258.041 L 199.604 257.168 L 198.883 256.229 L 198.247 255.230 L 197.700 254.180 L 197.247 253.086 L 196.891 251.957 L 196.635 250.801 L 196.480 249.627 L 196.429 248.444 M 237.143 263.429 L 238.326 263.480 L 239.500 263.635 L 240.655 263.891 L 241.785 264.247 L 242.878 264.700 L 243.929 265.247 L 244.927 265.883 L 245.866 266.604 L 246.739 267.404 L 247.539 268.276 L 248.260 269.216 L 248.896 270.214 L 249.443 271.264 L 249.896 272.358 L 250.252 273.487 L 250.508 274.643 L 250.663 275.817 L 250.714 277.000 M 237.143 262.016 L 235.960 261.964 L 234.786 261.810 L 233.630 261.553 L 232.501 261.197 L 231.407 260.744 L 230.357 260.198 L 229.359 259.562 L 228.419 258.841 L 227.546 258.041 L 226.747 257.168 L 226.026 256.229 L 225.390 255.230 L 224.843 254.180 L 224.390 253.086 L 224.034 251.957 L 223.778 250.801 L 223.623 249.627 L 223.571 248.444 M 264.286 263.429 L 265.469 263.480 L 266.642 263.635 L 267.798 263.891 L 268.927 264.247 L 270.021 264.700 L 271.071 265.247 L 272.070 265.883 L 273.009 266.604 L 273.882 267.404 L 274.682 268.276 L 275.403 269.216 L 276.039 270.214 L 276.586 271.264 L 277.039 272.358 L 277.395 273.487 L 277.651 274.643 L 277.805 275.817 L 277.857 277.000 M 277.857 248.444 L 277.909 247.262 L 278.063 246.088 L 278.320 244.932 L 278.676 243.803 L 279.129 242.709 L 279.675 241.659 L 280.312 240.660 L 281.032 239.721 L 281.832 238.848 L 282.705 238.048 L 283.644 237.327 L 284.643 236.691 L 285.693 236.145 L 286.787 235.691 L 287.916 235.335 L 289.072 235.079 L 290.246 234.925 L 291.429 234.873 M 277.857 277.000 L 277.805 278.183 L 277.651 279.357 L 277.395 280.513 L 277.039 281.642 L 276.586 282.736 L 276.039 283.786 L 275.403 284.784 L 274.682 285.724 L 273.882 286.596 L 273.009 287.396 L 272.070 288.117 L 271.071 288.753 L 270.021 289.300 L 268.927 289.753 L 267.798 290.109 L 266.642 290.365 L 265.469 290.520 L 264.286 290.571 M 305.000 248.444 L 305.052 247.262 L 305.206 246.088 L 305.462 244.932 L 305.818 243.803 L 306.272 242.709 L 306.818 241.659 L 307.454 240.660 L 308.175 239.721 L 308.975 238.848 L 309.848 238.048 L 310.787 237.327 L 311.786 236.691 L 312.836 236.145 L 313.930 235.691 L 315.059 235.335 L 316.215 235.079 L 317.389 234.925 L 318.571 234.873 M 305.000 277.000 L 304.948 278.183 L 304.794 279.357 L 304.538 280.513 L 304.182 281.642 L 303.728 282.736 L 303.182 283.786 L 302.546 284.784 L 301.825 285.724 L 301.025 286.596 L 300.152 287.396 L 299.213 288.117 L 298.214 288.753 L 297.164 289.300 L 296.070 289.753 L 294.941 290.109 L 293.785 290.365 L 292.611 290.520 L 291.429 290.571 M 318.571 262.016 L 317.389 261.964 L 316.215 261.810 L 315.059 261.553 L 313.930 261.197 L 312.836 260.744 L 311.786 260.198 L 310.787 259.562 L 309.848 258.841 L 308.975 258.041 L 308.175 257.168 L 307.454 256.229 L 306.818 255.230 L 306.272 254.180 L 305.818 253.086 L 305.462 251.957 L 305.206 250.801 L 305.052 249.627 L 305.000 248.444 M 345.714 263.429 L 346.897 263.480 L 348.071 263.635 L 349.227 263.891 L 350.356 264.247 L 351.450 264.700 L 352.500 265.247 L 353.499 265.883 L 354.438 266.604 L 355.311 267.404 L 356.111 268.276 L 356.831 269.216 L 357.467 270.214 L 358.014 271.264 L 358.467 272.358 L 358.823 273.487 L 359.080 274.643 L 359.234 275.817 L 359.286 277.000 M 345.714 262.016 L 344.531 261.964 L 343.358 261.810 L 342.202 261.553 L 341.073 261.197 L 339.979 260.744 L 338.929 260.198 L 337.930 259.562 L 336.991 258.841 L 336.118 258.041 L 335.318 257.168 L 334.597 256.229 L 333.961 255.230 L 333.414 254.180 L 332.961 253.086 L 332.605 251.957 L 332.349 250.801 L 332.195 249.627 L 332.143 248.444 M 372.857 263.429 L 374.040 263.480 L 375.214 263.635 L 376.370 263.891 L 377.499 264.247 L 378.593 264.700 L 379.643 265.247 L 380.641 265.883 L 381.581 266.604 L 382.454 267.404 L 383.253 268.276 L 383.974 269.216 L 384.610 270.214 L 385.157 271.264 L 385.610 272.358 L 385.966 273.487 L 386.222 274.643 L 386.377 275.817 L 386.429 277.000 M 372.857 262.016 L 371.674 261.964 L 370.500 261.810 L 369.345 261.553 L 368.215 261.197 L 367.122 260.744 L 366.071 260.198 L 365.073 259.562 L 364.134 258.841 L 363.261 258.041 L 362.461 257.168 L 361.740 256.229 L 361.104 255.230 L 360.557 254.180 L 360.104 253.086 L 359.748 251.957 L 359.492 250.801 L 359.337 249.627 L 359.286 248.444 M 400.000 263.429 L 401.183 263.480 L 402.357 263.635 L 403.513 263.891 L 404.642 264.247 L 405.736 264.700 L 406.786 265.247 L 407.784 265.883 L 408.724 266.604 L 409.596 267.404 L 410.396 268.276 L 411.117 269.216 L 411.753 270.214 L 412.300 271.264 L 412.753 272.358 L 413.109 273.487 L 413.365 274.643 L 413.520 275.817 L 413.571 277.000" fill="none" stroke="#f472b6" stroke-width="1" vector-effect="non-scaling-stroke"/></svg>